<svg width="45" height="45" viewBox="0 0 45 45" fill="none" xmlns="http://www.w3.org/2000/svg">
<path fill-rule="evenodd" clip-rule="evenodd" d="M13.5085 0.00012207L0.500061 13.0807V31.5798L13.5085 44.6604H31.9051L44.9141 31.5798V13.0807L31.9051 0.00012207H13.5085Z" fill="#D8D9D9"/>
<path fill-rule="evenodd" clip-rule="evenodd" d="M13.6302 0.294922L0.793121 13.2027V31.4574L13.6302 44.3652H31.7842L44.6209 31.4574V13.2027L31.7842 0.294922H13.6302Z" fill="white"/>
<path fill-rule="evenodd" clip-rule="evenodd" d="M14.4768 42.3099L2.83725 30.6058V14.0544L14.4768 2.35034H30.9374L42.5765 14.0544V30.6058L30.9374 42.3099H14.4768Z" fill="#ED1E45"/>
<path fill-rule="evenodd" clip-rule="evenodd" d="M11.852 23.456L11.541 22.016C11.3472 21.2325 11.1606 20.4005 10.9812 19.5203C10.8013 18.6405 10.6214 17.7923 10.4419 16.9764H10.3591C10.1931 17.8085 10.0235 18.6603 9.85119 19.5324C9.678 20.4045 9.49497 21.2325 9.30164 22.016L8.96958 23.456H11.852ZM12.4741 26.2158H8.34753L7.51828 29.9355H4.40802L8.63797 14.2886H12.3081L16.5385 29.9355H13.3034L12.4741 26.2158Z" fill="white"/>
<path fill-rule="evenodd" clip-rule="evenodd" d="M23.1944 27.1998C24.8668 27.1998 25.7032 26.4879 25.7032 25.0641C25.7032 24.376 25.496 23.8761 25.0812 23.5642C24.6663 23.2519 24.0371 23.0962 23.1944 23.0962H21.4733V27.1998H23.1944ZM22.904 20.6001C23.6505 20.6001 24.1929 20.4286 24.5316 20.0844C24.8704 19.7406 25.04 19.2726 25.04 18.6804C25.04 18.0886 24.8668 17.6647 24.5213 17.4087C24.1759 17.1526 23.6433 17.0244 22.9246 17.0244H21.4733V20.6001H22.904ZM18.4252 14.2888H23.049C23.7543 14.2888 24.4072 14.3487 25.0087 14.4688C25.6101 14.589 26.1351 14.8009 26.5848 15.1047C27.0337 15.4089 27.3863 15.8089 27.6423 16.3044C27.8979 16.8007 28.0259 17.4249 28.0259 18.1764C28.0259 18.5287 27.9807 18.8806 27.8911 19.2325C27.8007 19.5844 27.666 19.9125 27.4866 20.2162C27.3067 20.5204 27.0717 20.7922 26.7817 21.0321C26.4913 21.2724 26.1525 21.4483 25.7654 21.5604V21.6562C26.733 21.8641 27.4624 22.2646 27.9534 22.8559C28.4438 23.4481 28.6891 24.2721 28.6891 25.3278C28.6891 26.1279 28.5544 26.8159 28.285 27.3919C28.0156 27.9679 27.6423 28.444 27.1653 28.8198C26.6882 29.196 26.1315 29.4759 25.496 29.6595C24.8601 29.844 24.1758 29.9358 23.4433 29.9358H18.4252V14.2888Z" fill="white"/>
<path fill-rule="evenodd" clip-rule="evenodd" d="M35.532 21.8241C37.1909 21.8241 38.0202 20.9925 38.0202 19.3284C38.0202 18.5125 37.8094 17.9365 37.3878 17.6004C36.9658 17.2642 36.3474 17.0964 35.532 17.0964H33.8319V21.8241H35.532ZM30.7834 14.2888H35.7186C36.4512 14.2888 37.139 14.3725 37.7817 14.5408C38.4247 14.7087 38.9846 14.9886 39.4612 15.3805C39.9382 15.7729 40.3146 16.2927 40.5916 16.9407C40.8677 17.5882 41.006 18.3843 41.006 19.3284C41.006 20.2401 40.8642 21.0321 40.5809 21.7039C40.2976 22.3762 39.9141 22.9279 39.4303 23.3599C38.9461 23.7919 38.3863 24.1123 37.7508 24.3198C37.1144 24.5281 36.4373 24.6321 35.7186 24.6321H33.8319V29.9353H30.7834V14.2888Z" fill="white"/>
</svg>
