<svg xmlns="http://www.w3.org/2000/svg" viewBox="0 0 1358 1357.896340">
<g transform="translate(-228,1388) scale(0.095238,-0.095238)"
fill="#292929" stroke="none">
<path d="M4486 12482 l-2092 -2092 1 -2961 0 -2961 2092 -2076 2091 -2076
2961 0 2961 0 2076 2092 2076 2091 0 2945 1 2946 -2092 2092 -2092 2092 -2945
0 -2946 0 -2092 -2092z m9399 -682 l1813 -1797 0 -2558 0 -2559 -1813 -1797
-1812 -1797 -2548 -1 -2548 0 -1803 1804 -1803 1803 0 2546 0 2547 1803 1803
1803 1804 2548 0 2548 0 1812 -1798z"/>
<path d="M9308 9607 c-104 -14 -295 -76 -399 -130 -526 -271 -840 -893 -909
-1805 -15 -199 -7 -580 16 -779 70 -597 232 -1033 503 -1350 142 -167 364
-322 567 -398 119 -45 188 -52 481 -52 267 0 284 1 370 26 307 89 582 295 766
572 189 286 331 690 384 1092 48 358 38 948 -20 1287 -130 746 -474 1260 -978
1460 -152 60 -260 78 -492 83 -118 2 -248 -1 -289 -6z m449 -822 c136 -67 224
-182 285 -374 79 -246 105 -502 105 -1040 1 -713 -56 -1061 -212 -1292 -134
-198 -361 -263 -564 -163 -218 108 -335 386 -396 941 -21 194 -17 871 6 1060
60 491 177 769 360 861 83 41 139 52 243 48 87 -3 106 -7 173 -41z"/>
<path d="M12931 9602 c-218 -35 -502 -173 -662 -319 -283 -260 -488 -694 -588
-1245 -39 -218 -39 -1135 0 -1355 47 -257 136 -547 234 -752 199 -420 545
-725 918 -811 119 -27 310 -41 481 -35 147 6 175 10 288 44 431 131 754 457
949 957 134 343 196 695 208 1180 16 596 -76 1106 -274 1519 -276 577 -696
837 -1344 832 -70 -1 -164 -7 -210 -15z m372 -783 c26 -6 81 -27 122 -46 59
-27 85 -47 120 -90 109 -139 184 -366 228 -688 15 -113 18 -221 18 -634 0
-541 -6 -624 -64 -882 -70 -316 -170 -486 -327 -560 -95 -45 -237 -53 -345
-19 -214 65 -348 314 -419 778 -40 259 -39 1109 1 1370 41 270 135 531 231
644 57 67 163 119 278 138 50 8 81 6 157 -11z"/>
<path d="M4721 9521 c-3 -13 -15 -199 -27 -412 -12 -214 -34 -590 -48 -835
-46 -804 -50 -906 -39 -936 21 -50 414 -300 453 -288 12 4 87 38 166 76 80 38
169 78 198 89 165 61 465 37 644 -53 35 -18 96 -63 136 -101 81 -76 128 -163
154 -285 18 -83 20 -310 5 -393 -37 -200 -226 -395 -431 -445 -105 -26 -392
-33 -508 -12 -150 27 -334 123 -634 331 -43 29 -81 54 -86 54 -11 0 -215 -280
-351 -481 l-94 -139 57 -59 c176 -179 501 -365 824 -469 184 -60 232 -65 619
-65 468 0 517 9 809 155 176 88 307 183 430 314 174 185 256 317 318 513 109
339 113 693 12 1023 -84 273 -221 461 -443 608 -240 158 -478 234 -774 245
-177 6 -331 -7 -448 -38 -40 -11 -85 -23 -102 -26 l-30 -7 8 123 c3 69 18 246
32 395 14 148 26 273 26 275 0 3 361 6 803 6 l803 0 0 430 0 431 -1239 0
-1239 0 -4 -24z"/>
</g>
</svg>
