<svg width="303" height="229" viewBox="0 0 303 229" fill="none" xmlns="http://www.w3.org/2000/svg">
<g filter="url(#filter0_d_77_3131)">
<mask id="mask0_77_3131" style="mask-type:alpha" maskUnits="userSpaceOnUse" x="22" y="16" width="260" height="187">
<rect x="22" y="16.1278" width="259.81" height="186" rx="4.19406" fill="#C4C4C4"/>
</mask>
<g mask="url(#mask0_77_3131)">
<path d="M22 52.2944H281.81V197.934C281.81 200.25 279.932 202.128 277.615 202.128H26.1941C23.8777 202.128 22 200.25 22 197.934V52.2944Z" fill="#E6E6E6"/>
<g clip-path="url(#clip0_77_3131)">
<path d="M26.197 15.5328C23.7842 15.5328 21.8282 17.4888 21.8282 19.9016V42.7243C21.8282 45.1372 23.7842 47.0932 26.197 47.0932H277.618C280.031 47.0932 281.987 45.1372 281.987 42.7243V19.9016C281.987 17.4888 280.031 15.5328 277.618 15.5328H26.197Z" fill="#DDE1E5" stroke="#DEDEDE" stroke-width="0.349505"/>
<mask id="mask1_77_3131" style="mask-type:luminance" maskUnits="userSpaceOnUse" x="21" y="15" width="262" height="34">
<path d="M26.197 15.5328C23.7842 15.5328 21.8282 17.4888 21.8282 19.9016V43.5679C21.8282 45.9807 23.7842 47.9367 26.197 47.9367H277.618C280.031 47.9367 281.987 45.9807 281.987 43.5679V19.9016C281.987 17.4888 280.031 15.5328 277.618 15.5328H26.197Z" fill="white" stroke="white" stroke-width="0.349505"/>
</mask>
<g mask="url(#mask1_77_3131)">
</g>
<g clip-path="url(#clip1_77_3131)">
<path d="M33.018 23.9571C33.018 25.0375 32.1421 25.9134 31.0617 25.9134C29.9813 25.9134 29.1054 25.0375 29.1054 23.9571C29.1054 22.8767 29.9813 22.0008 31.0617 22.0008C32.1421 22.0008 33.018 22.8767 33.018 23.9571Z" fill="#FF6058" stroke="#E14942" stroke-width="0.349505"/>
<path d="M40.7895 23.9571C40.7895 25.0375 39.9136 25.9134 38.8332 25.9134C37.7528 25.9134 36.8769 25.0375 36.8769 23.9571C36.8769 22.8767 37.7528 22.0008 38.8332 22.0008C39.9136 22.0008 40.7895 22.8767 40.7895 23.9571Z" fill="#FFC130" stroke="#E1A325" stroke-width="0.349505"/>
<path d="M48.5668 23.9571C48.5668 25.0375 47.691 25.9134 46.6105 25.9134C45.5301 25.9134 44.6542 25.0375 44.6542 23.9571C44.6542 22.8767 45.5301 22.0008 46.6105 22.0008C47.691 22.0008 48.5668 22.8767 48.5668 23.9571Z" fill="#27CA40" stroke="#3EAF3F" stroke-width="0.349505"/>
</g>
<path fill-rule="evenodd" clip-rule="evenodd" d="M21.998 31.6278H281.808V52.2945H21.998V31.6278Z" fill="white"/>
<g clip-path="url(#clip2_77_3131)">
<path fill-rule="evenodd" clip-rule="evenodd" d="M72.1209 39.9249C71.8449 39.6653 71.592 39.4796 71.3649 39.3552C71.2035 39.2668 71.1616 39.252 71.0178 39.2129C69.8384 38.8921 68.5853 39.3507 67.9089 40.3301C67.7627 40.5419 67.6465 40.7739 67.5639 41.022C67.3823 41.5672 67.3794 42.1406 67.5465 42.6771C67.8143 43.5369 68.4908 44.2221 69.3833 44.505C70.8717 44.9767 72.4704 44.1822 72.954 42.7303L73.6659 42.9559C73.0545 44.7913 71.0336 45.7958 69.152 45.1994C68.0242 44.842 67.1684 43.9751 66.8303 42.8893C66.619 42.211 66.6227 41.4848 66.852 40.7963C66.9562 40.4835 67.103 40.1901 67.2881 39.9222C68.1436 38.6834 69.7271 38.1038 71.2189 38.5096C71.2474 38.5157 71.3031 38.5309 71.3731 38.5556C71.4817 38.5939 71.601 38.6472 71.7314 38.7186C72.0157 38.8743 72.3207 39.0983 72.6436 39.4022L73.6652 38.3806V41.1767L70.8691 41.1767L72.1209 39.9249Z" fill="#5F6367"/>
<path d="M31.1102 41.5657C30.8827 41.5657 30.6982 41.7501 30.6982 41.9776C30.6982 42.2051 30.8827 42.3895 31.1102 42.3895H37.562C37.7895 42.3895 37.9739 42.2051 37.9739 41.9776C37.9739 41.7501 37.7895 41.5657 37.562 41.5657H31.1102Z" fill="#737373"/>
<path d="M30.8379 41.6593C30.6768 41.8199 30.6764 42.0807 30.837 42.2419C30.9976 42.403 31.2584 42.4034 31.4195 42.2427L34.5481 39.1238C34.7092 38.9632 34.7096 38.7024 34.549 38.5413C34.3883 38.3802 34.1275 38.3798 33.9664 38.5404L30.8379 41.6593Z" fill="#737373"/>
<path d="M31.4192 41.7134C31.258 41.553 30.9972 41.5536 30.8367 41.7149C30.6763 41.8762 30.6769 42.137 30.8382 42.2974L33.9921 45.4355C34.1534 45.596 34.4142 45.5953 34.5747 45.4341C34.7351 45.2728 34.7345 45.012 34.5732 44.8515L31.4192 41.7134Z" fill="#737373"/>
<path d="M55.4074 41.5658C55.6349 41.5658 55.8193 41.7502 55.8193 41.9777C55.8193 42.2052 55.6349 42.3896 55.4074 42.3896H48.9556C48.7281 42.3896 48.5437 42.2052 48.5437 41.9777C48.5437 41.7502 48.7281 41.5658 48.9556 41.5658H55.4074Z" fill="#737373"/>
<path d="M55.6797 41.6594C55.8408 41.8201 55.8412 42.0809 55.6806 42.242C55.52 42.4031 55.2592 42.4035 55.098 42.2429L51.9695 39.1239C51.8084 38.9633 51.808 38.7025 51.9686 38.5414C52.1292 38.3803 52.39 38.3799 52.5511 38.5405L55.6797 41.6594Z" fill="#737373"/>
<path d="M55.0983 41.7139C55.2596 41.5535 55.5204 41.5541 55.6809 41.7154C55.8413 41.8766 55.8407 42.1375 55.6794 42.2979L52.5254 45.436C52.3642 45.5965 52.1034 45.5958 51.9429 45.4346C51.7824 45.2733 51.7831 45.0125 51.9444 44.852L55.0983 41.7139Z" fill="#737373"/>
</g>
<g clip-path="url(#clip3_77_3131)">
<rect x="82.5225" y="34.5802" width="171.976" height="15.5" rx="6.6406" fill="#F1F3F4"/>
<path d="M272.532 40.9274H271.642V38.554C271.642 37.9014 271.108 37.3674 270.456 37.3674H268.082V36.4774C268.082 35.6586 267.418 34.994 266.599 34.994C265.78 34.994 265.116 35.6586 265.116 36.4774V37.3674H262.742C262.09 37.3674 261.562 37.9014 261.562 38.554V40.8087H262.446C263.33 40.8087 264.048 41.5266 264.048 42.4107C264.048 43.2948 263.33 44.0127 262.446 44.0127H261.556V46.2674C261.556 46.92 262.09 47.454 262.742 47.454H264.997V46.564C264.997 45.68 265.715 44.962 266.599 44.962C267.483 44.962 268.201 45.68 268.201 46.564V47.454H270.456C271.108 47.454 271.642 46.92 271.642 46.2674V43.894H272.532C273.351 43.894 274.016 43.2295 274.016 42.4107C274.016 41.5919 273.351 40.9274 272.532 40.9274Z" fill="#333333"/>
</g>
<path fill-rule="evenodd" clip-rule="evenodd" d="M21.9385 52.3623H1206.34V52.9541H21.9385V52.3623Z" fill="#DEDEDE"/>
</g>
</g>
<mask id="mask2_77_3131" style="mask-type:alpha" maskUnits="userSpaceOnUse" x="22" y="52" width="260" height="151">
<path d="M22 52.2944H281.81V197.934C281.81 200.25 279.932 202.128 277.615 202.128H26.1941C23.8777 202.128 22 200.25 22 197.934V52.2944Z" fill="#E6E6E6"/>
</mask>
<g mask="url(#mask2_77_3131)">
<rect x="32.333" y="193.104" width="163.429" height="51.3333" rx="5.29323" fill="black" fill-opacity="0.1"/>
<rect x="206.237" y="193.104" width="63.9048" height="51.3333" rx="5.29323" fill="black" fill-opacity="0.1"/>
<rect x="32.333" y="61.1516" width="238.857" height="23.0476" rx="5.29323" fill="black" fill-opacity="0.1"/>
<rect x="32.333" y="91.5325" width="163.429" height="51.3333" rx="5.29323" fill="black" fill-opacity="0.1"/>
<rect x="206.237" y="91.5325" width="63.9048" height="51.3333" rx="5.29323" fill="black" fill-opacity="0.1"/>
<rect x="206.237" y="148.103" width="63.9048" height="39.8095" rx="5.29323" fill="black" fill-opacity="0.1"/>
<rect x="32.333" y="150.199" width="163.429" height="37.7143" rx="5.29323" fill="black" fill-opacity="0.1"/>
</g>
</g>
<g filter="url(#filter1_d_77_3131)">
<rect x="151.904" y="55.985" width="120.31" height="115.881" rx="2.95238" fill="white"/>
</g>
<path fill-rule="evenodd" clip-rule="evenodd" d="M163.325 108L161 110.326V113.614L163.325 115.94H166.614L168.94 113.614V110.326L166.614 108H163.325Z" fill="#D8D9D9"/>
<path fill-rule="evenodd" clip-rule="evenodd" d="M163.348 108.052L161.053 110.347V113.592L163.348 115.887H166.593L168.888 113.592V110.347L166.593 108.052H163.348Z" fill="white"/>
<path fill-rule="evenodd" clip-rule="evenodd" d="M163.499 115.522L161.418 113.441V110.499L163.499 108.418H166.441L168.522 110.499V113.441L166.441 115.522H163.499Z" fill="#ED1E45"/>
<path fill-rule="evenodd" clip-rule="evenodd" d="M163.029 112.17L162.973 111.914C162.939 111.775 162.905 111.627 162.873 111.47C162.841 111.314 162.809 111.163 162.777 111.018H162.762C162.732 111.166 162.702 111.317 162.671 111.472C162.64 111.627 162.607 111.775 162.573 111.914L162.514 112.17H163.029ZM163.14 112.661H162.402L162.254 113.322H161.698L162.454 110.54H163.11L163.867 113.322H163.288L163.14 112.661Z" fill="white"/>
<path fill-rule="evenodd" clip-rule="evenodd" d="M165.057 112.836C165.356 112.836 165.505 112.709 165.505 112.456C165.505 112.334 165.468 112.245 165.394 112.189C165.32 112.134 165.207 112.106 165.057 112.106H164.749V112.836H165.057ZM165.005 111.662C165.138 111.662 165.235 111.632 165.296 111.571C165.356 111.509 165.386 111.426 165.386 111.321C165.386 111.216 165.356 111.14 165.294 111.095C165.232 111.049 165.137 111.027 165.008 111.027H164.749V111.662H165.005ZM164.204 110.54H165.031C165.157 110.54 165.273 110.551 165.381 110.572C165.489 110.594 165.582 110.631 165.663 110.685C165.743 110.739 165.806 110.811 165.852 110.899C165.897 110.987 165.92 111.098 165.92 111.231C165.92 111.294 165.912 111.357 165.896 111.419C165.88 111.482 165.856 111.54 165.824 111.594C165.792 111.648 165.75 111.696 165.698 111.739C165.646 111.782 165.585 111.813 165.516 111.833V111.85C165.689 111.887 165.82 111.958 165.907 112.063C165.995 112.169 166.039 112.315 166.039 112.503C166.039 112.645 166.015 112.767 165.967 112.87C165.919 112.972 165.852 113.057 165.767 113.124C165.681 113.19 165.582 113.24 165.468 113.273C165.354 113.306 165.232 113.322 165.101 113.322H164.204V110.54Z" fill="white"/>
<path fill-rule="evenodd" clip-rule="evenodd" d="M167.263 111.88C167.559 111.88 167.708 111.732 167.708 111.436C167.708 111.291 167.67 111.189 167.595 111.129C167.519 111.069 167.409 111.039 167.263 111.039H166.959V111.88H167.263ZM166.414 110.54H167.296C167.427 110.54 167.55 110.555 167.665 110.585C167.78 110.615 167.88 110.665 167.965 110.734C168.051 110.804 168.118 110.897 168.167 111.012C168.217 111.127 168.242 111.268 168.242 111.436C168.242 111.598 168.216 111.739 168.166 111.859C168.115 111.978 168.046 112.076 167.96 112.153C167.873 112.23 167.773 112.287 167.66 112.324C167.546 112.361 167.425 112.379 167.296 112.379H166.959V113.322H166.414V110.54Z" fill="white"/>
<path d="M247.32 107.655H241.838C241.586 107.757 241.62 107.928 241.586 108.014C241.586 108.793 242.19 109.091 242.491 109.142L242.089 113.051C240.882 113.256 240.513 114.299 240.479 114.795C240.439 115.082 240.731 115.188 240.882 115.205H244.151V118.314L244.403 119.167C244.725 119.7 245.007 119.389 245.107 119.167L245.308 118.314L245.409 115.205H248.427C248.709 115.123 248.779 114.897 248.779 114.795C248.739 113.646 247.723 113.154 247.22 113.051L246.868 109.142C247.673 108.886 247.673 108.424 247.723 108.014C247.763 107.685 247.471 107.638 247.32 107.655Z" fill="#2467DE"/>
<path d="M164.749 73.8805L164.744 74.5802H160.834V68.2341H164.744V68.9338H161.693V71.0418H164.164V71.7149H161.693V73.8805H164.749ZM169.444 74.5802H168.687C168.622 74.5802 168.57 74.564 168.532 74.5315C168.497 74.4961 168.467 74.4577 168.443 74.4163L167.314 72.6582C167.302 72.6995 167.289 72.7409 167.274 72.7822C167.263 72.8206 167.245 72.856 167.221 72.8885L166.176 74.4163C166.147 74.4577 166.114 74.4961 166.079 74.5315C166.046 74.564 166 74.5802 165.941 74.5802H165.237L166.809 72.2773L165.299 70.0941H166.056C166.121 70.0941 166.169 70.1044 166.198 70.1251C166.228 70.1457 166.254 70.1752 166.278 70.2136L167.381 71.8965C167.404 71.8109 167.441 71.7282 167.491 71.6485L168.457 70.2313C168.483 70.19 168.511 70.1575 168.541 70.1339C168.573 70.1073 168.612 70.0941 168.656 70.0941H169.382L167.872 72.2375L169.444 74.5802ZM171.548 74.6511C171.194 74.6511 170.921 74.5522 170.729 74.3543C170.54 74.1565 170.446 73.8716 170.446 73.4996V70.7539H169.905C169.858 70.7539 169.818 70.7406 169.786 70.7141C169.753 70.6845 169.737 70.6402 169.737 70.5812V70.2668L170.472 70.1738L170.654 68.7876C170.663 68.7433 170.682 68.7079 170.711 68.6813C170.744 68.6518 170.785 68.6371 170.835 68.6371H171.234V70.1826H172.531V70.7539H171.234V73.4465C171.234 73.6354 171.28 73.7757 171.371 73.8672C171.463 73.9587 171.581 74.0045 171.725 74.0045C171.808 74.0045 171.879 73.9942 171.938 73.9735C172 73.9499 172.053 73.9248 172.097 73.8982C172.142 73.8716 172.179 73.848 172.208 73.8273C172.241 73.8037 172.269 73.7919 172.292 73.7919C172.334 73.7919 172.371 73.817 172.403 73.8672L172.633 74.2436C172.498 74.3706 172.334 74.471 172.142 74.5448C171.95 74.6156 171.752 74.6511 171.548 74.6511ZM176.322 71.8478C176.322 71.6647 176.295 71.4979 176.242 71.3473C176.192 71.1938 176.117 71.0624 176.016 70.9532C175.919 70.841 175.799 70.7554 175.658 70.6963C175.516 70.6343 175.355 70.6033 175.175 70.6033C174.797 70.6033 174.497 70.7141 174.276 70.9355C174.058 71.154 173.922 71.4581 173.869 71.8478H176.322ZM176.96 73.9513C176.862 74.0694 176.746 74.1728 176.61 74.2613C176.474 74.347 176.328 74.4178 176.171 74.4739C176.018 74.53 175.859 74.5713 175.693 74.5979C175.528 74.6274 175.364 74.6422 175.202 74.6422C174.892 74.6422 174.605 74.5905 174.342 74.4872C174.083 74.3809 173.857 74.2274 173.665 74.0266C173.476 73.8229 173.328 73.572 173.222 73.2738C173.116 72.9756 173.063 72.6331 173.063 72.2463C173.063 71.9334 173.11 71.6411 173.204 71.3695C173.302 71.0979 173.441 70.8632 173.621 70.6653C173.801 70.4646 174.021 70.3081 174.28 70.1959C174.54 70.0808 174.833 70.0232 175.157 70.0232C175.426 70.0232 175.674 70.069 175.901 70.1605C176.132 70.2491 176.329 70.379 176.495 70.5502C176.663 70.7185 176.794 70.9281 176.889 71.1791C176.983 71.4271 177.031 71.7105 177.031 72.0293C177.031 72.1533 177.017 72.236 176.991 72.2773C176.964 72.3187 176.914 72.3393 176.84 72.3393H173.842C173.851 72.6228 173.889 72.8693 173.957 73.0789C174.028 73.2885 174.125 73.4642 174.249 73.6059C174.373 73.7447 174.521 73.8495 174.692 73.9203C174.864 73.9882 175.055 74.0222 175.268 74.0222C175.466 74.0222 175.636 74.0001 175.777 73.9558C175.922 73.9085 176.046 73.8583 176.149 73.8052C176.253 73.7521 176.338 73.7033 176.406 73.6591C176.477 73.6118 176.538 73.5882 176.588 73.5882C176.653 73.5882 176.703 73.6133 176.738 73.6635L176.96 73.9513ZM178.743 70.7451C178.84 70.6358 178.944 70.5369 179.053 70.4483C179.162 70.3598 179.277 70.2845 179.398 70.2225C179.522 70.1575 179.652 70.1088 179.788 70.0763C179.927 70.0409 180.076 70.0232 180.235 70.0232C180.48 70.0232 180.696 70.0645 180.882 70.1472C181.071 70.2269 181.227 70.3421 181.351 70.4926C181.478 70.6402 181.574 70.8189 181.639 71.0285C181.704 71.2381 181.737 71.4699 181.737 71.7238V74.5802H180.944V71.7238C180.944 71.3842 180.866 71.1215 180.709 70.9355C180.556 70.7465 180.321 70.6521 180.005 70.6521C179.772 70.6521 179.553 70.7082 179.35 70.8203C179.149 70.9325 178.963 71.0846 178.792 71.2765V74.5802H177.999V70.0941H178.473C178.585 70.0941 178.654 70.1487 178.681 70.2579L178.743 70.7451ZM185.551 70.8336C185.515 70.8986 185.461 70.9311 185.387 70.9311C185.342 70.9311 185.292 70.9148 185.236 70.8823C185.18 70.8499 185.111 70.8144 185.028 70.7761C184.948 70.7347 184.852 70.6978 184.74 70.6653C184.628 70.6299 184.495 70.6122 184.342 70.6122C184.209 70.6122 184.089 70.6299 183.983 70.6653C183.877 70.6978 183.785 70.7436 183.708 70.8026C183.635 70.8617 183.577 70.9311 183.536 71.0108C183.497 71.0875 183.478 71.1717 183.478 71.2632C183.478 71.3783 183.511 71.4743 183.575 71.5511C183.643 71.6278 183.732 71.6942 183.841 71.7503C183.95 71.8064 184.074 71.8566 184.213 71.9009C184.352 71.9422 184.494 71.988 184.638 72.0382C184.786 72.0854 184.929 72.1386 185.068 72.1976C185.207 72.2567 185.331 72.3305 185.44 72.4191C185.549 72.5076 185.636 72.6169 185.701 72.7468C185.769 72.8737 185.803 73.0272 185.803 73.2073C185.803 73.414 185.766 73.6059 185.692 73.7831C185.619 73.9572 185.509 74.1093 185.365 74.2392C185.22 74.3662 185.043 74.4665 184.833 74.5403C184.624 74.6142 184.381 74.6511 184.107 74.6511C183.794 74.6511 183.511 74.6009 183.257 74.5005C183.003 74.3972 182.787 74.2658 182.61 74.1063L182.796 73.8052C182.82 73.7668 182.848 73.7373 182.88 73.7166C182.913 73.696 182.954 73.6856 183.004 73.6856C183.057 73.6856 183.113 73.7063 183.172 73.7476C183.232 73.789 183.302 73.8347 183.385 73.8849C183.471 73.9351 183.574 73.9809 183.695 74.0222C183.816 74.0635 183.967 74.0842 184.147 74.0842C184.3 74.0842 184.435 74.065 184.55 74.0266C184.665 73.9853 184.761 73.9307 184.838 73.8628C184.914 73.7949 184.97 73.7166 185.006 73.6281C185.044 73.5395 185.063 73.445 185.063 73.3446C185.063 73.2206 185.03 73.1188 184.962 73.0391C184.897 72.9564 184.81 72.887 184.7 72.8309C184.591 72.7719 184.466 72.7217 184.324 72.6803C184.185 72.6361 184.042 72.5903 183.894 72.5431C183.75 72.4958 183.606 72.4427 183.465 72.3836C183.326 72.3216 183.202 72.2449 183.093 72.1533C182.984 72.0618 182.895 71.9496 182.827 71.8168C182.762 71.681 182.73 71.5171 182.73 71.3252C182.73 71.154 182.765 70.9901 182.836 70.8336C182.907 70.6742 183.01 70.5354 183.146 70.4173C183.282 70.2963 183.449 70.2003 183.646 70.1295C183.844 70.0586 184.07 70.0232 184.324 70.0232C184.619 70.0232 184.883 70.0704 185.117 70.1649C185.353 70.2564 185.557 70.3834 185.728 70.5458L185.551 70.8336ZM187.602 70.0941V74.5802H186.814V70.0941H187.602ZM187.77 68.6858C187.77 68.7625 187.754 68.8349 187.722 68.9028C187.692 68.9677 187.651 69.0268 187.598 69.0799C187.547 69.1301 187.487 69.17 187.416 69.1995C187.348 69.229 187.276 69.2438 187.199 69.2438C187.122 69.2438 187.05 69.229 186.982 69.1995C186.917 69.17 186.86 69.1301 186.809 69.0799C186.759 69.0268 186.719 68.9677 186.69 68.9028C186.66 68.8349 186.646 68.7625 186.646 68.6858C186.646 68.609 186.66 68.5367 186.69 68.4688C186.719 68.3979 186.759 68.3374 186.809 68.2872C186.86 68.2341 186.917 68.1927 186.982 68.1632C187.05 68.1337 187.122 68.1189 187.199 68.1189C187.276 68.1189 187.348 68.1337 187.416 68.1632C187.487 68.1927 187.547 68.2341 187.598 68.2872C187.651 68.3374 187.692 68.3979 187.722 68.4688C187.754 68.5367 187.77 68.609 187.77 68.6858ZM190.788 70.0232C191.116 70.0232 191.411 70.0778 191.674 70.1871C191.937 70.2963 192.161 70.4513 192.347 70.6521C192.533 70.8528 192.675 71.0964 192.772 71.3828C192.873 71.6662 192.923 71.9836 192.923 72.3349C192.923 72.6892 192.873 73.0081 192.772 73.2915C192.675 73.5749 192.533 73.817 192.347 74.0178C192.161 74.2185 191.937 74.3735 191.674 74.4828C191.411 74.5891 191.116 74.6422 190.788 74.6422C190.458 74.6422 190.159 74.5891 189.894 74.4828C189.631 74.3735 189.407 74.2185 189.221 74.0178C189.035 73.817 188.891 73.5749 188.791 73.2915C188.694 73.0081 188.645 72.6892 188.645 72.3349C188.645 71.9836 188.694 71.6662 188.791 71.3828C188.891 71.0964 189.035 70.8528 189.221 70.6521C189.407 70.4513 189.631 70.2963 189.894 70.1871C190.159 70.0778 190.458 70.0232 190.788 70.0232ZM190.788 74.0266C191.231 74.0266 191.562 73.879 191.78 73.5838C191.999 73.2856 192.108 72.8708 192.108 72.3393C192.108 71.805 191.999 71.3887 191.78 71.0905C191.562 70.7923 191.231 70.6432 190.788 70.6432C190.564 70.6432 190.368 70.6816 190.199 70.7583C190.034 70.8351 189.895 70.9458 189.783 71.0905C189.674 71.2352 189.591 71.4138 189.535 71.6263C189.482 71.836 189.455 72.0736 189.455 72.3393C189.455 72.8708 189.565 73.2856 189.783 73.5838C190.004 73.879 190.34 74.0266 190.788 74.0266ZM194.667 70.7451C194.764 70.6358 194.867 70.5369 194.977 70.4483C195.086 70.3598 195.201 70.2845 195.322 70.2225C195.446 70.1575 195.576 70.1088 195.712 70.0763C195.851 70.0409 196 70.0232 196.159 70.0232C196.404 70.0232 196.62 70.0645 196.806 70.1472C196.995 70.2269 197.151 70.3421 197.275 70.4926C197.402 70.6402 197.498 70.8189 197.563 71.0285C197.628 71.2381 197.66 71.4699 197.66 71.7238V74.5802H196.868V71.7238C196.868 71.3842 196.789 71.1215 196.633 70.9355C196.479 70.7465 196.245 70.6521 195.929 70.6521C195.696 70.6521 195.477 70.7082 195.273 70.8203C195.073 70.9325 194.887 71.0846 194.715 71.2765V74.5802H193.923V70.0941H194.397C194.509 70.0941 194.578 70.1487 194.605 70.2579L194.667 70.7451ZM201.474 70.8336C201.439 70.8986 201.384 70.9311 201.311 70.9311C201.266 70.9311 201.216 70.9148 201.16 70.8823C201.104 70.8499 201.035 70.8144 200.952 70.7761C200.872 70.7347 200.776 70.6978 200.664 70.6653C200.552 70.6299 200.419 70.6122 200.265 70.6122C200.133 70.6122 200.013 70.6299 199.907 70.6653C199.8 70.6978 199.709 70.7436 199.632 70.8026C199.558 70.8617 199.501 70.9311 199.459 71.0108C199.421 71.0875 199.402 71.1717 199.402 71.2632C199.402 71.3783 199.434 71.4743 199.499 71.5511C199.567 71.6278 199.656 71.6942 199.765 71.7503C199.874 71.8064 199.998 71.8566 200.137 71.9009C200.276 71.9422 200.418 71.988 200.562 72.0382C200.71 72.0854 200.853 72.1386 200.992 72.1976C201.131 72.2567 201.255 72.3305 201.364 72.4191C201.473 72.5076 201.56 72.6169 201.625 72.7468C201.693 72.8737 201.727 73.0272 201.727 73.2073C201.727 73.414 201.69 73.6059 201.616 73.7831C201.542 73.9572 201.433 74.1093 201.288 74.2392C201.144 74.3662 200.967 74.4665 200.757 74.5403C200.547 74.6142 200.305 74.6511 200.031 74.6511C199.718 74.6511 199.434 74.6009 199.18 74.5005C198.927 74.3972 198.711 74.2658 198.534 74.1063L198.72 73.8052C198.744 73.7668 198.772 73.7373 198.804 73.7166C198.837 73.696 198.878 73.6856 198.928 73.6856C198.981 73.6856 199.037 73.7063 199.096 73.7476C199.155 73.789 199.226 73.8347 199.309 73.8849C199.395 73.9351 199.498 73.9809 199.619 74.0222C199.74 74.0635 199.891 74.0842 200.071 74.0842C200.224 74.0842 200.358 74.065 200.474 74.0266C200.589 73.9853 200.685 73.9307 200.761 73.8628C200.838 73.7949 200.894 73.7166 200.93 73.6281C200.968 73.5395 200.987 73.445 200.987 73.3446C200.987 73.2206 200.953 73.1188 200.885 73.0391C200.821 72.9564 200.733 72.887 200.624 72.8309C200.515 72.7719 200.389 72.7217 200.248 72.6803C200.109 72.6361 199.966 72.5903 199.818 72.5431C199.674 72.4958 199.53 72.4427 199.389 72.3836C199.25 72.3216 199.126 72.2449 199.017 72.1533C198.907 72.0618 198.819 71.9496 198.751 71.8168C198.686 71.681 198.653 71.5171 198.653 71.3252C198.653 71.154 198.689 70.9901 198.76 70.8336C198.831 70.6742 198.934 70.5354 199.07 70.4173C199.206 70.2963 199.372 70.2003 199.57 70.1295C199.768 70.0586 199.994 70.0232 200.248 70.0232C200.543 70.0232 200.807 70.0704 201.04 70.1649C201.277 70.2564 201.48 70.3834 201.652 70.5458L201.474 70.8336Z" fill="black"/>
<path d="M172.76 112.205L172.531 112.943H173.985L173.756 112.205C173.668 111.934 173.584 111.666 173.506 111.4C173.427 111.13 173.348 110.854 173.269 110.574H173.24C173.166 110.854 173.09 111.13 173.011 111.4C172.932 111.666 172.849 111.934 172.76 112.205ZM171.284 114.914L172.922 110.072H173.616L175.255 114.914H174.598L174.14 113.437H172.376L171.911 114.914H171.284ZM177.107 115.002C176.659 115.002 176.3 114.84 176.029 114.515C175.759 114.185 175.623 113.723 175.623 113.127C175.623 112.739 175.695 112.404 175.838 112.124C175.985 111.838 176.177 111.619 176.413 111.467C176.654 111.314 176.91 111.238 177.181 111.238C177.388 111.238 177.567 111.275 177.72 111.349C177.872 111.422 178.027 111.523 178.185 111.651L178.155 111.039V109.658H178.768V114.914H178.266L178.214 114.493H178.192C178.054 114.631 177.892 114.751 177.705 114.855C177.518 114.953 177.319 115.002 177.107 115.002ZM177.24 114.493C177.555 114.493 177.86 114.328 178.155 113.998V112.124C178.003 111.986 177.855 111.89 177.712 111.836C177.574 111.777 177.432 111.747 177.284 111.747C177.092 111.747 176.918 111.806 176.76 111.924C176.608 112.037 176.485 112.197 176.391 112.404C176.298 112.606 176.251 112.844 176.251 113.12C176.251 113.548 176.337 113.885 176.509 114.131C176.681 114.372 176.925 114.493 177.24 114.493ZM181.563 115.002C181.396 115.002 181.221 114.963 181.039 114.884C180.862 114.8 180.694 114.687 180.537 114.545H180.515L180.463 114.914H179.976V109.658H180.581V111.09L180.566 111.74C180.729 111.597 180.906 111.479 181.098 111.385C181.295 111.287 181.491 111.238 181.688 111.238C182.156 111.238 182.51 111.403 182.751 111.732C182.992 112.062 183.113 112.505 183.113 113.061C183.113 113.469 183.039 113.819 182.891 114.109C182.749 114.399 182.559 114.621 182.323 114.773C182.092 114.926 181.838 115.002 181.563 115.002ZM181.459 114.493C181.755 114.493 181.998 114.367 182.19 114.116C182.387 113.861 182.485 113.511 182.485 113.068C182.485 112.675 182.412 112.357 182.264 112.116C182.121 111.87 181.88 111.747 181.541 111.747C181.388 111.747 181.233 111.789 181.076 111.873C180.918 111.956 180.753 112.077 180.581 112.234V114.116C180.739 114.254 180.894 114.353 181.046 114.412C181.204 114.466 181.341 114.493 181.459 114.493ZM184.698 115.002C184.471 115.002 184.307 114.933 184.203 114.795C184.105 114.653 184.056 114.451 184.056 114.19V109.658H184.661V114.235C184.661 114.328 184.678 114.397 184.713 114.441C184.747 114.481 184.786 114.5 184.831 114.5C184.85 114.5 184.868 114.5 184.882 114.5C184.902 114.495 184.929 114.49 184.963 114.485L185.045 114.943C185.005 114.963 184.959 114.978 184.904 114.987C184.85 114.997 184.781 115.002 184.698 115.002ZM187.332 115.002C187.042 115.002 186.768 114.928 186.513 114.781C186.262 114.633 186.057 114.419 185.9 114.139C185.747 113.858 185.671 113.521 185.671 113.127C185.671 112.724 185.747 112.382 185.9 112.101C186.057 111.821 186.262 111.607 186.513 111.459C186.768 111.312 187.042 111.238 187.332 111.238C187.627 111.238 187.9 111.312 188.151 111.459C188.402 111.607 188.604 111.821 188.756 112.101C188.914 112.382 188.993 112.724 188.993 113.127C188.993 113.521 188.914 113.858 188.756 114.139C188.604 114.419 188.402 114.633 188.151 114.781C187.9 114.928 187.627 115.002 187.332 115.002ZM187.332 114.5C187.642 114.5 187.89 114.375 188.077 114.124C188.269 113.868 188.365 113.536 188.365 113.127C188.365 112.714 188.269 112.379 188.077 112.124C187.89 111.868 187.642 111.74 187.332 111.74C187.027 111.74 186.778 111.868 186.586 112.124C186.395 112.379 186.299 112.714 186.299 113.127C186.299 113.536 186.395 113.868 186.586 114.124C186.778 114.375 187.027 114.5 187.332 114.5ZM191.354 115.002C191.04 115.002 190.754 114.928 190.498 114.781C190.242 114.633 190.041 114.419 189.893 114.139C189.745 113.858 189.672 113.521 189.672 113.127C189.672 112.724 189.75 112.382 189.908 112.101C190.07 111.821 190.282 111.607 190.543 111.459C190.808 111.312 191.094 111.238 191.399 111.238C191.635 111.238 191.837 111.28 192.004 111.363C192.176 111.447 192.324 111.545 192.447 111.659L192.137 112.057C192.034 111.964 191.923 111.887 191.805 111.828C191.692 111.769 191.564 111.74 191.421 111.74C191.204 111.74 191.01 111.799 190.838 111.917C190.67 112.03 190.538 112.192 190.439 112.404C190.346 112.611 190.299 112.852 190.299 113.127C190.299 113.536 190.4 113.868 190.602 114.124C190.808 114.375 191.076 114.5 191.406 114.5C191.573 114.5 191.728 114.466 191.871 114.397C192.014 114.323 192.139 114.237 192.248 114.139L192.513 114.545C192.351 114.687 192.171 114.8 191.974 114.884C191.778 114.963 191.571 115.002 191.354 115.002ZM193.303 114.914V109.658H193.901V113.216H193.923L195.451 111.326H196.123L194.92 112.766L196.285 114.914H195.621L194.573 113.186L193.901 113.969V114.914H193.303ZM198.495 114.914V110.072H199.875C200.239 110.072 200.556 110.116 200.827 110.205C201.098 110.293 201.309 110.443 201.462 110.655C201.614 110.861 201.691 111.142 201.691 111.496C201.691 112.003 201.526 112.379 201.196 112.625C200.866 112.872 200.436 112.995 199.904 112.995H199.107V114.914H198.495ZM199.107 112.493H199.831C200.254 112.493 200.566 112.414 200.768 112.256C200.975 112.094 201.078 111.841 201.078 111.496C201.078 111.147 200.97 110.906 200.753 110.773C200.542 110.635 200.224 110.566 199.801 110.566H199.107V112.493ZM203.258 115.002C203.032 115.002 202.867 114.933 202.764 114.795C202.665 114.653 202.616 114.451 202.616 114.19V109.658H203.221V114.235C203.221 114.328 203.239 114.397 203.273 114.441C203.307 114.481 203.347 114.5 203.391 114.5C203.411 114.5 203.428 114.5 203.443 114.5C203.462 114.495 203.49 114.49 203.524 114.485L203.605 114.943C203.566 114.963 203.519 114.978 203.465 114.987C203.411 114.997 203.342 115.002 203.258 115.002ZM205.545 115.002C205.167 115.002 204.889 114.884 204.711 114.648C204.534 114.407 204.446 114.057 204.446 113.6V111.326H205.058V113.519C205.058 113.853 205.11 114.097 205.213 114.249C205.322 114.402 205.494 114.478 205.73 114.478C205.917 114.478 206.082 114.431 206.225 114.338C206.372 114.239 206.53 114.084 206.697 113.873V111.326H207.302V114.914H206.8L206.749 114.353H206.726C206.559 114.549 206.382 114.707 206.195 114.825C206.008 114.943 205.792 115.002 205.545 115.002ZM209.45 115.002C209.194 115.002 208.95 114.955 208.719 114.862C208.488 114.763 208.286 114.645 208.114 114.508L208.416 114.102C208.574 114.225 208.736 114.328 208.903 114.412C209.071 114.49 209.26 114.53 209.472 114.53C209.708 114.53 209.885 114.476 210.003 114.367C210.121 114.254 210.18 114.121 210.18 113.969C210.18 113.846 210.139 113.742 210.055 113.659C209.976 113.575 209.873 113.506 209.745 113.452C209.622 113.393 209.494 113.339 209.361 113.29C209.194 113.226 209.029 113.154 208.867 113.076C208.704 112.992 208.571 112.886 208.468 112.758C208.365 112.625 208.313 112.458 208.313 112.256C208.313 111.966 208.421 111.725 208.638 111.533C208.859 111.336 209.164 111.238 209.553 111.238C209.774 111.238 209.981 111.277 210.173 111.356C210.365 111.435 210.53 111.531 210.667 111.644L210.372 112.028C210.249 111.934 210.121 111.858 209.988 111.799C209.856 111.74 209.71 111.71 209.553 111.71C209.327 111.71 209.159 111.762 209.051 111.865C208.948 111.969 208.896 112.089 208.896 112.227C208.896 112.34 208.933 112.434 209.007 112.507C209.081 112.576 209.177 112.638 209.295 112.692C209.413 112.741 209.538 112.793 209.671 112.847C209.843 112.911 210.013 112.985 210.18 113.068C210.348 113.147 210.485 113.255 210.594 113.393C210.707 113.526 210.763 113.706 210.763 113.932C210.763 114.124 210.712 114.301 210.608 114.463C210.51 114.626 210.362 114.756 210.166 114.855C209.974 114.953 209.735 115.002 209.45 115.002Z" fill="black"/>
<path d="M264.157 67.6018L263.55 66.9948L261.143 69.4016L258.736 66.9948L258.129 67.6018L260.536 70.0086L258.129 72.4154L258.736 73.0225L261.143 70.6157L263.55 73.0225L264.157 72.4154L261.75 70.0086L264.157 67.6018Z" fill="#333333"/>
<rect x="160.023" y="81.0802" width="104.071" height="4.42857" rx="1.47619" fill="#E6E6E6"/>
<rect x="160.023" y="88.4612" width="53.1429" height="4.42857" rx="1.47619" fill="#E6E6E6"/>
<path fill-rule="evenodd" clip-rule="evenodd" d="M261.881 110.358C262.557 110.358 263.111 109.804 263.111 109.128C263.111 108.451 262.557 107.898 261.881 107.898C261.204 107.898 260.65 108.451 260.65 109.128C260.65 109.804 261.204 110.358 261.881 110.358ZM261.881 111.588C261.204 111.588 260.651 112.142 260.651 112.818C260.651 113.495 261.204 114.049 261.881 114.049C262.557 114.049 263.111 113.495 263.111 112.818C263.111 112.142 262.557 111.588 261.881 111.588ZM260.651 116.509C260.651 115.832 261.204 115.279 261.881 115.279C262.557 115.279 263.111 115.832 263.111 116.509C263.111 117.185 262.557 117.739 261.881 117.739C261.204 117.739 260.651 117.185 260.651 116.509Z" fill="#333333"/>
<line x1="151.905" y1="148.616" x2="272.215" y2="148.616" stroke="#E6E6E6" stroke-width="0.738095"/>
<g clip-path="url(#clip4_77_3131)">
<path d="M250.503 131.704V117.62L260.164 128.192L255.623 128.195L257.759 132.945L256.056 133.664L253.796 128.804L250.503 131.704Z" fill="white"/>
<path d="M255.841 134.223L253.65 129.51L250.072 132.658V116.509L261.143 128.623L256.283 128.626L258.334 133.169L255.841 134.223ZM253.944 128.1L256.271 133.103L257.185 132.725L254.956 127.764H259.186L250.935 118.731V130.75L253.944 128.1Z" fill="black"/>
</g>
<defs>
<filter id="filter0_d_77_3131" x="0.827066" y="0.248107" width="302.155" height="228.346" filterUnits="userSpaceOnUse" color-interpolation-filters="sRGB">
<feFlood flood-opacity="0" result="BackgroundImageFix"/>
<feColorMatrix in="SourceAlpha" type="matrix" values="0 0 0 0 0 0 0 0 0 0 0 0 0 0 0 0 0 0 127 0" result="hardAlpha"/>
<feOffset dy="5.29323"/>
<feGaussianBlur stdDeviation="10.5865"/>
<feColorMatrix type="matrix" values="0 0 0 0 0 0 0 0 0 0 0 0 0 0 0 0 0 0 0.15 0"/>
<feBlend mode="normal" in2="BackgroundImageFix" result="effect1_dropShadow_77_3131"/>
<feBlend mode="normal" in="SourceGraphic" in2="effect1_dropShadow_77_3131" result="shape"/>
</filter>
<filter id="filter1_d_77_3131" x="137.142" y="44.9136" width="149.833" height="145.405" filterUnits="userSpaceOnUse" color-interpolation-filters="sRGB">
<feFlood flood-opacity="0" result="BackgroundImageFix"/>
<feColorMatrix in="SourceAlpha" type="matrix" values="0 0 0 0 0 0 0 0 0 0 0 0 0 0 0 0 0 0 127 0" result="hardAlpha"/>
<feOffset dy="3.69048"/>
<feGaussianBlur stdDeviation="7.38095"/>
<feColorMatrix type="matrix" values="0 0 0 0 0 0 0 0 0 0 0 0 0 0 0 0 0 0 0.15 0"/>
<feBlend mode="normal" in2="BackgroundImageFix" result="effect1_dropShadow_77_3131"/>
<feBlend mode="normal" in="SourceGraphic" in2="effect1_dropShadow_77_3131" result="shape"/>
</filter>
<clipPath id="clip0_77_3131">
<path d="M21.9385 20.3219C21.9385 18.0056 23.8162 16.1278 26.1325 16.1278H277.614C279.931 16.1278 281.809 18.0056 281.809 20.3219V54.9702H21.9385V20.3219Z" fill="white"/>
</clipPath>
<clipPath id="clip1_77_3131">
<rect width="29.3584" height="6.99011" fill="white" transform="translate(28.9307 21.826)"/>
</clipPath>
<clipPath id="clip2_77_3131">
<rect width="43.3387" height="7.68912" fill="white" transform="translate(30.3271 38.381)"/>
</clipPath>
<clipPath id="clip3_77_3131">
<rect width="199.286" height="15.5" fill="white" transform="translate(82.5225 33.8422)"/>
</clipPath>
<clipPath id="clip4_77_3131">
<rect width="11.0706" height="17.7143" fill="white" transform="translate(250.072 116.509)"/>
</clipPath>
</defs>
</svg>
