<svg width="159" height="160" viewBox="0 0 159 160" fill="none" xmlns="http://www.w3.org/2000/svg">
<g clip-path="url(#clip0_77_2943)">
<path d="M0.998505 114.556L158.153 114.556V5.75276L0.998505 5.75276V114.556Z" fill="white"/>
<path d="M158.154 115.566H0.998719C0.447702 115.566 0 115.118 0 114.567V5.76422C0 5.2132 0.447702 4.7655 0.998719 4.7655H158.154C158.705 4.7655 159.152 5.2132 159.152 5.76422V114.567C159.152 115.118 158.705 115.566 158.154 115.566ZM1.99744 113.569H157.155V6.76294H1.99744V113.569Z" fill="black"/>
<path d="M0.998505 15.4874L158.153 15.4874V1.12653L0.998505 1.12653V15.4874Z" fill="white"/>
<path d="M158.154 16.4861H0.998719C0.447702 16.4861 0 16.0384 0 15.4874V1.12653C0 0.575509 0.447702 0.127808 0.998719 0.127808H158.154C158.705 0.127808 159.152 0.575509 159.152 1.12653V15.4874C159.152 16.0384 158.705 16.4861 158.154 16.4861ZM1.99744 14.4887H157.155V2.12525H1.99744V14.4887Z" fill="black"/>
<path d="M114.658 9.29993H106.37C105.819 9.29993 105.371 8.85223 105.371 8.30121C105.371 7.75019 105.819 7.30249 106.37 7.30249H114.658C115.209 7.30249 115.657 7.75019 115.657 8.30121C115.657 8.85223 115.209 9.29993 114.658 9.29993Z" fill="black"/>
<path d="M131.475 9.29993H123.187C122.636 9.29993 122.188 8.85223 122.188 8.30121C122.188 7.75019 122.636 7.30249 123.187 7.30249H131.475C132.026 7.30249 132.474 7.75019 132.474 8.30121C132.474 8.85223 132.026 9.29993 131.475 9.29993Z" fill="black"/>
<path d="M148.293 9.29993H140.005C139.454 9.29993 139.006 8.85223 139.006 8.30121C139.006 7.75019 139.454 7.30249 140.005 7.30249H148.293C148.844 7.30249 149.292 7.75019 149.292 8.30121C149.292 8.85223 148.844 9.29993 148.293 9.29993Z" fill="black"/>
<path d="M62.2764 36.9771H22.7409C22.1899 36.9771 21.7422 36.5294 21.7422 35.9784C21.7422 35.4274 22.1899 34.9797 22.7409 34.9797H62.2764C62.8274 34.9797 63.2751 35.4274 63.2751 35.9784C63.2751 36.5294 62.8274 36.9771 62.2764 36.9771Z" fill="black"/>
<path d="M145.296 86.2473H115.335C114.784 86.2473 114.336 85.7996 114.336 85.2486C114.336 84.6976 114.784 84.2499 115.335 84.2499H145.296C145.847 84.2499 146.295 84.6976 146.295 85.2486C146.295 85.7996 145.847 86.2473 145.296 86.2473Z" fill="black"/>
<path d="M48.1111 52.0153H22.8102C22.2592 52.0153 21.8115 51.5676 21.8115 51.0166C21.8115 50.4656 22.2592 50.0179 22.8102 50.0179H48.1111C48.6621 50.0179 49.1098 50.4656 49.1098 51.0166C49.1098 51.5676 48.6621 52.0153 48.1111 52.0153Z" fill="black"/>
<path d="M142.68 30.8699H97.4043V64.8264H142.68V30.8699Z" fill="white"/>
<path d="M142.679 65.8251H97.404C96.853 65.8251 96.4053 65.3774 96.4053 64.8264V30.8699C96.4053 30.3189 96.853 29.8712 97.404 29.8712H142.679C143.23 29.8712 143.678 30.3189 143.678 30.8699V64.8264C143.678 65.3774 143.23 65.8251 142.679 65.8251ZM98.4027 63.8277H141.681V31.8687H98.4027V63.8277Z" fill="black"/>
<g opacity="0.13">
<path d="M157.189 16.0729H0.0341797V20.7336H157.189V16.0729Z" fill="black"/>
</g>
<path d="M22.7715 97.8848V141.478C29.1181 147.717 40.0872 151.857 52.5892 151.857C65.0912 151.857 76.0615 147.719 82.4058 141.478V97.8848H22.7715Z" fill="#EDA51E"/>
<path d="M26.9404 97.6925V86.5463C26.9404 72.3806 38.4244 60.8958 52.5893 60.8958C66.7542 60.8958 78.2393 72.3806 78.2393 86.5451V97.6913H69.5607V86.5451C69.5607 77.1723 61.9635 69.5753 52.5893 69.5753C43.2151 69.5753 35.6144 77.1712 35.6144 86.5451V97.6913H26.9404V97.6925Z" fill="#EDA51E"/>
<path d="M52.5893 152.627C40.3315 152.627 28.9811 148.663 22.2303 142.025C22.0841 141.881 22 141.683 22 141.478V97.8849C22 97.4611 22.3455 97.1168 22.7704 97.1168H82.4059C82.8309 97.1168 83.174 97.4623 83.174 97.8849V141.478C83.174 141.683 83.0911 141.881 82.9449 142.025C76.1964 148.663 64.8495 152.627 52.5893 152.627ZM23.5397 141.154C30.0372 147.38 40.8635 151.088 52.5893 151.088C64.3151 151.088 75.1415 147.38 81.6355 141.154V98.653H23.5397V141.154Z" fill="#00002C"/>
<path d="M78.2402 98.4607C77.8153 98.4607 77.4721 98.1164 77.4721 97.6926V86.5464C77.4721 72.8275 66.3095 61.6663 52.5902 61.6663C38.871 61.6663 27.7095 72.8275 27.7095 86.5464V97.6926C27.7095 98.1175 27.3651 98.4607 26.9402 98.4607C26.5152 98.4607 26.1709 98.1164 26.1709 97.6926V86.5464C26.1709 71.9799 38.0222 60.1278 52.5891 60.1278C67.1559 60.1278 79.0095 71.9799 79.0095 86.5464V97.6926C79.0095 98.1175 78.664 98.4607 78.2402 98.4607Z" fill="#00002C"/>
<path d="M69.5608 98.4606C69.1358 98.4606 68.7926 98.1163 68.7926 97.6925V86.5463C68.7926 77.6134 61.5236 70.3469 52.5905 70.3469C43.6574 70.3469 36.3872 77.6134 36.3872 86.5463V97.6925C36.3872 98.1174 36.0417 98.4606 35.6168 98.4606C35.1918 98.4606 34.8486 98.1163 34.8486 97.6925V86.5463C34.8486 76.7647 42.8075 68.8083 52.5916 68.8083C62.3758 68.8083 70.3335 76.7647 70.3335 86.5463V97.6925C70.3335 98.1174 69.988 98.4606 69.5631 98.4606H69.5608Z" fill="#00002C"/>
<path d="M48.9329 119.868L47.8401 135.167H57.6751L56.218 119.868C59.4966 118.047 61.3179 110.033 52.5756 108.576C43.5925 107.079 45.6545 118.047 48.9329 119.868Z" fill="white"/>
<path d="M58.1505 136.56H47.0258C46.8093 136.56 46.6043 136.469 46.4581 136.309C46.313 136.151 46.2404 135.936 46.26 135.723L47.6028 120.638C45.9053 119.177 44.9414 117.096 44.9414 114.872C44.9414 110.654 48.3744 107.223 52.5916 107.223C56.8088 107.223 60.2418 110.654 60.2418 114.872C60.2418 117.093 59.2756 119.172 57.5793 120.638L58.9186 135.723C58.9382 135.937 58.8668 136.152 58.7205 136.309C58.5754 136.469 58.3693 136.56 58.1528 136.56H58.1505ZM47.8677 135.021H57.3098L56.0085 120.367C55.9854 120.107 56.096 119.851 56.3033 119.69C57.8269 118.51 58.701 116.755 58.701 114.87C58.701 111.5 55.959 108.759 52.5893 108.759C49.2197 108.759 46.4777 111.5 46.4777 114.87C46.4777 116.756 47.3517 118.513 48.8742 119.69C49.0826 119.851 49.192 120.106 49.1702 120.367L47.8654 135.021H47.8677Z" fill="#00002C"/>
</g>
<defs>
<clipPath id="clip0_77_2943">
<rect width="159" height="159" fill="white" transform="translate(0 0.127808)"/>
</clipPath>
</defs>
</svg>
