<svg width="158" height="140" viewBox="0 0 158 140" fill="none" xmlns="http://www.w3.org/2000/svg">
<path d="M61.9612 129.72C51.5953 129.72 41.2098 125.476 33.9537 118.054C33.6701 117.76 33.6701 117.291 33.9635 116.998C34.2568 116.714 34.7262 116.714 35.0196 117.007C43.1265 125.29 55.2918 129.466 66.7725 127.901C67.1832 127.843 67.5548 128.136 67.6135 128.537C67.6722 128.948 67.3886 129.319 66.9779 129.378C65.3154 129.603 63.6432 129.72 61.9612 129.72Z" fill="black"/>
<path d="M60.3679 133.495C60.0647 133.495 59.7811 133.309 59.6735 133.006C59.5269 132.625 59.7322 132.194 60.1136 132.048C62.1966 131.285 64.1426 130.219 65.9029 128.889C63.9373 127.774 62.0597 126.493 60.3092 125.056C59.9963 124.792 59.9474 124.322 60.2114 124.009C60.4754 123.696 60.9448 123.647 61.2578 123.911C63.2136 125.525 65.3455 126.943 67.5947 128.116C67.8098 128.234 67.9663 128.449 67.9858 128.693C68.0152 128.938 67.9174 129.182 67.7218 129.339C65.5997 131.109 63.2136 132.488 60.6319 133.436C60.5439 133.466 60.4559 133.485 60.3776 133.485L60.3679 133.495Z" fill="black"/>
<path d="M141.153 44.2309C141.153 44.2309 141.113 44.2309 141.094 44.2309C140.683 44.2015 140.38 43.8397 140.409 43.429C141.27 33.0631 136.302 22.5407 127.765 16.6048C127.423 16.3701 127.344 15.9105 127.579 15.5682C127.814 15.2259 128.283 15.1477 128.616 15.3824C137.583 21.6117 142.795 32.6622 141.896 43.5463C141.866 43.9375 141.534 44.2309 141.153 44.2309Z" fill="black"/>
<path d="M130.464 23.9588C130.142 23.9588 129.838 23.7437 129.75 23.421C129.027 20.8882 128.147 18.3749 127.12 15.9497C127.012 15.6857 127.061 15.3825 127.247 15.1674C127.433 14.9522 127.736 14.8642 128.01 14.9425L135.696 17.0939C136.097 17.2014 136.322 17.6122 136.214 18.0131C136.107 18.414 135.696 18.639 135.295 18.5314L129.066 16.7907C129.868 18.8248 130.582 20.9175 131.178 23.02C131.295 23.4112 131.061 23.8317 130.67 23.9393C130.601 23.9588 130.533 23.9686 130.464 23.9686V23.9588Z" fill="black"/>
<path d="M152.076 42.8717C152.076 42.8717 152.027 42.8717 151.998 42.8717C151.587 42.8326 151.294 42.461 151.333 42.0503C152.017 35.4787 150.912 28.8289 148.135 22.8342C147.959 22.4626 148.125 22.0226 148.497 21.8465C148.868 21.6705 149.308 21.8368 149.484 22.2084C152.369 28.4475 153.523 35.3613 152.809 42.2067C152.77 42.5881 152.447 42.8717 152.066 42.8717H152.076Z" fill="black"/>
<path d="M48.329 139.128C48.329 139.128 48.2312 139.128 48.1823 139.118C40.6328 137.632 33.5234 133.769 28.1644 128.253C27.8808 127.96 27.8808 127.491 28.184 127.197C28.4773 126.914 28.9467 126.914 29.2401 127.217C34.3937 132.517 41.2294 136.233 48.4855 137.661C48.8864 137.739 49.1505 138.13 49.0722 138.531C49.0038 138.883 48.6908 139.128 48.3388 139.128H48.329Z" fill="black"/>
<path d="M61.9612 129.72C51.5953 129.72 41.2098 125.476 33.9537 118.054C33.6701 117.76 33.6701 117.291 33.9635 116.998C34.2568 116.714 34.7262 116.714 35.0196 117.007C43.1265 125.29 55.2918 129.466 66.7725 127.901C67.1832 127.843 67.5548 128.136 67.6135 128.537C67.6722 128.948 67.3886 129.319 66.9779 129.378C65.3154 129.603 63.6432 129.72 61.9612 129.72Z" fill="black"/>
<path d="M60.3679 133.495C60.0647 133.495 59.7811 133.309 59.6735 133.006C59.5269 132.625 59.7322 132.194 60.1136 132.048C62.1966 131.285 64.1426 130.219 65.9029 128.889C63.9373 127.774 62.0597 126.493 60.3092 125.056C59.9963 124.792 59.9474 124.322 60.2114 124.009C60.4754 123.696 60.9448 123.647 61.2578 123.911C63.2136 125.525 65.3455 126.943 67.5947 128.116C67.8098 128.234 67.9663 128.449 67.9858 128.693C68.0152 128.938 67.9174 129.182 67.7218 129.339C65.5997 131.109 63.2136 132.488 60.6319 133.436C60.5439 133.466 60.4559 133.485 60.3776 133.485L60.3679 133.495Z" fill="black"/>
<path d="M141.153 44.2309C141.153 44.2309 141.113 44.2309 141.094 44.2309C140.683 44.2015 140.38 43.8397 140.409 43.429C141.27 33.0631 136.302 22.5407 127.765 16.6048C127.423 16.3701 127.344 15.9105 127.579 15.5682C127.814 15.2259 128.283 15.1477 128.616 15.3824C137.583 21.6117 142.795 32.6622 141.896 43.5463C141.866 43.9375 141.534 44.2309 141.153 44.2309Z" fill="black"/>
<path d="M130.464 23.9588C130.142 23.9588 129.838 23.7437 129.75 23.421C129.027 20.8882 128.147 18.3749 127.12 15.9497C127.012 15.6857 127.061 15.3825 127.247 15.1674C127.433 14.9522 127.736 14.8642 128.01 14.9425L135.696 17.0939C136.097 17.2014 136.322 17.6122 136.214 18.0131C136.107 18.414 135.696 18.639 135.295 18.5314L129.066 16.7907C129.868 18.8248 130.582 20.9175 131.178 23.02C131.295 23.4112 131.061 23.8317 130.67 23.9393C130.601 23.9588 130.533 23.9686 130.464 23.9686V23.9588Z" fill="black"/>
<path d="M33.993 48.4261C29.5434 49.9126 25.6024 53.0517 23.4901 57.2469C21.3876 61.4422 21.2605 66.6545 23.4901 70.7813C26.7368 76.7857 34.7851 79.4651 41.1611 77.0399C48.1043 74.3898 52.3386 66.0482 50.3046 58.8996C48.2705 51.751 40.0854 46.4018 33.993 48.4359V48.4261ZM42.4324 67.1825C41.8065 68.6494 40.3885 70.0087 38.9608 70.703C35.7141 72.2873 32.0273 70.9279 30.1106 67.9844C28.1352 64.9627 28.4188 60.875 30.4627 57.9412C31.4797 56.4841 32.7608 55.34 34.5504 54.9977C36.203 54.6848 37.8557 54.9879 39.1563 56.0343C39.9973 56.181 40.7992 56.533 41.4642 57.0807C42.7453 58.1466 43.2929 60.2687 43.4005 61.8725C43.5081 63.6327 43.1267 65.569 42.4324 67.1825Z" fill="white"/>
<path d="M67.4771 61.8724C65.6288 61.315 63.849 60.3469 62.6266 58.8409C60.925 56.7482 60.5143 53.7851 61.2086 51.1741C61.9029 48.563 63.5947 46.304 65.6581 44.5634C63.8392 41.6687 61.8638 38.9501 59.7906 36.3098C57.2774 38.1678 54.8717 39.928 52.0847 40.0649C49.3954 40.2019 46.7942 38.7252 45.1219 36.6227C43.4497 34.5104 42.6185 31.8407 42.286 29.171C42.1882 28.9167 42.0513 28.8678 41.9535 28.858C39.1371 28.6527 36.3109 28.4375 33.4945 28.2322C32.986 30.8628 31.7832 33.2195 29.9447 34.9211C28.1062 36.6227 25.6027 37.6397 23.0993 37.5615C22.0725 37.5321 21.0554 37.317 20.0482 37.1019C18.4053 36.74 16.6548 36.3 15.5009 35.0776C13.2615 36.6031 11.247 38.2265 9.30091 39.9183C10.2984 40.593 10.7189 41.5318 11.0709 42.4413C11.8239 44.3873 12.3911 46.5192 11.9217 48.5532C11.4328 50.6558 9.84854 52.3965 7.95139 53.433C6.05423 54.4696 3.87348 54.8804 1.72207 55.0075C1.12554 58.0879 0.832166 61.3835 0.734375 64.6888C2.57285 65.344 4.31354 65.9015 5.88799 66.8207C7.45265 67.7302 8.86085 69.0406 9.55517 70.7128C10.3375 72.6002 10.1517 74.8005 9.33025 76.6683C8.5088 78.5361 7.1006 80.1008 5.5066 81.3916C7.43309 84.5112 9.28135 87.4058 11.1785 90.2613C14.1122 88.3348 17.8088 87.7383 21.0261 88.7749C21.828 89.0291 22.6005 89.391 23.2655 89.919C24.087 90.5742 24.6933 91.4641 25.1725 92.4029C26.3068 94.6522 26.7371 97.2534 26.3753 99.7471C29.798 100.432 33.1131 100.872 36.438 101.136C36.2425 97.6739 37.7289 94.2023 40.4671 92.3051C43.2052 90.408 47.1071 90.2809 49.8648 92.1585C51.1654 93.0484 52.1727 94.3099 53.1408 95.5518C56.143 93.4297 59.1061 91.2686 61.8834 88.8824C60.3285 86.467 58.7541 84.0516 58.6856 81.333C58.6171 78.497 60.3285 75.798 62.7048 74.2528C65.0812 72.7077 68.054 72.2481 70.8704 72.5415C71.8386 69.2459 72.66 66.0286 73.3445 62.7819C71.2714 62.6157 69.3351 62.4299 67.4771 61.8627V61.8724ZM49.7866 69.1188C48.6424 71.6418 46.7844 73.8226 44.5547 75.4655C43.2541 76.4238 41.8166 77.1964 40.2812 77.6951C33.9835 79.7096 26.6002 76.1696 23.6763 70.2336C21.5444 65.9112 21.6422 60.5523 23.9207 56.3081C26.1993 52.064 30.6097 49.0226 35.4015 48.4163C39.6847 47.8687 45.1121 50.1864 48.2024 54.3523C51.2926 58.528 51.9184 64.3955 49.7866 69.1188Z" fill="#ACD4F7"/>
<g opacity="0.13">
<path d="M53.6295 62.2343C53.5611 61.7454 53.4633 61.2564 53.3459 60.7773C53.2873 60.6599 53.2384 60.5523 53.1797 60.435C52.2898 58.6747 51.2239 57.0123 50.0112 55.4574C49.8157 55.5943 49.6592 55.7997 49.5907 56.0441C49.4636 56.8754 50.1188 57.6479 50.3242 58.44C51.0576 60.6306 51.5466 61.6867 51.3119 63.6817C51.3412 64.4444 50.0797 68.6886 49.6787 69.2167C49.1996 70.1457 48.6519 71.0454 48.0163 71.8864C47.8207 72.1211 47.762 72.2189 47.7914 72.2286C47.4784 72.4731 47.2046 72.7958 46.8917 73.0501C46.2365 73.6075 45.5813 74.1649 44.9163 74.7223C44.7403 74.8494 44.4567 75.0841 44.2513 75.2895C44.3589 75.133 44.0655 75.4069 43.8015 75.6318C43.6548 75.7296 42.9996 76.1794 42.6671 76.3457C40.3592 77.1573 37.9633 77.6072 36.692 77.6756C35.0002 77.8321 33.3378 77.4018 32.0372 77.0987C31.1081 76.8346 30.2965 75.9154 29.299 76.1012C28.8687 76.2087 28.5851 76.5315 28.4678 76.9128C28.5656 77.0204 28.6634 77.1182 28.7611 77.216C29.1034 77.4898 29.4359 77.7734 29.7782 78.0472C31.0103 78.8491 32.2523 79.6608 33.4943 80.4529C35.5479 81.0494 37.7482 81.1668 40.369 80.668C40.3201 80.668 40.2712 80.6778 40.2125 80.6876C42.9702 80.1008 43.8308 79.739 45.8453 78.6926C47.6056 77.6463 49.0235 76.1207 50.1188 74.3898C50.1481 74.3409 50.1775 74.292 50.2166 74.2431H50.2264C51.5074 72.6296 52.4854 70.7911 53.1699 68.8548C53.8642 66.723 53.8544 64.4249 53.6491 62.2246L53.6295 62.2343Z" fill="black"/>
</g>
<g opacity="0.13">
<path d="M60.3474 84.785C60.0736 84.8046 59.7998 84.8633 59.5651 85.0002C59.213 85.1958 58.9881 85.5185 58.7632 85.8412C58.5578 86.1052 58.3427 86.3595 58.1569 86.6431C57.6093 87.3472 57.4528 87.6503 56.2402 88.8825C55.5654 89.6062 54.5093 90.056 54.0692 90.9557C54.0692 90.9752 54.0594 90.985 54.0497 91.0046C53.7856 91.1513 53.5314 91.3077 53.2673 91.4446C52.7784 91.7478 52.1427 91.8945 51.8005 92.3834C50.7345 93.645 52.3872 95.503 53.7856 94.6424C55.2427 93.8699 56.6118 92.9506 57.844 91.8456C57.9026 91.7869 57.9613 91.7185 58.0298 91.6598C58.9881 90.8872 59.9171 90.0853 60.7777 89.2052C61.0906 88.8727 61.4623 88.4816 61.7654 88.0611C61.4427 87.4156 61.1689 86.7507 60.9146 86.0857C60.719 85.6554 60.5332 85.2153 60.367 84.7753L60.3474 84.785Z" fill="black"/>
</g>
<g opacity="0.13">
<path d="M69.8428 62.6256C69.2853 64.7575 68.6595 66.8698 67.9749 68.9723C67.662 69.9404 67.3491 70.9281 67.0361 71.906C67.4077 72.3656 68.0434 72.6297 68.6301 72.4439C68.6595 72.4439 68.6888 72.4145 68.7181 72.4048C69.2267 73.1186 70.5566 73.0306 70.8109 72.0332C70.938 71.5735 71.1336 71.1139 71.2901 70.6543C71.3879 70.6054 71.4954 70.5467 71.5834 70.4685C72.1897 70.0284 72.356 69.1972 72.5809 68.5224C72.9134 67.1534 73.0992 65.7452 73.1579 64.3467C73.1579 64.2685 73.1579 64.1805 73.1774 64.0925C72.0626 63.6231 70.9576 63.1341 69.8525 62.6354L69.8428 62.6256Z" fill="black"/>
</g>
<path d="M36.4374 101.879C36.4374 101.879 36.3983 101.879 36.3788 101.879C32.8583 101.605 29.5431 101.146 26.228 100.481C25.8368 100.402 25.5826 100.031 25.6413 99.6396C25.9835 97.3023 25.5728 94.8478 24.5069 92.7355C24.0081 91.738 23.4507 91.0046 22.8053 90.4961C22.287 90.0756 21.6318 89.7431 20.8006 89.479C17.8375 88.5207 14.3952 89.039 11.5984 90.8774C11.2561 91.1024 10.7965 91.0046 10.5716 90.6623C8.70378 87.8459 6.83596 84.9317 4.88991 81.7731C4.69433 81.4503 4.76278 81.0396 5.05615 80.8049C6.75773 79.4358 7.97034 77.9396 8.66466 76.3652C9.46655 74.5463 9.54478 72.5807 8.8798 70.9867C8.15614 69.2557 6.65993 68.1116 5.52555 67.4466C4.21515 66.6838 2.7385 66.1655 1.18361 65.6179L0.499071 65.3734C0.195918 65.2659 -0.00944438 64.9725 0.000334771 64.6498C0.107905 61.0217 0.440396 57.7164 0.997808 54.8511C1.06626 54.5186 1.34986 54.2741 1.68235 54.2545C4.10758 54.1078 6.04385 53.6189 7.59873 52.7681C9.44699 51.7511 10.7965 50.1082 11.1975 48.3675C11.6571 46.4019 11.0019 44.2994 10.376 42.6858C10.0533 41.8546 9.70125 41.0625 8.88958 40.5051C8.70378 40.3779 8.57665 40.1628 8.56687 39.9379C8.55709 39.7032 8.6451 39.488 8.82113 39.3316C11.0605 37.3757 13.0555 35.8208 15.0896 34.4322C15.3927 34.2268 15.7937 34.266 16.0479 34.5398C17.0454 35.5861 18.5905 35.9969 20.2138 36.3489C21.2504 36.5738 22.1794 36.7694 23.128 36.7988C25.387 36.8672 27.6851 35.9773 29.4453 34.354C31.1274 32.7991 32.2715 30.6281 32.7703 28.0758C32.8387 27.7041 33.1712 27.4499 33.5526 27.4792L42.0116 28.1051C42.4516 28.1344 42.8134 28.4278 42.9895 28.8972C43.009 28.9559 43.0188 29.0048 43.0286 29.0635C43.3904 31.9776 44.2999 34.3637 45.7081 36.1436C47.351 38.207 49.7762 39.4196 52.0547 39.3022C54.656 39.1653 57.0421 37.3953 59.3598 35.6839C59.6825 35.4395 60.1421 35.5079 60.3866 35.8208C62.7042 38.7937 64.6405 41.5123 66.2932 44.1331C66.4888 44.446 66.4301 44.8568 66.1465 45.1013C64.6405 46.3725 62.6944 48.4751 61.9317 51.3306C61.2569 53.8536 61.7459 56.5429 63.203 58.3324C64.2102 59.5744 65.7553 60.5327 67.6916 61.1195C69.4714 61.6573 71.3294 61.8432 73.3928 62.0094C73.608 62.029 73.8036 62.1365 73.9307 62.3028C74.0578 62.4788 74.1067 62.6939 74.0676 62.8993C73.3928 66.0971 72.5812 69.3046 71.5837 72.7176C71.4859 73.0598 71.1534 73.2848 70.7916 73.2456C67.897 72.9425 65.1686 73.5097 63.1052 74.8396C60.8169 76.3163 59.3695 78.8393 59.4282 81.2743C59.4869 83.7484 60.9244 85.9879 62.45 88.3544L62.4989 88.4327C62.7042 88.7456 62.6358 89.1563 62.362 89.4008C59.4869 91.8651 56.426 94.085 53.5607 96.1093C53.238 96.3342 52.7882 96.2755 52.5437 95.9626C51.6734 94.8478 50.6857 93.5765 49.4339 92.7257C46.9989 91.0632 43.4002 91.1317 40.8869 92.8724C38.4422 94.5642 36.9851 97.7717 37.1807 101.048C37.1904 101.263 37.1122 101.468 36.9557 101.625C36.8188 101.762 36.633 101.84 36.4374 101.84V101.879ZM27.1864 99.1506C29.9636 99.6787 32.7507 100.07 35.6747 100.324C35.7236 96.8036 37.3567 93.5471 40.0459 91.6891C43.1068 89.5768 47.3119 89.5084 50.2847 91.5424C51.4973 92.3736 52.4752 93.508 53.2869 94.5349C55.7904 92.755 58.4112 90.8383 60.9049 88.7358C59.438 86.4377 58.0102 84.0614 57.9418 81.3428C57.8733 78.409 59.5847 75.3775 62.3033 73.627C64.4938 72.209 67.32 71.5538 70.3222 71.7494C71.1534 68.8841 71.8477 66.1558 72.4345 63.4567C70.6058 63.3002 68.9238 63.0851 67.2613 62.5864C65.0414 61.9116 63.2421 60.7772 62.049 59.3104C60.2986 57.1492 59.702 53.9612 60.4941 50.9883C61.1298 48.612 62.5771 46.353 64.6894 44.4363C63.2323 42.1675 61.6187 39.889 59.6531 37.3562C57.3453 39.0577 54.9396 40.6811 52.1232 40.8278C49.3753 40.9745 46.4708 39.5369 44.5346 37.1019C42.9992 35.1754 42.0116 32.6426 41.5813 29.6013L34.0807 29.0439C33.4646 31.6354 32.2128 33.8552 30.4428 35.4883C28.399 37.3757 25.7097 38.4221 23.0693 38.3243C21.9936 38.295 20.9473 38.0798 19.8813 37.8451C18.2971 37.5029 16.664 37.0726 15.422 36.0458C13.8085 37.1704 12.1949 38.4319 10.4347 39.9281C11.1094 40.6322 11.4615 41.4439 11.7549 42.1871C12.4492 43.9962 13.1826 46.3823 12.635 48.7391C12.1265 50.9198 10.552 52.8757 8.30283 54.1078C6.67949 54.9977 4.72366 55.5356 2.33755 55.7312C1.88771 58.2444 1.60412 61.0804 1.48677 64.1901L1.65301 64.2488C3.27635 64.816 4.81168 65.3636 6.24921 66.1949C7.57917 66.9674 9.3492 68.3365 10.2293 70.4488C11.0508 72.4144 10.9628 74.8005 10.0044 76.9911C9.29052 78.6242 8.10725 80.1595 6.47413 81.5677C8.15614 84.2863 9.7697 86.8093 11.393 89.2639C14.4441 87.5036 18.0722 87.0538 21.2406 88.0806C22.2381 88.4033 23.0498 88.814 23.7148 89.3519C24.5264 89.9973 25.2208 90.897 25.8173 92.0901C26.9125 94.261 27.3917 96.7449 27.1766 99.1702L27.1864 99.1506Z" fill="black"/>
<path d="M36.0554 72.0819C33.552 72.0819 31.0094 70.6933 29.5914 68.4539C28.0952 66.0971 27.8605 62.8895 28.9558 60.1025C29.699 58.2151 30.98 56.6309 32.574 55.6432C34.3343 54.5479 36.427 54.2056 38.3046 54.7142C40.4365 55.2911 42.0305 56.2299 43.0279 57.5208C44.2406 59.0757 44.9055 61.1488 44.886 63.3785C44.886 64.8942 44.5633 66.1949 43.9374 67.251C43.3898 68.18 42.627 68.8841 41.9522 69.4611C40.2507 70.9084 38.7251 71.7103 37.1605 71.9841C36.7889 72.0526 36.4075 72.0819 36.0359 72.0819H36.0554ZM36.5639 55.9757C35.4687 55.9757 34.3343 56.2984 33.3564 56.9047C32.0362 57.7261 30.9703 59.0561 30.3444 60.6501C29.4154 63.0069 29.611 65.6961 30.8529 67.6617C32.1633 69.7447 34.6668 70.9182 36.9258 70.5173C38.2166 70.2923 39.5172 69.598 41.0037 68.3267C41.5806 67.8378 42.2358 67.2315 42.6661 66.498C43.1551 65.6766 43.3996 64.6204 43.4093 63.3785C43.4093 61.4911 42.8715 59.7406 41.8642 58.4498C41.0623 57.423 39.7324 56.6504 37.9232 56.1615C37.4832 56.0441 37.0333 55.9854 36.5639 55.9854V55.9757Z" fill="black"/>
<path d="M36.5943 78.9959C31.1278 78.9959 25.5439 75.7101 23.0111 70.5565C20.7717 66.0092 20.8694 60.4155 23.2653 55.9465C25.6612 51.4872 30.277 48.3089 35.3035 47.6635C40.0072 47.067 45.6791 49.6878 48.7987 53.8928C52.0747 58.313 52.7201 64.4054 50.4611 69.4123C49.3072 71.9843 47.4101 74.2726 44.9848 76.0524C43.5375 77.1085 42.0315 77.9007 40.4962 78.3896C39.2249 78.7906 37.9047 78.9861 36.5845 78.9861L36.5943 78.9959ZM36.7019 49.0717C36.2912 49.0717 35.8902 49.1011 35.4893 49.15C30.9322 49.7367 26.7467 52.6118 24.5757 56.6603C22.4048 60.7089 22.307 65.7843 24.341 69.9013C27.1868 75.671 34.2278 78.8492 40.0464 76.9814C41.4252 76.5413 42.7943 75.8275 44.1047 74.8593C46.3246 73.236 48.0457 71.1433 49.1018 68.806C51.1164 64.3467 50.51 58.714 47.5959 54.7827C45.0435 51.3405 40.6233 49.0619 36.6921 49.0619L36.7019 49.0717Z" fill="black"/>
<path d="M67.4771 61.8724C65.6288 61.315 63.849 60.3469 62.6266 58.8409C60.925 56.7482 60.5143 53.7851 61.2086 51.1741C61.9029 48.563 63.5947 46.304 65.6581 44.5634C63.8392 41.6687 61.8638 38.9501 59.7906 36.3098C57.2774 38.1678 54.8717 39.928 52.0847 40.0649C49.3954 40.2019 46.7942 38.7252 45.1219 36.6227C43.4497 34.5104 42.6185 31.8407 42.286 29.171C42.1882 28.9167 42.0513 28.8678 41.9535 28.858C39.1371 28.6527 36.3109 28.4375 33.4945 28.2322C32.986 30.8628 31.7832 33.2195 29.9447 34.9211C28.1062 36.6227 25.6027 37.6397 23.0993 37.5615C22.0725 37.5321 21.0554 37.317 20.0482 37.1019C18.4053 36.74 16.6548 36.3 15.5009 35.0776C13.2615 36.6031 11.247 38.2265 9.30091 39.9183C10.2984 40.593 10.7189 41.5318 11.0709 42.4413C11.8239 44.3873 12.3911 46.5192 11.9217 48.5532C11.4328 50.6558 9.84854 52.3965 7.95139 53.433C6.05423 54.4696 3.87348 54.8804 1.72207 55.0075C1.12554 58.0879 0.832166 61.3835 0.734375 64.6888C2.57285 65.344 4.31354 65.9015 5.88799 66.8207C7.45265 67.7302 8.86085 69.0406 9.55517 70.7128C10.3375 72.6002 10.1517 74.8005 9.33025 76.6683C8.5088 78.5361 7.1006 80.1008 5.5066 81.3916C7.43309 84.5112 9.28135 87.4058 11.1785 90.2613C14.1122 88.3348 17.8088 87.7383 21.0261 88.7749C21.828 89.0291 22.6005 89.391 23.2655 89.919C24.087 90.5742 24.6933 91.4641 25.1725 92.4029C26.3068 94.6522 26.7371 97.2534 26.3753 99.7471C29.798 100.432 33.1131 100.872 36.438 101.136C36.2425 97.6739 37.7289 94.2023 40.4671 92.3051C43.2052 90.408 47.1071 90.2809 49.8648 92.1585C51.1654 93.0484 52.1727 94.3099 53.1408 95.5518C56.143 93.4297 59.1061 91.2686 61.8834 88.8824C60.3285 86.467 58.7541 84.0516 58.6856 81.333C58.6171 78.497 60.3285 75.798 62.7048 74.2528C65.0812 72.7077 68.054 72.2481 70.8704 72.5415C71.8386 69.2459 72.66 66.0286 73.3445 62.7819C71.2714 62.6157 69.3351 62.4299 67.4771 61.8627V61.8724ZM49.7866 69.1188C48.6424 71.6418 46.7844 73.8226 44.5547 75.4655C43.2541 76.4238 41.8166 77.1964 40.2812 77.6951C33.9835 79.7096 26.6002 76.1696 23.6763 70.2336C21.5444 65.9112 21.6422 60.5523 23.9207 56.3081C26.1993 52.064 30.6097 49.0226 35.4015 48.4163C39.6847 47.8687 45.1121 50.1864 48.2024 54.3523C51.2926 58.528 51.9184 64.3955 49.7866 69.1188Z" fill="#EDA51E"/>
<g opacity="0.13">
<path d="M53.6295 62.2343C53.5611 61.7454 53.4633 61.2564 53.3459 60.7773C53.2873 60.6599 53.2384 60.5523 53.1797 60.435C52.2898 58.6747 51.2239 57.0123 50.0112 55.4574C49.8157 55.5943 49.6592 55.7997 49.5907 56.0441C49.4636 56.8754 50.1188 57.6479 50.3242 58.44C51.0576 60.6306 51.5466 61.6867 51.3119 63.6817C51.3412 64.4444 50.0797 68.6886 49.6787 69.2167C49.1996 70.1457 48.6519 71.0454 48.0163 71.8864C47.8207 72.1211 47.762 72.2189 47.7914 72.2286C47.4784 72.4731 47.2046 72.7958 46.8917 73.0501C46.2365 73.6075 45.5813 74.1649 44.9163 74.7223C44.7403 74.8494 44.4567 75.0841 44.2513 75.2895C44.3589 75.133 44.0655 75.4069 43.8015 75.6318C43.6548 75.7296 42.9996 76.1794 42.6671 76.3457C40.3592 77.1573 37.9633 77.6072 36.692 77.6756C35.0002 77.8321 33.3378 77.4018 32.0372 77.0987C31.1081 76.8346 30.2965 75.9154 29.299 76.1012C28.8687 76.2087 28.5851 76.5315 28.4678 76.9128C28.5656 77.0204 28.6634 77.1182 28.7611 77.216C29.1034 77.4898 29.4359 77.7734 29.7782 78.0472C31.0103 78.8491 32.2523 79.6608 33.4943 80.4529C35.5479 81.0494 37.7482 81.1668 40.369 80.668C40.3201 80.668 40.2712 80.6778 40.2125 80.6876C42.9702 80.1008 43.8308 79.739 45.8453 78.6926C47.6056 77.6463 49.0235 76.1207 50.1188 74.3898C50.1481 74.3409 50.1775 74.292 50.2166 74.2431H50.2264C51.5074 72.6296 52.4854 70.7911 53.1699 68.8548C53.8642 66.723 53.8544 64.4249 53.6491 62.2246L53.6295 62.2343Z" fill="black"/>
</g>
<g opacity="0.13">
<path d="M60.3474 84.785C60.0736 84.8046 59.7998 84.8633 59.5651 85.0002C59.213 85.1958 58.9881 85.5185 58.7632 85.8412C58.5578 86.1052 58.3427 86.3595 58.1569 86.6431C57.6093 87.3472 57.4528 87.6503 56.2402 88.8825C55.5654 89.6062 54.5093 90.056 54.0692 90.9557C54.0692 90.9752 54.0594 90.985 54.0497 91.0046C53.7856 91.1513 53.5314 91.3077 53.2673 91.4446C52.7784 91.7478 52.1427 91.8945 51.8005 92.3834C50.7345 93.645 52.3872 95.503 53.7856 94.6424C55.2427 93.8699 56.6118 92.9506 57.844 91.8456C57.9026 91.7869 57.9613 91.7185 58.0298 91.6598C58.9881 90.8872 59.9171 90.0853 60.7777 89.2052C61.0906 88.8727 61.4623 88.4816 61.7654 88.0611C61.4427 87.4156 61.1689 86.7507 60.9146 86.0857C60.719 85.6554 60.5332 85.2153 60.367 84.7753L60.3474 84.785Z" fill="black"/>
</g>
<g opacity="0.13">
<path d="M69.8428 62.6256C69.2853 64.7575 68.6595 66.8698 67.9749 68.9723C67.662 69.9404 67.3491 70.9281 67.0361 71.906C67.4077 72.3656 68.0434 72.6297 68.6301 72.4439C68.6595 72.4439 68.6888 72.4145 68.7181 72.4048C69.2267 73.1186 70.5566 73.0306 70.8109 72.0332C70.938 71.5735 71.1336 71.1139 71.2901 70.6543C71.3879 70.6054 71.4954 70.5467 71.5834 70.4685C72.1897 70.0284 72.356 69.1972 72.5809 68.5224C72.9134 67.1534 73.0992 65.7452 73.1579 64.3467C73.1579 64.2685 73.1579 64.1805 73.1774 64.0925C72.0626 63.6231 70.9576 63.1341 69.8525 62.6354L69.8428 62.6256Z" fill="black"/>
</g>
<path d="M36.4374 101.879C36.4374 101.879 36.3983 101.879 36.3788 101.879C32.8583 101.605 29.5431 101.146 26.228 100.481C25.8368 100.402 25.5826 100.031 25.6413 99.6396C25.9835 97.3023 25.5728 94.8478 24.5069 92.7355C24.0081 91.738 23.4507 91.0046 22.8053 90.4961C22.287 90.0756 21.6318 89.7431 20.8006 89.479C17.8375 88.5207 14.3952 89.039 11.5984 90.8774C11.2561 91.1024 10.7965 91.0046 10.5716 90.6623C8.70378 87.8459 6.83596 84.9317 4.88991 81.7731C4.69433 81.4503 4.76278 81.0396 5.05615 80.8049C6.75773 79.4358 7.97034 77.9396 8.66466 76.3652C9.46655 74.5463 9.54478 72.5807 8.8798 70.9867C8.15614 69.2557 6.65993 68.1116 5.52555 67.4466C4.21515 66.6838 2.7385 66.1655 1.18361 65.6179L0.499071 65.3734C0.195918 65.2659 -0.00944438 64.9725 0.000334771 64.6498C0.107905 61.0217 0.440396 57.7164 0.997808 54.8511C1.06626 54.5186 1.34986 54.2741 1.68235 54.2545C4.10758 54.1078 6.04385 53.6189 7.59873 52.7681C9.44699 51.7511 10.7965 50.1082 11.1975 48.3675C11.6571 46.4019 11.0019 44.2994 10.376 42.6858C10.0533 41.8546 9.70125 41.0625 8.88958 40.5051C8.70378 40.3779 8.57665 40.1628 8.56687 39.9379C8.55709 39.7032 8.6451 39.488 8.82113 39.3316C11.0605 37.3757 13.0555 35.8208 15.0896 34.4322C15.3927 34.2268 15.7937 34.266 16.0479 34.5398C17.0454 35.5861 18.5905 35.9969 20.2138 36.3489C21.2504 36.5738 22.1794 36.7694 23.128 36.7988C25.387 36.8672 27.6851 35.9773 29.4453 34.354C31.1274 32.7991 32.2715 30.6281 32.7703 28.0758C32.8387 27.7041 33.1712 27.4499 33.5526 27.4792L42.0116 28.1051C42.4516 28.1344 42.8134 28.4278 42.9895 28.8972C43.009 28.9559 43.0188 29.0048 43.0286 29.0635C43.3904 31.9776 44.2999 34.3637 45.7081 36.1436C47.351 38.207 49.7762 39.4196 52.0547 39.3022C54.656 39.1653 57.0421 37.3953 59.3598 35.6839C59.6825 35.4395 60.1421 35.5079 60.3866 35.8208C62.7042 38.7937 64.6405 41.5123 66.2932 44.1331C66.4888 44.446 66.4301 44.8568 66.1465 45.1013C64.6405 46.3725 62.6944 48.4751 61.9317 51.3306C61.2569 53.8536 61.7459 56.5429 63.203 58.3324C64.2102 59.5744 65.7553 60.5327 67.6916 61.1195C69.4714 61.6573 71.3294 61.8432 73.3928 62.0094C73.608 62.029 73.8036 62.1365 73.9307 62.3028C74.0578 62.4788 74.1067 62.6939 74.0676 62.8993C73.3928 66.0971 72.5812 69.3046 71.5837 72.7176C71.4859 73.0598 71.1534 73.2848 70.7916 73.2456C67.897 72.9425 65.1686 73.5097 63.1052 74.8396C60.8169 76.3163 59.3695 78.8393 59.4282 81.2743C59.4869 83.7484 60.9244 85.9879 62.45 88.3544L62.4989 88.4327C62.7042 88.7456 62.6358 89.1563 62.362 89.4008C59.4869 91.8651 56.426 94.085 53.5607 96.1093C53.238 96.3342 52.7882 96.2755 52.5437 95.9626C51.6734 94.8478 50.6857 93.5765 49.4339 92.7257C46.9989 91.0632 43.4002 91.1317 40.8869 92.8724C38.4422 94.5642 36.9851 97.7717 37.1807 101.048C37.1904 101.263 37.1122 101.468 36.9557 101.625C36.8188 101.762 36.633 101.84 36.4374 101.84V101.879ZM27.1864 99.1506C29.9636 99.6787 32.7507 100.07 35.6747 100.324C35.7236 96.8036 37.3567 93.5471 40.0459 91.6891C43.1068 89.5768 47.3119 89.5084 50.2847 91.5424C51.4973 92.3736 52.4752 93.508 53.2869 94.5349C55.7904 92.755 58.4112 90.8383 60.9049 88.7358C59.438 86.4377 58.0102 84.0614 57.9418 81.3428C57.8733 78.409 59.5847 75.3775 62.3033 73.627C64.4938 72.209 67.32 71.5538 70.3222 71.7494C71.1534 68.8841 71.8477 66.1558 72.4345 63.4567C70.6058 63.3002 68.9238 63.0851 67.2613 62.5864C65.0414 61.9116 63.2421 60.7772 62.049 59.3104C60.2986 57.1492 59.702 53.9612 60.4941 50.9883C61.1298 48.612 62.5771 46.353 64.6894 44.4363C63.2323 42.1675 61.6187 39.889 59.6531 37.3562C57.3453 39.0577 54.9396 40.6811 52.1232 40.8278C49.3753 40.9745 46.4708 39.5369 44.5346 37.1019C42.9992 35.1754 42.0116 32.6426 41.5813 29.6013L34.0807 29.0439C33.4646 31.6354 32.2128 33.8552 30.4428 35.4883C28.399 37.3757 25.7097 38.4221 23.0693 38.3243C21.9936 38.295 20.9473 38.0798 19.8813 37.8451C18.2971 37.5029 16.664 37.0726 15.422 36.0458C13.8085 37.1704 12.1949 38.4319 10.4347 39.9281C11.1094 40.6322 11.4615 41.4439 11.7549 42.1871C12.4492 43.9962 13.1826 46.3823 12.635 48.7391C12.1265 50.9198 10.552 52.8757 8.30283 54.1078C6.67949 54.9977 4.72366 55.5356 2.33755 55.7312C1.88771 58.2444 1.60412 61.0804 1.48677 64.1901L1.65301 64.2488C3.27635 64.816 4.81168 65.3636 6.24921 66.1949C7.57917 66.9674 9.3492 68.3365 10.2293 70.4488C11.0508 72.4144 10.9628 74.8005 10.0044 76.9911C9.29052 78.6242 8.10725 80.1595 6.47413 81.5677C8.15614 84.2863 9.7697 86.8093 11.393 89.2639C14.4441 87.5036 18.0722 87.0538 21.2406 88.0806C22.2381 88.4033 23.0498 88.814 23.7148 89.3519C24.5264 89.9973 25.2208 90.897 25.8173 92.0901C26.9125 94.261 27.3917 96.7449 27.1766 99.1702L27.1864 99.1506Z" fill="black"/>
<path d="M36.0554 72.0819C33.552 72.0819 31.0094 70.6933 29.5914 68.4539C28.0952 66.0971 27.8605 62.8895 28.9558 60.1025C29.699 58.2151 30.98 56.6309 32.574 55.6432C34.3343 54.5479 36.427 54.2056 38.3046 54.7142C40.4365 55.2911 42.0305 56.2299 43.0279 57.5208C44.2406 59.0757 44.9055 61.1488 44.886 63.3785C44.886 64.8942 44.5633 66.1949 43.9374 67.251C43.3898 68.18 42.627 68.8841 41.9522 69.4611C40.2507 70.9084 38.7251 71.7103 37.1605 71.9841C36.7889 72.0526 36.4075 72.0819 36.0359 72.0819H36.0554ZM36.5639 55.9757C35.4687 55.9757 34.3343 56.2984 33.3564 56.9047C32.0362 57.7261 30.9703 59.0561 30.3444 60.6501C29.4154 63.0069 29.611 65.6961 30.8529 67.6617C32.1633 69.7447 34.6668 70.9182 36.9258 70.5173C38.2166 70.2923 39.5172 69.598 41.0037 68.3267C41.5806 67.8378 42.2358 67.2315 42.6661 66.498C43.1551 65.6766 43.3996 64.6204 43.4093 63.3785C43.4093 61.4911 42.8715 59.7406 41.8642 58.4498C41.0623 57.423 39.7324 56.6504 37.9232 56.1615C37.4832 56.0441 37.0333 55.9854 36.5639 55.9854V55.9757Z" fill="black"/>
<path d="M36.5943 78.9959C31.1278 78.9959 25.5439 75.7101 23.0111 70.5565C20.7717 66.0092 20.8694 60.4155 23.2653 55.9465C25.6612 51.4872 30.277 48.3089 35.3035 47.6635C40.0072 47.067 45.6791 49.6878 48.7987 53.8928C52.0747 58.313 52.7201 64.4054 50.4611 69.4123C49.3072 71.9843 47.4101 74.2726 44.9848 76.0524C43.5375 77.1085 42.0315 77.9007 40.4962 78.3896C39.2249 78.7906 37.9047 78.9861 36.5845 78.9861L36.5943 78.9959ZM36.7019 49.0717C36.2912 49.0717 35.8902 49.1011 35.4893 49.15C30.9322 49.7367 26.7467 52.6118 24.5757 56.6603C22.4048 60.7089 22.307 65.7843 24.341 69.9013C27.1868 75.671 34.2278 78.8492 40.0464 76.9814C41.4252 76.5413 42.7943 75.8275 44.1047 74.8593C46.3246 73.236 48.0457 71.1433 49.1018 68.806C51.1164 64.3467 50.51 58.714 47.5959 54.7827C45.0435 51.3405 40.6233 49.0619 36.6921 49.0619L36.7019 49.0717Z" fill="black"/>
<path d="M109.36 17.1819L107.727 11.8131L111.169 6.97244L102.7 1.12451C101.605 2.90432 100.519 4.67434 99.4242 6.45415C99.3655 6.55194 99.3068 6.64973 99.209 6.70841C99.0819 6.78664 98.9254 6.79642 98.769 6.78664C96.8816 6.7573 94.9942 6.72796 93.1068 6.67907C92.1778 4.91882 91.2781 3.24659 90.2611 1.64281C90.1829 1.51568 90.0851 1.37877 89.9384 1.33965C89.7917 1.30054 89.645 1.38855 89.5179 1.46678C87.2785 2.80653 85.0293 4.15605 82.7898 5.49579C82.7312 5.53491 82.6725 5.56425 82.6334 5.62292C82.5356 5.76961 82.6236 5.95541 82.7018 6.1021C83.5526 7.58853 84.5599 8.98695 85.704 10.268C84.687 12.1261 83.6211 13.857 82.4573 15.5194C82.1738 15.9204 81.8608 16.3409 81.3914 16.4778C81.0003 16.5951 80.5798 16.4778 80.1886 16.38C78.6141 15.9399 77.0495 15.4314 75.5044 14.874C74.1842 17.974 73.9397 21.5043 74.8003 24.7607C74.9274 25.0052 80.7851 24.174 80.7851 24.174L84.2763 30.2077L81.4697 34.7941L87.8946 39.4588L91.2292 34.6083L97.1163 34.7257L99.385 39.8499L108.157 36.8282L106.035 31.5768L109.194 26.4818L115.149 26.0027L115.335 18.7759L109.36 17.2112V17.1819ZM99.2384 19.92C99.297 20.1743 99.0721 20.673 98.9743 20.9077C98.8863 21.1131 98.7983 21.2989 98.6809 21.4847C98.456 21.827 98.1724 22.1497 97.8693 22.4235C97.2434 23.0005 96.5393 23.421 95.7374 23.7241C95.4147 23.8415 95.0627 23.9197 94.7302 23.9784C94.427 24.0273 94.1532 24.0566 93.8501 24.0273C93.6643 24.0077 93.4687 23.949 93.2829 23.949C93.8109 23.949 93.234 23.949 93.0286 23.9001C92.1289 23.6459 91.239 22.9125 90.799 22.091C90.5349 21.602 90.2904 21.0446 90.2709 20.4774C90.2513 19.9689 90.3882 19.4409 90.5838 18.9715C90.8674 18.2967 91.1901 17.6219 91.6106 17.0254C92.08 16.3506 92.6668 15.6465 93.4198 15.2749C94.1825 14.8936 95.004 14.8349 95.7374 15.1185C96.0406 14.9816 96.3926 14.9327 96.686 15.0402C97.2336 15.2456 97.703 15.5096 98.0746 15.9595C98.4463 16.4093 98.7005 16.8396 98.9157 17.3872C98.9841 17.5535 99.0428 17.7295 99.0819 17.9055C99.1112 18.0033 99.121 18.1109 99.1406 18.2185C99.1601 18.3847 99.1895 18.5412 99.209 18.7074V18.5998C99.1797 18.4629 99.1895 18.4532 99.209 18.5803C99.2384 18.7465 99.2579 18.903 99.2775 19.0692C99.2775 19.1475 99.2873 19.2355 99.2873 19.3137C99.2873 19.5191 99.2677 19.7342 99.209 19.9298L99.2384 19.92Z" fill="white"/>
<path d="M83.5524 23.6653C83.5524 23.6653 83.5035 23.6653 83.484 23.6556C83.3569 23.6165 83.2786 23.4795 83.3177 23.3524C84.99 17.6414 86.9751 11.9402 89.2048 6.41493C89.2537 6.2878 89.4004 6.22913 89.5275 6.27802C89.6546 6.32692 89.7133 6.47361 89.6644 6.60074C87.4445 12.1064 85.4691 17.7881 83.7969 23.4893C83.7676 23.5969 83.6698 23.6653 83.5622 23.6653H83.5524Z" fill="black"/>
<path d="M86.1345 24.5944C86.1345 24.5944 86.0856 24.5944 86.066 24.5944C85.9389 24.5553 85.8607 24.4184 85.8998 24.2913C87.4449 18.8932 89.4985 13.6027 91.9824 8.56642C92.0411 8.43929 92.1878 8.3904 92.3149 8.44907C92.442 8.50775 92.4909 8.65443 92.4322 8.78156C89.9581 13.7885 87.9241 19.0497 86.3789 24.4184C86.3496 24.526 86.2518 24.5944 86.1442 24.5944H86.1345Z" fill="black"/>
<path d="M85.1669 34.9309C85.1669 34.9309 85.0984 34.9309 85.0691 34.9114C84.942 34.8625 84.8833 34.7158 84.9322 34.5886L89.1959 24.3499C89.2448 24.2227 89.3915 24.1641 89.5186 24.213C89.6458 24.2619 89.7044 24.4085 89.6555 24.5357L85.3918 34.7744C85.3527 34.8722 85.2647 34.9309 85.1669 34.9309Z" fill="black"/>
<path d="M90.7597 32.7404C90.7597 32.7404 90.701 32.7404 90.6619 32.7209C90.5348 32.672 90.4761 32.5253 90.525 32.3982L92.9013 26.5209C92.9502 26.3938 93.0969 26.3351 93.224 26.384C93.3511 26.4329 93.4098 26.5796 93.3609 26.7067L90.9846 32.584C90.9455 32.6818 90.8477 32.7404 90.7499 32.7404H90.7597Z" fill="black"/>
<path d="M95.2097 13.3582C95.2097 13.3582 95.1608 13.3582 95.1314 13.3484C95.0043 13.3093 94.9261 13.1724 94.9652 13.0355L96.0996 9.42698C96.1387 9.29985 96.2756 9.22162 96.4125 9.26073C96.5396 9.29985 96.6179 9.43676 96.5788 9.57366L95.4444 13.1822C95.415 13.2897 95.3172 13.3582 95.2097 13.3582Z" fill="black"/>
<path d="M99.6881 14.297C99.6881 14.297 99.6294 14.297 99.6 14.2775C99.4729 14.2286 99.4045 14.0819 99.4534 13.9548C100.617 10.8646 101.947 7.79391 103.424 4.83083C103.482 4.7037 103.639 4.6548 103.756 4.72326C103.883 4.78193 103.932 4.92862 103.864 5.05575C102.397 7.99927 101.067 11.0601 99.913 14.1308C99.8739 14.2286 99.7859 14.2873 99.6783 14.2873L99.6881 14.297Z" fill="black"/>
<path d="M95.1998 32.7893C95.1998 32.7893 95.1313 32.7893 95.0922 32.7697C94.9651 32.7111 94.9162 32.5644 94.9748 32.4373L105.791 9.58339C105.849 9.45626 105.996 9.40737 106.123 9.46604C106.25 9.52472 106.299 9.6714 106.24 9.79853L95.4247 32.6524C95.3856 32.7404 95.2975 32.7991 95.1998 32.7991V32.7893Z" fill="black"/>
<path d="M99.5318 33.7183C99.5318 33.7183 99.4633 33.7183 99.4242 33.6987C99.2971 33.6401 99.2482 33.4934 99.3069 33.3662L106.573 17.8174C106.631 17.6903 106.778 17.6414 106.905 17.7C107.032 17.7587 107.081 17.9054 107.023 18.0325L99.7567 33.5814C99.7176 33.6694 99.6296 33.7281 99.5318 33.7281V33.7183Z" fill="black"/>
<path d="M107.278 25.9342C107.278 25.9342 107.199 25.9244 107.16 25.9049C107.043 25.8364 106.994 25.6897 107.063 25.5626L110.26 19.7831C110.329 19.6658 110.475 19.6169 110.603 19.6853C110.72 19.7538 110.769 19.9005 110.7 20.0276L107.503 25.8071C107.454 25.8853 107.375 25.9342 107.287 25.9342H107.278Z" fill="black"/>
<path d="M101.908 36.8673C101.908 36.8673 101.83 36.8673 101.801 36.8379C101.674 36.7793 101.625 36.6228 101.693 36.5055L103.14 33.6206C103.199 33.5033 103.356 33.4446 103.473 33.513C103.6 33.5717 103.649 33.7282 103.58 33.8455L102.133 36.7304C102.094 36.8184 102.006 36.8673 101.908 36.8673Z" fill="black"/>
<path d="M77.4703 22.3258C77.4703 22.3258 77.392 22.3258 77.3627 22.2964C77.2356 22.2378 77.1867 22.0911 77.2453 21.9639L79.2012 17.9447C79.2598 17.8176 79.4065 17.7687 79.5337 17.8274C79.6608 17.886 79.7097 18.0327 79.651 18.1599L77.6952 22.1791C77.6561 22.2671 77.5681 22.316 77.4703 22.316V22.3258Z" fill="black"/>
<path d="M85.724 7.16795C85.724 7.16795 85.6457 7.15817 85.6066 7.13862C85.4893 7.07016 85.4404 6.92347 85.5088 6.79635L86.9561 4.21465C87.0246 4.0973 87.1713 4.04841 87.2984 4.11686C87.4158 4.18531 87.4647 4.332 87.3962 4.45913L85.9489 7.04082C85.9 7.11906 85.8218 7.16795 85.7337 7.16795H85.724Z" fill="black"/>
<g opacity="0.13">
<path d="M100.959 20.9957C100.891 20.096 99.5021 20.008 99.2869 20.8783C99.0131 21.7291 99.1207 21.5824 98.2014 22.4528C97.3213 23.1569 97.6342 22.9515 96.2652 23.4502C94.9841 23.8316 95.5024 23.7534 94.4169 23.7534C94.2702 23.724 94.1235 23.6849 93.9768 23.6458C93.4488 23.4502 93.615 23.548 92.6078 22.9906C92.1872 22.7755 91.8156 22.4039 91.3365 22.3745C89.8696 22.1105 89.1557 24.2228 90.4466 24.9464C92.7447 26.5111 95.0525 27.2152 97.6831 25.9244C99.0424 25.1909 100.02 23.9392 100.519 22.4919C100.734 22.0225 101.018 21.5237 100.979 20.9957H100.959Z" fill="black"/>
</g>
<g opacity="0.13">
<path d="M104.92 35.508C104.06 35.8209 103.757 36.0263 102.133 36.3099C101.361 36.5543 100.432 36.4272 99.7766 36.9259C98.3978 37.8941 99.5419 40.1531 101.146 39.6739C103.072 39.2729 105.282 39.1947 106.779 37.7767C107.962 36.4565 106.466 34.7354 104.93 35.508H104.92Z" fill="black"/>
</g>
<g opacity="0.13">
<path d="M116.46 23.2841C116.46 23.2841 116.46 23.2547 116.46 23.2352V23.2841C116.46 22.9613 116.392 22.6484 116.225 22.3746C115.56 21.1326 113.604 21.338 113.145 22.6191C113.116 22.6777 113.086 22.7462 113.037 22.8342C112.91 23.0885 112.822 23.3525 112.724 23.6068C112.636 23.8023 112.519 24.0762 112.441 24.2326C112.275 24.5162 112.196 24.8292 112.187 25.1617C112.206 27.2739 115.208 27.6749 115.785 25.6506C116.079 24.9954 116.313 24.3206 116.401 23.6165C116.421 23.509 116.44 23.4112 116.44 23.3036L116.46 23.2841Z" fill="black"/>
</g>
<path d="M99.3167 40.5149C99.0135 40.5149 98.7397 40.3291 98.6224 40.0455C98.0063 38.5297 97.3706 36.9553 96.4221 35.4297C94.6031 35.6351 92.7842 35.5373 91.0533 35.3711C90.5448 36.2707 90.0558 37.19 89.5375 38.1483C89.2344 38.7155 88.9215 39.2925 88.5987 39.889C88.4227 40.2215 88.0218 40.3584 87.6795 40.2313C84.824 39.1262 82.3303 37.3367 80.4821 35.0581C80.2669 34.7941 80.2571 34.4225 80.4625 34.1487C81.4209 32.8382 82.389 31.4985 83.4354 29.885C82.3401 28.467 81.3622 26.7752 80.4625 24.7411C80.0713 24.8194 79.6704 24.9074 79.2694 24.9856C77.8906 25.2692 76.4726 25.5723 74.9275 25.7777C74.5559 25.8266 74.2038 25.6017 74.106 25.2399C73.2259 22.0519 73.4704 18.4531 74.8297 14.5415C74.9568 14.1796 75.3382 13.9645 75.7098 14.0623C77.6461 14.5415 79.5824 15.0206 81.6262 15.5096C82.4477 13.8178 83.4451 12.2238 84.5013 10.5711C83.5625 9.33896 82.5161 7.89165 81.5773 6.21941C81.4111 5.91626 81.4697 5.53487 81.7338 5.30017C83.8559 3.4128 86.5256 1.76012 89.6745 0.410598C90.0265 0.263911 90.4274 0.400819 90.6132 0.723531C91.5618 2.37621 92.4224 4.10712 93.1754 5.86736C95.1214 5.57399 97.087 5.50553 99.0527 5.662C99.9426 3.98977 100.872 2.26864 102.035 0.469273C102.241 0.146561 102.661 0.0389904 103.003 0.205236C105.302 1.37873 107.482 2.80649 109.477 4.44939C110.015 4.88945 110.533 5.34907 111.061 5.80869C111.335 6.04339 111.668 6.33676 111.785 6.79638C111.844 7.00174 111.805 7.22666 111.678 7.40269C111.228 8.06767 110.758 8.72287 110.279 9.38785C109.643 10.2778 108.988 11.197 108.314 12.2042C108.89 13.6027 109.467 15.0402 110.005 16.4777C111.678 16.6342 113.809 16.9667 116.088 17.8859C116.352 17.9935 116.538 18.2478 116.557 18.5314C116.733 21.4749 116.342 24.1641 115.345 26.7458C115.227 27.0392 114.963 27.2446 114.621 27.225L113.966 27.1957C112.499 27.137 110.983 27.0783 109.36 27.1957C108.734 28.6528 107.805 30.1099 106.475 31.7332C107.345 33.2294 108.225 34.7941 108.998 36.6326C109.145 36.9846 108.998 37.3953 108.666 37.5811C105.634 39.1947 102.514 40.1824 99.3949 40.5051C99.3656 40.5051 99.346 40.5051 99.3167 40.5051V40.5149ZM96.7937 33.8846C97.0381 33.8846 97.2728 34.0117 97.4195 34.2171C98.4757 35.8111 99.1602 37.4051 99.7959 38.96C102.329 38.6275 104.871 37.8256 107.365 36.5837C106.612 34.9212 105.771 33.4641 104.949 32.0461C104.793 31.7723 104.822 31.4203 105.018 31.1856C106.563 29.3667 107.561 27.7922 108.167 26.2275C108.265 25.9635 108.509 25.7777 108.793 25.7581C110.67 25.5821 112.382 25.6506 114.034 25.719H114.152C114.885 23.6361 115.198 21.4553 115.11 19.1083C112.959 18.3064 110.954 18.062 109.428 17.9348C109.135 17.9153 108.89 17.7197 108.793 17.4459C108.177 15.7541 107.482 14.0623 106.808 12.4194C106.71 12.1945 106.739 11.9304 106.876 11.7251C107.649 10.5711 108.372 9.53454 109.086 8.53707C109.458 8.01877 109.819 7.51026 110.172 7.00174C110.142 6.98218 110.123 6.95285 110.103 6.93329C109.595 6.48345 109.076 6.03361 108.558 5.60333C106.817 4.16579 104.94 2.91406 102.955 1.84813C101.889 3.5497 101.018 5.20238 100.167 6.79638C100.031 7.06042 99.747 7.22666 99.434 7.18755C97.2533 6.97241 95.0432 7.05064 92.882 7.42225C92.5397 7.48092 92.1975 7.29512 92.0703 6.97241C91.376 5.29039 90.5741 3.63772 89.694 2.04372C87.1808 3.1781 85.0098 4.51784 83.2202 6.01405C84.1395 7.56893 85.1467 8.91846 86.0366 10.0724C86.2322 10.3169 86.242 10.6689 86.0757 10.933C84.824 12.879 83.6505 14.7175 82.7606 16.6733C82.6139 16.996 82.2521 17.1721 81.9098 17.0938C79.8855 16.6146 77.9688 16.1355 76.0619 15.6661C75.0742 18.7758 74.859 21.6411 75.4262 24.1935C76.6682 23.9979 77.8515 23.7534 79.0054 23.5187C79.6117 23.3916 80.2082 23.2742 80.8048 23.1569C81.147 23.0884 81.4991 23.2742 81.636 23.597C82.6335 25.9635 83.719 27.8411 84.9609 29.3667C85.1663 29.6111 85.1858 29.9632 85.0196 30.237C83.9732 31.8995 82.9953 33.2588 82.0565 34.5594C83.5625 36.2805 85.4792 37.6594 87.6599 38.5982C87.8751 38.207 88.0707 37.8256 88.276 37.454C88.8823 36.3294 89.4495 35.2733 90.0558 34.2171C90.2025 33.9629 90.4861 33.8259 90.7795 33.8455C92.706 34.0411 94.7596 34.1878 96.7448 33.8944C96.7839 33.8944 96.8132 33.8944 96.8524 33.8944L96.7937 33.8846Z" fill="black"/>
<path d="M94.0949 24.2326C93.293 24.2326 92.4716 24.0663 91.7186 23.7436C91.0634 23.46 90.5842 23.108 90.2713 22.6581C89.841 22.0518 89.7334 21.3282 89.6845 20.7707C89.5378 18.8345 90.0072 17.0644 91.0243 15.7932C92.2662 14.2383 94.3296 13.5635 96.041 14.1307C96.1583 14.1698 96.2561 14.2383 96.3343 14.3165H96.3539C98.163 14.9228 99.5028 16.6928 99.6201 18.6487C99.7277 20.5263 98.7302 22.3941 97.0775 23.4111C96.1876 23.9587 95.1511 24.2326 94.0949 24.2326ZM94.799 15.4215C93.8602 15.4215 92.853 15.9007 92.1978 16.7222C91.4154 17.7001 91.0536 19.0887 91.1807 20.6534C91.2101 21.0152 91.2687 21.4748 91.4937 21.7878C91.6501 22.0127 91.9239 22.1985 92.3249 22.3745C93.6255 22.9417 95.1511 22.8537 96.3148 22.1398C97.4883 21.4162 98.2217 20.0471 98.1435 18.7367C98.0652 17.4067 97.1264 16.1452 95.9041 15.7443L95.7671 15.7051C95.6498 15.6758 95.4444 15.6073 95.2684 15.4704C95.1217 15.4411 94.9653 15.4313 94.8088 15.4313L94.799 15.4215Z" fill="black"/>
<path d="M83.5524 23.6653C83.5524 23.6653 83.5035 23.6653 83.484 23.6556C83.3569 23.6165 83.2786 23.4795 83.3177 23.3524C84.99 17.6414 86.9751 11.9402 89.2048 6.41493C89.2537 6.2878 89.4004 6.22913 89.5275 6.27802C89.6546 6.32692 89.7133 6.47361 89.6644 6.60074C87.4445 12.1064 85.4691 17.7881 83.7969 23.4893C83.7676 23.5969 83.6698 23.6653 83.5622 23.6653H83.5524Z" fill="black"/>
<path d="M86.1345 24.5944C86.1345 24.5944 86.0856 24.5944 86.066 24.5944C85.9389 24.5553 85.8607 24.4184 85.8998 24.2913C87.4449 18.8932 89.4985 13.6027 91.9824 8.56642C92.0411 8.43929 92.1878 8.3904 92.3149 8.44907C92.442 8.50775 92.4909 8.65443 92.4322 8.78156C89.9581 13.7885 87.9241 19.0497 86.3789 24.4184C86.3496 24.526 86.2518 24.5944 86.1442 24.5944H86.1345Z" fill="black"/>
<path d="M85.1669 34.9309C85.1669 34.9309 85.0984 34.9309 85.0691 34.9114C84.942 34.8625 84.8833 34.7158 84.9322 34.5886L89.1959 24.3499C89.2448 24.2227 89.3915 24.1641 89.5186 24.213C89.6458 24.2619 89.7044 24.4085 89.6555 24.5357L85.3918 34.7744C85.3527 34.8722 85.2647 34.9309 85.1669 34.9309Z" fill="black"/>
<path d="M90.7597 32.7404C90.7597 32.7404 90.701 32.7404 90.6619 32.7209C90.5348 32.672 90.4761 32.5253 90.525 32.3982L92.9013 26.5209C92.9502 26.3938 93.0969 26.3351 93.224 26.384C93.3511 26.4329 93.4098 26.5796 93.3609 26.7067L90.9846 32.584C90.9455 32.6818 90.8477 32.7404 90.7499 32.7404H90.7597Z" fill="black"/>
<path d="M95.2097 13.3582C95.2097 13.3582 95.1608 13.3582 95.1314 13.3484C95.0043 13.3093 94.9261 13.1724 94.9652 13.0355L96.0996 9.42698C96.1387 9.29985 96.2756 9.22162 96.4125 9.26073C96.5396 9.29985 96.6179 9.43676 96.5788 9.57366L95.4444 13.1822C95.415 13.2897 95.3172 13.3582 95.2097 13.3582Z" fill="black"/>
<path d="M99.6881 14.297C99.6881 14.297 99.6294 14.297 99.6 14.2775C99.4729 14.2286 99.4045 14.0819 99.4534 13.9548C100.617 10.8646 101.947 7.79391 103.424 4.83083C103.482 4.7037 103.639 4.6548 103.756 4.72326C103.883 4.78193 103.932 4.92862 103.864 5.05575C102.397 7.99927 101.067 11.0601 99.913 14.1308C99.8739 14.2286 99.7859 14.2873 99.6783 14.2873L99.6881 14.297Z" fill="black"/>
<path d="M95.1998 32.7893C95.1998 32.7893 95.1313 32.7893 95.0922 32.7697C94.9651 32.7111 94.9162 32.5644 94.9748 32.4373L105.791 9.58339C105.849 9.45626 105.996 9.40737 106.123 9.46604C106.25 9.52472 106.299 9.6714 106.24 9.79853L95.4247 32.6524C95.3856 32.7404 95.2975 32.7991 95.1998 32.7991V32.7893Z" fill="black"/>
<path d="M99.5318 33.7183C99.5318 33.7183 99.4633 33.7183 99.4242 33.6987C99.2971 33.6401 99.2482 33.4934 99.3069 33.3662L106.573 17.8174C106.631 17.6903 106.778 17.6414 106.905 17.7C107.032 17.7587 107.081 17.9054 107.023 18.0325L99.7567 33.5814C99.7176 33.6694 99.6296 33.7281 99.5318 33.7281V33.7183Z" fill="black"/>
<path d="M107.278 25.9342C107.278 25.9342 107.199 25.9244 107.16 25.9049C107.043 25.8364 106.994 25.6897 107.063 25.5626L110.26 19.7831C110.329 19.6658 110.475 19.6169 110.603 19.6853C110.72 19.7538 110.769 19.9005 110.7 20.0276L107.503 25.8071C107.454 25.8853 107.375 25.9342 107.287 25.9342H107.278Z" fill="black"/>
<path d="M101.908 36.8673C101.908 36.8673 101.83 36.8673 101.801 36.8379C101.674 36.7793 101.625 36.6228 101.693 36.5055L103.14 33.6206C103.199 33.5033 103.356 33.4446 103.473 33.513C103.6 33.5717 103.649 33.7282 103.58 33.8455L102.133 36.7304C102.094 36.8184 102.006 36.8673 101.908 36.8673Z" fill="black"/>
<path d="M77.4703 22.3258C77.4703 22.3258 77.392 22.3258 77.3627 22.2964C77.2356 22.2378 77.1867 22.0911 77.2453 21.9639L79.2012 17.9447C79.2598 17.8176 79.4065 17.7687 79.5337 17.8274C79.6608 17.886 79.7097 18.0327 79.651 18.1599L77.6952 22.1791C77.6561 22.2671 77.5681 22.316 77.4703 22.316V22.3258Z" fill="black"/>
<path d="M85.724 7.16795C85.724 7.16795 85.6457 7.15817 85.6066 7.13862C85.4893 7.07016 85.4404 6.92347 85.5088 6.79635L86.9561 4.21465C87.0246 4.0973 87.1713 4.04841 87.2984 4.11686C87.4158 4.18531 87.4647 4.332 87.3962 4.45913L85.9489 7.04082C85.9 7.11906 85.8218 7.16795 85.7337 7.16795H85.724Z" fill="black"/>
<g opacity="0.13">
<path d="M100.959 20.9957C100.891 20.096 99.5021 20.008 99.2869 20.8783C99.0131 21.7291 99.1207 21.5824 98.2014 22.4528C97.3213 23.1569 97.6342 22.9515 96.2652 23.4502C94.9841 23.8316 95.5024 23.7534 94.4169 23.7534C94.2702 23.724 94.1235 23.6849 93.9768 23.6458C93.4488 23.4502 93.615 23.548 92.6078 22.9906C92.1872 22.7755 91.8156 22.4039 91.3365 22.3745C89.8696 22.1105 89.1557 24.2228 90.4466 24.9464C92.7447 26.5111 95.0525 27.2152 97.6831 25.9244C99.0424 25.1909 100.02 23.9392 100.519 22.4919C100.734 22.0225 101.018 21.5237 100.979 20.9957H100.959Z" fill="black"/>
</g>
<g opacity="0.13">
<path d="M104.92 35.508C104.06 35.8209 103.757 36.0263 102.133 36.3099C101.361 36.5543 100.432 36.4272 99.7766 36.9259C98.3978 37.8941 99.5419 40.1531 101.146 39.6739C103.072 39.2729 105.282 39.1947 106.779 37.7767C107.962 36.4565 106.466 34.7354 104.93 35.508H104.92Z" fill="black"/>
</g>
<g opacity="0.13">
<path d="M116.46 23.2841C116.46 23.2841 116.46 23.2547 116.46 23.2352V23.2841C116.46 22.9613 116.392 22.6484 116.225 22.3746C115.56 21.1326 113.604 21.338 113.145 22.6191C113.116 22.6777 113.086 22.7462 113.037 22.8342C112.91 23.0885 112.822 23.3525 112.724 23.6068C112.636 23.8023 112.519 24.0762 112.441 24.2326C112.275 24.5162 112.196 24.8292 112.187 25.1617C112.206 27.2739 115.208 27.6749 115.785 25.6506C116.079 24.9954 116.313 24.3206 116.401 23.6165C116.421 23.509 116.44 23.4112 116.44 23.3036L116.46 23.2841Z" fill="black"/>
</g>
<path d="M99.3167 40.5149C99.0135 40.5149 98.7397 40.3291 98.6224 40.0455C98.0063 38.5297 97.3706 36.9553 96.4221 35.4297C94.6031 35.6351 92.7842 35.5373 91.0533 35.3711C90.5448 36.2707 90.0558 37.19 89.5375 38.1483C89.2344 38.7155 88.9215 39.2925 88.5987 39.889C88.4227 40.2215 88.0218 40.3584 87.6795 40.2313C84.824 39.1262 82.3303 37.3367 80.4821 35.0581C80.2669 34.7941 80.2571 34.4225 80.4625 34.1487C81.4209 32.8382 82.389 31.4985 83.4354 29.885C82.3401 28.467 81.3622 26.7752 80.4625 24.7411C80.0713 24.8194 79.6704 24.9074 79.2694 24.9856C77.8906 25.2692 76.4726 25.5723 74.9275 25.7777C74.5559 25.8266 74.2038 25.6017 74.106 25.2399C73.2259 22.0519 73.4704 18.4531 74.8297 14.5415C74.9568 14.1796 75.3382 13.9645 75.7098 14.0623C77.6461 14.5415 79.5824 15.0206 81.6262 15.5096C82.4477 13.8178 83.4451 12.2238 84.5013 10.5711C83.5625 9.33896 82.5161 7.89165 81.5773 6.21941C81.4111 5.91626 81.4697 5.53487 81.7338 5.30017C83.8559 3.4128 86.5256 1.76012 89.6745 0.410598C90.0265 0.263911 90.4274 0.400819 90.6132 0.723531C91.5618 2.37621 92.4224 4.10712 93.1754 5.86736C95.1214 5.57399 97.087 5.50553 99.0527 5.662C99.9426 3.98977 100.872 2.26864 102.035 0.469273C102.241 0.146561 102.661 0.0389904 103.003 0.205236C105.302 1.37873 107.482 2.80649 109.477 4.44939C110.015 4.88945 110.533 5.34907 111.061 5.80869C111.335 6.04339 111.668 6.33676 111.785 6.79638C111.844 7.00174 111.805 7.22666 111.678 7.40269C111.228 8.06767 110.758 8.72287 110.279 9.38785C109.643 10.2778 108.988 11.197 108.314 12.2042C108.89 13.6027 109.467 15.0402 110.005 16.4777C111.678 16.6342 113.809 16.9667 116.088 17.8859C116.352 17.9935 116.538 18.2478 116.557 18.5314C116.733 21.4749 116.342 24.1641 115.345 26.7458C115.227 27.0392 114.963 27.2446 114.621 27.225L113.966 27.1957C112.499 27.137 110.983 27.0783 109.36 27.1957C108.734 28.6528 107.805 30.1099 106.475 31.7332C107.345 33.2294 108.225 34.7941 108.998 36.6326C109.145 36.9846 108.998 37.3953 108.666 37.5811C105.634 39.1947 102.514 40.1824 99.3949 40.5051C99.3656 40.5051 99.346 40.5051 99.3167 40.5051V40.5149ZM96.7937 33.8846C97.0381 33.8846 97.2728 34.0117 97.4195 34.2171C98.4757 35.8111 99.1602 37.4051 99.7959 38.96C102.329 38.6275 104.871 37.8256 107.365 36.5837C106.612 34.9212 105.771 33.4641 104.949 32.0461C104.793 31.7723 104.822 31.4203 105.018 31.1856C106.563 29.3667 107.561 27.7922 108.167 26.2275C108.265 25.9635 108.509 25.7777 108.793 25.7581C110.67 25.5821 112.382 25.6506 114.034 25.719H114.152C114.885 23.6361 115.198 21.4553 115.11 19.1083C112.959 18.3064 110.954 18.062 109.428 17.9348C109.135 17.9153 108.89 17.7197 108.793 17.4459C108.177 15.7541 107.482 14.0623 106.808 12.4194C106.71 12.1945 106.739 11.9304 106.876 11.7251C107.649 10.5711 108.372 9.53454 109.086 8.53707C109.458 8.01877 109.819 7.51026 110.172 7.00174C110.142 6.98218 110.123 6.95285 110.103 6.93329C109.595 6.48345 109.076 6.03361 108.558 5.60333C106.817 4.16579 104.94 2.91406 102.955 1.84813C101.889 3.5497 101.018 5.20238 100.167 6.79638C100.031 7.06042 99.747 7.22666 99.434 7.18755C97.2533 6.97241 95.0432 7.05064 92.882 7.42225C92.5397 7.48092 92.1975 7.29512 92.0703 6.97241C91.376 5.29039 90.5741 3.63772 89.694 2.04372C87.1808 3.1781 85.0098 4.51784 83.2202 6.01405C84.1395 7.56893 85.1467 8.91846 86.0366 10.0724C86.2322 10.3169 86.242 10.6689 86.0757 10.933C84.824 12.879 83.6505 14.7175 82.7606 16.6733C82.6139 16.996 82.2521 17.1721 81.9098 17.0938C79.8855 16.6146 77.9688 16.1355 76.0619 15.6661C75.0742 18.7758 74.859 21.6411 75.4262 24.1935C76.6682 23.9979 77.8515 23.7534 79.0054 23.5187C79.6117 23.3916 80.2082 23.2742 80.8048 23.1569C81.147 23.0884 81.4991 23.2742 81.636 23.597C82.6335 25.9635 83.719 27.8411 84.9609 29.3667C85.1663 29.6111 85.1858 29.9632 85.0196 30.237C83.9732 31.8995 82.9953 33.2588 82.0565 34.5594C83.5625 36.2805 85.4792 37.6594 87.6599 38.5982C87.8751 38.207 88.0707 37.8256 88.276 37.454C88.8823 36.3294 89.4495 35.2733 90.0558 34.2171C90.2025 33.9629 90.4861 33.8259 90.7795 33.8455C92.706 34.0411 94.7596 34.1878 96.7448 33.8944C96.7839 33.8944 96.8132 33.8944 96.8524 33.8944L96.7937 33.8846Z" fill="black"/>
<path d="M94.0949 24.2326C93.293 24.2326 92.4716 24.0663 91.7186 23.7436C91.0634 23.46 90.5842 23.108 90.2713 22.6581C89.841 22.0518 89.7334 21.3282 89.6845 20.7707C89.5378 18.8345 90.0072 17.0644 91.0243 15.7932C92.2662 14.2383 94.3296 13.5635 96.041 14.1307C96.1583 14.1698 96.2561 14.2383 96.3343 14.3165H96.3539C98.163 14.9228 99.5028 16.6928 99.6201 18.6487C99.7277 20.5263 98.7302 22.3941 97.0775 23.4111C96.1876 23.9587 95.1511 24.2326 94.0949 24.2326ZM94.799 15.4215C93.8602 15.4215 92.853 15.9007 92.1978 16.7222C91.4154 17.7001 91.0536 19.0887 91.1807 20.6534C91.2101 21.0152 91.2687 21.4748 91.4937 21.7878C91.6501 22.0127 91.9239 22.1985 92.3249 22.3745C93.6255 22.9417 95.1511 22.8537 96.3148 22.1398C97.4883 21.4162 98.2217 20.0471 98.1435 18.7367C98.0652 17.4067 97.1264 16.1452 95.9041 15.7443L95.7671 15.7051C95.6498 15.6758 95.4444 15.6073 95.2684 15.4704C95.1217 15.4411 94.9653 15.4313 94.8088 15.4313L94.799 15.4215Z" fill="black"/>
<path d="M147.285 93.2147C145.124 89.8213 144.292 85.5381 145.339 81.646C146.238 78.3406 148.409 75.4851 151.04 72.9914C147.96 68.3952 144.566 64.0142 140.87 59.8971C140.537 59.5353 140.205 59.1637 139.804 58.8801C139.178 58.4303 138.376 58.1369 137.584 57.5893C134.23 61.2369 129.233 63.2905 124.216 63.2025C117.703 62.3908 111.855 57.6186 109.625 51.3893C103.318 52.3965 97.1373 54.1861 91.3676 56.6602C92.5607 58.6454 92.8736 61.0511 92.8345 63.3687C92.7954 65.8722 92.3651 68.4148 91.2796 70.664C90.1844 72.923 88.3752 74.8788 86.0771 75.8763C84.7472 76.4532 83.2901 76.6879 81.8525 76.8151C79.3491 77.0498 76.8163 76.9813 74.3421 76.7759C74.3421 76.7759 69.5797 94.4469 70.1175 94.4469C71.6627 94.8283 73.2078 95.2585 74.7333 95.7182C76.4251 96.2365 78.1169 96.8134 79.5935 97.7913C81.0702 98.7692 82.3121 100.187 82.7522 101.899C83.0456 103.043 82.9576 104.246 82.7522 105.409C82.0383 109.624 79.8478 113.565 76.6402 116.391C76.6402 116.391 88.4339 128.097 88.6295 127.98C89.9692 125.994 92.1891 124.821 94.3112 123.726C95.2108 123.266 96.1105 122.797 97.0689 122.493C100.56 121.379 104.56 122.523 107.239 125.016C109.919 127.51 111.337 131.187 111.542 134.903C115.727 134.669 119.913 134.356 124.079 133.935C125.908 133.759 127.795 133.534 129.497 132.185C129.389 128.478 130.191 124.743 131.795 121.398C132.577 119.775 133.555 118.23 134.934 117.066C136.987 115.345 139.765 114.651 142.434 114.797C145.104 114.944 147.686 115.883 150.267 116.89C153.006 111.717 155.773 106.446 156.663 100.471C152.878 99.1017 149.456 96.5983 147.295 93.2049L147.285 93.2147ZM127.13 94.3197C126.837 96.745 125.741 98.9844 124.226 100.872C123.463 101.82 122.573 102.632 121.595 103.356C120.637 104.07 119.414 104.744 118.251 105.038C116.999 105.351 115.591 105.214 114.319 105.214C112.98 105.214 111.61 105.204 110.329 104.744C109.107 104.314 108.061 103.522 107.132 102.632C106.222 101.762 105.146 100.96 104.521 99.8547C102.066 95.5128 102.78 89.7529 105.704 85.8217C107.269 83.7191 109.469 82.1251 111.787 80.9223C114.28 79.6217 117.214 79.1621 119.933 79.9542C120.764 80.1987 121.057 80.9223 120.95 81.5873C125.419 83.9049 127.727 89.4204 127.14 94.3197H127.13Z" fill="white"/>
<path d="M126.827 76.9326C123.023 74.4291 118.094 73.4707 114.388 73.8619C107.963 74.5562 103.21 77.8225 99.8364 83.3379C96.4626 88.8533 95.9345 96.041 98.5846 101.928C101.245 107.815 107.063 112.206 113.478 112.988C118.847 113.643 124.421 111.815 128.499 108.255C132.567 104.696 134.239 99.5028 134.767 94.1243C135.032 91.4057 133.946 81.5972 126.827 76.9228V76.9326ZM119.551 105.204C114.407 106.945 108.256 104.979 105.029 100.608C104.081 99.317 103.357 97.8306 103.093 96.2464C102.829 94.6622 103.024 93.029 103.416 91.4644C104.354 87.6603 106.525 84.0713 109.792 81.9101C113.058 79.749 117.488 79.2111 120.969 81.0105C125.291 83.2401 127.971 87.983 128.167 92.6868C128.401 98.1142 124.695 103.454 119.551 105.194V105.204Z" fill="#71BB69"/>
<g opacity="0.13">
<path d="M136.019 92.0999C135.804 91.4545 135.588 90.8091 135.363 90.1734C134.943 88.9706 134.454 87.7971 134.073 86.5845C133.994 86.5845 133.926 86.5845 133.848 86.6138C132.528 87.2006 133.241 88.1589 133.281 89.3618C133.417 90.545 133.681 91.7087 133.838 92.8822C133.985 94.0655 134.024 95.2684 133.936 96.4614L133.906 96.5592C133.73 97.2242 133.427 97.8403 133.251 98.5053C132.449 101.253 132.136 102.094 130.591 104.265C130.493 104.383 130.347 104.578 130.249 104.725C130.132 104.93 129.682 105.546 129.545 105.742C129.506 105.791 129.476 105.83 129.457 105.849C129.388 105.937 129.32 106.016 129.252 106.104C129.056 106.387 128.078 107.365 128.078 107.404C126.738 108.431 126.865 108.412 125.408 109.477C124.323 110.201 123.159 110.817 121.986 111.375C120.529 111.991 118.729 112.802 116.509 112.93C114.769 112.959 113.028 112.93 111.297 112.734C108.618 112.216 107.992 111.766 105.694 110.485C104.999 110.094 104.334 109.243 103.474 109.399C103.464 109.399 103.454 109.409 103.435 109.419C104.051 110.094 104.677 110.759 105.312 111.414C106.124 112.255 106.955 113.076 107.786 113.888C110.456 114.924 113.321 115.511 116.187 115.394C117.8 115.325 119.433 115.257 121.008 114.836C123.785 114.103 126.367 112.714 128.596 110.905C130.22 109.419 132.009 108.069 133.349 106.309C135.266 103.15 136.165 99.4538 136.195 96.7059C136.302 95.6889 136.224 93.9091 136.009 92.0999H136.019Z" fill="black"/>
</g>
<g opacity="0.13">
<path d="M157.288 100.833C157.083 99.9916 155.851 99.8253 155.43 100.588C153.592 103.796 151.753 107.013 149.817 110.172C149.015 111.443 147.979 112.587 147.402 113.986C147.216 114.338 146.962 114.68 146.942 115.091C146.698 116.284 148.164 117.232 149.181 116.587C149.573 116.381 149.749 115.99 149.944 115.628C150.111 115.462 150.277 115.286 150.404 115.091C152.281 112.352 153.211 109.086 154.805 106.182C155.597 104.666 156.399 103.14 157.181 101.625C157.318 101.39 157.357 101.106 157.279 100.842L157.288 100.833Z" fill="black"/>
</g>
<g opacity="0.13">
<path d="M127.355 129.182C126.621 128.957 125.927 129.368 125.213 129.505C120.48 130.815 117.302 130.884 111.874 130.708C109.42 130.767 109.42 134.365 111.874 134.434C116.001 134.551 120.186 134.6 124.206 133.573C125.154 133.348 126.103 133.143 127.042 132.879C127.609 132.732 128.176 132.458 128.469 131.921C129.095 130.903 128.499 129.486 127.355 129.182Z" fill="black"/>
</g>
<path d="M111.219 135.373C110.828 135.373 110.495 135.07 110.476 134.669C110.28 131.138 108.676 127.725 106.095 125.3C105.019 124.293 103.307 123.051 101.273 122.855C99.5132 122.679 97.7431 123.295 96.0709 123.931C93.4599 124.938 90.8195 126.21 89.1668 128.733C89.0495 128.909 88.8734 129.026 88.6681 129.055C88.4627 129.094 88.2574 129.036 88.0911 128.909C82.9864 125.017 78.9965 121.154 75.8965 117.115C75.652 116.802 75.7009 116.342 76.0139 116.088C79.0943 113.536 81.275 109.82 81.9889 105.879C82.2725 104.334 82.253 103.141 81.9205 102.114C81.3435 100.314 79.7495 98.8085 77.0505 97.5078C74.6155 96.3343 71.9457 95.5129 69.1293 95.0728C68.9338 95.0435 68.7577 94.9359 68.6404 94.7697C68.523 94.6034 68.4741 94.4079 68.5133 94.2123C69.5205 88.2079 71.2221 82.1448 73.5789 76.1991C73.7255 75.8275 74.1461 75.6417 74.5177 75.7688C77.7057 76.9032 85.6757 77.0107 88.9126 73.148C94.2911 66.7426 91.7387 59.4083 90.8293 57.3058C90.6728 56.9342 90.8293 56.5137 91.1911 56.3376C94.252 54.8708 99.3762 53.3745 104.794 51.7903C106.466 51.3014 108.177 50.8026 109.879 50.2941C110.143 50.2159 110.417 50.2941 110.612 50.4701C110.808 50.6559 110.886 50.9395 110.808 51.2036C110.495 52.338 113.448 57.9805 118.074 60.3569C128.675 65.7843 135.403 58.9976 137.212 56.7875C137.349 56.6212 137.544 56.5234 137.75 56.5137C137.955 56.5039 138.17 56.5821 138.317 56.7386C143.51 61.9998 147.92 67.2218 151.783 72.7079C152.017 73.0404 151.939 73.5 151.607 73.7445C147.118 76.9716 144.8 83.0054 145.964 88.4132C147.128 93.7722 151.704 98.3586 157.357 99.8255C157.552 99.8744 157.719 100.002 157.816 100.178C157.914 100.354 157.944 100.559 157.885 100.755C156.086 106.827 153.504 112.754 150.423 117.897C150.228 118.22 149.827 118.347 149.485 118.201C145.426 116.45 141.485 114.973 137.847 116.225C135.197 117.135 132.987 119.511 131.765 122.758C130.836 125.222 130.542 127.901 130.229 130.728C130.161 131.324 130.093 131.93 130.024 132.547C129.985 132.859 129.75 133.124 129.437 133.182C123.11 134.483 117.155 135.187 111.229 135.343H111.209L111.219 135.373ZM100.667 121.34C100.912 121.34 101.166 121.349 101.41 121.379C103.356 121.565 105.322 122.552 107.112 124.215C109.801 126.728 111.522 130.209 111.903 133.857C117.35 133.671 122.827 133.016 128.626 131.852C128.675 131.422 128.723 131.001 128.772 130.581C129.095 127.647 129.408 124.88 130.396 122.249C131.775 118.592 134.317 115.893 137.388 114.836C141.319 113.487 145.505 114.905 149.494 116.597C152.242 111.893 154.57 106.554 156.262 101.067C150.423 99.2681 145.759 94.3981 144.536 88.7457C143.294 83.0151 145.602 76.6587 150.169 73.0013C146.59 67.9944 142.541 63.2026 137.838 58.3815C135.53 60.8849 128.215 67.2414 117.419 61.7064C113.243 59.5647 109.908 54.7436 109.4 52.025C108.001 52.4455 106.603 52.8465 105.224 53.2474C100.227 54.7045 95.4939 56.0834 92.482 57.4133C93.5968 60.3373 95.5037 67.6423 90.0567 74.1259C86.5558 78.3016 78.6445 78.4776 74.7132 77.4019C72.6205 82.8 71.0656 88.2861 70.1073 93.7331C72.7965 94.222 75.3489 95.0337 77.7057 96.1681C80.7959 97.6643 82.6441 99.4637 83.3482 101.664C83.7492 102.925 83.7883 104.353 83.4558 106.143C82.7224 110.182 80.5709 114.005 77.5101 116.753C80.346 120.323 83.9154 123.765 88.3845 127.246C90.2621 124.801 92.922 123.53 95.5428 122.523C97.0879 121.926 98.858 121.32 100.677 121.32L100.667 121.34Z" fill="black"/>
<path d="M114.994 106.593C110.701 106.593 106.398 104.568 103.806 101.058C102.721 99.5811 101.997 97.9675 101.733 96.3735C101.479 94.8675 101.586 93.2051 102.066 91.2981C103.112 87.054 105.557 83.4161 108.755 81.3038C112.422 78.8884 117.106 78.5168 120.685 80.365C125.086 82.6338 128.068 87.4647 128.284 92.6672C128.528 98.3782 124.607 104.07 119.16 105.918C117.81 106.378 116.392 106.593 114.984 106.593H114.994ZM115.698 80.678C113.605 80.678 111.444 81.3136 109.576 82.5458C106.681 84.4527 104.471 87.7776 103.513 91.66C103.092 93.3713 102.995 94.8382 103.21 96.1388C103.435 97.4981 104.061 98.8965 105.009 100.178C108.031 104.265 113.908 106.133 118.7 104.51C123.541 102.867 127.022 97.811 126.807 92.7357C126.611 88.0612 123.942 83.7193 120.01 81.695C118.7 81.0202 117.223 80.6878 115.708 80.6878L115.698 80.678Z" fill="black"/>
<path d="M115.023 113.878C114.27 113.878 113.527 113.829 112.784 113.741C106.163 112.929 100.09 108.421 97.3032 102.251C94.5553 96.1583 95.054 88.7652 98.5941 82.9662C102.154 77.1378 107.239 73.8325 113.703 73.1381C117.927 72.6883 123.003 73.9302 126.631 76.3261C134.366 81.4113 135.129 91.8945 134.904 94.222C134.259 100.794 132.127 105.576 128.391 108.842C124.685 112.079 119.825 113.888 115.033 113.888L115.023 113.878ZM115.483 74.5268C114.925 74.5268 114.387 74.5561 113.85 74.6148C107.786 75.27 103.21 78.2526 99.8556 83.7387C96.56 89.127 96.1004 95.9822 98.6527 101.635C101.225 107.346 106.848 111.512 112.96 112.265C118.025 112.881 123.423 111.179 127.403 107.707C130.846 104.705 132.811 100.236 133.418 94.0655C133.701 91.1807 132.42 81.9003 125.809 77.5583C122.905 75.6514 119.003 74.5268 115.483 74.5268Z" fill="black"/>
<path d="M126.827 76.9326C123.023 74.4291 118.094 73.4707 114.388 73.8619C107.963 74.5562 103.21 77.8225 99.8364 83.3379C96.4626 88.8533 95.9345 96.041 98.5846 101.928C101.245 107.815 107.063 112.206 113.478 112.988C118.847 113.643 124.421 111.815 128.499 108.255C132.567 104.696 134.239 99.5028 134.767 94.1243C135.032 91.4057 133.946 81.5972 126.827 76.9228V76.9326ZM119.551 105.204C114.407 106.945 108.256 104.979 105.029 100.608C104.081 99.317 103.357 97.8306 103.093 96.2464C102.829 94.6622 103.024 93.029 103.416 91.4644C104.354 87.6603 106.525 84.0713 109.792 81.9101C113.058 79.749 117.488 79.2111 120.969 81.0105C125.291 83.2401 127.971 87.983 128.167 92.6868C128.401 98.1142 124.695 103.454 119.551 105.194V105.204Z" fill="#EDA51E"/>
<g opacity="0.13">
<path d="M136.019 92.0999C135.804 91.4545 135.588 90.8091 135.363 90.1734C134.943 88.9706 134.454 87.7971 134.073 86.5845C133.994 86.5845 133.926 86.5845 133.848 86.6138C132.528 87.2006 133.241 88.1589 133.281 89.3618C133.417 90.545 133.681 91.7087 133.838 92.8822C133.985 94.0655 134.024 95.2684 133.936 96.4614L133.906 96.5592C133.73 97.2242 133.427 97.8403 133.251 98.5053C132.449 101.253 132.136 102.094 130.591 104.265C130.493 104.383 130.347 104.578 130.249 104.725C130.132 104.93 129.682 105.546 129.545 105.742C129.506 105.791 129.476 105.83 129.457 105.849C129.388 105.937 129.32 106.016 129.252 106.104C129.056 106.387 128.078 107.365 128.078 107.404C126.738 108.431 126.865 108.412 125.408 109.477C124.323 110.201 123.159 110.817 121.986 111.375C120.529 111.991 118.729 112.802 116.509 112.93C114.769 112.959 113.028 112.93 111.297 112.734C108.618 112.216 107.992 111.766 105.694 110.485C104.999 110.094 104.334 109.243 103.474 109.399C103.464 109.399 103.454 109.409 103.435 109.419C104.051 110.094 104.677 110.759 105.312 111.414C106.124 112.255 106.955 113.076 107.786 113.888C110.456 114.924 113.321 115.511 116.187 115.394C117.8 115.325 119.433 115.257 121.008 114.836C123.785 114.103 126.367 112.714 128.596 110.905C130.22 109.419 132.009 108.069 133.349 106.309C135.266 103.15 136.165 99.4538 136.195 96.7059C136.302 95.6889 136.224 93.9091 136.009 92.0999H136.019Z" fill="black"/>
</g>
<g opacity="0.13">
<path d="M157.288 100.833C157.083 99.9916 155.851 99.8253 155.43 100.588C153.592 103.796 151.753 107.013 149.817 110.172C149.015 111.443 147.979 112.587 147.402 113.986C147.216 114.338 146.962 114.68 146.942 115.091C146.698 116.284 148.164 117.232 149.181 116.587C149.573 116.381 149.749 115.99 149.944 115.628C150.111 115.462 150.277 115.286 150.404 115.091C152.281 112.352 153.211 109.086 154.805 106.182C155.597 104.666 156.399 103.14 157.181 101.625C157.318 101.39 157.357 101.106 157.279 100.842L157.288 100.833Z" fill="black"/>
</g>
<g opacity="0.13">
<path d="M127.355 129.182C126.621 128.957 125.927 129.368 125.213 129.505C120.48 130.815 117.302 130.884 111.874 130.708C109.42 130.767 109.42 134.365 111.874 134.434C116.001 134.551 120.186 134.6 124.206 133.573C125.154 133.348 126.103 133.143 127.042 132.879C127.609 132.732 128.176 132.458 128.469 131.921C129.095 130.903 128.499 129.486 127.355 129.182Z" fill="black"/>
</g>
<path d="M111.219 135.373C110.828 135.373 110.495 135.07 110.476 134.669C110.28 131.138 108.676 127.725 106.095 125.3C105.019 124.293 103.307 123.051 101.273 122.855C99.5132 122.679 97.7431 123.295 96.0709 123.931C93.4599 124.938 90.8195 126.21 89.1668 128.733C89.0495 128.909 88.8734 129.026 88.6681 129.055C88.4627 129.094 88.2574 129.036 88.0911 128.909C82.9864 125.017 78.9965 121.154 75.8965 117.115C75.652 116.802 75.7009 116.342 76.0139 116.088C79.0943 113.536 81.275 109.82 81.9889 105.879C82.2725 104.334 82.253 103.141 81.9205 102.114C81.3435 100.314 79.7495 98.8085 77.0505 97.5078C74.6155 96.3343 71.9457 95.5129 69.1293 95.0728C68.9338 95.0435 68.7577 94.9359 68.6404 94.7697C68.523 94.6034 68.4741 94.4079 68.5133 94.2123C69.5205 88.2079 71.2221 82.1448 73.5789 76.1991C73.7255 75.8275 74.1461 75.6417 74.5177 75.7688C77.7057 76.9032 85.6757 77.0107 88.9126 73.148C94.2911 66.7426 91.7387 59.4083 90.8293 57.3058C90.6728 56.9342 90.8293 56.5137 91.1911 56.3376C94.252 54.8708 99.3762 53.3745 104.794 51.7903C106.466 51.3014 108.177 50.8026 109.879 50.2941C110.143 50.2159 110.417 50.2941 110.612 50.4701C110.808 50.6559 110.886 50.9395 110.808 51.2036C110.495 52.338 113.448 57.9805 118.074 60.3569C128.675 65.7843 135.403 58.9976 137.212 56.7875C137.349 56.6212 137.544 56.5234 137.75 56.5137C137.955 56.5039 138.17 56.5821 138.317 56.7386C143.51 61.9998 147.92 67.2218 151.783 72.7079C152.017 73.0404 151.939 73.5 151.607 73.7445C147.118 76.9716 144.8 83.0054 145.964 88.4132C147.128 93.7722 151.704 98.3586 157.357 99.8255C157.552 99.8744 157.719 100.002 157.816 100.178C157.914 100.354 157.944 100.559 157.885 100.755C156.086 106.827 153.504 112.754 150.423 117.897C150.228 118.22 149.827 118.347 149.485 118.201C145.426 116.45 141.485 114.973 137.847 116.225C135.197 117.135 132.987 119.511 131.765 122.758C130.836 125.222 130.542 127.901 130.229 130.728C130.161 131.324 130.093 131.93 130.024 132.547C129.985 132.859 129.75 133.124 129.437 133.182C123.11 134.483 117.155 135.187 111.229 135.343H111.209L111.219 135.373ZM100.667 121.34C100.912 121.34 101.166 121.349 101.41 121.379C103.356 121.565 105.322 122.552 107.112 124.215C109.801 126.728 111.522 130.209 111.903 133.857C117.35 133.671 122.827 133.016 128.626 131.852C128.675 131.422 128.723 131.001 128.772 130.581C129.095 127.647 129.408 124.88 130.396 122.249C131.775 118.592 134.317 115.893 137.388 114.836C141.319 113.487 145.505 114.905 149.494 116.597C152.242 111.893 154.57 106.554 156.262 101.067C150.423 99.2681 145.759 94.3981 144.536 88.7457C143.294 83.0151 145.602 76.6587 150.169 73.0013C146.59 67.9944 142.541 63.2026 137.838 58.3815C135.53 60.8849 128.215 67.2414 117.419 61.7064C113.243 59.5647 109.908 54.7436 109.4 52.025C108.001 52.4455 106.603 52.8465 105.224 53.2474C100.227 54.7045 95.4939 56.0834 92.482 57.4133C93.5968 60.3373 95.5037 67.6423 90.0567 74.1259C86.5558 78.3016 78.6445 78.4776 74.7132 77.4019C72.6205 82.8 71.0656 88.2861 70.1073 93.7331C72.7965 94.222 75.3489 95.0337 77.7057 96.1681C80.7959 97.6643 82.6441 99.4637 83.3482 101.664C83.7492 102.925 83.7883 104.353 83.4558 106.143C82.7224 110.182 80.5709 114.005 77.5101 116.753C80.346 120.323 83.9154 123.765 88.3845 127.246C90.2621 124.801 92.922 123.53 95.5428 122.523C97.0879 121.926 98.858 121.32 100.677 121.32L100.667 121.34Z" fill="black"/>
<path d="M114.994 106.593C110.701 106.593 106.398 104.568 103.806 101.058C102.721 99.5811 101.997 97.9675 101.733 96.3735C101.479 94.8675 101.586 93.2051 102.066 91.2981C103.112 87.054 105.557 83.4161 108.755 81.3038C112.422 78.8884 117.106 78.5168 120.685 80.365C125.086 82.6338 128.068 87.4647 128.284 92.6672C128.528 98.3782 124.607 104.07 119.16 105.918C117.81 106.378 116.392 106.593 114.984 106.593H114.994ZM115.698 80.678C113.605 80.678 111.444 81.3136 109.576 82.5458C106.681 84.4527 104.471 87.7776 103.513 91.66C103.092 93.3713 102.995 94.8382 103.21 96.1388C103.435 97.4981 104.061 98.8965 105.009 100.178C108.031 104.265 113.908 106.133 118.7 104.51C123.541 102.867 127.022 97.811 126.807 92.7357C126.611 88.0612 123.942 83.7193 120.01 81.695C118.7 81.0202 117.223 80.6878 115.708 80.6878L115.698 80.678Z" fill="black"/>
<path d="M115.023 113.878C114.27 113.878 113.527 113.829 112.784 113.741C106.163 112.929 100.09 108.421 97.3032 102.251C94.5553 96.1583 95.054 88.7652 98.5941 82.9662C102.154 77.1378 107.239 73.8325 113.703 73.1381C117.927 72.6883 123.003 73.9302 126.631 76.3261C134.366 81.4113 135.129 91.8945 134.904 94.222C134.259 100.794 132.127 105.576 128.391 108.842C124.685 112.079 119.825 113.888 115.033 113.888L115.023 113.878ZM115.483 74.5268C114.925 74.5268 114.387 74.5561 113.85 74.6148C107.786 75.27 103.21 78.2526 99.8556 83.7387C96.56 89.127 96.1004 95.9822 98.6527 101.635C101.225 107.346 106.848 111.512 112.96 112.265C118.025 112.881 123.423 111.179 127.403 107.707C130.846 104.705 132.811 100.236 133.418 94.0655C133.701 91.1807 132.42 81.9003 125.809 77.5583C122.905 75.6514 119.003 74.5268 115.483 74.5268Z" fill="black"/>
<path d="M152.076 42.8717C152.076 42.8717 152.027 42.8717 151.998 42.8717C151.587 42.8326 151.294 42.461 151.333 42.0503C152.017 35.4787 150.912 28.8289 148.135 22.8342C147.959 22.4626 148.125 22.0226 148.497 21.8465C148.868 21.6705 149.308 21.8368 149.484 22.2084C152.369 28.4475 153.523 35.3613 152.809 42.2067C152.77 42.5881 152.447 42.8717 152.066 42.8717H152.076Z" fill="black"/>
<path d="M48.329 139.128C48.329 139.128 48.2312 139.128 48.1823 139.118C40.6328 137.632 33.5234 133.769 28.1644 128.253C27.8808 127.96 27.8808 127.491 28.184 127.197C28.4773 126.914 28.9467 126.914 29.2401 127.217C34.3937 132.517 41.2294 136.233 48.4855 137.661C48.8864 137.739 49.1505 138.13 49.0722 138.531C49.0038 138.883 48.6908 139.128 48.3388 139.128H48.329Z" fill="black"/>
</svg>
