<svg xmlns="http://www.w3.org/2000/svg" viewBox="0 0 900 329">
<g transform="translate(-24,373) scale(0.095238,-0.095238)" fill="#000">
<path d="M1497 3893 c-8 -13 -235 -388 -505 -832 -270 -445 -547 -901 -616
-1013 l-124 -205 0 -276 0 -275 746 0 745 0 0 -415 0 -415 373 0 373 0 0 415
0 415 199 0 200 0 0 304 0 305 -200 0 -199 0 0 1008 0 1008 -489 0 -488 0 -15
-24z m273 -788 c-17 -296 -26 -609 -27 -897 l0 -307 -358 0 c-292 0 -357 2
-353 13 3 8 105 178 227 379 217 357 299 507 431 797 37 79 71 144 77 144 7 0
8 -45 3 -129z"/>
<path d="M8126 3583 c-111 -183 -395 -651 -631 -1039 l-428 -706 0 -273 0
-273 745 0 746 0 0 -415 0 -415 378 0 378 0 0 415 0 415 194 0 194 0 0 304 0
305 -194 0 -194 0 0 1008 0 1008 -493 0 -493 0 -202 -334z m459 -493 c-21
-420 -27 -614 -27 -888 l0 -301 -359 0 c-292 0 -357 2 -352 13 2 8 105 179
228 381 167 274 256 433 352 629 70 145 131 273 135 286 4 13 12 24 19 24 8 0
9 -44 4 -144z"/>
<path d="M3693 3447 l-459 -460 0 -803 0 -803 459 -460 460 -459 803 0 803 0
460 459 459 460 0 803 0 803 -459 460 -460 459 -803 0 -803 0 -460 -459z
m2158 -368 l376 -375 0 -520 0 -520 -376 -375 -375 -376 -520 0 -520 1 -375
375 -375 375 0 520 0 520 375 375 375 376 520 0 520 0 375 -376z"/>
</g>
</svg>
