<svg xmlns="http://www.w3.org/2000/svg" viewBox="0 0 885 329">
<g transform="translate(-48,385) scale(0.095238,-0.095238)" fill="#000">
<path d="M1749 4019 c-8 -13 -235 -388 -505 -832 -270 -445 -547 -901 -616
-1013 l-124 -205 0 -276 0 -275 746 0 745 0 0 -415 0 -415 373 0 373 0 0 415
0 415 199 0 200 0 0 304 0 305 -200 0 -199 0 0 1008 0 1008 -489 0 -488 0 -15
-24z m273 -788 c-17 -296 -26 -609 -27 -897 l0 -307 -358 0 c-292 0 -357 2
-353 13 3 8 105 178 227 379 217 357 299 507 431 797 37 79 71 144 77 144 7 0
8 -45 3 -129z"/>
<path d="M8185 3662 c-127 -209 -412 -678 -633 -1041 l-401 -661 0 -271 0
-271 750 0 751 0 0 -415 0 -415 373 0 373 0 0 415 0 415 199 0 200 0 0 304 0
305 -200 0 -199 0 0 1008 0 1008 -492 0 -491 0 -230 -381z m494 -378 c-19
-221 -27 -475 -27 -845 l0 -412 -363 0 c-353 0 -362 0 -352 19 6 11 109 180
228 376 202 330 307 526 442 820 30 65 60 118 66 118 9 0 10 -22 6 -76z"/>
<path d="M3951 3525 l-507 -506 0 -716 0 -715 505 -500 505 -500 717 0 717 0
500 505 500 505 0 710 0 711 -507 506 -506 507 -709 0 -709 0 -506 -507z
m2273 -168 l433 -433 0 -614 0 -614 -433 -433 -433 -433 -625 -1 -625 0 -428
428 -427 428 0 625 0 625 427 428 428 428 625 0 625 0 433 -434z"/>
</g>
</svg>
