<svg xmlns="http://www.w3.org/2000/svg" viewBox="0 0 965.985580 334.852487">
<g transform="translate(-46.014420,397) scale(0.095238,-0.095238)" fill="#000">
<path d="M851 4148 c0 -11 -22 -391 -48 -843 -26 -452 -47 -836 -47 -853 0
-30 12 -40 179 -145 l178 -113 81 48 c45 26 120 62 166 80 75 30 98 34 219 38
204 7 320 -28 437 -132 102 -91 147 -214 147 -399 0 -210 -74 -354 -230 -447
-108 -65 -154 -75 -347 -75 -150 0 -183 3 -244 23 -133 44 -275 127 -431 252
l-70 56 -25 -34 c-14 -19 -94 -132 -179 -252 l-154 -217 59 -56 c186 -176 491
-337 734 -387 224 -46 522 -53 708 -15 646 131 1036 652 977 1305 -25 272
-105 461 -266 631 -256 269 -762 388 -1123 265 l-90 -30 5 33 c4 30 57 594 57
609 0 4 285 7 635 7 l635 0 0 336 0 336 -982 0 c-969 0 -981 -1 -981 -21z"/>
<path d="M3909 3651 l-507 -506 0 -716 0 -715 505 -500 505 -500 717 0 717 0
500 505 500 505 0 710 0 711 -507 506 -506 507 -709 0 -709 0 -506 -507z
m2273 -168 l433 -433 0 -614 0 -614 -433 -433 -433 -433 -625 -1 -625 0 -428
428 -427 428 0 625 0 625 427 428 428 428 625 0 625 0 433 -434z"/>
<path d="M7689 3651 l-507 -506 0 -716 0 -715 505 -500 505 -500 717 0 717 0
500 505 500 505 0 710 0 711 -507 506 -506 507 -709 0 -709 0 -506 -507z
m2273 -168 l433 -433 0 -614 0 -614 -433 -433 -433 -433 -625 -1 -625 0 -428
428 -427 428 0 625 0 625 427 428 428 428 625 0 625 0 433 -434z"/>
</g>
</svg>
