<svg xmlns="http://www.w3.org/2000/svg" viewBox="0 0 735 258.451564">
<defs>
  <linearGradient id="grad" x1="100%" y1="100%" x2="100%" y2="0%">
    <stop offset="0%" style="stop-color: #AE0013"></stop>
    <stop offset="0%" style="stop-color: #ED1E45">
      <animate attributeName="stop-color" values="#ED1E45;#AE0013;#ED1E45" dur="5s" repeatCount="indefinite"></animate>
    </stop>
  </linearGradient>
</defs>
<g transform="translate(-63,286) scale(0.095238,-0.095238)" fill="#ccc">
<path d="M962 2895 c-7 -113 -25 -348 -55 -721 -10 -125 -18 -271 -19 -325
l-1 -99 60 -36 59 -35 69 42 c172 106 249 129 426 129 325 -1 538 -155 623
-448 17 -58 21 -107 22 -231 1 -138 -2 -167 -23 -231 -79 -235 -230 -390 -451
-462 -66 -22 -101 -26 -193 -26 -248 0 -456 82 -643 252 -38 36 -74 63 -79 61
-12 -5 -95 -106 -95 -115 -1 -4 28 -35 63 -69 202 -194 456 -291 761 -292 397
0 704 227 825 614 23 71 25 98 25 278 0 226 -13 293 -87 445 -55 114 -187 247
-297 299 -123 59 -224 82 -390 88 -173 6 -246 -8 -396 -77 -54 -26 -100 -44
-103 -42 -4 5 9 174 45 579 9 92 18 210 22 262 4 52 12 98 19 102 6 5 246 8
534 8 l522 1 0 78 0 79 -618 0 -618 0 -7 -108z"/>
<path fill="url(#grad)" d="M3100 2612 l-391 -391 0 -554 0 -554 391 -388 391 -388 555 -1 555 0
387 391 387 391 1 552 0 551 -391 391 -391 391 -552 0 -551 0 -391 -391z
m1759 -130 l339 -332 0 -480 0 -481 -339 -332 -339 -332 -478 0 -478 0 -338
339 -338 339 0 467 0 466 338 339 338 339 478 0 478 0 339 -332z"/>
<path fill="url(#grad)" d="M6103 2612 l-391 -391 0 -554 0 -554 391 -388 391 -388 555 -1 555 0
387 391 387 391 1 552 0 551 -391 391 -391 391 -552 0 -551 0 -391 -391z
m1759 -130 l339 -332 0 -480 0 -481 -339 -332 -339 -332 -478 0 -478 0 -338
339 -338 339 0 467 0 466 338 339 338 339 478 0 478 0 339 -332z"/>
</g>
</svg>
