<svg xmlns="http://www.w3.org/2000/svg" viewBox="0 0 283.124 283.124"><defs><style>.a{fill:#efefef;}.b{fill:#fff;}.c{fill:#e4e7e7;}.d{fill:#bfc3c5;}.e{fill:#5ca41b;}.f{fill:#5d5d5d;}</style></defs><path class="a" d="M181.376,70.781A22.184,22.184,0,0,0,159.257,92.9V212.343H13.272A13.311,13.311,0,0,1,0,199.071V13.272A13.311,13.311,0,0,1,13.272,0H216.766a13.311,13.311,0,0,1,13.272,13.272V70.781Z"/><path class="b" d="M195.189,115.672a22.184,22.184,0,0,0-22.119,22.119V239.538H40.356a8.873,8.873,0,0,1-8.848-8.848V111.248a8.873,8.873,0,0,1,8.848-8.848H217.308a8.873,8.873,0,0,1,8.848,8.848v4.424Z" transform="translate(-13.813 -44.891)"/><path class="b" d="M197.894,35.446H286.37a8.848,8.848,0,0,1,0,17.7H197.894a8.848,8.848,0,1,1,0-17.7Z" transform="translate(-82.875 -15.539)"/><path class="c" d="M190.335,259.182H76.422a5.53,5.53,0,1,1,0-11.059H190.335ZM76.422,270.242H190.335V281.3H76.422a5.53,5.53,0,1,1,0-11.059Z" transform="translate(-31.078 -108.773)"/><path class="a" d="M321.442,141.785h70.781A22.184,22.184,0,0,1,414.342,163.9V323.161a22.184,22.184,0,0,1-22.119,22.119H321.442a22.184,22.184,0,0,1-22.119-22.119V163.9A22.184,22.184,0,0,1,321.442,141.785Z" transform="translate(-131.218 -62.156)"/><path class="b" d="M323.439,196.923h84.053a4.437,4.437,0,0,1,4.424,4.424V334.061a4.437,4.437,0,0,1-4.424,4.424H323.439a4.437,4.437,0,0,1-4.424-4.424V201.347A4.437,4.437,0,0,1,323.439,196.923Z" transform="translate(-139.851 -86.328)"/><path class="d" d="M396.543,464.738a6.635,6.635,0,1,1-6.635,6.635A6.655,6.655,0,0,1,396.543,464.738Z" transform="translate(-170.93 -203.734)"/><path class="c" d="M354.947,383h48.662a4.424,4.424,0,1,0,0-8.848H354.947a4.424,4.424,0,0,0,0,8.848Zm48.662,6.635H354.947a4.424,4.424,0,1,0,0,8.848h48.662a4.424,4.424,0,1,0,0-8.848Z" transform="translate(-153.664 -165.023)"/><path class="c" d="M354.947,383h48.662a4.424,4.424,0,1,0,0-8.848H354.947a4.424,4.424,0,0,0,0,8.848Zm48.662,6.635H354.947a4.424,4.424,0,1,0,0,8.848h48.662a4.424,4.424,0,1,0,0-8.848Z" transform="translate(-153.664 -197.023)"/><path class="d" d="M381.41,165.415h22.119a3.318,3.318,0,0,1,0,6.636H381.41a3.318,3.318,0,0,1,0-6.636Z" transform="translate(-165.75 -72.515)"/><rect class="e" width="57" height="31" rx="5" transform="translate(197.124 128)"/><path class="e" d="M5,0H122.656l-.734,1.188-.469.891-.328.7-.3.656-.266.719-.25.688-.234.766-.172.594-.219.766-.25,1.359-.156.984-.109,1.438L119.156,43H5a5,5,0,0,1-5-5V5A5,5,0,0,1,5,0Z" transform="translate(40.124 81)"/><path class="f" d="M32.412,44.236,40.1,36.545a.476.476,0,1,0-.674-.674L31.4,43.9a.512.512,0,0,0,0,.674L39.429,52.6a.421.421,0,0,0,.674,0,.512.512,0,0,0,0-.674Zm33.515,0-7.691,7.691a.476.476,0,1,0,.674.674l8.028-8.028a.512.512,0,0,0,0-.674L58.91,35.871a.421.421,0,0,0-.674,0,.512.512,0,0,0,0,.674Zm15.045,2.021a.429.429,0,1,1,.842-.168,6.852,6.852,0,0,0,2.414,4.1,7.1,7.1,0,0,0,4.491,1.628,7.074,7.074,0,0,0,0-14.147,8.375,8.375,0,0,0-1.179.112c-.281.056-.505.112-.786.168l1.067.842a.438.438,0,1,1-.561.674l-1.684-1.347a.422.422,0,0,1-.112-.561l.842-1.965a.428.428,0,1,1,.786.337l-.505,1.123c.281-.056.505-.112.786-.168a10.962,10.962,0,0,1,1.291-.112A7.916,7.916,0,1,1,83.611,50.8a7.775,7.775,0,0,1-2.639-4.547Z" transform="translate(-13.593 -15.492)"/></svg>