<svg viewBox="0 0 86 81" xmlns="http://www.w3.org/2000/svg">
  <g transform="translate(-940, -1415)" fill="#ED1E45">
    <path d="M940.134027,1480.51673 L942.522012,1480.53673 L942.625063,1492.87494 L954.963269,1492.97799 L954.983269,1495.36597 L940.257359,1495.24264 L940.134027,1480.51673 Z M970.5,1463 C972.432997,1463 974,1464.567 974,1466.5 C974,1468.433 972.432997,1470 970.5,1470 C968.567003,1470 967,1468.433 967,1466.5 C967,1464.567 968.567003,1463 970.5,1463 Z M965.090836,1465.49958 C965.03115,1465.82399 965,1466.15836 965,1466.5 C965,1466.84178 965.031175,1467.17628 965.090836,1467.5008 L954.5,1467.5 L954.5,1465.5 L965.090836,1465.49958 Z M1011.5,1465.5 L1011.5,1467.5 L975.909164,1467.5008 C975.968825,1467.17628 976,1466.84178 976,1466.5 C976,1466.15836 975.96885,1465.82399 975.909164,1465.49958 L1011.5,1465.5 Z M1000.5,1452 C1002.433,1452 1004,1453.567 1004,1455.5 C1004,1457.433 1002.433,1459 1000.5,1459 C998.567003,1459 997,1457.433 997,1455.5 C997,1453.567 998.567003,1452 1000.5,1452 Z M995.090836,1454.49958 C995.03115,1454.82399 995,1455.15836 995,1455.5 C995,1455.84178 995.031175,1456.17628 995.090836,1456.5008 L954.5,1456.5 L954.5,1454.5 L995.090836,1454.49958 Z M1011.5,1454.5 L1011.5,1456.5 L1005.90916,1456.5008 C1005.96883,1456.17628 1006,1455.84178 1006,1455.5 C1006,1455.15836 1005.96885,1454.82399 1005.90924,1454.49958 L1011.5,1454.5 Z M983.5,1441 C985.432997,1441 987,1442.567 987,1444.5 C987,1446.433 985.432997,1448 983.5,1448 C981.567003,1448 980,1446.433 980,1444.5 C980,1442.567 981.567003,1441 983.5,1441 Z M978.090878,1443.49897 C978.031189,1443.82357 978,1444.15814 978,1444.5 C978,1444.84164 978.03115,1445.17601 978.090878,1445.50042 L954.5,1445.5 L954.5,1443.5 L978.090878,1443.49897 Z M988.909122,1443.49897 L1011.5,1443.5 L1011.5,1445.5 L988.909122,1445.50042 C988.96885,1445.17601 989,1444.84164 989,1444.5 C989,1444.15814 988.968811,1443.82357 988.909122,1443.49897 Z M1011.01673,1415.63403 L1025.74264,1415.75736 L1025.86597,1430.48327 L1023.47799,1430.46327 L1023.37494,1418.12506 L1011.03673,1418.02201 L1011.01673,1415.63403 Z"></path>
  </g>
</svg>
