<svg viewBox="0 0 288 531" xmlns="http://www.w3.org/2000/svg" xmlns:xlink="http://www.w3.org/1999/xlink">
  <defs>
    <rect id="path-1" x="0.0230760823" y="0" width="282.744018" height="530.145034" rx="41.5800026"></rect>
  </defs>
  <g id="Landings" stroke="none" stroke-width="1" fill="none" fill-rule="evenodd">
    <g id="ABP-Android-landing" transform="translate(-1012, -1840)">
      <g id="mobile-promotion" transform="translate(0, 1800)">
        <g id="Surf-graphic" transform="translate(1012, 40)">
          <mask id="mask-2" fill="white">
            <use xlink:href="#path-1"></use>
          </mask>
          <use id="Rectangle" fill="#FFF" xlink:href="#path-1"></use>
          <g id="Group" mask="url(#mask-2)">
            <g transform="translate(-34.164002, 72.889745)">
              <polygon id="Path" fill="#51C8EC" fill-rule="nonzero" points="47.4978765 75.0820503 309.451893 200.133908 309.451893 387.815645 47.4978765 387.815645"></polygon>
              <g id="Group" stroke-width="1" fill="none" fill-rule="evenodd" transform="translate(0, 243.664013)">
                <rect id="Rectangle" fill="#FFF" fill-rule="nonzero" x="163.051822" y="0" width="34.2109867" height="122.17868"></rect>
                <g transform="translate(7.355502, 57.651713)" fill="#FFF" fill-rule="nonzero" id="Oval">
                  <circle cx="173.503995" cy="90.3471087" r="49.5373756"></circle>
                  <circle cx="223.173388" cy="82.2452452" r="12.7494683"></circle>
                  <circle cx="254.383338" cy="90.7441977" r="31.076894"></circle>
                  <ellipse cx="288.641102" cy="65.7546162" rx="37.6735614" ry="47.6309325"></ellipse>
                  <circle cx="127.419839" cy="93.1350479" r="27.6236747"></circle>
                  <circle cx="73.4282056" cy="80.4448311" r="21.8222249"></circle>
                  <circle cx="97.9344197" cy="86.4968005" r="13.5436464"></circle>
                  <ellipse cx="40.6143071" cy="56.2608621" rx="40.6143071" ry="56.2608621"></ellipse>
                </g>
                <circle id="Oval" fill="#FFF" fill-rule="nonzero" cx="110.109044" cy="108.425054" r="5.13409083"></circle>
                <circle id="Oval" fill="#FFF" fill-rule="nonzero" cx="127.83356" cy="102.155829" r="3.1881467"></circle>
                <circle id="Oval" fill="#FFF" fill-rule="nonzero" cx="232.440531" cy="105.074746" r="5.13409083"></circle>
                <circle id="Oval" fill="#FFF" fill-rule="nonzero" cx="218.065284" cy="94.374132" r="2.21517464"></circle>
              </g>
              <g id="Group" stroke-width="1" fill="none" fill-rule="evenodd" transform="translate(117.116314, 0)">
                <path d="M63.026968,229.509141 L63.026968,0 C63.026968,0 22.6018499,114.75457 48.6818671,229.509141 L63.026968,229.509141 Z" id="Path" fill="#FFF" fill-rule="nonzero"></path>
                <path d="M63.0280075,229.509141 L63.0280075,0 C63.0280075,0 103.453126,114.75457 77.3731084,229.509141 L63.0280075,229.509141 Z" id="Path" fill="#E6E6E6" fill-rule="nonzero"></path>
                <path d="M48.6839461,229.509141 L0,264.717008 L0,232.235749 C0,224.586343 2.74225186,217.190383 7.72868299,211.389615 L42.5987127,170.827283 L48.6839461,229.509141 Z" id="Path" fill="#ED1E45" fill-rule="nonzero"></path>
                <path d="M77.3720689,229.509141 L126.056015,264.717008 L126.056015,232.235749 C126.056015,224.586327 123.313844,217.190336 118.327332,211.389615 L83.4573023,170.827283 L77.3720689,229.509141 Z" id="Path" fill="#C40329" fill-rule="nonzero"></path>
                <path d="M63.4625185,150.397988 C70.6646034,150.397988 76.5030468,156.236431 76.5030468,163.438516 C76.5030468,170.640601 70.6646034,176.479045 63.4625185,176.479045 C56.2604336,176.479045 50.4219902,170.640601 50.4219902,163.438516 C50.4219902,156.236431 56.2604336,150.397988 63.4625185,150.397988 Z" id="Path" fill="#E6E6E6" fill-rule="nonzero"></path>
                <circle id="Oval" fill="#51C8EC" fill-rule="nonzero" cx="63.4625185" cy="163.438516" r="8.69333905"></circle>
                <circle id="Oval" fill="#FFF" fill-rule="nonzero" cx="66.5051352" cy="161.264922" r="3.04261669"></circle>
                <circle id="Oval" fill="#E6E6E6" fill-rule="nonzero" cx="63.4625185" cy="129.098632" r="13.0405283"></circle>
                <circle id="Oval" fill="#51C8EC" fill-rule="nonzero" cx="63.4625185" cy="129.098632" r="8.69333905"></circle>
                <circle id="Oval" fill="#FFF" fill-rule="nonzero" cx="66.5051352" cy="126.925037" r="3.04261669"></circle>
                <path d="M63.0280075,0 C58.8999649,12.4567632 55.4195656,25.1188798 52.6007823,37.9355154 L73.4562722,37.9355154 C70.637122,25.118867 67.156376,12.4567515 63.0280075,0 Z" id="Path" fill="#ED1E45" fill-rule="nonzero"></path>
                <path d="M63.0280075,0 C63.0280075,0 63.0280075,14.4604854 63.0280075,37.9355154 L73.4552326,37.9355154 C70.6364241,25.1188861 67.1560252,12.4567708 63.0280075,0 Z" id="Path" fill="#C40329" fill-rule="nonzero"></path>
                <rect id="Rectangle" fill="#ED1E45" fill-rule="nonzero" x="45.9230339" y="237.128676" width="34.2109867" height="9.38044859"></rect>
                <rect id="Rectangle" fill="#C40329" fill-rule="nonzero" x="62.991625" y="237.128676" width="17.1423956" height="9.38044859"></rect>
                <g transform="translate(45.923034, 229.541365)" fill-rule="nonzero" id="Path">
                  <polygon fill="#FFF" points="2.75883317 0 0 7.58835048 17.1049736 7.58835048 17.1049736 0"></polygon>
                  <polygon fill="#E6E6E6" points="31.4500745 0 17.1049736 0 17.1049736 7.58835048 34.2099472 7.58835048"></polygon>
                </g>
              </g>
            </g>
          </g>
          <g id="Group" mask="url(#mask-2)" fill-rule="nonzero">
            <g transform="translate(0.023076, 0)" id="Shape">
              <path d="M283.063145,39.5436223 C283.063145,29.0555791 278.898775,18.996703 271.482609,11.5805364 C264.066442,4.16436985 254.007566,0 243.519523,0 L39.5436223,0 C29.0555791,0 18.996703,4.16436985 11.5805364,11.5805364 C4.16436985,18.996703 0,29.0555791 0,39.5436223 L0,490.107649 C0,500.595693 4.16436985,510.654569 11.5805364,518.070735 C18.996703,525.486902 29.0555791,529.651272 39.5436223,529.651272 L243.519523,529.651272 C254.007566,529.651272 264.066442,525.486902 271.482609,518.070735 C278.898775,510.654569 283.063145,500.595693 283.063145,490.107649 L283.063145,39.5436223 Z M277.034044,489.730311 C277.023721,508.445713 261.854468,523.614967 243.139066,523.625289 L39.1673233,523.625289 C20.4519211,523.614967 5.28266757,508.445713 5.27234468,489.730311 L5.27234468,39.1673233 C5.28266757,20.4519211 20.4519211,5.28266757 39.1673233,5.27234468 L243.139066,5.27234468 C261.854062,5.28324099 277.022683,20.4523267 277.034044,39.1673233 L277.034044,489.730311 Z" fill="#037B97"></path>
              <path d="M276.962319,39.092479 C276.951996,20.3774823 261.783376,5.20839664 243.068379,5.19750033 L39.0914395,5.19750033 C20.3764432,5.20839664 5.20782267,20.3774823 5.19750033,39.092479 L5.19750033,489.655466 C5.20782267,508.370463 20.3764432,523.539549 39.0914395,523.550445 L243.068379,523.550445 C261.783376,523.539549 276.951996,508.370463 276.962319,489.655466 L276.962319,39.092479 Z M268.550417,488.780207 C268.550417,502.085808 257.388863,512.133954 243.943953,512.133954 L37.7214584,512.133954 C31.4142801,512.252758 25.3269613,509.835512 20.8549698,505.431854 C16.3829782,501.028195 13.9098394,495.01579 13.9999869,488.772931 L13.9999869,38.5893609 C13.9999869,25.2837601 24.2765491,14.3606934 37.7214584,14.3606934 L244.07104,14.3606934 C257.594722,14.4012555 268.567073,25.2051428 268.677503,38.5893609 L268.677503,488.772931 L268.550417,488.780207 Z" fill="#51C8EC"></path>
            </g>
          </g>
          <path d="M100.971006,13.5135009 L182.052012,13.5135009 L182.052012,13.5135009 C182.052012,21.5509013 175.536411,28.0665018 167.499011,28.0665018 L115.524007,28.0665018 C107.486607,28.0665018 100.971006,21.5509013 100.971006,13.5135009 L100.971006,13.5135009 Z" id="Path" fill="#51C8EC" fill-rule="nonzero" mask="url(#mask-2)"></path>
          <path d="M283.086221,187.298161 L283.086221,187.298161 C285.642351,187.298161 287.609085,186.042445 287.609085,184.41043 L287.609085,126.790942 C287.609085,125.158926 285.642351,123.90321 283.086221,123.90321 L283.086221,123.90321" id="Path" fill="#51C8EC" fill-rule="nonzero"></path>
        </g>
      </g>
    </g>
  </g>
</svg>
