<svg xmlns="http://www.w3.org/2000/svg" width="254" height="69" fill="none" xmlns:v="https://vecta.io/nano"><path d="M4.39416 3.38099l-.377 2.61-.406 3.045-.435 5.88701.145 3.625c.116.8507.29 1.6627.522 2.436.232.754.57033 1.3533 1.015 1.798.464.4447 1.00533.667 1.624.667.88933 0 1.67233-.4833 2.349-1.45.696-.9667 1.23734-2.204 1.62404-3.712l.986-4.611.812-4.52401c.2707-1.46933.522-2.47467.754-3.016.522-.348.9183-.522 1.189-.522s.4737.029.609.087c.116.928.232 2.61967.348 5.07501l.522 5.684c.232 1.3533.522 2.5037.87 3.451.3673.9473.9087 1.74 1.624 2.378.7153.6187 1.537.928 2.465.928.9473 0 1.7207-.435 2.32-1.305s1.0343-2.03 1.305-3.48c.4833-2.5907.725-5.2587.725-8.004 0-2.76468-.232-4.92034-.696-6.46701.4833-.348.928-.522 1.334-.522s.754.319 1.044.957.493 1.45.609 2.436c.2127 1.77867.319 3.39301.319 4.84301s-.1353 2.9097-.406 4.379-.696 2.842-1.276 4.118c-.5607 1.2567-1.3533 2.262-2.378 3.016-1.0053.7347-2.175 1.102-3.509 1.102-.8893-.0193-1.6917-.232-2.407-.638-.696-.4253-1.2567-.9183-1.682-1.479-.4253-.58-.812-1.334-1.16-2.262-.5027-1.334-.928-3.0353-1.276-5.104-.812 2.842-1.4983 4.8043-2.059 5.887-1.3727 2.61-3.25771 3.9247-5.65504 3.944-1.54667 0-2.70667-.5607-3.48-1.682-.67667-1.0053-1.102-2.4167-1.276-4.234l-.087004-2.639c0-3.2287.522004-7.34668 1.566004-12.35401.50267-.29.899-.435 1.189-.435.30933 0 .54133.029.696.087zM39.8664 15.648l-.145 3.335c0 1.682.1933 2.813.58 3.393.232.3867.551.58.957.58.116 0 .2803-.029.493-.087.406-.116.7443-.058 1.015.174-.1353.6767-.812 1.015-2.03 1.015-.8313 0-1.3823-.348-1.653-1.044-.2127-.522-.3673-1.1697-.464-1.943-.0967-.7927-.174-1.334-.232-1.624-1.2567 2.3973-2.4747 3.857-3.654 4.379-.5993.2707-1.2953.406-2.088.406s-1.4113-.377-1.856-1.131c-.4253-.7733-.638-1.8947-.638-3.364s.2417-3.0063.725-4.611c.4833-1.624 1.189-2.987 2.117-4.089.928-1.12134 1.943-1.68201 3.045-1.68201 1.5853 0 2.639.65731 3.161 1.97201.4447 1.1213.667 2.5617.667 4.321zm-7.105-.928c-.2707 1.044-.4737 2.0397-.609 2.987-.1353.928-.203 1.7593-.203 2.494 0 .7153.145 1.334.435 1.856.3093.522.7057.783 1.189.783 1.044 0 2.0493-.986 3.016-2.958s1.45-3.8087 1.45-5.51c0-1.102-.29-2.0107-.87-2.726-.3867-.464-.899-.696-1.537-.696-.6187 0-1.189.3673-1.711 1.102-.5027.7153-.8893 1.6047-1.16 2.668zm10.9974-2.871c-.87 0-1.4597-.2127-1.769-.638 0-.3093.1256-.551.377-.725.2706-.174.5606-.2803.87-.319.3093-.058.812-.1063 1.508-.145.058-.52201.087-1.18901.087-2.00101l.058-2.117c.058-1.52733.29-2.465.696-2.813.174-.15467.3576-.232.551-.232.2126 0 .3963.01933.551.058l.087 2.523-.174 4.35c.0386.01933.145.029.319.029l2.088-.087c1.508 0 2.262.232 2.262.69601 0 .6573-.2707 1.044-.812 1.16-.2514.058-.551.087-.899.087-.3287 0-.7637-.0387-1.305-.116-.522-.0967-.899-.145-1.131-.145s-.3867.0097-.464.029c-.058.5607-.087 1.1213-.087 1.682l.029 2.059c.0386.812.116 1.7883.232 2.929.1353 1.1407.4156 2.1267.841 2.958.4253.812.9666 1.218 1.624 1.218.3286 0 .7153-.1257 1.16-.377.4446-.2707.783-.406 1.015-.406.2513 0 .464.058.638.174.1933.0967.29.2127.29.348 0 .406-.4157.8023-1.247 1.189-.812.3673-1.508.551-2.088.551-2.1267 0-3.451-2.0107-3.973-6.032-.1547-1.16-.2707-3.1513-.348-5.974-.3094.058-.638.087-.986.087zm20.1085 1.276c-.3673.3673-.7347.551-1.102.551s-.667-.1547-.899-.464c-.2127-.3287-.3867-.6767-.522-1.044-.1353-.3867-.3867-.7347-.754-1.044-.348-.3287-.7927-.493-1.334-.493-.754.0773-1.4403.6187-2.059 1.624-.6187.986-1.073 2.0783-1.363 3.277s-.435 2.3297-.435 3.393c0 1.044.29 1.9527.87 2.726.5993.754 1.4017 1.131 2.407 1.131 1.16 0 2.088-.406 2.784-1.218.29-.348.5607-.696.812-1.044.6187-.812 1.1793-1.218 1.682-1.218.174 0 .4253.0483.754.145 0 .7153-.6573 1.6627-1.972 2.842-1.2953 1.16-2.7067 1.74-4.234 1.74s-2.7357-.4833-3.625-1.45c-.87-.986-1.305-2.2523-1.305-3.799 0-1.9913.4833-3.9827 1.45-5.974.4833-.9667 1.1407-1.7593 1.972-2.378.8313-.638 1.7593-.95701 2.784-.95701s1.8463.348 2.465 1.04401c.638.6767 1.1793 1.5467 1.624 2.61zm3.3724 4.872l.261-12.99201c0-1.00533-.0581-1.69167-.174-2.059.348-.30933.8797-.464 1.595-.464.29 2.06867.435 4.727.435 7.97501 0 .9667-.087 3.2093-.2611 6.728.9087-4.8913 2.5327-7.33701 4.8721-7.33701.8313 0 1.4693.44471 1.914 1.33401.4639.87.754 1.9333.87 3.19s.2126 2.5133.2899 3.77c.1933 3.016.7348 4.524 1.624 4.524.0194 0 .2031-.058.5511-.174.7733-.232 1.2082-.29 1.305-.174 0 .2127-.2998.4833-.899.812-.5993.3093-1.1503.464-1.653.464-.8508 0-1.5081-.435-1.972-1.305-.4448-.8893-.725-1.9623-.841-3.219l-.232-3.741c-.0387-1.2567-.1643-2.32-.377-3.19-.2127-.8893-.5703-1.334-1.073-1.334-.6187 0-1.189.6767-1.7111 2.03-.5027 1.334-.8989 2.813-1.1889 4.437s-.6477 3.1127-1.073 4.466c-.406 1.334-.8217 2.001-1.247 2.001-.6767 0-1.015-1.914-1.015-5.742zm19.1651-7.946c.174-.36734.5509-.55101 1.131-.55101.2514 0 .4639.058.638.174l1.595 4.49501c.986 2.7647 1.9043 4.9493 2.755 6.554.4059-2.3587 1.1889-4.7367 2.3489-7.134 1.1794-2.3973 2.2525-3.59601 3.2191-3.59601.29 0 .58.06771.87.20301-2.2233 2.9193-3.8184 6.786-4.785 11.6-.1933 1.1213-.406 1.7593-.6381 1.914-.2512.174-.5122.261-.7829.261s-.4833-.058-.638-.174c-.1353-.116-.2416-.232-.319-.348-.058-.116-.1451-.3093-.261-.58-.0967-.2707-.174-.4543-.232-.551-1.972-3.6927-3.6056-7.7817-4.901-12.267zm16.4492-7.39501c-.019.44466-.029.93766-.029 1.479s.029 1.102.087 1.682c-.271.30933-.638.464-1.102.464-.58 0-.87-.464-.87-1.392v-.435-.667c.019-.21267.058-.45433.116-.725.135-.464.435-.696.899-.696s.764.09667.899.29zM100.998 16.866c0-3.7893.193-5.974.58-6.554.135-.2127.3-.31901.493-.31901s.512.10631.957.31901c-.097 1.6433-.145 3.4317-.145 5.365l.058 6.409c0 .5993-.135 1.0247-.406 1.276-.251.232-.493.348-.725.348-.213 0-.435-.058-.667-.174-.097-2.5133-.145-4.7367-.145-6.67zM117.505.770992C116.77 7.42166 116.403 12.168 116.403 15.01c0 2.8227.261 5.6453.783 8.468-.387.3867-.725.58-1.015.58s-.532-.0387-.725-.116c-.406-1.4307-.648-2.987-.725-4.669-.464.7347-.812 1.2567-1.044 1.566-.213.3093-.59.7637-1.131 1.363-.986 1.16-2.156 1.74-3.509 1.74-1.025 0-1.769-.4737-2.233-1.421-.445-.9667-.667-2.1943-.667-3.683 0-1.508.164-2.9387.493-4.292.348-1.3727.937-2.552 1.769-3.538.831-1.0053 1.856-1.50801 3.074-1.50801.734 0 1.411.15467 2.03.464s1.044.72501 1.276 1.24701c.038-.522.077-1.32434.116-2.40701l.116-2.871c.058-.85067.145-1.711.261-2.581.212-1.856.686-2.783997 1.421-2.783997.251 0 .522.067667.812.202999zM114.112 12.255c-.232-.4253-.551-.7347-.957-.928-.406-.2127-.948-.319-1.624-.319-.658 0-1.276.377-1.856 1.131-1.141 1.4887-1.711 3.6443-1.711 6.467 0 .9087.145 1.8173.435 2.726.29.8893.715 1.334 1.276 1.334.812 0 1.604-.5317 2.378-1.595s1.372-2.2813 1.798-3.654c.425-1.392.638-2.639.638-3.741 0-.522-.126-.9957-.377-1.421zm7.675 5.858c-.039.3867-.058.6477-.058.783 0 1.16.348 2.059 1.044 2.697.715.638 1.556.957 2.523.957s1.749-.1353 2.349-.406c.618-.2707 1.063-.5607 1.334-.87.696-.87 1.334-1.305 1.914-1.305.212 0 .464.058.754.174-.194.9473-.928 1.8173-2.204 2.61-1.257.7733-2.842 1.16-4.756 1.16-1.354 0-2.523-.4253-3.509-1.276-.967-.87-1.45-2.0493-1.45-3.538s.29-2.929.87-4.321c.599-1.4113 1.45-2.61 2.552-3.596 1.121-1.0053 2.252-1.50801 3.393-1.50801 1.16 0 2.088.24167 2.784.72501.715.464 1.073 1.1503 1.073 2.059 0 1.682-.754 3.074-2.262 4.176-1.489 1.0827-3.074 1.624-4.756 1.624-.445 0-.977-.0483-1.595-.145zm2.204-.957c.908 0 1.72-.29 2.436-.87s1.218-1.189 1.508-1.827c.309-.638.464-1.218.464-1.74s-.203-.9763-.609-1.363c-.406-.406-.88-.609-1.421-.609-.967 0-1.866.667-2.697 2.001-.812 1.334-1.392 2.7163-1.74 4.147.85.174 1.537.261 2.059.261zm11.01-5.191c.986-1.508 2.407-2.26201 4.263-2.26201s3.335.75401 4.437 2.26201c1.121 1.508 1.682 3.2287 1.682 5.162 0 1.914-.609 3.538-1.827 4.872S140.791 24 138.916 24s-3.239-.522-4.089-1.566c-.851-1.0633-1.276-2.552-1.276-4.466 0-2.494.483-4.495 1.45-6.003zm1.276 1.537c-.252.754-.445 1.508-.58 2.262-.116.754-.174 1.4597-.174 2.117 0 .638.048 1.2277.145 1.769.096.522.261 1.044.493 1.566.232.5027.58.9087 1.044 1.218.464.29 1.015.435 1.653.435 1.295 0 2.378-.5317 3.248-1.595.889-1.0633 1.334-2.349 1.334-3.857s-.406-2.9677-1.218-4.379c-.793-1.4307-1.769-2.146-2.929-2.146-.696 0-1.305.2417-1.827.725s-.919 1.1117-1.189 1.885zm19.234-1.102c-.174-.4447-.503-.7927-.986-1.044s-1.083-.377-1.798-.377-1.392.2127-2.03.638c-.619.4253-.928.9957-.928 1.711s.29 1.2857.87 1.711c.599.406 1.314.7153 2.146.928.85.2127 1.701.4447 2.552.696.85.232 1.566.6283 2.146 1.189.599.5413.899 1.2567.899 2.146 0 1.2953-.542 2.2813-1.624 2.958-1.064.6767-2.349 1.015-3.857 1.015-.89 0-2.059-.2417-3.509-.725-1.431-.4833-2.146-1.0633-2.146-1.74 0-.5027.425-.754 1.276-.754.251 0 .58.1547.986.464 1.237.9087 2.503 1.363 3.799 1.363.696 0 1.295-.116 1.798-.348.928-.4447 1.392-1.16 1.392-2.146 0-.5993-.3-1.0827-.899-1.45-.58-.3673-1.296-.6573-2.146-.87-.832-.2127-1.673-.4447-2.523-.696s-1.576-.667-2.175-1.247c-.58-.5993-.87-1.3533-.87-2.262 0-1.1793.531-2.1363 1.595-2.871s2.378-1.10201 3.944-1.10201c1.063 0 2.02.28033 2.871.84101.87.5413 1.305 1.334 1.305 2.378 0 .696-.397 1.044-1.189 1.044-.329 0-.551-.058-.667-.174-.097-.116-.155-.319-.174-.609 0-.3093-.02-.5317-.058-.667zm19.694 8.236c-.309.8893-.908 1.6433-1.798 2.262-.87.6187-1.827.928-2.871.928-1.024 0-1.827-.5123-2.407-1.537-.56-1.044-.841-2.4843-.841-4.321 0-5.1813.764-7.772 2.291-7.772.194 0 .435.029.725.087-.058.3093-.193.899-.406 1.769-.425 1.7013-.638 3.1997-.638 4.495s.184 2.668.551 4.118c.368 1.4307.89 2.146 1.566 2.146.348 0 .687-.2223 1.015-.667s.59-.9087.783-1.392c.194-.5027.397-1.073.609-1.711l.406-1.16c-.29-1.1213-.435-2.262-.435-3.422v-.522c0-.3093.01-.609.029-.899s.078-.638.174-1.044c.194-.812.716-1.218 1.566-1.218.716 0 1.073 1.0827 1.073 3.248 0 .3867-.058.9473-.174 1.682-.096.7347-.145 1.247-.145 1.537 0 .8893.426 2.0397 1.276 3.451s1.644 2.117 2.378 2.117c.754 0 1.305-.4253 1.653-1.276s.522-1.798.522-2.842c0-1.1987-.106-2.1073-.319-2.726l-.377-1.247c-.038-.1933-.164-.493-.377-.899l-.377-.812c-.038-.116-.183-.3963-.435-.841l-.435-.754c-.56-.986-.889-1.52734-.986-1.62401.484-.406.928-.609 1.334-.609 1.18.85071 2.117 2.24271 2.813 4.17601.696 1.914 1.044 3.6637 1.044 5.249 0 1.566-.338 2.8033-1.015 3.712-.657.8893-1.691 1.334-3.103 1.334-.986 0-1.923-.2707-2.813-.812-.87-.5607-1.488-1.2953-1.856-2.204zm13.743-17.98001c-.02.44466-.029.93766-.029 1.479s.029 1.102.087 1.682c-.271.30933-.638.464-1.102.464-.58 0-.87-.464-.87-1.392v-.435-.667c.019-.21267.058-.45433.116-.725.135-.464.435-.696.899-.696s.763.09667.899.29zM187.092 16.866c0-3.7893.193-5.974.58-6.554.135-.2127.299-.31901.493-.31901s.512.10631.957.31901c-.097 1.6433-.145 3.4317-.145 5.365l.058 6.409c0 .5993-.136 1.0247-.406 1.276-.252.232-.493.348-.725.348-.213 0-.435-.058-.667-.174-.097-2.5133-.145-4.7367-.145-6.67zm5.631-5.017c-.87 0-1.459-.2127-1.769-.638 0-.3093.126-.551.377-.725.271-.174.561-.2803.87-.319.31-.058.812-.1063 1.508-.145.058-.52201.087-1.18901.087-2.00101l.058-2.117c.058-1.52733.29-2.465.696-2.813.174-.15467.358-.232.551-.232.213 0 .397.01933.551.058l.087 2.523-.174 4.35c.039.01933.145.029.319.029l2.088-.087c1.508 0 2.262.232 2.262.69601 0 .6573-.27 1.044-.812 1.16-.251.058-.551.087-.899.087-.328 0-.763-.0387-1.305-.116-.522-.0967-.899-.145-1.131-.145s-.386.0097-.464.029c-.058.5607-.087 1.1213-.087 1.682l.029 2.059c.039.812.116 1.7883.232 2.929.136 1.1407.416 2.1267.841 2.958.426.812.967 1.218 1.624 1.218.329 0 .716-.1257 1.16-.377.445-.2707.783-.406 1.015-.406.252 0 .464.058.638.174.194.0967.29.2127.29.348 0 .406-.415.8023-1.247 1.189-.812.3673-1.508.551-2.088.551-2.126 0-3.451-2.0107-3.973-6.032-.154-1.16-.27-3.1513-.348-5.974-.309.058-.638.087-.986.087zm10.539 6.148l.261-12.99201c0-1.00533-.058-1.69167-.174-2.059.348-.30933.88-.464 1.595-.464.29 2.06867.435 4.727.435 7.97501 0 .9667-.087 3.2093-.261 6.728.909-4.8913 2.533-7.33701 4.872-7.33701.831 0 1.469.44471 1.914 1.33401.464.87.754 1.9333.87 3.19s.213 2.5133.29 3.77c.193 3.016.735 4.524 1.624 4.524.019 0 .203-.058.551-.174.773-.232 1.208-.29 1.305-.174 0 .2127-.3.4833-.899.812-.599.3093-1.15.464-1.653.464-.851 0-1.508-.435-1.972-1.305-.445-.8893-.725-1.9623-.841-3.219-.097-1.2567-.174-2.5037-.232-3.741-.039-1.2567-.164-2.32-.377-3.19-.213-.8893-.57-1.334-1.073-1.334-.619 0-1.189.6767-1.711 2.03-.503 1.334-.899 2.813-1.189 4.437s-.648 3.1127-1.073 4.466c-.406 1.334-.822 2.001-1.247 2.001-.677 0-1.015-1.914-1.015-5.742zm14.972-6.032c.986-1.508 2.407-2.26201 4.263-2.26201s3.335.75401 4.437 2.26201c1.121 1.508 1.682 3.2287 1.682 5.162 0 1.914-.609 3.538-1.827 4.872S224.024 24 222.149 24s-3.238-.522-4.089-1.566c-.851-1.0633-1.276-2.552-1.276-4.466 0-2.494.483-4.495 1.45-6.003zm1.276 1.537c-.251.754-.445 1.508-.58 2.262-.116.754-.174 1.4597-.174 2.117 0 .638.048 1.2277.145 1.769.097.522.261 1.044.493 1.566.232.5027.58.9087 1.044 1.218.464.29 1.015.435 1.653.435 1.295 0 2.378-.5317 3.248-1.595.889-1.0633 1.334-2.349 1.334-3.857s-.406-2.9677-1.218-4.379c-.793-1.4307-1.769-2.146-2.929-2.146-.696 0-1.305.2417-1.827.725s-.918 1.1117-1.189 1.885zm14.333-3.103c-.503.9473-.754 2.3587-.754 4.234 0 2.8227.532 5.075 1.595 6.757.619.986 1.353 1.479 2.204 1.479.87 0 1.566-.4543 2.088-1.363.619-1.1213.928-2.668.928-4.64 0-2.4747-.348-4.3017-1.044-5.481-.309-.5607-.493-.9667-.551-1.218-.039-.25134.029-.43501.203-.55101s.464-.174.87-.174c1.179 0 1.953 1.21801 2.32 3.65401.116.6767.174 1.3533.174 2.03 0 1.7593-.348 3.5187-1.044 5.278-.986 2.4167-2.542 3.625-4.669 3.625-1.121 0-2.078-.4157-2.871-1.247-1.489-1.5853-2.233-3.973-2.233-7.163 0-1.392.097-2.4553.29-3.19s.358-1.2083.493-1.421c.135-.232.3-.4447.493-.638s.406-.2707.638-.232c.251.0387.541.1257.87.261zm10.933 1.45c-.87 0-1.46-.2127-1.769-.638 0-.3093.126-.551.377-.725.271-.174.561-.2803.87-.319.309-.058.812-.1063 1.508-.145.058-.52201.087-1.18901.087-2.00101l.058-2.117c.058-1.52733.29-2.465.696-2.813.174-.15467.358-.232.551-.232.213 0 .396.01933.551.058l.087 2.523-.174 4.35c.039.01933.145.029.319.029l2.088-.087c1.508 0 2.262.232 2.262.69601 0 .6573-.271 1.044-.812 1.16-.251.058-.551.087-.899.087-.329 0-.764-.0387-1.305-.116-.522-.0967-.899-.145-1.131-.145s-.387.0097-.464.029c-.058.5607-.087 1.1213-.087 1.682l.029 2.059c.039.812.116 1.7883.232 2.929.135 1.1407.416 2.1267.841 2.958.425.812.967 1.218 1.624 1.218.329 0 .715-.1257 1.16-.377.445-.2707.783-.406 1.015-.406.251 0 .464.058.638.174.193.0967.29.2127.29.348 0 .406-.416.8023-1.247 1.189-.812.3673-1.508.551-2.088.551-2.127 0-3.451-2.0107-3.973-6.032-.155-1.16-.271-3.1513-.348-5.974-.309.058-.638.087-.986.087zM9.87516 52.648l-.145 3.335c0 1.682.19333 2.813.58004 3.393.232.3867.551.58.957.58.116 0 .2803-.029.493-.087.406-.116.7443-.058 1.015.174-.1353.6767-.812 1.015-2.03 1.015-.83137 0-1.38237-.348-1.65304-1.044-.21267-.522-.36733-1.1697-.464-1.943-.09667-.7927-.174-1.334-.232-1.624-1.25667 2.3973-2.47467 3.857-3.654 4.379-.59933.2707-1.29533.406-2.088.406s-1.41133-.377-1.856004-1.131c-.425333-.7733-.638-1.8947-.638-3.364s.241667-3.0063.725-4.611c.483334-1.624 1.189004-2.987 2.117004-4.089.928-1.1213 1.943-1.682 3.045-1.682 1.58533 0 2.639.6573 3.161 1.972.44467 1.1213.667 2.5617.667 4.321zm-7.105-.928c-.27067 1.044-.47367 2.0397-.609 2.987-.13533.928-.203 1.7593-.203 2.494 0 .7153.145 1.334.435 1.856.30933.522.70567.783 1.189.783 1.044 0 2.04933-.986 3.016-2.958s1.45-3.8087 1.45-5.51c0-1.102-.29-2.0107-.87-2.726-.38667-.464-.899-.696-1.537-.696-.61867 0-1.189.3673-1.711 1.102-.50267.7153-.88933 1.6047-1.16 2.668zm22.88734 8.468c-.348.3673-.7443.551-1.189.551-.8313 0-1.45-.4447-1.856-1.334s-.6476-1.972-.725-3.248c-.058-1.276-.0966-2.552-.116-3.828s-.1256-2.3587-.319-3.248c-.174-.8893-.5123-1.334-1.015-1.334-.6766 0-1.2566.609-1.74 1.827-.464 1.218-.7926 2.5713-.986 4.06-.5413 4.1567-1.0633 6.4863-1.566 6.989-.348.174-.6476.261-.899.261s-.464-.029-.638-.087c-.406-1.7787-.667-4.843-.783-9.193l-.116-4.205c.406-.2707.754-.406 1.044-.406s.522.029.696.087c.0967.8313.145 2.5327.145 5.104l.058 4.437c.0967-.406.2127-1.0633.348-1.972l.406-2.233c.116-.5993.2997-1.2953.551-2.088s.5317-1.421.841-1.885c.3094-.4833.7347-.8893 1.276-1.218.5414-.348 1.1504-.522 1.827-.522.9087 0 1.566.4157 1.972 1.247.4254.812.6574 1.827.696 3.045s.058 2.4553.058 3.712c.0194 1.2567.174 2.407.464 3.451.3094 1.044.8314 1.7207 1.566 2.03zm8.804-11.368c0-1.392.4447-2.088 1.334-2.088.174 0 .348.0193.522.058v1.885c0 1.0247.1354 3.074.406 6.148s.406 5.3747.406 6.902c0 2.436-.4253 4.118-1.276 5.046s-2.3006 1.392-4.35 1.392c-2.03 0-3.944-.6573-5.742-1.972.348-.4253.8024-.638 1.363-.638.2127.0193.551.1643 1.015.435 1.3727.812 2.5134 1.218 3.422 1.218 1.3534 0 2.3104-.4253 2.871-1.276s.841-2.2813.841-4.292c0-.4833-.0483-2.2233-.145-5.22-.0193.058-.087.3093-.203.754-.116.4253-.203.7057-.261.841l-.319.754c-.1353.3673-.2803.6283-.435.783s-.3576.3383-.609.551c-.4253.3867-.9666.58-1.624.58-.638 0-1.1503-.087-1.537-.261s-.7153-.4447-.986-.812c-.2513-.3673-.4833-.754-.696-1.16-.1933-.406-.348-.9183-.464-1.537l-.29-1.74c-.058-.522-.1063-1.16-.145-1.914l-.058-1.885v-1.914-1.74c.1934-.3287.5414-.493 1.044-.493.696 0 1.044.2513 1.044.754l-.174 2.813c0 2.4553.261 4.5723.783 6.351s1.0634 2.668 1.624 2.668c.4254 0 .8024-.232 1.131-.696s.58-1.1117.754-1.943c.174-.8507.319-1.653.435-2.407s.1934-1.6337.232-2.639l.087-3.306zm21.6041 3.828l-.145 3.335c0 1.682.1934 2.813.58 3.393.232.3867.551.58.957.58.116 0 .2804-.029.493-.087.406-.116.7444-.058 1.015.174-.1353.6767-.812 1.015-2.03 1.015-.8313 0-1.3823-.348-1.653-1.044-.2126-.522-.3673-1.1697-.464-1.943-.0966-.7927-.174-1.334-.232-1.624-1.2566 2.3973-2.4746 3.857-3.654 4.379-.5993.2707-1.2953.406-2.088.406s-1.4113-.377-1.856-1.131c-.4253-.7733-.638-1.8947-.638-3.364s.2417-3.0063.725-4.611c.4834-1.624 1.189-2.987 2.117-4.089.928-1.1213 1.943-1.682 3.045-1.682 1.5854 0 2.639.6573 3.161 1.972.4447 1.1213.667 2.5617.667 4.321zm-7.105-.928c-.2706 1.044-.4736 2.0397-.609 2.987-.1353.928-.203 1.7593-.203 2.494 0 .7153.145 1.334.435 1.856.3094.522.7057.783 1.189.783 1.044 0 2.0494-.986 3.016-2.958s1.45-3.8087 1.45-5.51c0-1.102-.29-2.0107-.87-2.726-.3866-.464-.899-.696-1.537-.696-.6186 0-1.189.3673-1.711 1.102-.5026.7153-.8893 1.6047-1.16 2.668zm22.8874 8.468c-.348.3673-.7444.551-1.189.551-.8314 0-1.45-.4447-1.856-1.334s-.6477-1.972-.7251-3.248c-.0579-1.276-.0966-2.552-.1159-3.828s-.1257-2.3587-.319-3.248c-.1741-.8893-.5124-1.334-1.015-1.334-.6767 0-1.2567.609-1.74 1.827-.464 1.218-.7927 2.5713-.986 4.06-.5414 4.1567-1.0634 6.4863-1.566 6.989-.348.174-.6477.261-.899.261s-.464-.029-.638-.087c-.406-1.7787-.667-4.843-.783-9.193l-.116-4.205c.406-.2707.754-.406 1.044-.406s.522.029.696.087c.0966.8313.145 2.5327.145 5.104l.058 4.437c.0966-.406.2126-1.0633.348-1.972l.406-2.233c.116-.5993.2996-1.2953.551-2.088s.5316-1.421.841-1.885c.3093-.4833.7346-.8893 1.276-1.218.5413-.348 1.1503-.522 1.8269-.522.9086 0 1.5661.4157 1.972 1.247.4254.812.6574 1.827.6961 3.045s.058 2.4553.058 3.712c.0193 1.2567.174 2.407.464 3.451.3093 1.044.8313 1.7207 1.566 2.03zm13.792 0c-.348.3673-.7444.551-1.189.551-.8314 0-1.45-.4447-1.856-1.334s-.6477-1.972-.7251-3.248c-.0579-1.276-.0966-2.552-.1159-3.828s-.1257-2.3587-.319-3.248c-.1741-.8893-.5124-1.334-1.015-1.334-.6767 0-1.2567.609-1.74 1.827-.464 1.218-.7927 2.5713-.986 4.06-.5414 4.1567-1.0634 6.4863-1.566 6.989-.348.174-.6478.261-.899.261s-.464-.029-.638-.087c-.406-1.7787-.667-4.843-.783-9.193l-.116-4.205c.406-.2707.754-.406 1.044-.406s.5219.029.696.087c.0966.8313.145 2.5327.145 5.104l.058 4.437c.0966-.406.2126-1.0633.348-1.972l.406-2.233c.116-.5993.2996-1.2953.5509-2.088s.5316-1.421.8411-1.885c.3093-.4833.7346-.8893 1.276-1.218.5413-.348 1.1503-.522 1.8269-.522.9086 0 1.5661.4157 1.972 1.247.4253.812.6574 1.827.6961 3.045s.058 2.4553.058 3.712c.0193 1.2567.174 2.407.464 3.451.3093 1.044.8313 1.7207 1.566 2.03zm2.859-11.223c.986-1.508 2.407-2.262 4.263-2.262s3.335.754 4.437 2.262c1.1213 1.508 1.682 3.2287 1.682 5.162 0 1.914-.609 3.538-1.827 4.872S94.2893 61 92.414 61s-3.2384-.522-4.089-1.566c-.8507-1.0633-1.276-2.552-1.276-4.466 0-2.494.4833-4.495 1.45-6.003zm1.276 1.537c-.2514.754-.4447 1.508-.58 2.262-.116.754-.174 1.4597-.174 2.117 0 .638.0483 1.2277.145 1.769.0966.522.2609 1.044.493 1.566.232.5027.58.9087 1.0439 1.218.464.29 1.015.435 1.653.435 1.2954 0 2.378-.5317 3.2481-1.595.8892-1.0633 1.334-2.349 1.334-3.857s-.406-2.9677-1.218-4.379c-.7927-1.4307-1.769-2.146-2.929-2.146-.696 0-1.305.2417-1.827.725s-.9184 1.1117-1.189 1.885zm18.886-1.682c0-1.392.444-2.088 1.334-2.088.174 0 .348.0193.522.058v1.885c0 1.0247.135 3.074.406 6.148s.406 5.3747.406 6.902c0 2.436-.426 4.118-1.276 5.046s-2.301 1.392-4.35 1.392c-2.03 0-3.944-.6573-5.7422-1.972.3482-.4253.8022-.638 1.3632-.638.212.0193.551.1643 1.015.435 1.372.812 2.513 1.218 3.422 1.218 1.353 0 2.31-.4253 2.871-1.276s.841-2.2813.841-4.292c0-.4833-.049-2.2233-.145-5.22-.02.058-.087.3093-.203.754-.116.4253-.203.7057-.261.841l-.319.754c-.136.3673-.281.6283-.435.783s-.358.3383-.609.551c-.426.3867-.967.58-1.624.58-.638 0-1.151-.087-1.537-.261s-.716-.4447-.986-.812c-.252-.3673-.484-.754-.696-1.16-.194-.406-.348-.9183-.464-1.537l-.29-1.74c-.058-.522-.107-1.16-.145-1.914l-.058-1.885v-1.914-1.74c.193-.3287.541-.493 1.044-.493.696 0 1.044.2513 1.044.754l-.174 2.813c0 2.4553.261 4.5723.783 6.351s1.063 2.668 1.624 2.668c.425 0 .802-.232 1.131-.696s.58-1.1117.754-1.943c.174-.8507.319-1.653.435-2.407s.193-1.6337.232-2.639l.087-3.306zm7.957-9.164c-.02.4447-.029.9377-.029 1.479s.029 1.102.087 1.682c-.271.3093-.638.464-1.102.464-.58 0-.87-.464-.87-1.392v-.435-.667c.019-.2127.058-.4543.116-.725.135-.464.435-.696.899-.696s.763.0967.899.29zm-1.856 14.21c0-3.7893.193-5.974.58-6.554.135-.2127.299-.319.493-.319s.512.1063.957.319c-.097 1.6433-.145 3.4317-.145 5.365l.058 6.409c0 .5993-.136 1.0247-.406 1.276-.252.232-.493.348-.725.348-.213 0-.435-.058-.667-.174-.097-2.5133-.145-4.7367-.145-6.67zm17.521 6.322c-.348.3673-.744.551-1.189.551-.831 0-1.45-.4447-1.856-1.334s-.647-1.972-.725-3.248c-.058-1.276-.096-2.552-.116-3.828s-.125-2.3587-.319-3.248c-.174-.8893-.512-1.334-1.015-1.334-.676 0-1.256.609-1.74 1.827-.464 1.218-.792 2.5713-.986 4.06-.541 4.1567-1.063 6.4863-1.566 6.989-.348.174-.647.261-.899.261s-.464-.029-.638-.087c-.406-1.7787-.667-4.843-.783-9.193l-.116-4.205c.406-.2707.754-.406 1.044-.406s.522.029.696.087c.097.8313.145 2.5327.145 5.104l.058 4.437c.097-.406.213-1.0633.348-1.972l.406-2.233c.116-.5993.3-1.2953.551-2.088s.532-1.421.841-1.885c.31-.4833.735-.8893 1.276-1.218.542-.348 1.151-.522 1.827-.522.909 0 1.566.4157 1.972 1.247.426.812.658 1.827.696 3.045s.058 2.4553.058 3.712c.02 1.2567.174 2.407.464 3.451.31 1.044.832 1.7207 1.566 2.03zm6.948-13.688c1.76 0 2.978.7153 3.654 2.146.368.754.667 1.4693.899 2.146s.387 1.6047.464 2.784c.116 1.798.174 3.8473.174 6.148 0 2.2813-.551 4.0987-1.653 5.452-1.082 1.3727-2.677 2.059-4.785 2.059-2.088 0-3.828-.6767-5.22-2.03.387-.3867.803-.58 1.247-.58.464 0 1.093.1933 1.885.58.812.406 1.673.609 2.581.609s1.663-.2127 2.262-.638c.6-.406 1.044-.986 1.334-1.74.484-1.334.725-2.9773.725-4.93 0-.29-.029-1.363-.087-3.219-.522 1.5853-1.266 2.9-2.233 3.944-.966 1.0247-2.059 1.537-3.277 1.537s-2.117-.5413-2.697-1.624c-.56-1.102-.841-2.349-.841-3.741s.194-2.7453.58-4.06c.387-1.334 1.015-2.4747 1.885-3.422s1.905-1.421 3.103-1.421zm-3.074 4.408c-.251.8507-.435 1.653-.551 2.407s-.174 1.5177-.174 2.291c0 .754.155 1.595.464 2.523.329.928.803 1.392 1.421 1.392 1.218 0 2.301-.9087 3.248-2.726.948-1.8367 1.421-3.683 1.421-5.539 0-.638-.299-1.3533-.899-2.146-.58-.812-1.314-1.218-2.204-1.218-.618 0-1.169.29-1.653.87-.464.58-.821 1.2953-1.073 2.146zm27.214 1.74l-.145 3.335c0 1.682.193 2.813.58 3.393.232.3867.551.58.957.58.116 0 .28-.029.493-.087.406-.116.744-.058 1.015.174-.135.6767-.812 1.015-2.03 1.015-.831 0-1.382-.348-1.653-1.044-.213-.522-.367-1.1697-.464-1.943-.097-.7927-.174-1.334-.232-1.624-1.257 2.3973-2.475 3.857-3.654 4.379-.599.2707-1.295.406-2.088.406s-1.411-.377-1.856-1.131c-.425-.7733-.638-1.8947-.638-3.364s.242-3.0063.725-4.611c.483-1.624 1.189-2.987 2.117-4.089.928-1.1213 1.943-1.682 3.045-1.682 1.585 0 2.639.6573 3.161 1.972.445 1.1213.667 2.5617.667 4.321zm-7.105-.928c-.271 1.044-.474 2.0397-.609 2.987-.135.928-.203 1.7593-.203 2.494 0 .7153.145 1.334.435 1.856.309.522.706.783 1.189.783 1.044 0 2.049-.986 3.016-2.958s1.45-3.8087 1.45-5.51c0-1.102-.29-2.0107-.87-2.726-.387-.464-.899-.696-1.537-.696-.619 0-1.189.3673-1.711 1.102-.503.7153-.889 1.6047-1.16 2.668zm21.872-13.949c-.734 6.6507-1.102 11.397-1.102 14.239 0 2.8227.261 5.6453.783 8.468-.386.3867-.725.58-1.015.58s-.531-.0387-.725-.116c-.406-1.4307-.647-2.987-.725-4.669-.464.7347-.812 1.2567-1.044 1.566-.212.3093-.589.7637-1.131 1.363-.986 1.16-2.155 1.74-3.509 1.74-1.024 0-1.769-.4737-2.233-1.421-.444-.9667-.667-2.1943-.667-3.683 0-1.508.165-2.9387.493-4.292.348-1.3727.938-2.552 1.769-3.538.832-1.0053 1.856-1.508 3.074-1.508.735 0 1.412.1547 2.03.464s1.044.725 1.276 1.247c.039-.522.078-1.3243.116-2.407l.116-2.871c.058-.8507.145-1.711.261-2.581.213-1.856.687-2.784 1.421-2.784.252 0 .522.0677.812.203zm-3.393 11.484c-.232-.4253-.551-.7347-.957-.928-.406-.2127-.947-.319-1.624-.319-.657 0-1.276.377-1.856 1.131-1.14 1.4887-1.711 3.6443-1.711 6.467 0 .9087.145 1.8173.435 2.726.29.8893.716 1.334 1.276 1.334.812 0 1.605-.5317 2.378-1.595s1.373-2.2813 1.798-3.654c.426-1.392.638-2.639.638-3.741 0-.522-.125-.9957-.377-1.421zm13.475.145c-.174-.4447-.502-.7927-.986-1.044s-1.082-.377-1.798-.377-1.392.2127-2.03.638c-.618.4253-.928.9957-.928 1.711s.29 1.2857.87 1.711c.6.406 1.315.7153 2.146.928.851.2127 1.702.4447 2.552.696.851.232 1.566.6283 2.146 1.189.6.5413.899 1.2567.899 2.146 0 1.2953-.541 2.2813-1.624 2.958-1.063.6767-2.349 1.015-3.857 1.015-.889 0-2.059-.2417-3.509-.725-1.43-.4833-2.146-1.0633-2.146-1.74 0-.5027.426-.754 1.276-.754.252 0 .58.1547.986.464 1.238.9087 2.504 1.363 3.799 1.363.696 0 1.296-.116 1.798-.348.928-.4447 1.392-1.16 1.392-2.146 0-.5993-.299-1.0827-.899-1.45-.58-.3673-1.295-.6573-2.146-.87-.831-.2127-1.672-.4447-2.523-.696s-1.575-.667-2.175-1.247c-.58-.5993-.87-1.3533-.87-2.262 0-1.1793.532-2.1363 1.595-2.871s2.378-1.102 3.944-1.102c1.064 0 2.021.2803 2.871.841.87.5413 1.305 1.334 1.305 2.378 0 .696-.396 1.044-1.189 1.044-.328 0-.551-.058-.667-.174-.096-.116-.154-.319-.174-.609 0-.3093-.019-.5317-.058-.667zm6.251-8.091c.02-.232.155-.4157.406-.551.252-.1547.532-.232.841-.232.522 0 .783.1933.783.58-.038 5.7033-.183 9.9857-.435 12.847-.019.2127-.174.3963-.464.551-.27.1353-.541.203-.812.203-.483 0-.725-.1933-.725-.58.271-2.842.406-7.1147.406-12.818zm.232 17.69c.213-.0387.464-.058.754-.058.31 0 .629.116.957.348s.493.551.493.957-.212.7733-.638 1.102c-.406.348-.792.522-1.16.522-.348 0-.725-.1353-1.131-.406-.406-.2513-.609-.522-.609-.812 0-.928.445-1.479 1.334-1.653z" fill="#000"/></svg>