<svg width="254" height="69" viewBox="0 0 254 69" fill="none" xmlns="http://www.w3.org/2000/svg">
<path d="M4.39416 3.38099C4.33616 3.88366 4.21049 4.75365 4.01716 5.99099C3.84316 7.22832 3.70783 8.24332 3.61116 9.03599C3.32116 11.414 3.17616 13.3763 3.17616 14.923C3.17616 16.4697 3.22449 17.678 3.32116 18.548C3.43716 19.3987 3.61116 20.2107 3.84316 20.984C4.07516 21.738 4.41349 22.3373 4.85816 22.782C5.32216 23.2267 5.86349 23.449 6.48216 23.449C7.37149 23.449 8.15449 22.9657 8.83116 21.999C9.52716 21.0323 10.0685 19.795 10.4552 18.287C10.8419 16.7597 11.1705 15.2227 11.4412 13.676C11.7312 12.1293 12.0019 10.6213 12.2532 9.15199C12.5239 7.68266 12.7752 6.67732 13.0072 6.13599C13.5292 5.78799 13.9255 5.61399 14.1962 5.61399C14.4669 5.61399 14.6699 5.64299 14.8052 5.70099C14.9212 6.62899 15.0372 8.32066 15.1532 10.776C15.2885 13.212 15.4625 15.1067 15.6752 16.46C15.9072 17.8133 16.1972 18.9637 16.5452 19.911C16.9125 20.8583 17.4539 21.651 18.1692 22.289C18.8845 22.9077 19.7062 23.217 20.6342 23.217C21.5815 23.217 22.3549 22.782 22.9542 21.912C23.5535 21.042 23.9885 19.882 24.2592 18.432C24.7425 15.8413 24.9842 13.1733 24.9842 10.428C24.9842 7.66332 24.7522 5.50766 24.2882 3.96099C24.7715 3.61299 25.2162 3.43899 25.6222 3.43899C26.0282 3.43899 26.3762 3.75799 26.6662 4.39599C26.9562 5.03399 27.1592 5.84599 27.2752 6.83199C27.4879 8.61066 27.5942 10.225 27.5942 11.675C27.5942 13.125 27.4589 14.5847 27.1882 16.054C26.9175 17.5233 26.4922 18.896 25.9122 20.172C25.3515 21.4287 24.5589 22.434 23.5342 23.188C22.5289 23.9227 21.3592 24.29 20.0252 24.29C19.1359 24.2707 18.3335 24.058 17.6182 23.652C16.9222 23.2267 16.3615 22.7337 15.9362 22.173C15.5109 21.593 15.1242 20.839 14.7762 19.911C14.2735 18.577 13.8482 16.8757 13.5002 14.807C12.6882 17.649 12.0019 19.6113 11.4412 20.694C10.0685 23.304 8.18349 24.6187 5.78616 24.638C4.23949 24.638 3.07949 24.0773 2.30616 22.956C1.62949 21.9507 1.20416 20.5393 1.03016 18.722C0.972156 17.9487 0.943156 17.069 0.943156 16.083C0.943156 12.8543 1.46516 8.73632 2.50916 3.72899C3.01183 3.43899 3.40816 3.29399 3.69816 3.29399C4.00749 3.29399 4.23949 3.32299 4.39416 3.38099ZM39.8664 15.648L39.7214 18.983C39.7214 20.665 39.9147 21.796 40.3014 22.376C40.5334 22.7627 40.8524 22.956 41.2584 22.956C41.3744 22.956 41.5387 22.927 41.7514 22.869C42.1574 22.753 42.4957 22.811 42.7664 23.043C42.6311 23.7197 41.9544 24.058 40.7364 24.058C39.9051 24.058 39.3541 23.71 39.0834 23.014C38.8707 22.492 38.7161 21.8443 38.6194 21.071C38.5227 20.2783 38.4454 19.737 38.3874 19.447C37.1307 21.8443 35.9127 23.304 34.7334 23.826C34.1341 24.0967 33.4381 24.232 32.6454 24.232C31.8527 24.232 31.2341 23.855 30.7894 23.101C30.3641 22.3277 30.1514 21.2063 30.1514 19.737C30.1514 18.2677 30.3931 16.7307 30.8764 15.126C31.3597 13.502 32.0654 12.139 32.9934 11.037C33.9214 9.91566 34.9364 9.35499 36.0384 9.35499C37.6237 9.35499 38.6774 10.0123 39.1994 11.327C39.6441 12.4483 39.8664 13.8887 39.8664 15.648ZM32.7614 14.72C32.4907 15.764 32.2877 16.7597 32.1524 17.707C32.0171 18.635 31.9494 19.4663 31.9494 20.201C31.9494 20.9163 32.0944 21.535 32.3844 22.057C32.6937 22.579 33.0901 22.84 33.5734 22.84C34.6174 22.84 35.6227 21.854 36.5894 19.882C37.5561 17.91 38.0394 16.0733 38.0394 14.372C38.0394 13.27 37.7494 12.3613 37.1694 11.646C36.7827 11.182 36.2704 10.95 35.6324 10.95C35.0137 10.95 34.4434 11.3173 33.9214 12.052C33.4187 12.7673 33.0321 13.6567 32.7614 14.72ZM43.7588 11.849C42.8888 11.849 42.2991 11.6363 41.9898 11.211C41.9898 10.9017 42.1154 10.66 42.3668 10.486C42.6374 10.312 42.9274 10.2057 43.2368 10.167C43.5461 10.109 44.0488 10.0607 44.7448 10.022C44.8028 9.49999 44.8318 8.83299 44.8318 8.02099C44.8511 7.18966 44.8704 6.48399 44.8898 5.90399C44.9478 4.37666 45.1798 3.43899 45.5858 3.09099C45.7598 2.93632 45.9434 2.85899 46.1368 2.85899C46.3494 2.85899 46.5331 2.87832 46.6878 2.91699C46.7458 4.30899 46.7748 5.14999 46.7748 5.43999L46.6008 9.78999C46.6394 9.80932 46.7458 9.81899 46.9198 9.81899L49.0078 9.73199C50.5158 9.73199 51.2698 9.96399 51.2698 10.428C51.2698 11.0853 50.9991 11.472 50.4578 11.588C50.2064 11.646 49.9068 11.675 49.5588 11.675C49.2301 11.675 48.7951 11.6363 48.2538 11.559C47.7318 11.4623 47.3548 11.414 47.1228 11.414C46.8908 11.414 46.7361 11.4237 46.6588 11.443C46.6008 12.0037 46.5718 12.5643 46.5718 13.125C46.5718 13.6663 46.5814 14.3527 46.6008 15.184C46.6394 15.996 46.7168 16.9723 46.8328 18.113C46.9681 19.2537 47.2484 20.2397 47.6738 21.071C48.0991 21.883 48.6404 22.289 49.2978 22.289C49.6264 22.289 50.0131 22.1633 50.4578 21.912C50.9024 21.6413 51.2408 21.506 51.4728 21.506C51.7241 21.506 51.9368 21.564 52.1108 21.68C52.3041 21.7767 52.4008 21.8927 52.4008 22.028C52.4008 22.434 51.9851 22.8303 51.1538 23.217C50.3418 23.5843 49.6458 23.768 49.0658 23.768C46.9391 23.768 45.6148 21.7573 45.0928 17.736C44.9381 16.576 44.8221 14.5847 44.7448 11.762C44.4354 11.82 44.1068 11.849 43.7588 11.849ZM63.8673 13.125C63.5 13.4923 63.1326 13.676 62.7653 13.676C62.398 13.676 62.0983 13.5213 61.8663 13.212C61.6536 12.8833 61.4796 12.5353 61.3443 12.168C61.209 11.7813 60.9576 11.4333 60.5903 11.124C60.2423 10.7953 59.7976 10.631 59.2563 10.631C58.5023 10.7083 57.816 11.2497 57.1973 12.255C56.5786 13.241 56.1243 14.3333 55.8343 15.532C55.5443 16.7307 55.3993 17.8617 55.3993 18.925C55.3993 19.969 55.6893 20.8777 56.2693 21.651C56.8686 22.405 57.671 22.782 58.6763 22.782C59.8363 22.782 60.7643 22.376 61.4603 21.564C61.7503 21.216 62.021 20.868 62.2723 20.52C62.891 19.708 63.4516 19.302 63.9543 19.302C64.1283 19.302 64.3796 19.3503 64.7083 19.447C64.7083 20.1623 64.051 21.1097 62.7363 22.289C61.441 23.449 60.0296 24.029 58.5023 24.029C56.975 24.029 55.7666 23.5457 54.8773 22.579C54.0073 21.593 53.5723 20.3267 53.5723 18.78C53.5723 16.7887 54.0556 14.7973 55.0223 12.806C55.5056 11.8393 56.163 11.0467 56.9943 10.428C57.8256 9.79 58.7536 9.47099 59.7783 9.47099C60.803 9.47099 61.6246 9.81899 62.2433 10.515C62.8813 11.1917 63.4226 12.0617 63.8673 13.125ZM67.2397 17.997L67.5007 5.00499C67.5007 3.99966 67.4426 3.31332 67.3267 2.94599C67.6747 2.63666 68.2064 2.48199 68.9217 2.48199C69.2117 4.55066 69.3567 7.20899 69.3567 10.457C69.3567 11.4237 69.2697 13.6663 69.0956 17.185C70.0043 12.2937 71.6283 9.84799 73.9677 9.84799C74.799 9.84799 75.437 10.2927 75.8817 11.182C76.3456 12.052 76.6357 13.1153 76.7517 14.372C76.8677 15.6287 76.9643 16.8853 77.0416 18.142C77.2349 21.158 77.7764 22.666 78.6656 22.666C78.685 22.666 78.8687 22.608 79.2167 22.492C79.99 22.26 80.4249 22.202 80.5217 22.318C80.5217 22.5307 80.2219 22.8013 79.6227 23.13C79.0234 23.4393 78.4724 23.594 77.9697 23.594C77.1189 23.594 76.4616 23.159 75.9977 22.289C75.5529 21.3997 75.2727 20.3267 75.1567 19.07C75.06 17.8133 74.9827 16.5663 74.9247 15.329C74.886 14.0723 74.7604 13.009 74.5477 12.139C74.335 11.2497 73.9774 10.805 73.4747 10.805C72.856 10.805 72.2857 11.4817 71.7636 12.835C71.2609 14.169 70.8647 15.648 70.5747 17.272C70.2847 18.896 69.927 20.3847 69.5017 21.738C69.0957 23.072 68.68 23.739 68.2547 23.739C67.578 23.739 67.2397 21.825 67.2397 17.997ZM86.4048 10.051C86.5788 9.68366 86.9557 9.49999 87.5358 9.49999C87.7872 9.49999 87.9997 9.55799 88.1738 9.67399C88.7151 11.1627 89.2467 12.661 89.7688 14.169C90.7548 16.9337 91.6731 19.1183 92.5238 20.723C92.9297 18.3643 93.7127 15.9863 94.8727 13.589C96.0521 11.1917 97.1252 9.99299 98.0918 9.99299C98.3818 9.99299 98.6718 10.0607 98.9618 10.196C96.7385 13.1153 95.1434 16.982 94.1768 21.796C93.9835 22.9173 93.7708 23.5553 93.5387 23.71C93.2875 23.884 93.0265 23.971 92.7558 23.971C92.4852 23.971 92.2725 23.913 92.1178 23.797C91.9825 23.681 91.8762 23.565 91.7988 23.449C91.7408 23.333 91.6537 23.1397 91.5378 22.869C91.4411 22.5983 91.3638 22.4147 91.3058 22.318C89.3338 18.6253 87.7002 14.5363 86.4048 10.051ZM102.854 2.65599C102.835 3.10065 102.825 3.59365 102.825 4.13499C102.825 4.67632 102.854 5.23699 102.912 5.81699C102.641 6.12632 102.274 6.28099 101.81 6.28099C101.23 6.28099 100.94 5.81699 100.94 4.88899C100.94 4.85032 100.94 4.70532 100.94 4.45399C100.94 4.20266 100.94 3.98032 100.94 3.78699C100.959 3.57432 100.998 3.33266 101.056 3.06199C101.191 2.59799 101.491 2.36599 101.955 2.36599C102.419 2.36599 102.719 2.46266 102.854 2.65599ZM100.998 16.866C100.998 13.0767 101.191 10.892 101.578 10.312C101.713 10.0993 101.878 9.99299 102.071 9.99299C102.264 9.99299 102.583 10.0993 103.028 10.312C102.931 11.9553 102.883 13.7437 102.883 15.677C102.883 15.677 102.902 17.8133 102.941 22.086C102.941 22.6853 102.806 23.1107 102.535 23.362C102.284 23.594 102.042 23.71 101.81 23.71C101.597 23.71 101.375 23.652 101.143 23.536C101.046 21.0227 100.998 18.7993 100.998 16.866ZM117.505 0.770992C116.77 7.42166 116.403 12.168 116.403 15.01C116.403 17.8327 116.664 20.6553 117.186 23.478C116.799 23.8647 116.461 24.058 116.171 24.058C115.881 24.058 115.639 24.0193 115.446 23.942C115.04 22.5113 114.798 20.955 114.721 19.273C114.257 20.0077 113.909 20.5297 113.677 20.839C113.464 21.1483 113.087 21.6027 112.546 22.202C111.56 23.362 110.39 23.942 109.037 23.942C108.012 23.942 107.268 23.4683 106.804 22.521C106.359 21.5543 106.137 20.3267 106.137 18.838C106.137 17.33 106.301 15.8993 106.63 14.546C106.978 13.1733 107.567 11.994 108.399 11.008C109.23 10.0027 110.255 9.49999 111.473 9.49999C112.207 9.49999 112.884 9.65466 113.503 9.96399C114.121 10.2733 114.547 10.689 114.779 11.211C114.817 10.689 114.856 9.88666 114.895 8.80399C114.933 7.72132 114.972 6.76432 115.011 5.93299C115.069 5.08232 115.156 4.22199 115.272 3.35199C115.484 1.49599 115.958 0.567993 116.693 0.567993C116.944 0.567993 117.215 0.63566 117.505 0.770992ZM114.112 12.255C113.88 11.8297 113.561 11.5203 113.155 11.327C112.749 11.1143 112.207 11.008 111.531 11.008C110.873 11.008 110.255 11.385 109.675 12.139C108.534 13.6277 107.964 15.7833 107.964 18.606C107.964 19.5147 108.109 20.4233 108.399 21.332C108.689 22.2213 109.114 22.666 109.675 22.666C110.487 22.666 111.279 22.1343 112.053 21.071C112.826 20.0077 113.425 18.7897 113.851 17.417C114.276 16.025 114.489 14.778 114.489 13.676C114.489 13.154 114.363 12.6803 114.112 12.255ZM121.787 18.113C121.748 18.4997 121.729 18.7607 121.729 18.896C121.729 20.056 122.077 20.955 122.773 21.593C123.488 22.231 124.329 22.55 125.296 22.55C126.262 22.55 127.045 22.4147 127.645 22.144C128.263 21.8733 128.708 21.5833 128.979 21.274C129.675 20.404 130.313 19.969 130.893 19.969C131.105 19.969 131.357 20.027 131.647 20.143C131.453 21.0903 130.719 21.9603 129.443 22.753C128.186 23.5263 126.601 23.913 124.687 23.913C123.333 23.913 122.164 23.4877 121.178 22.637C120.211 21.767 119.728 20.5877 119.728 19.099C119.728 17.6103 120.018 16.17 120.598 14.778C121.197 13.3667 122.048 12.168 123.15 11.182C124.271 10.1767 125.402 9.67399 126.543 9.67399C127.703 9.67399 128.631 9.91566 129.327 10.399C130.042 10.863 130.4 11.5493 130.4 12.458C130.4 14.14 129.646 15.532 128.138 16.634C126.649 17.7167 125.064 18.258 123.382 18.258C122.937 18.258 122.405 18.2097 121.787 18.113ZM123.991 17.156C124.899 17.156 125.711 16.866 126.427 16.286C127.142 15.706 127.645 15.097 127.935 14.459C128.244 13.821 128.399 13.241 128.399 12.719C128.399 12.197 128.196 11.7427 127.79 11.356C127.384 10.95 126.91 10.747 126.369 10.747C125.402 10.747 124.503 11.414 123.672 12.748C122.86 14.082 122.28 15.4643 121.932 16.895C122.782 17.069 123.469 17.156 123.991 17.156ZM135.001 11.965C135.987 10.457 137.408 9.70299 139.264 9.70299C141.12 9.70299 142.599 10.457 143.701 11.965C144.822 13.473 145.383 15.1937 145.383 17.127C145.383 19.041 144.774 20.665 143.556 21.999C142.338 23.333 140.791 24 138.916 24C137.04 24 135.677 23.478 134.827 22.434C133.976 21.3707 133.551 19.882 133.551 17.968C133.551 15.474 134.034 13.473 135.001 11.965ZM136.277 13.502C136.025 14.256 135.832 15.01 135.697 15.764C135.581 16.518 135.523 17.2237 135.523 17.881C135.523 18.519 135.571 19.1087 135.668 19.65C135.764 20.172 135.929 20.694 136.161 21.216C136.393 21.7187 136.741 22.1247 137.205 22.434C137.669 22.724 138.22 22.869 138.858 22.869C140.153 22.869 141.236 22.3373 142.106 21.274C142.995 20.2107 143.44 18.925 143.44 17.417C143.44 15.909 143.034 14.4493 142.222 13.038C141.429 11.6073 140.453 10.892 139.293 10.892C138.597 10.892 137.988 11.1337 137.466 11.617C136.944 12.1003 136.547 12.7287 136.277 13.502ZM155.511 12.4C155.337 11.9553 155.008 11.6073 154.525 11.356C154.041 11.1047 153.442 10.979 152.727 10.979C152.011 10.979 151.335 11.1917 150.697 11.617C150.078 12.0423 149.769 12.6127 149.769 13.328C149.769 14.0433 150.059 14.6137 150.639 15.039C151.238 15.445 151.953 15.7543 152.785 15.967C153.635 16.1797 154.486 16.4117 155.337 16.663C156.187 16.895 156.903 17.2913 157.483 17.852C158.082 18.3933 158.382 19.1087 158.382 19.998C158.382 21.2933 157.84 22.2793 156.758 22.956C155.694 23.6327 154.409 23.971 152.901 23.971C152.011 23.971 150.842 23.7293 149.392 23.246C147.961 22.7627 147.246 22.1827 147.246 21.506C147.246 21.0033 147.671 20.752 148.522 20.752C148.773 20.752 149.102 20.9067 149.508 21.216C150.745 22.1247 152.011 22.579 153.307 22.579C154.003 22.579 154.602 22.463 155.105 22.231C156.033 21.7863 156.497 21.071 156.497 20.085C156.497 19.4857 156.197 19.0023 155.598 18.635C155.018 18.2677 154.302 17.9777 153.452 17.765C152.62 17.5523 151.779 17.3203 150.929 17.069C150.078 16.8177 149.353 16.402 148.754 15.822C148.174 15.2227 147.884 14.4687 147.884 13.56C147.884 12.3807 148.415 11.4237 149.479 10.689C150.542 9.95432 151.857 9.58699 153.423 9.58699C154.486 9.58699 155.443 9.86732 156.294 10.428C157.164 10.9693 157.599 11.762 157.599 12.806C157.599 13.502 157.202 13.85 156.41 13.85C156.081 13.85 155.859 13.792 155.743 13.676C155.646 13.56 155.588 13.357 155.569 13.067C155.569 12.7577 155.549 12.5353 155.511 12.4ZM175.205 20.636C174.896 21.5253 174.297 22.2793 173.407 22.898C172.537 23.5167 171.58 23.826 170.536 23.826C169.512 23.826 168.709 23.3137 168.129 22.289C167.569 21.245 167.288 19.8047 167.288 17.968C167.288 12.7867 168.052 10.196 169.579 10.196C169.773 10.196 170.014 10.225 170.304 10.283C170.246 10.5923 170.111 11.182 169.898 12.052C169.473 13.7533 169.26 15.2517 169.26 16.547C169.26 17.8423 169.444 19.215 169.811 20.665C170.179 22.0957 170.701 22.811 171.377 22.811C171.725 22.811 172.064 22.5887 172.392 22.144C172.721 21.6993 172.982 21.2353 173.175 20.752C173.369 20.2493 173.572 19.679 173.784 19.041C173.997 18.403 174.132 18.0163 174.19 17.881C173.9 16.7597 173.755 15.619 173.755 14.459C173.755 14.401 173.755 14.227 173.755 13.937C173.755 13.6277 173.765 13.328 173.784 13.038C173.804 12.748 173.862 12.4 173.958 11.994C174.152 11.182 174.674 10.776 175.524 10.776C176.24 10.776 176.597 11.8587 176.597 14.024C176.597 14.4107 176.539 14.9713 176.423 15.706C176.327 16.4407 176.278 16.953 176.278 17.243C176.278 18.1323 176.704 19.2827 177.554 20.694C178.405 22.1053 179.198 22.811 179.932 22.811C180.686 22.811 181.237 22.3857 181.585 21.535C181.933 20.6843 182.107 19.737 182.107 18.693C182.107 17.4943 182.001 16.5857 181.788 15.967C181.595 15.329 181.469 14.9133 181.411 14.72C181.373 14.5267 181.247 14.227 181.034 13.821C180.841 13.3957 180.715 13.125 180.657 13.009C180.619 12.893 180.474 12.6127 180.222 12.168C179.971 11.7233 179.826 11.472 179.787 11.414C179.227 10.428 178.898 9.88666 178.801 9.78999C179.285 9.38399 179.729 9.18099 180.135 9.18099C181.315 10.0317 182.252 11.4237 182.948 13.357C183.644 15.271 183.992 17.0207 183.992 18.606C183.992 20.172 183.654 21.4093 182.977 22.318C182.32 23.2073 181.286 23.652 179.874 23.652C178.888 23.652 177.951 23.3813 177.061 22.84C176.191 22.2793 175.573 21.5447 175.205 20.636ZM188.948 2.65599C188.928 3.10065 188.919 3.59365 188.919 4.13499C188.919 4.67632 188.948 5.23699 189.006 5.81699C188.735 6.12632 188.368 6.28099 187.904 6.28099C187.324 6.28099 187.034 5.81699 187.034 4.88899C187.034 4.85032 187.034 4.70532 187.034 4.45399C187.034 4.20266 187.034 3.98032 187.034 3.78699C187.053 3.57432 187.092 3.33266 187.15 3.06199C187.285 2.59799 187.585 2.36599 188.049 2.36599C188.513 2.36599 188.812 2.46266 188.948 2.65599ZM187.092 16.866C187.092 13.0767 187.285 10.892 187.672 10.312C187.807 10.0993 187.971 9.99299 188.165 9.99299C188.358 9.99299 188.677 10.0993 189.122 10.312C189.025 11.9553 188.977 13.7437 188.977 15.677C188.977 15.677 188.996 17.8133 189.035 22.086C189.035 22.6853 188.899 23.1107 188.629 23.362C188.377 23.594 188.136 23.71 187.904 23.71C187.691 23.71 187.469 23.652 187.237 23.536C187.14 21.0227 187.092 18.7993 187.092 16.866ZM192.723 11.849C191.853 11.849 191.264 11.6363 190.954 11.211C190.954 10.9017 191.08 10.66 191.331 10.486C191.602 10.312 191.892 10.2057 192.201 10.167C192.511 10.109 193.013 10.0607 193.709 10.022C193.767 9.49999 193.796 8.83299 193.796 8.02099C193.816 7.18966 193.835 6.48399 193.854 5.90399C193.912 4.37666 194.144 3.43899 194.55 3.09099C194.724 2.93632 194.908 2.85899 195.101 2.85899C195.314 2.85899 195.498 2.87832 195.652 2.91699C195.71 4.30899 195.739 5.14999 195.739 5.43999L195.565 9.78999C195.604 9.80932 195.71 9.81899 195.884 9.81899L197.972 9.73199C199.48 9.73199 200.234 9.96399 200.234 10.428C200.234 11.0853 199.964 11.472 199.422 11.588C199.171 11.646 198.871 11.675 198.523 11.675C198.195 11.675 197.76 11.6363 197.218 11.559C196.696 11.4623 196.319 11.414 196.087 11.414C195.855 11.414 195.701 11.4237 195.623 11.443C195.565 12.0037 195.536 12.5643 195.536 13.125C195.536 13.6663 195.546 14.3527 195.565 15.184C195.604 15.996 195.681 16.9723 195.797 18.113C195.933 19.2537 196.213 20.2397 196.638 21.071C197.064 21.883 197.605 22.289 198.262 22.289C198.591 22.289 198.978 22.1633 199.422 21.912C199.867 21.6413 200.205 21.506 200.437 21.506C200.689 21.506 200.901 21.564 201.075 21.68C201.269 21.7767 201.365 21.8927 201.365 22.028C201.365 22.434 200.95 22.8303 200.118 23.217C199.306 23.5843 198.61 23.768 198.03 23.768C195.904 23.768 194.579 21.7573 194.057 17.736C193.903 16.576 193.787 14.5847 193.709 11.762C193.4 11.82 193.071 11.849 192.723 11.849ZM203.262 17.997L203.523 5.00499C203.523 3.99966 203.465 3.31332 203.349 2.94599C203.697 2.63666 204.229 2.48199 204.944 2.48199C205.234 4.55066 205.379 7.20899 205.379 10.457C205.379 11.4237 205.292 13.6663 205.118 17.185C206.027 12.2937 207.651 9.84799 209.99 9.84799C210.821 9.84799 211.459 10.2927 211.904 11.182C212.368 12.052 212.658 13.1153 212.774 14.372C212.89 15.6287 212.987 16.8853 213.064 18.142C213.257 21.158 213.799 22.666 214.688 22.666C214.707 22.666 214.891 22.608 215.239 22.492C216.012 22.26 216.447 22.202 216.544 22.318C216.544 22.5307 216.244 22.8013 215.645 23.13C215.046 23.4393 214.495 23.594 213.992 23.594C213.141 23.594 212.484 23.159 212.02 22.289C211.575 21.3997 211.295 20.3267 211.179 19.07C211.082 17.8133 211.005 16.5663 210.947 15.329C210.908 14.0723 210.783 13.009 210.57 12.139C210.357 11.2497 210 10.805 209.497 10.805C208.878 10.805 208.308 11.4817 207.786 12.835C207.283 14.169 206.887 15.648 206.597 17.272C206.307 18.896 205.949 20.3847 205.524 21.738C205.118 23.072 204.702 23.739 204.277 23.739C203.6 23.739 203.262 21.825 203.262 17.997ZM218.234 11.965C219.22 10.457 220.641 9.70299 222.497 9.70299C224.353 9.70299 225.832 10.457 226.934 11.965C228.055 13.473 228.616 15.1937 228.616 17.127C228.616 19.041 228.007 20.665 226.789 21.999C225.571 23.333 224.024 24 222.149 24C220.274 24 218.911 23.478 218.06 22.434C217.209 21.3707 216.784 19.882 216.784 17.968C216.784 15.474 217.267 13.473 218.234 11.965ZM219.51 13.502C219.259 14.256 219.065 15.01 218.93 15.764C218.814 16.518 218.756 17.2237 218.756 17.881C218.756 18.519 218.804 19.1087 218.901 19.65C218.998 20.172 219.162 20.694 219.394 21.216C219.626 21.7187 219.974 22.1247 220.438 22.434C220.902 22.724 221.453 22.869 222.091 22.869C223.386 22.869 224.469 22.3373 225.339 21.274C226.228 20.2107 226.673 18.925 226.673 17.417C226.673 15.909 226.267 14.4493 225.455 13.038C224.662 11.6073 223.686 10.892 222.526 10.892C221.83 10.892 221.221 11.1337 220.699 11.617C220.177 12.1003 219.781 12.7287 219.51 13.502ZM233.843 10.399C233.34 11.3463 233.089 12.7577 233.089 14.633C233.089 17.4557 233.621 19.708 234.684 21.39C235.303 22.376 236.037 22.869 236.888 22.869C237.758 22.869 238.454 22.4147 238.976 21.506C239.595 20.3847 239.904 18.838 239.904 16.866C239.904 14.3913 239.556 12.5643 238.86 11.385C238.551 10.8243 238.367 10.4183 238.309 10.167C238.27 9.91566 238.338 9.73199 238.512 9.61599C238.686 9.49999 238.976 9.44199 239.382 9.44199C240.561 9.44199 241.335 10.66 241.702 13.096C241.818 13.7727 241.876 14.4493 241.876 15.126C241.876 16.8853 241.528 18.6447 240.832 20.404C239.846 22.8207 238.29 24.029 236.163 24.029C235.042 24.029 234.085 23.6133 233.292 22.782C231.803 21.1967 231.059 18.809 231.059 15.619C231.059 14.227 231.156 13.1637 231.349 12.429C231.542 11.6943 231.707 11.2207 231.842 11.008C231.977 10.776 232.142 10.5633 232.335 10.37C232.528 10.1767 232.741 10.0993 232.973 10.138C233.224 10.1767 233.514 10.2637 233.843 10.399ZM244.776 11.849C243.906 11.849 243.316 11.6363 243.007 11.211C243.007 10.9017 243.133 10.66 243.384 10.486C243.655 10.312 243.945 10.2057 244.254 10.167C244.563 10.109 245.066 10.0607 245.762 10.022C245.82 9.49999 245.849 8.83299 245.849 8.02099C245.868 7.18966 245.888 6.48399 245.907 5.90399C245.965 4.37666 246.197 3.43899 246.603 3.09099C246.777 2.93632 246.961 2.85899 247.154 2.85899C247.367 2.85899 247.55 2.87832 247.705 2.91699C247.763 4.30899 247.792 5.14999 247.792 5.43999L247.618 9.78999C247.657 9.80932 247.763 9.81899 247.937 9.81899L250.025 9.73199C251.533 9.73199 252.287 9.96399 252.287 10.428C252.287 11.0853 252.016 11.472 251.475 11.588C251.224 11.646 250.924 11.675 250.576 11.675C250.247 11.675 249.812 11.6363 249.271 11.559C248.749 11.4623 248.372 11.414 248.14 11.414C247.908 11.414 247.753 11.4237 247.676 11.443C247.618 12.0037 247.589 12.5643 247.589 13.125C247.589 13.6663 247.599 14.3527 247.618 15.184C247.657 15.996 247.734 16.9723 247.85 18.113C247.985 19.2537 248.266 20.2397 248.691 21.071C249.116 21.883 249.658 22.289 250.315 22.289C250.644 22.289 251.03 22.1633 251.475 21.912C251.92 21.6413 252.258 21.506 252.49 21.506C252.741 21.506 252.954 21.564 253.128 21.68C253.321 21.7767 253.418 21.8927 253.418 22.028C253.418 22.434 253.002 22.8303 252.171 23.217C251.359 23.5843 250.663 23.768 250.083 23.768C247.956 23.768 246.632 21.7573 246.11 17.736C245.955 16.576 245.839 14.5847 245.762 11.762C245.453 11.82 245.124 11.849 244.776 11.849ZM9.87516 52.648L9.73016 55.983C9.73016 57.665 9.92349 58.796 10.3102 59.376C10.5422 59.7627 10.8612 59.956 11.2672 59.956C11.3832 59.956 11.5475 59.927 11.7602 59.869C12.1662 59.753 12.5045 59.811 12.7752 60.043C12.6399 60.7197 11.9632 61.058 10.7452 61.058C9.91383 61.058 9.36283 60.71 9.09216 60.014C8.87949 59.492 8.72483 58.8443 8.62816 58.071C8.53149 57.2783 8.45416 56.737 8.39616 56.447C7.13949 58.8443 5.92149 60.304 4.74216 60.826C4.14283 61.0967 3.44683 61.232 2.65416 61.232C1.86149 61.232 1.24283 60.855 0.798156 60.101C0.372823 59.3277 0.160156 58.2063 0.160156 56.737C0.160156 55.2677 0.401823 53.7307 0.885156 52.126C1.36849 50.502 2.07416 49.139 3.00216 48.037C3.93016 46.9157 4.94516 46.355 6.04716 46.355C7.63249 46.355 8.68616 47.0123 9.20816 48.327C9.65283 49.4483 9.87516 50.8887 9.87516 52.648ZM2.77016 51.72C2.49949 52.764 2.29649 53.7597 2.16116 54.707C2.02583 55.635 1.95816 56.4663 1.95816 57.201C1.95816 57.9163 2.10316 58.535 2.39316 59.057C2.70249 59.579 3.09883 59.84 3.58216 59.84C4.62616 59.84 5.63149 58.854 6.59816 56.882C7.56483 54.91 8.04816 53.0733 8.04816 51.372C8.04816 50.27 7.75816 49.3613 7.17816 48.646C6.79149 48.182 6.27916 47.95 5.64116 47.95C5.02249 47.95 4.45216 48.3173 3.93016 49.052C3.42749 49.7673 3.04083 50.6567 2.77016 51.72ZM25.6575 60.188C25.3095 60.5553 24.9132 60.739 24.4685 60.739C23.6372 60.739 23.0185 60.2943 22.6125 59.405C22.2065 58.5157 21.9649 57.433 21.8875 56.157C21.8295 54.881 21.7909 53.605 21.7715 52.329C21.7522 51.053 21.6459 49.9703 21.4525 49.081C21.2785 48.1917 20.9402 47.747 20.4375 47.747C19.7609 47.747 19.1809 48.356 18.6975 49.574C18.2335 50.792 17.9049 52.1453 17.7115 53.634C17.1702 57.7907 16.6482 60.1203 16.1455 60.623C15.7975 60.797 15.4979 60.884 15.2465 60.884C14.9952 60.884 14.7825 60.855 14.6085 60.797C14.2025 59.0183 13.9415 55.954 13.8255 51.604C13.7869 49.4387 13.7482 48.037 13.7095 47.399C14.1155 47.1283 14.4635 46.993 14.7535 46.993C15.0435 46.993 15.2755 47.022 15.4495 47.08C15.5462 47.9113 15.5945 49.6127 15.5945 52.184C15.6139 54.7553 15.6332 56.2343 15.6525 56.621C15.7492 56.215 15.8652 55.5577 16.0005 54.649C16.1552 53.7403 16.2905 52.996 16.4065 52.416C16.5225 51.8167 16.7062 51.1207 16.9575 50.328C17.2089 49.5353 17.4892 48.907 17.7985 48.443C18.1079 47.9597 18.5332 47.5537 19.0745 47.225C19.6159 46.877 20.2249 46.703 20.9015 46.703C21.8102 46.703 22.4675 47.1187 22.8735 47.95C23.2989 48.762 23.5309 49.777 23.5695 50.995C23.6082 52.213 23.6275 53.4503 23.6275 54.707C23.6469 55.9637 23.8015 57.114 24.0915 58.158C24.4009 59.202 24.9229 59.8787 25.6575 60.188ZM34.4615 48.82C34.4615 47.428 34.9062 46.732 35.7955 46.732C35.9695 46.732 36.1435 46.7513 36.3175 46.79C36.3175 47.022 36.3175 47.6503 36.3175 48.675C36.3175 49.6997 36.4529 51.749 36.7235 54.823C36.9942 57.897 37.1295 60.1977 37.1295 61.725C37.1295 64.161 36.7042 65.843 35.8535 66.771C35.0029 67.699 33.5529 68.163 31.5035 68.163C29.4735 68.163 27.5595 67.5057 25.7615 66.191C26.1095 65.7657 26.5639 65.553 27.1245 65.553C27.3372 65.5723 27.6755 65.7173 28.1395 65.988C29.5122 66.8 30.6529 67.206 31.5615 67.206C32.9149 67.206 33.8719 66.7807 34.4325 65.93C34.9932 65.0793 35.2735 63.6487 35.2735 61.638C35.2735 61.1547 35.2252 59.4147 35.1285 56.418C35.1092 56.476 35.0415 56.7273 34.9255 57.172C34.8095 57.5973 34.7225 57.8777 34.6645 58.013C34.6065 58.1483 34.5002 58.3997 34.3455 58.767C34.2102 59.1343 34.0652 59.3953 33.9105 59.55C33.7559 59.7047 33.5529 59.8883 33.3015 60.101C32.8762 60.4877 32.3349 60.681 31.6775 60.681C31.0395 60.681 30.5272 60.594 30.1405 60.42C29.7539 60.246 29.4252 59.9753 29.1545 59.608C28.9032 59.2407 28.6712 58.854 28.4585 58.448C28.2652 58.042 28.1105 57.5297 27.9945 56.911C27.8785 56.273 27.7819 55.693 27.7045 55.171C27.6465 54.649 27.5982 54.011 27.5595 53.257C27.5402 52.503 27.5209 51.8747 27.5015 51.372C27.5015 50.8693 27.5015 50.2313 27.5015 49.458V47.718C27.6949 47.3893 28.0429 47.225 28.5455 47.225C29.2415 47.225 29.5895 47.4763 29.5895 47.979L29.4155 50.792C29.4155 53.2473 29.6765 55.3643 30.1985 57.143C30.7205 58.9217 31.2619 59.811 31.8225 59.811C32.2479 59.811 32.6249 59.579 32.9535 59.115C33.2822 58.651 33.5335 58.0033 33.7075 57.172C33.8815 56.3213 34.0265 55.519 34.1425 54.765C34.2585 54.011 34.3359 53.1313 34.3745 52.126C34.4325 50.5987 34.4615 49.4967 34.4615 48.82ZM56.0656 52.648L55.9206 55.983C55.9206 57.665 56.114 58.796 56.5006 59.376C56.7326 59.7627 57.0516 59.956 57.4576 59.956C57.5736 59.956 57.738 59.927 57.9506 59.869C58.3566 59.753 58.695 59.811 58.9656 60.043C58.8303 60.7197 58.1536 61.058 56.9356 61.058C56.1043 61.058 55.5533 60.71 55.2826 60.014C55.07 59.492 54.9153 58.8443 54.8186 58.071C54.722 57.2783 54.6446 56.737 54.5866 56.447C53.33 58.8443 52.112 60.304 50.9326 60.826C50.3333 61.0967 49.6373 61.232 48.8446 61.232C48.052 61.232 47.4333 60.855 46.9886 60.101C46.5633 59.3277 46.3506 58.2063 46.3506 56.737C46.3506 55.2677 46.5923 53.7307 47.0756 52.126C47.559 50.502 48.2646 49.139 49.1926 48.037C50.1206 46.9157 51.1356 46.355 52.2376 46.355C53.823 46.355 54.8766 47.0123 55.3986 48.327C55.8433 49.4483 56.0656 50.8887 56.0656 52.648ZM48.9606 51.72C48.69 52.764 48.487 53.7597 48.3516 54.707C48.2163 55.635 48.1486 56.4663 48.1486 57.201C48.1486 57.9163 48.2936 58.535 48.5836 59.057C48.893 59.579 49.2893 59.84 49.7726 59.84C50.8166 59.84 51.822 58.854 52.7886 56.882C53.7553 54.91 54.2386 53.0733 54.2386 51.372C54.2386 50.27 53.9486 49.3613 53.3686 48.646C52.982 48.182 52.4696 47.95 51.8316 47.95C51.213 47.95 50.6426 48.3173 50.1206 49.052C49.618 49.7673 49.2313 50.6567 48.9606 51.72ZM71.848 60.188C71.5 60.5553 71.1036 60.739 70.659 60.739C69.8276 60.739 69.209 60.2943 68.803 59.405C68.397 58.5157 68.1553 57.433 68.0779 56.157C68.02 54.881 67.9813 53.605 67.962 52.329C67.9426 51.053 67.8363 49.9703 67.643 49.081C67.4689 48.1917 67.1306 47.747 66.628 47.747C65.9513 47.747 65.3713 48.356 64.888 49.574C64.424 50.792 64.0953 52.1453 63.902 53.634C63.3606 57.7907 62.8386 60.1203 62.336 60.623C61.988 60.797 61.6883 60.884 61.437 60.884C61.1856 60.884 60.973 60.855 60.799 60.797C60.393 59.0183 60.132 55.954 60.016 51.604C59.9773 49.4387 59.9386 48.037 59.9 47.399C60.306 47.1283 60.654 46.993 60.944 46.993C61.234 46.993 61.466 47.022 61.64 47.08C61.7366 47.9113 61.785 49.6127 61.785 52.184C61.8043 54.7553 61.8236 56.2343 61.843 56.621C61.9396 56.215 62.0556 55.5577 62.191 54.649C62.3456 53.7403 62.481 52.996 62.597 52.416C62.713 51.8167 62.8966 51.1207 63.148 50.328C63.3993 49.5353 63.6796 48.907 63.989 48.443C64.2983 47.9597 64.7236 47.5537 65.265 47.225C65.8063 46.877 66.4153 46.703 67.0919 46.703C68.0005 46.703 68.658 47.1187 69.0639 47.95C69.4893 48.762 69.7213 49.777 69.76 50.995C69.7986 52.213 69.818 53.4503 69.818 54.707C69.8373 55.9637 69.992 57.114 70.282 58.158C70.5913 59.202 71.1133 59.8787 71.848 60.188ZM85.64 60.188C85.292 60.5553 84.8956 60.739 84.451 60.739C83.6196 60.739 83.001 60.2943 82.595 59.405C82.189 58.5157 81.9473 57.433 81.8699 56.157C81.812 54.881 81.7733 53.605 81.754 52.329C81.7346 51.053 81.6283 49.9703 81.435 49.081C81.2609 48.1917 80.9226 47.747 80.42 47.747C79.7433 47.747 79.1633 48.356 78.68 49.574C78.216 50.792 77.8873 52.1453 77.694 53.634C77.1526 57.7907 76.6306 60.1203 76.128 60.623C75.78 60.797 75.4802 60.884 75.229 60.884C74.9776 60.884 74.765 60.855 74.591 60.797C74.185 59.0183 73.924 55.954 73.808 51.604C73.7693 49.4387 73.7306 48.037 73.692 47.399C74.098 47.1283 74.446 46.993 74.736 46.993C75.026 46.993 75.2579 47.022 75.432 47.08C75.5286 47.9113 75.577 49.6127 75.577 52.184C75.5963 54.7553 75.6156 56.2343 75.635 56.621C75.7316 56.215 75.8476 55.5577 75.983 54.649C76.1376 53.7403 76.273 52.996 76.389 52.416C76.505 51.8167 76.6886 51.1207 76.9399 50.328C77.1912 49.5353 77.4715 48.907 77.781 48.443C78.0903 47.9597 78.5156 47.5537 79.057 47.225C79.5983 46.877 80.2073 46.703 80.8839 46.703C81.7925 46.703 82.45 47.1187 82.8559 47.95C83.2812 48.762 83.5133 49.777 83.552 50.995C83.5906 52.213 83.61 53.4503 83.61 54.707C83.6293 55.9637 83.784 57.114 84.074 58.158C84.3833 59.202 84.9053 59.8787 85.64 60.188ZM88.499 48.965C89.485 47.457 90.906 46.703 92.762 46.703C94.618 46.703 96.097 47.457 97.199 48.965C98.3203 50.473 98.881 52.1937 98.881 54.127C98.881 56.041 98.272 57.665 97.054 58.999C95.836 60.333 94.2893 61 92.414 61C90.5386 61 89.1756 60.478 88.325 59.434C87.4743 58.3707 87.049 56.882 87.049 54.968C87.049 52.474 87.5323 50.473 88.499 48.965ZM89.775 50.502C89.5236 51.256 89.3303 52.01 89.195 52.764C89.079 53.518 89.021 54.2237 89.021 54.881C89.021 55.519 89.0693 56.1087 89.166 56.65C89.2626 57.172 89.4269 57.694 89.659 58.216C89.891 58.7187 90.239 59.1247 90.7029 59.434C91.1669 59.724 91.7179 59.869 92.3559 59.869C93.6513 59.869 94.7339 59.3373 95.604 58.274C96.4932 57.2107 96.938 55.925 96.938 54.417C96.938 52.909 96.532 51.4493 95.72 50.038C94.9273 48.6073 93.951 47.892 92.791 47.892C92.095 47.892 91.486 48.1337 90.964 48.617C90.4419 49.1003 90.0456 49.7287 89.775 50.502ZM108.661 48.82C108.661 47.428 109.105 46.732 109.995 46.732C110.169 46.732 110.343 46.7513 110.517 46.79C110.517 47.022 110.517 47.6503 110.517 48.675C110.517 49.6997 110.652 51.749 110.923 54.823C111.193 57.897 111.329 60.1977 111.329 61.725C111.329 64.161 110.903 65.843 110.053 66.771C109.202 67.699 107.752 68.163 105.703 68.163C103.673 68.163 101.759 67.5057 99.9608 66.191C100.309 65.7657 100.763 65.553 101.324 65.553C101.536 65.5723 101.875 65.7173 102.339 65.988C103.711 66.8 104.852 67.206 105.761 67.206C107.114 67.206 108.071 66.7807 108.632 65.93C109.192 65.0793 109.473 63.6487 109.473 61.638C109.473 61.1547 109.424 59.4147 109.328 56.418C109.308 56.476 109.241 56.7273 109.125 57.172C109.009 57.5973 108.922 57.8777 108.864 58.013C108.806 58.1483 108.699 58.3997 108.545 58.767C108.409 59.1343 108.264 59.3953 108.11 59.55C107.955 59.7047 107.752 59.8883 107.501 60.101C107.075 60.4877 106.534 60.681 105.877 60.681C105.239 60.681 104.726 60.594 104.34 60.42C103.953 60.246 103.624 59.9753 103.354 59.608C103.102 59.2407 102.87 58.854 102.658 58.448C102.464 58.042 102.31 57.5297 102.194 56.911C102.078 56.273 101.981 55.693 101.904 55.171C101.846 54.649 101.797 54.011 101.759 53.257C101.739 52.503 101.72 51.8747 101.701 51.372C101.701 50.8693 101.701 50.2313 101.701 49.458V47.718C101.894 47.3893 102.242 47.225 102.745 47.225C103.441 47.225 103.789 47.4763 103.789 47.979L103.615 50.792C103.615 53.2473 103.876 55.3643 104.398 57.143C104.92 58.9217 105.461 59.811 106.022 59.811C106.447 59.811 106.824 59.579 107.153 59.115C107.481 58.651 107.733 58.0033 107.907 57.172C108.081 56.3213 108.226 55.519 108.342 54.765C108.458 54.011 108.535 53.1313 108.574 52.126C108.632 50.5987 108.661 49.4967 108.661 48.82ZM116.618 39.656C116.598 40.1007 116.589 40.5937 116.589 41.135C116.589 41.6763 116.618 42.237 116.676 42.817C116.405 43.1263 116.038 43.281 115.574 43.281C114.994 43.281 114.704 42.817 114.704 41.889C114.704 41.8503 114.704 41.7053 114.704 41.454C114.704 41.2027 114.704 40.9803 114.704 40.787C114.723 40.5743 114.762 40.3327 114.82 40.062C114.955 39.598 115.255 39.366 115.719 39.366C116.183 39.366 116.482 39.4627 116.618 39.656ZM114.762 53.866C114.762 50.0767 114.955 47.892 115.342 47.312C115.477 47.0993 115.641 46.993 115.835 46.993C116.028 46.993 116.347 47.0993 116.792 47.312C116.695 48.9553 116.647 50.7437 116.647 52.677C116.647 52.677 116.666 54.8133 116.705 59.086C116.705 59.6853 116.569 60.1107 116.299 60.362C116.047 60.594 115.806 60.71 115.574 60.71C115.361 60.71 115.139 60.652 114.907 60.536C114.81 58.0227 114.762 55.7993 114.762 53.866ZM132.283 60.188C131.935 60.5553 131.539 60.739 131.094 60.739C130.263 60.739 129.644 60.2943 129.238 59.405C128.832 58.5157 128.591 57.433 128.513 56.157C128.455 54.881 128.417 53.605 128.397 52.329C128.378 51.053 128.272 49.9703 128.078 49.081C127.904 48.1917 127.566 47.747 127.063 47.747C126.387 47.747 125.807 48.356 125.323 49.574C124.859 50.792 124.531 52.1453 124.337 53.634C123.796 57.7907 123.274 60.1203 122.771 60.623C122.423 60.797 122.124 60.884 121.872 60.884C121.621 60.884 121.408 60.855 121.234 60.797C120.828 59.0183 120.567 55.954 120.451 51.604C120.413 49.4387 120.374 48.037 120.335 47.399C120.741 47.1283 121.089 46.993 121.379 46.993C121.669 46.993 121.901 47.022 122.075 47.08C122.172 47.9113 122.22 49.6127 122.22 52.184C122.24 54.7553 122.259 56.2343 122.278 56.621C122.375 56.215 122.491 55.5577 122.626 54.649C122.781 53.7403 122.916 52.996 123.032 52.416C123.148 51.8167 123.332 51.1207 123.583 50.328C123.835 49.5353 124.115 48.907 124.424 48.443C124.734 47.9597 125.159 47.5537 125.7 47.225C126.242 46.877 126.851 46.703 127.527 46.703C128.436 46.703 129.093 47.1187 129.499 47.95C129.925 48.762 130.157 49.777 130.195 50.995C130.234 52.213 130.253 53.4503 130.253 54.707C130.273 55.9637 130.427 57.114 130.717 58.158C131.027 59.202 131.549 59.8787 132.283 60.188ZM139.231 46.5C140.991 46.5 142.209 47.2153 142.885 48.646C143.253 49.4 143.552 50.1153 143.784 50.792C144.016 51.4687 144.171 52.3967 144.248 53.576C144.364 55.374 144.422 57.4233 144.422 59.724C144.422 62.0053 143.871 63.8227 142.769 65.176C141.687 66.5487 140.092 67.235 137.984 67.235C135.896 67.235 134.156 66.5583 132.764 65.205C133.151 64.8183 133.567 64.625 134.011 64.625C134.475 64.625 135.104 64.8183 135.896 65.205C136.708 65.611 137.569 65.814 138.477 65.814C139.386 65.814 140.14 65.6013 140.739 65.176C141.339 64.77 141.783 64.19 142.073 63.436C142.557 62.102 142.798 60.4587 142.798 58.506C142.798 58.216 142.769 57.143 142.711 55.287C142.189 56.8723 141.445 58.187 140.478 59.231C139.512 60.2557 138.419 60.768 137.201 60.768C135.983 60.768 135.084 60.2267 134.504 59.144C133.944 58.042 133.663 56.795 133.663 55.403C133.663 54.011 133.857 52.6577 134.243 51.343C134.63 50.009 135.258 48.8683 136.128 47.921C136.998 46.9737 138.033 46.5 139.231 46.5ZM136.157 50.908C135.906 51.7587 135.722 52.561 135.606 53.315C135.49 54.069 135.432 54.8327 135.432 55.606C135.432 56.36 135.587 57.201 135.896 58.129C136.225 59.057 136.699 59.521 137.317 59.521C138.535 59.521 139.618 58.6123 140.565 56.795C141.513 54.9583 141.986 53.112 141.986 51.256C141.986 50.618 141.687 49.9027 141.087 49.11C140.507 48.298 139.773 47.892 138.883 47.892C138.265 47.892 137.714 48.182 137.23 48.762C136.766 49.342 136.409 50.0573 136.157 50.908ZM163.371 52.648L163.226 55.983C163.226 57.665 163.419 58.796 163.806 59.376C164.038 59.7627 164.357 59.956 164.763 59.956C164.879 59.956 165.043 59.927 165.256 59.869C165.662 59.753 166 59.811 166.271 60.043C166.136 60.7197 165.459 61.058 164.241 61.058C163.41 61.058 162.859 60.71 162.588 60.014C162.375 59.492 162.221 58.8443 162.124 58.071C162.027 57.2783 161.95 56.737 161.892 56.447C160.635 58.8443 159.417 60.304 158.238 60.826C157.639 61.0967 156.943 61.232 156.15 61.232C155.357 61.232 154.739 60.855 154.294 60.101C153.869 59.3277 153.656 58.2063 153.656 56.737C153.656 55.2677 153.898 53.7307 154.381 52.126C154.864 50.502 155.57 49.139 156.498 48.037C157.426 46.9157 158.441 46.355 159.543 46.355C161.128 46.355 162.182 47.0123 162.704 48.327C163.149 49.4483 163.371 50.8887 163.371 52.648ZM156.266 51.72C155.995 52.764 155.792 53.7597 155.657 54.707C155.522 55.635 155.454 56.4663 155.454 57.201C155.454 57.9163 155.599 58.535 155.889 59.057C156.198 59.579 156.595 59.84 157.078 59.84C158.122 59.84 159.127 58.854 160.094 56.882C161.061 54.91 161.544 53.0733 161.544 51.372C161.544 50.27 161.254 49.3613 160.674 48.646C160.287 48.182 159.775 47.95 159.137 47.95C158.518 47.95 157.948 48.3173 157.426 49.052C156.923 49.7673 156.537 50.6567 156.266 51.72ZM178.138 37.771C177.404 44.4217 177.036 49.168 177.036 52.01C177.036 54.8327 177.297 57.6553 177.819 60.478C177.433 60.8647 177.094 61.058 176.804 61.058C176.514 61.058 176.273 61.0193 176.079 60.942C175.673 59.5113 175.432 57.955 175.354 56.273C174.89 57.0077 174.542 57.5297 174.31 57.839C174.098 58.1483 173.721 58.6027 173.179 59.202C172.193 60.362 171.024 60.942 169.67 60.942C168.646 60.942 167.901 60.4683 167.437 59.521C166.993 58.5543 166.77 57.3267 166.77 55.838C166.77 54.33 166.935 52.8993 167.263 51.546C167.611 50.1733 168.201 48.994 169.032 48.008C169.864 47.0027 170.888 46.5 172.106 46.5C172.841 46.5 173.518 46.6547 174.136 46.964C174.755 47.2733 175.18 47.689 175.412 48.211C175.451 47.689 175.49 46.8867 175.528 45.804C175.567 44.7213 175.606 43.7643 175.644 42.933C175.702 42.0823 175.789 41.222 175.905 40.352C176.118 38.496 176.592 37.568 177.326 37.568C177.578 37.568 177.848 37.6357 178.138 37.771ZM174.745 49.255C174.513 48.8297 174.194 48.5203 173.788 48.327C173.382 48.1143 172.841 48.008 172.164 48.008C171.507 48.008 170.888 48.385 170.308 49.139C169.168 50.6277 168.597 52.7833 168.597 55.606C168.597 56.5147 168.742 57.4233 169.032 58.332C169.322 59.2213 169.748 59.666 170.308 59.666C171.12 59.666 171.913 59.1343 172.686 58.071C173.46 57.0077 174.059 55.7897 174.484 54.417C174.91 53.025 175.122 51.778 175.122 50.676C175.122 50.154 174.997 49.6803 174.745 49.255ZM188.22 49.4C188.046 48.9553 187.718 48.6073 187.234 48.356C186.751 48.1047 186.152 47.979 185.436 47.979C184.721 47.979 184.044 48.1917 183.406 48.617C182.788 49.0423 182.478 49.6127 182.478 50.328C182.478 51.0433 182.768 51.6137 183.348 52.039C183.948 52.445 184.663 52.7543 185.494 52.967C186.345 53.1797 187.196 53.4117 188.046 53.663C188.897 53.895 189.612 54.2913 190.192 54.852C190.792 55.3933 191.091 56.1087 191.091 56.998C191.091 58.2933 190.55 59.2793 189.467 59.956C188.404 60.6327 187.118 60.971 185.61 60.971C184.721 60.971 183.551 60.7293 182.101 60.246C180.671 59.7627 179.955 59.1827 179.955 58.506C179.955 58.0033 180.381 57.752 181.231 57.752C181.483 57.752 181.811 57.9067 182.217 58.216C183.455 59.1247 184.721 59.579 186.016 59.579C186.712 59.579 187.312 59.463 187.814 59.231C188.742 58.7863 189.206 58.071 189.206 57.085C189.206 56.4857 188.907 56.0023 188.307 55.635C187.727 55.2677 187.012 54.9777 186.161 54.765C185.33 54.5523 184.489 54.3203 183.638 54.069C182.788 53.8177 182.063 53.402 181.463 52.822C180.883 52.2227 180.593 51.4687 180.593 50.56C180.593 49.3807 181.125 48.4237 182.188 47.689C183.252 46.9543 184.566 46.587 186.132 46.587C187.196 46.587 188.153 46.8673 189.003 47.428C189.873 47.9693 190.308 48.762 190.308 49.806C190.308 50.502 189.912 50.85 189.119 50.85C188.791 50.85 188.568 50.792 188.452 50.676C188.356 50.56 188.298 50.357 188.278 50.067C188.278 49.7577 188.259 49.5353 188.22 49.4ZM194.471 41.309C194.491 41.077 194.626 40.8933 194.877 40.758C195.129 40.6033 195.409 40.526 195.718 40.526C196.24 40.526 196.501 40.7193 196.501 41.106C196.463 46.8093 196.318 51.0917 196.066 53.953C196.047 54.1657 195.892 54.3493 195.602 54.504C195.332 54.6393 195.061 54.707 194.79 54.707C194.307 54.707 194.065 54.5137 194.065 54.127C194.336 51.285 194.471 47.0123 194.471 41.309ZM194.703 58.999C194.916 58.9603 195.167 58.941 195.457 58.941C195.767 58.941 196.086 59.057 196.414 59.289C196.743 59.521 196.907 59.84 196.907 60.246C196.907 60.652 196.695 61.0193 196.269 61.348C195.863 61.696 195.477 61.87 195.109 61.87C194.761 61.87 194.384 61.7347 193.978 61.464C193.572 61.2127 193.369 60.942 193.369 60.652C193.369 59.724 193.814 59.173 194.703 58.999Z" fill="black"/>
</svg>
