<svg xmlns="http://www.w3.org/2000/svg" xmlns:xlink="http://www.w3.org/1999/xlink" width="698.102" height="839.199" viewBox="0 0 698.102 839.199"><defs><style>.a{fill:#7c828b;}.b{fill:#c5ced6;}.c{fill:#414042;}.d{fill:#ec2146;}.aa,.e,.m,.n,.u{fill:#fff;}.f{fill:#d8d9da;}.g{fill:#e6e7e8;}.h{fill:#808285;}.i{fill:#58595b;}.j{fill:#b4b4b4;}.k{fill:#757575;}.l{fill:#9d9d9d;}.m{stroke:rgba(0,0,0,0);}.aa,.ac,.ad,.af,.ag,.n,.p{fill-rule:evenodd;}.o{opacity:0.501;}.ap,.p,.r,.v,.w{fill:#585858;}.q{opacity:0.501;}.r{font-size:14px;}.r,.w{font-family:SourceSansPro-Regular, Source Sans Pro;}.ab,.r,.t,.w,.y{letter-spacing:-0.009em;}.s{fill:#f7f7f7;}.ae,.t{font-size:17px;}.ab,.ae,.t{font-family:SourceSansPro-Bold, Source Sans Pro;font-weight:700;}.ab,.w,.y{font-size:13px;}.x,.z{fill:none;}.x{stroke:#585858;}.y{font-family:SourceSansPro-Light, Source Sans Pro;font-weight:300;}.z{stroke:#e6e6e6;}.aa{stroke:#e5e5e5;}.ac{fill:#d8d9d9;}.ad{fill:#ed1e45;}.ae{letter-spacing:0.02em;}.af{fill:#aaa;}.ag{fill:#e4e4e4;}.ah{fill:#0779d0;}.ai{fill:#d6d6d6;}.aj{fill:#ed1f45;}.ak{fill:#ffc400;}.al{fill:#0aad03;}.am{fill:#cfcfcf;}.an{fill:#818181;}.ao,.ap{stroke:none;}.aq{filter:url(#c);}.ar{filter:url(#a);}</style><filter id="a" x="37.466" y="213.258" width="327.14" height="65.698" filterUnits="userSpaceOnUse"><feOffset dy="4" input="SourceAlpha"/><feGaussianBlur stdDeviation="2" result="b"/><feFlood flood-opacity="0.051"/><feComposite operator="in" in2="b"/><feComposite in="SourceGraphic"/></filter><filter id="c" x="37.466" y="275.676" width="327.14" height="65.698" filterUnits="userSpaceOnUse"><feOffset dy="4" input="SourceAlpha"/><feGaussianBlur stdDeviation="2" result="d"/><feFlood flood-opacity="0.051"/><feComposite operator="in" in2="d"/><feComposite in="SourceGraphic"/></filter></defs><g transform="translate(-970.5 -154.8)"><g transform="translate(963.5 654.505)"><path class="a" d="M341.751,476.834H238.3l5.938-44.534h92.433Z" transform="translate(-78.526 -144.803)"/><path class="b" d="M7.5,375.8v27.512a10.165,10.165,0,0,0,10.16,10.16H405.34a10.165,10.165,0,0,0,10.16-10.16V375.8Z" transform="translate(0 -125.58)"/><path class="c" d="M415.5,16.86A10.165,10.165,0,0,0,405.34,6.7H17.66A10.165,10.165,0,0,0,7.5,16.86V250.22h408Z"/><rect class="d" width="379.234" height="216.47" transform="translate(21.883 20.225)"/><path class="d" d="M194.691,175.051,180.44,160.8H160.251L146,175.051V195.24l14.251,14.251H180.44l14.251-14.251V175.051Z" transform="translate(48.878 -56.43)"/><path class="e" d="M178.128,158.454l14.251,14.251v20.189l-14.251,14.251H157.939l-14.185-14.251V172.705l14.251-14.251h20.123m1.847-4.354H156.224L139.4,170.924v23.752L156.224,211.5h23.752L196.8,194.676V170.924Z" transform="translate(51.123 -54.15)"/><g transform="translate(195.538 118.291)"><path class="e" d="M157.424,197.273H152.08l-1.056,4.75H147l5.476-20.123h4.75l5.476,20.123h-4.157Zm-.792-3.563-.4-1.847c-.264-.99-.462-2.111-.726-3.233-.2-1.122-.462-2.243-.726-3.3h-.132c-.2,1.056-.462,2.177-.66,3.3s-.462,2.177-.726,3.167l-.4,1.847h3.761Z" transform="translate(-147 -181.9)"/><path class="e" d="M174.466,182h6a15.441,15.441,0,0,1,2.507.2,5.99,5.99,0,0,1,2.045.792,4.347,4.347,0,0,1,1.386,1.517,5.938,5.938,0,0,1,.264,3.827,4.217,4.217,0,0,1-.528,1.254,4.619,4.619,0,0,1-.924,1.056,3.55,3.55,0,0,1-1.32.66v.132a4.2,4.2,0,0,1,3.761,4.684,5.908,5.908,0,0,1-.528,2.639,5.64,5.64,0,0,1-1.451,1.847,6.67,6.67,0,0,1-2.177,1.056,7.263,7.263,0,0,1-2.639.33H174.4L174.466,182Zm5.74,8.115a3,3,0,0,0,2.111-.66,2.491,2.491,0,0,0,.66-1.781,1.972,1.972,0,0,0-.66-1.649,3.146,3.146,0,0,0-2.045-.462h-1.847v4.618Zm.4,8.445c2.177,0,3.233-.924,3.233-2.771a2.322,2.322,0,0,0-.792-1.913,3.969,3.969,0,0,0-2.441-.594h-2.243v5.278Z" transform="translate(-156.322 -181.934)"/><path class="e" d="M198.666,182h6.4a11.562,11.562,0,0,1,2.639.33,6.67,6.67,0,0,1,2.177,1.056,5.314,5.314,0,0,1,1.451,1.979,7.034,7.034,0,0,1,.528,3.035,7.741,7.741,0,0,1-.528,3.035,5.949,5.949,0,0,1-1.517,2.111,7.2,7.2,0,0,1-2.177,1.254,8.817,8.817,0,0,1-2.639.4h-2.441v6.8H198.6V182Zm6.136,9.7a2.923,2.923,0,0,0,3.233-2.375,1.608,1.608,0,0,0,0-.792,2.79,2.79,0,0,0-.792-2.243,3.826,3.826,0,0,0-2.375-.66h-2.177v6.07Z" transform="translate(-164.556 -181.934)"/></g><path class="f" d="M179.48,155.288l16.164,16.164V194.28L179.48,210.444H156.652L140.488,194.28V171.452l16.164-16.164H179.48m.462-1.188H156.124L139.3,170.924v23.752L156.124,211.5h23.752L196.7,194.676V170.924L179.942,154.1Z" transform="translate(51.157 -54.15)"/><path class="b" d="M228.91,499.8H332.361l18.21,4.288L210.7,504.22Z" transform="translate(-69.135 -167.769)"/><path class="a" d="M349.615,508.675H211.658l-.858-2.243,139.8-.132Z" transform="translate(-69.169 -169.98)"/><path class="c" d="M320.215,402.457a7.257,7.257,0,1,1-7.257-7.257A7.237,7.237,0,0,1,320.215,402.457Z" transform="translate(-101.457 -132.18)"/></g><g transform="translate(1017.5 875.118)"><path class="c" d="M56.5,110.059a8.869,8.869,0,0,1-8.823,8.823H8.823A8.819,8.819,0,0,1,0,110.059V8.823A8.819,8.819,0,0,1,8.823,0H47.677A8.869,8.869,0,0,1,56.5,8.823Z"/><rect class="g" width="48.218" height="86.917" transform="translate(4.179 16.253)"/><path class="h" d="M39.295,141.147a3.947,3.947,0,1,1-3.947-3.947A3.964,3.964,0,0,1,39.295,141.147Z" transform="translate(-7.097 -31.011)"/><path class="i" d="M39.152,13.459a1.19,1.19,0,0,1-1.161,1.161h-7.43A1.19,1.19,0,0,1,29.4,13.459h0A1.19,1.19,0,0,1,30.561,12.3h7.43a1.1,1.1,0,0,1,1.161,1.161Z" transform="translate(-6.645 -2.778)"/></g><g transform="translate(1097.742 816.633)"><g transform="translate(0 0)"><path class="j" d="M331.926,242.808l-2.934,2.785L270.94,401.608H466.05l55.536-151.973a6.965,6.965,0,0,0-6.544-9.361H339.888Z" transform="translate(-142.759 -240.274)"/><path d="M329.207,242.739l-2.8,2.709L270.94,397.241H457.35l53.06-147.859a6.761,6.761,0,0,0-6.253-9.107H336.814Z" transform="translate(-138.489 -235.907)"/><path class="j" d="M372.633,240.274h-1.969a11.968,11.968,0,0,0-11.237,7.833l-56.609,153.5H312.6Z" transform="translate(-175.422 -240.274)"/><path d="M372.633,240.274h-1.969a11.958,11.958,0,0,0-11.237,7.621L302.819,397.241H312.6Z" transform="translate(-171.152 -235.907)"/><path class="k" d="M0,0H128a0,0,0,0,1,0,0V13.194a2.35,2.35,0,0,1-2.35,2.35H0a0,0,0,0,1,0,0V0A0,0,0,0,1,0,0Z" transform="translate(194.752 161.336)"/><path class="l" d="M507.588,282.741H324.645c-6.519,0-11.809-3.476-11.809-7.773h0c0-4.291,5.29-7.773,11.809-7.773H507.588Z" transform="translate(-312.836 -105.861)"/><path class="e" d="M42.7,13.1.046,22.174S-2.013,3.643,21.35.3C39.788-2.339,42.7,13.1,42.7,13.1Z" transform="matrix(-0.978, -0.208, 0.208, -0.978, 256.187, 141.025)"/></g></g><g transform="translate(1074 262.3)"><path class="m" d="M-7122.02-1492.617H-7463a5,5,0,0,1-5-5V-1954.3a5,5,0,0,1,5-5h376a5,5,0,0,1,5,5v456.682a5,5,0,0,1-5,5h-6.328l-.376,28.316Z" transform="translate(7365 1852.3)"/><g transform="translate(-77.431 -92.8)"><g transform="translate(0.5 0.5)"><g transform="translate(0)"><path class="n" d="M3.593-.5H344.337a4.105,4.105,0,0,1,4.093,4.093V435.407a4.105,4.105,0,0,1-4.093,4.093H3.593A4.105,4.105,0,0,1-.5,435.407V3.593A4.105,4.105,0,0,1,3.593-.5Z" transform="translate(0.5 0.5)"/><g transform="translate(26.605 402.753)"><g transform="translate(0 0)"><g class="o" transform="translate(253.351)"><path class="p" d="M11.765,14.133c-.614,1.023-1.33,1.944-2.456,1.944-1.023,0-1.433-.614-2.558-.614-1.228,0-1.535.614-2.558.614S2.351,15.054,1.737,14.03C.407,12.086-.616,8.4.714,5.947A3.891,3.891,0,0,1,3.989,3.9c1.023,0,1.944.716,2.558.716S8.286,3.8,9.514,3.9a3.5,3.5,0,0,1,2.865,1.637,3.534,3.534,0,0,0-1.74,3.07,3.4,3.4,0,0,0,2.149,3.274,4.576,4.576,0,0,1-1.023,2.251Z" transform="translate(-0.093 -0.012)"/><path class="p" d="M7.119,1.328A3.35,3.35,0,0,1,9.472.1a3.67,3.67,0,0,1-.819,2.558A2.651,2.651,0,0,1,6.3,3.784,3.412,3.412,0,0,1,7.119,1.328Z" transform="translate(0.051 -0.1)"/></g><g class="q" transform="translate(282.93 0.833)"><path class="p" d="M2.66,12.281A.7.7,0,0,0,3.377,13h.716v2.353a.967.967,0,0,0,1.023,1.023A.967.967,0,0,0,6.14,15.351V13H7.47v2.353a.967.967,0,0,0,1.023,1.023.967.967,0,0,0,1.023-1.023V13h.614c.409,0,.614-.307.614-.716V5.425H2.66v6.856ZM1.023,5.425A1.025,1.025,0,0,0,0,6.449v4.809a.967.967,0,0,0,1.023,1.023.967.967,0,0,0,1.023-1.023V6.449A1.1,1.1,0,0,0,1.023,5.425Zm11.256,0a1.025,1.025,0,0,0-1.023,1.023v4.809a.967.967,0,0,0,1.023,1.023A1.025,1.025,0,0,0,13.3,11.258V6.449a1.025,1.025,0,0,0-1.023-1.023ZM9,1.435,9.823.514a.457.457,0,0,0,0-.512c-.1-.2-.307,0-.409.1L8.391,1.128A3.363,3.363,0,0,0,6.651.718a4.821,4.821,0,0,0-1.74.409L3.888.1a.457.457,0,0,0-.512,0,.457.457,0,0,0,0,.512l.921.921A3.977,3.977,0,0,0,2.66,4.811h7.981A4.171,4.171,0,0,0,9,1.435ZM5.321,3.379H4.707V2.765h.614v.614Zm3.274,0H7.981V2.765H8.6v.614Z" transform="translate(0 0.086)"/></g><text class="r" transform="translate(0 0.409)"><tspan x="0" y="14">Interested in Adblock Plus on mobile?</tspan></text></g></g><g transform="translate(0.512 78.791)"><g transform="translate(0 0)"><g transform="translate(0 73.504)"><rect class="s" width="347.907" height="232.04"/></g><text class="t" transform="translate(15.86 0)"><tspan x="0" y="17">Block ads on:</tspan></text></g><g transform="translate(17.395 200.558)"><g transform="translate(32.233 0)"><g transform="translate(0 66.512)"><g class="u" transform="translate(0 2.047)"><path class="ao" d="M 12.42610454559326 10.75581645965576 L 0.8762204051017761 10.75581645965576 L 6.651162624359131 0.9828282594680786 L 12.42610454559326 10.75581645965576 Z"/><path class="ap" d="M 6.651162624359131 1.965686798095703 L 1.752453804016113 10.25581645965576 L 11.54987144470215 10.25581645965576 L 6.651162624359131 1.965686798095703 M 6.651162624359131 -2.86102294921875e-06 L 13.30232238769531 11.25581645965576 L 2.86102294921875e-06 11.25581645965576 L 6.651162624359131 -2.86102294921875e-06 Z"/></g><g transform="translate(6.14 6.14)"><rect class="v" width="1.023" height="3.07" transform="translate(0)"/><rect class="v" width="1.023" height="1.023" transform="translate(0 4.093)"/></g><text class="w" transform="translate(21.488 0)"><tspan x="0" y="13">Report issue</tspan></text></g><g transform="translate(152.465 66.512)"><g transform="translate(0 2.047)"><circle class="x" cx="5.628" cy="5.628" r="5.628"/><path class="x" d="M10.186,2,2,10.186" transform="translate(-0.465 -0.465)"/></g><text class="w" transform="translate(19.442 0)"><tspan x="0" y="13">Block element</tspan></text></g><text class="y" transform="translate(40.93)"><tspan x="0" y="13">in total</tspan></text></g><line class="z" y2="32.744" transform="translate(0 57.814)"/><line class="z" y2="32.744" transform="translate(158.605 57.814)"/><line class="z" y2="32.744" transform="translate(313.116 57.814)"/></g><g transform="translate(16.884 91.07)"><g transform="translate(0 30.698)"><g class="ar" transform="matrix(1, 0, 0, 1, -43.97, -215.76)"><path class="aa" d="M4.593.5H310.547a4.315,4.315,0,0,1,4.093,4.485V48.713a4.315,4.315,0,0,1-4.093,4.485H4.593A4.315,4.315,0,0,1,.5,48.713V4.985A4.315,4.315,0,0,1,4.593.5Z" transform="translate(43.47 215.26)"/></g></g><g transform="translate(0 93.116)"><g class="aq" transform="matrix(1, 0, 0, 1, -43.97, -278.18)"><path class="aa" d="M4.593.5H310.547a4.315,4.315,0,0,1,4.093,4.485V48.713a4.315,4.315,0,0,1-4.093,4.485H4.593A4.315,4.315,0,0,1,.5,48.713V4.985A4.315,4.315,0,0,1,4.593.5Z" transform="translate(43.47 277.68)"/></g></g><text class="t" transform="translate(1.023)"><tspan x="0" y="17">Number of items blocked</tspan></text></g><text class="y" transform="translate(53.721 138.14)"><tspan x="0" y="13">on this page</tspan></text><text class="y" transform="translate(90.558 200.558)"><tspan x="0" y="13">in total</tspan></text><text class="ab" transform="translate(35.302 138.14)"><tspan x="0" y="13">5</tspan></text><text class="ab" transform="translate(35.302 200.558)"><tspan x="0" y="13">977,766</tspan></text><line class="z" x2="347.907" transform="translate(0 305.442)"/></g><g transform="translate(16.884 17.907)"><path class="ac" d="M7.163,0,0,7.163V17.191l7.163,7.163H17.191l7.163-7.163V7.163L17.191,0Z"/><path class="n" d="M7.158.2.2,7.158V17.186l6.958,7.06H17.186l7.06-7.06V7.158L17.186.2Z" transform="translate(0.005 0.005)"/><path class="ad" d="M7.644,23.1,1.3,16.649v-9L7.644,1.3h9L23.1,7.644v9L16.649,23.1Z" transform="translate(0.03 0.03)"/><path class="n" d="M6.193,12.612l-.2-.819c-.1-.409-.2-.921-.307-1.33-.1-.512-.2-.921-.307-1.33h0c-.1.409-.2.921-.307,1.33-.1.512-.2.921-.307,1.33l-.2.819ZM6.5,14.147H4.249L3.84,16.193H2.1L4.453,7.7H6.5l2.251,8.493H7.012Z" transform="translate(0.049 0.179)"/><path class="n" d="M12.26,14.66c.921,0,1.33-.409,1.33-1.126a1.007,1.007,0,0,0-.307-.819,1.534,1.534,0,0,0-1.023-.2H11.34v2.251h.921Zm-.2-3.581a1.251,1.251,0,0,0,.921-.307.989.989,0,0,0,0-1.433,2.043,2.043,0,0,0-.921-.2h-.819v1.944ZM9.6,7.6h2.558a4.2,4.2,0,0,1,1.126.1,7.05,7.05,0,0,1,.819.307l.614.614a3.027,3.027,0,0,1,.2,1.023,1.3,1.3,0,0,1-.1.614.782.782,0,0,1-.2.512.8.8,0,0,1-.409.409c-.2.1-.307.2-.512.307v.1a2.334,2.334,0,0,1,1.228.614,1.887,1.887,0,0,1,.409,1.33,3.679,3.679,0,0,1-.2,1.126,1.591,1.591,0,0,1-.614.819,3.635,3.635,0,0,1-.921.409,3.837,3.837,0,0,1-1.126.1H9.6Z" transform="translate(0.223 0.177)"/><path class="n" d="M18.86,11.693c.921,0,1.33-.409,1.33-1.33a1.251,1.251,0,0,0-.307-.921,1.528,1.528,0,0,0-1.023-.307H17.94v2.558ZM16.2,7.6h2.66a3.837,3.837,0,0,1,1.126.1,3.635,3.635,0,0,1,.921.409,1.591,1.591,0,0,1,.614.819,4.541,4.541,0,0,1,.2,1.33,5.184,5.184,0,0,1-.2,1.33,3.571,3.571,0,0,1-.614.921,4.148,4.148,0,0,1-.921.512,3.679,3.679,0,0,1-1.126.2H17.837V16.2H16.2Z" transform="translate(0.377 0.177)"/><text class="ae" transform="translate(29.163 0.512)"><tspan x="0" y="17">Adblock Plus</tspan></text></g><g transform="translate(313.663 20.977)"><g transform="translate(0)"><path class="af" d="M8.185,12.381a3.174,3.174,0,0,0,2.456-1.023A3.394,3.394,0,0,0,11.664,8.8a3.394,3.394,0,0,0-1.023-2.558A3.326,3.326,0,0,0,8.185,5.219a3.091,3.091,0,0,0-2.456.921A3.827,3.827,0,0,0,4.706,8.7a3.394,3.394,0,0,0,1.023,2.558A3.438,3.438,0,0,0,8.185,12.381Zm6.242-2.865,1.74,1.433c.2.1.2.307.1.614l-1.74,3.07c-.1.2-.307.2-.512.2l-2.047-.819a4.2,4.2,0,0,1-1.433.819l-.307,2.149c0,.307-.1.409-.307.409H6.446c-.2,0-.307-.1-.307-.409l-.307-2.251A10.225,10.225,0,0,1,4.4,13.916l-2.047.819a.374.374,0,0,1-.512-.2L.1,11.46c-.1-.1-.1-.307.1-.512l1.74-1.433V7.879L.2,6.447a.482.482,0,0,1-.1-.614l1.74-3.07c0-.1.2-.2.409-.1L4.3,3.479A4.2,4.2,0,0,1,5.729,2.66L6.139.409c0-.307.1-.409.307-.409H9.822c.307,0,.409.1.409.409l.307,2.251a10.225,10.225,0,0,1,1.433.819l2.047-.819a.374.374,0,0,1,.512.2l1.74,3.07c.1.1.1.307-.1.512l-1.74,1.433V9.516Z" transform="translate(-0.034)"/></g></g><g transform="translate(16.986 83.395)"><path class="v" d="M.1,35.233V25H1.226v4.2a7.169,7.169,0,0,1,1.023-.819,2.832,2.832,0,0,1,1.33-.307,1.908,1.908,0,0,1,1.637.716,3.519,3.519,0,0,1,.512,2.047v4.4H4.5v-4.3A2.71,2.71,0,0,0,4.193,29.5a1.078,1.078,0,0,0-1.023-.409,1.251,1.251,0,0,0-.921.307,5.872,5.872,0,0,0-.921.819v5.014Zm10.028.2a2.043,2.043,0,0,1-.921-.2,2.713,2.713,0,0,1-.614-.512A.929.929,0,0,1,8.286,34a2.833,2.833,0,0,1-.1-.921V29.2H7.16v-.921H8.184l.1-1.944H9.309v1.944h1.944V29.2H9.309v3.888a3.027,3.027,0,0,0,.2,1.023,1.007,1.007,0,0,0,.819.307.615.615,0,0,0,.409-.1c.1,0,.307-.1.409-.1l.2.921c-.1.1-.307.1-.512.2A1.741,1.741,0,0,1,10.128,35.437Zm4.6,0a2.043,2.043,0,0,1-.921-.2,2.713,2.713,0,0,1-.614-.512A.929.929,0,0,1,12.891,34a2.833,2.833,0,0,1-.1-.921V29.2H11.765v-.921l1.126-.1.1-1.944h1.023v1.944h1.842v.921H14.016v3.888a3.027,3.027,0,0,0,.2,1.023,1.007,1.007,0,0,0,.819.307.615.615,0,0,0,.409-.1c.1,0,.307-.1.409-.1l.2.921a3.714,3.714,0,0,1-.716.307A1.3,1.3,0,0,1,14.733,35.437ZM17.291,38.2V28.274h1.023l.1.819h0a3.675,3.675,0,0,1,1.023-.716,2.725,2.725,0,0,1,1.228-.307,5.136,5.136,0,0,1,1.228.2,1.42,1.42,0,0,1,.819.716,3.783,3.783,0,0,1,.512,1.126,6.039,6.039,0,0,1,.2,1.433,6.193,6.193,0,0,1-.2,1.535,13.7,13.7,0,0,1-.614,1.228,2.821,2.821,0,0,1-.921.716,2.2,2.2,0,0,1-1.126.2,2.988,2.988,0,0,1-.921-.2,2.416,2.416,0,0,1-.921-.614V38H17.291Zm2.967-3.786a2.408,2.408,0,0,0,.819-.2c.307-.1.409-.307.614-.512a2.057,2.057,0,0,0,.409-.819,3.837,3.837,0,0,0,.1-1.126,3.154,3.154,0,0,0-.1-1.023,7.05,7.05,0,0,0-.307-.819,1.048,1.048,0,0,0-.614-.512,1.928,1.928,0,0,0-.819-.2,2.988,2.988,0,0,0-.921.2,5.623,5.623,0,0,0-.921.716V33.8a4.8,4.8,0,0,0,.921.614A2.2,2.2,0,0,1,20.258,34.414Zm6.856,1.023a3.611,3.611,0,0,1-1.433-.307,3.048,3.048,0,0,1-1.126-.716l.614-.819.921.614a3.679,3.679,0,0,0,1.126.2,1.528,1.528,0,0,0,1.023-.307,1.162,1.162,0,0,0,.307-.819.922.922,0,0,0-.1-.512,1.413,1.413,0,0,0-.409-.307,2.237,2.237,0,0,0-.512-.307l-.614-.2c-.2-.1-.512-.2-.716-.307a2.565,2.565,0,0,1-.716-.409l-.512-.512a1.9,1.9,0,0,1-.2-.716,2.408,2.408,0,0,1,.2-.819c.1-.307.307-.409.512-.614a1.649,1.649,0,0,1,.716-.409,3.155,3.155,0,0,1,1.023-.1,5.136,5.136,0,0,1,1.228.2,1.979,1.979,0,0,1,.921.512l-.512.716a2.565,2.565,0,0,0-.716-.409,2.408,2.408,0,0,0-.819-.2,1.251,1.251,0,0,0-.921.307.929.929,0,0,0-.307.716c0,.2,0,.307.1.409l.307.307a.782.782,0,0,0,.512.2c.2.1.409.1.614.2s.512.2.716.307a2.565,2.565,0,0,1,.716.409c.2.2.409.307.512.614a1.928,1.928,0,0,1,.2.819,2.408,2.408,0,0,1-.2.819,1.048,1.048,0,0,1-.512.614,2.057,2.057,0,0,1-.819.409A3.666,3.666,0,0,1,27.114,35.437Zm4.809-5.219a1.454,1.454,0,0,1-.614-.2c-.2-.1-.2-.409-.2-.614a1.479,1.479,0,0,1,.2-.716.752.752,0,0,1,.614-.2,1.454,1.454,0,0,1,.614.2,1.178,1.178,0,0,1,0,1.33A1.1,1.1,0,0,1,31.923,30.219Zm0,5.219a1.454,1.454,0,0,1-.614-.2c-.2-.1-.2-.409-.2-.614a1.479,1.479,0,0,1,.2-.716.752.752,0,0,1,.614-.2,1.454,1.454,0,0,1,.614.2,1.178,1.178,0,0,1,0,1.33A1.1,1.1,0,0,1,31.923,35.437Zm1.944,2.047L37.653,25h.819L34.686,37.484Zm5.014,0L42.667,25h.819L39.7,37.484Zm8.391-2.047a5.184,5.184,0,0,1-1.33-.2,3.675,3.675,0,0,1-1.023-.716,4.225,4.225,0,0,1-.716-1.126,3.991,3.991,0,0,1,0-3.07,4.225,4.225,0,0,1,.716-1.126,3.675,3.675,0,0,1,1.023-.716,2.2,2.2,0,0,1,1.126-.2,5.136,5.136,0,0,1,1.228.2,4.805,4.805,0,0,1,.921.614,1.635,1.635,0,0,1,.512,1.023,5.185,5.185,0,0,1,.2,1.33v.716H45.226a2.469,2.469,0,0,0,.716,1.74,2.16,2.16,0,0,0,1.637.614,2.833,2.833,0,0,0,.921-.1A3.064,3.064,0,0,0,49.319,34l.409.819a3.2,3.2,0,0,1-1.023.512A6.293,6.293,0,0,1,47.272,35.437Zm-2.149-4.2h3.684A2.6,2.6,0,0,0,48.4,29.6a1.377,1.377,0,0,0-1.228-.512,1.741,1.741,0,0,0-.716.1,2.141,2.141,0,0,0-.614.409,1.649,1.649,0,0,0-.409.716A1.251,1.251,0,0,0,45.123,31.242Zm5.321,3.991L52.7,31.549l-2.149-3.274h1.228l.921,1.535.307.614.307.614h.1l.307-.614.307-.614.819-1.535h1.433L54.23,31.753l2.251,3.479H55.253L54.23,33.6l-.409-.614a2.141,2.141,0,0,0-.409-.614h-.1a2.14,2.14,0,0,1-.409.614l-.307.614-.921,1.637Zm8.9.2a2.218,2.218,0,0,1-1.433-.512,1.717,1.717,0,0,1-.614-1.433,1.9,1.9,0,0,1,1.023-1.74,7.553,7.553,0,0,1,3.274-.819,1.3,1.3,0,0,0-.1-.614.782.782,0,0,0-.2-.512.8.8,0,0,0-.409-.409.934.934,0,0,0-.819-.307,3.679,3.679,0,0,0-1.126.2,2.683,2.683,0,0,0-.921.512l-.409-.819a6.813,6.813,0,0,1,1.228-.614,4.106,4.106,0,0,1,1.535-.307,2.248,2.248,0,0,1,1.842.819,3.247,3.247,0,0,1,.614,2.047v4.3H61.8l-.1-.819h0a6.212,6.212,0,0,1-1.023.716A3.533,3.533,0,0,1,59.347,35.437Zm.307-1.023a2.988,2.988,0,0,0,.921-.2,5.624,5.624,0,0,0,.921-.716V31.549c-.614.1-1.023.2-1.433.307a1.928,1.928,0,0,0-.921.409,1.233,1.233,0,0,0-.512.512,1.454,1.454,0,0,0-.2.614c0,.409.1.716.409.819A1.1,1.1,0,0,0,59.653,34.414Zm5.219.819V28.274H65.9L66,29.3h0a4.007,4.007,0,0,1,1.023-.819,2.063,2.063,0,0,1,1.126-.307,2.182,2.182,0,0,1,1.228.307,2.024,2.024,0,0,1,.716,1.023,4.461,4.461,0,0,1,1.126-.921,2.507,2.507,0,0,1,1.228-.409,1.908,1.908,0,0,1,1.637.716,3.519,3.519,0,0,1,.512,2.047v4.3H73.467v-4.3A2.71,2.71,0,0,0,73.16,29.5a1.078,1.078,0,0,0-1.023-.409,2.309,2.309,0,0,0-1.74,1.126v5.014H69.272v-4.3a2.71,2.71,0,0,0-.307-1.433,1.078,1.078,0,0,0-1.023-.409,2.309,2.309,0,0,0-1.74,1.126v5.014ZM76.742,38.2V28.274h1.023l.1.819h0a3.675,3.675,0,0,1,1.023-.716,2.725,2.725,0,0,1,1.228-.307,5.136,5.136,0,0,1,1.228.2,1.42,1.42,0,0,1,.819.716,3.783,3.783,0,0,1,.512,1.126,6.04,6.04,0,0,1,.2,1.433,6.194,6.194,0,0,1-.2,1.535,13.7,13.7,0,0,1-.614,1.228,2.821,2.821,0,0,1-.921.716,3.678,3.678,0,0,1-1.126.2,2.988,2.988,0,0,1-.921-.2,2.416,2.416,0,0,1-.921-.614V38H76.742Zm2.967-3.786a2.408,2.408,0,0,0,.819-.2c.307-.1.409-.307.614-.512a2.057,2.057,0,0,0,.409-.819,3.837,3.837,0,0,0,.1-1.126,3.155,3.155,0,0,0-.1-1.023,7.049,7.049,0,0,0-.307-.819,1.048,1.048,0,0,0-.614-.512c-.307-.1-.512-.307-.819-.307a2.988,2.988,0,0,0-.921.2,5.623,5.623,0,0,0-.921.716V33.7a4.805,4.805,0,0,0,.921.614C79.2,34.312,79.4,34.414,79.709,34.414Zm6.242,1.023c-.409,0-.819-.1-.921-.409a1.838,1.838,0,0,1-.307-1.126V25h1.228v8.9c0,.2,0,.307.1.409s.1.1.2.1h.2l.2.921c-.1,0-.2.1-.307.1Zm5.219,0a5.184,5.184,0,0,1-1.33-.2,2.339,2.339,0,0,1-1.023-.716,4.225,4.225,0,0,1-.716-1.126,3.991,3.991,0,0,1,0-3.07,4.225,4.225,0,0,1,.716-1.126,3.675,3.675,0,0,1,1.023-.716,2.2,2.2,0,0,1,1.126-.2,5.136,5.136,0,0,1,1.228.2,4.805,4.805,0,0,1,.921.614,1.635,1.635,0,0,1,.512,1.023,5.184,5.184,0,0,1,.2,1.33v.716H89.021a2.469,2.469,0,0,0,.716,1.74,2.16,2.16,0,0,0,1.637.614,2.833,2.833,0,0,0,.921-.1A3.064,3.064,0,0,0,93.114,34l.409.819a3.2,3.2,0,0,1-1.023.512C92.091,35.335,91.681,35.437,91.17,35.437Zm-2.149-4.2H92.7A2.6,2.6,0,0,0,92.3,29.6a1.377,1.377,0,0,0-1.228-.512,1.741,1.741,0,0,0-.716.1,2.141,2.141,0,0,0-.614.409,1.649,1.649,0,0,0-.409.716A2.445,2.445,0,0,0,89.021,31.242Zm8.9,4.2a2.787,2.787,0,0,1-2.149-.921,4.127,4.127,0,0,1-.819-2.66,6.962,6.962,0,0,1,.2-1.535,4.226,4.226,0,0,1,.716-1.126,5.624,5.624,0,0,1,.921-.716,2.332,2.332,0,0,1,1.126-.307,3.027,3.027,0,0,1,1.023.2,2.416,2.416,0,0,1,.921.614l-.1-1.228V25h1.228V35.233H99.97l-.1-.819h0a5.623,5.623,0,0,1-.921.716A1.729,1.729,0,0,1,97.923,35.437Zm.2-1.023a2.988,2.988,0,0,0,.921-.2,2.759,2.759,0,0,0,.819-.716V29.809c-.307-.307-.614-.409-.819-.614a2.253,2.253,0,0,0-.819-.1,2.408,2.408,0,0,0-.819.2,2.713,2.713,0,0,0-.614.512,2.057,2.057,0,0,0-.409.819,3.679,3.679,0,0,0-.2,1.126A3.389,3.389,0,0,0,96.7,33.7,1.548,1.548,0,0,0,98.128,34.414Zm7.981,1.023a5.136,5.136,0,0,1-1.228-.2,3.675,3.675,0,0,1-1.023-.716,4.225,4.225,0,0,1-.716-1.126,3.991,3.991,0,0,1,0-3.07,4.226,4.226,0,0,1,.716-1.126,3.675,3.675,0,0,1,1.023-.716,2.6,2.6,0,0,1,1.228-.2,5.136,5.136,0,0,1,1.228.2,3.675,3.675,0,0,1,1.023.716,4.225,4.225,0,0,1,.716,1.126,3.991,3.991,0,0,1,0,3.07,4.226,4.226,0,0,1-.716,1.126,3.675,3.675,0,0,1-1.023.716A3.816,3.816,0,0,1,106.109,35.437Zm0-1.023a1.928,1.928,0,0,0,.819-.2,1.5,1.5,0,0,0,.614-.512,6.077,6.077,0,0,0,.409-.819,3.837,3.837,0,0,0,.1-1.126,4.2,4.2,0,0,0-.1-1.126,2.057,2.057,0,0,0-.409-.819,2.713,2.713,0,0,0-.614-.512,1.74,1.74,0,0,0-1.637,0,1.5,1.5,0,0,0-.614.512,2.057,2.057,0,0,0-.409.819,3.837,3.837,0,0,0-.1,1.126,4.2,4.2,0,0,0,.1,1.126,2.057,2.057,0,0,0,.409.819,2.713,2.713,0,0,0,.614.512A2.408,2.408,0,0,0,106.109,34.414Zm5.116.819V28.274h1.023l.1,1.023h0a4.006,4.006,0,0,1,1.023-.819,2.332,2.332,0,0,1,1.126-.307,2.182,2.182,0,0,1,1.228.307,2.024,2.024,0,0,1,.716,1.023,4.461,4.461,0,0,1,1.126-.921,2.507,2.507,0,0,1,1.228-.409,1.908,1.908,0,0,1,1.637.716,3.519,3.519,0,0,1,.512,2.047v4.3h-1.126v-4.3a2.71,2.71,0,0,0-.307-1.433,1.078,1.078,0,0,0-1.023-.409,2.309,2.309,0,0,0-1.74,1.126v5.014h-1.126v-4.3a2.71,2.71,0,0,0-.307-1.433,1.078,1.078,0,0,0-1.023-.409,2.309,2.309,0,0,0-1.74,1.126v5.014Zm13.507.2a2.218,2.218,0,0,1-1.433-.512,1.717,1.717,0,0,1-.614-1.433,1.9,1.9,0,0,1,1.023-1.74,7.553,7.553,0,0,1,3.274-.819,1.3,1.3,0,0,0-.1-.614.782.782,0,0,0-.2-.512.8.8,0,0,0-.409-.409,1.517,1.517,0,0,0-.716-.1,3.678,3.678,0,0,0-1.126.2,2.683,2.683,0,0,0-.921.512L123.1,29.2a6.813,6.813,0,0,1,1.228-.614,4.106,4.106,0,0,1,1.535-.307,2.248,2.248,0,0,1,1.842.819,3.247,3.247,0,0,1,.614,2.047v4.093h-1.023l-.1-.819h0a6.212,6.212,0,0,1-1.023.716A3.268,3.268,0,0,1,124.733,35.437Zm.307-1.023a2.988,2.988,0,0,0,.921-.2,5.624,5.624,0,0,0,.921-.716V31.549c-.614.1-1.023.2-1.433.307a1.928,1.928,0,0,0-.921.409,1.233,1.233,0,0,0-.512.512,1.454,1.454,0,0,0-.2.614c0,.409.1.716.307.819A1.521,1.521,0,0,0,125.04,34.414Zm5.321.819V28.274h1.126v6.958Zm.512-8.391a1.454,1.454,0,0,1-.614-.2c-.2-.1-.2-.307-.2-.512a.782.782,0,0,1,.2-.512.865.865,0,0,1,.614-.2,1.454,1.454,0,0,1,.614.2c.2.1.2.307.2.512a.782.782,0,0,1-.2.512A.865.865,0,0,1,130.872,26.842Zm2.967,8.391V28.274h1.023l.1,1.023h0a7.169,7.169,0,0,1,1.023-.819,2.832,2.832,0,0,1,1.33-.307,1.908,1.908,0,0,1,1.637.716,3.519,3.519,0,0,1,.512,2.047v4.3h-1.126v-4.3a2.71,2.71,0,0,0-.307-1.433,1.078,1.078,0,0,0-1.023-.409,1.251,1.251,0,0,0-.921.307,3.315,3.315,0,0,0-.921.819v5.014Zm8.493.2a1.454,1.454,0,0,1-.614-.2c-.2-.1-.2-.409-.2-.614a1.479,1.479,0,0,1,.2-.716.752.752,0,0,1,.614-.2,1.454,1.454,0,0,1,.614.2,1.178,1.178,0,0,1,0,1.33A1.454,1.454,0,0,1,142.333,35.437Zm5.526,0a5.989,5.989,0,0,1-1.33-.2,3.675,3.675,0,0,1-1.023-.716,4.225,4.225,0,0,1-.716-1.126,3.5,3.5,0,0,1-.2-1.535,3.417,3.417,0,0,1,.307-1.535,4.225,4.225,0,0,1,.716-1.126,3.675,3.675,0,0,1,1.023-.716,2.809,2.809,0,0,1,1.33-.2,3.679,3.679,0,0,1,1.126.2,2.463,2.463,0,0,1,.819.614l-.614.819a2.14,2.14,0,0,0-.614-.409,1.9,1.9,0,0,0-.716-.2,2.988,2.988,0,0,0-.921.2,1.835,1.835,0,0,0-.716.512,2.057,2.057,0,0,0-.409.819,3.678,3.678,0,0,0-.2,1.126,4.352,4.352,0,0,0,.2,1.126,2.057,2.057,0,0,0,.409.819,1.835,1.835,0,0,0,.716.512,2.444,2.444,0,0,0,.921.2,2.988,2.988,0,0,0,.921-.2,1.835,1.835,0,0,0,.716-.512l.512.819a2.123,2.123,0,0,1-1.023.614C148.677,35.335,148.267,35.437,147.858,35.437Zm6.14,0a5.136,5.136,0,0,1-1.228-.2,2.339,2.339,0,0,1-1.023-.716,4.225,4.225,0,0,1-.716-1.126,3.991,3.991,0,0,1,0-3.07,4.225,4.225,0,0,1,.716-1.126,3.675,3.675,0,0,1,1.023-.716,2.6,2.6,0,0,1,1.228-.2,5.136,5.136,0,0,1,1.228.2,3.675,3.675,0,0,1,1.023.716,4.225,4.225,0,0,1,.716,1.126,3.991,3.991,0,0,1,0,3.07,4.225,4.225,0,0,1-.716,1.126,3.675,3.675,0,0,1-1.023.716A5.136,5.136,0,0,1,154,35.437Zm0-1.023a1.928,1.928,0,0,0,.819-.2,1.5,1.5,0,0,0,.614-.512,6.074,6.074,0,0,0,.409-.819,3.836,3.836,0,0,0,.1-1.126,4.2,4.2,0,0,0-.1-1.126,2.057,2.057,0,0,0-.409-.819,2.713,2.713,0,0,0-.614-.512,1.74,1.74,0,0,0-1.637,0,1.5,1.5,0,0,0-.614.512,2.057,2.057,0,0,0-.409.819,3.836,3.836,0,0,0-.1,1.126,4.2,4.2,0,0,0,.1,1.126,2.057,2.057,0,0,0,.409.819,2.713,2.713,0,0,0,.614.512A1.23,1.23,0,0,0,154,34.414Zm5.116.819V28.274h1.023l.1,1.023h0a4.007,4.007,0,0,1,1.023-.819,2.063,2.063,0,0,1,1.126-.307,2.182,2.182,0,0,1,1.228.307,2.024,2.024,0,0,1,.716,1.023,4.461,4.461,0,0,1,1.126-.921,2.507,2.507,0,0,1,1.228-.409,1.908,1.908,0,0,1,1.637.716,3.519,3.519,0,0,1,.512,2.047v4.3h-1.126v-4.3A2.71,2.71,0,0,0,167.4,29.5a1.078,1.078,0,0,0-1.023-.409,2.309,2.309,0,0,0-1.74,1.126v5.014h-1.126v-4.3a2.71,2.71,0,0,0-.307-1.433,1.078,1.078,0,0,0-1.023-.409,2.309,2.309,0,0,0-1.74,1.126v5.014Z" transform="translate(-0.1 3.651)"/><g transform="translate(248.549 0)"><path class="ag" d="M4.6,12h37.86a4.586,4.586,0,0,1,4.6,4.6h0a4.586,4.586,0,0,1-4.6,4.6H4.6A4.586,4.586,0,0,1,0,16.6H0A4.586,4.586,0,0,1,4.6,12Z" transform="translate(0 0.279)"/><g transform="translate(23.535)"><circle class="ah" cx="16.372" cy="16.372" r="16.372"/></g><g transform="translate(31.721 8.186)"><path class="n" d="M4.4,2.149h0a.97.97,0,0,1-.2,1.33A6.366,6.366,0,0,0,2.047,8.186a6.14,6.14,0,0,0,12.279,0,5.988,5.988,0,0,0-2.149-4.6.97.97,0,0,1-.2-1.33h0a1.835,1.835,0,0,1,.716-.512,1.1,1.1,0,0,1,.819.2,8.025,8.025,0,0,1,2.865,6.242A8.186,8.186,0,0,1,0,8.186,8.025,8.025,0,0,1,2.865,1.944a.8.8,0,0,1,.819-.2A1.036,1.036,0,0,1,4.4,2.149ZM9.209,1.023V9.209a.967.967,0,0,1-1.023,1.023A.967.967,0,0,1,7.163,9.209V1.023A.967.967,0,0,1,8.186,0,.967.967,0,0,1,9.209,1.023Z"/></g></g></g><line class="z" x2="347.907" transform="translate(0.512 60.884)"/><line class="z" x2="347.907" transform="translate(0.512 151.953)"/></g></g></g></g><g transform="translate(1382.646 469)"><path class="e" d="M500.073,208.686V325.652A18.246,18.246,0,0,1,481.8,343.889H232.39a18.246,18.246,0,0,1-18.273-18.236V208.686A18.246,18.246,0,0,1,232.39,190.45H481.8A18.246,18.246,0,0,1,500.073,208.686Z" transform="translate(-214.117 -190.45)"/><path class="ai" d="M500.073,208.686v10.123H214.117V208.686A18.246,18.246,0,0,1,232.39,190.45H481.8A18.246,18.246,0,0,1,500.073,208.686Z" transform="translate(-214.117 -190.45)"/><g transform="translate(12.286 11.697)"><circle class="aj" cx="3.832" cy="3.832" r="3.832" transform="translate(0 0)"/><path class="ak" d="M228.57,197.157a3.831,3.831,0,1,1-3.831-3.831A3.831,3.831,0,0,1,228.57,197.157Z" transform="translate(-205.575 -193.326)"/><path class="al" d="M232.341,197.157a3.831,3.831,0,1,1-3.831-3.831A3.833,3.833,0,0,1,232.341,197.157Z" transform="translate(-194.009 -193.326)"/></g><path class="al" d="M.834,0H102.368a.834.834,0,0,1,.834.834V56.42a.834.834,0,0,1-.834.834H.835A.835.835,0,0,1,0,56.42V.834A.834.834,0,0,1,.834,0Z" transform="translate(35.474 45.314)"/><g transform="translate(35.475 119.412)"><path class="am" d="M432.863,226.9H225.814a4,4,0,0,1-3.964-4.034h0a4,4,0,0,1,3.964-4.034H432.863a4,4,0,0,1,3.964,4.034h0A4,4,0,0,1,432.863,226.9Z" transform="translate(-221.85 -218.828)"/></g><g transform="translate(156.354 94.939)"><path class="am" d="M333.554,219.408H245.041c-1.542,0-2.791-1.81-2.791-4.039h0c0-2.229,1.249-4.034,2.791-4.034h88.514c1.542,0,2.794,1.806,2.794,4.034h0C336.348,217.6,335.1,219.408,333.554,219.408Z" transform="translate(-242.25 -211.335)"/></g><g transform="translate(156.354 70.303)"><path class="am" d="M332,212.367H246.6a4.2,4.2,0,0,1-4.347-4.034h0a4.2,4.2,0,0,1,4.347-4.038H332a4.2,4.2,0,0,1,4.347,4.038h0A4.2,4.2,0,0,1,332,212.367Z" transform="translate(-242.25 -204.294)"/></g><g transform="translate(156.354 45.303)"><path class="am" d="M332,212.367H246.6a4.2,4.2,0,0,1-4.347-4.034h0a4.2,4.2,0,0,1,4.347-4.038H332a4.2,4.2,0,0,1,4.347,4.038h0A4.2,4.2,0,0,1,332,212.367Z" transform="translate(-242.25 -204.294)"/></g></g><g transform="translate(1348.503 364.657)"><path class="e" d="M5,0H190a5,5,0,0,1,5,5V127.07a0,0,0,0,1,0,0H0a0,0,0,0,1,0,0V5A5,5,0,0,1,5,0Z" transform="translate(229.497 83.07) rotate(180)"/><g transform="translate(24.981 17.697)"><g transform="translate(11 3.149)"><path class="am" d="M402.235,228.034h81.856a3.419,3.419,0,0,0,3.416-3.42h0a3.416,3.416,0,0,0-3.416-3.416H402.235a3.416,3.416,0,0,0-3.416,3.416h0A3.419,3.419,0,0,0,402.235,228.034Z" transform="translate(-371.481 -186.652)"/><path class="am" d="M402.235,228.034h81.856a3.419,3.419,0,0,0,3.416-3.42h0a3.416,3.416,0,0,0-3.416-3.416H402.235a3.416,3.416,0,0,0-3.416,3.416h0A3.419,3.419,0,0,0,402.235,228.034Z" transform="translate(-371.481 -221.652)"/><path class="am" d="M402.235,228.034h81.856a3.419,3.419,0,0,0,3.416-3.42h0a3.416,3.416,0,0,0-3.416-3.416H402.235a3.416,3.416,0,0,0-3.416,3.416h0A3.419,3.419,0,0,0,402.235,228.034Z" transform="translate(-371.481 -239.652)"/><path class="am" d="M402.235,228.034h81.856a3.419,3.419,0,0,0,3.416-3.42h0a3.416,3.416,0,0,0-3.416-3.416H402.235a3.416,3.416,0,0,0-3.416,3.416h0A3.419,3.419,0,0,0,402.235,228.034Z" transform="translate(-371.481 -257.652)"/><path class="am" d="M402.235,228.034h81.856a3.419,3.419,0,0,0,3.416-3.42h0a3.416,3.416,0,0,0-3.416-3.416H402.235a3.416,3.416,0,0,0-3.416,3.416h0A3.419,3.419,0,0,0,402.235,228.034Z" transform="translate(-371.481 -204.652)"/></g><path class="al" d="M.834,0H42.368A.834.834,0,0,1,43.2.834V76.42a.834.834,0,0,1-.834.834H.835A.835.835,0,0,1,0,76.42V.834A.834.834,0,0,1,.834,0Z" transform="translate(136.636 -33.04)"/></g><path class="j" d="M0,0H195a0,0,0,0,1,0,0V45.984a3.086,3.086,0,0,1-3.086,3.086H3.086A3.086,3.086,0,0,1,0,45.984V0A0,0,0,0,1,0,0Z" transform="translate(229.497 -43.93) rotate(180)"/><path class="an" d="M3.09,0H31.91A3.09,3.09,0,0,1,35,3.09V31.914A3.086,3.086,0,0,1,31.914,35H3.086A3.086,3.086,0,0,1,0,31.914V3.09A3.09,3.09,0,0,1,3.09,0Z" transform="translate(98.497 -30.93) rotate(180)"/></g></g></svg>