<?xml version="1.0" encoding="utf-8"?>
<!-- Generator: Adobe Illustrator 22.1.0, SVG Export Plug-In . SVG Version: 6.00 Build 0)  -->
<svg version="1.1" id="Layer_1" xmlns="http://www.w3.org/2000/svg" xmlns:xlink="http://www.w3.org/1999/xlink" x="0px" y="0px"
	 viewBox="0 0 504.1 504.1" style="enable-background:new 0 0 504.1 504.1;" xml:space="preserve">
<style type="text/css">
	.st0{fill:#F1F1F1;}
	.st1{fill:#FFFFFF;}
	.st2{fill:#CECECE;}
	.st3{fill:#5CA41B;}
	.st4{fill:#BFC3C5;}
	.st5{fill:#EAEAEA;}
</style>
<path class="st0" d="M23.6,0h456.9c13,0,23.6,10.6,23.6,23.6v456.9c0,13-10.6,23.6-23.6,23.6H23.6c-13,0-23.6-10.6-23.6-23.6V23.6
	C0,10.6,10.6,0,23.6,0z"/>
<path class="st1" d="M47.3,102.4h409.6c8.7,0,15.8,7.1,15.8,15.8v338.7c0,8.7-7.1,15.8-15.8,15.8H47.3c-8.7,0-15.8-7.1-15.8-15.8
	V118.2C31.5,109.5,38.6,102.4,47.3,102.4z"/>
<path class="st1" d="M204.8,35.4h252.1c8.7,0,15.8,7.1,15.8,15.8S465.5,67,456.9,67H204.8c-8.7,0-15.8-7.1-15.8-15.8
	S196.1,35.4,204.8,35.4z"/>
<path class="st2" d="M86.7,141.8h330.7c8.7,0,15.8,7.1,15.8,15.8V252c0,8.7-7.1,15.8-15.8,15.8H86.7c-8.7,0-15.8-7.1-15.8-15.8
	v-94.4C70.9,148.9,78,141.8,86.7,141.8z"/>
<path class="st3" d="M220.4,429.3H82.9c-6.6,0-12-5.4-12-12v-94.2c0-6.6,5.4-12,12-12h137.5c6.6,0,12,5.4,12,12v94.2
	C232.4,423.9,227,429.3,220.4,429.3z"/>
<path class="st4" d="M33.3,51.2L47,37.5c0.3-0.3,0.3-0.9,0-1.2c-0.3-0.3-0.9-0.3-1.2,0L31.5,50.6c-0.3,0.3-0.3,0.9,0,1.2l14.3,14.3
	c0.2,0.2,0.4,0.3,0.6,0.3c0.2,0,0.4-0.1,0.6-0.3c0.3-0.3,0.3-0.9,0-1.2L33.3,51.2z M93,51.2L79.3,64.9c-0.3,0.3-0.3,0.9,0,1.2
	s0.9,0.3,1.2,0l14.3-14.3c0.3-0.3,0.3-0.9,0-1.2L80.5,36.3c-0.2-0.2-0.4-0.3-0.6-0.3c-0.2,0-0.4,0.1-0.6,0.3c-0.3,0.3-0.3,0.9,0,1.2
	L93,51.2z M119.8,54.8c-0.1-0.4,0.2-0.8,0.6-0.9c0.4-0.1,0.8,0.2,0.9,0.6c0.5,2.9,2.1,5.5,4.3,7.3c2.2,1.8,5,2.9,8,2.9
	c3.5,0,6.6-1.4,8.9-3.7c2.3-2.3,3.7-5.4,3.7-8.9s-1.4-6.6-3.7-8.9c-2.3-2.3-5.4-3.7-8.9-3.7c-0.7,0-1.4,0.1-2.1,0.2
	c-0.5,0.1-0.9,0.2-1.4,0.3l1.9,1.5c0.3,0.3,0.4,0.8,0.1,1.1c-0.3,0.3-0.8,0.4-1.1,0.1l-3-2.4c-0.3-0.2-0.4-0.6-0.2-1l1.5-3.5
	c0.2-0.4,0.6-0.6,1-0.4c0.4,0.2,0.6,0.6,0.4,1l-0.9,2c0.5-0.1,0.9-0.2,1.4-0.3c0.8-0.1,1.6-0.2,2.3-0.2c3.9,0,7.4,1.6,10,4.1
	c2.5,2.6,4.1,6.1,4.1,10s-1.6,7.4-4.1,10c-2.6,2.5-6.1,4.1-10,4.1c-3.4,0-6.5-1.2-9-3.2C122.2,61,120.4,58.1,119.8,54.8L119.8,54.8z
	"/>
<path class="st5" d="M426,325.7H271.2c-4,0-7.3-3.3-7.3-7.3v0c0-4,3.3-7.3,7.3-7.3H426c4,0,7.3,3.3,7.3,7.3v0
	C433.2,322.4,430,325.7,426,325.7z"/>
<path class="st5" d="M426,360.2H271.2c-4,0-7.3-3.3-7.3-7.3l0,0c0-4,3.3-7.3,7.3-7.3H426c4,0,7.3,3.3,7.3,7.3l0,0
	C433.2,357,430,360.2,426,360.2z"/>
<path class="st5" d="M426,394.8H271.2c-4,0-7.3-3.3-7.3-7.3l0,0c0-4,3.3-7.3,7.3-7.3H426c4,0,7.3,3.3,7.3,7.3l0,0
	C433.2,391.5,430,394.8,426,394.8z"/>
<path class="st5" d="M396.6,429.3H271.2c-4,0-7.3-3.3-7.3-7.3v0c0-4,3.3-7.3,7.3-7.3h125.4c4,0,7.3,3.3,7.3,7.3v0
	C403.9,426,400.6,429.3,396.6,429.3z"/>
</svg>
