<svg viewBox="0 0 90 90" xmlns="http://www.w3.org/2000/svg">
  <g transform="translate(-540, -1405)" fill="#ED1E45">
    <path d="M603.23,1405 L566.77,1405 C566.504784,1405 566.25043,1405.10536 566.062893,1405.29289 L540.292893,1431.06289 C540.105357,1431.25043 540,1431.50478 540,1431.77 L540,1468.23 C540,1468.49522 540.105357,1468.74957 540.292893,1468.93711 L566.062893,1494.70711 C566.25043,1494.89464 566.504784,1495 566.77,1495 L603.23,1495 C603.495216,1495 603.74957,1494.89464 603.937107,1494.70711 L629.707107,1468.93711 C629.894643,1468.74957 630,1468.49522 630,1468.23 L630,1431.77 C630,1431.50478 629.894643,1431.25043 629.707107,1431.06289 L603.937107,1405.29289 C603.74957,1405.10536 603.495216,1405 603.23,1405 Z M602.815,1407 L628,1432.185 L628,1467.814 L602.814,1493 L567.185,1493 L542,1467.815 L542,1432.184 L567.184,1407 L602.815,1407 Z M598.78196,1435.36385 L578.635,1451.201 L569.407003,1446.0566 C569.05446,1445.86002 568.618302,1445.89467 568.301215,1446.14444 L563.261215,1450.11444 C562.790639,1450.48511 562.749314,1451.18353 563.172893,1451.60711 L577.932893,1466.36711 C578.318932,1466.75315 578.94324,1466.75822 579.335509,1466.37852 L606.815509,1439.77852 C607.327679,1439.28275 607.171496,1438.4256 606.517377,1438.14234 L599.797377,1435.23234 C599.46043,1435.08643 599.07062,1435.13692 598.78196,1435.36385 Z M599.55,1437.304 L604.348,1439.382 L578.651,1464.256 L565.383,1450.988 L569.014,1448.128 L578.242997,1453.2734 C578.595239,1453.46981 579.030987,1453.4354 579.34804,1453.18615 L599.55,1437.304 Z"></path>
  </g>
</svg>
