<svg viewBox="0 0 567 529" xmlns="http://www.w3.org/2000/svg" xmlns:xlink="http://www.w3.org/1999/xlink">
  <defs>
    <path d="M54.8693556,0.404323493 C54.5399076,0.667871739 200.018417,1.06319148 200.018417,1.06319148 C219.916301,1.26085748 229.206334,17.4031757 227.822731,35.4562121 L203.576307,418.06213 C203.444549,432.161933 187.961109,450.610292 172.807107,448.304282 L28.7781003,429.921758 C7.89189787,426.034413 -0.475739242,414.240673 0.57844849,395.858148 L23.9024533,29.6581525 C24.4295463,14.3064843 35.6962176,1.12908248 54.8693556,0.404323493 Z" id="path-1"></path>
  </defs>
  <g id="Landings" stroke="none" stroke-width="1" fill="none" fill-rule="evenodd">
    <g id="ABP-Android-landing" transform="translate(-733, -152)">
      <g id="ABB-Home-with-Graphics_ABB-Light" transform="translate(733, 152)">
        <path d="M335.603463,503.827041 C335.603463,503.827041 389.696704,509.625113 392.200408,474.309679 C393.979423,448.679614 406.69563,256.421355 413.48192,153.242302 C416.05155,114.632493 417.764597,88.5412397 417.764597,88.5412397 C417.764597,88.5412397 417.501026,42.8156445 368.678763,42.6179925 C368.415192,42.8815355 390.685055,47.0983144 389.433182,78.3287579 C388.181351,109.559208 375.26745,307.681437 375.26745,307.681437 L366.899839,446.703045 C366.833955,446.637161 370.457729,490.583783 335.603463,503.827041" id="Fill-1" fill="#037B97"></path>
        <path d="M208.836899,41.3000601 L365.054986,42.0250243 C384.425771,42.4203563 396.153675,60.539275 395.033564,77.6040077 L369.074092,473.057892 C368.942289,487.618865 350.493929,504.354177 335.932915,504.288487 L180.9667,485.246922 C165.944469,483.270353 150.526893,464.624348 150.592559,450.063291 L175.563939,71.6082698 C175.629858,57.047255 194.275863,41.2343743 208.836899,41.3000601 Z" id="Fill-2" fill="#51C8EC"></path>
        <g id="Group-5" transform="translate(158.316162, 48.999999)">
          <mask id="mask-2" fill="white">
            <use xlink:href="#path-1"></use>
          </mask>
          <g id="Clip-4"></g>
          <polygon id="Fill-3" fill="#FFF" mask="url(#mask-2)" points="0.907791485 -15.4744342 264.258196 -15.8697662 270.715087 397.373596 -43.1705708 402.315078"></polygon>
        </g>
        <g id="Group-48" transform="translate(158.316162, 48.999999)">
          <g id="Group-8">
            <mask id="mask-4" fill="white">
              <use xlink:href="#path-1"></use>
            </mask>
            <g id="Clip-7"></g>
            <path d="M213.854699,0.60207699 L39.1882306,-4.01001293 C29.7005007,-4.27356293 21.4646299,4.88472592 20.8057549,16.3490667 L-0.936951734,400.66796 C-1.59582672,412.198178 10.3297231,429.526468 19.8174459,429.790039 L180.911159,450.412696 C190.398931,450.67626 203.18098,440.134352 203.839834,428.670011 L229.865231,21.8835746 C230.45825,10.4192478 223.342463,0.865633985 213.854699,0.60207699 Z" id="Fill-6" fill="#E6E6E6" mask="url(#mask-4)"></path>
          </g>
          <g id="Group-11">
            <mask id="mask-6" fill="white">
              <use xlink:href="#path-1"></use>
            </mask>
            <g id="Clip-10"></g>
            <path d="M198.832293,233.446666 L32.7970347,231.272368 C29.4367827,231.206526 26.8013178,228.373374 26.9989838,225.013122 C27.1966498,221.916448 29.8321147,219.478579 32.9288167,219.544505 L198.964103,221.718761 C202.324306,221.78468 204.959771,224.617839 204.762133,227.978042 C204.564446,231.074765 201.928974,233.512585 198.832293,233.446666 Z" id="Fill-9" fill="#FFF" mask="url(#mask-6)"></path>
          </g>
          <g id="Group-14">
            <mask id="mask-8" fill="white">
              <use xlink:href="#path-1"></use>
            </mask>
            <g id="Clip-13"></g>
            <path d="M108.501277,269.486834 L30.2274887,268.498532 C26.8672648,268.43269 24.2317718,265.599454 24.4294588,262.239244 C24.6270828,259.14257 27.2625758,256.704743 30.3592777,256.770669 L108.633087,257.758971 C111.99329,257.824813 114.628804,260.658007 114.431117,264.018259 C114.233472,267.11494 111.663926,269.55276 108.501277,269.486834 Z" id="Fill-12" fill="#FFF" mask="url(#mask-8)"></path>
          </g>
          <g id="Group-17">
            <mask id="mask-10" fill="white">
              <use xlink:href="#path-1"></use>
            </mask>
            <g id="Clip-16"></g>
            <path d="M152.316228,270.079893 L128.201599,269.816329 C124.841396,269.750445 122.139963,266.917251 122.403527,263.557041 C122.601214,260.460367 125.236728,258.02254 128.333409,258.088424 L152.513915,258.351988 C155.808234,258.417872 158.377906,261.185105 158.180177,264.479466 L158.180177,264.677153 C157.982532,267.773834 155.412951,270.145735 152.316228,270.079893 Z" id="Fill-15" fill="#FFF" mask="url(#mask-10)"></path>
          </g>
          <g id="Group-20">
            <mask id="mask-12" fill="white">
              <use xlink:href="#path-1"></use>
            </mask>
            <g id="Clip-19"></g>
            <path d="M196.328724,270.672873 L170.303368,270.475186 C166.943123,270.409344 164.307651,267.576192 164.505296,264.215941 C164.702941,261.119225 167.338448,258.681398 170.435129,258.747324 L196.460485,258.944969 C199.82073,259.010846 202.456202,261.844047 202.258557,265.204249 C202.06087,268.30093 199.425356,270.672873 196.328724,270.672873 Z" id="Fill-18" fill="#FFF" mask="url(#mask-12)"></path>
          </g>
          <g id="Group-23">
            <mask id="mask-14" fill="white">
              <use xlink:href="#path-1"></use>
            </mask>
            <g id="Clip-22"></g>
            <path d="M92.8200684,250.70907 L31.5451355,249.918413 C28.1848695,249.852529 25.5494256,247.019335 25.7470846,243.659125 C25.9447506,240.562444 28.5802015,238.124624 31.6769455,238.19055 L92.9518294,238.981165 C96.3120744,239.047049 98.9475463,241.880201 98.7499013,245.240453 C98.5522563,248.337127 95.9167494,250.70907 92.8200684,250.70907 Z" id="Fill-21" fill="#FFF" mask="url(#mask-14)"></path>
          </g>
          <g id="Group-26">
            <mask id="mask-16" fill="white">
              <use xlink:href="#path-1"></use>
            </mask>
            <g id="Clip-25"></g>
            <path d="M182.03115,251.82918 L120.690361,251.038523 C117.330159,250.972681 114.694645,248.139487 114.89229,244.779284 C115.089935,241.682603 117.725448,239.244734 120.822122,239.31066 L182.162911,240.101324 C185.523121,240.167159 188.158628,243.000402 187.960941,246.360605 C187.763338,249.457286 185.127831,251.895064 182.03115,251.82918 Z" id="Fill-24" fill="#FFF" mask="url(#mask-16)"></path>
          </g>
          <g id="Group-29">
            <mask id="mask-18" fill="white">
              <use xlink:href="#path-1"></use>
            </mask>
            <g id="Clip-28"></g>
            <path d="M227.032162,40.8597197 L19.8175282,39.7389241 C-4.49475942,39.6071561 -23.5361101,19.6433874 -22.2183811,-4.33947318 C-20.9665221,-27.3340402 -1.46396248,-45.5188625 21.8600441,-45.3878005 L229.074657,-44.2670154 C253.386965,-44.1352418 272.428295,-24.1714794 271.110545,-0.188606247 C269.858714,22.8059594 250.35621,40.9907831 227.032162,40.8597197 Z" id="Fill-27" fill="#FFF" mask="url(#mask-18)"></path>
          </g>
          <g id="Group-32">
            <mask id="mask-20" fill="white">
              <use xlink:href="#path-1"></use>
            </mask>
            <g id="Clip-31"></g>
            <path d="M90.3823255,25.3755876 L40.9011883,24.9143716 C38.0021734,24.8484946 35.7620124,22.4765726 35.9596574,19.5775297 C36.1573234,16.8102827 38.5292663,14.7019037 41.2965203,14.7019037 L90.7776155,15.1631057 C93.6766934,15.2289967 95.9167914,17.6009187 95.7191464,20.4999617 C95.5215434,23.2013106 93.1496004,25.3755876 90.3823255,25.3755876 Z" id="Fill-30" fill="#000" mask="url(#mask-20)"></path>
          </g>
          <g id="Group-35">
            <mask id="mask-22" fill="white">
              <use xlink:href="#path-1"></use>
            </mask>
            <g id="Clip-34"></g>
            <polygon id="Fill-33" fill="#51C8EC" mask="url(#mask-22)" points="215.831346 17.139652 209.308494 10.8144871 199.952533 10.8803781 193.363846 17.271413 192.836753 26.2320568 199.42544 32.5572007 208.781443 32.4913097 215.370137 26.1002818"></polygon>
          </g>
          <g id="Group-38">
            <mask id="mask-24" fill="white">
              <use xlink:href="#path-1"></use>
            </mask>
            <g id="Clip-37"></g>
            <polygon id="Fill-36" fill="#EC2146" mask="url(#mask-24)" points="214.513586 16.4807525 207.990734 10.1555876 198.634772 10.2214786 192.046043 16.6125205 191.518992 25.5731573 198.107679 31.8983222 207.463641 31.8324312 214.052377 25.4413823"></polygon>
          </g>
          <g id="Group-41">
            <mask id="mask-26" fill="white">
              <use xlink:href="#path-1"></use>
            </mask>
            <g id="Clip-40"></g>
            <path d="M197.618388,23.068586 L195.377407,23.0953773 L194.947646,25.0647929 L193.23372,25.1007826 L195.551374,16.9040788 L197.528827,16.8726887 L199.823727,25.0839917 L198.043908,25.1188308 L197.618388,23.068586 Z M197.314305,21.6135349 L197.129317,20.8854398 C197.004431,20.4878703 196.946629,20.0255808 196.822935,19.562152 C196.765091,19.0998617 196.641397,18.6364219 196.51651,18.2388526 L196.450661,18.2377034 C196.376763,18.6976946 196.23693,19.1565349 196.162989,19.6165252 C196.089091,20.0765164 195.949301,20.5353574 195.876467,20.9294761 L195.732078,21.6518227 L197.314305,21.6135349 Z" id="Fill-39" fill="#FFF" mask="url(#mask-26)"></path>
          </g>
          <g id="Group-44">
            <mask id="mask-28" fill="white">
              <use xlink:href="#path-1"></use>
            </mask>
            <g id="Clip-43"></g>
            <path d="M200.956781,16.8006837 L203.461245,16.7784913 C203.790622,16.7842398 204.185891,16.7911383 204.514118,16.8627686 C204.842345,16.9343989 205.104723,17.0048692 205.364757,17.2071023 C205.625985,17.3434544 205.820171,17.5445383 205.947314,17.8103432 C206.073351,18.1420199 206.133451,18.4725566 206.127703,18.8019442 C206.124253,18.9995789 206.120804,19.1972135 206.051506,19.3936882 C205.982164,19.5901728 205.913972,19.7207757 205.844673,19.9172502 C205.710589,20.0467031 205.575398,20.2420386 205.441356,20.371492 C205.307314,20.5009457 205.10853,20.5633782 204.909746,20.6258001 L204.908596,20.6916819 C205.368608,20.7656122 205.760428,20.9701344 206.084056,21.3052706 C206.340685,21.705139 206.465486,22.1026853 206.457438,22.5638255 C206.450539,22.9590951 206.378941,23.2873332 206.241407,23.6144205 C206.105067,23.8756165 205.902833,24.1356838 205.634707,24.3945897 C205.36773,24.5876256 205.036054,24.7136301 204.704378,24.8396345 C204.372702,24.9656383 203.976283,25.0246219 203.582163,24.9518413 L200.880064,24.9705848 L200.956781,16.8006837 Z M203.33676,20.1370773 C203.666136,20.1428258 203.996663,20.0826925 204.197746,19.888518 C204.39883,19.6943431 204.469322,19.4319877 204.473921,19.1684711 C204.47852,18.9049653 204.417226,18.640299 204.221891,18.5050968 C203.960663,18.3687448 203.632436,18.2971145 203.368952,18.292516 L202.578413,18.2787191 L202.545071,20.1891515 L203.33676,20.1370773 Z M203.474565,23.5661432 C204.396889,23.5822402 204.864863,23.1950284 204.81281,22.4033515 C204.817409,22.1398456 204.691416,21.808159 204.49723,21.607075 C204.171303,21.4037028 203.843076,21.3320832 203.446657,21.3910559 L202.524376,21.3749597 L202.486435,23.5488978 L203.474565,23.5661432 Z" id="Fill-42" fill="#FFF" mask="url(#mask-28)"></path>
          </g>
          <g id="Group-47">
            <mask id="mask-30" fill="white">
              <use xlink:href="#path-1"></use>
            </mask>
            <g id="Clip-46"></g>
            <path d="M207.678558,16.7862429 L210.380658,16.7674997 C210.775927,16.7743982 211.105304,16.7801467 211.498274,16.918798 C211.826544,16.9904291 212.153621,17.1279304 212.413699,17.3301643 C212.673778,17.5323982 212.86677,17.7993524 212.992807,18.1310291 C213.183543,18.5297476 213.242537,18.9261561 213.234489,19.3872966 C213.227591,19.7825659 213.15365,20.2425455 213.01501,20.6355047 C212.877519,20.9625929 212.674136,21.2885313 212.34131,21.4804176 C212.074333,21.6734527 211.741464,21.8653382 211.409788,21.9913317 C211.078112,22.1173361 210.681736,22.1763202 210.286423,22.1694209 L209.232401,22.1510255 L209.250005,24.9190179 L207.601928,24.9561562 L207.678558,16.7862429 Z M210.245824,20.7189899 C210.903428,20.7963687 211.504424,20.3455659 211.64647,19.7549822 C211.648769,19.6232293 211.649919,19.5573473 211.652218,19.4255946 C211.657967,19.096207 211.597866,18.7656703 211.338938,18.4975653 C211.013011,18.2941823 210.68474,18.2225619 210.355363,18.2168134 L209.433083,18.2007172 L209.455242,20.7052029 L210.245824,20.7189899 Z" id="Fill-45" fill="#FFF" mask="url(#mask-30)"></path>
          </g>
        </g>
        <g id="Group-51" transform="translate(158.316162, 48.999999)">
          <mask id="mask-32" fill="white">
            <use xlink:href="#path-1"></use>
          </mask>
          <g id="Clip-50"></g>
          <path d="M201.402054,173.81894 L32.4018759,173.160086 C30.688808,173.160086 29.371051,171.644684 29.50284,169.931602 C29.634622,168.482105 30.886474,167.427912 32.3359919,167.427912 L201.336128,168.086773 C203.049217,168.086773 204.366925,169.602168 204.235206,171.315257 C204.037519,172.764754 202.851572,173.81894 201.402054,173.81894 Z" id="Fill-49" fill="#51C8EC" mask="url(#mask-32)"></path>
        </g>
        <g id="Group-54" transform="translate(158.316162, 48.999999)">
          <mask id="mask-34" fill="white">
            <use xlink:href="#path-1"></use>
          </mask>
          <g id="Clip-53"></g>
          <path d="M87.681022,176.520285 L35.4984869,176.322647 C31.874692,176.322647 29.107445,173.160082 29.50277,169.602171 C29.832204,166.571353 32.4017849,164.265287 35.4984869,164.331192 L89.064614,164.528837 L87.681022,176.520285 Z" id="Fill-52" fill="#32ADCA" mask="url(#mask-34)"></path>
        </g>
        <g id="Group-57" transform="translate(158.316162, 48.999999)">
          <mask id="mask-36" fill="white">
            <use xlink:href="#path-1"></use>
          </mask>
          <g id="Clip-56"></g>
          <path d="M87.3517035,179.946437 C86.6269235,179.946437 86.0339465,179.287604 86.0997885,178.562824 L87.2857355,162.156959 C87.3516615,161.563982 87.8787545,161.102752 88.4717315,161.102752 C89.1964275,161.102752 89.7894815,161.761627 89.7235625,162.486386 L88.5376085,178.892272 C88.4717735,179.48527 87.9446805,179.946437 87.3517035,179.946437 Z" id="Fill-55" fill="#FFF" mask="url(#mask-36)"></path>
        </g>
        <g id="Group-64" transform="translate(158.316162, 48.999999)">
          <g id="Group-60">
            <mask id="mask-38" fill="white">
              <use xlink:href="#path-1"></use>
            </mask>
            <g id="Clip-59"></g>
            <path d="M40.1889447,92.3001797 C40.5214025,91.2487751 40.9016628,90.2152721 41.3297254,89.1996713 C41.7577888,88.1840679 42.2315933,87.1912572 42.7511388,86.2212393 C43.270686,85.2512161 43.8334734,84.3086536 44.4394994,83.3935571 C45.0455255,82.47846 45.6918734,81.5952309 46.3785442,80.7438658 C47.065215,79.8925014 47.7889002,79.0771067 48.5496019,78.2976756 C49.3103038,77.5182446 50.1043568,76.7785373 50.9317612,76.0785531 C51.7591675,75.3785643 52.6159436,74.7216613 53.5020871,74.1078536 C54.3882282,73.4940509 55.2994714,72.9262921 56.2358161,72.4045768 C57.17216,71.8828664 58.1290979,71.4097117 59.1066284,70.985113 C60.0841564,70.5605194 61.0775718,70.1865269 62.0868707,69.8631416 C63.0961728,69.5397463 64.116498,69.2685233 65.1478466,69.0494624 C66.1791992,68.830391 67.2166068,68.6645434 68.260072,68.5519139 C69.3035413,68.4392805 70.3480462,68.3803998 71.3935832,68.3749128 C72.43912,68.3701611 73.4806579,68.4188253 74.5181925,68.5212728 C75.555733,68.6237178 76.5842759,68.7794483 77.6038222,68.9884721 C78.6233695,69.1974954 79.6290087,69.4588015 80.6207399,69.7723903 C81.6124738,70.08598 82.585526,70.450343 83.5398967,70.8654794 C84.4942695,71.2806157 85.4253638,71.7445292 86.3331803,72.2572129 C87.2410008,72.7698933 88.1211721,73.3288802 88.9736945,73.9341758 C89.8262187,74.5394653 90.6469886,75.1881466 91.4360025,75.8802174 C92.2250208,76.5722905 92.9784889,77.3044191 93.6963975,78.0766071 C94.4143132,78.8487915 95.0932158,79.6573221 95.7331033,80.5021917 C96.3729972,81.3470574 96.9708021,82.2241986 97.5265139,83.1336138 C98.0822251,84.0430288 98.5931737,84.9803343 99.0593486,85.945526 C99.5255281,86.9107243 99.9446944,87.8991632 100.316854,88.9108448 C100.689012,89.9225319 101.012357,90.9525934 101.286904,92.0010237 C101.561453,93.0494493 101.785878,94.1112028 101.96018,95.1862852 C102.134481,96.2613675 102.257817,97.3445933 102.330186,98.4359686 C102.402555,99.5273448 102.423615,100.621608 102.393364,101.718767 C102.363108,102.815924 102.281682,103.910694 102.149092,105.003075 C102.016502,106.095452 101.833383,107.180179 101.599738,108.257255 C101.366087,109.334332 101.083031,110.398572 100.750573,111.449976 C100.418116,112.501379 100.037859,113.534882 99.6097971,114.550486 C99.1817307,115.566086 98.7079197,116.558897 98.1883705,117.52892 C97.6688213,118.498942 97.1060364,119.441503 96.5000156,120.356604 C95.8939839,121.271702 95.2476335,122.154933 94.5609629,123.006298 C93.8742938,123.85766 93.1506121,124.673056 92.3899083,125.452485 C91.6292037,126.231914 90.8351449,126.971621 90.0077414,127.671611 C89.1803384,128.371599 88.3235701,129.028498 87.4374254,129.642304 C86.5512818,130.256108 85.64004,130.823868 84.7036944,131.34558 C83.7673548,131.867294 82.8104146,132.340446 81.8328847,132.765041 C80.8553545,133.189635 79.8619376,133.563626 78.8526379,133.887014 C77.8433429,134.210403 76.8230173,134.481629 75.7916649,134.700695 C74.7603179,134.919763 73.7229058,135.085613 72.679436,135.198248 C71.6359709,135.310884 70.5914685,135.369761 69.5459309,135.375246 C68.5003933,135.38 67.4588558,135.331337 66.4213178,135.228891 C65.3837824,135.126446 64.355241,134.970711 63.3356976,134.761687 C62.3161508,134.552662 61.3105118,134.291355 60.318778,133.977766 C59.3270468,133.664177 58.3539943,133.299815 57.3996205,132.884679 C56.4452474,132.469543 55.5141516,132.005634 54.6063299,131.492951 C53.6985129,130.980269 52.8183411,130.421281 51.9658179,129.815988 C51.113296,129.210696 50.2925254,128.562013 49.5035073,127.869939 C48.7144918,127.177866 47.9610281,126.445735 47.2431156,125.673545 C46.5252038,124.901356 45.8462999,124.092827 45.2064067,123.247959 C44.5665137,122.40309 43.9687107,121.52595 43.4129994,120.61654 C42.8572874,119.707129 42.3463411,118.769826 41.8801618,117.804631 C41.4139833,116.839436 40.9948156,115.850996 40.6226586,114.839311 C40.2505019,113.827627 39.9271485,112.79757 39.6525982,111.74914 C39.3780487,110.700709 39.1536243,109.638954 38.9793248,108.563875 C38.8050259,107.488795 38.6816916,106.405568 38.609321,105.314195 C38.5369516,104.222819 38.515895,103.128552 38.5461517,102.031391 C38.5764081,100.934232 38.6578318,99.8394632 38.7904235,98.7470834 C38.9230153,97.6547035 39.1061361,96.5699747 39.3397857,95.4928969 C39.573435,94.4158198 39.8564876,93.3515823 40.1889447,92.3001797 Z" id="Fill-58" fill="#ED1E45" mask="url(#mask-38)"></path>
          </g>
          <g id="Group-63">
            <mask id="mask-40" fill="white">
              <use xlink:href="#path-1"></use>
            </mask>
            <g id="Clip-62"></g>
            <path d="M102.307924,102.661041 C101.319622,121.175299 86.2314655,135.802197 68.6396538,135.341009 C60.20618,135.143343 52.7609031,131.453665 47.3581842,125.721498 C52.8268081,132.376089 60.79915,136.658738 69.9574108,136.922288 C87.5492225,137.383497 102.637372,122.69068 103.625639,104.24232 C104.152732,94.6228081 100.726645,85.8598443 94.8626964,79.6005844 C99.9359813,85.7280623 102.834975,93.8321932 102.307924,102.661041 Z" id="Fill-61" fill="#FFF" mask="url(#mask-40)"></path>
          </g>
        </g>
        <g id="Group-67" transform="translate(158.316162, 48.999999)">
          <mask id="mask-42" fill="white">
            <use xlink:href="#path-1"></use>
          </mask>
          <g id="Clip-66"></g>
          <path d="M59.8107045,110.040304 L60.7990135,91.5260677 C60.9308165,89.4176677 63.1050724,88.1658157 64.8181404,89.2200297 L80.5651021,98.9054186 C82.3441171,100.02551 82.2123071,102.792735 80.3015381,103.781044 L63.5662674,112.675797 C61.7873154,113.532338 59.6789435,112.148725 59.8107045,110.040304 Z" id="Fill-65" fill="#FFF" mask="url(#mask-42)"></path>
        </g>
        <path d="M403.928402,115.752609 L407.156886,115.950275 L404.126089,167.144459 L400.897605,166.946793 C397.800924,166.749148 395.429023,164.113662 395.626668,161.016981 L397.998611,121.023546 C398.196214,117.926865 400.831721,115.62082 403.928402,115.752609 Z" id="Fill-68" fill="#51C8EC"></path>
        <path d="M407.156762,115.950249 C409.792227,116.082038 411.834722,118.388075 411.637077,121.023561 L409.19925,162.598262 C409.067447,165.233748 406.76143,167.276264 404.125916,167.078577 C401.490493,166.946795 399.447956,164.640736 399.645643,162.005264 L402.08347,120.43057 C402.215231,117.860982 404.52129,115.818488 407.156762,115.950249 Z" id="Fill-69" fill="#037B97"></path>
        <path d="M305.690901,494.075876 C305.954465,497.963214 306.152068,500.664563 306.152068,500.664563 L264.313824,495.525394 C264.313824,495.525394 264.577388,492.889887 265.104481,488.277804 C274.262805,490.05677 295.939607,492.824003 305.690901,494.075876 Z" id="Fill-70" fill="#037B97"></path>
        <path d="M325.588728,348.729064 C325.588728,348.729064 341.203977,358.28267 336.394208,394.915861 C334.022272,413.166575 334.285794,427.793516 332.50687,433.52562 C331.452684,437.017633 329.410189,440.114314 326.577037,442.354489 C324.534584,444.001652 321.833151,445.319409 318.604709,445.385286 C315.046819,445.45117 311.884212,448.284322 309.77584,451.57869 C306.283827,457.113191 305.954421,468.379887 305.427328,473.189607 C304.834309,478.394702 305.295525,487.684745 305.690899,494.00991 C289.943888,492.033299 264.116178,488.738931 264.116178,488.738931 C264.116178,488.738931 279.994907,325.207419 325.588728,348.729064 Z" id="Fill-71" fill-opacity="0.6" fill="#999999"></path>
        <path d="M140.907421,464.360781 C187.555427,457.640291 229.854887,457.179117 229.854887,457.179117 L237.365998,443.079269 L277.293557,450.919836 L289.021462,455.334267 C288.955536,458.82628 288.62613,462.120648 288.033118,465.085561 C284.672908,482.413808 270.836631,495.85476 253.442415,499.01736 C248.105559,500.005627 231.436124,500.466878 231.436124,500.466878 L204.817798,500.993929 C188.280165,500.993929 143.938197,494.273432 143.938197,494.273432 L140.907421,464.360781 Z" id="Fill-72" fill="#51C8EC"></path>
        <path d="M288.757892,457.179208 C288.691973,460.671172 288.560163,462.120732 287.967235,465.151487 C284.606983,482.479734 270.770707,495.920728 253.376533,499.083286 C248.039677,500.071637 231.370241,500.532804 231.370241,500.532804 L204.751853,501.059897 C188.21422,501.059897 143.872273,494.339442 143.872273,494.339442 L143.476941,488.343732 C177.342863,492.362789 231.502009,495.986605 251.729286,490.320343 C261.2171,487.618994 265.170322,474.507448 272.681392,456.059054 L288.757892,457.179208" id="Fill-73" fill="#32ADCA"></path>
        <path d="M45.634747,477.670052 C42.8675,486.301192 43.658136,490.452101 50.5762639,500.994058 L89.5155272,497.765575 C89.5155272,497.765575 105.789631,501.652912 116.067976,501.455225 C118.439919,501.389348 120.745978,501.059893 122.986118,500.401039 L143.806413,494.339446 L141.829802,464.492629 C141.829802,464.492629 121.866048,463.108995 96.4336481,468.314048 C96.5654301,468.314048 63.0948257,472.728479 45.634747,477.670052 Z" id="Fill-74" fill="#51C8EC"></path>
        <path d="M47.9407849,496.645422 C47.9407849,496.645422 49.5879619,499.41269 50.6421689,500.993927 L89.5813902,497.765443 C89.5813902,497.765443 105.855487,501.652788 116.133853,501.455143 C118.505796,501.389259 120.811841,501.059811 123.051995,500.400957 L143.872297,494.339356 L143.476965,488.343646 C143.476965,488.343646 139.062527,489.924925 131.946747,489.924925 C125.160388,489.924925 116.660953,496.513654 104.867164,494.932333 C104.867164,494.932333 71.4624785,495.525352 47.9407849,496.645422 Z" id="Fill-75" fill="#32ADCA"></path>
        <polygon id="Fill-76" fill="#FFF" points="109.026065 488.409567 101.248218 501.550163 117.929617 509.163986 125.901917 494.405284"></polygon>
        <path d="M105.526107,488.409611 C110.599399,495.920723 114.947932,498.226789 127.466473,499.280975 L145.453617,465.612697 C145.453617,465.612697 158.499236,455.136665 164.692619,446.9667 C166.076274,445.12185 167.262207,443.01352 168.118769,440.839222 L176.156974,420.677815 L151.383477,403.876625 C151.383477,403.876625 138.00841,418.767088 126.478171,442.025211 C126.609953,441.959285 112.312481,471.608414 105.526107,488.409611 Z" id="Fill-77" fill="#51C8EC"></path>
        <path d="M119.625822,498.226656 C121.93186,498.621946 123.77671,499.01732 127.466389,499.280842 L145.453533,465.612571 C145.453533,465.612571 158.499152,455.136497 164.692528,446.966525 C166.07619,445.121717 167.262116,443.013345 168.118657,440.839089 L170.095296,436.81999 C170.095296,436.81999 171.281243,425.553336 162.188845,435.041017 C161.332325,435.897565 156.720228,446.307713 156.12723,447.361899 C152.898767,453.291732 147.561925,455.268342 141.500311,463.372431 C141.500311,463.372431 135.570478,472.926038 128.784118,484.192734 C127.466389,486.432916 126.082748,488.738933 124.699114,490.979066 C123.31548,493.48277 121.07534,495.722952 119.625822,498.226656 Z" id="Fill-78" fill="#32ADCA"></path>
        <path d="M233.610464,467.391623 C230.974999,476.088731 229.723126,478.526558 218.720001,487.091856 L188.675525,457.50861 C188.675525,457.50861 175.959332,442.091005 168.4482,436.35886 L147.957345,421.007181 C143.542914,413.034902 148.286751,403.085921 157.247409,401.570519 L164.62676,400.318646 C164.62676,400.318646 176.68407,403.151798 202.445897,416.197376 C202.445897,416.197376 231.831498,427.727636 239.540345,445.121809 C242.109884,450.788071 234.796417,460.802936 233.610464,467.391623 Z" id="Fill-79" fill="#51C8EC"></path>
        <path d="M169.765845,431.153765 C182.74558,430.824317 191.837971,448.41617 208.507365,458.035661 L190.256671,459.089847 C190.256671,459.089847 175.432085,442.090963 169.568158,437.281285 L164.033657,433.328021 L164.231295,433.19626 C165.680834,431.878503 167.657424,431.153765 169.634063,431.219649 C169.699961,431.153765 169.765845,431.153765 169.765845,431.153765 Z" id="Fill-80" fill="#32ADCA"></path>
        <path d="M207.782604,369.615374 C205.805993,372.712055 192.76038,389.117878 192.76038,389.117878 C192.76038,389.117878 186.96233,386.54829 184.919835,386.218842 C184.326837,386.087039 177.013391,383.978702 176.618059,383.912783 C172.928387,382.858597 169.963467,382.067933 167.65745,381.013789 C165.680839,380.157248 164.758414,376.533432 164.033676,375.018072 C163.243012,373.30499 162.518253,372.250797 161.925262,371.591901 C161.002837,370.603641 159.816862,369.944738 159.816862,369.944738 L156.786065,376.138142 C156.786065,376.138142 151.778657,392.544049 157.181355,394.454734 C171.149456,399.396265 175.43207,406.314365 193.155705,410.531193 C201.259773,412.441927 206.267188,408.55454 209.232122,405.72143 C212.131137,402.954155 226.560433,388.063692 227.087526,379.696074 C227.285171,376.204068 224.451998,374.820385 222.475387,373.107387 C215.820858,367.309273 207.782604,369.615374 207.782604,369.615374 Z" id="Fill-81" fill="#FFF"></path>
        <path d="M267.344536,375.874573 C267.344536,375.874573 238.420144,365.925634 230.777271,368.165816 C223.134391,370.405949 223.859129,396.035973 219.049409,407.961523 C213.976075,420.611894 213.51488,421.402516 213.51488,421.402516 L232.490395,438.99437 C239.144924,446.834937 258.120419,453.357698 272.681434,456.124973 L288.75785,457.179159 C288.75785,457.179159 305.954379,412.70545 305.427286,403.151844 C304.966028,393.532269 267.344536,375.874573 267.344536,375.874573" id="Fill-82" fill="#ED1E45"></path>
        <path d="M285.134038,404.732998 C287.835387,398.869084 293.435814,390.699112 293.435814,390.699112 C299.629176,394.981789 305.295438,399.725625 305.493125,403.151803 C305.954341,412.70541 288.823738,457.17916 288.823738,457.17916 C288.823738,457.17916 283.750404,457.772137 272.747279,456.124974 C279.072395,442.815749 280.653723,430.429025 281.44438,424.037941 C282.300886,417.119799 282.235002,415.472636 285.134038,404.732998 Z" id="Fill-83" fill="#C40329"></path>
        <path d="M183.668028,410.992407 L185.183444,409.938221 C185.64466,409.608773 185.842305,409.015754 185.64466,408.488703 L172.796685,370.010621 C172.796685,370.010621 172.269592,368.495303 170.424742,367.836365 C168.645776,367.177511 151.251624,360.984149 151.251624,360.984149 C151.251624,360.984149 150.329206,360.654701 149.86799,361.247671 C149.472658,361.84069 149.209115,362.170145 149.209115,362.170145 C149.209115,362.170145 148.550233,362.894876 149.077326,364.344394 C149.604426,365.727993 154.348305,378.575961 154.348305,378.575961 L160.21224,391.094487 L183.668028,410.992407 Z" id="Fill-84" fill="#51C8EC"></path>
        <path d="M172.071926,403.81061 L180.637231,402.427018 L170.358844,371.723703 C170.358844,371.723703 169.831765,370.208308 167.986922,369.549454 L149.01147,362.763031 C148.945565,363.092479 148.879688,363.619572 149.143252,364.278433 C149.670324,365.662025 154.41421,378.51 154.41421,378.51 L160.673469,390.830916 L160.278138,395.838289 L172.071926,403.81061 Z" id="Fill-85" fill="#000"></path>
        <path d="M160.607696,369.944779 L152.04237,371.32842 L162.320736,402.031735 C162.320736,402.031735 162.847829,403.54713 164.692679,404.206033 L183.668131,410.992323 C183.734036,410.662917 183.799913,410.135824 183.53637,409.476963 C183.009277,408.093371 178.265391,395.245396 178.265391,395.245396 L171.874343,385.230538 L160.607696,369.944779 Z" id="Fill-86" fill="#000"></path>
        <path d="M287.440141,330.939647 L287.835431,326.459332 L282.432691,323.362609 C282.432691,323.362609 264.116092,334.695231 261.217056,334.299899 C258.31802,333.904567 255.748481,333.245713 255.748481,333.245713 L250.938711,333.904567 C250.938711,333.904567 247.24906,340.032045 250.148054,343.721738 C253.04709,347.411396 257.132073,347.806728 262.468929,347.016064 C267.805792,346.093681 276.371048,341.152157 287.440141,330.939647" id="Fill-87" fill="#FFF"></path>
        <path d="M145.783047,389.249728 C145.783047,389.249728 147.957324,392.675857 151.383453,394.586542 C152.832971,395.377206 156.456745,395.772531 159.355781,395.970134 C161.530037,396.101944 163.177221,394.125375 162.650128,392.082796 C161.661819,387.931971 162.386599,385.032893 159.487563,381.343236 C157.247409,378.510084 154.282489,377.983033 154.282489,377.983033 L151.185787,369.681257 C151.185787,369.681257 146.310161,370.801369 144.5971,373.832124 C142.818134,376.862921 144.399455,387.07543 144.399455,387.07543" id="Fill-88" fill="#FFF"></path>
        <path d="M239.737987,286.531818 C238.02494,287.849533 225.111088,293.449918 223.002674,283.105647 C223.002674,283.105647 228.932549,282.314983 229.459642,278.95478 C229.986735,275.792222 223.92505,269.928266 226.758251,267.622207 C226.758251,267.622207 232.556323,270.191795 236.70719,270.521243 C238.486156,270.653004 234.86234,263.076008 239.079084,261.362926 C239.079084,261.362926 249.686884,264.4596 251.004592,264.262004 C256.605019,263.668985 270.04597,258.529809 281.246782,268.412871 C293.435896,279.086541 294.028873,303.794181 281.905678,316.905685 C269.848367,329.951347 239.737987,286.531818 239.737987,286.531818" id="Fill-89" fill="#000"></path>
        <polygon id="Fill-90" fill="#FFF" points="268.332796 305.111893 283.618555 296.678356 279.731252 301.685722 286.847039 328.040567 258.779189 344.248794 247.644261 302.739957"></polygon>
        <path d="M293.435943,390.69907 L323.612117,396.694744 L328.817219,374.359047 C330.596227,360.522812 326.577079,351.496256 320.120111,345.105207 C309.446434,334.431489 287.901351,326.459203 287.901351,326.459203 C287.901351,326.459203 280.522,337.13288 269.057709,339.570748 C257.593326,342.008568 255.221474,328.962907 255.221474,328.962907 C255.221474,328.962907 237.234281,331.071328 224.979283,341.745046 C212.658381,352.418723 205.147269,373.436664 205.147269,373.436664 C205.147269,373.436664 208.968709,372.448355 215.293874,374.556734 C221.618996,376.599222 224.913399,380.091277 224.913399,380.091277 L224.254503,388.524814 L250.872878,387.009419 L284.079939,384.70336 L293.435943,390.69907 Z" id="Fill-91" fill="#ED1E45"></path>
        <path d="M236.707062,300.499775 L236.641178,300.829223 C235.784637,305.507183 236.970626,310.316953 239.737901,314.138407 C240.462597,315.126674 240.989732,315.983215 241.253254,316.971524 C241.385064,317.498617 241.516825,318.02571 241.648586,318.486919 C244.349935,328.831189 248.566728,332.455005 256.209601,331.137248 C263.918407,329.819491 277.754642,321.847171 279.863055,319.343467 C281.378457,317.564494 281.90555,311.305213 282.103237,307.813242 C282.169079,306.495492 282.037353,303.332885 282.037353,303.332885 C287.176571,296.01946 282.498611,281.392561 276.502853,289.562534 C276.107521,290.089627 276.107521,292.461521 276.107521,293.120424 L276.305166,295.624128 C276.436927,297.139481 275.778115,298.654925 274.592168,299.577308 C272.681392,300.895065 270.441259,297.798384 270.111811,295.558244 C270.045969,294.965232 269.914166,294.306371 269.84824,293.713443 C269.45295,290.616762 267.344578,287.585923 266.026821,284.884525 C266.026821,284.818648 265.960944,284.818648 265.960944,284.752764 C263.523117,279.81124 257.922732,277.307536 252.585918,278.822931 C250.016288,279.547669 246.919607,282.578508 243.295833,283.303246 C242.439334,283.435014 241.516867,283.632694 240.726203,283.698536 C237.497719,284.093826 234.994015,286.795259 234.92818,290.089627 C234.86217,290.089669 235.389305,298.786735 236.707062,300.499775 Z" id="Fill-92" fill="#FFF"></path>
        <path d="M238.485984,434.514097 L235.784635,434.514097 C231.699653,434.514097 228.207682,431.417374 227.81235,427.332349 L225.308646,403.020041 L222.343733,403.020041 L222.343733,399.725673 L225.572217,399.725673 L226.758164,395.640683 L250.016286,395.574806 L251.268159,399.659831 L254.49665,399.659831 L254.49665,402.954157 L251.53173,402.954157 L249.159787,427.002943 C248.764497,431.285613 245.140681,434.514097 240.923937,434.514097 L238.485984,434.514097 Z" id="Fill-93" fill="#E6E6E6"></path>
        <path d="M237.366084,426.146441 C233.215175,426.146441 229.85493,421.666126 229.85493,416.131618 C229.85493,410.597075 233.215133,406.116802 237.300165,406.050876 C241.451074,406.050876 244.811319,410.531233 244.811319,416.065741 C244.811319,421.6002 241.451074,426.146441 237.366084,426.146441" id="Fill-94" fill="#51C8EC"></path>
        <path d="M290.536822,404.86484 C289.680281,408.422779 288.362566,416.329223 288.362566,416.329223 C288.362566,416.329223 281.510266,415.406798 279.467813,415.736204 C278.874794,415.802088 271.82494,416.526868 271.429566,416.526868 C267.542221,416.658629 264.577308,416.856316 262.007762,416.658629 C259.833506,416.460984 257.790969,413.364303 256.605022,412.112388 C255.287265,410.794722 254.298963,410.004058 253.508341,409.5428 C252.322352,408.883946 251.004595,408.686301 251.004595,408.686301 L250.411618,413.430145 C250.213931,415.143227 249.093861,416.658629 247.446705,417.317525 C245.667732,418.042263 242.900464,418.767043 238.354307,418.96473 C230.447864,419.359978 226.4946,415.011466 226.4946,415.011466 C224.649834,417.910544 224.518031,422.061411 225.638094,424.235667 C226.626403,426.278119 226.82409,429.638406 228.734817,433.26218 C230.250177,436.09529 236.509457,436.754193 243.16407,437.478973 C246.787886,437.874305 252.98129,434.250531 255.287307,435.041104 C257.988656,435.897687 280.78557,440.246199 298.9704,438.533117 C307.272134,437.742495 312.806684,429.836051 314.717411,426.212277 C317.352876,421.138986 320.515441,408.818062 323.54628,396.62899 C323.54628,396.62899 321.503785,394.718263 313.267893,391.423895 C305.032043,388.063643 293.370015,390.699157 293.370015,390.699157" id="Fill-95" fill="#FFF"></path>
        <path d="M160.673553,375.149749 C159.355804,374.952104 158.696943,375.940413 159.224015,377.389931 C159.751108,378.839491 161.26653,380.223083 162.584266,380.420728 C163.902016,380.618373 164.560877,379.630106 164.033805,378.180546 C163.506691,376.796954 161.991289,375.41332 160.673553,375.149749" id="Fill-96" fill="#FFF"></path>
        <path d="M42.9100034,498.758419 C41.7946915,500.110441 37.7044735,502.992435 37.1368744,503.373095 C36.5840118,503.745256 34.4646243,505.161465 32.1768233,505.971994 C30.8761572,506.82435 30.8419552,507.246234 29.7091504,507.731483 C29.7091504,507.731483 28.6312412,508.14102 27.0556816,508.539041 C25.4801323,508.93706 23.2095106,509.405585 23.2095106,509.405585 C19.9021853,502.589594 16.3402572,493.961939 15.4701579,491.856501 C15.0734009,490.896468 10.1240735,481.306232 7.47828465,475.483906 C6.10777564,472.467949 3.77135097,466.872617 2.21488865,461.064209 C-0.338870348,452.366182 0.0903179487,448.872555 0,448.090613 C0,448.090613 0.483306771,447.350325 1.89705351,446.683 C3.31078964,446.015677 4.28657939,445.47324 5.65496579,445.421318 C6.67432679,445.380006 7.42220527,445.45822 8.21400823,445.937846 C8.37904595,446.184045 8.63748682,446.522693 8.96642791,446.973099 C10.8705172,449.586297 14.0030236,454.252461 18.3140264,458.597851 C19.5455146,459.280547 20.4885519,460.453909 21.3575487,461.307967 C29.9430954,468.903556 32.595201,471.057411 35.8316248,474.025645 C38.8883376,475.715093 41.2183682,476.691714 42.388867,478.890752 C41.7481187,481.018346 39.9517624,482.167306 38.6893331,482.100229 C37.3686553,484.404923 36.2034039,487.258272 37.6210173,491.215623 C38.0505649,492.414728 39.2403988,494.761623 39.9144623,495.647564 C40.9277582,496.987297 42.6345292,497.448524 42.7452484,497.586126" id="Fill-97" fill="#000"></path>
        <path d="M33.4143863,472.150685 C33.2981691,473.390159 33.2805129,474.143039 33.2879045,474.935398 C33.2952944,475.727775 33.4424951,476.287477 33.6835917,476.642799 C33.9246855,476.998141 35.0219192,476.601728 35.1240751,475.604501 C35.2262302,474.607218 35.3304802,473.663645 35.2337458,471.785833 C35.1370134,469.908039 33.530604,470.911154 33.4143863,472.150685 Z" id="Fill-103" fill="#FFF"></path>
        <path d="M36.5892344,474.122916 C37.0700556,475.872471 36.882467,476.728663 36.8970895,477.706485 C36.9117145,478.684384 36.7480358,479.616429 36.9924439,480.056642 C37.2368477,480.496836 38.6316514,479.974127 38.7247339,478.744232 C38.8178183,477.514319 38.7344485,476.685152 38.62055,474.367186 C38.5066558,472.049277 36.1084128,472.373379 36.5892344,474.122916 Z" id="Fill-104" fill="#FFF"></path>
        <path d="M121.0459,506.261453 C121.398446,508.039647 121.019296,513.167767 120.951175,513.866472 C120.885901,514.547965 120.62733,517.153389 119.769833,519.483986 C119.597615,521.071671 119.914832,521.381479 119.557814,522.591773 C119.557814,522.591773 119.176016,523.708373 118.456514,525.205947 C117.736998,526.70353 116.615426,528.791251 116.615426,528.791251 C108.943191,526.801075 99.643923,523.794232 97.3740369,523.061142 C96.3389873,522.726861 85.3487062,520.157755 78.9133487,518.317608 C75.5799139,517.364455 69.5316479,515.435038 63.826596,512.753503 C55.1362001,508.912059 52.6060673,506.232829 51.916734,505.778718 C51.916734,505.778718 51.6396179,504.904556 52.0354166,503.352659 C52.4312531,501.800794 52.6386235,500.674786 53.5000914,499.571238 C54.1397577,498.747419 54.696404,498.215793 55.6053087,497.919165 C55.9125559,497.955479 56.355872,497.980847 56.9357429,498.026153 C60.2970976,498.292375 66.1226656,498.976657 72.4678013,498.525267 C73.8305566,498.021554 75.3980066,498.072304 76.6594008,497.966633 C88.4437457,496.357561 91.9290008,495.731405 96.4557683,495.195273 C99.8341197,493.941523 102.158637,492.777 104.702263,493.338318 C105.992647,495.266218 105.732138,497.440097 104.84476,498.381048 C105.82891,500.958808 107.357519,503.783295 111.480229,505.331334 C112.729449,505.80041 115.40488,506.445806 116.563275,506.513752 C118.311087,506.621265 119.809183,505.597738 119.993126,505.603607" id="Fill-105" fill="#000"></path>
        <path d="M54.6273598,498.406258 C54.6273598,498.406258 54.7026054,499.703384 61.2064856,502.891216 C67.710372,506.079052 75.0354773,509.297013 83.1699053,511.825352 C91.304333,514.353692 102.68886,517.30428 111.483467,519.960732 C120.278074,522.617184 118.538133,521.588364 119.906345,521.415192 C119.934402,521.370292 119.753285,520.64192 119.753285,520.64192 C119.753285,520.64192 117.865105,520.551772 114.294591,519.754532 C111.917343,519.22389 108.073257,518.04927 105.495186,517.305382 C99.5549571,515.59135 83.6494978,511.057844 83.6494978,511.057844 C83.6494978,511.057844 71.4980443,507.078547 62.3606929,502.428421 C59.0144638,500.649261 58.3375031,500.654514 55.2789557,498.042326 C54.9235834,497.972147 54.6273598,498.406258 54.6273598,498.406258 Z" id="Fill-106" fill="#000"></path>
        <path d="M74.621782,498.133245 C75.3369714,498.825492 75.382211,498.792603 75.8958213,499.148591 C76.4094427,499.504587 76.8702878,499.605624 77.2648001,499.513328 C77.6593124,499.421032 78.361771,498.382316 77.7923408,497.816198 C77.2229046,497.250076 73.9065932,497.440997 74.621782,498.133245 Z" id="Fill-107" fill="#FFF"></path>
        <path d="M78.796532,497.657587 C79.5588854,498.290939 80.229914,498.817933 80.7623048,499.144993 C81.2946945,499.472055 81.7490076,499.567797 82.1188414,499.487917 C82.4886584,499.408029 82.9708776,498.291696 81.7026594,497.393401 C80.4344411,496.495105 78.0341616,497.024226 78.796532,497.657587 Z" id="Fill-108" fill="#FFF"></path>
        <path d="M83.1209512,497.161507 C84.1569292,497.9669 84.8183431,498.401157 85.5302388,498.831239 C86.2421168,499.261313 86.8311948,499.417731 87.2948349,499.363768 C87.7584727,499.309809 88.070936,497.95187 87.2426841,497.294903 C86.9685175,497.077437 86.6997437,496.862985 86.2395884,496.521216 C85.7938855,496.187491 82.0849399,496.356095 83.1209512,497.161507 Z" id="Fill-109" fill="#FFF"></path>
        <path d="M88.2515171,496.327125 C89.1544186,497.272913 89.7437635,497.798529 90.3840874,498.327731 C91.0244262,498.856945 91.58647,499.099695 92.0573799,499.117489 C92.5283015,499.135299 93.0587955,497.854186 92.3390486,497.085258 C92.0425026,496.76845 91.7535298,496.45748 91.2630813,495.981306 C90.909569,495.635241 87.3485865,495.381311 88.2515171,496.327125 Z" id="Fill-110" fill="#FFF"></path>
        <path d="M93.3501258,495.825053 C94.2715761,496.747446 94.8662192,497.266374 95.5091987,497.79224 C96.1521797,498.318104 96.7000963,498.578684 97.145394,498.628789 C97.5907041,498.678908 97.9957945,497.55601 97.2601393,496.807129 C96.8327194,496.372024 96.4203556,495.948523 95.6903881,495.30657 C95.4227156,495.069368 92.4286626,494.902645 93.3501258,495.825053 Z" id="Fill-111" fill="#FFF"></path>
        <path d="M97.6612532,494.909901 C99.3875754,495.708227 99.3262426,496.18816 100.123375,496.832831 C100.920523,497.477513 101.563043,498.230685 102.078909,498.335179 C102.594728,498.439639 103.094535,496.999594 102.165519,496.101689 C101.462273,495.421986 100.877202,494.975328 99.6332314,494.043411 C99.4436604,493.901346 95.934932,494.111574 97.6612532,494.909901 Z" id="Fill-112" fill="#FFF"></path>
        <text id="NO-ADS" font-family="LucidaGrande, Lucida Grande" font-size="19.2549465" font-weight="normal" fill="#51C8EC">
          <tspan x="275.773118" y="157.161969">NO ADS</tspan>
        </text>
        <text id="NO-ADS" font-family="LucidaGrande, Lucida Grande" font-size="19.2549465" font-weight="normal" fill="#000">
          <tspan x="274.081565" y="154.936616">NO ADS</tspan>
        </text>
        <path d="M92.2652847,31.4220477 C92.2652847,30.7734381 92.3285534,30.1310602 92.4550908,29.4949128 C92.5816282,28.8587662 92.7690029,28.2410744 93.017215,27.6418371 C93.265427,27.0426001 93.5697072,26.4733324 93.9300554,25.9340333 C94.2904034,25.3947343 94.6998954,24.895767 95.1585318,24.437131 C95.6171678,23.9784946 96.1161351,23.5690026 96.6554341,23.2086546 C97.1947332,22.8483064 97.7640009,22.5440262 98.3632379,22.2958142 C98.9624752,22.0476021 99.5801669,21.8602274 100.216314,21.73369 C100.852461,21.6071526 101.494839,21.5438839 102.143449,21.5438839 L132.207427,21.5438839 C132.856034,21.5438839 133.498409,21.6071526 134.134555,21.73369 C134.770703,21.8602274 135.388396,22.0476021 135.987633,22.2958142 C136.58687,22.5440262 137.156138,22.8483064 137.69544,23.2086546 C138.234737,23.5690026 138.733707,23.9784946 139.192344,24.437131 C139.650977,24.895767 140.060466,25.3947343 140.420821,25.9340333 C140.781166,26.4733324 141.085445,27.0426001 141.333659,27.6418371 C141.581862,28.2410744 141.769237,28.8587662 141.895782,29.4949135 C142.022316,30.1310602 142.085591,30.7734381 142.085591,31.4220477 C142.085591,32.0706574 142.022316,32.7130352 141.895782,33.3491821 C141.769237,33.9853288 141.581862,34.60302 141.333659,35.2022564 C141.085445,35.8014927 140.781166,36.3707607 140.420821,36.9100603 C140.060466,37.4493599 139.650977,37.9483269 139.192344,38.4069641 C138.733707,38.8655992 138.234737,39.2750908 137.69544,39.6354389 C137.156138,39.9957863 136.58687,40.3000672 135.987633,40.5482795 C135.388396,40.7964925 134.770703,40.9838664 134.134558,41.1104032 C133.498412,41.2369415 132.856034,41.3002117 132.207427,41.3002117 L102.143449,41.3002117 C101.494839,41.3002117 100.852461,41.2369415 100.216314,41.1104032 C99.5801669,40.9838664 98.9624752,40.7964925 98.3632379,40.5482795 C97.7640009,40.3000672 97.1947332,39.9957863 96.6554341,39.6354382 C96.1161351,39.2750908 95.6171678,38.8655992 95.1585318,38.4069641 C94.6998954,37.9483269 94.2904034,37.4493599 93.9300554,36.9100603 C93.5697072,36.3707607 93.265427,35.8014927 93.017215,35.2022564 C92.7690029,34.60302 92.5816282,33.9853288 92.4550908,33.3491821 C92.3285534,32.7130352 92.2652847,32.0706574 92.2652847,31.4220477 Z" id="Fill-113" fill="#FFF"></path>
        <path d="M115.457483,9.51827381 C115.935735,9.51827381 116.412834,9.53964407 116.88878,9.58238459 C117.364727,9.6251251 117.837231,9.68903005 118.306289,9.77409946 C118.775351,9.85916888 119.238708,9.9649931 119.696365,10.0915722 C120.154022,10.2181513 120.603772,10.3648756 121.045616,10.5317452 C121.487462,10.6986149 121.919274,10.8848262 122.341053,11.0903795 C122.762832,11.2959328 123.172545,11.519838 123.570195,11.7620951 C123.967846,12.0043524 124.351519,12.2637951 124.721212,12.5404234 C125.090905,12.8170515 125.444836,13.1095328 125.783009,13.4178677 C126.121182,13.7262029 126.441969,14.0489065 126.745367,14.3859786 C127.048766,14.7230507 127.333314,15.0728685 127.599013,15.4354318 C127.864715,15.7979955 128.110288,16.1715588 128.335735,16.5561217 C128.561182,16.9406846 128.765413,17.3343951 128.948433,17.7372542 C129.131451,18.1401132 129.292376,18.5501807 129.431204,18.9674565 C129.570033,19.3847311 129.686097,19.8072054 129.7794,20.2348781 C129.872702,20.6625508 129.942795,21.0933623 129.989671,21.5273147 C130.036548,21.9612671 130.059986,22.3962695 130.059986,22.8323205 C130.059986,23.2683722 130.036548,23.7033739 129.989671,24.1373263 C129.942795,24.571278 129.872702,25.0020887 129.7794,25.4297607 C129.686097,25.8574327 129.570033,26.2799065 129.431204,26.6971821 C129.292376,27.114457 129.131451,27.524524 128.948433,27.9273824 C128.765413,28.3302422 128.561182,28.7239537 128.335735,29.1085176 C128.110288,29.4930808 127.864715,29.8666428 127.599013,30.2292057 C127.333314,30.5917707 127.048766,30.9415886 126.745365,31.2786603 C126.441969,31.6157341 126.121182,31.9384369 125.783009,32.2467722 C125.444836,32.5551075 125.090905,32.8475899 124.721212,33.124218 C124.351519,33.4008468 123.967846,33.6602864 123.570195,33.9025431 C123.172545,34.1448026 122.762832,34.3687088 122.341053,34.5742624 C121.919274,34.7798153 121.487462,34.9660251 121.045616,35.1328918 C120.603772,35.2997606 120.154022,35.4464848 119.696365,35.5730672 C119.238708,35.699644 118.775351,35.8054679 118.306289,35.8905382 C117.837231,35.9756078 117.364727,36.0395136 116.888779,36.0822563 C116.412834,36.1249969 115.935735,36.1463672 115.457483,36.1463672 C114.979234,36.1463672 114.502135,36.1249969 114.026188,36.0822563 C113.550241,36.0395136 113.077736,35.9756078 112.608675,35.8905382 C112.139614,35.8054679 111.676256,35.699644 111.2186,35.5730672 C110.760943,35.4464848 110.311191,35.2997606 109.869346,35.1328918 C109.427501,34.9660251 108.995689,34.7798153 108.573911,34.5742624 C108.152133,34.3687088 107.742418,34.1448026 107.344767,33.9025431 C106.947116,33.6602864 106.563445,33.4008468 106.193753,33.124218 C105.824061,32.8475899 105.470128,32.5551075 105.131955,32.2467722 C104.793781,31.9384369 104.472995,31.6157341 104.169596,31.2786603 C103.866198,30.9415886 103.581648,30.5917707 103.315946,30.2292057 C103.050245,29.8666428 102.804671,29.4930808 102.579226,29.1085176 C102.35378,28.7239537 102.149549,28.3302422 101.96653,27.9273824 C101.783512,27.524524 101.622588,27.114457 101.48376,26.6971821 C101.344931,26.2799065 101.228866,25.8574327 101.135564,25.4297607 C101.042262,25.0020887 100.972173,24.571278 100.925296,24.1373249 C100.878419,23.7033739 100.854981,23.2683722 100.854981,22.8323205 C100.854981,22.3962695 100.878419,21.9612671 100.925296,21.5273147 C100.972173,21.0933623 101.042262,20.6625508 101.135564,20.2348781 C101.228866,19.8072054 101.344931,19.3847311 101.48376,18.9674565 C101.622588,18.5501807 101.783512,18.1401132 101.96653,17.7372542 C102.149549,17.3343951 102.35378,16.9406846 102.579226,16.5561217 C102.804671,16.1715595 103.050245,15.7979962 103.315946,15.4354325 C103.581648,15.0728691 103.866198,14.7230511 104.169596,14.385979 C104.472995,14.0489065 104.793781,13.7262029 105.131955,13.4178677 C105.470128,13.1095328 105.824061,12.8170515 106.193753,12.5404234 C106.563445,12.2637951 106.947116,12.0043522 107.344767,11.762095 C107.742418,11.519838 108.152132,11.2959326 108.57391,11.0903794 C108.995689,10.8848262 109.427501,10.6986149 109.869346,10.5317452 C110.311191,10.3648756 110.760943,10.2181513 111.2186,10.0915722 C111.676256,9.9649931 112.139614,9.85916888 112.608675,9.77409946 C113.077736,9.68903005 113.550241,9.6251251 114.026188,9.58238459 C114.502135,9.53964407 114.979234,9.51827381 115.457483,9.51827381 Z" id="Fill-114" fill="#FFF"></path>
        <path d="M529.766133,0 C530.981205,0 532.19335,0.0595488625 533.402571,0.178646612 C534.611787,0.297744358 535.812258,0.47581746 537.003978,0.712865939 C538.195704,0.949914502 539.372943,1.24479689 540.535687,1.59751337 C541.698438,1.95022972 542.841102,2.35908151 543.96368,2.82406896 C545.086264,3.28905655 546.183352,3.80794058 547.254944,4.38072068 C548.326542,4.95350113 549.367484,5.57741959 550.377777,6.25247612 C551.388069,6.92753357 552.362853,7.65047872 553.302116,8.42131143 C554.241379,9.19214413 555.140604,10.0071528 555.999785,10.8663373 C556.858972,11.7255232 557.673981,12.6247469 558.444813,13.5640083 C559.215645,14.5032704 559.938588,15.4780483 560.613642,16.4883422 C561.288702,17.4986368 561.912625,18.539583 562.485407,19.6111787 C563.058184,20.682775 563.577064,21.7798626 564.042052,22.9024407 C564.507045,24.0250223 564.915898,25.1676862 565.268611,26.3304366 C565.621329,27.4931897 565.916209,28.6704259 566.153257,29.8621465 C566.390308,31.053872 566.568385,32.2543454 566.687485,33.4635666 C566.806585,34.6727851 566.866132,35.8849303 566.866132,37.0999994 C566.866132,38.3150712 566.80658,39.5272164 566.687479,40.7364377 C566.568385,41.9456534 566.390308,43.146124 566.153257,44.3378445 C565.916209,45.52957 565.621329,46.706809 565.268611,47.8695538 C564.915898,49.0323042 564.507045,50.1749687 564.042052,51.2975468 C563.577064,52.4201305 563.058184,53.5172188 562.485402,54.5888103 C561.91262,55.6604081 561.288702,56.70135 560.613642,57.7116432 C559.938588,58.7219357 559.215645,59.6967193 558.444813,60.6359821 C557.673981,61.5752456 556.858972,62.4744704 555.999785,63.3336511 C555.140604,64.1928381 554.241384,65.0078474 553.302121,65.778679 C552.362858,66.5495113 551.388075,67.2724545 550.377782,67.9475085 C549.367489,68.6225682 548.326542,69.2464915 547.254949,69.8192735 C546.183352,70.3920506 545.086264,70.9109305 543.96368,71.3759181 C542.841102,71.8409113 541.698438,72.2497645 540.535687,72.6024777 C539.372943,72.9551958 538.195704,73.2500757 537.003981,73.4871229 C535.81226,73.7241744 534.61179,73.9022509 533.402571,74.021351 C532.19335,74.1404511 530.981205,74.1999987 529.766133,74.1999987 C528.551064,74.1999987 527.338919,74.1404462 526.1297,74.0213454 C524.920479,73.9022509 523.720006,73.7241744 522.52828,73.4871229 C521.33656,73.2500757 520.159323,72.9551958 518.99657,72.6024777 C517.83382,72.2497645 516.691156,71.8409113 515.568574,71.3759181 C514.445996,70.9109305 513.348909,70.3920506 512.277311,69.8192686 C511.205715,69.2464859 510.164769,68.6225682 509.154474,67.9475085 C508.144182,67.2724545 507.169404,66.5495113 506.23014,65.778679 C505.290879,65.0078474 504.391657,64.1928381 503.532471,63.3336511 C502.673286,62.4744704 501.858278,61.5752505 501.087446,60.6359877 C500.316613,59.6967242 499.593668,58.7219413 498.91861,57.7116481 C498.243554,56.7013556 497.619635,55.6604081 497.046854,54.5888159 C496.474074,53.5172188 495.95519,52.4201305 495.490203,51.2975468 C495.025215,50.1749687 494.616363,49.0323042 494.263647,47.8695538 C493.910931,46.706809 493.616048,45.52957 493.379,44.3378473 C493.141951,43.1461268 492.963878,41.9456562 492.84478,40.7364377 C492.725682,39.5272164 492.666134,38.3150712 492.666134,37.0999994 C492.666134,35.8849303 492.725682,34.6727851 492.84478,33.4635666 C492.963878,32.2543454 493.141951,31.053872 493.379,29.8621465 C493.616048,28.6704259 493.91093,27.4931897 494.263647,26.3304366 C494.616363,25.1676862 495.025215,24.0250223 495.490203,22.9024407 C495.95519,21.7798626 496.474074,20.682775 497.046854,19.6111773 C497.619635,18.5395816 498.243553,17.4986354 498.91861,16.4883408 C499.593667,15.4780483 500.316612,14.5032704 501.087445,13.5640069 C501.858278,12.6247455 502.673286,11.7255232 503.532471,10.8663373 C504.391657,10.0071528 505.29088,9.19214483 506.230142,8.42131213 C507.169404,7.65047935 508.144182,6.92753427 509.154476,6.25247675 C510.16477,5.57741994 511.205717,4.95350113 512.277312,4.38072068 C513.348909,3.80794058 514.445996,3.28905655 515.568574,2.82406896 C516.691156,2.35908151 517.83382,1.95022986 518.99657,1.59751351 C520.159323,1.24479703 521.33656,0.949914502 522.52828,0.712865939 C523.720006,0.47581746 524.920479,0.297744358 526.1297,0.178646612 C527.338919,0.0595488625 528.551064,0 529.766133,0 Z" id="Fill-115" fill="#FFDC32"></path>
        <path d="M449.927512,45.1898414 C449.927512,44.6452282 449.980636,44.1058473 450.086885,43.5716983 C450.193134,43.0375498 450.350465,42.5188972 450.558879,42.0157408 C450.767294,41.5125841 451.022786,41.0345912 451.325357,40.5817621 C451.627928,40.1289329 451.971763,39.7099688 452.356862,39.3248695 C452.741962,38.9397699 453.160926,38.5959349 453.613755,38.2933641 C454.066584,37.9907933 454.544577,37.7353008 455.047734,37.5268865 C455.55089,37.3184721 456.069543,37.1611406 456.603692,37.0548919 C457.13784,36.9486432 457.677221,36.8955189 458.221834,36.8955189 L524.505239,36.8955189 C525.049849,36.8955189 525.589226,36.9486432 526.123374,37.0548919 C526.657518,37.1611406 527.176168,37.3184721 527.679324,37.5268865 C528.182482,37.7353008 528.660479,37.9907933 529.113312,38.2933641 C529.566139,38.5959349 529.985103,38.9397699 530.370206,39.3248695 C530.755304,39.7099688 531.099136,40.1289329 531.401706,40.5817621 C531.704277,41.0345912 531.959764,41.5125841 532.16818,42.0157408 C532.376597,42.5188972 532.53393,43.0375498 532.64018,43.5716989 C532.746431,44.1058473 532.799559,44.6452282 532.799559,45.1898414 C532.799559,45.734454 532.746431,46.2738349 532.64018,46.8079826 C532.53393,47.3421317 532.376597,47.8607837 532.168186,48.36394 C531.95977,48.8670972 531.704282,49.3450894 531.401712,49.797918 C531.099142,50.2507465 530.755304,50.6697126 530.370206,51.0548134 C529.985103,51.4399114 529.566139,51.7837458 529.113312,52.0863173 C528.660479,52.3888895 528.182482,52.6443811 527.679324,52.8527956 C527.176168,53.0612101 526.657518,53.2185414 526.123369,53.3247902 C525.589226,53.4310383 525.049849,53.4841641 524.505239,53.4841641 L458.221834,53.4841641 C457.677221,53.4841641 457.13784,53.4310383 456.603691,53.3247895 C456.069543,53.21854 455.55089,53.061208 455.047734,52.8527928 C454.544577,52.6443783 454.066584,52.3888867 453.613755,52.0863159 C453.160926,51.7837458 452.741962,51.4399114 452.356862,51.054812 C451.971763,50.6697126 451.627928,50.2507465 451.325357,49.797918 C451.022786,49.3450894 450.767294,48.8670972 450.558879,48.36394 C450.350465,47.8607837 450.193134,47.3421317 450.086885,46.8079832 C449.980636,46.2738349 449.927512,45.734454 449.927512,45.1898414 Z" id="Fill-116" fill="#FFF"></path>
        <path d="M455.221505,20.318115 C455.764558,20.318115 456.306305,20.3447295 456.846744,20.3979585 C457.387182,20.4511875 457.923711,20.5307748 458.456329,20.6367202 C458.988949,20.7426657 459.515093,20.8744592 460.034762,21.0321007 C460.554432,21.1897423 461.065124,21.3724727 461.566839,21.5802922 C462.068557,21.7881117 462.558881,22.0200195 463.03781,22.2760156 C463.51674,22.5320116 463.981968,22.8108631 464.4335,23.1125701 C464.885033,23.4142776 465.320693,23.7373874 465.740481,24.0818996 C466.160269,24.4264125 466.562158,24.7906692 466.946154,25.1746693 C467.330151,25.5586697 467.694405,25.9605644 468.038913,26.3803538 C468.383422,26.8001437 468.70653,27.2358072 469.008233,27.6873435 C469.309937,28.1388806 469.588785,28.6041162 469.844778,29.0830511 C470.10077,29.5619859 470.332677,30.0523135 470.540495,30.554034 C470.748312,31.055755 470.93104,31.5664537 471.088681,32.0861277 C471.246321,32.605802 471.378113,33.1319514 471.484057,33.6645751 C471.590003,34.1971988 471.669591,34.7337327 471.722821,35.2741768 C471.77605,35.8146202 471.802665,36.3563726 471.802665,36.8994298 C471.802665,37.4424891 471.77605,37.9842401 471.722821,38.5246834 C471.669591,39.0651268 471.590003,39.60166 471.484057,40.1342837 C471.378113,40.6669088 471.246321,41.1930568 471.088681,41.7127312 C470.93104,42.2324063 470.748312,42.7431032 470.540495,43.2448233 C470.332677,43.7465469 470.100773,44.2368758 469.84478,44.7158102 C469.588788,45.1947425 469.309937,45.6599765 469.008233,46.1115136 C468.70653,46.5630542 468.383422,46.9987195 468.038915,47.4185081 C467.694408,47.8382981 467.330154,48.2401926 466.946156,48.6241909 C466.56216,49.008192 466.160269,49.3724482 465.740481,49.7169609 C465.320693,50.0614735 464.885033,50.3845809 464.4335,50.6862858 C463.981968,50.9879942 463.516737,51.2668441 463.037807,51.5228418 C462.558878,51.7788346 462.068555,52.0107411 461.566837,52.2185613 C461.065122,52.4263822 460.554431,52.6091151 460.034761,52.7667586 C459.515092,52.9243986 458.988947,53.0561911 458.456328,53.1621347 C457.923711,53.2680832 457.387182,53.3476739 456.846744,53.4009012 C456.306305,53.4541306 455.764558,53.4807453 455.221505,53.4807453 C454.678451,53.4807453 454.136704,53.4541306 453.596266,53.4009033 C453.055828,53.3476739 452.5193,53.2680832 451.986681,53.1621347 C451.454061,53.0561911 450.927917,52.9244014 450.408247,52.7667607 C449.888578,52.6091207 449.377884,52.4263871 448.876169,52.2185669 C448.374453,52.010746 447.884131,51.7788395 447.405201,51.5228446 C446.92627,51.2668497 446.461038,50.9879963 446.009505,50.6862886 C445.557973,50.3845837 445.122314,50.0614735 444.702528,49.7169609 C444.282742,49.3724482 443.88085,49.008192 443.496854,48.6241909 C443.112857,48.2401926 442.748604,47.8382981 442.404095,47.4185081 C442.059585,46.9987195 441.736478,46.5630542 441.434774,46.1115136 C441.133069,45.6599765 440.854221,45.1947425 440.598227,44.7158102 C440.342233,44.2368758 440.110328,43.7465469 439.90251,43.2448233 C439.694693,42.7431032 439.511964,42.2324063 439.354324,41.7127312 C439.196684,41.1930568 439.064891,40.6669074 438.958947,40.1342823 C438.853002,39.60166 438.773416,39.0651268 438.720187,38.5246834 C438.666959,37.9842401 438.640345,37.4424891 438.640345,36.8994298 C438.640345,36.3563726 438.666959,35.8146216 438.720187,35.2741782 C438.773416,34.7337327 438.853002,34.1971988 438.958947,33.6645751 C439.064891,33.1319514 439.196684,32.605802 439.354324,32.0861277 C439.511964,31.5664537 439.694693,31.055755 439.90251,30.554034 C440.110328,30.0523135 440.342233,29.5619859 440.598227,29.0830511 C440.854221,28.6041162 441.133069,28.1388806 441.434774,27.6873435 C441.736478,27.2358072 442.059585,26.8001437 442.404095,26.3803538 C442.748604,25.9605644 443.112857,25.5586697 443.496854,25.1746693 C443.88085,24.7906692 444.282741,24.4264129 444.702527,24.0818999 C445.122313,23.737387 445.557972,23.4142772 446.009504,23.1125699 C446.461037,22.8108629 446.926269,22.5320114 447.405199,22.2760153 C447.88413,22.0200194 448.374453,21.7881117 448.876168,21.5802922 C449.377884,21.3724727 449.888576,21.1897423 450.408247,21.0321007 C450.927917,20.8744592 451.454061,20.7426657 451.986681,20.6367202 C452.5193,20.5307748 453.055828,20.4511875 453.596266,20.3979585 C454.136704,20.3447295 454.678451,20.318115 455.221505,20.318115 Z" id="Fill-117" fill="#FFF"></path>
        <path d="M487.951624,10.966638 C488.552103,10.966638 489.151138,10.9960669 489.748726,11.0549247 C490.346314,11.1137824 490.939577,11.2017857 491.528517,11.3189344 C492.117459,11.4360831 492.699242,11.5818131 493.273864,11.7561246 C493.848489,11.930436 494.413185,12.1324894 494.967954,12.3622849 C495.522728,12.5920804 496.064903,12.8485113 496.59448,13.1315779 C497.124057,13.4146443 497.638485,13.7229832 498.137765,14.0565946 C498.637047,14.3902059 499.118775,14.7474831 499.582954,15.1284265 C500.04713,15.50937 500.49152,15.912145 500.916119,16.3367515 C501.340722,16.761358 501.743492,17.2057513 502.124433,17.6699322 C502.505373,18.134113 502.862644,18.6158463 503.196252,19.1151308 C503.529861,19.6144159 503.838199,20.1288483 504.121263,20.6584284 C504.404327,21.1880086 504.660758,21.7301866 504.890549,22.284961 C505.120346,22.8397361 505.322399,23.404438 505.496707,23.9790666 C505.671015,24.5536952 505.816744,25.1354813 505.933892,25.724427 C506.051041,26.3133734 506.139045,26.906645 506.197906,27.5042378 C506.256762,28.1018313 506.286189,28.7008689 506.286189,29.3013534 C506.286189,29.9018386 506.256762,30.5008776 506.197906,31.0984711 C506.139045,31.6960639 506.051041,32.2893328 505.933892,32.8782763 C505.816744,33.467222 505.671015,34.0490081 505.496707,34.6236381 C505.322397,35.1982653 505.120344,35.7629672 504.890546,36.317741 C504.660755,36.8725148 504.404325,37.4146928 504.121261,37.9442778 C503.838197,38.4738571 503.529858,38.9882885 503.196252,39.4875761 C502.862644,39.9868609 502.505373,40.4685946 502.124433,40.932773 C501.743492,41.3969549 501.340722,41.8413492 500.916116,42.2659545 C500.491517,42.6905626 500.047127,43.0933384 499.582948,43.4742812 C499.11877,43.8552247 498.637042,44.2125011 498.137759,44.5461085 C497.638482,44.8797208 497.124054,45.1880617 496.594477,45.4711256 C496.0649,45.7541944 495.522725,46.0106254 494.967954,46.2404193 C494.413185,46.470216 493.848489,46.6722689 493.273864,46.8465829 C492.699242,47.0208941 492.117459,47.1666222 491.528517,47.28377 C490.939577,47.4009213 490.346314,47.488926 489.748726,47.5477841 C489.151138,47.6066401 488.552103,47.6360695 487.951624,47.6360695 C487.351144,47.6360695 486.75211,47.6066401 486.154522,47.5477841 C485.556934,47.4889232 484.963669,47.4009185 484.374726,47.2837679 C483.785785,47.1666194 483.204003,47.0208913 482.629379,46.8465829 C482.054756,46.6722689 481.49006,46.4702139 480.935288,46.2404165 C480.380518,46.0106226 479.838345,45.7541923 479.30877,45.4711256 C478.779194,45.1880617 478.264766,44.8797208 477.765485,44.5461085 C477.266205,44.2125011 476.784476,43.8552247 476.320299,43.474284 C475.856122,43.0933384 475.411732,42.6905626 474.987128,42.2659545 C474.562526,41.8413492 474.159754,41.3969549 473.778813,40.932773 C473.397873,40.4685946 473.040599,39.9868609 472.70699,39.4875733 C472.373381,38.9882885 472.065045,38.4738543 471.781981,37.944275 C471.498917,37.4146928 471.242488,36.8725148 471.012694,36.317741 C470.782901,35.7629672 470.580849,35.1982653 470.406539,34.6236381 C470.232229,34.0490081 470.0865,33.467222 469.969352,32.8782763 C469.852205,32.2893328 469.764202,31.6960625 469.705345,31.0984697 C469.646488,30.5008776 469.617059,29.9018386 469.617059,29.3013534 C469.617059,28.7008689 469.646488,28.1018313 469.705345,27.5042392 C469.764202,26.906645 469.852205,26.3133734 469.969352,25.724427 C470.0865,25.1354813 470.232229,24.5536952 470.406539,23.9790666 C470.580849,23.404438 470.782901,22.8397361 471.012694,22.284961 C471.242488,21.7301866 471.498917,21.1880086 471.781981,20.6584284 C472.065045,20.1288483 472.373381,19.6144159 472.70699,19.1151308 C473.040599,18.6158463 473.397873,18.1341137 473.778813,17.6699328 C474.159754,17.205752 474.562526,16.761358 474.987128,16.3367515 C475.411732,15.912145 475.856122,15.50937 476.320299,15.1284268 C476.784476,14.7474831 477.266204,14.3902059 477.765484,14.0565946 C478.264765,13.7229832 478.779194,13.4146443 479.30877,13.1315779 C479.838345,12.8485113 480.380518,12.5920804 480.935288,12.3622849 C481.49006,12.1324894 482.054756,11.930436 482.629379,11.7561246 C483.204003,11.5818131 483.785785,11.4360831 484.374726,11.3189344 C484.963669,11.2017857 485.556935,11.1137824 486.154523,11.0549247 C486.75211,10.9960669 487.351144,10.966638 487.951624,10.966638 Z" id="Fill-118" fill="#FFF"></path>
        <path d="M510.453563,23.8248653 C511.100965,23.8248653 511.742148,23.8880174 512.377111,24.0143215 C513.012075,24.1406257 513.628617,24.3276549 514.226739,24.5754094 C514.824861,24.8231639 515.39307,25.126883 515.931367,25.4865668 C516.469664,25.8462503 516.967703,26.2549875 517.425487,26.7127782 C517.883269,27.1705683 518.291999,27.6686158 518.651677,28.2069205 C519.011353,28.7452252 519.315068,29.3134438 519.562819,29.911576 C519.810569,30.5097085 519.997595,31.1262613 520.123898,31.7612351 C520.250202,32.3962089 520.313353,33.0374031 520.313353,33.6848172 C520.313353,34.3322298 520.250202,34.9734227 520.1239,35.6083963 C519.997597,36.2433698 519.810569,36.8599228 519.562819,37.4580553 C519.315068,38.0561871 519.011353,38.6244051 518.651677,39.16271 C518.291998,39.7010149 517.883268,40.1990621 517.425484,40.6568537 C516.967701,41.1146438 516.469661,41.5233808 515.931365,41.8830646 C515.393069,42.242747 514.82486,42.5464658 514.226738,42.7942203 C513.628616,43.0419762 513.012074,43.2290057 512.377111,43.3553095 C511.742148,43.4816154 511.100965,43.5447687 510.453563,43.5447687 C509.80616,43.5447687 509.164976,43.4816154 508.530013,43.3553109 C507.89505,43.2290057 507.278507,43.0419762 506.680385,42.7942217 C506.082262,42.5464672 505.514053,42.2427484 504.975757,41.8830646 C504.437461,41.5233822 503.939422,41.1146452 503.481639,40.6568551 C503.023856,40.1990635 502.615125,39.7010149 502.255447,39.16271 C501.89577,38.6244051 501.592056,38.0561885 501.344305,37.4580553 C501.096555,36.8599228 500.909529,36.2433698 500.783227,35.6083963 C500.656924,34.9734227 500.593773,34.3322298 500.593773,33.6848172 C500.593773,33.0374031 500.656924,32.3962096 500.783227,31.7612357 C500.909529,31.126262 501.096555,30.5097085 501.344305,29.911576 C501.592056,29.3134438 501.89577,28.7452252 502.255448,28.2069205 C502.615125,27.6686158 503.023856,27.1705683 503.481639,26.7127782 C503.939422,26.2549875 504.437461,25.8462503 504.975757,25.4865665 C505.514053,25.1268828 506.082262,24.8231639 506.680385,24.5754094 C507.278507,24.3276549 507.89505,24.1406257 508.530013,24.0143215 C509.164976,23.8880174 509.80616,23.8248653 510.453563,23.8248653 Z" id="Fill-119" fill="#FFF"></path>
        <path d="M7.23571627,445.525177 C7.23571627,445.525177 6.30825281,446.378841 7.98438716,453.081157 C9.66052205,459.783473 11.8280807,467.102722 15.0203699,474.5869 C18.2126653,482.071122 23.1221788,492.183586 26.6314731,500.227754 C30.140763,508.271878 29.8245895,506.370454 30.81116,507.260775 C30.862458,507.253565 31.2963278,506.673021 31.2963278,506.673021 C31.2963278,506.673021 30.1821155,505.241681 28.5460667,502.149034 C27.4566679,500.090057 25.9329146,496.565715 24.8780219,494.229064 C22.4474197,488.845152 15.8972273,474.463666 15.8972273,474.463666 C15.8972273,474.463666 11.2805436,463.158908 9.0545928,453.637132 C8.29668243,450.103193 7.86898076,449.613168 7.9170206,445.77579 C7.74729642,445.473632 7.23571627,445.525177 7.23571627,445.525177 Z" id="Fill-98" fill="#000"></path>
        <path d="M19.9888128,459.371033 C19.9163981,460.318492 19.9374297,460.886057 19.9914718,461.479541 C20.045511,462.073013 20.2580747,462.471036 20.5743708,462.701651 C20.8906685,462.932277 22.2158921,462.47095 22.2847816,461.707372 C22.3536725,460.943794 22.4281797,460.220188 22.2028123,458.825569 C21.9774435,457.430951 20.0612302,458.423585 19.9888128,459.371033 Z" id="Fill-99" fill="#FFF"></path>
        <path d="M22.8945695,462.923746 C22.8959273,463.869294 22.9529108,464.433821 23.0404364,465.023137 C23.1279693,465.61249 23.3404233,466.002505 23.6319446,466.222791 C23.9234574,466.443041 25.0476668,465.944459 25.0557525,465.182102 C25.0638392,464.419745 25.0795457,463.697029 24.7880728,462.315053 C24.4966012,460.933076 22.8932122,461.978198 22.8945695,462.923746 Z" id="Fill-100" fill="#FFF"></path>
        <path d="M26.0070672,465.520226 C26.0504487,466.771108 26.1382017,467.520468 26.2606944,468.304061 C26.3831834,469.087636 26.6344111,469.61321 26.9651788,469.917812 C27.2959395,470.222396 28.5117865,469.613768 28.4869199,468.605649 C28.4620482,467.597492 28.4473261,466.642139 28.0651436,464.800752 C27.6829634,462.959364 25.9636844,464.269324 26.0070672,465.520226 Z" id="Fill-101" fill="#FFF"></path>
        <path d="M29.845454,468.74476 C29.7000483,469.985139 29.6740521,470.738273 29.6772744,471.530758 C29.6804937,472.323262 29.8499332,472.882282 30.1313381,473.236368 C30.4127402,473.590472 31.7073421,473.188001 31.8345158,472.189995 C31.9616927,471.19197 32.0909592,470.247618 31.9900556,468.369933 C31.8891526,466.492266 29.9908596,467.504342 29.845454,468.74476 Z" id="Fill-102" fill="#FFF"></path>
      </g>
    </g>
  </g>
</svg>
