<svg width="374" height="48" viewBox="0 0 374 48" fill="none" xmlns="http://www.w3.org/2000/svg">
<path fill-rule="evenodd" clip-rule="evenodd" d="M12.7987 3L0 15.7899V33.8779L12.7987 46.6678H30.8985L43.6976 33.8779V15.7899L30.8985 3H12.7987Z" fill="#D8D9D9"/>
<path fill-rule="evenodd" clip-rule="evenodd" d="M12.9191 3.28809L0.289062 15.909V33.7581L12.9191 46.379H30.7803L43.4099 33.7581V15.909L30.7803 3.28809H12.9191Z" fill="white"/>
<path fill-rule="evenodd" clip-rule="evenodd" d="M13.7506 44.3694L2.29883 32.9255V16.7418L13.7506 5.29785H29.9458L41.3971 16.7418V32.9255L29.9458 44.3694H13.7506Z" fill="#ED1E45"/>
<path fill-rule="evenodd" clip-rule="evenodd" d="M11.1697 25.9344L10.8637 24.5264C10.673 23.7603 10.4894 22.9468 10.3128 22.0861C10.1358 21.2259 9.95884 20.3965 9.78228 19.5988H9.70082C9.53747 20.4124 9.3706 21.2453 9.20108 22.098C9.03068 22.9507 8.8506 23.7603 8.66039 24.5264L8.33369 25.9344H11.1697ZM11.7817 28.6329H7.72167L6.90579 32.2699H3.8457L8.00743 16.9707H11.6183L15.7805 32.2699H12.5976L11.7817 28.6329Z" fill="white"/>
<path fill-rule="evenodd" clip-rule="evenodd" d="M22.329 29.5957C23.9744 29.5957 24.7973 28.8996 24.7973 27.5075C24.7973 26.8347 24.5935 26.3459 24.1853 26.041C23.7772 25.7356 23.1581 25.5834 22.329 25.5834H20.6356V29.5957H22.329ZM22.0432 23.1427C22.7777 23.1427 23.3113 22.975 23.6446 22.6384C23.9779 22.3023 24.1448 21.8447 24.1448 21.2656C24.1448 20.687 23.9744 20.2726 23.6345 20.0222C23.2946 19.7718 22.7706 19.6464 22.0635 19.6464H20.6356V23.1427H22.0432ZM17.6367 16.9717H22.1859C22.8798 16.9717 23.5222 17.0302 24.114 17.1477C24.7057 17.2652 25.2222 17.4724 25.6647 17.7694C26.1063 18.0668 26.4533 18.458 26.7052 18.9424C26.9566 19.4278 27.0825 20.038 27.0825 20.7728C27.0825 21.1174 27.038 21.4614 26.95 21.8055C26.861 22.1496 26.7285 22.4704 26.5519 22.7674C26.3749 23.0648 26.1438 23.3306 25.8585 23.5651C25.5727 23.8 25.2394 23.9721 24.8585 24.0816V24.1754C25.8105 24.3786 26.5282 24.7702 27.0112 25.3484C27.4937 25.9274 27.735 26.7331 27.735 27.7653C27.735 28.5476 27.6025 29.2204 27.3374 29.7836C27.0724 30.3468 26.7052 30.8123 26.2358 31.1797C25.7664 31.5476 25.2187 31.8212 24.5935 32.0008C23.9678 32.1812 23.2946 32.2709 22.5738 32.2709H17.6367V16.9717Z" fill="white"/>
<path fill-rule="evenodd" clip-rule="evenodd" d="M34.467 24.3395C36.0991 24.3395 36.915 23.5264 36.915 21.8992C36.915 21.1015 36.7076 20.5383 36.2929 20.2096C35.8777 19.881 35.2692 19.7168 34.467 19.7168H32.7943V24.3395H34.467ZM29.7949 16.9717H34.6506C35.3713 16.9717 36.0481 17.0535 36.6803 17.2181C37.3131 17.3822 37.8639 17.6559 38.3328 18.0391C38.8022 18.4228 39.1724 18.931 39.445 19.5646C39.7167 20.1978 39.8527 20.9761 39.8527 21.8992C39.8527 22.7907 39.7131 23.5651 39.4344 24.222C39.1557 24.8794 38.7784 25.4188 38.3024 25.8412C37.826 26.2636 37.2752 26.5769 36.65 26.7797C36.0239 26.9834 35.3577 27.0851 34.6506 27.0851H32.7943V32.2705H29.7949V16.9717Z" fill="white"/>
<path fill-rule="evenodd" clip-rule="evenodd" d="M85.0744 36.0003C86.05 36.0003 86.9633 35.7754 87.8142 35.3255C88.6651 34.8756 89.4195 34.3434 90.0775 33.7289H90.1796L90.4179 35.6053H92.7322V12.167H89.9073V18.3228L90.0435 21.0551C89.3174 20.4845 88.6027 20.0346 87.8993 19.7054C87.1959 19.3762 86.3677 19.2117 85.4147 19.2117C84.4617 19.2117 83.5541 19.4092 82.6919 19.8042C81.8297 20.1992 81.0696 20.7588 80.4116 21.4831C79.7536 22.2073 79.226 23.0906 78.829 24.133C78.4319 25.1755 78.2333 26.3441 78.2333 27.6389C78.2333 30.3163 78.8517 32.3792 80.0883 33.8277C81.3249 35.2761 82.9869 36.0003 85.0744 36.0003ZM63.7442 29.0215L61.6 35.6053H58.707L66.2628 14.0105H69.4621L77.0178 35.6053H73.9887L71.8785 29.0215H63.7442ZM64.4589 26.8159H71.1638L70.1087 23.524C69.7003 22.317 69.3146 21.1155 68.9515 19.9194C68.5885 18.7234 68.2255 17.4999 67.8624 16.2489H67.7263C67.3859 17.4999 67.0342 18.7234 66.6712 19.9194C66.3082 21.1155 65.9224 22.317 65.514 23.524L64.4589 26.8159ZM82.3175 32.1159C83.1117 33.1912 84.2348 33.7289 85.687 33.7289C86.4585 33.7289 87.1845 33.5479 87.8652 33.1858C88.5459 32.8236 89.2266 32.2695 89.9073 31.5233V23.1619C89.2039 22.5474 88.5289 22.114 87.8822 21.8616C87.2356 21.6092 86.5719 21.4831 85.8912 21.4831C85.2332 21.4831 84.6149 21.6312 84.0363 21.9275C83.4577 22.2237 82.9529 22.6407 82.5217 23.1784C82.0906 23.7161 81.7503 24.358 81.5007 25.1041C81.2511 25.8503 81.1263 26.6843 81.1263 27.606C81.1263 29.5372 81.5234 31.0405 82.3175 32.1159ZM105.145 36.0003C106.098 36.0003 107.006 35.8083 107.868 35.4242C108.73 35.0402 109.49 34.4751 110.148 33.7289C110.806 32.9828 111.328 32.072 111.714 30.9966C112.1 29.9213 112.293 28.7033 112.293 27.3426C112.293 26.1137 112.151 24.9999 111.867 24.0014C111.584 23.0028 111.164 22.1469 110.608 21.4337C110.052 20.7204 109.366 20.1718 108.549 19.7877C107.732 19.4037 106.79 19.2117 105.724 19.2117C104.794 19.2117 103.886 19.4256 103.001 19.8536C102.116 20.2815 101.299 20.8137 100.551 21.4501L100.619 18.5533V12.167H97.8277V35.6053H100.074L100.312 33.9593H100.414C101.14 34.5958 101.918 35.0951 102.746 35.4572C103.574 35.8193 104.374 36.0003 105.145 36.0003ZM102.78 33.3503C103.495 33.6027 104.124 33.7289 104.669 33.7289C105.349 33.7289 105.979 33.5808 106.558 33.2845C107.136 32.9882 107.635 32.5713 108.055 32.0336C108.475 31.4959 108.804 30.832 109.042 30.042C109.28 29.2519 109.4 28.3631 109.4 27.3756C109.4 26.4977 109.32 25.6967 109.161 24.9725C109.003 24.2483 108.747 23.6283 108.396 23.1125C108.044 22.5968 107.59 22.1963 107.034 21.911C106.478 21.6257 105.815 21.4831 105.043 21.4831C103.704 21.4831 102.23 22.2073 100.619 23.6557V32.05C101.345 32.6645 102.065 33.098 102.78 33.3503ZM119.124 36.0003C119.51 36.0003 119.827 35.9784 120.077 35.9345C120.326 35.8906 120.542 35.8248 120.724 35.737L120.349 33.696C120.19 33.7399 120.071 33.7618 119.992 33.7618H119.737C119.532 33.7618 119.351 33.674 119.192 33.4985C119.033 33.3229 118.954 33.0157 118.954 32.5768V12.167H116.163V32.3792C116.163 33.5643 116.39 34.4641 116.844 35.0786C117.297 35.6931 118.057 36.0003 119.124 36.0003ZM133.698 35.4407C132.779 35.8138 131.809 36.0003 130.788 36.0003C129.767 36.0003 128.797 35.8138 127.878 35.4407C126.959 35.0676 126.148 34.5245 125.445 33.8112C124.741 33.098 124.18 32.2201 123.76 31.1777C123.34 30.1353 123.13 28.9557 123.13 27.6389C123.13 26.3002 123.34 25.1096 123.76 24.0672C124.18 23.0248 124.741 22.1414 125.445 21.4172C126.148 20.693 126.959 20.1444 127.878 19.7713C128.797 19.3982 129.767 19.2117 130.788 19.2117C131.809 19.2117 132.779 19.3982 133.698 19.7713C134.617 20.1444 135.428 20.693 136.132 21.4172C136.835 22.1414 137.397 23.0248 137.816 24.0672C138.236 25.1096 138.446 26.3002 138.446 27.6389C138.446 28.9557 138.236 30.1353 137.816 31.1777C137.397 32.2201 136.835 33.098 136.132 33.8112C135.428 34.5245 134.617 35.0676 133.698 35.4407ZM130.788 33.7618C130.085 33.7618 129.438 33.6137 128.848 33.3174C128.258 33.0212 127.753 32.6042 127.334 32.0665C126.914 31.5288 126.59 30.8869 126.364 30.1407C126.137 29.3946 126.023 28.5606 126.023 27.6389C126.023 26.7172 126.137 25.8777 126.364 25.1206C126.59 24.3635 126.914 23.7106 127.334 23.1619C127.753 22.6133 128.258 22.1908 128.848 21.8945C129.438 21.5983 130.085 21.4501 130.788 21.4501C131.492 21.4501 132.138 21.5983 132.728 21.8945C133.318 22.1908 133.823 22.6133 134.243 23.1619C134.662 23.7106 134.986 24.3635 135.213 25.1206C135.44 25.8777 135.553 26.7172 135.553 27.6389C135.553 28.5606 135.44 29.3946 135.213 30.1407C134.986 30.8869 134.662 31.5288 134.243 32.0665C133.823 32.6042 133.318 33.0212 132.728 33.3174C132.138 33.6137 131.492 33.7618 130.788 33.7618ZM151.71 35.4572C150.802 35.8193 149.849 36.0003 148.851 36.0003C147.762 36.0003 146.741 35.8138 145.788 35.4407C144.835 35.0676 144.012 34.5245 143.32 33.8112C142.628 33.098 142.084 32.2201 141.687 31.1777C141.29 30.1353 141.091 28.9557 141.091 27.6389C141.091 26.3002 141.307 25.1096 141.738 24.0672C142.169 23.0248 142.747 22.1414 143.473 21.4172C144.2 20.693 145.045 20.1444 146.009 19.7713C146.973 19.3982 147.989 19.2117 149.055 19.2117C150.144 19.2117 151.075 19.3982 151.846 19.7713C152.617 20.1444 153.298 20.5833 153.888 21.088L152.459 22.8657C151.982 22.4487 151.477 22.1085 150.944 21.8452C150.411 21.5818 149.815 21.4501 149.157 21.4501C148.408 21.4501 147.716 21.5983 147.081 21.8945C146.446 22.1908 145.901 22.6133 145.447 23.1619C144.994 23.7106 144.636 24.3635 144.375 25.1206C144.114 25.8777 143.984 26.7172 143.984 27.6389C143.984 28.5606 144.109 29.3946 144.358 30.1407C144.608 30.8869 144.954 31.5288 145.396 32.0665C145.839 32.6042 146.378 33.0212 147.013 33.3174C147.648 33.6137 148.34 33.7618 149.089 33.7618C149.861 33.7618 150.57 33.6027 151.216 33.2845C151.863 32.9663 152.447 32.5877 152.969 32.1488L154.194 33.9594C153.446 34.5958 152.617 35.0951 151.71 35.4572ZM160.107 31.3917L163.204 27.9023L168.037 35.6053H171.1L164.804 26.0259L170.351 19.6067H167.254L160.209 28.0339H160.107V12.167H157.35V35.6053H160.107V31.3917ZM178.544 28.3302V35.6053H173.541V14.1421H181.165C182.39 14.1421 183.536 14.2573 184.602 14.4878C185.669 14.7182 186.599 15.1023 187.393 15.6399C188.187 16.1776 188.817 16.8909 189.282 17.7797C189.747 18.6685 189.98 19.7603 189.98 21.0551C189.98 22.306 189.747 23.3924 189.282 24.3141C188.817 25.2358 188.187 25.993 187.393 26.5855C186.599 27.178 185.68 27.617 184.636 27.9023C183.592 28.1876 182.481 28.3302 181.301 28.3302H178.544ZM180.994 24.4787H178.544V17.9936H180.858C182.22 17.9936 183.263 18.2241 183.99 18.6849C184.716 19.1458 185.079 19.9359 185.079 21.0551C185.079 23.3375 183.717 24.4787 180.994 24.4787ZM199.025 35.8851C198.605 35.9619 198.112 36.0003 197.544 36.0003C196.682 36.0003 195.956 35.8686 195.366 35.6053C194.776 35.3419 194.305 34.9744 193.954 34.5025C193.602 34.0307 193.347 33.4601 193.188 32.7907C193.029 32.1214 192.95 31.3697 192.95 30.5358V12.5291H197.953V30.7333C197.953 31.238 198.049 31.5892 198.242 31.7867C198.435 31.9842 198.634 32.083 198.838 32.083H199.127C199.206 32.083 199.314 32.061 199.45 32.0171L200.063 35.6053C199.791 35.715 199.445 35.8083 199.025 35.8851ZM207.287 36.0003C208.445 36.0003 209.437 35.7644 210.265 35.2926C211.094 34.8207 211.871 34.1678 212.597 33.3339H212.699L213.073 35.6053H217.158V19.2775H212.154V30.0749C211.655 30.7113 211.19 31.1722 210.759 31.4575C210.328 31.7428 209.795 31.8855 209.159 31.8855C208.433 31.8855 207.9 31.666 207.56 31.2271C207.219 30.7882 207.049 29.9762 207.049 28.7911V19.2775H202.046V29.4165C202.046 31.4795 202.46 33.0925 203.288 34.2556C204.116 35.4188 205.45 36.0003 207.287 36.0003ZM229.045 35.5888C228.182 35.8632 227.184 36.0003 226.05 36.0003C224.938 36.0003 223.798 35.7918 222.629 35.3749C221.461 34.9579 220.445 34.4092 219.583 33.7289L221.829 30.7004C222.601 31.271 223.338 31.6989 224.042 31.9842C224.745 32.2695 225.46 32.4122 226.186 32.4122C226.935 32.4122 227.479 32.2915 227.819 32.05C228.16 31.8086 228.33 31.4685 228.33 31.0296C228.33 30.7662 228.234 30.5303 228.041 30.3218C227.848 30.1133 227.587 29.9213 227.258 29.7457C226.929 29.5702 226.56 29.411 226.152 29.2684C225.743 29.1257 225.324 28.9666 224.892 28.7911C224.371 28.5936 223.849 28.3631 223.327 28.0998C222.805 27.8364 222.328 27.5127 221.897 27.1287C221.466 26.7446 221.115 26.2947 220.842 25.779C220.57 25.2633 220.434 24.6652 220.434 23.9849C220.434 23.2387 220.587 22.5474 220.893 21.911C221.2 21.2746 221.636 20.7369 222.204 20.298C222.771 19.8591 223.452 19.5134 224.246 19.261C225.04 19.0087 225.925 18.8825 226.9 18.8825C228.194 18.8825 229.328 19.0964 230.304 19.5244C231.28 19.9523 232.131 20.4297 232.857 20.9564L230.61 23.8532C229.998 23.4143 229.396 23.0741 228.806 22.8327C228.217 22.5913 227.627 22.4706 227.037 22.4706C225.766 22.4706 225.131 22.8986 225.131 23.7545C225.131 24.0178 225.221 24.2428 225.403 24.4293C225.584 24.6158 225.828 24.7859 226.135 24.9396C226.441 25.0932 226.793 25.2413 227.19 25.384C227.587 25.5266 228.001 25.6747 228.432 25.8284C228.977 26.0259 229.516 26.2508 230.049 26.5032C230.582 26.7556 231.07 27.0683 231.512 27.4414C231.955 27.8145 232.312 28.2699 232.584 28.8075C232.857 29.3452 232.993 29.9871 232.993 30.7333C232.993 31.4795 232.845 32.1708 232.55 32.8072C232.255 33.4436 231.813 33.9978 231.223 34.4696C230.633 34.9414 229.907 35.3145 229.045 35.5888Z" fill="black"/>
<path d="M246.06 36V13.696H252.418C254.095 13.696 255.557 13.9 256.804 14.308C258.051 14.716 259.025 15.4073 259.728 16.382C260.431 17.334 260.782 18.626 260.782 20.258C260.782 22.5927 260.023 24.3267 258.504 25.46C256.985 26.5933 255.002 27.16 252.554 27.16H248.882V36H246.06ZM248.882 24.848H252.214C254.163 24.848 255.603 24.4853 256.532 23.76C257.484 23.012 257.96 21.8447 257.96 20.258C257.96 18.6487 257.461 17.538 256.464 16.926C255.489 16.2913 254.027 15.974 252.078 15.974H248.882V24.848ZM265.046 36V19.476H267.358L267.596 22.468H267.698C268.264 21.4253 268.956 20.598 269.772 19.986C270.588 19.374 271.46 19.068 272.39 19.068C273.047 19.068 273.636 19.1813 274.158 19.408L273.614 21.856C273.342 21.7653 273.092 21.6973 272.866 21.652C272.639 21.6067 272.356 21.584 272.016 21.584C271.313 21.584 270.576 21.8673 269.806 22.434C269.058 23.0007 268.4 23.9867 267.834 25.392V36H265.046ZM283.199 36.408C281.726 36.408 280.388 36.068 279.187 35.388C277.986 34.6853 277.034 33.688 276.331 32.396C275.628 31.104 275.277 29.5627 275.277 27.772C275.277 25.9587 275.628 24.406 276.331 23.114C277.056 21.822 277.986 20.8247 279.119 20.122C280.252 19.4193 281.442 19.068 282.689 19.068C284.797 19.068 286.418 19.7707 287.551 21.176C288.707 22.5813 289.285 24.4627 289.285 26.82C289.285 27.1147 289.274 27.4093 289.251 27.704C289.251 27.976 289.228 28.214 289.183 28.418H278.031C278.144 30.1633 278.688 31.5573 279.663 32.6C280.66 33.6427 281.952 34.164 283.539 34.164C284.332 34.164 285.058 34.0507 285.715 33.824C286.395 33.5747 287.041 33.2573 287.653 32.872L288.639 34.708C287.936 35.1613 287.132 35.558 286.225 35.898C285.341 36.238 284.332 36.408 283.199 36.408ZM277.997 26.412H286.837C286.837 24.7347 286.474 23.4653 285.749 22.604C285.046 21.72 284.049 21.278 282.757 21.278C281.601 21.278 280.558 21.7313 279.629 22.638C278.722 23.522 278.178 24.78 277.997 26.412ZM293.368 36V19.476H295.68L295.918 21.856H296.02C296.745 21.0627 297.539 20.4053 298.4 19.884C299.261 19.34 300.179 19.068 301.154 19.068C302.423 19.068 303.409 19.3513 304.112 19.918C304.837 20.462 305.37 21.2327 305.71 22.23C306.571 21.3007 307.444 20.5413 308.328 19.952C309.212 19.3627 310.153 19.068 311.15 19.068C312.85 19.068 314.108 19.6233 314.924 20.734C315.763 21.822 316.182 23.42 316.182 25.528V36H313.394V25.902C313.394 24.3607 313.145 23.2387 312.646 22.536C312.147 21.8333 311.377 21.482 310.334 21.482C309.11 21.482 307.727 22.332 306.186 24.032V36H303.398V25.902C303.398 24.3607 303.149 23.2387 302.65 22.536C302.151 21.8333 301.369 21.482 300.304 21.482C299.08 21.482 297.697 22.332 296.156 24.032V36H293.368ZM321.558 36V19.476H324.346V36H321.558ZM322.986 16.076C322.442 16.076 321.988 15.9173 321.626 15.6C321.286 15.26 321.116 14.8067 321.116 14.24C321.116 13.696 321.286 13.254 321.626 12.914C321.988 12.574 322.442 12.404 322.986 12.404C323.53 12.404 323.972 12.574 324.312 12.914C324.674 13.254 324.856 13.696 324.856 14.24C324.856 14.8067 324.674 15.26 324.312 15.6C323.972 15.9173 323.53 16.076 322.986 16.076ZM334.753 36.408C333.007 36.408 331.727 35.864 330.911 34.776C330.095 33.6653 329.687 32.056 329.687 29.948V19.476H332.509V29.574C332.509 31.1153 332.747 32.2373 333.223 32.94C333.721 33.6427 334.515 33.994 335.603 33.994C336.464 33.994 337.223 33.7787 337.881 33.348C338.561 32.8947 339.286 32.1807 340.057 31.206V19.476H342.845V36H340.533L340.295 33.416H340.193C339.422 34.3227 338.606 35.048 337.745 35.592C336.883 36.136 335.886 36.408 334.753 36.408ZM348.419 36V19.476H350.731L350.969 21.856H351.071C351.796 21.0627 352.59 20.4053 353.451 19.884C354.312 19.34 355.23 19.068 356.205 19.068C357.474 19.068 358.46 19.3513 359.163 19.918C359.888 20.462 360.421 21.2327 360.761 22.23C361.622 21.3007 362.495 20.5413 363.379 19.952C364.263 19.3627 365.204 19.068 366.201 19.068C367.901 19.068 369.159 19.6233 369.975 20.734C370.814 21.822 371.233 23.42 371.233 25.528V36H368.445V25.902C368.445 24.3607 368.196 23.2387 367.697 22.536C367.198 21.8333 366.428 21.482 365.385 21.482C364.161 21.482 362.778 22.332 361.237 24.032V36H358.449V25.902C358.449 24.3607 358.2 23.2387 357.701 22.536C357.202 21.8333 356.42 21.482 355.355 21.482C354.131 21.482 352.748 22.332 351.207 24.032V36H348.419Z" fill="black"/>
</svg>
