<svg width="44" height="44" viewBox="0 0 44 44" fill="none" xmlns="http://www.w3.org/2000/svg">
<path fill-rule="evenodd" clip-rule="evenodd" d="M12.7987 0L0 12.7899V30.8779L12.7987 43.6678H30.8985L43.6976 30.8779V12.7899L30.8985 0H12.7987Z" fill="#D8D9D9"/>
<path fill-rule="evenodd" clip-rule="evenodd" d="M12.9181 0.28833L0.288086 12.9093V30.7583L12.9181 43.3793H30.7794L43.4089 30.7583V12.9093L30.7794 0.28833H12.9181Z" fill="white"/>
<path fill-rule="evenodd" clip-rule="evenodd" d="M13.7516 41.3697L2.2998 29.9257V13.7421L13.7516 2.2981H29.9467L41.3981 13.7421V29.9257L29.9467 41.3697H13.7516Z" fill="#ED1E45"/>
<path fill-rule="evenodd" clip-rule="evenodd" d="M11.1687 22.9346L10.8627 21.5266C10.672 20.7606 10.4884 19.947 10.3119 19.0864C10.1349 18.2262 9.95786 17.3968 9.7813 16.5991H9.69985C9.53649 17.4126 9.36962 18.2455 9.2001 19.0983C9.02971 19.951 8.84963 20.7606 8.65942 21.5266L8.33271 22.9346H11.1687ZM11.7807 25.6331H7.72069L6.90482 29.2702H3.84473L8.00645 13.9709H11.6174L15.7795 29.2702H12.5966L11.7807 25.6331Z" fill="white"/>
<path fill-rule="evenodd" clip-rule="evenodd" d="M22.328 26.5952C23.9734 26.5952 24.7964 25.8992 24.7964 24.507C24.7964 23.8342 24.5925 23.3454 24.1843 23.0405C23.7762 22.7351 23.1571 22.5829 22.328 22.5829H20.6346V26.5952H22.328ZM22.0423 20.1422C22.7767 20.1422 23.3103 19.9746 23.6436 19.638C23.977 19.3018 24.1438 18.8442 24.1438 18.2652C24.1438 17.6866 23.9734 17.2721 23.6335 17.0217C23.2936 16.7714 22.7696 16.646 22.0625 16.646H20.6346V20.1422H22.0423ZM17.6357 13.9712H22.1849C22.8788 13.9712 23.5212 14.0297 24.113 14.1472C24.7048 14.2647 25.2212 14.4719 25.6637 14.7689C26.1054 15.0664 26.4523 15.4575 26.7042 15.942C26.9556 16.4273 27.0815 17.0376 27.0815 17.7724C27.0815 18.1169 27.037 18.461 26.949 18.805C26.86 19.1491 26.7275 19.4699 26.551 19.7669C26.374 20.0643 26.1428 20.3301 25.8575 20.5646C25.5717 20.7996 25.2384 20.9716 24.8576 21.0812V21.1749C25.8095 21.3782 26.5272 21.7698 27.0102 22.3479C27.4928 22.927 27.734 23.7326 27.734 24.7648C27.734 25.5472 27.6015 26.2199 27.3364 26.7831C27.0714 27.3463 26.7042 27.8118 26.2348 28.1792C25.7655 28.5471 25.2177 28.8208 24.5925 29.0003C23.9668 29.1807 23.2936 29.2704 22.5728 29.2704H17.6357V13.9712Z" fill="white"/>
<path fill-rule="evenodd" clip-rule="evenodd" d="M34.467 21.3392C36.0991 21.3392 36.915 20.5261 36.915 18.899C36.915 18.1013 36.7076 17.5381 36.2929 17.2094C35.8777 16.8807 35.2692 16.7166 34.467 16.7166H32.7943V21.3392H34.467ZM29.7949 13.9714H34.6506C35.3713 13.9714 36.0481 14.0533 36.6803 14.2178C37.3131 14.382 37.8639 14.6556 38.3328 15.0389C38.8022 15.4226 39.1724 15.9308 39.445 16.5644C39.7167 17.1975 39.8527 17.9759 39.8527 18.899C39.8527 19.7904 39.7131 20.5648 39.4344 21.2218C39.1557 21.8791 38.7784 22.4186 38.3024 22.841C37.826 23.2634 37.2752 23.5766 36.65 23.7795C36.0239 23.9832 35.3577 24.0848 34.6506 24.0848H32.7943V29.2702H29.7949V13.9714Z" fill="white"/>
</svg>
