<svg width="372" height="44" viewBox="0 0 372 44" fill="none" xmlns="http://www.w3.org/2000/svg">
<path fill-rule="evenodd" clip-rule="evenodd" d="M12.7987 0L0 12.7899V30.8779L12.7987 43.6678H30.8985L43.6976 30.8779V12.7899L30.8985 0H12.7987Z" fill="#D8D9D9"/>
<path fill-rule="evenodd" clip-rule="evenodd" d="M12.9181 0.28833L0.288086 12.9093V30.7583L12.9181 43.3793H30.7794L43.4089 30.7583V12.9093L30.7794 0.28833H12.9181Z" fill="white"/>
<path fill-rule="evenodd" clip-rule="evenodd" d="M13.7516 41.3697L2.2998 29.9257V13.7421L13.7516 2.2981H29.9467L41.3981 13.7421V29.9257L29.9467 41.3697H13.7516Z" fill="#ED1E45"/>
<path fill-rule="evenodd" clip-rule="evenodd" d="M11.1687 22.9346L10.8627 21.5266C10.672 20.7606 10.4884 19.947 10.3119 19.0864C10.1349 18.2262 9.95786 17.3968 9.7813 16.5991H9.69985C9.53649 17.4126 9.36962 18.2455 9.2001 19.0983C9.02971 19.951 8.84963 20.7606 8.65942 21.5266L8.33271 22.9346H11.1687ZM11.7807 25.6331H7.72069L6.90482 29.2702H3.84473L8.00645 13.9709H11.6174L15.7795 29.2702H12.5966L11.7807 25.6331Z" fill="white"/>
<path fill-rule="evenodd" clip-rule="evenodd" d="M22.328 26.5952C23.9734 26.5952 24.7964 25.8992 24.7964 24.507C24.7964 23.8342 24.5925 23.3454 24.1843 23.0405C23.7762 22.7351 23.1571 22.5829 22.328 22.5829H20.6346V26.5952H22.328ZM22.0423 20.1422C22.7767 20.1422 23.3103 19.9746 23.6436 19.638C23.977 19.3018 24.1438 18.8442 24.1438 18.2652C24.1438 17.6866 23.9734 17.2721 23.6335 17.0217C23.2936 16.7714 22.7696 16.646 22.0625 16.646H20.6346V20.1422H22.0423ZM17.6357 13.9712H22.1849C22.8788 13.9712 23.5212 14.0297 24.113 14.1472C24.7048 14.2647 25.2212 14.4719 25.6637 14.7689C26.1054 15.0664 26.4523 15.4575 26.7042 15.942C26.9556 16.4273 27.0815 17.0376 27.0815 17.7724C27.0815 18.1169 27.037 18.461 26.949 18.805C26.86 19.1491 26.7275 19.4699 26.551 19.7669C26.374 20.0643 26.1428 20.3301 25.8575 20.5646C25.5717 20.7996 25.2384 20.9716 24.8576 21.0812V21.1749C25.8095 21.3782 26.5272 21.7698 27.0102 22.3479C27.4928 22.927 27.734 23.7326 27.734 24.7648C27.734 25.5472 27.6015 26.2199 27.3364 26.7831C27.0714 27.3463 26.7042 27.8118 26.2348 28.1792C25.7655 28.5471 25.2177 28.8208 24.5925 29.0003C23.9668 29.1807 23.2936 29.2704 22.5728 29.2704H17.6357V13.9712Z" fill="white"/>
<path fill-rule="evenodd" clip-rule="evenodd" d="M34.467 21.3392C36.0991 21.3392 36.915 20.5261 36.915 18.899C36.915 18.1013 36.7076 17.5381 36.2929 17.2094C35.8777 16.8807 35.2692 16.7166 34.467 16.7166H32.7943V21.3392H34.467ZM29.7949 13.9714H34.6506C35.3713 13.9714 36.0481 14.0533 36.6803 14.2178C37.3131 14.382 37.8639 14.6556 38.3328 15.0389C38.8022 15.4226 39.1724 15.9308 39.445 16.5644C39.7167 17.1975 39.8527 17.9759 39.8527 18.899C39.8527 19.7904 39.7131 20.5648 39.4344 21.2218C39.1557 21.8791 38.7784 22.4186 38.3024 22.841C37.826 23.2634 37.2752 23.5766 36.65 23.7795C36.0239 23.9832 35.3577 24.0848 34.6506 24.0848H32.7943V29.2702H29.7949V13.9714Z" fill="white"/>
<path fill-rule="evenodd" clip-rule="evenodd" d="M85.0744 33.0001C86.05 33.0001 86.9633 32.7751 87.8142 32.3252C88.6651 31.8753 89.4195 31.3432 90.0775 30.7287H90.1796L90.4179 32.6051H92.7322V9.16675H89.9073V15.3226L90.0435 18.0549C89.3174 17.4843 88.6027 17.0344 87.8993 16.7052C87.1959 16.376 86.3677 16.2114 85.4147 16.2114C84.4617 16.2114 83.5541 16.4089 82.6919 16.8039C81.8297 17.199 81.0696 17.7586 80.4116 18.4828C79.7536 19.207 79.226 20.0904 78.829 21.1328C78.4319 22.1752 78.2333 23.3438 78.2333 24.6387C78.2333 27.3161 78.8517 29.379 80.0883 30.8274C81.3249 32.2759 82.9869 33.0001 85.0744 33.0001ZM63.7442 26.0213L61.6 32.6051H58.707L66.2628 11.0102H69.4621L77.0178 32.6051H73.9887L71.8785 26.0213H63.7442ZM64.4589 23.8157H71.1638L70.1087 20.5238C69.7003 19.3168 69.3146 18.1152 68.9515 16.9192C68.5885 15.7231 68.2255 14.4996 67.8624 13.2487H67.7263C67.3859 14.4996 67.0342 15.7231 66.6712 16.9192C66.3082 18.1152 65.9224 19.3168 65.514 20.5238L64.4589 23.8157ZM82.3175 29.1156C83.1117 30.191 84.2348 30.7287 85.687 30.7287C86.4585 30.7287 87.1845 30.5476 87.8652 30.1855C88.5459 29.8234 89.2266 29.2693 89.9073 28.5231V20.1617C89.2039 19.5472 88.5289 19.1138 87.8822 18.8614C87.2356 18.609 86.5719 18.4828 85.8912 18.4828C85.2332 18.4828 84.6149 18.631 84.0363 18.9272C83.4577 19.2235 82.9529 19.6405 82.5217 20.1781C82.0906 20.7158 81.7503 21.3577 81.5007 22.1039C81.2511 22.8501 81.1263 23.684 81.1263 24.6057C81.1263 26.537 81.5234 28.0403 82.3175 29.1156ZM105.145 33.0001C106.098 33.0001 107.006 32.8081 107.868 32.424C108.73 32.0399 109.49 31.4748 110.148 30.7287C110.806 29.9825 111.328 29.0718 111.714 27.9964C112.1 26.921 112.293 25.703 112.293 24.3424C112.293 23.1134 112.151 21.9997 111.867 21.0011C111.584 20.0026 111.164 19.1467 110.608 18.4334C110.052 17.7202 109.366 17.1715 108.549 16.7875C107.732 16.4034 106.79 16.2114 105.724 16.2114C104.794 16.2114 103.886 16.4254 103.001 16.8533C102.116 17.2813 101.299 17.8135 100.551 18.4499L100.619 15.553V9.16675H97.8277V32.6051H100.074L100.312 30.9591H100.414C101.14 31.5955 101.918 32.0948 102.746 32.4569C103.574 32.819 104.374 33.0001 105.145 33.0001ZM102.78 30.3501C103.495 30.6025 104.124 30.7287 104.669 30.7287C105.349 30.7287 105.979 30.5805 106.558 30.2843C107.136 29.988 107.635 29.571 108.055 29.0333C108.475 28.4957 108.804 27.8318 109.042 27.0417C109.28 26.2517 109.4 25.3629 109.4 24.3753C109.4 23.4975 109.32 22.6964 109.161 21.9722C109.003 21.248 108.747 20.628 108.396 20.1123C108.044 19.5966 107.59 19.1961 107.034 18.9108C106.478 18.6255 105.815 18.4828 105.043 18.4828C103.704 18.4828 102.23 19.207 100.619 20.6555V29.0498C101.345 29.6643 102.065 30.0977 102.78 30.3501ZM119.124 33.0001C119.51 33.0001 119.827 32.9781 120.077 32.9342C120.326 32.8904 120.542 32.8245 120.724 32.7367L120.349 30.6958C120.19 30.7396 120.071 30.7616 119.992 30.7616H119.737C119.532 30.7616 119.351 30.6738 119.192 30.4982C119.033 30.3227 118.954 30.0154 118.954 29.5765V9.16675H116.163V29.379C116.163 30.5641 116.39 31.4639 116.844 32.0783C117.297 32.6928 118.057 33.0001 119.124 33.0001ZM133.698 32.4405C132.779 32.8135 131.809 33.0001 130.788 33.0001C129.767 33.0001 128.797 32.8135 127.878 32.4405C126.959 32.0674 126.148 31.5242 125.445 30.811C124.741 30.0977 124.18 29.2199 123.76 28.1775C123.34 27.135 123.13 25.9554 123.13 24.6387C123.13 23.3 123.34 22.1094 123.76 21.067C124.18 20.0245 124.741 19.1412 125.445 18.417C126.148 17.6928 126.959 17.1441 127.878 16.771C128.797 16.3979 129.767 16.2114 130.788 16.2114C131.809 16.2114 132.779 16.3979 133.698 16.771C134.617 17.1441 135.428 17.6928 136.132 18.417C136.835 19.1412 137.397 20.0245 137.816 21.067C138.236 22.1094 138.446 23.3 138.446 24.6387C138.446 25.9554 138.236 27.135 137.816 28.1775C137.397 29.2199 136.835 30.0977 136.132 30.811C135.428 31.5242 134.617 32.0674 133.698 32.4405ZM130.788 30.7616C130.085 30.7616 129.438 30.6135 128.848 30.3172C128.258 30.0209 127.753 29.6039 127.334 29.0663C126.914 28.5286 126.59 27.8867 126.364 27.1405C126.137 26.3943 126.023 25.5604 126.023 24.6387C126.023 23.7169 126.137 22.8775 126.364 22.1204C126.59 21.3632 126.914 20.7103 127.334 20.1617C127.753 19.613 128.258 19.1906 128.848 18.8943C129.438 18.598 130.085 18.4499 130.788 18.4499C131.492 18.4499 132.138 18.598 132.728 18.8943C133.318 19.1906 133.823 19.613 134.243 20.1617C134.662 20.7103 134.986 21.3632 135.213 22.1204C135.44 22.8775 135.553 23.7169 135.553 24.6387C135.553 25.5604 135.44 26.3943 135.213 27.1405C134.986 27.8867 134.662 28.5286 134.243 29.0663C133.823 29.6039 133.318 30.0209 132.728 30.3172C132.138 30.6135 131.492 30.7616 130.788 30.7616ZM151.71 32.4569C150.802 32.819 149.849 33.0001 148.851 33.0001C147.762 33.0001 146.741 32.8135 145.788 32.4405C144.835 32.0674 144.012 31.5242 143.32 30.811C142.628 30.0977 142.084 29.2199 141.687 28.1775C141.29 27.135 141.091 25.9554 141.091 24.6387C141.091 23.3 141.307 22.1094 141.738 21.067C142.169 20.0245 142.747 19.1412 143.473 18.417C144.2 17.6928 145.045 17.1441 146.009 16.771C146.973 16.3979 147.989 16.2114 149.055 16.2114C150.144 16.2114 151.075 16.3979 151.846 16.771C152.617 17.1441 153.298 17.583 153.888 18.0878L152.459 19.8654C151.982 19.4484 151.477 19.1083 150.944 18.8449C150.411 18.5816 149.815 18.4499 149.157 18.4499C148.408 18.4499 147.716 18.598 147.081 18.8943C146.446 19.1906 145.901 19.613 145.447 20.1617C144.994 20.7103 144.636 21.3632 144.375 22.1204C144.114 22.8775 143.984 23.7169 143.984 24.6387C143.984 25.5604 144.109 26.3943 144.358 27.1405C144.608 27.8867 144.954 28.5286 145.396 29.0663C145.839 29.6039 146.378 30.0209 147.013 30.3172C147.648 30.6135 148.34 30.7616 149.089 30.7616C149.861 30.7616 150.57 30.6025 151.216 30.2843C151.863 29.9661 152.447 29.5875 152.969 29.1486L154.194 30.9591C153.446 31.5955 152.617 32.0948 151.71 32.4569ZM160.107 28.3914L163.204 24.902L168.037 32.6051H171.1L164.804 23.0256L170.351 16.6064H167.254L160.209 25.0337H160.107V9.16675H157.35V32.6051H160.107V28.3914ZM178.544 25.33V32.6051H173.541V11.1419H181.165C182.39 11.1419 183.536 11.2571 184.602 11.4875C185.669 11.718 186.599 12.102 187.393 12.6397C188.187 13.1774 188.817 13.8906 189.282 14.7794C189.747 15.6682 189.98 16.7601 189.98 18.0549C189.98 19.3058 189.747 20.3921 189.282 21.3138C188.817 22.2356 188.187 22.9927 187.393 23.5853C186.599 24.1778 185.68 24.6167 184.636 24.902C183.592 25.1873 182.481 25.33 181.301 25.33H178.544ZM180.994 21.4784H178.544V14.9934H180.858C182.22 14.9934 183.263 15.2238 183.99 15.6847C184.716 16.1456 185.079 16.9356 185.079 18.0549C185.079 20.3373 183.717 21.4784 180.994 21.4784ZM199.025 32.8849C198.605 32.9617 198.112 33.0001 197.544 33.0001C196.682 33.0001 195.956 32.8684 195.366 32.6051C194.776 32.3417 194.305 31.9741 193.954 31.5023C193.602 31.0304 193.347 30.4598 193.188 29.7905C193.029 29.1211 192.95 28.3695 192.95 27.5355V9.52886H197.953V27.733C197.953 28.2378 198.049 28.5889 198.242 28.7865C198.435 28.984 198.634 29.0827 198.838 29.0827H199.127C199.206 29.0827 199.314 29.0608 199.45 29.0169L200.063 32.6051C199.791 32.7148 199.445 32.8081 199.025 32.8849ZM207.287 33.0001C208.445 33.0001 209.437 32.7642 210.265 32.2923C211.094 31.8205 211.871 31.1676 212.597 30.3336H212.699L213.073 32.6051H217.158V16.2772H212.154V27.0747C211.655 27.7111 211.19 28.172 210.759 28.4573C210.328 28.7426 209.795 28.8852 209.159 28.8852C208.433 28.8852 207.9 28.6658 207.56 28.2268C207.219 27.7879 207.049 26.9759 207.049 25.7908V16.2772H202.046V26.4163C202.046 28.4792 202.46 30.0922 203.288 31.2554C204.116 32.4185 205.45 33.0001 207.287 33.0001ZM229.045 32.5886C228.182 32.8629 227.184 33.0001 226.05 33.0001C224.938 33.0001 223.798 32.7916 222.629 32.3746C221.461 31.9576 220.445 31.409 219.583 30.7287L221.829 27.7001C222.601 28.2707 223.338 28.6987 224.042 28.984C224.745 29.2693 225.46 29.4119 226.186 29.4119C226.935 29.4119 227.479 29.2912 227.819 29.0498C228.16 28.8084 228.33 28.4682 228.33 28.0293C228.33 27.766 228.234 27.53 228.041 27.3216C227.848 27.1131 227.587 26.921 227.258 26.7455C226.929 26.5699 226.56 26.4108 226.152 26.2682C225.743 26.1255 225.324 25.9664 224.892 25.7908C224.371 25.5933 223.849 25.3629 223.327 25.0995C222.805 24.8362 222.328 24.5125 221.897 24.1284C221.466 23.7444 221.115 23.2945 220.842 22.7787C220.57 22.263 220.434 21.665 220.434 20.9847C220.434 20.2385 220.587 19.5472 220.893 18.9108C221.2 18.2743 221.636 17.7367 222.204 17.2977C222.771 16.8588 223.452 16.5132 224.246 16.2608C225.04 16.0084 225.925 15.8822 226.9 15.8822C228.194 15.8822 229.328 16.0962 230.304 16.5241C231.28 16.9521 232.131 17.4294 232.857 17.9561L230.61 20.853C229.998 20.4141 229.396 20.0739 228.806 19.8325C228.217 19.5911 227.627 19.4704 227.037 19.4704C225.766 19.4704 225.131 19.8983 225.131 20.7542C225.131 21.0176 225.221 21.2425 225.403 21.4291C225.584 21.6156 225.828 21.7857 226.135 21.9393C226.441 22.0929 226.793 22.2411 227.19 22.3837C227.587 22.5264 228.001 22.6745 228.432 22.8281C228.977 23.0256 229.516 23.2506 230.049 23.503C230.582 23.7553 231.07 24.0681 231.512 24.4411C231.955 24.8142 232.312 25.2696 232.584 25.8073C232.857 26.345 232.993 26.9869 232.993 27.733C232.993 28.4792 232.845 29.1705 232.55 29.8069C232.255 30.4434 231.813 30.9975 231.223 31.4693C230.633 31.9412 229.907 32.3143 229.045 32.5886Z" fill="black"/>
<path d="M246.06 33V10.696H252.418C254.095 10.696 255.557 10.9 256.804 11.308C258.051 11.716 259.025 12.4073 259.728 13.382C260.431 14.334 260.782 15.626 260.782 17.258C260.782 19.5927 260.023 21.3267 258.504 22.46C256.985 23.5933 255.002 24.16 252.554 24.16H248.882V33H246.06ZM248.882 21.848H252.214C254.163 21.848 255.603 21.4853 256.532 20.76C257.484 20.012 257.96 18.8447 257.96 17.258C257.96 15.6487 257.461 14.538 256.464 13.926C255.489 13.2913 254.027 12.974 252.078 12.974H248.882V21.848ZM265.046 33V16.476H267.358L267.596 19.468H267.698C268.264 18.4253 268.956 17.598 269.772 16.986C270.588 16.374 271.46 16.068 272.39 16.068C273.047 16.068 273.636 16.1813 274.158 16.408L273.614 18.856C273.342 18.7653 273.092 18.6973 272.866 18.652C272.639 18.6067 272.356 18.584 272.016 18.584C271.313 18.584 270.576 18.8673 269.806 19.434C269.058 20.0007 268.4 20.9867 267.834 22.392V33H265.046ZM283.199 33.408C281.726 33.408 280.388 33.068 279.187 32.388C277.986 31.6853 277.034 30.688 276.331 29.396C275.628 28.104 275.277 26.5627 275.277 24.772C275.277 22.9587 275.628 21.406 276.331 20.114C277.056 18.822 277.986 17.8247 279.119 17.122C280.252 16.4193 281.442 16.068 282.689 16.068C284.797 16.068 286.418 16.7707 287.551 18.176C288.707 19.5813 289.285 21.4627 289.285 23.82C289.285 24.1147 289.274 24.4093 289.251 24.704C289.251 24.976 289.228 25.214 289.183 25.418H278.031C278.144 27.1633 278.688 28.5573 279.663 29.6C280.66 30.6427 281.952 31.164 283.539 31.164C284.332 31.164 285.058 31.0507 285.715 30.824C286.395 30.5747 287.041 30.2573 287.653 29.872L288.639 31.708C287.936 32.1613 287.132 32.558 286.225 32.898C285.341 33.238 284.332 33.408 283.199 33.408ZM277.997 23.412H286.837C286.837 21.7347 286.474 20.4653 285.749 19.604C285.046 18.72 284.049 18.278 282.757 18.278C281.601 18.278 280.558 18.7313 279.629 19.638C278.722 20.522 278.178 21.78 277.997 23.412ZM293.368 33V16.476H295.68L295.918 18.856H296.02C296.745 18.0627 297.539 17.4053 298.4 16.884C299.261 16.34 300.179 16.068 301.154 16.068C302.423 16.068 303.409 16.3513 304.112 16.918C304.837 17.462 305.37 18.2327 305.71 19.23C306.571 18.3007 307.444 17.5413 308.328 16.952C309.212 16.3627 310.153 16.068 311.15 16.068C312.85 16.068 314.108 16.6233 314.924 17.734C315.763 18.822 316.182 20.42 316.182 22.528V33H313.394V22.902C313.394 21.3607 313.145 20.2387 312.646 19.536C312.147 18.8333 311.377 18.482 310.334 18.482C309.11 18.482 307.727 19.332 306.186 21.032V33H303.398V22.902C303.398 21.3607 303.149 20.2387 302.65 19.536C302.151 18.8333 301.369 18.482 300.304 18.482C299.08 18.482 297.697 19.332 296.156 21.032V33H293.368ZM321.558 33V16.476H324.346V33H321.558ZM322.986 13.076C322.442 13.076 321.988 12.9173 321.626 12.6C321.286 12.26 321.116 11.8067 321.116 11.24C321.116 10.696 321.286 10.254 321.626 9.914C321.988 9.574 322.442 9.404 322.986 9.404C323.53 9.404 323.972 9.574 324.312 9.914C324.674 10.254 324.856 10.696 324.856 11.24C324.856 11.8067 324.674 12.26 324.312 12.6C323.972 12.9173 323.53 13.076 322.986 13.076ZM334.753 33.408C333.007 33.408 331.727 32.864 330.911 31.776C330.095 30.6653 329.687 29.056 329.687 26.948V16.476H332.509V26.574C332.509 28.1153 332.747 29.2373 333.223 29.94C333.721 30.6427 334.515 30.994 335.603 30.994C336.464 30.994 337.223 30.7787 337.881 30.348C338.561 29.8947 339.286 29.1807 340.057 28.206V16.476H342.845V33H340.533L340.295 30.416H340.193C339.422 31.3227 338.606 32.048 337.745 32.592C336.883 33.136 335.886 33.408 334.753 33.408ZM348.419 33V16.476H350.731L350.969 18.856H351.071C351.796 18.0627 352.59 17.4053 353.451 16.884C354.312 16.34 355.23 16.068 356.205 16.068C357.474 16.068 358.46 16.3513 359.163 16.918C359.888 17.462 360.421 18.2327 360.761 19.23C361.622 18.3007 362.495 17.5413 363.379 16.952C364.263 16.3627 365.204 16.068 366.201 16.068C367.901 16.068 369.159 16.6233 369.975 17.734C370.814 18.822 371.233 20.42 371.233 22.528V33H368.445V22.902C368.445 21.3607 368.196 20.2387 367.697 19.536C367.198 18.8333 366.428 18.482 365.385 18.482C364.161 18.482 362.778 19.332 361.237 21.032V33H358.449V22.902C358.449 21.3607 358.2 20.2387 357.701 19.536C357.202 18.8333 356.42 18.482 355.355 18.482C354.131 18.482 352.748 19.332 351.207 21.032V33H348.419Z" fill="black"/>
</svg>
