<?xml version="1.0" encoding="UTF-8"?>
<svg width="315px" height="315px" viewBox="0 0 315 315" version="1.1" xmlns="http://www.w3.org/2000/svg" xmlns:xlink="http://www.w3.org/1999/xlink">
    <title>logo-abp</title>
    <g id="Landings" stroke="none" stroke-width="1" fill="none" fill-rule="evenodd">
        <g id="logo-abp">
            <polygon id="Fill-1" fill="#D8D9D9" points="92.2607688 0 0 92.2607688 0 222.739231 92.2607688 315 222.736057 315 315 222.739231 315 92.2607688 222.736057 0"></polygon>
            <polygon id="Fill-2" fill="#FFFFFF" points="93.1234521 2.07958084 2.07831125 93.1215477 2.07831125 221.876548 93.1234521 312.918515 221.878452 312.918515 312.920419 221.876548 312.920419 93.1215477 221.878452 2.07958084"></polygon>
            <polygon id="Fill-3" fill="#ED1E45" points="99.1276387 298.421437 16.576024 215.869822 16.576024 99.1282735 99.1276387 16.5766588 215.872361 16.5766588 298.420802 99.1282735 298.420802 215.869822 215.872361 298.421437"></polygon>
            <path d="M80.5120258,165.439987 L78.3061212,155.283304 C76.9317951,149.757434 75.6082523,143.888775 74.335493,137.680503 C73.0595597,131.475404 71.7836264,125.492483 70.510867,119.738088 L69.9236838,119.738088 C68.7461434,125.606746 67.5432112,131.615059 66.3212353,137.7662 C65.0929115,143.917341 63.7947604,149.757434 62.4236082,155.283304 L60.0685274,165.439987 L80.5120258,165.439987 Z M84.923835,184.905905 L55.6567182,184.905905 L49.775364,211.141886 L27.7163182,211.141886 L57.7166205,100.780004 L83.7462945,100.780004 L113.749771,211.141886 L90.8051892,211.141886 L84.923835,184.905905 Z" id="Fill-4" fill="#FFFFFF"></path>
            <path d="M160.956446,191.845458 C172.817547,191.845458 178.749685,186.824248 178.749685,176.781828 C178.749685,171.928838 177.28014,168.402564 174.337876,166.203008 C171.395612,164.000277 166.933019,162.902086 160.956446,162.902086 L148.749383,162.902086 L148.749383,191.845458 L160.956446,191.845458 Z M158.896544,145.296111 C164.190715,145.296111 168.037559,144.086831 170.440249,141.658749 C172.842939,139.23384 174.045871,135.932919 174.045871,131.755983 C174.045871,127.582221 172.817547,124.592347 170.367248,122.786362 C167.916948,120.980377 164.139931,120.075797 159.042546,120.075797 L148.749383,120.075797 L148.749383,145.296111 L158.896544,145.296111 Z M127.131518,100.781274 L159.924908,100.781274 C164.927074,100.781274 169.557887,101.203411 173.823694,102.050859 C178.089501,102.898307 181.81256,104.393244 185.002393,106.535669 C188.185878,108.681269 190.686962,111.502922 192.502469,114.997456 C194.314802,118.498337 195.222555,122.900625 195.222555,128.201144 C195.222555,130.686357 194.901985,133.168396 194.267192,135.650436 C193.626052,138.132475 192.670689,140.446295 191.397929,142.58872 C190.121996,144.734319 188.455665,146.651393 186.398937,148.343116 C184.339035,150.038012 181.936344,151.279032 179.190866,152.069349 L179.190866,152.745403 C186.052975,154.211774 191.226535,157.036601 194.708373,161.207189 C198.187037,165.384125 199.926369,171.195652 199.926369,178.64177 C199.926369,184.285077 198.971006,189.138067 197.06028,193.200741 C195.149554,197.263414 192.502469,200.621467 189.119024,203.271727 C185.735579,205.92516 181.787168,207.899365 177.28014,209.194342 C172.769938,210.495667 167.916948,211.143156 162.72117,211.143156 L127.131518,211.143156 L127.131518,100.781274 Z" id="Fill-6" fill="#FFFFFF"></path>
            <path d="M248.458809,153.929926 C260.224691,153.929926 266.106046,148.064442 266.106046,136.327125 C266.106046,130.572729 264.611109,126.510056 261.621235,124.139105 C258.628188,121.768155 254.24177,120.584266 248.458809,120.584266 L236.400922,120.584266 L236.400922,153.929926 L248.458809,153.929926 Z M214.779883,100.781908 L249.782352,100.781908 C254.97813,100.781908 259.856512,101.372266 264.414323,102.559328 C268.975309,103.743216 272.945937,105.717422 276.326208,108.481944 C279.709653,111.24964 282.378956,114.915568 284.343639,119.486075 C286.301975,124.053408 287.28273,129.66815 287.28273,136.327125 C287.28273,142.757575 286.276583,148.34375 284.267464,153.082478 C282.258346,157.824379 279.538259,161.715658 276.107204,164.762663 C272.672976,167.809668 268.702348,170.06953 264.19532,171.532727 C259.681944,173.002272 254.879737,173.735458 249.782352,173.735458 L236.400922,173.735458 L236.400922,211.140617 L214.779883,211.140617 L214.779883,100.781908 Z" id="Fill-8" fill="#FFFFFF"></path>
        </g>
    </g>
</svg>