<svg width="90px" height="41px" viewBox="0 0 90 41" xmlns="http://www.w3.org/2000/svg">
  <g stroke="none" stroke-width="1" fill="none" fill-rule="evenodd">
    <g transform="translate(-451, -1778)" fill-rule="nonzero">
      <g transform="translate(451, 1778)">
        <g fill="#767676">
          <path d="M2.61815988,13.6629594 C1.20431995,13.6629594 0.0581599974,14.8091193 0.0581599974,16.2229593 L0.0581599974,28.1695987 C0.0581599974,29.5834387 1.20431995,30.7295986 2.61815988,30.7295986 C4.03199982,30.7295986 5.17815977,29.5834387 5.17815977,28.1695987 L5.17815977,16.2229593 C5.17815977,14.8091193 4.03199982,13.6629594 2.61815988,13.6629594 Z"></path>
          <path d="M31.6314386,13.6629594 C30.2175986,13.6629594 29.0714387,14.8091193 29.0714387,16.2229593 L29.0714387,28.1695987 C29.0714387,29.5834387 30.2175986,30.7295986 31.6314386,30.7295986 C33.0452785,30.7295986 34.1914385,29.5834387 34.1914385,28.1695987 L34.1914385,16.2229593 C34.1914385,14.8091193 33.0453585,13.6629594 31.6314386,13.6629594 Z"></path>
          <path d="M26.5114388,13.6629594 L7.73815965,13.6629594 C7.26687968,13.6629594 6.88479961,14.0450394 6.88479961,14.5163194 L6.88479961,28.1695987 C6.88439969,30.1974387 8.31127963,31.9453586 10.2981595,32.3509586 L10.2981595,38.4095983 C10.2981595,39.8234382 11.4443195,40.9695982 12.8581594,40.9695982 C14.2719994,40.9695982 15.4181593,39.8234382 15.4181593,38.4095983 L15.4181593,32.4362385 L18.8315192,32.4362385 L18.8315192,38.4095983 C18.8315192,39.8234382 19.9776791,40.9695982 21.391519,40.9695982 C22.805359,40.9695982 23.9515189,39.8234382 23.9515189,38.4095983 L23.9515189,32.3509586 C25.9383988,31.9453586 27.3652788,30.1974387 27.3648789,28.1695987 L27.3648789,14.5163194 C27.3648789,14.0450394 26.9827188,13.6629594 26.5114388,13.6629594 Z"></path>
          <path d="M23.328559,3.54583984 L25.4089589,1.46711993 C25.7479188,1.13967995 25.7572788,0.599519973 25.4299189,0.260479988 C25.1024789,-0.0784799965 24.5623189,-0.0878399961 24.2232789,0.239519989 C24.2161589,0.246399989 24.2091989,0.253359989 24.2023189,0.260479988 L21.778879,2.68399988 C18.8107192,1.39463994 15.4405593,1.39463994 12.4723994,2.68399988 L10.0489596,0.258799988 C9.70999957,-0.0686399969 9.16975959,-0.0591999974 8.8423196,0.279759987 C8.52295962,0.610479973 8.52295962,1.13471995 8.8423196,1.46535993 L10.9210395,3.54575984 C8.38687963,5.22255977 6.86911969,8.06423964 6.88467937,11.1028795 C6.88467937,11.5741595 7.26687968,11.9562395 7.73815965,11.9562395 L26.5115188,11.9562395 C26.9827988,11.9562395 27.3649979,11.5741595 27.3649979,11.1028795 C27.3804788,8.06431964 25.8627188,5.22263977 23.328559,3.54583984 Z"></path>
        </g>
        <g transform="translate(11.999999, 6.8)" fill="#FAFAFA">
          <circle cx="0.858159962" cy="0.88959996" r="1"></circle>
          <circle cx="9.39143958" cy="0.88959996" r="1"></circle>
        </g>
        <path d="M44.8280174,25.8586118 L45.9846846,19.7930591 L47.1551215,25.8586118 L49.1861739,25.8586118 L50.9693691,15.5655527 L48.9658564,15.5655527 L48.015737,22.0340617 L46.8384151,15.5655527 L45.137839,15.5655527 L43.9605171,22.0269923 L43.0172826,15.5655527 L41,15.5655527 L42.7900801,25.8586118 L44.8280174,25.8586118 Z M54.7629619,26 C55.295396,26 55.7888155,25.8951371 56.2432205,25.6854113 C56.6976254,25.4756855 57.0441665,25.2011568 57.2828439,24.8618252 L57.2828439,24.8618252 L56.5186174,23.6529563 C56.0825722,24.1101114 55.5386633,24.3386889 54.8868905,24.3386889 C54.4370755,24.3386889 54.1043042,24.2079049 53.8885766,23.9463368 C53.672849,23.6847686 53.5512154,23.2712082 53.5236757,22.7056555 L53.5236757,22.7056555 L57.3998876,22.7056555 L57.3998876,21.7230077 C57.3907077,20.5164953 57.1497354,19.6057198 56.6769706,18.9906812 C56.2042059,18.3756427 55.4996487,18.0681234 54.5632991,18.0681234 C53.6039998,18.0681234 52.867313,18.3956727 52.3532387,19.0507712 C51.8391644,19.7058698 51.5821273,20.6366752 51.5821273,21.8431877 L51.5821273,21.8431877 L51.5821273,22.4511568 C51.5821273,23.5916881 51.8621142,24.4682948 52.422088,25.0809769 C52.9820617,25.693659 53.7623531,26 54.7629619,26 Z M55.4858789,21.3059126 L53.5374456,21.3059126 C53.5649852,20.7544987 53.6556367,20.3538989 53.8094,20.1041131 C53.9631633,19.8543273 54.2098731,19.7294344 54.5495293,19.7294344 C54.8891855,19.7294344 55.1278629,19.8472579 55.2655613,20.0829049 C55.4032598,20.3185518 55.476699,20.6649529 55.4858789,21.122108 L55.4858789,21.122108 L55.4858789,21.3059126 Z M61.9163974,26 C62.7425882,26 63.3484614,25.6901243 63.7340171,25.0703728 C64.1195729,24.4506213 64.3123507,23.520994 64.3123507,22.281491 L64.3123507,22.281491 L64.3123507,21.6947301 C64.3031708,20.5070694 64.105803,19.6057198 63.7202473,18.9906812 C63.3346916,18.3756427 62.7288183,18.0681234 61.9026275,18.0681234 C61.3013442,18.0681234 60.8171046,18.3226221 60.4499087,18.8316195 L60.4499087,18.8316195 L60.4499087,15 L58.5014753,15 L58.5014753,25.8586118 L60.2984404,25.8586118 L60.3604047,25.1021851 C60.7505503,25.7007284 61.2692146,26 61.9163974,26 Z M61.3587186,24.3386889 C60.9272634,24.3386889 60.6243267,24.1595973 60.4499087,23.8014139 L60.4499087,23.8014139 L60.4499087,20.3161954 C60.6380966,19.9344473 60.9364433,19.7435733 61.3449487,19.7435733 C61.7213245,19.7435733 61.9852466,19.8814267 62.1367149,20.1571337 C62.2881832,20.4328406 62.3639174,20.9736504 62.3639174,21.779563 L62.3639174,21.779563 L62.3639174,22.5077121 C62.3547375,23.2287918 62.2778558,23.7142245 62.1332724,23.9640103 C61.9886891,24.2137961 61.7305044,24.3386889 61.3587186,24.3386889 Z M68.780666,25.8586118 L70.8254883,18.2095116 L68.7944359,18.2095116 L67.8512013,23.0308483 L66.9079668,18.2095116 L64.8700295,18.2095116 L66.9217367,25.8586118 L68.780666,25.8586118 Z M72.8014613,17.2975578 C73.1273477,17.2975578 73.3855323,17.1962296 73.5760152,16.9935733 C73.7664981,16.7909169 73.8617395,16.5364182 73.8617395,16.2300771 C73.8617395,15.9190231 73.7653506,15.6645244 73.5725727,15.466581 C73.3797949,15.2686375 73.1227577,15.1696658 72.8014613,15.1696658 C72.4801649,15.1696658 72.2231277,15.2686375 72.0303499,15.466581 C71.837572,15.6645244 71.7411831,15.9190231 71.7411831,16.2300771 C71.7411831,16.5364182 71.8364245,16.7909169 72.0269074,16.9935733 C72.2173903,17.1962296 72.4755749,17.2975578 72.8014613,17.2975578 Z M73.7860053,25.8586118 L73.7860053,18.2095116 L71.8306871,18.2095116 L71.8306871,25.8586118 L73.7860053,25.8586118 Z M78.3025151,26 C78.8349492,26 79.3283687,25.8951371 79.7827736,25.6854113 C80.2371786,25.4756855 80.5837197,25.2011568 80.8223971,24.8618252 L80.8223971,24.8618252 L80.0581706,23.6529563 C79.6221254,24.1101114 79.0782165,24.3386889 78.4264437,24.3386889 C77.9766287,24.3386889 77.6438574,24.2079049 77.4281298,23.9463368 C77.2124022,23.6847686 77.0907686,23.2712082 77.0632289,22.7056555 L77.0632289,22.7056555 L80.9394408,22.7056555 L80.9394408,21.7230077 C80.9302609,20.5164953 80.6892886,19.6057198 80.2165238,18.9906812 C79.7437591,18.3756427 79.0392019,18.0681234 78.1028523,18.0681234 C77.143553,18.0681234 76.4068662,18.3956727 75.8927919,19.0507712 C75.3787176,19.7058698 75.1216805,20.6366752 75.1216805,21.8431877 L75.1216805,21.8431877 L75.1216805,22.4511568 C75.1216805,23.5916881 75.4016674,24.4682948 75.9616411,25.0809769 C76.5216149,25.693659 77.3019062,26 78.3025151,26 Z M79.0254321,21.3059126 L77.0769987,21.3059126 C77.1045384,20.7544987 77.1951899,20.3538989 77.3489532,20.1041131 C77.5027165,19.8543273 77.7494263,19.7294344 78.0890825,19.7294344 C78.4287387,19.7294344 78.667416,19.8472579 78.8051145,20.0829049 C78.942813,20.3185518 79.0162522,20.6649529 79.0254321,21.122108 L79.0254321,21.122108 L79.0254321,21.3059126 Z M84.7330336,25.8586118 L85.7864269,21.433162 L86.8398201,25.8586118 L88.4577772,25.8586118 L90,18.2095116 L88.1341858,18.2095116 L87.4663482,22.5006427 L86.4749192,18.2095116 L85.0910496,18.2095116 L84.0996206,22.5077121 L83.438668,18.2095116 L81.5659688,18.2095116 L83.1081917,25.8586118 L84.7330336,25.8586118 Z" fill="#767676"></path>
      </g>
    </g>
  </g>
</svg>
