<?xml version="1.0" encoding="utf-8"?>
<!-- Generator: Adobe Illustrator 22.1.0, SVG Export Plug-In . SVG Version: 6.00 Build 0)  -->
<svg version="1.1" id="Layer_1" xmlns="http://www.w3.org/2000/svg" xmlns:xlink="http://www.w3.org/1999/xlink" x="0px" y="0px"
	 viewBox="0 0 505 505" style="enable-background:new 0 0 505 505;" xml:space="preserve">
<style type="text/css">
	.st0{fill:#84DBFF;}
	.st1{fill:#5CA41B;}
	.st2{fill:#6E6E6E;}
	.st3{fill:#E6E5E3;}
</style>
<g>
	<circle class="st0" cx="252.5" cy="252.5" r="252.5"/>
	<path class="st1" d="M252.5,0C392,0,505,113,505,252.5c0,40.5-9.6,78.8-26.6,112.8c-5.5,11-11.8,21.6-18.8,31.6
		C414,462.2,338.3,505,252.5,505C113,505,0,391.9,0,252.5C0,113,113,0,252.5,0z"/>
</g>
<path class="st2" d="M294.7,199.2l69.4,166.1h114.3c-5.5,11-11.8,21.6-18.8,31.6H343l-77.4-185.5L294.7,199.2z"/>
<path d="M117.3,295.6l-30.9-94.5c-0.4-1.2,0.3-2.4,1.4-2.8L211.1,158c1.2-0.4,2.4,0.3,2.8,1.4l30.9,94.5c0.4,1.2-0.3,2.4-1.4,2.8
	L120.1,297C118.9,297.4,117.7,296.8,117.3,295.6z"/>
<g>
	<path class="st3" d="M46.9,210.6L46.9,210.6c1.7,5.1,6.4,8.7,11.8,9c44.9,2.2,86.9,25.2,112.7,62.5c4.1,6,11.8,8.5,18.7,6.2
		l213.3-69.7c8-2.6,12.4-11.2,9.8-19.2l-31.3-95.9c-2.6-8-11.2-12.4-19.2-9.8L55.4,194.1C48.5,196.3,44.7,203.7,46.9,210.6z"/>
	<circle class="st3" cx="353.6" cy="374.4" r="35.1"/>
</g>
</svg>
