<svg width="187" height="165" viewBox="0 0 187 165" fill="none" xmlns="http://www.w3.org/2000/svg">
<g clip-path="url(#clip0_1_898)">
<path d="M1.17114 134.951L185.824 134.951L185.824 7.11053L1.17114 7.11053L1.17114 134.951Z" fill="white"/>
<path d="M185.827 136.139H1.17347C0.526039 136.139 0 135.613 0 134.966V7.12489C0 6.47745 0.526039 5.95142 1.17347 5.95142H185.827C186.474 5.95142 187 6.47745 187 7.12489V134.966C187 135.613 186.474 136.139 185.827 136.139ZM2.34694 133.792H184.653V8.29836H2.34694V133.792Z" fill="black"/>
<path d="M1.17114 18.549L185.824 18.549V1.67525L1.17114 1.67525V18.549Z" fill="white"/>
<path d="M185.827 19.7227H1.17347C0.526039 19.7227 0 19.1967 0 18.5492V1.67555C0 1.02811 0.526039 0.502075 1.17347 0.502075H185.827C186.474 0.502075 187 1.02811 187 1.67555V18.5492C187 19.1967 186.474 19.7227 185.827 19.7227ZM2.34694 17.3758H184.653V2.84902H2.34694V17.3758Z" fill="black"/>
<path d="M134.717 11.2786H124.978C124.331 11.2786 123.805 10.7525 123.805 10.1051C123.805 9.45768 124.331 8.93164 124.978 8.93164H134.717C135.364 8.93164 135.89 9.45768 135.89 10.1051C135.89 10.7525 135.364 11.2786 134.717 11.2786Z" fill="black"/>
<path d="M154.474 11.2786H144.736C144.089 11.2786 143.563 10.7525 143.563 10.1051C143.563 9.45768 144.089 8.93164 144.736 8.93164H154.474C155.122 8.93164 155.648 9.45768 155.648 10.1051C155.648 10.7525 155.122 11.2786 154.474 11.2786Z" fill="black"/>
<path d="M174.236 11.2786H164.498C163.85 11.2786 163.324 10.7525 163.324 10.1051C163.324 9.45768 163.85 8.93164 164.498 8.93164H174.236C174.884 8.93164 175.41 9.45768 175.41 10.1051C175.41 10.7525 174.884 11.2786 174.236 11.2786Z" fill="black"/>
<path d="M99.3367 121.314L112.825 117.524L107.389 99.5848L95.6139 103.375L87.8717 91.964L94.373 80.7148L78.0253 73.3907L72.8729 86.0831L59.061 86.2585L53.5443 75.1982L36.819 84.4915L43.7924 94.4862L34.553 105.317L25.4619 102.269L20.6602 121.989L31.3967 124.174L36.0502 136.893L27.9168 145.472L41.6882 157.651L48.257 148.628L60.9223 151.258L62.2172 163.37L79.0774 162.305L77.4588 151.285L87.2647 144.945L96.5581 153.47L109.21 137.972L98.0013 131.444L99.3502 121.287L99.3367 121.314ZM66.7357 130.338C60.1535 130.338 54.8122 124.996 54.8122 118.414C54.8122 111.832 60.1535 106.491 66.7357 106.491C73.318 106.491 78.6593 111.832 78.6593 118.414C78.6593 124.996 73.318 130.338 66.7357 130.338Z" fill="white"/>
<path d="M62.219 164.598C61.6256 164.598 61.113 164.153 61.0591 163.546L59.8586 152.284L48.7713 149.977L42.6477 158.38C42.4589 158.65 42.1486 158.825 41.8249 158.852C41.5012 158.893 41.164 158.785 40.9212 158.569L27.1498 146.389C26.907 146.173 26.7721 145.877 26.7586 145.567C26.7451 145.243 26.8665 144.933 27.0824 144.703L34.7167 136.651L30.5353 125.226L20.4327 123.163C20.1225 123.095 19.8527 122.906 19.6773 122.637C19.502 122.367 19.448 122.043 19.529 121.733L24.3308 102.013C24.4117 101.689 24.614 101.42 24.8973 101.258C25.1805 101.096 25.5312 101.069 25.8414 101.177L34.1906 103.969L42.324 94.4328L35.8632 85.18C35.6743 84.9102 35.6069 84.573 35.6878 84.2493C35.7687 83.9256 35.9711 83.6423 36.2678 83.4939L52.9931 74.2006C53.2764 74.0387 53.6001 74.0118 53.9103 74.1062C54.2206 74.2006 54.4768 74.4164 54.6117 74.6996L59.7912 85.099L72.0789 84.9372L76.9481 72.9597C77.0695 72.6629 77.2988 72.4336 77.5955 72.3122C77.8923 72.1909 78.216 72.2043 78.5127 72.3257L94.8604 79.6498C95.1572 79.7847 95.3999 80.041 95.4944 80.3647C95.6023 80.6749 95.5618 81.0256 95.3999 81.3089L89.2628 91.924L96.1013 102L107.04 98.4793C107.337 98.3849 107.661 98.4118 107.944 98.5602C108.227 98.7086 108.43 98.9649 108.524 99.2616L113.96 117.201C114.054 117.498 114.014 117.835 113.865 118.105C113.717 118.388 113.461 118.59 113.15 118.671L100.418 122.245L99.2845 130.864L109.819 137.002C110.116 137.177 110.318 137.474 110.385 137.811C110.453 138.148 110.358 138.499 110.143 138.768L97.4906 154.266C97.2883 154.523 96.9915 154.671 96.6678 154.698C96.3441 154.725 96.0339 154.617 95.7911 154.388L87.1721 146.484L78.7555 151.919L80.2662 162.197C80.3202 162.521 80.2257 162.858 80.0099 163.101C79.8076 163.357 79.4974 163.519 79.1737 163.533L62.3135 164.598C62.3135 164.598 62.2595 164.598 62.2325 164.598H62.219ZM48.2723 147.509C48.3532 147.509 48.4341 147.509 48.5151 147.536L61.1805 150.166C61.6795 150.274 62.0572 150.679 62.1111 151.191L63.2846 162.184L77.7439 161.28L76.3142 151.515C76.2467 151.056 76.4491 150.611 76.8402 150.355L86.6461 144.015C87.0912 143.732 87.6847 143.773 88.0759 144.137L96.452 151.812L107.445 138.337L97.4232 132.496C97.0185 132.254 96.7892 131.795 96.8567 131.323L98.2055 121.166C98.2729 120.708 98.5966 120.317 99.0552 120.195L111.383 116.729L106.636 101.083L95.9934 104.509C95.4943 104.67 94.9548 104.482 94.6581 104.05L86.9159 92.6389C86.6596 92.2612 86.6461 91.7757 86.8754 91.398L92.7293 81.2819L78.6746 74.9829L73.9672 86.5557C73.7919 86.9874 73.3603 87.2841 72.9017 87.2841L59.0898 87.4595H59.0763C58.6312 87.4595 58.2265 87.2032 58.0242 86.812L53.0606 76.8443L38.5338 84.9102L44.7653 93.8394C45.0756 94.271 45.0486 94.8645 44.6979 95.2691L35.4585 106.1C35.1483 106.464 34.6492 106.599 34.1906 106.451L26.3135 103.807L22.1052 121.099L31.6548 123.041C32.0595 123.122 32.3832 123.405 32.5181 123.783L37.1715 136.502C37.3199 136.921 37.2255 137.393 36.9152 137.716L29.6181 145.418L41.5147 155.939L47.3281 147.967C47.5574 147.657 47.9081 147.482 48.2723 147.482V147.509ZM66.7376 131.525C59.5079 131.525 53.6271 125.644 53.6271 118.415C53.6271 111.185 59.5079 105.304 66.7376 105.304C73.9672 105.304 79.8481 111.185 79.8481 118.415C79.8481 125.644 73.9672 131.525 66.7376 131.525ZM66.7376 107.665C60.8028 107.665 55.9875 112.494 55.9875 118.428C55.9875 124.363 60.8163 129.192 66.7376 129.192C72.6589 129.192 77.5011 124.363 77.5011 118.428C77.5011 112.494 72.6724 107.665 66.7376 107.665Z" fill="black"/>
<g opacity="0.13">
<path d="M43.9169 152.581C43.4583 151.043 41.7453 150.436 40.6258 149.452C40.2616 149.128 38.3193 147.779 36.3096 145.972C35.0282 144.906 34.0436 143.341 32.5464 142.586C29.9027 141.372 27.5423 144.92 29.606 146.943C33.2478 150.652 35.9454 152.608 39.0612 154.901C39.803 155.292 39.4119 155.71 41.3407 155.966C43.0537 156.007 44.389 154.226 43.9169 152.581Z" fill="black"/>
</g>
<g opacity="0.13">
<path d="M76.937 158.3C76.5593 158.125 75.6016 158.273 75.3184 158.341C73.6459 158.449 71.9598 158.435 70.3008 158.273C68.6687 158.111 67.0232 158.071 65.3911 157.936C64.5548 157.896 63.6511 157.599 62.8688 158.031C60.0633 159.096 60.967 163.412 63.9479 163.385C66.605 163.696 69.2892 163.52 71.9598 163.493C73.2277 163.534 74.4956 163.534 75.7635 163.439C76.384 163.439 77.0314 163.412 77.5709 163.062C79.5402 161.942 79.149 158.853 76.9505 158.287L76.937 158.3Z" fill="black"/>
</g>
<g opacity="0.13">
<path d="M102.98 136.84C100.634 140.63 96.7085 145.257 95.7373 146.929C95.1439 147.806 94.0378 148.292 93.6736 149.303C92.5541 151.718 95.8183 153.889 97.6662 152.001C99.5815 150.423 101.348 147.334 101.794 146.956C103.304 145.108 104.747 143.207 106.083 141.224C106.595 140.307 107.539 139.524 107.647 138.445C108.106 135.775 104.329 134.493 102.994 136.84H102.98Z" fill="black"/>
</g>
<path d="M73.1736 43.7992H26.7203C26.0729 43.7992 25.5469 43.2732 25.5469 42.6257C25.5469 41.9783 26.0729 41.4523 26.7203 41.4523H73.1736C73.821 41.4523 74.3471 41.9783 74.3471 42.6257C74.3471 43.2732 73.821 43.7992 73.1736 43.7992Z" fill="black"/>
<path d="M170.721 101.69H135.517C134.87 101.69 134.344 101.164 134.344 100.516C134.344 99.8689 134.87 99.3429 135.517 99.3429H170.721C171.369 99.3429 171.895 99.8689 171.895 100.516C171.895 101.164 171.369 101.69 170.721 101.69Z" fill="black"/>
<path d="M56.5303 61.4682H26.8024C26.1549 61.4682 25.6289 60.9421 25.6289 60.2947C25.6289 59.6473 26.1549 59.1212 26.8024 59.1212H56.5303C57.1777 59.1212 57.7038 59.6473 57.7038 60.2947C57.7038 60.9421 57.1777 61.4682 56.5303 61.4682Z" fill="black"/>
<path d="M167.647 36.6232H114.449V76.5212H167.647V36.6232Z" fill="white"/>
<path d="M167.644 77.6943H114.447C113.799 77.6943 113.273 77.1683 113.273 76.5208V36.6228C113.273 35.9754 113.799 35.4493 114.447 35.4493H167.644C168.292 35.4493 168.818 35.9754 168.818 36.6228V76.5208C168.818 77.1683 168.292 77.6943 167.644 77.6943ZM115.62 75.3474H166.471V37.7963H115.62V75.3474Z" fill="black"/>
<path d="M25.5094 118.401C25.4419 118.401 25.3745 118.387 25.3071 118.347C25.1182 118.239 25.0643 117.996 25.1722 117.807L30.3786 109.283C30.4865 109.094 30.7293 109.04 30.9181 109.148C31.107 109.256 31.1609 109.499 31.053 109.687L25.8466 118.212C25.7792 118.333 25.6443 118.401 25.5094 118.401Z" fill="black"/>
<path d="M31.6985 119.372C31.6175 119.372 31.5501 119.345 31.4827 119.305C31.3073 119.184 31.2534 118.941 31.3882 118.765C38.4291 108.514 45.8341 98.3174 53.4144 88.4575C53.5493 88.2822 53.7921 88.2552 53.9674 88.3901C54.1428 88.525 54.1698 88.7678 54.0349 88.9431C46.468 98.7895 39.063 108.973 32.0357 119.211C31.9547 119.318 31.8334 119.386 31.712 119.386L31.6985 119.372Z" fill="black"/>
<path d="M45.156 89.2947C45.0751 89.2947 44.9942 89.2677 44.9132 89.2138C44.7379 89.0789 44.7109 88.8361 44.8323 88.6608L50.6457 81.013C50.7806 80.8376 51.0234 80.8106 51.1987 80.932C51.3741 81.0669 51.401 81.3097 51.2796 81.4851L45.4662 89.1328C45.3853 89.2273 45.2774 89.2812 45.156 89.2812V89.2947Z" fill="black"/>
<path d="M36.4748 126.401C36.4073 126.401 36.3264 126.387 36.259 126.333C36.0836 126.212 36.0297 125.969 36.1376 125.794C43.8798 113.776 52.148 101.866 60.6995 90.4007C60.8344 90.2253 61.0772 90.1983 61.2526 90.3197C61.4279 90.4546 61.4549 90.6974 61.3335 90.8727C52.7955 102.324 44.5407 114.221 36.7985 126.212C36.7176 126.333 36.5962 126.387 36.4748 126.387V126.401Z" fill="black"/>
<path d="M39.8018 133.521C39.7209 133.521 39.6264 133.494 39.559 133.44C39.3836 133.306 39.3567 133.063 39.4916 132.887C43.1334 128.261 46.6403 123.446 49.9314 118.549C50.0528 118.374 50.2956 118.32 50.4709 118.442C50.6463 118.563 50.7002 118.806 50.5788 118.981C47.2742 123.891 43.7538 128.733 40.0985 133.359C40.0176 133.454 39.9097 133.508 39.7883 133.508L39.8018 133.521Z" fill="black"/>
<path d="M59.9833 104.806C59.9024 104.806 59.8215 104.779 59.754 104.738C59.5787 104.617 59.5382 104.361 59.6596 104.185C63.0047 99.5319 66.4846 94.8919 70.0051 90.3599C70.1399 90.1846 70.3827 90.1576 70.5581 90.2925C70.7334 90.4273 70.7604 90.6701 70.6255 90.8455C67.1051 95.364 63.6386 100.004 60.2936 104.644C60.2126 104.752 60.0912 104.806 59.9698 104.806H59.9833Z" fill="black"/>
<path d="M70.1776 102.404C70.1102 102.404 70.0292 102.39 69.9753 102.35C69.7864 102.228 69.7325 101.999 69.8539 101.81C74.3724 94.648 79.1607 87.5532 84.0839 80.6878C84.2053 80.5124 84.4481 80.4719 84.6369 80.5933C84.8123 80.7147 84.8527 80.9575 84.7313 81.1464C79.8082 87.9983 75.0333 95.0931 70.5283 102.228C70.4474 102.35 70.326 102.417 70.1911 102.417L70.1776 102.404Z" fill="black"/>
<path d="M36.6612 148.493C36.5802 148.493 36.4993 148.466 36.4184 148.412C36.243 148.277 36.216 148.034 36.3509 147.859C41.6653 140.966 47.3033 134.155 53.0628 127.627C53.2111 127.465 53.4539 127.451 53.6158 127.586C53.7776 127.735 53.7911 127.977 53.6562 128.139C47.8968 134.654 42.2857 141.452 36.9714 148.331C36.8905 148.425 36.7825 148.479 36.6612 148.479V148.493Z" fill="black"/>
<path d="M48.5576 144.623C48.4766 144.623 48.3957 144.596 48.3283 144.555C48.1529 144.434 48.1124 144.191 48.2338 144.016C50.7696 140.468 53.4268 136.934 56.1379 133.508C56.2728 133.333 56.5156 133.306 56.6909 133.441C56.8663 133.576 56.8932 133.819 56.7584 133.994C54.0472 137.406 51.4036 140.927 48.8813 144.474C48.8003 144.582 48.679 144.636 48.5576 144.636V144.623Z" fill="black"/>
<path d="M76.7343 105.399C76.6533 105.399 76.5724 105.372 76.505 105.318C76.3296 105.183 76.2892 104.94 76.424 104.765C79.1082 101.163 82.0756 97.7104 85.2453 94.5137C85.3937 94.3654 85.6499 94.3654 85.7983 94.5137C85.9467 94.6621 85.9467 94.9184 85.7983 95.0668C82.6556 98.2365 79.7152 101.649 77.058 105.223C76.9771 105.331 76.8691 105.385 76.7478 105.385L76.7343 105.399Z" fill="black"/>
<path d="M55.6515 146.39C55.5706 146.39 55.5032 146.363 55.4357 146.322C55.2604 146.201 55.2064 145.958 55.3413 145.783C57.5803 142.505 59.9677 139.268 62.4361 136.166C62.571 135.99 62.8137 135.963 62.9891 136.098C63.1644 136.233 63.1914 136.476 63.0565 136.651C60.6017 139.753 58.2278 142.977 55.9887 146.228C55.9078 146.336 55.7864 146.403 55.665 146.403L55.6515 146.39Z" fill="black"/>
<path d="M80.876 113.087C80.7951 113.087 80.7141 113.06 80.6332 113.006C80.4579 112.871 80.4309 112.628 80.5658 112.453C83.4253 108.73 86.4062 105.048 89.4275 101.487C89.5624 101.325 89.8187 101.298 89.9805 101.446C90.1424 101.581 90.1693 101.837 90.021 101.999C86.9996 105.547 84.0322 109.229 81.1727 112.938C81.0918 113.033 80.9839 113.087 80.8625 113.087H80.876Z" fill="black"/>
<path d="M63.4463 148.574C63.3654 148.574 63.271 148.547 63.2035 148.493C63.0282 148.358 63.0012 148.115 63.1361 147.94C74.4931 133.535 86.5111 119.359 98.8393 105.776C98.9876 105.614 99.2304 105.601 99.3923 105.749C99.5541 105.897 99.5676 106.14 99.4193 106.302C87.0911 119.858 75.0866 134.034 63.743 148.426C63.6621 148.52 63.5542 148.574 63.4328 148.574H63.4463Z" fill="black"/>
<path d="M65.8395 157.046C65.7451 157.046 65.6642 157.019 65.5832 156.951C65.4214 156.816 65.3944 156.56 65.5428 156.398L92.074 124.944C92.2089 124.782 92.4652 124.755 92.627 124.903C92.7889 125.038 92.8159 125.294 92.6675 125.456L66.1363 156.911C66.0553 157.005 65.9474 157.046 65.8395 157.046Z" fill="black"/>
<path d="M99.9903 116.554C99.8958 116.554 99.8014 116.527 99.734 116.459C99.5721 116.311 99.5586 116.068 99.6935 115.906L106.384 108.245C106.532 108.083 106.775 108.07 106.937 108.204C107.099 108.353 107.112 108.596 106.977 108.757L100.287 116.419C100.206 116.513 100.098 116.554 99.9903 116.554Z" fill="black"/>
<path d="M88.1036 140.926C88.0091 140.926 87.9147 140.899 87.8473 140.832C87.6854 140.683 87.6719 140.441 87.8068 140.279L92.8649 134.519C93.0132 134.357 93.256 134.344 93.4179 134.479C93.5798 134.627 93.5932 134.87 93.4584 135.032L88.4003 140.791C88.3194 140.886 88.2115 140.926 88.1036 140.926Z" fill="black"/>
<path d="M94.1487 145.284C94.0678 145.284 93.9734 145.257 93.9059 145.203C93.7441 145.068 93.7171 144.825 93.852 144.65C94.6208 143.706 95.4436 142.748 96.2529 141.831C97.3454 140.576 98.4649 139.281 99.4631 137.973C99.517 137.906 99.571 137.838 99.6249 137.784C99.6249 137.622 99.7463 137.46 99.9082 137.42C100.07 137.38 100.38 137.285 100.542 137.582C100.69 137.865 100.461 138.081 100.367 138.162C100.299 138.229 100.178 138.324 100.084 138.445C99.0719 139.767 97.9389 141.075 96.8464 142.33C96.0506 143.247 95.2278 144.191 94.4724 145.135C94.3915 145.23 94.2836 145.284 94.1622 145.284H94.1487Z" fill="black"/>
<g opacity="0.13">
<path d="M184.696 19.2355H0.0429688V24.7117H184.696V19.2355Z" fill="black"/>
</g>
</g>
<defs>
<clipPath id="clip0_1_898">
<rect width="187" height="164.097" fill="white" transform="translate(0 0.5)"/>
</clipPath>
</defs>
</svg>
