<svg width="187" height="165" viewBox="0 0 187 165" fill="none" xmlns="http://www.w3.org/2000/svg">
<g clip-path="url(#clip0_2093_13806)">
<path d="M1.1731 134.451L185.826 134.451L185.826 6.61029L1.1731 6.61029L1.1731 134.451Z" fill="white"/>
<path d="M185.827 135.639H1.17347C0.526039 135.639 0 135.113 0 134.466V6.62464C0 5.97721 0.526039 5.45117 1.17347 5.45117H185.827C186.474 5.45117 187 5.97721 187 6.62464V134.466C187 135.113 186.474 135.639 185.827 135.639ZM2.34694 133.292H184.653V7.79811H2.34694V133.292Z" fill="black"/>
<path d="M1.1731 18.0488L185.826 18.0488V1.17513L1.1731 1.17513V18.0488Z" fill="white"/>
<path d="M185.827 19.2226H1.17347C0.526039 19.2226 0 18.6966 0 18.0491V1.17542C0 0.527992 0.526039 0.00195312 1.17347 0.00195312H185.827C186.474 0.00195312 187 0.527992 187 1.17542V18.0491C187 18.6966 186.474 19.2226 185.827 19.2226ZM2.34694 16.8757H184.653V2.34889H2.34694V16.8757Z" fill="black"/>
<path d="M134.717 10.7786H124.978C124.331 10.7786 123.805 10.2525 123.805 9.60511C123.805 8.95768 124.331 8.43164 124.978 8.43164H134.717C135.364 8.43164 135.89 8.95768 135.89 9.60511C135.89 10.2525 135.364 10.7786 134.717 10.7786Z" fill="black"/>
<path d="M154.474 10.7786H144.736C144.089 10.7786 143.562 10.2525 143.562 9.60511C143.562 8.95768 144.089 8.43164 144.736 8.43164H154.474C155.122 8.43164 155.648 8.95768 155.648 9.60511C155.648 10.2525 155.122 10.7786 154.474 10.7786Z" fill="black"/>
<path d="M174.238 10.7786H164.5C163.852 10.7786 163.326 10.2525 163.326 9.60511C163.326 8.95768 163.852 8.43164 164.5 8.43164H174.238C174.886 8.43164 175.412 8.95768 175.412 9.60511C175.412 10.2525 174.886 10.7786 174.238 10.7786Z" fill="black"/>
<path d="M99.3386 120.814L112.827 117.024L107.391 99.0846L95.6159 102.875L87.8737 91.4638L94.375 80.2147L78.0273 72.8906L72.8748 85.583L59.0629 85.7583L53.5463 74.698L36.8209 83.9914L43.7943 93.9861L34.5549 104.817L25.4639 101.769L20.6621 121.488L31.3987 123.674L36.0521 136.393L27.9187 144.971L41.6902 157.151L48.2589 148.128L60.9243 150.758L62.2192 162.87L79.0794 161.805L77.4608 150.785L87.2667 144.445L96.56 152.97L109.212 137.472L98.0033 130.944L99.3521 120.787L99.3386 120.814ZM66.7377 129.838C60.1555 129.838 54.8142 124.496 54.8142 117.914C54.8142 111.332 60.1555 105.991 66.7377 105.991C73.3199 105.991 78.6612 111.332 78.6612 117.914C78.6612 124.496 73.3199 129.838 66.7377 129.838Z" fill="white"/>
<path d="M62.219 164.098C61.6256 164.098 61.113 163.653 61.0591 163.046L59.8586 151.783L48.7713 149.477L42.6477 157.88C42.4589 158.15 42.1486 158.325 41.8249 158.352C41.5012 158.393 41.164 158.285 40.9212 158.069L27.1498 145.889C26.907 145.673 26.7721 145.377 26.7586 145.066C26.7451 144.743 26.8665 144.432 27.0824 144.203L34.7167 136.151L30.5353 124.726L20.4327 122.663C20.1225 122.595 19.8527 122.406 19.6773 122.136C19.502 121.867 19.448 121.543 19.529 121.233L24.3308 101.513C24.4117 101.189 24.614 100.92 24.8973 100.758C25.1805 100.596 25.5312 100.569 25.8414 100.677L34.1906 103.469L42.324 93.9327L35.8632 84.6798C35.6743 84.4101 35.6069 84.0729 35.6878 83.7492C35.7687 83.4254 35.9711 83.1422 36.2678 82.9938L52.9931 73.7005C53.2764 73.5386 53.6001 73.5116 53.9103 73.606C54.2206 73.7005 54.4768 73.9163 54.6117 74.1995L59.7912 84.5989L72.0789 84.437L76.9481 72.4596C77.0695 72.1628 77.2988 71.9335 77.5955 71.8121C77.8923 71.6907 78.216 71.7042 78.5127 71.8256L94.8604 79.1497C95.1572 79.2846 95.3999 79.5408 95.4944 79.8646C95.6023 80.1748 95.5618 80.5255 95.3999 80.8087L89.2628 91.4239L96.1013 101.5L107.04 97.9792C107.337 97.8848 107.661 97.9117 107.944 98.0601C108.227 98.2085 108.43 98.4647 108.524 98.7615L113.96 116.701C114.054 116.997 114.014 117.335 113.865 117.604C113.717 117.888 113.461 118.09 113.15 118.171L100.418 121.745L99.2845 130.364L109.819 136.501C110.116 136.677 110.318 136.973 110.385 137.311C110.453 137.648 110.358 137.999 110.143 138.268L97.4906 153.766C97.2883 154.023 96.9915 154.171 96.6678 154.198C96.3441 154.225 96.0339 154.117 95.7911 153.888L87.1721 145.984L78.7555 151.419L80.2662 161.697C80.3202 162.021 80.2257 162.358 80.0099 162.601C79.8076 162.857 79.4974 163.019 79.1737 163.033L62.3135 164.098C62.3135 164.098 62.2595 164.098 62.2325 164.098H62.219ZM48.2723 147.009C48.3532 147.009 48.4341 147.009 48.5151 147.036L61.1805 149.666C61.6795 149.774 62.0572 150.178 62.1111 150.691L63.2846 161.684L77.7439 160.78L76.3142 151.015C76.2467 150.556 76.4491 150.111 76.8402 149.855L86.6461 143.515C87.0912 143.232 87.6847 143.272 88.0759 143.637L96.452 151.311L107.445 137.837L97.4232 131.996C97.0185 131.754 96.7892 131.295 96.8567 130.823L98.2055 120.666C98.2729 120.208 98.5966 119.817 99.0552 119.695L111.383 116.229L106.636 100.582L95.9934 104.008C95.4943 104.17 94.9548 103.981 94.6581 103.55L86.9159 92.1388C86.6596 91.7611 86.6461 91.2755 86.8754 90.8979L92.7293 80.7818L78.6746 74.4828L73.9672 86.0556C73.7919 86.4872 73.3603 86.784 72.9017 86.784L59.0898 86.9593H59.0763C58.6312 86.9593 58.2265 86.7031 58.0242 86.3119L53.0606 76.3441L38.5338 84.4101L44.7653 93.3392C45.0756 93.7709 45.0486 94.3643 44.6979 94.769L35.4585 105.6C35.1483 105.964 34.6492 106.099 34.1906 105.951L26.3135 103.307L22.1052 120.599L31.6548 122.541C32.0595 122.622 32.3832 122.905 32.5181 123.283L37.1715 136.002C37.3199 136.42 37.2255 136.893 36.9152 137.216L29.6181 144.918L41.5147 155.439L47.3281 147.467C47.5574 147.157 47.9081 146.982 48.2723 146.982V147.009ZM66.7376 131.025C59.5079 131.025 53.6271 125.144 53.6271 117.915C53.6271 110.685 59.5079 104.804 66.7376 104.804C73.9672 104.804 79.8481 110.685 79.8481 117.915C79.8481 125.144 73.9672 131.025 66.7376 131.025ZM66.7376 107.165C60.8028 107.165 55.9875 111.993 55.9875 117.928C55.9875 123.863 60.8163 128.692 66.7376 128.692C72.6589 128.692 77.5011 123.863 77.5011 117.928C77.5011 111.993 72.6724 107.165 66.7376 107.165Z" fill="black"/>
<g opacity="0.13">
<path d="M43.9169 152.081C43.4583 150.543 41.7453 149.936 40.6258 148.951C40.2616 148.628 38.3193 147.279 36.3096 145.472C35.0282 144.406 34.0436 142.841 32.5464 142.086C29.9027 140.872 27.5423 144.419 29.606 146.443C33.2478 150.152 35.9454 152.108 39.0612 154.401C39.803 154.792 39.4119 155.21 41.3407 155.466C43.0537 155.507 44.389 153.726 43.9169 152.081Z" fill="black"/>
</g>
<g opacity="0.13">
<path d="M76.937 157.8C76.5594 157.625 75.6017 157.773 75.3184 157.84C73.6459 157.948 71.9599 157.935 70.3008 157.773C68.6688 157.611 67.0232 157.571 65.3912 157.436C64.5549 157.395 63.6512 157.099 62.8689 157.53C60.0633 158.596 60.967 162.912 63.9479 162.885C66.6051 163.195 69.2892 163.02 71.9599 162.993C73.2278 163.033 74.4957 163.033 75.7636 162.939C76.384 162.939 77.0314 162.912 77.571 162.561C79.5402 161.442 79.1491 158.353 76.9505 157.787L76.937 157.8Z" fill="black"/>
</g>
<g opacity="0.13">
<path d="M102.981 136.34C100.634 140.13 96.7085 144.757 95.7374 146.429C95.1439 147.306 94.0379 147.791 93.6737 148.803C92.5542 151.217 95.8183 153.389 97.6662 151.501C99.5815 149.923 101.348 146.834 101.794 146.456C103.304 144.608 104.747 142.706 106.083 140.724C106.595 139.806 107.54 139.024 107.647 137.945C108.106 135.274 104.329 133.993 102.994 136.34H102.981Z" fill="black"/>
</g>
<path d="M73.1756 43.2991H26.7223C26.0749 43.2991 25.5488 42.7731 25.5488 42.1256C25.5488 41.4782 26.0749 40.9521 26.7223 40.9521H73.1756C73.823 40.9521 74.349 41.4782 74.349 42.1256C74.349 42.7731 73.823 43.2991 73.1756 43.2991Z" fill="black"/>
<path d="M170.721 101.19H135.517C134.87 101.19 134.344 100.664 134.344 100.016C134.344 99.3688 134.87 98.8428 135.517 98.8428H170.721C171.369 98.8428 171.895 99.3688 171.895 100.016C171.895 100.664 171.369 101.19 170.721 101.19Z" fill="black"/>
<path d="M56.5284 60.968H26.8004C26.153 60.968 25.627 60.442 25.627 59.7946C25.627 59.1471 26.153 58.6211 26.8004 58.6211H56.5284C57.1758 58.6211 57.7018 59.1471 57.7018 59.7946C57.7018 60.442 57.1758 60.968 56.5284 60.968Z" fill="black"/>
<path d="M167.649 36.123H114.451V76.0211H167.649V36.123Z" fill="white"/>
<path d="M167.646 77.1942H114.449C113.801 77.1942 113.275 76.6681 113.275 76.0207V36.1227C113.275 35.4753 113.801 34.9492 114.449 34.9492H167.646C168.294 34.9492 168.82 35.4753 168.82 36.1227V76.0207C168.82 76.6681 168.294 77.1942 167.646 77.1942ZM115.622 74.8472H166.473V37.2962H115.622V74.8472Z" fill="black"/>
<path d="M25.5094 117.901C25.4419 117.901 25.3745 117.887 25.3071 117.847C25.1182 117.739 25.0643 117.496 25.1722 117.307L30.3786 108.783C30.4865 108.594 30.7293 108.54 30.9181 108.648C31.107 108.756 31.1609 108.998 31.053 109.187L25.8466 117.712C25.7792 117.833 25.6443 117.901 25.5094 117.901Z" fill="black"/>
<path d="M31.6984 118.872C31.6175 118.872 31.55 118.845 31.4826 118.805C31.3072 118.683 31.2533 118.441 31.3882 118.265C38.429 108.014 45.834 97.8173 53.4143 87.9574C53.5492 87.7821 53.792 87.7551 53.9674 87.89C54.1427 88.0249 54.1697 88.2677 54.0348 88.443C46.4679 98.2894 39.0629 108.473 32.0356 118.71C31.9547 118.818 31.8333 118.886 31.7119 118.886L31.6984 118.872Z" fill="black"/>
<path d="M45.156 88.7946C45.0751 88.7946 44.9942 88.7676 44.9132 88.7136C44.7379 88.5788 44.7109 88.336 44.8323 88.1606L50.6457 80.5128C50.7806 80.3375 51.0234 80.3105 51.1987 80.4319C51.3741 80.5668 51.401 80.8096 51.2796 80.9849L45.4662 88.6327C45.3853 88.7271 45.2774 88.7811 45.156 88.7811V88.7946Z" fill="black"/>
<path d="M36.4728 125.9C36.4054 125.9 36.3245 125.887 36.257 125.833C36.0817 125.712 36.0277 125.469 36.1356 125.293C43.8778 113.276 52.1461 101.365 60.6976 89.9005C60.8325 89.7252 61.0753 89.6982 61.2506 89.8196C61.426 89.9545 61.4529 90.1973 61.3315 90.3726C52.7935 101.824 44.5388 113.721 36.7966 125.712C36.7156 125.833 36.5942 125.887 36.4728 125.887V125.9Z" fill="black"/>
<path d="M39.8018 133.021C39.7209 133.021 39.6264 132.994 39.559 132.94C39.3836 132.805 39.3567 132.563 39.4916 132.387C43.1334 127.761 46.6403 122.946 49.9314 118.049C50.0528 117.874 50.2956 117.82 50.4709 117.941C50.6463 118.063 50.7002 118.306 50.5788 118.481C47.2742 123.391 43.7538 128.233 40.0985 132.859C40.0176 132.954 39.9097 133.008 39.7883 133.008L39.8018 133.021Z" fill="black"/>
<path d="M59.9833 104.306C59.9024 104.306 59.8215 104.279 59.754 104.238C59.5787 104.117 59.5382 103.86 59.6596 103.685C63.0047 99.0317 66.4846 94.3918 70.0051 89.8598C70.1399 89.6844 70.3827 89.6575 70.5581 89.7923C70.7334 89.9272 70.7604 90.17 70.6255 90.3454C67.1051 94.8639 63.6386 99.5038 60.2936 104.144C60.2126 104.252 60.0912 104.306 59.9698 104.306H59.9833Z" fill="black"/>
<path d="M70.1795 101.904C70.1121 101.904 70.0312 101.89 69.9772 101.85C69.7884 101.728 69.7344 101.499 69.8558 101.31C74.3744 94.1479 79.1627 87.0531 84.0859 80.1876C84.2072 80.0123 84.45 79.9718 84.6389 80.0932C84.8142 80.2146 84.8547 80.4574 84.7333 80.6462C79.8101 87.4982 75.0353 94.593 70.5302 101.728C70.4493 101.85 70.3279 101.917 70.193 101.917L70.1795 101.904Z" fill="black"/>
<path d="M36.6612 147.993C36.5802 147.993 36.4993 147.966 36.4184 147.912C36.243 147.777 36.216 147.534 36.3509 147.359C41.6653 140.466 47.3033 133.655 53.0628 127.127C53.2111 126.965 53.4539 126.951 53.6158 127.086C53.7776 127.234 53.7911 127.477 53.6562 127.639C47.8968 134.154 42.2857 140.952 36.9714 147.831C36.8905 147.925 36.7825 147.979 36.6612 147.979V147.993Z" fill="black"/>
<path d="M48.5556 144.122C48.4747 144.122 48.3937 144.095 48.3263 144.055C48.151 143.934 48.1105 143.691 48.2319 143.516C50.7677 139.968 53.4248 136.434 56.136 133.008C56.2708 132.833 56.5136 132.806 56.689 132.941C56.8643 133.076 56.8913 133.318 56.7564 133.494C54.0453 136.906 51.4016 140.427 48.8793 143.974C48.7984 144.082 48.677 144.136 48.5556 144.136V144.122Z" fill="black"/>
<path d="M76.7362 104.899C76.6553 104.899 76.5744 104.872 76.5069 104.818C76.3316 104.683 76.2911 104.44 76.426 104.265C79.1101 100.663 82.0775 97.2103 85.2473 94.0136C85.3956 93.8653 85.6519 93.8653 85.8003 94.0136C85.9486 94.162 85.9486 94.4183 85.8003 94.5666C82.6575 97.7364 79.7171 101.149 77.0599 104.723C76.979 104.831 76.8711 104.885 76.7497 104.885L76.7362 104.899Z" fill="black"/>
<path d="M55.6496 145.889C55.5686 145.889 55.5012 145.862 55.4338 145.822C55.2584 145.701 55.2045 145.458 55.3393 145.283C57.5784 142.005 59.9658 138.768 62.4341 135.665C62.569 135.49 62.8118 135.463 62.9871 135.598C63.1625 135.733 63.1895 135.976 63.0546 136.151C60.5997 139.253 58.2258 142.477 55.9868 145.728C55.9058 145.836 55.7845 145.903 55.6631 145.903L55.6496 145.889Z" fill="black"/>
<path d="M80.876 112.586C80.7951 112.586 80.7141 112.559 80.6332 112.505C80.4579 112.371 80.4309 112.128 80.5658 111.952C83.4253 108.23 86.4062 104.547 89.4275 100.987C89.5624 100.825 89.8187 100.798 89.9805 100.946C90.1424 101.081 90.1693 101.337 90.021 101.499C86.9996 105.047 84.0322 108.729 81.1727 112.438C81.0918 112.532 80.9839 112.586 80.8625 112.586H80.876Z" fill="black"/>
<path d="M63.4483 148.074C63.3673 148.074 63.2729 148.047 63.2055 147.993C63.0301 147.858 63.0032 147.615 63.138 147.44C74.4951 133.034 86.513 118.858 98.8412 105.276C98.9896 105.114 99.2324 105.1 99.3942 105.249C99.5561 105.397 99.5696 105.64 99.4212 105.802C87.093 119.357 75.0886 133.534 63.745 147.925C63.6641 148.02 63.5562 148.074 63.4348 148.074H63.4483Z" fill="black"/>
<path d="M65.8376 156.545C65.7432 156.545 65.6622 156.518 65.5813 156.451C65.4194 156.316 65.3925 156.06 65.5408 155.898L92.0721 124.444C92.2069 124.282 92.4632 124.255 92.6251 124.403C92.7869 124.538 92.8139 124.794 92.6655 124.956L66.1343 156.411C66.0534 156.505 65.9455 156.545 65.8376 156.545Z" fill="black"/>
<path d="M99.9903 116.053C99.8958 116.053 99.8014 116.026 99.734 115.959C99.5721 115.811 99.5586 115.568 99.6935 115.406L106.384 107.745C106.532 107.583 106.775 107.569 106.937 107.704C107.099 107.853 107.112 108.095 106.977 108.257L100.287 115.919C100.206 116.013 100.098 116.053 99.9903 116.053Z" fill="black"/>
<path d="M88.1036 140.426C88.0091 140.426 87.9147 140.399 87.8473 140.332C87.6854 140.183 87.6719 139.94 87.8068 139.779L92.8649 134.019C93.0132 133.857 93.256 133.844 93.4179 133.979C93.5798 134.127 93.5932 134.37 93.4584 134.532L88.4003 140.291C88.3194 140.386 88.2115 140.426 88.1036 140.426Z" fill="black"/>
<path d="M94.1468 144.783C94.0658 144.783 93.9714 144.757 93.904 144.703C93.7421 144.568 93.7152 144.325 93.85 144.15C94.6189 143.205 95.4416 142.248 96.2509 141.331C97.3435 140.076 98.463 138.781 99.4611 137.473C99.5151 137.405 99.569 137.338 99.623 137.284C99.623 137.122 99.7444 136.96 99.9062 136.92C100.068 136.879 100.378 136.785 100.54 137.082C100.689 137.365 100.459 137.581 100.365 137.662C100.297 137.729 100.176 137.824 100.082 137.945C99.0699 139.267 97.937 140.575 96.8444 141.83C96.0486 142.747 95.2258 143.691 94.4705 144.635C94.3896 144.73 94.2816 144.783 94.1603 144.783H94.1468Z" fill="black"/>
<g opacity="0.13">
<path d="M184.694 18.7354H0.0410156V24.2115H184.694V18.7354Z" fill="black"/>
</g>
</g>
<defs>
<clipPath id="clip0_2093_13806">
<rect width="187" height="164.097" fill="white"/>
</clipPath>
</defs>
</svg>
