<svg xmlns="http://www.w3.org/2000/svg" xmlns:xlink="http://www.w3.org/1999/xlink" width="219.933" height="47.391" viewBox="0 0 219.933 47.391">
  <defs>
    <radialGradient id="radial-gradient" cx="8.325" cy="8.338" r="8.334" gradientTransform="matrix(1, 0, 0, -1, 0, 16.676)" gradientUnits="userSpaceOnUse">
      <stop offset="0" stop-color="#797979"/>
      <stop offset="1" stop-color="#4c4c4c"/>
    </radialGradient>
  </defs>
  <g id="Group_1" data-name="Group 1" transform="translate(-65 -118)">
    <g id="Browserstack-logo" transform="translate(65 118)">
      <circle id="Ellipse_1" data-name="Ellipse 1" cx="23.695" cy="23.695" r="23.695" transform="translate(0 0)" fill="#f4b960"/>
      <circle id="Ellipse_2" data-name="Ellipse 2" cx="21.317" cy="21.317" r="21.317" fill="#e66f32"/>
      <circle id="Ellipse_3" data-name="Ellipse 3" cx="18.445" cy="18.445" r="18.445" transform="translate(5.699 0)" fill="#e43c41"/>
      <circle id="Ellipse_4" data-name="Ellipse 4" cx="16.964" cy="16.964" r="16.964" transform="translate(8.661 2.962)" fill="#bdd041"/>
      <circle id="Ellipse_5" data-name="Ellipse 5" cx="15.752" cy="15.752" r="15.752" transform="translate(8.616 5.43)" fill="#6db54c"/>
      <circle id="Ellipse_6" data-name="Ellipse 6" cx="13.239" cy="13.239" r="13.239" transform="translate(8.661 5.475)" fill="#aedae6"/>
      <circle id="Ellipse_7" data-name="Ellipse 7" cx="11.085" cy="11.085" r="11.085" transform="translate(12.97 5.43)" fill="#56b8de"/>
      <circle id="Ellipse_8" data-name="Ellipse 8" cx="9.738" cy="9.738" r="9.738" transform="translate(15.662 8.168)" fill="#00b1d5"/>
      <circle id="Ellipse_9" data-name="Ellipse 9" cx="8.347" cy="8.347" r="8.347" transform="translate(15.662 10.95)" fill="url(#radial-gradient)"/>
      <circle id="Ellipse_10" data-name="Ellipse 10" cx="8.347" cy="8.347" r="8.347" transform="translate(15.662 10.95)" fill="#221f1f"/>
      <ellipse id="Ellipse_11" data-name="Ellipse 11" cx="2.558" cy="1.66" rx="2.558" ry="1.66" transform="matrix(0.409, -0.912, 0.912, 0.409, 24.745, 17.893)" fill="#fff"/>
      <path id="Path_1" data-name="Path 1" d="M122.445,32.269a.29.29,0,0,1,.269-.269h7.495c4.263,0,6.238,1.975,6.238,4.937a4.1,4.1,0,0,1-2.334,3.949v.045a4.368,4.368,0,0,1,2.693,4.174c0,3.68-2.513,5.475-6.911,5.475h-7.18a.337.337,0,0,1-.314-.224V50.31l.045-18.041Zm7.674,7.4c1.75,0,2.872-.987,2.872-2.423s-1.077-2.468-2.872-2.468h-3.994c-.09,0-.18.045-.18.135v4.622c0,.09.045.135.135.18h4.039Zm-4.039,7.988h4.174c1.93,0,3.052-1.032,3.052-2.6S132.228,42.5,130.3,42.5h-4.174c-.09,0-.18.045-.18.135v4.847c0,.135.045.18.135.18Z" transform="translate(-67.47 -17.639)" fill="#000111"/>
      <path id="Path_2" data-name="Path 2" d="M159.514,56.763a.337.337,0,0,1-.314-.224V43.883a.29.29,0,0,1,.269-.269h2.738a.337.337,0,0,1,.314.224v1.167h.045a4.222,4.222,0,0,1,3.68-1.705,4.462,4.462,0,0,1,2.962,1.077c.135.135.18.224.045.359l-1.571,1.84a.292.292,0,0,1-.4.09h-.045a3.874,3.874,0,0,0-2.109-.628c-1.84,0-2.693,1.212-2.693,3.321v7.136a.29.29,0,0,1-.269.269h-2.648Z" transform="translate(-87.755 -23.868)" fill="#000111"/>
      <path id="Path_3" data-name="Path 3" d="M182.285,53.4a9.915,9.915,0,0,1-.494-3.231,8.7,8.7,0,0,1,.494-3.231c.808-2.289,2.962-3.635,5.879-3.635s5.026,1.346,5.834,3.635a9.915,9.915,0,0,1,.494,3.231A8.7,8.7,0,0,1,194,53.4c-.808,2.289-2.962,3.635-5.834,3.635S183.093,55.731,182.285,53.4Zm8.527-.808a7.347,7.347,0,0,0,.314-2.423,6.333,6.333,0,0,0-.314-2.423,2.578,2.578,0,0,0-2.648-1.705,2.691,2.691,0,0,0-2.693,1.705,7.5,7.5,0,0,0-.314,2.423,6.333,6.333,0,0,0,.314,2.423,2.633,2.633,0,0,0,2.693,1.705,2.578,2.578,0,0,0,2.648-1.705Z" transform="translate(-100.204 -23.868)" fill="#000111"/>
      <path id="Path_4" data-name="Path 4" d="M225.231,57.069a.391.391,0,0,1-.359-.269l-2.738-8.437h-.045l-2.782,8.392a.341.341,0,0,1-.359.269h-2.423a.391.391,0,0,1-.359-.269l-4.488-12.611a.216.216,0,0,1,.09-.269c.045,0,.09-.045.135,0h2.827a.392.392,0,0,1,.4.269l2.738,8.661h.045l2.693-8.661a.392.392,0,0,1,.4-.269h2.109a.431.431,0,0,1,.4.269l2.872,8.661h.045l2.6-8.661a.349.349,0,0,1,.4-.269h2.827a.171.171,0,0,1,.224.135v.135l-4.488,12.611a.341.341,0,0,1-.359.269l-2.423.045Z" transform="translate(-116.673 -24.174)" fill="#000111"/>
      <path id="Path_5" data-name="Path 5" d="M259.185,54.965a.278.278,0,0,1-.045-.359l.045-.045,1.66-1.616a.335.335,0,0,1,.4,0,6.673,6.673,0,0,0,4.174,1.481c1.75,0,2.648-.673,2.648-1.571,0-.808-.494-1.3-2.334-1.436l-1.526-.135c-2.872-.269-4.353-1.616-4.353-3.859,0-2.558,1.975-4.129,5.52-4.129a9.127,9.127,0,0,1,5.34,1.616.281.281,0,0,1,.09.359v.045l-1.436,1.616a.284.284,0,0,1-.4.045,7.325,7.325,0,0,0-3.725-1.077c-1.391,0-2.154.583-2.154,1.346s.494,1.212,2.334,1.391l1.526.135c2.962.269,4.4,1.705,4.4,3.859,0,2.6-2.064,4.443-5.969,4.443A9.851,9.851,0,0,1,259.185,54.965Z" transform="translate(-142.817 -23.865)" fill="#000111"/>
      <path id="Path_6" data-name="Path 6" d="M290.585,53.4a8.7,8.7,0,0,1-.494-3.231,9.709,9.709,0,0,1,.449-3.231c.808-2.289,2.962-3.635,5.789-3.635,2.917,0,5.026,1.391,5.834,3.635a11.421,11.421,0,0,1,.449,3.949.29.29,0,0,1-.269.269h-8.8c-.09,0-.18.045-.18.135v.045a2.446,2.446,0,0,0,.224.987,3.036,3.036,0,0,0,3.186,1.975,4.6,4.6,0,0,0,3.321-1.257.3.3,0,0,1,.449-.045h0l1.75,1.436a.277.277,0,0,1,.09.314.044.044,0,0,1-.045.045,7.85,7.85,0,0,1-5.834,2.244C293.547,57.033,291.393,55.686,290.585,53.4Zm8.616-5.834a2.775,2.775,0,0,0-2.782-1.705,2.736,2.736,0,0,0-2.782,1.705,3.1,3.1,0,0,0-.18,1.122c0,.09.045.135.135.18h5.61c.09,0,.18-.045.18-.135v-.045a4.87,4.87,0,0,0-.18-1.122Z" transform="translate(-159.902 -23.868)" fill="#000111"/>
      <path id="Path_7" data-name="Path 7" d="M323.214,56.763a.338.338,0,0,1-.314-.224V43.883a.29.29,0,0,1,.269-.269h2.738a.338.338,0,0,1,.314.224v1.167h.045a4.222,4.222,0,0,1,3.68-1.705,4.462,4.462,0,0,1,2.962,1.077c.135.135.18.224.045.359l-1.571,1.84a.292.292,0,0,1-.4.09h-.045a3.874,3.874,0,0,0-2.109-.628c-1.84,0-2.693,1.212-2.693,3.321v7.136a.29.29,0,0,1-.269.269h-2.648Z" transform="translate(-177.991 -23.868)" fill="#000111"/>
      <path id="Path_8" data-name="Path 8" d="M346.332,47.992a.292.292,0,0,1-.09-.4h0l1.84-1.975a.284.284,0,0,1,.4-.045h0a9.556,9.556,0,0,0,5.43,1.975c2.379,0,3.77-1.122,3.77-2.693,0-1.346-.9-2.2-3.635-2.558l-1.077-.135c-3.859-.494-6.058-2.2-6.058-5.3,0-3.366,2.648-5.565,6.777-5.565a11.689,11.689,0,0,1,6.507,1.885.193.193,0,0,1,.09.314c0,.045-.045.045-.045.09l-1.391,2.019a.292.292,0,0,1-.4.09,8.728,8.728,0,0,0-4.8-1.436c-2.02,0-3.141,1.032-3.141,2.468,0,1.3.987,2.154,3.68,2.513l1.077.135c3.859.494,5.969,2.2,5.969,5.385,0,3.276-2.558,5.744-7.539,5.744A12.52,12.52,0,0,1,346.332,47.992Z" transform="translate(-190.832 -17.251)" fill="#000111"/>
      <path id="Path_9" data-name="Path 9" d="M386.685,52.468c-2.872,0-3.949-1.3-3.949-3.859V41.7c0-.09-.045-.135-.135-.18h-.987a.338.338,0,0,1-.314-.224V39.408a.29.29,0,0,1,.269-.269h.987c.09,0,.18-.045.18-.135V35.369a.29.29,0,0,1,.269-.269h2.737a.337.337,0,0,1,.314.224v3.635c0,.09.045.135.135.18h1.93a.337.337,0,0,1,.314.224v1.885a.29.29,0,0,1-.269.269h-1.93c-.09,0-.18.045-.18.135v6.866c0,.942.4,1.212,1.346,1.212h.718a.337.337,0,0,1,.314.224V52.2a.29.29,0,0,1-.269.269h-1.481Z" transform="translate(-210.182 -19.348)" fill="#000111"/>
      <path id="Path_10" data-name="Path 10" d="M410.065,56.708a.338.338,0,0,1-.314-.224V55.5h0a4.818,4.818,0,0,1-3.994,1.526c-2.6,0-4.757-1.257-4.757-3.994,0-2.872,2.2-4.174,5.7-4.174h2.872c.09,0,.18-.045.18-.135v-.673c0-1.481-.763-2.2-3.141-2.2a5.422,5.422,0,0,0-3.231.9.284.284,0,0,1-.4-.045v-.045l-1.077-1.8a.278.278,0,0,1,.045-.359h0a8.755,8.755,0,0,1,5.026-1.3c4.308,0,5.924,1.346,5.924,4.577v8.572a.29.29,0,0,1-.269.269h-2.558Zm-.359-4.443v-.987c0-.09-.045-.135-.135-.18h-2.379c-2.109,0-3.052.539-3.052,1.75,0,1.077.853,1.616,2.468,1.616,1.975.045,3.1-.673,3.1-2.2Z" transform="translate(-221.041 -23.813)" fill="#000111"/>
      <path id="Path_11" data-name="Path 11" d="M432.54,53.389a9.873,9.873,0,0,1-.449-3.231,9.873,9.873,0,0,1,.449-3.231c.808-2.334,3.007-3.635,5.879-3.635a6.234,6.234,0,0,1,4.937,2.064.273.273,0,0,1,0,.359l-.045.045-1.84,1.481a.284.284,0,0,1-.4-.045v-.045a3.284,3.284,0,0,0-2.648-1.122,2.615,2.615,0,0,0-2.648,1.705,7.5,7.5,0,0,0-.314,2.423,6.679,6.679,0,0,0,.314,2.468,2.615,2.615,0,0,0,2.648,1.705,3.385,3.385,0,0,0,2.648-1.167.284.284,0,0,1,.4-.045h0l1.84,1.481a.234.234,0,0,1,.045.359l-.045.045a6.637,6.637,0,0,1-4.937,2.019C435.547,57.024,433.393,55.767,432.54,53.389Z" transform="translate(-238.176 -23.859)" fill="#000111"/>
      <path id="Path_12" data-name="Path 12" d="M471.39,50.534a.494.494,0,0,1-.449-.269l-3.59-5.52-1.93,2.064v3.456a.29.29,0,0,1-.269.269h-2.738a.337.337,0,0,1-.314-.224V32.269a.29.29,0,0,1,.269-.269h2.737a.337.337,0,0,1,.314.224V42.95l4.847-5.3a.7.7,0,0,1,.539-.269h3.007c.09,0,.18.045.18.135,0,.045,0,.135-.045.135l-4.533,4.8,5.206,7.809a.2.2,0,0,1,0,.224.165.165,0,0,1-.135.045Z" transform="translate(-254.721 -17.639)" fill="#000111"/>
    </g>
  </g>
</svg>
