<svg xmlns="http://www.w3.org/2000/svg" xmlns:xlink="http://www.w3.org/1999/xlink" width="304" height="524" viewBox="0 0 304 524">
  <g id="Group_169" data-name="Group 169" transform="translate(-608.846 -189.256)">
    <g id="Group_165" data-name="Group 165" transform="translate(610.265 580.653)">
      <g id="Group_136" data-name="Group 136" transform="translate(0 0)">
        <path id="Path_1541" data-name="Path 1541" d="M316.726,242.177l-2.2,2.091L270.94,361.4H417.422l41.694-114.1a5.229,5.229,0,0,0-4.913-7.028H322.7Z" transform="translate(-174.706 -240.274)" fill="#b4b4b4"/>
        <path id="Path_1564" data-name="Path 1564" d="M314.685,242.125l-2.1,2.034L270.94,358.12H410.891l39.835-111.008a5.076,5.076,0,0,0-4.694-6.838H320.4Z" transform="translate(-171.5 -236.995)" fill="#212121"/>
        <path id="Path_1542" data-name="Path 1542" d="M355.233,240.274h-1.478a8.985,8.985,0,0,0-8.436,5.88L302.819,361.4h7.345Z" transform="translate(-207.173 -240.274)" fill="#b4b4b4"/>
        <path id="Path_1565" data-name="Path 1565" d="M355.233,240.274h-1.478A8.978,8.978,0,0,0,345.319,246l-42.5,112.124h7.345Z" transform="translate(-203.968 -236.995)" fill="#212121"/>
        <path id="Rectangle_56" data-name="Rectangle 56" d="M0,0H96.1a0,0,0,0,1,0,0V9.32a2.35,2.35,0,0,1-2.35,2.35H0a0,0,0,0,1,0,0V0A0,0,0,0,1,0,0Z" transform="translate(146.213 121.126)" fill="#757575"/>
        <path id="Path_1543" data-name="Path 1543" d="M459.049,278.866H321.7c-4.894,0-8.866-2.61-8.866-5.836h0c0-3.221,3.972-5.836,8.866-5.836H459.049Z" transform="translate(-312.836 -146.071)" fill="#9d9d9d"/>
        <path id="Path_1700" data-name="Path 1700" d="M32.058,9.838.035,16.647S-1.511,2.735,16.029.228C29.872-1.756,32.058,9.838,32.058,9.838Z" transform="matrix(-0.978, -0.208, 0.208, -0.978, 192.337, 105.877)" fill="#fff"/>
      </g>
    </g>
    <g id="Bubble_UI_comp" data-name="Bubble UI comp" transform="translate(609 190)">
      <path id="Union_1" data-name="Union 1" d="M255,350.6h22.322l-22.029,22.029ZM5,350.37a5,5,0,0,1-5-5V5A5,5,0,0,1,5,0H284.8a5,5,0,0,1,5,5V345.371a5,5,0,0,1-5,5Z" transform="translate(0)" fill="#fff" stroke="rgba(0,0,0,0)" stroke-width="1"/>
      <image width="290" xlink:href="bubble-ui-outlined.svg"/>
    </g>
  </g>
</svg>
