<svg xmlns="http://www.w3.org/2000/svg" xmlns:xlink="http://www.w3.org/1999/xlink" width="698" height="697" viewBox="0 0 698 697">
  <g id="Group_168" data-name="Group 168" transform="translate(-944.5 -226.8)">
    <g id="Group_165" data-name="Group 165" transform="translate(1081.742 746.633)">
      <g id="Group_136" data-name="Group 136" transform="translate(0 0)">
        <path id="Path_1541" data-name="Path 1541" d="M331.926,242.808l-2.934,2.785L270.94,401.608H466.05l55.536-151.973a6.965,6.965,0,0,0-6.544-9.361H339.888Z" transform="translate(-142.759 -240.274)" fill="#b4b4b4"/>
        <path id="Path_1564" data-name="Path 1564" d="M329.207,242.739l-2.8,2.709L270.94,397.241H457.35l53.06-147.859a6.761,6.761,0,0,0-6.253-9.107H336.814Z" transform="translate(-138.489 -235.907)" fill="#212121"/>
        <path id="Path_1542" data-name="Path 1542" d="M372.633,240.274h-1.969a11.968,11.968,0,0,0-11.237,7.833l-56.609,153.5H312.6Z" transform="translate(-175.422 -240.274)" fill="#b4b4b4"/>
        <path id="Path_1565" data-name="Path 1565" d="M372.633,240.274h-1.969a11.958,11.958,0,0,0-11.237,7.621L302.819,397.241H312.6Z" transform="translate(-171.152 -235.907)" fill="#212121"/>
        <path id="Rectangle_56" data-name="Rectangle 56" d="M0,0H128a0,0,0,0,1,0,0V13.194a2.35,2.35,0,0,1-2.35,2.35H0a0,0,0,0,1,0,0V0A0,0,0,0,1,0,0Z" transform="translate(194.752 161.336)" fill="#757575"/>
        <path id="Path_1543" data-name="Path 1543" d="M507.588,282.741H324.645c-6.519,0-11.809-3.476-11.809-7.773h0c0-4.291,5.29-7.773,11.809-7.773H507.588Z" transform="translate(-312.836 -105.861)" fill="#9d9d9d"/>
        <path id="Path_1700" data-name="Path 1700" d="M42.7,13.1.046,22.174S-2.013,3.643,21.35.3C39.788-2.339,42.7,13.1,42.7,13.1Z" transform="matrix(-0.978, -0.208, 0.208, -0.978, 256.187, 141.025)" fill="#fff"/>
      </g>
    </g>
    <g id="Bubble_UI_comp" data-name="Bubble UI comp" transform="translate(1048 334.3)">
      <path id="Union_1" data-name="Union 1" d="M-7122.02-1492.617H-7463a5,5,0,0,1-5-5V-1954.3a5,5,0,0,1,5-5h376a5,5,0,0,1,5,5v456.682a5,5,0,0,1-5,5h-6.328l-.376,28.316Z" transform="translate(7365 1852.3)" fill="#fff" stroke="rgba(0,0,0,0)" stroke-width="1"/>
      <image width="363" height="439" transform="translate(-91 -92)" xlink:href="bubble-ui-outlined.svg"/>
    </g>
    <g id="Webpage_Mock" data-name="Webpage Mock" transform="translate(1356.645 541)">
      <g id="Group_117" data-name="Group 117">
        <path id="Path_1508" data-name="Path 1508" d="M500.073,208.686V325.652A18.246,18.246,0,0,1,481.8,343.889H232.39a18.246,18.246,0,0,1-18.273-18.236V208.686A18.246,18.246,0,0,1,232.39,190.45H481.8A18.246,18.246,0,0,1,500.073,208.686Z" transform="translate(-214.117 -190.45)" fill="#fff"/>
      </g>
      <g id="Group_119" data-name="Group 119">
        <path id="Path_1509" data-name="Path 1509" d="M500.073,208.686v10.123H214.117V208.686A18.246,18.246,0,0,1,232.39,190.45H481.8A18.246,18.246,0,0,1,500.073,208.686Z" transform="translate(-214.117 -190.45)" fill="#d6d6d6"/>
        <g id="Group_118" data-name="Group 118" transform="translate(12.286 11.697)">
          <circle id="Ellipse_20" data-name="Ellipse 20" cx="3.832" cy="3.832" r="3.832" transform="translate(0 0)" fill="#ed1f45"/>
          <path id="Path_1510" data-name="Path 1510" d="M228.57,197.157a3.831,3.831,0,1,1-3.831-3.831A3.831,3.831,0,0,1,228.57,197.157Z" transform="translate(-205.575 -193.326)" fill="#ffc400"/>
          <path id="Path_1511" data-name="Path 1511" d="M232.341,197.157a3.831,3.831,0,1,1-3.831-3.831A3.833,3.833,0,0,1,232.341,197.157Z" transform="translate(-194.009 -193.326)" fill="#0aad03"/>
        </g>
      </g>
      <path id="Rectangle_53" data-name="Rectangle 53" d="M.834,0H102.368a.834.834,0,0,1,.834.834V56.42a.834.834,0,0,1-.834.834H.835A.835.835,0,0,1,0,56.42V.834A.834.834,0,0,1,.834,0Z" transform="translate(35.474 45.314)" fill="#0aad03"/>
      <g id="Group_120" data-name="Group 120" transform="translate(35.475 119.412)">
        <path id="Path_1512" data-name="Path 1512" d="M432.863,226.9H225.814a4,4,0,0,1-3.964-4.034h0a4,4,0,0,1,3.964-4.034H432.863a4,4,0,0,1,3.964,4.034h0A4,4,0,0,1,432.863,226.9Z" transform="translate(-221.85 -218.828)" fill="#cfcfcf"/>
      </g>
      <g id="Group_121" data-name="Group 121" transform="translate(156.354 94.939)">
        <path id="Path_1513" data-name="Path 1513" d="M333.554,219.408H245.041c-1.542,0-2.791-1.81-2.791-4.039h0c0-2.229,1.249-4.034,2.791-4.034h88.514c1.542,0,2.794,1.806,2.794,4.034h0C336.348,217.6,335.1,219.408,333.554,219.408Z" transform="translate(-242.25 -211.335)" fill="#cfcfcf"/>
      </g>
      <g id="Group_122" data-name="Group 122" transform="translate(156.354 70.303)">
        <path id="Path_1514" data-name="Path 1514" d="M332,212.367H246.6a4.2,4.2,0,0,1-4.347-4.034h0a4.2,4.2,0,0,1,4.347-4.038H332a4.2,4.2,0,0,1,4.347,4.038h0A4.2,4.2,0,0,1,332,212.367Z" transform="translate(-242.25 -204.294)" fill="#cfcfcf"/>
      </g>
      <g id="Group_149" data-name="Group 149" transform="translate(156.354 45.303)">
        <path id="Path_1514-2" data-name="Path 1514" d="M332,212.367H246.6a4.2,4.2,0,0,1-4.347-4.034h0a4.2,4.2,0,0,1,4.347-4.038H332a4.2,4.2,0,0,1,4.347,4.038h0A4.2,4.2,0,0,1,332,212.367Z" transform="translate(-242.25 -204.294)" fill="#cfcfcf"/>
      </g>
    </g>
    <g id="Webpage_Mock_2" data-name="Webpage Mock 2" transform="translate(1322.503 436.657)">
      <path id="Rectangle_57" data-name="Rectangle 57" d="M5,0H190a5,5,0,0,1,5,5V127.07a0,0,0,0,1,0,0H0a0,0,0,0,1,0,0V5A5,5,0,0,1,5,0Z" transform="translate(229.497 83.07) rotate(180)" fill="#fff"/>
      <g id="Group_143" data-name="Group 143" transform="translate(24.981 17.697)">
        <g id="Group_142" data-name="Group 142" transform="translate(11 3.149)">
          <path id="Path_1551" data-name="Path 1551" d="M402.235,228.034h81.856a3.419,3.419,0,0,0,3.416-3.42h0a3.416,3.416,0,0,0-3.416-3.416H402.235a3.416,3.416,0,0,0-3.416,3.416h0A3.419,3.419,0,0,0,402.235,228.034Z" transform="translate(-371.481 -186.652)" fill="#cfcfcf"/>
          <path id="Path_1559" data-name="Path 1559" d="M402.235,228.034h81.856a3.419,3.419,0,0,0,3.416-3.42h0a3.416,3.416,0,0,0-3.416-3.416H402.235a3.416,3.416,0,0,0-3.416,3.416h0A3.419,3.419,0,0,0,402.235,228.034Z" transform="translate(-371.481 -221.652)" fill="#cfcfcf"/>
          <path id="Path_1562" data-name="Path 1562" d="M402.235,228.034h81.856a3.419,3.419,0,0,0,3.416-3.42h0a3.416,3.416,0,0,0-3.416-3.416H402.235a3.416,3.416,0,0,0-3.416,3.416h0A3.419,3.419,0,0,0,402.235,228.034Z" transform="translate(-371.481 -239.652)" fill="#cfcfcf"/>
          <path id="Path_1563" data-name="Path 1563" d="M402.235,228.034h81.856a3.419,3.419,0,0,0,3.416-3.42h0a3.416,3.416,0,0,0-3.416-3.416H402.235a3.416,3.416,0,0,0-3.416,3.416h0A3.419,3.419,0,0,0,402.235,228.034Z" transform="translate(-371.481 -257.652)" fill="#cfcfcf"/>
          <path id="Path_1560" data-name="Path 1560" d="M402.235,228.034h81.856a3.419,3.419,0,0,0,3.416-3.42h0a3.416,3.416,0,0,0-3.416-3.416H402.235a3.416,3.416,0,0,0-3.416,3.416h0A3.419,3.419,0,0,0,402.235,228.034Z" transform="translate(-371.481 -204.652)" fill="#cfcfcf"/>
        </g>
        <path id="Rectangle_62" data-name="Rectangle 62" d="M.834,0H42.368A.834.834,0,0,1,43.2.834V76.42a.834.834,0,0,1-.834.834H.835A.835.835,0,0,1,0,76.42V.834A.834.834,0,0,1,.834,0Z" transform="translate(136.636 -33.04)" fill="#0aad03"/>
      </g>
      <path id="Rectangle_63" data-name="Rectangle 63" d="M0,0H195a0,0,0,0,1,0,0V45.984a3.086,3.086,0,0,1-3.086,3.086H3.086A3.086,3.086,0,0,1,0,45.984V0A0,0,0,0,1,0,0Z" transform="translate(229.497 -43.93) rotate(180)" fill="#b4b4b4"/>
      <path id="Rectangle_68" data-name="Rectangle 68" d="M3.09,0H31.91A3.09,3.09,0,0,1,35,3.09V31.914A3.086,3.086,0,0,1,31.914,35H3.086A3.086,3.086,0,0,1,0,31.914V3.09A3.09,3.09,0,0,1,3.09,0Z" transform="translate(98.497 -30.93) rotate(180)" fill="#818181"/>
    </g>
  </g>
</svg>
