<svg width="34px" height="18px" viewBox="0 0 34 18" version="1.1" xmlns="http://www.w3.org/2000/svg">
  <g stroke="none" stroke-width="1" fill="none" fill-rule="evenodd">
    <g transform="translate(-783, -730)" fill="#FFF" fill-rule="nonzero">
      <g transform="translate(0, 708)">
        <g transform="translate(740, 0)">
          <path d="M69.9165593,22.8571429 C69.3442173,22.8571429 68.8257094,23.1863492 68.6075394,23.6896032 C68.3879528,24.1942063 68.5097879,24.7743651 68.9149607,25.1602381 L70.7467385,26.9047619 L64.9581508,32.417619 L60.2929967,27.9746825 C59.8297397,27.5307937 59.101562,27.4538889 58.5462202,27.781746 L43.6709947,36.5515873 C43.0051512,36.9442063 42.8011481,37.7753175 43.2119877,38.4080952 C43.4797418,38.8209524 43.9429988,39.047619 44.4175893,39.047619 C44.6725932,39.047619 44.9290137,38.9828571 45.1613506,38.8452381 L59.0817283,30.6380159 L63.9551355,35.2792857 C64.5090606,35.8068254 65.4044075,35.8068254 65.9583326,35.2792857 L72.7499356,28.8125397 L74.5817133,30.5570635 C74.8523008,30.8147619 75.2149729,30.952381 75.5833119,30.952381 C75.7660646,30.952381 75.9502341,30.9186508 76.1259034,30.8498413 C76.6557448,30.6407143 77,30.148254 77,29.6031746 L77,24.2063492 C77,23.4615873 76.3667404,22.8571429 75.5833119,22.8571429 L69.9165593,22.8571429 Z">
          </path>
        </g>
      </g>
    </g>
  </g>
</svg>
