<svg width="238px" height="113px" viewBox="0 0 238 113" xmlns="http://www.w3.org/2000/svg">
  <g stroke-width="1" fill="none" fill-rule="evenodd">
    <g transform="translate(-936, -2043)" fill="#F6F6F6" fill-rule="nonzero">
      <g transform="translate(933, 2043)">
        <path d="M191.415915,0 C187.409521,0 183.779966,2.29766667 182.252776,5.81008333 C180.715669,9.33191667 181.568516,13.3810833 184.404725,16.07425 L197.22717,28.25 L156.707055,66.7265 L124.050977,35.7174167 C120.808178,32.6193333 115.710934,32.0825833 111.823541,34.3708333 L7.69696269,95.5791667 C3.03605869,98.3194167 1.60803704,104.120083 4.48391397,108.5365 C6.35819239,111.418 9.60099156,113 12.9231253,113 C14.7081523,113 16.5030962,112.548 18.1294542,111.5875 L115.572098,54.3059167 L149.685949,86.69925 C153.563424,90.3811667 159.830853,90.3811667 163.708328,86.69925 L211.249549,41.5651667 L224.071993,53.7409167 C225.966105,55.5395 228.504811,56.5 231.083183,56.5 C232.362452,56.5 233.651639,56.2645833 234.881324,55.7843333 C238.590213,54.32475 241,50.8876667 241,47.0833333 L241,9.41666667 C241,4.21866667 236.567183,0 231.083183,0 L191.415915,0 Z"></path>
      </g>
    </g>
  </g>
</svg>
