<svg width="22" height="24" viewBox="0 0 22 24" fill="none" xmlns="http://www.w3.org/2000/svg">
<path d="M11.345 23.7001C10.9701 23.8957 10.5326 23.8915 10.1611 23.6894C8.05199 22.5419 1.00069 18.3877 1.00024 14.138C0.999841 10.3891 1.00004 6.18154 1.00016 4.31346C1.0002 3.72456 1.37479 3.20097 1.93211 3.01069L10.3052 0.151891C10.5937 0.0534221 10.9066 0.0534221 11.195 0.151891L19.568 3.01067C20.1254 3.20096 20.5 3.7233 20.5 4.31225C20.5 6.14017 20.5 10.2313 20.5 14.138C20.5 18.589 13.4615 22.5958 11.345 23.7001Z" fill="#0897E0"/>
<g filter="url(#filter0_d_1_811)">
<path d="M9.0525 14.2313L6.86976 12.0959C6.75223 11.9806 6.59268 11.9159 6.42629 11.9159C6.2599 11.9159 6.10034 11.9806 5.98282 12.0959C5.7375 12.3359 5.7375 12.7236 5.98282 12.9636L8.61217 15.5359C8.8575 15.7759 9.25379 15.7759 9.49911 15.5359L16.1543 9.0251C16.3996 8.7851 16.3996 8.39741 16.1543 8.15741C16.0367 8.04218 15.8772 7.97742 15.7108 7.97742C15.5444 7.97742 15.3849 8.04218 15.2673 8.15741L9.0525 14.2313Z" fill="white"/>
</g>
<defs>
<filter id="filter0_d_1_811" x="-1.47998" y="1.46204" width="25.0967" height="24.7693" filterUnits="userSpaceOnUse" color-interpolation-filters="sRGB">
<feFlood flood-opacity="0" result="BackgroundImageFix"/>
<feColorMatrix in="SourceAlpha" type="matrix" values="0 0 0 0 0 0 0 0 0 0 0 0 0 0 0 0 0 0 127 0" result="hardAlpha"/>
<feOffset dy="2"/>
<feGaussianBlur stdDeviation="2.5"/>
<feColorMatrix type="matrix" values="0 0 0 0 0 0 0 0 0 0 0 0 0 0 0 0 0 0 0.15 0"/>
<feBlend mode="normal" in2="BackgroundImageFix" result="effect1_dropShadow_1_811"/>
<feBlend mode="normal" in="SourceGraphic" in2="effect1_dropShadow_1_811" result="shape"/>
</filter>
</defs>
</svg>
