<svg xmlns="http://www.w3.org/2000/svg" width="38.937" height="38.937" viewBox="0 0 38.937 38.937"><defs><style>.a{fill:#f44336;}.b{fill:#ffc107;}.c{fill:#4caf50;}.d{fill:#2196f3;}.e{fill:#fafafa;}</style></defs><g transform="translate(0 0)"><path class="a" d="M87,12.169H68.964a7.3,7.3,0,0,0-6.376,10.869L53.568,7.561A19.456,19.456,0,0,1,87,12.169Z" transform="translate(-49.494 0)"/><path class="b" d="M245.922,167.321a19.484,19.484,0,0,1-19.468,19.468,17.362,17.362,0,0,1-2.433-.162l8.76-15.655a7.318,7.318,0,0,0-2.677-9.977,7.233,7.233,0,0,0-3.634-.973h18.024A19.194,19.194,0,0,1,245.922,167.321Z" transform="translate(-206.985 -147.852)"/><path class="c" d="M25.8,114.992l-8.76,15.655H17.02A19.456,19.456,0,0,1,4.074,99.434l9.02,15.477.049.081a7.3,7.3,0,0,0,12.654,0Z" transform="translate(-0.001 -91.872)"/><path class="a" d="M173.545,170.971a7.3,7.3,0,0,1-12.654,0l-.049-.081a7.3,7.3,0,0,1,6.376-10.869h.016a7.232,7.232,0,0,1,3.634.973A7.318,7.318,0,0,1,173.545,170.971Z" transform="translate(-147.749 -147.851)"/><path class="d" d="M173.545,170.971a7.3,7.3,0,0,1-12.654,0l-.049-.081a7.3,7.3,0,0,1,6.376-10.869h.016a7.232,7.232,0,0,1,3.634.973A7.318,7.318,0,0,1,173.545,170.971Z" transform="translate(-147.749 -147.851)"/><path class="e" d="M157.366,165.578a8.053,8.053,0,0,1-4.028-1.08,8.118,8.118,0,1,1,11.087-2.975h0A8.157,8.157,0,0,1,157.366,165.578Zm.042-14.6a6.492,6.492,0,1,0,5.608,9.734h0a6.489,6.489,0,0,0-5.607-9.734h0Z" transform="translate(-137.924 -137.997)"/></g></svg>