<svg xmlns="http://www.w3.org/2000/svg" viewBox="0 0 60 60"><defs><style>.a{fill:#7d7d7d;}.b{fill:#d4d4d4;}.c{fill:#a5a5a5;}.d{fill:#f44336;}.e{fill:#6a6a6a;}.f{fill:#fafafa;}</style></defs><g transform="translate(0)"><path class="a" d="M105.091,18.752h-27.8A11.249,11.249,0,0,0,67.467,35.5l-13.9-23.849a29.981,29.981,0,0,1,51.523,7.1Z" transform="translate(-47.29 0)"/><path class="b" d="M257.77,171.27a30.024,30.024,0,0,1-30,30,26.758,26.758,0,0,1-3.75-.25l13.5-24.124a11.277,11.277,0,0,0-4.125-15.374,11.145,11.145,0,0,0-5.6-1.5H255.57A29.579,29.579,0,0,1,257.77,171.27Z" transform="translate(-197.769 -141.269)"/><path class="c" d="M39.751,123.408l-13.5,24.124h-.025a29.981,29.981,0,0,1-19.949-48.1l13.9,23.849.075.125a11.25,11.25,0,0,0,19.5,0Z" transform="translate(0 -87.782)"/><path class="d" d="M180.921,176.894a11.25,11.25,0,0,1-19.5,0l-.075-.125a11.25,11.25,0,0,1,9.825-16.749h.025a11.145,11.145,0,0,1,5.6,1.5A11.277,11.277,0,0,1,180.921,176.894Z" transform="translate(-141.17 -141.268)"/><path class="e" d="M180.921,176.894a11.25,11.25,0,0,1-19.5,0l-.075-.125a11.25,11.25,0,0,1,9.825-16.749h.025a11.145,11.145,0,0,1,5.6,1.5A11.277,11.277,0,0,1,180.921,176.894Z" transform="translate(-141.17 -141.268)"/><path class="f" d="M161.742,174.354a12.41,12.41,0,0,1-6.207-1.665,12.51,12.51,0,1,1,17.084-4.585h0A12.57,12.57,0,0,1,161.742,174.354Zm.065-22.5a10,10,0,1,0,8.642,15h0a10,10,0,0,0-8.64-15h0Z" transform="translate(-131.783 -131.853)"/></g></svg>