<svg width="41px" height="41px" viewBox="0 0 41 41" xmlns="http://www.w3.org/2000/svg">
  <g stroke="none" stroke-width="1" fill="none" fill-rule="evenodd">
    <g transform="translate(-338, -1778)" fill="#767676" fill-rule="nonzero">
        <path d="M377.847195,1791.69336 C378.604574,1793.85146 379,1796.14522 379,1798.5 C379,1803.97574 376.8676,1809.12372 372.995742,1812.99574 C369.123725,1816.8676 363.975742,1819 358.5,1819 C358.104094,1819 357.710109,1818.98751 357.317967,1818.96541 L357.317967,1818.96541 L366.42285,1803.19514 C366.431738,1803.17969 366.438785,1803.16375 366.446953,1803.14805 C367.248535,1801.7828 367.708984,1800.19429 367.708984,1798.5 C367.708984,1795.80617 366.54625,1793.37884 364.696365,1791.69336 L364.696365,1791.69336 Z M341.364162,1787.23781 L350.467123,1803.00463 C350.477693,1803.02289 350.488984,1803.04035 350.500355,1803.05789 C352.088305,1805.83404 355.079223,1807.70898 358.5,1807.70898 C359.47335,1807.70898 360.411785,1807.55668 361.293125,1807.27552 L361.293125,1807.27552 L354.723996,1818.65358 C350.686217,1817.90581 346.970592,1815.962 344.004258,1812.99574 C340.1324,1809.12372 338,1803.97574 338,1798.5 C338,1794.43604 339.175627,1790.55305 341.364162,1787.23781 L341.364162,1787.23781 Z M358.5,1791.69336 C362.259204,1791.69336 365.306641,1794.7408 365.306641,1798.5 C365.306641,1802.2592 362.259204,1805.30664 358.5,1805.30664 C354.740796,1805.30664 351.693359,1802.2592 351.693359,1798.5 C351.693359,1794.7408 354.740796,1791.69336 358.5,1791.69336 Z M358.5,1778 C363.975742,1778 369.123725,1780.1324 372.995742,1784.00426 C374.568557,1785.57715 375.854371,1787.36057 376.82676,1789.29102 L376.82676,1789.29102 L358.5,1789.29102 C354.097785,1789.29102 350.407865,1792.39621 349.503623,1796.53104 L349.503623,1796.53104 L342.936256,1785.1561 C343.276027,1784.761 343.631895,1784.37662 344.004258,1784.00426 C347.876275,1780.1324 353.024258,1778 358.5,1778 Z"></path>
    </g>
  </g>
</svg>
