<?xml version="1.0"?>
<svg xmlns="http://www.w3.org/2000/svg" viewBox="0 0 23.313 23.313">
  <defs>
    <style>.a{fill:#fff;}</style>
  </defs>
  <g transform="translate(-9.764 -3.219)">
    <g transform="translate(9.764 3.219)">
      <path class="a" d="M21.763,23.044C19.816,21.1,15.74,17.021,11.656,12.936L1.548,23.044a.9.9,0,0,1-1.279,0,.893.893,0,0,1,0-1.278c1.947-1.948,6.023-6.025,10.108-10.11L.269,1.547a.893.893,0,0,1,0-1.278.9.9,0,0,1,1.279,0L11.655,10.377,21.763.269a.905.905,0,0,1,1.283,1.278L12.935,11.657l10.11,10.11a.908.908,0,0,1-.64,1.547A.909.909,0,0,1,21.763,23.044Z" transform="translate(0 0)"/>
    </g>
  </g>
</svg>
