<svg width="241px" height="241px" viewBox="0 0 241 241" xmlns="http://www.w3.org/2000/svg">
  <g stroke="none" stroke-width="1" fill="none" fill-rule="evenodd">
    <g transform="translate(-1059, -2550)">
      <g transform="translate(0, 2451)">
        <g transform="translate(1059, 99)">
          <circle fill="#FFF" cx="120.5" cy="120.5" r="120.5"></circle>
          <circle fill="#EFEFEF" cx="120.5" cy="120.5" r="88.5"></circle>
          <rect fill="#EFEFEF" transform="translate(186, 54.5) rotate(45) translate(-186, -54.5)" x="178" y="37" width="16" height="35" rx="8"></rect>
          <circle fill="#8E4C33" cx="120.5" cy="120.5" r="73.5"></circle>
          <circle fill="#5A2200" cx="131.5" cy="68.5" r="4.5"></circle>
          <circle fill="#5A2200" cx="73.5" cy="94.5" r="4.5"></circle>
          <circle fill="#5A2200" cx="73.5" cy="130.5" r="4.5"></circle>
          <circle fill="#5A2200" cx="112.5" cy="79.5" r="8.5"></circle>
          <circle fill="#5A2200" cx="97" cy="65" r="6"></circle>
          <circle fill="#5A2200" cx="92.5" cy="82.5" r="3.5"></circle>
          <circle fill="#5A2200" cx="70.5" cy="82.5" r="4.5"></circle>
          <circle fill="#5A2200" cx="84.5" cy="71.5" r="1.5"></circle>
          <circle fill="#5A2200" cx="78.5" cy="74.5" r="1.5"></circle>
          <circle fill="#5A2200" cx="79.5" cy="82.5" r="1.5"></circle>
          <circle fill="#5A2200" cx="60.5" cy="98.5" r="1.5"></circle>
          <circle fill="#5A2200" cx="60.5" cy="133.5" r="1.5"></circle>
          <circle fill="#5A2200" cx="63.5" cy="90.5" r="1.5"></circle>
          <circle fill="#5A2200" cx="60.5" cy="107.5" r="1.5"></circle>
          <circle fill="#5A2200" cx="62.5" cy="113.5" r="1.5"></circle>
          <circle fill="#5A2200" cx="76" cy="105" r="2"></circle>
          <circle fill="#5A2200" cx="76" cy="117" r="2"></circle>
          <circle fill="#5A2200" cx="69" cy="109" r="2"></circle>
          <circle fill="#5A2200" cx="65" cy="121" r="2"></circle>
          <circle fill="#5A2200" cx="85" cy="101" r="2"></circle>
          <circle fill="#5A2200" cx="57" cy="119" r="2"></circle>
          <circle fill="#5A2200" cx="57" cy="128" r="2"></circle>
          <path d="M175.54953,105 C170.098657,93.5 159.106888,76.6838429 142.113778,101.5 C131.5,117 112.5,101.5 103,112 C93.5,122.5 111.718195,129.624373 104,144.863822 C96.2818053,160.103271 83,161.720374 96,171.031449 C109,180.342524 133.190298,192.112337 163.466074,167.475382 C193.74185,142.838426 181.000402,116.5 175.54953,105 Z" fill="#5A2200"></path>
        </g>
      </g>
    </g>
  </g>
</svg>
