<svg width="192" height="127" viewBox="0 0 192 127" fill="none" xmlns="http://www.w3.org/2000/svg">
<path d="M134.132 33.9332C133.95 33.9332 133.768 33.8352 133.67 33.6531C133.53 33.401 133.628 33.093 133.866 32.9529L141.75 28.4157C142.436 28.0236 142.856 28.1777 143.094 28.3597C143.263 28.4998 143.347 28.6818 143.319 28.8919C143.263 29.41 143.263 29.452 134.356 33.8772C134.286 33.9192 134.202 33.9332 134.118 33.9332H134.132Z" fill="black"/>
<path d="M83.9875 18.8512C83.7914 18.8512 83.5954 18.7392 83.5114 18.5431L79.6604 9.83287C79.5483 9.5668 79.6604 9.25872 79.9264 9.14669C80.1925 9.03466 80.5006 9.14669 80.6126 9.41276L84.4636 18.123C84.5756 18.3891 84.4636 18.6972 84.1975 18.8092C84.1275 18.8372 84.0575 18.8512 83.9875 18.8512V18.8512Z" fill="black"/>
<path d="M58.1083 38.2884C58.1083 38.2884 58.0383 38.2884 57.9963 38.2884L49.342 36.4819C49.1039 36.4399 48.4878 36.2999 48.3337 35.7397C48.2777 35.5297 48.3337 35.3056 48.4878 35.1516C48.8239 34.8295 49.0339 34.6054 58.2483 37.2521C58.5144 37.3362 58.6824 37.6022 58.6124 37.8823C58.5564 38.1204 58.3463 38.2884 58.1083 38.2884V38.2884Z" fill="black"/>
<path d="M46.5818 72.1212C46.3857 72.1212 46.1897 72.0092 46.1057 71.8132C45.9936 71.5471 46.1057 71.239 46.3717 71.127L55.3481 67.1779C55.6142 67.0659 55.9222 67.1779 56.0343 67.444C56.1463 67.7101 56.0343 68.0182 55.7682 68.1302L46.7919 72.0792C46.7919 72.0792 46.6518 72.1212 46.5818 72.1212V72.1212Z" fill="black"/>
<path d="M110.424 18.6831C110.424 18.6831 110.298 18.6831 110.242 18.6411C109.976 18.5431 109.836 18.235 109.934 17.9689L113.099 9.72076C113.197 9.45469 113.505 9.31465 113.771 9.41268C114.037 9.5107 114.177 9.81878 114.079 10.0849L110.914 18.333C110.83 18.5431 110.634 18.6691 110.424 18.6691V18.6831Z" fill="black"/>
<path d="M145.406 65.7355C145.406 65.7355 145.28 65.7355 145.21 65.6935L136.485 62.2066C136.219 62.0946 136.079 61.7865 136.191 61.5204C136.303 61.2544 136.611 61.1143 136.877 61.2264L145.602 64.7133C145.868 64.8253 146.008 65.1334 145.896 65.3994C145.812 65.6095 145.616 65.7355 145.406 65.7355Z" fill="black"/>
<path d="M86.813 99.5962C86.645 94.6809 85.3707 89.8216 83.1161 85.4245C79.3631 78.1145 73.0334 72.275 69.4485 64.8811C65.2614 56.2268 66.6758 45.6961 71.395 39.0443C77.9767 29.7599 89.8098 25.6849 98.8282 26.189C104.514 26.5111 121.234 28.2895 126.443 44.6178C131.681 61.0021 119.147 72.9192 114.54 79.851C111.375 84.6122 107.426 89.2335 106.894 94.8769C106.768 96.1793 106.782 97.5656 106.026 98.6439C105.116 99.9603 103.365 100.408 101.769 100.744C98.8702 101.375 95.8874 102.019 92.9466 101.557C90.0059 101.095 87.1071 99.2881 86.799 99.5822L86.813 99.5962Z" fill="white"/>
<path d="M95.0461 102.257C94.3179 102.257 93.5897 102.215 92.8755 102.103C91.1251 101.823 89.4306 101.109 88.1983 100.59C87.7222 100.38 87.1761 100.156 86.966 100.114C86.854 100.156 86.7279 100.142 86.6159 100.114C86.4199 100.044 86.2938 99.8483 86.2798 99.6382C86.1118 94.821 84.8514 90.0037 82.6389 85.6906C80.8464 82.1897 78.3958 78.9548 76.0151 75.832C73.4665 72.4711 70.8338 68.9982 68.9573 65.1332C64.9663 56.8991 65.7925 46.0462 70.9458 38.7643C77.8356 29.0318 89.9208 25.1948 98.8411 25.6849C107.243 26.161 122.059 29.2278 126.932 44.4778C131.4 58.4535 123.165 69.2503 117.718 76.4062C116.682 77.7645 115.702 79.0389 114.959 80.1591C114.399 80.9994 113.811 81.8536 113.237 82.6798C110.576 86.4888 107.831 90.4238 107.411 94.947C107.397 95.1291 107.383 95.3251 107.369 95.5212C107.271 96.7115 107.187 97.9298 106.459 98.9801C105.451 100.422 103.644 100.913 101.88 101.305C99.7513 101.767 97.3987 102.285 95.0461 102.285V102.257ZM87.3161 99.1061C87.6382 99.1901 88.0443 99.3722 88.6184 99.6102C89.7947 100.114 91.4192 100.801 93.0436 101.053C95.9283 101.501 98.9811 100.843 101.67 100.254C103.294 99.9043 104.821 99.4842 105.605 98.3639C106.165 97.5657 106.249 96.5294 106.333 95.4231C106.347 95.2271 106.361 95.031 106.375 94.835C106.823 90.0317 109.652 85.9847 112.383 82.0636C112.957 81.2514 113.545 80.3972 114.105 79.571C114.861 78.4227 115.856 77.1344 116.892 75.762C122.213 68.7882 130.237 58.2434 125.938 44.7999C121.261 30.1381 106.921 27.1833 98.7851 26.7352C90.4249 26.2591 78.4238 30.026 71.8 39.3665C66.8567 46.3543 66.0725 56.759 69.8955 64.6711C71.716 68.4381 74.3207 71.869 76.8414 75.1879C79.236 78.3527 81.7146 81.6155 83.5631 85.2005C85.7757 89.5136 87.064 94.3028 87.3021 99.1201L87.3161 99.1061Z" fill="black"/>
<path d="M109.746 92.1882C109.746 92.1882 83.489 91.8521 83.461 92.0901C83.0969 97.3275 83.419 102.621 84.4413 107.774C84.9594 110.393 86.1357 116.583 95.7843 117.129C103.346 117.563 106.875 113.474 107.939 109.189C109.144 104.315 109.788 98.0417 109.746 92.1882Z" fill="#EDA51E"/>
<path d="M96.905 117.689C96.5269 117.689 96.1488 117.689 95.7567 117.661C85.7581 117.087 84.4838 110.659 83.9376 107.914V107.872C82.9013 102.677 82.5653 97.3557 82.9434 92.0483C82.99 91.6655 84.5351 91.4741 87.5786 91.4741C89.7631 91.4741 92.8019 91.4741 96.6109 91.5161C103.109 91.5721 109.676 91.6562 109.746 91.6562C110.026 91.6562 110.264 91.8942 110.264 92.1743C110.307 98.2239 109.634 104.47 108.43 109.315C107.8 111.891 105.405 117.689 96.891 117.689H96.905ZM83.9656 92.5664C83.6435 97.6077 83.9796 102.691 84.9739 107.662V107.704C85.52 110.421 86.6403 116.079 95.8267 116.597C104.495 117.101 106.834 111.485 107.436 109.049C108.584 104.427 109.228 98.49 109.228 92.6924C99.8738 92.5804 86.4303 92.4544 83.9656 92.5524V92.5664Z" fill="black"/>
<path d="M101.052 96.5855C95.9968 96.5855 90.9274 96.4594 85.9141 96.1934C85.8161 96.1934 85.7461 96.1093 85.7461 96.0113C85.7461 95.9133 85.8301 95.8433 85.9281 95.8433C92.972 96.2074 100.114 96.3194 107.158 96.1653C107.256 96.1653 107.326 96.2354 107.326 96.3334C107.326 96.4314 107.256 96.5154 107.158 96.5154C105.127 96.5574 103.083 96.5855 101.038 96.5855H101.052Z" fill="black"/>
<path d="M93.5203 100.478C91.0836 100.478 88.661 100.436 86.2384 100.352C86.1403 100.352 86.0703 100.268 86.0703 100.17C86.0703 100.072 86.1543 100.002 86.2524 100.002C93.0861 100.24 99.9899 100.142 106.81 99.7083C106.908 99.7083 106.992 99.7783 106.992 99.8763C106.992 99.9743 106.922 100.058 106.824 100.058C102.413 100.338 97.9594 100.478 93.5063 100.478H93.5203Z" fill="black"/>
<path d="M86.7266 104.428C86.6286 104.428 86.5586 104.358 86.5586 104.26C86.5586 104.162 86.6286 104.078 86.7266 104.078L106.36 103.629C106.458 103.629 106.542 103.699 106.542 103.797C106.542 103.895 106.472 103.979 106.374 103.979L86.7406 104.428H86.7266Z" fill="black"/>
<path d="M93.7694 108.139C91.7109 108.139 89.6384 108.139 87.5938 108.111C87.4958 108.111 87.4258 108.027 87.4258 107.928C87.4258 107.83 87.5098 107.76 87.5938 107.76C93.5174 107.802 99.5249 107.788 105.462 107.69C105.547 107.69 105.645 107.76 105.645 107.858C105.645 107.956 105.575 108.041 105.476 108.041C101.597 108.097 97.6765 108.125 93.7834 108.125L93.7694 108.139Z" fill="black"/>
<path d="M94.9911 111.514C92.9186 111.514 90.8461 111.486 88.7735 111.416C88.6755 111.416 88.6055 111.332 88.6055 111.234C88.6055 111.136 88.6895 111.065 88.7735 111.065C93.9549 111.22 99.2202 111.178 104.402 110.939C104.5 110.939 104.584 111.009 104.584 111.107C104.584 111.206 104.514 111.29 104.416 111.29C101.279 111.43 98.128 111.514 94.9771 111.514H94.9911Z" fill="black"/>
<path d="M96.6838 114.496C94.8913 114.496 93.0989 114.44 91.3204 114.342C91.2224 114.342 91.1523 114.258 91.1523 114.16C91.1523 114.062 91.2364 113.992 91.3344 113.992C94.6253 114.174 97.9581 114.188 101.249 114.034C101.333 114.034 101.431 114.104 101.431 114.202C101.431 114.3 101.361 114.384 101.263 114.384C99.7506 114.454 98.2102 114.496 96.6838 114.496V114.496Z" fill="black"/>
<g opacity="0.13">
<path opacity="0.13" d="M109.348 92.4264C108.774 90.956 106.435 91.4181 106.449 93.0005C106.057 97.1316 106.029 100.128 105.679 102.999C105.399 104.624 104.741 106.136 104.152 107.676C103.634 108.909 101.114 112.045 98.6069 113.11C97.6827 113.6 94.5879 114.3 92.9915 113.614C92.0392 113.348 91.255 112.886 88.7764 111.583C86.8298 110.533 85.1774 113.278 87.0679 114.426C88.1182 115.07 89.1685 115.728 90.1907 116.415C90.0647 116.331 89.9106 116.205 89.8266 116.135C90.7229 116.849 91.8151 117.339 92.9354 117.633C99.2091 118.879 104.166 115.574 107.079 110.337C108.171 108.18 108.732 105.282 108.886 104.175C109.194 102.271 109.152 102.383 109.236 100.268C109.236 99.9463 109.334 99.5122 109.222 99.1201C109.264 98.2519 109.292 97.3837 109.348 96.5434C109.39 95.5212 109.418 94.5129 109.474 93.4906C109.474 93.1405 109.558 92.7624 109.362 92.4404L109.348 92.4264Z" fill="black"/>
</g>
<g opacity="0.13">
<path opacity="0.13" d="M117.748 71.953C116.908 72.7372 116.096 73.5494 115.256 74.3336C115.256 74.3476 115.242 74.3616 115.228 74.3616C113.995 75.3139 112.931 76.4902 111.839 77.5825C110.859 78.5767 109.948 79.613 109.066 80.6773C108.842 80.8873 108.604 81.1114 108.338 81.3074C108.156 81.4755 107.26 82.2177 107.092 82.3577L107.036 82.3997C106.91 82.4977 106.559 82.7638 106.349 82.9179C104.039 84.5843 101.868 86.1107 100.034 86.4888C97.8771 86.9789 95.8186 87.0069 94.1802 86.7409C93.1159 86.5448 92.5838 86.4328 92.0796 86.2647C90.2872 85.6486 88.8168 85.1304 87.7525 84.6123C84.9938 83.2679 82.4171 81.6015 79.9805 79.753C82.165 82.9179 83.3694 86.0827 85.4279 90.7319C85.666 91.152 85.918 91.5721 86.1421 92.0062C86.1841 92.0902 86.2401 92.1743 86.2821 92.2583C86.3801 92.2863 86.4922 92.3003 86.6042 92.3003C87.4864 92.2443 88.3547 92.4824 89.2369 92.4964C90.6513 92.5804 92.0796 92.4964 93.494 92.4403C95.7486 92.3703 97.9752 91.9222 100.23 91.9082C102.736 91.7122 104.165 91.9642 105.215 92.1323C106.587 92.1603 106.335 91.9502 107.19 91.9782C107.344 91.9782 107.484 91.9502 107.61 91.9082C107.722 91.5161 107.834 91.124 107.974 90.7459C107.736 90.5078 107.722 90.1577 107.862 89.8357C109.066 87.0909 110.719 84.6263 112.511 82.2037C115.704 77.8905 119.457 73.9835 122.44 69.5304C122.622 69.1803 122.79 68.8162 122.972 68.4661C123.728 66.9397 124.484 65.4273 125.24 63.9009C123.126 66.3095 120.073 69.4743 117.706 71.911L117.748 71.953Z" fill="black"/>
</g>
<path d="M99.4989 91.6421H99.4849C99.1908 91.6421 98.9667 91.39 98.9807 91.0959L99.0647 88.8134C99.2888 82.5957 99.989 76.3501 101.151 70.2585C101.473 68.5501 101.851 66.8276 102.356 65.1612C101.389 64.7691 100.437 64.0409 99.4428 62.9486C99.0507 62.5145 98.6866 62.0804 98.3366 61.6182C97.9164 62.2204 97.4683 62.7945 96.9782 63.3687C96.236 64.2229 95.3118 65.1752 94.1074 65.6933C93.2392 66.0574 92.203 66.2114 90.9566 66.1554C90.4805 66.1414 90.0184 66.0854 89.5423 66.0154C91.5588 74.2075 92.1469 82.7218 92.7211 90.9979C92.7351 91.292 92.525 91.5441 92.231 91.5581C91.9509 91.5721 91.6848 91.362 91.6708 91.0679C91.0967 82.6657 90.4945 74.0395 88.394 65.7773C85.7053 65.0911 83.2266 63.5507 81.4761 61.3942C80.6079 60.3299 80.1318 59.3356 79.9918 58.3694C79.8097 57.053 80.3559 55.7367 81.3361 55.1065C82.6665 54.2523 84.4029 54.7564 85.4252 55.6947C86.4475 56.6189 86.9796 57.8933 87.4277 59.1256C88.1279 61.0301 88.73 62.9486 89.2342 64.8951C89.8083 65.0071 90.3825 65.0771 90.9706 65.1052C92.0629 65.1472 92.9451 65.0211 93.6593 64.7271C94.6676 64.2929 95.4938 63.4527 96.152 62.6825C96.7121 62.0384 97.2163 61.3662 97.6644 60.694C95.2838 57.0671 94.2055 52.5999 94.7236 48.2868C94.8076 47.5726 94.9617 46.8304 95.4518 46.2422C96.39 45.1499 98.0985 45.248 99.1348 45.9762C100.003 46.5783 100.633 47.5726 101.039 48.9869C102.076 52.6419 101.291 56.843 98.9247 60.666C99.3168 61.2121 99.7369 61.7303 100.185 62.2344C101.053 63.1867 101.851 63.8028 102.65 64.1529C103.49 61.6743 104.666 59.3496 106.431 57.4031C107.677 56.0308 109.624 54.8685 111.36 55.7367C112.984 56.5489 113.32 58.7615 112.592 60.3159C111.906 61.8003 110.52 62.7946 109.273 63.6068C107.523 64.7411 105.464 65.8473 103.336 65.4552C102.846 67.0937 102.468 68.7881 102.146 70.4546C100.997 76.4901 100.297 82.6938 100.073 88.8554L99.989 91.138C99.989 91.418 99.7509 91.6421 99.4709 91.6421H99.4989ZM82.8765 55.7087C82.5404 55.7087 82.2043 55.7927 81.9103 55.9748C81.1681 56.4509 80.944 57.4452 81.042 58.2154C81.1541 58.9996 81.5602 59.8118 82.2884 60.722C83.7727 62.5565 85.8313 63.9008 88.0859 64.601C87.6098 62.8786 87.0776 61.1701 86.4615 59.4897C86.0553 58.3834 85.5792 57.2491 84.739 56.4789C84.2629 56.0448 83.5627 55.7227 82.8765 55.7227V55.7087ZM103.686 64.433C105.394 64.671 107.117 63.7468 108.727 62.7105C109.848 61.9823 111.094 61.1001 111.668 59.8678C112.172 58.7895 111.976 57.2071 110.912 56.6749C109.708 56.0728 108.181 57.0671 107.229 58.1173C105.59 59.9238 104.484 62.1084 103.686 64.447V64.433ZM97.3703 46.4663C96.9502 46.4663 96.5441 46.6063 96.264 46.9144C95.9419 47.2785 95.8439 47.8386 95.7739 48.3988C95.2978 52.3058 96.236 56.3529 98.2945 59.6997C100.311 56.2408 100.955 52.5019 100.045 49.267C99.7089 48.0907 99.2188 47.2925 98.5606 46.8304C98.2245 46.6063 97.7904 46.4663 97.3843 46.4663H97.3703Z" fill="black"/>
</svg>
