<?xml version="1.0"?>
<svg xmlns="http://www.w3.org/2000/svg" viewBox="0 0 37.796 41.279">
  <g transform="translate(-14.904 0)">
    <g transform="translate(14.904 0)">
      <path d="M52.468,31.165a6.029,6.029,0,0,1-1.514-4.908.935.935,0,0,0-.626-1.019,6.029,6.029,0,0,1-3.244-8.8A.935.935,0,0,0,47,15.368a6.039,6.039,0,0,1-1.112-5.609A.935.935,0,0,0,45.4,8.647,6.029,6.029,0,0,1,42.129,2.01.935.935,0,0,0,41.484.935a20.682,20.682,0,1,0,11.049,31.38A.935.935,0,0,0,52.468,31.165Zm-3.739,2.814A18.759,18.759,0,1,1,40.148,2.524,7.9,7.9,0,0,0,43.887,10a7.889,7.889,0,0,0,1.281,6.029A7.917,7.917,0,0,0,46.682,25.1a7.823,7.823,0,0,0,2.346,1.617,7.889,7.889,0,0,0,1.57,5.123A18.6,18.6,0,0,1,48.729,33.979Z" transform="translate(-14.904 0)"/>
    </g>
    <g transform="translate(24.556 12.199)">
      <circle cx="1.598" cy="1.598" r="1.598"/>
    </g>
    <g transform="translate(34.81 18.817)">
      <g transform="translate(0)">
        <circle cx="1.598" cy="1.598" r="1.598"/>
      </g>
    </g>
    <g transform="translate(33.212 32.212)">
      <g transform="translate(0)">
        <circle cx="1.598" cy="1.598" r="1.598"/>
      </g>
    </g>
    <g transform="translate(36.652 9.03)">
      <g transform="translate(0)">
        <circle cx="1.047" cy="1.047" r="1.047"/>
      </g>
    </g>
    <g transform="translate(23.509 25.912)">
      <g transform="translate(0)">
        <circle cx="1.047" cy="1.047" r="1.047"/>
      </g>
    </g>
    <g transform="translate(42.765 27.23)">
      <circle cx="1.047" cy="1.047" r="1.047"/>
    </g>
  </g>
</svg>
