<svg version="1.1" xmlns="http://www.w3.org/2000/svg" xmlns:xlink="http://www.w3.org/1999/xlink" viewBox="0 0 633.853152 647.805201">
<g transform="translate(-78.146848,657.804863) scale(0.1,-0.1)" fill="#d8d8d8">
<path d="M1830 6570 c-275 -33 -549 -172 -734 -371 -159 -172 -277 -418 -306
-640 -7 -58 -10 -526 -8 -1544 l3 -1460 36 -100 c109 -303 234 -476 464 -640
105 -75 192 -119 325 -165 88 -30 109 -33 280 -41 102 -4 273 -8 381 -9 108 0
217 -3 243 -6 85 -12 80 33 86 -723 6 -746 5 -727 74 -756 52 -22 128 -19 159
5 30 24 695 719 1111 1162 l297 316 132 6 c73 3 476 8 897 10 801 4 812 5 990
51 444 115 718 389 821 824 33 138 38 346 38 1778 l1 1341 -36 104 c-126 362
-329 597 -648 749 -170 81 -250 99 -476 109 -239 11 -4039 10 -4130 0z"/>
</g>
  <svg viewBox="0 0 447.649178 479.196032"  x="59" y="-17" width="574">
  <g transform="translate(-13.850822,497.953220) scale(0.1,-0.1)"
  fill="#ececec">
  <path d="M465 4965 c-64 -11 -135 -34 -257 -81 -37 -14 -48 -23 -53 -48 -4
  -17 -9 -595 -12 -1284 l-4 -1252 31 -102 c92 -296 269 -510 514 -623 124 -58
  175 -66 499 -80 164 -7 301 -16 305 -19 3 -4 10 -233 14 -509 4 -276 9 -564
  10 -641 l3 -138 400 421 c220 232 440 466 488 519 49 53 159 168 245 255 l157
  157 490 0 c642 1 749 7 891 54 59 20 135 51 168 68 86 46 184 147 227 233 l34
  70 0 1150 0 1150 -36 92 c-70 179 -191 344 -323 437 -33 24 -101 64 -151 89
  -209 103 -82 97 -1954 96 -1267 -1 -1631 -4 -1686 -14z"/>
  </g>
  </svg>
  <svg viewBox="0 0 351.022 340.961" x="130" y="20" width="420" height="420">
    <defs>
      <circle id="layer" cx="119.77" cy="119.77" r="119.77"/>
      <circle id="dot" class="a" cx="5.105" cy="5.105" r="5.105"/>
      <rect id="square1" class="f" width="34.907" height="34.907"/>
      <rect id="square2" class="g" x="5.5" y="5.5" width="23.907" height="23.907"/>
      <path id="outer1" class="a" d="M0,0H10.21a0,0,0,0,1,0,0V12.173a5.1,5.1,0,0,1-5.1,5.1h0a5.1,5.1,0,0,1-5.1-5.1V0A0,0,0,0,1,0,0Z"/>
      <path id="outer2" class="a" d="M5.1,0h0a5.1,5.1,0,0,1,5.1,5.1V18.849a0,0,0,0,1,0,0H0a0,0,0,0,1,0,0V5.1A5.1,5.1,0,0,1,5.1,0Z"/>
      <style>
        .a{fill:#281506;}.b{fill:#ebebeb;}.c{fill:#503018;}.d{fill:#612b2b;}
        .e,.g{fill:none;}.e{stroke:#281506;stroke-width:11px;}.f{stroke:none;}
      </style>
    </defs>
    <g transform="translate(2989.289 -2178.941) rotate(60)">
      <use xlink:href="#layer" class="a" transform="translate(508 3505.488)"/>
      <use xlink:href="#layer" class="b" transform="translate(508 3490.566)"/>
      <use xlink:href="#layer" class="c" transform="translate(508 3478)"/>
      <use xlink:href="#outer2" transform="translate(622.665 3698.691)"/>
      <circle class="d" cx="37.305" cy="37.305" r="37.305" transform="translate(590.464 3560.464)"/>
      <g class="e" transform="matrix(0.921,0.391,-0.391,0.921,644.804,3512.971)">
        <use xlink:href="#square1"/><use xlink:href="#square2"/>
      </g>
      <g class="e" transform="matrix(0.921,0.391,-0.391,0.921,592.243,3636.797)">
        <use xlink:href="#square1"/><use xlink:href="#square2"/>
      </g>
      <g class="e" transform="matrix(-0.391,0.921,-0.921,-0.391,712.568,3614.804)">
        <use xlink:href="#square1"/><use xlink:href="#square2"/>
      </g>
      <g class="e" transform="matrix(-0.391,0.921,-0.921,-0.391,588.743,3562.243)">
        <use xlink:href="#square1"/><use xlink:href="#square2"/>
      </g>
      <g class="e" transform="translate(675.687 3669.776) rotate(158)">
        <use xlink:href="#square1"/><use xlink:href="#square2"/>
      </g>
      <g class="e" transform="translate(625.295 3545.052) rotate(158)">
        <use xlink:href="#square1"/><use xlink:href="#square2"/>
      </g>
      <g class="e" transform="translate(555.763 3645.687) rotate(-112)">
        <use xlink:href="#square1"/><use xlink:href="#square2"/>
      </g>
      <g class="e" transform="translate(680.487 3595.295) rotate(-112)">
        <use xlink:href="#square1"/><use xlink:href="#square2"/>
      </g>
      <use xlink:href="#dot" transform="translate(623.45 3514.127)"/>
      <use xlink:href="#dot" transform="translate(622.665 3671.202)"/>
      <use xlink:href="#dot" transform="translate(683.975 3535.293) rotate(45)"/>
      <use xlink:href="#dot" transform="translate(572.35 3645.807) rotate(45)"/>
      <use xlink:href="#dot" transform="translate(711.805 3593.058) rotate(90)"/>
      <use xlink:href="#dot" transform="translate(554.73 3592.272) rotate(90)"/>
      <use xlink:href="#dot" transform="translate(690.639 3653.582) rotate(135)"/>
      <use xlink:href="#dot" transform="translate(580.125 3541.957) rotate(135)"/>
      <use xlink:href="#outer1" transform="translate(622.665 3478)"/>
      <use xlink:href="#outer2" transform="translate(526.849 3592.665) rotate(90)"/>
      <use xlink:href="#outer1" transform="translate(747.54 3592.665) rotate(90)"/>
      <use xlink:href="#outer2" transform="translate(560.018 3522.798) rotate(135)"/>
      <use xlink:href="#outer1" transform="translate(716.07 3678.85) rotate(135)"/>
      <use xlink:href="#outer2" transform="translate(702.741 3530.018) rotate(-135)"/>
      <use xlink:href="#outer1" transform="translate(546.69 3686.07) rotate(-135)"/>
      <use xlink:href="#outer2" transform="translate(717.722 3551.73) rotate(-120)"/>
      <use xlink:href="#outer1" transform="translate(526.599 3662.075) rotate(-120)"/>
      <use xlink:href="#outer2" transform="matrix(-0.259,-0.966,0.966,-0.259,726.573,3576.58)"/>
      <use xlink:href="#outer1" transform="matrix(-0.259,-0.966,0.966,-0.259,513.402,3633.699)"/>
      <use xlink:href="#outer2" transform="matrix(0.259,-0.966,0.966,0.259,723.93,3628.821)"/>
      <use xlink:href="#outer1" transform="matrix(0.259,-0.966,0.966,0.259,510.76,3571.702)"/>
      <use xlink:href="#outer2" transform="translate(712.617 3652.651) rotate(-60)"/>
      <use xlink:href="#outer1" transform="translate(521.493 3542.306) rotate(-60)"/>
      <use xlink:href="#outer2" transform="translate(673.809 3687.722) rotate(-30)"/>
      <use xlink:href="#outer1" transform="translate(563.463 3496.598) rotate(-30)"/>
      <use xlink:href="#outer2" transform="matrix(0.966,-0.259,0.259,0.966,648.959,3696.572)"/>
      <use xlink:href="#outer1" transform="matrix(0.966,-0.259,0.259,0.966,591.839,3483.402)"/>
      <use xlink:href="#outer2" transform="matrix(0.966,0.259,-0.259,0.966,596.718,3693.93)"/>
      <use xlink:href="#outer1" transform="matrix(0.966,0.259,-0.259,0.966,653.837,3480.759)"/>
      <use xlink:href="#outer2" transform="translate(572.888 3682.617) rotate(30)"/>
      <use xlink:href="#outer1" transform="translate(683.233 3491.493) rotate(30)"/>
      <g transform="translate(590.464 3560.464)">
        <circle class="a" cx="37.305" cy="37.305" r="37.305"/>
        <circle class="c" cx="27.095" cy="27.095" r="27.095" transform="translate(10.21 10.21)"/>
      </g>
    </g>
  </svg>
</svg>
