<svg width="23px" height="23px" viewBox="0 0 23 23" xmlns="http://www.w3.org/2000/svg">
  <g stroke="none" stroke-width="1" fill="none" fill-rule="evenodd">
    <g transform="translate(-569, -2592)" fill="#5A5A5A" fill-rule="nonzero">
      <g transform="translate(0, 2451)">
        <g transform="translate(569, 141)">
          <path d="M18.4479167,18.6877001 C18.8446667,18.6877001 19.1666667,19.0096852 19.1666667,19.4064168 L19.1666667,20.3647056 C19.1666667,21.8184298 17.9850417,23 16.53125,23 L2.63541667,23 C1.181625,23 5.4534155e-13,21.8184298 5.4534155e-13,20.3647056 L5.4534155e-13,19.4064168 C5.4534155e-13,19.0096852 0.322,18.6877001 0.71875,18.6877001 L18.4479167,18.6877001 Z M17.4895833,7.18823373 C17.8863333,7.18823373 18.2083333,7.51021879 18.2083333,7.90695038 L18.2083333,7.90695038 L18.2083333,11.5005336 C18.2083333,13.0644611 17.7857083,14.6005981 16.9855,15.9412442 C16.965375,15.9747843 16.9433333,16.0064079 16.9184167,16.0361148 C16.53125,16.663794 16.0674167,17.2301427 15.5432083,17.7294112 L15.5432083,17.7294112 L3.634,17.7294112 C1.9895,16.1578175 0.958333333,13.9489617 0.958333333,11.5005336 L0.958333333,11.5005336 L0.958333333,7.90695038 C0.958333333,7.51021879 1.28033333,7.18823373 1.67708333,7.18823373 L1.67708333,7.18823373 Z M19.1666667,8.86523925 C21.28075,8.86523925 23,10.5844095 23,12.6983947 C23,13.734305 22.5984583,14.6973853 21.870125,15.4132271 C21.16575,16.1300271 20.202625,16.5315502 19.1666667,16.5315502 L19.1666667,16.5315502 L17.741625,16.5315502 C17.764625,16.4980101 17.7885833,16.4663865 17.8087083,16.4318881 C18.1517917,15.8578731 18.4115,15.2436099 18.627125,14.6149724 L18.627125,14.6149724 L19.1666667,14.6149724 C19.6841667,14.6149724 20.162375,14.4175649 20.5150417,14.0582066 C20.8859167,13.6940568 21.0833333,13.2158707 21.0833333,12.6983947 C21.0833333,11.6414021 20.2237083,10.781817 19.1666667,10.781817 L19.1666667,10.781817 Z M5.32858082,0.248305773 C5.58828915,0.548250188 5.55666415,1.00247911 5.25670582,1.26217539 C5.09570582,1.40208557 5.01712248,1.57745243 5.03437248,1.75761074 C5.05258082,1.95214337 5.18291415,2.13325997 5.39183082,2.25400437 C6.00803915,2.61048783 6.39712248,3.19504403 6.46037248,3.85817993 C6.52170582,4.50310833 6.26295582,5.12887096 5.74928915,5.57543357 C5.61224748,5.69234481 5.44549748,5.75080043 5.27778915,5.75080043 C5.07653915,5.75080043 4.87720582,5.6674293 4.73441415,5.50356191 C4.47470582,5.20361749 4.50633082,4.74938857 4.80628915,4.48969229 C4.96728915,4.34978211 5.04587248,4.17441525 5.02862248,3.99425695 C5.01137248,3.79972431 4.88008082,3.61860771 4.67212248,3.49786331 C4.05495582,3.14137986 3.66587248,2.55682365 3.60262248,1.89368775 C3.54128915,1.24875935 3.80003915,0.62299672 4.31370582,0.177392397 C4.61366415,-0.0842204626 5.06695582,-0.0525969301 5.32858082,0.248305773 Z M10.1192892,0.248305773 C10.3789975,0.548250188 10.3473725,1.00247911 10.0474142,1.26217539 C9.88641415,1.40208557 9.80783082,1.57745243 9.82508082,1.75761074 C9.84328915,1.95214337 9.97362248,2.13325997 10.1825392,2.25400437 C10.7987475,2.61048783 11.1878308,3.19504403 11.2510808,3.85817993 C11.3124142,4.50310833 11.0536642,5.12887096 10.5399975,5.57543357 C10.4039142,5.69234481 10.2371642,5.75080043 10.0694558,5.75080043 C9.86820582,5.75080043 9.66887248,5.6674293 9.52608082,5.50356191 C9.26637248,5.20361749 9.29799748,4.74938857 9.59795582,4.48969229 C9.75895582,4.34978211 9.83753915,4.17441525 9.82028915,3.99425695 C9.80208082,3.79972431 9.67174748,3.61860771 9.46283082,3.49786331 C8.84662248,3.14137986 8.45753915,2.55682365 8.39428915,1.89368775 C8.33295582,1.24875935 8.59170582,0.62299672 9.10537248,0.176434109 C9.40533082,-0.0842204626 9.85862248,-0.0525969301 10.1192892,0.248305773 Z M14.8513073,0.248305773 C15.1110156,0.548250188 15.0793906,1.00247911 14.7794323,1.26217539 C14.6184323,1.40208557 14.539849,1.57745243 14.557099,1.75761074 C14.5753073,1.95214337 14.7056406,2.13325997 14.9145573,2.25400437 C15.5307656,2.61048783 15.919849,3.19504403 15.983099,3.85817993 C16.0444323,4.50310833 15.7856823,5.12887096 15.2720156,5.57543357 C15.1359323,5.69234481 14.9691823,5.75080043 14.801474,5.75080043 C14.600224,5.75080043 14.4008906,5.6674293 14.258099,5.50356191 C13.9983906,5.20361749 14.0300156,4.74938857 14.329974,4.48969229 C14.490974,4.34978211 14.5695573,4.17441525 14.5523073,3.99425695 C14.534099,3.79972431 14.4037656,3.61860771 14.194849,3.49786331 C13.5786406,3.14137986 13.1895573,2.55682365 13.1263073,1.89368775 C13.064974,1.24875935 13.323724,0.62299672 13.8373906,0.176434109 C14.137349,-0.0842204626 14.5906406,-0.05259693 14.8513073,0.248305773 Z"></path>
        </g>
      </g>
    </g>
  </g>
</svg>
