<?xml version="1.0" encoding="UTF-8" standalone="no"?>
<svg
   xmlns:dc="http://purl.org/dc/elements/1.1/"
   xmlns:cc="http://creativecommons.org/ns#"
   xmlns:rdf="http://www.w3.org/1999/02/22-rdf-syntax-ns#"
   xmlns:svg="http://www.w3.org/2000/svg"
   xmlns="http://www.w3.org/2000/svg"
   xmlns:sodipodi="http://sodipodi.sourceforge.net/DTD/sodipodi-0.dtd"
   xmlns:inkscape="http://www.inkscape.org/namespaces/inkscape"
   width="369.26672"
   height="240.561"
   viewBox="0 0 369.26672 240.561"
   version="1.1"
   id="svg34"
   sodipodi:docname="desktop_abp.svg"
   inkscape:version="0.92.3 (2405546, 2018-03-11)">
  <metadata
     id="metadata38">
    <rdf:RDF>
      <cc:Work
         rdf:about="">
        <dc:format>image/svg+xml</dc:format>
        <dc:type
           rdf:resource="http://purl.org/dc/dcmitype/StillImage" />
        <dc:title />
      </cc:Work>
    </rdf:RDF>
  </metadata>
  <sodipodi:namedview
     pagecolor="#ffffff"
     bordercolor="#666666"
     borderopacity="1"
     objecttolerance="10"
     gridtolerance="10"
     guidetolerance="10"
     inkscape:pageopacity="0"
     inkscape:pageshadow="2"
     inkscape:window-width="960"
     inkscape:window-height="1016"
     id="namedview36"
     showgrid="false"
     fit-margin-top="0"
     fit-margin-left="0"
     fit-margin-right="0"
     fit-margin-bottom="0"
     inkscape:zoom="0.98104013"
     inkscape:cx="147.817"
     inkscape:cy="120.2805"
     inkscape:window-x="960"
     inkscape:window-y="27"
     inkscape:window-maximized="0"
     inkscape:current-layer="svg34" />
  <defs
     id="defs4">
    <style
       id="style2">.a{fill:#7c828b;}.b{fill:#c5ced6;}.c{fill:#414042;}.d{fill:#ec2146;}.e{fill:#fff;}.f{fill:#d8d9da;}</style>
    <style
       id="style40">.a{fill:#b4b4b4;}.b{fill:#757575;}.c{fill:#9d9d9d;}</style>
  </defs>
  <path
     class="a"
     d="m 185.297,235.733 h -74.96 l 4.3,-32.269 h 66.977 z"
     id="path6"
     inkscape:connector-curvature="0"
     style="fill:#7c828b" />
  <path
     class="b"
     d="m 0,176.453 v 19.935 a 7.365,7.365 0 0 0 7.362,7.362 h 280.91 a 7.365,7.365 0 0 0 7.362,-7.362 v -19.935 z"
     id="path8"
     inkscape:connector-curvature="0"
     style="fill:#c5ced6" />
  <path
     class="c"
     d="M 295.634,7.362 A 7.365,7.365 0 0 0 288.272,0 H 7.362 A 7.365,7.365 0 0 0 0,7.362 v 169.091 h 295.634 z"
     id="path10"
     inkscape:connector-curvature="0"
     style="fill:#414042" />
  <rect
     class="d"
     width="274.79099"
     height="156.853"
     id="rect12"
     x="10.422"
     y="9.8000002"
     style="fill:#ec2146" />
  <path
     class="d"
     d="M 180.462,77.227 164.636,61.401 h -22.42 L 126.39,77.227 v 22.42 l 15.826,15.826 h 22.42 l 15.826,-15.826 z"
     id="path14"
     inkscape:connector-curvature="0"
     style="fill:#ec2146" />
  <path
     class="e"
     d="m 164.562,61.328 15.826,15.826 v 22.42 L 164.562,115.4 h -22.42 L 126.389,99.574 v -22.42 l 15.826,-15.826 h 22.347 m 2.051,-4.836 h -26.376 l -18.683,18.684 v 26.376 l 18.683,18.684 h 26.377 l 18.683,-18.684 V 75.176 Z"
     id="path16"
     inkscape:connector-curvature="0"
     style="fill:#ffffff" />
  <g
     transform="translate(127.123,76.861)"
     id="g24">
    <path
       class="e"
       d="m 158.576,198.972 h -5.935 l -1.172,5.275 H 147 l 6.081,-22.347 h 5.275 l 6.081,22.347 h -4.616 z m -0.879,-3.957 -0.44,-2.051 c -0.293,-1.1 -0.513,-2.345 -0.806,-3.59 -0.22,-1.246 -0.513,-2.491 -0.806,-3.663 H 155.5 c -0.22,1.172 -0.513,2.418 -0.733,3.663 -0.22,1.245 -0.513,2.418 -0.806,3.517 l -0.44,2.052 h 4.179 z"
       transform="translate(-147,-181.9)"
       id="path18"
       inkscape:connector-curvature="0"
       style="fill:#ffffff" />
    <path
       class="e"
       d="m 174.473,182 h 6.667 a 17.148,17.148 0 0 1 2.784,0.22 6.65,6.65 0 0 1 2.271,0.879 4.827,4.827 0 0 1 1.539,1.685 6.594,6.594 0 0 1 0.293,4.25 4.683,4.683 0 0 1 -0.586,1.392 5.131,5.131 0 0 1 -1.026,1.172 3.943,3.943 0 0 1 -1.465,0.733 v 0.147 a 4.669,4.669 0 0 1 4.176,5.2 6.56,6.56 0 0 1 -0.586,2.931 6.265,6.265 0 0 1 -1.612,2.052 7.406,7.406 0 0 1 -2.418,1.172 8.066,8.066 0 0 1 -2.931,0.366 H 174.4 l 0.073,-22.2 z m 6.374,9.012 a 3.335,3.335 0 0 0 2.345,-0.733 2.766,2.766 0 0 0 0.733,-1.978 2.19,2.19 0 0 0 -0.733,-1.832 3.493,3.493 0 0 0 -2.271,-0.513 h -2.052 v 5.129 z m 0.44,9.378 c 2.418,0 3.59,-1.026 3.59,-3.077 a 2.579,2.579 0 0 0 -0.879,-2.125 4.408,4.408 0 0 0 -2.711,-0.659 H 178.8 v 5.862 z"
       transform="translate(-154.324,-181.927)"
       id="path20"
       inkscape:connector-curvature="0"
       style="fill:#ffffff" />
    <path
       class="e"
       d="m 198.673,182 h 7.107 a 12.84,12.84 0 0 1 2.931,0.366 7.408,7.408 0 0 1 2.418,1.172 5.9,5.9 0 0 1 1.612,2.2 7.811,7.811 0 0 1 0.586,3.37 8.6,8.6 0 0 1 -0.586,3.37 6.605,6.605 0 0 1 -1.685,2.345 7.994,7.994 0 0 1 -2.418,1.392 9.791,9.791 0 0 1 -2.931,0.44 H 203 v 7.545 h -4.4 V 182 Z m 6.814,10.77 a 3.246,3.246 0 0 0 3.59,-2.638 1.785,1.785 0 0 0 0,-0.879 3.1,3.1 0 0 0 -0.879,-2.491 4.249,4.249 0 0 0 -2.638,-0.733 h -2.418 v 6.741 z"
       transform="translate(-160.794,-181.927)"
       id="path22"
       inkscape:connector-curvature="0"
       style="fill:#ffffff" />
  </g>
  <path
     class="f"
     d="m 166.101,57.811 17.951,17.951 v 25.351 l -17.951,17.951 h -25.35 L 122.8,101.113 V 75.762 l 17.951,-17.951 h 25.35 m 0.513,-1.319 h -26.45 l -18.683,18.684 v 26.376 l 18.683,18.684 h 26.377 l 18.683,-18.684 V 75.176 Z"
     id="path26"
     inkscape:connector-curvature="0"
     style="fill:#d8d9da" />
  <path
     class="b"
     d="m 110.337,235.733 h 74.96 l 13.195,3.107 -101.35,0.093 z"
     id="path28"
     inkscape:connector-curvature="0"
     style="fill:#c5ced6" />
  <path
     class="a"
     d="M 197.775,240.561 H 97.811 l -0.621,-1.621 101.3,-0.1 z"
     id="path30"
     inkscape:connector-curvature="0"
     style="fill:#7c828b" />
  <path
     class="c"
     d="m 153.076,190.986 a 5.259,5.259 0 1 1 -5.259,-5.259 5.244,5.244 0 0 1 5.259,5.259 z"
     id="path32"
     inkscape:connector-curvature="0"
     style="fill:#414042" />
  <g
     id="g56"
     transform="translate(92.463775,114.10584)">
    <path
       id="path44"
       transform="translate(-178.061,-240.274)"
       d="m 315.13,242.11 -2.13,2.018 -42.06,113.048 h 141.375 l 40.241,-110.119 a 5.047,5.047 0 0 0 -4.742,-6.783 H 320.9 Z"
       class="a"
       inkscape:connector-curvature="0"
       style="fill:#b4b4b4" />
    <path
       id="path46"
       transform="translate(-174.967,-237.11)"
       d="m 313.16,242.061 -2.031,1.963 -40.189,109.987 h 135.072 l 38.447,-107.138 a 4.9,4.9 0 0 0 -4.531,-6.6 H 318.672 Z"
       inkscape:connector-curvature="0" />
    <path
       id="path48"
       transform="translate(-210.508,-240.274)"
       d="m 353.406,240.274 h -1.427 a 8.672,8.672 0 0 0 -8.142,5.675 l -41.018,111.227 h 7.089 z"
       class="a"
       inkscape:connector-curvature="0"
       style="fill:#b4b4b4" />
    <path
       id="path50"
       transform="translate(-207.414,-237.11)"
       d="m 353.406,240.274 h -1.427 a 8.665,8.665 0 0 0 -8.142,5.522 l -41.018,108.215 h 7.089 z"
       inkscape:connector-curvature="0" />
    <path
       id="path52"
       transform="translate(141.116,116.903)"
       d="m 0,0 h 92.748 v 8.913 a 2.35,2.35 0 0 1 -2.35,2.35 H 0 Z"
       class="b"
       inkscape:connector-curvature="0"
       style="fill:#757575" />
    <path
       id="path54"
       transform="translate(-312.836,-150.293)"
       d="M 453.952,278.459 H 321.393 c -4.724,0 -8.557,-2.519 -8.557,-5.632 v 0 c 0,-3.109 3.833,-5.632 8.557,-5.632 h 132.559 z"
       class="c"
       inkscape:connector-curvature="0"
       style="fill:#9d9d9d" />
  </g>
</svg>
