<svg width="51px" height="38px" viewBox="0 0 51 38" xmlns="http://www.w3.org/2000/svg">
  <g stroke="none" stroke-width="1" fill="none" fill-rule="evenodd">
    <g transform="translate(-140, -1781)" fill="#767676" fill-rule="nonzero">
      <path d="M169.519637,1813.61815 L169.519637,1815.96439 L175.403463,1815.96439 C176.233807,1815.96439 176.906867,1816.644 176.906867,1817.4822 C176.906867,1818.32049 176.233707,1819 175.403463,1819 L175.403463,1819 L155.596438,1819 C154.766094,1819 154.093033,1818.32039 154.093033,1817.4822 C154.093033,1816.6439 154.766193,1815.96439 155.596438,1815.96439 L155.596438,1815.96439 L161.480363,1815.96439 L161.480363,1813.61815 L169.519637,1813.61815 Z M189.266896,1781 C190.224043,1781 191,1781.78339 191,1782.7497 L191,1782.7497 L191,1808.83294 C191,1809.79925 190.224043,1810.58264 189.266896,1810.58264 L189.266896,1810.58264 L141.733104,1810.58264 C140.775957,1810.58264 140,1809.79925 140,1808.83294 L140,1808.83294 L140,1782.7497 C140,1781.78339 140.775957,1781 141.733104,1781 L141.733104,1781 Z"></path>
    </g>
  </g>
</svg>
