<svg xmlns="http://www.w3.org/2000/svg" width="668.712" height="544.139" viewBox="0 0 668.712 544.139">
  <g id="desktop_abp_mute" transform="translate(0)">
    <path id="Path_1713" data-name="Path 1713" d="M407.857,505.291H238.3l9.732-72.991h151.5Z" transform="translate(11.277 27.926)" fill="#7c828b"/>
    <path id="Path_1714" data-name="Path 1714" d="M7.5,375.8v45.093a16.66,16.66,0,0,0,16.653,16.653H659.559a16.66,16.66,0,0,0,16.653-16.653V375.8Z" transform="translate(-7.5 23.329)" fill="#c5ced6"/>
    <path id="Path_1715" data-name="Path 1715" d="M676.212,23.353A16.66,16.66,0,0,0,659.559,6.7H24.153A16.66,16.66,0,0,0,7.5,23.353V405.829H676.212Z" transform="translate(-7.5 -6.7)" fill="#414042"/>
    <rect id="Rectangle_69" data-name="Rectangle 69" width="621.564" height="354.793" transform="translate(23.574 22.168)" fill="#fff"/>
    <path id="Path_1716" data-name="Path 1716" d="M240.545,499.8H410.1l29.845,7.029-229.248.216Z" transform="translate(9.032 33.417)" fill="#c5ced6"/>
    <path id="Path_1717" data-name="Path 1717" d="M438.318,510.193H212.206l-1.406-3.677,229.14-.216Z" transform="translate(9.04 33.946)" fill="#7c828b"/>
    <g id="Webpage_Mock" data-name="Webpage Mock" transform="translate(23.574 22.168)">
      <g id="Group_119" data-name="Group 119" transform="translate(0 0)">
        <path id="Path_1509" data-name="Path 1509" d="M835.681,190.45v36.63H214.117V190.45Z" transform="translate(-214.117 -190.45)" fill="#d6d6d6"/>
        <g id="Group_118" data-name="Group 118" transform="translate(15.869 15.108)">
          <circle id="Ellipse_20" data-name="Ellipse 20" cx="4.949" cy="4.949" r="4.949" transform="translate(0 0)" fill="#ed1f45"/>
          <path id="Path_1510" data-name="Path 1510" d="M230.8,198.274a4.948,4.948,0,1,1-4.948-4.948A4.948,4.948,0,0,1,230.8,198.274Z" transform="translate(-201.103 -193.326)" fill="#ffc400"/>
          <path id="Path_1511" data-name="Path 1511" d="M234.576,198.274a4.948,4.948,0,1,1-4.948-4.948A4.951,4.951,0,0,1,234.576,198.274Z" transform="translate(-185.065 -193.326)" fill="#0aad03"/>
        </g>
      </g>
      <path id="Path_1722" data-name="Path 1722" d="M0,0H259.3l-10,102.952H0Z" transform="translate(51.79 36.365)" fill="#ed1e45"/>
      <rect id="Rectangle_71" data-name="Rectangle 71" width="103.302" height="145.952" transform="translate(52.092 208.526)" fill="#ed1e45"/>
      <rect id="Rectangle_75" data-name="Rectangle 75" width="91.301" height="89.952" transform="translate(475.489 129.526)" fill="#0aad03"/>
      <path id="Path_1723" data-name="Path 1723" d="M0,0H105.3l-5,42.952H0Z" transform="translate(173.092 311.526)" fill="#ed1e45"/>
      <rect id="Rectangle_76" data-name="Rectangle 76" width="248.302" height="16.952" transform="translate(319.092 337.526)" fill="#0aad03"/>
      <g id="Group_120" data-name="Group 120" transform="translate(52.092 143.526)">
        <path id="Path_1512" data-name="Path 1512" d="M462.808,241.6H233.037a11.289,11.289,0,0,1-11.187-11.385h0a11.289,11.289,0,0,1,11.187-11.385H462.808a11.387,11.387,0,0,1,0,22.77Z" transform="translate(-221.85 -218.828)" fill="#8f8f8f"/>
      </g>
      <g id="Group_181" data-name="Group 181" transform="translate(26.093 65.182)">
        <path id="Path_1512-2" data-name="Path 1512" d="M525.559,241.593H752.14c5.91,0,10.709-5.095,10.709-11.383h0c0-6.288-4.8-11.383-10.709-11.383H525.559c-5.91,0-10.709,5.095-10.709,11.383S519.649,241.593,525.559,241.593Z" transform="translate(-221.85 -218.828)" fill="#8f8f8f"/>
      </g>
      <g id="Group_168" data-name="Group 168" transform="translate(52.092 182.526)">
        <path id="Path_1512-3" data-name="Path 1512" d="M463.4,229.25H226.97a5.167,5.167,0,0,1-5.12-5.211h0a5.167,5.167,0,0,1,5.12-5.211H463.4C466.23,218.828,466.23,229.25,463.4,229.25Z" transform="translate(-221.85 -218.828)" fill="#cfcfcf"/>
      </g>
      <g id="Group_182" data-name="Group 182" transform="translate(319.419 103.526)">
        <path id="Path_1512-4" data-name="Path 1512" d="M226.753,229.25H464.62a5.065,5.065,0,0,0,4.9-5.211h0a5.065,5.065,0,0,0-4.9-5.211H226.753a5.221,5.221,0,0,0,0,10.422Z" transform="translate(-221.85 -218.828)" fill="#cfcfcf"/>
      </g>
      <g id="Group_187" data-name="Group 187" transform="translate(319.419 233.526)">
        <path id="Path_1512-5" data-name="Path 1512" d="M226.753,229.25H464.62a5.065,5.065,0,0,0,4.9-5.211h0a5.065,5.065,0,0,0-4.9-5.211H226.753a5.221,5.221,0,0,0,0,10.422Z" transform="translate(-221.85 -218.828)" fill="#cfcfcf"/>
      </g>
      <g id="Group_188" data-name="Group 188" transform="translate(319.419 259.526)">
        <path id="Path_1512-6" data-name="Path 1512" d="M226.753,229.25H464.62a5.065,5.065,0,0,0,4.9-5.211h0a5.065,5.065,0,0,0-4.9-5.211H226.753a5.221,5.221,0,0,0,0,10.422Z" transform="translate(-221.85 -218.828)" fill="#cfcfcf"/>
      </g>
      <g id="Group_189" data-name="Group 189" transform="translate(319.419 285.526)">
        <path id="Path_1512-7" data-name="Path 1512" d="M226.753,229.25H464.62a5.065,5.065,0,0,0,4.9-5.211h0a5.065,5.065,0,0,0-4.9-5.211H226.753a5.221,5.221,0,0,0,0,10.422Z" transform="translate(-221.85 -218.828)" fill="#cfcfcf"/>
      </g>
      <g id="Group_190" data-name="Group 190" transform="translate(319.419 311.526)">
        <path id="Path_1512-8" data-name="Path 1512" d="M226.753,229.25H464.62a5.065,5.065,0,0,0,4.9-5.211h0a5.065,5.065,0,0,0-4.9-5.211H226.753a5.221,5.221,0,0,0,0,10.422Z" transform="translate(-221.85 -218.828)" fill="#cfcfcf"/>
      </g>
      <g id="Group_149" data-name="Group 149" transform="translate(206.551 208.92)">
        <path id="Path_1514" data-name="Path 1514" d="M327.176,214.721H214.865a5.228,5.228,0,1,1,0-10.427H327.176C330.278,204.294,330.278,214.721,327.176,214.721Z" transform="translate(-242.25 -204.294)" fill="#cfcfcf"/>
      </g>
      <g id="Group_183" data-name="Group 183" transform="translate(319.092 129.92)">
        <path id="Path_1514-2" data-name="Path 1514" d="M214.865,214.721H341.176a5.228,5.228,0,1,0,0-10.427H214.865a5.228,5.228,0,1,0,0,10.427Z" transform="translate(-209.25 -204.294)" fill="#cfcfcf"/>
      </g>
      <g id="Group_178" data-name="Group 178" transform="translate(206.551 234.92)">
        <path id="Path_1514-3" data-name="Path 1514" d="M322.176,214.721H214.865a5.228,5.228,0,1,1,0-10.427H322.176C325.278,204.294,325.278,214.721,322.176,214.721Z" transform="translate(-242.25 -204.294)" fill="#cfcfcf"/>
      </g>
      <g id="Group_184" data-name="Group 184" transform="translate(319.092 155.919)">
        <path id="Path_1514-4" data-name="Path 1514" d="M214.865,214.721H341.176a5.228,5.228,0,1,0,0-10.427H214.865a5.228,5.228,0,1,0,0,10.427Z" transform="translate(-209.25 -204.294)" fill="#cfcfcf"/>
      </g>
      <g id="Group_179" data-name="Group 179" transform="translate(206.551 260.92)">
        <path id="Path_1514-5" data-name="Path 1514" d="M320.176,214.721H214.865a5.228,5.228,0,1,1,0-10.427H320.176C323.278,204.294,323.278,214.721,320.176,214.721Z" transform="translate(-242.25 -204.294)" fill="#cfcfcf"/>
      </g>
      <g id="Group_185" data-name="Group 185" transform="translate(319.092 181.92)">
        <path id="Path_1514-6" data-name="Path 1514" d="M214.865,214.721H341.176a5.228,5.228,0,1,0,0-10.427H214.865a5.228,5.228,0,1,0,0,10.427Z" transform="translate(-209.25 -204.294)" fill="#cfcfcf"/>
      </g>
      <g id="Group_180" data-name="Group 180" transform="translate(206.551 286.92)">
        <path id="Path_1514-7" data-name="Path 1514" d="M317.176,214.721H214.865a5.228,5.228,0,1,1,0-10.427H317.176C320.278,204.294,320.278,214.721,317.176,214.721Z" transform="translate(-242.25 -204.294)" fill="#cfcfcf"/>
      </g>
      <g id="Group_186" data-name="Group 186" transform="translate(319.092 207.92)">
        <path id="Path_1514-8" data-name="Path 1514" d="M214.865,214.721H341.176a5.228,5.228,0,1,0,0-10.427H214.865a5.228,5.228,0,1,0,0,10.427Z" transform="translate(-209.25 -204.294)" fill="#cfcfcf"/>
      </g>
      <rect id="Rectangle_77" data-name="Rectangle 77" width="13" height="364" transform="translate(311.261 -3.441) rotate(7)" fill="#414042"/>
      <text id="AD" transform="translate(144.093 74.233)" fill="#fff" font-size="32" font-family="ObjektivMk1-Black, Objektiv Mk1" font-weight="800"><tspan x="9.596" y="26">AD</tspan></text>
      <text id="AD-2" data-name="AD" transform="translate(66.093 268.233)" fill="#fff" font-size="32" font-family="ObjektivMk1-Black, Objektiv Mk1" font-weight="800"><tspan x="9.596" y="26">AD</tspan></text>
      <text id="AD-3" data-name="AD" transform="translate(184.093 319.233)" fill="#fff" font-size="32" font-family="ObjektivMk1-Black, Objektiv Mk1" font-weight="800"><tspan x="9.596" y="26">AD</tspan></text>
    </g>
  </g>
</svg>
