<svg xmlns="http://www.w3.org/2000/svg"
   width="369.26672"
   height="240.561"
   viewBox="0 0 369.26672 240.561">
  <defs>
    <style>
      .a{fill:#7c828b;}.b{fill:#c5ced6;}.c{fill:#414042;}.d{fill:#ec2146;}.e{fill:#fff;}.f{fill:#d8d9da;}.g{fill:#b4b4b4;}.h{fill:#757575;}.i{fill:#9d9d9d;}
    </style>
  </defs>
  <path class="a"
     d="m 185.297,235.733 h -74.96 l 4.3,-32.269 h 66.977 z"/>
  <path class="b"
     d="m 0,176.453 v 19.935 a 7.365,7.365 0 0 0 7.362,7.362 h 280.91 a 7.365,7.365 0 0 0 7.362,-7.362 v -19.935 z"/>
  <path class="c"
     d="M 295.634,7.362 A 7.365,7.365 0 0 0 288.272,0 H 7.362 A 7.365,7.365 0 0 0 0,7.362 v 169.091 h 295.634 z"/>
  <rect
     class="d"
     width="274.79099"
     height="156.853"
     x="10.422"
     y="9.8000002"/>
  <path class="d"
     d="M 180.462,77.227 164.636,61.401 h -22.42 L 126.39,77.227 v 22.42 l 15.826,15.826 h 22.42 l 15.826,-15.826 z"/>
  <path class="e"
     d="m 164.562,61.328 15.826,15.826 v 22.42 L 164.562,115.4 h -22.42 L 126.389,99.574 v -22.42 l 15.826,-15.826 h 22.347 m 2.051,-4.836 h -26.376 l -18.683,18.684 v 26.376 l 18.683,18.684 h 26.377 l 18.683,-18.684 V 75.176 Z"/>
  <g transform="translate(127.123,76.861)">
    <path class="e"
       d="m 158.576,198.972 h -5.935 l -1.172,5.275 H 147 l 6.081,-22.347 h 5.275 l 6.081,22.347 h -4.616 z m -0.879,-3.957 -0.44,-2.051 c -0.293,-1.1 -0.513,-2.345 -0.806,-3.59 -0.22,-1.246 -0.513,-2.491 -0.806,-3.663 H 155.5 c -0.22,1.172 -0.513,2.418 -0.733,3.663 -0.22,1.245 -0.513,2.418 -0.806,3.517 l -0.44,2.052 h 4.179 z"
       transform="translate(-147,-181.9)"/>
    <path class="e"
       d="m 174.473,182 h 6.667 a 17.148,17.148 0 0 1 2.784,0.22 6.65,6.65 0 0 1 2.271,0.879 4.827,4.827 0 0 1 1.539,1.685 6.594,6.594 0 0 1 0.293,4.25 4.683,4.683 0 0 1 -0.586,1.392 5.131,5.131 0 0 1 -1.026,1.172 3.943,3.943 0 0 1 -1.465,0.733 v 0.147 a 4.669,4.669 0 0 1 4.176,5.2 6.56,6.56 0 0 1 -0.586,2.931 6.265,6.265 0 0 1 -1.612,2.052 7.406,7.406 0 0 1 -2.418,1.172 8.066,8.066 0 0 1 -2.931,0.366 H 174.4 l 0.073,-22.2 z m 6.374,9.012 a 3.335,3.335 0 0 0 2.345,-0.733 2.766,2.766 0 0 0 0.733,-1.978 2.19,2.19 0 0 0 -0.733,-1.832 3.493,3.493 0 0 0 -2.271,-0.513 h -2.052 v 5.129 z m 0.44,9.378 c 2.418,0 3.59,-1.026 3.59,-3.077 a 2.579,2.579 0 0 0 -0.879,-2.125 4.408,4.408 0 0 0 -2.711,-0.659 H 178.8 v 5.862 z"
       transform="translate(-154.324,-181.927)"/>
    <path class="e"
       d="m 198.673,182 h 7.107 a 12.84,12.84 0 0 1 2.931,0.366 7.408,7.408 0 0 1 2.418,1.172 5.9,5.9 0 0 1 1.612,2.2 7.811,7.811 0 0 1 0.586,3.37 8.6,8.6 0 0 1 -0.586,3.37 6.605,6.605 0 0 1 -1.685,2.345 7.994,7.994 0 0 1 -2.418,1.392 9.791,9.791 0 0 1 -2.931,0.44 H 203 v 7.545 h -4.4 V 182 Z m 6.814,10.77 a 3.246,3.246 0 0 0 3.59,-2.638 1.785,1.785 0 0 0 0,-0.879 3.1,3.1 0 0 0 -0.879,-2.491 4.249,4.249 0 0 0 -2.638,-0.733 h -2.418 v 6.741 z"
       transform="translate(-160.794,-181.927)"/>
  </g>
  <path class="f"
     d="m 166.101,57.811 17.951,17.951 v 25.351 l -17.951,17.951 h -25.35 L 122.8,101.113 V 75.762 l 17.951,-17.951 h 25.35 m 0.513,-1.319 h -26.45 l -18.683,18.684 v 26.376 l 18.683,18.684 h 26.377 l 18.683,-18.684 V 75.176 Z"/>
  <path class="b"
     d="m 110.337,235.733 h 74.96 l 13.195,3.107 -101.35,0.093 z"/>
  <path class="a"
     d="M 197.775,240.561 H 97.811 l -0.621,-1.621 101.3,-0.1 z"/>
  <path class="c"
     d="m 153.076,190.986 a 5.259,5.259 0 1 1 -5.259,-5.259 5.244,5.244 0 0 1 5.259,5.259 z"/>
  <g transform="translate(92.463775,114.10584)">
    <path class="g"
       transform="translate(-178.061,-240.274)"
       d="m 315.13,242.11 -2.13,2.018 -42.06,113.048 h 141.375 l 40.241,-110.119 a 5.047,5.047 0 0 0 -4.742,-6.783 H 320.9 Z"/>
    <path transform="translate(-174.967,-237.11)"
       d="m 313.16,242.061 -2.031,1.963 -40.189,109.987 h 135.072 l 38.447,-107.138 a 4.9,4.9 0 0 0 -4.531,-6.6 H 318.672 Z"/>
    <path class="g"
       transform="translate(-210.508,-240.274)"
       d="m 353.406,240.274 h -1.427 a 8.672,8.672 0 0 0 -8.142,5.675 l -41.018,111.227 h 7.089 z"/>
    <path
       transform="translate(-207.414,-237.11)"
       d="m 353.406,240.274 h -1.427 a 8.665,8.665 0 0 0 -8.142,5.522 l -41.018,108.215 h 7.089 z"/>
    <path class="h"
       transform="translate(141.116,116.903)"
       d="m 0,0 h 92.748 v 8.913 a 2.35,2.35 0 0 1 -2.35,2.35 H 0 Z"/>
    <path class="i"
       transform="translate(-312.836,-150.293)"
       d="M 453.952,278.459 H 321.393 c -4.724,0 -8.557,-2.519 -8.557,-5.632 v 0 c 0,-3.109 3.833,-5.632 8.557,-5.632 h 132.559 z"/>
  </g>
</svg>
