<svg xmlns="http://www.w3.org/2000/svg" width="36" height="30.048" viewBox="0 0 36 30.048"><defs><style>.a{fill:#fff;}</style></defs><g transform="translate(0 0)"><path class="a" d="M34.045,50.645v-.053H1.937v.053A2.125,2.125,0,0,0,0,52.546v21.1A2.071,2.071,0,0,0,.282,74.7a1.968,1.968,0,0,0,1.832,1.075H13.7V78.7H11.5a.969.969,0,0,0,0,1.939h12.98a.97.97,0,1,0,0-1.939h-2.2V75.778H33.869A1.962,1.962,0,0,0,35.7,74.7a2.127,2.127,0,0,0,.3-1.056v-21.1A2.174,2.174,0,0,0,34.045,50.645Zm0,2.078V73.647c0,.124-.053.177-.176.177H2.114c-.123,0-.176-.053-.176-.177v-21.1H34.045v.177Z" transform="translate(0 -50.592)"/></g></svg>