<svg width="192" height="127" viewBox="0 0 192 127" fill="none" xmlns="http://www.w3.org/2000/svg">
<mask id="mask0_2906_16490" style="mask-type:alpha" maskUnits="userSpaceOnUse" x="0" y="-31" width="157" height="158">
<ellipse cx="78.2179" cy="48.0211" rx="77.8819" ry="78.9789" fill="#D9D9D9"/>
</mask>
<g mask="url(#mask0_2906_16490)">
<path d="M106.278 90.9329C106.366 90.4392 106.081 89.9456 105.686 89.6385C105.291 89.3313 104.797 89.1887 104.315 89.0681C98.6435 87.5653 92.6762 87.2911 86.8405 87.8724C86.2701 87.9273 85.5461 88.1576 85.5352 88.728C85.5352 88.9913 85.6997 89.2216 85.8642 89.4191C86.9502 90.6477 88.5627 91.2619 90.1423 91.7336C94.6506 93.0609 99.521 93.5655 104.051 92.304C104.841 92.0846 106.103 91.9091 106.278 90.9548V90.9329Z" fill="white"/>
<path d="M88.6928 77.9013C89.5484 76.969 90.404 76.0146 91.2377 75.0603C92.7076 73.4039 94.1446 71.7147 95.5596 70.0144C95.7132 70.0473 95.8777 70.0364 95.9764 70.1351C96.8649 69.3892 98.28 69.0601 99.5414 69.2905C100.222 69.9925 101.033 70.6177 101.856 71.243C102.174 71.4733 102.47 71.7147 102.821 71.9231C103.041 72.0547 103.26 72.1863 103.468 72.318H103.479C103.545 72.3838 103.611 72.4277 103.677 72.4606C103.732 72.4935 103.787 72.5264 103.83 72.5593C104.532 73.031 105.202 73.5246 105.893 73.9963C106.068 74.1169 106.288 74.1608 106.463 74.106V74.3692C106.65 74.9725 107.001 77.6161 105.333 81.2909C103.721 84.8339 103.095 88.9694 103.008 92.5563C99.6402 93.6094 97.0843 92.4466 93.5412 91.8214C92.203 91.58 90.8538 91.3387 89.7678 90.8232C88.7367 87.0168 87.9469 83.1776 87.3984 79.3164C87.8262 78.8557 88.265 78.384 88.6928 77.9233V77.9013Z" fill="white"/>
<path d="M102.024 74.9723C102.123 73.4914 101.673 71.9777 100.785 70.793C100.225 70.0471 99.4904 69.4218 99.0736 68.5882C98.6458 67.7545 98.6458 66.5918 99.4026 66.0433C99.8743 65.6923 100.522 65.6923 101.092 65.8129C102.606 66.1311 103.823 67.206 104.898 68.3139C105.567 69.005 106.226 69.729 106.631 70.5956C106.993 71.3744 107.147 72.23 107.224 73.0746C107.268 73.6011 107.29 74.1496 107.07 74.6432C106.774 75.3123 106.105 75.7292 105.447 76.0583C104.767 76.3983 104.01 76.7054 103.253 76.5738C102.496 76.4422 101.969 75.7292 102.013 74.9613L102.024 74.9723Z" fill="white"/>
<path d="M186.531 171.184C187.431 160.456 188.341 152.8 189.241 142.072C190.546 149.344 194.473 163.648 196.096 171.425C180.673 171.919 170.626 172.413 157.298 174.124C159.865 176.153 161.927 178.819 163.101 181.715C164.274 184.61 164.658 187.759 164.976 190.874C181.43 190.325 197.599 190.051 213.757 190.567C215.567 190.622 217.486 190.666 219.033 189.733C220.196 189.031 220.997 187.835 221.49 186.574C222.839 183.097 222.017 179.203 221.172 175.561C218.682 164.789 213.878 144.342 209.446 134.218C207.537 129.852 205.245 125.574 201.943 122.129C195.054 114.923 184.809 112.246 174.904 109.91C174.476 112.378 171.876 113.848 169.43 114.374C167.247 114.846 164.922 114.857 162.859 114.001C160.797 113.146 159.064 111.358 158.077 108.407C150.486 107.716 145.692 107.738 142.347 108.231C137.926 108.878 133.637 112.092 130.675 115.317C124.511 122.042 121.308 127.702 114.825 135.501C109.252 121.405 106.017 106.377 106.313 90.6804C104.92 93.8725 87.1164 93.5544 85.2188 88.4976C86.4692 107.211 87.7527 126.133 93.4347 144.002C95.2666 149.75 97.6031 155.476 101.53 160.061C105.457 164.646 111.194 167.981 117.227 167.816C123.26 167.652 127.121 165.996 131.016 158.536C131.685 159.6 132.354 160.664 132.683 161.915C132.727 169.89 131.981 179.203 131.871 187.035C149.652 189.854 168.311 187.462 186.18 186.322C186.224 181.034 186.147 175.747 186.531 171.206V171.184Z" fill="white"/>
<path d="M164.963 191.269C164.821 191.269 164.689 191.192 164.612 191.083C164.536 190.962 164.525 190.808 164.59 190.677C165.534 188.812 164.777 184.753 163.537 181.704L163.45 181.473C162.309 178.643 161.014 175.44 157.186 174.508C156.989 174.464 156.857 174.289 156.868 174.08C156.879 173.883 157.033 173.718 157.23 173.696C167.311 172.402 175.307 171.799 186.145 171.349C186.112 171.283 186.101 171.206 186.101 171.129C186.551 165.765 187.012 161.093 187.461 156.562C187.9 152.043 188.361 147.37 188.811 142.006C188.833 141.798 188.997 141.644 189.206 141.633C189.414 141.633 189.589 141.765 189.633 141.973C190.368 146.054 191.926 152.383 193.451 158.493C194.646 163.33 195.787 167.904 196.489 171.305C196.511 171.426 196.489 171.546 196.412 171.645C196.336 171.744 196.226 171.799 196.105 171.799C180.441 172.303 171.084 172.797 159.051 174.278C162.035 175.726 163.23 178.687 164.218 181.144L164.305 181.375C165.457 184.216 166.269 188.099 165.567 190.402C185.015 189.755 199.89 189.668 213.744 190.117C215.422 190.172 217.32 190.227 218.79 189.338C220.029 188.593 220.72 187.32 221.082 186.377C222.432 182.9 221.499 178.852 220.753 175.605C218.812 167.202 213.667 144.891 209.049 134.327C206.713 128.974 204.42 125.278 201.634 122.36C195.118 115.537 185.816 112.861 175.209 110.36C174.529 112.806 171.863 114.221 169.505 114.736C166.993 115.285 164.634 115.153 162.682 114.341C160.433 113.409 158.733 111.478 157.757 108.747C150.802 108.133 145.91 108.078 142.389 108.594C137.134 109.361 132.648 113.716 130.959 115.559C127.525 119.311 125.002 122.744 122.326 126.375C120.187 129.282 117.982 132.276 115.119 135.721C115.031 135.83 114.878 135.885 114.735 135.863C114.592 135.841 114.472 135.743 114.417 135.611C108.636 120.978 105.751 106.246 105.861 91.7996C104.029 93.1268 99.8936 93.2365 98.4786 93.2256C94.3102 93.2146 88.1345 92.3041 85.7103 89.9677C86.906 107.913 88.2662 126.419 93.8057 143.838C95.3523 148.686 97.6559 154.884 101.824 159.743C106.036 164.658 111.773 167.51 117.203 167.356C122.984 167.191 126.779 165.689 130.279 158.197C130.377 157.988 130.619 157.9 130.827 157.999C131.035 158.098 131.123 158.339 131.024 158.548C127.361 166.391 123.192 168.014 117.225 168.179C111.565 168.343 105.576 165.382 101.199 160.281C96.9319 155.301 94.5845 149.004 93.0159 144.079C87.2789 126.057 86.0065 106.948 84.7779 88.4759C84.767 88.2674 84.9096 88.081 85.107 88.0481C85.3154 88.0042 85.5129 88.1248 85.5787 88.3223C86.3795 90.8452 92.7636 92.37 98.4676 92.3919C102.526 92.4138 105.51 91.646 105.883 90.5052C105.949 90.3077 106.135 90.198 106.344 90.231C106.541 90.2639 106.695 90.4394 106.684 90.6478C106.42 105.149 109.185 119.958 114.922 134.668C117.554 131.465 119.638 128.634 121.646 125.892C124.333 122.239 126.867 118.784 130.333 115C132.078 113.091 136.739 108.583 142.246 107.782C145.877 107.255 150.912 107.31 158.075 107.957C158.239 107.968 158.371 108.078 158.426 108.232C159.314 110.864 160.883 112.718 162.978 113.585C165.249 114.517 167.673 114.287 169.307 113.936C171.534 113.453 174.068 112.104 174.463 109.8C174.485 109.69 174.551 109.592 174.638 109.526C174.737 109.46 174.847 109.438 174.956 109.471C185.86 112.038 195.436 114.736 202.193 121.801C205.056 124.795 207.393 128.558 209.773 134.009C214.413 144.639 219.58 167.005 221.521 175.429C222.3 178.786 223.254 182.965 221.817 186.684C221.411 187.737 220.622 189.185 219.185 190.051C217.495 191.072 215.389 191.006 213.689 190.951C199.703 190.501 184.675 190.6 164.941 191.258H164.931L164.963 191.269ZM189.392 144.99C189.019 149.18 188.646 152.964 188.284 156.661C187.845 161.18 187.385 165.853 186.935 171.217C186.935 171.261 186.924 171.294 186.913 171.327C189.6 171.217 192.474 171.118 195.59 171.02C194.877 167.685 193.802 163.319 192.65 158.712C191.454 153.875 190.215 148.895 189.392 145.001V144.99Z" fill="black"/>
<path d="M106.355 90.9657C106.355 90.9657 106.322 90.9657 106.311 90.9657C106.08 90.9438 105.916 90.7353 105.938 90.5159C105.938 90.4172 105.905 90.2856 105.806 90.1649C105.696 90.0223 105.532 89.9126 105.367 89.8139C104.753 89.419 103.733 89.1558 102.34 89.0241C102.109 89.0022 101.945 88.8047 101.967 88.5744C101.989 88.344 102.186 88.1795 102.417 88.2014C103.963 88.355 105.071 88.6512 105.806 89.1228C106.014 89.2545 106.256 89.419 106.442 89.6603C106.673 89.9455 106.782 90.2856 106.749 90.6037C106.727 90.8121 106.552 90.9767 106.344 90.9767L106.355 90.9657Z" fill="black"/>
<path d="M85.2496 89.0352C85.0302 89.0352 84.8438 88.8597 84.8438 88.6293C84.8438 88.3112 84.9863 87.9931 85.2606 87.7628C85.48 87.5763 85.7432 87.4776 85.9516 87.4118C86.5001 87.2362 87.0595 87.1595 87.6299 87.1814C87.8603 87.1814 88.0358 87.3788 88.0248 87.6092C88.0248 87.8395 87.8274 88.0151 87.597 88.0041C87.1254 87.9931 86.6537 88.0589 86.193 88.2015C86.0504 88.2454 85.8858 88.3112 85.7761 88.399C85.6994 88.4648 85.6445 88.5526 85.6555 88.6184C85.6555 88.8487 85.48 89.0352 85.2496 89.0352V89.0352Z" fill="black"/>
<g opacity="0.13">
<path opacity="0.13" d="M85.2606 88.4428C85.3374 88.1357 85.5897 87.9163 85.8859 87.8176C85.9407 87.7956 86.0066 87.7956 86.0614 87.7847C86.215 87.2691 86.917 87.0936 87.29 87.4775C87.619 87.8944 87.9701 88.3002 88.354 88.6732C88.4527 88.7719 88.5514 88.8706 88.6611 88.9584C89.2206 89.1668 89.9116 89.3972 90.7563 89.6275C91.6996 89.9566 92.6539 90.3186 93.6412 90.4721C94.771 90.6367 94.8697 90.6367 96.2628 90.7793C97.4585 90.9438 99.7182 91.5581 101.462 91.602C103.579 92.1504 100.815 88.1028 102.592 88.4867C103.064 88.5854 104.292 88.6732 105.005 89.112C105.269 89.2765 105.543 89.441 105.707 89.7043C105.729 89.7372 105.74 89.7811 105.751 89.814C105.784 89.814 105.828 89.814 105.861 89.814C106.64 89.8798 106.87 91.0096 106.179 91.3826C104.336 92.3479 102.263 92.9073 100.179 92.9512C99.4659 92.9512 98.7529 92.8415 98.0399 92.8525C97.3598 92.8525 96.6687 92.8854 95.9886 92.8086C94.5736 92.655 93.1695 92.3808 91.7764 92.1066H91.7106C91.7106 92.1066 91.8203 92.1066 91.8751 92.1175L91.6996 92.0956C91.6119 92.0846 91.6338 92.0956 91.6996 92.0956C91.0524 92.0078 90.3943 91.9201 89.769 91.7007C87.9591 91.0645 86.0724 90.3405 85.5897 89.4849C85.502 89.3642 85.4252 89.2436 85.3594 89.112C85.2387 88.9145 85.2058 88.6622 85.2716 88.4319L85.2606 88.4428Z" fill="black"/>
</g>
<g opacity="0.13">
<path opacity="0.13" d="M92.149 74.0737C92.0057 73.9524 91.9396 73.9083 92.149 74.0737V74.0737Z" fill="black"/>
</g>
<g opacity="0.13">
<path opacity="0.13" d="M99.0273 77.1885C99.0825 77.1885 99.1596 77.1665 99.1816 77.1665C99.1265 77.1665 99.0714 77.1775 99.0273 77.1885Z" fill="black"/>
</g>
<g opacity="0.13">
<path opacity="0.13" d="M98.919 77.2105C98.919 77.2105 98.9851 77.2105 99.0181 77.1995C98.952 77.2105 98.8859 77.2215 98.919 77.2105Z" fill="black"/>
</g>
<path d="M111.29 63.9595C106.277 69.4661 101.67 75.3566 97.5348 81.5542C95.3409 84.834 93.0483 88.41 89.3736 89.847C88.5729 90.1541 87.7063 90.3625 86.8726 90.209C85.6221 89.9896 84.591 89.0133 84.0645 87.8506C83.538 86.6878 83.4612 85.3715 83.5599 84.1101C83.6367 83.1338 83.8232 82.1465 84.3058 81.28C84.7446 80.4792 85.3589 79.7772 86.0719 79.2068C88.167 77.5504 87.3772 76.7497 87.794 75.0055C89.0116 69.9377 96.4598 69.9377 99.4325 65.5939C98.6865 65.0783 97.9406 64.5628 97.3373 63.8937C96.734 63.2245 96.2733 62.3799 96.2404 61.4804C96.1856 60.1092 97.0741 58.9026 97.8419 57.7289C88.1122 54.2626 77.9656 52.0029 67.7422 50.7634C69.9799 46.3976 71.8008 41.8234 73.5998 37.2602C76.0459 31.0626 78.5031 24.8759 81.1467 19.0073C87.6076 25.5011 95.4506 30.4154 103.217 35.2638C108.559 38.5985 113.912 41.9331 119.616 44.5987C122.654 46.0137 126.066 47.5055 127.437 50.566C128.304 52.4966 128.15 54.7672 127.481 56.7746C126.801 58.782 125.627 60.5809 124.453 62.347C123.488 63.7949 122.303 65.3526 120.504 65.7913C117.29 65.8901 114.055 65.199 111.29 63.9595V63.9595Z" fill="white"/>
<path d="M69.3451 24.0639C67.7765 29.2195 65.7362 34.2324 63.2571 39.026C61.7214 38.7628 60.5039 37.4903 59.9005 36.0533C59.2972 34.6164 59.2095 33.0148 59.1875 31.4572C59.1766 30.81 59.1766 30.1628 59.3521 29.5486C59.5166 29.0001 59.8238 28.5065 60.1309 28.0348C60.8988 26.8611 61.7544 25.7093 62.8952 24.8976C64.749 23.5922 67.3048 23.3509 69.3341 24.0639H69.3451Z" fill="white"/>
<path d="M67.9941 51.2679C72.3489 40.2986 76.7037 29.3293 81.0585 18.1736C78.6453 15.9249 76.7366 13.0948 75.519 9.99048C75.519 9.99048 57.9133 52.2442 57.9023 52.0687C61.1163 50.9498 64.5936 50.6098 67.9831 51.2679H67.9941Z" fill="#EDA51E"/>
<path d="M103.711 60.2408C103.711 60.2408 103.612 60.2408 103.568 60.2188C103.239 60.0982 70.5837 47.8345 58.2652 52.65C58.1226 52.7049 57.9581 52.672 57.8484 52.5842C57.7497 52.6171 57.6509 52.6171 57.5522 52.5842C57.3438 52.4964 57.2451 52.2551 57.3328 52.0467L75.1908 9.28843C75.2567 9.13486 75.4102 9.03613 75.5857 9.03613C75.7612 9.03613 75.9038 9.14583 75.9587 9.31036C79.765 20.2138 92.632 28.0788 105.071 35.6696C107.221 36.9859 109.448 38.3461 111.587 39.6953C111.74 39.794 111.817 39.9915 111.762 40.167C109.634 46.9241 107.046 53.6043 104.084 60.0104C104.018 60.164 103.865 60.2517 103.711 60.2517V60.2408ZM65.834 50.6865C79.765 50.6865 100.376 58.1456 103.503 59.3084C106.333 53.1327 108.823 46.7047 110.885 40.2108C108.834 38.9165 106.706 37.6221 104.643 36.3606C92.4455 28.9125 79.8528 21.223 75.5528 10.5499L58.342 51.7396C60.4262 51.0046 62.982 50.6975 65.8231 50.6975L65.834 50.6865Z" fill="black"/>
<path d="M68.1917 50.8074C68.1917 50.8074 68.093 50.8074 68.0381 50.7745C67.8297 50.6867 67.72 50.4454 67.8078 50.237L80.4005 18.9526C80.4883 18.7442 80.7296 18.6454 80.938 18.7222C81.1464 18.81 81.2561 19.0513 81.1684 19.2597L68.5756 50.5441C68.5098 50.7087 68.3562 50.8074 68.1917 50.8074V50.8074Z" fill="black"/>
<path d="M62.7761 39.6075C62.6993 39.6075 62.6225 39.5856 62.5567 39.5417C60.6371 38.2912 59.2221 36.1851 58.7723 33.9035C58.3226 31.6219 58.8162 29.1209 60.0996 27.2122C60.7249 26.2908 61.5256 25.4791 62.5019 24.799C64.2131 23.6033 66.8457 22.7477 69.1273 23.9214C69.3248 24.0202 69.4125 24.2725 69.3028 24.4809C69.2041 24.6783 68.9518 24.7661 68.7434 24.6564C66.7909 23.6472 64.4764 24.426 62.9626 25.4791C62.0741 26.0934 61.3391 26.8393 60.7797 27.6729C59.617 29.3951 59.1672 31.6658 59.5731 33.739C59.9899 35.8122 61.2624 37.7208 62.9955 38.8506C63.182 38.9713 63.2368 39.2346 63.1162 39.4211C63.0394 39.5417 62.9077 39.6075 62.7761 39.6075V39.6075Z" fill="black"/>
<path d="M118.795 66.3835C116.755 66.3835 114.638 65.506 112.729 64.6174C111.062 63.8386 109.548 63.1037 108.078 62.3907C106.619 61.6777 105.105 60.9427 103.449 60.1749C103.24 60.0762 103.153 59.8348 103.251 59.6264C103.35 59.418 103.591 59.3303 103.8 59.429C105.467 60.2078 106.981 60.9427 108.451 61.6557C109.91 62.3687 111.424 63.1037 113.091 63.8715C115.745 65.1111 118.554 66.219 120.967 65.1111C122.744 64.2993 123.874 62.4346 124.96 60.4272C125.87 58.7489 126.912 56.8512 127.329 54.7999C127.779 52.6061 127.417 50.5439 126.331 49.1398C125.453 47.999 124.071 47.2531 122.974 46.6607C119.168 44.6204 115.383 42.624 110.93 40.5508C110.722 40.4521 110.634 40.2108 110.733 40.0024C110.831 39.7939 111.073 39.7062 111.281 39.8049C115.756 41.8781 119.552 43.8855 123.369 45.9258C124.543 46.551 126.013 47.3408 127 48.6242C128.229 50.2257 128.645 52.5293 128.152 54.9535C127.702 57.1145 126.638 59.078 125.706 60.8001C124.543 62.9282 123.347 64.9136 121.34 65.835C120.539 66.208 119.694 66.3616 118.839 66.3616L118.795 66.3835Z" fill="black"/>
<path d="M87.8401 90.9659C87.3575 90.9659 86.8639 90.9001 86.3593 90.7355C83.3098 89.7592 82.1032 85.8761 82.9369 83.0022C83.6608 80.5121 85.3391 79.1958 87.4782 77.5175C87.8621 77.2104 88.2679 76.8923 88.6958 76.5522L88.8274 76.4535C91.9427 73.9525 95.1896 70.6178 98.4804 66.5592C99.2811 65.572 100.082 63.9485 100.927 62.2263C101.409 61.2501 101.903 60.2299 102.418 59.3304C102.528 59.133 102.78 59.0672 102.978 59.1769C103.175 59.2866 103.241 59.5389 103.131 59.7363C102.638 60.6248 102.144 61.623 101.661 62.5883C100.795 64.3544 99.9722 66.0217 99.1166 67.0748C95.7929 71.1882 92.5021 74.5558 89.332 77.1007L89.2113 77.1994C88.7835 77.5395 88.3776 77.8576 87.9828 78.1647C85.8876 79.7991 84.3739 80.9838 83.7267 83.2215C83.0027 85.7225 84.0887 89.134 86.6116 89.9457C89.4088 90.8452 92.1401 88.3332 93.1712 87.2144C94.9812 85.2618 96.4401 82.9254 97.8441 80.6547C98.1732 80.1282 98.5023 79.6017 98.8314 79.0752C102.363 73.5247 106.477 68.3362 111.062 63.6743C111.227 63.5097 111.479 63.5097 111.644 63.6743C111.808 63.8388 111.808 64.0911 111.644 64.2556C107.102 68.8737 103.022 74.0073 99.5224 79.5139C99.1934 80.0295 98.8643 80.556 98.5352 81.0825C97.1092 83.3751 95.6283 85.7555 93.7636 87.7628C92.7873 88.8159 90.4837 90.9549 87.8182 90.9549L87.8401 90.9659Z" fill="black"/>
<path d="M99.061 65.9998C98.9623 65.9998 98.8526 65.9559 98.7758 65.8791L96.9659 64.113C96.7026 63.8608 96.4174 63.5756 96.198 63.2245C95.6934 62.4128 95.6386 61.2939 96.0335 60.219C96.3735 59.2975 96.9878 58.5077 97.5253 57.8167C97.6679 57.6412 97.9202 57.6083 98.1067 57.7509C98.2822 57.8935 98.3151 58.1458 98.1725 58.3322C97.646 59.0123 97.0975 59.7144 96.8013 60.5151C96.4942 61.3488 96.5271 62.2044 96.8891 62.8077C97.0536 63.071 97.295 63.3123 97.5363 63.5426L99.3462 65.3087C99.5108 65.4623 99.5108 65.7255 99.3462 65.8901C99.2694 65.9778 99.1597 66.0107 99.05 66.0107L99.061 65.9998Z" fill="black"/>
<path d="M123.054 52.2441C122.988 52.2441 122.922 52.2331 122.868 52.2002C119.577 50.478 116.154 48.9094 112.71 47.5273C112.502 47.4395 112.392 47.2092 112.48 46.9898C112.567 46.7814 112.809 46.6717 113.017 46.7594C116.483 48.1416 119.928 49.7321 123.251 51.4653C123.449 51.575 123.526 51.8163 123.427 52.0247C123.35 52.1673 123.208 52.2441 123.065 52.2441H123.054Z" fill="black"/>
<path d="M121.064 56.4454C121.009 56.4454 120.954 56.4344 120.899 56.4125C117.499 54.9207 114.022 53.4837 110.577 52.1345C110.369 52.0467 110.259 51.8164 110.347 51.597C110.435 51.3886 110.665 51.2789 110.884 51.3666C114.351 52.7268 117.828 54.1638 121.239 55.6556C121.448 55.7434 121.546 55.9847 121.448 56.1931C121.382 56.3467 121.228 56.4344 121.075 56.4344L121.064 56.4454Z" fill="black"/>
<path d="M119.113 61.0196C119.048 61.0196 118.993 61.0086 118.927 60.9757C115.592 59.3084 112.137 57.8275 108.649 56.5551C108.44 56.4783 108.331 56.237 108.407 56.0286C108.484 55.8202 108.725 55.6995 108.934 55.7873C112.455 57.0707 115.932 58.5735 119.3 60.2408C119.508 60.3395 119.585 60.5918 119.486 60.7892C119.41 60.9319 119.267 61.0196 119.113 61.0196V61.0196Z" fill="black"/>
<path d="M59.3852 22.4844C59.2865 22.4844 59.1878 22.4515 59.1 22.3747C55.8202 19.2814 53.5824 15.1021 52.7927 10.6047C52.7488 10.3853 52.9024 10.1659 53.1217 10.133C53.3411 10.0891 53.5605 10.2427 53.5934 10.4621C54.3613 14.7949 56.5112 18.8097 59.6594 21.7824C59.824 21.9359 59.8349 22.1992 59.6814 22.3637C59.6046 22.4515 59.4949 22.4954 59.3852 22.4954V22.4844Z" fill="black"/>
<path d="M56.183 26.7405C56.1062 26.7405 56.0295 26.7186 55.9527 26.6747C53.5285 25.0841 50.9287 23.7459 48.2413 22.7038C48.0328 22.6161 47.9232 22.3857 48.0109 22.1663C48.0877 21.9579 48.329 21.8482 48.5484 21.936C51.2907 23 53.9343 24.3711 56.4134 25.9836C56.5999 26.1043 56.6547 26.3675 56.534 26.554C56.4573 26.6747 56.3256 26.7405 56.194 26.7405H56.183Z" fill="black"/>
<path d="M42.4371 34.0572C42.2836 34.0572 42.141 33.9694 42.0642 33.8268C41.9655 33.6184 42.0532 33.3771 42.2507 33.2784C46.0241 31.4355 50.2363 30.5799 54.4156 30.7993C54.646 30.8103 54.8215 31.0077 54.8105 31.2271C54.7995 31.4575 54.6021 31.622 54.3827 31.611C50.346 31.4026 46.2764 32.2253 42.6236 34.0133C42.5688 34.0462 42.503 34.0572 42.4481 34.0572H42.4371Z" fill="black"/>
<path d="M73.3272 48.789C73.3272 48.789 73.2833 48.789 73.2614 48.778C73.1956 48.7451 73.1736 48.6574 73.2065 48.5915L76.9032 41.5822C76.9361 41.5164 77.0238 41.4944 77.0897 41.5273C77.1555 41.5602 77.1774 41.648 77.1445 41.7138L73.4478 48.7232C73.4478 48.7232 73.3711 48.8 73.3272 48.8V48.789Z" fill="black"/>
<path d="M76.5381 49.6773C76.5381 49.6773 76.4942 49.6773 76.4723 49.6663C76.4065 49.6334 76.3846 49.5456 76.4175 49.4798L78.3042 45.9806C78.3371 45.9148 78.4248 45.8929 78.4907 45.9258C78.5565 45.9587 78.5784 46.0464 78.5455 46.1122L76.6588 49.6114C76.6588 49.6114 76.582 49.6882 76.5381 49.6882V49.6773Z" fill="black"/>
<path d="M80.128 51.0158C80.128 51.0158 80.0841 51.0158 80.0622 50.9938C79.9963 50.9609 79.9744 50.8732 80.0073 50.8073L81.4333 48.1857C81.4662 48.1199 81.554 48.0979 81.6198 48.1308C81.6856 48.1637 81.7075 48.2515 81.6746 48.3173L80.2486 50.939C80.2486 50.939 80.1718 51.0158 80.128 51.0158Z" fill="black"/>
<path d="M84.0977 51.8382C84.0977 51.8382 84.0538 51.8382 84.0319 51.8273C83.966 51.7944 83.9331 51.7066 83.977 51.6408L85.0191 49.6224C85.052 49.5566 85.1398 49.5237 85.2056 49.5676C85.2714 49.6005 85.3043 49.6883 85.2604 49.7541L84.2183 51.7724C84.2183 51.7724 84.1416 51.8492 84.0977 51.8492V51.8382Z" fill="black"/>
<g opacity="0.13">
<path opacity="0.13" d="M58.9008 32.1923C59.0544 31.589 59.877 31.3806 60.3268 31.7865C60.601 32.0059 60.6339 32.3788 60.7765 32.675C61.1714 33.761 62.0599 35.0005 62.751 35.6148C63.5518 36.3936 63.3543 35.9438 64.0783 36.6788C64.8352 37.8086 63.3872 39.114 62.3451 38.2364C60.5242 36.9969 60.0745 35.7135 59.2737 34.1559C59.0873 33.7061 58.9337 33.2344 58.8898 32.7408C58.8459 32.5543 58.813 32.3679 58.8898 32.1814L58.9008 32.1923Z" fill="black"/>
</g>
<g opacity="0.13">
<path opacity="0.13" d="M57.9831 51.0925C58.2683 51.4984 58.8716 51.6848 59.3104 51.4216C59.3433 51.4216 59.3543 51.3887 59.3872 51.3777C59.431 51.3667 59.4749 51.3448 59.5188 51.3228C60.7583 50.8073 61.4275 50.8731 63.1387 50.7634C65.2448 50.5769 66.8902 50.6208 68.5685 50.7305C68.5685 50.7524 68.5904 50.7744 68.6014 50.7963C68.7001 51.0157 68.8975 51.1912 69.1279 51.2461C69.4899 51.3558 69.5118 51.268 70.2906 51.3448C71.2011 51.3996 72.1006 51.5422 73.0001 51.6519C75.8521 51.97 78.6383 52.6501 81.4683 53.1547C83.5306 53.6264 84.3862 54.0981 86.8981 54.7124C90.8581 55.6447 93.5565 56.4455 97.0557 57.4986C97.4396 57.6412 98.5366 58.058 99.7761 58.5297C99.4031 58.4419 99.0411 58.3542 98.6572 58.2993C98.6133 58.2883 98.5585 58.2774 98.5146 58.2664C97.5713 57.685 96.3646 58.6613 96.7595 59.7034C96.9679 60.3177 97.6919 60.6577 98.2952 60.4274H98.3172C99.8419 60.5809 100.017 60.7564 101.476 61.2062C101.323 61.4256 101.191 61.634 101.027 61.9082C101.18 62.0289 101.246 62.2373 101.136 62.4676C99.9955 64.7163 98.5256 66.7786 96.9131 68.7092C96.1123 69.6745 95.2019 70.563 94.2914 71.4295C93.8307 71.8683 93.3591 72.2852 92.8874 72.702C92.7886 72.7897 92.679 72.8885 92.5693 72.9762C92.5473 73.2943 92.6899 73.6234 92.9751 73.7879C93.4578 74.1609 94.0282 73.8209 94.3902 73.4589C94.8838 73.042 95.6407 72.3619 95.6626 72.34C96.1123 71.9561 96.6389 71.4734 97.1544 71.0127C97.5383 70.7056 97.9113 70.3984 98.2623 70.0584C98.3172 70.0035 98.372 69.9487 98.4269 69.8939C98.7998 69.5648 99.107 69.3234 99.2715 69.2138C99.798 68.7969 100.215 68.2704 100.665 67.7768C101.52 66.8883 102.431 66.0656 103.286 65.1771C103.473 65.0235 103.659 64.8809 103.857 64.7493C104.208 64.5518 104.043 64.5408 104.866 64.3105C105.052 64.2776 105.316 64.2776 105.414 64.2776C106.413 64.3544 106.544 64.4421 107.126 64.6176C107.849 64.8589 108.562 65.1551 109.232 65.5281C109.605 65.7146 109.988 65.6378 110.285 65.4294C110.734 65.4842 111.217 65.3087 111.458 64.8919C111.985 64.1788 111.458 63.2903 110.734 62.9832C110.35 62.7419 109.967 62.5115 109.583 62.2921C109.846 62.4128 110.109 62.5335 110.383 62.6541C112.994 63.8607 115.55 65.4952 118.512 65.561C119.828 65.6487 121.1 65.2429 122.395 65.0564C123.141 65.0125 123.645 64.113 123.261 63.4768C123.009 62.8735 122.296 62.8187 121.737 62.9393C120.003 63.1258 119.477 63.2465 118.281 63.049C115.758 62.6651 114.069 61.6669 111.349 60.2409C107.202 58.058 103.034 55.8751 98.6024 54.3065C94.4011 52.7818 89.9805 52.0249 85.6806 50.8512C84.2326 50.4672 82.7847 50.0504 81.2928 49.8749C79.5597 49.6775 77.8156 49.5787 76.1044 49.1948C72.2212 48.6025 68.2723 48.2953 64.3453 48.4599C62.645 48.6354 60.879 48.4708 59.2665 49.129C58.3999 49.469 57.3908 50.0943 58.005 51.1254L57.9831 51.0925ZM102.661 59.8679C102.738 59.824 102.804 59.7802 102.88 59.7473L102.54 59.6156C102.595 59.6924 102.628 59.7802 102.661 59.8679Z" fill="black"/>
</g>
<path d="M86.6778 78.4278C86.3048 77.7696 86.2719 78.3949 86.0525 77.6709C85.8441 76.9469 85.8112 76.1462 86.1074 75.4442C86.4035 74.7531 87.0836 74.1937 87.8295 74.1607C88.751 74.1278 89.5188 74.8518 90.1441 75.5319C91.219 76.6947 92.2392 77.9232 93.007 79.3053C93.2922 79.8209 93.5226 80.512 93.1277 80.9507C92.9193 81.1811 92.5902 81.2579 92.2721 81.2688C91.3726 81.3127 90.4622 80.9288 89.8698 80.2597C89.6066 79.9635 89.4091 79.6235 89.1239 79.3492C88.8387 79.075 88.4109 78.724 88.2683 78.362C87.8844 77.3089 87.8844 76.5959 86.6668 78.4278H86.6778Z" fill="white"/>
<path d="M88.9241 75.4114C88.5511 74.7532 88.1672 74.0951 87.9588 73.3601C87.7503 72.6362 87.7174 71.8354 88.0136 71.1334C88.3098 70.4423 88.9899 69.8829 89.7358 69.85C90.6572 69.8171 91.4251 70.541 92.0503 71.2211C93.1253 72.3839 94.1454 73.6124 94.9133 74.9945C95.1985 75.5101 95.4288 76.2012 95.034 76.6399C94.8255 76.8703 94.4965 76.9471 94.1783 76.9581C93.2789 77.0019 92.4562 77.2762 91.8529 76.607C91.5896 76.3109 89.0118 73.9854 88.9131 75.4114H88.9241Z" fill="white"/>
<path d="M90.9866 71.8572C90.6136 71.199 90.2297 70.5409 90.0213 69.8059C89.8128 69.082 89.7799 68.2812 90.0761 67.5792C90.3723 66.8881 91.0524 66.3287 91.7983 66.2958C92.7197 66.2629 93.4876 66.9868 94.1128 67.6669C95.1878 68.8297 96.2079 70.0582 96.9758 71.4403C97.261 71.9559 97.4913 72.647 97.0965 73.0857C96.888 73.3161 96.559 74.1388 96.2408 74.1498C95.3414 74.1936 94.4309 73.0638 93.8386 72.3947C93.5753 72.0985 91.0853 70.4312 90.9866 71.8462V71.8572Z" fill="white"/>
<path d="M91.8078 66.3067C91.0509 66.3067 91.7858 63.5534 92.093 62.8624C92.3892 62.1713 93.0693 61.6119 93.8152 61.579C94.7366 61.5461 95.5044 62.27 96.1297 62.9501C97.2047 64.1129 98.2248 65.3414 98.9927 66.7236C99.2779 67.2391 99.5082 67.9302 99.1133 68.369C98.9049 68.5993 99.4973 71.572 99.1791 71.583C98.2797 71.6268 97.1827 71.2539 96.5794 70.5847C96.3162 70.2886 93.8152 66.3067 91.8078 66.3067Z" fill="white"/>
<path d="M101.199 69.5645C99.9922 68.0398 97.195 64.7161 98.7855 63.8276C99.5973 63.3778 101.539 64.3431 102.164 65.0342C103.239 66.197 105.411 67.2939 106.179 68.676C106.464 69.1916 107.561 72.1423 107.166 72.5701C106.958 72.8005 107.155 75.5757 106.837 75.5976C105.938 75.6415 102.252 76.6617 101.659 75.9925C101.396 75.6964 103.733 72.7785 101.188 69.5755L101.199 69.5645Z" fill="white"/>
<path d="M92.2711 82.0475C90.5269 82.0475 88.8048 79.4588 87.8614 78.0328C87.7736 77.9011 87.6859 77.7695 87.6201 77.6708C87.4884 77.4843 87.5433 77.232 87.7298 77.1004C87.9162 76.9687 88.1685 77.0236 88.3002 77.2101C88.377 77.3198 88.4537 77.4404 88.5525 77.583C89.3203 78.7458 91.1302 81.4661 92.4466 81.2139C92.8963 81.1261 93.006 80.9396 93.0499 80.808C93.3351 79.9853 92.0626 77.9011 90.6476 76.2667C89.8907 75.3892 89.057 74.5226 87.993 74.4019C87.1484 74.3032 86.4902 74.9833 86.2928 75.6853C86.0405 76.5629 86.5341 77.5611 86.9619 78.4386L86.9948 78.5044C87.0935 78.7129 87.0058 78.9542 86.8083 79.0529C86.5999 79.1516 86.3586 79.0639 86.2599 78.8664L86.227 78.8006C85.7553 77.8353 85.163 76.6397 85.503 75.455C85.854 74.2374 86.94 73.4476 88.0918 73.5792C89.4519 73.7438 90.4502 74.7749 91.2728 75.7292C92.0078 76.5848 94.3772 79.4917 93.8287 81.0822C93.708 81.4332 93.4009 81.872 92.6001 82.0256C92.4904 82.0475 92.3917 82.0585 92.282 82.0585L92.2711 82.0475Z" fill="black"/>
<path d="M96.8373 76.3875C96.7386 76.3875 96.6398 76.3875 96.5411 76.3545C95.7733 76.2119 94.8848 75.5209 94.5996 74.8627C94.5118 74.6543 94.5996 74.413 94.8189 74.3252C95.0274 74.2375 95.2687 74.3252 95.3564 74.5446C95.51 74.9066 96.1572 75.4441 96.6947 75.5428C96.7824 75.5648 96.947 75.5757 97.0238 75.4989C97.2322 75.2686 97.5613 73.6671 96.7495 71.8242C95.861 69.8278 94.1608 67.5133 92.6251 66.9539C91.8024 66.6577 91.1552 66.6906 90.6945 67.0636C90.0802 67.5572 89.795 68.687 89.9595 70.0253C89.9925 70.2556 89.8279 70.4531 89.5976 70.486C89.3782 70.5189 89.1698 70.3543 89.1368 70.124C88.9284 68.4896 89.3233 67.1074 90.168 66.4164C90.6506 66.0324 91.5172 65.6814 92.8993 66.186C94.7312 66.8551 96.574 69.411 97.4954 71.4952C98.4498 73.6561 98.0878 75.5977 97.6051 76.0803C97.4077 76.2778 97.1444 76.3765 96.8263 76.3765L96.8373 76.3875Z" fill="black"/>
<path d="M94.3786 80.2707C93.7753 80.2707 93.194 80.0403 92.9965 79.8648C92.821 79.7113 92.81 79.459 92.9636 79.2835C93.1172 79.1079 93.3695 79.097 93.545 79.2506C93.6986 79.3712 94.609 79.6235 94.971 79.2506C95.1904 79.0312 95.3001 78.6801 95.333 78.1756C95.3878 77.1664 95.1355 76.0475 94.5542 74.7422C93.7863 73.009 92.6126 71.6488 91.1756 70.7932C90.6052 70.4532 89.3986 70.2777 88.5869 70.8152C87.8629 71.2978 87.5887 72.296 87.7751 73.7001C87.808 73.9304 87.6435 74.1279 87.4241 74.1608C87.1938 74.1937 86.9963 74.0292 86.9634 73.8098C86.6563 71.605 87.4351 70.5848 88.1371 70.1241C89.2889 69.3563 90.8575 69.6415 91.6034 70.0802C93.194 71.0236 94.4774 72.5154 95.311 74.4021C95.9473 75.8281 96.2215 77.0786 96.1557 78.2194C96.1118 78.9434 95.9143 79.4699 95.5524 79.8319C95.2343 80.15 94.8065 80.2707 94.3786 80.2707Z" fill="black"/>
<path d="M102.162 92.6111C101.943 92.6111 101.756 92.4356 101.756 92.2162C101.57 87.7517 102.963 84.8997 104.312 82.1464C105.014 80.6985 105.683 79.3273 106.1 77.7697L106.221 77.309C106.857 74.9067 107.515 72.4167 106.627 70.2338C106.045 68.8078 104.872 67.7109 103.621 66.6249L103.446 66.4713C102.711 65.8241 101.691 64.9466 100.89 64.5188C99.9136 64.0032 99.3432 63.9484 99.1457 64.0691C99.058 64.1239 99.0141 64.2446 99.0141 64.442C99.0141 66.3068 99.4309 66.7894 100.44 67.9522C100.67 68.2154 100.934 68.5226 101.219 68.8846C102.919 70.9907 103.117 74.3692 101.68 76.9251C101.57 77.1225 101.318 77.1883 101.12 77.0786C100.923 76.9689 100.857 76.7166 100.967 76.5192C102.239 74.2486 102.086 71.2539 100.583 69.4001C100.298 69.0491 100.045 68.7529 99.8149 68.4897C98.7728 67.2831 98.1914 66.6139 98.1914 64.442C98.1914 63.8168 98.4766 63.5096 98.7179 63.367C99.2664 63.0379 100.122 63.1805 101.274 63.7948C102.162 64.2665 103.215 65.1879 103.983 65.857L104.159 66.0106C105.431 67.1185 106.736 68.3361 107.384 69.9266C108.382 72.3618 107.658 75.1042 107.011 77.5174L106.89 77.9781C106.462 79.6125 105.771 81.0166 105.047 82.4975C103.742 85.163 102.404 87.9163 102.579 92.1724C102.579 92.4027 102.415 92.5892 102.184 92.6002H102.162V92.6111Z" fill="black"/>
<path d="M98.4355 72.976C98.26 72.976 98.0625 72.9541 97.8541 72.8773C97.3495 72.6908 96.9546 72.285 96.6584 71.6487C96.5597 71.4403 96.6584 71.199 96.8559 71.1003C97.0643 71.0016 97.3056 71.1003 97.4044 71.2977C97.6018 71.7255 97.8431 71.9888 98.1283 72.0985C98.4574 72.2191 98.7645 72.0985 98.8852 72.0436C99.7079 71.6597 99.4776 70.2337 99.2253 69.4439L99.0827 69.0051C98.5671 67.4475 98.0296 65.846 97.1411 64.4968C96.4171 63.3998 94.5085 61.568 93.1373 62.0835C92.0184 62.5004 92.0075 63.8167 92.1062 65.3743C92.1281 65.7692 92.1501 66.0983 92.1391 66.3835C92.1281 66.6138 91.9307 66.7784 91.7003 66.7674C91.47 66.7564 91.3054 66.559 91.3164 66.3286C91.3274 66.0983 91.3164 65.7692 91.2835 65.4182C91.1957 64.047 91.0531 61.9738 92.8411 61.3047C94.7059 60.6136 96.8888 62.6101 97.8212 64.047C98.7645 65.495 99.324 67.1513 99.8505 68.7529L99.9931 69.1916C100.421 70.486 100.487 72.1972 99.2253 72.7896C99.0827 72.8554 98.7865 72.976 98.4135 72.976H98.4355Z" fill="black"/>
</g>
<g clip-path="url(#clip0_2906_16490)">
<path d="M138.15 36.9988C149.56 36.8488 160.969 36.6989 172.367 36.5489C176.001 36.5028 179.797 36.4105 182.992 34.68C186.315 32.8688 188.622 29.2002 188.53 25.4278C188.438 21.6438 185.773 17.9868 182.116 16.9946C178.459 16.0025 174.167 17.9868 172.783 21.5054C172.967 14.9758 167.199 8.7461 160.658 8.79225C154.117 8.83839 148.349 15.5295 149.606 21.9438C148.487 18.9674 144.911 17.3869 141.773 17.9176C138.635 18.4367 135.993 20.6748 134.228 23.3282C132.763 25.5316 131.782 28.1965 132.128 30.8384C132.474 33.4802 134.263 37.0565 138.15 36.9988Z" fill="white"/>
<path d="M138.061 37.4372C133.712 37.4372 132.016 33.3417 131.693 30.896C131.278 27.7581 132.65 24.9086 133.873 23.0743C135.915 20.0056 138.765 17.9752 141.707 17.4791C144.498 17.0062 147.371 18.1021 149.009 20.0633C149.032 17.5714 149.978 15.0219 151.743 12.8761C154.039 10.0612 157.373 8.3769 160.661 8.35383C163.799 8.34229 166.971 9.7382 169.382 12.1955C171.505 14.3643 172.832 17.11 173.143 19.9018C175.047 17.1446 178.865 15.6564 182.222 16.5678C185.96 17.583 188.856 21.3785 188.96 25.4047C189.064 29.2463 186.745 33.1225 183.192 35.0491C179.834 36.8719 175.866 36.9296 172.37 36.9757L138.153 37.4256H138.061V37.4372ZM142.987 18.2406C142.606 18.2406 142.226 18.2752 141.856 18.3328C139.157 18.7828 136.504 20.6863 134.6 23.5473C133.458 25.2547 132.177 27.9081 132.558 30.7807C132.847 32.938 134.323 36.5719 138.073 36.5719H138.153L172.37 36.1105C175.762 36.0643 179.615 36.0182 182.788 34.2877C186.053 32.5111 188.187 28.9464 188.095 25.4277C188.002 21.7707 185.383 18.3213 182.003 17.4099C178.508 16.4639 174.458 18.4021 173.189 21.6669C173.109 21.863 172.901 21.9784 172.705 21.9322C172.497 21.8861 172.359 21.7015 172.359 21.4938C172.44 18.3905 171.136 15.2295 168.771 12.8069C166.521 10.5111 163.58 9.19599 160.672 9.21906C157.638 9.24214 154.547 10.8111 152.412 13.4183C150.347 15.9448 149.482 19.0135 150.047 21.8515C150.094 22.0706 149.955 22.2898 149.736 22.3475C149.517 22.4052 149.286 22.2898 149.217 22.0822C148.259 19.5326 145.502 18.2406 142.987 18.2406V18.2406Z" fill="black"/>
<g opacity="0.13">
<path opacity="0.13" d="M185.718 29.5118C185.406 29.5811 185.199 29.8233 184.968 30.0195C184.691 30.2271 184.391 30.4002 184.103 30.5732C183.433 31.0116 182.764 31.4615 182.049 31.8191C181.98 31.8537 181.934 31.8768 181.911 31.8884C180.422 32.2806 178.98 32.9382 177.435 33.1574C176.373 33.2843 172.716 33.1804 170.593 33.2497C166.048 33.3419 161.491 33.3535 156.946 33.4919C153.346 33.4112 149.759 33.6996 146.194 34.1841C141.614 34.5417 140.091 34.7379 136.711 33.3189L136.861 33.3881C136.099 33.1112 135.442 32.5459 134.646 32.3844C133.158 32.1191 132.419 34.2533 133.746 35.0032C135.557 35.9492 137.472 36.8144 139.48 37.2066C144.106 37.9565 148.72 36.5837 153.37 36.7221C154.996 36.6875 156.623 36.8144 158.249 36.7683C160.441 36.6875 162.633 36.526 164.837 36.4914C168.113 36.4222 171.528 36.203 173.951 35.9146C173.916 36.6183 174.55 37.3451 175.369 37.1605C178 36.8952 180.572 36.0761 182.903 34.8186C183.433 34.5417 183.964 34.2418 184.483 33.9418C184.783 33.7457 185.152 33.6419 185.36 33.3304C185.568 33.0766 185.648 32.7997 185.625 32.5229C185.983 32.2806 186.329 32.0383 186.664 31.7499C186.998 31.473 187.275 31.1039 187.264 30.654C187.275 29.881 186.479 29.2811 185.741 29.4888L185.718 29.5118Z" fill="black"/>
</g>
</g>
<g clip-path="url(#clip1_2906_16490)">
<path d="M11.329 103.702C20.1832 103.588 29.0375 103.473 37.8827 103.358C40.7029 103.323 43.6483 103.252 46.1282 101.928C48.7066 100.543 50.4971 97.7356 50.4255 94.8493C50.3539 91.9542 48.2858 89.1561 45.4478 88.397C42.6098 87.6379 39.2794 89.1561 38.205 91.8483C38.3483 86.8524 33.8719 82.086 28.7957 82.1213C23.7195 82.1566 19.2432 87.2761 20.219 92.1837C19.3506 89.9064 16.5753 88.6971 14.1401 89.1032C11.705 89.5004 9.65482 91.2127 8.28505 93.2429C7.14806 94.9288 6.38708 96.9677 6.65566 98.989C6.92424 101.01 8.31191 103.747 11.329 103.702Z" fill="white"/>
<path d="M11.2585 104.038C7.88329 104.038 6.56724 100.904 6.31657 99.033C5.99427 96.6321 7.05964 94.4519 8.00863 93.0485C9.59326 90.7006 11.8046 89.1471 14.0875 88.7676C16.2541 88.4057 18.4833 89.2442 19.7546 90.7447C19.7725 88.8382 20.5066 86.8875 21.8764 85.2457C23.658 83.092 26.2453 81.8034 28.7968 81.7857C31.232 81.7769 33.694 82.8449 35.5651 84.725C37.2124 86.3844 38.242 88.4851 38.4837 90.6212C39.9609 88.5116 42.9242 87.373 45.5295 88.0703C48.4302 88.847 50.6773 91.751 50.7579 94.8315C50.8384 97.7708 49.0389 100.737 46.2815 102.211C43.6763 103.605 40.5965 103.649 37.8839 103.685L11.3301 104.029H11.2585V104.038ZM15.0813 89.3501C14.7858 89.3501 14.4904 89.3766 14.2039 89.4208C12.109 89.765 10.0498 91.2214 8.57265 93.4104C7.68633 94.7167 6.69258 96.7469 6.98802 98.9447C7.21184 100.595 8.35779 103.376 11.2674 103.376H11.3301L37.8839 103.023C40.516 102.987 43.5062 102.952 45.9682 101.628C48.5018 100.269 50.158 97.5413 50.0864 94.8491C50.0148 92.0511 47.9825 89.4119 45.3594 88.7146C42.6467 87.9908 39.5043 89.4737 38.5195 91.9717C38.4568 92.1217 38.2957 92.21 38.1435 92.1747C37.9823 92.1394 37.8749 91.9981 37.8749 91.8393C37.9376 89.4649 36.9259 87.0464 35.0906 85.1928C33.3448 83.4363 31.0619 82.43 28.8058 82.4477C26.4512 82.4654 24.0519 83.6658 22.3957 85.6606C20.7931 87.5936 20.1217 89.9415 20.5603 92.1129C20.5962 92.2806 20.4887 92.4483 20.3186 92.4924C20.1485 92.5366 19.9695 92.4483 19.9157 92.2894C19.1727 90.3387 17.033 89.3501 15.0813 89.3501V89.3501Z" fill="black"/>
<g opacity="0.13">
<path opacity="0.13" d="M48.2435 97.9737C48.0018 98.0267 47.8407 98.2121 47.6616 98.3621C47.4467 98.521 47.214 98.6534 46.9901 98.7858C46.4709 99.1212 45.9516 99.4654 45.3966 99.7391C45.3428 99.7655 45.307 99.7832 45.2891 99.792C44.1342 100.092 43.0151 100.595 41.8155 100.763C40.9918 100.86 38.1538 100.781 36.5065 100.834C32.9791 100.904 29.4428 100.913 25.9154 101.019C23.1222 100.957 20.3379 101.178 17.5715 101.549C14.0173 101.822 12.8355 101.972 10.2124 100.887L10.3288 100.939C9.73787 100.728 9.22757 100.295 8.60983 100.172C7.45493 99.9686 6.88196 101.601 7.91152 102.175C9.3171 102.899 10.8032 103.561 12.361 103.861C15.9511 104.435 19.5321 103.384 23.1401 103.49C24.4024 103.464 25.6648 103.561 26.9271 103.526C28.6281 103.464 30.3291 103.34 32.0391 103.314C34.5817 103.261 37.2317 103.093 39.1117 102.873C39.0849 103.411 39.5773 103.967 40.2129 103.826C42.2542 103.623 44.2506 102.996 46.0591 102.034C46.4709 101.822 46.8827 101.593 47.2856 101.363C47.5184 101.213 47.8048 101.134 47.966 100.895C48.1271 100.701 48.1898 100.489 48.1719 100.277C48.4494 100.092 48.718 99.9068 48.9776 99.6861C49.2373 99.4743 49.4521 99.1918 49.4432 98.8476C49.4521 98.2562 48.8344 97.7972 48.2614 97.9561L48.2435 97.9737Z" fill="black"/>
</g>
</g>
<defs>
<clipPath id="clip0_2906_16490">
<rect width="57.3476" height="29.0833" fill="white" transform="translate(131.621 8.354)"/>
</clipPath>
<clipPath id="clip1_2906_16490">
<rect width="44.504" height="22.252" fill="white" transform="translate(6.26953 81.7856)"/>
</clipPath>
</defs>
</svg>
