<svg xmlns="http://www.w3.org/2000/svg" width="256" height="256"><filter id="dropshadow" height="130%"><feGaussianBlur in="SourceAlpha" stdDeviation="2"/><feOffset dx="0" dy="1" result="offsetblur"/></filter><path d="M5,3l246,0l0,246l-246,0L5,3z" style="opacity:0.6;filter:url(#dropshadow)"/><path d="M5,3l246,0l0,246l-246,0L5,3z" style="fill:#fff"/><path d="M10.5,208c 47,-24 48,-24 106,-34c17,-10 95,20 130,30l0,40l-238,0L10,208z" style="fill:#a6d3fc"/><path d="M5,3l246,0l0,246l-246,0L5,3zm241,201c-2,0 -10,2 -16,6c0,4 0,6 -2,9c-8,-28 -35,-35 -55,-21l3,-9c-40,-30 -80,-12 -101,14c0,0 -1,-5 5,-14c-13,-6 -36,3 -42,11l8,7c-12,-5 -27,-1 -36,2L10,244L246,244l0,-39zM89,110l79,0l0,64l6,4l33,0L207,105C207,78 180,70 167,70L50,70l0,108l39,0l0,-68zm59,58l0,-38l-39,0l0,38c10,-3 26,-4 39,-1z" style="fill:#0080f5"/></svg>