<?xml version="1.0" encoding="utf-8"?>
<!-- Generator: Adobe Illustrator 23.1.0, SVG Export Plug-In . SVG Version: 6.00 Build 0)  -->
<svg version="1.1" id="Capa_1" xmlns="http://www.w3.org/2000/svg" xmlns:xlink="http://www.w3.org/1999/xlink" x="0px" y="0px"
	 viewBox="0 0 13.7 13.7" style="enable-background:new 0 0 13.7 13.7;" xml:space="preserve">
<style type="text/css">
	.st0{fill:#FFFFFF;}
</style>
<g>
	<path class="st0" d="M12.1,0c-0.2,0-0.4,0-0.5,0C11,0.1,10.3,0.3,9.7,0.6C9.2,0.8,8.6,1.4,8.2,1.4c-0.3,0-0.6-0.1-0.9-0.1
		C3.7,1,1.4,3.6,1,7.2c1.3-1.5,3-3.9,5-4.6c-2.9,2.1-5.5,5.6-5.6,8.7c0,0.2,0,0.4,0,0.5c0.2,1,0.6,1.7,1.6,1.8c0.2,0,0.3,0,0.5,0
		c1.4-0.2,2.4-0.8,3.4-1.5c3.7,0.5,6.1-1.2,6.9-3.9c-1.3,0-2.6,0-3.9,0c-0.4,2-4.1,1.5-3.6-0.8c2.5,0,5.1,0,7.6,0
		c0.2-3.6-1.6-5.3-4.2-6.1c0.8-0.5,3.2-1.9,4.2-0.7C13.3,1.3,13,2.4,12.9,3c0.2-0.4,0.2-0.9,0.4-1.3c0-0.2,0-0.4,0-0.5
		C13.2,0.5,12.7,0.1,12.1,0z M5.6,12.1c-0.7,0.5-3.2,1.7-4,0.5C1,11.8,1.7,10.6,2,9.9C2.8,11,4,11.8,5.6,12.1z M9,5.5l-3.7,0
		C5.2,3.3,9.3,3.1,9,5.5z"/>
</g>
</svg>
