<svg width="40.318" height="40.318" version="1.1" viewBox="0 0 40.318 40.318" xmlns="http://www.w3.org/2000/svg">
 <defs>
  <clipPath id="clipPath26">
   <path d="m49.999 100c-27.613 0-49.999-22.386-49.999-50 0-26.815 21.11-48.699 47.619-49.942 0.789-0.037 1.582-0.058 2.38-0.058 12.802 0 24.477 4.812 33.322 12.724-5.86-3.886-12.712-6.122-20.036-6.122-11.908 0-22.57 5.906-29.743 15.22-5.528 6.525-9.109 16.173-9.352 27-1e-3 0.027-1e-3 2.328 0 2.356 0.243 10.826 3.824 20.473 9.352 26.999 7.173 9.314 17.835 15.221 29.743 15.221 7.324 0 14.179-2.237 20.04-6.126-8.802 7.875-20.408 12.678-33.136 12.725-0.063 1e-3 -0.126 3e-3 -0.19 3e-3z"/>
  </clipPath>
  <linearGradient id="linearGradient40" x2="1" gradientTransform="matrix(0 -96.914 -96.914 0 41.662 98.37)" gradientUnits="userSpaceOnUse">
   <stop stop-color="#ff1b2d" offset="0"/>
   <stop stop-color="#ff1b2d" offset=".3"/>
   <stop stop-color="#ff1b2d" offset=".614"/>
   <stop stop-color="#a70014" offset="1"/>
  </linearGradient>
  <clipPath id="clipPath50">
   <path d="m33.542 78.177c4.587 5.415 10.515 8.681 16.989 8.681 14.555 0 26.354-16.502 26.354-36.859s-11.799-36.858-26.354-36.858c-6.474 0-12.402 3.266-16.989 8.681 7.173-9.314 17.835-15.22 29.743-15.22 7.324 0 14.176 2.236 20.036 6.122 10.235 9.156 16.679 22.462 16.679 37.276 0 14.812-6.442 28.116-16.675 37.272-5.861 3.889-12.716 6.126-20.04 6.126-11.908 0-22.57-5.907-29.743-15.221"/>
  </clipPath>
  <linearGradient id="linearGradient62" x2="1" gradientTransform="matrix(0 -85.716 -85.716 0 66.771 92.658)" gradientUnits="userSpaceOnUse">
   <stop stop-color="#9c0000" offset="0"/>
   <stop stop-color="#ff4b4b" offset=".7"/>
   <stop stop-color="#ff4b4b" offset="1"/>
  </linearGradient>
 </defs>
 <g transform="matrix(.40318 0 0 -.40318 0 40.318)">
  <g clip-path="url(#clipPath26)">
   <path d="m49.999 100c-27.613 0-49.999-22.386-49.999-50 0-26.815 21.11-48.699 47.619-49.942 0.789-0.037 1.582-0.058 2.38-0.058 12.802 0 24.477 4.812 33.322 12.724-5.86-3.886-12.712-6.122-20.036-6.122-11.908 0-22.57 5.906-29.743 15.22-5.528 6.525-9.109 16.173-9.352 27-1e-3 0.027-1e-3 2.328 0 2.356 0.243 10.826 3.824 20.473 9.352 26.999 7.173 9.314 17.835 15.221 29.743 15.221 7.324 0 14.179-2.237 20.04-6.126-8.802 7.875-20.408 12.678-33.136 12.725-0.063 1e-3 -0.126 3e-3 -0.19 3e-3z" fill="url(#linearGradient40)"/>
  </g>
  <g clip-path="url(#clipPath50)">
   <path d="m33.542 78.177c4.587 5.415 10.515 8.681 16.989 8.681 14.555 0 26.354-16.502 26.354-36.859s-11.799-36.858-26.354-36.858c-6.474 0-12.402 3.266-16.989 8.681 7.173-9.314 17.835-15.22 29.743-15.22 7.324 0 14.176 2.236 20.036 6.122 10.235 9.156 16.679 22.462 16.679 37.276 0 14.812-6.442 28.116-16.675 37.272-5.861 3.889-12.716 6.126-20.04 6.126-11.908 0-22.57-5.907-29.743-15.221" fill="url(#linearGradient62)"/>
  </g>
 </g>
</svg>
