<svg xmlns="http://www.w3.org/2000/svg" width="16.67" height="17.23" viewBox="0 0 16.67 17.23">
  <g id="Group_170" data-name="Group 170" transform="translate(-1012.499 -839)">
    <g id="double-up-arrow-button" transform="translate(1029.667 839.001) rotate(90)">
      <path id="Path_1712" data-name="Path 1712" d="M1.4,11.092A1.4,1.4,0,0,1,.41,8.7L8.614.5l8.2,8.2a1.4,1.4,0,0,1-1.981,1.982L8.614,4.462l-6.221,6.22A1.4,1.4,0,0,1,1.4,11.092Zm15.416,5.665a1.4,1.4,0,0,0,0-1.981l-8.2-8.2-8.2,8.2a1.4,1.4,0,0,0,1.982,1.982l6.22-6.221,6.221,6.221a1.4,1.4,0,0,0,1.982,0Z" fill="#fff"/>
    </g>
  </g>
</svg>
