<svg width="35px" height="41px" viewBox="0 0 35 41" xmlns="http://www.w3.org/2000/svg">
  <g stroke="none" stroke-width="1" fill="none" fill-rule="evenodd">
    <g transform="translate(-293, -1778)" fill-rule="nonzero">
      <g transform="translate(293, 1778)">
        <g fill="#767676">
          <path d="M2.61815988,13.6629594 C1.20431995,13.6629594 0.0581599974,14.8091193 0.0581599974,16.2229593 L0.0581599974,28.1695987 C0.0581599974,29.5834387 1.20431995,30.7295986 2.61815988,30.7295986 C4.03199982,30.7295986 5.17815977,29.5834387 5.17815977,28.1695987 L5.17815977,16.2229593 C5.17815977,14.8091193 4.03199982,13.6629594 2.61815988,13.6629594 Z"></path>
          <path d="M31.6314386,13.6629594 C30.2175986,13.6629594 29.0714387,14.8091193 29.0714387,16.2229593 L29.0714387,28.1695987 C29.0714387,29.5834387 30.2175986,30.7295986 31.6314386,30.7295986 C33.0452785,30.7295986 34.1914385,29.5834387 34.1914385,28.1695987 L34.1914385,16.2229593 C34.1914385,14.8091193 33.0453585,13.6629594 31.6314386,13.6629594 Z"></path>
          <path d="M26.5114388,13.6629594 L7.73815965,13.6629594 C7.26687968,13.6629594 6.88479961,14.0450394 6.88479961,14.5163194 L6.88479961,28.1695987 C6.88439969,30.1974387 8.31127963,31.9453586 10.2981595,32.3509586 L10.2981595,38.4095983 C10.2981595,39.8234382 11.4443195,40.9695982 12.8581594,40.9695982 C14.2719994,40.9695982 15.4181593,39.8234382 15.4181593,38.4095983 L15.4181593,32.4362385 L18.8315192,32.4362385 L18.8315192,38.4095983 C18.8315192,39.8234382 19.9776791,40.9695982      21.391519,40.9695982 C22.805359,40.9695982 23.9515189,39.8234382 23.9515189,38.4095983 L23.9515189,32.3509586 C25.9383988,31.9453586 27.3652788,30.1974387 27.3648789,28.1695987 L27.3648789,14.5163194 C27.3648789,14.0450394 26.9827188,13.6629594 26.5114388,13.6629594 Z"></path>
          <path d="M23.328559,3.54583984 L25.4089589,1.46711993 C25.7479188,1.13967995 25.7572788,0.599519973 25.4299189,0.260479988 C25.1024789,-0.0784799965 24.5623189,-0.0878399961 24.2232789,0.239519989 C24.2161589,0.246399989 24.2091989,0.253359989 24.2023189,0.260479988 L21.778879,2.68399988 C18.8107192,1.39463994 15.4405593,1.39463994 12.4723994,2.68399988 L10.0489596,0.258799988 C9.70999957,-0.0686399969 9.16975959,-0.0591999974 8.8423196,0.279759987 C8.52295962,0.610479973 8.52295962,1.13471995 8.8423196,1.46535993 L10.9210395,3.54575984 C8.38687963,5.22255977 6.86911969,8.06423964 6.88467937,11.1028795 C6.88467937,11.5741595 7.26687968,11.9562395 7.73815965,11.9562395 L26.5115188,11.9562395 C26.9827988,11.9562395 27.3649979,11.5741595 27.3649979,11.1028795 C27.3804788,8.06431964 25.8627188,5.22263977 23.328559,3.54583984 Z"></path>
        </g>
        <g transform="translate(11.999999, 6.8)" fill="#FAFAFA">
          <circle cx="0.858159962" cy="0.88959996" r="1"></circle>
          <circle cx="9.39143958" cy="0.88959996" r="1"></circle>
        </g>
      </g>
    </g>
  </g>
</svg>
