<svg xmlns="http://www.w3.org/2000/svg" viewBox="0 0 55.504 60"><defs><style>.a{fill:#7d7d7d;}</style></defs><g transform="translate(-10.214 0)"><g transform="translate(10.214 0)"><g transform="translate(0 0)"><path class="a" d="M31.654,14.8a16.013,16.013,0,0,0-4.007,9.217H48.886v-1.6A14.707,14.707,0,0,0,47.083,16a9.61,9.61,0,0,0-7.213-4.408,22.615,22.615,0,0,0-12.623,1.6,34.99,34.99,0,0,0-15.028,10.62c-.6.8-1.2,1.8-2,2.805a2.17,2.17,0,0,1,.2-1.2A29.63,29.63,0,0,1,17.027,9.988,27.948,27.948,0,0,1,52.493,3.776,24.759,24.759,0,0,1,63.714,17.2a35.579,35.579,0,0,1,2,10.219v7.414H28.047a11.724,11.724,0,0,0,3.006,8.015,15.459,15.459,0,0,0,8.816,4.408A30.294,30.294,0,0,0,59.907,43.45a.7.7,0,0,0,.4-.2h.2V55.272c0,.4-.2.6-.6.8A34.965,34.965,0,0,1,45.68,59.881a36.746,36.746,0,0,1-9.417-.4c-9.417-2-17.032-8.816-18.835-18.635-2-11.221,3.406-21.44,14.026-26.048Z" transform="translate(-10.214 0)"/></g></g></g></svg>