<?xml version="1.0" encoding="UTF-8"?>
<svg width="30px" height="30px" viewBox="0 0 30 30" version="1.1" xmlns="http://www.w3.org/2000/svg" xmlns:xlink="http://www.w3.org/1999/xlink">
    <!-- Generator: Sketch 45.1 (43504) - http://www.bohemiancoding.com/sketch -->
    <title>external-icon</title>
    <desc>Created with Sketch.</desc>
    <defs></defs>
    <g id="Page-1" stroke="none" stroke-width="1" fill="none" fill-rule="evenodd">
        <g id="external-icon" fill-rule="nonzero" fill="#FFFFFF">
            <path d="M28.6968293,0.125780488 C28.6539549,0.127210976 28.6110805,0.131495122 28.5696366,0.137213415 L19.5732951,0.137213415 C19.2674634,0.13292561 18.9716488,0.251542683 18.7544049,0.465910976 C18.5357488,0.681706098 18.4128476,0.974667073 18.4128476,1.28052073 C18.4128476,1.58637439 18.5357524,1.87931341 18.7544049,2.09513049 C18.9716305,2.30949878 19.2674415,2.42811585 19.5732951,2.42382805 L25.9600024,2.42382805 L11.9061,16.4777305 L11.9046732,16.4777305 C11.6831598,16.6906683 11.5573976,16.9836329 11.5545402,17.2909134 C11.5516793,17.598172 11.6717268,17.8939866 11.8889524,18.1098037 C12.106178,18.3270293 12.401989,18.4485037 12.7078427,18.4456463 C13.0151012,18.442789 13.3080622,18.3155963 13.5210256,18.0955134 L27.574928,4.04161098 L27.574928,10.4283183 L27.5763549,10.4268878 C27.5720671,10.7327195 27.6906841,11.0285341 27.9050524,11.245778 C28.1194207,11.4644341 28.4138085,11.5859085 28.7196622,11.5859085 C29.0255159,11.5859085 29.3184549,11.4644341 29.5328451,11.245778 C29.7486402,11.0285524 29.8672573,10.7327415 29.8629695,10.4268878 L29.8629695,1.42615976 C29.9087012,1.09174756 29.8058049,0.755915854 29.5814341,0.505818293 C29.3570634,0.25572439 29.0326537,0.115671951 28.6968,0.125659756 L28.6968293,0.125780488 Z" id="Shape"></path>
            <path d="M12.7134146,4.71036585 C9.85946341,4.71036585 7.70304878,4.70607805 5.985,4.9004378 C4.26695122,5.09479756 2.89097561,5.50351098 1.90756098,6.48816951 C0.924146341,7.47282805 0.519878049,8.8462061 0.326963049,10.5641451 C0.13403378,12.2819378 0.136891098,14.437072 0.136891098,17.2881695 C0.136891098,20.1392671 0.134033049,22.2959744 0.331250854,24.0136573 C0.528468293,25.73145 0.941495122,27.104828 1.92758049,28.0896329 C2.91366585,29.0728646 4.2870439,29.4815963 6.0035561,29.6745102 C7.71992195,29.86887 9.87062927,29.8645822 12.7133122,29.8645822 C15.5559951,29.8645822 17.7064829,29.8660112 19.4230683,29.6702224 C21.1396537,29.4744329 22.5156659,29.0642963 23.5005073,28.081028 C24.4865927,27.0963695 24.8953244,25.7229915 25.0925561,24.0050524 C25.2897732,22.2872598 25.2897732,20.133589 25.2897732,17.2883451 L25.2897732,17.2869146 C25.294061,16.9810829 25.1754439,16.6866951 24.9610756,16.4680244 C24.7452805,16.2507988 24.4523195,16.1278939 24.1464659,16.1278939 C23.8406122,16.1278939 23.5476732,16.2507988 23.3318561,16.4680244 C23.1174878,16.6866805 22.9988707,16.981061 23.0031585,17.2869146 C23.0031585,20.1308415 22.9931561,22.2515488 22.8216622,23.7449634 C22.6501683,25.238378 22.335772,26.0115366 21.8841622,26.4631463 C21.4325524,26.9147561 20.6593939,27.2291707 19.1659793,27.3992195 C17.6725646,27.5692683 15.5531744,27.5778585 12.7119549,27.5778585 C9.87073537,27.5778585 7.75134512,27.5707134 6.25793049,27.4020768 C4.76451585,27.2334402 3.99135732,26.9204671 3.53974756,26.4702841 C3.0881378,26.0201012 2.77229634,25.2469427 2.60224756,23.7521012 C2.43075366,22.2572598 2.42075122,20.1364427 2.42075122,17.2881988 C2.42075122,14.438528 2.42646585,12.3162476 2.59510244,10.8213695 C2.76230854,9.32652805 3.0767122,8.55479634 3.52404146,8.10604024 C3.97137073,7.65728415 4.74449268,7.34433293 6.23937073,7.17424756 C7.7342122,7.00561098 9.85788293,6.99846585 12.7105902,6.99846585 L12.7134476,6.99703902 C13.0192793,7.00132683 13.3150939,6.88270976 13.5323378,6.66834146 C13.7509939,6.45254634 13.8724683,6.15958537 13.8724683,5.85373171 C13.8724683,5.54787805 13.7509939,5.25493902 13.5323378,5.03912195 C13.3151122,4.82475366 13.0193012,4.70613659 12.7134476,4.71042439 L12.7134146,4.71036585 Z" id="Shape"></path>
        </g>
    </g>
</svg>