<svg viewBox="0 0 34 22" version="1.1" xmlns="http://www.w3.org/2000/svg">
  <g stroke="none" stroke-width="1" fill="none" fill-rule="evenodd">
    <g transform="translate(-890, -127)" fill="#000" fill-rule="nonzero">
      <g transform="translate(890, 127)">
        <path d="M28.0668859,3.42413574 L27.6283225,4.19463423 L17.7665088,4.19463423 L17.7665088,0.781948404 C17.7665088,0.350090225 17.4164186,2.21675616e-14 16.9845604,0 C16.5527022,7.93310605e-17 16.202612,0.350090225 16.202612,0.781948404 L16.202612,4.19463423 L16.202612,4.19463423 L6.1348064,4.19463423 L5.67709004,3.42334629 L0,13.4204853 C0.570679665,14.7451743 3.37873632,15.6467207 5.79044422,15.6467207 C8.20215212,15.6467207 11.0406971,14.745569 11.6117677,13.4204853 L7.07212821,5.7739193 L16.202612,5.7739193 L16.202612,22 L17.7665088,22 L17.7665088,5.7739193 L26.7316518,5.7739193 L22.3882323,13.4204853 C22.958912,14.7451743 25.7669686,15.6467207 28.1786765,15.6467207 C30.5903844,15.6467207 33.4293203,14.745569 34,13.4204853 L28.0668859,3.42413574 Z M8.85100708,11.8415949 L2.69861124,11.8415949 L5.70679665,6.54481251 L8.85100708,11.8415949 Z M25.0876253,11.8415949 L28.0958107,6.54481251 L31.2392394,11.8415949 L25.0876253,11.8415949 Z"></path>
      </g>
    </g>
  </g>
</svg>
