<svg xmlns="http://www.w3.org/2000/svg" width="41.011" height="39.809" viewBox="0 0 41.011 39.809">
  <g id="Group_172" data-name="Group 172" transform="translate(-312 -7)">
    <g id="Group_170" data-name="Group 170" transform="translate(312 7)">
      <g id="dl_button_firefox_color" transform="translate(0)">
        <g id="Group_169" data-name="Group 169" transform="translate(0 0)">
          <path id="Path_1715" data-name="Path 1715" d="M28.3,4.277a19.2,19.2,0,1,1-19.2,19.2A19.175,19.175,0,0,1,28.3,4.277Z" transform="translate(-7.824 -4.277)" fill="#2394bc"/>
          <path id="Path_1716" data-name="Path 1716" d="M23.808,60.116A20.509,20.509,0,0,0,40.961,39.892l-.128.256a13.451,13.451,0,0,0-.128-5.12,4.04,4.04,0,0,1-.512,2.048,12.138,12.138,0,0,0-.384-2.816,14.024,14.024,0,0,0-.768-3.328,4.8,4.8,0,0,1,.128,1.28c-1.536-3.968-5.12-8.96-14.208-8.832,0,0,3.2.384,4.608,2.56a4.209,4.209,0,0,0-2.688.256,20.06,20.06,0,0,1,3.712,1.792h.128c.256.128.512.384.768.512,1.92,1.408,3.712,3.328,3.584,5.76a2.732,2.732,0,0,0-1.792-1.408,15.979,15.979,0,0,1,.256,8.448,7.271,7.271,0,0,0-1.28-2.688c.512,4.608-.128,7.936-2.176,10.112a11.718,11.718,0,0,0,.512-3.328c-2.432,3.584-5.12,5.5-8.192,5.632a10.781,10.781,0,0,1-3.456-.512,10.776,10.776,0,0,1-4.224-2.688A9.46,9.46,0,0,0,20.1,46.8l2.56-1.664h0a1.414,1.414,0,0,1,1.024,0c.64-.128.9-.384.64-1.024a4.516,4.516,0,0,0-1.408-1.152,4,4,0,0,0-4.1.384,3.464,3.464,0,0,1-3.968-.128,10.072,10.072,0,0,1-2.432-2.3L12.16,40.4a10.748,10.748,0,0,0,.512,4.224h0A10.516,10.516,0,0,1,12.16,40.4h0c0-.9.384-1.536,1.152-1.536h.128a15.4,15.4,0,0,1,2.944.64,4.743,4.743,0,0,0-.768-3.328h0A10.639,10.639,0,0,1,18.3,34.131c.384-.128.512-.512.64-.9h0a.75.75,0,0,0-.128-1.024,12.423,12.423,0,0,1-2.176-.128h0a8.67,8.67,0,0,1-1.152-.768l-1.152-1.152-.384-.256h0l-.128-.128.128-.128a6.117,6.117,0,0,1,.768-2.3l.128-.128a8.516,8.516,0,0,1,2.176-2.048,9.725,9.725,0,0,0-5.5,2.688,7.077,7.077,0,0,0-4.736.512l-.256.128h0l.256-.128h0q-1.728-.768-2.3-4.608C2.944,25.171,2.3,27.859,2.3,31.572l-.384.64-.128.128h0c-.256.384-.512.9-.9,1.536a5.724,5.724,0,0,0-.768,2.56h0v.256h0V37.2l1.152-.9a17.2,17.2,0,0,0-.9,3.456v.512L0,39.892A20.748,20.748,0,0,0,3.712,51.668l.128.128.128.128a21.334,21.334,0,0,0,6.4,5.76,22.6,22.6,0,0,0,5.76,2.3l.384.128c.384.128.9.128,1.28.256.384,0,.64.128,1.024.128h3.072c.512,0,1.024-.128,1.536-.128C23.424,60.116,23.808,60.116,23.808,60.116Zm12.928-24.96v0Z" transform="translate(0 -20.691)" fill="#ec8840"/>
        </g>
      </g>
    </g>
  </g>
</svg>
