<svg xmlns="http://www.w3.org/2000/svg" viewBox="0 0 60 58.241"><defs><style>.a{fill:#7d7d7d;}.b{fill:#b5b5b5;}</style></defs><g transform="translate(0 -4.277)"><g transform="translate(0 4.277)"><path class="a" d="M37.194,4.277A28.09,28.09,0,1,1,9.1,32.367,28.053,28.053,0,0,1,37.194,4.277Z" transform="translate(-7.231 -4.277)"/><path class="b" d="M34.832,77.127A30,30,0,0,0,59.926,47.538l-.187.375a19.679,19.679,0,0,0-.187-7.491c-.187,1.685-.375,2.622-.749,3a17.758,17.758,0,0,0-.562-4.12,20.518,20.518,0,0,0-1.124-4.869A7.028,7.028,0,0,1,57.3,36.3C55.057,30.5,49.814,23.193,36.518,23.38c0,0,4.682.562,6.742,3.745a6.158,6.158,0,0,0-3.933.375,29.349,29.349,0,0,1,5.431,2.622h.187c.375.187.749.562,1.124.749,2.809,2.06,5.431,4.869,5.243,8.427a4,4,0,0,0-2.622-2.06C50,42.294,50,46.414,49.064,49.6c-.749-2.247-1.311-3.371-1.873-3.933.749,6.742-.187,11.611-3.184,14.794a17.144,17.144,0,0,0,.749-4.869c-3.558,5.243-7.491,8.053-11.985,8.24a15.774,15.774,0,0,1-5.056-.749,15.766,15.766,0,0,1-6.18-3.933,13.84,13.84,0,0,0,7.865-1.5l3.745-2.435h0a2.069,2.069,0,0,1,1.5,0c.936-.187,1.311-.562.936-1.5a6.607,6.607,0,0,0-2.06-1.685,5.845,5.845,0,0,0-5.993.562,5.067,5.067,0,0,1-5.805-.187,14.735,14.735,0,0,1-3.558-3.371l-.375-.749a15.725,15.725,0,0,0,.749,6.18h0a15.385,15.385,0,0,1-.749-6.18h0c0-1.311.562-2.247,1.685-2.247h.187a22.532,22.532,0,0,1,4.307.936,6.939,6.939,0,0,0-1.124-4.869h0a15.565,15.565,0,0,1,3.933-3c.562-.187.749-.749.936-1.311h0a1.1,1.1,0,0,0-.187-1.5,18.175,18.175,0,0,1-3.184-.187h0a12.685,12.685,0,0,1-1.685-1.124l-1.685-1.685-.562-.375h0l-.187-.187.187-.187a8.949,8.949,0,0,1,1.124-3.371L21.723,29a12.459,12.459,0,0,1,3.184-3,14.228,14.228,0,0,0-8.053,3.933,10.354,10.354,0,0,0-6.929.749l-.375.187h0l.375-.187h0Q7.4,29.561,6.554,23.942C4.307,26,3.371,29.935,3.371,35.366l-.562.936-.187.187h0c-.375.562-.749,1.311-1.311,2.247A8.374,8.374,0,0,0,.187,42.482h0v.375h0v.749l1.685-1.311A25.159,25.159,0,0,0,.562,47.351V48.1L0,47.538A30.355,30.355,0,0,0,5.431,64.767l.187.187.187.187a31.211,31.211,0,0,0,9.364,8.427A33.06,33.06,0,0,0,23.6,76.939l.562.187c.562.187,1.311.187,1.873.375.562,0,.936.187,1.5.187h4.494c.749,0,1.5-.187,2.247-.187C34.27,77.127,34.832,77.127,34.832,77.127ZM53.746,40.609v0Z" transform="translate(0 -19.448)"/></g></g></svg>