<svg width="192" height="127" viewBox="0 0 192 127" fill="none" xmlns="http://www.w3.org/2000/svg">
<path d="M43.171 93.4836L148.828 93.4836V20.334L43.171 20.334L43.171 93.4836Z" fill="white"/>
<path d="M148.829 94.1629H43.1715C42.801 94.1629 42.5 93.8619 42.5 93.4915V20.3419C42.5 19.9714 42.801 19.6704 43.1715 19.6704H148.829C149.199 19.6704 149.5 19.9714 149.5 20.3419V93.4915C149.5 93.8619 149.199 94.1629 148.829 94.1629ZM43.8429 92.82H148.157V21.0133H43.8429V92.82Z" fill="black"/>
<path d="M43.171 26.8789L148.828 26.8789V17.2239L43.171 17.2239V26.8789Z" fill="white"/>
<path d="M148.829 27.5504H43.1715C42.801 27.5504 42.5 27.2494 42.5 26.8789V17.2239C42.5 16.8535 42.801 16.5525 43.1715 16.5525H148.829C149.199 16.5525 149.5 16.8535 149.5 17.2239V26.8789C149.5 27.2494 149.199 27.5504 148.829 27.5504ZM43.8429 26.2075H148.157V17.8954H43.8429V26.2075Z" fill="black"/>
<path d="M119.587 22.7191H114.015C113.645 22.7191 113.344 22.4181 113.344 22.0477C113.344 21.6772 113.645 21.3762 114.015 21.3762H119.587C119.958 21.3762 120.259 21.6772 120.259 22.0477C120.259 22.4181 119.958 22.7191 119.587 22.7191Z" fill="black"/>
<path d="M130.892 22.7191H125.32C124.949 22.7191 124.648 22.4181 124.648 22.0477C124.648 21.6772 124.949 21.3762 125.32 21.3762H130.892C131.263 21.3762 131.564 21.6772 131.564 22.0477C131.564 22.4181 131.263 22.7191 130.892 22.7191Z" fill="black"/>
<path d="M142.201 22.7191H136.628C136.258 22.7191 135.957 22.4181 135.957 22.0477C135.957 21.6772 136.258 21.3762 136.628 21.3762H142.201C142.571 21.3762 142.872 21.6772 142.872 22.0477C142.872 22.4181 142.571 22.7191 142.201 22.7191Z" fill="black"/>
<path d="M99.3384 85.681L107.056 83.5123L103.946 73.2475L97.2083 75.4163L92.7783 68.887L96.4983 62.4503L87.1442 58.2595L84.196 65.522L76.293 65.6223L73.1364 59.2937L63.5663 64.6113L67.5564 70.3302L62.2697 76.5276L57.0679 74.7834L54.3203 86.0669L60.4637 87.3172L63.1264 94.5951L58.4725 99.5036L66.3524 106.473L70.111 101.31L77.358 102.815L78.0989 109.745L87.7462 109.135L86.8201 102.83L92.431 99.2026L97.7485 104.08L104.988 95.2125L98.5744 91.4771L99.3461 85.6655L99.3384 85.681ZM80.6844 90.8442C76.9181 90.8442 73.8619 87.7879 73.8619 84.0216C73.8619 80.2553 76.9181 77.1991 80.6844 77.1991C84.4507 77.1991 87.507 80.2553 87.507 84.0216C87.507 87.7879 84.4507 90.8442 80.6844 90.8442Z" fill="white"/>
<path d="M73.125 59.4487L63.75 64.6987L67.5 70.4487L62.125 76.4487L57.125 75.3237L54.375 86.1987L60.375 87.3237L63 95.1987L58.5 99.4487L66.5 106.074L70.25 101.324L77.25 102.824L78.375 109.449L87.25 108.824V102.824L92.875 99.4487L97.875 103.949L104.625 95.1987L98.5 91.5737L99.375 85.5737L107 83.4487L103.875 73.4487L97.25 75.3237L92.875 68.8237L96.375 62.5737L87.25 58.5737L84 65.6987H76.375L73.125 59.4487Z" fill="#FFAE00" stroke="black"/>
<circle cx="81.0625" cy="84.1362" r="6.6875" fill="white"/>
<path d="M78.1003 110.448C77.7607 110.448 77.4675 110.193 77.4366 109.846L76.7497 103.401L70.4057 102.081L66.9018 106.89C66.7937 107.044 66.6162 107.144 66.431 107.16C66.2457 107.183 66.0528 107.121 65.9139 106.998L58.034 100.028C57.895 99.905 57.8179 99.7352 57.8102 99.5577C57.8024 99.3725 57.8719 99.1949 57.9954 99.0637L62.3637 94.4562L59.9711 87.9192L54.1905 86.7384C54.013 86.6998 53.8586 86.5917 53.7583 86.4374C53.658 86.283 53.6271 86.0978 53.6734 85.9203L56.4209 74.6368C56.4673 74.4516 56.583 74.2972 56.7451 74.2046C56.9072 74.112 57.1078 74.0966 57.2853 74.1583L62.0627 75.7559L66.7165 70.2994L63.0197 65.005C62.9116 64.8506 62.873 64.6577 62.9194 64.4724C62.9657 64.2872 63.0814 64.1251 63.2512 64.0402L72.8213 58.7226C72.9834 58.63 73.1686 58.6146 73.3461 58.6686C73.5237 58.7226 73.6703 58.8461 73.7475 59.0082L76.7111 64.9587L83.7421 64.866L86.5282 58.0126C86.5977 57.8428 86.7289 57.7116 86.8987 57.6421C87.0684 57.5727 87.2537 57.5804 87.4235 57.6499L96.7775 61.8406C96.9473 61.9178 97.0862 62.0645 97.1402 62.2497C97.202 62.4272 97.1788 62.6279 97.0862 62.7899L93.5746 68.8639L97.4875 74.6291L103.747 72.6147C103.916 72.5607 104.102 72.5761 104.264 72.661C104.426 72.7459 104.542 72.8926 104.596 73.0624L107.706 83.3271C107.76 83.4969 107.737 83.6898 107.652 83.8442C107.567 84.0063 107.42 84.122 107.243 84.1683L99.9572 86.2136L99.3089 91.1452L105.337 94.6569C105.506 94.7572 105.622 94.927 105.661 95.1199C105.699 95.3129 105.645 95.5135 105.522 95.6679L98.2825 104.536C98.1667 104.682 97.9969 104.767 97.8117 104.783C97.6264 104.798 97.4489 104.736 97.31 104.605L92.3783 100.082L87.5624 103.193L88.4268 109.074C88.4577 109.259 88.4036 109.452 88.2801 109.591C88.1644 109.738 87.9869 109.83 87.8016 109.838L78.1544 110.448C78.1544 110.448 78.1235 110.448 78.108 110.448H78.1003ZM70.1201 100.669C70.1664 100.669 70.2127 100.669 70.259 100.684L77.5061 102.189C77.7916 102.251 78.0077 102.483 78.0386 102.776L78.71 109.066L86.9836 108.549L86.1655 102.961C86.1269 102.699 86.2426 102.444 86.4665 102.298L92.0773 98.6701C92.332 98.5081 92.6716 98.5312 92.8954 98.7396L97.6882 103.131L103.978 95.4209L98.2439 92.0791C98.0123 91.9402 97.8811 91.6778 97.9197 91.4077L98.6915 85.5961C98.7301 85.3337 98.9153 85.1099 99.1777 85.0404L106.232 83.057L103.515 74.1043L97.4258 76.0646C97.1402 76.1572 96.8315 76.0492 96.6617 75.8022L92.2317 69.2729C92.085 69.0568 92.0773 68.779 92.2085 68.5629L95.5581 62.7745L87.5161 59.1703L84.8226 65.7922C84.7222 66.0391 84.4753 66.2089 84.2128 66.2089L76.3098 66.3093H76.3021C76.0474 66.3093 75.8159 66.1626 75.7001 65.9388L72.8599 60.2353L64.5478 64.8506L68.1135 69.9598C68.291 70.2068 68.2755 70.5464 68.0749 70.7779L62.7882 76.9753C62.6106 77.1837 62.3251 77.2609 62.0627 77.176L57.5555 75.6633L55.1475 85.5575L60.6117 86.6689C60.8433 86.7152 61.0285 86.8773 61.1057 87.0934L63.7683 94.3713C63.8532 94.6106 63.7992 94.8807 63.6217 95.0659L59.4463 99.4728L66.2535 105.493L69.5798 100.931C69.711 100.754 69.9117 100.654 70.1201 100.654V100.669ZM80.6858 91.5234C76.549 91.5234 73.1841 88.1584 73.1841 84.0217C73.1841 79.8849 76.549 76.52 80.6858 76.52C84.8226 76.52 88.1875 79.8849 88.1875 84.0217C88.1875 88.1584 84.8226 91.5234 80.6858 91.5234ZM80.6858 77.8706C77.29 77.8706 74.5347 80.6336 74.5347 84.0294C74.5347 87.4253 77.2977 90.1882 80.6858 90.1882C84.0739 90.1882 86.8446 87.4253 86.8446 84.0294C86.8446 80.6336 84.0816 77.8706 80.6858 77.8706Z" fill="black"/>
<g opacity="0.13">
<path d="M67.6265 103.571C67.364 102.691 66.3839 102.344 65.7433 101.78C65.5349 101.595 64.4236 100.823 63.2736 99.789C62.5404 99.1793 61.977 98.2841 61.1203 97.8519C59.6076 97.1573 58.257 99.187 59.4378 100.345C61.5216 102.467 63.0652 103.586 64.848 104.898C65.2725 105.122 65.0487 105.361 66.1523 105.508C67.1325 105.531 67.8966 104.512 67.6265 103.571V103.571Z" fill="black"/>
</g>
<g opacity="0.13">
<path d="M86.5224 106.843C86.3063 106.743 85.7583 106.828 85.5962 106.867C84.6392 106.928 83.6745 106.921 82.7252 106.828C81.7913 106.735 80.8498 106.712 79.9159 106.635C79.4374 106.612 78.9203 106.442 78.4727 106.689C76.8674 107.299 77.3845 109.768 79.0901 109.753C80.6105 109.931 82.1464 109.83 83.6745 109.815C84.4 109.838 85.1254 109.838 85.8509 109.784C86.2059 109.784 86.5764 109.768 86.8851 109.568C88.0119 108.927 87.7881 107.16 86.5301 106.836L86.5224 106.843Z" fill="black"/>
</g>
<g opacity="0.13">
<path d="M101.425 94.5643C100.082 96.7331 97.8359 99.3803 97.2802 100.337C96.9407 100.839 96.3078 101.117 96.0994 101.696C95.4588 103.077 97.3266 104.32 98.3839 103.239C99.4798 102.336 100.491 100.569 100.746 100.353C101.61 99.2954 102.436 98.2072 103.2 97.0726C103.493 96.5478 104.033 96.1002 104.095 95.4828C104.357 93.9546 102.197 93.2214 101.432 94.5643H101.425Z" fill="black"/>
</g>
<path d="M84.3688 41.3268H57.7886C57.4182 41.3268 57.1172 41.0258 57.1172 40.6553C57.1172 40.2849 57.4182 39.9839 57.7886 39.9839H84.3688C84.7393 39.9839 85.0403 40.2849 85.0403 40.6553C85.0403 41.0258 84.7393 41.3268 84.3688 41.3268Z" fill="black"/>
<path d="M140.186 74.4518H120.043C119.672 74.4518 119.371 74.1508 119.371 73.7803C119.371 73.4099 119.672 73.1089 120.043 73.1089H140.186C140.557 73.1089 140.858 73.4099 140.858 73.7803C140.858 74.1508 140.557 74.4518 140.186 74.4518Z" fill="black"/>
<path d="M74.8456 51.4371H57.8355C57.4651 51.4371 57.1641 51.1361 57.1641 50.7657C57.1641 50.3952 57.4651 50.0942 57.8355 50.0942H74.8456C75.2161 50.0942 75.5171 50.3952 75.5171 50.7657C75.5171 51.1361 75.2161 51.4371 74.8456 51.4371Z" fill="black"/>
<path d="M138.424 37.2207H107.984V60.05H138.424V37.2207Z" fill="white"/>
<path d="M138.423 60.7216H107.984C107.613 60.7216 107.312 60.4206 107.312 60.0501V37.2208C107.312 36.8503 107.613 36.5493 107.984 36.5493H138.423C138.794 36.5493 139.095 36.8503 139.095 37.2208V60.0501C139.095 60.4206 138.794 60.7216 138.423 60.7216ZM108.655 59.3787H137.752V37.8922H108.655V59.3787Z" fill="black"/>
<g opacity="0.13">
<path d="M148.181 27.2725H42.5234V30.4059H148.181V27.2725Z" fill="black"/>
</g>
</svg>
