<svg xmlns="http://www.w3.org/2000/svg" width="18.309" height="18.309" viewBox="0 0 18.309 18.309">
  <g id="Group_171" data-name="Group 171" transform="translate(-1227.667 -681)">
    <g id="close-button" transform="translate(1227.667 681)">
      <path id="Path_1711" data-name="Path 1711" d="M15.631,2.678a9.159,9.159,0,1,0,0,12.953A9.169,9.169,0,0,0,15.631,2.678ZM12.766,12.766a.7.7,0,0,1-1,0L9.154,10.151l-2.74,2.74a.7.7,0,1,1-1-1l2.74-2.74L5.543,6.539a.7.7,0,0,1,1-1L9.154,8.158l2.491-2.491a.7.7,0,0,1,1,1L10.151,9.154l2.616,2.616A.7.7,0,0,1,12.766,12.766Z" transform="translate(0 0)" fill="#fff"/>
    </g>
  </g>
</svg>
