<svg xmlns="http://www.w3.org/2000/svg" xmlns:xlink="http://www.w3.org/1999/xlink" width="1746.086" height="1893.53" viewBox="0 0 1746.086 1893.53">
  <defs>
    <linearGradient id="linear-gradient" x1="0.5" x2="0.5" y2="1" gradientUnits="objectBoundingBox">
      <stop offset="0" stop-color="#fff"/>
      <stop offset="1" stop-color="#7a7a7a"/>
    </linearGradient>
    <clipPath id="clip-path">
      <path id="Path_1507" data-name="Path 1507" d="M1048.638,315.936C782.264,200.592,669.541-178.6,241.4,65.43-143.92,285.054-57.034,683.635,253.443,833.865c-1.205,4.719,58.909,229.069,61.746,230.438C712.1,1164.109,1281.046,891.5,1434.885,674.74,1697.752,304.354,1227.333,393.309,1048.638,315.936Z" transform="translate(0 0)" fill="none"/>
    </clipPath>
    <linearGradient id="linear-gradient-2" x1="0.533" y1="0.208" x2="0.628" y2="0.931" gradientUnits="objectBoundingBox">
      <stop offset="0" stop-color="#e8e8e8"/>
      <stop offset="1" stop-color="#8f8f8f"/>
    </linearGradient>
  </defs>
  <g id="Group_167" data-name="Group 167" transform="translate(-653.568 471.055)">
    <g id="Hero_Bubble" data-name="Hero Bubble" transform="matrix(0.695, 0.719, -0.719, 0.695, 684.044, -949.28)">
      <path id="Path_1505" data-name="Path 1505" d="M1048.639,315.935C782.267,200.592,669.546-178.6,241.405,65.429-143.482,284.809-57.216,682.747,252.322,833.314c-.608,3.282,21.867,221.15,61.958,231.23,165.909,41.719,430.728,104.422,614.571,47.069,254.746-79.471,416.5-310.723,506.034-436.875C1697.749,304.353,1227.333,393.308,1048.639,315.935Z" transform="matrix(-0.966, -0.259, 0.259, -0.966, 2188.991, 1118.482)" fill="url(#linear-gradient)"/>
      <g id="Group_115" data-name="Group 115" transform="matrix(-0.966, -0.259, 0.259, -0.966, 2188.991, 1118.48)" clip-path="url(#clip-path)">
        <path id="Path_1506" data-name="Path 1506" d="M-15.838,469.16s100.43-118.872,483.607-48.616,613.638-9.64,583.451-452.317c0,0,540.978,38.609,459.545,335.042-52.675,191.742-308.1,510.447-638.984,566.638s-644.037-63.834-642.794-68.422C225.616,798.133-13.531,468.542-15.838,469.16Z" transform="translate(83.897 263.435)" fill="url(#linear-gradient-2)"/>
      </g>
    </g>
  </g>
</svg>
