<svg width="351px" height="335px" viewBox="0 0 351 335" xmlns="http://www.w3.org/2000/svg">
  <g stroke="none" stroke-width="1" fill="none" fill-rule="evenodd">
    <g transform="translate(-136, -2039)">
      <g transform="translate(140, 2043)">
        <g transform="translate(57.799997, 25.199998)">
          <circle stroke="#FFF" stroke-width="5.5999999" fill="#0FD40A" cx="113.399998" cy="113.399998" r="113.399998"></circle>
          <path d="M146.074653,86.8000015 C144.206124,86.8000015 142.513349,87.8776682 141.801088,89.5250848 C141.084202,91.1769182 141.481958,93.0760848 142.804728,94.3392515 L148.784944,100.050002 L129.886907,118.096502 L114.656551,103.552418 C113.144153,102.099335 110.766867,101.847585 108.95384,102.920835 L60.3906036,131.629168 C58.2168207,132.914418 57.5508106,135.635085 58.8920809,137.706502 C59.7662192,139.058002 61.2786171,139.800002 62.8280156,139.800002 C63.6605282,139.800002 64.4976659,139.588002 65.2561774,139.137502 L110.702116,112.270918 L126.612358,127.464252 C128.42076,129.191168 131.343804,129.191168 133.152207,127.464252 L155.324793,106.295168 L161.305009,112.005918 C162.188397,112.849502 163.372415,113.300002 164.574933,113.300002 C165.171567,113.300002 165.772826,113.189585 166.346335,112.964335 C168.076111,112.279752 169.200003,110.667668 169.200003,108.883335 L169.200003,91.2166682 C169.200003,88.7786682 167.132597,86.8000015 164.574933,86.8000015 L146.074653,86.8000015 Z" fill="#FFF" fill-rule="nonzero"></path>
        </g>
        <g transform="translate(0, 176)">
          <circle stroke="#FFF" stroke-width="6.04799998" fill="#FFE456" cx="75.5999997" cy="75.5999997" r="75.5999997"></circle>
          <g transform="translate(31.000006, 30.800004)" fill-rule="nonzero">
            <path d="M61.4033988,5.39999989 L84.5999983,28.5965994 L84.5999983,61.4033988 L61.4033988,84.5999983 L28.5965994,84.5999983 L5.39999989,61.4033988 L5.39999989,28.5965994 L28.5965994,5.39999989 L61.4033988,5.39999989 M63.6389987,0 L26.3609995,0 L0,26.3609995 L0,63.6389987 L26.3609995,90 L63.6389987,90 L90,63.6389987 L90,26.3609995 L63.6389987,0 Z" fill="#0FD40A"></path>
            <polygon fill="#0FD40A" points="28.0961994 41.3045992 38.3903992 47.0699991 60.1595988 29.9411994 67.2191987 33.0083993 38.3057992 60.9911988 22.7807995 45.4661991"></polygon>
            <polygon fill="#000" points="69.0587986 34.8479993 67.2191987 33.0083993 38.3057992 60.9911988 40.1453992 62.8307988"></polygon>
            <path d="M61.4033988,5.39999989 L84.5999983,28.5965994 L84.5999983,61.4033988 L61.4033988,84.5999983 L28.5965994,84.5999983 L5.39999989,61.4033988 L5.39999989,28.5965994 L28.5965994,5.39999989 L61.4033988,5.39999989 M63.6389987,0 L26.3609995,0 L0,26.3609995 L0,63.6389987 L26.3609995,90 L63.6389987,90 L90,63.6389987 L90,26.3609995 L63.6389987,0 Z" fill="#0FD40A"></path>
          </g>
        </g>
        <circle stroke="#FFF" stroke-width="6.04799998" fill="#EBEBEB" cx="38.5999997" cy="71.5999997" r="19.5999997"></circle>
        <circle stroke="#FFF" stroke-width="6.04799998" fill="#EBEBEB" cx="300.999999" cy="274.999999" r="41.9999993"></circle>
        <circle stroke="#FFF" stroke-width="6.04799998" fill="#EBEBEB" cx="258.6" cy="12.5999998" r="12.5999998"></circle>
      </g>
    </g>
  </g>
</svg>
