<svg width="193" height="185" viewBox="0 0 193 185" fill="none" xmlns="http://www.w3.org/2000/svg">
<path d="M140.661 127.36C139.596 126.795 139.497 125.622 140.466 125.062L179.079 102.769C179.689 102.417 180.551 102.425 181.214 102.789L189.951 107.588C190.997 108.163 191.078 109.326 190.11 109.877L151.354 131.932C150.753 132.275 149.912 132.27 149.255 131.922L140.661 127.36Z" fill="#333333" fill-opacity="0.1"/>
<path d="M73.7743 177.244C72.7096 176.679 72.6101 175.506 73.5795 174.946L112.192 152.653C112.803 152.301 113.664 152.309 114.327 152.673L123.064 157.473C124.111 158.047 124.192 159.21 123.224 159.761L84.4675 181.817C83.8663 182.159 83.0249 182.155 82.368 181.806L73.7743 177.244Z" fill="#333333" fill-opacity="0.1"/>
<path d="M2.54998 176.104C1.35806 175.589 1.17149 174.326 2.19968 173.732L54.3394 143.629C54.9015 143.305 55.6823 143.284 56.327 143.576L65.8852 147.903C67.0531 148.432 67.2165 149.681 66.1942 150.264L13.9256 180.116C13.3747 180.431 12.6155 180.456 11.9793 180.181L2.54998 176.104Z" fill="#333333" fill-opacity="0.1"/>
<path d="M8.17749 63.5245C8.17754 60.6913 10.1058 57.3754 12.5143 56.0667L74.6958 22.279C75.5541 21.8127 76.3986 21.6477 77.1264 21.8042L81.2766 22.6965C82.5974 22.9805 83.386 24.2874 83.3526 26.1367L82.0973 95.5184C82.0473 98.2852 80.197 101.473 77.8683 102.805L56.8931 114.799C56.0193 115.298 55.1765 116.085 54.4711 117.061L38.4622 139.195C37.6295 140.346 36.4855 140.886 35.7058 140.496L32.6488 138.968C32.1649 138.726 31.8869 138.154 31.8869 137.401L31.8869 132.752C31.8869 131.341 30.9303 130.685 29.731 131.274L15.0241 138.499C14.0578 138.974 13.126 139.059 12.3714 138.742L9.83507 137.675C8.78645 137.234 8.17607 136.058 8.1761 134.478L8.17749 63.5245Z" fill="#FF9C00"/>
<path d="M11.7065 65.2972C11.7065 62.468 13.6293 59.1566 16.0344 57.8441L79.2108 23.3655C81.6895 22.0127 83.7273 23.2978 83.7273 26.2137L83.7273 97.2292C83.7273 100.024 81.8493 103.297 79.4746 104.641L54.2596 118.906C53.8424 119.142 53.4383 119.51 53.094 119.967L38.5211 139.306C37.0538 141.253 35.0596 141.056 35.0596 138.964L35.0596 131.097C35.0596 129.646 34.05 129.002 32.8164 129.665L16.1927 138.605C13.7254 139.931 11.7061 138.642 11.7061 135.74L11.7065 65.2972Z" fill="#FFCA00"/>
<path d="M35.9133 63.8609C36.6799 62.6767 37.5086 61.5045 38.3995 60.3442C39.311 59.172 40.2848 58.0476 41.3207 56.9711C42.3565 55.8707 43.4649 54.848 44.6459 53.903C45.8475 52.9222 47.1423 52.0311 48.5304 51.2297C50.4779 50.1053 52.2285 49.3936 53.7824 49.0945C55.3569 48.7835 56.6932 48.8733 57.7913 49.3637C58.8893 49.8302 59.7284 50.6854 60.3085 51.9294C60.9093 53.1375 61.2097 54.6985 61.2097 56.6123C61.2097 58.4543 60.9922 60.1588 60.5571 61.7258C60.122 63.2927 59.5626 64.764 58.8789 66.1395C58.216 67.5031 57.4805 68.777 56.6725 69.9612C55.8852 71.1095 55.129 72.2039 54.4039 73.2446C53.6995 74.2733 53.078 75.2421 52.5393 76.1512C52.0214 77.0483 51.7002 77.9036 51.5759 78.7169L50.7058 84.2431L44.1176 88.0468L43.4339 82.6642C43.4132 82.5326 43.3924 82.401 43.3717 82.2695C43.3717 82.1259 43.3717 81.9824 43.3717 81.8389C43.3717 80.7862 43.5893 79.7396 44.0243 78.699C44.4594 77.6583 45.0084 76.6237 45.6714 75.595C46.3344 74.5424 47.0491 73.4958 47.8157 72.4551C48.5822 71.3906 49.297 70.32 49.96 69.2435C50.6229 68.1431 51.1719 67.0366 51.607 65.9242C52.0421 64.7879 52.2596 63.6217 52.2596 62.4255C52.2596 60.9901 51.8453 60.093 51.0166 59.7342C50.2086 59.3395 49.0898 59.5548 47.6603 60.3801C46.5622 61.0141 45.6403 61.6779 44.8945 62.3717C44.1693 63.0535 43.5375 63.7173 42.9988 64.3633C42.4809 64.9733 42.0251 65.5235 41.6314 66.0139C41.2378 66.5043 40.8442 66.8632 40.4505 67.0905C39.5597 67.6048 38.8967 67.545 38.4616 66.911L35.9133 63.8609ZM41.6314 102.436C41.6314 101.575 41.7661 100.696 42.0354 99.7989C42.3255 98.8898 42.7087 98.0226 43.1853 97.1973C43.6825 96.36 44.2626 95.5945 44.9255 94.9007C45.5885 94.183 46.3136 93.5969 47.1009 93.1424C47.8675 92.6998 48.5822 92.4546 49.2452 92.4067C49.9082 92.335 50.4883 92.4307 50.9855 92.6938C51.4827 92.957 51.866 93.3816 52.1353 93.9677C52.4254 94.5419 52.5704 95.2595 52.5704 96.1208C52.5704 96.982 52.4254 97.8791 52.1353 98.8121C51.866 99.7092 51.4827 100.576 50.9855 101.414C50.4883 102.251 49.9082 103.016 49.2452 103.71C48.5822 104.404 47.8675 104.972 47.1009 105.415C46.3136 105.869 45.5885 106.132 44.9255 106.204C44.2626 106.276 43.6825 106.18 43.1853 105.917C42.7087 105.642 42.3255 105.217 42.0354 104.643C41.7661 104.033 41.6314 103.298 41.6314 102.436Z" fill="#FF9C00"/>
<path d="M38.167 64.5048C38.9335 63.3207 39.7623 62.1484 40.6531 60.9882C41.5647 59.816 42.5384 58.6916 43.5743 57.6151C44.6102 56.5146 45.7186 55.4919 46.8995 54.547C48.1011 53.5661 49.396 52.675 50.7841 51.8736C52.7316 50.7492 54.4822 50.0375 56.036 49.7385C57.6106 49.4275 58.9469 49.5172 60.0449 50.0076C61.143 50.4741 61.982 51.3294 62.5621 52.5733C63.1629 53.7814 63.4634 55.3424 63.4634 57.2562C63.4634 59.0983 63.2458 60.8028 62.8107 62.3697C62.3757 63.9367 61.8163 65.4079 61.1326 66.7835C60.4696 68.1471 59.7342 69.421 58.9262 70.6051C58.1389 71.7534 57.3827 72.8479 56.6576 73.8885C55.9532 74.9172 55.3316 75.8861 54.793 76.7952C54.275 77.6923 53.9539 78.5475 53.8296 79.3609L52.9595 84.887L46.3712 88.6908L45.6875 83.3081C45.6668 83.1766 45.6461 83.045 45.6254 82.9134C45.6254 82.7699 45.6254 82.6263 45.6254 82.4828C45.6254 81.4302 45.8429 80.3836 46.278 79.3429C46.7131 78.3023 47.2621 77.2676 47.925 76.239C48.588 75.1864 49.3028 74.1397 50.0693 73.0991C50.8359 72.0345 51.5507 70.964 52.2136 69.8875C52.8766 68.787 53.4256 67.6806 53.8607 66.5682C54.2958 65.4318 54.5133 64.2656 54.5133 63.0695C54.5133 61.6341 54.0989 60.737 53.2702 60.3781C52.4622 59.9834 51.3435 60.1987 49.9139 61.0241C48.8159 61.658 47.894 62.3219 47.1481 63.0156C46.423 63.6974 45.7911 64.3613 45.2525 65.0072C44.7345 65.6172 44.2787 66.1675 43.8851 66.6579C43.4915 67.1483 43.0978 67.5071 42.7042 67.7344C41.8133 68.2487 41.1503 68.1889 40.7153 67.555L38.167 64.5048ZM43.8851 103.08C43.8851 102.219 44.0198 101.34 44.2891 100.443C44.5791 99.5338 44.9624 98.6666 45.4389 97.8412C45.9361 97.0039 46.5162 96.2384 47.1792 95.5446C47.8422 94.827 48.5673 94.2408 49.3546 93.7863C50.1211 93.3437 50.8359 93.0985 51.4989 93.0507C52.1618 92.9789 52.7419 93.0746 53.2391 93.3378C53.7364 93.6009 54.1197 94.0255 54.389 94.6117C54.679 95.1858 54.8241 95.9035 54.8241 96.7647C54.8241 97.6259 54.679 98.523 54.389 99.456C54.1197 100.353 53.7364 101.22 53.2391 102.058C52.7419 102.895 52.1618 103.66 51.4989 104.354C50.8359 105.048 50.1211 105.616 49.3546 106.059C48.5673 106.513 47.8422 106.776 47.1792 106.848C46.5162 106.92 45.9361 106.824 45.4389 106.561C44.9624 106.286 44.5791 105.861 44.2891 105.287C44.0198 104.677 43.8851 103.942 43.8851 103.08Z" fill="white"/>
<path d="M135.911 45.348C135.911 43.4311 137.216 41.1875 138.845 40.302L180.917 17.4413C181.498 17.1258 182.069 17.0142 182.562 17.12L185.37 17.7238C186.263 17.916 186.797 18.8002 186.774 20.0514L185.925 66.9951C185.891 68.8671 184.639 71.0239 183.064 71.9249L168.872 80.0401C168.281 80.3781 167.71 80.9107 167.233 81.5706L156.401 96.5465C155.838 97.3254 155.064 97.691 154.536 97.4272L152.468 96.393C152.141 96.2293 151.953 95.8424 151.953 95.3325L151.953 92.187C151.953 91.2324 151.305 90.7889 150.494 91.1876L140.543 96.0759C139.889 96.3971 139.259 96.4547 138.748 96.2399L137.032 95.5181C136.323 95.2197 135.91 94.4238 135.91 93.3551L135.911 45.348Z" fill="#2284F7"/>
<path d="M138.298 46.5474C138.298 44.6332 139.599 42.3927 141.227 41.5047L183.972 18.1765C185.649 17.2612 187.028 18.1307 187.028 20.1035L187.028 68.1526C187.028 70.0436 185.757 72.2581 184.15 73.1671L167.09 82.8194C166.808 82.9791 166.534 83.2279 166.301 83.5371L156.441 96.6218C155.448 97.9393 154.099 97.8058 154.099 96.3901L154.099 91.0679C154.099 90.0861 153.416 89.65 152.581 90.0988L141.334 96.1472C139.664 97.0449 138.298 96.1726 138.298 94.2091L138.298 46.5474Z" fill="#4ECDF9"/>
<path d="M154.677 45.5756C155.195 44.7744 155.756 43.9813 156.359 43.1963C156.976 42.4031 157.634 41.6424 158.335 40.914C159.036 40.1695 159.786 39.4775 160.585 38.8381C161.398 38.1745 162.274 37.5716 163.213 37.0293C164.531 36.2686 165.716 35.7871 166.767 35.5847C167.832 35.3743 168.736 35.435 169.479 35.7668C170.222 36.0825 170.79 36.6611 171.182 37.5028C171.589 38.3202 171.792 39.3763 171.792 40.6712C171.792 41.9176 171.645 43.0708 171.351 44.131C171.056 45.1912 170.678 46.1867 170.215 47.1174C169.767 48.04 169.269 48.9019 168.722 49.7031C168.19 50.48 167.678 51.2205 167.187 51.9246C166.711 52.6206 166.29 53.2762 165.926 53.8913C165.575 54.4982 165.358 55.0769 165.274 55.6272L164.685 59.3662L160.228 61.9398L159.765 58.2979C159.751 58.2089 159.737 58.1199 159.723 58.0309C159.723 57.9337 159.723 57.8366 159.723 57.7395C159.723 57.0273 159.87 56.3192 160.165 55.6151C160.459 54.911 160.83 54.2109 161.279 53.5149C161.728 52.8027 162.211 52.0946 162.73 51.3905C163.249 50.6702 163.732 49.9459 164.181 49.2175C164.629 48.4729 165.001 47.7243 165.295 46.9717C165.589 46.2028 165.737 45.4138 165.737 44.6045C165.737 43.6333 165.456 43.0263 164.896 42.7835C164.349 42.5164 163.592 42.6621 162.625 43.2205C161.882 43.6495 161.258 44.0986 160.753 44.568C160.263 45.0293 159.835 45.4785 159.471 45.9155C159.12 46.3283 158.812 46.7006 158.546 47.0324C158.279 47.3642 158.013 47.607 157.747 47.7608C157.144 48.1088 156.695 48.0683 156.401 47.6394L154.677 45.5756ZM158.546 71.6758C158.546 71.0931 158.637 70.4982 158.819 69.8913C159.015 69.2762 159.275 68.6894 159.597 68.131C159.933 67.5645 160.326 67.0465 160.774 66.5771C161.223 66.0916 161.714 65.695 162.246 65.3875C162.765 65.088 163.249 64.9221 163.697 64.8897C164.146 64.8412 164.538 64.9059 164.875 65.084C165.211 65.262 165.47 65.5493 165.653 65.9459C165.849 66.3344 165.947 66.8199 165.947 67.4026C165.947 67.9853 165.849 68.5923 165.653 69.2236C165.47 69.8306 165.211 70.4173 164.875 70.9838C164.538 71.5503 164.146 72.0683 163.697 72.5377C163.249 73.0071 162.765 73.3915 162.246 73.6909C161.714 73.9985 161.223 74.1765 160.774 74.2251C160.326 74.2736 159.933 74.2089 159.597 74.0309C159.275 73.8447 159.015 73.5574 158.819 73.1689C158.637 72.7562 158.546 72.2585 158.546 71.6758Z" fill="#2284F7"/>
<path d="M156.202 46.0113C156.721 45.2101 157.282 44.417 157.885 43.6319C158.501 42.8388 159.16 42.0781 159.861 41.3497C160.562 40.6051 161.312 39.9132 162.111 39.2738C162.924 38.6102 163.8 38.0073 164.739 37.465C166.057 36.7043 167.241 36.2227 168.293 36.0204C169.358 35.81 170.262 35.8707 171.005 36.2025C171.748 36.5181 172.316 37.0968 172.708 37.9385C173.115 38.7559 173.318 39.812 173.318 41.1069C173.318 42.3532 173.171 43.5065 172.876 44.5667C172.582 45.6269 172.203 46.6223 171.741 47.553C171.292 48.4756 170.795 49.3375 170.248 50.1388C169.715 50.9157 169.204 51.6562 168.713 52.3603C168.237 53.0563 167.816 53.7119 167.452 54.3269C167.101 54.9339 166.884 55.5126 166.8 56.0629L166.211 59.8019L161.753 62.3755L161.291 58.7336C161.277 58.6446 161.263 58.5556 161.249 58.4665C161.249 58.3694 161.249 58.2723 161.249 58.1752C161.249 57.463 161.396 56.7548 161.69 56.0508C161.985 55.3467 162.356 54.6466 162.805 53.9506C163.253 53.2384 163.737 52.5303 164.256 51.8262C164.774 51.1059 165.258 50.3816 165.706 49.6532C166.155 48.9086 166.526 48.16 166.821 47.4074C167.115 46.6385 167.262 45.8494 167.262 45.0401C167.262 44.069 166.982 43.462 166.421 43.2192C165.875 42.9521 165.118 43.0978 164.15 43.6562C163.407 44.0851 162.784 44.5343 162.279 45.0037C161.788 45.465 161.361 45.9142 160.996 46.3512C160.646 46.764 160.338 47.1362 160.071 47.468C159.805 47.7999 159.539 48.0427 159.272 48.1964C158.669 48.5444 158.221 48.504 157.927 48.075L156.202 46.0113ZM160.071 72.1114C160.071 71.5287 160.162 70.9339 160.345 70.3269C160.541 69.7119 160.8 69.1251 161.123 68.5667C161.459 68.0002 161.851 67.4822 162.3 67.0128C162.749 66.5272 163.239 66.1307 163.772 65.8231C164.291 65.5237 164.774 65.3578 165.223 65.3254C165.671 65.2768 166.064 65.3416 166.4 65.5196C166.737 65.6977 166.996 65.985 167.178 66.3816C167.374 66.77 167.473 67.2556 167.473 67.8383C167.473 68.421 167.374 69.028 167.178 69.6592C166.996 70.2662 166.737 70.853 166.4 71.4195C166.064 71.986 165.671 72.504 165.223 72.9734C164.774 73.4428 164.291 73.8272 163.772 74.1266C163.239 74.4342 162.749 74.6122 162.3 74.6608C161.851 74.7093 161.459 74.6446 161.123 74.4665C160.8 74.2804 160.541 73.9931 160.345 73.6046C160.162 73.1919 160.071 72.6941 160.071 72.1114Z" fill="white"/>
<path d="M59.4103 91.0676C59.4103 89.1196 60.7559 86.8416 62.4123 85.9857L83.6817 74.9944L83.6817 97.8316C83.6817 99.5255 82.6555 101.513 81.2397 102.562L75.0944 107.113C75.0227 107.166 74.9501 107.214 74.8772 107.255L59.4103 116.012L59.4103 91.0676Z" fill="#333333" fill-opacity="0.2"/>
<path d="M73.122 99.4419C73.1221 97.525 74.4267 95.2814 76.0563 94.3959L118.128 71.5352C118.709 71.2197 119.28 71.1081 119.773 71.2139L122.581 71.8177C123.474 72.0099 124.008 72.8941 123.985 74.1453L123.136 121.089C123.102 122.961 121.85 125.118 120.275 126.019L106.083 134.134C105.492 134.472 104.922 135.005 104.444 135.664L93.6126 150.64C93.0493 151.419 92.2752 151.785 91.7477 151.521L89.6793 150.487C89.3519 150.323 89.1638 149.936 89.1638 149.426L89.1638 146.281C89.1638 145.326 88.5166 144.883 87.7051 145.281L77.7544 150.17C77.1006 150.491 76.4702 150.549 75.9596 150.334L74.2435 149.612C73.534 149.314 73.1211 148.518 73.1211 147.449L73.122 99.4419Z" fill="#E40D0D"/>
<path d="M75.5096 100.641C75.5096 98.7271 76.8106 96.4866 78.4378 95.5986L121.183 72.2704C122.86 71.3551 124.239 72.2246 124.239 74.1974L124.239 122.246C124.239 124.137 122.968 126.352 121.361 127.261L104.301 136.913C104.019 137.073 103.745 137.322 103.512 137.631L93.6523 150.716C92.6596 152.033 91.3103 151.9 91.3103 150.484L91.3103 145.162C91.3103 144.18 90.6272 143.744 89.7925 144.193L78.5449 150.241C76.8756 151.139 75.5093 150.266 75.5093 148.303L75.5096 100.641Z" fill="#FF363B"/>
<path d="M91.8882 99.6695C92.4068 98.8683 92.9675 98.0751 93.5703 97.2901C94.1871 96.497 94.8459 95.7362 95.5468 95.0079C96.2477 94.2633 96.9976 93.5713 97.7966 92.932C98.6096 92.2684 99.4857 91.6654 100.425 91.1232C101.743 90.3624 102.927 89.8809 103.978 89.6786C105.044 89.4682 105.948 89.5289 106.691 89.8607C107.434 90.1763 108.001 90.755 108.394 91.5966C108.8 92.414 109.004 93.4702 109.004 94.7651C109.004 96.0114 108.856 97.1647 108.562 98.2249C108.268 99.285 107.889 100.28 107.427 101.211C106.978 102.134 106.481 102.996 105.934 103.797C105.401 104.574 104.89 105.314 104.399 106.018C103.922 106.714 103.502 107.37 103.137 107.985C102.787 108.592 102.57 109.171 102.485 109.721L101.897 113.46L97.4392 116.034L96.9766 112.392C96.9626 112.303 96.9485 112.214 96.9345 112.125C96.9345 112.028 96.9345 111.93 96.9345 111.833C96.9345 111.121 97.0817 110.413 97.3761 109.709C97.6704 109.005 98.0419 108.305 98.4905 107.609C98.939 106.897 99.4226 106.188 99.9413 105.484C100.46 104.764 100.944 104.04 101.392 103.311C101.841 102.567 102.212 101.818 102.507 101.066C102.801 100.297 102.948 99.5076 102.948 98.6983C102.948 97.7271 102.668 97.1202 102.107 96.8774C101.56 96.6103 100.803 96.756 99.8362 97.3144C99.0932 97.7433 98.4694 98.1925 97.9648 98.6619C97.4742 99.1232 97.0467 99.5724 96.6822 100.009C96.3318 100.422 96.0234 100.794 95.757 101.126C95.4907 101.458 95.2244 101.701 94.958 101.855C94.3553 102.203 93.9067 102.162 93.6123 101.733L91.8882 99.6695ZM95.757 125.77C95.757 125.187 95.8482 124.592 96.0304 123.985C96.2266 123.37 96.486 122.783 96.8084 122.225C97.1448 121.658 97.5373 121.14 97.9858 120.671C98.4344 120.185 98.925 119.789 99.4577 119.481C99.9763 119.182 100.46 119.016 100.909 118.984C101.357 118.935 101.75 119 102.086 119.178C102.422 119.356 102.682 119.643 102.864 120.04C103.06 120.428 103.158 120.914 103.158 121.496C103.158 122.079 103.06 122.686 102.864 123.317C102.682 123.924 102.422 124.511 102.086 125.078C101.75 125.644 101.357 126.162 100.909 126.632C100.46 127.101 99.9763 127.485 99.4577 127.785C98.925 128.092 98.4344 128.27 97.9858 128.319C97.5373 128.367 97.1448 128.303 96.8084 128.125C96.486 127.939 96.2266 127.651 96.0304 127.263C95.8482 126.85 95.757 126.352 95.757 125.77Z" fill="#E40D0D"/>
<path d="M93.4128 100.105C93.9315 99.304 94.4922 98.5108 95.095 97.7258C95.7117 96.9327 96.3706 96.1719 97.0714 95.4436C97.7723 94.699 98.5223 94.007 99.3213 93.3677C100.134 92.7041 101.01 92.1011 101.95 91.5589C103.267 90.7981 104.452 90.3166 105.503 90.1143C106.568 89.9039 107.473 89.9646 108.215 90.2964C108.958 90.612 109.526 91.1907 109.919 92.0323C110.325 92.8497 110.528 93.9059 110.528 95.2008C110.528 96.4471 110.381 97.6004 110.087 98.6606C109.792 99.7207 109.414 100.716 108.951 101.647C108.503 102.57 108.005 103.431 107.458 104.233C106.926 105.01 106.414 105.75 105.924 106.454C105.447 107.15 105.026 107.806 104.662 108.421C104.312 109.028 104.094 109.606 104.01 110.157L103.421 113.896L98.9638 116.469L98.5012 112.827C98.4872 112.738 98.4732 112.649 98.4592 112.56C98.4592 112.463 98.4592 112.366 98.4592 112.269C98.4592 111.557 98.6064 110.849 98.9007 110.145C99.1951 109.441 99.5666 108.74 100.015 108.044C100.464 107.332 100.947 106.624 101.466 105.92C101.985 105.2 102.468 104.475 102.917 103.747C103.365 103.002 103.737 102.254 104.031 101.501C104.326 100.732 104.473 99.9433 104.473 99.134C104.473 98.1628 104.192 97.5559 103.632 97.3131C103.085 97.046 102.328 97.1917 101.361 97.7501C100.618 98.179 99.9941 98.6282 99.4895 99.0976C98.9989 99.5589 98.5713 100.008 98.2069 100.445C97.8564 100.858 97.548 101.23 97.2817 101.562C97.0154 101.894 96.749 102.137 96.4827 102.29C95.8799 102.638 95.4314 102.598 95.137 102.169L93.4128 100.105ZM97.2817 126.205C97.2817 125.623 97.3728 125.028 97.555 124.421C97.7513 123.806 98.0106 123.219 98.333 122.661C98.6694 122.094 99.0619 121.576 99.5105 121.107C99.9591 120.621 100.45 120.225 100.982 119.917C101.501 119.618 101.985 119.452 102.433 119.419C102.882 119.371 103.274 119.435 103.611 119.614C103.947 119.792 104.206 120.079 104.389 120.475C104.585 120.864 104.683 121.349 104.683 121.932C104.683 122.515 104.585 123.122 104.389 123.753C104.206 124.36 103.947 124.947 103.611 125.513C103.274 126.08 102.882 126.598 102.433 127.067C101.985 127.537 101.501 127.921 100.982 128.22C100.45 128.528 99.9591 128.706 99.5105 128.755C99.0619 128.803 98.6694 128.738 98.333 128.56C98.0106 128.374 97.7513 128.087 97.555 127.698C97.3728 127.286 97.2817 126.788 97.2817 126.205Z" fill="white"/>
<g clip-path="url(#clip0_124_2399)">
<path d="M186.714 35.4571C186.767 36.1578 186.99 36.8351 187.365 37.4296C187.912 38.1217 190.468 39.7344 190.274 40.4403C190.08 41.1463 188.231 41.174 187.088 39.9905C185.945 38.8069 185.634 38.6062 185.142 38.5093C184.955 38.4637 184.782 38.373 184.638 38.2451C184.494 38.1172 184.384 37.9561 184.317 37.7757C184.25 37.5954 184.229 37.4015 184.254 37.2108C184.279 37.0201 184.351 36.8386 184.463 36.6821C185.306 36.472 186.08 36.0504 186.714 35.4571Z" fill="black"/>
<path d="M183.411 37.8241C183.513 38.5556 183.791 39.2514 184.221 39.852C184.844 40.5441 187.635 42.0598 187.476 42.8073C187.317 43.5548 185.398 43.714 184.11 42.5512C182.822 41.3885 182.496 41.2154 181.97 41.167C181.772 41.1273 181.586 41.0397 181.429 40.9117C181.272 40.7838 181.149 40.6195 181.071 40.4331C180.992 40.2468 180.961 40.044 180.978 39.8426C180.996 39.6411 181.063 39.4471 181.174 39.2775C182.03 38.9892 182.799 38.4892 183.411 37.8241Z" fill="black"/>
<path d="M176.665 18.6386C176.665 18.6386 185.904 23.8157 186.458 25.4491C187.261 27.7815 187.116 29.3734 186.728 35.1387V36.5229C186.381 36.7936 185.968 36.9654 185.531 37.0203C185.095 37.0751 184.652 37.0109 184.249 36.8344C183.854 36.6337 184.249 32.8132 183.618 30.6884C183.518 29.6272 183.518 28.5589 183.618 27.4977C183.618 27.4977 176.166 24.9092 174.428 23.345C172.69 21.7808 176.665 18.6386 176.665 18.6386Z" fill="#231D21"/>
<path d="M168.804 20.2651C168.804 20.2651 167.322 23.5873 171.249 25.6083C175.405 27.7469 179.789 30.3423 179.789 30.3423C179.727 31.7464 179.799 33.153 180.003 34.5435C180.481 36.6821 181.091 39.4506 181.091 39.4506C181.091 39.4506 182.87 40.1427 183.861 39.1945C183.861 39.1945 183.958 28.9097 182.746 27.7469C181.534 26.5841 175.488 21.9954 175.488 21.9954L176.651 18.611L168.804 20.2651Z" fill="#31282E"/>
<path d="M171.249 25.6083C175.405 27.7469 179.789 30.3423 179.789 30.3423C179.727 31.7464 179.799 33.153 180.003 34.5435C180.446 36.689 180.758 39.3883 180.758 39.3883C181.11 39.5008 181.472 39.5773 181.839 39.6167C181.222 36.8482 180.952 30.7092 180.668 29.581C180.315 28.1968 175.938 26.681 172.828 25.0338C171.922 24.5469 171.15 23.8433 170.582 22.9858C170.014 22.1284 169.668 21.1437 169.573 20.1198L168.804 20.279C168.804 20.279 167.322 23.5873 171.249 25.6083Z" fill="#231D21"/>
<path d="M187.04 34.9864C187.428 29.1796 187.261 27.7815 186.458 25.4491C185.904 23.8157 176.665 18.6386 176.665 18.6386C176.286 18.9429 175.926 19.2687 175.584 19.6145C178.078 20.8465 184.048 23.9403 185.163 26.0374C186.444 28.439 185.488 35.1249 185.613 37.042C186.075 36.9724 186.528 36.8517 186.964 36.6821L187.04 34.9864Z" fill="#31282E"/>
<path d="M180.799 16.6108C180.799 16.6108 182.094 16.3962 182.655 16.8599C183.216 17.3237 183.653 17.4759 183.902 17.9673C184.151 18.4587 183.854 18.7079 183.424 18.6594C182.782 18.567 182.168 18.3304 181.63 17.9673C181.352 17.7483 181.009 17.6267 180.654 17.6213C180.481 17.649 180.176 17.026 180.799 16.6108Z" fill="#EFB185"/>
<path d="M175.134 6.60274C175.764 6.52661 176.782 6.88651 176.741 8.56835C176.699 10.2502 176.54 14.9427 176.54 14.9427C176.54 14.9427 180.889 16.237 181.388 16.4654C181.139 16.5678 180.934 16.7538 180.807 16.9914C180.681 17.2289 180.641 17.503 180.695 17.7666C180.695 17.7666 175.667 17.8704 174.767 16.6592C173.867 15.448 172.544 6.92111 175.134 6.60274Z" fill="#FFAE00"/>
<path d="M167.773 9.94567C167.773 9.94567 169.283 7.34331 175.273 6.48509C175.273 6.48509 176.222 6.08366 176.132 9.17742C176.24 9.77599 176.505 10.3351 176.901 10.797C177.213 11.1984 178.044 12.7487 176.208 14.6036C176.208 14.6036 175.516 17.3721 176.347 19.1508C177.102 20.7427 173.161 22.3 169.802 21.9816C169.393 21.9401 168.479 21.6632 168.839 20.2305C169.199 18.7978 170.093 16.2855 169.4 13.6347C168.708 10.9838 167.323 11.2953 167.773 9.94567Z" fill="#FFCA00"/>
<path d="M167.773 9.94565C167.323 11.2953 168.708 10.9838 169.4 13.6346C170.093 16.2854 169.22 18.7978 168.86 20.2374C168.5 21.677 169.4 21.9469 169.816 21.9885C170.378 22.0335 170.943 22.0335 171.506 21.9885C170.328 19.4207 171.838 14.7489 171.907 12.1743C171.915 11.378 171.693 10.5964 171.268 9.92272C170.843 9.24903 170.233 8.71162 169.511 8.37454C168.823 8.7635 168.229 9.30006 167.773 9.94565Z" fill="#FFAE00"/>
<path d="M174.199 1.68177C174.199 1.68177 173.804 4.77553 173.617 7.73087C173.616 7.88003 173.649 8.02741 173.714 8.16199C173.778 8.29657 173.872 8.41487 173.989 8.50805C174.105 8.60123 174.241 8.66688 174.387 8.70009C174.532 8.7333 174.683 8.73321 174.829 8.69983C174.829 8.69983 177.073 5.20464 175.279 1.73022C175.049 1.30813 174.73 0.941014 174.344 0.654217C173.957 0.36742 173.514 0.167777 173.043 0.0690704C172.572 -0.0296358 172.085 -0.0250527 171.617 0.0825034C171.148 0.19006 170.708 0.398026 170.327 0.692043L174.199 1.68177Z" fill="#666666"/>
<path d="M174.83 5.73759C174.532 6.09293 174.323 6.51487 174.222 6.9678C174.12 7.42073 174.13 7.89135 174.249 8.33995C174.38 8.71369 174.72 10.2294 172.42 9.5996C172.42 9.5996 170.031 8.38148 170.751 7.66168C171.229 7.18411 171.693 6.492 171 4.01422L174.83 5.73759Z" fill="#E8A476"/>
<path d="M170.785 7.66163C170.714 7.72294 170.669 7.80993 170.661 7.90388C171.322 8.02248 172.002 7.9854 172.646 7.79558C173.29 7.60575 173.882 7.26841 174.373 6.81033L171.478 4.27026C171.478 4.27026 171.332 4.36716 171.111 4.53327C171.63 6.58885 171.201 7.21868 170.785 7.66163Z" fill="#DB9669"/>
<path d="M174.47 1.38419C174.47 1.38419 175.086 1.59874 175.1 3.46053C175.1 3.66817 175.425 3.93809 175.509 4.43642C175.592 4.93474 175.696 6.99725 174.511 7.20488C173.706 7.25213 172.907 7.03118 172.24 6.5766C171.574 6.12202 171.077 5.45944 170.827 4.6925C170.127 2.62999 171.893 -4.72665e-05 174.47 1.38419Z" fill="#F1B287"/>
<path d="M174.345 2.07631C174.345 2.07631 169.074 4.01424 173.022 10.8039C173.022 10.8039 170.252 11.0669 169.054 8.72755C168.465 7.58556 168.7 5.26697 168.88 3.10757C168.88 3.10757 169.497 -0.256118 172.343 0.249127C172.309 0.221443 174.179 0.934323 174.345 2.07631Z" fill="#333333"/>
<path d="M174.345 2.07631C174.345 2.07631 175.273 1.90328 175.73 3.59896C175.73 3.59896 175.585 -1.18356 171.048 0.25604C171.034 0.269883 173.735 0.408306 174.345 2.07631Z" fill="#666666"/>
<path d="M171.872 5.04548C171.872 5.04548 171.554 4.03499 170.972 4.35337C170.785 4.45026 170.584 4.66482 170.861 5.18391C171.138 5.70299 171.72 6.17363 172.17 6.11826L171.872 5.04548Z" fill="#F1B287"/>
<path d="M175.668 18.5141C175.668 18.5141 176.984 18.5556 177.448 19.1231C177.944 19.5986 178.358 20.1529 178.674 20.7634C178.826 21.2825 178.722 21.4556 178.3 21.3725C177.538 21.0429 176.835 20.5891 176.222 20.0298C175.994 19.7636 175.685 19.5789 175.342 19.5038C175.121 19.4553 174.982 18.7909 175.668 18.5141Z" fill="#EFB185"/>
<path d="M175.328 19.5315C175.671 19.6066 175.98 19.7913 176.208 20.0575C176.821 20.6168 177.523 21.0706 178.286 21.4002H178.445C178.119 21.0542 177.558 20.4659 177.06 19.9675C176.521 19.4945 175.866 19.1721 175.162 19.0332C175.131 19.1229 175.13 19.2205 175.16 19.3107C175.19 19.4009 175.249 19.4786 175.328 19.5315Z" fill="#DB9669"/>
<path d="M168.451 9.38502C169.074 9.23276 170.127 9.46807 170.293 11.1361C170.459 12.8041 170.875 17.4897 170.875 17.4897C170.875 17.4897 175.349 18.2441 175.854 18.4102C175.74 18.455 175.637 18.5222 175.549 18.6078C175.462 18.6935 175.392 18.7958 175.345 18.9088C175.298 19.0218 175.274 19.1431 175.275 19.2655C175.275 19.3879 175.3 19.509 175.349 19.6214C175.349 19.6214 170.376 20.5004 169.33 19.4138C168.285 18.3272 165.937 9.98716 168.451 9.38502Z" fill="#FFAE00"/>
<path d="M175.854 18.4102C175.349 18.2441 170.875 17.4897 170.875 17.4897C170.875 17.4897 170.459 12.811 170.293 11.1361C170.127 9.46115 169.074 9.23275 168.451 9.38502C168.292 9.41944 168.144 9.49322 168.021 9.59958L168.014 9.68955C168.014 9.68955 169.531 10.3471 169.746 13.4062C169.961 16.4654 168.811 18.251 171.366 18.5417L175.37 18.957C175.461 18.7227 175.633 18.5288 175.854 18.4102Z" fill="#FFCA00"/>
<path d="M174.539 23.8711L180.98 27.6154L185.98 24.7293L179.539 20.9849L174.539 23.8711Z" fill="#E2E6ED"/>
<path d="M179.768 26.0512L179.927 26.1412L181.444 25.2691L181.284 25.1792L179.768 26.0512Z" fill="#A5AAB4"/>
<path d="M180.377 26.4042L180.536 26.4942L182.787 25.1999L182.628 25.103L180.377 26.4042Z" fill="#A5AAB4"/>
<path d="M180.072 26.2312L180.231 26.3142L182.198 25.1792L182.046 25.0961L180.072 26.2312Z" fill="#A5AAB4"/>
<path d="M181.956 24.4386L183.258 25.193L184.422 24.5216L183.12 23.7672L181.956 24.4386Z" fill="#A5AAB4"/>
<path d="M180.986 26.7571L181.139 26.8471L183.113 25.712L182.953 25.6221L180.986 26.7571Z" fill="#A5AAB4"/>
<path d="M180.682 26.5842L180.835 26.6741L182.351 25.7951L182.199 25.7052L180.682 26.5842Z" fill="#A5AAB4"/>
<path d="M179.462 25.8713L179.622 25.9682L181.873 24.667L181.713 24.577L179.462 25.8713Z" fill="#A5AAB4"/>
<path d="M177.642 24.6393L177.801 24.7293L179.318 23.8572L179.158 23.7603L177.642 24.6393Z" fill="#A5AAB4"/>
<path d="M178.251 24.9923L178.41 25.0823L180.661 23.7811L180.502 23.6911L178.251 24.9923Z" fill="#A5AAB4"/>
<path d="M177.946 24.8192L178.105 24.9023L180.072 23.7672L179.92 23.6772L177.946 24.8192Z" fill="#A5AAB4"/>
<path d="M178.86 25.3453L179.013 25.4353L180.987 24.3002L180.827 24.2102L178.86 25.3453Z" fill="#A5AAB4"/>
<path d="M178.556 25.1653L178.715 25.2553L180.232 24.3832L180.073 24.2933L178.556 25.1653Z" fill="#A5AAB4"/>
<path d="M177.337 24.4594L177.496 24.5493L179.747 23.2551L179.588 23.1651L177.337 24.4594Z" fill="#A5AAB4"/>
</g>
<defs>
<clipPath id="clip0_124_2399">
<rect width="22.9451" height="43.3957" fill="white" transform="translate(167.323)"/>
</clipPath>
</defs>
</svg>
