<svg width="474" height="339" viewBox="0 0 474 339" fill="none" xmlns="http://www.w3.org/2000/svg">
    <g clip-path="url(#clip0_1113_1744)">
        <path d="M121.727 257.917C121.441 257.917 121.166 257.758 121.007 257.472L117.229 249.598C117.038 249.186 117.229 248.72 117.61 248.54C118.012 248.35 118.488 248.54 118.668 248.921L122.447 256.805C122.637 257.208 122.447 257.673 122.066 257.864C121.939 257.927 121.844 257.959 121.727 257.959V257.927V257.917Z" fill="black"/>
        <path d="M337.074 186.957C338.238 175.634 330.692 165.527 323.822 156.415C316.085 146.149 308.602 135.355 304.908 123.046C298.06 100.431 305.649 74.2375 323.283 58.4794C340.916 42.7212 367.525 38.0435 389.593 46.5205C397.976 49.7378 405.797 54.7859 411.259 61.8977C417.726 70.29 420.457 80.9048 422.33 91.3397C424.352 102.494 425.463 114.294 421.42 124.888C418.107 133.587 411.65 140.646 405.882 147.927C397.097 159.039 389.656 171.21 383.772 184.079C383.232 185.232 382.703 186.418 381.761 187.254C380.353 188.492 378.352 188.735 376.479 188.884C363.175 189.931 349.701 189.063 337.095 186.957H337.063H337.074Z" fill="white"/>
        <path d="M115.112 248.434C103.713 233.068 100.728 212.24 105.576 193.72C110.455 175.2 122.648 159.05 138.08 147.716C147.309 140.942 157.819 135.714 169.06 133.566C180.3 131.418 192.313 132.497 202.538 137.651C213.937 143.376 222.362 153.579 230.004 163.781C234.047 169.167 237.984 174.671 241.308 180.555C244.875 186.904 247.658 193.688 250.601 199.975C246.949 192.471 247.351 183.391 250.506 175.634C253.628 167.908 259.269 161.368 265.683 156.023C274.606 148.562 285.359 143.112 296.854 141.249C300.823 140.604 305.035 140.434 308.645 142.138C312.222 143.81 314.773 147.028 317.165 150.16C325.643 161.145 334.438 172.818 337.074 186.375C334.576 186.682 334.005 189.984 334.026 192.513L334.544 221.416C334.65 227.374 334.777 233.523 337.254 238.962C339.826 244.593 344.864 249.037 350.791 250.868C353.691 251.757 356.718 252.043 359.745 252.149C366.022 252.361 372.7 251.757 377.802 248.064C381.739 245.206 384.322 240.783 385.772 236.137C387.222 231.491 387.677 226.591 388.386 221.257C400.802 214.875 415.545 213.214 429.072 216.632C442.609 220.051 454.781 228.559 462.667 240.042C465.27 243.862 467.44 248.053 468.52 252.551C469.62 257.271 469.514 262.203 469.303 267.029C468.964 275.982 468.393 285.157 464.963 293.444C458.951 307.869 445.213 317.467 430.946 325.309C413.63 331.585 395.139 334.633 376.723 334.189C376.723 334.189 86.5874 329.119 86.1747 328.717C76.4266 330.612 66.1069 328.146 57.6713 322.865C49.2357 317.626 42.6417 309.731 37.9317 301.011C36.6299 298.63 35.4868 296.164 34.6506 293.571C30.6709 281.263 34.7141 267.103 43.4884 257.589C52.2628 248.074 65.1755 242.973 78.0989 242.169C91.0222 241.375 103.935 244.603 115.123 248.392L115.091 248.424L115.112 248.434Z" fill="white"/>
        <path d="M58.1476 307.339C57.8407 307.339 57.5232 307.149 57.3961 306.831L48.77 283.834C48.6112 283.432 48.8335 282.967 49.2463 282.808C49.6485 282.649 50.1248 282.871 50.273 283.274L58.8991 306.281C59.0579 306.683 58.8356 307.149 58.4228 307.308C58.3276 307.339 58.2323 307.371 58.137 307.371V307.339H58.1476Z" fill="black"/>
        <path d="M71.6848 318.409C71.3672 318.409 71.0603 318.219 70.9333 317.901L62.5823 296.799C62.4236 296.397 62.6141 295.931 63.0269 295.772C63.4291 295.624 63.9054 295.804 64.0535 296.217L72.4045 317.319C72.5633 317.721 72.3727 318.187 71.96 318.346C71.8647 318.377 71.7694 318.409 71.6742 318.409H71.6848Z" fill="black"/>
        <path d="M125.262 247.757C124.924 247.757 124.606 247.535 124.511 247.228C120.626 235.449 118.012 223.204 116.721 210.843C116.689 210.409 117.006 210.028 117.44 209.976C117.874 209.912 118.287 210.261 118.308 210.695C119.578 222.929 122.182 235.057 126.045 246.741C126.172 247.143 125.95 247.619 125.537 247.736C125.442 247.736 125.379 247.768 125.283 247.768H125.252L125.262 247.757Z" fill="black"/>
        <path d="M136.365 248.022C136.048 248.022 135.772 247.831 135.645 247.524C132.555 239.989 130.713 232.062 130.142 223.913C130.142 223.479 130.459 223.098 130.893 223.077C131.295 223.046 131.708 223.395 131.729 223.829C132.258 231.787 134.079 239.566 137.106 246.942C137.265 247.344 137.106 247.82 136.661 247.969C136.566 248 136.471 248.032 136.344 248.032L136.365 248.022Z" fill="black"/>
        <path d="M148.505 251.122C148.188 251.122 147.881 250.9 147.754 250.593L143.181 237.375C143.023 236.973 143.245 236.497 143.689 236.38C144.092 236.221 144.568 236.444 144.684 236.888L149.257 250.106C149.415 250.509 149.193 250.974 148.749 251.101C148.653 251.101 148.558 251.133 148.495 251.133L148.505 251.122Z" fill="black"/>
        <path d="M265.027 197.869C264.688 197.869 264.339 197.615 264.244 197.276C262.307 189.783 261.492 182.036 261.831 174.3C261.831 173.866 262.243 173.485 262.646 173.559C263.08 173.559 263.429 173.94 263.397 174.374C263.058 181.952 263.842 189.54 265.747 196.884C265.874 197.318 265.588 197.731 265.186 197.847C265.122 197.847 265.059 197.847 264.995 197.847L265.027 197.879V197.869Z" fill="black"/>
        <path d="M277.284 199.689C276.977 199.689 276.659 199.498 276.543 199.16C274.627 193.783 273.367 188.227 272.796 182.576C272.764 182.142 273.082 181.761 273.516 181.708C273.95 181.676 274.331 181.994 274.383 182.428C274.955 187.952 276.183 193.424 278.035 198.673C278.194 199.075 277.972 199.551 277.569 199.668C277.474 199.668 277.379 199.699 277.284 199.699V199.689Z" fill="black"/>
        <path d="M287.709 200.133C287.36 200.133 287.053 199.911 286.958 199.572L283.719 189.381C283.592 188.979 283.814 188.503 284.227 188.386C284.629 188.259 285.095 188.481 285.222 188.894L288.461 199.075C288.588 199.477 288.365 199.953 287.953 200.07C287.857 200.07 287.794 200.102 287.699 200.102V200.133H287.709Z" fill="black"/>
        <path d="M434.089 314.875C433.899 314.875 433.719 314.811 433.56 314.684C433.211 314.398 433.189 313.901 433.496 313.562C440.99 305.17 446.547 295.01 449.616 284.194C449.743 283.782 450.188 283.538 450.59 283.633C450.992 283.76 451.246 284.194 451.151 284.607C448.018 295.645 442.302 306.017 434.682 314.599C434.523 314.79 434.301 314.885 434.089 314.885V314.875Z" fill="black"/>
        <path d="M421.854 314.546C421.663 314.546 421.483 314.483 421.324 314.324C421.018 314.038 420.986 313.541 421.272 313.202C426.161 307.794 430.268 301.72 433.422 295.116C433.613 294.714 434.078 294.555 434.481 294.746C434.883 294.936 435.042 295.402 434.851 295.814C431.644 302.545 427.474 308.736 422.457 314.271C422.298 314.462 422.087 314.515 421.864 314.515V314.546H421.854Z" fill="black"/>
        <path d="M408.454 316.303C408.454 316.303 408.179 316.271 408.052 316.176C407.681 315.954 407.554 315.457 407.808 315.086L415.63 302.471C415.852 302.101 416.35 301.974 416.72 302.228C417.091 302.45 417.218 302.947 416.964 303.318L409.142 315.933C408.983 316.187 408.729 316.303 408.454 316.303Z" fill="black"/>
        <path d="M335.507 188.206C352.823 189.772 370.277 189.614 387.571 187.772C388.64 202.387 389.709 217.331 385.878 231.491C384.004 238.412 380.617 245.429 374.362 248.921C366.953 253.048 357.745 251.112 349.542 248.921C346.367 248.064 343.086 247.154 340.535 245.048C335.37 240.719 335.021 233.047 335.084 226.305C335.222 213.193 335.338 200.091 335.507 188.227V188.196V188.206Z" fill="#EDA51E"/>
        <g opacity="0.13">
            <path d="M426.86 99.3722C425.495 97.9329 422.965 98.261 421.96 99.9754C421.272 101.69 421.494 100.843 421.197 103.341C421.166 103.648 421.134 103.997 421.102 104.304C420.912 105.299 420.245 108.579 420.023 109.32C420.435 108.357 420.435 108.389 419.959 109.447C417.631 115.839 417.123 117.713 414.138 122.877C413.386 124.369 411.968 127.798 409.206 131.291C405.946 135.862 396.864 144.414 391.678 151.853C390.143 153.97 386.82 158.764 386.344 159.568H386.312C384.364 162.119 382.396 164.638 380.946 167.474C378.077 173.21 378.331 173.115 376.511 177.253C375.474 180.025 373.77 183.55 373.918 186.386C373.918 186.608 373.981 186.82 374.045 187.01C373.071 188.661 372.69 190.714 373.304 192.969C374.997 198.535 375.04 205.023 374.69 215.288C374.278 225.924 374.923 227.861 372.235 237.534C370.689 242.148 371.759 239.375 369.525 243.894C368.985 245.016 368.139 246.042 368.139 247.323C367.154 252.974 374.754 255.811 377.961 251.45C382.66 246.191 384.904 239.216 386.428 232.443C387.868 223.712 388.206 215.997 389.614 206.398C390.186 202.218 389.921 198.006 389.561 193.847C389.17 191.222 389.117 188.164 387.275 186.1C386.778 186.164 386.312 186.217 385.804 186.28C384.957 186.396 384.121 186.492 383.274 186.587C386.873 174.3 389.805 167.506 396.335 158.426C400.632 153.134 405.427 148.287 409.968 143.218C414.286 138.678 418.117 133.608 421.07 128.063C422.679 124.168 422.393 124.539 423.431 121.734C423.589 121.268 423.335 121.861 423.208 122.232C423.801 120.856 424.373 119.459 424.881 118.019C425.728 115.839 426.236 113.564 426.595 111.257C426.595 111.257 426.595 111.225 426.595 111.162C427.389 106.643 428.998 101.838 426.86 99.3616V99.3722Z" fill="black"/>
        </g>
        <g opacity="0.13">
            <path d="M376.098 178.089C376.225 177.803 376.352 177.528 376.447 177.274C376.479 177.179 376.543 177.052 376.574 176.967C376.416 177.337 376.257 177.718 376.098 178.089Z" fill="black"/>
        </g>
        <path d="M461.121 297.868C462.285 296.407 463.407 294.936 464.508 293.444C467.525 289.052 470.128 284.48 472.457 279.707C472.404 276.024 472.266 272.31 471.938 268.627C471.462 263.356 470.7 258.107 469.62 252.921C468.837 255.07 468.202 256.784 467.821 257.716C465.969 261.674 463.831 265.473 461.566 269.209C458.708 274.754 455.819 280.332 452.114 285.401C450.706 287.676 439.794 299.529 432.66 304.99C426.839 309.244 419.896 313.372 412.233 317.213C404.294 318.864 398.05 319.912 396.018 320.06C389.244 320.939 382.406 320.695 375.601 320.166C366.117 319.637 369.017 319.647 360.19 318.864C342.906 317.584 325.548 316.737 308.221 317.489C287.37 317.414 266.488 317.711 245.637 317.287C229.813 317.139 213.99 315.986 198.166 315.986C184.185 315.901 170.256 317.012 156.306 317.425C144.504 317.817 132.714 317.245 120.88 317.446C112.17 317.573 103.522 318.473 94.8431 319.065C86.2911 319.499 77.7073 319.849 69.1446 320.441C66.2445 319.838 63.408 319.108 60.6031 318.102C59.3542 317.975 50.6646 313.171 45.4994 309.774C41.3928 307.17 37.0532 304.969 33.01 302.27C31.9199 301.487 30.8297 300.704 29.7078 299.942C30.0465 300.323 30.364 300.725 30.6709 301.127C35.4868 306.514 40.3978 311.805 45.7535 316.663C50.1671 320.674 54.9618 324.124 60.0104 327.045C64.0642 327.056 68.0968 327.077 72.1505 327.437C79.0197 328.082 85.8465 329.299 92.6099 330.601C97.3199 331.49 102.03 332.379 106.772 333.088C110.264 333.194 113.768 333.3 117.229 333.437C116.668 333.215 116.139 333.024 115.821 332.929C114.509 332.421 113.175 331.977 111.863 331.511C119.451 331.352 127.03 331.225 134.619 331.596C148.315 332.146 162.021 331.384 175.728 331.056C200.633 331.649 225.537 333.173 250.442 334.855C277.622 336.676 304.908 336.527 332.121 335.776C340.239 335.713 348.314 336.21 356.433 336.707C353.088 337.448 349.743 338.062 346.441 338.602C349.468 338.739 352.463 338.845 355.491 338.919C363.259 338.485 371.039 338.041 378.776 337.607C381.898 337.427 385.021 337.226 388.143 337.046C391.826 336.623 395.478 336.136 399.172 335.586C401.204 334.813 403.236 334.104 405.268 333.427C411.735 331.299 418.361 329.701 425.071 328.632C425.886 328.505 426.691 328.58 427.41 328.865C427.76 328.675 428.067 328.527 428.416 328.368C429.136 327.997 429.824 327.87 430.448 327.966C441.519 322.822 451.278 315.901 458.962 306.228C462.539 301.752 465.524 296.862 468.001 291.719C466.964 292.65 465.969 293.581 464.932 294.481C463.238 295.91 462.053 296.968 461.111 297.804V297.836L461.121 297.868Z" fill="#F4F4F4"/>
        <path d="M363.27 254.816C360.804 254.816 358.655 254.583 357.12 254.361C351.723 253.556 338.683 250.487 334.386 239.449C332.84 235.481 332.798 231.237 332.745 227.459L332.269 187.444C332.269 186.756 332.554 186.1 333.052 185.635C333.56 185.169 334.237 184.957 334.925 185.052C345.002 186.185 378.427 186.46 387.518 185.497C388.143 185.402 388.799 185.624 389.297 186.037C389.794 186.449 390.101 187.042 390.164 187.666C391.487 202.959 391.032 215.256 388.598 231.48C387.825 236.528 386.746 242.275 383.232 246.72C377.993 253.408 369.599 254.848 363.291 254.826H363.259L363.27 254.816ZM337.032 190.016L337.487 227.406C337.54 230.93 337.582 234.549 338.789 237.714C342.186 246.434 353.236 248.942 357.819 249.641C367.366 251.08 375.452 248.9 379.474 243.788C382.269 240.243 383.189 235.407 383.867 230.761C386.142 215.574 386.619 204.398 385.571 190.407C374.68 191.117 348.706 190.926 337.032 190.005V190.016Z" fill="black"/>
        <path d="M384.227 189.942C384.227 189.942 384.004 189.942 383.877 189.942C382.565 189.751 381.697 188.534 381.888 187.254C384.1 172.564 393.753 160.891 403.098 149.631C412 138.868 420.435 128.687 423.071 116.062C424.182 110.76 424.68 93.9431 418.964 78.4707C415.133 68.0993 409.724 60.3314 402.876 55.4103C389.953 46.0972 367.821 39.5252 350.474 44.9754C333.846 50.1929 320.33 59.8128 312.36 72.0786C305.046 83.3495 301.966 97.3826 303.628 111.617C305.205 124.951 310.867 137.99 319.97 149.314C321.24 150.88 322.584 152.446 323.886 153.949C326.68 157.177 329.538 160.489 331.898 164.246C336.153 170.998 338.524 178.819 338.746 186.777C338.767 188.09 337.741 189.18 336.428 189.201C335.179 189.286 334.026 188.196 334.005 186.883C333.814 179.74 331.718 172.797 327.897 166.765C325.728 163.325 323.082 160.288 320.287 157.06C318.954 155.526 317.588 153.928 316.244 152.298C306.549 140.276 300.548 126.401 298.886 112.188C297.066 96.8535 300.431 81.6985 308.348 69.4963C316.922 56.2993 331.348 45.9914 349.034 40.4353C367.874 34.5405 391.763 41.5571 405.649 51.5686C413.27 57.0612 419.239 65.57 423.41 76.8515C429.009 91.9747 429.284 109.49 427.696 117.067C424.807 130.846 415.62 141.958 406.718 152.69C397.372 163.95 388.566 174.596 386.555 188.005C386.365 189.19 385.359 190.026 384.206 190.026L384.237 189.931L384.227 189.942Z" fill="black"/>
        <path d="M370.033 189.264C368.721 189.264 367.662 188.196 367.673 186.883V186.661C367.694 172.924 368.181 158.542 369.144 143.969C369.536 138.17 370.023 132.487 371.515 127.121C367.842 125.925 364.381 123.565 361.735 120.221L361.672 120.126C361.418 120.591 361.174 121.057 360.92 121.522C357.491 127.629 353.649 130.825 349.087 131.28C348.304 131.375 347.531 131.333 346.78 131.28C347.701 134.688 348.441 138.085 349.055 141.334C351.871 156.171 353.194 171.337 352.95 186.449C352.95 187.762 351.913 188.788 350.537 188.778C349.225 188.778 348.166 187.677 348.209 186.365C348.452 171.601 347.161 156.743 344.409 142.223C343.647 138.159 342.694 133.883 341.361 129.661C340.927 129.47 340.493 129.28 340.08 129.068C334.354 126.295 327.241 122.284 323.336 115.617C321.473 112.432 321.272 109.31 322.838 107.066C324.405 104.822 327.622 103.933 330.522 104.939C332.83 105.733 334.481 107.415 335.814 108.982C340.165 114.083 343.107 120.03 345.213 126.084C346.367 126.465 347.552 126.719 348.643 126.592C351.479 126.317 354.21 123.84 356.782 119.258C357.47 118.009 358.137 116.739 358.761 115.458C356.718 111.236 355.522 106.114 355.099 99.9649C354.771 95.0332 354.803 87.8261 358.719 82.0689C360.169 79.9523 362.137 79.021 364.032 79.5608C365.471 79.9735 366.308 81.0636 366.773 81.8785C370.245 87.4769 369.631 94.25 368.901 98.8642C367.969 104.537 366.361 110.029 364.096 115.289C364.529 116.009 365.027 116.697 365.524 117.353C367.355 119.67 370.097 121.681 373.124 122.687C375.77 116.263 380.321 110.569 385.984 106.6C386.735 106.071 388.545 104.801 390.673 105.087C392.239 105.278 393.477 106.156 394.218 107.563C395.488 109.966 394.949 113.342 393.816 115.585C390.831 121.565 387.01 125.449 382.449 127.153C380.48 127.893 378.384 128.2 376.267 128.095C374.817 133.111 374.352 138.508 373.96 144.382C372.997 158.859 372.51 173.125 372.489 186.756V187.01C372.489 188.323 371.42 189.381 370.107 189.37L370.044 189.243L370.033 189.264ZM328.035 109.246C327.442 109.246 326.913 109.426 326.691 109.744C326.246 110.368 326.564 111.744 327.4 113.183C330.004 117.66 334.46 120.761 338.916 123.152C337.18 119.184 334.978 115.395 332.121 112.051C331.221 110.982 330.131 109.828 328.882 109.416C328.607 109.32 328.289 109.257 328.014 109.257H328.046L328.035 109.246ZM389.921 109.659C389.921 109.659 389.582 109.722 388.64 110.4C384.068 113.628 380.311 118.136 377.95 123.248C378.882 123.163 379.792 122.972 380.702 122.634C384.11 121.364 387.053 118.252 389.476 113.395C390.228 111.871 390.207 110.061 389.932 109.68V109.648L389.921 109.659ZM362.741 84.4713C362.741 84.4713 362.614 84.63 362.582 84.6935C360.232 88.1542 359.333 92.8848 359.777 99.605C360.021 103.129 360.539 106.283 361.333 109.035C362.593 105.479 363.513 101.806 364.117 98.0599C365.112 92.0064 364.656 87.6991 362.73 84.4819L362.741 84.4713Z" fill="black"/>
        <path d="M350.696 337.85C336.619 337.797 322.637 337.215 308.846 336.665C269.303 335.056 229.168 334.527 190.366 334.04C149.384 333.522 107.026 332.982 66.3715 331.119C66.181 331.119 66.0011 331.088 65.8106 331.024C53.9668 327.511 43.4884 315.742 36.778 306.482C29.2632 296.09 26.9029 282.755 30.5968 271.632C33.6239 262.531 40.8 254.318 50.7809 248.519C67.4511 238.783 89.244 237.333 109.037 244.328C97.5738 221.85 99.7119 192.016 115.091 167.792C131.38 142.138 166.604 121.448 199.87 133.587C218.573 140.424 233.804 156.775 245.298 182.29C246.06 178.046 247.605 173.813 249.934 169.792C255.808 159.643 265.133 152.584 272.648 147.557C278.247 143.8 285.042 139.736 292.694 138.201C301.098 136.519 309.364 138.36 314.836 143.154C315.831 144.033 315.916 145.535 315.038 146.498C314.159 147.493 312.656 147.578 311.693 146.71C307.343 142.89 300.569 141.429 293.636 142.837C286.799 144.213 280.543 147.97 275.315 151.472C264.836 158.521 258.253 164.892 254.072 172.12C250.019 179.126 248.621 186.957 250.029 193.731C250.77 195.699 251.479 197.731 252.157 199.795C252.559 200.98 251.955 202.26 250.834 202.758C249.68 203.255 248.367 202.758 247.775 201.657C246.716 199.625 245.944 197.403 245.457 195.128C234.047 164.5 218.202 145.313 198.251 138.032C168.478 127.153 134.64 145.885 119.134 170.321C103.279 195.265 102.294 226.4 116.636 247.81C117.229 248.688 117.155 249.874 116.467 250.678C115.779 251.482 114.625 251.736 113.651 251.292C93.8905 242.169 70.1713 242.677 53.1836 252.593C44.2081 257.832 37.7835 265.113 35.1269 273.124C31.9092 282.819 34.0155 294.502 40.6307 303.667C46.8436 312.239 56.4118 323.108 66.8584 326.357C107.333 328.22 149.564 328.759 190.419 329.278C229.273 329.765 269.451 330.283 309.047 331.903C337.169 333.067 366.255 334.231 394.642 330.908C424.404 327.394 444.758 318.42 456.856 303.424C472.256 284.353 471.705 253.736 455.67 235.195C439.635 216.664 409.407 211.743 388.323 224.21C387.201 224.887 385.73 224.517 385.084 223.384C384.438 222.262 384.777 220.791 385.91 220.146C409.28 206.314 441.498 211.584 459.279 232.126C477.061 252.667 477.622 285.316 460.571 306.44C447.647 322.463 426.299 331.998 395.224 335.66C380.448 337.385 365.567 337.924 350.738 337.871H350.675L350.696 337.85Z" fill="black"/>
        <path d="M88.3973 222.463C87.487 222.463 86.6191 221.924 86.2169 221.056C77.6119 201.329 79.5383 177.867 91.2233 159.844C91.943 158.754 93.4142 158.415 94.5044 159.135C95.5946 159.854 95.9333 161.325 95.2135 162.415C84.5446 178.883 82.7135 201.16 90.5671 219.172C91.0963 220.357 90.5671 221.765 89.3393 222.284C89.0218 222.411 88.7148 222.463 88.3761 222.463H88.4079H88.3973Z" fill="black"/>
        <path d="M446.801 84.4395C445.732 84.4395 444.769 83.7199 444.493 82.651C444.186 81.4022 444.906 80.1534 446.155 79.783L463.492 74.8196C466.18 74.047 467.324 75.6133 467.641 76.1107C468.043 76.7668 468.107 77.7405 467.789 78.4178C467.302 79.5396 460.476 81.5186 447.288 84.3655C447.097 84.3972 446.949 84.4289 446.79 84.4289L446.801 84.4395Z" fill="black"/>
        <path d="M364.297 24.9841C363.079 24.9841 362.021 24.0422 361.936 22.7934L360.391 2.59036C360.306 1.27806 361.28 0.12451 362.582 0.0398462C363.894 -0.0448181 365.048 0.918238 365.133 2.23053L366.678 22.4335C366.763 23.7458 365.8 24.8994 364.487 24.9841C364.424 24.9841 364.36 24.9841 364.297 24.9841Z" fill="black"/>
        <path d="M304.432 50.6374C304.03 50.6374 303.628 50.5421 303.247 50.3199L288.482 41.7159C286.672 40.6787 286.365 39.3347 286.439 38.4351C286.502 37.5038 287.042 36.6889 287.847 36.2868C289.413 35.5142 290.006 35.2602 305.787 46.3089C306.845 47.0285 307.121 48.4678 306.433 49.5261C305.999 50.2458 305.215 50.6162 304.432 50.6162V50.6479V50.6374Z" fill="black"/>
        <path d="M261.809 114.157C260.687 114.157 259.661 113.342 259.481 112.146C259.269 110.834 260.148 109.617 261.428 109.405L280.417 106.294C281.697 106.082 282.946 106.96 283.158 108.241C283.37 109.553 282.491 110.77 281.21 110.982L262.222 114.093C262.222 114.093 261.947 114.125 261.82 114.125V114.157H261.809Z" fill="black"/>
        <path d="M412.942 39.5251C412.476 39.5251 411.979 39.3664 411.566 39.0807C410.507 38.2975 410.264 36.8265 411.015 35.7682L422.065 20.4863C422.849 19.428 424.32 19.1845 425.378 19.9359C426.437 20.6873 426.68 22.1901 425.897 23.2484L414.857 38.5303C414.392 39.1865 413.672 39.5251 412.921 39.5251H412.952H412.942Z" fill="black"/>
        <path d="M447.309 156.563C446.748 156.563 446.187 156.372 445.753 155.96L431.94 143.832C430.946 142.953 430.861 141.45 431.739 140.487C432.618 139.493 434.121 139.408 435.084 140.276L448.896 152.404C449.891 153.282 449.976 154.774 449.098 155.748C448.632 156.277 447.976 156.552 447.319 156.552L447.309 156.563Z" fill="black"/>
        <path d="M50.4846 259.017C62.9846 259.557 65.0485 256.784 73.5794 258.107C79.9511 259.102 83.518 261.377 95.9757 269.293C123.431 286.734 128.681 289.973 130.586 288.301C132.311 286.787 129.729 278.723 124.585 262.584C122.32 255.504 121.357 253.091 122.659 250.741C125.103 246.328 132.587 247.482 146.801 247.249C157.661 247.069 168.795 245.725 191.086 243.047C199.722 242.01 206.697 240.931 210.995 240.232C213.937 239.312 222.531 236.221 229.051 227.416C235.91 218.156 236.1 208.483 236.037 205.467C235.497 192.725 234.629 179.496 233.391 165.802C231.591 146.075 229.178 127.375 226.352 109.807C225.431 105.002 222.838 95.4988 214.657 89.1067C206.316 82.5769 196.452 82.6404 191.742 82.7357C163.069 83.3283 136.228 89.2231 117.112 91.8477C92.1547 95.2766 57.502 96.282 30.9249 102.378C26.6489 103.362 16.668 105.828 10.2222 114.072C5.32167 120.337 2.81321 128.465 3.85046 136.984L15.5566 232.803C16.3928 237.671 18.8907 247.471 27.2522 253.503C33.8779 258.287 41.2763 258.605 50.474 259.007L50.4846 259.017Z" fill="white" stroke="black" stroke-width="5.54614" stroke-miterlimit="10"/>
        <path d="M122.288 201.276C116.498 202.694 114.519 208.494 114.329 209.097C114.191 209.542 112.614 214.706 115.525 218.992C115.821 219.426 116.562 220.432 117.811 221.373C121.314 223.987 125.357 223.479 126.342 223.352C127.57 223.194 131.539 222.696 134.142 219.384C136.968 215.786 136.926 210.494 134.576 206.631C132.131 202.631 127.146 200.102 122.288 201.287V201.276Z" fill="#EDA51E" stroke="black" stroke-width="5.54614" stroke-miterlimit="10"/>
        <path d="M138.831 124.147C128.575 115.797 116.393 117.681 113.958 118.062C113.958 118.062 101.755 119.956 92.9909 130.137C92.631 130.55 91.0752 132.275 89.6675 134.931C87.8258 138.424 86.8415 142.382 86.7145 146.784C86.6404 149.546 89.1065 151.705 91.8478 151.377L103.12 150.001C105.247 149.737 106.856 148.022 107.11 145.895C107.364 143.768 108.084 141.927 109.259 140.381C111.058 138.021 113.673 136.624 117.102 136.212C120.531 135.799 123.082 136.318 125.072 137.757C128.713 140.371 129.189 144.858 129.369 146.647C129.432 147.303 129.697 150.308 128.194 154.319C126.659 158.415 125.22 159.6 120.933 164.447C117.197 168.691 114.773 172.829 113.673 176.861C112.858 179.824 112.561 183.454 112.773 187.741C112.9 190.397 115.26 192.408 117.906 192.08L126.733 191C127.866 190.058 129.485 188.503 130.745 186.206C132.587 182.841 132.343 180.343 133.137 177.454C133.846 174.861 135.592 171.273 140.313 167.538C142.388 165.484 146.103 161.251 148.135 154.764C149.945 148.964 149.511 144.223 149.415 143.281C148.251 132.021 140.123 125.195 138.831 124.147Z" fill="#EDA51E" stroke="black" stroke-width="5.54614" stroke-miterlimit="10"/>
    </g>
    <defs>
        <clipPath id="clip0_1113_1744">
            <rect width="472.036" height="338.96" fill="white" transform="translate(0.982117 0.039856)"/>
        </clipPath>
    </defs>
</svg>
