<svg xmlns="http://www.w3.org/2000/svg" xmlns:xlink="http://www.w3.org/1999/xlink" width="322.166" height="533.665" viewBox="0 0 322.166 533.665"><defs><clipPath id="a"><path d="M2.266-.324H217.885a2.6,2.6,0,0,1,2.59,2.59V275.513a2.6,2.6,0,0,1-2.59,2.59H2.266a2.6,2.6,0,0,1-2.59-2.59V2.266A2.6,2.6,0,0,1,2.266-.324Z" fill="#fff" clip-rule="evenodd"/></clipPath></defs><g transform="translate(-1181.5 -216.8)"><g transform="translate(1182 538.906)"><path d="M304.065,460.611H238.3l3.775-28.311h58.76Z" transform="translate(-141.499 -253.796)" fill="#7c828b"/><path d="M7.5,375.8v17.49a6.462,6.462,0,0,0,6.459,6.459H260.408a6.462,6.462,0,0,0,6.459-6.459V375.8Z" transform="translate(-7.5 -220.993)" fill="#c5ced6"/><path d="M266.867,13.159A6.462,6.462,0,0,0,260.408,6.7H13.959A6.462,6.462,0,0,0,7.5,13.159V161.507H266.867Z" transform="translate(-7.5 -6.7)" fill="#414042"/><rect width="241.081" height="137.611" transform="translate(9.143 8.598)" fill="#ec2146"/><path d="M176.953,169.859l-9.059-9.059H155.059L146,169.859v12.834l9.059,9.059h12.834l9.059-9.059V169.859Z" transform="translate(-26.883 -98.711)" fill="#ec2146"/><path d="M164.02,156.868l9.059,9.059v12.834l-9.059,9.059H151.186l-9.017-9.059V165.928l9.059-9.059H164.02m1.174-2.768H150.1l-10.7,10.7v15.1l10.7,10.7h15.1l10.7-10.7V164.8Z" transform="translate(-23.051 -94.821)" fill="#fff"/><g transform="translate(119.536 70.939)"><path d="M153.627,191.672h-3.4l-.671,3.02H147l3.481-12.792h3.02l3.481,12.792H154.34Zm-.5-2.265-.252-1.174c-.168-.629-.294-1.342-.461-2.055-.126-.713-.294-1.426-.461-2.1h-.084c-.126.671-.294,1.384-.419,2.1s-.294,1.384-.461,2.013l-.252,1.174h2.391Z" transform="translate(-147 -181.9)" fill="#fff"/><path d="M174.442,182h3.817a9.816,9.816,0,0,1,1.594.126,3.808,3.808,0,0,1,1.3.5,2.764,2.764,0,0,1,.881.965,3.775,3.775,0,0,1,.168,2.433,2.681,2.681,0,0,1-.336.8,2.936,2.936,0,0,1-.587.671,2.257,2.257,0,0,1-.839.419V188a2.673,2.673,0,0,1,2.391,2.978,3.755,3.755,0,0,1-.336,1.678,3.586,3.586,0,0,1-.923,1.174,4.24,4.24,0,0,1-1.384.671,4.618,4.618,0,0,1-1.678.21H174.4L174.442,182Zm3.649,5.159a1.909,1.909,0,0,0,1.342-.419,1.583,1.583,0,0,0,.419-1.132,1.254,1.254,0,0,0-.419-1.049,2,2,0,0,0-1.3-.294h-1.174V187.2Zm.252,5.369c1.384,0,2.055-.587,2.055-1.762a1.476,1.476,0,0,0-.5-1.216,2.523,2.523,0,0,0-1.552-.377h-1.426v3.355Z" transform="translate(-162.908 -181.958)" fill="#fff"/><path d="M198.642,182h4.068a7.349,7.349,0,0,1,1.678.21,4.24,4.24,0,0,1,1.384.671,3.378,3.378,0,0,1,.923,1.258,4.472,4.472,0,0,1,.336,1.929,4.921,4.921,0,0,1-.336,1.929,3.782,3.782,0,0,1-.965,1.342,4.576,4.576,0,0,1-1.384.8,5.605,5.605,0,0,1-1.678.252h-1.552v4.32H198.6V182Zm3.9,6.165a1.858,1.858,0,0,0,2.055-1.51,1.022,1.022,0,0,0,0-.5,1.773,1.773,0,0,0-.5-1.426,2.432,2.432,0,0,0-1.51-.419H201.2v3.859Z" transform="translate(-176.958 -181.958)" fill="#fff"/></g><path d="M164.842,154.855l10.276,10.276v14.512l-10.276,10.276H150.331l-10.276-10.276V165.131l10.276-10.276h14.512m.294-.755H150l-10.7,10.7v15.1l10.7,10.7h15.1l10.7-10.7V164.8l-10.653-10.7Z" transform="translate(-22.993 -94.821)" fill="#d8d9da"/><path d="M222.276,499.8H288.04l11.576,2.726-88.916.084Z" transform="translate(-125.475 -292.986)" fill="#c5ced6"/><path d="M299.045,507.81h-87.7l-.545-1.426,88.874-.084Z" transform="translate(-125.533 -296.759)" fill="#7c828b"/><path d="M314.927,399.814a4.614,4.614,0,1,1-4.614-4.614A4.6,4.6,0,0,1,314.927,399.814Z" transform="translate(-180.63 -232.257)" fill="#414042"/></g><g transform="translate(1211.561 674.891)"><path d="M35.917,69.965a5.638,5.638,0,0,1-5.609,5.609H5.609A5.607,5.607,0,0,1,0,69.965V5.609A5.607,5.607,0,0,1,5.609,0h24.7a5.638,5.638,0,0,1,5.609,5.609Z" fill="#414042"/><rect width="30.653" height="55.254" transform="translate(2.657 10.332)" fill="#e6e7e8"/><path d="M36.419,139.709a2.509,2.509,0,1,1-2.509-2.509A2.52,2.52,0,0,1,36.419,139.709Z" transform="translate(-15.951 -69.695)" fill="#808285"/><path d="M35.6,13.033a.757.757,0,0,1-.738.738H30.138a.757.757,0,0,1-.738-.738h0a.757.757,0,0,1,.738-.738h4.723a.7.7,0,0,1,.738.738Z" transform="translate(-14.935 -6.243)" fill="#58595b"/></g><g transform="translate(1262.571 637.712)"><g transform="translate(0 0)"><path d="M309.709,241.885l-1.865,1.77-36.9,99.18H394.972l35.3-96.61a4.428,4.428,0,0,0-4.16-5.951H314.771Z" transform="translate(-189.455 -240.274)" fill="#b4b4b4"/><path d="M307.98,241.841l-1.782,1.722L270.94,340.059h118.5l33.73-93.995a4.3,4.3,0,0,0-3.975-5.79H312.816Z" transform="translate(-186.74 -237.498)"/><path d="M347.2,240.274h-1.252a7.608,7.608,0,0,0-7.143,4.979l-35.986,97.581h6.22Z" transform="translate(-221.832 -240.274)" fill="#b4b4b4"/><path d="M347.2,240.274h-1.252a7.6,7.6,0,0,0-7.143,4.844l-35.986,94.94h6.22Z" transform="translate(-219.118 -237.498)"/><path d="M0,0H81.37a0,0,0,0,1,0,0V7.531a2.35,2.35,0,0,1-2.35,2.35H0a0,0,0,0,1,0,0V0A0,0,0,0,1,0,0Z" transform="translate(123.805 102.562)" fill="#757575"/><path d="M436.641,277.077h-116.3c-4.144,0-7.507-2.21-7.507-4.941h0c0-2.728,3.363-4.941,7.507-4.941h116.3Z" transform="translate(-312.836 -164.634)" fill="#9d9d9d"/><path d="M27.145,8.33.029,14.1S-1.279,2.316,13.572.193C25.294-1.487,27.145,8.33,27.145,8.33Z" transform="matrix(-0.978, -0.208, 0.208, -0.978, 162.859, 89.65)" fill="#fff"/></g></g><g transform="translate(1182 217.3)"><path d="M219.941,296.672H5a5,5,0,0,1-5-5V5A5,5,0,0,1,5,0H240.382a5,5,0,0,1,5,5V291.672a5,5,0,0,1-5,5h-2.2l-.239,18Z" fill="#fff" stroke="rgba(0,0,0,0)" stroke-width="1"/><g transform="translate(12.823 9.992)" clip-path="url(#a)"><g transform="translate(-0.314 -0.324)"><path d="M2.594,0H218.185a2.566,2.566,0,0,1,2.594,2.594V275.832a2.566,2.566,0,0,1-2.594,2.594H2.594A2.566,2.566,0,0,1,0,275.832V2.594A2.566,2.566,0,0,1,2.594,0Z" fill="#fff" fill-rule="evenodd"/><g transform="translate(16.835 254.857)"><g transform="translate(160.317)" opacity="0.501"><path d="M7.4,8.922c-.38.633-.823,1.2-1.582,1.2-.633,0-.886-.38-1.645-.38s-.949.38-1.645.38S1.392,9.492.949,8.859C.127,7.657-.57,5.315.316,3.733A2.426,2.426,0,0,1,2.4,2.468c.633,0,1.2.443,1.645.443s1.076-.506,1.9-.443A2.2,2.2,0,0,1,7.783,3.48,2.18,2.18,0,0,0,6.708,5.442,2.3,2.3,0,0,0,8.036,7.53,2.809,2.809,0,0,1,7.4,8.922Z" fill="#585858" fill-rule="evenodd"/><path d="M4.556.759A2.2,2.2,0,0,1,6.011,0a2.316,2.316,0,0,1-.506,1.645,1.8,1.8,0,0,1-1.455.7A2.084,2.084,0,0,1,4.556.759Z" fill="#585858" fill-rule="evenodd"/></g><g transform="translate(179.035 0.527)" opacity="0.501"><path d="M1.709,7.847a.433.433,0,0,0,.443.443h.443V9.808a.624.624,0,0,0,.57.633h.063a.624.624,0,0,0,.633-.57V8.29h.823V9.808a.624.624,0,0,0,.57.633h.063a.624.624,0,0,0,.633-.57V8.29h.38c.253,0,.38-.19.38-.443V3.48h-5ZM.633,3.48A.634.634,0,0,0,0,4.113V7.151a.624.624,0,0,0,.57.633H.633a.624.624,0,0,0,.633-.57v-3.1A.634.634,0,0,0,.633,3.48Zm7.151,0a.634.634,0,0,0-.633.633V7.151a.624.624,0,0,0,.57.633h.063a.634.634,0,0,0,.633-.633V4.113a.68.68,0,0,0-.633-.633ZM5.7.949,6.2.38a.282.282,0,0,0,0-.316c-.063-.127-.19,0-.253.063L5.315.759A2.08,2.08,0,0,0,4.24.506,3.7,3.7,0,0,0,3.1.759L2.468.127a.282.282,0,0,0-.316,0,.282.282,0,0,0,0,.316l.57.57A2.492,2.492,0,0,0,1.709,3.1H6.771A2.667,2.667,0,0,0,5.7.949ZM3.354,2.215h-.38v-.38h.38S3.354,2.215,3.354,2.215Zm2.088,0h-.38v-.38h.38v.38Z" fill="#585858" fill-rule="evenodd"/></g><path d="M.823,3.29h.759V9.112H.823Z" fill="#585858"/><path d="M2.974,4.809h.633l.063.633h0A4.433,4.433,0,0,1,4.3,4.936a1.752,1.752,0,0,1,.823-.19,1.18,1.18,0,0,1,1.012.443,2.176,2.176,0,0,1,.316,1.266V9.175H5.7V6.518a1.676,1.676,0,0,0-.19-.886.666.666,0,0,0-.633-.253.773.773,0,0,0-.57.19,1.17,1.17,0,0,0-.57.443v3.1H2.974Z" fill="#585858"/><path d="M9.112,9.239a1.264,1.264,0,0,1-.57-.127,1.678,1.678,0,0,1-.38-.316.574.574,0,0,1-.19-.443,1.752,1.752,0,0,1-.063-.57v-2.4H7.277V4.872l.7-.063.063-1.2h.633v1.2H9.808v.57H8.669v2.4a1.872,1.872,0,0,0,.127.633.623.623,0,0,0,.506.19.38.38,0,0,0,.253-.063c.063,0,.19-.063.253-.063l.127.57c-.127.063-.253.063-.38.127A1.235,1.235,0,0,1,9.112,9.239Z" fill="#585858"/><path d="M12.276,9.239a3.206,3.206,0,0,1-.823-.127,2.273,2.273,0,0,1-.633-.443,2.613,2.613,0,0,1-.443-.7,2.113,2.113,0,0,1-.19-.949,2.113,2.113,0,0,1,.19-.949,2.613,2.613,0,0,1,.443-.7,2.273,2.273,0,0,1,.633-.443,1.363,1.363,0,0,1,.7-.127,3.176,3.176,0,0,1,.759.127.645.645,0,0,1,.506.316,1.979,1.979,0,0,1,.316.633,3.206,3.206,0,0,1,.127.823v.443H10.947a1.527,1.527,0,0,0,.443,1.076,1.336,1.336,0,0,0,1.012.38,1.752,1.752,0,0,0,.57-.063,1.9,1.9,0,0,0,.506-.253l.253.506a1.979,1.979,0,0,1-.633.316A3.206,3.206,0,0,1,12.276,9.239Zm.949-2.594a1.605,1.605,0,0,0-.253-1.012.852.852,0,0,0-.759-.316,1.077,1.077,0,0,0-.443.063,1.324,1.324,0,0,0-.38.253,1.02,1.02,0,0,0-.253.443,1.848,1.848,0,0,0-.127.57h2.215Z" fill="#585858"/><path d="M14.871,4.809H15.5l.063.759h0a1.723,1.723,0,0,1,.506-.633.952.952,0,0,1,.7-.253.938.938,0,0,1,.443.063l-.127.633c-.063,0-.127-.063-.19-.063h-.253a1.021,1.021,0,0,0-.57.19,1.446,1.446,0,0,0-.506.759V9.049h-.7V4.809Z" fill="#585858"/><path d="M19.553,9.239a3.206,3.206,0,0,1-.823-.127,2.273,2.273,0,0,1-.633-.443,2.613,2.613,0,0,1-.443-.7,2.113,2.113,0,0,1-.19-.949,2.113,2.113,0,0,1,.19-.949,2.613,2.613,0,0,1,.443-.7,2.273,2.273,0,0,1,.633-.443,1.363,1.363,0,0,1,.7-.127,3.176,3.176,0,0,1,.759.127,2.971,2.971,0,0,1,.57.38,1.979,1.979,0,0,1,.316.633,3.206,3.206,0,0,1,.127.823v.443H18.288a1.527,1.527,0,0,0,.443,1.076,1.336,1.336,0,0,0,1.012.38,1.752,1.752,0,0,0,.57-.063,1.9,1.9,0,0,0,.506-.253l.253.506a1.979,1.979,0,0,1-.633.316C20.123,9.175,19.87,9.239,19.553,9.239ZM20.5,6.644a1.605,1.605,0,0,0-.253-1.012.852.852,0,0,0-.759-.316,1.077,1.077,0,0,0-.443.063,1.324,1.324,0,0,0-.38.253,1.02,1.02,0,0,0-.253.443,1.848,1.848,0,0,0-.127.57H20.5Z" fill="#585858"/><path d="M23.223,9.239a2.233,2.233,0,0,1-.886-.19,2.613,2.613,0,0,1-.7-.443l.38-.506.57.38a2.275,2.275,0,0,0,.7.127.945.945,0,0,0,.633-.19.719.719,0,0,0,.19-.506.57.57,0,0,0-.063-.316c-.063-.127-.127-.127-.253-.19a1.383,1.383,0,0,0-.316-.19c-.127-.063-.253-.063-.38-.127s-.316-.127-.443-.19a1.586,1.586,0,0,1-.443-.253l-.316-.316a1.173,1.173,0,0,1-.127-.443,1.489,1.489,0,0,1,.127-.506,1.678,1.678,0,0,0,.38-.316,1.02,1.02,0,0,1,.443-.253,1.951,1.951,0,0,1,.633-.063,3.176,3.176,0,0,1,.759.127,1.659,1.659,0,0,1,.57.316l-.316.443a1.586,1.586,0,0,0-.443-.253,1.489,1.489,0,0,0-.506-.127.773.773,0,0,0-.57.19.574.574,0,0,0-.19.443c0,.127,0,.19.063.253l.19.19a.483.483,0,0,0,.316.127c.127.063.253.063.38.127s.316.127.443.19a1.586,1.586,0,0,1,.443.253c.127.127.253.19.316.38a1.192,1.192,0,0,1,.127.506,1.489,1.489,0,0,1-.127.506.93.93,0,0,1-.316.38,1.272,1.272,0,0,1-.506.253A1.685,1.685,0,0,1,23.223,9.239Z" fill="#585858"/><path d="M26.957,9.239a1.264,1.264,0,0,1-.57-.127,1.678,1.678,0,0,1-.38-.316.574.574,0,0,1-.19-.443,1.752,1.752,0,0,1-.063-.57v-2.4h-.633V4.872l.7-.063.063-1.2h.633v1.2h1.139v.57H26.514v2.4a1.872,1.872,0,0,0,.127.633.623.623,0,0,0,.506.19.38.38,0,0,0,.253-.063c.063,0,.19-.063.253-.063l.127.57c-.127.063-.253.063-.38.127A1.235,1.235,0,0,1,26.957,9.239Z" fill="#585858"/><path d="M30.121,9.239a3.206,3.206,0,0,1-.823-.127,2.273,2.273,0,0,1-.633-.443,2.613,2.613,0,0,1-.443-.7,2.113,2.113,0,0,1-.19-.949,2.113,2.113,0,0,1,.19-.949,2.613,2.613,0,0,1,.443-.7,2.273,2.273,0,0,1,.633-.443,1.363,1.363,0,0,1,.7-.127,3.176,3.176,0,0,1,.759.127,2.972,2.972,0,0,1,.57.38,1.979,1.979,0,0,1,.316.633,3.206,3.206,0,0,1,.127.823v.443H28.855A1.527,1.527,0,0,0,29.3,8.29a1.336,1.336,0,0,0,1.012.38,1.752,1.752,0,0,0,.57-.063,1.9,1.9,0,0,0,.506-.253l.253.506a1.979,1.979,0,0,1-.633.316C30.69,9.175,30.437,9.239,30.121,9.239Zm.949-2.594a1.605,1.605,0,0,0-.253-1.012.852.852,0,0,0-.759-.316,1.077,1.077,0,0,0-.443.063,1.324,1.324,0,0,0-.38.253,1.02,1.02,0,0,0-.253.443,1.848,1.848,0,0,0-.127.57H31.07Z" fill="#585858"/><path d="M34.171,9.239a1.723,1.723,0,0,1-1.329-.57,2.238,2.238,0,0,1-.506-1.645,4.305,4.305,0,0,1,.127-.949,2.613,2.613,0,0,1,.443-.7,3.478,3.478,0,0,1,.57-.443,1.442,1.442,0,0,1,.7-.19,1.872,1.872,0,0,1,.633.127,1.494,1.494,0,0,1,.57.38l.063-.759V2.784H36.2V9.112h-.633L35.5,8.606h0a3.477,3.477,0,0,1-.57.443A1.5,1.5,0,0,1,34.171,9.239Zm.19-.633a1.848,1.848,0,0,0,.57-.127,1.706,1.706,0,0,0,.506-.443V5.758c-.19-.19-.38-.253-.506-.38a.682.682,0,0,0-.506-.127,1.489,1.489,0,0,0-.506.127,1.678,1.678,0,0,0-.38.316,1.272,1.272,0,0,0-.253.506,2.275,2.275,0,0,0-.127.7,2.1,2.1,0,0,0,.316,1.2A.9.9,0,0,0,34.36,8.606Z" fill="#585858"/><path d="M39.613,3.923a.9.9,0,0,1-.38-.127c-.127-.063-.127-.19-.127-.316a.483.483,0,0,1,.127-.316.678.678,0,0,1,.38-.127.9.9,0,0,1,.38.127c.127.063.127.19.127.316a.483.483,0,0,1-.127.316A.9.9,0,0,1,39.613,3.923Zm-.38.886h.7v4.3h-.7Z" fill="#585858"/><path d="M41.384,4.809h.633l.063.633h0a4.433,4.433,0,0,1,.633-.506,1.752,1.752,0,0,1,.823-.19,1.18,1.18,0,0,1,1.012.443,2.176,2.176,0,0,1,.316,1.266V9.175h-.7V6.518a1.676,1.676,0,0,0-.19-.886.666.666,0,0,0-.633-.253.773.773,0,0,0-.57.19,2.05,2.05,0,0,0-.57.506v3.1h-.7V4.809Z" fill="#585858"/><path d="M50.56,7.34H48.472L47.9,9.112h-.759L49.1,3.29h.823l1.962,5.822h-.759Zm-.19-.57-.253-.886c-.127-.316-.19-.633-.316-.949a4.74,4.74,0,0,1-.253-1.012h-.063c-.063.316-.19.7-.253,1.012a5.569,5.569,0,0,1-.316.949l-.253.886Z" fill="#585858"/><path d="M54.04,9.239a1.723,1.723,0,0,1-1.329-.57A2.238,2.238,0,0,1,52.2,7.024a4.305,4.305,0,0,1,.127-.949,2.613,2.613,0,0,1,.443-.7,3.478,3.478,0,0,1,.57-.443,1.442,1.442,0,0,1,.7-.19,1.872,1.872,0,0,1,.633.127,1.494,1.494,0,0,1,.57.38l-.063-.759V2.784h.759V9.112h-.633l-.063-.506h0a3.478,3.478,0,0,1-.57.443A1.069,1.069,0,0,1,54.04,9.239Zm.19-.633a1.848,1.848,0,0,0,.57-.127,1.706,1.706,0,0,0,.506-.443V5.758c-.19-.19-.38-.253-.506-.38s-.38-.063-.506-.063a1.489,1.489,0,0,0-.506.127,1.678,1.678,0,0,0-.38.316,1.272,1.272,0,0,0-.253.506,2.275,2.275,0,0,0-.127.7,2.1,2.1,0,0,0,.316,1.2A.958.958,0,0,0,54.23,8.606Z" fill="#585858"/><path d="M59.355,9.239a2.785,2.785,0,0,1-.633-.127c-.19-.127-.443-.253-.633-.38h0l-.063.443h-.57V2.848h.7V5.315a2.273,2.273,0,0,1,.633-.443,1.442,1.442,0,0,1,.7-.19,3.176,3.176,0,0,1,.759.127,1.706,1.706,0,0,1,.506.443,2.339,2.339,0,0,1,.316.7,3.735,3.735,0,0,1,.127.886,4.918,4.918,0,0,1-.127,1.012,2.844,2.844,0,0,1-.38.759,1.745,1.745,0,0,1-.57.443A1.907,1.907,0,0,1,59.355,9.239Zm-.127-.633a1.489,1.489,0,0,0,.506-.127,1.678,1.678,0,0,0,.38-.316,1.272,1.272,0,0,0,.253-.506,2.373,2.373,0,0,0,.063-.7,1.951,1.951,0,0,0-.063-.633,4.359,4.359,0,0,0-.19-.506.648.648,0,0,0-.38-.316,1.192,1.192,0,0,0-.506-.127,1.641,1.641,0,0,0-1.139.57V8.226a2.972,2.972,0,0,0,.57.38C58.913,8.732,59.1,8.606,59.229,8.606Z" fill="#585858"/><path d="M63.026,9.239c-.253,0-.506-.063-.57-.253a1.137,1.137,0,0,1-.19-.7V2.784h.7V8.29c0,.127,0,.19.063.253s.063.063.127.063h.127l.127.57c-.063,0-.127.063-.19.063Z" fill="#585858"/><path d="M66.126,9.239a3.176,3.176,0,0,1-.759-.127,2.273,2.273,0,0,1-.633-.443,2.613,2.613,0,0,1-.443-.7,2.113,2.113,0,0,1-.19-.949,2.113,2.113,0,0,1,.19-.949,2.613,2.613,0,0,1,.443-.7,2.273,2.273,0,0,1,.633-.443,1.605,1.605,0,0,1,.759-.127,3.176,3.176,0,0,1,.759.127,2.273,2.273,0,0,1,.633.443,2.613,2.613,0,0,1,.443.7,2.312,2.312,0,0,1,.19.949,2.113,2.113,0,0,1-.19.949,2.613,2.613,0,0,1-.443.7,2.273,2.273,0,0,1-.633.443A3.176,3.176,0,0,1,66.126,9.239Zm0-.633a1.192,1.192,0,0,0,.506-.127.93.93,0,0,0,.38-.316,3.757,3.757,0,0,0,.253-.506,2.373,2.373,0,0,0,.063-.7,2.6,2.6,0,0,0-.063-.7.953.953,0,0,0-.253-.506,1.678,1.678,0,0,0-.38-.316,1.076,1.076,0,0,0-1.012,0,.93.93,0,0,0-.38.316,1.272,1.272,0,0,0-.253.506,2.373,2.373,0,0,0-.063.7,2.6,2.6,0,0,0,.063.7,1.272,1.272,0,0,0,.253.506,1.678,1.678,0,0,0,.38.316A1.192,1.192,0,0,0,66.126,8.606Z" fill="#585858"/><path d="M70.872,9.239a3.7,3.7,0,0,1-.823-.127,2.273,2.273,0,0,1-.633-.443,2.613,2.613,0,0,1-.443-.7,2.161,2.161,0,0,1-.127-.949,2.113,2.113,0,0,1,.19-.949,2.613,2.613,0,0,1,.443-.7,2.273,2.273,0,0,1,.633-.443,1.737,1.737,0,0,1,.823-.127,2.275,2.275,0,0,1,.7.127,1.523,1.523,0,0,1,.506.38l-.316.38a1.324,1.324,0,0,0-.38-.253A1.173,1.173,0,0,0,71,5.315a1.848,1.848,0,0,0-.57.127,1.135,1.135,0,0,0-.443.316,1.272,1.272,0,0,0-.253.506,2.275,2.275,0,0,0-.127.7,2.691,2.691,0,0,0,.127.7,1.272,1.272,0,0,0,.253.506,1.135,1.135,0,0,0,.443.316,1.511,1.511,0,0,0,.57.127,1.848,1.848,0,0,0,.57-.127,1.135,1.135,0,0,0,.443-.316l.316.506a1.313,1.313,0,0,1-.633.38A2.185,2.185,0,0,1,70.872,9.239Z" fill="#585858"/><path d="M73.15,2.784h.7v4.24h0l1.835-2.278H76.5L75.049,6.454l1.645,2.594h-.759L74.669,6.961l-.823.949V9.049h-.7Z" fill="#585858"/><path d="M79.225,3.29H80.87a3.891,3.891,0,0,1,.886.063,1.4,1.4,0,0,1,.7.316,1.706,1.706,0,0,1,.443.506,1.583,1.583,0,0,1,.19.823,3.206,3.206,0,0,1-.127.823,1.97,1.97,0,0,1-.443.57,1.4,1.4,0,0,1-.7.316,3.735,3.735,0,0,1-.886.127h-.949V9.112h-.759ZM80.807,6.2a1.879,1.879,0,0,0,1.139-.316A1.062,1.062,0,0,0,82.326,5a.985.985,0,0,0-.38-.886,1.9,1.9,0,0,0-1.139-.253h-.823V6.2Z" fill="#585858"/><path d="M84.857,9.239c-.253,0-.506-.063-.57-.253a1.137,1.137,0,0,1-.19-.7V2.784h.7V8.29c0,.127,0,.19.063.253s.063.063.127.063h.127l.127.57c-.063,0-.127.063-.19.063Z" fill="#585858"/><path d="M87.578,9.239A1.109,1.109,0,0,1,86.565,8.8a2.176,2.176,0,0,1-.316-1.266V4.809h.759V7.467a1.676,1.676,0,0,0,.19.886.666.666,0,0,0,.633.253.773.773,0,0,0,.57-.19,2.416,2.416,0,0,0,.57-.57V4.809h.7v4.3h-.633l-.063-.7h0a2.572,2.572,0,0,1-.633.57A1.55,1.55,0,0,1,87.578,9.239Z" fill="#585858"/><path d="M92.2,9.239a2.233,2.233,0,0,1-.886-.19,2.613,2.613,0,0,1-.7-.443l.38-.506.57.38a2.275,2.275,0,0,0,.7.127.945.945,0,0,0,.633-.19.719.719,0,0,0,.19-.506.57.57,0,0,0-.063-.316c-.063-.127-.127-.127-.253-.19a1.383,1.383,0,0,0-.316-.19c-.127-.063-.253-.063-.38-.127s-.316-.127-.443-.19a1.586,1.586,0,0,1-.443-.253l-.316-.316a1.173,1.173,0,0,1-.127-.443,1.489,1.489,0,0,1,.127-.506A1.678,1.678,0,0,1,91.185,5a1.02,1.02,0,0,1,.443-.253,1.951,1.951,0,0,1,.633-.063,3.176,3.176,0,0,1,.759.127,1.224,1.224,0,0,1,.57.316l-.316.443a1.586,1.586,0,0,0-.443-.253,1.489,1.489,0,0,0-.506-.127.773.773,0,0,0-.57.19.574.574,0,0,0-.19.443c0,.127,0,.19.063.253l.19.19a.483.483,0,0,0,.316.127c.127.063.253.063.38.127s.316.127.443.19a1.586,1.586,0,0,1,.443.253c.127.127.253.19.316.38a1.192,1.192,0,0,1,.127.506,1.489,1.489,0,0,1-.127.506.93.93,0,0,1-.316.38,1.272,1.272,0,0,1-.506.253A1.054,1.054,0,0,1,92.2,9.239Z" fill="#585858"/><path d="M98.082,9.239a3.176,3.176,0,0,1-.759-.127,2.273,2.273,0,0,1-.633-.443,2.613,2.613,0,0,1-.443-.7,2.113,2.113,0,0,1-.19-.949,2.113,2.113,0,0,1,.19-.949,2.613,2.613,0,0,1,.443-.7,2.273,2.273,0,0,1,.633-.443,1.605,1.605,0,0,1,.759-.127,3.176,3.176,0,0,1,.759.127,2.273,2.273,0,0,1,.633.443,2.613,2.613,0,0,1,.443.7,2.312,2.312,0,0,1,.19.949,2.113,2.113,0,0,1-.19.949,2.613,2.613,0,0,1-.443.7,2.273,2.273,0,0,1-.633.443A3.176,3.176,0,0,1,98.082,9.239Zm0-.633a1.192,1.192,0,0,0,.506-.127.93.93,0,0,0,.38-.316,3.756,3.756,0,0,0,.253-.506,2.372,2.372,0,0,0,.063-.7,2.6,2.6,0,0,0-.063-.7,1.272,1.272,0,0,0-.253-.506,1.678,1.678,0,0,0-.38-.316,1.076,1.076,0,0,0-1.012,0,.93.93,0,0,0-.38.316,3.756,3.756,0,0,0-.253.506,2.372,2.372,0,0,0-.063.7,2.6,2.6,0,0,0,.063.7,1.272,1.272,0,0,0,.253.506,1.677,1.677,0,0,0,.38.316A.682.682,0,0,0,98.082,8.606Z" fill="#585858"/><path d="M101.119,4.809h.633l.063.633h0a4.433,4.433,0,0,1,.633-.506,1.752,1.752,0,0,1,.823-.19,1.18,1.18,0,0,1,1.012.443,2.176,2.176,0,0,1,.316,1.266V9.175h-.7V6.518a1.676,1.676,0,0,0-.19-.886.666.666,0,0,0-.633-.253.773.773,0,0,0-.57.19,3.631,3.631,0,0,0-.57.506v3.1h-.7V4.809Z" fill="#585858"/><path d="M107.574,4.809h.633l.063.633h0a2.478,2.478,0,0,1,.633-.506,1.442,1.442,0,0,1,.7-.19,1.349,1.349,0,0,1,.759.19,1.252,1.252,0,0,1,.443.633,2.759,2.759,0,0,1,.7-.57,1.55,1.55,0,0,1,.759-.253,1.18,1.18,0,0,1,1.012.443,2.176,2.176,0,0,1,.316,1.266V9.175h-.7V6.518a1.676,1.676,0,0,0-.19-.886.666.666,0,0,0-.633-.253,1.512,1.512,0,0,0-1.076.633v3.1h-.7V6.454a1.676,1.676,0,0,0-.19-.886.666.666,0,0,0-.633-.253,1.512,1.512,0,0,0-1.076.633v3.1h-.823Z" fill="#585858"/><path d="M116.56,9.239a3.176,3.176,0,0,1-.759-.127,2.273,2.273,0,0,1-.633-.443,2.613,2.613,0,0,1-.443-.7,2.41,2.41,0,0,1-.19-1.012,2.113,2.113,0,0,1,.19-.949,2.613,2.613,0,0,1,.443-.7,2.273,2.273,0,0,1,.633-.443,1.605,1.605,0,0,1,.759-.127,3.176,3.176,0,0,1,.759.127,2.273,2.273,0,0,1,.633.443,2.613,2.613,0,0,1,.443.7,2.312,2.312,0,0,1,.19.949,2.113,2.113,0,0,1-.19.949,2.613,2.613,0,0,1-.443.7,2.273,2.273,0,0,1-.633.443A1.685,1.685,0,0,1,116.56,9.239Zm0-.633a1.192,1.192,0,0,0,.506-.127.93.93,0,0,0,.38-.316,3.756,3.756,0,0,0,.253-.506,2.372,2.372,0,0,0,.063-.7,2.6,2.6,0,0,0-.063-.7,1.272,1.272,0,0,0-.253-.506,1.678,1.678,0,0,0-.38-.316,1.076,1.076,0,0,0-1.012,0,.93.93,0,0,0-.38.316,1.272,1.272,0,0,0-.253.506,2.373,2.373,0,0,0-.063.7,2.6,2.6,0,0,0,.063.7.953.953,0,0,0,.253.506,1.677,1.677,0,0,0,.38.316A.682.682,0,0,0,116.56,8.606Z" fill="#585858"/><path d="M121.5,9.239a2.785,2.785,0,0,1-.633-.127c-.19-.127-.443-.253-.633-.38h0l-.063.443h-.57V2.848h.7V5.315a2.273,2.273,0,0,1,.633-.443,1.442,1.442,0,0,1,.7-.19,3.176,3.176,0,0,1,.759.127,1.706,1.706,0,0,1,.506.443,2.339,2.339,0,0,1,.316.7,3.735,3.735,0,0,1,.127.886,4.919,4.919,0,0,1-.127,1.012,8.472,8.472,0,0,1-.38.759,1.745,1.745,0,0,1-.57.443A2.671,2.671,0,0,1,121.5,9.239Zm-.127-.633a1.489,1.489,0,0,0,.506-.127c.19-.063.253-.19.38-.316a1.272,1.272,0,0,0,.253-.506,2.372,2.372,0,0,0,.063-.7,1.951,1.951,0,0,0-.063-.633,4.36,4.36,0,0,0-.19-.506.648.648,0,0,0-.38-.316,1.192,1.192,0,0,0-.506-.127,1.641,1.641,0,0,0-1.139.57V8.226a2.972,2.972,0,0,0,.57.38C121.052,8.732,121.242,8.606,121.369,8.606Z" fill="#585858"/><path d="M124.786,3.923a.9.9,0,0,1-.38-.127c-.127-.063-.127-.19-.127-.316a.483.483,0,0,1,.127-.316.633.633,0,0,1,.759,0c.127.063.127.19.127.316a.483.483,0,0,1-.127.316A.9.9,0,0,1,124.786,3.923Zm-.38.886h.7v4.3h-.7Z" fill="#585858"/><path d="M127.317,9.239c-.253,0-.506-.063-.57-.253a1.137,1.137,0,0,1-.19-.7V2.784h.7V8.29c0,.127,0,.19.063.253s.063.063.127.063h.127l.127.57c-.063,0-.127.063-.19.063Z" fill="#585858"/><path d="M130.481,9.239a3.206,3.206,0,0,1-.823-.127,2.273,2.273,0,0,1-.633-.443,2.613,2.613,0,0,1-.443-.7,2.113,2.113,0,0,1-.19-.949,2.113,2.113,0,0,1,.19-.949,2.613,2.613,0,0,1,.443-.7,2.273,2.273,0,0,1,.633-.443,1.363,1.363,0,0,1,.7-.127,3.176,3.176,0,0,1,.759.127c.253.063.38.253.57.38a1.98,1.98,0,0,1,.316.633,3.206,3.206,0,0,1,.127.823v.443h-3.037a1.527,1.527,0,0,0,.443,1.076,1.336,1.336,0,0,0,1.012.38,1.752,1.752,0,0,0,.57-.063,1.894,1.894,0,0,0,.506-.253l.253.506a1.98,1.98,0,0,1-.633.316C131.05,9.175,130.734,9.239,130.481,9.239Zm.949-2.594a1.606,1.606,0,0,0-.253-1.012.852.852,0,0,0-.759-.316,1.077,1.077,0,0,0-.443.063,1.324,1.324,0,0,0-.38.253,1.02,1.02,0,0,0-.253.443,1.848,1.848,0,0,0-.127.57h2.215Z" fill="#585858"/><path d="M133.645,7.34a2.109,2.109,0,0,1,0-.633,1.208,1.208,0,0,1,.19-.506,1.923,1.923,0,0,1,.316-.443,1.678,1.678,0,0,0,.316-.38c.063-.127.19-.253.253-.38a.914.914,0,0,0,.127-.443,1.069,1.069,0,0,0-.19-.633.734.734,0,0,0-.633-.253,1.848,1.848,0,0,0-.57.127.851.851,0,0,0-.443.38l-.443-.38a2.478,2.478,0,0,1,.633-.506,2.021,2.021,0,0,1,.886-.19,1.488,1.488,0,0,1,1.076.38,1.336,1.336,0,0,1,.38,1.012,1.192,1.192,0,0,1-.127.506,1.02,1.02,0,0,1-.253.443,2.679,2.679,0,0,0-.316.443c-.127.19-.19.253-.316.443a3.63,3.63,0,0,0-.253.443,1.752,1.752,0,0,0-.063.57h-.57Zm.38,1.9a.9.9,0,0,1-.38-.127.465.465,0,0,1-.127-.38.915.915,0,0,1,.127-.443.465.465,0,0,1,.38-.127.9.9,0,0,1,.38.127.534.534,0,0,1,.127.443.535.535,0,0,1-.127.38A.9.9,0,0,1,134.024,9.239Z" fill="#585858"/></g><g transform="translate(0.324 49.858)"><g transform="translate(0 46.512)"><rect width="220.147" height="146.807" fill="#f7f7f7"/></g><path d="M10.884,10.757V3.733h2.4A5.115,5.115,0,0,1,14.3,3.8a1.865,1.865,0,0,1,.823.316,1.494,1.494,0,0,1,.57.506,3.3,3.3,0,0,1,.127.886,1.077,1.077,0,0,1-.063.443c-.063.127-.127.316-.19.443a1.678,1.678,0,0,1-.316.38,1.324,1.324,0,0,1-.38.253v.063c.19.063.316.127.506.19a1.678,1.678,0,0,1,.38.316,1.272,1.272,0,0,1,.253.506,1.872,1.872,0,0,1,.127.633,2.113,2.113,0,0,1-.19.949,1.8,1.8,0,0,1-.57.633,1.89,1.89,0,0,1-.886.38,5.573,5.573,0,0,1-1.076.127H10.884Zm1.582-4.176h.759c.38,0,.7-.063.823-.253A1.124,1.124,0,0,0,14.3,5.7a.617.617,0,0,0-.253-.57,1.436,1.436,0,0,0-.823-.19h-.759Zm0,2.974h.886q1.329,0,1.329-.949a.7.7,0,0,0-.316-.633,1.937,1.937,0,0,0-.949-.19h-.886V9.555Z"/><path d="M18.6,10.884a2.275,2.275,0,0,1-.7-.127.851.851,0,0,1-.443-.38,1.563,1.563,0,0,1-.253-.57,2.608,2.608,0,0,1-.063-.759V3.227h1.582V9.175c0,.19,0,.253.063.316s.127.127.19.127h.19l.19,1.2a.474.474,0,0,1-.316.063Z"/><path d="M22.4,10.884a2.539,2.539,0,0,1-.949-.19,2.408,2.408,0,0,1-.823-.57,2.145,2.145,0,0,1-.57-.886,3.425,3.425,0,0,1-.19-1.2,3.684,3.684,0,0,1,.19-1.2,2.654,2.654,0,0,1,.57-.886,2.408,2.408,0,0,1,.823-.57,2.468,2.468,0,0,1,1.9,0,2.408,2.408,0,0,1,.823.57,2.145,2.145,0,0,1,.57.886,3.9,3.9,0,0,1,0,2.4,2.654,2.654,0,0,1-.57.886,2.408,2.408,0,0,1-.823.57A2.113,2.113,0,0,1,22.4,10.884Zm0-1.266a.9.9,0,0,0,.759-.38A1.9,1.9,0,0,0,23.413,8.1a2.03,2.03,0,0,0-.253-1.139.722.722,0,0,0-.759-.38.9.9,0,0,0-.759.38A1.9,1.9,0,0,0,21.388,8.1a2.03,2.03,0,0,0,.253,1.139A.771.771,0,0,0,22.4,9.618Z"/><path d="M28.349,10.884a2.623,2.623,0,0,1-1.012-.19,2.408,2.408,0,0,1-.823-.57,2.145,2.145,0,0,1-.57-.886,3.425,3.425,0,0,1-.19-1.2,2.568,2.568,0,0,1,.253-1.2,2.852,2.852,0,0,1,.633-.886,2.654,2.654,0,0,1,.886-.57,2.956,2.956,0,0,1,1.076-.19,2.021,2.021,0,0,1,.886.19,6.9,6.9,0,0,1,.7.38l-.759,1.012a1.334,1.334,0,0,0-.7-.316,1.062,1.062,0,0,0-.886.38,1.536,1.536,0,0,0-.316,1.139,2.024,2.024,0,0,0,.316,1.139.914.914,0,0,0,.886.38,1.489,1.489,0,0,0,.506-.127,2.751,2.751,0,0,0,.443-.253l.633,1.012a2.483,2.483,0,0,1-.886.506A3.752,3.752,0,0,1,28.349,10.884Z"/><path d="M30.943,10.757V3.227h1.519v4.3h.063l1.645-2.088h1.709l-1.9,2.215,2.025,3.164H34.3l-1.2-2.088-.7.759v1.266Z"/><path d="M40.119,10.884a1.872,1.872,0,0,1-.633-.127,1.327,1.327,0,0,1-.823-.823,1.872,1.872,0,0,1-.127-.633,1.567,1.567,0,0,1,.7-1.329,5.484,5.484,0,0,1,2.278-.633.773.773,0,0,0-.19-.57.84.84,0,0,0-.633-.19,2.691,2.691,0,0,0-.7.127,1.9,1.9,0,0,0-.7.38l-.57-1.012A5.61,5.61,0,0,1,39.8,5.569a3.684,3.684,0,0,1,1.2-.19,2.106,2.106,0,0,1,1.582.57,2.55,2.55,0,0,1,.57,1.835v2.974H41.891l-.127-.57H41.7a4.83,4.83,0,0,1-.7.506A2.233,2.233,0,0,1,40.119,10.884Zm.57-1.2a.915.915,0,0,0,.443-.127,1.678,1.678,0,0,0,.38-.316V8.29a2.758,2.758,0,0,0-1.139.316.645.645,0,0,0-.316.506.383.383,0,0,0,.19.38A.493.493,0,0,0,40.688,9.682Z"/><path d="M46.257,10.884a2.021,2.021,0,0,1-.886-.19,1.978,1.978,0,0,1-.7-.57,2.9,2.9,0,0,1-.443-.886,3.511,3.511,0,0,1-.127-1.2,3.684,3.684,0,0,1,.19-1.2,2.96,2.96,0,0,1,.506-.886,1.978,1.978,0,0,1,.7-.57,1.949,1.949,0,0,1,.823-.19,2.36,2.36,0,0,1,.759.127l.57.38-.127-.633V3.227H49.1v7.53H47.839l-.127-.506h-.063a2.273,2.273,0,0,1-.633.443A1.685,1.685,0,0,1,46.257,10.884Zm.38-1.266a.915.915,0,0,0,.443-.127,1.074,1.074,0,0,0,.38-.38V6.9a1.586,1.586,0,0,0-.443-.253,1.077,1.077,0,0,0-.443-.063.973.973,0,0,0-.7.38A1.536,1.536,0,0,0,45.561,8.1a1.785,1.785,0,0,0,.253,1.139A1.361,1.361,0,0,0,46.636,9.618Z"/><path d="M52.015,10.884a3.214,3.214,0,0,1-1.076-.19,3.354,3.354,0,0,1-.949-.506l.7-1.012c.253.19.506.316.7.443a2.691,2.691,0,0,0,.7.127.98.98,0,0,0,.506-.127.348.348,0,0,0,.19-.316.38.38,0,0,0-.063-.253.874.874,0,0,0-.253-.19.678.678,0,0,0-.38-.127.9.9,0,0,0-.38-.127,1.9,1.9,0,0,1-.506-.253,2.679,2.679,0,0,1-.443-.316,1.135,1.135,0,0,1-.316-.443,1.848,1.848,0,0,1-.127-.57,2.691,2.691,0,0,1,.127-.7,1.706,1.706,0,0,1,.443-.506,1.979,1.979,0,0,1,.633-.316,3.206,3.206,0,0,1,.823-.127,2.956,2.956,0,0,1,1.076.19c.316.127.57.316.823.443l-.7.949a2.565,2.565,0,0,0-.57-.316,1.848,1.848,0,0,0-.57-.127c-.38,0-.633.127-.633.443,0,.063,0,.19.063.19a.874.874,0,0,0,.253.19c.127.063.19.127.316.127a.9.9,0,0,0,.38.127c.19.063.316.127.506.19a1.135,1.135,0,0,1,.443.316,1.135,1.135,0,0,1,.316.443,1.872,1.872,0,0,1,.127.633,2.691,2.691,0,0,1-.127.7,1.745,1.745,0,0,1-.443.57,6.9,6.9,0,0,1-.7.38A2.032,2.032,0,0,1,52.015,10.884Z"/><path d="M59.419,10.884a2.539,2.539,0,0,1-.949-.19,2.408,2.408,0,0,1-.823-.57,2.145,2.145,0,0,1-.57-.886,3.425,3.425,0,0,1-.19-1.2,3.684,3.684,0,0,1,.19-1.2,2.654,2.654,0,0,1,.57-.886,2.408,2.408,0,0,1,.823-.57,2.468,2.468,0,0,1,1.9,0,2.408,2.408,0,0,1,.823.57,2.145,2.145,0,0,1,.57.886,3.9,3.9,0,0,1,0,2.4,2.654,2.654,0,0,1-.57.886,2.408,2.408,0,0,1-.823.57A2.113,2.113,0,0,1,59.419,10.884Zm0-1.266a.9.9,0,0,0,.759-.38A1.9,1.9,0,0,0,60.431,8.1a2.03,2.03,0,0,0-.253-1.139.722.722,0,0,0-.759-.38.9.9,0,0,0-.759.38A1.9,1.9,0,0,0,58.406,8.1a2.03,2.03,0,0,0,.253,1.139A.771.771,0,0,0,59.419,9.618Z"/><path d="M63.026,10.757V5.442h1.266l.127.7h.063l.759-.57a1.525,1.525,0,0,1,.949-.253,1.432,1.432,0,0,1,1.266.57,2.783,2.783,0,0,1,.38,1.582v3.29H66.253v-3.1a2.479,2.479,0,0,0-.127-.823.623.623,0,0,0-.506-.19,1.2,1.2,0,0,0-.949.506v3.607Z"/><path d="M69.986,7.4a1.016,1.016,0,0,1-.7-.316.952.952,0,0,1-.253-.7.864.864,0,0,1,.253-.7.924.924,0,0,1,1.392,0,.952.952,0,0,1,.253.7.952.952,0,0,1-.253.7A1.016,1.016,0,0,1,69.986,7.4Zm0,3.48a1.016,1.016,0,0,1-.7-.316.952.952,0,0,1-.253-.7.864.864,0,0,1,.253-.7.924.924,0,0,1,1.392,0,1.084,1.084,0,0,1,0,1.392A.806.806,0,0,1,69.986,10.884Z"/><g transform="translate(11.007 126.911)"><g transform="translate(20.397)"><g transform="translate(0 42.088)"><g transform="translate(0 1.295)"><path d="M7.847,6.834H.57L4.24.633Z" fill="#fff"/><path d="M4.24,1.266l-3.1,5.252h6.2L4.24,1.266M4.24,0l4.24,7.151H0Z" fill="#585858"/></g><g transform="translate(3.885 3.885)"><rect width="0.633" height="1.962" fill="#585858"/><rect width="0.633" height="0.633" transform="translate(0 2.594)" fill="#585858"/></g><path d="M17.275,8.226,15.946,5.948H15V8.226h-.7V2.848H16.01a3.081,3.081,0,0,1,.759.063,1.192,1.192,0,0,1,.57.253.851.851,0,0,1,.38.443,2.275,2.275,0,0,1,.127.7,1.61,1.61,0,0,1-.316,1.012,1.385,1.385,0,0,1-.886.506l1.392,2.341h-.759ZM15,5.379h.886a1.314,1.314,0,0,0,.949-.253,1.048,1.048,0,0,0,.316-.759.863.863,0,0,0-.316-.759,2.113,2.113,0,0,0-.949-.19H15Z" fill="#585858"/><path d="M20.439,8.353a3.176,3.176,0,0,1-.759-.127,2.273,2.273,0,0,1-.633-.443,1.313,1.313,0,0,1-.38-.633,2.011,2.011,0,0,1-.127-.886,3.735,3.735,0,0,1,.127-.886,2.766,2.766,0,0,1,.38-.633,3.478,3.478,0,0,1,.57-.443,1.252,1.252,0,0,1,.7-.127,2.275,2.275,0,0,1,.7.127.984.984,0,0,1,.506.38,2.565,2.565,0,0,1,.316.57,3.176,3.176,0,0,1,.127.759v.38H19.237a1.632,1.632,0,0,0,.38,1.012,1.288,1.288,0,0,0,.949.38,1.234,1.234,0,0,0,.506-.063,1.02,1.02,0,0,0,.443-.253l.253.443c-.19.127-.38.19-.57.316A3.176,3.176,0,0,1,20.439,8.353Zm.886-2.468a1.525,1.525,0,0,0-.253-.949,1.048,1.048,0,0,0-.759-.316.8.8,0,0,0-.38.063,1.163,1.163,0,0,0-.633.633,1.192,1.192,0,0,0-.127.506h2.151Z" fill="#585858"/><path d="M22.78,4.24h.57l.063.443h0a5.565,5.565,0,0,1,.633-.38,1.276,1.276,0,0,1,.7-.19,2.275,2.275,0,0,1,.7.127,3.51,3.51,0,0,1,.506.38,1.979,1.979,0,0,1,.316.633,3.206,3.206,0,0,1,.127.823,3.735,3.735,0,0,1-.127.886,1.508,1.508,0,0,1-.38.7,1.97,1.97,0,0,1-.57.443,1.252,1.252,0,0,1-.633.127,1.848,1.848,0,0,1-.57-.127,2.565,2.565,0,0,1-.57-.316V9.808H22.78Zm1.645,3.544a.915.915,0,0,0,.443-.127,1.678,1.678,0,0,0,.38-.316,1.272,1.272,0,0,0,.253-.506,2.373,2.373,0,0,0,.063-.7,1.571,1.571,0,0,0-.063-.57c-.063-.127-.127-.316-.19-.443A.763.763,0,0,0,25,4.809a1.192,1.192,0,0,0-.506-.127,1.489,1.489,0,0,0-.506.127,2.972,2.972,0,0,0-.57.38V7.277a5.836,5.836,0,0,0,.506.316A1.654,1.654,0,0,0,24.426,7.783Z" fill="#585858"/><path d="M28.855,8.353a2.275,2.275,0,0,1-.7-.127,1.287,1.287,0,0,1-.57-.38,1.313,1.313,0,0,1-.38-.633,2.011,2.011,0,0,1-.127-.886,3.735,3.735,0,0,1,.127-.886,2.766,2.766,0,0,1,.38-.633,3.477,3.477,0,0,1,.57-.443,1.252,1.252,0,0,1,.7-.127,2.275,2.275,0,0,1,.7.127,1.01,1.01,0,0,1,.57.443,1.313,1.313,0,0,1,.38.633,2.011,2.011,0,0,1,.127.886,3.735,3.735,0,0,1-.127.886,2.767,2.767,0,0,1-.38.633,1.494,1.494,0,0,1-.57.38A2.275,2.275,0,0,1,28.855,8.353Zm0-.57a.915.915,0,0,0,.443-.127,1.678,1.678,0,0,0,.38-.316,1.272,1.272,0,0,0,.253-.506,1.951,1.951,0,0,0,.063-.633,1.951,1.951,0,0,0-.063-.633,1.272,1.272,0,0,0-.253-.506,1.678,1.678,0,0,0-.38-.316.838.838,0,0,0-.886,0,1.678,1.678,0,0,0-.38.316,1.272,1.272,0,0,0-.253.506,1.951,1.951,0,0,0-.063.633,1.951,1.951,0,0,0,.063.633,1.9,1.9,0,0,0,.253.506,1.678,1.678,0,0,0,.38.316A.915.915,0,0,0,28.855,7.783Z" fill="#585858"/><path d="M31.7,4.24h.57v.7h0a1.494,1.494,0,0,1,.506-.57,1.124,1.124,0,0,1,.633-.253.938.938,0,0,1,.443.063l-.127.57c-.063,0-.127-.063-.19-.063h-.19a.842.842,0,0,0-.506.19,2.194,2.194,0,0,0-.506.7V8.226h-.7V4.24Z" fill="#585858"/><path d="M35.689,8.353a1.848,1.848,0,0,1-.57-.127,1.324,1.324,0,0,1-.38-.253,3.085,3.085,0,0,1-.19-.443,1.571,1.571,0,0,1-.063-.57V4.809h-.57V4.24l.633-.063.063-1.139h.57V4.176h1.076v.57H35.183V6.961a1.264,1.264,0,0,0,.127.57c.063.127.253.19.506.19a.478.478,0,0,0,.253-.063c.063,0,.127-.063.253-.063l.127.506a.722.722,0,0,1-.38.19C35.942,8.29,35.816,8.353,35.689,8.353Z" fill="#585858"/><path d="M39.106,3.417a.483.483,0,0,1-.316-.127.348.348,0,0,1-.19-.316.483.483,0,0,1,.127-.316.9.9,0,0,1,.38-.127.483.483,0,0,1,.316.127.459.459,0,0,1,0,.633C39.3,3.354,39.233,3.417,39.106,3.417Zm-.38.823h.7V8.226h-.7Z" fill="#585858"/><path d="M41.7,8.353a3.206,3.206,0,0,1-.823-.127,6.9,6.9,0,0,1-.7-.38L40.5,7.4a2.565,2.565,0,0,0,.57.316,1.872,1.872,0,0,0,.633.127.773.773,0,0,0,.57-.19.574.574,0,0,0,.19-.443c0-.127,0-.19-.063-.253l-.19-.19a.483.483,0,0,0-.316-.127c-.127,0-.19-.063-.316-.127s-.316-.127-.443-.19a1.324,1.324,0,0,1-.38-.253.632.632,0,0,1-.253-.316.915.915,0,0,1-.127-.443.938.938,0,0,1,.063-.443,1.324,1.324,0,0,1,.253-.38,1.02,1.02,0,0,1,.443-.253,1.752,1.752,0,0,1,.57-.063,2.275,2.275,0,0,1,.7.127,1.9,1.9,0,0,1,.633.253L42.713,5a1.02,1.02,0,0,0-.443-.253,1.192,1.192,0,0,0-.506-.127.773.773,0,0,0-.57.19.915.915,0,0,0-.127.443.38.38,0,0,0,.063.253l.19.19a.48.48,0,0,0,.253.127c.127.063.19.063.316.127s.316.127.443.19a1.324,1.324,0,0,1,.38.253.632.632,0,0,1,.253.316,1.192,1.192,0,0,1,.127.506.938.938,0,0,1-.063.443,1.324,1.324,0,0,1-.253.38,1.02,1.02,0,0,1-.443.253A1.951,1.951,0,0,1,41.7,8.353Z" fill="#585858"/><path d="M45.118,8.353a3.206,3.206,0,0,1-.823-.127,6.9,6.9,0,0,1-.7-.38l.316-.443a2.565,2.565,0,0,0,.57.316,1.872,1.872,0,0,0,.633.127.773.773,0,0,0,.57-.19.574.574,0,0,0,.19-.443c0-.127,0-.19-.063-.253l-.19-.19a.483.483,0,0,0-.316-.127c-.127,0-.19-.063-.316-.127s-.316-.127-.443-.19a1.324,1.324,0,0,1-.38-.253.632.632,0,0,1-.253-.316.915.915,0,0,1-.127-.443.938.938,0,0,1,.063-.443,1.324,1.324,0,0,1,.253-.38,1.02,1.02,0,0,1,.443-.253,1.752,1.752,0,0,1,.57-.063,2.275,2.275,0,0,1,.7.127,2.565,2.565,0,0,1,.57.316l-.316.443a1.02,1.02,0,0,0-.443-.253,1.192,1.192,0,0,0-.506-.127.773.773,0,0,0-.57.19.547.547,0,0,0-.19.38.38.38,0,0,0,.063.253l.19.19a.535.535,0,0,1,.38.127c.127.063.19.063.316.127s.316.127.443.19a1.324,1.324,0,0,1,.38.253.632.632,0,0,1,.253.316,1.192,1.192,0,0,1,.127.506.938.938,0,0,1-.063.443,1.324,1.324,0,0,1-.253.38,1.02,1.02,0,0,1-.443.253A2.153,2.153,0,0,1,45.118,8.353Z" fill="#585858"/><path d="M48.6,8.353a1.11,1.11,0,0,1-.949-.38,1.879,1.879,0,0,1-.316-1.139V4.3h.7V6.771a1.436,1.436,0,0,0,.19.823.617.617,0,0,0,.57.253,1.021,1.021,0,0,0,.57-.19,1.909,1.909,0,0,0,.506-.506V4.24h.7V8.226h-.57l-.063-.633h0a4.094,4.094,0,0,1-.57.506A1.55,1.55,0,0,1,48.6,8.353Z" fill="#585858"/><path d="M53.471,8.353a3.176,3.176,0,0,1-.759-.127,2.273,2.273,0,0,1-.633-.443,1.313,1.313,0,0,1-.38-.633,2.011,2.011,0,0,1-.127-.886,3.735,3.735,0,0,1,.127-.886,2.766,2.766,0,0,1,.38-.633,3.478,3.478,0,0,1,.57-.443,1.252,1.252,0,0,1,.7-.127,2.275,2.275,0,0,1,.7.127.984.984,0,0,1,.506.38,2.565,2.565,0,0,1,.316.57,3.176,3.176,0,0,1,.127.759v.38H52.268a1.632,1.632,0,0,0,.38,1.012,1.288,1.288,0,0,0,.949.38A1.234,1.234,0,0,0,54.1,7.72a1.02,1.02,0,0,0,.443-.253l.253.443c-.19.127-.38.19-.57.316A3.176,3.176,0,0,1,53.471,8.353Zm.886-2.468a1.525,1.525,0,0,0-.253-.949,1.048,1.048,0,0,0-.759-.316.8.8,0,0,0-.38.063,1.163,1.163,0,0,0-.633.633,1.192,1.192,0,0,0-.127.506h2.151Z" fill="#585858"/></g><g transform="translate(96.478 42.088)"><g transform="translate(0 1.295)"><circle cx="3.544" cy="3.544" r="3.544" transform="translate(0 0)" fill="none" stroke="#585858" stroke-width="0.633"/><path d="M6.138.949.949,6.138" fill="none" stroke="#585858" stroke-width="0.633"/></g><path d="M13.035,2.848h1.582a3.081,3.081,0,0,1,.759.063,1.9,1.9,0,0,1,.633.253,1.074,1.074,0,0,1,.38.38,1.872,1.872,0,0,1,.127.633,1.685,1.685,0,0,1-.19.759,1.01,1.01,0,0,1-.57.443v.063a1.512,1.512,0,0,1,.823.443,1.252,1.252,0,0,1,.316.886,2.275,2.275,0,0,1-.127.7,1.706,1.706,0,0,1-.443.506,1.979,1.979,0,0,1-.633.316,3.206,3.206,0,0,1-.823.127H13.162V2.848Zm1.519,2.278a1.5,1.5,0,0,0,1.012-.253.879.879,0,0,0,.316-.633.907.907,0,0,0-.316-.7,1.778,1.778,0,0,0-.949-.19h-.823V5.126Zm.127,2.531A1.811,1.811,0,0,0,15.756,7.4a.94.94,0,0,0,.38-.823.9.9,0,0,0-.38-.759,1.811,1.811,0,0,0-1.076-.253h-.949V7.593h.949Z" fill="#585858"/><path d="M18.477,8.353a.617.617,0,0,1-.57-.253,1.018,1.018,0,0,1-.19-.7V2.341h.7V7.467c0,.127,0,.19.063.253s.063.063.127.063h.127l.063.506a.221.221,0,0,0-.127.063Z" fill="#585858"/><path d="M21.325,8.353a2.275,2.275,0,0,1-.7-.127,1.287,1.287,0,0,1-.57-.38,1.313,1.313,0,0,1-.38-.633,2.011,2.011,0,0,1-.127-.886,3.735,3.735,0,0,1,.127-.886,2.766,2.766,0,0,1,.38-.633,3.478,3.478,0,0,1,.57-.443,2.691,2.691,0,0,1,.7-.127,2.275,2.275,0,0,1,.7.127,1.276,1.276,0,0,1,.57.443,1.313,1.313,0,0,1,.38.633,2.011,2.011,0,0,1,.127.886,3.735,3.735,0,0,1-.127.886,2.766,2.766,0,0,1-.38.633,1.494,1.494,0,0,1-.57.38A2.275,2.275,0,0,1,21.325,8.353Zm0-.57a.915.915,0,0,0,.443-.127,1.678,1.678,0,0,0,.38-.316,1.272,1.272,0,0,0,.253-.506,1.951,1.951,0,0,0,.063-.633,1.951,1.951,0,0,0-.063-.633,1.272,1.272,0,0,0-.253-.506,1.678,1.678,0,0,0-.38-.316.838.838,0,0,0-.886,0,1.678,1.678,0,0,0-.38.316,1.272,1.272,0,0,0-.253.506,1.951,1.951,0,0,0-.063.633,1.951,1.951,0,0,0,.063.633,1.9,1.9,0,0,0,.253.506,1.678,1.678,0,0,0,.38.316A.915.915,0,0,0,21.325,7.783Z" fill="#585858"/><path d="M25.754,8.353A3.176,3.176,0,0,1,25,8.226a1.287,1.287,0,0,1-.57-.38,1.313,1.313,0,0,1-.38-.633,2.011,2.011,0,0,1-.127-.886,3.735,3.735,0,0,1,.127-.886,1.615,1.615,0,0,1,.443-.633,2.273,2.273,0,0,1,.633-.443,3.176,3.176,0,0,1,.759-.127,2.275,2.275,0,0,1,.7.127,1.378,1.378,0,0,1,.506.316l-.506.38a1.324,1.324,0,0,0-.38-.253.915.915,0,0,0-.443-.127,1.192,1.192,0,0,0-.506.127.93.93,0,0,0-.38.316,1.272,1.272,0,0,0-.253.506,1.951,1.951,0,0,0-.063.633,1.951,1.951,0,0,0,.063.633,1.9,1.9,0,0,0,.253.506,1.678,1.678,0,0,0,.38.316,1.076,1.076,0,0,0,1.012,0c.127-.063.316-.19.443-.253l.316.443a2.971,2.971,0,0,1-.57.38C26.2,8.29,25.944,8.353,25.754,8.353Z" fill="#585858"/><path d="M27.843,2.341h.633V6.328h0L30.184,4.24h.759L29.614,5.822l1.519,2.4h-.759l-1.139-1.9-.759.823V8.226h-.633Z" fill="#585858"/><path d="M34.993,8.353a3.176,3.176,0,0,1-.759-.127,1.447,1.447,0,0,1-.633-.443,1.313,1.313,0,0,1-.38-.633,3.735,3.735,0,0,1-.127-.886,3.734,3.734,0,0,1,.127-.886,2.766,2.766,0,0,1,.38-.633,4.461,4.461,0,0,1,.57-.443,1.252,1.252,0,0,1,.7-.127,2.275,2.275,0,0,1,.7.127.984.984,0,0,1,.506.38,2.565,2.565,0,0,1,.316.57,3.176,3.176,0,0,1,.127.759v.38H33.791a1.632,1.632,0,0,0,.38,1.012,1.288,1.288,0,0,0,.949.38,1.234,1.234,0,0,0,.506-.063,1.02,1.02,0,0,0,.443-.253l.253.443c-.19.127-.38.19-.57.316A1.37,1.37,0,0,1,34.993,8.353Zm.886-2.468a1.525,1.525,0,0,0-.253-.949,1.048,1.048,0,0,0-.759-.316.8.8,0,0,0-.38.063,1.163,1.163,0,0,0-.633.633,1.192,1.192,0,0,0-.127.506h2.151Z" fill="#585858"/><path d="M38.094,8.353a.617.617,0,0,1-.57-.253,1.018,1.018,0,0,1-.19-.7V2.341h.7V7.467c0,.127,0,.19.063.253s.063.063.127.063h.127l.063.506a.221.221,0,0,0-.127.063Z" fill="#585858"/><path d="M41.068,8.353a3.176,3.176,0,0,1-.759-.127,2.273,2.273,0,0,1-.633-.443,1.313,1.313,0,0,1-.38-.633,2.011,2.011,0,0,1-.127-.886,3.735,3.735,0,0,1,.127-.886,2.767,2.767,0,0,1,.38-.633,3.477,3.477,0,0,1,.57-.443,1.252,1.252,0,0,1,.7-.127,2.275,2.275,0,0,1,.7.127.984.984,0,0,1,.506.38,2.565,2.565,0,0,1,.316.57,3.176,3.176,0,0,1,.127.759v.38H39.866a1.632,1.632,0,0,0,.38,1.012,1.288,1.288,0,0,0,.949.38A1.234,1.234,0,0,0,41.7,7.72a1.02,1.02,0,0,0,.443-.253l.253.443c-.19.127-.38.19-.57.316A3.176,3.176,0,0,1,41.068,8.353Zm.886-2.468a1.525,1.525,0,0,0-.253-.949,1.048,1.048,0,0,0-.759-.316.8.8,0,0,0-.38.063,1.163,1.163,0,0,0-.633.633,1.847,1.847,0,0,0-.127.57Z" fill="#585858"/><path d="M43.409,4.24h.57l.063.57h0a4.094,4.094,0,0,1,.57-.506,1.276,1.276,0,0,1,.7-.19,1.018,1.018,0,0,1,.7.19.921.921,0,0,1,.38.57,2.572,2.572,0,0,1,.633-.57,1.276,1.276,0,0,1,.7-.19.985.985,0,0,1,.886.38,1.879,1.879,0,0,1,.316,1.139V8.163h-.7v-2.4a1.436,1.436,0,0,0-.19-.823.617.617,0,0,0-.57-.253,1.412,1.412,0,0,0-1.012.633V8.226h-.7V5.758a1.436,1.436,0,0,0-.19-.823.617.617,0,0,0-.57-.253,1.412,1.412,0,0,0-1.012.633V8.226h-.7V4.24Z" fill="#585858"/><path d="M51.825,8.353a3.176,3.176,0,0,1-.759-.127,1.447,1.447,0,0,1-.633-.443,1.313,1.313,0,0,1-.38-.633,3.735,3.735,0,0,1-.127-.886,3.735,3.735,0,0,1,.127-.886,2.766,2.766,0,0,1,.38-.633A4.461,4.461,0,0,1,51,4.3a1.252,1.252,0,0,1,.7-.127,2.275,2.275,0,0,1,.7.127.984.984,0,0,1,.506.38,2.565,2.565,0,0,1,.316.57,3.176,3.176,0,0,1,.127.759v.38H50.623A1.632,1.632,0,0,0,51,7.4a1.288,1.288,0,0,0,.949.38,1.234,1.234,0,0,0,.506-.063,1.02,1.02,0,0,0,.443-.253l.253.443c-.19.127-.38.19-.57.316A1.484,1.484,0,0,1,51.825,8.353Zm.823-2.468a1.525,1.525,0,0,0-.253-.949,1.048,1.048,0,0,0-.759-.316.8.8,0,0,0-.38.063,1.163,1.163,0,0,0-.633.633c0,.19-.063.38-.063.57Z" fill="#585858"/><path d="M54.167,4.24h.57l.063.57h0a2.478,2.478,0,0,1,.633-.506,1.349,1.349,0,0,1,.759-.19,1.11,1.11,0,0,1,.949.38,1.879,1.879,0,0,1,.316,1.139V8.163h-.7v-2.4a1.436,1.436,0,0,0-.19-.823A.617.617,0,0,0,56,4.683a1.848,1.848,0,0,0-.57.127c-.19.127-.316.253-.57.443V8.226h-.7V4.24Z" fill="#585858"/><path d="M59.862,8.353a1.848,1.848,0,0,1-.57-.127.807.807,0,0,1-.38-.253,3.085,3.085,0,0,1-.19-.443,1.571,1.571,0,0,1-.063-.57V4.809h-.57V4.24l.633-.063L58.849,3.1h.57V4.24h1.076v.57H59.419V7.024a1.264,1.264,0,0,0,.127.57c.063.127.253.19.506.19A.478.478,0,0,0,60.3,7.72c.063,0,.127-.063.253-.063l.127.506c-.127.063-.253.063-.38.127C60.115,8.29,59.988,8.353,59.862,8.353Z" fill="#585858"/></g><text transform="translate(25.9 8.226)" font-size="8" font-family="SourceSansPro-Light, Source Sans Pro" font-weight="300"><tspan x="0" y="0">in total</tspan></text></g><line y2="20.755" transform="translate(0 36.575)" fill="none" stroke="#e6e6e6" stroke-width="0.633"/><line y2="20.755" transform="translate(100.36 36.575)" fill="none" stroke="#e6e6e6" stroke-width="0.633"/><line y2="20.755" transform="translate(198.126 36.575)" fill="none" stroke="#e6e6e6" stroke-width="0.633"/></g><g transform="translate(10.684 57.628)"><g transform="translate(0 19.425)"><g transform="translate(-11.011 -126.912)"><path d="M13.6,126.937H207.238a2.7,2.7,0,0,1,2.594,2.848v27.653a2.7,2.7,0,0,1-2.594,2.848H13.6a2.7,2.7,0,0,1-2.594-2.848V129.721A2.687,2.687,0,0,1,13.6,126.937Z" fill="#fff" stroke="#e5e5e5" stroke-width="0.633" fill-rule="evenodd"/></g></g><g transform="translate(0 58.923)"><g transform="translate(-11.011 -166.411)"><path d="M13.6,166.423H207.238a2.7,2.7,0,0,1,2.594,2.848v27.653a2.7,2.7,0,0,1-2.594,2.848H13.6a2.7,2.7,0,0,1-2.594-2.848V169.271A2.7,2.7,0,0,1,13.6,166.423Z" fill="#fff" stroke="#e5e5e5" stroke-width="0.633" fill-rule="evenodd"/></g></g><path d="M1.455,10.757V3.733H3.1l1.835,3.48.7,1.519H5.7c-.063-.38-.063-.759-.127-1.266a9.345,9.345,0,0,1-.063-1.329v-2.4H6.961v7.024H5.379L3.544,7.277l-.7-1.519H2.784c.063.38.063.823.127,1.266A8.912,8.912,0,0,1,2.974,8.29v2.468Z"/><path d="M10,10.884a1.432,1.432,0,0,1-1.266-.57,2.783,2.783,0,0,1-.38-1.582V5.442H9.935v3.1a1.436,1.436,0,0,0,.19.823.623.623,0,0,0,.506.19,1.192,1.192,0,0,0,.506-.127,2.857,2.857,0,0,0,.443-.443V5.442h1.582v5.315H11.9L11.77,10h-.063a3.355,3.355,0,0,1-.759.633A1.525,1.525,0,0,1,10,10.884Z"/><path d="M14.428,10.757V5.442h1.266l.127.7h.063a2.759,2.759,0,0,1,.7-.57,1.453,1.453,0,0,1,.886-.253,1.525,1.525,0,0,1,.949.253,1.385,1.385,0,0,1,.57.633,6.7,6.7,0,0,1,.759-.633,1.525,1.525,0,0,1,.949-.253,1.432,1.432,0,0,1,1.266.57,2.783,2.783,0,0,1,.38,1.582v3.29H20.755v-3.1a2.479,2.479,0,0,0-.127-.823.623.623,0,0,0-.506-.19,1.439,1.439,0,0,0-.886.506v3.607H17.655v-3.1a2.479,2.479,0,0,0-.127-.823.623.623,0,0,0-.506-.19,1.439,1.439,0,0,0-.886.506v3.607Z"/><path d="M26.324,10.884a1.276,1.276,0,0,1-.7-.19,4.829,4.829,0,0,1-.7-.506h-.063l-.063.57H23.54V3.227h1.582V5.062l-.063.823a4.256,4.256,0,0,1,.7-.443,1.605,1.605,0,0,1,.759-.127,2.021,2.021,0,0,1,.886.19,1.385,1.385,0,0,1,.633.57c.127.253.316.506.443.823A3.142,3.142,0,0,1,28.6,8.036a3.425,3.425,0,0,1-.19,1.2,2.96,2.96,0,0,1-.506.886,1.978,1.978,0,0,1-.7.57A2.233,2.233,0,0,1,26.324,10.884Zm-.38-1.266a.874.874,0,0,0,.7-.38,1.956,1.956,0,0,0,.316-1.2c0-.949-.316-1.455-.949-1.455a1.185,1.185,0,0,0-.886.506V9.3a1.586,1.586,0,0,0,.443.253C25.691,9.555,25.818,9.618,25.944,9.618Z"/><path d="M32.019,10.884a2.956,2.956,0,0,1-1.076-.19,2.654,2.654,0,0,1-.886-.57,2.145,2.145,0,0,1-.57-.886,3.684,3.684,0,0,1-.19-1.2,3.065,3.065,0,0,1,.19-1.139,2.654,2.654,0,0,1,.57-.886,2.408,2.408,0,0,1,.823-.57,2.539,2.539,0,0,1,.949-.19,2.623,2.623,0,0,1,1.012.19,2.81,2.81,0,0,1,.7.506,3.409,3.409,0,0,1,.443.823,4.918,4.918,0,0,1,.127,1.012v.38a.474.474,0,0,1-.063.316H30.88a1.385,1.385,0,0,0,.506.886,1.453,1.453,0,0,0,.886.253,2.041,2.041,0,0,0,1.139-.38l.506.949a3.866,3.866,0,0,1-.886.443A2.978,2.978,0,0,1,32.019,10.884Zm-1.2-3.354h1.9a1.349,1.349,0,0,0-.19-.759.788.788,0,0,0-.7-.253.812.812,0,0,0-.633.253A1.082,1.082,0,0,0,30.817,7.53Z"/><path d="M35.056,10.757V5.442h1.266l.127.949h.063a2.285,2.285,0,0,1,.7-.823,1.392,1.392,0,0,1,.823-.253h.38c.127,0,.19.063.253.063L38.41,6.771c-.127,0-.19-.063-.253-.063h-.316a1.415,1.415,0,0,0-.633.19c-.253.127-.38.38-.57.759v3.1Z"/><path d="M43.6,10.884a2.539,2.539,0,0,1-.949-.19,2.408,2.408,0,0,1-.823-.57,2.145,2.145,0,0,1-.57-.886,3.425,3.425,0,0,1-.19-1.2,3.684,3.684,0,0,1,.19-1.2,2.654,2.654,0,0,1,.57-.886,2.408,2.408,0,0,1,.823-.57,2.468,2.468,0,0,1,1.9,0,2.408,2.408,0,0,1,.823.57,2.145,2.145,0,0,1,.57.886,3.9,3.9,0,0,1,0,2.4,2.654,2.654,0,0,1-.57.886,2.408,2.408,0,0,1-.823.57A2.113,2.113,0,0,1,43.6,10.884Zm0-1.266a.9.9,0,0,0,.759-.38A1.9,1.9,0,0,0,44.612,8.1a2.03,2.03,0,0,0-.253-1.139.722.722,0,0,0-.759-.38.9.9,0,0,0-.759.38A1.9,1.9,0,0,0,42.587,8.1a2.03,2.03,0,0,0,.253,1.139A.771.771,0,0,0,43.6,9.618Z"/><path d="M47.4,10.757V6.644h-.7V5.505l.7-.063V5.126a3.7,3.7,0,0,1,.127-.823,1.979,1.979,0,0,1,.316-.633,1.615,1.615,0,0,1,.633-.443,3.735,3.735,0,0,1,.886-.127,1.951,1.951,0,0,1,.633.063,4.032,4.032,0,0,1,.443.127L50.18,4.43a1.848,1.848,0,0,0-.57-.127.574.574,0,0,0-.443.19.773.773,0,0,0-.19.57v.316h.949V6.644h-.949v4.113Z"/><path d="M53.534,4.619a.734.734,0,0,1-.633-.253.687.687,0,0,1-.253-.57.617.617,0,0,1,.253-.57,1.124,1.124,0,0,1,.633-.253.734.734,0,0,1,.633.253.617.617,0,0,1,.253.57.617.617,0,0,1-.253.57A.666.666,0,0,1,53.534,4.619Zm-.759,6.138V5.442h1.582v5.315Z"/><path d="M57.71,10.884a2.808,2.808,0,0,1-.823-.127,1.378,1.378,0,0,1-.57-.443A1.979,1.979,0,0,1,56,9.682a3.206,3.206,0,0,1-.127-.823V6.708h-.759v-1.2l.823-.063.19-1.392h1.329V5.442h1.266V6.708H57.457V8.859a.84.84,0,0,0,.19.633.719.719,0,0,0,.506.19.38.38,0,0,0,.253-.063c.063,0,.19-.063.253-.063l.253,1.139c-.127.063-.316.063-.506.127A2.6,2.6,0,0,1,57.71,10.884Z"/><path d="M61.887,10.884a2.956,2.956,0,0,1-1.076-.19,2.654,2.654,0,0,1-.886-.57,2.145,2.145,0,0,1-.57-.886,3.684,3.684,0,0,1-.19-1.2,3.065,3.065,0,0,1,.19-1.139,2.654,2.654,0,0,1,.57-.886,2.408,2.408,0,0,1,.823-.57,2.539,2.539,0,0,1,.949-.19,2.623,2.623,0,0,1,1.012.19,2.81,2.81,0,0,1,.7.506,3.409,3.409,0,0,1,.443.823,4.918,4.918,0,0,1,.127,1.012v.38a.474.474,0,0,1-.063.316H60.748a1.385,1.385,0,0,0,.506.886,1.453,1.453,0,0,0,.886.253,2.041,2.041,0,0,0,1.139-.38l.506.949a3.866,3.866,0,0,1-.886.443A2.979,2.979,0,0,1,61.887,10.884Zm-1.2-3.354h1.9a1.349,1.349,0,0,0-.19-.759.788.788,0,0,0-.7-.253.812.812,0,0,0-.633.253A1.082,1.082,0,0,0,60.684,7.53Z"/><path d="M64.924,10.757V5.442H66.19l.127.7h.063a2.759,2.759,0,0,1,.7-.57,1.453,1.453,0,0,1,.886-.253,1.525,1.525,0,0,1,.949.253,1.385,1.385,0,0,1,.57.633,6.7,6.7,0,0,1,.759-.633,1.525,1.525,0,0,1,.949-.253,1.432,1.432,0,0,1,1.266.57,2.783,2.783,0,0,1,.38,1.582v3.29H71.252v-3.1a2.479,2.479,0,0,0-.127-.823.623.623,0,0,0-.506-.19,1.439,1.439,0,0,0-.886.506v3.607H68.151v-3.1a2.479,2.479,0,0,0-.127-.823.623.623,0,0,0-.506-.19,1.439,1.439,0,0,0-.886.506v3.607Z"/><path d="M75.618,10.884a3.214,3.214,0,0,1-1.076-.19,3.354,3.354,0,0,1-.949-.506l.7-1.012c.253.19.506.316.7.443a2.691,2.691,0,0,0,.7.127.98.98,0,0,0,.506-.127.348.348,0,0,0,.19-.316.38.38,0,0,0-.063-.253.873.873,0,0,0-.253-.19.678.678,0,0,0-.38-.127.9.9,0,0,0-.38-.127,1.9,1.9,0,0,1-.506-.253,2.679,2.679,0,0,1-.443-.316,1.135,1.135,0,0,1-.316-.443,1.848,1.848,0,0,1-.127-.57,2.691,2.691,0,0,1,.127-.7,1.706,1.706,0,0,1,.443-.506,1.979,1.979,0,0,1,.633-.316,3.206,3.206,0,0,1,.823-.127,2.956,2.956,0,0,1,1.076.19c.316.127.57.316.823.443l-.7.949a2.565,2.565,0,0,0-.57-.316A1.848,1.848,0,0,0,76,6.518c-.38,0-.633.127-.633.443,0,.063,0,.19.063.19a.874.874,0,0,0,.253.19c.127.063.19.127.316.127a.9.9,0,0,0,.38.127c.19.063.316.127.506.19a1.135,1.135,0,0,1,.443.316,1.135,1.135,0,0,1,.316.443,1.872,1.872,0,0,1,.127.633,2.691,2.691,0,0,1-.127.7,1.745,1.745,0,0,1-.443.57,6.9,6.9,0,0,1-.7.38A1.951,1.951,0,0,1,75.618,10.884Z"/><path d="M83.591,10.884a1.276,1.276,0,0,1-.7-.19,4.83,4.83,0,0,1-.7-.506h-.063l-.127.57H80.744V3.227h1.582V5.062l-.063.823a2.613,2.613,0,0,1,.7-.443,1.605,1.605,0,0,1,.759-.127,2.021,2.021,0,0,1,.886.19,1.385,1.385,0,0,1,.633.57c.127.253.316.506.443.823a3.142,3.142,0,0,1,.127,1.139,3.425,3.425,0,0,1-.19,1.2,2.96,2.96,0,0,1-.506.886,1.978,1.978,0,0,1-.7.57A1.948,1.948,0,0,1,83.591,10.884Zm-.38-1.266a.874.874,0,0,0,.7-.38,1.956,1.956,0,0,0,.316-1.2c0-.949-.316-1.455-.949-1.455a1.185,1.185,0,0,0-.886.506V9.3a1.586,1.586,0,0,0,.443.253C82.958,9.555,83.085,9.618,83.212,9.618Z"/><path d="M88.337,10.884a2.275,2.275,0,0,1-.7-.127.851.851,0,0,1-.443-.38,1.563,1.563,0,0,1-.253-.57,2.607,2.607,0,0,1-.063-.759V3.227h1.582V9.175c0,.19,0,.253.063.316s.127.127.19.127h.19l.19,1.2a.474.474,0,0,1-.316.063Z"/><path d="M92.134,10.884a2.539,2.539,0,0,1-.949-.19,2.408,2.408,0,0,1-.823-.57,2.145,2.145,0,0,1-.57-.886,3.425,3.425,0,0,1-.19-1.2,3.684,3.684,0,0,1,.19-1.2,2.654,2.654,0,0,1,.57-.886,2.408,2.408,0,0,1,.823-.57,2.468,2.468,0,0,1,1.9,0,2.408,2.408,0,0,1,.823.57,2.145,2.145,0,0,1,.57.886,3.9,3.9,0,0,1,0,2.4,2.654,2.654,0,0,1-.57.886,2.408,2.408,0,0,1-.823.57A2.539,2.539,0,0,1,92.134,10.884Zm0-1.266a.9.9,0,0,0,.759-.38A1.9,1.9,0,0,0,93.146,8.1a2.03,2.03,0,0,0-.253-1.139.722.722,0,0,0-.759-.38.9.9,0,0,0-.759.38A1.9,1.9,0,0,0,91.121,8.1a2.03,2.03,0,0,0,.253,1.139A.771.771,0,0,0,92.134,9.618Z"/><path d="M98.019,10.884a2.623,2.623,0,0,1-1.012-.19,2.408,2.408,0,0,1-.823-.57,2.145,2.145,0,0,1-.57-.886,3.425,3.425,0,0,1-.19-1.2,2.568,2.568,0,0,1,.253-1.2,2.852,2.852,0,0,1,.633-.886,2.654,2.654,0,0,1,.886-.57,2.956,2.956,0,0,1,1.076-.19,2.021,2.021,0,0,1,.886.19,6.9,6.9,0,0,1,.7.38l-.759,1.012a1.334,1.334,0,0,0-.7-.316,1.062,1.062,0,0,0-.886.38A1.536,1.536,0,0,0,97.2,7.973a2.023,2.023,0,0,0,.316,1.139.914.914,0,0,0,.886.38,1.489,1.489,0,0,0,.506-.127,2.751,2.751,0,0,0,.443-.253l.633,1.012a2.483,2.483,0,0,1-.886.506A3.326,3.326,0,0,1,98.019,10.884Z"/><path d="M100.613,10.757V3.227h1.519v4.3h.063L103.9,5.442h1.709l-1.9,2.215,2.025,3.164H104.03l-1.2-2.088-.7.759v1.266Z"/><path d="M108.523,10.884a2.956,2.956,0,0,1-1.076-.19,2.654,2.654,0,0,1-.886-.57,2.145,2.145,0,0,1-.57-.886,3.425,3.425,0,0,1-.19-1.2,3.065,3.065,0,0,1,.19-1.139,2.654,2.654,0,0,1,.57-.886,2.408,2.408,0,0,1,.823-.57,2.539,2.539,0,0,1,.949-.19,2.623,2.623,0,0,1,1.012.19,1.983,1.983,0,0,1,.7.506,3.409,3.409,0,0,1,.443.823,4.918,4.918,0,0,1,.127,1.012v.38a.474.474,0,0,1-.063.316h-3.164a1.385,1.385,0,0,0,.506.886,1.453,1.453,0,0,0,.886.253,2.041,2.041,0,0,0,1.139-.38l.506.949a3.866,3.866,0,0,1-.886.443A2.17,2.17,0,0,1,108.523,10.884Zm-1.2-3.354h1.9a1.349,1.349,0,0,0-.19-.759.788.788,0,0,0-.7-.253.812.812,0,0,0-.633.253A1.082,1.082,0,0,0,107.321,7.53Z"/><path d="M113.522,10.884a2.021,2.021,0,0,1-.886-.19,1.978,1.978,0,0,1-.7-.57,2.9,2.9,0,0,1-.443-.886,3.511,3.511,0,0,1-.127-1.2,3.684,3.684,0,0,1,.19-1.2,2.96,2.96,0,0,1,.506-.886,1.978,1.978,0,0,1,.7-.57,1.949,1.949,0,0,1,.823-.19,2.36,2.36,0,0,1,.759.127l.57.38-.127-.633V3.227h1.582v7.53H115.1l-.127-.506h-.063a2.273,2.273,0,0,1-.633.443A1.685,1.685,0,0,1,113.522,10.884Zm.38-1.266a.915.915,0,0,0,.443-.127,1.075,1.075,0,0,0,.38-.38V6.9a1.586,1.586,0,0,0-.443-.253,1.077,1.077,0,0,0-.443-.063.973.973,0,0,0-.7.38,1.879,1.879,0,0,0-.316,1.139,1.785,1.785,0,0,0,.253,1.139A1.225,1.225,0,0,0,113.9,9.618Z"/></g><path d="M36.2,95.741a2.691,2.691,0,0,1-.7-.127,2.972,2.972,0,0,1-.57-.38,1.313,1.313,0,0,1-.38-.633,2.011,2.011,0,0,1-.127-.886,3.735,3.735,0,0,1,.127-.886,2.767,2.767,0,0,1,.38-.633,1.494,1.494,0,0,1,.57-.38,2.275,2.275,0,0,1,.7-.127,2.691,2.691,0,0,1,.7.127c.253.063.38.253.57.38a1.313,1.313,0,0,1,.38.633,2.011,2.011,0,0,1,.127.886,3.735,3.735,0,0,1-.127.886,5.565,5.565,0,0,1-.38.633,1.494,1.494,0,0,1-.57.38A2.691,2.691,0,0,1,36.2,95.741Zm0-.316a1.848,1.848,0,0,0,.57-.127.851.851,0,0,0,.443-.38,2.012,2.012,0,0,0,.316-1.962,2.565,2.565,0,0,0-.316-.57,2.753,2.753,0,0,0-.443-.38,1.345,1.345,0,0,0-1.139,0,.851.851,0,0,0-.443.38,2.277,2.277,0,0,0-.316.57,1.315,1.315,0,0,0-.063.7,2.275,2.275,0,0,0,.127.7,2.565,2.565,0,0,0,.316.57,2.753,2.753,0,0,0,.443.38A1.192,1.192,0,0,0,36.2,95.424Z"/><path d="M39.106,95.614V91.691h.316l.063.633h0a4.433,4.433,0,0,1,.633-.506,1.35,1.35,0,0,1,.759-.19.985.985,0,0,1,.886.38,1.879,1.879,0,0,1,.316,1.139v2.531H41.7V93.21a1.778,1.778,0,0,0-.19-.949.816.816,0,0,0-.7-.316,1.069,1.069,0,0,0-.633.19,4.617,4.617,0,0,0-.633.57v2.974h-.443Z"/><path d="M46,95.741a1.233,1.233,0,0,1-.506-.063.632.632,0,0,1-.316-.253l-.19-.38c0-.127-.063-.316-.063-.506V92.007H44.3v-.253l.633-.063.063-1.139h.316v1.139h1.139v.316H45.308v2.911a.329.329,0,0,0,.127.253l.19.19a.474.474,0,0,0,.316.063.38.38,0,0,0,.253-.063.38.38,0,0,1,.253-.063l.127.316c-.127.063-.253.063-.316.127Z"/><path d="M47.459,95.614V89.729h.38v2.594a4.433,4.433,0,0,1,.633-.506,1.35,1.35,0,0,1,.759-.19.985.985,0,0,1,.886.38,1.879,1.879,0,0,1,.316,1.139v2.531H49.99V93.21a1.778,1.778,0,0,0-.19-.949.816.816,0,0,0-.7-.316,1.069,1.069,0,0,0-.633.19,4.616,4.616,0,0,0-.633.57v2.974h-.38Z"/><path d="M51.889,90.742a.38.38,0,0,1-.253-.063c-.063-.063-.063-.127-.063-.253s0-.19.063-.253.127-.063.253-.063a.38.38,0,0,1,.253.063c.063.063.063.127.063.253,0,.063-.063.19-.063.253C52.078,90.678,52.015,90.742,51.889,90.742Zm-.19,4.872V91.691h.38v3.923Z"/><path d="M54.483,95.741a1.752,1.752,0,0,1-.823-.19,5.562,5.562,0,0,1-.633-.38l.19-.253.57.38a1.252,1.252,0,0,0,.7.127.788.788,0,0,0,.7-.253.8.8,0,0,0,.253-.57.474.474,0,0,0-.063-.316c-.063-.063-.127-.19-.253-.253a1.383,1.383,0,0,0-.316-.19,1.069,1.069,0,0,0-.316-.127c-.127-.063-.316-.127-.443-.19a2.107,2.107,0,0,1-.38-.19c-.127-.063-.19-.19-.316-.316a.915.915,0,0,1-.127-.443.8.8,0,0,1,.063-.38.632.632,0,0,1,.253-.316c.127-.063.253-.19.38-.253a1.4,1.4,0,0,1,.57-.063,2.248,2.248,0,0,1,.633.127,1.378,1.378,0,0,1,.506.316l-.19.253a1.02,1.02,0,0,0-.443-.253,1.192,1.192,0,0,0-.506-.127c-.127,0-.316,0-.38.063-.127.063-.19.063-.253.19a.874.874,0,0,0-.19.253.38.38,0,0,0-.063.253.57.57,0,0,0,.063.316l.19.19a1.384,1.384,0,0,0,.316.19c.127.063.253.063.316.127.127.063.316.127.443.19a1.586,1.586,0,0,1,.443.253.763.763,0,0,1,.316.316,1.192,1.192,0,0,1,.127.506,1.077,1.077,0,0,1-.063.443,1.324,1.324,0,0,1-.253.38,1.02,1.02,0,0,1-.443.253C54.863,95.678,54.673,95.741,54.483,95.741Z"/><path d="M58.343,97.449V91.691h.316l.063.506h0a5.474,5.474,0,0,1,.633-.443,1.442,1.442,0,0,1,.7-.19,1.39,1.39,0,0,1,1.2.57,2.481,2.481,0,0,1,.38,1.455,3.735,3.735,0,0,1-.127.886,1.508,1.508,0,0,1-.38.7,3.477,3.477,0,0,1-.57.443,1.141,1.141,0,0,1-.633.127,1.848,1.848,0,0,1-.57-.127,2.369,2.369,0,0,1-.633-.38v2.151h-.38Zm1.519-2.025a1.848,1.848,0,0,0,.57-.127.851.851,0,0,0,.443-.38,2.248,2.248,0,0,0,.253-.57,2.719,2.719,0,0,0,.127-.759,2.6,2.6,0,0,0-.063-.7l-.19-.57-.38-.38a1.848,1.848,0,0,0-.57-.127,1.415,1.415,0,0,0-.633.19,2.422,2.422,0,0,0-.7.506v2.341a2.369,2.369,0,0,0,.633.38A1.01,1.01,0,0,0,59.862,95.424Z"/><path d="M63.469,95.741a.938.938,0,0,1-.443-.063l-.38-.19a.632.632,0,0,1-.253-.316,1.234,1.234,0,0,1-.063-.506,1.085,1.085,0,0,1,.633-1.012,5.385,5.385,0,0,1,1.962-.506,1.077,1.077,0,0,0-.063-.443c-.063-.127-.063-.316-.127-.38-.063-.127-.19-.19-.316-.316a.98.98,0,0,0-.506-.127,2.275,2.275,0,0,0-.7.127,3.532,3.532,0,0,0-.506.316l-.19-.253a.873.873,0,0,1,.253-.19c.127-.063.19-.127.316-.19s.253-.063.38-.127a1.077,1.077,0,0,1,.443-.063,1.264,1.264,0,0,1,.57.127.648.648,0,0,1,.38.316.719.719,0,0,1,.19.506,1.752,1.752,0,0,1,.063.57v2.531H64.8l-.063-.506h0a3.841,3.841,0,0,1-.633.443A.666.666,0,0,1,63.469,95.741Zm.063-.316a1.069,1.069,0,0,0,.633-.19,3.758,3.758,0,0,0,.7-.506V93.4c-.38.063-.759.127-1.012.19a2.267,2.267,0,0,0-.7.253c-.19.127-.316.19-.38.316a.915.915,0,0,0-.127.443.8.8,0,0,0,.063.38.873.873,0,0,0,.19.253.48.48,0,0,0,.253.127C63.216,95.361,63.469,95.424,63.532,95.424Z"/><path d="M67.9,97.513a2.251,2.251,0,0,1-1.2-.316.858.858,0,0,1-.443-.823,1.489,1.489,0,0,1,.127-.506,1,1,0,0,1,.443-.443v-.063a.494.494,0,0,1-.253-.253.9.9,0,0,1-.127-.38.915.915,0,0,1,.127-.443l.253-.253v-.063a1.135,1.135,0,0,1-.316-.443,1.041,1.041,0,0,1-.127-.633,1.848,1.848,0,0,1,.127-.57,1.135,1.135,0,0,1,.316-.443,2.679,2.679,0,0,1,.443-.316,1.848,1.848,0,0,1,.57-.127h.316c.127,0,.19.063.253.063h1.329v.316h-.949a1.135,1.135,0,0,1,.316.443,1.345,1.345,0,0,1,0,1.139,1.135,1.135,0,0,1-.316.443,2.679,2.679,0,0,1-.443.316,1.511,1.511,0,0,1-.57.127.474.474,0,0,1-.316-.063.483.483,0,0,1-.316-.127c-.063.063-.19.127-.253.253a.57.57,0,0,0-.063.316.9.9,0,0,0,.127.38c.127.127.316.127.57.127h.823a2.219,2.219,0,0,1,1.012.19c.253.127.316.38.316.7a1.489,1.489,0,0,1-.127.506.851.851,0,0,1-.38.443,2.565,2.565,0,0,1-.57.316A.906.906,0,0,1,67.9,97.513Zm0-.253a1.335,1.335,0,0,0,1.012-.316.763.763,0,0,0,.316-.316.9.9,0,0,0,.127-.38A.424.424,0,0,0,69.1,95.8a1.954,1.954,0,0,0-.7-.127H67.392a.688.688,0,0,1-.316-.063,1.074,1.074,0,0,0-.38.38,1.173,1.173,0,0,0-.127.443.665.665,0,0,0,.316.57A1.857,1.857,0,0,0,67.9,97.259ZM67.835,94.1a.8.8,0,0,0,.38-.063.632.632,0,0,0,.316-.253c.063-.127.19-.19.253-.38a1.582,1.582,0,0,0,0-.886,1.383,1.383,0,0,0-.19-.316.538.538,0,0,0-.316-.19,1.171,1.171,0,0,0-.759,0,1.094,1.094,0,0,0-.57.506,1.077,1.077,0,0,0-.063.443.938.938,0,0,0,.063.443,1.324,1.324,0,0,0,.253.38,1.111,1.111,0,0,0,.316.253A.474.474,0,0,0,67.835,94.1Z"/><path d="M71.948,95.741a2.275,2.275,0,0,1-.7-.127,1.287,1.287,0,0,1-.57-.38,1.313,1.313,0,0,1-.38-.633,2.011,2.011,0,0,1-.127-.886,3.735,3.735,0,0,1,.127-.886,2.766,2.766,0,0,1,.38-.633,1.971,1.971,0,0,1,.57-.443,1.141,1.141,0,0,1,.633-.127,1.585,1.585,0,0,1,1.139.506,2.076,2.076,0,0,1,.38,1.329v.253H70.556a2.275,2.275,0,0,0,.127.7,2.565,2.565,0,0,0,.316.57,1.288,1.288,0,0,0,.443.38,1.872,1.872,0,0,0,.633.127,1.752,1.752,0,0,0,.57-.063,1.9,1.9,0,0,0,.506-.253l.127.253c-.19.063-.316.19-.506.253C72.454,95.678,72.2,95.741,71.948,95.741ZM70.493,93.4h2.531a1.879,1.879,0,0,0-.316-1.139,1.02,1.02,0,0,0-.823-.38,1.489,1.489,0,0,0-.506.127,1.923,1.923,0,0,0-.443.316,1.378,1.378,0,0,0-.316.506A1.848,1.848,0,0,0,70.493,93.4Z"/><path d="M58.28,130.228a.38.38,0,0,1-.253-.063c-.063-.063-.063-.127-.063-.253s0-.19.063-.253.127-.063.253-.063a.38.38,0,0,1,.253.063c.063.063.063.127.063.253,0,.063-.063.19-.063.253A.478.478,0,0,1,58.28,130.228Zm-.19,4.936V131.24h.38v3.923Z"/><path d="M59.862,135.163V131.24h.316l.063.633h0a4.433,4.433,0,0,1,.633-.506,1.349,1.349,0,0,1,.759-.19.985.985,0,0,1,.886.38,1.879,1.879,0,0,1,.316,1.139v2.531h-.38v-2.468a1.778,1.778,0,0,0-.19-.949.816.816,0,0,0-.7-.316,1.069,1.069,0,0,0-.633.19,4.616,4.616,0,0,0-.633.57v2.974h-.443Z"/><path d="M66.822,135.227a1.234,1.234,0,0,1-.506-.063A.632.632,0,0,1,66,134.91l-.19-.38c0-.127-.063-.316-.063-.506v-2.531h-.633v-.253l.633-.063.063-1.139h.316v1.139h1.139v.316H66.126V134.4a.329.329,0,0,0,.127.253l.19.19a.474.474,0,0,0,.316.063.38.38,0,0,0,.253-.063.38.38,0,0,1,.253-.063l.127.316c-.127.063-.253.063-.316.127Z"/><path d="M69.607,135.227a2.691,2.691,0,0,1-.7-.127,2.971,2.971,0,0,1-.57-.38,1.313,1.313,0,0,1-.38-.633,2.011,2.011,0,0,1-.127-.886,3.735,3.735,0,0,1,.127-.886,2.766,2.766,0,0,1,.38-.633,1.494,1.494,0,0,1,.57-.38,2.274,2.274,0,0,1,.7-.127,2.691,2.691,0,0,1,.7.127c.253.063.38.253.57.38a1.313,1.313,0,0,1,.38.633,2.011,2.011,0,0,1,.127.886,3.735,3.735,0,0,1-.127.886,5.565,5.565,0,0,1-.38.633,1.494,1.494,0,0,1-.57.38A3.265,3.265,0,0,1,69.607,135.227Zm0-.316a1.848,1.848,0,0,0,.57-.127.851.851,0,0,0,.443-.38,2.012,2.012,0,0,0,.316-1.962,2.565,2.565,0,0,0-.316-.57,2.753,2.753,0,0,0-.443-.38,1.345,1.345,0,0,0-1.139,0,.851.851,0,0,0-.443.38,2.276,2.276,0,0,0-.316.57,1.363,1.363,0,0,0-.127.7,2.275,2.275,0,0,0,.127.7,2.565,2.565,0,0,0,.316.57,2.753,2.753,0,0,0,.443.38A1.848,1.848,0,0,0,69.607,134.91Z"/><path d="M73.467,135.227a1.234,1.234,0,0,1-.506-.063.632.632,0,0,1-.316-.253l-.19-.38c0-.127-.063-.316-.063-.506v-2.531h-.633v-.253l.633-.063.063-1.139h.316v1.139H73.91v.316H72.771V134.4a.329.329,0,0,0,.127.253l.19.19a.474.474,0,0,0,.316.063.38.38,0,0,0,.253-.063.38.38,0,0,1,.253-.063l.127.316c-.127.063-.253.063-.316.127Z"/><path d="M75.555,135.227a.938.938,0,0,1-.443-.063l-.38-.19a.632.632,0,0,1-.253-.316,1.234,1.234,0,0,1-.063-.506,1.085,1.085,0,0,1,.633-1.012,5.385,5.385,0,0,1,1.962-.506,1.077,1.077,0,0,0-.063-.443c-.063-.127-.063-.316-.127-.38-.063-.127-.19-.19-.316-.316a.98.98,0,0,0-.506-.127,2.275,2.275,0,0,0-.7.127,3.532,3.532,0,0,0-.506.316l-.19-.253a.873.873,0,0,1,.253-.19c.127-.063.19-.127.316-.19s.253-.063.38-.127a1.077,1.077,0,0,1,.443-.063,1.264,1.264,0,0,1,.57.127.648.648,0,0,1,.38.316.719.719,0,0,1,.19.506,1.752,1.752,0,0,1,.063.57v2.531h-.316l-.063-.506h0a3.841,3.841,0,0,1-.633.443A.734.734,0,0,1,75.555,135.227Zm.063-.316a1.069,1.069,0,0,0,.633-.19,3.757,3.757,0,0,0,.7-.506v-1.329c-.38.063-.759.127-1.012.19a2.267,2.267,0,0,0-.7.253c-.19.127-.316.19-.38.316a.915.915,0,0,0-.127.443.8.8,0,0,0,.063.38.874.874,0,0,0,.19.253.48.48,0,0,0,.253.127C75.3,134.847,75.492,134.91,75.618,134.91Z"/><path d="M79.162,135.227c-.316,0-.506-.19-.506-.633v-5.379h.38v5.442a.232.232,0,0,0,.063.19c.063.063.063.063.127.063h.127l.063.316h-.253Z"/><path d="M24.362,95.741a2.727,2.727,0,0,1-1.076-.19,2.275,2.275,0,0,1-.759-.506l.57-.759c.19.127.316.253.506.38a1.041,1.041,0,0,0,.633.127.945.945,0,0,0,.633-.19.666.666,0,0,0,.253-.633.617.617,0,0,0-.253-.57.883.883,0,0,0-.57-.19h-.19a.232.232,0,0,0-.19.063c-.063,0-.127.063-.19.063-.063.063-.127.063-.19.127l-.57-.316.127-2.658h2.974V91.5h-1.9l-.127.886a.478.478,0,0,1,.253-.063h.316a1.872,1.872,0,0,1,.633.127,1.378,1.378,0,0,1,.506.316,3.51,3.51,0,0,1,.38.506,2.275,2.275,0,0,1,.127.7,2.36,2.36,0,0,1-.127.759,1.378,1.378,0,0,1-.443.57,5.566,5.566,0,0,1-.633.38C24.869,95.678,24.615,95.741,24.362,95.741Z"/><path d="M24.236,135.227a2.021,2.021,0,0,1-.886-.19,2.272,2.272,0,0,1-.633-.443l.633-.7a.581.581,0,0,0,.38.253,1.173,1.173,0,0,0,.443.127c.127,0,.316,0,.38-.063a.632.632,0,0,0,.316-.253,1.272,1.272,0,0,0,.253-.506c.063-.19.063-.443.127-.759-.063.063-.127.19-.253.253a.873.873,0,0,0-.253.19c-.063.063-.19.063-.253.127a.381.381,0,0,1-.253.063,1.872,1.872,0,0,1-.633-.127,1.327,1.327,0,0,1-.823-.823,2.275,2.275,0,0,1-.127-.7,3.176,3.176,0,0,1,.127-.759,1.494,1.494,0,0,1,.38-.57,1.8,1.8,0,0,1,.57-.38,2.275,2.275,0,0,1,.7-.127,3.176,3.176,0,0,1,.759.127,2.273,2.273,0,0,1,.633.443,2.526,2.526,0,0,1,.443.823,3.189,3.189,0,0,1,.19,1.2,3.805,3.805,0,0,1-.19,1.266,2.9,2.9,0,0,1-.443.886,1.8,1.8,0,0,1-.7.506A2.154,2.154,0,0,1,24.236,135.227Zm.19-2.911a1.61,1.61,0,0,0,.443-.127,1.075,1.075,0,0,0,.38-.38c-.063-.443-.127-.7-.316-.823s-.316-.253-.506-.253a.574.574,0,0,0-.443.19.945.945,0,0,0-.19.633c0,.253.063.506.19.57A.493.493,0,0,0,24.426,132.316Z"/><path d="M27.906,135.163a7.008,7.008,0,0,1,.127-1.2,6.619,6.619,0,0,1,.253-1.076l.38-.949a6.416,6.416,0,0,1,.633-1.012H26.957v-1.012h3.607v.759a8.4,8.4,0,0,0-.759,1.012,4.9,4.9,0,0,0-.443,1.012,2.956,2.956,0,0,0-.19,1.076c-.063.38-.063.823-.127,1.329H27.906Z"/><path d="M32.209,135.163a7.008,7.008,0,0,1,.127-1.2,6.619,6.619,0,0,1,.253-1.076l.38-.949a6.416,6.416,0,0,1,.633-1.012H31.26v-1.012h3.607v.759a8.4,8.4,0,0,0-.759,1.012,4.9,4.9,0,0,0-.443,1.012,2.956,2.956,0,0,0-.19,1.076c-.063.38-.063.823-.127,1.329H32.209Z"/><path d="M35.753,136.745l-.253-.633a1.472,1.472,0,0,0,.7-.443.773.773,0,0,0,.253-.57h-.063a.719.719,0,0,1-.506-.19.781.781,0,0,1-.253-.506.576.576,0,0,1,.253-.506.719.719,0,0,1,.506-.19.779.779,0,0,1,.633.316,1.583,1.583,0,0,1,.19.823,2.083,2.083,0,0,1-.38,1.2A1.7,1.7,0,0,1,35.753,136.745Z"/><path d="M38.853,135.163a7.008,7.008,0,0,1,.127-1.2,6.619,6.619,0,0,1,.253-1.076l.38-.949a6.416,6.416,0,0,1,.633-1.012H37.9v-1.012h3.607v.759a8.4,8.4,0,0,0-.759,1.012,4.9,4.9,0,0,0-.443,1.012,2.956,2.956,0,0,0-.19,1.076c-.063.38-.063.823-.127,1.329H38.853Z"/><path d="M44.105,135.227a3.176,3.176,0,0,1-.759-.127,2.273,2.273,0,0,1-.633-.443,2.526,2.526,0,0,1-.443-.823,3.19,3.19,0,0,1-.19-1.2,3.805,3.805,0,0,1,.19-1.266,2.9,2.9,0,0,1,.443-.886,1.8,1.8,0,0,1,.7-.506,1.752,1.752,0,0,1,.823-.19,2.021,2.021,0,0,1,.886.19,2.273,2.273,0,0,1,.633.443l-.633.7a.581.581,0,0,0-.38-.253,1.61,1.61,0,0,0-.443-.127.8.8,0,0,0-.38.063.632.632,0,0,0-.316.253,1.272,1.272,0,0,0-.253.506,2.36,2.36,0,0,0-.127.759c.063-.063.127-.19.253-.253a.873.873,0,0,0,.253-.19c.063-.063.19-.063.253-.127a.38.38,0,0,1,.253-.063,1.872,1.872,0,0,1,.633.127,1.327,1.327,0,0,1,.823.823,2.275,2.275,0,0,1,.127.7,3.176,3.176,0,0,1-.127.759,1.138,1.138,0,0,1-.38.57,2.209,2.209,0,0,1-.57.38C44.612,135.227,44.358,135.227,44.105,135.227Zm0-.886a.574.574,0,0,0,.443-.19.945.945,0,0,0,.19-.633c0-.253-.063-.506-.19-.57a.719.719,0,0,0-.506-.19,1.61,1.61,0,0,0-.443.127,1.074,1.074,0,0,0-.38.38,1.192,1.192,0,0,0,.127.506,1.383,1.383,0,0,0,.19.316.873.873,0,0,0,.253.19A.57.57,0,0,0,44.105,134.341Z"/><path d="M48.408,135.227a3.176,3.176,0,0,1-.759-.127,2.273,2.273,0,0,1-.633-.443,2.526,2.526,0,0,1-.443-.823,3.19,3.19,0,0,1-.19-1.2,3.805,3.805,0,0,1,.19-1.266,2.9,2.9,0,0,1,.443-.886,1.8,1.8,0,0,1,.7-.506,1.752,1.752,0,0,1,.823-.19,2.021,2.021,0,0,1,.886.19,2.273,2.273,0,0,1,.633.443l-.633.7a.581.581,0,0,0-.38-.253,1.61,1.61,0,0,0-.443-.127.8.8,0,0,0-.38.063.632.632,0,0,0-.316.253,1.272,1.272,0,0,0-.253.506,2.36,2.36,0,0,0-.127.759c.063-.063.127-.19.253-.253a.873.873,0,0,0,.253-.19c.063-.063.19-.063.253-.127a.38.38,0,0,1,.253-.063,1.872,1.872,0,0,1,.633.127,1.327,1.327,0,0,1,.823.823,2.275,2.275,0,0,1,.127.7,3.176,3.176,0,0,1-.127.759,1.138,1.138,0,0,1-.38.57,2.209,2.209,0,0,1-.57.38A.831.831,0,0,1,48.408,135.227Zm-.063-.886a.574.574,0,0,0,.443-.19.945.945,0,0,0,.19-.633c0-.253-.063-.506-.19-.57a.719.719,0,0,0-.506-.19,1.61,1.61,0,0,0-.443.127,1.074,1.074,0,0,0-.38.38,1.192,1.192,0,0,0,.127.506,1.384,1.384,0,0,0,.19.316.874.874,0,0,0,.253.19A.688.688,0,0,0,48.345,134.341Z"/><line x2="220.147" transform="translate(0 193.253)" fill="none" stroke="#e6e6e6" stroke-width="0.633"/></g><g transform="translate(10.684 11.331)"><path d="M4.556,0,0,4.556v6.328L4.556,15.44h6.328l4.556-4.556V4.556L10.884,0Z" fill="#d8d9d9" fill-rule="evenodd"/><path d="M4.556.127.127,4.556v6.328l4.43,4.493h6.328l4.493-4.493V4.556L10.884.127H4.556Z" fill="#fff" fill-rule="evenodd"/><path d="M4.872,14.617.886,10.5v-5.7L4.872.823h5.7l4.113,3.987v5.7l-4.113,4.113Z" fill="#ed1e45" fill-rule="evenodd"/><path d="M3.923,8.1,3.8,7.593c-.063-.253-.127-.57-.19-.823-.063-.316-.127-.57-.19-.823h0c-.063.253-.127.57-.19.823-.063.316-.127.57-.19.823L2.911,8.1Zm.19.949H2.721l-.253,1.266H1.329L2.848,4.936H4.113l1.455,5.379H4.493Z" fill="#fff" fill-rule="evenodd"/><path d="M7.91,9.365c.57,0,.823-.253.823-.7a.719.719,0,0,0-.19-.506.779.779,0,0,0-.633-.127H7.34V9.492h.57ZM7.783,7.151a.883.883,0,0,0,.57-.19.612.612,0,0,0,0-.886h0a1.848,1.848,0,0,0-.57-.127H7.277v1.2ZM6.2,4.936H7.847a2.373,2.373,0,0,1,.7.063,4.36,4.36,0,0,1,.506.19l.38.38a2.248,2.248,0,0,1,.127.633.8.8,0,0,1-.063.38.483.483,0,0,1-.127.316.494.494,0,0,1-.253.253c-.127.063-.19.127-.316.19V7.4a1.443,1.443,0,0,1,.759.38,1.392,1.392,0,0,1,.253.823,2.275,2.275,0,0,1-.127.7.984.984,0,0,1-.38.506,2.248,2.248,0,0,1-.57.253,2.6,2.6,0,0,1-.7.063H6.2Z" fill="#fff" fill-rule="evenodd"/><path d="M12.15,7.53c.57,0,.823-.253.823-.823a.883.883,0,0,0-.19-.57,1.221,1.221,0,0,0-.633-.19h-.57V7.593ZM10.5,4.936h1.709a2.373,2.373,0,0,1,.7.063,2.248,2.248,0,0,1,.57.253.984.984,0,0,1,.38.506,3.7,3.7,0,0,1,.127.823,3.206,3.206,0,0,1-.127.823l-.38.57a2.565,2.565,0,0,1-.57.316,2.691,2.691,0,0,1-.7.127H11.58v1.9H10.568V4.936Z" fill="#fff" fill-rule="evenodd"/><path d="M18.414,11.074,20.629,4.05h1.9l2.151,7.024H22.97l-.443-1.645H20.376l-.443,1.645ZM20.945,7.53l-.19.633h1.519l-.19-.633c-.127-.38-.19-.7-.316-1.139-.063-.38-.19-.759-.253-1.139h-.063c-.063.38-.19.759-.253,1.139C21.135,6.834,21.009,7.151,20.945,7.53Z"/><path d="M27.463,11.2a2.021,2.021,0,0,1-.886-.19,1.978,1.978,0,0,1-.7-.57,2.9,2.9,0,0,1-.443-.886,3.511,3.511,0,0,1-.127-1.2,3.684,3.684,0,0,1,.19-1.2,2.96,2.96,0,0,1,.506-.886,1.978,1.978,0,0,1,.7-.57c.19,0,.506-.063.759-.063a2.36,2.36,0,0,1,.759.127l.57.38-.063-.823V3.544h1.582v7.53H29.045l-.127-.506h-.063a2.273,2.273,0,0,1-.633.443A1.685,1.685,0,0,1,27.463,11.2Zm.38-1.266a.915.915,0,0,0,.443-.127,1.074,1.074,0,0,0,.38-.38V7.214a1.586,1.586,0,0,0-.443-.253,1.077,1.077,0,0,0-.443-.063.973.973,0,0,0-.7.38,1.536,1.536,0,0,0-.316,1.139,1.785,1.785,0,0,0,.253,1.139A1.114,1.114,0,0,0,27.843,9.935Z"/><path d="M34.677,11.2a1.276,1.276,0,0,1-.7-.19,4.829,4.829,0,0,1-.7-.506h-.063l-.127.57H31.829V3.544h1.582V5.379l-.063.823a2.613,2.613,0,0,1,.7-.443,1.605,1.605,0,0,1,.759-.127,2.021,2.021,0,0,1,.886.19,1.385,1.385,0,0,1,.633.57c.127.253.316.506.443.823a3.142,3.142,0,0,1,.127,1.139,3.425,3.425,0,0,1-.19,1.2,2.96,2.96,0,0,1-.506.886,1.978,1.978,0,0,1-.7.57A1.752,1.752,0,0,1,34.677,11.2ZM34.36,9.935a.874.874,0,0,0,.7-.38,1.956,1.956,0,0,0,.316-1.2c0-.949-.316-1.455-.949-1.455a1.185,1.185,0,0,0-.886.506V9.618a1.586,1.586,0,0,0,.443.253C34.044,9.871,34.234,9.935,34.36,9.935Z"/><path d="M39.739,11.2a2.275,2.275,0,0,1-.7-.127.851.851,0,0,1-.443-.38,1.563,1.563,0,0,1-.253-.57,2.608,2.608,0,0,1-.063-.759V3.544h1.582V9.492c0,.19,0,.253.063.316s.127.127.19.127h.19l.19,1.2a.474.474,0,0,1-.316.063Z"/><path d="M43.852,11.2a2.539,2.539,0,0,1-.949-.19,2.408,2.408,0,0,1-.823-.57,2.145,2.145,0,0,1-.57-.886,3.425,3.425,0,0,1-.19-1.2,3.684,3.684,0,0,1,.19-1.2,2.654,2.654,0,0,1,.57-.886A2.408,2.408,0,0,1,42.9,5.7a2.468,2.468,0,0,1,1.9,0,2.408,2.408,0,0,1,.823.57,2.145,2.145,0,0,1,.57.886,3.9,3.9,0,0,1,0,2.4,2.654,2.654,0,0,1-.57.886,2.408,2.408,0,0,1-.823.57A2.113,2.113,0,0,1,43.852,11.2Zm0-1.266a.9.9,0,0,0,.759-.38,1.9,1.9,0,0,0,.253-1.139,2.03,2.03,0,0,0-.253-1.139.722.722,0,0,0-.759-.38.9.9,0,0,0-.759.38,1.9,1.9,0,0,0-.253,1.139,2.03,2.03,0,0,0,.253,1.139A.771.771,0,0,0,43.852,9.935Z"/><path d="M50.117,11.2a2.623,2.623,0,0,1-1.012-.19,2.408,2.408,0,0,1-.823-.57,2.145,2.145,0,0,1-.57-.886,2.167,2.167,0,0,1-.253-1.139,2.568,2.568,0,0,1,.253-1.2,2.852,2.852,0,0,1,.633-.886,2.654,2.654,0,0,1,.886-.57,2.956,2.956,0,0,1,1.076-.19,2.021,2.021,0,0,1,.886.19,6.9,6.9,0,0,1,.7.38l-.759,1.012a1.334,1.334,0,0,0-.7-.316,1.062,1.062,0,0,0-.886.38,1.536,1.536,0,0,0-.316,1.139,2.023,2.023,0,0,0,.316,1.139.914.914,0,0,0,.886.38,1.489,1.489,0,0,0,.506-.127,2.751,2.751,0,0,0,.443-.253l.633,1.012a2.483,2.483,0,0,1-.886.506A3.147,3.147,0,0,1,50.117,11.2Z"/><path d="M53.028,11.074V3.544h1.519v4.3h.063l1.709-2.088h1.709l-1.9,2.215,2.025,3.164H56.445l-1.2-2.088-.7.759v1.329H53.028Z"/><path d="M61.634,11.074V4.05h2.4a5.573,5.573,0,0,1,1.076.127,2.219,2.219,0,0,1,.886.38,1.547,1.547,0,0,1,.57.7,2.727,2.727,0,0,1,.19,1.076,2.956,2.956,0,0,1-.19,1.076,1.727,1.727,0,0,1-.57.759,3.866,3.866,0,0,1-.886.443,5.573,5.573,0,0,1-1.076.127h-.886v2.4H61.634Zm1.582-3.607h.759c.886,0,1.266-.38,1.266-1.139a.863.863,0,0,0-.316-.759,2.157,2.157,0,0,0-1.012-.253h-.759V7.467Z"/><path d="M69.543,11.2a2.275,2.275,0,0,1-.7-.127.851.851,0,0,1-.443-.38,1.564,1.564,0,0,1-.253-.57,2.608,2.608,0,0,1-.063-.759V3.544H69.67V9.492c0,.19,0,.253.063.316s.127.127.19.127h.19l.19,1.2a.474.474,0,0,1-.316.063Z"/><path d="M73.024,11.2a1.432,1.432,0,0,1-1.266-.57,2.783,2.783,0,0,1-.38-1.582V5.758H72.96v3.1a1.436,1.436,0,0,0,.19.823c.127.19.253.19.506.19a1.192,1.192,0,0,0,.506-.127,2.857,2.857,0,0,0,.443-.443V5.758h1.582v5.315H74.922l-.127-.759h-.127a3.355,3.355,0,0,1-.759.633A1.453,1.453,0,0,1,73.024,11.2Z"/><path d="M79.288,11.2a3.214,3.214,0,0,1-1.076-.19,3.354,3.354,0,0,1-.949-.506l.7-1.012c.253.19.506.316.7.443a2.691,2.691,0,0,0,.7.127.98.98,0,0,0,.506-.127.348.348,0,0,0,.19-.316.38.38,0,0,0-.063-.253.873.873,0,0,0-.253-.19.678.678,0,0,0-.38-.127.9.9,0,0,0-.38-.127,1.9,1.9,0,0,1-.506-.253,2.679,2.679,0,0,1-.443-.316,1.135,1.135,0,0,1-.316-.443,1.848,1.848,0,0,1-.127-.57,2.691,2.691,0,0,1,.127-.7,1.706,1.706,0,0,1,.443-.506,1.98,1.98,0,0,1,.633-.316A3.206,3.206,0,0,1,79.6,5.7a2.956,2.956,0,0,1,1.076.19c.316.127.57.316.823.443l-.7.949a2.565,2.565,0,0,0-.57-.316,1.848,1.848,0,0,0-.57-.127c-.38,0-.633.127-.633.443,0,.063,0,.19.063.19a.874.874,0,0,0,.253.19c.127.063.19.127.316.127a.9.9,0,0,0,.38.127c.19.063.316.127.506.19A1.135,1.135,0,0,1,81,8.416a1.135,1.135,0,0,1,.316.443,1.872,1.872,0,0,1,.127.633,2.691,2.691,0,0,1-.127.7,1.744,1.744,0,0,1-.443.57,6.9,6.9,0,0,1-.7.38A1.951,1.951,0,0,1,79.288,11.2Z"/></g><g transform="translate(198.482 13.274)"><path d="M5.189,7.847a2.2,2.2,0,0,0,1.582-.633A2.017,2.017,0,0,0,7.4,5.569a2.241,2.241,0,0,0-.633-1.645A2.008,2.008,0,0,0,5.189,3.29a1.967,1.967,0,0,0-1.582.57,2.53,2.53,0,0,0-.633,1.645,2.241,2.241,0,0,0,.633,1.645A2.057,2.057,0,0,0,5.189,7.847ZM9.112,6.011l1.076.886c.127.063.127.19.063.38L9.175,9.239c-.063.127-.19.127-.316.127L7.593,8.859a2.483,2.483,0,0,1-.886.506l-.253,1.392c0,.19-.063.253-.19.253H4.05c-.127,0-.19-.063-.19-.253L3.67,9.3A4.035,4.035,0,0,1,2.784,8.8L1.519,9.3A.231.231,0,0,1,1.2,9.175h0L.127,7.214C0,7.214,0,7.087.127,6.9L1.2,6.011V5L.127,4.05a.238.238,0,0,1-.063-.38L1.139,1.709c0-.063.127-.127.253-.063l1.329.506a2.483,2.483,0,0,1,.886-.506L3.86.19A.168.168,0,0,1,4.05,0H6.2c.19,0,.253.063.253.253l.19,1.455a4.035,4.035,0,0,1,.886.506L8.8,1.709a.231.231,0,0,1,.316.127h0L10.188,3.8c.063.063.063.19-.063.316L9.049,5l.063,1.012Z" fill="#aaa" fill-rule="evenodd"/></g><g transform="translate(10.749 52.771)"><path d="M0,24.615V18.161H.7v2.658a4.434,4.434,0,0,1,.633-.506,1.949,1.949,0,0,1,.823-.19,1.259,1.259,0,0,1,1.012.443,1.82,1.82,0,0,1,.316,1.266v2.784h-.7V21.894a2.021,2.021,0,0,0-.19-.886.6.6,0,0,0-.633-.253.883.883,0,0,0-.57.19,4.094,4.094,0,0,0-.57.506v3.164Zm6.328.127a1.848,1.848,0,0,1-.57-.127,1.678,1.678,0,0,1-.38-.316.574.574,0,0,1-.19-.443,1.752,1.752,0,0,1-.063-.57V20.819H4.493v-.57h.633l.063-1.266h.633v1.2h1.2v.57h-1.2v2.468a2.248,2.248,0,0,0,.127.633.719.719,0,0,0,.506.19.38.38,0,0,0,.253-.063c.063,0,.19-.063.253-.063l.127.57c-.063.063-.19.063-.316.127a.534.534,0,0,1-.443.127Zm2.911,0a1.848,1.848,0,0,1-.57-.127,1.678,1.678,0,0,1-.38-.316.574.574,0,0,1-.19-.443,1.752,1.752,0,0,1-.063-.57V20.819H7.4v-.57l.7-.063.063-1.2H8.8v1.2H9.935v.57H8.8v2.468a2.248,2.248,0,0,0,.127.633.719.719,0,0,0,.506.19.38.38,0,0,0,.253-.063c.063,0,.19-.063.253-.063l.127.57c-.127.063-.316.127-.443.19a.8.8,0,0,1-.38.063Zm1.645,1.772V20.249h.633l.063.506h0a2.273,2.273,0,0,1,.633-.443,1.685,1.685,0,0,1,.759-.19,3.176,3.176,0,0,1,.759.127.723.723,0,0,1,.506.443,2.339,2.339,0,0,1,.316.7,4.273,4.273,0,0,1,.127.886,4.885,4.885,0,0,1-.127.949l-.38.759a3.478,3.478,0,0,1-.57.443,1.363,1.363,0,0,1-.7.127,1.848,1.848,0,0,1-.57-.127.921.921,0,0,1-.57-.38v2.278h-.886v.19Zm1.9-2.4a1.192,1.192,0,0,0,.506-.127c.19-.063.253-.19.38-.316a1.272,1.272,0,0,0,.253-.506,2.6,2.6,0,0,0,.063-.7,2.153,2.153,0,0,0-.063-.633,4.36,4.36,0,0,0-.19-.506.648.648,0,0,0-.38-.316,1.489,1.489,0,0,0-.506-.127,1.848,1.848,0,0,0-.57.127,3.478,3.478,0,0,0-.57.443v2.341l.57.38A.478.478,0,0,1,12.782,24.109Zm4.3.633a2.021,2.021,0,0,1-.886-.19,2.613,2.613,0,0,1-.7-.443l.38-.506.57.38a2.691,2.691,0,0,0,.7.127,1.069,1.069,0,0,0,.633-.19.719.719,0,0,0,.19-.506.474.474,0,0,0-.063-.316c-.063-.063-.19-.127-.253-.19-.127-.063-.19-.127-.316-.19l-.38-.127c-.127-.063-.316-.127-.443-.19a1.02,1.02,0,0,1-.443-.253l-.316-.316a1.173,1.173,0,0,1-.127-.443,1.192,1.192,0,0,1,.127-.506c.063-.19.19-.253.316-.38a1.02,1.02,0,0,1,.443-.253,2.153,2.153,0,0,1,.633-.063,3.176,3.176,0,0,1,.759.127,1.659,1.659,0,0,1,.57.316l-.316.443a1.586,1.586,0,0,0-.443-.253,1.489,1.489,0,0,0-.506-.127.883.883,0,0,0-.57.19c-.127,0-.19.19-.19.38,0,.127,0,.19.063.253l.19.19a.483.483,0,0,0,.316.127c.127.063.253.063.38.127s.316.127.443.19a1.02,1.02,0,0,1,.443.253c.127.127.253.19.316.38a1.489,1.489,0,0,1,.127.506,1.192,1.192,0,0,1-.127.506.648.648,0,0,1-.316.38,1.272,1.272,0,0,1-.506.253A1.4,1.4,0,0,1,17.085,24.742Zm3.037-3.29a.9.9,0,0,1-.38-.127c-.127-.063-.127-.253-.127-.38a.915.915,0,0,1,.127-.443.465.465,0,0,1,.38-.127.9.9,0,0,1,.38.127.665.665,0,0,1,0,.823.678.678,0,0,1-.38.127Zm0,3.29a.9.9,0,0,1-.38-.127c-.127-.063-.127-.253-.127-.38a.915.915,0,0,1,.127-.443.465.465,0,0,1,.38-.127.9.9,0,0,1,.38.127.665.665,0,0,1,0,.823A.678.678,0,0,1,20.123,24.742Zm1.266,1.266,2.4-7.91H24.3l-2.4,7.91Zm3.164,0,2.4-7.91h.506l-2.4,7.91Zm5.315-1.266a3.206,3.206,0,0,1-.823-.127,2.273,2.273,0,0,1-.633-.443,2.509,2.509,0,0,1,0-3.354,2.273,2.273,0,0,1,.633-.443,1.363,1.363,0,0,1,.7-.127,3.176,3.176,0,0,1,.759.127l.57.38a.879.879,0,0,1,.316.633,3.7,3.7,0,0,1,.127.823v.443H28.539a1.527,1.527,0,0,0,.443,1.076,1.437,1.437,0,0,0,1.012.38,1.752,1.752,0,0,0,.57-.063,1.272,1.272,0,0,0,.506-.253l.253.506a2.956,2.956,0,0,1-.633.316A1.737,1.737,0,0,1,29.868,24.742Zm-1.392-2.658h2.341a1.364,1.364,0,0,0-.253-1.012.77.77,0,0,0-.759-.316,1.077,1.077,0,0,0-.443.063,1.324,1.324,0,0,0-.38.253,1.02,1.02,0,0,0-.253.443.687.687,0,0,0-.253.57Zm3.354,2.531,1.455-2.341-1.329-2.088h.759l.57.949.19.38.19.38h.063l.19-.38.19-.38.506-.949H35.5L34.234,22.4l1.455,2.215H34.93L34.3,23.6l-.253-.38a1.324,1.324,0,0,0-.253-.38h-.063a1.324,1.324,0,0,1-.253.38l-.19.38-.57,1.012Zm5.632.127a1.512,1.512,0,0,1-.886-.316,1.038,1.038,0,0,1-.38-.886,1.225,1.225,0,0,1,.633-1.076,4.624,4.624,0,0,1,2.088-.506.8.8,0,0,0-.063-.38.483.483,0,0,0-.127-.316.494.494,0,0,0-.253-.253.719.719,0,0,0-.506-.19,2.275,2.275,0,0,0-.7.127,1.659,1.659,0,0,0-.57.316l-.253-.506a4.253,4.253,0,0,1,.759-.38,2.539,2.539,0,0,1,.949-.19,1.482,1.482,0,0,1,1.139.506,2.282,2.282,0,0,1,.38,1.266v2.721h-.633l-.063-.506h0a3.841,3.841,0,0,1-.633.443,3.735,3.735,0,0,1-.886.127Zm.253-.633a1.848,1.848,0,0,0,.57-.127,3.478,3.478,0,0,0,.57-.443v-1.2c-.38.063-.633.127-.886.19a1.563,1.563,0,0,0-.57.253.763.763,0,0,0-.316.316.9.9,0,0,0-.127.38c0,.253.063.443.253.506a1.192,1.192,0,0,0,.506.127ZM41,24.615v-4.43h.633l.063.633h0a2.478,2.478,0,0,1,.633-.506,1.276,1.276,0,0,1,.7-.19,1.5,1.5,0,0,1,.759.19,1.447,1.447,0,0,1,.443.633,1.978,1.978,0,0,1,.7-.57,1.8,1.8,0,0,1,.759-.253,1.259,1.259,0,0,1,1.012.443,1.82,1.82,0,0,1,.316,1.266v2.721h-.7V21.831a2.021,2.021,0,0,0-.19-.886.6.6,0,0,0-.633-.253,1.432,1.432,0,0,0-1.076.7v3.164h-.7V21.831a2.021,2.021,0,0,0-.19-.886.6.6,0,0,0-.633-.253,1.432,1.432,0,0,0-1.076.7v3.164Zm7.467,1.9V20.249H49.1l.063.506h0a2.273,2.273,0,0,1,.633-.443,1.685,1.685,0,0,1,.759-.19,3.176,3.176,0,0,1,.759.127.723.723,0,0,1,.506.443,2.339,2.339,0,0,1,.316.7,4.273,4.273,0,0,1,.127.886,4.885,4.885,0,0,1-.127.949l-.38.759a3.478,3.478,0,0,1-.57.443,2.691,2.691,0,0,1-.7.127,1.848,1.848,0,0,1-.57-.127.921.921,0,0,1-.57-.38v2.278h-.886v.19Zm1.9-2.4a1.192,1.192,0,0,0,.506-.127c.19-.063.253-.19.38-.316a1.272,1.272,0,0,0,.253-.506,2.6,2.6,0,0,0,.063-.7,2.153,2.153,0,0,0-.063-.633,4.359,4.359,0,0,0-.19-.506.648.648,0,0,0-.38-.316c-.19-.063-.316-.19-.506-.19a1.848,1.848,0,0,0-.57.127,3.478,3.478,0,0,0-.57.443V23.73l.57.38A1.362,1.362,0,0,1,50.37,24.109Zm3.987.633c-.253,0-.506-.063-.57-.253a1.276,1.276,0,0,1-.19-.7V18.161h.759v5.632c0,.127,0,.19.063.253s.063.063.127.063h.127l.127.57c-.063,0-.127.063-.19.063Zm3.29,0a3.206,3.206,0,0,1-.823-.127,1.16,1.16,0,0,1-.633-.443,2.509,2.509,0,0,1,0-3.354,2.273,2.273,0,0,1,.633-.443,1.363,1.363,0,0,1,.7-.127,3.176,3.176,0,0,1,.759.127l.57.38a.879.879,0,0,1,.316.633,3.7,3.7,0,0,1,.127.823v.443H56.255A1.527,1.527,0,0,0,56.7,23.73a1.437,1.437,0,0,0,1.012.38,1.752,1.752,0,0,0,.57-.063,1.272,1.272,0,0,0,.506-.253l.253.506a2.956,2.956,0,0,1-.633.316A2.36,2.36,0,0,1,57.647,24.742Zm-1.392-2.658H58.6a1.364,1.364,0,0,0-.253-1.012.77.77,0,0,0-.759-.316,1.077,1.077,0,0,0-.443.063,1.324,1.324,0,0,0-.38.253,1.02,1.02,0,0,0-.253.443,1.563,1.563,0,0,0-.253.57Zm5.632,2.658a1.723,1.723,0,0,1-1.329-.57,2.384,2.384,0,0,1-.506-1.709,4.885,4.885,0,0,1,.127-.949,2.613,2.613,0,0,1,.443-.7,3.478,3.478,0,0,1,.57-.443,1.276,1.276,0,0,1,.7-.19,2.248,2.248,0,0,1,.633.127.921.921,0,0,1,.57.38l-.063-.759V18.161h.759v6.454h-.633l-.063-.506h0a3.478,3.478,0,0,1-.57.443,1.069,1.069,0,0,1-.633.19Zm.127-.633a1.848,1.848,0,0,0,.57-.127,1.706,1.706,0,0,0,.506-.443V21.2c-.19-.19-.38-.253-.506-.38a1.393,1.393,0,0,0-.506-.063,1.192,1.192,0,0,0-.506.127,1.678,1.678,0,0,0-.38.316,1.272,1.272,0,0,0-.253.506,2.691,2.691,0,0,0-.127.7,2.423,2.423,0,0,0,.316,1.2,1.09,1.09,0,0,0,.886.506Zm5.062.633a3.176,3.176,0,0,1-.759-.127,2.273,2.273,0,0,1-.633-.443,2.509,2.509,0,0,1,0-3.354,2.273,2.273,0,0,1,.633-.443,1.605,1.605,0,0,1,.759-.127,3.176,3.176,0,0,1,.759.127,2.273,2.273,0,0,1,.633.443,2.509,2.509,0,0,1,0,3.354,2.273,2.273,0,0,1-.633.443,3.176,3.176,0,0,1-.759.127Zm0-.633a1.192,1.192,0,0,0,.506-.127.93.93,0,0,0,.38-.316,1.9,1.9,0,0,0,.253-.506,2.6,2.6,0,0,0,.063-.7,2.373,2.373,0,0,0-.063-.7,1.272,1.272,0,0,0-.253-.506,1.678,1.678,0,0,0-.38-.316.971.971,0,0,0-1.012,0,.93.93,0,0,0-.38.316,1.272,1.272,0,0,0-.253.506,2.6,2.6,0,0,0-.063.7,2.373,2.373,0,0,0,.063.7,1.272,1.272,0,0,0,.253.506,1.678,1.678,0,0,0,.38.316c.127.063.316.063.506.127Zm3.227.506v-4.43h.633l.063.633h0a2.478,2.478,0,0,1,.633-.506,1.276,1.276,0,0,1,.7-.19,1.5,1.5,0,0,1,.759.19,1.447,1.447,0,0,1,.443.633,1.978,1.978,0,0,1,.7-.57,1.8,1.8,0,0,1,.759-.253A1.259,1.259,0,0,1,76,20.566a1.82,1.82,0,0,1,.316,1.266v2.721h-.7V21.831a2.021,2.021,0,0,0-.19-.886.6.6,0,0,0-.633-.253,1.432,1.432,0,0,0-1.076.7v3.164h-.7V21.831a2.021,2.021,0,0,0-.19-.886.6.6,0,0,0-.633-.253,1.432,1.432,0,0,0-1.076.7v3.164Zm8.543.127a1.512,1.512,0,0,1-.886-.316,1.038,1.038,0,0,1-.38-.886,1.225,1.225,0,0,1,.633-1.076,4.624,4.624,0,0,1,2.088-.506.8.8,0,0,0-.063-.38.483.483,0,0,0-.127-.316.494.494,0,0,0-.253-.253,1.077,1.077,0,0,0-.443-.063,2.275,2.275,0,0,0-.7.127,1.659,1.659,0,0,0-.57.316l-.253-.506a4.253,4.253,0,0,1,.759-.38,2.539,2.539,0,0,1,.949-.19,1.482,1.482,0,0,1,1.139.506,2.282,2.282,0,0,1,.38,1.266v2.594h-.633l-.063-.506h0a3.841,3.841,0,0,1-.633.443,4.885,4.885,0,0,1-.949.127Zm.19-.633a1.848,1.848,0,0,0,.57-.127,3.478,3.478,0,0,0,.57-.443v-1.2c-.38.063-.633.127-.886.19a1.564,1.564,0,0,0-.57.253.763.763,0,0,0-.316.316.9.9,0,0,0-.127.38c0,.253.063.443.19.506a1.847,1.847,0,0,0,.57.127Zm3.417.506v-4.43h.7v4.43Zm.316-5.315a.9.9,0,0,1-.38-.127c-.127-.063-.127-.19-.127-.316a.483.483,0,0,1,.127-.316.633.633,0,0,1,.759,0c.127.063.127.19.127.316a.483.483,0,0,1-.127.316.9.9,0,0,1-.38.127ZM84.6,24.615v-4.43h.633l.063.633h0a4.434,4.434,0,0,1,.633-.506,1.948,1.948,0,0,1,.823-.19,1.259,1.259,0,0,1,1.012.443,1.82,1.82,0,0,1,.316,1.266v2.721h-.7V21.831a2.021,2.021,0,0,0-.19-.886.6.6,0,0,0-.633-.253.883.883,0,0,0-.57.19,1.494,1.494,0,0,0-.57.506v3.164Zm5.379.127a.9.9,0,0,1-.38-.127c-.127-.063-.127-.253-.127-.38a.915.915,0,0,1,.127-.443.465.465,0,0,1,.38-.127.9.9,0,0,1,.38.127.665.665,0,0,1,0,.823.678.678,0,0,1-.38.127Zm3.544,0a3.7,3.7,0,0,1-.823-.127,2.273,2.273,0,0,1-.633-.443,2.613,2.613,0,0,1-.443-.7,2.46,2.46,0,0,1-.127-.949,2.312,2.312,0,0,1,.19-.949,2.613,2.613,0,0,1,.443-.7,2.273,2.273,0,0,1,.633-.443,1.869,1.869,0,0,1,.823-.127,2.275,2.275,0,0,1,.7.127,1.523,1.523,0,0,1,.506.38l-.38.506a1.324,1.324,0,0,0-.38-.253,1.173,1.173,0,0,0-.443-.127,1.847,1.847,0,0,0-.57.127,1.135,1.135,0,0,0-.443.316,1.272,1.272,0,0,0-.253.506,2.691,2.691,0,0,0-.127.7,2.275,2.275,0,0,0,.127.7,1.272,1.272,0,0,0,.253.506,1.135,1.135,0,0,0,.443.316,1.345,1.345,0,0,0,1.139,0,1.135,1.135,0,0,0,.443-.316l.316.506a1.313,1.313,0,0,1-.633.38c-.253,0-.506.063-.759.063Zm3.86,0a3.176,3.176,0,0,1-.759-.127,1.16,1.16,0,0,1-.633-.443,2.509,2.509,0,0,1,0-3.354,2.273,2.273,0,0,1,.633-.443,1.605,1.605,0,0,1,.759-.127,3.176,3.176,0,0,1,.759.127,2.273,2.273,0,0,1,.633.443,2.509,2.509,0,0,1,0,3.354,2.273,2.273,0,0,1-.633.443,3.176,3.176,0,0,1-.759.127Zm0-.633a1.192,1.192,0,0,0,.506-.127.93.93,0,0,0,.38-.316,1.9,1.9,0,0,0,.253-.506,2.6,2.6,0,0,0,.063-.7,2.373,2.373,0,0,0-.063-.7,1.272,1.272,0,0,0-.253-.506,1.678,1.678,0,0,0-.38-.316.971.971,0,0,0-1.012,0,.93.93,0,0,0-.38.316,1.272,1.272,0,0,0-.253.506,2.6,2.6,0,0,0-.063.7,2.372,2.372,0,0,0,.063.7,1.272,1.272,0,0,0,.253.506,1.678,1.678,0,0,0,.38.316,1.192,1.192,0,0,0,.506.127Zm3.227.506v-4.43h.633l.063.633h0a2.478,2.478,0,0,1,.633-.506,1.276,1.276,0,0,1,.7-.19,1.5,1.5,0,0,1,.759.19,1.446,1.446,0,0,1,.443.633,1.978,1.978,0,0,1,.7-.57,1.8,1.8,0,0,1,.759-.253,1.259,1.259,0,0,1,1.012.443,1.82,1.82,0,0,1,.316,1.266v2.721h-.7V21.831a2.021,2.021,0,0,0-.19-.886.6.6,0,0,0-.633-.253,1.432,1.432,0,0,0-1.076.7v3.164h-.7V21.831a2.021,2.021,0,0,0-.19-.886.6.6,0,0,0-.633-.253,1.432,1.432,0,0,0-1.076.7v3.164Z" fill="#585858"/><g transform="translate(157.279)"><path d="M2.911,7.783H26.893A2.9,2.9,0,0,1,29.8,10.694h0A2.9,2.9,0,0,1,26.893,13.6H2.911A2.9,2.9,0,0,1,0,10.694H0A2.864,2.864,0,0,1,2.911,7.783Z" fill="#e4e4e4" fill-rule="evenodd"/><g transform="translate(14.893)"><circle cx="10.378" cy="10.378" r="10.378" transform="translate(0 0)" fill="#0797e1"/></g><g transform="translate(20.073 5.18)"><path d="M2.784,1.329h0a.6.6,0,0,1-.127.823A4.395,4.395,0,0,0,1.266,5.189a3.892,3.892,0,0,0,7.783,0A3.835,3.835,0,0,0,7.72,2.278a.6.6,0,0,1-.127-.823h0a1.135,1.135,0,0,1,.443-.316.682.682,0,0,1,.506.127,5.151,5.151,0,0,1,1.835,3.923A5.189,5.189,0,0,1,0,5.189,4.95,4.95,0,0,1,1.835,1.266a.492.492,0,0,1,.506-.127A.574.574,0,0,1,2.784,1.329Zm3.037-.7V5.822a.624.624,0,0,1-.57.633H5.189a.624.624,0,0,1-.633-.57V.633A.624.624,0,0,1,5.126,0h.063a.624.624,0,0,1,.633.57Z" fill="#fff" fill-rule="evenodd"/></g></g></g><line x2="220.147" transform="translate(0.316 38.537)" fill="none" stroke="#e6e6e6" stroke-width="0.633"/><line x2="220.147" transform="translate(0.316 96.184)" fill="none" stroke="#e6e6e6" stroke-width="0.633"/></g></g></g></g></svg>