<svg xmlns="http://www.w3.org/2000/svg" xmlns:xlink="http://www.w3.org/1999/xlink" width="698.102" height="839.199" viewBox="0 0 698.102 839.199"><defs><clipPath id="a"><path d="M3.593-.5H344.337a4.105,4.105,0,0,1,4.093,4.093V435.407a4.105,4.105,0,0,1-4.093,4.093H3.593A4.105,4.105,0,0,1-.5,435.407V3.593A4.105,4.105,0,0,1,3.593-.5Z" transform="translate(0.5 0.5)" fill="#fff" clip-rule="evenodd"/></clipPath></defs><g transform="translate(-970.5 -154.8)"><g transform="translate(963.5 654.505)"><path d="M341.751,476.834H238.3l5.938-44.534h92.433Z" transform="translate(-78.526 -144.803)" fill="#7c828b"/><path d="M7.5,375.8v27.512a10.165,10.165,0,0,0,10.16,10.16H405.34a10.165,10.165,0,0,0,10.16-10.16V375.8Z" transform="translate(0 -125.58)" fill="#c5ced6"/><path d="M415.5,16.86A10.165,10.165,0,0,0,405.34,6.7H17.66A10.165,10.165,0,0,0,7.5,16.86V250.22h408Z" fill="#414042"/><rect width="379.234" height="216.47" transform="translate(21.883 20.225)" fill="#ec2146"/><path d="M194.691,175.051,180.44,160.8H160.251L146,175.051V195.24l14.251,14.251H180.44l14.251-14.251V175.051Z" transform="translate(48.878 -56.43)" fill="#ec2146"/><path d="M178.128,158.454l14.251,14.251v20.189l-14.251,14.251H157.939l-14.185-14.251V172.705l14.251-14.251h20.123m1.847-4.354H156.224L139.4,170.924v23.752L156.224,211.5h23.752L196.8,194.676V170.924Z" transform="translate(51.123 -54.15)" fill="#fff"/><g transform="translate(195.538 118.291)"><path d="M157.424,197.273H152.08l-1.056,4.75H147l5.476-20.123h4.75l5.476,20.123h-4.157Zm-.792-3.563-.4-1.847c-.264-.99-.462-2.111-.726-3.233-.2-1.122-.462-2.243-.726-3.3h-.132c-.2,1.056-.462,2.177-.66,3.3s-.462,2.177-.726,3.167l-.4,1.847h3.761Z" transform="translate(-147 -181.9)" fill="#fff"/><path d="M174.466,182h6a15.441,15.441,0,0,1,2.507.2,5.99,5.99,0,0,1,2.045.792,4.347,4.347,0,0,1,1.386,1.517,5.938,5.938,0,0,1,.264,3.827,4.217,4.217,0,0,1-.528,1.254,4.619,4.619,0,0,1-.924,1.056,3.55,3.55,0,0,1-1.32.66v.132a4.2,4.2,0,0,1,3.761,4.684,5.908,5.908,0,0,1-.528,2.639,5.64,5.64,0,0,1-1.451,1.847,6.67,6.67,0,0,1-2.177,1.056,7.263,7.263,0,0,1-2.639.33H174.4L174.466,182Zm5.74,8.115a3,3,0,0,0,2.111-.66,2.491,2.491,0,0,0,.66-1.781,1.972,1.972,0,0,0-.66-1.649,3.146,3.146,0,0,0-2.045-.462h-1.847v4.618Zm.4,8.445c2.177,0,3.233-.924,3.233-2.771a2.322,2.322,0,0,0-.792-1.913,3.969,3.969,0,0,0-2.441-.594h-2.243v5.278Z" transform="translate(-156.322 -181.934)" fill="#fff"/><path d="M198.666,182h6.4a11.562,11.562,0,0,1,2.639.33,6.67,6.67,0,0,1,2.177,1.056,5.314,5.314,0,0,1,1.451,1.979,7.034,7.034,0,0,1,.528,3.035,7.741,7.741,0,0,1-.528,3.035,5.949,5.949,0,0,1-1.517,2.111,7.2,7.2,0,0,1-2.177,1.254,8.817,8.817,0,0,1-2.639.4h-2.441v6.8H198.6V182Zm6.136,9.7a2.923,2.923,0,0,0,3.233-2.375,1.608,1.608,0,0,0,0-.792,2.79,2.79,0,0,0-.792-2.243,3.826,3.826,0,0,0-2.375-.66h-2.177v6.07Z" transform="translate(-164.556 -181.934)" fill="#fff"/></g><path d="M179.48,155.288l16.164,16.164V194.28L179.48,210.444H156.652L140.488,194.28V171.452l16.164-16.164H179.48m.462-1.188H156.124L139.3,170.924v23.752L156.124,211.5h23.752L196.7,194.676V170.924L179.942,154.1Z" transform="translate(51.157 -54.15)" fill="#d8d9da"/><path d="M228.91,499.8H332.361l18.21,4.288L210.7,504.22Z" transform="translate(-69.135 -167.769)" fill="#c5ced6"/><path d="M349.615,508.675H211.658l-.858-2.243,139.8-.132Z" transform="translate(-69.169 -169.98)" fill="#7c828b"/><path d="M320.215,402.457a7.257,7.257,0,1,1-7.257-7.257A7.237,7.237,0,0,1,320.215,402.457Z" transform="translate(-101.457 -132.18)" fill="#414042"/></g><g transform="translate(1017.5 875.118)"><path d="M56.5,110.059a8.869,8.869,0,0,1-8.823,8.823H8.823A8.819,8.819,0,0,1,0,110.059V8.823A8.819,8.819,0,0,1,8.823,0H47.677A8.869,8.869,0,0,1,56.5,8.823Z" fill="#414042"/><rect width="48.218" height="86.917" transform="translate(4.179 16.253)" fill="#e6e7e8"/><path d="M39.295,141.147a3.947,3.947,0,1,1-3.947-3.947A3.964,3.964,0,0,1,39.295,141.147Z" transform="translate(-7.097 -31.011)" fill="#808285"/><path d="M39.152,13.459a1.19,1.19,0,0,1-1.161,1.161h-7.43A1.19,1.19,0,0,1,29.4,13.459h0A1.19,1.19,0,0,1,30.561,12.3h7.43a1.1,1.1,0,0,1,1.161,1.161Z" transform="translate(-6.645 -2.778)" fill="#58595b"/></g><g transform="translate(1097.742 816.633)"><g transform="translate(0 0)"><path d="M331.926,242.808l-2.934,2.785L270.94,401.608H466.05l55.536-151.973a6.965,6.965,0,0,0-6.544-9.361H339.888Z" transform="translate(-142.759 -240.274)" fill="#b4b4b4"/><path d="M329.207,242.739l-2.8,2.709L270.94,397.241H457.35l53.06-147.859a6.761,6.761,0,0,0-6.253-9.107H336.814Z" transform="translate(-138.489 -235.907)"/><path d="M372.633,240.274h-1.969a11.968,11.968,0,0,0-11.237,7.833l-56.609,153.5H312.6Z" transform="translate(-175.422 -240.274)" fill="#b4b4b4"/><path d="M372.633,240.274h-1.969a11.958,11.958,0,0,0-11.237,7.621L302.819,397.241H312.6Z" transform="translate(-171.152 -235.907)"/><path d="M0,0H128a0,0,0,0,1,0,0V13.194a2.35,2.35,0,0,1-2.35,2.35H0a0,0,0,0,1,0,0V0A0,0,0,0,1,0,0Z" transform="translate(194.752 161.336)" fill="#757575"/><path d="M507.588,282.741H324.645c-6.519,0-11.809-3.476-11.809-7.773h0c0-4.291,5.29-7.773,11.809-7.773H507.588Z" transform="translate(-312.836 -105.861)" fill="#9d9d9d"/><path d="M42.7,13.1.046,22.174S-2.013,3.643,21.35.3C39.788-2.339,42.7,13.1,42.7,13.1Z" transform="matrix(-0.978, -0.208, 0.208, -0.978, 256.187, 141.025)" fill="#fff"/></g></g><g transform="translate(1074 262.3)"><path d="M-7122.02-1492.617H-7463a5,5,0,0,1-5-5V-1954.3a5,5,0,0,1,5-5h376a5,5,0,0,1,5,5v456.682a5,5,0,0,1-5,5h-6.328l-.376,28.316Z" transform="translate(7365 1852.3)" fill="#fff" stroke="rgba(0,0,0,0)" stroke-width="1"/><g transform="translate(-77.431 -92.8)"><g transform="translate(0.5 0.5)" clip-path="url(#a)"><g transform="translate(0.015)"><path d="M4.1,0H344.8a4.055,4.055,0,0,1,4.1,4.1V435.9a4.055,4.055,0,0,1-4.1,4.1H4.1A4.055,4.055,0,0,1,0,435.9V4.1A4.055,4.055,0,0,1,4.1,0Z" fill="#fff" fill-rule="evenodd"/><g transform="translate(26.605 402.753)"><g transform="translate(253.351)" opacity="0.501"><path d="M11.7,14.1c-.6,1-1.3,1.9-2.5,1.9-1,0-1.4-.6-2.6-.6S5.1,16,4,16s-1.8-1-2.5-2C.2,12.1-.9,8.4.5,5.9a3.834,3.834,0,0,1,3.3-2c1,0,1.9.7,2.6.7s1.7-.8,3-.7a3.482,3.482,0,0,1,2.9,1.6,3.446,3.446,0,0,0-1.7,3.1,3.628,3.628,0,0,0,2.1,3.3,4.44,4.44,0,0,1-1,2.2Z" fill="#585858" fill-rule="evenodd"/><path d="M7.2,1.2A3.47,3.47,0,0,1,9.5,0a3.66,3.66,0,0,1-.8,2.6A2.845,2.845,0,0,1,6.4,3.7,3.293,3.293,0,0,1,7.2,1.2Z" fill="#585858" fill-rule="evenodd"/></g><g transform="translate(282.93 0.833)" opacity="0.501"><path d="M2.7,12.4a.684.684,0,0,0,.7.7h.7v2.4a.987.987,0,0,0,.9,1h.1a.987.987,0,0,0,1-.9V13.1H7.4v2.4a.987.987,0,0,0,.9,1h.1a.987.987,0,0,0,1-.9V13.1H10c.4,0,.6-.3.6-.7V5.5H2.7ZM1,5.5a1,1,0,0,0-1,1v4.8a.987.987,0,0,0,.9,1H1a.987.987,0,0,0,1-.9V6.5A1,1,0,0,0,1,5.5Zm11.3,0a1,1,0,0,0-1,1v4.8a.987.987,0,0,0,.9,1h.1a1,1,0,0,0,1-1V6.5a1.075,1.075,0,0,0-1-1ZM9,1.5,9.8.6a.446.446,0,0,0,0-.5c-.1-.2-.3,0-.4.1l-1,1A3.287,3.287,0,0,0,6.7.8a5.84,5.84,0,0,0-1.8.4l-1-1a.446.446,0,0,0-.5,0,.446.446,0,0,0,0,.5l.9.9A3.938,3.938,0,0,0,2.7,4.9h8A4.215,4.215,0,0,0,9,1.5Zm-3.7,2H4.7V2.9h.6S5.3,3.5,5.3,3.5Zm3.3,0H8V2.9h.6v.6Z" fill="#585858" fill-rule="evenodd"/></g><path d="M1.3,5.2H2.5v9.2H1.3Z" fill="#585858"/><path d="M4.7,7.6h1l.1,1h0a7.006,7.006,0,0,1,1-.8,2.768,2.768,0,0,1,1.3-.3,1.865,1.865,0,0,1,1.6.7,3.439,3.439,0,0,1,.5,2v4.3H9V10.3a2.649,2.649,0,0,0-.3-1.4,1.053,1.053,0,0,0-1-.4,1.222,1.222,0,0,0-.9.3,1.849,1.849,0,0,0-.9.7v4.9H4.7Z" fill="#585858"/><path d="M14.4,14.6a2,2,0,0,1-.9-.2,2.651,2.651,0,0,1-.6-.5.908.908,0,0,1-.3-.7,2.769,2.769,0,0,1-.1-.9V8.5h-1V7.7l1.1-.1.1-1.9h1V7.6h1.8v.9H13.7v3.8a2.959,2.959,0,0,0,.2,1,.984.984,0,0,0,.8.3.6.6,0,0,0,.4-.1c.1,0,.3-.1.4-.1l.2.9c-.2.1-.4.1-.6.2A1.952,1.952,0,0,1,14.4,14.6Z" fill="#585858"/><path d="M19.4,14.6a5.067,5.067,0,0,1-1.3-.2,3.592,3.592,0,0,1-1-.7,4.129,4.129,0,0,1-.7-1.1,3.339,3.339,0,0,1-.3-1.5,3.339,3.339,0,0,1,.3-1.5,4.129,4.129,0,0,1,.7-1.1,3.592,3.592,0,0,1,1-.7,2.153,2.153,0,0,1,1.1-.2,5.019,5.019,0,0,1,1.2.2,1.02,1.02,0,0,1,.8.5,3.128,3.128,0,0,1,.5,1,5.067,5.067,0,0,1,.2,1.3v.7H17.3A2.413,2.413,0,0,0,18,13a2.111,2.111,0,0,0,1.6.6,2.769,2.769,0,0,0,.9-.1,2.994,2.994,0,0,0,.8-.4l.4.8a3.128,3.128,0,0,1-1,.5A5.067,5.067,0,0,1,19.4,14.6Zm1.5-4.1a2.537,2.537,0,0,0-.4-1.6,1.346,1.346,0,0,0-1.2-.5,1.7,1.7,0,0,0-.7.1,2.092,2.092,0,0,0-.6.4,1.612,1.612,0,0,0-.4.7,2.92,2.92,0,0,0-.2.9h3.5Z" fill="#585858"/><path d="M23.5,7.6h1l.1,1.2h0a2.723,2.723,0,0,1,.8-1,1.5,1.5,0,0,1,1.1-.4,1.483,1.483,0,0,1,.7.1l-.2,1c-.1,0-.2-.1-.3-.1h-.4a1.613,1.613,0,0,0-.9.3,2.285,2.285,0,0,0-.8,1.2v4.4H23.5V7.6Z" fill="#585858"/><path d="M30.9,14.6a5.067,5.067,0,0,1-1.3-.2,3.592,3.592,0,0,1-1-.7,4.129,4.129,0,0,1-.7-1.1,3.339,3.339,0,0,1-.3-1.5,3.339,3.339,0,0,1,.3-1.5,4.129,4.129,0,0,1,.7-1.1,3.592,3.592,0,0,1,1-.7,2.153,2.153,0,0,1,1.1-.2,5.019,5.019,0,0,1,1.2.2,4.7,4.7,0,0,1,.9.6,3.128,3.128,0,0,1,.5,1,5.067,5.067,0,0,1,.2,1.3v.7H28.9a2.413,2.413,0,0,0,.7,1.7,2.111,2.111,0,0,0,1.6.6,2.769,2.769,0,0,0,.9-.1,2.994,2.994,0,0,0,.8-.4l.4.8a3.128,3.128,0,0,1-1,.5C31.8,14.5,31.4,14.6,30.9,14.6Zm1.5-4.1A2.537,2.537,0,0,0,32,8.9a1.346,1.346,0,0,0-1.2-.5,1.7,1.7,0,0,0-.7.1,2.092,2.092,0,0,0-.6.4,1.612,1.612,0,0,0-.4.7,2.92,2.92,0,0,0-.2.9h3.5Z" fill="#585858"/><path d="M36.7,14.6a3.529,3.529,0,0,1-1.4-.3,4.129,4.129,0,0,1-1.1-.7l.6-.8.9.6a3.6,3.6,0,0,0,1.1.2,1.493,1.493,0,0,0,1-.3,1.135,1.135,0,0,0,.3-.8A.9.9,0,0,0,38,12c-.1-.2-.2-.2-.4-.3a2.186,2.186,0,0,0-.5-.3c-.2-.1-.4-.1-.6-.2s-.5-.2-.7-.3a2.507,2.507,0,0,1-.7-.4l-.5-.5a1.854,1.854,0,0,1-.2-.7,2.353,2.353,0,0,1,.2-.8,2.651,2.651,0,0,0,.6-.5,1.612,1.612,0,0,1,.7-.4,3.083,3.083,0,0,1,1-.1,5.019,5.019,0,0,1,1.2.2,2.622,2.622,0,0,1,.9.5l-.5.7a2.506,2.506,0,0,0-.7-.4,2.353,2.353,0,0,0-.8-.2,1.222,1.222,0,0,0-.9.3.908.908,0,0,0-.3.7c0,.2,0,.3.1.4l.3.3a.764.764,0,0,0,.5.2c.2.1.4.1.6.2s.5.2.7.3a2.507,2.507,0,0,1,.7.4c.2.2.4.3.5.6a1.884,1.884,0,0,1,.2.8,2.353,2.353,0,0,1-.2.8,1.47,1.47,0,0,1-.5.6,2.01,2.01,0,0,1-.8.4A2.663,2.663,0,0,1,36.7,14.6Z" fill="#585858"/><path d="M42.6,14.6a2,2,0,0,1-.9-.2,2.651,2.651,0,0,1-.6-.5.908.908,0,0,1-.3-.7,2.769,2.769,0,0,1-.1-.9V8.5h-1V7.7l1.1-.1.1-1.9h1V7.6h1.8v.9H41.9v3.8a2.958,2.958,0,0,0,.2,1,.984.984,0,0,0,.8.3.6.6,0,0,0,.4-.1c.1,0,.3-.1.4-.1l.2.9c-.2.1-.4.1-.6.2A1.952,1.952,0,0,1,42.6,14.6Z" fill="#585858"/><path d="M47.6,14.6a5.067,5.067,0,0,1-1.3-.2,3.591,3.591,0,0,1-1-.7,4.129,4.129,0,0,1-.7-1.1,3.339,3.339,0,0,1-.3-1.5,3.339,3.339,0,0,1,.3-1.5,4.129,4.129,0,0,1,.7-1.1,3.591,3.591,0,0,1,1-.7,2.153,2.153,0,0,1,1.1-.2,5.019,5.019,0,0,1,1.2.2,4.7,4.7,0,0,1,.9.6,3.128,3.128,0,0,1,.5,1,5.067,5.067,0,0,1,.2,1.3v.7H45.6a2.413,2.413,0,0,0,.7,1.7,2.111,2.111,0,0,0,1.6.6,2.769,2.769,0,0,0,.9-.1,2.994,2.994,0,0,0,.8-.4l.4.8a3.128,3.128,0,0,1-1,.5C48.5,14.5,48.1,14.6,47.6,14.6Zm1.5-4.1a2.537,2.537,0,0,0-.4-1.6,1.346,1.346,0,0,0-1.2-.5,1.7,1.7,0,0,0-.7.1,2.092,2.092,0,0,0-.6.4,1.612,1.612,0,0,0-.4.7,2.92,2.92,0,0,0-.2.9h3.5Z" fill="#585858"/><path d="M54,14.6a2.723,2.723,0,0,1-2.1-.9,3.537,3.537,0,0,1-.8-2.6,6.8,6.8,0,0,1,.2-1.5A4.129,4.129,0,0,1,52,8.5a5.5,5.5,0,0,1,.9-.7A2.279,2.279,0,0,1,54,7.5a2.958,2.958,0,0,1,1,.2,2.361,2.361,0,0,1,.9.6L56,7.1V4.4h1.2v10h-1l-.1-.8h0a5.5,5.5,0,0,1-.9.7A2.375,2.375,0,0,1,54,14.6Zm.3-1a2.92,2.92,0,0,0,.9-.2,2.7,2.7,0,0,0,.8-.7V9.1c-.3-.3-.6-.4-.8-.6a1.077,1.077,0,0,0-.8-.2,2.354,2.354,0,0,0-.8.2A2.651,2.651,0,0,0,53,9a2.01,2.01,0,0,0-.4.8,3.6,3.6,0,0,0-.2,1.1,3.312,3.312,0,0,0,.5,1.9A1.419,1.419,0,0,0,54.3,13.6Z" fill="#585858"/><path d="M62.6,6.2A1.421,1.421,0,0,1,62,6c-.2-.1-.2-.3-.2-.5A.764.764,0,0,1,62,5a1.072,1.072,0,0,1,.6-.2,1.421,1.421,0,0,1,.6.2c.2.1.2.3.2.5a.764.764,0,0,1-.2.5A1.421,1.421,0,0,1,62.6,6.2ZM62,7.6h1.1v6.8H62Z" fill="#585858"/><path d="M65.4,7.6h1l.1,1h0a7.006,7.006,0,0,1,1-.8,2.768,2.768,0,0,1,1.3-.3,1.865,1.865,0,0,1,1.6.7,3.439,3.439,0,0,1,.5,2v4.3H69.8V10.3a2.648,2.648,0,0,0-.3-1.4,1.053,1.053,0,0,0-1-.4,1.222,1.222,0,0,0-.9.3,3.24,3.24,0,0,0-.9.8v4.9H65.6V7.6Z" fill="#585858"/><path d="M79.9,11.6H76.6l-.9,2.8H74.5l3.1-9.2h1.3L82,14.4H80.8Zm-.3-.9-.4-1.4c-.2-.5-.3-1-.5-1.5a7.491,7.491,0,0,1-.4-1.6h-.1c-.1.5-.3,1.1-.4,1.6a8.8,8.8,0,0,1-.5,1.5l-.4,1.4Z" fill="#585858"/><path d="M85.4,14.6a2.723,2.723,0,0,1-2.1-.9,3.537,3.537,0,0,1-.8-2.6,6.8,6.8,0,0,1,.2-1.5,4.129,4.129,0,0,1,.7-1.1,5.5,5.5,0,0,1,.9-.7,2.279,2.279,0,0,1,1.1-.3,2.959,2.959,0,0,1,1,.2,2.361,2.361,0,0,1,.9.6l-.1-1.2V4.4h1.2v10h-1l-.1-.8h0a5.5,5.5,0,0,1-.9.7A1.689,1.689,0,0,1,85.4,14.6Zm.3-1a2.92,2.92,0,0,0,.9-.2,2.7,2.7,0,0,0,.8-.7V9.1c-.3-.3-.6-.4-.8-.6s-.6-.1-.8-.1a2.354,2.354,0,0,0-.8.2,2.651,2.651,0,0,0-.6.5,2.01,2.01,0,0,0-.4.8,3.6,3.6,0,0,0-.2,1.1,3.312,3.312,0,0,0,.5,1.9A1.513,1.513,0,0,0,85.7,13.6Z" fill="#585858"/><path d="M93.8,14.6a4.4,4.4,0,0,1-1-.2c-.3-.2-.7-.4-1-.6h0l-.1.7h-.9V4.5h1.1V8.4a3.592,3.592,0,0,1,1-.7A2.279,2.279,0,0,1,94,7.4a5.019,5.019,0,0,1,1.2.2,2.7,2.7,0,0,1,.8.7,3.7,3.7,0,0,1,.5,1.1,5.9,5.9,0,0,1,.2,1.4,7.772,7.772,0,0,1-.2,1.6,4.5,4.5,0,0,1-.6,1.2,2.757,2.757,0,0,1-.9.7A3.013,3.013,0,0,1,93.8,14.6Zm-.2-1a2.354,2.354,0,0,0,.8-.2,2.651,2.651,0,0,0,.6-.5,2.01,2.01,0,0,0,.4-.8,3.75,3.75,0,0,0,.1-1.1,3.083,3.083,0,0,0-.1-1,6.889,6.889,0,0,0-.3-.8,1.024,1.024,0,0,0-.6-.5,1.884,1.884,0,0,0-.8-.2,2.593,2.593,0,0,0-1.8.9V13a4.7,4.7,0,0,0,.9.6C93.1,13.8,93.4,13.6,93.6,13.6Z" fill="#585858"/><path d="M99.6,14.6c-.4,0-.8-.1-.9-.4a1.8,1.8,0,0,1-.3-1.1V4.4h1.1v8.7c0,.2,0,.3.1.4s.1.1.2.1h.2l.2.9c-.1,0-.2.1-.3.1Z" fill="#585858"/><path d="M104.5,14.6a5.019,5.019,0,0,1-1.2-.2,3.592,3.592,0,0,1-1-.7,4.129,4.129,0,0,1-.7-1.1,3.339,3.339,0,0,1-.3-1.5,3.339,3.339,0,0,1,.3-1.5,4.13,4.13,0,0,1,.7-1.1,3.592,3.592,0,0,1,1-.7,2.537,2.537,0,0,1,1.2-.2,5.019,5.019,0,0,1,1.2.2,3.592,3.592,0,0,1,1,.7,4.129,4.129,0,0,1,.7,1.1,3.653,3.653,0,0,1,.3,1.5,3.339,3.339,0,0,1-.3,1.5,4.129,4.129,0,0,1-.7,1.1,3.592,3.592,0,0,1-1,.7A5.019,5.019,0,0,1,104.5,14.6Zm0-1a1.884,1.884,0,0,0,.8-.2,1.47,1.47,0,0,0,.6-.5,5.938,5.938,0,0,0,.4-.8,3.75,3.75,0,0,0,.1-1.1,4.1,4.1,0,0,0-.1-1.1,1.506,1.506,0,0,0-.4-.8,2.651,2.651,0,0,0-.6-.5,1.7,1.7,0,0,0-1.6,0,1.47,1.47,0,0,0-.6.5,2.01,2.01,0,0,0-.4.8,3.75,3.75,0,0,0-.1,1.1,4.1,4.1,0,0,0,.1,1.1,2.01,2.01,0,0,0,.4.8,2.651,2.651,0,0,0,.6.5A1.884,1.884,0,0,0,104.5,13.6Z" fill="#585858"/><path d="M112,14.6a5.853,5.853,0,0,1-1.3-.2,3.592,3.592,0,0,1-1-.7,4.129,4.129,0,0,1-.7-1.1,3.416,3.416,0,0,1-.2-1.5,3.339,3.339,0,0,1,.3-1.5,4.129,4.129,0,0,1,.7-1.1,3.592,3.592,0,0,1,1-.7,2.745,2.745,0,0,1,1.3-.2,3.6,3.6,0,0,1,1.1.2,2.407,2.407,0,0,1,.8.6l-.5.6a2.092,2.092,0,0,0-.6-.4,1.854,1.854,0,0,0-.7-.2,2.92,2.92,0,0,0-.9.2,1.794,1.794,0,0,0-.7.5,2.01,2.01,0,0,0-.4.8A3.6,3.6,0,0,0,110,11a4.253,4.253,0,0,0,.2,1.1,2.01,2.01,0,0,0,.4.8,1.794,1.794,0,0,0,.7.5,2.388,2.388,0,0,0,.9.2,2.92,2.92,0,0,0,.9-.2,1.794,1.794,0,0,0,.7-.5l.5.8a2.075,2.075,0,0,1-1,.6A3.452,3.452,0,0,1,112,14.6Z" fill="#585858"/><path d="M115.6,4.4h1.1v6.7h0l2.9-3.6h1.3l-2.3,2.7,2.6,4.1H120L118,11l-1.3,1.5v1.8h-1.1Z" fill="#585858"/><path d="M125.2,5.2h2.6a6.15,6.15,0,0,1,1.4.1,2.22,2.22,0,0,1,1.1.5,2.7,2.7,0,0,1,.7.8,2.5,2.5,0,0,1,.3,1.3,5.067,5.067,0,0,1-.2,1.3,3.114,3.114,0,0,1-.7.9,2.22,2.22,0,0,1-1.1.5,5.9,5.9,0,0,1-1.4.2h-1.5v3.6h-1.2V5.2Zm2.5,4.6a2.969,2.969,0,0,0,1.8-.5,1.678,1.678,0,0,0,.6-1.4,1.557,1.557,0,0,0-.6-1.4,3.007,3.007,0,0,0-1.8-.4h-1.3V9.8Z" fill="#585858"/><path d="M134.1,14.6c-.4,0-.8-.1-.9-.4a1.8,1.8,0,0,1-.3-1.1V4.4H134v8.7c0,.2,0,.3.1.4s.1.1.2.1h.2l.2.9c-.1,0-.2.1-.3.1Z" fill="#585858"/><path d="M138.4,14.6a1.753,1.753,0,0,1-1.6-.7,3.439,3.439,0,0,1-.5-2V7.6h1.2v4.2a2.649,2.649,0,0,0,.3,1.4,1.053,1.053,0,0,0,1,.4,1.222,1.222,0,0,0,.9-.3,3.818,3.818,0,0,0,.9-.9V7.6h1.1v6.8h-1l-.1-1.1h0a4.064,4.064,0,0,1-1,.9A2.45,2.45,0,0,1,138.4,14.6Z" fill="#585858"/><path d="M145.7,14.6a3.529,3.529,0,0,1-1.4-.3,4.129,4.129,0,0,1-1.1-.7l.6-.8.9.6a3.6,3.6,0,0,0,1.1.2,1.493,1.493,0,0,0,1-.3,1.136,1.136,0,0,0,.3-.8.9.9,0,0,0-.1-.5c-.1-.2-.2-.2-.4-.3a2.186,2.186,0,0,0-.5-.3c-.2-.1-.4-.1-.6-.2s-.5-.2-.7-.3a2.506,2.506,0,0,1-.7-.4l-.5-.5a1.854,1.854,0,0,1-.2-.7,2.354,2.354,0,0,1,.2-.8,2.652,2.652,0,0,1,.5-.6,1.612,1.612,0,0,1,.7-.4,3.083,3.083,0,0,1,1-.1,5.019,5.019,0,0,1,1.2.2,1.934,1.934,0,0,1,.9.5l-.5.7a2.506,2.506,0,0,0-.7-.4,2.354,2.354,0,0,0-.8-.2,1.222,1.222,0,0,0-.9.3.908.908,0,0,0-.3.7c0,.2,0,.3.1.4l.3.3a.764.764,0,0,0,.5.2c.2.1.4.1.6.2s.5.2.7.3a2.506,2.506,0,0,1,.7.4c.2.2.4.3.5.6a1.884,1.884,0,0,1,.2.8,2.354,2.354,0,0,1-.2.8,1.47,1.47,0,0,1-.5.6,2.01,2.01,0,0,1-.8.4A1.666,1.666,0,0,1,145.7,14.6Z" fill="#585858"/><path d="M155,14.6a5.019,5.019,0,0,1-1.2-.2,3.592,3.592,0,0,1-1-.7,4.129,4.129,0,0,1-.7-1.1,3.339,3.339,0,0,1-.3-1.5,3.339,3.339,0,0,1,.3-1.5,4.129,4.129,0,0,1,.7-1.1,3.592,3.592,0,0,1,1-.7,2.537,2.537,0,0,1,1.2-.2,5.019,5.019,0,0,1,1.2.2,3.592,3.592,0,0,1,1,.7,4.129,4.129,0,0,1,.7,1.1,3.653,3.653,0,0,1,.3,1.5,3.339,3.339,0,0,1-.3,1.5,4.129,4.129,0,0,1-.7,1.1,3.592,3.592,0,0,1-1,.7A5.019,5.019,0,0,1,155,14.6Zm0-1a1.884,1.884,0,0,0,.8-.2,1.47,1.47,0,0,0,.6-.5,5.936,5.936,0,0,0,.4-.8,3.749,3.749,0,0,0,.1-1.1,4.1,4.1,0,0,0-.1-1.1,2.01,2.01,0,0,0-.4-.8,2.651,2.651,0,0,0-.6-.5,1.7,1.7,0,0,0-1.6,0,1.47,1.47,0,0,0-.6.5,5.936,5.936,0,0,0-.4.8,3.749,3.749,0,0,0-.1,1.1,4.1,4.1,0,0,0,.1,1.1,2.01,2.01,0,0,0,.4.8,2.651,2.651,0,0,0,.6.5A1.077,1.077,0,0,0,155,13.6Z" fill="#585858"/><path d="M159.8,7.6h1l.1,1h0a7.006,7.006,0,0,1,1-.8,2.768,2.768,0,0,1,1.3-.3,1.865,1.865,0,0,1,1.6.7,3.439,3.439,0,0,1,.5,2v4.3h-1.1V10.3a2.649,2.649,0,0,0-.3-1.4,1.053,1.053,0,0,0-1-.4,1.222,1.222,0,0,0-.9.3,5.738,5.738,0,0,0-.9.8v4.9H160V7.6Z" fill="#585858"/><path d="M170,7.6h1l.1,1h0a3.915,3.915,0,0,1,1-.8,2.279,2.279,0,0,1,1.1-.3,2.133,2.133,0,0,1,1.2.3,1.978,1.978,0,0,1,.7,1,4.36,4.36,0,0,1,1.1-.9,2.45,2.45,0,0,1,1.2-.4,1.865,1.865,0,0,1,1.6.7,3.439,3.439,0,0,1,.5,2v4.3h-1.1V10.3a2.649,2.649,0,0,0-.3-1.4,1.053,1.053,0,0,0-1-.4,2.39,2.39,0,0,0-1.7,1v4.9h-1.1V10.2a2.649,2.649,0,0,0-.3-1.4,1.053,1.053,0,0,0-1-.4,2.39,2.39,0,0,0-1.7,1v4.9H170Z" fill="#585858"/><path d="M184.2,14.6a5.019,5.019,0,0,1-1.2-.2,3.592,3.592,0,0,1-1-.7,4.129,4.129,0,0,1-.7-1.1A3.808,3.808,0,0,1,181,11a3.339,3.339,0,0,1,.3-1.5,4.129,4.129,0,0,1,.7-1.1,3.592,3.592,0,0,1,1-.7,2.537,2.537,0,0,1,1.2-.2,5.019,5.019,0,0,1,1.2.2,3.592,3.592,0,0,1,1,.7,4.129,4.129,0,0,1,.7,1.1,3.653,3.653,0,0,1,.3,1.5,3.339,3.339,0,0,1-.3,1.5,4.129,4.129,0,0,1-.7,1.1,3.592,3.592,0,0,1-1,.7A2.663,2.663,0,0,1,184.2,14.6Zm0-1a1.884,1.884,0,0,0,.8-.2,1.47,1.47,0,0,0,.6-.5,5.936,5.936,0,0,0,.4-.8,3.749,3.749,0,0,0,.1-1.1,4.1,4.1,0,0,0-.1-1.1,2.01,2.01,0,0,0-.4-.8,2.651,2.651,0,0,0-.6-.5,1.7,1.7,0,0,0-1.6,0,1.47,1.47,0,0,0-.6.5,2.01,2.01,0,0,0-.4.8,3.75,3.75,0,0,0-.1,1.1,4.1,4.1,0,0,0,.1,1.1,1.506,1.506,0,0,0,.4.8,2.651,2.651,0,0,0,.6.5A1.077,1.077,0,0,0,184.2,13.6Z" fill="#585858"/><path d="M192,14.6a4.4,4.4,0,0,1-1-.2c-.3-.2-.7-.4-1-.6h0l-.1.7H189V4.5h1.1V8.4a3.592,3.592,0,0,1,1-.7,2.279,2.279,0,0,1,1.1-.3,5.019,5.019,0,0,1,1.2.2,2.7,2.7,0,0,1,.8.7,3.7,3.7,0,0,1,.5,1.1,5.9,5.9,0,0,1,.2,1.4,7.773,7.773,0,0,1-.2,1.6,13.387,13.387,0,0,1-.6,1.2,2.757,2.757,0,0,1-.9.7A4.22,4.22,0,0,1,192,14.6Zm-.2-1a2.354,2.354,0,0,0,.8-.2c.3-.1.4-.3.6-.5a2.01,2.01,0,0,0,.4-.8,3.749,3.749,0,0,0,.1-1.1,3.083,3.083,0,0,0-.1-1,6.89,6.89,0,0,0-.3-.8,1.024,1.024,0,0,0-.6-.5,1.884,1.884,0,0,0-.8-.2,2.593,2.593,0,0,0-1.8.9V13a4.7,4.7,0,0,0,.9.6C191.3,13.8,191.6,13.6,191.8,13.6Z" fill="#585858"/><path d="M197.2,6.2a1.421,1.421,0,0,1-.6-.2c-.2-.1-.2-.3-.2-.5a.764.764,0,0,1,.2-.5,1,1,0,0,1,1.2,0c.2.1.2.3.2.5a.764.764,0,0,1-.2.5A1.421,1.421,0,0,1,197.2,6.2Zm-.6,1.4h1.1v6.8h-1.1Z" fill="#585858"/><path d="M201.2,14.6c-.4,0-.8-.1-.9-.4a1.8,1.8,0,0,1-.3-1.1V4.4h1.1v8.7c0,.2,0,.3.1.4s.1.1.2.1h.2l.2.9c-.1,0-.2.1-.3.1Z" fill="#585858"/><path d="M206.2,14.6a5.067,5.067,0,0,1-1.3-.2,3.592,3.592,0,0,1-1-.7,4.129,4.129,0,0,1-.7-1.1,3.339,3.339,0,0,1-.3-1.5,3.339,3.339,0,0,1,.3-1.5,4.129,4.129,0,0,1,.7-1.1,3.592,3.592,0,0,1,1-.7,2.153,2.153,0,0,1,1.1-.2,5.019,5.019,0,0,1,1.2.2c.4.1.6.4.9.6a3.128,3.128,0,0,1,.5,1,5.066,5.066,0,0,1,.2,1.3v.7H204a2.413,2.413,0,0,0,.7,1.7,2.111,2.111,0,0,0,1.6.6,2.768,2.768,0,0,0,.9-.1,2.994,2.994,0,0,0,.8-.4l.4.8a3.128,3.128,0,0,1-1,.5C207.1,14.5,206.6,14.6,206.2,14.6Zm1.5-4.1a2.537,2.537,0,0,0-.4-1.6,1.346,1.346,0,0,0-1.2-.5,1.7,1.7,0,0,0-.7.1,2.092,2.092,0,0,0-.6.4,1.612,1.612,0,0,0-.4.7,2.92,2.92,0,0,0-.2.9h3.5Z" fill="#585858"/><path d="M211.2,11.6a3.333,3.333,0,0,1,0-1,1.909,1.909,0,0,1,.3-.8,3.039,3.039,0,0,1,.5-.7,2.652,2.652,0,0,0,.5-.6c.1-.2.3-.4.4-.6a1.445,1.445,0,0,0,.2-.7,1.689,1.689,0,0,0-.3-1,1.159,1.159,0,0,0-1-.4,2.92,2.92,0,0,0-.9.2,1.344,1.344,0,0,0-.7.6l-.7-.6a3.915,3.915,0,0,1,1-.8,3.194,3.194,0,0,1,1.4-.3,2.352,2.352,0,0,1,1.7.6,2.111,2.111,0,0,1,.6,1.6,1.884,1.884,0,0,1-.2.8,1.612,1.612,0,0,1-.4.7,4.233,4.233,0,0,0-.5.7c-.2.3-.3.4-.5.7a5.735,5.735,0,0,0-.4.7,2.768,2.768,0,0,0-.1.9h-.9Zm.6,3a1.421,1.421,0,0,1-.6-.2.735.735,0,0,1-.2-.6,1.445,1.445,0,0,1,.2-.7.735.735,0,0,1,.6-.2,1.421,1.421,0,0,1,.6.2.844.844,0,0,1,.2.7.845.845,0,0,1-.2.6A1.421,1.421,0,0,1,211.8,14.6Z" fill="#585858"/></g><g transform="translate(0.512 78.791)"><g transform="translate(0 73.504)"><rect width="347.9" height="232" fill="#f7f7f7"/></g><path d="M17.2,17V5.9H21a8.083,8.083,0,0,1,1.6.1,2.947,2.947,0,0,1,1.3.5,2.361,2.361,0,0,1,.9.8A5.212,5.212,0,0,1,25,8.7a1.7,1.7,0,0,1-.1.7c-.1.2-.2.5-.3.7a2.651,2.651,0,0,1-.5.6,2.092,2.092,0,0,1-.6.4v.1c.3.1.5.2.8.3a2.651,2.651,0,0,1,.6.5,2.01,2.01,0,0,1,.4.8,2.958,2.958,0,0,1,.2,1,3.339,3.339,0,0,1-.3,1.5,2.836,2.836,0,0,1-.9,1,2.986,2.986,0,0,1-1.4.6,8.807,8.807,0,0,1-1.7.2h-4Zm2.5-6.6h1.2c.6,0,1.1-.1,1.3-.4a1.777,1.777,0,0,0,.4-1,.975.975,0,0,0-.4-.9,2.269,2.269,0,0,0-1.3-.3H19.7Zm0,4.7h1.4q2.1,0,2.1-1.5a1.1,1.1,0,0,0-.5-1,3.061,3.061,0,0,0-1.5-.3H19.8v2.8Z"/><path d="M29.4,17.2a3.6,3.6,0,0,1-1.1-.2,1.344,1.344,0,0,1-.7-.6,2.471,2.471,0,0,1-.4-.9,4.121,4.121,0,0,1-.1-1.2V5.1h2.5v9.4c0,.3,0,.4.1.5s.2.2.3.2h.3l.3,1.9a.749.749,0,0,1-.5.1Z"/><path d="M35.4,17.2a4.013,4.013,0,0,1-1.5-.3,3.805,3.805,0,0,1-1.3-.9,3.39,3.39,0,0,1-.9-1.4,5.412,5.412,0,0,1-.3-1.9,5.822,5.822,0,0,1,.3-1.9,4.2,4.2,0,0,1,.9-1.4,3.805,3.805,0,0,1,1.3-.9,3.9,3.9,0,0,1,3,0,3.805,3.805,0,0,1,1.3.9,3.39,3.39,0,0,1,.9,1.4,6.167,6.167,0,0,1,0,3.8,4.2,4.2,0,0,1-.9,1.4,3.805,3.805,0,0,1-1.3.9A3.339,3.339,0,0,1,35.4,17.2Zm0-2a1.425,1.425,0,0,0,1.2-.6,3.007,3.007,0,0,0,.4-1.8,3.207,3.207,0,0,0-.4-1.8,1.141,1.141,0,0,0-1.2-.6,1.425,1.425,0,0,0-1.2.6,3.007,3.007,0,0,0-.4,1.8,3.207,3.207,0,0,0,.4,1.8A1.218,1.218,0,0,0,35.4,15.2Z"/><path d="M44.8,17.2a4.146,4.146,0,0,1-1.6-.3,3.805,3.805,0,0,1-1.3-.9,3.39,3.39,0,0,1-.9-1.4,5.412,5.412,0,0,1-.3-1.9,4.058,4.058,0,0,1,.4-1.9,4.508,4.508,0,0,1,1-1.4,4.2,4.2,0,0,1,1.4-.9,4.671,4.671,0,0,1,1.7-.3,3.194,3.194,0,0,1,1.4.3,10.907,10.907,0,0,1,1.1.6l-1.2,1.6a2.108,2.108,0,0,0-1.1-.5,1.678,1.678,0,0,0-1.4.6,2.427,2.427,0,0,0-.5,1.8,3.2,3.2,0,0,0,.5,1.8,1.445,1.445,0,0,0,1.4.6,2.354,2.354,0,0,0,.8-.2,4.348,4.348,0,0,0,.7-.4l1,1.6a3.924,3.924,0,0,1-1.4.8A5.929,5.929,0,0,1,44.8,17.2Z"/><path d="M48.9,17V5.1h2.4v6.8h.1L54,8.6h2.7l-3,3.5,3.2,5H54.2l-1.9-3.3L51.2,15v2Z"/><path d="M63.4,17.2a2.958,2.958,0,0,1-1-.2,2.1,2.1,0,0,1-1.3-1.3,2.959,2.959,0,0,1-.2-1A2.476,2.476,0,0,1,62,12.6a8.666,8.666,0,0,1,3.6-1,1.222,1.222,0,0,0-.3-.9,1.327,1.327,0,0,0-1-.3,4.253,4.253,0,0,0-1.1.2,3,3,0,0,0-1.1.6l-.9-1.6a8.865,8.865,0,0,1,1.7-.8,5.822,5.822,0,0,1,1.9-.3,3.328,3.328,0,0,1,2.5.9,4.03,4.03,0,0,1,.9,2.9V17h-2l-.2-.9h-.1a7.632,7.632,0,0,1-1.1.8A3.529,3.529,0,0,1,63.4,17.2Zm.9-1.9a1.445,1.445,0,0,0,.7-.2,2.651,2.651,0,0,0,.6-.5V13.1a4.359,4.359,0,0,0-1.8.5,1.02,1.02,0,0,0-.5.8.6.6,0,0,0,.3.6A.779.779,0,0,0,64.3,15.3Z"/><path d="M73.1,17.2a3.194,3.194,0,0,1-1.4-.3,3.126,3.126,0,0,1-1.1-.9,4.58,4.58,0,0,1-.7-1.4,5.549,5.549,0,0,1-.2-1.9,5.822,5.822,0,0,1,.3-1.9,4.678,4.678,0,0,1,.8-1.4,3.126,3.126,0,0,1,1.1-.9,3.079,3.079,0,0,1,1.3-.3,3.73,3.73,0,0,1,1.2.2l.9.6-.2-1V5.1h2.5V17h-2l-.2-.8h-.1a3.592,3.592,0,0,1-1,.7A2.663,2.663,0,0,1,73.1,17.2Zm.6-2a1.445,1.445,0,0,0,.7-.2,1.7,1.7,0,0,0,.6-.6V10.9a2.506,2.506,0,0,0-.7-.4,1.7,1.7,0,0,0-.7-.1,1.538,1.538,0,0,0-1.1.6,2.427,2.427,0,0,0-.5,1.8,2.82,2.82,0,0,0,.4,1.8A2.15,2.15,0,0,0,73.7,15.2Z"/><path d="M82.2,17.2a5.079,5.079,0,0,1-1.7-.3,5.3,5.3,0,0,1-1.5-.8l1.1-1.6c.4.3.8.5,1.1.7a4.253,4.253,0,0,0,1.1.2,1.549,1.549,0,0,0,.8-.2.55.55,0,0,0,.3-.5.6.6,0,0,0-.1-.4,1.38,1.38,0,0,0-.4-.3,1.072,1.072,0,0,0-.6-.2,1.421,1.421,0,0,0-.6-.2,2.994,2.994,0,0,1-.8-.4,4.233,4.233,0,0,1-.7-.5,1.794,1.794,0,0,1-.5-.7,2.92,2.92,0,0,1-.2-.9,4.253,4.253,0,0,1,.2-1.1,2.7,2.7,0,0,1,.7-.8,3.128,3.128,0,0,1,1-.5,5.067,5.067,0,0,1,1.3-.2,4.671,4.671,0,0,1,1.7.3c.5.2.9.5,1.3.7L84.6,11a4.053,4.053,0,0,0-.9-.5,2.92,2.92,0,0,0-.9-.2c-.6,0-1,.2-1,.7,0,.1,0,.3.1.3a1.38,1.38,0,0,0,.4.3c.2.1.3.2.5.2a1.421,1.421,0,0,0,.6.2c.3.1.5.2.8.3a1.794,1.794,0,0,1,.7.5,1.794,1.794,0,0,1,.5.7,2.959,2.959,0,0,1,.2,1,4.253,4.253,0,0,1-.2,1.1,2.757,2.757,0,0,1-.7.9,10.908,10.908,0,0,1-1.1.6A3.21,3.21,0,0,1,82.2,17.2Z"/><path d="M93.9,17.2a4.013,4.013,0,0,1-1.5-.3,3.805,3.805,0,0,1-1.3-.9,3.39,3.39,0,0,1-.9-1.4,5.412,5.412,0,0,1-.3-1.9,5.822,5.822,0,0,1,.3-1.9,4.194,4.194,0,0,1,.9-1.4,3.805,3.805,0,0,1,1.3-.9,3.9,3.9,0,0,1,3,0,3.805,3.805,0,0,1,1.3.9,3.39,3.39,0,0,1,.9,1.4,6.167,6.167,0,0,1,0,3.8,4.194,4.194,0,0,1-.9,1.4,3.805,3.805,0,0,1-1.3.9A3.339,3.339,0,0,1,93.9,17.2Zm0-2a1.425,1.425,0,0,0,1.2-.6,3.007,3.007,0,0,0,.4-1.8,3.207,3.207,0,0,0-.4-1.8,1.141,1.141,0,0,0-1.2-.6,1.425,1.425,0,0,0-1.2.6,3.007,3.007,0,0,0-.4,1.8,3.207,3.207,0,0,0,.4,1.8A1.218,1.218,0,0,0,93.9,15.2Z"/><path d="M99.6,17V8.6h2l.2,1.1h.1l1.2-.9a2.41,2.41,0,0,1,1.5-.4,2.263,2.263,0,0,1,2,.9,4.4,4.4,0,0,1,.6,2.5V17h-2.5V12.1a3.918,3.918,0,0,0-.2-1.3.984.984,0,0,0-.8-.3,1.9,1.9,0,0,0-1.5.8V17Z"/><path d="M110.6,11.7a1.606,1.606,0,0,1-1.1-.5,1.5,1.5,0,0,1-.4-1.1,1.366,1.366,0,0,1,.4-1.1,1.46,1.46,0,0,1,2.2,0,1.5,1.5,0,0,1,.4,1.1,1.5,1.5,0,0,1-.4,1.1A1.606,1.606,0,0,1,110.6,11.7Zm0,5.5a1.606,1.606,0,0,1-1.1-.5,1.5,1.5,0,0,1-.4-1.1,1.366,1.366,0,0,1,.4-1.1,1.46,1.46,0,0,1,2.2,0,1.712,1.712,0,0,1,0,2.2A1.274,1.274,0,0,1,110.6,17.2Z"/><g transform="translate(17.395 200.558)"><g transform="translate(32.233)"><g transform="translate(0 66.512)"><g transform="translate(0 2.047)"><path d="M12.4,10.8H.9L6.7,1Z" fill="#fff"/><path d="M6.7,2,1.8,10.3h9.8L6.7,2m0-2,6.7,11.3H0Z" fill="#585858"/></g><g transform="translate(6.14 6.14)"><rect width="1" height="3.1" fill="#585858"/><rect width="1" height="1" transform="translate(0 4.1)" fill="#585858"/></g><path d="M27.3,13,25.2,9.4H23.7V13H22.6V4.5h2.7a4.869,4.869,0,0,1,1.2.1,1.884,1.884,0,0,1,.9.4,1.344,1.344,0,0,1,.6.7,3.6,3.6,0,0,1,.2,1.1,2.544,2.544,0,0,1-.5,1.6,2.189,2.189,0,0,1-1.4.8l2.2,3.7H27.3ZM23.7,8.5h1.4a2.076,2.076,0,0,0,1.5-.4,1.656,1.656,0,0,0,.5-1.2,1.364,1.364,0,0,0-.5-1.2,3.339,3.339,0,0,0-1.5-.3H23.7Z" fill="#585858"/><path d="M32.3,13.2a5.019,5.019,0,0,1-1.2-.2,3.592,3.592,0,0,1-1-.7,2.075,2.075,0,0,1-.6-1,3.178,3.178,0,0,1-.2-1.4,5.9,5.9,0,0,1,.2-1.4,4.372,4.372,0,0,1,.6-1,5.5,5.5,0,0,1,.9-.7,1.978,1.978,0,0,1,1.1-.2,3.6,3.6,0,0,1,1.1.2,1.555,1.555,0,0,1,.8.6,4.053,4.053,0,0,1,.5.9,5.019,5.019,0,0,1,.2,1.2v.6H30.4a2.578,2.578,0,0,0,.6,1.6,2.035,2.035,0,0,0,1.5.6,1.949,1.949,0,0,0,.8-.1,1.612,1.612,0,0,0,.7-.4l.4.7c-.3.2-.6.3-.9.5A5.019,5.019,0,0,1,32.3,13.2Zm1.4-3.9a2.41,2.41,0,0,0-.4-1.5,1.656,1.656,0,0,0-1.2-.5,1.268,1.268,0,0,0-.6.1,1.838,1.838,0,0,0-1,1,1.884,1.884,0,0,0-.2.8h3.4Z" fill="#585858"/><path d="M36,6.7h.9l.1.7h0a8.794,8.794,0,0,1,1-.6,2.016,2.016,0,0,1,1.1-.3,3.6,3.6,0,0,1,1.1.2,5.547,5.547,0,0,1,.8.6,3.128,3.128,0,0,1,.5,1,5.067,5.067,0,0,1,.2,1.3,5.9,5.9,0,0,1-.2,1.4,2.384,2.384,0,0,1-.6,1.1,3.114,3.114,0,0,1-.9.7,1.978,1.978,0,0,1-1,.2,2.92,2.92,0,0,1-.9-.2,4.053,4.053,0,0,1-.9-.5v3.2H36Zm2.6,5.6a1.445,1.445,0,0,0,.7-.2,2.651,2.651,0,0,0,.6-.5,2.01,2.01,0,0,0,.4-.8,3.75,3.75,0,0,0,.1-1.1,2.483,2.483,0,0,0-.1-.9c-.1-.2-.2-.5-.3-.7a1.205,1.205,0,0,0-.5-.5,1.884,1.884,0,0,0-.8-.2,2.353,2.353,0,0,0-.8.2,4.7,4.7,0,0,0-.9.6v3.3a9.223,9.223,0,0,0,.8.5A2.614,2.614,0,0,0,38.6,12.3Z" fill="#585858"/><path d="M45.6,13.2a3.6,3.6,0,0,1-1.1-.2,2.034,2.034,0,0,1-.9-.6,2.075,2.075,0,0,1-.6-1,3.178,3.178,0,0,1-.2-1.4A5.9,5.9,0,0,1,43,8.6a4.372,4.372,0,0,1,.6-1,5.5,5.5,0,0,1,.9-.7,1.978,1.978,0,0,1,1.1-.2,3.6,3.6,0,0,1,1.1.2,1.6,1.6,0,0,1,.9.7,2.075,2.075,0,0,1,.6,1,3.178,3.178,0,0,1,.2,1.4,5.9,5.9,0,0,1-.2,1.4,4.372,4.372,0,0,1-.6,1,2.361,2.361,0,0,1-.9.6A3.6,3.6,0,0,1,45.6,13.2Zm0-.9a1.445,1.445,0,0,0,.7-.2,2.651,2.651,0,0,0,.6-.5,2.01,2.01,0,0,0,.4-.8,3.083,3.083,0,0,0,.1-1,3.083,3.083,0,0,0-.1-1,2.01,2.01,0,0,0-.4-.8,2.651,2.651,0,0,0-.6-.5,1.325,1.325,0,0,0-1.4,0,2.651,2.651,0,0,0-.6.5,2.01,2.01,0,0,0-.4.8,3.083,3.083,0,0,0-.1,1,3.083,3.083,0,0,0,.1,1,2.994,2.994,0,0,0,.4.8,2.651,2.651,0,0,0,.6.5A1.445,1.445,0,0,0,45.6,12.3Z" fill="#585858"/><path d="M50.1,6.7H51V7.8h0a2.361,2.361,0,0,1,.8-.9,1.777,1.777,0,0,1,1-.4,1.483,1.483,0,0,1,.7.1l-.2.9c-.1,0-.2-.1-.3-.1h-.3a1.33,1.33,0,0,0-.8.3,3.467,3.467,0,0,0-.8,1.1V13H50V6.7Z" fill="#585858"/><path d="M56.4,13.2a2.92,2.92,0,0,1-.9-.2,2.092,2.092,0,0,1-.6-.4,4.875,4.875,0,0,1-.3-.7,2.483,2.483,0,0,1-.1-.9V7.6h-.9V6.7l1-.1.1-1.8h.9V6.6h1.7v.9H55.6V11a2,2,0,0,0,.2.9c.1.2.4.3.8.3a.756.756,0,0,0,.4-.1c.1,0,.2-.1.4-.1l.2.8a1.141,1.141,0,0,1-.6.3C56.8,13.1,56.6,13.2,56.4,13.2Z" fill="#585858"/><path d="M61.8,5.4a.764.764,0,0,1-.5-.2.55.55,0,0,1-.3-.5.764.764,0,0,1,.2-.5,1.421,1.421,0,0,1,.6-.2.764.764,0,0,1,.5.2.725.725,0,0,1,0,1C62.1,5.3,62,5.4,61.8,5.4Zm-.6,1.3h1.1V13H61.2Z" fill="#585858"/><path d="M65.9,13.2a5.067,5.067,0,0,1-1.3-.2,10.907,10.907,0,0,1-1.1-.6l.5-.7a4.053,4.053,0,0,0,.9.5,2.959,2.959,0,0,0,1,.2,1.222,1.222,0,0,0,.9-.3.908.908,0,0,0,.3-.7c0-.2,0-.3-.1-.4l-.3-.3a.764.764,0,0,0-.5-.2c-.2,0-.3-.1-.5-.2s-.5-.2-.7-.3a2.092,2.092,0,0,1-.6-.4,1,1,0,0,1-.4-.5,1.445,1.445,0,0,1-.2-.7,1.483,1.483,0,0,1,.1-.7,2.092,2.092,0,0,1,.4-.6,1.612,1.612,0,0,1,.7-.4,2.769,2.769,0,0,1,.9-.1,3.6,3.6,0,0,1,1.1.2,3,3,0,0,1,1,.4l-.5.7a1.612,1.612,0,0,0-.7-.4,1.884,1.884,0,0,0-.8-.2,1.222,1.222,0,0,0-.9.3,1.445,1.445,0,0,0-.2.7.6.6,0,0,0,.1.4l.3.3a.758.758,0,0,0,.4.2c.2.1.3.1.5.2s.5.2.7.3a2.092,2.092,0,0,1,.6.4,1,1,0,0,1,.4.5,1.884,1.884,0,0,1,.2.8,1.483,1.483,0,0,1-.1.7,2.092,2.092,0,0,1-.4.6,1.612,1.612,0,0,1-.7.4A3.083,3.083,0,0,1,65.9,13.2Z" fill="#585858"/><path d="M71.3,13.2A5.067,5.067,0,0,1,70,13a10.907,10.907,0,0,1-1.1-.6l.5-.7a4.053,4.053,0,0,0,.9.5,2.959,2.959,0,0,0,1,.2,1.222,1.222,0,0,0,.9-.3.908.908,0,0,0,.3-.7c0-.2,0-.3-.1-.4l-.3-.3a.764.764,0,0,0-.5-.2c-.2,0-.3-.1-.5-.2s-.5-.2-.7-.3a2.092,2.092,0,0,1-.6-.4,1,1,0,0,1-.4-.5,1.445,1.445,0,0,1-.2-.7,1.483,1.483,0,0,1,.1-.7,2.092,2.092,0,0,1,.4-.6,1.612,1.612,0,0,1,.7-.4,2.769,2.769,0,0,1,.9-.1,3.6,3.6,0,0,1,1.1.2,4.054,4.054,0,0,1,.9.5l-.5.7a1.612,1.612,0,0,0-.7-.4,1.884,1.884,0,0,0-.8-.2,1.222,1.222,0,0,0-.9.3.864.864,0,0,0-.3.6.6.6,0,0,0,.1.4l.3.3a.845.845,0,0,1,.6.2c.2.1.3.1.5.2s.5.2.7.3a2.092,2.092,0,0,1,.6.4,1,1,0,0,1,.4.5,1.884,1.884,0,0,1,.2.8,1.483,1.483,0,0,1-.1.7,2.092,2.092,0,0,1-.4.6,1.612,1.612,0,0,1-.7.4A3.4,3.4,0,0,1,71.3,13.2Z" fill="#585858"/><path d="M76.8,13.2a1.755,1.755,0,0,1-1.5-.6,2.969,2.969,0,0,1-.5-1.8v-4h1.1v3.9a2.269,2.269,0,0,0,.3,1.3.975.975,0,0,0,.9.4,1.613,1.613,0,0,0,.9-.3,3.017,3.017,0,0,0,.8-.8V6.7h1.1V13H79l-.1-1h0a6.47,6.47,0,0,1-.9.8A2.45,2.45,0,0,1,76.8,13.2Z" fill="#585858"/><path d="M84.5,13.2a5.019,5.019,0,0,1-1.2-.2,3.592,3.592,0,0,1-1-.7,2.075,2.075,0,0,1-.6-1,3.178,3.178,0,0,1-.2-1.4,5.9,5.9,0,0,1,.2-1.4,4.372,4.372,0,0,1,.6-1,5.5,5.5,0,0,1,.9-.7,1.978,1.978,0,0,1,1.1-.2,3.6,3.6,0,0,1,1.1.2,1.555,1.555,0,0,1,.8.6,4.053,4.053,0,0,1,.5.9,5.019,5.019,0,0,1,.2,1.2v.6H82.6a2.578,2.578,0,0,0,.6,1.6,2.035,2.035,0,0,0,1.5.6,1.949,1.949,0,0,0,.8-.1,1.612,1.612,0,0,0,.7-.4l.4.7c-.3.2-.6.3-.9.5A5.019,5.019,0,0,1,84.5,13.2Zm1.4-3.9a2.41,2.41,0,0,0-.4-1.5,1.656,1.656,0,0,0-1.2-.5,1.268,1.268,0,0,0-.6.1,1.838,1.838,0,0,0-1,1,1.884,1.884,0,0,0-.2.8h3.4Z" fill="#585858"/></g><g transform="translate(152.465 66.512)"><g transform="translate(0 2.047)"><circle cx="5.6" cy="5.6" r="5.6" transform="translate(0 0)" fill="none" stroke="#585858" stroke-width="1"/><path d="M9.7,1.5,1.5,9.7" fill="none" stroke="#585858" stroke-width="1"/></g><path d="M20.6,4.5h2.5a4.869,4.869,0,0,1,1.2.1,3,3,0,0,1,1,.4,1.7,1.7,0,0,1,.6.6,2.958,2.958,0,0,1,.2,1,2.663,2.663,0,0,1-.3,1.2,1.6,1.6,0,0,1-.9.7v.1a2.389,2.389,0,0,1,1.3.7,1.978,1.978,0,0,1,.5,1.4,3.6,3.6,0,0,1-.2,1.1,2.7,2.7,0,0,1-.7.8,3.128,3.128,0,0,1-1,.5,5.067,5.067,0,0,1-1.3.2H20.8V4.5ZM23,8.1a2.364,2.364,0,0,0,1.6-.4,1.389,1.389,0,0,0,.5-1,1.433,1.433,0,0,0-.5-1.1,2.81,2.81,0,0,0-1.5-.3H21.8V8.1Zm.2,4a2.861,2.861,0,0,0,1.7-.4,1.486,1.486,0,0,0,.6-1.3,1.425,1.425,0,0,0-.6-1.2,2.861,2.861,0,0,0-1.7-.4H21.7V12h1.5Z" fill="#585858"/><path d="M29.2,13.2a.975.975,0,0,1-.9-.4,1.609,1.609,0,0,1-.3-1.1v-8h1.1v8.1c0,.2,0,.3.1.4s.1.1.2.1h.2l.1.8a.349.349,0,0,0-.2.1Z" fill="#585858"/><path d="M33.7,13.2a3.6,3.6,0,0,1-1.1-.2,2.034,2.034,0,0,1-.9-.6,2.075,2.075,0,0,1-.6-1,3.178,3.178,0,0,1-.2-1.4,5.9,5.9,0,0,1,.2-1.4,4.372,4.372,0,0,1,.6-1,5.5,5.5,0,0,1,.9-.7,4.253,4.253,0,0,1,1.1-.2,3.6,3.6,0,0,1,1.1.2,2.016,2.016,0,0,1,.9.7,2.075,2.075,0,0,1,.6,1,3.178,3.178,0,0,1,.2,1.4,5.9,5.9,0,0,1-.2,1.4,4.372,4.372,0,0,1-.6,1,2.361,2.361,0,0,1-.9.6A3.6,3.6,0,0,1,33.7,13.2Zm0-.9a1.445,1.445,0,0,0,.7-.2,2.651,2.651,0,0,0,.6-.5,2.01,2.01,0,0,0,.4-.8,3.083,3.083,0,0,0,.1-1,3.083,3.083,0,0,0-.1-1A2.01,2.01,0,0,0,35,8a2.651,2.651,0,0,0-.6-.5,1.325,1.325,0,0,0-1.4,0,2.651,2.651,0,0,0-.6.5,2.01,2.01,0,0,0-.4.8,3.083,3.083,0,0,0-.1,1,3.083,3.083,0,0,0,.1,1,2.994,2.994,0,0,0,.4.8,2.651,2.651,0,0,0,.6.5A1.445,1.445,0,0,0,33.7,12.3Z" fill="#585858"/><path d="M40.7,13.2a5.019,5.019,0,0,1-1.2-.2,2.034,2.034,0,0,1-.9-.6,2.075,2.075,0,0,1-.6-1,3.178,3.178,0,0,1-.2-1.4A5.9,5.9,0,0,1,38,8.6a2.552,2.552,0,0,1,.7-1,3.591,3.591,0,0,1,1-.7,5.019,5.019,0,0,1,1.2-.2,3.6,3.6,0,0,1,1.1.2,2.177,2.177,0,0,1,.8.5L42,8a2.092,2.092,0,0,0-.6-.4,1.445,1.445,0,0,0-.7-.2,1.884,1.884,0,0,0-.8.2,1.47,1.47,0,0,0-.6.5,2.01,2.01,0,0,0-.4.8,3.083,3.083,0,0,0-.1,1,3.083,3.083,0,0,0,.1,1,2.994,2.994,0,0,0,.4.8,2.651,2.651,0,0,0,.6.5,1.7,1.7,0,0,0,1.6,0c.2-.1.5-.3.7-.4l.5.7a4.7,4.7,0,0,1-.9.6C41.4,13.1,41,13.2,40.7,13.2Z" fill="#585858"/><path d="M44,3.7h1V10h0l2.7-3.3h1.2L46.8,9.2,49.2,13H48l-1.8-3L45,11.3V13H44Z" fill="#585858"/><path d="M55.3,13.2a5.019,5.019,0,0,1-1.2-.2,2.286,2.286,0,0,1-1-.7,2.075,2.075,0,0,1-.6-1,5.9,5.9,0,0,1-.2-1.4,5.9,5.9,0,0,1,.2-1.4,4.372,4.372,0,0,1,.6-1,7.05,7.05,0,0,1,.9-.7,1.978,1.978,0,0,1,1.1-.2,3.6,3.6,0,0,1,1.1.2,1.555,1.555,0,0,1,.8.6,4.053,4.053,0,0,1,.5.9,5.019,5.019,0,0,1,.2,1.2v.6H53.4a2.578,2.578,0,0,0,.6,1.6,2.035,2.035,0,0,0,1.5.6,1.949,1.949,0,0,0,.8-.1,1.612,1.612,0,0,0,.7-.4l.4.7c-.3.2-.6.3-.9.5A2.165,2.165,0,0,1,55.3,13.2Zm1.4-3.9a2.41,2.41,0,0,0-.4-1.5,1.656,1.656,0,0,0-1.2-.5,1.268,1.268,0,0,0-.6.1,1.838,1.838,0,0,0-1,1,1.884,1.884,0,0,0-.2.8h3.4Z" fill="#585858"/><path d="M60.2,13.2a.975.975,0,0,1-.9-.4,1.609,1.609,0,0,1-.3-1.1v-8h1.1v8.1c0,.2,0,.3.1.4s.1.1.2.1h.2l.1.8a.349.349,0,0,0-.2.1Z" fill="#585858"/><path d="M64.9,13.2a5.019,5.019,0,0,1-1.2-.2,3.591,3.591,0,0,1-1-.7,2.075,2.075,0,0,1-.6-1,3.178,3.178,0,0,1-.2-1.4,5.9,5.9,0,0,1,.2-1.4,4.372,4.372,0,0,1,.6-1,5.5,5.5,0,0,1,.9-.7,1.978,1.978,0,0,1,1.1-.2,3.6,3.6,0,0,1,1.1.2,1.555,1.555,0,0,1,.8.6,4.053,4.053,0,0,1,.5.9,5.019,5.019,0,0,1,.2,1.2v.6H63a2.578,2.578,0,0,0,.6,1.6,2.035,2.035,0,0,0,1.5.6,1.949,1.949,0,0,0,.8-.1,1.612,1.612,0,0,0,.7-.4l.4.7c-.3.2-.6.3-.9.5A5.02,5.02,0,0,1,64.9,13.2Zm1.4-3.9a2.41,2.41,0,0,0-.4-1.5,1.656,1.656,0,0,0-1.2-.5,1.268,1.268,0,0,0-.6.1,1.838,1.838,0,0,0-1,1,2.92,2.92,0,0,0-.2.9Z" fill="#585858"/><path d="M68.6,6.7h.9l.1.9h0a6.47,6.47,0,0,1,.9-.8,2.016,2.016,0,0,1,1.1-.3,1.609,1.609,0,0,1,1.1.3,1.456,1.456,0,0,1,.6.9,4.064,4.064,0,0,1,1-.9,2.016,2.016,0,0,1,1.1-.3,1.557,1.557,0,0,1,1.4.6,2.969,2.969,0,0,1,.5,1.8v4H76.2V9.1a2.269,2.269,0,0,0-.3-1.3.975.975,0,0,0-.9-.4,2.231,2.231,0,0,0-1.6,1V13H72.3V9.1A2.269,2.269,0,0,0,72,7.8a.975.975,0,0,0-.9-.4,2.231,2.231,0,0,0-1.6,1V13H68.4V6.7Z" fill="#585858"/><path d="M81.9,13.2a5.019,5.019,0,0,1-1.2-.2,2.286,2.286,0,0,1-1-.7,2.075,2.075,0,0,1-.6-1,5.9,5.9,0,0,1-.2-1.4,5.9,5.9,0,0,1,.2-1.4,4.372,4.372,0,0,1,.6-1,7.05,7.05,0,0,1,.9-.7,1.978,1.978,0,0,1,1.1-.2,3.6,3.6,0,0,1,1.1.2,1.555,1.555,0,0,1,.8.6,4.053,4.053,0,0,1,.5.9,5.019,5.019,0,0,1,.2,1.2v.6H80a2.578,2.578,0,0,0,.6,1.6,2.035,2.035,0,0,0,1.5.6,1.949,1.949,0,0,0,.8-.1,1.612,1.612,0,0,0,.7-.4l.4.7c-.3.2-.6.3-.9.5A2.345,2.345,0,0,1,81.9,13.2Zm1.3-3.9a2.41,2.41,0,0,0-.4-1.5,1.656,1.656,0,0,0-1.2-.5,1.268,1.268,0,0,0-.6.1,1.838,1.838,0,0,0-1,1c0,.3-.1.6-.1.9Z" fill="#585858"/><path d="M85.6,6.7h.9l.1.9h0a3.915,3.915,0,0,1,1-.8,2.133,2.133,0,0,1,1.2-.3,1.755,1.755,0,0,1,1.5.6,2.969,2.969,0,0,1,.5,1.8v4H89.7V9.1a2.269,2.269,0,0,0-.3-1.3.975.975,0,0,0-.9-.4,2.92,2.92,0,0,0-.9.2c-.3.2-.5.4-.9.7V13H85.6V6.7Z" fill="#585858"/><path d="M94.6,13.2a2.92,2.92,0,0,1-.9-.2,1.275,1.275,0,0,1-.6-.4,4.876,4.876,0,0,1-.3-.7,2.483,2.483,0,0,1-.1-.9V7.6h-.9V6.7l1-.1L93,4.9h.9V6.7h1.7v.9H93.9v3.5a2,2,0,0,0,.2.9c.1.2.4.3.8.3a.756.756,0,0,0,.4-.1c.1,0,.2-.1.4-.1l.2.8c-.2.1-.4.1-.6.2C95,13.1,94.8,13.2,94.6,13.2Z" fill="#585858"/></g><text transform="translate(40.93 13)" font-size="13" font-family="SourceSansPro-Light, Source Sans Pro" font-weight="300"><tspan x="0" y="0">in total</tspan></text></g><line y2="32.8" transform="translate(0 57.8)" fill="none" stroke="#e6e6e6" stroke-width="1"/><line y2="32.8" transform="translate(158.6 57.8)" fill="none" stroke="#e6e6e6" stroke-width="1"/><line y2="32.8" transform="translate(313.1 57.8)" fill="none" stroke="#e6e6e6" stroke-width="1"/></g><g transform="translate(16.884 91.07)"><g transform="translate(0 30.698)"><g transform="translate(-17.4 -200.56)"><path d="M21.5,200.6h306a4.273,4.273,0,0,1,4.1,4.5v43.7a4.273,4.273,0,0,1-4.1,4.5H21.5a4.273,4.273,0,0,1-4.1-4.5V205A4.246,4.246,0,0,1,21.5,200.6Z" fill="#fff" stroke="#e5e5e5" stroke-width="1" fill-rule="evenodd"/></g></g><g transform="translate(0 93.116)"><g transform="translate(-17.4 -262.98)"><path d="M21.5,263h306a4.273,4.273,0,0,1,4.1,4.5v43.7a4.273,4.273,0,0,1-4.1,4.5H21.5a4.273,4.273,0,0,1-4.1-4.5V267.5A4.273,4.273,0,0,1,21.5,263Z" fill="#fff" stroke="#e5e5e5" stroke-width="1" fill-rule="evenodd"/></g></g><path d="M2.3,17V5.9H4.9l2.9,5.5,1.1,2.4H9c-.1-.6-.1-1.2-.2-2a14.769,14.769,0,0,1-.1-2.1V5.9H11V17H8.5L5.6,11.5,4.5,9.1H4.4c.1.6.1,1.3.2,2a14.084,14.084,0,0,1,.1,2V17Z"/><path d="M15.8,17.2a2.263,2.263,0,0,1-2-.9,4.4,4.4,0,0,1-.6-2.5V8.6h2.5v4.9a2.269,2.269,0,0,0,.3,1.3.984.984,0,0,0,.8.3,1.884,1.884,0,0,0,.8-.2,4.514,4.514,0,0,0,.7-.7V8.6h2.5V17h-2l-.2-1.2h-.1a5.3,5.3,0,0,1-1.2,1A2.41,2.41,0,0,1,15.8,17.2Z"/><path d="M22.8,17V8.6h2L25,9.7h.1a4.36,4.36,0,0,1,1.1-.9,2.3,2.3,0,0,1,1.4-.4,2.41,2.41,0,0,1,1.5.4,2.189,2.189,0,0,1,.9,1,10.592,10.592,0,0,1,1.2-1,2.41,2.41,0,0,1,1.5-.4,2.263,2.263,0,0,1,2,.9,4.4,4.4,0,0,1,.6,2.5V17H32.8V12.1a3.918,3.918,0,0,0-.2-1.3.984.984,0,0,0-.8-.3,2.275,2.275,0,0,0-1.4.8V17H27.9V12.1a3.918,3.918,0,0,0-.2-1.3.984.984,0,0,0-.8-.3,2.275,2.275,0,0,0-1.4.8V17Z"/><path d="M41.6,17.2a2.016,2.016,0,0,1-1.1-.3,7.632,7.632,0,0,1-1.1-.8h-.1l-.1.9h-2V5.1h2.5V8l-.1,1.3a6.726,6.726,0,0,1,1.1-.7,2.537,2.537,0,0,1,1.2-.2,3.194,3.194,0,0,1,1.4.3,2.189,2.189,0,0,1,1,.9c.2.4.5.8.7,1.3a4.966,4.966,0,0,1,.2,1.8,5.412,5.412,0,0,1-.3,1.9,4.678,4.678,0,0,1-.8,1.4,3.126,3.126,0,0,1-1.1.9A3.529,3.529,0,0,1,41.6,17.2Zm-.6-2a1.382,1.382,0,0,0,1.1-.6,3.09,3.09,0,0,0,.5-1.9c0-1.5-.5-2.3-1.5-2.3a1.873,1.873,0,0,0-1.4.8v3.5a2.506,2.506,0,0,0,.7.4C40.6,15.1,40.8,15.2,41,15.2Z"/><path d="M50.6,17.2a4.671,4.671,0,0,1-1.7-.3,4.2,4.2,0,0,1-1.4-.9,3.39,3.39,0,0,1-.9-1.4,5.822,5.822,0,0,1-.3-1.9,4.844,4.844,0,0,1,.3-1.8,4.2,4.2,0,0,1,.9-1.4,3.805,3.805,0,0,1,1.3-.9,4.013,4.013,0,0,1,1.5-.3,4.146,4.146,0,0,1,1.6.3,4.44,4.44,0,0,1,1.1.8,5.388,5.388,0,0,1,.7,1.3,7.772,7.772,0,0,1,.2,1.6v.6a.749.749,0,0,1-.1.5h-5a2.189,2.189,0,0,0,.8,1.4,2.3,2.3,0,0,0,1.4.4,3.226,3.226,0,0,0,1.8-.6l.8,1.5a6.11,6.11,0,0,1-1.4.7A4.707,4.707,0,0,1,50.6,17.2Zm-1.9-5.3h3a2.133,2.133,0,0,0-.3-1.2,1.246,1.246,0,0,0-1.1-.4,1.284,1.284,0,0,0-1,.4A1.709,1.709,0,0,0,48.7,11.9Z"/><path d="M55.4,17V8.6h2l.2,1.5h.1a3.611,3.611,0,0,1,1.1-1.3,2.2,2.2,0,0,1,1.3-.4h.6c.2,0,.3.1.4.1l-.4,2.2c-.2,0-.3-.1-.4-.1h-.5a2.236,2.236,0,0,0-1,.3c-.4.2-.6.6-.9,1.2V17Z"/><path d="M68.9,17.2a4.013,4.013,0,0,1-1.5-.3,3.805,3.805,0,0,1-1.3-.9,3.39,3.39,0,0,1-.9-1.4,5.412,5.412,0,0,1-.3-1.9,5.822,5.822,0,0,1,.3-1.9,4.194,4.194,0,0,1,.9-1.4,3.805,3.805,0,0,1,1.3-.9,3.9,3.9,0,0,1,3,0,3.805,3.805,0,0,1,1.3.9,3.39,3.39,0,0,1,.9,1.4,6.167,6.167,0,0,1,0,3.8,4.194,4.194,0,0,1-.9,1.4,3.805,3.805,0,0,1-1.3.9A3.339,3.339,0,0,1,68.9,17.2Zm0-2a1.425,1.425,0,0,0,1.2-.6,3.007,3.007,0,0,0,.4-1.8,3.207,3.207,0,0,0-.4-1.8,1.141,1.141,0,0,0-1.2-.6,1.425,1.425,0,0,0-1.2.6,3.007,3.007,0,0,0-.4,1.8,3.207,3.207,0,0,0,.4,1.8A1.218,1.218,0,0,0,68.9,15.2Z"/><path d="M74.9,17V10.5H73.8V8.7l1.1-.1V8.1a5.853,5.853,0,0,1,.2-1.3,3.128,3.128,0,0,1,.5-1,2.552,2.552,0,0,1,1-.7A5.9,5.9,0,0,1,78,4.9,3.083,3.083,0,0,1,79,5a6.372,6.372,0,0,1,.7.2L79.3,7a2.92,2.92,0,0,0-.9-.2.908.908,0,0,0-.7.3,1.222,1.222,0,0,0-.3.9v.5h1.5v2H77.4V17Z"/><path d="M84.6,7.3a1.159,1.159,0,0,1-1-.4,1.086,1.086,0,0,1-.4-.9.975.975,0,0,1,.4-.9,1.777,1.777,0,0,1,1-.4,1.159,1.159,0,0,1,1,.4A.975.975,0,0,1,86,6a.975.975,0,0,1-.4.9A1.053,1.053,0,0,1,84.6,7.3ZM83.4,17V8.6h2.5V17Z"/><path d="M91.2,17.2a4.438,4.438,0,0,1-1.3-.2,2.178,2.178,0,0,1-.9-.7,3.128,3.128,0,0,1-.5-1,5.067,5.067,0,0,1-.2-1.3V10.6H87.1V8.7l1.3-.1.3-2.2h2.1V8.6h2v2h-2V14a1.327,1.327,0,0,0,.3,1,1.135,1.135,0,0,0,.8.3.6.6,0,0,0,.4-.1c.1,0,.3-.1.4-.1l.4,1.8c-.2.1-.5.1-.8.2A4.1,4.1,0,0,1,91.2,17.2Z"/><path d="M97.8,17.2a4.671,4.671,0,0,1-1.7-.3,4.2,4.2,0,0,1-1.4-.9,3.39,3.39,0,0,1-.9-1.4,5.822,5.822,0,0,1-.3-1.9,4.844,4.844,0,0,1,.3-1.8,4.194,4.194,0,0,1,.9-1.4A3.805,3.805,0,0,1,96,8.6a4.013,4.013,0,0,1,1.5-.3,4.146,4.146,0,0,1,1.6.3,4.44,4.44,0,0,1,1.1.8,5.387,5.387,0,0,1,.7,1.3,7.772,7.772,0,0,1,.2,1.6v.6a.749.749,0,0,1-.1.5H96a2.189,2.189,0,0,0,.8,1.4,2.3,2.3,0,0,0,1.4.4,3.226,3.226,0,0,0,1.8-.6l.8,1.5a6.11,6.11,0,0,1-1.4.7A4.707,4.707,0,0,1,97.8,17.2Zm-1.9-5.3h3a2.133,2.133,0,0,0-.3-1.2,1.246,1.246,0,0,0-1.1-.4,1.284,1.284,0,0,0-1,.4A1.709,1.709,0,0,0,95.9,11.9Z"/><path d="M102.6,17V8.6h2l.2,1.1h.1a4.36,4.36,0,0,1,1.1-.9,2.3,2.3,0,0,1,1.4-.4,2.41,2.41,0,0,1,1.5.4,2.189,2.189,0,0,1,.9,1,10.592,10.592,0,0,1,1.2-1,2.41,2.41,0,0,1,1.5-.4,2.263,2.263,0,0,1,2,.9,4.4,4.4,0,0,1,.6,2.5V17h-2.5V12.1a3.918,3.918,0,0,0-.2-1.3.984.984,0,0,0-.8-.3,2.275,2.275,0,0,0-1.4.8V17h-2.5V12.1a3.918,3.918,0,0,0-.2-1.3.984.984,0,0,0-.8-.3,2.275,2.275,0,0,0-1.4.8V17Z"/><path d="M119.5,17.2a5.079,5.079,0,0,1-1.7-.3,5.3,5.3,0,0,1-1.5-.8l1.1-1.6c.4.3.8.5,1.1.7a4.253,4.253,0,0,0,1.1.2,1.549,1.549,0,0,0,.8-.2.55.55,0,0,0,.3-.5.6.6,0,0,0-.1-.4,1.38,1.38,0,0,0-.4-.3,1.072,1.072,0,0,0-.6-.2,1.421,1.421,0,0,0-.6-.2,2.994,2.994,0,0,1-.8-.4,4.233,4.233,0,0,1-.7-.5,1.794,1.794,0,0,1-.5-.7,2.92,2.92,0,0,1-.2-.9A4.253,4.253,0,0,1,117,10a2.7,2.7,0,0,1,.7-.8,3.128,3.128,0,0,1,1-.5,5.067,5.067,0,0,1,1.3-.2,4.671,4.671,0,0,1,1.7.3c.5.2.9.5,1.3.7L121.9,11a4.053,4.053,0,0,0-.9-.5,2.92,2.92,0,0,0-.9-.2c-.6,0-1,.2-1,.7,0,.1,0,.3.1.3a1.38,1.38,0,0,0,.4.3c.2.1.3.2.5.2a1.421,1.421,0,0,0,.6.2c.3.1.5.2.8.3a1.794,1.794,0,0,1,.7.5,1.794,1.794,0,0,1,.5.7,2.959,2.959,0,0,1,.2,1,4.253,4.253,0,0,1-.2,1.1,2.757,2.757,0,0,1-.7.9,10.908,10.908,0,0,1-1.1.6A3.083,3.083,0,0,1,119.5,17.2Z"/><path d="M132.1,17.2a2.016,2.016,0,0,1-1.1-.3,7.633,7.633,0,0,1-1.1-.8h-.1l-.2.9h-2V5.1h2.5V8L130,9.3a4.129,4.129,0,0,1,1.1-.7,2.537,2.537,0,0,1,1.2-.2,3.194,3.194,0,0,1,1.4.3,2.189,2.189,0,0,1,1,.9c.2.4.5.8.7,1.3a4.966,4.966,0,0,1,.2,1.8,5.412,5.412,0,0,1-.3,1.9,4.678,4.678,0,0,1-.8,1.4,3.126,3.126,0,0,1-1.1.9A3.079,3.079,0,0,1,132.1,17.2Zm-.6-2a1.382,1.382,0,0,0,1.1-.6,3.09,3.09,0,0,0,.5-1.9c0-1.5-.5-2.3-1.5-2.3a1.873,1.873,0,0,0-1.4.8v3.5a2.506,2.506,0,0,0,.7.4C131.1,15.1,131.3,15.2,131.5,15.2Z"/><path d="M139.6,17.2a3.6,3.6,0,0,1-1.1-.2,1.344,1.344,0,0,1-.7-.6,2.471,2.471,0,0,1-.4-.9,4.121,4.121,0,0,1-.1-1.2V5.1h2.5v9.4c0,.3,0,.4.1.5s.2.2.3.2h.3l.3,1.9a.749.749,0,0,1-.5.1Z"/><path d="M145.6,17.2a4.013,4.013,0,0,1-1.5-.3,3.805,3.805,0,0,1-1.3-.9,3.39,3.39,0,0,1-.9-1.4,5.412,5.412,0,0,1-.3-1.9,5.822,5.822,0,0,1,.3-1.9,4.2,4.2,0,0,1,.9-1.4,3.805,3.805,0,0,1,1.3-.9,3.9,3.9,0,0,1,3,0,3.805,3.805,0,0,1,1.3.9,3.39,3.39,0,0,1,.9,1.4,6.167,6.167,0,0,1,0,3.8,4.2,4.2,0,0,1-.9,1.4,3.805,3.805,0,0,1-1.3.9A4.013,4.013,0,0,1,145.6,17.2Zm0-2a1.425,1.425,0,0,0,1.2-.6,3.007,3.007,0,0,0,.4-1.8,3.207,3.207,0,0,0-.4-1.8,1.141,1.141,0,0,0-1.2-.6,1.425,1.425,0,0,0-1.2.6,3.007,3.007,0,0,0-.4,1.8,3.207,3.207,0,0,0,.4,1.8A1.218,1.218,0,0,0,145.6,15.2Z"/><path d="M154.9,17.2a4.146,4.146,0,0,1-1.6-.3A3.805,3.805,0,0,1,152,16a3.39,3.39,0,0,1-.9-1.4,5.412,5.412,0,0,1-.3-1.9,4.058,4.058,0,0,1,.4-1.9,4.508,4.508,0,0,1,1-1.4,4.194,4.194,0,0,1,1.4-.9,4.671,4.671,0,0,1,1.7-.3,3.194,3.194,0,0,1,1.4.3,10.909,10.909,0,0,1,1.1.6l-1.2,1.6a2.108,2.108,0,0,0-1.1-.5,1.678,1.678,0,0,0-1.4.6,2.427,2.427,0,0,0-.5,1.8,3.2,3.2,0,0,0,.5,1.8,1.445,1.445,0,0,0,1.4.6,2.354,2.354,0,0,0,.8-.2,4.348,4.348,0,0,0,.7-.4l1,1.6a3.923,3.923,0,0,1-1.4.8A5.257,5.257,0,0,1,154.9,17.2Z"/><path d="M159,17V5.1h2.4v6.8h.1l2.7-3.3h2.7l-3,3.5,3.2,5h-2.7l-1.9-3.3L161.4,15v2Z"/><path d="M171.5,17.2a4.671,4.671,0,0,1-1.7-.3,4.194,4.194,0,0,1-1.4-.9,3.39,3.39,0,0,1-.9-1.4,5.412,5.412,0,0,1-.3-1.9,4.844,4.844,0,0,1,.3-1.8,4.2,4.2,0,0,1,.9-1.4,3.805,3.805,0,0,1,1.3-.9,4.013,4.013,0,0,1,1.5-.3,4.146,4.146,0,0,1,1.6.3,3.134,3.134,0,0,1,1.1.8,5.387,5.387,0,0,1,.7,1.3,7.772,7.772,0,0,1,.2,1.6v.6a.749.749,0,0,1-.1.5h-5a2.189,2.189,0,0,0,.8,1.4,2.3,2.3,0,0,0,1.4.4,3.226,3.226,0,0,0,1.8-.6l.8,1.5a6.109,6.109,0,0,1-1.4.7A3.429,3.429,0,0,1,171.5,17.2Zm-1.9-5.3h3a2.133,2.133,0,0,0-.3-1.2,1.246,1.246,0,0,0-1.1-.4,1.284,1.284,0,0,0-1,.4A1.709,1.709,0,0,0,169.6,11.9Z"/><path d="M179.4,17.2a3.194,3.194,0,0,1-1.4-.3,3.126,3.126,0,0,1-1.1-.9,4.58,4.58,0,0,1-.7-1.4,5.549,5.549,0,0,1-.2-1.9,5.822,5.822,0,0,1,.3-1.9,4.678,4.678,0,0,1,.8-1.4,3.126,3.126,0,0,1,1.1-.9,3.079,3.079,0,0,1,1.3-.3,3.73,3.73,0,0,1,1.2.2l.9.6-.2-1V5.1h2.5V17h-2l-.2-.8h-.1a3.592,3.592,0,0,1-1,.7A2.663,2.663,0,0,1,179.4,17.2Zm.6-2a1.445,1.445,0,0,0,.7-.2,1.7,1.7,0,0,0,.6-.6V10.9a2.506,2.506,0,0,0-.7-.4,1.7,1.7,0,0,0-.7-.1,1.538,1.538,0,0,0-1.1.6,2.969,2.969,0,0,0-.5,1.8,2.82,2.82,0,0,0,.4,1.8A1.936,1.936,0,0,0,180,15.2Z"/></g><path d="M57.2,151.3a4.253,4.253,0,0,1-1.1-.2,4.7,4.7,0,0,1-.9-.6,2.075,2.075,0,0,1-.6-1,3.178,3.178,0,0,1-.2-1.4,5.9,5.9,0,0,1,.2-1.4,4.372,4.372,0,0,1,.6-1,2.361,2.361,0,0,1,.9-.6,3.6,3.6,0,0,1,1.1-.2,4.253,4.253,0,0,1,1.1.2c.4.1.6.4.9.6a2.075,2.075,0,0,1,.6,1,3.178,3.178,0,0,1,.2,1.4,5.9,5.9,0,0,1-.2,1.4,8.8,8.8,0,0,1-.6,1,2.361,2.361,0,0,1-.9.6A4.253,4.253,0,0,1,57.2,151.3Zm0-.5a2.92,2.92,0,0,0,.9-.2,1.344,1.344,0,0,0,.7-.6,3.179,3.179,0,0,0,.5-3.1,4.053,4.053,0,0,0-.5-.9,4.35,4.35,0,0,0-.7-.6,2.125,2.125,0,0,0-1.8,0,1.344,1.344,0,0,0-.7.6,3.6,3.6,0,0,0-.5.9A2.079,2.079,0,0,0,55,148a3.6,3.6,0,0,0,.2,1.1,4.053,4.053,0,0,0,.5.9,4.35,4.35,0,0,0,.7.6A1.884,1.884,0,0,0,57.2,150.8Z"/><path d="M61.8,151.1v-6.2h.5l.1,1h0a7.006,7.006,0,0,1,1-.8,2.133,2.133,0,0,1,1.2-.3,1.557,1.557,0,0,1,1.4.6,2.969,2.969,0,0,1,.5,1.8v4h-.6v-3.9a2.81,2.81,0,0,0-.3-1.5,1.29,1.29,0,0,0-1.1-.5,1.689,1.689,0,0,0-1,.3,7.3,7.3,0,0,0-1,.9v4.7h-.7Z"/><path d="M72.7,151.3a1.949,1.949,0,0,1-.8-.1,1,1,0,0,1-.5-.4l-.3-.6c0-.2-.1-.5-.1-.8v-4H70V145l1-.1.1-1.8h.5v1.8h1.8v.5H71.6V150a.52.52,0,0,0,.2.4l.3.3a.749.749,0,0,0,.5.1.6.6,0,0,0,.4-.1.6.6,0,0,1,.4-.1l.2.5c-.2.1-.4.1-.5.2Z"/><path d="M75,151.1v-9.3h.6v4.1a7.006,7.006,0,0,1,1-.8,2.133,2.133,0,0,1,1.2-.3,1.557,1.557,0,0,1,1.4.6,2.969,2.969,0,0,1,.5,1.8v4H79v-3.9a2.81,2.81,0,0,0-.3-1.5,1.29,1.29,0,0,0-1.1-.5,1.689,1.689,0,0,0-1,.3,7.3,7.3,0,0,0-1,.9v4.7H75Z"/><path d="M82,143.4a.6.6,0,0,1-.4-.1c-.1-.1-.1-.2-.1-.4s0-.3.1-.4.2-.1.4-.1a.6.6,0,0,1,.4.1c.1.1.1.2.1.4,0,.1-.1.3-.1.4C82.3,143.3,82.2,143.4,82,143.4Zm-.3,7.7v-6.2h.6v6.2Z"/><path d="M86.1,151.3a2.768,2.768,0,0,1-1.3-.3,8.792,8.792,0,0,1-1-.6l.3-.4.9.6a1.978,1.978,0,0,0,1.1.2,1.246,1.246,0,0,0,1.1-.4,1.268,1.268,0,0,0,.4-.9.749.749,0,0,0-.1-.5c-.1-.1-.2-.3-.4-.4a2.186,2.186,0,0,0-.5-.3,1.689,1.689,0,0,0-.5-.2c-.2-.1-.5-.2-.7-.3a3.329,3.329,0,0,1-.6-.3c-.2-.1-.3-.3-.5-.5a1.445,1.445,0,0,1-.2-.7,1.268,1.268,0,0,1,.1-.6,1,1,0,0,1,.4-.5c.2-.1.4-.3.6-.4a2.219,2.219,0,0,1,.9-.1,3.553,3.553,0,0,1,1,.2,2.178,2.178,0,0,1,.8.5l-.3.4a1.612,1.612,0,0,0-.7-.4,1.884,1.884,0,0,0-.8-.2c-.2,0-.5,0-.6.1-.2.1-.3.1-.4.3a1.381,1.381,0,0,0-.3.4.6.6,0,0,0-.1.4.9.9,0,0,0,.1.5l.3.3a2.186,2.186,0,0,0,.5.3c.2.1.4.1.5.2.2.1.5.2.7.3a2.507,2.507,0,0,1,.7.4,1.205,1.205,0,0,1,.5.5,1.884,1.884,0,0,1,.2.8,1.7,1.7,0,0,1-.1.7,2.092,2.092,0,0,1-.4.6,1.612,1.612,0,0,1-.7.4C86.7,151.2,86.4,151.3,86.1,151.3Z"/><path d="M92.2,154v-9.1h.5l.1.8h0a8.65,8.65,0,0,1,1-.7,2.279,2.279,0,0,1,1.1-.3,2.2,2.2,0,0,1,1.9.9,3.921,3.921,0,0,1,.6,2.3,5.9,5.9,0,0,1-.2,1.4,2.384,2.384,0,0,1-.6,1.1,5.5,5.5,0,0,1-.9.7,1.8,1.8,0,0,1-1,.2,2.92,2.92,0,0,1-.9-.2,3.744,3.744,0,0,1-1-.6v3.4h-.6Zm2.4-3.2a2.92,2.92,0,0,0,.9-.2,1.344,1.344,0,0,0,.7-.6,3.552,3.552,0,0,0,.4-.9,4.3,4.3,0,0,0,.2-1.2,4.1,4.1,0,0,0-.1-1.1l-.3-.9-.6-.6a2.92,2.92,0,0,0-.9-.2,2.236,2.236,0,0,0-1,.3,3.827,3.827,0,0,0-1.1.8v3.7a3.744,3.744,0,0,0,1,.6A1.6,1.6,0,0,0,94.6,150.8Z"/><path d="M100.3,151.3a1.483,1.483,0,0,1-.7-.1l-.6-.3a1,1,0,0,1-.4-.5,1.949,1.949,0,0,1-.1-.8,1.715,1.715,0,0,1,1-1.6,8.509,8.509,0,0,1,3.1-.8,1.7,1.7,0,0,0-.1-.7c-.1-.2-.1-.5-.2-.6-.1-.2-.3-.3-.5-.5a1.549,1.549,0,0,0-.8-.2,3.6,3.6,0,0,0-1.1.2,5.582,5.582,0,0,0-.8.5l-.3-.4a1.38,1.38,0,0,1,.4-.3c.2-.1.3-.2.5-.3s.4-.1.6-.2a1.7,1.7,0,0,1,.7-.1,2,2,0,0,1,.9.2,1.024,1.024,0,0,1,.6.5,1.136,1.136,0,0,1,.3.8,2.769,2.769,0,0,1,.1.9v4h-.5l-.1-.8h0a6.07,6.07,0,0,1-1,.7A1.053,1.053,0,0,1,100.3,151.3Zm.1-.5a1.689,1.689,0,0,0,1-.3,5.939,5.939,0,0,0,1.1-.8v-2.1c-.6.1-1.2.2-1.6.3a3.582,3.582,0,0,0-1.1.4c-.3.2-.5.3-.6.5a1.445,1.445,0,0,0-.2.7,1.268,1.268,0,0,0,.1.6,1.38,1.38,0,0,0,.3.4.758.758,0,0,0,.4.2C99.9,150.7,100.3,150.8,100.4,150.8Z"/><path d="M107.3,154.1a3.557,3.557,0,0,1-1.9-.5,1.357,1.357,0,0,1-.7-1.3,2.354,2.354,0,0,1,.2-.8,1.575,1.575,0,0,1,.7-.7v-.1a.781.781,0,0,1-.4-.4,1.421,1.421,0,0,1-.2-.6,1.445,1.445,0,0,1,.2-.7l.4-.4v-.1a1.794,1.794,0,0,1-.5-.7,1.645,1.645,0,0,1-.2-1,2.92,2.92,0,0,1,.2-.9,1.794,1.794,0,0,1,.5-.7,4.233,4.233,0,0,1,.7-.5,2.92,2.92,0,0,1,.9-.2h.5c.2,0,.3.1.4.1h2.1v.5h-1.5a1.794,1.794,0,0,1,.5.7,2.125,2.125,0,0,1,0,1.8,1.794,1.794,0,0,1-.5.7,4.233,4.233,0,0,1-.7.5,2.388,2.388,0,0,1-.9.2.749.749,0,0,1-.5-.1.764.764,0,0,1-.5-.2c-.1.1-.3.2-.4.4a.9.9,0,0,0-.1.5,1.421,1.421,0,0,0,.2.6c.2.2.5.2.9.2H108a3.506,3.506,0,0,1,1.6.3c.4.2.5.6.5,1.1a2.354,2.354,0,0,1-.2.8,1.344,1.344,0,0,1-.6.7,4.054,4.054,0,0,1-.9.5A1.431,1.431,0,0,1,107.3,154.1Zm0-.4a2.11,2.11,0,0,0,1.6-.5,1.205,1.205,0,0,0,.5-.5,1.421,1.421,0,0,0,.2-.6.67.67,0,0,0-.4-.7,3.087,3.087,0,0,0-1.1-.2h-1.6a1.087,1.087,0,0,1-.5-.1,1.7,1.7,0,0,0-.6.6,1.854,1.854,0,0,0-.2.7,1.05,1.05,0,0,0,.5.9A2.934,2.934,0,0,0,107.3,153.7Zm-.1-5a1.268,1.268,0,0,0,.6-.1,1,1,0,0,0,.5-.4c.1-.2.3-.3.4-.6a2.5,2.5,0,0,0,0-1.4,2.186,2.186,0,0,0-.3-.5.85.85,0,0,0-.5-.3,1.85,1.85,0,0,0-1.2,0,1.729,1.729,0,0,0-.9.8,1.7,1.7,0,0,0-.1.7,1.483,1.483,0,0,0,.1.7,2.092,2.092,0,0,0,.4.6,1.755,1.755,0,0,0,.5.4A.749.749,0,0,0,107.2,148.7Z"/><path d="M113.7,151.3a3.6,3.6,0,0,1-1.1-.2,2.034,2.034,0,0,1-.9-.6,2.075,2.075,0,0,1-.6-1,3.178,3.178,0,0,1-.2-1.4,5.9,5.9,0,0,1,.2-1.4,4.372,4.372,0,0,1,.6-1,3.114,3.114,0,0,1,.9-.7,1.8,1.8,0,0,1,1-.2,2.5,2.5,0,0,1,1.8.8,3.281,3.281,0,0,1,.6,2.1v.4h-4.5a3.6,3.6,0,0,0,.2,1.1,4.053,4.053,0,0,0,.5.9,2.036,2.036,0,0,0,.7.6,2.958,2.958,0,0,0,1,.2,2.768,2.768,0,0,0,.9-.1,2.994,2.994,0,0,0,.8-.4l.2.4c-.3.1-.5.3-.8.4C114.5,151.2,114.1,151.3,113.7,151.3Zm-2.3-3.7h4a2.969,2.969,0,0,0-.5-1.8,1.612,1.612,0,0,0-1.3-.6,2.354,2.354,0,0,0-.8.2,3.039,3.039,0,0,0-.7.5,2.177,2.177,0,0,0-.5.8A2.92,2.92,0,0,0,111.4,147.6Z"/><path d="M92.1,205.8a.6.6,0,0,1-.4-.1c-.1-.1-.1-.2-.1-.4s0-.3.1-.4.2-.1.4-.1a.6.6,0,0,1,.4.1c.1.1.1.2.1.4,0,.1-.1.3-.1.4A.756.756,0,0,1,92.1,205.8Zm-.3,7.8v-6.2h.6v6.2Z"/><path d="M94.6,213.6v-6.2h.5l.1,1h0a7.006,7.006,0,0,1,1-.8,2.133,2.133,0,0,1,1.2-.3,1.557,1.557,0,0,1,1.4.6,2.969,2.969,0,0,1,.5,1.8v4h-.6v-3.9a2.81,2.81,0,0,0-.3-1.5,1.29,1.29,0,0,0-1.1-.5,1.689,1.689,0,0,0-1,.3,7.3,7.3,0,0,0-1,.9v4.7h-.7Z"/><path d="M105.6,213.7a1.949,1.949,0,0,1-.8-.1,1,1,0,0,1-.5-.4l-.3-.6c0-.2-.1-.5-.1-.8v-4h-1v-.4l1-.1.1-1.8h.5v1.8h1.8v.5h-1.8v4.6a.52.52,0,0,0,.2.4l.3.3a.749.749,0,0,0,.5.1.6.6,0,0,0,.4-.1.6.6,0,0,1,.4-.1l.2.5c-.2.1-.4.1-.5.2Z"/><path d="M110,213.7a4.253,4.253,0,0,1-1.1-.2,4.7,4.7,0,0,1-.9-.6,2.075,2.075,0,0,1-.6-1,3.178,3.178,0,0,1-.2-1.4,5.9,5.9,0,0,1,.2-1.4,4.372,4.372,0,0,1,.6-1,2.361,2.361,0,0,1,.9-.6,3.6,3.6,0,0,1,1.1-.2,4.253,4.253,0,0,1,1.1.2c.4.1.6.4.9.6a2.075,2.075,0,0,1,.6,1,3.178,3.178,0,0,1,.2,1.4,5.9,5.9,0,0,1-.2,1.4,8.8,8.8,0,0,1-.6,1,2.361,2.361,0,0,1-.9.6A5.159,5.159,0,0,1,110,213.7Zm0-.5a2.92,2.92,0,0,0,.9-.2,1.344,1.344,0,0,0,.7-.6,3.179,3.179,0,0,0,.5-3.1,4.053,4.053,0,0,0-.5-.9,4.35,4.35,0,0,0-.7-.6,2.125,2.125,0,0,0-1.8,0,1.344,1.344,0,0,0-.7.6,3.6,3.6,0,0,0-.5.9,2.153,2.153,0,0,0-.2,1.1,3.6,3.6,0,0,0,.2,1.1,4.053,4.053,0,0,0,.5.9,4.35,4.35,0,0,0,.7.6A2.92,2.92,0,0,0,110,213.2Z"/><path d="M116.1,213.7a1.949,1.949,0,0,1-.8-.1,1,1,0,0,1-.5-.4l-.3-.6c0-.2-.1-.5-.1-.8v-4h-1v-.4l1-.1.1-1.8h.5v1.8h1.8v.5H115v4.6a.52.52,0,0,0,.2.4l.3.3a.749.749,0,0,0,.5.1.6.6,0,0,0,.4-.1.6.6,0,0,1,.4-.1l.2.5c-.2.1-.4.1-.5.2Z"/><path d="M119.4,213.7a1.483,1.483,0,0,1-.7-.1l-.6-.3a1,1,0,0,1-.4-.5,1.949,1.949,0,0,1-.1-.8,1.715,1.715,0,0,1,1-1.6,8.509,8.509,0,0,1,3.1-.8,1.7,1.7,0,0,0-.1-.7c-.1-.2-.1-.5-.2-.6-.1-.2-.3-.3-.5-.5a1.549,1.549,0,0,0-.8-.2,3.6,3.6,0,0,0-1.1.2,5.582,5.582,0,0,0-.8.5l-.3-.4a1.38,1.38,0,0,1,.4-.3c.2-.1.3-.2.5-.3s.4-.1.6-.2a1.7,1.7,0,0,1,.7-.1,2,2,0,0,1,.9.2,1.024,1.024,0,0,1,.6.5,1.136,1.136,0,0,1,.3.8,2.769,2.769,0,0,1,.1.9v4h-.5l-.1-.8h0a6.07,6.07,0,0,1-1,.7A1.159,1.159,0,0,1,119.4,213.7Zm.1-.5a1.689,1.689,0,0,0,1-.3,5.939,5.939,0,0,0,1.1-.8V210c-.6.1-1.2.2-1.6.3a3.582,3.582,0,0,0-1.1.4c-.3.2-.5.3-.6.5a1.445,1.445,0,0,0-.2.7,1.268,1.268,0,0,0,.1.6,1.38,1.38,0,0,0,.3.4.758.758,0,0,0,.4.2C119,213.1,119.3,213.2,119.5,213.2Z"/><path d="M125.1,213.7c-.5,0-.8-.3-.8-1v-8.5h.6v8.6a.367.367,0,0,0,.1.3c.1.1.1.1.2.1h.2l.1.5h-.4Z"/><path d="M38.5,151.3a4.31,4.31,0,0,1-1.7-.3,3.6,3.6,0,0,1-1.2-.8l.9-1.2c.3.2.5.4.8.6a1.645,1.645,0,0,0,1,.2,1.493,1.493,0,0,0,1-.3,1.053,1.053,0,0,0,.4-1,.975.975,0,0,0-.4-.9,1.4,1.4,0,0,0-.9-.3h-.3a.367.367,0,0,0-.3.1c-.1,0-.2.1-.3.1-.1.1-.2.1-.3.2l-.9-.5.2-4.2h4.7v1.6h-3L38,146a.756.756,0,0,1,.4-.1h.5a2.959,2.959,0,0,1,1,.2,2.178,2.178,0,0,1,.8.5,5.546,5.546,0,0,1,.6.8,3.6,3.6,0,0,1,.2,1.1,3.73,3.73,0,0,1-.2,1.2,2.178,2.178,0,0,1-.7.9,8.8,8.8,0,0,1-1,.6C39.3,151.2,38.9,151.3,38.5,151.3Z"/><path d="M38.3,213.7a3.194,3.194,0,0,1-1.4-.3,3.591,3.591,0,0,1-1-.7l1-1.1a.918.918,0,0,0,.6.4,1.854,1.854,0,0,0,.7.2c.2,0,.5,0,.6-.1a1,1,0,0,0,.5-.4,2.01,2.01,0,0,0,.4-.8c.1-.3.1-.7.2-1.2-.1.1-.2.3-.4.4a1.38,1.38,0,0,0-.4.3c-.1.1-.3.1-.4.2a.6.6,0,0,1-.4.1,2.959,2.959,0,0,1-1-.2,2.1,2.1,0,0,1-1.3-1.3,3.6,3.6,0,0,1-.2-1.1,5.019,5.019,0,0,1,.2-1.2,2.361,2.361,0,0,1,.6-.9,2.838,2.838,0,0,1,.9-.6,3.6,3.6,0,0,1,1.1-.2,5.02,5.02,0,0,1,1.2.2,3.591,3.591,0,0,1,1,.7,3.991,3.991,0,0,1,.7,1.3,5.04,5.04,0,0,1,.3,1.9,6.014,6.014,0,0,1-.3,2,4.58,4.58,0,0,1-.7,1.4,2.836,2.836,0,0,1-1.1.8A3.4,3.4,0,0,1,38.3,213.7Zm.3-4.6a2.544,2.544,0,0,0,.7-.2,1.7,1.7,0,0,0,.6-.6c-.1-.7-.2-1.1-.5-1.3s-.5-.4-.8-.4a.908.908,0,0,0-.7.3,1.493,1.493,0,0,0-.3,1c0,.4.1.8.3.9A.779.779,0,0,0,38.6,209.1Z"/><path d="M44.1,213.6a11.076,11.076,0,0,1,.2-1.9,10.461,10.461,0,0,1,.4-1.7l.6-1.5a10.141,10.141,0,0,1,1-1.6H42.6v-1.6h5.7v1.2a13.278,13.278,0,0,0-1.2,1.6,7.741,7.741,0,0,0-.7,1.6,4.671,4.671,0,0,0-.3,1.7c-.1.6-.1,1.3-.2,2.1H44.1Z"/><path d="M50.9,213.6a11.076,11.076,0,0,1,.2-1.9,10.461,10.461,0,0,1,.4-1.7l.6-1.5a10.141,10.141,0,0,1,1-1.6H49.4v-1.6h5.7v1.2a13.278,13.278,0,0,0-1.2,1.6,7.741,7.741,0,0,0-.7,1.6,4.671,4.671,0,0,0-.3,1.7c-.1.6-.1,1.3-.2,2.1H50.9Z"/><path d="M56.5,216.1l-.4-1a2.326,2.326,0,0,0,1.1-.7,1.222,1.222,0,0,0,.4-.9h-.1a1.136,1.136,0,0,1-.8-.3,1.234,1.234,0,0,1-.4-.8.909.909,0,0,1,.4-.8,1.136,1.136,0,0,1,.8-.3,1.231,1.231,0,0,1,1,.5,2.5,2.5,0,0,1,.3,1.3,3.292,3.292,0,0,1-.6,1.9A2.687,2.687,0,0,1,56.5,216.1Z"/><path d="M61.4,213.6a11.076,11.076,0,0,1,.2-1.9A10.461,10.461,0,0,1,62,210l.6-1.5a10.141,10.141,0,0,1,1-1.6H59.9v-1.6h5.7v1.2a13.277,13.277,0,0,0-1.2,1.6,7.74,7.74,0,0,0-.7,1.6,4.671,4.671,0,0,0-.3,1.7c-.1.6-.1,1.3-.2,2.1H61.4Z"/><path d="M69.7,213.7a5.02,5.02,0,0,1-1.2-.2,3.591,3.591,0,0,1-1-.7,3.991,3.991,0,0,1-.7-1.3,5.04,5.04,0,0,1-.3-1.9,6.013,6.013,0,0,1,.3-2,4.58,4.58,0,0,1,.7-1.4,2.836,2.836,0,0,1,1.1-.8,2.768,2.768,0,0,1,1.3-.3,3.194,3.194,0,0,1,1.4.3,3.591,3.591,0,0,1,1,.7l-1,1.1a.918.918,0,0,0-.6-.4,2.544,2.544,0,0,0-.7-.2,1.268,1.268,0,0,0-.6.1,1,1,0,0,0-.5.4,2.01,2.01,0,0,0-.4.8,3.73,3.73,0,0,0-.2,1.2c.1-.1.2-.3.4-.4a1.38,1.38,0,0,0,.4-.3c.1-.1.3-.1.4-.2a.6.6,0,0,1,.4-.1,2.959,2.959,0,0,1,1,.2,2.1,2.1,0,0,1,1.3,1.3,3.6,3.6,0,0,1,.2,1.1,5.019,5.019,0,0,1-.2,1.2,1.8,1.8,0,0,1-.6.9,3.49,3.49,0,0,1-.9.6C70.5,213.7,70.1,213.7,69.7,213.7Zm0-1.4a.908.908,0,0,0,.7-.3,1.493,1.493,0,0,0,.3-1c0-.4-.1-.8-.3-.9a1.136,1.136,0,0,0-.8-.3,2.544,2.544,0,0,0-.7.2,1.7,1.7,0,0,0-.6.6,1.884,1.884,0,0,0,.2.8,2.186,2.186,0,0,0,.3.5,1.38,1.38,0,0,0,.4.3A.9.9,0,0,0,69.7,212.3Z"/><path d="M76.5,213.7a5.02,5.02,0,0,1-1.2-.2,3.591,3.591,0,0,1-1-.7,3.991,3.991,0,0,1-.7-1.3,5.04,5.04,0,0,1-.3-1.9,6.013,6.013,0,0,1,.3-2,4.58,4.58,0,0,1,.7-1.4,2.836,2.836,0,0,1,1.1-.8,2.768,2.768,0,0,1,1.3-.3,3.194,3.194,0,0,1,1.4.3,3.591,3.591,0,0,1,1,.7l-1,1.1a.918.918,0,0,0-.6-.4,2.544,2.544,0,0,0-.7-.2,1.268,1.268,0,0,0-.6.1,1,1,0,0,0-.5.4,2.01,2.01,0,0,0-.4.8,3.73,3.73,0,0,0-.2,1.2c.1-.1.2-.3.4-.4a1.38,1.38,0,0,0,.4-.3c.1-.1.3-.1.4-.2a.6.6,0,0,1,.4-.1,2.959,2.959,0,0,1,1,.2,2.1,2.1,0,0,1,1.3,1.3,3.6,3.6,0,0,1,.2,1.1,5.019,5.019,0,0,1-.2,1.2,1.8,1.8,0,0,1-.6.9,3.49,3.49,0,0,1-.9.6A1.314,1.314,0,0,1,76.5,213.7Zm-.1-1.4a.908.908,0,0,0,.7-.3,1.493,1.493,0,0,0,.3-1c0-.4-.1-.8-.3-.9a1.136,1.136,0,0,0-.8-.3,2.544,2.544,0,0,0-.7.2,1.7,1.7,0,0,0-.6.6,1.884,1.884,0,0,0,.2.8,2.186,2.186,0,0,0,.3.5,1.38,1.38,0,0,0,.4.3A1.087,1.087,0,0,0,76.4,212.3Z"/><line x2="347.9" transform="translate(0 305.4)" fill="none" stroke="#e6e6e6" stroke-width="1"/></g><g transform="translate(16.884 17.907)"><path d="M7.2,0,0,7.2v10l7.2,7.2h10l7.2-7.2V7.2L17.2,0Z" fill="#d8d9d9" fill-rule="evenodd"/><path d="M7.2.2l-7,7v10l7,7.1h10l7.1-7.1V7.2L17.2.2H7.2Z" fill="#fff" fill-rule="evenodd"/><path d="M7.7,23.1,1.4,16.6v-9L7.7,1.3h9l6.5,6.3v9l-6.5,6.5Z" fill="#ed1e45" fill-rule="evenodd"/><path d="M6.2,12.8,6,12c-.1-.4-.2-.9-.3-1.3-.1-.5-.2-.9-.3-1.3h0c-.1.4-.2.9-.3,1.3-.1.5-.2.9-.3,1.3l-.2.8Zm.3,1.5H4.3l-.4,2H2.1L4.5,7.8h2l2.3,8.5H7.1Z" fill="#fff" fill-rule="evenodd"/><path d="M12.5,14.8c.9,0,1.3-.4,1.3-1.1a1.136,1.136,0,0,0-.3-.8,1.232,1.232,0,0,0-1-.2h-.9V15h.9Zm-.2-3.5a1.4,1.4,0,0,0,.9-.3.967.967,0,0,0,0-1.4h0a2.92,2.92,0,0,0-.9-.2h-.8v1.9ZM9.8,7.8h2.6a3.75,3.75,0,0,1,1.1.1,6.89,6.89,0,0,1,.8.3l.6.6a3.553,3.553,0,0,1,.2,1,1.268,1.268,0,0,1-.1.6.764.764,0,0,1-.2.5.781.781,0,0,1-.4.4c-.2.1-.3.2-.5.3v.1a2.281,2.281,0,0,1,1.2.6,2.2,2.2,0,0,1,.4,1.3,3.6,3.6,0,0,1-.2,1.1,1.555,1.555,0,0,1-.6.8,3.552,3.552,0,0,1-.9.4,4.1,4.1,0,0,1-1.1.1H9.8Z" fill="#fff" fill-rule="evenodd"/><path d="M19.2,11.9c.9,0,1.3-.4,1.3-1.3a1.4,1.4,0,0,0-.3-.9,1.929,1.929,0,0,0-1-.3h-.9V12ZM16.6,7.8h2.7a3.75,3.75,0,0,1,1.1.1,3.552,3.552,0,0,1,.9.4,1.555,1.555,0,0,1,.6.8,5.853,5.853,0,0,1,.2,1.3,5.067,5.067,0,0,1-.2,1.3l-.6.9a4.053,4.053,0,0,1-.9.5,4.253,4.253,0,0,1-1.1.2h-1v3H16.7V7.8Z" fill="#fff" fill-rule="evenodd"/><path d="M29.1,17.5,32.6,6.4h3L39,17.5H36.3l-.7-2.6H32.2l-.7,2.6Zm4-5.6-.3,1h2.4l-.3-1c-.2-.6-.3-1.1-.5-1.8-.1-.6-.3-1.2-.4-1.8h-.1c-.1.6-.3,1.2-.4,1.8C33.4,10.8,33.2,11.3,33.1,11.9Z"/><path d="M43.4,17.7a3.194,3.194,0,0,1-1.4-.3,3.126,3.126,0,0,1-1.1-.9,4.58,4.58,0,0,1-.7-1.4,5.549,5.549,0,0,1-.2-1.9,5.822,5.822,0,0,1,.3-1.9,4.678,4.678,0,0,1,.8-1.4A3.126,3.126,0,0,1,42.2,9c.3,0,.8-.1,1.2-.1a3.73,3.73,0,0,1,1.2.2l.9.6-.1-1.3V5.6h2.5V17.5h-2l-.2-.8h-.1a3.592,3.592,0,0,1-1,.7A2.663,2.663,0,0,1,43.4,17.7Zm.6-2a1.445,1.445,0,0,0,.7-.2,1.7,1.7,0,0,0,.6-.6V11.4a2.506,2.506,0,0,0-.7-.4,1.7,1.7,0,0,0-.7-.1,1.538,1.538,0,0,0-1.1.6,2.427,2.427,0,0,0-.5,1.8,2.82,2.82,0,0,0,.4,1.8A1.76,1.76,0,0,0,44,15.7Z"/><path d="M54.8,17.7a2.016,2.016,0,0,1-1.1-.3,7.632,7.632,0,0,1-1.1-.8h-.1l-.2.9h-2V5.6h2.5V8.5l-.1,1.3a4.129,4.129,0,0,1,1.1-.7A2.537,2.537,0,0,1,55,8.9a3.194,3.194,0,0,1,1.4.3,2.189,2.189,0,0,1,1,.9c.2.4.5.8.7,1.3a4.966,4.966,0,0,1,.2,1.8,5.412,5.412,0,0,1-.3,1.9,4.678,4.678,0,0,1-.8,1.4,3.126,3.126,0,0,1-1.1.9A2.768,2.768,0,0,1,54.8,17.7Zm-.5-2a1.382,1.382,0,0,0,1.1-.6,3.09,3.09,0,0,0,.5-1.9c0-1.5-.5-2.3-1.5-2.3a1.873,1.873,0,0,0-1.4.8v3.5a2.506,2.506,0,0,0,.7.4C53.8,15.6,54.1,15.7,54.3,15.7Z"/><path d="M62.8,17.7a3.6,3.6,0,0,1-1.1-.2,1.344,1.344,0,0,1-.7-.6,2.471,2.471,0,0,1-.4-.9,4.121,4.121,0,0,1-.1-1.2V5.6H63V15c0,.3,0,.4.1.5s.2.2.3.2h.3l.3,1.9a.749.749,0,0,1-.5.1Z"/><path d="M69.3,17.7a4.013,4.013,0,0,1-1.5-.3,3.805,3.805,0,0,1-1.3-.9,3.39,3.39,0,0,1-.9-1.4,5.412,5.412,0,0,1-.3-1.9,5.822,5.822,0,0,1,.3-1.9,4.194,4.194,0,0,1,.9-1.4A3.805,3.805,0,0,1,67.8,9a3.9,3.9,0,0,1,3,0,3.805,3.805,0,0,1,1.3.9,3.39,3.39,0,0,1,.9,1.4,6.167,6.167,0,0,1,0,3.8,4.194,4.194,0,0,1-.9,1.4,3.805,3.805,0,0,1-1.3.9A3.339,3.339,0,0,1,69.3,17.7Zm0-2a1.425,1.425,0,0,0,1.2-.6,3.007,3.007,0,0,0,.4-1.8,3.207,3.207,0,0,0-.4-1.8,1.141,1.141,0,0,0-1.2-.6,1.425,1.425,0,0,0-1.2.6,3.007,3.007,0,0,0-.4,1.8,3.207,3.207,0,0,0,.4,1.8A1.218,1.218,0,0,0,69.3,15.7Z"/><path d="M79.2,17.7a4.146,4.146,0,0,1-1.6-.3,3.805,3.805,0,0,1-1.3-.9,3.39,3.39,0,0,1-.9-1.4,3.425,3.425,0,0,1-.4-1.8,4.058,4.058,0,0,1,.4-1.9,4.507,4.507,0,0,1,1-1.4,4.2,4.2,0,0,1,1.4-.9,4.671,4.671,0,0,1,1.7-.3,3.194,3.194,0,0,1,1.4.3,10.907,10.907,0,0,1,1.1.6l-1.2,1.6a2.108,2.108,0,0,0-1.1-.5,1.678,1.678,0,0,0-1.4.6,2.427,2.427,0,0,0-.5,1.8,3.2,3.2,0,0,0,.5,1.8,1.445,1.445,0,0,0,1.4.6,2.354,2.354,0,0,0,.8-.2,4.348,4.348,0,0,0,.7-.4l1,1.6a3.924,3.924,0,0,1-1.4.8A4.973,4.973,0,0,1,79.2,17.7Z"/><path d="M83.8,17.5V5.6h2.4v6.8h.1L89,9.1h2.7l-3,3.5,3.2,5H89.2l-1.9-3.3-1.1,1.2v2.1H83.8Z"/><path d="M97.4,17.5V6.4h3.8a8.807,8.807,0,0,1,1.7.2,3.506,3.506,0,0,1,1.4.6,2.445,2.445,0,0,1,.9,1.1,4.31,4.31,0,0,1,.3,1.7,4.671,4.671,0,0,1-.3,1.7,2.73,2.73,0,0,1-.9,1.2,6.109,6.109,0,0,1-1.4.7,8.807,8.807,0,0,1-1.7.2H99.8v3.8H97.4Zm2.5-5.7h1.2c1.4,0,2-.6,2-1.8a1.364,1.364,0,0,0-.5-1.2,3.408,3.408,0,0,0-1.6-.4H99.8v3.4Z"/><path d="M109.9,17.7a3.6,3.6,0,0,1-1.1-.2,1.344,1.344,0,0,1-.7-.6,2.471,2.471,0,0,1-.4-.9,4.121,4.121,0,0,1-.1-1.2V5.6h2.5V15c0,.3,0,.4.1.5s.2.2.3.2h.3l.3,1.9a.749.749,0,0,1-.5.1Z"/><path d="M115.4,17.7a2.263,2.263,0,0,1-2-.9,4.4,4.4,0,0,1-.6-2.5V9.1h2.5V14a2.269,2.269,0,0,0,.3,1.3c.2.3.4.3.8.3a1.884,1.884,0,0,0,.8-.2,4.514,4.514,0,0,0,.7-.7V9.1h2.5v8.4h-2l-.2-1.2H118a5.3,5.3,0,0,1-1.2,1A2.3,2.3,0,0,1,115.4,17.7Z"/><path d="M125.3,17.7a5.079,5.079,0,0,1-1.7-.3,5.3,5.3,0,0,1-1.5-.8l1.1-1.6c.4.3.8.5,1.1.7a4.253,4.253,0,0,0,1.1.2,1.549,1.549,0,0,0,.8-.2.55.55,0,0,0,.3-.5.6.6,0,0,0-.1-.4,1.38,1.38,0,0,0-.4-.3,1.072,1.072,0,0,0-.6-.2,1.421,1.421,0,0,0-.6-.2,2.994,2.994,0,0,1-.8-.4,4.233,4.233,0,0,1-.7-.5,1.794,1.794,0,0,1-.5-.7,2.92,2.92,0,0,1-.2-.9,4.253,4.253,0,0,1,.2-1.1,2.7,2.7,0,0,1,.7-.8,3.128,3.128,0,0,1,1-.5,5.067,5.067,0,0,1,1.3-.2,4.671,4.671,0,0,1,1.7.3c.5.2.9.5,1.3.7l-1.1,1.5a4.053,4.053,0,0,0-.9-.5,2.92,2.92,0,0,0-.9-.2c-.6,0-1,.2-1,.7,0,.1,0,.3.1.3a1.38,1.38,0,0,0,.4.3c.2.1.3.2.5.2a1.421,1.421,0,0,0,.6.2c.3.1.5.2.8.3a1.794,1.794,0,0,1,.7.5,1.794,1.794,0,0,1,.5.7,2.958,2.958,0,0,1,.2,1,4.253,4.253,0,0,1-.2,1.1,2.757,2.757,0,0,1-.7.9,10.908,10.908,0,0,1-1.1.6A3.083,3.083,0,0,1,125.3,17.7Z"/></g><g transform="translate(313.663 20.977)"><path d="M8.2,12.4a3.471,3.471,0,0,0,2.5-1,3.188,3.188,0,0,0,1-2.6,3.541,3.541,0,0,0-1-2.6,3.174,3.174,0,0,0-2.5-1,3.108,3.108,0,0,0-2.5.9,4,4,0,0,0-1,2.6,3.541,3.541,0,0,0,1,2.6A3.25,3.25,0,0,0,8.2,12.4Zm6.2-2.9,1.7,1.4c.2.1.2.3.1.6l-1.7,3.1c-.1.2-.3.2-.5.2L12,14a3.924,3.924,0,0,1-1.4.8L10.2,17c0,.3-.1.4-.3.4H6.4c-.2,0-.3-.1-.3-.4l-.3-2.3a6.376,6.376,0,0,1-1.4-.8l-2,.8a.365.365,0,0,1-.5-.2h0L.2,11.4c-.2,0-.2-.2,0-.5L1.9,9.5V7.9L.2,6.4a.377.377,0,0,1-.1-.6L1.8,2.7c0-.1.2-.2.4-.1l2.1.8a3.924,3.924,0,0,1,1.4-.8L6.1.3A.265.265,0,0,1,6.4,0H9.8c.3,0,.4.1.4.4l.3,2.3a6.376,6.376,0,0,1,1.4.8l2-.8a.365.365,0,0,1,.5.2h0L16.1,6c.1.1.1.3-.1.5L14.3,7.9l.1,1.6Z" fill="#aaa" fill-rule="evenodd"/></g><g transform="translate(16.986 83.395)"><path d="M0,38.9V28.7H1.1v4.2a7.006,7.006,0,0,1,1-.8,3.079,3.079,0,0,1,1.3-.3,1.99,1.99,0,0,1,1.6.7,2.877,2.877,0,0,1,.5,2v4.4H4.4V34.6a3.194,3.194,0,0,0-.3-1.4.951.951,0,0,0-1-.4,1.4,1.4,0,0,0-.9.3,6.47,6.47,0,0,0-.9.8v5Zm10,.2a2.92,2.92,0,0,1-.9-.2,2.651,2.651,0,0,1-.6-.5.908.908,0,0,1-.3-.7,2.769,2.769,0,0,1-.1-.9V32.9h-1V32h1l.1-2h1v1.9h1.9v.9H9.2v3.9a3.553,3.553,0,0,0,.2,1,1.135,1.135,0,0,0,.8.3.6.6,0,0,0,.4-.1c.1,0,.3-.1.4-.1l.2.9c-.1.1-.3.1-.5.2a.844.844,0,0,1-.7.2Zm4.6,0a2.92,2.92,0,0,1-.9-.2,2.651,2.651,0,0,1-.6-.5.908.908,0,0,1-.3-.7,2.769,2.769,0,0,1-.1-.9V32.9h-1V32l1.1-.1.1-1.9h1v1.9h1.8v.9H13.9v3.9a3.553,3.553,0,0,0,.2,1,1.135,1.135,0,0,0,.8.3.6.6,0,0,0,.4-.1c.1,0,.3-.1.4-.1l.2.9c-.2.1-.5.2-.7.3a1.268,1.268,0,0,1-.6.1Zm2.6,2.8V32h1l.1.8h0a3.592,3.592,0,0,1,1-.7,2.663,2.663,0,0,1,1.2-.3,5.019,5.019,0,0,1,1.2.2,1.143,1.143,0,0,1,.8.7,3.7,3.7,0,0,1,.5,1.1,6.753,6.753,0,0,1,.2,1.4,7.719,7.719,0,0,1-.2,1.5l-.6,1.2a5.5,5.5,0,0,1-.9.7,2.153,2.153,0,0,1-1.1.2,2.92,2.92,0,0,1-.9-.2,1.456,1.456,0,0,1-.9-.6v3.6H17.2v.3Zm3-3.8a1.884,1.884,0,0,0,.8-.2c.3-.1.4-.3.6-.5a2.01,2.01,0,0,0,.4-.8,4.1,4.1,0,0,0,.1-1.1,3.4,3.4,0,0,0-.1-1,6.89,6.89,0,0,0-.3-.8,1.024,1.024,0,0,0-.6-.5,2.354,2.354,0,0,0-.8-.2,2.92,2.92,0,0,0-.9.2,5.5,5.5,0,0,0-.9.7v3.7l.9.6A.755.755,0,0,1,20.2,38.1Zm6.8,1a3.194,3.194,0,0,1-1.4-.3,4.129,4.129,0,0,1-1.1-.7l.6-.8.9.6a4.253,4.253,0,0,0,1.1.2,1.689,1.689,0,0,0,1-.3,1.135,1.135,0,0,0,.3-.8.749.749,0,0,0-.1-.5c-.1-.1-.3-.2-.4-.3-.2-.1-.3-.2-.5-.3l-.6-.2c-.2-.1-.5-.2-.7-.3a1.612,1.612,0,0,1-.7-.4l-.5-.5a1.854,1.854,0,0,1-.2-.7,1.884,1.884,0,0,1,.2-.8c.1-.3.3-.4.5-.6a1.612,1.612,0,0,1,.7-.4,3.4,3.4,0,0,1,1-.1,5.019,5.019,0,0,1,1.2.2,2.622,2.622,0,0,1,.9.5l-.5.7a2.507,2.507,0,0,0-.7-.4,2.354,2.354,0,0,0-.8-.2,1.4,1.4,0,0,0-.9.3c-.2,0-.3.3-.3.6,0,.2,0,.3.1.4l.3.3a.764.764,0,0,0,.5.2c.2.1.4.1.6.2s.5.2.7.3a1.612,1.612,0,0,1,.7.4c.2.2.4.3.5.6a2.353,2.353,0,0,1,.2.8,1.884,1.884,0,0,1-.2.8,1.024,1.024,0,0,1-.5.6,2.01,2.01,0,0,1-.8.4A2.22,2.22,0,0,1,27,39.1Zm4.8-5.2a1.421,1.421,0,0,1-.6-.2c-.2-.1-.2-.4-.2-.6a1.445,1.445,0,0,1,.2-.7.735.735,0,0,1,.6-.2,1.421,1.421,0,0,1,.6.2,1.051,1.051,0,0,1,0,1.3,1.072,1.072,0,0,1-.6.2Zm0,5.2a1.421,1.421,0,0,1-.6-.2c-.2-.1-.2-.4-.2-.6a1.445,1.445,0,0,1,.2-.7.735.735,0,0,1,.6-.2,1.421,1.421,0,0,1,.6.2,1.051,1.051,0,0,1,0,1.3A1.072,1.072,0,0,1,31.8,39.1Zm2,2,3.8-12.5h.8L34.6,41.1Zm5,0,3.8-12.5h.8L39.6,41.1Zm8.4-2a5.066,5.066,0,0,1-1.3-.2,3.592,3.592,0,0,1-1-.7,3.965,3.965,0,0,1,0-5.3,3.592,3.592,0,0,1,1-.7A2.153,2.153,0,0,1,47,32a5.019,5.019,0,0,1,1.2.2l.9.6a1.389,1.389,0,0,1,.5,1,5.853,5.853,0,0,1,.2,1.3v.7H45.1a2.413,2.413,0,0,0,.7,1.7,2.271,2.271,0,0,0,1.6.6,2.769,2.769,0,0,0,.9-.1,2.01,2.01,0,0,0,.8-.4l.4.8a4.671,4.671,0,0,1-1,.5A2.745,2.745,0,0,1,47.2,39.1ZM45,34.9h3.7a2.155,2.155,0,0,0-.4-1.6,1.217,1.217,0,0,0-1.2-.5,1.7,1.7,0,0,0-.7.1,2.092,2.092,0,0,0-.6.4,1.612,1.612,0,0,0-.4.7,1.086,1.086,0,0,0-.4.9Zm5.3,4,2.3-3.7-2.1-3.3h1.2l.9,1.5.3.6.3.6h.1l.3-.6.3-.6.8-1.5h1.4l-2,3.5,2.3,3.5H55.2l-1-1.6-.4-.6a2.092,2.092,0,0,0-.4-.6h-.1a2.092,2.092,0,0,1-.4.6l-.3.6-.9,1.6Zm8.9.2a2.389,2.389,0,0,1-1.4-.5,1.64,1.64,0,0,1-.6-1.4,1.936,1.936,0,0,1,1-1.7,7.308,7.308,0,0,1,3.3-.8,1.268,1.268,0,0,0-.1-.6.764.764,0,0,0-.2-.5.781.781,0,0,0-.4-.4,1.135,1.135,0,0,0-.8-.3,3.6,3.6,0,0,0-1.1.2,2.622,2.622,0,0,0-.9.5l-.4-.8a6.721,6.721,0,0,1,1.2-.6,4.013,4.013,0,0,1,1.5-.3,2.342,2.342,0,0,1,1.8.8,3.606,3.606,0,0,1,.6,2V39h-1l-.1-.8h0a6.071,6.071,0,0,1-1,.7,5.9,5.9,0,0,1-1.4.2Zm.4-1a2.92,2.92,0,0,0,.9-.2,5.5,5.5,0,0,0,.9-.7V35.3c-.6.1-1,.2-1.4.3a2.471,2.471,0,0,0-.9.4,1.205,1.205,0,0,0-.5.5,1.421,1.421,0,0,0-.2.6c0,.4.1.7.4.8a1.884,1.884,0,0,0,.8.2Zm5.2.8v-7h1l.1,1h0a3.915,3.915,0,0,1,1-.8,2.016,2.016,0,0,1,1.1-.3,2.375,2.375,0,0,1,1.2.3,2.286,2.286,0,0,1,.7,1,3.126,3.126,0,0,1,1.1-.9,2.843,2.843,0,0,1,1.2-.4,1.99,1.99,0,0,1,1.6.7,2.877,2.877,0,0,1,.5,2v4.3H73.2V34.5a3.194,3.194,0,0,0-.3-1.4.951.951,0,0,0-1-.4,2.264,2.264,0,0,0-1.7,1.1v5H69.1V34.5a3.194,3.194,0,0,0-.3-1.4.951.951,0,0,0-1-.4,2.264,2.264,0,0,0-1.7,1.1v5Zm11.8,3V32h1l.1.8h0a3.592,3.592,0,0,1,1-.7,2.663,2.663,0,0,1,1.2-.3,5.019,5.019,0,0,1,1.2.2,1.143,1.143,0,0,1,.8.7,3.7,3.7,0,0,1,.5,1.1,6.753,6.753,0,0,1,.2,1.4,7.719,7.719,0,0,1-.2,1.5l-.6,1.2a5.5,5.5,0,0,1-.9.7,4.253,4.253,0,0,1-1.1.2,2.92,2.92,0,0,1-.9-.2A1.456,1.456,0,0,1,78,38v3.6H76.6v.3Zm3-3.8a1.884,1.884,0,0,0,.8-.2c.3-.1.4-.3.6-.5a2.01,2.01,0,0,0,.4-.8,4.1,4.1,0,0,0,.1-1.1,3.4,3.4,0,0,0-.1-1,6.889,6.889,0,0,0-.3-.8,1.024,1.024,0,0,0-.6-.5c-.3-.1-.5-.3-.8-.3a2.92,2.92,0,0,0-.9.2,5.5,5.5,0,0,0-.9.7v3.7l.9.6A2.152,2.152,0,0,1,79.6,38.1Zm6.3,1c-.4,0-.8-.1-.9-.4a2.016,2.016,0,0,1-.3-1.1V28.7h1.2v8.9c0,.2,0,.3.1.4s.1.1.2.1h.2l.2.9c-.1,0-.2.1-.3.1Zm5.2,0a5.066,5.066,0,0,1-1.3-.2,1.834,1.834,0,0,1-1-.7,3.965,3.965,0,0,1,0-5.3,3.592,3.592,0,0,1,1-.7,2.153,2.153,0,0,1,1.1-.2,5.019,5.019,0,0,1,1.2.2l.9.6a1.389,1.389,0,0,1,.5,1,5.853,5.853,0,0,1,.2,1.3v.7H88.9a2.413,2.413,0,0,0,.7,1.7,2.271,2.271,0,0,0,1.6.6,2.769,2.769,0,0,0,.9-.1,2.01,2.01,0,0,0,.8-.4l.4.8a4.671,4.671,0,0,1-1,.5A3.729,3.729,0,0,1,91.1,39.1Zm-2.2-4.2h3.7a2.155,2.155,0,0,0-.4-1.6,1.217,1.217,0,0,0-1.2-.5,1.7,1.7,0,0,0-.7.1,2.092,2.092,0,0,0-.6.4,1.612,1.612,0,0,0-.4.7,2.471,2.471,0,0,0-.4.9Zm8.9,4.2a2.723,2.723,0,0,1-2.1-.9,3.768,3.768,0,0,1-.8-2.7,7.719,7.719,0,0,1,.2-1.5,4.129,4.129,0,0,1,.7-1.1,5.5,5.5,0,0,1,.9-.7,2.016,2.016,0,0,1,1.1-.3,3.553,3.553,0,0,1,1,.2,1.456,1.456,0,0,1,.9.6l-.1-1.2V28.7h1.2V38.9h-1l-.1-.8h0a5.5,5.5,0,0,1-.9.7,1.689,1.689,0,0,1-1,.3Zm.2-1a2.92,2.92,0,0,0,.9-.2,2.7,2.7,0,0,0,.8-.7V33.5c-.3-.3-.6-.4-.8-.6a2.2,2.2,0,0,0-.8-.1,1.884,1.884,0,0,0-.8.2,2.651,2.651,0,0,0-.6.5,2.01,2.01,0,0,0-.4.8,4.253,4.253,0,0,0-.2,1.1,3.83,3.83,0,0,0,.5,1.9,1.723,1.723,0,0,0,1.4.8Zm8,1a5.019,5.019,0,0,1-1.2-.2,3.592,3.592,0,0,1-1-.7,3.965,3.965,0,0,1,0-5.3,3.592,3.592,0,0,1,1-.7A2.537,2.537,0,0,1,106,32a5.019,5.019,0,0,1,1.2.2,3.592,3.592,0,0,1,1,.7,3.965,3.965,0,0,1,0,5.3,3.592,3.592,0,0,1-1,.7,5.019,5.019,0,0,1-1.2.2Zm0-1a1.884,1.884,0,0,0,.8-.2,1.47,1.47,0,0,0,.6-.5,2.994,2.994,0,0,0,.4-.8,4.1,4.1,0,0,0,.1-1.1,3.75,3.75,0,0,0-.1-1.1,2.01,2.01,0,0,0-.4-.8,2.651,2.651,0,0,0-.6-.5,1.535,1.535,0,0,0-1.6,0,1.47,1.47,0,0,0-.6.5,2.01,2.01,0,0,0-.4.8,4.1,4.1,0,0,0-.1,1.1,3.75,3.75,0,0,0,.1,1.1,2.01,2.01,0,0,0,.4.8,2.651,2.651,0,0,0,.6.5c.2.1.5.1.8.2Zm5.1.8v-7h1l.1,1h0a3.915,3.915,0,0,1,1-.8,2.016,2.016,0,0,1,1.1-.3,2.375,2.375,0,0,1,1.2.3,2.286,2.286,0,0,1,.7,1,3.126,3.126,0,0,1,1.1-.9,2.843,2.843,0,0,1,1.2-.4,1.99,1.99,0,0,1,1.6.7,2.877,2.877,0,0,1,.5,2v4.3h-1.1V34.5a3.194,3.194,0,0,0-.3-1.4.951.951,0,0,0-1-.4,2.264,2.264,0,0,0-1.7,1.1v5h-1.1V34.5a3.194,3.194,0,0,0-.3-1.4.951.951,0,0,0-1-.4,2.264,2.264,0,0,0-1.7,1.1v5Zm13.5.2a2.389,2.389,0,0,1-1.4-.5,1.64,1.64,0,0,1-.6-1.4,1.936,1.936,0,0,1,1-1.7,7.308,7.308,0,0,1,3.3-.8,1.268,1.268,0,0,0-.1-.6.764.764,0,0,0-.2-.5.781.781,0,0,0-.4-.4,1.7,1.7,0,0,0-.7-.1,3.6,3.6,0,0,0-1.1.2,2.622,2.622,0,0,0-.9.5l-.4-.8a6.721,6.721,0,0,1,1.2-.6,4.013,4.013,0,0,1,1.5-.3,2.342,2.342,0,0,1,1.8.8,3.606,3.606,0,0,1,.6,2V39h-1l-.1-.8h0a6.071,6.071,0,0,1-1,.7,7.72,7.72,0,0,1-1.5.2Zm.3-1a2.92,2.92,0,0,0,.9-.2,5.5,5.5,0,0,0,.9-.7V35.3c-.6.1-1,.2-1.4.3a2.471,2.471,0,0,0-.9.4,1.205,1.205,0,0,0-.5.5,1.421,1.421,0,0,0-.2.6c0,.4.1.7.3.8a2.92,2.92,0,0,0,.9.2Zm5.4.8v-7h1.1v7Zm.5-8.4a1.421,1.421,0,0,1-.6-.2c-.2-.1-.2-.3-.2-.5a.764.764,0,0,1,.2-.5,1,1,0,0,1,1.2,0c.2.1.2.3.2.5a.764.764,0,0,1-.2.5,1.421,1.421,0,0,1-.6.2Zm2.9,8.4v-7h1l.1,1h0a7.006,7.006,0,0,1,1-.8,3.079,3.079,0,0,1,1.3-.3,1.99,1.99,0,0,1,1.6.7,2.877,2.877,0,0,1,.5,2v4.3h-1.1V34.5a3.194,3.194,0,0,0-.3-1.4.951.951,0,0,0-1-.4,1.4,1.4,0,0,0-.9.3,2.361,2.361,0,0,0-.9.8v5Zm8.5.2a1.421,1.421,0,0,1-.6-.2c-.2-.1-.2-.4-.2-.6a1.445,1.445,0,0,1,.2-.7.735.735,0,0,1,.6-.2,1.421,1.421,0,0,1,.6.2,1.051,1.051,0,0,1,0,1.3,1.072,1.072,0,0,1-.6.2Zm5.6,0a5.853,5.853,0,0,1-1.3-.2,3.592,3.592,0,0,1-1-.7,4.129,4.129,0,0,1-.7-1.1,3.887,3.887,0,0,1-.2-1.5,3.653,3.653,0,0,1,.3-1.5,4.129,4.129,0,0,1,.7-1.1,3.592,3.592,0,0,1,1-.7,2.953,2.953,0,0,1,1.3-.2,3.6,3.6,0,0,1,1.1.2,2.407,2.407,0,0,1,.8.6l-.6.8a2.092,2.092,0,0,0-.6-.4,1.854,1.854,0,0,0-.7-.2,2.92,2.92,0,0,0-.9.2,1.794,1.794,0,0,0-.7.5,2.01,2.01,0,0,0-.4.8,4.253,4.253,0,0,0-.2,1.1,3.6,3.6,0,0,0,.2,1.1,2.01,2.01,0,0,0,.4.8,1.794,1.794,0,0,0,.7.5,2.125,2.125,0,0,0,1.8,0,1.794,1.794,0,0,0,.7-.5l.5.8a2.075,2.075,0,0,1-1,.6c-.4,0-.8.1-1.2.1Zm6.1,0a5.019,5.019,0,0,1-1.2-.2,1.834,1.834,0,0,1-1-.7,3.965,3.965,0,0,1,0-5.3,3.592,3.592,0,0,1,1-.7,2.537,2.537,0,0,1,1.2-.2,5.019,5.019,0,0,1,1.2.2,3.592,3.592,0,0,1,1,.7,3.965,3.965,0,0,1,0,5.3,3.592,3.592,0,0,1-1,.7,5.019,5.019,0,0,1-1.2.2Zm0-1a1.884,1.884,0,0,0,.8-.2,1.47,1.47,0,0,0,.6-.5,2.994,2.994,0,0,0,.4-.8,4.1,4.1,0,0,0,.1-1.1,3.749,3.749,0,0,0-.1-1.1,2.01,2.01,0,0,0-.4-.8,2.651,2.651,0,0,0-.6-.5,1.535,1.535,0,0,0-1.6,0,1.47,1.47,0,0,0-.6.5,2.01,2.01,0,0,0-.4.8,4.1,4.1,0,0,0-.1,1.1,3.749,3.749,0,0,0,.1,1.1,2.01,2.01,0,0,0,.4.8,2.651,2.651,0,0,0,.6.5,1.884,1.884,0,0,0,.8.2Zm5.1.8v-7h1l.1,1h0a3.916,3.916,0,0,1,1-.8,2.016,2.016,0,0,1,1.1-.3,2.375,2.375,0,0,1,1.2.3,2.286,2.286,0,0,1,.7,1,3.126,3.126,0,0,1,1.1-.9,2.843,2.843,0,0,1,1.2-.4,1.99,1.99,0,0,1,1.6.7,2.877,2.877,0,0,1,.5,2v4.3h-1.1V34.5a3.194,3.194,0,0,0-.3-1.4.951.951,0,0,0-1-.4,2.264,2.264,0,0,0-1.7,1.1v5h-1.1V34.5a3.194,3.194,0,0,0-.3-1.4.951.951,0,0,0-1-.4,2.264,2.264,0,0,0-1.7,1.1v5Z" fill="#585858"/><g transform="translate(248.549)"><path d="M4.6,12.3H42.5a4.588,4.588,0,0,1,4.6,4.6h0a4.588,4.588,0,0,1-4.6,4.6H4.6A4.588,4.588,0,0,1,0,16.9H0a4.526,4.526,0,0,1,4.6-4.6Z" fill="#e4e4e4" fill-rule="evenodd"/><g transform="translate(23.535)"><circle cx="16.4" cy="16.4" r="16.4" transform="translate(0 0)" fill="#0797e1"/></g><g transform="translate(31.721 8.186)"><path d="M4.4,2.1h0a.948.948,0,0,1-.2,1.3A6.945,6.945,0,0,0,2,8.2a6.15,6.15,0,0,0,12.3,0,6.06,6.06,0,0,0-2.1-4.6A.948.948,0,0,1,12,2.3h0a1.794,1.794,0,0,1,.7-.5,1.077,1.077,0,0,1,.8.2,8.14,8.14,0,0,1,2.9,6.2A8.2,8.2,0,0,1,0,8.2,7.822,7.822,0,0,1,2.9,2a.778.778,0,0,1,.8-.2A.908.908,0,0,1,4.4,2.1ZM9.2,1V9.2a.987.987,0,0,1-.9,1H8.2a.987.987,0,0,1-1-.9V1a.987.987,0,0,1,.9-1h.1a.987.987,0,0,1,1,.9Z" fill="#fff" fill-rule="evenodd"/></g></g></g><line x2="347.9" transform="translate(0.5 60.9)" fill="none" stroke="#e6e6e6" stroke-width="1"/><line x2="347.9" transform="translate(0.5 152)" fill="none" stroke="#e6e6e6" stroke-width="1"/></g></g></g></g><g transform="translate(1382.646 469)"><path d="M500.073,208.686V325.652A18.246,18.246,0,0,1,481.8,343.889H232.39a18.246,18.246,0,0,1-18.273-18.236V208.686A18.246,18.246,0,0,1,232.39,190.45H481.8A18.246,18.246,0,0,1,500.073,208.686Z" transform="translate(-214.117 -190.45)" fill="#fff"/><path d="M500.073,208.686v10.123H214.117V208.686A18.246,18.246,0,0,1,232.39,190.45H481.8A18.246,18.246,0,0,1,500.073,208.686Z" transform="translate(-214.117 -190.45)" fill="#d6d6d6"/><g transform="translate(12.286 11.697)"><circle cx="3.832" cy="3.832" r="3.832" transform="translate(0 0)" fill="#ed1f45"/><path d="M228.57,197.157a3.831,3.831,0,1,1-3.831-3.831A3.831,3.831,0,0,1,228.57,197.157Z" transform="translate(-205.575 -193.326)" fill="#ffc400"/><path d="M232.341,197.157a3.831,3.831,0,1,1-3.831-3.831A3.833,3.833,0,0,1,232.341,197.157Z" transform="translate(-194.009 -193.326)" fill="#0aad03"/></g><path d="M.834,0H102.368a.834.834,0,0,1,.834.834V56.42a.834.834,0,0,1-.834.834H.835A.835.835,0,0,1,0,56.42V.834A.834.834,0,0,1,.834,0Z" transform="translate(35.474 45.314)" fill="#0aad03"/><g transform="translate(35.475 119.412)"><path d="M432.863,226.9H225.814a4,4,0,0,1-3.964-4.034h0a4,4,0,0,1,3.964-4.034H432.863a4,4,0,0,1,3.964,4.034h0A4,4,0,0,1,432.863,226.9Z" transform="translate(-221.85 -218.828)" fill="#cfcfcf"/></g><g transform="translate(156.354 94.939)"><path d="M333.554,219.408H245.041c-1.542,0-2.791-1.81-2.791-4.039h0c0-2.229,1.249-4.034,2.791-4.034h88.514c1.542,0,2.794,1.806,2.794,4.034h0C336.348,217.6,335.1,219.408,333.554,219.408Z" transform="translate(-242.25 -211.335)" fill="#cfcfcf"/></g><g transform="translate(156.354 70.303)"><path d="M332,212.367H246.6a4.2,4.2,0,0,1-4.347-4.034h0a4.2,4.2,0,0,1,4.347-4.038H332a4.2,4.2,0,0,1,4.347,4.038h0A4.2,4.2,0,0,1,332,212.367Z" transform="translate(-242.25 -204.294)" fill="#cfcfcf"/></g><g transform="translate(156.354 45.303)"><path d="M332,212.367H246.6a4.2,4.2,0,0,1-4.347-4.034h0a4.2,4.2,0,0,1,4.347-4.038H332a4.2,4.2,0,0,1,4.347,4.038h0A4.2,4.2,0,0,1,332,212.367Z" transform="translate(-242.25 -204.294)" fill="#cfcfcf"/></g></g><g transform="translate(1348.503 364.657)"><path d="M5,0H190a5,5,0,0,1,5,5V127.07a0,0,0,0,1,0,0H0a0,0,0,0,1,0,0V5A5,5,0,0,1,5,0Z" transform="translate(229.497 83.07) rotate(180)" fill="#fff"/><g transform="translate(24.981 17.697)"><g transform="translate(11 3.149)"><path d="M402.235,228.034h81.856a3.419,3.419,0,0,0,3.416-3.42h0a3.416,3.416,0,0,0-3.416-3.416H402.235a3.416,3.416,0,0,0-3.416,3.416h0A3.419,3.419,0,0,0,402.235,228.034Z" transform="translate(-371.481 -186.652)" fill="#cfcfcf"/><path d="M402.235,228.034h81.856a3.419,3.419,0,0,0,3.416-3.42h0a3.416,3.416,0,0,0-3.416-3.416H402.235a3.416,3.416,0,0,0-3.416,3.416h0A3.419,3.419,0,0,0,402.235,228.034Z" transform="translate(-371.481 -221.652)" fill="#cfcfcf"/><path d="M402.235,228.034h81.856a3.419,3.419,0,0,0,3.416-3.42h0a3.416,3.416,0,0,0-3.416-3.416H402.235a3.416,3.416,0,0,0-3.416,3.416h0A3.419,3.419,0,0,0,402.235,228.034Z" transform="translate(-371.481 -239.652)" fill="#cfcfcf"/><path d="M402.235,228.034h81.856a3.419,3.419,0,0,0,3.416-3.42h0a3.416,3.416,0,0,0-3.416-3.416H402.235a3.416,3.416,0,0,0-3.416,3.416h0A3.419,3.419,0,0,0,402.235,228.034Z" transform="translate(-371.481 -257.652)" fill="#cfcfcf"/><path d="M402.235,228.034h81.856a3.419,3.419,0,0,0,3.416-3.42h0a3.416,3.416,0,0,0-3.416-3.416H402.235a3.416,3.416,0,0,0-3.416,3.416h0A3.419,3.419,0,0,0,402.235,228.034Z" transform="translate(-371.481 -204.652)" fill="#cfcfcf"/></g><path d="M.834,0H42.368A.834.834,0,0,1,43.2.834V76.42a.834.834,0,0,1-.834.834H.835A.835.835,0,0,1,0,76.42V.834A.834.834,0,0,1,.834,0Z" transform="translate(136.636 -33.04)" fill="#0aad03"/></g><path d="M0,0H195a0,0,0,0,1,0,0V45.984a3.086,3.086,0,0,1-3.086,3.086H3.086A3.086,3.086,0,0,1,0,45.984V0A0,0,0,0,1,0,0Z" transform="translate(229.497 -43.93) rotate(180)" fill="#b4b4b4"/><path d="M3.09,0H31.91A3.09,3.09,0,0,1,35,3.09V31.914A3.086,3.086,0,0,1,31.914,35H3.086A3.086,3.086,0,0,1,0,31.914V3.09A3.09,3.09,0,0,1,3.09,0Z" transform="translate(98.497 -30.93) rotate(180)" fill="#818181"/></g></g></svg>