<svg xmlns="http://www.w3.org/2000/svg" width="24" height="30" fill="none" xmlns:v="https://vecta.io/nano"><path fill-rule="evenodd" d="M4.8 22.5c0 .6875.54 1.25 1.2 1.25h1.2v4.375C7.2 29.1625 8.004 30 9 30s1.8-.8375 1.8-1.875V23.75h2.4v4.375c0 1.0375.804 1.875 1.8 1.875s1.8-.8375 1.8-1.875V23.75H18c.66 0 1.2-.5625 1.2-1.25V10H4.8v12.5zM1.8 10c-.996 0-1.8.8375-1.8 1.875v8.75C0 21.6625.804 22.5 1.8 22.5s1.8-.8375 1.8-1.875v-8.75C3.6 10.8375 2.796 10 1.8 10zm20.4 0c-.996 0-1.8.8375-1.8 1.875v8.75c0 1.0375.804 1.875 1.8 1.875s1.8-.8375 1.8-1.875v-8.75C24 10.8375 23.196 10 22.2 10zm-5.964-7.3l1.56-1.625c.24-.25.24-.6375 0-.8875s-.612-.25-.852 0l-1.776 1.85C14.22 1.5375 13.14 1.25 12 1.25c-1.152 0-2.232.2875-3.192.7875L7.02.1875c-.24-.25-.612-.25-.852 0s-.24.6375 0 .8875L7.74 2.7125C5.964 4.075 4.8 6.2625 4.8 8.75h14.4c0-2.4875-1.164-4.6875-2.964-6.05zM9.6 6.25H8.4V5h1.2v1.25zm6 0h-1.2V5h1.2v1.25z" fill="#585858"/></svg>