<svg xmlns="http://www.w3.org/2000/svg" width="25" height="30" fill="none" xmlns:v="https://vecta.io/nano"><path fill-rule="evenodd" d="M17.9278 0c-1.4875.0616667-3.2891.9875-4.3558 2.23167-.9583 1.105-1.7958 2.86833-1.57 4.55916 1.66.13 3.3525-.84 4.3858-2.085s1.73-2.9775 1.54-4.70583zm-.42 29.4267c2.015-.0375 3.2909-1.8225 4.525-3.6192h-.0008c1.3551-1.9714 1.9518-3.8827 2.0387-4.1612l.0096-.0305-.0063-.0025c-.1804-.0727-3.9252-1.5807-3.962-5.9558-.0362-3.6054 2.8498-5.399 3.168-5.5968l.0237-.0149c-1.7375-2.5308-4.4425-2.87747-5.4067-2.91747-1.408-.14217-2.7743.39406-3.8905.83215-.7091.27831-1.3173.51702-1.7712.51702-.5053 0-1.1303-.24716-1.8318-.52453-.9181-.36302-1.9671-.77781-3.04984-.75797-2.50833.03667-4.82333 1.45417-6.115 3.6933-2.60833 4.5092-.669163 11.1917 1.8725 14.8475 1.24417 1.7884 2.72334 3.8009 4.66834 3.7284.8686-.0348 1.48687-.297 2.12624-.5681.73896-.3133 1.50606-.6386 2.72046-.6386 1.1563 0 1.8877.3152 2.5913.6184.6731.29 1.3207.5691 2.2903.5508z" fill="#585858"/></svg>