<svg width="20" height="20" viewBox="0 0 20 20" fill="none" xmlns="http://www.w3.org/2000/svg">
<path d="M10 20C15.5228 20 20 15.5228 20 10C20 4.47715 15.5228 0 10 0C4.47715 0 0 4.47715 0 10C0 15.5228 4.47715 20 10 20Z" fill="#0797E1"/>
<path d="M14.6095 6.25813C14.9402 5.89993 15.4618 5.91657 15.7746 6.29529C16.0874 6.67401 16.0729 7.27141 15.7421 7.62961L9.53686 14.3508C9.20373 14.7116 8.67749 14.6917 8.36588 14.3065L5.21957 10.4169C4.91023 10.0345 4.93017 9.4373 5.2641 9.08305C5.59803 8.7288 6.1195 8.75163 6.42883 9.13404L9.00921 12.324L14.6095 6.25813Z" fill="white"/>
</svg>
