<svg xmlns="http://www.w3.org/2000/svg" viewBox="0 0 60 59.091"><defs><style>.a{fill:#7d7d7d;}.b{fill:#fff;}</style></defs><g transform="translate(0 -3.813)"><path class="a" d="M21.412,38.219a11.823,11.823,0,0,0,1.82,5.567,12.36,12.36,0,0,0,4.5,4.6A11.666,11.666,0,0,0,34.044,50.1a11.925,11.925,0,0,0,6.316-1.713,13.865,13.865,0,0,0,4.5-4.818H59.845a27.654,27.654,0,0,1-10.063,13.6,27.18,27.18,0,0,1-16.059,5.246A27.942,27.942,0,0,1,21.2,59.524q-13.168,6.424-18.949.642C.642,58.881,0,56.74,0,53.849a31.175,31.175,0,0,1,1.713-9.742A56.02,56.02,0,0,1,7.387,32.224c2.034-3.426,3.533-6.1,9.314-11.669,2.141-2.141,3.1-3.212,3.64-3.747A83.289,83.289,0,0,0,3.212,28.584C6.423,20.662,10.92,16.593,16.38,13.168c5.888-3.533,10.706-5.888,17.129-5.888a13.655,13.655,0,0,1,2.034.107A38.814,38.814,0,0,1,48.39,3.853c3.854-.214,6.531.428,8.136,1.927,3.212,3.212,3.426,8.35.856,15.309,2.462,4.282,2.569,9.1,2.569,14.025a32.065,32.065,0,0,1,0,3.212H21.412Z"/><g transform="translate(3.785 7.631)"><path class="b" d="M45.1,354.2c-5.567-3.426-7.494-6.209-9.742-12.312-3.747,7.28-4.818,10.6-2.034,13.382,2.462,2.462,5.353,1.82,11.776-1.071" transform="translate(-31.753 -305.414)"/><path class="b" d="M203.994,150.491a11.155,11.155,0,0,0-11.455-10.706,10.8,10.8,0,0,0-7.922,3,11.926,11.926,0,0,0-4.068,7.708Z" transform="translate(-162.814 -127.397)"/><path class="b" d="M366.484,37.418c5.139,2.569,6,3,9.849,7.6,1.285-3.533,1.5-4.5.964-5.567a6.081,6.081,0,0,0-2.783-2.891c-1.927-1.07-3.212-1.07-8.029.857" transform="translate(-326.589 -35.842)"/></g></g></svg>