<svg width="560px" height="416px" viewBox="0 0 560 416" xmlns="http://www.w3.org/2000/svg">
  <defs>
    <linearGradient x1="50%" y1="0" x2="50%" y2="100%" id="gradient-1">
      <stop stop-color="#BFFFBE" offset="0"></stop>
      <stop stop-color="#B8F7FF" offset="100%"></stop>
    </linearGradient>
    <linearGradient x1="94.7949751%" y1="52.129837%" x2="26.3921529%" y2="63.7188209%" id="gradient-2">
      <stop stop-color="#FFF" offset="0"></stop>
      <stop stop-color="#FFF" stop-opacity="0" offset="100%"></stop>
    </linearGradient>
  </defs>
  <g stroke="none" stroke-width="1" fill="none" fill-rule="evenodd">
    <g transform="translate(-136, -866)">
      <g transform="translate(140, 870)">
        <g transform="translate(412.999993, 100.799998)">
          <circle stroke="#FFF" stroke-width="5.5999999" fill="#EBEBEB" cx="69.9999988" cy="69.9999988" r="69.9999988"></circle>
          <text font-family="AppleColorEmoji, Apple Color Emoji" font-size="58.799999" font-weight="normal" letter-spacing="-0.840000436" fill="#5A5A5A">
            <tspan x="40.5999993" y="91.1999995">👍</tspan>
          </text>
        </g>
        <g transform="translate(198.799997, 88.199998)">
          <circle stroke="#FFF" stroke-width="5.5999999" fill="#0FD40A" cx="113.399998" cy="113.399998" r="113.399998"></circle>
          <g transform="translate(86.799999, 58.799999)">
            <path d="M43.3999993,10.4999998 C48.4257904,10.4999998 52.4999991,14.5742085 52.4999991,19.5999997 L52.4999991,19.5999997 L52.4999991,102.199998 C52.4999991,107.225789 48.4257904,111.299998 43.3999993,111.299998 L43.3999993,111.299998 L9.79999983,111.299998 C4.7742087,111.299998 0.699999988,107.225789 0.699999988,102.199998 L0.699999988,102.199998 L0.699999988,19.5999997 C0.699999988,14.5742085 4.7742087,10.4999998 9.79999983,10.4999998 L9.79999983,10.4999998 Z M43.3999999,14.6999997 L9.79999983,14.6999997 C7.09380461,14.6999997 4.89999992,16.8938044 4.89999992,19.5999997 L4.89999992,19.5999997 L4.89999992,102.2 C4.89999992,104.906193 7.09380461,107.099998 9.79999983,107.099998 L9.79999983,107.099998 L43.3999999,107.099998 C46.1061945,107.099998 48.2999992,104.906193 48.2999992,102.2 L48.2999992,102.2 L48.2999992,19.5999997 C48.2999992,16.8938044 46.1061945,14.6999997 43.3999999,14.6999997 L43.3999999,14.6999997 Z M37.7999994,0 C38.573198,1.69613614e-15 39.1999993,0.62680134 39.1999993,1.39999998 L39.1999993,6.99999988 C39.1999993,7.77319852 38.573198,8.39999986 37.7999994,8.39999986 L15.3999997,8.39999986 C14.6268011,8.39999986 13.9999998,7.77319852 13.9999998,6.99999988 L13.9999998,1.39999998 C13.9999998,0.62680134 14.6268011,-3.02054925e-16 15.3999997,0 L37.7999994,0 Z" fill="#FFF" fill-rule="nonzero"></path>
            <rect fill="url(#gradient-1)" x="6.99999988" y="16.7999997" width="39.1999993" height="88.1999985" rx="2.79999995"></rect>
            <text font-family="AppleColorEmoji, Apple Color Emoji" font-size="39.1999993" font-weight="normal" letter-spacing="-0.560000291" fill="#5A5A5A">
              <tspan x="6.99999988" y="73.9999994">⚡️</tspan>
            </text>
          </g>
        </g>
        <g transform="translate(43.399999, 0)">
          <circle stroke="#FFF" stroke-width="6.72000015" fill="#ED1E45" cx="100.800002" cy="100.800002" r="100.800002"></circle>
          <g transform="translate(63.840001, 63.840001)">
            <path d="M52.5218109,-1.64817278 L74.9591005,20.7899795 L74.9591005,52.5211901 L52.5218109,74.9593424 L20.7897095,74.9593424 L-1.6484147,52.5212183 L-1.6484147,20.7899514 L20.7897095,-1.64817278 L52.5218109,-1.64817278 Z" stroke="#FFF" stroke-width="5" fill="#ED1E45"></path>
            <path d="M17.0956266,38.673117 L16.5351786,36.092637 C16.1860074,34.6886945 15.8497386,33.1976609 15.5263722,31.6203425 C15.2021994,30.0438304 14.8780266,28.5237664 14.5546602,27.0617632 L14.4054762,27.0617632 C14.1063018,28.5527968 13.8006762,30.079312 13.4902121,31.6421153 C13.1781353,33.2049185 12.8483177,34.6886945 12.4999529,36.092637 L11.9016041,38.673117 L17.0956266,38.673117 Z M18.2165227,43.6187684 L10.7807081,43.6187684 L9.28644885,50.2844709 L3.68196872,50.2844709 L11.3040617,22.2451359 L17.9173482,22.2451359 L25.5402476,50.2844709 L19.7107819,50.2844709 L18.2165227,43.6187684 Z" fill="#FFF"></path>
            <path d="M37.5339157,45.3818814 C40.5474326,45.3818814 42.0545942,44.1061565 42.0545942,41.5547069 C42.0545942,40.3217212 41.681231,39.4258108 40.9336982,38.8669756 C40.1861654,38.307334 39.052367,38.0283196 37.5339157,38.0283196 L34.4325013,38.0283196 L34.4325013,45.3818814 L37.5339157,45.3818814 Z M37.0105621,33.5552187 C38.3556374,33.5552187 39.3329942,33.2479803 39.943439,32.6310843 C40.5538838,32.0149946 40.8595094,31.1763386 40.8595094,30.1151162 C40.8595094,29.0547002 40.5474326,28.2950714 39.9248918,27.8362298 C39.302351,27.3773881 38.342735,27.1475641 37.0476565,27.1475641 L34.4325013,27.1475641 L34.4325013,33.5552187 L37.0105621,33.5552187 Z M28.9401107,22.2454584 L37.2718357,22.2454584 C38.5427222,22.2454584 39.7192598,22.3527096 40.8030614,22.5680184 C41.886863,22.7833272 42.8327703,23.1631416 43.6432023,23.7074617 C44.4520215,24.2525881 45.0874647,24.9694777 45.5487255,25.8573241 C46.0091799,26.7467833 46.2398103,27.8652602 46.2398103,29.2119482 C46.2398103,29.8433594 46.1583639,30.4739642 45.9970839,31.104569 C45.8341911,31.7351738 45.5914647,32.3230395 45.2680983,32.8673595 C44.9439255,33.4124859 44.5205655,33.8995515 43.9980183,34.3293627 C43.4746647,34.7599803 42.8642199,35.0752827 42.1666838,35.2760763 L42.1666838,35.4478395 C43.9101207,35.8203963 45.2245527,36.5380923 46.1091735,37.597702 C46.9929879,38.6589244 47.4348952,40.1354428 47.4348952,42.0272573 C47.4348952,43.4610365 47.1921688,44.6940221 46.7067159,45.7262142 C46.2212631,46.7584062 45.5487255,47.6115774 44.6891031,48.2849214 C43.8294807,48.9590718 42.8263191,49.4606526 41.681231,49.7896639 C40.5353366,50.1202879 39.302351,50.2847935 37.9822741,50.2847935 L28.9401107,50.2847935 L28.9401107,22.2454584 Z" fill="#FFF"></path>
            <path d="M59.7653966,35.748788 C62.7547214,35.748788 64.2489807,34.2585608 64.2489807,31.2764935 C64.2489807,29.8144903 63.8691663,28.7822983 63.1095374,28.1799174 C62.3491022,27.5775366 61.2346574,27.2767494 59.7653966,27.2767494 L56.7018829,27.2767494 L56.7018829,35.748788 L59.7653966,35.748788 Z M51.208686,22.2456197 L60.1016654,22.2456197 C61.4217422,22.2456197 62.661179,22.3956101 63.8191694,22.6972037 C64.9779663,22.9979909 65.9867727,23.4995717 66.8455887,24.2019461 C67.7052111,24.905127 68.3833936,25.836519 68.8825552,26.997735 C69.380104,28.1581446 69.6292816,29.5846663 69.6292816,31.2764935 C69.6292816,32.9102599 69.3736528,34.329524 68.8632016,35.5334792 C68.3527504,36.7382408 67.6616655,37.7268873 66.7899471,38.5010313 C65.9174223,39.2751753 64.9086159,39.8493321 63.7635278,40.2210825 C62.616827,40.5944457 61.3967438,40.7807241 60.1016654,40.7807241 L56.7018829,40.7807241 L56.7018829,50.2841483 L51.208686,50.2841483 L51.208686,22.2456197 Z" fill="#FFF"></path>
          </g>
        </g>
        <g transform="translate(116.199998, 239.399996)">
          <circle stroke="#FFF" stroke-width="6.04799998" fill="#EBEBEB" cx="75.5999997" cy="75.5999997" r="75.5999997"></circle>
          <path d="M75.5999997,10.584 C110.67229,10.584 139.103999,39.0157091 139.103999,74.0879997 C139.103999,75.7581088 137.750109,77.1119997 136.079999,77.1119997 C134.40989,77.1119997 133.055999,75.7581088 133.055999,74.0879997 C133.055999,42.3559273 107.332072,16.6319999 75.5999997,16.6319999 C43.8679272,16.6319999 18.1439999,42.3559273 18.1439999,74.0879997 C18.1439999,75.7581088 16.790109,77.1119997 15.1199999,77.1119997 C13.4498909,77.1119997 12.096,75.7581088 12.096,74.0879997 C12.096,39.0157091 40.5277091,10.584 75.5999997,10.584 Z" fill="url(#gradient-2)" fill-rule="nonzero"></path>
          <path d="M89.9399405,55.1129029 L97.9584923,99.5233436 C98.1068669,100.345111 97.5609745,101.131566 96.7392074,101.27994 C96.650551,101.295948 96.5606414,101.304 96.4705515,101.304 L80.4334479,101.304 C79.5983933,101.304 78.9214479,100.627054 78.9214479,99.7919996 C78.9214479,99.7019097 78.9294996,99.612 78.945507,99.5233436 L86.9640588,55.1129029 C87.1124334,54.2911359 87.8988886,53.7452435 88.7206557,53.8936181 C89.3417172,54.0057542 89.8278044,54.4918414 89.9399405,55.1129029 Z" fill="#E14E07" transform="translate(88.452000, 74.088000) rotate(45) translate(-88.452000, -74.088000) "></path>
        </g>
        <g transform="translate(349.999994, 256.199996)" stroke="#FFF">
          <circle stroke-width="6.04799998" fill="#314C69" cx="75.5999997" cy="75.5999997" r="75.5999997"></circle>
          <circle stroke-width="4.19999993" cx="76.2999987" cy="59.499999" r="16.0999997"></circle>
          <path d="M102.199998,106.399998 C102.199998,92.4824227 90.9175741,81.1999986 76.9999987,81.1999986 C63.0824232,81.1999986 51.7999991,92.4824227 51.7999991,106.399998" stroke-width="4.19999993"></path>
        </g>
        <g transform="translate(239.399996, 5.6)">
          <circle stroke="#FFF" stroke-width="6.04799998" fill="#FFE456" cx="36.3999994" cy="36.3999994" r="36.3999994"></circle>
          <path d="M30.1999717,33.4424237 L34.1890717,47.8666659 L20.9999996,33.4424237 L30.1999717,33.4424237 Z M40.3885295,33.4424237 L36.3999994,47.8666659 L32.4114692,33.4424237 L40.3885295,33.4424237 Z M51.7999991,33.4424237 L38.6109271,47.8666659 L42.600027,33.4424237 L51.7999991,33.4424237 Z M33.9392187,25.1999996 L30.2761812,31.3818176 L20.9999996,31.3818176 L27.0974651,25.5015349 C27.2983161,25.3085248 27.5696786,25.1999996 27.8531491,25.1999996 L33.9392187,25.1999996 Z M36.3999994,25.1999996 L40.063037,31.3818176 L32.7369618,31.3818176 L36.3999994,25.1999996 Z M44.9468497,25.1999996 C45.2303202,25.1999996 45.5016827,25.3085248 45.7025337,25.5015349 L51.7999991,31.3818176 L42.5238176,31.3818176 L38.86078,25.1999996 L44.9468497,25.1999996 Z" fill="#314C69" fill-rule="nonzero"></path>
        </g>
        <circle stroke="#FFF" stroke-width="6.04799998" fill="#EBEBEB" cx="19.5999997" cy="184.799997" r="19.5999997"></circle>
        <circle stroke="#FFF" stroke-width="6.04799998" fill="#EBEBEB" cx="74.1999987" cy="246.399996" r="41.9999993"></circle>
        <circle stroke="#FFF" stroke-width="6.04799998" fill="#EBEBEB" cx="19.5999997" cy="106.399998" r="12.5999998"></circle>
      </g>
    </g>
  </g>
</svg>
