<svg viewBox="0 0 24 25" version="1.1" xmlns="http://www.w3.org/2000/svg">
  <g stroke="none" stroke-width="1" fill="none" fill-rule="evenodd">
    <g transform="translate(-570, -127)" fill="#000" fill-rule="nonzero">
      <g transform="translate(570, 127)">
        <g transform="translate(0.52, 0)">
          <path d="M3.68,20.1588271 L3.68,25 L1.84,25 L1.84,20.1588271 L3.68,20.1588271 Z M12.4775,16.0354307 L12.4775,25 L10.6375,25 L10.6375,16.0354307 L12.4775,16.0354307 Z M21.16,20.1588271 L21.16,25 L19.32,25 L19.32,20.1588271 L21.16,20.1588271 Z M2.76,13.546121 C4.28430591,13.546121 5.52,14.7768593 5.52,16.2950519 C5.52,17.8132446 4.28430591,19.0439829 2.76,19.0439829 C1.23569409,19.0439829 0,17.8132446 0,16.2950519 C0,14.7768593 1.23569409,13.546121 2.76,13.546121 Z M20.24,13.546121 C21.7643059,13.546121 23,14.7768593 23,16.2950519 C23,17.8132446 21.7643059,19.0439829 20.24,19.0439829 C18.7156941,19.0439829 17.48,17.8132446 17.48,16.2950519 C17.48,14.7768593 18.7156941,13.546121 20.24,13.546121 Z M2.76,14.9314156 C1.99784705,14.9314156 1.38,15.5419364 1.38,16.2950519 C1.38,17.0481675 1.99784705,17.6586883 2.76,17.6586883 C3.52215295,17.6586883 4.14,17.0481675 4.14,16.2950519 C4.14,15.5419364 3.52215295,14.9314156 2.76,14.9314156 Z M20.24,14.9314156 C19.477847,14.9314156 18.86,15.5419364 18.86,16.2950519 C18.86,17.0481675 19.477847,17.6586883 20.24,17.6586883 C21.002153,17.6586883 21.62,17.0481675 21.62,16.2950519 C21.62,15.5419364 21.002153,14.9314156 20.24,14.9314156 Z M11.5,9.4227245 C13.0243059,9.4227245 14.26,10.6534628 14.26,12.1716555 C14.26,13.6898481 13.0243059,14.9205864 11.5,14.9205864 C9.97569409,14.9205864 8.74,13.6898481 8.74,12.1716555 C8.74,10.6534628 9.97569409,9.4227245 11.5,9.4227245 Z M11.5,10.8080191 C10.737847,10.8080191 10.12,11.4185399 10.12,12.1716555 C10.12,12.924771 10.737847,13.5352918 11.5,13.5352918 C12.262153,13.5352918 12.88,12.924771 12.88,12.1716555 C12.88,11.4185399 12.262153,10.8080191 11.5,10.8080191 Z M3.68,0 L3.68,12.6298106 L1.84,12.6298106 L1.84,0 L3.68,0 Z M21.16,0 L21.16,12.6298106 L19.32,12.6298106 L19.32,0 L21.16,0 Z M12.4775,-8.8817842e-16 L12.4775,8.50641417 L10.6375,8.50641417 L10.6375,-8.8817842e-16 L12.4775,-8.8817842e-16 Z"></path>
        </g>
      </g>
    </g>
  </g>
</svg>
