<svg width="18px" height="18px" viewBox="0 0 18 18" xmlns="http://www.w3.org/2000/svg">
  <g stroke="none" stroke-width="1" fill="none" fill-rule="evenodd">
    <g transform="translate(-163, -1932)">
      <g transform="translate(143, 1918)">
        <g transform="translate(20, 14)">
          <circle cx="9" cy="9" r="9"></circle>
          <path d="M9,0 C11.3869484,0 13.6761336,0.948211563 15.363961,2.63603897 C17.0517884,4.32386638 18,6.61305159 18,9 C18,13.9705627 13.9705627,18 9,18 C4.02943725,18 0,13.9705627 0,9 C0,4.02943725 4.02943725,0 9,0 Z M9,0.75 C4.44365081,0.75 0.75,4.44365081 0.75,9 C0.75,13.5563492 4.44365081,17.25 9,17.25 C11.188036,17.25 13.2864558,16.3808061 14.8336309,14.8336309 C16.3808061,13.2864558 17.25,11.188036 17.25,9 C17.25,4.44365081 13.5563492,0.75 9,0.75 Z M8.72245522,11.0003276 C8.91844534,10.9955825 9.10747292,11.0730974 9.24370522,11.2140776 C9.52374016,11.523931 9.52374016,11.9954742 9.24370522,12.3053276 C9.10747292,12.4463077 8.91844534,12.5238226 8.72245522,12.5190776 C8.52732346,12.5251208 8.33894499,12.4473123 8.20495522,12.3053276 C7.93168159,11.992903 7.93168159,11.5265022 8.20495522,11.2140776 C8.33894499,11.0720928 8.52732346,10.9942843 8.72245522,11.0003276 Z M8,5.44256396 L9.45036501,5.44256396 L9.45036501,10.3242716 L8,10.3242716 L8,5.44256396 Z" fill="#5A5A5A" fill-rule="nonzero"></path>
        </g>
      </g>
    </g>
  </g>
</svg>
