<svg viewBox="0 0 14 15" fill="none" xmlns="http://www.w3.org/2000/svg">
<path d="M6.79654 7.77536C4.7899 7.77536 3.15765 5.64571 3.15765 3.63919C3.15765 1.63279 4.78984 0 6.79654 0C8.80324 0 10.4357 1.63276 10.4357 3.63919C10.4354 5.64547 8.80318 7.77536 6.79654 7.77536Z" fill="black"/>
<path d="M4.06477 7.81244C4.77066 8.35023 5.65119 8.67019 6.60501 8.67019H6.98817C7.94222 8.67019 8.82296 8.35011 9.52864 7.81244C11.8333 8.18501 13.5931 10.1827 13.5931 12.5922C13.5931 13.916 10.5503 14.9895 6.79658 14.9895C3.04288 14.9895 1.12737e-05 13.916 1.12737e-05 12.5922C1.12737e-05 10.1826 1.76012 8.1848 4.0648 7.81244H4.06477Z" fill="black"/>
</svg>
