<svg width="206" height="226" viewBox="0 0 206 226" fill="none" xmlns="http://www.w3.org/2000/svg">
<path opacity="0.1" d="M4.81189 69.149V91.2682V225.426H161.182V91.2682V69.149H4.81189Z" fill="#020202"/>
<path d="M156.371 64.5687H0V220.846H156.371V64.5687Z" fill="#EDECEB"/>
<path d="M156.371 64.5687H0V86.688H156.371V64.5687Z" fill="#666666"/>
<path d="M149.491 75.6282C149.494 77.7409 148.657 79.7682 147.163 81.2632C145.669 82.7582 143.642 83.5983 141.528 83.5983C137.124 83.5983 133.553 80.03 133.553 75.6282C133.553 73.5155 134.394 71.4895 135.89 69.9967C137.386 68.5039 139.414 67.6669 141.528 67.67C145.926 67.67 149.491 71.233 149.491 75.6282Z" fill="#EDECEB"/>
<path d="M144.799 77.4552L142.958 75.628L144.799 73.8007C145.158 73.3963 145.14 72.782 144.757 72.3994C144.375 72.0169 143.76 71.9988 143.355 72.3582C142.742 72.9713 142.152 73.5603 141.527 74.1854L139.687 72.3582C139.278 72.0332 138.691 72.0676 138.324 72.4379C137.956 72.8082 137.927 73.3956 138.255 73.8007L140.084 75.628C139.47 76.2411 138.881 76.8301 138.255 77.4552C137.927 77.8604 137.956 78.4478 138.324 78.8181C138.691 79.1884 139.278 79.2227 139.687 78.8978L141.527 77.0705L143.355 78.8978C143.76 79.2571 144.375 79.2391 144.757 78.8565C145.14 78.474 145.158 77.8596 144.799 77.4552Z" fill="#999999"/>
<path d="M125.434 75.6282C125.437 77.7409 124.599 79.7682 123.105 81.2632C121.612 82.7582 119.585 83.5984 117.471 83.5984C115.349 83.6079 113.312 82.7725 111.808 81.2767C110.305 79.781 109.46 77.7482 109.46 75.6282C109.46 73.5155 110.3 71.4894 111.796 69.9967C113.292 68.5039 115.321 67.6669 117.435 67.67C119.546 67.67 121.572 68.5085 123.065 70.0009C124.558 71.4934 125.397 73.5175 125.397 75.6282H125.434Z" fill="#EDECEB"/>
<path d="M121.26 71.553H113.67C113.28 71.5595 112.966 71.8733 112.96 72.2623V78.9943C112.966 79.3833 113.28 79.6971 113.67 79.7035H121.26C121.429 79.6997 121.591 79.6358 121.717 79.5232C121.827 79.4016 121.887 79.2426 121.885 79.0784V72.3464C121.928 71.9559 121.65 71.6031 121.26 71.553ZM120.55 72.9716V74.1737H114.379V72.9716H120.55ZM114.379 78.285V75.6283H120.55V78.285H114.379Z" fill="#999999"/>
<path d="M101.376 75.6282C101.38 77.7409 100.542 79.7682 99.0484 81.2632C97.5547 82.7582 95.5275 83.5984 93.4135 83.5984C91.2922 83.6079 89.2545 82.7725 87.7511 81.2767C86.2477 79.781 85.4025 77.7482 85.4025 75.6282C85.4025 73.5155 86.2431 71.4894 87.739 69.9967C89.235 68.5039 91.2634 67.6669 93.3774 67.67C97.7752 67.67 101.34 71.233 101.34 75.6282H101.376Z" fill="#EDECEB"/>
<path d="M97.9122 78.922C97.9122 79.3536 97.5621 79.7034 97.1303 79.7034H89.6847C89.2529 79.7034 88.9028 79.3536 88.9028 78.922C88.9028 78.7148 88.9852 78.5161 89.1318 78.3695C89.2785 78.223 89.4773 78.1406 89.6847 78.1406H97.1303C97.3377 78.1406 97.5366 78.223 97.6832 78.3695C97.8298 78.5161 97.9122 78.7148 97.9122 78.922Z" fill="#999999"/>
<path d="M149.731 94.6218H6.65234V213.633H149.731V94.6218Z" fill="#C6C6C6"/>
<path opacity="0.1" d="M49.6295 4.80834V26.9276V161.086H206V26.9276V4.80834H49.6295Z" fill="#020202"/>
<path d="M201.189 0H44.8184V156.278H201.189V0Z" fill="#EDECEB"/>
<path d="M201.189 0H44.8184V22.1193H201.189V0Z" fill="#666666"/>
<path d="M194.549 30.0535H51.4696V149.065H194.549V30.0535Z" fill="#FFCA00"/>
<path d="M185.07 42.4476H60.9238V49.0593H185.07V42.4476Z" fill="#EDB20C"/>
<path d="M185.07 58.0754H60.9238V64.6871H185.07V58.0754Z" fill="#EDB20C"/>
<path d="M185.07 74.5748H60.9238V81.1866H185.07V74.5748Z" fill="#EDB20C"/>
<path d="M125.312 90.2028H60.9238V96.8146H125.312V90.2028Z" fill="#EDB20C"/>
</svg>
