<svg width="256" height="212" viewBox="0 0 256 212" fill="none" xmlns="http://www.w3.org/2000/svg">
<path opacity="0.1" d="M4.74615 5.38969V27.826V155.006H229.243V27.826V5.38969H4.74615Z" fill="#020202"/>
<path d="M224.497 0H0V149.616H224.497V0Z" fill="#EDECEB"/>
<path d="M224.497 0H0V22.4363H224.497V0Z" fill="#666666"/>
<path d="M216.75 10.9741C216.743 15.4342 213.123 19.0464 208.661 19.0464C206.51 19.0592 204.443 18.2145 202.918 16.6993C201.392 15.184 200.535 13.1234 200.535 10.9741C200.531 8.83106 201.381 6.77473 202.896 5.25825C204.411 3.74178 206.467 2.8895 208.612 2.8895C210.766 2.87666 212.836 3.72267 214.363 5.2402C215.891 6.75773 216.75 8.82146 216.75 10.9741Z" fill="#EDECEB"/>
<path d="M211.98 12.8034L210.125 10.9743L211.98 9.10869C212.344 8.69851 212.326 8.07531 211.938 7.68729C211.549 7.29927 210.926 7.28092 210.515 7.64545L208.661 9.51108L206.806 7.64545C206.396 7.28092 205.772 7.29927 205.384 7.68729C204.996 8.07531 204.977 8.69851 205.342 9.10869L207.197 10.9743L205.342 12.8278C204.977 13.2379 204.996 13.8611 205.384 14.2492C205.772 14.6372 206.396 14.6555 206.806 14.291L208.661 12.4254L210.515 14.291C210.926 14.6951 211.587 14.6896 211.992 14.2788C212.396 13.868 212.391 13.2074 211.98 12.8034Z" fill="#999999"/>
<path d="M192.348 10.9741C192.341 15.4342 188.721 19.0464 184.259 19.0464C182.108 19.0592 180.041 18.2145 178.516 16.6993C176.99 15.184 176.133 13.1234 176.133 10.9741C176.13 8.83106 176.979 6.77473 178.494 5.25825C180.009 3.74178 182.065 2.8895 184.21 2.8895C186.364 2.87666 188.434 3.72267 189.961 5.2402C191.489 6.75773 192.348 8.82146 192.348 10.9741Z" fill="#EDECEB"/>
<path d="M188.114 6.81617H180.416C180.021 6.82269 179.702 7.141 179.696 7.5356V14.3519C179.702 14.7464 180.021 15.0648 180.416 15.0713H188.114C188.281 15.0735 188.442 15.0125 188.566 14.9006C188.68 14.7728 188.745 14.6085 188.749 14.4372V7.5356C188.746 7.17139 188.475 6.86472 188.114 6.81617ZM187.394 8.25502V9.47439H181.135V8.25502H187.394ZM181.135 13.6324V10.9742H187.394V13.6568L181.135 13.6324Z" fill="#999999"/>
<path d="M167.946 10.9741C167.939 15.4342 164.319 19.0464 159.857 19.0464C157.706 19.0592 155.639 18.2145 154.114 16.6993C152.588 15.184 151.731 13.1234 151.731 10.9741C151.728 8.83106 152.577 6.77473 154.092 5.25825C155.607 3.74178 157.664 2.8895 159.808 2.8895C161.962 2.87666 164.032 3.72267 165.559 5.2402C167.087 6.75773 167.946 8.82146 167.946 10.9741Z" fill="#EDECEB"/>
<path d="M164.432 14.2786C164.432 14.7163 164.077 15.0712 163.639 15.0712H156.087C155.876 15.0712 155.675 14.9877 155.526 14.8391C155.377 14.6904 155.294 14.4888 155.294 14.2786C155.3 13.8456 155.653 13.4982 156.087 13.4982H163.639C164.072 13.4982 164.426 13.8456 164.432 14.2786Z" fill="#999999"/>
<path d="M215.7 31.9107H8.78499V138.727H215.7V31.9107Z" fill="#C6C6C6"/>
<path opacity="0.1" d="M96.572 53.4201V75.8565V211.938H255.184V75.8565V53.4201H96.572Z" fill="#020202"/>
<path d="M250.304 48.5428H91.6919V207.061H250.304V48.5428Z" fill="#EDECEB"/>
<path d="M250.304 48.5428H91.6919V70.9792H250.304V48.5428Z" fill="#666666"/>
<path d="M243.568 79.0271H98.4385V199.744H243.568V79.0271Z" fill="#FFCA00"/>
<path d="M233.954 91.5989H108.028V98.3054H233.954V91.5989Z" fill="#EDB20C"/>
<path d="M233.954 107.451H108.028V114.157H233.954V107.451Z" fill="#EDB20C"/>
<path d="M233.954 124.187H108.028V130.893H233.954V124.187Z" fill="#EDB20C"/>
<path d="M173.34 140.039H108.028V146.745H173.34V140.039Z" fill="#EDB20C"/>
</svg>
