<svg width="333" height="238" viewBox="0 0 333 238" fill="none" xmlns="http://www.w3.org/2000/svg">
<path opacity="0.1" d="M92.0924 77.1644V101.189V237.373H332.484V101.189V77.1644H92.0924Z" fill="#020202"/>
<path d="M327.401 71.3931H87.0103V231.602H327.401V71.3931Z" fill="#EDECEB"/>
<path d="M327.401 71.3931H87.0103V95.4179H327.401V71.3931Z" fill="#666666"/>
<path d="M319.106 83.1441C319.098 87.92 315.222 91.7879 310.444 91.7879C308.141 91.8017 305.927 90.8972 304.294 89.2746C302.661 87.6521 301.743 85.4456 301.743 83.1441C301.739 80.8494 302.649 78.6474 304.271 77.0236C305.893 75.3998 308.095 74.4872 310.391 74.4872C312.698 74.4734 314.914 75.3793 316.55 77.0043C318.186 78.6292 319.106 80.8391 319.106 83.1441Z" fill="#EDECEB"/>
<path d="M313.998 85.1029L312.012 83.1444L313.998 81.1467C314.388 80.7074 314.368 80.0401 313.953 79.6246C313.537 79.2091 312.869 79.1895 312.43 79.5798L310.444 81.5775L308.458 79.5798C308.019 79.1895 307.351 79.2091 306.935 79.6246C306.519 80.0401 306.5 80.7074 306.89 81.1467L308.876 83.1444L306.89 85.129C306.5 85.5682 306.519 86.2356 306.935 86.6511C307.351 87.0666 308.019 87.0862 308.458 86.6959L310.444 84.6982L312.43 86.6959C312.87 87.1285 313.578 87.1227 314.011 86.6828C314.444 86.2429 314.438 85.5356 313.998 85.1029Z" fill="#999999"/>
<path d="M292.976 83.1441C292.969 87.92 289.093 91.7879 284.314 91.7879C282.011 91.8017 279.798 90.8972 278.165 89.2746C276.531 87.6521 275.613 85.4456 275.613 83.1441C275.609 80.8494 276.519 78.6474 278.142 77.0236C279.764 75.3998 281.966 74.4872 284.262 74.4872C286.568 74.4734 288.785 75.3793 290.421 77.0043C292.056 78.6292 292.976 80.8391 292.976 83.1441Z" fill="#EDECEB"/>
<path d="M288.443 78.6918H280.199C279.776 78.6988 279.435 79.0397 279.428 79.4622V86.761C279.435 87.1836 279.776 87.5244 280.199 87.5315H288.443C288.621 87.5338 288.794 87.4684 288.926 87.3486C289.049 87.2118 289.118 87.0359 289.122 86.8524V79.4622C289.119 79.0722 288.829 78.7438 288.443 78.6918ZM287.672 80.2326V81.5383H280.97V80.2326H287.672ZM280.97 85.9907V83.1443H287.672V86.0168L280.97 85.9907Z" fill="#999999"/>
<path d="M266.847 83.1441C266.84 87.92 262.964 91.7879 258.185 91.7879C255.882 91.8017 253.669 90.8972 252.035 89.2746C250.402 87.6521 249.484 85.4456 249.484 83.1441C249.48 80.8494 250.39 78.6474 252.012 77.0236C253.635 75.3998 255.837 74.4872 258.133 74.4872C260.439 74.4734 262.656 75.3793 264.291 77.0043C265.927 78.6292 266.847 80.8391 266.847 83.1441Z" fill="#EDECEB"/>
<path d="M263.084 86.6826C263.084 87.1513 262.704 87.5313 262.235 87.5313H254.148C253.923 87.5313 253.707 87.4419 253.547 87.2827C253.388 87.1235 253.299 86.9077 253.299 86.6826C253.306 86.219 253.684 85.8469 254.148 85.8469H262.235C262.699 85.8469 263.077 86.219 263.084 86.6826Z" fill="#999999"/>
<path d="M317.982 105.563H96.4172V219.942H317.982V105.563Z" fill="#C6C6C6"/>
<path opacity="0.1" d="M5.22559 5.22256V29.2474V174.963H175.067V29.2474V5.22256H5.22559Z" fill="#020202"/>
<path d="M169.842 0H0V169.74H169.842V0Z" fill="#EDECEB"/>
<path d="M169.842 0H0V24.0248H169.842V0Z" fill="#666666"/>
<path d="M162.629 32.6425H7.22421V161.906H162.629V32.6425Z" fill="#FFCA00"/>
<path d="M152.334 46.1043H17.4929V53.2856H152.334V46.1043Z" fill="#EDB20C"/>
<path d="M152.334 63.0784H17.4929V70.2598H152.334V63.0784Z" fill="#EDB20C"/>
<path d="M152.334 80.9993H17.4929V88.1806H152.334V80.9993Z" fill="#EDB20C"/>
<path d="M87.4284 97.9736H17.4929V105.155H87.4284V97.9736Z" fill="#EDB20C"/>
</svg>
