<svg viewBox="0 0 15 15" fill="none" xmlns="http://www.w3.org/2000/svg">
<path d="M6.42514 10.2497L0 7.14972V13.3497L6.42514 10.2497Z" fill="black"/>
<path d="M15 13.3497V7.14972L8.57483 10.2497L15 13.3497Z" fill="black"/>
<path d="M8 10.5248L7.5 10.7748L7 10.5248L0 13.8996V14.2496C0 14.6746 0.325 14.9996 0.75 14.9996H14.25C14.675 14.9996 15 14.6746 15 14.2496V13.8996L8 10.5248Z" fill="black"/>
<path d="M1 4.77454L0.4 5.19954C0.15 5.39954 0 5.69954 0 5.99954V6.57454L1 7.04954V4.77454Z" fill="black"/>
<path d="M14.6 5.19954L14 4.77454V7.07454L15 6.59954V5.99954C15 5.69954 14.85 5.39954 14.6 5.19954Z" fill="black"/>
<path d="M1.5 -0.000488281V7.32465L7.5 10.2247L13.5 7.32465V-0.000488281H1.5ZM10.2749 4.82465C10.1749 5.09965 10.0249 5.29965 9.82486 5.47465C9.62486 5.62465 9.49986 5.74965 9.24986 5.74965C8.74986 5.74965 8.49986 5.49965 8.42486 5.24965H8.37486C8.12486 5.49965 7.82486 5.69965 7.42486 5.69965C7.02486 5.69965 6.69986 5.57465 6.47486 5.34965C6.24986 5.12465 6.12486 4.77465 6.12486 4.34965C6.12486 3.87465 6.27486 3.47465 6.57486 3.19965C6.87486 2.89965 7.27486 2.74965 7.77486 2.74965C7.97486 2.74965 8.17486 2.77465 8.42486 2.79965C8.67486 2.82465 8.84986 2.87465 8.99986 2.92465L8.92486 4.59965C8.92486 4.92465 8.99986 5.07465 9.17486 5.07465C9.32486 5.07465 9.42486 4.97465 9.52486 4.74965C9.59986 4.52465 9.64986 4.24965 9.64986 3.92465C9.64986 3.54965 9.57486 3.22465 9.42486 2.94965C9.27486 2.67465 9.04986 2.44965 8.77486 2.29965C8.49986 2.14965 8.17486 2.07465 7.82486 2.07465C7.37486 2.07465 6.97486 2.17465 6.62486 2.34965C6.27486 2.54965 6.02486 2.79965 5.84986 3.17465C5.67486 3.52465 5.57486 3.94965 5.57486 4.39965C5.57486 5.02465 5.74986 5.49965 6.07486 5.84965C6.39986 6.17465 6.89986 6.34965 7.52486 6.34965C7.77486 6.34965 8.02486 6.32465 8.32486 6.27465C8.62486 6.22465 8.92486 6.07465 9.19986 5.97465V6.72465C8.69986 6.92465 8.14986 6.99965 7.54986 6.99965C6.67486 6.99965 5.99986 6.77465 5.52486 6.32465C5.04986 5.87465 4.79986 5.22465 4.79986 4.42465C4.79986 3.84965 4.92486 3.34965 5.17486 2.89965C5.42486 2.44965 5.77486 2.07465 6.22486 1.82465C6.67486 1.57465 7.19986 1.42465 7.79986 1.42465C8.29986 1.42465 8.74986 1.52465 9.14986 1.72465C9.54986 1.92465 9.84986 2.22465 10.0749 2.59965C10.2999 2.97465 10.3999 3.42465 10.3999 3.89965C10.4249 4.24965 10.3749 4.54965 10.2749 4.82465Z" fill="black"/>
<path d="M7.17487 3.62443C7.02487 3.79943 6.92487 4.04943 6.92487 4.34943C6.92487 4.82443 7.12487 5.07443 7.52487 5.07443C7.72487 5.07443 7.87487 4.99943 7.99987 4.84943C8.09987 4.69943 8.17487 4.47443 8.19987 4.14943L8.24987 3.39943C8.12487 3.37443 7.99987 3.34943 7.84987 3.34943C7.54987 3.34943 7.32487 3.44943 7.17487 3.62443Z" fill="black"/>
</svg>
