<svg width="301" height="227" viewBox="0 0 301 227" fill="none" xmlns="http://www.w3.org/2000/svg">
<path opacity="0.1" d="M130.864 56.2267V80.2932V226.262H301V80.2932V56.2267H130.864Z" fill="#020202"/>
<path d="M295.765 51.2433H125.628V221.278H295.765V51.2433Z" fill="#EDECEB"/>
<path d="M295.765 51.2433H125.628V75.3098H295.765V51.2433Z" fill="#666666"/>
<path d="M288.279 63.2763C288.283 65.575 287.372 67.7808 285.746 69.4074C284.121 71.0341 281.916 71.9481 279.615 71.9481C274.823 71.9481 270.939 68.0656 270.939 63.2763C270.939 60.9776 271.853 58.7733 273.481 57.1491C275.108 55.5249 277.315 54.6142 279.615 54.6176C284.4 54.6176 288.279 58.4943 288.279 63.2763Z" fill="#EDECEB"/>
<path d="M283.174 65.2642L281.172 63.2761L283.174 61.288C283.565 60.848 283.546 60.1796 283.129 59.7633C282.713 59.3471 282.044 59.3275 281.604 59.7185C280.936 60.3855 280.295 61.0264 279.614 61.7066L277.612 59.7185C277.168 59.3649 276.529 59.4023 276.129 59.8052C275.729 60.2081 275.697 60.8472 276.055 61.288L278.044 63.2761C277.376 63.9432 276.735 64.5841 276.055 65.2642C275.697 65.705 275.729 66.3442 276.129 66.7471C276.529 67.1499 277.168 67.1873 277.612 66.8338L279.614 64.8457L281.604 66.8338C282.044 67.2248 282.713 67.2051 283.129 66.7889C283.546 66.3727 283.565 65.7042 283.174 65.2642Z" fill="#999999"/>
<path d="M262.104 63.2763C262.108 65.575 261.196 67.7808 259.571 69.4074C257.946 71.0341 255.74 71.9482 253.44 71.9482C251.132 71.9586 248.915 71.0495 247.279 69.4221C245.644 67.7947 244.724 65.583 244.724 63.2763C244.724 60.9776 245.639 58.7733 247.266 57.1491C248.894 55.5249 251.101 54.6142 253.401 54.6176C255.699 54.6176 257.903 55.5299 259.527 57.1537C261.152 58.7775 262.065 60.9799 262.065 63.2763H262.104Z" fill="#EDECEB"/>
<path d="M257.563 58.8424H249.305C248.881 58.8494 248.54 59.1909 248.533 59.6141V66.9387C248.54 67.362 248.881 67.7034 249.305 67.7104H257.563C257.747 67.7063 257.923 67.6367 258.06 67.5142C258.18 67.3819 258.246 67.209 258.243 67.0303V59.7057C258.29 59.2807 257.987 58.8969 257.563 58.8424ZM256.791 60.3858V61.6938H250.077V60.3858H256.791ZM250.077 66.167V63.2764H256.791V66.167H250.077Z" fill="#999999"/>
<path d="M235.929 63.2763C235.933 65.575 235.021 67.7808 233.396 69.4074C231.771 71.0341 229.565 71.9482 227.265 71.9482C224.957 71.9586 222.74 71.0495 221.104 69.4221C219.469 67.7947 218.549 65.583 218.549 63.2763C218.549 60.9776 219.464 58.7733 221.091 57.1491C222.719 55.5249 224.926 54.6142 227.226 54.6176C232.011 54.6176 235.89 58.4943 235.89 63.2763H235.929Z" fill="#EDECEB"/>
<path d="M232.16 66.8602C232.16 67.3297 231.779 67.7103 231.309 67.7103H223.208C222.739 67.7103 222.358 67.3297 222.358 66.8602C222.358 66.6347 222.447 66.4184 222.607 66.259C222.766 66.0996 222.983 66.01 223.208 66.01H231.309C231.535 66.01 231.751 66.0996 231.911 66.259C232.07 66.4184 232.16 66.6347 232.16 66.8602Z" fill="#999999"/>
<path d="M288.541 83.9421H132.866V213.43H288.541V83.9421Z" fill="#C6C6C6"/>
<path opacity="0.1" d="M5.23425 5.23203V29.2985V165.719H246.043V29.2985V5.23203H5.23425Z" fill="#020202"/>
<path d="M240.808 0H0V160.487H240.808V0Z" fill="#EDECEB"/>
<path d="M240.808 0H0V24.0665H240.808V0Z" fill="#666666"/>
<path d="M232.497 11.7453C232.497 14.044 231.583 16.2484 229.955 17.8726C228.328 19.4968 226.121 20.4075 223.82 20.4041C219.036 20.4041 215.157 16.5274 215.157 11.7453C215.153 9.44664 216.064 7.2409 217.69 5.61425C219.315 3.98759 221.52 3.07355 223.82 3.07355C228.613 3.07355 232.497 6.95604 232.497 11.7453Z" fill="#EDECEB"/>
<path d="M227.38 13.7336L225.391 11.7455L227.38 9.74427C227.734 9.30047 227.696 8.66165 227.293 8.26211C226.89 7.86258 226.251 7.83054 225.81 8.18779L223.82 10.1759L221.831 8.18779C221.39 7.83054 220.75 7.86258 220.347 8.26211C219.944 8.66165 219.907 9.30047 220.261 9.74427L222.25 11.7455L220.261 13.7336C219.869 14.1735 219.889 14.842 220.305 15.2582C220.722 15.6744 221.391 15.6941 221.831 15.3031L223.82 13.3019L225.81 15.3031C226.25 15.6941 226.919 15.6744 227.335 15.2582C227.752 14.842 227.771 14.1735 227.38 13.7336Z" fill="#999999"/>
<path d="M206.323 11.7453C206.323 14.044 205.408 16.2484 203.78 17.8726C202.153 19.4968 199.946 20.4075 197.646 20.4041C192.861 20.4041 188.982 16.5274 188.982 11.7453C188.978 9.44664 189.889 7.2409 191.515 5.61425C193.14 3.98759 195.346 3.07355 197.646 3.07355C202.438 3.07355 206.323 6.95604 206.323 11.7453Z" fill="#EDECEB"/>
<path d="M201.781 7.31152H193.562C193.139 7.31852 192.797 7.65996 192.79 8.08322V15.3947C192.79 15.8209 193.136 16.1665 193.562 16.1665H201.82C201.999 16.1688 202.172 16.1034 202.305 15.9833C202.427 15.847 202.492 15.6692 202.488 15.4863V8.08322C202.489 7.68131 202.182 7.34558 201.781 7.31152ZM201.009 8.85492V10.1629H194.295V8.85492H201.009ZM194.295 14.623V11.7455H201.009V14.623H194.295Z" fill="#999999"/>
<path d="M180.148 11.7453C180.148 14.044 179.233 16.2484 177.605 17.8726C175.978 19.4968 173.771 20.4075 171.471 20.4041C166.686 20.4041 162.807 16.5274 162.807 11.7453C162.803 9.44664 163.715 7.2409 165.34 5.61425C166.965 3.98759 169.171 3.07355 171.471 3.07355C176.263 3.07355 180.148 6.95604 180.148 11.7453Z" fill="#EDECEB"/>
<path d="M176.366 15.3292C176.366 15.7915 175.99 16.1663 175.528 16.1663H167.388C166.925 16.1663 166.55 15.7915 166.55 15.3292C166.546 15.1037 166.633 14.8861 166.79 14.7242C166.947 14.5623 167.162 14.4694 167.388 14.4659H175.502C175.966 14.4731 176.339 14.8516 176.339 15.3161L176.366 15.3292Z" fill="#999999"/>
<path d="M231.372 34.2293H9.42249V148.807H231.372V34.2293Z" fill="#00A3FF"/>
</svg>
