<svg width="308" height="235" viewBox="0 0 308 235" fill="none" xmlns="http://www.w3.org/2000/svg">
<path opacity="0.1" d="M5.24393 4.99149V29.0969V175.302H175.655V29.0969V4.99149H5.24393Z" fill="#020202"/>
<path d="M170.411 0H0V170.31H170.411V0Z" fill="#EDECEB"/>
<path d="M170.411 0H0V24.1054H170.411V0Z" fill="#666666"/>
<path d="M162.914 12.0525C162.917 14.3549 162.005 16.5642 160.377 18.1935C158.749 19.8228 156.54 20.7383 154.236 20.7383C149.436 20.7383 145.545 16.8496 145.545 12.0525C145.545 9.7501 146.461 7.54217 148.091 5.91534C149.722 4.28852 151.932 3.37633 154.236 3.3798C159.029 3.3798 162.914 7.26271 162.914 12.0525Z" fill="#EDECEB"/>
<path d="M157.8 14.0436L155.795 12.0523L157.8 10.061C158.192 9.62028 158.173 8.95072 157.756 8.53383C157.338 8.11695 156.668 8.09723 156.227 8.48887C155.559 9.15701 154.917 9.79895 154.235 10.4802L152.229 8.48887C151.785 8.13475 151.144 8.17219 150.744 8.57573C150.343 8.97928 150.311 9.61943 150.669 10.061L152.662 12.0523C151.993 12.7204 151.351 13.3624 150.669 14.0436C150.311 14.4851 150.343 15.1253 150.744 15.5288C151.144 15.9324 151.785 15.9698 152.229 15.6157L154.235 13.6244L156.227 15.6157C156.668 16.0073 157.338 15.9876 157.756 15.5707C158.173 15.1538 158.192 14.4843 157.8 14.0436Z" fill="#999999"/>
<path d="M136.696 12.0525C136.7 14.3549 135.787 16.5642 134.159 18.1935C132.532 19.8228 130.322 20.7384 128.019 20.7384C125.707 20.7488 123.486 19.8383 121.848 18.2083C120.209 16.5782 119.288 14.363 119.288 12.0525C119.288 9.7501 120.204 7.54217 121.835 5.91534C123.465 4.28852 125.675 3.37633 127.979 3.3798C130.281 3.3798 132.488 4.29353 134.115 5.91998C135.743 7.54642 136.657 9.75237 136.657 12.0525H136.696Z" fill="#EDECEB"/>
<path d="M132.148 7.61145H123.876C123.452 7.61846 123.11 7.96046 123.103 8.3844V15.7208C123.11 16.1448 123.452 16.4868 123.876 16.4938H132.148C132.332 16.4897 132.509 16.42 132.646 16.2973C132.766 16.1647 132.832 15.9915 132.829 15.8125V8.47611C132.876 8.05045 132.573 7.66603 132.148 7.61145ZM131.374 9.15734V10.4674H124.65V9.15734H131.374ZM124.65 14.9479V12.0526H131.374V14.9479H124.65Z" fill="#999999"/>
<path d="M110.479 12.0525C110.483 14.3549 109.57 16.5642 107.942 18.1935C106.314 19.8228 104.105 20.7384 101.801 20.7384C99.4896 20.7488 97.2688 19.8383 95.6305 18.2083C93.9921 16.5782 93.071 14.363 93.071 12.0525C93.071 9.7501 93.9871 7.54217 95.6174 5.91534C97.2476 4.28852 99.4582 3.37633 101.762 3.3798C106.555 3.3798 110.44 7.26271 110.44 12.0525H110.479Z" fill="#EDECEB"/>
<path d="M106.704 15.6421C106.704 16.1124 106.322 16.4937 105.852 16.4937H97.7377C97.2671 16.4937 96.8857 16.1124 96.8857 15.6421C96.8857 15.4163 96.9754 15.1997 97.1352 15.04C97.295 14.8803 97.5117 14.7906 97.7377 14.7906H105.852C106.078 14.7906 106.295 14.8803 106.454 15.04C106.614 15.1997 106.704 15.4163 106.704 15.6421Z" fill="#999999"/>
<path d="M163.176 32.7516H7.24966V162.449H163.176V32.7516Z" fill="#C6C6C6"/>
<path opacity="0.1" d="M66.8023 74.0822V98.1876V234.829H308V98.1876V74.0822H66.8023Z" fill="#020202"/>
<path d="M302.757 68.8417H61.5596V229.588H302.757V68.8417Z" fill="#EDECEB"/>
<path d="M302.757 68.8417H61.5596V92.9471H302.757V68.8417Z" fill="#666666"/>
<path d="M294.433 80.606C294.433 82.9085 293.517 85.1164 291.887 86.7432C290.256 88.37 288.046 89.2822 285.742 89.2788C280.949 89.2788 277.064 85.3958 277.064 80.606C277.061 78.3036 277.973 76.0943 279.601 74.465C281.229 72.8358 283.438 71.9202 285.742 71.9202C290.542 71.9202 294.433 75.809 294.433 80.606Z" fill="#EDECEB"/>
<path d="M289.307 82.5975L287.315 80.6062L289.307 78.6017C289.662 78.1572 289.624 77.5174 289.22 77.1172C288.817 76.717 288.176 76.6849 287.734 77.0427L285.742 79.0341L283.749 77.0427C283.308 76.6849 282.667 76.717 282.263 77.1172C281.859 77.5174 281.822 78.1572 282.176 78.6017L284.169 80.6062L282.176 82.5975C281.784 83.0382 281.804 83.7077 282.221 84.1246C282.638 84.5415 283.308 84.5612 283.749 84.1696L285.742 82.1652L287.734 84.1696C288.175 84.5612 288.845 84.5415 289.262 84.1246C289.68 83.7077 289.699 83.0382 289.307 82.5975Z" fill="#999999"/>
<path d="M268.216 80.606C268.216 82.9085 267.3 85.1164 265.669 86.7432C264.039 88.37 261.829 89.2822 259.525 89.2788C254.732 89.2788 250.847 85.3958 250.847 80.606C250.843 78.3036 251.756 76.0943 253.384 74.465C255.012 72.8358 257.221 71.9202 259.525 71.9202C264.325 71.9202 268.216 75.809 268.216 80.606Z" fill="#EDECEB"/>
<path d="M263.667 76.165H255.435C255.011 76.172 254.669 76.514 254.661 76.938V84.2613C254.661 84.6882 255.008 85.0343 255.435 85.0343H263.706C263.885 85.0366 264.059 84.9711 264.191 84.8509C264.314 84.7143 264.379 84.5363 264.375 84.353V76.938C264.376 76.5354 264.068 76.1992 263.667 76.165ZM262.894 77.7109V79.021H256.169V77.7109H262.894ZM256.169 83.4884V80.6062H262.894V83.4884H256.169Z" fill="#999999"/>
<path d="M241.999 80.606C241.999 82.9085 241.082 85.1164 239.452 86.7432C237.822 88.37 235.611 89.2822 233.308 89.2788C228.515 89.2788 224.63 85.3958 224.63 80.606C224.626 78.3036 225.539 76.0943 227.167 74.465C228.795 72.8358 231.004 71.9202 233.308 71.9202C238.107 71.9202 241.999 75.809 241.999 80.606Z" fill="#EDECEB"/>
<path d="M238.21 84.1956C238.21 84.6587 237.835 85.0341 237.371 85.0341H229.218C228.754 85.0341 228.379 84.6587 228.379 84.1956C228.375 83.9698 228.462 83.7518 228.619 83.5896C228.776 83.4275 228.992 83.3344 229.218 83.331H237.345C237.811 83.3382 238.184 83.7173 238.184 84.1825L238.21 84.1956Z" fill="#999999"/>
<path d="M293.306 103.126H70.9973V217.889H293.306V103.126Z" fill="#00A3FF"/>
</svg>
