<svg viewBox="0 0 19 33" fill="none" xmlns="http://www.w3.org/2000/svg">
<path d="M2.54453 0H16.4507C17.8612 0 19 1.13838 19 2.5364V30.4636C19 31.867 17.8558 33 16.4507 33H2.54931C1.13881 33 1.81902e-05 31.8616 1.81902e-05 30.4636V2.5364C-0.00534577 1.13838 1.13881 0 2.54417 0H2.54453ZM12.8046 1.65814H6.19123C5.90391 1.65814 5.67395 1.89204 5.67395 2.17281C5.67395 2.45868 5.90904 2.68747 6.19123 2.68747L12.8046 2.68724C13.0919 2.68724 13.3219 2.45334 13.3219 2.17258C13.327 1.89204 13.0919 1.65814 12.8046 1.65814V1.65814ZM9.4978 31.3727C10.1769 31.3727 10.7254 30.827 10.7254 30.1513C10.7254 29.4757 10.1769 28.9248 9.4978 28.9248C8.8187 28.9248 8.27017 29.4705 8.27017 30.1462C8.27017 30.8219 8.8187 31.3727 9.4978 31.3727ZM1.90707 27.2925H17.0879V4.35036H1.90707V27.2925Z" fill="white"/>
</svg>
