<svg viewBox="0 0 97 96" fill="none" xmlns="http://www.w3.org/2000/svg">
<path fill-rule="evenodd" clip-rule="evenodd" d="M28.6176 0.000854492L0.500061 28.1184V67.8833L28.6176 96.0009H68.3815L96.5001 67.8833V28.1184L68.3815 0.000854492H28.6176Z" fill="#D8D9D9"/>
<path fill-rule="evenodd" clip-rule="evenodd" d="M28.8807 0.634766L1.13364 28.3809V67.6205L28.8807 95.3667H68.1203L95.8665 67.6205V28.3809L68.1203 0.634766H28.8807Z" fill="white"/>
<path fill-rule="evenodd" clip-rule="evenodd" d="M30.7103 90.9484L5.55176 65.7898V30.2115L30.7103 5.05289H66.2897L91.4473 30.2115V65.7898L66.2897 90.9484H30.7103Z" fill="#ED1E45"/>
<path fill-rule="evenodd" clip-rule="evenodd" d="M25.0374 50.421L24.3651 47.3256C23.9463 45.6415 23.5429 43.853 23.155 41.9609C22.7661 40.0699 22.3773 38.2465 21.9894 36.4928H21.8104C21.4516 38.2813 21.085 40.1124 20.7126 41.987C20.3382 43.8617 19.9426 45.6415 19.5247 47.3256L18.807 50.421H25.0374ZM26.3817 56.3534H17.4622L15.6698 64.3491H8.94702L18.09 30.715H26.0228L35.1667 64.3491H28.1741L26.3817 56.3534Z" fill="white"/>
<path fill-rule="evenodd" clip-rule="evenodd" d="M49.5535 58.4682C53.1683 58.4682 54.9762 56.9379 54.9762 53.8774C54.9762 52.3983 54.5284 51.3237 53.6317 50.6533C52.735 49.982 51.375 49.6473 49.5535 49.6473H45.8333V58.4682H49.5535ZM48.9257 44.2817C50.5392 44.2817 51.7116 43.9132 52.4438 43.1732C53.1761 42.4342 53.5427 41.4282 53.5427 40.1552C53.5427 38.8832 53.1683 37.972 52.4216 37.4216C51.6748 36.8712 50.5237 36.5956 48.9702 36.5956H45.8333V44.2817H48.9257ZM39.2449 30.7154H49.2391C50.7636 30.7154 52.1749 30.844 53.4749 31.1023C54.775 31.3606 55.9096 31.8162 56.8818 32.4691C57.852 33.123 58.6142 33.9829 59.1675 35.0479C59.7198 36.1149 59.9965 37.4565 59.9965 39.0719C59.9965 39.8293 59.8988 40.5857 59.7053 41.3422C59.5099 42.0986 59.2188 42.8038 58.8309 43.4567C58.442 44.1106 57.9342 44.6948 57.3074 45.2104C56.6796 45.7269 55.9474 46.1052 55.1106 46.346V46.5521C57.2019 46.9989 58.7787 47.8598 59.8398 49.1309C60.8999 50.4039 61.43 52.175 61.43 54.4443C61.43 56.1641 61.1389 57.6432 60.5566 58.8813C59.9742 60.1194 59.1675 61.1429 58.1364 61.9506C57.1052 62.7592 55.9019 63.3609 54.5283 63.7555C53.1538 64.1521 51.6748 64.3495 50.0913 64.3495H39.2449V30.7154Z" fill="white"/>
<path fill-rule="evenodd" clip-rule="evenodd" d="M76.221 46.913C79.8068 46.913 81.5992 45.1255 81.5992 41.5484C81.5992 39.7946 81.1436 38.5565 80.2324 37.8339C79.3202 37.1114 77.9834 36.7505 76.221 36.7505H72.5462V46.913H76.221ZM65.9568 30.7156H76.6243C78.2077 30.7156 79.6945 30.8955 81.0835 31.2573C82.4735 31.6181 83.6836 32.2198 84.7138 33.0623C85.745 33.9058 86.5585 35.023 87.1572 36.4159C87.7541 37.8079 88.053 39.519 88.053 41.5484C88.053 43.5082 87.7463 45.2106 87.134 46.6548C86.5217 48.1 85.6927 49.2859 84.6471 50.2145C83.6005 51.1431 82.3904 51.8318 81.0168 52.2778C79.6413 52.7256 78.1778 52.9491 76.6243 52.9491H72.5461V64.3487H65.9568V30.7156Z" fill="white"/>
</svg>
