<svg height="40px" viewBox="0 0 31 36" xmlns="http://www.w3.org/2000/svg">
  <g stroke="none" stroke-width="1" fill="none" fill-rule="evenodd">
    <g transform="translate(-598, -1783)" fill="#767676" fill-rule="nonzero">
      <path d="M621.015585,1791.42614 C623.481227,1791.42614 626.09204,1792.76712 627.949777,1795.07784 C621.859393,1798.41004 622.846103,1807.09042 629,1809.41464 C628.153924,1811.28662 627.747899,1812.12136 626.656847,1813.77958 C625.134818,1816.09255 622.991274,1818.97476 620.330559,1818.99501 C617.969259,1819.01976 617.361355,1817.46053 614.156248,1817.47853 C610.95114,1817.49428 610.28426,1819.02201 607.918424,1818.99976 C605.259977,1818.97701 603.22758,1816.37605 601.705551,1814.06308 C597.452489,1807.59892 597.003366,1800.00977 599.627789,1795.97332 C601.494599,1793.10686 604.438852,1791.43064 607.203909,1791.43064 C610.018869,1791.43064 611.790411,1792.97187 614.122223,1792.97187 C616.383718,1792.97187 617.760576,1791.42614 621.015585,1791.42614 Z M620.303339,1783 C620.627706,1785.18697 619.731728,1787.32894 618.547676,1788.84317 C617.281964,1790.4699 615.097592,1791.72763 612.983537,1791.66238 C612.597926,1789.56766 613.586904,1787.41219 614.789103,1785.96096 C616.106985,1784.36123 618.36848,1783.13275 620.303339,1783 Z"></path>
    </g>
  </g>
</svg>
