<svg width="159" height="159" viewBox="0 0 159 159" fill="none" xmlns="http://www.w3.org/2000/svg">
<g clip-path="url(#clip0_4757_9678)">
<path d="M0.998749 114.428L158.154 114.428V5.62471L0.998749 5.62471V114.428Z" fill="white"/>
<path d="M158.154 115.438H0.998719C0.447702 115.438 0 114.99 0 114.439V5.63641C0 5.0854 0.447702 4.6377 0.998719 4.6377H158.154C158.705 4.6377 159.152 5.0854 159.152 5.63641V114.439C159.152 114.99 158.705 115.438 158.154 115.438ZM1.99744 113.441H157.155V6.63513H1.99744V113.441Z" fill="black"/>
<path d="M0.998505 15.3596L158.153 15.3596V0.998723L0.998505 0.998723V15.3596Z" fill="white"/>
<path d="M158.154 16.3583H0.998719C0.447702 16.3583 0 15.9106 0 15.3596V0.998719C0 0.447702 0.447702 0 0.998719 0H158.154C158.705 0 159.152 0.447702 159.152 0.998719V15.3596C159.152 15.9106 158.705 16.3583 158.154 16.3583ZM1.99744 14.3609H157.155V1.99744H1.99744V14.3609Z" fill="black"/>
<path d="M114.658 9.17224H106.369C105.818 9.17224 105.371 8.72454 105.371 8.17352C105.371 7.62251 105.818 7.1748 106.369 7.1748H114.658C115.209 7.1748 115.656 7.62251 115.656 8.17352C115.656 8.72454 115.209 9.17224 114.658 9.17224Z" fill="black"/>
<path d="M131.475 9.17224H123.187C122.636 9.17224 122.188 8.72454 122.188 8.17352C122.188 7.62251 122.636 7.1748 123.187 7.1748H131.475C132.026 7.1748 132.474 7.62251 132.474 8.17352C132.474 8.72454 132.026 9.17224 131.475 9.17224Z" fill="black"/>
<path d="M148.293 9.17224H140.004C139.453 9.17224 139.006 8.72454 139.006 8.17352C139.006 7.62251 139.453 7.1748 140.004 7.1748H148.293C148.844 7.1748 149.291 7.62251 149.291 8.17352C149.291 8.72454 148.844 9.17224 148.293 9.17224Z" fill="black"/>
<path d="M62.2764 36.8492H22.7409C22.1899 36.8492 21.7422 36.4015 21.7422 35.8505C21.7422 35.2995 22.1899 34.8518 22.7409 34.8518H62.2764C62.8274 34.8518 63.2751 35.2995 63.2751 35.8505C63.2751 36.4015 62.8274 36.8492 62.2764 36.8492Z" fill="black"/>
<path d="M145.296 86.1195H115.335C114.784 86.1195 114.336 85.6718 114.336 85.1208C114.336 84.5698 114.784 84.1221 115.335 84.1221H145.296C145.847 84.1221 146.295 84.5698 146.295 85.1208C146.295 85.6718 145.847 86.1195 145.296 86.1195Z" fill="black"/>
<path d="M48.1106 51.8876H22.8098C22.2587 51.8876 21.811 51.4399 21.811 50.8889C21.811 50.3378 22.2587 49.8901 22.8098 49.8901H48.1106C48.6617 49.8901 49.1094 50.3378 49.1094 50.8889C49.1094 51.4399 48.6617 51.8876 48.1106 51.8876Z" fill="black"/>
<path d="M142.679 30.7422H97.4038V64.6986H142.679V30.7422Z" fill="white"/>
<path d="M142.679 65.6973H97.4037C96.8527 65.6973 96.405 65.2496 96.405 64.6986V30.7421C96.405 30.1911 96.8527 29.7434 97.4037 29.7434H142.679C143.23 29.7434 143.678 30.1911 143.678 30.7421V64.6986C143.678 65.2496 143.23 65.6973 142.679 65.6973ZM98.4025 63.6999H141.68V31.7408H98.4025V63.6999Z" fill="black"/>
<g opacity="0.13">
<path d="M157.189 15.9451H0.0344238V20.6058H157.189V15.9451Z" fill="black"/>
</g>
<path d="M22.7717 97.7568V141.35C29.1183 147.589 40.0875 151.729 52.5895 151.729C65.0914 151.729 76.0618 147.591 82.4061 141.35V97.7568H22.7717Z" fill="white"/>
<path d="M26.9402 97.5647V86.4185C26.9402 72.2528 38.4241 60.7681 52.5891 60.7681C66.754 60.7681 78.2391 72.2528 78.2391 86.4174V97.5636H69.5605V86.4174C69.5605 77.0446 61.9632 69.4476 52.5891 69.4476C43.2149 69.4476 35.6142 77.0435 35.6142 86.4174V97.5636H26.9402V97.5647Z" fill="white"/>
<path d="M52.5893 152.499C40.3315 152.499 28.9811 148.535 22.2303 141.897C22.0841 141.753 22 141.555 22 141.35V97.7569C22 97.3331 22.3455 96.9888 22.7704 96.9888H82.4059C82.8309 96.9888 83.174 97.3342 83.174 97.7569V141.35C83.174 141.555 83.0911 141.753 82.9449 141.897C76.1964 148.535 64.8495 152.499 52.5893 152.499ZM23.5397 141.025C30.0372 147.252 40.8635 150.96 52.5893 150.96C64.3151 150.96 75.1415 147.252 81.6355 141.025V98.525H23.5397V141.025Z" fill="#00002C"/>
<path d="M78.2407 98.3329C77.8158 98.3329 77.4726 97.9886 77.4726 97.5648V86.4186C77.4726 72.6997 66.3099 61.5385 52.5907 61.5385C38.8715 61.5385 27.71 72.6997 27.71 86.4186V97.5648C27.71 97.9897 27.3656 98.3329 26.9407 98.3329C26.5157 98.3329 26.1714 97.9886 26.1714 97.5648V86.4186C26.1714 71.8521 38.0227 60 52.5895 60C67.1564 60 79.01 71.8521 79.01 86.4186V97.5648C79.01 97.9897 78.6645 98.3329 78.2407 98.3329Z" fill="#00002C"/>
<path d="M69.5605 98.3329C69.1356 98.3329 68.7924 97.9886 68.7924 97.5648V86.4186C68.7924 77.4857 61.5234 70.2192 52.5902 70.2192C43.6571 70.2192 36.387 77.4857 36.387 86.4186V97.5648C36.387 97.9897 36.0415 98.3329 35.6165 98.3329C35.1916 98.3329 34.8484 97.9886 34.8484 97.5648V86.4186C34.8484 76.637 42.8072 68.6807 52.5914 68.6807C62.3756 68.6807 70.3332 76.637 70.3332 86.4186V97.5648C70.3332 97.9897 69.9878 98.3329 69.5628 98.3329H69.5605Z" fill="#00002C"/>
<path d="M48.9326 119.74L47.8398 135.04H57.6749L56.2178 119.74C59.4963 117.919 61.3177 109.905 52.5753 108.448C43.5922 106.951 45.6543 117.919 48.9326 119.74Z" fill="white"/>
<path d="M58.1502 136.432H47.0256C46.8091 136.432 46.6041 136.341 46.4578 136.181C46.3127 136.023 46.2402 135.808 46.2598 135.595L47.6026 120.51C45.9051 119.049 44.9412 116.968 44.9412 114.744C44.9412 110.526 48.3741 107.095 52.5914 107.095C56.8086 107.095 60.2416 110.526 60.2416 114.744C60.2416 116.965 59.2754 119.044 57.579 120.51L58.9184 135.595C58.9379 135.809 58.8665 136.024 58.7203 136.181C58.5752 136.341 58.369 136.432 58.1525 136.432H58.1502ZM47.8674 134.893H57.3096L56.0082 120.239C55.9852 119.979 56.0957 119.724 56.303 119.562C57.8266 118.382 58.7007 116.627 58.7007 114.742C58.7007 111.372 55.9587 108.631 52.5891 108.631C49.2194 108.631 46.4774 111.372 46.4774 114.742C46.4774 116.628 47.3515 118.385 48.8739 119.562C49.0824 119.724 49.1918 119.978 49.1699 120.239L47.8651 134.893H47.8674Z" fill="#00002C"/>
</g>
<defs>
<clipPath id="clip0_4757_9678">
<rect width="159" height="159" fill="white"/>
</clipPath>
</defs>
</svg>
