<svg viewBox="0 0 74 90" xmlns="http://www.w3.org/2000/svg">
  <g transform="translate(-140, -976)" fill="#ED1E45">
    <path d="M177.012059,976.000073 C187.463803,976.126121 195.876095,984.574844 195.999219,994.980016 L196,1005.99907 L213,1006 C213.512836,1006 213.935507,1006.38604 213.993272,1006.88338 L214,1007 L214,1065 C214,1065.55228 213.552285,1066 213,1066 L213,1066 L141,1066 C140.447715,1066 140,1065.55228 140,1065 L140,1065 L140,1007 C140,1006.44772 140.447715,1006 141,1006 L141,1006 L157.999,1005.99907 L157.999427,995.325532 C157.94127,984.759495 166.422591,976.127491 177.012059,976.000073 Z M212,1056.99907 L142,1056.99907 L142,1064 L212,1064 L212,1056.99907 Z M212,1008 L142,1008 L142,1054.99907 L212,1054.99907 L212,1008 Z M169.471761,1024.4931 C170.780185,1020.85144 174.50751,1018.66829 178.323795,1019.30834 C182.140074,1019.94838 184.951192,1023.22812 185.00005,1027.10735 C185.006883,1029.69972 183.777275,1032.12075 181.723117,1033.64663 L181.723117,1033.64663 L181.499,1033.806 L181.5,1040.44 C181.5,1042.85427 179.598763,1044.82449 177.211836,1044.9351 L177.211836,1044.9351 L177,1044.94 C174.514719,1044.94 172.5,1042.92528 172.5,1040.44 L172.5,1040.44 L172.499,1033.811 L172.340802,1033.70139 C169.529624,1031.68998 168.312411,1028.06855 169.386869,1024.74201 L169.386869,1024.74201 Z M177.992985,1021.28079 C175.130771,1020.80075 172.335278,1022.43811 171.353959,1025.16936 C170.372641,1027.90061 171.486842,1030.9427 174.000079,1032.39402 L174.000079,1032.39402 L174.5,1032.68271 L174.5,1040.44 C174.5,1041.82071 175.619288,1042.94 177,1042.94 C178.380712,1042.94 179.5,1041.82071 179.5,1040.44 L179.5,1040.44 L179.5,1032.68913 L179.991577,1032.39889 C181.860998,1031.29513 183.005775,1029.2836 183.000126,1027.1226 C182.963539,1024.22063 180.855197,1021.76082 177.992985,1021.28079 Z M177.012059,977.999927 C167.654916,978.112775 160.122254,985.671099 160.00093,994.994073 L159.999,1005.99907 L194,1005.99907 L194.000303,995.314468 C194.052677,985.847881 186.453888,978.114087 177.012059,977.999927 Z"></path>
  </g>
</svg>
