<svg xmlns="http://www.w3.org/2000/svg" width="23" height="23" fill="none"><path fill="#333" d="M11.38 22.201C5.332 22.201.423 17.292.423 11.244.423 5.196 5.332.287 11.38.287c6.048 0 10.957 4.91 10.957 10.957 0 6.048-4.91 10.957-10.957 10.957Zm0-1.826a9.123 9.123 0 0 0 9.13-9.13 9.123 9.123 0 0 0-9.13-9.132 9.123 9.123 0 0 0-9.131 9.131 9.123 9.123 0 0 0 9.13 9.131Zm-.01-9.464c-1.526-.01-2.762-1.3-2.762-3.018 0-1.612 1.236-2.944 2.761-2.944 1.526 0 2.76 1.332 2.76 2.944 0 1.718-1.234 3.029-2.76 3.018Zm-4.91 5.78c-.43 0-.634-.29-.634-.677 0-1.182 1.773-4.233 5.543-4.233 3.77 0 5.543 3.051 5.543 4.233 0 .386-.204.676-.634.676H6.46Z"/></svg>