<svg width="459px" height="467px" viewBox="0 0 459 467" xmlns="http://www.w3.org/2000/svg" xmlns:xlink="http://www.w3.org/1999/xlink">
  <defs>
    <linearGradient x1="50%" y1="100%" x2="50%" y2="3.061617e-15%" id="gradient-1">
      <stop stop-color="#7EA8CD" offset="0"></stop>
      <stop stop-color="#27405C" offset="100%"></stop>
    </linearGradient>
    <filter x="-9.7%" y="-9.7%" width="119.4%" height="119.4%" filterUnits="objectBoundingBox" id="filter-2">
      <feOffset dx="0" dy="0" in="SourceAlpha" result="shadowOffsetOuter1"></feOffset>
      <feGaussianBlur stdDeviation="6.5" in="shadowOffsetOuter1" result="shadowBlurOuter1"></feGaussianBlur>
      <feColorMatrix values="0 0 0 0 0   0 0 0 0 0   0 0 0 0 0  0 0 0 0.2 0" type="matrix" in="shadowBlurOuter1" result="shadowMatrixOuter1"></feColorMatrix>
      <feMerge>
        <feMergeNode in="shadowMatrixOuter1"></feMergeNode>
        <feMergeNode in="SourceGraphic"></feMergeNode>
      </feMerge>
    </filter>
    <linearGradient x1="50%" y1="22.5967824%" x2="50%" y2="50%" id="gradient-3">
        <stop stop-color="#8496B2" offset="0"></stop>
        <stop stop-color="#4D5D7A" offset="100%"></stop>
    </linearGradient>
    <linearGradient x1="31.5749658%" y1="23.0013442%" x2="31.5749658%" y2="88.3470057%" id="gradient-4">
        <stop stop-color="#F7407B" offset="0"></stop>
        <stop stop-color="#ED1E45" offset="100%"></stop>
    </linearGradient>
    <polygon id="path-5" points="104.722989 299.350504 3.09913642 198.166209 0.603363339 55.1834651 53.34012 0.539423316 347.888553 168.737655 348.404103 198.273451 247.731401 299.350504"></polygon>
    <linearGradient x1="46.0987398%" y1="46.9071565%" x2="37.6279627%" y2="57.678605%" id="gradient-7">
        <stop stop-color="#A8B8CA" offset="0"></stop>
        <stop stop-color="#E6F0FA" offset="100%"></stop>
    </linearGradient>
  </defs>
  <g id="Landings" stroke="none" stroke-width="1" fill="none" fill-rule="evenodd">
      <g id="Partnership_landing" transform="translate(-838, -1351)">
          <g id="logo-update" transform="translate(842, 1366)">
              <polygon id="Fill-1" fill="#D8D9D9" points="163.017159 0.00116639997 50.0007776 113.017547 50.0007776 272.849335 163.017159 385.865716 322.845058 385.865716 435.865327 272.849335 435.865327 113.017547 322.845058 0.00116639997"></polygon>
              <polygon id="Fill-2" fill="#FFF" points="164.073917 2.54858393 52.5466399 114.071973 52.5466399 271.792577 164.073917 383.315966 321.794521 383.315966 433.31791 271.792577 433.31791 114.071973 321.794521 2.54858393"></polygon>
              <polygon id="Fill-3" fill="url(#gradient-1)" points="171.428846 365.557526 70.3058571 264.434537 70.3058571 121.430013 171.428846 20.3070235 314.437259 20.3070235 415.55636 121.430013 415.55636 264.434537 314.437259 365.557526"></polygon>
              <g id="gear" filter="url(#filter-2)" transform="translate(247.131809, 192.737796) rotate(32) translate(-247.131809, -192.737796) translate(115.631809, 61.237796)" fill-rule="nonzero">
                  <g id="sports-and-competition">
                      <path d="M262.045154,144.464512 L262.045154,118.335481 L252.629993,118.335481 C251.7808,110.374836 250.178219,102.636288 247.870155,95.206933 L255.221122,92.075804 L245.5708,69.4088691 L238.198058,72.5487078 C234.6358,66.0991918 230.511768,60.0024178 225.882575,54.3367728 L231.561284,48.6580632 L214.14193,31.2387088 L208.46322,36.9174184 C202.79322,32.288225 196.700801,28.1641928 190.251285,24.6019348 L193.391124,17.2291931 L170.724189,7.57451593 L167.59306,14.9254835 C160.163705,12.6217739 152.425157,11.0191933 144.464512,10.1699997 L144.464512,0.75483869 L118.335481,0.75483869 L118.335481,10.1699997 C110.374836,11.0191933 102.636288,12.6217739 95.206933,14.9298383 L92.075804,7.57451593 L69.4088691,17.2248383 L72.5487078,24.59758 C66.0991918,28.159838 60.0024178,32.2838701 54.3367728,36.9130635 L48.6580632,31.2387088 L31.2387088,48.6580632 L36.9174184,54.3367728 C32.288225,60.0067726 28.1641928,66.0991918 24.6019348,72.5487078 L17.2291931,69.4088691 L7.57887077,92.075804 L14.9298383,95.206933 C12.6217739,102.636288 11.0191933,110.374836 10.1699997,118.335481 L0.75483869,118.335481 L0.75483869,144.464512 L10.1699997,144.464512 C11.0191933,152.425157 12.6217739,160.163705 14.9298383,167.59306 L7.57887077,170.724189 L17.2291931,193.391124 L24.6019348,190.251285 C28.1641928,196.700801 32.288225,202.797575 36.9174184,208.46322 L31.2387088,214.14193 L48.6580632,231.561284 L54.3367728,225.882575 C60.0067726,230.511768 66.0991918,234.6358 72.5487078,238.198058 L69.4088691,245.5708 L92.075804,255.221122 L95.206933,247.870155 C102.636288,250.178219 110.374836,251.7808 118.335481,252.629993 L118.335481,262.045154 L144.464512,262.045154 L144.464512,252.629993 C152.425157,251.7808 160.163705,250.178219 167.59306,247.870155 L170.724189,255.221122 L193.391124,245.5708 L190.251285,238.198058 C196.700801,234.6358 202.797575,230.511768 208.46322,225.882575 L214.14193,231.561284 L231.561284,214.14193 L225.882575,208.46322 C230.511768,202.79322 234.6358,196.700801 238.198058,190.251285 L245.5708,193.391124 L255.221122,170.724189 L247.870155,167.59306 C250.178219,160.163705 251.7808,152.425157 252.629993,144.464512 L262.045154,144.464512 Z M45.7577407,174.390963 C39.2559667,161.461447 35.5935474,146.859674 35.5935474,131.399997 C35.5935474,87.6208041 64.9538692,50.7048374 105.057578,39.2603215 L121.71919,93.4127395 C104.757094,97.7196748 92.2064492,113.09661 92.2064492,131.399997 C92.2064492,139.735158 94.8106426,147.464996 99.2438683,153.818706 L45.7577407,174.390963 Z M131.399997,109.625804 C143.423706,109.625804 153.174189,119.376287 153.174189,131.399997 C153.174189,143.423706 143.423706,153.174189 131.399997,153.174189 C119.376287,153.174189 109.625804,143.423706 109.625804,131.399997 C109.625804,119.376287 119.376287,109.625804 131.399997,109.625804 Z M131.399997,227.206446 C115.94032,227.206446 101.338546,223.544026 88.4090299,217.042252 L108.981287,163.55177 C115.334997,167.98935 123.064835,170.593544 131.399997,170.593544 C139.735158,170.593544 147.464996,167.98935 153.818706,163.556125 L174.390963,217.046607 C161.461447,223.544026 146.859674,227.206446 131.399997,227.206446 L131.399997,227.206446 Z M217.042252,174.390963 L163.55177,153.818706 C167.98935,147.464996 170.593544,139.735158 170.593544,131.399997 C170.593544,113.09661 158.042899,97.7196748 141.080803,93.4127395 L157.742415,39.2603215 C197.846124,50.7048374 227.206446,87.6208041 227.206446,131.399997 C227.206446,146.859674 223.544026,161.461447 217.042252,174.390963 L217.042252,174.390963 Z" id="Shape" fill="url(#gradient-3)"></path>
                      <circle id="Oval" fill="#4D5D7A" cx="66.0774176" cy="196.722575" r="8.70967719"></circle>
                      <circle id="Oval" fill="#4D5D7A" cx="131.399997" cy="44.3032246" r="8.70967719"></circle>
                  </g>
                  <circle id="Oval" fill="#FFFFFF" cx="126.899997" cy="135.899996" r="4.49999988"></circle>
              </g>
              <g id="cover" transform="translate(242.521232, 219.267021) rotate(1) translate(-242.521232, -219.267021) translate(68.021232, 69.267021)">
                  <mask id="mask-6" fill="white">
                      <use xlink:href="#path-5"></use>
                  </mask>
                  <use id="Mask" fill="url(#gradient-4)" xlink:href="#path-5"></use>
                  <path d="M81.919481,136.45264 L79.2173211,124.01104 C77.5338171,117.242032 75.9125212,110.05312 74.3534332,102.448192 C72.7904573,94.8471527 71.2274813,87.5182729 69.6683934,80.4693291 L68.9491134,80.4693291 C67.5066654,87.6582409 66.0331135,95.0182247 64.5362335,102.553168 C63.0315775,110.088112 61.4413856,117.242032 59.7617696,124.01104 L56.8768737,136.45264 L81.919481,136.45264 Z M87.3238009,160.297743 L51.4725538,160.297743 L44.26809,192.43595 L17.2464907,192.43595 L53.9958658,57.2463057 L85.8813529,57.2463057 L122.634616,192.43595 L94.5282647,192.43595 L87.3238009,160.297743 Z" id="Fill-4" fill="#FFFFFF" mask="url(#mask-6)"></path>
                  <path d="M180.461227,168.798466 C194.990683,168.798466 202.257355,162.64765 202.257355,150.346018 C202.257355,144.401267 200.457211,140.081699 196.853035,137.387315 C193.248859,134.689043 187.782331,133.343795 180.461227,133.343795 L165.50798,133.343795 L165.50798,168.798466 L180.461227,168.798466 Z M177.937915,111.777059 C184.423099,111.777059 189.135355,110.295731 192.078571,107.321412 C195.021787,104.35098 196.495339,100.30746 196.495339,95.1908519 C196.495339,90.078132 194.990683,86.4156361 191.989147,84.2033642 C188.987611,81.9910922 184.360891,80.8830123 178.116763,80.8830123 L165.50798,80.8830123 L165.50798,111.777059 L177.937915,111.777059 Z M139.026812,57.2478609 L179.197627,57.2478609 C185.325115,57.2478609 190.997707,57.7649649 196.223179,58.8030608 C201.448651,59.8411568 206.009275,61.6724048 209.916714,64.2968047 C213.816378,66.9250926 216.880122,70.3815245 219.104058,74.6622124 C221.324106,78.9506763 222.436074,84.3433322 222.436074,90.836292 C222.436074,93.8805959 222.043386,96.9210118 221.265786,99.9614278 C220.48041,103.001844 219.310122,105.836196 217.751034,108.460596 C216.188058,111.088883 214.146858,113.437235 211.627434,115.509539 C209.104122,117.585731 206.160907,119.105939 202.797787,120.074051 L202.797787,120.902195 C211.203642,122.698451 217.541082,126.158771 221.806218,131.267603 C226.067466,136.384211 228.19809,143.503139 228.19809,152.624386 C228.19809,159.53725 227.027802,165.482002 224.687226,170.458642 C222.34665,175.435282 219.104058,179.548786 214.95945,182.795266 C210.814842,186.045633 205.978171,188.463969 200.457211,190.050273 C194.932363,191.644353 188.987611,192.437505 182.622955,192.437505 L139.026812,192.437505 L139.026812,57.2478609 Z" id="Fill-6" fill="#FFFFFF" mask="url(#mask-6)"></path>
                  <path d="M287.648719,122.353197 C302.061534,122.353197 309.265998,115.168173 309.265998,100.790349 C309.265998,93.7414055 307.43475,88.7647656 303.772254,85.8604297 C300.10587,82.9560938 294.732655,81.5058698 287.648719,81.5058698 L272.878207,81.5058698 L272.878207,122.353197 L287.648719,122.353197 Z M246.393152,57.2486385 L289.270015,57.2486385 C295.634671,57.2486385 301.610526,57.9718065 307.193694,59.4259184 C312.78075,60.8761424 317.644638,63.2944783 321.785358,66.6809262 C325.929966,70.0712621 329.199774,74.561902 331.606446,80.1606219 C334.005342,85.7554537 335.206734,92.6333255 335.206734,100.790349 C335.206734,108.667437 333.974238,115.510317 331.513134,121.315101 C329.05203,127.123773 325.720014,131.890461 321.517086,135.62294 C317.31027,139.35542 312.446382,142.123676 306.925422,143.916044 C301.396686,145.716188 295.514143,146.614316 289.270015,146.614316 L272.878207,146.614316 L272.878207,192.434395 L246.393152,192.434395 L246.393152,57.2486385 Z" id="Fill-8" fill="#FFFFFF" mask="url(#mask-6)"></path>
                  <polygon id="Path-2" fill="url(#gradient-7)" mask="url(#mask-6)" points="53.34012 0.539423316 347.888553 168.737655 272.878207 203.159909 131.250783 180.725289 56.8768737 80.4693291"></polygon>
              </g>
              <g id="Group" transform="translate(0, 266)">
                  <circle id="Oval" stroke="#FFF" stroke-width="7.28000028" fill="#314C69" cx="91.0000035" cy="91.0000035" r="91.0000035"></circle>
                  <g id="001-help" transform="translate(57.200003, 57.200003)" fill="#FFF" fill-rule="nonzero">
                      <path d="M66.5600047,45.0450031 C66.5600047,36.7854323 61.8216059,29.4140255 54.7249258,25.8283612 C54.5045351,41.6650029 41.6650029,54.5045351 25.8283612,54.7249258 C29.4140255,61.8216059 36.7854323,66.5600047 45.0450031,66.5600047 C48.9175815,66.5600047 52.6835192,65.5286374 55.9924259,63.5689889 L66.4660594,66.4660594 L63.5689889,55.9924259 C65.5286374,52.6835192 66.5600047,48.9175815 66.5600047,45.0450031 L66.5600047,45.0450031 Z" id="Path"></path>
                      <path d="M50.8300036,25.4150018 C50.8300036,11.4008993 39.4291043,0 25.4150018,0 C11.4008993,0 0,11.4008993 0,25.4150018 C0,29.9822677 1.21570315,34.4291821 3.524219,38.3332449 L0.0934375065,50.7360583 L12.4967587,47.3057846 C16.4008214,49.6143004 20.8477359,50.8300036 25.4150018,50.8300036 C39.4291043,50.8300036 50.8300036,39.4291043 50.8300036,25.4150018 Z M21.5150015,19.5000014 L17.6150012,19.5000014 C17.6150012,15.1988291 21.1138295,11.7000008 25.4150018,11.7000008 C29.716174,11.7000008 33.2150023,15.1988291 33.2150023,19.5000014 C33.2150023,21.6830875 32.2907835,23.7813689 30.6784787,25.2560565 L27.3650019,28.2887129 L27.3650019,31.3300022 L23.4650016,31.3300022 L23.4650016,26.5712909 L28.0454707,22.3787906 C28.8640645,21.6297671 29.315002,20.6075405 29.315002,19.5000014 C29.315002,17.3494152 27.5655879,15.6000011 25.4150018,15.6000011 C23.2644157,15.6000011 21.5150015,17.3494152 21.5150015,19.5000014 Z M23.4650016,35.2300025 L27.3650019,35.2300025 L27.3650019,39.1300027 L23.4650016,39.1300027 L23.4650016,35.2300025 Z" id="Shape"></path>
                  </g>
              </g>
          </g>
      </g>
  </g>
</svg>
