<svg xmlns="http://www.w3.org/2000/svg" viewBox="0 0 60 60"><defs><style>.a{opacity:0.6;}.b{fill:#fff;}.c{fill:#bfbfbf;}.d{fill:#7d7d7d;}</style></defs><g transform="translate(-5 -3)"><path class="a" d="M5,3H65V63H5Z"/><path class="b" d="M5,3H65V63H5Z"/><path class="c" d="M8.988,180.771c11.463-5.854,11.707-5.854,25.854-8.293,4.146-2.439,23.171,4.878,31.707,7.317v9.756H8.5l.366-8.78Z" transform="translate(-2.646 -127.771)"/><path class="d" d="M5,3H65V63H5ZM63.78,52.024a9.742,9.742,0,0,0-3.9,1.463,3.279,3.279,0,0,1-.488,2.2c-1.951-6.829-8.537-8.537-13.415-5.122l.732-2.2C36.951,41.049,27.2,45.439,22.073,51.78c0,0-.244-1.22,1.22-3.415-3.171-1.463-8.78.732-10.244,2.683L15,52.756c-2.927-1.22-6.585-.244-8.78.488V61.78H63.78V52.024ZM25.488,29.1H44.756v15.61l1.463.976h8.049v-17.8c0-6.585-6.585-8.537-9.756-8.537H15.976V45.683h9.512Zm14.39,14.146V33.976H30.366v9.268A20.587,20.587,0,0,1,39.878,43Z"/></g></svg>