<svg xmlns="http://www.w3.org/2000/svg" width="30" height="30.002" viewBox="0 0 30 30.002"><defs><style>.a{fill:#fff;}</style></defs><g transform="translate(-0.019)"><g transform="translate(0.019)"><path class="a" d="M25.617,4.4A15,15,0,0,0,3.461,24.566a5.739,5.739,0,0,1-2.4,2.664,1.407,1.407,0,0,0,.406,2.651,7.752,7.752,0,0,0,1.186.089A8.955,8.955,0,0,0,7.926,28.22,15,15,0,0,0,25.617,4.4Zm-1.212,20A13.285,13.285,0,0,1,8.281,26.463a.853.853,0,0,0-1.04.133.282.282,0,0,0-.07.051,7.323,7.323,0,0,1-4.523,1.611H2.642a8.4,8.4,0,0,0,2.575-3.419.876.876,0,0,0,.044-.552.89.89,0,0,0-.209-.482,13.286,13.286,0,1,1,19.352.59Z" transform="translate(-0.019)"/><circle class="a" cx="1.053" cy="1.053" r="1.053" transform="translate(13.94 13.948)"/><circle class="a" cx="1.053" cy="1.053" r="1.053" transform="translate(19.369 13.948)"/><circle class="a" cx="1.053" cy="1.053" r="1.053" transform="translate(8.51 13.948)"/></g></g></svg>