<svg viewBox="0 0 53 95" xmlns="http://www.w3.org/2000/svg">
    <g transform="translate(-140, -1401)" fill="#ED1E45">
      <path d="M176,1401 C177.104569,1401 178,1401.89543 178,1403 L178,1404 L184,1404 C188.881803,1404 192.855791,1407.88681 192.996163,1412.73464 L193,1413 L193,1487 C193,1491.8818 189.113186,1495.85579 184.265362,1495.99616 L184,1496 L149,1496 C144.118197,1496 140.144209,1492.11319 140.003837,1487.26536 L140,1487 L140,1413 C140,1408.1182 143.886814,1404.14421 148.734638,1404.00384 L149,1404 L155,1404 L155,1403 C155,1401.89543 155.895431,1401 157,1401 L176,1401 Z M184,1406 L149,1406 C145.214548,1406 142.130901,1409.00478 142.004059,1412.75935 L142,1413 L142,1487 C142,1490.78545 145.004783,1493.8691 148.75935,1493.99594 L149,1494 L184,1494 C187.785452,1494 190.869099,1490.99522 190.995941,1487.24065 L191,1487 L191,1413 C191,1409.21455 187.995217,1406.1309 184.24065,1406.00406 L184,1406 Z M175.589353,1427.5414 L166.647091,1446.35567 L183.389831,1446.35567 L151.805105,1473.5414 L166.647091,1452.64483 L149.389831,1452.64483 L175.589353,1427.5414 Z M155.357,1465.5 L154.022,1467.5 L143.5,1467.5 L143.5,1465.5 L155.357,1465.5 Z M189.5,1465.5 L189.5,1467.5 L160.918,1467.5 L163.341,1465.5 L189.5,1465.5 Z M165.934,1434.5 L163.755,1436.5 L143.5,1436.5 L143.5,1434.5 L165.934,1434.5 Z M189.5,1434.5 L189.5,1436.5 L173.561,1436.5 L174.426,1434.5 L189.5,1434.5 Z"></path>
    </g>
</svg>
