<svg xmlns="http://www.w3.org/2000/svg" width="122.141" height="241.721" viewBox="0 0 122.141 241.721"><defs><style>.a{fill:#414042;}.b{fill:#ec2146;}.c{fill:#808285;}.d{fill:#58595b;}.e{fill:#fff;}.f{fill:#d8d9da;}</style></defs><path class="a" d="M122.141,223.781c0,9.757-8.533,17.94-19.074,17.94H19.074C8.533,241.721,0,233.7,0,223.781V17.94C0,8.026,8.533,0,19.074,0h83.993c10.374,0,19.074,8.026,19.074,17.94Z"/><rect class="b" width="104.238" height="172.62" transform="translate(9.035 35.136)"/><path class="c" d="M48.466,145.733a8.533,8.533,0,1,1-8.533-8.533A8.569,8.569,0,0,1,48.466,145.733Z" transform="translate(21.137 77.081)"/><path class="d" d="M50.482,14.816a2.573,2.573,0,0,1-2.51,2.51H31.91a2.573,2.573,0,0,1-2.51-2.51h0a2.573,2.573,0,0,1,2.51-2.51H47.972a2.368,2.368,0,0,1,2.51,2.51Z" transform="translate(19.791 8.273)"/><path class="b" d="M200.367,176.712,184.455,160.8H161.912L146,176.712v22.543l15.912,15.912h22.542l15.912-15.912V176.712Z" transform="translate(-112.076 -67.62)"/><path class="e" d="M182.643,158.962l15.912,15.912v22.543L182.643,213.33H160.1l-15.839-15.912V174.875l15.912-15.912h22.469m2.063-4.862h-26.52L139.4,172.886v26.521l18.785,18.786h26.52l18.785-18.786V172.886Z" transform="translate(-110.339 -65.856)"/><g transform="translate(34.66 108.724)"><path class="e" d="M158.64,199.065h-5.967l-1.179,5.3H147l6.114-22.469h5.3l6.114,22.469h-4.641Zm-.884-3.978-.442-2.063c-.295-1.105-.516-2.357-.81-3.61-.221-1.252-.516-2.5-.81-3.683h-.147c-.221,1.179-.516,2.431-.737,3.683s-.516,2.431-.81,3.536l-.442,2.063h4.2Z" transform="translate(-147 -181.9)"/><path class="e" d="M174.474,182h6.7a17.242,17.242,0,0,1,2.8.221,6.686,6.686,0,0,1,2.284.884,4.854,4.854,0,0,1,1.547,1.694,6.63,6.63,0,0,1,.295,4.273,4.709,4.709,0,0,1-.589,1.4,5.16,5.16,0,0,1-1.031,1.179,3.965,3.965,0,0,1-1.473.737v.147a4.694,4.694,0,0,1,4.2,5.23,6.6,6.6,0,0,1-.589,2.947A6.3,6.3,0,0,1,187,202.775a7.448,7.448,0,0,1-2.431,1.179,8.11,8.11,0,0,1-2.947.368H174.4L174.474,182Zm6.409,9.061a3.353,3.353,0,0,0,2.357-.737,2.781,2.781,0,0,0,.737-1.989,2.2,2.2,0,0,0-.737-1.842,3.512,3.512,0,0,0-2.284-.516h-2.063v5.157Zm.442,9.43c2.431,0,3.61-1.031,3.61-3.094a2.593,2.593,0,0,0-.884-2.136,4.432,4.432,0,0,0-2.726-.663h-2.5v5.894Z" transform="translate(-154.215 -181.926)"/><path class="e" d="M198.674,182h7.146a12.91,12.91,0,0,1,2.947.368,7.449,7.449,0,0,1,2.431,1.179,5.933,5.933,0,0,1,1.621,2.21,7.854,7.854,0,0,1,.589,3.389,8.644,8.644,0,0,1-.589,3.389,6.642,6.642,0,0,1-1.694,2.357,8.038,8.038,0,0,1-2.431,1.4,9.845,9.845,0,0,1-2.947.442H203.02v7.588H198.6V182Zm6.851,10.829a3.264,3.264,0,0,0,3.61-2.652,1.8,1.8,0,0,0,0-.884,3.115,3.115,0,0,0-.884-2.5,4.272,4.272,0,0,0-2.652-.737h-2.431v6.777Z" transform="translate(-160.587 -181.926)"/></g><path class="f" d="M184.164,155.426l18.049,18.049v25.489l-18.049,18.049H158.675l-18.049-18.049V173.475l18.049-18.049h25.489m.516-1.326H158.085L139.3,172.886v26.521l18.785,18.786h26.52l18.785-18.786V172.886L184.679,154.1Z" transform="translate(-110.312 -65.856)"/></svg>