<?xml version="1.0" encoding="utf-8"?>
<!-- Generator: Adobe Illustrator 23.1.0, SVG Export Plug-In . SVG Version: 6.00 Build 0)  -->
<svg version="1.1" id="Capa_1" xmlns="http://www.w3.org/2000/svg" xmlns:xlink="http://www.w3.org/1999/xlink" x="0px" y="0px"
	 viewBox="0 0 512 512" style="enable-background:new 0 0 512 512;" xml:space="preserve">
<style type="text/css">
	.st0{fill:#FFFFFF;}
</style>
<path class="st0" d="M19.4,227.4h0.3c3-24,8.6-47,16.7-69.1s19.1-42.7,32.9-62.1s29.8-36.1,47.9-50.3s39.4-25.4,63.9-33.6
	S232.1,0,260.3,0c44.1,0,83.5,10,118.4,30.2s62.9,49.1,84.1,86.8c19.8,35.6,29.8,77.8,29.8,126.4v53.8H170.7
	c0.2,21.2,5.3,39.5,15.3,55.1s23,27.2,39,35s34.1,13.2,54.2,16.3s40.4,3.3,60.9,0.9s40.3-6.9,59.5-13.3
	c19.2-6.4,35.7-14.4,49.6-24.2v107.8c-17.5,10.5-39.4,19.3-65.6,26.3c-26.2,7-56,10.7-89.4,10.9s-63.5-4.9-90.4-15.2
	c-36-13.9-65.7-37.7-89.1-71.2s-35.2-69.1-35.6-106.4c-0.6-46.1,10-85.4,31.7-117.8s52.7-58,93-76.7c-9.2,11.5-16.6,23.4-22.3,35.9
	s-10.1,27.7-13.2,45.6h181.6c1.5-14.7,0.8-28-2.3-40c-3-12-7.5-21.7-13.4-29s-12.6-13.7-20.2-19c-7.5-5.3-15.2-9.2-23-11.7
	c-7.8-2.5-15-4.4-21.4-5.9s-11.8-2.2-16-2.4l-6.3-0.4c-25.7,1-50.5,5.2-74.2,12.7s-45,17.5-63.9,29.9s-35.7,25.8-50.3,40.2
	S31.1,210.6,19.4,227.4z"/>
</svg>
