<svg width="184" height="33" viewBox="0 0 184 33" fill="none" xmlns="http://www.w3.org/2000/svg">
<path fill-rule="evenodd" clip-rule="evenodd" d="M9.65145 0.00012207L0 9.59256V23.1586L9.65145 32.751H23.3005L32.9523 23.1586V9.59256L23.3005 0.00012207H9.65145Z" fill="#D8D9D9"/>
<path fill-rule="evenodd" clip-rule="evenodd" d="M9.74181 0.216309L0.217529 9.68203V23.0688L9.74181 32.5345H23.211L32.7349 23.0688V9.68203L23.211 0.216309H9.74181Z" fill="white"/>
<path fill-rule="evenodd" clip-rule="evenodd" d="M10.3699 31.0273L1.73413 22.4443V10.3066L10.3699 1.72363H22.5827L31.2181 10.3066V22.4443L22.5827 31.0273H10.3699Z" fill="#ED1E45"/>
<path fill-rule="evenodd" clip-rule="evenodd" d="M8.42239 17.2011L8.19163 16.1451C8.04786 15.5705 7.90941 14.9604 7.77626 14.3149C7.64279 13.6697 7.50931 13.0477 7.37617 12.4494H7.31474C7.19156 13.0596 7.06572 13.6843 6.93789 14.3238C6.80939 14.9633 6.67359 15.5705 6.53015 16.1451L6.28379 17.2011H8.42239ZM8.88391 19.225H5.82227L5.20701 21.9527H2.89941L6.03775 10.4783H8.76073L11.8994 21.9527H9.49917L8.88391 19.225Z" fill="white"/>
<path fill-rule="evenodd" clip-rule="evenodd" d="M16.8377 19.9465C18.0785 19.9465 18.6991 19.4244 18.6991 18.3803C18.6991 17.8757 18.5454 17.5091 18.2376 17.2804C17.9298 17.0514 17.4629 16.9372 16.8377 16.9372H15.5607V19.9465H16.8377ZM16.6222 15.1067C17.1761 15.1067 17.5785 14.9809 17.8298 14.7285C18.0812 14.4764 18.207 14.1332 18.207 13.6989C18.207 13.2649 18.0785 12.9541 17.8222 12.7663C17.5659 12.5785 17.1707 12.4845 16.6375 12.4845H15.5607V15.1067H16.6222ZM13.2993 10.4784H16.7298C17.2531 10.4784 17.7375 10.5223 18.1838 10.6104C18.63 10.6985 19.0195 10.854 19.3532 11.0767C19.6862 11.2998 19.9478 11.5932 20.1378 11.9565C20.3274 12.3205 20.4223 12.7782 20.4223 13.3293C20.4223 13.5877 20.3888 13.8457 20.3224 14.1038C20.2553 14.3619 20.1554 14.6024 20.0222 14.8252C19.8887 15.0483 19.7144 15.2476 19.4993 15.4235C19.2838 15.5997 19.0324 15.7287 18.7452 15.8109V15.8812C19.4631 16.0336 20.0043 16.3273 20.3685 16.761C20.7324 17.1952 20.9144 17.7995 20.9144 18.5737C20.9144 19.1604 20.8144 19.665 20.6146 20.0874C20.4147 20.5098 20.1378 20.8589 19.7838 21.1345C19.4299 21.4103 19.0168 21.6156 18.5454 21.7502C18.0735 21.8855 17.5659 21.9529 17.0223 21.9529H13.2993V10.4784Z" fill="white"/>
<path fill-rule="evenodd" clip-rule="evenodd" d="M25.9915 16.0043C27.2223 16.0043 27.8376 15.3945 27.8376 14.1742C27.8376 13.5759 27.6812 13.1535 27.3684 12.907C27.0553 12.6604 26.5964 12.5374 25.9915 12.5374H24.7301V16.0043H25.9915ZM22.4683 10.4785H26.13C26.6735 10.4785 27.1838 10.5399 27.6606 10.6633C28.1377 10.7864 28.5531 10.9916 28.9067 11.2791C29.2607 11.5668 29.5399 11.948 29.7454 12.4232C29.9503 12.898 30.0529 13.4818 30.0529 14.1742C30.0529 14.8427 29.9476 15.4235 29.7375 15.9162C29.5273 16.4092 29.2427 16.8138 28.8838 17.1306C28.5246 17.4474 28.1092 17.6824 27.6377 17.8345C27.1656 17.9873 26.6632 18.0635 26.13 18.0635H24.7301V21.9526H22.4683V10.4785Z" fill="white"/>
<path fill-rule="evenodd" clip-rule="evenodd" d="M64.1543 24.75C64.8901 24.75 65.5788 24.5813 66.2204 24.2439C66.8621 23.9065 67.431 23.5073 67.9272 23.0464H68.0042L68.1839 24.4537H69.9291V6.875H67.7989V11.4919L67.9015 13.5411C67.354 13.1131 66.815 12.7757 66.2846 12.5288C65.7542 12.2819 65.1295 12.1585 64.4109 12.1585C63.6923 12.1585 63.0079 12.3066 62.3577 12.6029C61.7076 12.8992 61.1344 13.3189 60.6381 13.8621C60.1419 14.4052 59.7441 15.0677 59.4447 15.8495C59.1453 16.6314 58.9955 17.5078 58.9955 18.4789C58.9955 20.487 59.4618 22.0342 60.3943 23.1205C61.3268 24.2068 62.5802 24.75 64.1543 24.75ZM48.0693 19.5159L46.4524 24.4537H44.2708L49.9686 8.2576H52.3811L58.0789 24.4537H55.7947L54.2034 19.5159H48.0693ZM48.6083 17.8617H53.6644L52.8688 15.3928C52.5608 14.4875 52.2699 13.5864 51.9962 12.6893C51.7224 11.7923 51.4486 10.8747 51.1749 9.93646H51.0722C50.8155 10.8747 50.5503 11.7923 50.2766 12.6893C50.0028 13.5864 49.7119 14.4875 49.4039 15.3928L48.6083 17.8617ZM62.0754 21.8367C62.6743 22.6432 63.5213 23.0464 64.6163 23.0464C65.1981 23.0464 65.7456 22.9107 66.2589 22.6391C66.7723 22.3675 67.2856 21.9519 67.7989 21.3923V15.1212C67.2685 14.6603 66.7594 14.3353 66.2718 14.146C65.7841 13.9567 65.2836 13.8621 64.7703 13.8621C64.2741 13.8621 63.8079 13.9732 63.3715 14.1954C62.9352 14.4176 62.5545 14.7303 62.2294 15.1335C61.9043 15.5368 61.6477 16.0182 61.4595 16.5779C61.2712 17.1375 61.1771 17.763 61.1771 18.4542C61.1771 19.9027 61.4766 21.0302 62.0754 21.8367ZM79.2898 24.75C80.0084 24.75 80.6928 24.606 81.343 24.3179C81.9932 24.0299 82.5664 23.6061 83.0626 23.0464C83.5588 22.4868 83.9524 21.8038 84.2433 20.9972C84.5341 20.1907 84.6796 19.2772 84.6796 18.2567C84.6796 17.335 84.5726 16.4997 84.3588 15.7508C84.1449 15.0019 83.8282 14.36 83.409 13.825C82.9898 13.2901 82.4723 12.8786 81.8563 12.5906C81.2404 12.3025 80.5303 12.1585 79.7261 12.1585C79.0246 12.1585 78.3401 12.319 77.6728 12.6399C77.0055 12.9609 76.3896 13.36 75.8249 13.8374L75.8762 11.6647V6.875H73.7716V24.4537H75.4656L75.6452 23.2193H75.7222C76.2698 23.6966 76.8558 24.071 77.4803 24.3426C78.1049 24.6142 78.708 24.75 79.2898 24.75ZM77.506 22.7625C78.045 22.9518 78.5198 23.0464 78.9305 23.0464C79.4438 23.0464 79.9186 22.9353 80.3549 22.7131C80.7912 22.4909 81.1676 22.1782 81.4842 21.775C81.8007 21.3717 82.0488 20.8738 82.2285 20.2813C82.4082 19.6887 82.498 19.0221 82.498 18.2814C82.498 17.623 82.4381 17.0223 82.3183 16.4791C82.1985 15.9359 82.0061 15.471 81.7408 15.0842C81.4756 14.6974 81.1334 14.397 80.7142 14.183C80.295 13.969 79.7945 13.8621 79.2128 13.8621C78.2033 13.8621 77.0911 14.4052 75.8762 15.4915V21.7873C76.4238 22.2482 76.967 22.5732 77.506 22.7625ZM89.831 24.75C90.1219 24.75 90.3615 24.7335 90.5497 24.7006C90.7379 24.6677 90.9004 24.6183 91.0373 24.5525L90.755 23.0218C90.6352 23.0547 90.5454 23.0711 90.4855 23.0711H90.293C90.139 23.0711 90.0021 23.0053 89.8824 22.8736C89.7626 22.7419 89.7027 22.5115 89.7027 22.1823V6.875H87.5981V22.0342C87.5981 22.923 87.7692 23.5978 88.1114 24.0587C88.4536 24.5196 89.0268 24.75 89.831 24.75ZM100.821 24.3303C100.128 24.6101 99.397 24.75 98.627 24.75C97.857 24.75 97.1256 24.6101 96.4326 24.3303C95.7396 24.0505 95.1279 23.6431 94.5975 23.1082C94.0671 22.5732 93.6436 21.9149 93.3271 21.133C93.0105 20.3512 92.8521 19.4665 92.8521 18.4789C92.8521 17.4749 93.0105 16.582 93.3271 15.8002C93.6436 15.0183 94.0671 14.3558 94.5975 13.8127C95.1279 13.2695 95.7396 12.858 96.4326 12.5782C97.1256 12.2984 97.857 12.1585 98.627 12.1585C99.397 12.1585 100.128 12.2984 100.821 12.5782C101.514 12.858 102.126 13.2695 102.656 13.8127C103.187 14.3558 103.61 15.0183 103.927 15.8002C104.243 16.582 104.402 17.4749 104.402 18.4789C104.402 19.4665 104.243 20.3512 103.927 21.133C103.61 21.9149 103.187 22.5732 102.656 23.1082C102.126 23.6431 101.514 24.0505 100.821 24.3303ZM98.627 23.0711C98.0966 23.0711 97.609 22.96 97.1641 22.7378C96.7192 22.5156 96.3384 22.2029 96.0219 21.7996C95.7053 21.3964 95.4616 20.9149 95.2905 20.3553C95.1194 19.7957 95.0338 19.1702 95.0338 18.4789C95.0338 17.7876 95.1194 17.1581 95.2905 16.5902C95.4616 16.0224 95.7053 15.5327 96.0219 15.1212C96.3384 14.7097 96.7192 14.3929 97.1641 14.1707C97.609 13.9485 98.0966 13.8374 98.627 13.8374C99.1574 13.8374 99.645 13.9485 100.09 14.1707C100.535 14.3929 100.915 14.7097 101.232 15.1212C101.549 15.5327 101.792 16.0224 101.963 16.5902C102.135 17.1581 102.22 17.7876 102.22 18.4789C102.22 19.1702 102.135 19.7957 101.963 20.3553C101.792 20.9149 101.549 21.3964 101.232 21.7996C100.915 22.2029 100.535 22.5156 100.09 22.7378C99.645 22.96 99.1574 23.0711 98.627 23.0711ZM114.404 24.3426C113.72 24.6142 113.001 24.75 112.248 24.75C111.427 24.75 110.657 24.6101 109.938 24.3303C109.22 24.0505 108.599 23.6431 108.077 23.1082C107.556 22.5732 107.145 21.9149 106.845 21.133C106.546 20.3512 106.396 19.4665 106.396 18.4789C106.396 17.4749 106.559 16.582 106.884 15.8002C107.209 15.0183 107.645 14.3558 108.193 13.8127C108.74 13.2695 109.378 12.858 110.105 12.5782C110.832 12.2984 111.598 12.1585 112.402 12.1585C113.223 12.1585 113.925 12.2984 114.507 12.5782C115.088 12.858 115.602 13.1872 116.047 13.5658L114.969 14.899C114.609 14.5863 114.229 14.3311 113.827 14.1336C113.424 13.9361 112.975 13.8374 112.479 13.8374C111.914 13.8374 111.393 13.9485 110.913 14.1707C110.434 14.3929 110.024 14.7097 109.681 15.1212C109.339 15.5327 109.07 16.0224 108.873 16.5902C108.676 17.1581 108.578 17.7876 108.578 18.4789C108.578 19.1702 108.672 19.7957 108.86 20.3553C109.048 20.9149 109.309 21.3964 109.643 21.7996C109.977 22.2029 110.383 22.5156 110.862 22.7378C111.341 22.96 111.863 23.0711 112.428 23.0711C113.009 23.0711 113.544 22.9518 114.032 22.7131C114.519 22.4745 114.96 22.1906 115.354 21.8614L116.278 23.2193C115.713 23.6966 115.088 24.071 114.404 24.3426ZM120.736 24.4537V21.2935L123.072 18.6765L126.716 24.4537H129.026L124.278 17.2692L128.461 12.4548H126.126L120.813 18.7752H120.736V6.875H118.657V24.4537H120.736ZM134.64 18.9974V24.4537H130.867V8.35635H136.616C137.54 8.35635 138.404 8.44277 139.208 8.61559C140.012 8.78841 140.714 9.07646 141.313 9.47971C141.911 9.88297 142.386 10.4179 142.737 11.0845C143.088 11.7511 143.263 12.57 143.263 13.5411C143.263 14.4793 143.088 15.294 142.737 15.9853C142.386 16.6766 141.911 17.2445 141.313 17.6889C140.714 18.1333 140.021 18.4625 139.234 18.6765C138.447 18.8904 137.608 18.9974 136.718 18.9974H134.64ZM136.487 16.1088H134.64V11.245H136.385C137.411 11.245 138.199 11.4178 138.746 11.7635C139.294 12.1091 139.567 12.7017 139.567 13.5411C139.567 15.2529 138.541 16.1088 136.487 16.1088ZM150.084 24.6636C149.768 24.7212 149.396 24.75 148.968 24.75C148.318 24.75 147.77 24.6512 147.325 24.4537C146.88 24.2562 146.525 23.9805 146.26 23.6266C145.995 23.2728 145.802 22.8448 145.683 22.3428C145.563 21.8408 145.503 21.277 145.503 20.6516V7.14658H149.276V20.7997C149.276 21.1783 149.348 21.4416 149.494 21.5898C149.639 21.7379 149.789 21.812 149.943 21.812H150.161C150.221 21.812 150.302 21.7955 150.405 21.7626L150.867 24.4537C150.662 24.536 150.401 24.606 150.084 24.6636ZM156.315 24.75C157.188 24.75 157.936 24.5731 158.561 24.2192C159.185 23.8653 159.771 23.3756 160.319 22.7502H160.396L160.678 24.4537H163.758V12.2079H159.985V20.3059C159.609 20.7833 159.258 21.1289 158.933 21.3429C158.608 21.5569 158.206 21.6638 157.727 21.6638C157.179 21.6638 156.777 21.4993 156.52 21.1701C156.264 20.8409 156.135 20.2319 156.135 19.3431V12.2079H152.362V19.8122C152.362 21.3593 152.675 22.5691 153.299 23.4415C153.924 24.3138 154.929 24.75 156.315 24.75ZM172.722 24.4414C172.072 24.6471 171.319 24.75 170.463 24.75C169.625 24.75 168.765 24.5936 167.884 24.2809C167.003 23.9682 166.237 23.5567 165.587 23.0464L167.281 20.775C167.863 21.203 168.419 21.5239 168.949 21.7379C169.48 21.9519 170.019 22.0589 170.566 22.0589C171.131 22.0589 171.541 21.9683 171.798 21.7873C172.055 21.6062 172.183 21.3511 172.183 21.0219C172.183 20.8244 172.11 20.6475 171.965 20.4911C171.819 20.3347 171.623 20.1907 171.375 20.059C171.126 19.9274 170.848 19.808 170.54 19.7011C170.232 19.5941 169.916 19.4747 169.591 19.3431C169.197 19.1949 168.804 19.0221 168.41 18.8246C168.017 18.6271 167.657 18.3843 167.332 18.0963C167.007 17.8082 166.742 17.4708 166.537 17.084C166.331 16.6972 166.229 16.2487 166.229 15.7384C166.229 15.1788 166.344 14.6603 166.575 14.183C166.806 13.7057 167.135 13.3024 167.563 12.9732C167.991 12.644 168.504 12.3848 169.103 12.1955C169.702 12.0062 170.369 11.9116 171.105 11.9116C172.08 11.9116 172.936 12.0721 173.672 12.393C174.407 12.714 175.049 13.072 175.597 13.467L173.903 15.6397C173.441 15.3105 172.987 15.0554 172.542 14.8743C172.098 14.6933 171.653 14.6027 171.208 14.6027C170.25 14.6027 169.77 14.9237 169.77 15.5656C169.77 15.7631 169.839 15.9318 169.976 16.0717C170.113 16.2116 170.297 16.3392 170.528 16.4544C170.759 16.5696 171.024 16.6807 171.323 16.7877C171.623 16.8947 171.935 17.0058 172.26 17.121C172.671 17.2692 173.077 17.4379 173.479 17.6272C173.881 17.8164 174.249 18.051 174.583 18.3308C174.916 18.6106 175.186 18.9521 175.391 19.3554C175.597 19.7587 175.699 20.2401 175.699 20.7997C175.699 21.3593 175.588 21.8778 175.366 22.3551C175.143 22.8325 174.81 23.2481 174.365 23.6019C173.92 23.9558 173.372 24.2356 172.722 24.4414Z" fill="black"/>
</svg>
