<?xml version="1.0" encoding="utf-8"?>
<!-- Generator: Adobe Illustrator 21.1.0, SVG Export Plug-In . SVG Version: 6.00 Build 0)  -->
<svg version="1.1" id="Layer_1" xmlns="http://www.w3.org/2000/svg" xmlns:xlink="http://www.w3.org/1999/xlink" x="0px" y="0px"
	 viewBox="0 0 48 48" style="enable-background:new 0 0 48 48;" xml:space="preserve">
<style type="text/css">
	.st0{fill:#FFFFFF;}
</style>
<title>abp-logo</title>
<path class="st0" d="M32.6,3.3l12.2,12.1v17.2L32.6,44.7H15.4L3.3,32.6V15.4L15.4,3.3H32.6 M33.9,0H14.1L0,14.1V34l14.1,14H34
	l14-14.1V14.1L33.9,0z"/>
<g id="ABP">
	<path class="st0" d="M12.9,28.5H8.5l-0.9,4H4.2l4.6-16.8h4l4.6,16.8h-3.5L12.9,28.5z M12.3,25.5L11.9,24c-0.2-0.8-0.4-1.7-0.6-2.7
		c-0.2-0.9-0.4-1.9-0.6-2.7h-0.1L10,21.4c-0.2,0.9-0.4,1.8-0.6,2.7L9,25.6L12.3,25.5z"/>
	<path class="st0" d="M19.4,15.6h5c0.7,0,1.4,0.1,2.1,0.2c0.6,0.1,1.2,0.3,1.7,0.7c0.5,0.3,0.9,0.8,1.1,1.3c0.3,0.6,0.4,1.3,0.4,2
		c0,0.4,0,0.8-0.1,1.2c-0.1,0.4-0.2,0.7-0.4,1c-0.2,0.3-0.5,0.6-0.8,0.9s-0.7,0.5-1.1,0.6v0.1c0.9,0.2,1.7,0.6,2.4,1.3
		c0.6,0.8,0.9,1.7,0.8,2.7c0,0.8-0.1,1.5-0.5,2.2c-0.3,0.6-0.7,1.1-1.2,1.5S27.7,32,27,32.2c-0.7,0.2-1.5,0.3-2.2,0.3h-5.4V15.6z
		 M24.2,22.4c0.6,0.1,1.3-0.1,1.8-0.6c0.4-0.4,0.6-1,0.5-1.5c0-0.5-0.2-1-0.5-1.4c-0.5-0.3-1.1-0.5-1.7-0.4h-1.6v3.8h1.5V22.4z
		 M24.5,29.5c1.8,0,2.7-0.8,2.7-2.3c0.1-0.6-0.2-1.2-0.7-1.6c-0.6-0.4-1.3-0.5-2-0.5h-1.9v4.4H24.5z"/>
	<path class="st0" d="M32.7,15.6H38c0.8,0,1.5,0.1,2.2,0.3s1.3,0.5,1.8,0.9c0.5,0.5,1,1,1.2,1.7c0.3,0.8,0.5,1.7,0.5,2.6
		s-0.1,1.7-0.5,2.5c-0.3,0.7-0.7,1.3-1.2,1.8s-1.2,0.8-1.8,1c-0.7,0.2-1.5,0.3-2.2,0.3h-2v5.7h-3.3V15.6z M37.9,23.8
		c1.3,0.2,2.5-0.7,2.7-2c0-0.2,0-0.5,0-0.7c0.1-0.7-0.2-1.4-0.7-1.9c-0.6-0.4-1.3-0.6-2-0.5H36v5.1H37.9z"/>
</g>
</svg>
