<svg xmlns="http://www.w3.org/2000/svg" viewBox="0 0 60 64.042"><defs><style>.a{fill:#7d7d7d;}</style></defs><g transform="translate(-9.199)"><path class="a" d="M56.422,5.038A30.108,30.108,0,0,0,39.207,0,30.508,30.508,0,0,0,23.228,4.232C14.546,9.447,9.2,19.207,9.2,31.714c0,16.917,12,32.328,30,32.328s30-15.407,30-32.328C69.2,19.823,64.365,10.415,56.422,5.038ZM39.2,5.974c9.657,0,11.993,13.417,11.993,25.6,0,11.293-1.464,26.4-11.877,26.4S27.19,42.723,27.19,31.432C27.192,19.245,29.546,5.974,39.2,5.974Z"/></g></svg>