
<svg width="512" height="511.99" version="1.1" viewBox="0 0 512 511.99" xml:space="preserve" xmlns="http://www.w3.org/2000/svg"><g transform="matrix(6.3999 0 0 -6.3999 .0038399 511.99)"><g transform="scale(.1)"><path d="m268.34 174.58c-44.227 52.207-72.871 129.38-74.82 216-4e-3 0.223-4e-3 18.617 0 18.844 1.949 86.605 30.593 163.79 74.816 215.99 57.387 74.524 142.69 121.77 237.94 121.77 58.606 0 113.43-17.895 160.32-49.004-70.41 63-163.26 101.42-265.09 101.8-0.508 8e-3 -1.004 0.02-1.512 0.02-220.91 0-400-179.09-400-400 0-214.52 168.89-389.59 380.95-399.54 6.317-0.29297 12.664-0.46094 19.051-0.46094 102.41 0 195.81 38.508 266.57 101.8-46.878-31.094-101.7-48.984-160.29-48.984-95.254 0-180.55 47.246-237.94 121.77" fill="#ed1f33"/><path d="m268.34 625.41c36.703 43.332 84.117 69.457 135.91 69.457 116.45 0 210.84-132.02 210.84-294.87s-94.394-294.87-210.84-294.87c-51.789 0-99.203 26.121-135.9 69.453 57.383-74.523 142.68-121.77 237.94-121.77 58.594 0 113.41 17.891 160.29 48.984 81.883 73.242 133.43 179.7 133.43 298.2 0 118.49-51.539 224.93-133.4 298.18-46.887 31.109-101.72 49.004-160.32 49.004-95.254 0-180.55-47.25-237.94-121.77" fill="#a51c21"/></g></g></svg>
