<svg width="358" height="32" viewBox="0 0 358 32" fill="none" xmlns="http://www.w3.org/2000/svg">
<g clip-path="url(#clip0_5293_5919)">
<g clip-path="url(#clip1_5293_5919)">
<path d="M12.7087 21.264L14.4468 11.2256H17.2258L15.4877 21.264H12.7087Z" fill="#0058A0"/>
<path d="M25.5648 11.4718C24.7673 11.1874 23.9249 11.0448 23.0768 11.0506C20.331 11.0506 18.3898 12.4122 18.3898 14.3641C18.3741 15.8064 19.7705 16.6102 20.825 17.091C21.8796 17.5718 22.2702 17.8968 22.2663 18.3372C22.2663 19.0083 21.4012 19.316 20.6024 19.316C19.7011 19.3421 18.8059 19.1618 17.9875 18.7891L17.6301 18.6295L17.2395 20.8775C17.8879 21.1583 19.0889 21.4006 20.3349 21.4121C23.2642 21.4121 25.1527 20.066 25.1742 17.9833C25.1742 16.841 24.4438 15.9718 22.8307 15.2564C21.8542 14.791 21.2684 14.4872 21.2684 14.0103C21.2684 13.5929 21.7722 13.1468 22.86 13.1468C23.5728 13.1322 24.281 13.2632 24.9398 13.5314L25.1898 13.6487L25.5648 11.4718Z" fill="#0058A0"/>
<path d="M32.6908 11.2429H30.5426C29.8767 11.2429 29.3709 11.4218 29.0877 12.0756L24.9612 21.2679H27.8788C27.8788 21.2679 28.3573 20.0294 28.4647 19.7583H32.0229C32.1069 20.1102 32.3608 21.264 32.3608 21.264H34.9406L32.6908 11.2429ZM29.2654 17.7044C29.4939 17.1275 30.3707 14.8987 30.3707 14.8987C30.3707 14.8987 30.5992 14.3218 30.7398 13.9371L30.9351 14.8025L31.5796 17.7006L29.2654 17.7044Z" fill="#0058A0"/>
<path d="M10.3828 11.2429L7.65848 18.0775L7.3675 16.6871C6.86756 15.0891 5.28374 13.3448 3.52026 12.4756L6.00827 21.2563H8.93764L13.3219 11.2429H10.3828Z" fill="#0058A0"/>
<path d="M5.13525 11.2256H0.653316L0.618164 11.4352C4.10411 12.266 6.4105 14.2736 7.36743 16.6871L6.39097 12.0717C6.22497 11.4352 5.7387 11.2429 5.13525 11.2256Z" fill="#FAA61A"/>
</g>
<g clip-path="url(#clip2_5293_5919)">
<path d="M55.4757 24.358C55.3996 24.2829 55.3093 24.2238 55.21 24.184C55.1025 24.1416 54.9879 24.1202 54.8723 24.1212C54.805 24.1217 54.7379 24.1275 54.6716 24.1387C54.6007 24.1496 54.5316 24.1693 54.4656 24.1974C54.3974 24.2271 54.334 24.2667 54.2772 24.3148C54.2137 24.3675 54.1603 24.4313 54.1197 24.5032C54.0492 24.3858 53.9486 24.2894 53.8283 24.2241C53.6991 24.1542 53.5541 24.1188 53.4072 24.1212C53.352 24.1216 53.2969 24.1264 53.2425 24.1356C53.1845 24.1462 53.1279 24.1631 53.0736 24.1861C53.0161 24.2106 52.9624 24.2432 52.914 24.2828C52.86 24.3268 52.8131 24.3789 52.775 24.4373V24.1768H52.3271V26.307H52.7791V25.1261C52.7778 25.0437 52.7925 24.9619 52.8224 24.8852C52.8486 24.819 52.8878 24.7588 52.9377 24.7081C52.9861 24.6622 53.0436 24.6271 53.1066 24.6051C53.1723 24.5801 53.2421 24.5675 53.3125 24.568C53.4462 24.5604 53.5762 24.6134 53.6667 24.7122C53.7572 24.8297 53.8018 24.976 53.7923 25.124V26.3091H54.2443V25.1261C54.243 25.0437 54.2576 24.9619 54.2875 24.8852C54.3138 24.819 54.353 24.7588 54.4028 24.7081C54.4512 24.6622 54.5088 24.6271 54.5717 24.6051C54.6375 24.5802 54.7073 24.5676 54.7776 24.568C54.911 24.5606 55.0407 24.6135 55.1308 24.7122C55.2216 24.8295 55.2666 24.9759 55.2574 25.124V26.3091H55.7084V24.9706C55.7105 24.852 55.6895 24.7342 55.6466 24.6236C55.608 24.5245 55.5499 24.4342 55.4757 24.358Z" fill="#1D1D1B"/>
<path d="M57.8581 24.4351C57.7835 24.3415 57.6893 24.2652 57.5822 24.2117C57.4601 24.1512 57.3251 24.1215 57.1889 24.1252C56.9043 24.1222 56.6309 24.2365 56.4332 24.4413C56.335 24.5432 56.258 24.6636 56.2067 24.7955C56.0968 25.0857 56.0968 25.4061 56.2067 25.6964C56.2578 25.8284 56.3348 25.9488 56.4332 26.0506C56.6321 26.2543 56.9062 26.3671 57.191 26.3625C57.3269 26.3664 57.4619 26.3374 57.5843 26.2781C57.6917 26.2237 57.7859 26.1464 57.8602 26.0516V26.3069H58.3235V24.1767H57.8581V24.4351ZM57.8406 25.5131C57.8116 25.5932 57.7668 25.6668 57.7089 25.7293C57.651 25.7909 57.5808 25.8397 57.5029 25.8724C57.4201 25.9084 57.3306 25.9263 57.2404 25.9249C57.1476 25.9264 57.0556 25.9078 56.9706 25.8704C56.8924 25.8364 56.8222 25.7862 56.7647 25.7231C56.709 25.6599 56.666 25.5865 56.6381 25.5069C56.6081 25.4219 56.5932 25.3324 56.5938 25.2423C56.593 25.1522 56.608 25.0626 56.6381 24.9777C56.666 24.8978 56.709 24.8241 56.7647 24.7605C56.8225 24.6981 56.8927 24.6483 56.9706 24.6143C57.0554 24.5763 57.1475 24.5577 57.2404 24.5597C57.3306 24.5584 57.4201 24.5763 57.5029 24.6122C57.581 24.6446 57.6513 24.6934 57.7089 24.7553C57.7665 24.8177 57.8113 24.8908 57.8406 24.9705C57.8722 25.0576 57.8879 25.1497 57.887 25.2423C57.888 25.3346 57.8723 25.4264 57.8406 25.5131Z" fill="#1D1D1B"/>
<path d="M60.4587 25.2415C60.2979 25.127 60.1103 25.0561 59.914 25.0355L59.6937 25.0026C59.6453 24.9944 59.599 24.9861 59.5557 24.9769C59.5172 24.9684 59.4798 24.9553 59.4445 24.9377C59.4153 24.9228 59.3899 24.9013 59.3704 24.8749C59.3512 24.8479 59.3414 24.8154 59.3426 24.7823C59.3408 24.7069 59.3803 24.6366 59.4455 24.599C59.5353 24.5469 59.6385 24.5226 59.7421 24.529C59.808 24.5286 59.8739 24.5344 59.9387 24.5465C60.0007 24.5575 60.0619 24.5723 60.122 24.5908C60.1757 24.6068 60.2284 24.6264 60.2795 24.6494C60.3207 24.6679 60.3609 24.6885 60.4 24.7112L60.5997 24.3488C60.4794 24.2737 60.3481 24.2177 60.2105 24.183C60.0559 24.1431 59.8967 24.1234 59.7369 24.1243C59.6131 24.1225 59.4897 24.1385 59.3704 24.1717C59.2705 24.1995 59.1765 24.2456 59.0934 24.3076C59.0188 24.364 58.9588 24.4374 58.9184 24.5218C58.8762 24.6108 58.855 24.7084 58.8566 24.807C58.8528 24.9648 58.9201 25.116 59.0399 25.2188C59.1961 25.338 59.3835 25.4095 59.5794 25.4247L59.8018 25.4536C59.9001 25.4622 59.9955 25.4913 60.0818 25.539C60.1362 25.5697 60.1703 25.6269 60.1714 25.6893C60.1705 25.7711 60.1229 25.8451 60.0489 25.8798C59.9358 25.933 59.8112 25.957 59.6865 25.9498C59.6079 25.9503 59.5294 25.9445 59.4517 25.9323C59.3873 25.9215 59.324 25.9053 59.2623 25.8839C59.2091 25.8657 59.1578 25.8426 59.1089 25.815C59.0653 25.7898 59.0233 25.7619 58.9832 25.7316L58.7681 26.0806C58.8426 26.1371 58.9239 26.1842 59.01 26.2206C59.0906 26.2553 59.1739 26.2832 59.2592 26.304C59.3352 26.3237 59.4127 26.3371 59.4908 26.3442C59.5629 26.3514 59.6268 26.3545 59.6824 26.3545C59.8213 26.3563 59.9599 26.339 60.0942 26.303C60.2052 26.2749 60.3099 26.2264 60.4031 26.1599C60.4803 26.1035 60.5437 26.0303 60.5884 25.9457C60.6329 25.8588 60.6555 25.7623 60.6543 25.6646C60.6617 25.5002 60.5888 25.3424 60.4587 25.2415Z" fill="#1D1D1B"/>
<path d="M64.8097 24.4321C64.7214 24.3336 64.6128 24.2553 64.4915 24.2025C64.3614 24.147 64.2211 24.1193 64.0797 24.1212C63.9323 24.1196 63.786 24.1473 63.6493 24.2025C63.5229 24.2547 63.4089 24.333 63.3147 24.4321C63.2188 24.5342 63.1445 24.6547 63.0964 24.7863C63.0436 24.9325 63.0174 25.087 63.0192 25.2424C63.0168 25.3994 63.0437 25.5555 63.0985 25.7026C63.1483 25.8345 63.2247 25.9547 63.3229 26.0558C63.4208 26.1546 63.5383 26.2317 63.6678 26.2823C63.8082 26.3371 63.9578 26.3644 64.1085 26.3626C64.2647 26.3632 64.4202 26.3407 64.5698 26.2957C64.7218 26.2477 64.8621 26.1684 64.9816 26.063L64.751 25.7315C64.6625 25.8024 64.5631 25.8584 64.4565 25.8972C64.3537 25.9354 64.245 25.9553 64.1353 25.9559C64.0614 25.9562 63.9879 25.9458 63.917 25.925C63.8487 25.905 63.7847 25.8721 63.7286 25.8283C63.6701 25.782 63.6208 25.725 63.5834 25.6604C63.5407 25.584 63.5128 25.5001 63.501 25.4133H65.0753C65.0753 25.3866 65.0805 25.3588 65.0825 25.3289C65.0846 25.299 65.0825 25.2692 65.0825 25.2404C65.0847 25.0854 65.0592 24.9313 65.0074 24.7853C64.9646 24.656 64.8975 24.5362 64.8097 24.4321ZM63.5093 25.0602C63.5204 24.9866 63.5415 24.9149 63.5721 24.847C63.6002 24.7855 63.6389 24.7294 63.6864 24.6813C63.7336 24.6337 63.7905 24.5968 63.8532 24.5732C63.9239 24.5465 63.999 24.5336 64.0745 24.5351C64.2091 24.53 64.3399 24.5798 64.437 24.673C64.5372 24.779 64.5998 24.9151 64.6151 25.0602H63.5093Z" fill="#1D1D1B"/>
<path d="M70.9876 24.4353C70.8269 24.2311 70.578 24.1163 70.3183 24.1264C70.0337 24.1235 69.7604 24.2378 69.5626 24.4425C69.4641 24.5444 69.3868 24.6648 69.3351 24.7967C69.2252 25.087 69.2252 25.4074 69.3351 25.6976C69.3866 25.8296 69.4639 25.9501 69.5626 26.0518C69.6584 26.1512 69.7733 26.2303 69.9003 26.2845C70.0324 26.3408 70.1747 26.3692 70.3183 26.3679C70.4543 26.3716 70.5892 26.3427 70.7117 26.2835C70.8189 26.2288 70.9131 26.1515 70.9876 26.0569V26.3123H71.4519V24.1769H70.9876V24.4353ZM70.9691 25.5133C70.9404 25.5934 70.8959 25.6669 70.8383 25.7295C70.7803 25.791 70.7102 25.8397 70.6324 25.8726C70.5499 25.9085 70.4608 25.9264 70.3709 25.9251C70.2777 25.9266 70.1854 25.908 70.1001 25.8706C70.0216 25.837 69.9514 25.7867 69.8942 25.7233C69.8384 25.6601 69.7954 25.5867 69.7675 25.5071C69.7376 25.4221 69.7226 25.3326 69.7232 25.2425C69.7224 25.1524 69.7374 25.0629 69.7675 24.9779C69.7954 24.898 69.8384 24.8243 69.8942 24.7607C69.9517 24.6979 70.0219 24.6481 70.1001 24.6145C70.2703 24.5431 70.4621 24.5431 70.6324 24.6145C70.7104 24.647 70.7806 24.6958 70.8383 24.7576C70.8957 24.82 70.9401 24.8931 70.9691 24.9728C71.0014 25.0597 71.0175 25.1518 71.0164 25.2446C71.016 25.3366 70.9986 25.4277 70.9649 25.5133H70.9691Z" fill="#1D1D1B"/>
<path d="M62.4512 25.8827C62.3805 25.9099 62.3056 25.9242 62.2298 25.9249C62.1849 25.9256 62.1402 25.9179 62.098 25.9023C62.0588 25.8872 62.0236 25.8632 61.9951 25.8323C61.9627 25.7966 61.9381 25.7545 61.923 25.7087C61.9041 25.6499 61.895 25.5883 61.8962 25.5265V24.5998H62.6427V24.1767H61.8962V23.5321H61.4298V24.1767H61.0005V24.5998H61.4257V25.5357C61.4257 25.8189 61.4926 26.0269 61.6316 26.1618C61.7842 26.3025 61.9876 26.375 62.1948 26.3625C62.3191 26.3644 62.4426 26.3434 62.5593 26.3007C62.6275 26.2745 62.6935 26.2432 62.757 26.2071L62.5984 25.8179C62.5507 25.8423 62.5015 25.864 62.4512 25.8827Z" fill="#1D1D1B"/>
<path d="M66.6468 24.1212C66.5249 24.1193 66.4041 24.1439 66.2927 24.1933C66.1839 24.2578 66.093 24.3484 66.028 24.4568V24.1768H65.6069V26.307H66.0332V25.1384C66.0317 25.0562 66.0446 24.9743 66.0713 24.8965C66.093 24.8301 66.1281 24.7687 66.1742 24.7163C66.2181 24.6673 66.2727 24.6292 66.3338 24.6051C66.3993 24.5789 66.4693 24.566 66.5398 24.567C66.601 24.5677 66.6621 24.5746 66.722 24.5876C66.7538 24.5934 66.7852 24.6016 66.8157 24.6123L66.9526 24.1675C66.9154 24.1559 66.8776 24.1462 66.8394 24.1387C66.7758 24.1277 66.7114 24.1219 66.6468 24.1212Z" fill="#1D1D1B"/>
<path d="M73.1066 24.1212C72.9847 24.1192 72.8638 24.1438 72.7524 24.1933C72.6435 24.2575 72.5525 24.3482 72.4878 24.4568V24.1768H72.0657V26.307H72.493V25.1384C72.4917 25.0563 72.5042 24.9745 72.53 24.8965C72.5522 24.8303 72.5872 24.769 72.633 24.7163C72.6768 24.6673 72.7314 24.6292 72.7926 24.6051C72.858 24.5789 72.928 24.566 72.9985 24.567C73.0598 24.5677 73.1208 24.5746 73.1807 24.5876C73.2125 24.5935 73.2438 24.6018 73.2744 24.6123L73.4114 24.1675C73.3738 24.1557 73.3357 24.1461 73.2971 24.1387C73.2342 24.1278 73.1705 24.1219 73.1066 24.1212Z" fill="#1D1D1B"/>
<path d="M75.2769 23.3117V24.435C75.1162 24.2308 74.8673 24.116 74.6077 24.1261C74.3228 24.1235 74.0493 24.2377 73.8509 24.4422C73.7531 24.5444 73.6761 24.6647 73.6244 24.7964C73.5145 25.0867 73.5145 25.4071 73.6244 25.6973C73.6759 25.8291 73.7529 25.9495 73.8509 26.0515C74.0493 26.256 74.3228 26.3702 74.6077 26.3676C74.7436 26.3713 74.8785 26.3424 75.001 26.2832C75.1082 26.2285 75.2024 26.1512 75.2769 26.0566V26.312H75.7413V23.3117H75.2769ZM75.2584 25.513C75.2297 25.5931 75.1852 25.6666 75.1276 25.7292C75.0696 25.7907 74.9995 25.8395 74.9217 25.8723C74.8392 25.9082 74.7501 25.9261 74.6602 25.9249C74.567 25.9263 74.4747 25.9077 74.3894 25.8703C74.3128 25.836 74.2443 25.7858 74.1886 25.7231C74.1321 25.6604 74.089 25.5868 74.062 25.5068C74.0317 25.4219 74.0164 25.3324 74.0167 25.2422C74.0162 25.1521 74.0315 25.0625 74.062 24.9776C74.089 24.8974 74.1321 24.8235 74.1886 24.7604C74.2446 24.6982 74.313 24.6484 74.3894 24.6142C74.5596 24.5428 74.7514 24.5428 74.9217 24.6142C74.9997 24.6467 75.0699 24.6955 75.1276 24.7573C75.185 24.8197 75.2294 24.8928 75.2584 24.9725C75.2902 25.0595 75.3063 25.1516 75.3057 25.2443C75.3061 25.336 75.2901 25.427 75.2584 25.513Z" fill="#1D1D1B"/>
<path d="M67.7588 24.7492C67.8191 24.6888 67.8909 24.6412 67.9699 24.6092C68.0541 24.5757 68.1439 24.5589 68.2345 24.5598C68.3338 24.5589 68.4324 24.5756 68.5259 24.6092C68.6088 24.6396 68.6853 24.6854 68.7514 24.7441L68.9748 24.3724C68.8893 24.3035 68.7938 24.2479 68.6917 24.2076C68.3978 24.0923 68.0712 24.0923 67.7774 24.2076C67.5048 24.314 67.2876 24.5271 67.1761 24.7976C67.0608 25.0829 67.0608 25.4019 67.1761 25.6872C67.2884 25.9571 67.5053 26.17 67.7774 26.2771C68.0715 26.3911 68.3975 26.3911 68.6917 26.2771C68.7934 26.236 68.8888 26.1806 68.9748 26.1124L68.7514 25.7407C68.6853 25.799 68.6088 25.8445 68.5259 25.8746C68.4325 25.9084 68.3339 25.9255 68.2345 25.925C68.1439 25.9255 68.054 25.9083 67.9699 25.8746C67.8906 25.843 67.8188 25.7953 67.7588 25.7345C67.6982 25.6729 67.6506 25.5998 67.6188 25.5193C67.5502 25.3411 67.5502 25.1437 67.6188 24.9654C67.6508 24.8848 67.6984 24.8113 67.7588 24.7492Z" fill="#1D1D1B"/>
<path d="M76.7203 25.9951C76.75 25.9951 76.7795 26.001 76.8068 26.0126C76.8331 26.0237 76.8572 26.0394 76.8779 26.059C76.8982 26.0785 76.9143 26.102 76.9252 26.1279C76.9373 26.1544 76.9433 26.1833 76.9427 26.2124C76.9432 26.2415 76.9372 26.2703 76.9252 26.2968C76.9142 26.3227 76.8981 26.3462 76.8779 26.3658C76.8572 26.3857 76.8332 26.4018 76.8068 26.4131C76.7794 26.4244 76.75 26.43 76.7203 26.4296C76.69 26.4301 76.6599 26.4245 76.6318 26.4131C76.5783 26.3915 76.5354 26.3497 76.5124 26.2968C76.5012 26.2701 76.4956 26.2413 76.4959 26.2124C76.4954 26.1834 76.501 26.1546 76.5124 26.1279C76.5235 26.1021 76.5396 26.0787 76.5597 26.059C76.6032 26.018 76.6606 25.9952 76.7203 25.9951ZM76.7203 26.3699C76.7412 26.37 76.7619 26.3658 76.7811 26.3575C76.7995 26.3494 76.8163 26.3379 76.8305 26.3236C76.8445 26.3093 76.8557 26.2925 76.8634 26.2742C76.8717 26.2546 76.8759 26.2336 76.8758 26.2124C76.876 26.1915 76.8718 26.1708 76.8634 26.1516C76.8559 26.1328 76.8447 26.1157 76.8305 26.1012C76.816 26.0875 76.7993 26.0764 76.7811 26.0682C76.7619 26.06 76.7412 26.0558 76.7203 26.0559C76.6988 26.0557 76.6774 26.0599 76.6575 26.0682C76.6392 26.0761 76.6225 26.0873 76.6081 26.1012C76.5936 26.1156 76.582 26.1327 76.5741 26.1516C76.5661 26.1709 76.5623 26.1916 76.5628 26.2124C76.5624 26.2335 76.5662 26.2545 76.5741 26.2742C76.5823 26.2926 76.5938 26.3093 76.6081 26.3236C76.6221 26.3381 76.639 26.3496 76.6575 26.3575C76.6771 26.3673 76.6985 26.3729 76.7203 26.374V26.3699ZM76.7327 26.1156C76.7542 26.1139 76.7756 26.1205 76.7924 26.1341C76.8065 26.1452 76.8142 26.1626 76.813 26.1805C76.8138 26.1949 76.8086 26.2091 76.7986 26.2196C76.7867 26.2307 76.7715 26.2375 76.7553 26.2391L76.8161 26.3081H76.7533L76.6997 26.2412H76.6925V26.3081H76.639V26.1156H76.7327ZM76.6949 26.1713V26.2151H76.7464C76.7545 26.2167 76.7628 26.2167 76.7708 26.2151C76.7763 26.2108 76.7792 26.204 76.7786 26.1971C76.7806 26.1902 76.7786 26.1827 76.7734 26.1778C76.7654 26.1756 76.757 26.1756 76.749 26.1778L76.6949 26.1713Z" fill="#1D1D1B"/>
<path d="M60.9714 14.2246C60.9699 11.7706 62.0929 9.45119 64.0191 7.9306C60.7303 5.32422 55.9894 5.68913 53.1383 8.76812C50.2872 11.8471 50.2872 16.6021 53.1383 19.681C55.9894 22.76 60.7303 23.1249 64.0191 20.5186C62.0928 18.9981 60.9697 16.6786 60.9714 14.2246Z" fill="#E30D17"/>
<path d="M64.0193 20.5144C65.7025 20.5144 67.0669 17.6965 67.0669 14.2205C67.0669 10.7444 65.7025 7.92651 64.0193 7.92651C62.3362 7.92651 60.9717 10.7444 60.9717 14.2205C60.9717 17.6965 62.3362 20.5144 64.0193 20.5144Z" fill="#EB610A"/>
<path d="M76.4817 18.5622V18.3274H76.387V18.2636H76.6505V18.3274H76.5476V18.5622H76.4817ZM76.9852 18.5622V18.3562L76.9172 18.5354H76.8431L76.7762 18.3562V18.5622H76.7051V18.2636H76.8081L76.8822 18.4551L76.9563 18.2636H77.0593V18.5622H76.9852Z" fill="#F69F00"/>
<path d="M68.9982 6.19362C67.1903 6.19148 65.435 6.80234 64.019 7.92645C65.9444 9.44776 67.0675 11.7666 67.0675 14.2204C67.0675 16.6742 65.9444 18.9931 64.019 20.5144C66.7784 22.7049 70.6432 22.8412 73.55 20.8506C76.4568 18.86 77.7268 15.2073 76.682 11.8427C75.6371 8.47814 72.5213 6.18742 68.9982 6.19362Z" fill="#F69F00"/>
</g>
<g clip-path="url(#clip3_5293_5919)">
<path d="M99.7996 13.3855C99.6091 14.6498 98.6537 14.6498 97.7227 14.6498H97.1957L97.5652 12.2887C97.5853 12.1453 97.7079 12.0391 97.8516 12.0405H98.0937C98.7254 12.0405 99.3212 12.0405 99.6292 12.4042C99.8139 12.6149 99.8698 12.9353 99.7996 13.3855ZM99.4 10.0792H95.8994C95.6583 10.0802 95.4543 10.2588 95.4196 10.4991L94.0044 19.5351C93.9895 19.6199 94.0129 19.7071 94.0683 19.7727C94.1237 19.8383 94.2054 19.8756 94.2909 19.8743H95.9624C96.2021 19.8743 96.4063 19.6986 96.4437 19.46L96.8218 17.0167C96.8592 16.7789 97.0627 16.6038 97.3016 16.6039H98.4088C100.712 16.6039 102.041 15.4796 102.389 13.2542C102.545 12.2801 102.389 11.5152 101.942 10.9797C101.448 10.3909 100.567 10.0792 99.4 10.0792Z" fill="#253B80"/>
<path d="M107.516 16.6227C107.383 17.5651 106.571 18.2581 105.626 18.2347C105.141 18.2347 104.751 18.0774 104.502 17.7801C104.245 17.4433 104.149 17.0088 104.24 16.5938C104.373 15.6555 105.176 14.9621 106.116 14.9731C106.538 14.9502 106.948 15.1186 107.234 15.432C107.496 15.7682 107.599 16.2033 107.516 16.6227ZM109.856 13.3394H108.176C108.032 13.3379 107.91 13.4441 107.89 13.5876L107.815 14.0595L107.698 13.8878C107.335 13.3581 106.527 13.1806 105.72 13.1806C103.869 13.1806 102.282 14.5921 101.981 16.5736C101.821 17.5622 102.048 18.5075 102.606 19.1714C103.116 19.7775 103.846 20.0373 104.714 20.0373C105.585 20.046 106.422 19.6975 107.033 19.0718L106.957 19.5408C106.942 19.6257 106.966 19.7128 107.021 19.7785C107.076 19.8441 107.158 19.8813 107.244 19.88H108.752C108.991 19.8807 109.195 19.7054 109.232 19.4672L110.143 13.6742C110.156 13.59 110.132 13.5041 110.077 13.4395C110.022 13.3749 109.941 13.3383 109.856 13.3394Z" fill="#253B80"/>
<path d="M118.769 13.3393H117.086C116.925 13.3399 116.774 13.4203 116.684 13.5544L114.363 16.9935L113.379 13.6886C113.317 13.481 113.127 13.339 112.912 13.3393H111.259C111.164 13.3368 111.074 13.3818 111.019 13.4596C110.964 13.5374 110.95 13.6377 110.983 13.7275L112.836 19.2117L111.093 21.6912C111.026 21.7799 111.016 21.8995 111.067 21.9986C111.118 22.0976 111.22 22.1583 111.331 22.1544H113.007C113.166 22.1551 113.316 22.0762 113.406 21.9437L119.008 13.7997C119.074 13.7108 119.083 13.592 119.032 13.4939C118.981 13.3959 118.879 13.3358 118.769 13.3393Z" fill="#253B80"/>
<path d="M124.752 13.3855C124.561 14.6497 123.606 14.6497 122.675 14.6497H122.146L122.517 12.2887C122.538 12.1452 122.66 12.039 122.804 12.0404H123.046C123.676 12.0404 124.273 12.0404 124.581 12.4041C124.759 12.6148 124.815 12.9352 124.752 13.3855ZM124.348 10.0849H120.843C120.604 10.0855 120.401 10.261 120.363 10.4991L118.95 19.535C118.935 19.6199 118.958 19.707 119.013 19.7726C119.069 19.8383 119.15 19.8755 119.236 19.8742H121.028C121.195 19.8742 121.338 19.7519 121.364 19.5855L121.765 17.0238C121.803 16.786 122.006 16.6109 122.245 16.6111H123.351C125.656 16.6111 126.985 15.4868 127.333 13.2614C127.489 12.2872 127.333 11.5223 126.886 10.9869C126.392 10.3908 125.511 10.0791 124.341 10.0791L124.348 10.0849Z" fill="#179BD7"/>
<path d="M132.46 16.6227C132.327 17.5651 131.515 18.2581 130.57 18.2347C130.085 18.2347 129.695 18.0774 129.446 17.7801C129.188 17.4433 129.092 17.0088 129.184 16.5938C129.317 15.6581 130.116 14.9656 131.054 14.9731C131.476 14.95 131.885 15.1184 132.17 15.432C132.436 15.7664 132.542 16.2022 132.46 16.6227ZM134.794 13.3394H133.121C132.977 13.3379 132.855 13.4441 132.835 13.5876L132.76 14.0595L132.643 13.8878C132.28 13.3581 131.473 13.1806 130.665 13.1806C128.814 13.1806 127.234 14.5921 126.926 16.5736C126.767 17.5622 126.994 18.5075 127.551 19.1714C128.062 19.7775 128.791 20.0373 129.659 20.0373C130.53 20.046 131.367 19.6975 131.978 19.0718L131.902 19.5408C131.887 19.6257 131.911 19.7128 131.966 19.7785C132.022 19.8441 132.103 19.8813 132.189 19.88H133.697C133.936 19.88 134.139 19.7048 134.175 19.4672L135.082 13.6944C135.103 13.6069 135.082 13.5148 135.025 13.4452C134.969 13.3756 134.883 13.3365 134.794 13.3394Z" fill="#179BD7"/>
<path d="M136.768 10.3274L135.336 19.5293C135.321 19.6141 135.344 19.7013 135.4 19.7669C135.455 19.8325 135.537 19.8698 135.622 19.8685H137.07C137.31 19.8685 137.514 19.6928 137.551 19.4542L138.967 10.4183C138.982 10.3335 138.958 10.2463 138.903 10.1807C138.847 10.1151 138.766 10.0778 138.68 10.0791H137.056C136.912 10.077 136.788 10.1834 136.768 10.3274Z" fill="#179BD7"/>
</g>
<g clip-path="url(#clip4_5293_5919)">
<path d="M161.131 11.1943C160.762 11.6316 160.171 11.9765 159.579 11.9273C159.505 11.336 159.795 10.7078 160.134 10.3197C160.503 9.87012 161.15 9.54984 161.673 9.52521C161.735 10.1411 161.495 10.7447 161.131 11.1943ZM161.667 12.0443C160.811 11.995 160.078 12.5308 159.672 12.5308C159.259 12.5308 158.637 12.0689 157.959 12.0812C157.079 12.0935 156.26 12.5924 155.81 13.387C154.886 14.976 155.57 17.3288 156.463 18.6222C156.9 19.2627 157.424 19.9649 158.113 19.9402C158.766 19.9156 159.025 19.5153 159.813 19.5153C160.608 19.5153 160.836 19.9402 161.526 19.9279C162.24 19.9156 162.69 19.2874 163.127 18.6468C163.626 17.9201 163.829 17.2118 163.841 17.1748C163.829 17.1625 162.462 16.639 162.449 15.0622C162.437 13.7442 163.527 13.116 163.577 13.079C162.961 12.1675 162 12.0689 161.667 12.0443ZM166.613 10.2581V19.8602H168.104V16.5774H170.167C172.051 16.5774 173.376 15.284 173.376 13.4116C173.376 11.5392 172.076 10.2581 170.216 10.2581H166.613ZM168.104 11.5146H169.822C171.115 11.5146 171.854 12.2044 171.854 13.4178C171.854 14.6311 171.115 15.3271 169.816 15.3271H168.104V11.5146ZM176.098 19.9341C177.034 19.9341 177.903 19.4598 178.297 18.7084H178.328V19.8602H179.707V15.0807C179.707 13.6949 178.599 12.8018 176.892 12.8018C175.31 12.8018 174.139 13.7072 174.096 14.9514H175.439C175.55 14.3601 176.098 13.9721 176.849 13.9721C177.761 13.9721 178.272 14.3971 178.272 15.1793V15.7089L176.412 15.8198C174.681 15.9245 173.745 16.6328 173.745 17.8646C173.745 19.1088 174.712 19.9341 176.098 19.9341ZM176.498 18.7946C175.704 18.7946 175.199 18.4128 175.199 17.8277C175.199 17.2241 175.685 16.873 176.615 16.8176L178.272 16.7129V17.2549C178.272 18.1541 177.508 18.7946 176.498 18.7946ZM181.549 22.4716C183.002 22.4716 183.686 21.9173 184.283 20.2359L186.901 12.8942H185.386L183.631 18.5668H183.6L181.844 12.8942H180.286L182.811 19.8848L182.676 20.3098C182.448 21.0304 182.079 21.3076 181.42 21.3076C181.302 21.3076 181.075 21.2952 180.982 21.2829V22.4347C181.068 22.4593 181.438 22.4716 181.549 22.4716Z" fill="black"/>
</g>
<path d="M222.678 15.5032V19.1688H221.515V10.1163H224.599C224.968 10.1086 225.334 10.1739 225.676 10.3084C226.019 10.443 226.332 10.644 226.597 10.9C226.864 11.1405 227.077 11.4354 227.221 11.7649C227.364 12.0945 227.436 12.451 227.431 12.8105C227.438 13.172 227.368 13.5308 227.224 13.8624C227.08 14.194 226.866 14.4906 226.597 14.7318C226.057 15.2461 225.391 15.503 224.599 15.5025L222.678 15.5032ZM222.678 11.2308V14.3909H224.628C224.842 14.3972 225.055 14.3589 225.253 14.2783C225.451 14.1977 225.63 14.0766 225.779 13.9228C225.927 13.7791 226.044 13.6071 226.125 13.4171C226.205 13.2271 226.246 13.0229 226.246 12.8166C226.246 12.6104 226.205 12.4062 226.125 12.2162C226.044 12.0262 225.927 11.8542 225.779 11.7104C225.632 11.5534 225.454 11.4294 225.255 11.3466C225.057 11.2638 224.843 11.2241 224.628 11.2301L222.678 11.2308ZM230.11 12.7729C230.97 12.7729 231.648 13.0026 232.146 13.462C232.643 13.9214 232.892 14.5512 232.891 15.3515V19.1688H231.779V18.3093H231.728C231.247 19.0172 230.606 19.3711 229.807 19.3711C229.125 19.3711 228.554 19.1688 228.095 18.7644C227.874 18.5787 227.698 18.3462 227.579 18.0838C227.459 17.8214 227.4 17.5357 227.405 17.2475C227.405 16.6066 227.648 16.0969 228.132 15.7185C228.617 15.34 229.263 15.1502 230.072 15.1493C230.763 15.1493 231.331 15.2757 231.778 15.5285V15.2627C231.78 15.0662 231.737 14.872 231.654 14.6939C231.571 14.5159 231.449 14.3586 231.298 14.2334C230.99 13.956 230.59 13.8046 230.175 13.8094C229.526 13.8094 229.012 14.0834 228.633 14.6314L227.609 13.9864C228.173 13.1774 229.006 12.7729 230.11 12.7729ZM228.606 17.2728C228.605 17.4208 228.64 17.5669 228.707 17.6988C228.774 17.8307 228.872 17.9447 228.992 18.0312C229.249 18.2335 229.568 18.3407 229.895 18.3346C230.386 18.3338 230.856 18.1384 231.203 17.7914C231.589 17.4288 231.781 17.0034 231.781 16.5151C231.419 16.2262 230.913 16.0818 230.264 16.0818C229.792 16.0818 229.398 16.1956 229.083 16.4234C228.764 16.6545 228.606 16.9355 228.606 17.2728ZM239.276 12.9752L235.393 21.8991H234.193L235.634 18.7766L233.081 12.9752H234.345L236.19 17.4245H236.215L238.01 12.9752H239.276Z" fill="#5F6368"/>
<path d="M217.979 14.713C217.979 14.3586 217.949 14.0049 217.889 13.6556H212.985V15.6585H215.794C215.736 15.9784 215.615 16.2833 215.436 16.5549C215.258 16.8266 215.026 17.0592 214.755 17.2389V18.539H216.432C217.413 17.634 217.979 16.2956 217.979 14.713Z" fill="#4285F4"/>
<path d="M212.985 19.7951C214.388 19.7951 215.57 19.3342 216.432 18.5397L214.755 17.2396C214.289 17.556 213.688 17.7365 212.985 17.7365C211.628 17.7365 210.477 16.8221 210.065 15.5899H208.338V16.9297C208.771 17.7911 209.435 18.5151 210.255 19.0211C211.076 19.5271 212.021 19.795 212.985 19.7951Z" fill="#34A853"/>
<path d="M210.065 15.5899C209.848 14.9442 209.848 14.2449 210.065 13.5992V12.2594H208.338C207.974 12.984 207.785 13.7836 207.785 14.5946C207.785 15.4055 207.974 16.2052 208.338 16.9297L210.065 15.5899Z" fill="#FBBC04"/>
<path d="M212.985 11.4526C213.726 11.4405 214.443 11.7207 214.98 12.2327L216.464 10.7484C215.523 9.86434 214.276 9.37899 212.985 9.39408C212.021 9.39412 211.076 9.66209 210.255 10.1681C209.435 10.674 208.771 11.3981 208.338 12.2594L210.065 13.5992C210.477 12.367 211.628 11.4526 212.985 11.4526Z" fill="#EA4335"/>
<path d="M260 4.40894V27.5911H273.503C282.41 27.5911 286.273 22.5982 286.273 15.9773C286.273 9.38218 282.41 4.40894 273.503 4.40894H260V4.40894Z" fill="white"/>
<path d="M261.459 5.87109H273.505C281.68 5.87109 284.814 10.3398 284.814 15.977C284.814 22.7365 280.438 26.1282 273.505 26.1282H261.459V5.87109ZM262.627 7.0399V24.9601H273.505C280.072 24.9601 283.645 21.8971 283.645 15.977C283.645 9.89278 279.772 7.03955 273.505 7.03955H262.627V7.0399Z" fill="black"/>
<path d="M264.086 17.2948H267.569V23.498H264.086V17.2948Z" fill="black"/>
<path d="M265.827 16.3354C267.022 16.3354 267.991 15.3656 267.991 14.1693C267.991 12.973 267.022 12.0032 265.827 12.0032C264.632 12.0032 263.663 12.973 263.663 14.1693C263.663 15.3656 264.632 16.3354 265.827 16.3354Z" fill="black"/>
<path d="M274.871 15.1826V16.1871H272.39V12.1564H274.792V13.1605H273.393V13.6272H274.716V14.6316H273.393V15.183L274.871 15.1826ZM275.305 16.1878L276.519 12.155H277.946L279.16 16.1878H278.116L277.888 15.4077H276.576L276.348 16.1878H275.305V16.1878ZM276.87 14.4044H277.596L277.263 13.2652H277.202L276.87 14.4044ZM279.665 12.1554H280.668V15.183H282.154C281.747 9.68948 277.43 8.50244 273.505 8.50244H269.322V12.1575H269.941C271.07 12.1575 271.771 12.9236 271.771 14.1564C271.771 15.4285 271.087 16.1878 269.941 16.1878H269.322V23.5008H273.505C279.883 23.5008 282.105 20.5357 282.183 16.1871H279.665V12.1554V12.1554ZM269.321 13.1616V15.183H269.941C270.371 15.183 270.768 15.0586 270.768 14.156C270.768 13.2745 270.326 13.1616 269.941 13.1616H269.321V13.1616Z" fill="#D50072"/>
<g clip-path="url(#clip5_5293_5919)">
<path fill-rule="evenodd" clip-rule="evenodd" d="M305.048 8.46014L302.273 14.8847H304.095L304.605 13.6004H307.556L308.063 14.8847H309.903L307.131 8.46014H305.048ZM306.068 9.95698L306.979 12.2038H305.157L306.068 9.95698Z" fill="#016FD0"/>
<path fill-rule="evenodd" clip-rule="evenodd" d="M310.092 14.8847V8.46014L312.648 8.46925L314.136 12.6106L315.587 8.46014H318.122V14.8847H316.516V10.1513L314.816 14.8847H313.407L311.698 10.1513V14.8847H310.092Z" fill="#016FD0"/>
<path fill-rule="evenodd" clip-rule="evenodd" d="M319.221 14.8847V8.46014H324.464V9.89626H320.845V10.9954H324.379V12.3495H320.845V13.4911H324.464V14.8847H319.221Z" fill="#016FD0"/>
<path fill-rule="evenodd" clip-rule="evenodd" d="M325.394 8.46014V14.8847H327V12.6045H327.677L329.599 14.8847H331.561L329.435 12.5195C330.446 12.4188 331.212 11.5618 331.199 10.546C331.199 9.1949 330.137 8.46014 328.953 8.46014H325.394ZM327 9.8993H328.822C329.221 9.87484 329.567 10.1745 329.599 10.5733C329.573 10.9597 329.249 11.2577 328.862 11.2504H327V9.8993Z" fill="#016FD0"/>
<path fill-rule="evenodd" clip-rule="evenodd" d="M333.509 14.8847H331.87V8.46014H333.509V14.8847Z" fill="#016FD0"/>
<path fill-rule="evenodd" clip-rule="evenodd" d="M337.395 14.8847H337.043C335.331 14.8847 334.289 13.5366 334.289 11.6997C334.289 9.81732 335.318 8.46014 337.48 8.46014H339.256V9.97824H337.416C336.539 9.97824 335.917 10.6644 335.917 11.7119C335.917 12.9567 336.627 13.479 337.65 13.479H338.072L337.395 14.8817V14.8847Z" fill="#016FD0"/>
<path fill-rule="evenodd" clip-rule="evenodd" d="M340.893 8.46014L338.127 14.8847H339.922L340.432 13.6004H343.395L343.902 14.8847H345.742L342.988 8.46014H340.893ZM341.913 9.95698L342.824 12.2038H341.003L341.913 9.95698Z" fill="#016FD0"/>
<path fill-rule="evenodd" clip-rule="evenodd" d="M345.936 14.8847V8.46014H347.976L350.584 12.4952V8.46014H352.19V14.8847H350.214L347.539 10.7434V14.8847H345.936Z" fill="#016FD0"/>
<path fill-rule="evenodd" clip-rule="evenodd" d="M313.98 24.0021V17.5776H319.221V19.0137H315.604V20.1128H319.139V21.4669H315.604V22.6085H319.221V24.0021H313.98Z" fill="#016FD0"/>
<path fill-rule="evenodd" clip-rule="evenodd" d="M339.663 24.0021V17.5776H344.904V19.0137H341.285V20.1128H344.8V21.4669H341.285V22.6085H344.904V24.0021H339.663Z" fill="#016FD0"/>
<path fill-rule="evenodd" clip-rule="evenodd" d="M319.424 24.0021L321.977 20.8293L319.363 17.5776H321.388L322.943 19.5875L324.503 17.5776H326.45L323.872 20.7898L326.428 24.0021H324.403L322.894 22.0225L321.419 24.0021H319.424Z" fill="#016FD0"/>
<path fill-rule="evenodd" clip-rule="evenodd" d="M326.62 17.5776V24.0021H328.269V21.974H329.957C331.39 21.974 332.474 21.2149 332.474 19.7393C332.474 18.5249 331.624 17.5776 330.166 17.5776H326.62ZM328.269 19.0319H330.048C330.254 19.0127 330.459 19.0828 330.61 19.2244C330.762 19.3659 330.845 19.5655 330.84 19.7727C330.84 19.9791 330.754 20.176 330.602 20.3161C330.451 20.4561 330.247 20.5266 330.042 20.5105H328.269V19.0319Z" fill="#016FD0"/>
<path fill-rule="evenodd" clip-rule="evenodd" d="M333.168 17.5776V24.0021H334.775V21.7189H335.452L337.377 24.0021H339.341L337.216 21.6339C338.226 21.5331 338.991 20.6757 338.977 19.6604C338.977 18.3093 337.917 17.5776 336.733 17.5776H333.168ZM334.775 19.0137H336.596C336.99 19.0009 337.325 19.2984 337.358 19.6907C337.332 20.0772 337.008 20.3752 336.621 20.3678H334.759V19.0137H334.775Z" fill="#016FD0"/>
<path fill-rule="evenodd" clip-rule="evenodd" d="M345.648 24.0021V22.6085H348.864C349.337 22.6085 349.544 22.3504 349.544 22.0681C349.544 21.7857 349.337 21.5246 348.864 21.5246H347.409C346.146 21.5246 345.445 20.7564 345.445 19.5997C345.445 18.5704 346.089 17.5776 347.965 17.5776H351.092L350.415 19.0228H347.71C347.194 19.0228 347.033 19.293 347.033 19.5541C347.032 19.7111 347.098 19.8611 347.213 19.9674C347.329 20.0737 347.484 20.1264 347.64 20.1128H349.158C350.564 20.1128 351.174 20.9113 351.174 21.9588C351.174 23.0822 350.494 24.0021 349.079 24.0021H345.648Z" fill="#016FD0"/>
<path fill-rule="evenodd" clip-rule="evenodd" d="M351.541 24.0021V22.6085H354.62C355.097 22.6085 355.303 22.3504 355.303 22.0681C355.303 21.7857 355.097 21.5246 354.62 21.5246H353.305C352.042 21.5246 351.338 20.7564 351.338 19.5997C351.338 18.5704 351.982 17.5776 353.858 17.5776H356.925L356.248 19.0228H353.606C353.087 19.0228 352.929 19.293 352.929 19.5541C352.929 19.7083 352.992 19.8557 353.104 19.9614C353.216 20.0672 353.367 20.122 353.521 20.1128H354.906C356.314 20.1128 356.925 20.9113 356.925 21.9588C356.925 23.0822 356.245 24.0021 354.83 24.0021H351.541Z" fill="#016FD0"/>
</g>
</g>
<defs>
<clipPath id="clip0_5293_5919">
<rect width="357.273" height="32" fill="white"/>
</clipPath>
<clipPath id="clip1_5293_5919">
<rect width="35" height="11" fill="white" transform="translate(0 10.5)"/>
</clipPath>
<clipPath id="clip2_5293_5919">
<rect width="27" height="21" fill="white" transform="translate(51 5.5)"/>
</clipPath>
<clipPath id="clip3_5293_5919">
<rect width="45" height="13" fill="white" transform="translate(94 9.5)"/>
</clipPath>
<clipPath id="clip4_5293_5919">
<rect width="32" height="13" fill="white" transform="translate(155 9.5)"/>
</clipPath>
<clipPath id="clip5_5293_5919">
<rect width="55" height="17" fill="white" transform="translate(302.273 7.5)"/>
</clipPath>
</defs>
</svg>
