<svg viewBox="0 0 317 250" xmlns="http://www.w3.org/2000/svg">
  <g stroke="none" stroke-width="1" fill="none" fill-rule="evenodd">
    <g transform="translate(-30, -562)">
      <g transform="translate(30, 562)">
        <circle fill="#F6F6F6" cx="124.75" cy="124.75" r="124.75"></circle>
        <g transform="translate(42.5, 33.5)">
          <g transform="translate(67, 0)">
            <polygon fill="#000" points="51.636975 0 66.636975 2.5 66.636975 19 51.636975 19"></polygon>
            <path d="M51.6908308,4.33423271 C52.5071719,3.71283981 56.6529999,5.81357711 60.2951582,8.66046832 C60.7022618,8.25223973 61.2651615,8 61.886975,8 C63.1296157,8 64.136975,9.00735931 64.136975,10.25 C64.136975,10.7929556 63.9446561,11.2909927 63.624423,11.6797067 C65.1205727,13.3018805 66.136975,14.9480643 66.136975,16.341445 L66.136975,16.341445 L66.136975,19 L66.136975,19 L66.136975,19 L65.6737246,19.715443 L57.136975,25.5197991 L54.1365017,23.5670651 L54.5344828,20.1059753 C52.8852157,19.7016287 50.7527131,18.9860777 48.136975,17.9593223 L48.136975,17.9593223 L48.136975,11.5 C48.136975,8.57629794 49.5310929,5.97820956 51.6908308,4.33423271 Z" fill="#DA917B"></path>
            <path d="M117.407965,76.9405285 C121.045329,78.9706874 122.257784,81.1797482 121.045329,83.5677109 C119.832875,85.9556736 119.005453,85.6117585 118.563065,82.5359655 C117.810492,82.2956748 117.425459,83.1980809 117.407965,85.2431836 C117.390471,87.2882864 116.421149,85.1886135 114.5,78.9441651 L117.407965,76.9405285 Z" fill="#DA917B"></path>
            <path d="M5.1250655,69.0536527 C8.69721128,72.3055935 9.87705677,75.1255453 8.66460197,77.513508 C7.45214717,79.9014707 6.4988377,78.9569107 5.80467354,74.6798278 C5.36573185,74.757225 5.11565957,75.3088327 5.0544567,76.3346508 C4.99325383,77.3604689 4.04746842,75.6013483 2.21710044,71.0572892 L5.1250655,69.0536527 Z" fill="#DA917B" transform="translate(5.671285, 73.925253) scale(-1, -1) rotate(-80) translate(-5.671285, -73.925253) "></path>
            <path d="M54.5786386,21.8285403 C52.2678205,32.0983533 51.1124114,39.1941095 51.1124114,43.1158089 C51.1124114,57.3197883 54.5786386,64.4198012 54.5786386,64.4198012 C54.5786386,64.4198012 52.2678205,61.3770764 47.6461842,55.2916268 L47.6461842,51.3891084 L35.3188695,64.4198012 L10.1841723,74.7501125 L8.5,71.2204337 L29.7912036,55.2916268 C36.5210215,44.0427633 41.8388217,35.7819245 45.7446042,30.5091105 C49.6503866,25.2362964 52.5950648,22.342773 54.5786386,21.8285403 Z" fill="#000"></path>
            <path d="M54.1365017,23.5670651 L57.136975,25.5197991 L65.6737246,19.715443 L62.0898155,26.52596 L87.3218117,76.8532235 L87.3218117,83.5719432 L57.136975,83.5719432 C53.171949,65.9257698 51.0020176,53.3545997 50.6271806,45.858433 C50.2523436,38.3622663 51.4221173,30.9318103 54.1365017,23.5670651 Z" fill="#EFEFEF"></path>
            <path d="M87.1848367,83.5 L84.998512,123.915073 L89.8939305,136.975659 L92.1685135,174.27146 L88.5835128,174.27146 L71.1355264,126.786654 L65.4290293,96.3523196 L70.6870361,127.032829 L78.3315442,148.037405 L75.9571792,174.27146 L68.8034099,174.27146 C65.2883866,153.778622 63.0048635,139.48703 61.9528406,131.396685 C57.8463775,99.8168575 57,83.5 57,83.5 C57,83.5 67.0616122,83.5 87.1848367,83.5 Z" fill="#000"></path>
            <polygon fill="#000" points="92.1685135 174 88.5897464 174 81 177.643621 92.1685135 177.643621"></polygon>
            <polygon fill="#000" points="74.1685135 174 70.5897464 174 63 177.643621 74.1685135 177.643621"></polygon>
            <path d="M56.9774084,25.5 L58.238233,27.5588223 L56.3249069,29.5443017 C55.8276221,39.8668366 56.7117892,47.5233064 58.9774084,52.513711 C61.2430275,57.5041155 66.7540069,63.9340242 75.5103466,71.8034371 L77.3128752,77.9068571 L68.7808183,77.9068571 C61.8251729,70.0431991 57.3790415,62.9480188 55.4424241,56.6213162 C53.5058067,50.2946136 53.0173103,41.2689421 53.9769351,29.5443017 L53.9769351,27.5588223 L56.9774084,25.5 Z" fill="#082E58"></path>
            <path d="M65.6737246,19.715443 L84.1664329,26.52596 C87.6955822,28.9136405 90.67117,32.4126613 93.0931964,37.0230223 C95.5152228,41.6333833 103.808156,55.04665 117.971995,77.2628223 L114.896596,80.1405407 L87.1531871,48.2853649 L103.480998,100.09661 L89.0502776,78.7600136 C79.5601863,66.743186 73.1083843,57.4280484 69.6948718,50.8146011 C66.2813593,44.2011537 63.7463405,36.10494 62.0898155,26.52596 L65.6737246,19.715443 Z" fill="#000"></path>
          </g>
          <g transform="translate(33.5, 89) scale(-1, 1) translate(-33.5, -89) ">
            <polygon fill="#000" points="22.636975 0 37.636975 2.5 37.636975 19 22.636975 19"></polygon>
            <path d="M22.6908308,4.33423271 C23.5071719,3.71283981 27.6529999,5.81357711 31.2951582,8.66046832 C31.7022618,8.25223973 32.2651615,8 32.886975,8 C34.1296157,8 35.136975,9.00735931 35.136975,10.25 C35.136975,10.7929556 34.9446561,11.2909927 34.624423,11.6797067 C36.1205727,13.3018805 37.136975,14.9480643 37.136975,16.341445 L37.136975,16.341445 L37.136975,19 L37.136975,19 L37.136975,19 L36.6737246,19.715443 L28.136975,25.5197991 L25.1365017,23.5670651 L25.5344828,20.1059753 C23.8852157,19.7016287 21.7527131,18.9860777 19.136975,17.9593223 L19.136975,17.9593223 L19.136975,11.5 C19.136975,8.57629794 20.5310929,5.97820956 22.6908308,4.33423271 Z" fill="#C8453C"></path>
            <rect fill="#6B0F0F" x="19" y="92.5" width="48" height="27.5"></rect>
            <path d="M4.99959539,70.5 C8.57174117,73.7519409 9.75158666,76.5718927 8.53913186,78.9598554 C7.32667707,81.3478181 6.37336759,80.403258 5.67920343,76.1261751 C5.24026174,76.2035724 4.99018946,76.75518 4.92898659,77.7809981 C4.86778373,78.8068162 3.92199831,77.0476957 2.09163033,72.5036366 L4.99959539,70.5 Z" fill="#C8453C" transform="translate(5.545815, 75.371600) scale(-1, -1) rotate(-80) translate(-5.545815, -75.371600) "></path>
            <path d="M25.5786386,21.8284658 C23.2678205,32.0983285 22.1124114,39.1941095 22.1124114,43.1158089 C22.1124114,57.3197883 25.5786386,64.4198012 25.5786386,64.4198012 C25.5786386,64.4198012 24.2387451,60.8357626 21.5589582,53.6676856 C19.6171088,45.2642435 18.6461842,38.8312781 18.6461842,34.3687892 C18.6461842,29.9063004 20.9570023,25.7261925 25.5786386,21.8284658 Z" fill="#0D305A"></path>
            <path d="M25.1365017,23.5670651 L28.136975,25.5197991 L36.6737246,19.715443 L33.0898155,26.52596 L58.3218117,76.8532235 L58.3218117,83.5719432 L28.136975,83.5719432 C24.171949,65.9257698 22.0020176,53.3545997 21.6271806,45.858433 C21.2523436,38.3622663 22.4221173,30.9318103 25.1365017,23.5670651 Z" fill="#EFEFEF"></path>
            <path d="M58.1848367,83.5 L55.998512,123.915073 L60.8939305,136.975659 L63.1685135,174.27146 L59.5835128,174.27146 L42.1355264,126.786654 L36.4290293,96.3523196 L41.6870361,127.032829 L49.3315442,148.037405 L46.9571792,174.27146 L39.8034099,174.27146 C36.2883866,153.778622 34.0048635,139.48703 32.9528406,131.396685 C28.8463775,99.8168575 28,83.5 28,83.5 C28,83.5 38.0616122,83.5 58.1848367,83.5 Z" fill="#0D305A"></path>
            <polygon fill="#6B0F0F" points="63.1685135 174 59.5897464 174 52 177.643621 63.1685135 177.643621"></polygon>
            <polygon fill="#6B0F0F" points="45.1685135 174 41.5897464 174 34 177.643621 45.1685135 177.643621"></polygon>
            <path d="M27.9774084,25.5 L29.238233,27.5588223 L27.3249069,29.5443017 C26.8276221,39.8668366 27.7117892,47.5233064 29.9774084,52.513711 C32.2430275,57.5041155 37.7540069,63.9340242 46.5103466,71.8034371 L48.3128752,77.9068571 L39.7808183,77.9068571 C32.8251729,70.0431991 28.3790415,62.9480188 26.4424241,56.6213162 C24.5058067,50.2946136 24.0173103,41.2689421 24.9769351,29.5443017 L24.9769351,27.5588223 L27.9774084,25.5 Z" fill="#6B0F0F"></path>
            <path d="M36.6737246,19.715443 C43.6507039,23.0657899 47.8337231,25.1996322 49.2227823,26.1169698 C50.6118414,27.0343073 55.2604185,48.4778484 63.1685135,90.4475931 C61.1609054,90.8357822 57.4712967,87.1844979 52.0996872,79.4937401 C44.0422731,67.9576034 43.6312533,61.5627698 41.9532976,59.2991227 C41.618342,58.8472507 31.1133277,64.3074174 10.4382546,75.6796229 L8.97002057,72.4679085 C26.1973439,56.890424 34.673979,48.8834042 34.3999258,48.4468489 C32.9602754,46.153546 32.4993162,43.1909219 32.25,40.9314216 C31.5078256,34.2052515 30.8034839,29.8644597 30.136975,27.909046 L36.6737246,19.715443 Z" fill="#0D305A"></path>
          </g>
          <ellipse fill="#EFEFEF" cx="82.25" cy="180.5" rx="82.25" ry="2"></ellipse>
        </g>
        <g transform="translate(270, 5.5)">
          <path d="M23.5,194.5 C40,194.5 40,178 40,178 C40,178 7,178 7,178 C7,178 7,194.5 23.5,194.5 Z" fill="#0D305A"></path>
          <path d="M23.5,206 C47,206 47,182.5 47,182.5 C47,182.5 0,182.5 0,182.5 C0,182.5 0,206 23.5,206 Z" fill="#0D305A"></path>
          <path d="M23.5,0 C36.4786916,-2.38414697e-15 47,10.5213084 47,23.5 L47,86 C47,98.9786916 36.4786916,109.5 23.5,109.5 C10.5213084,109.5 1.58943132e-15,98.9786916 0,86 L0,23.5 C-1.58943132e-15,10.5213084 10.5213084,2.38414697e-15 23.5,0 Z M38.2762245,39.6118234 L38.9065225,40.3881766 L27.815149,49.3929329 L27.184851,48.6165797 L38.2762245,39.6118234 Z M8.81514905,39.6118234 L19.9065225,48.6165797 L19.2762245,49.3929329 L8.18485095,40.3881766 L8.81514905,39.6118234 Z M38.2762245,25.6118234 L38.9065225,26.3881766 L27.815149,35.3929329 L27.184851,34.6165797 L38.2762245,25.6118234 Z M8.81514905,25.6118234 L19.9065225,34.6165797 L19.2762245,35.3929329 L8.18485095,26.3881766 L8.81514905,25.6118234 Z M38.2762245,11.6118234 L38.9065225,12.3881766 L27.815149,21.3929329 L27.184851,20.6165797 L38.2762245,11.6118234 Z M8.81514905,11.6118234 L19.9065225,20.6165797 L19.2762245,21.3929329 L8.18485095,12.3881766 L8.81514905,11.6118234 Z" fill="#0FD40A"></path>
          <rect fill="#F38D52" x="22.6178571" y="54.5" width="1.76428571" height="123.5"></rect>
        </g>
        <g transform="translate(240, 81.5)">
          <path d="M14.8049994,122.534995 C25.1999989,122.534995 25.1999989,112.139995 25.1999989,112.139995 C25.1999989,112.139995 4.40999981,112.139995 4.40999981,112.139995 C4.40999981,112.139995 4.40999981,122.534995 14.8049994,122.534995 Z" fill="#0D305A"></path>
          <path d="M14.8049994,129.779994 C29.6099987,129.779994 29.6099987,114.974995 29.6099987,114.974995 C29.6099987,114.974995 0,114.974995 0,114.974995 C0,114.974995 0,129.779994 14.8049994,129.779994 Z" fill="#0D305A"></path>
          <path d="M14.8049994,0 C22.9815747,-1.50201253e-15 29.6099987,6.62842399 29.6099987,14.8049994 L29.6099987,54.1799976 C29.6099987,62.356573 22.9815747,68.984997 14.8049994,68.984997 C6.62842399,68.984997 2.77769852e-15,62.356573 0,54.1799976 L0,14.8049994 C-2.77769852e-15,6.62842399 6.62842399,1.50201253e-15 14.8049994,0 Z M24.1140204,24.9554477 L24.5111081,25.4445502 L17.5235431,31.1175464 L17.1264554,30.6284439 L24.1140204,24.9554477 Z M5.55354366,24.9554477 L12.5411087,30.6284439 L12.1440209,31.1175464 L5.15645588,25.4445502 L5.55354366,24.9554477 Z M24.1140204,16.135448 L24.5111081,16.6245505 L17.5235431,22.2975468 L17.1264554,21.8084443 L24.1140204,16.135448 Z M5.55354366,16.135448 L12.5411087,21.8084443 L12.1440209,22.2975468 L5.15645588,16.6245505 L5.55354366,16.135448 Z M24.1140204,7.31544842 L24.5111081,7.80455092 L17.5235431,13.4775472 L17.1264554,12.9884447 L24.1140204,7.31544842 Z M5.55354366,7.31544842 L12.5411087,12.9884447 L12.1440209,13.4775472 L5.15645588,7.80455092 L5.55354366,7.31544842 Z" fill="#0FD40A"></path>
          <rect fill="#F38D52" x="14.2492494" y="34.3349985" width="1.11149995" height="77.8049966"></rect>
        </g>
      </g>
    </g>
  </g>
</svg>
