<svg xmlns="http://www.w3.org/2000/svg" width="30" height="30" viewBox="0 0 30 30"><defs><style>.a{fill:#fff;}</style></defs><path class="a" d="M27.7,0H2.3A2.3,2.3,0,0,0,0,2.3V27.7A2.3,2.3,0,0,0,2.3,30H27.7A2.3,2.3,0,0,0,30,27.7V2.3A2.3,2.3,0,0,0,27.7,0ZM2.3,1.2H27.7a1.1,1.1,0,0,1,1.1,1.1V6.15H1.2V2.3A1.1,1.1,0,0,1,2.3,1.2ZM27.7,28.8H2.3a1.1,1.1,0,0,1-1.1-1.1V7.35H28.8V27.7A1.1,1.1,0,0,1,27.7,28.8Z"/><path class="a" d="M13.975,6.366h16.95a.6.6,0,1,0,0-1.2H13.975a.6.6,0,1,0,0,1.2Z" transform="translate(-5.35 -2.066)"/><path class="a" d="M9.287,6.366H9.7a.6.6,0,0,0,0-1.2H9.287a.6.6,0,1,0,0,1.2Z" transform="translate(-3.475 -2.066)"/><path class="a" d="M5.256,6.366h.413a.6.6,0,0,0,0-1.2H5.256a.6.6,0,0,0,0,1.2Z" transform="translate(-1.862 -2.066)"/><path class="a" d="M333.388,304.651a1.059,1.059,0,0,0-.02.217,1.182,1.182,0,0,0,.178.632.99.99,0,0,0,.888.494,1.1,1.1,0,0,0,.612-.158l5.824-3.771a1,1,0,0,0,.474-.888,1.029,1.029,0,0,0-.513-.928l-5.785-3.672a1.106,1.106,0,0,0-.612-.2l-.217.04a.976.976,0,0,0-.671.474,1.082,1.082,0,0,0-.178.592,1.061,1.061,0,0,0,.02.217,1.046,1.046,0,0,0,.474.691l4.363,2.784-4.363,2.784A1.047,1.047,0,0,0,333.388,304.651Z" transform="translate(-316.953 -283.527)"/><path class="a" d="M145.782,301.967l5.785,3.771a1.093,1.093,0,0,0,.612.158,1,1,0,0,0,.928-.494,1.138,1.138,0,0,0-.335-1.54l-4.364-2.784,4.364-2.784a1.113,1.113,0,0,0,.335-1.5,1.025,1.025,0,0,0-1.5-.316l-5.824,3.672a1.082,1.082,0,0,0,0,1.816Z" transform="translate(-140.067 -283.428)"/></svg>