<?xml version="1.0" encoding="iso-8859-1"?>
<!-- Generator: Adobe Illustrator 16.0.0, SVG Export Plug-In . SVG Version: 6.00 Build 0)  -->
<!DOCTYPE svg PUBLIC "-//W3C//DTD SVG 1.1//EN" "http://www.w3.org/Graphics/SVG/1.1/DTD/svg11.dtd">
<svg xmlns="http://www.w3.org/2000/svg" xmlns:xlink="http://www.w3.org/1999/xlink" version="1.1" id="Capa_1" x="0px" y="0px" width="512px" height="512px" viewBox="0 0 50 50" style="enable-background:new 0 0 50 50;" xml:space="preserve">
<g>
	<g>
		<path d="M46.165,0H3.835C1.72,0,0,1.72,0,3.835v42.33C0,48.279,1.72,50,3.835,50h42.331C48.28,50,50,48.279,50,46.165V3.835    C49.999,1.72,48.28,0,46.165,0z M3.835,2h42.331C47.178,2,48,2.823,48,3.835v6.415H2V3.835C2,2.823,2.823,2,3.835,2z M46.165,48    H3.835C2.823,48,2,47.178,2,46.165V12.25h46v33.915C47.999,47.178,47.178,48,46.165,48z" fill="#FFFFFF"/>
		<path d="M14.375,7.166h28.25c0.553,0,1-0.448,1-1c0-0.552-0.447-1-1-1h-28.25c-0.552,0-1,0.448-1,1    C13.375,6.718,13.823,7.166,14.375,7.166z" fill="#FFFFFF"/>
		<path d="M9.687,7.166h0.688c0.552,0,1-0.448,1-1c0-0.552-0.448-1-1-1H9.687c-0.552,0-1,0.448-1,1    C8.687,6.718,9.135,7.166,9.687,7.166z" fill="#FFFFFF"/>
		<path d="M5.656,7.166h0.688c0.552,0,1-0.448,1-1c0-0.552-0.448-1-1-1H5.656c-0.552,0-1,0.448-1,1    C4.656,6.718,5.104,7.166,5.656,7.166z" fill="#FFFFFF"/>
	</g>
</g>
<g>
</g>
<g>
</g>
<g>
</g>
<g>
</g>
<g>
</g>
<g>
</g>
<g>
</g>
<g>
</g>
<g>
</g>
<g>
</g>
<g>
</g>
<g>
</g>
<g>
</g>
<g>
</g>
<g>
</g>
</svg>
