<svg width="162" height="171" viewBox="0 0 162 171" fill="none" xmlns="http://www.w3.org/2000/svg">
<path d="M157.039 81.3814C157.322 80.4381 157.983 80.1551 157.275 79.2904C156.552 78.4257 154.697 75.7844 154.697 75.7844C154.492 75.3599 154.319 75.0298 154.194 74.8411C153.565 73.9764 151.159 74.7311 150.813 75.297C150.468 75.863 151.615 80.9726 151.615 81.3814C151.615 81.3814 152.794 82.3561 152.967 82.3561C153.14 82.3561 155.577 82.0731 155.923 82.0731C156.269 82.0731 156.788 82.3247 157.071 81.3814H157.039Z" fill="#2D2321"/>
<path d="M150.792 101.285C149.613 100.813 148.466 100.231 147.271 99.4924L147.114 99.3981C146.61 99.0837 146.139 98.7535 145.589 98.3447C144.755 97.7159 143.985 96.9927 143.152 96.0965C143.01 95.9393 142.884 95.7978 142.743 95.6406L142.633 95.5148C142.413 95.2476 142.208 94.9803 142.02 94.713L141.548 94.037C141.359 93.7383 141.186 93.4238 140.998 93.0937L140.872 92.8579L140.683 92.512C140.463 92.0561 140.259 91.5844 140.086 91.097L140.007 90.9241C139.787 90.2638 139.143 89.855 138.451 89.9022C136.124 90.1223 133.719 89.7921 131.297 88.9589C130.889 88.8174 130.48 88.6759 130.071 88.5029C129.772 88.3772 129.49 88.2514 129.207 88.1099C128.782 87.9055 128.373 87.6854 127.933 87.4339C127.681 87.2924 127.446 87.1509 127.194 87.0094C126.754 86.7264 126.329 86.4277 125.921 86.129L125.166 85.5473C124.679 85.1542 124.113 84.6668 123.578 84.148C123.185 83.7393 122.776 83.2833 122.336 82.7016C122.305 82.6545 122.258 82.6073 122.21 82.5601C122.147 82.4658 122.069 82.3557 122.006 82.2457L121.581 81.6011C121.44 81.4124 121.314 81.2238 121.188 81.0194C121.078 80.8465 121 80.6578 120.905 80.4691L120.56 79.8088C120.465 79.6359 120.371 79.463 120.292 79.2743C120.198 79.0699 120.119 78.8498 120.041 78.6297L119.773 77.9065C119.711 77.7336 119.648 77.5763 119.585 77.4034C119.506 77.1519 119.443 76.9003 119.38 76.6488L119.239 76.0671C119.113 75.564 119.019 75.0451 118.94 74.542L118.909 74.3062L118.862 74.0232C118.862 73.9289 118.83 73.8503 118.814 73.7402C118.767 73.3 118.736 72.8598 118.72 72.3725V71.9951C118.689 71.8222 118.673 71.6493 118.673 71.4763C118.673 71.2719 118.673 71.0676 118.704 70.8632L118.736 70.0928C118.736 69.8727 118.736 69.6526 118.767 69.4325C118.846 68.615 118.264 67.8918 117.447 67.7974C112.18 67.2 108.029 65.1405 105.105 61.666C104.665 61.1471 104.24 60.5812 103.879 60.0309C103.816 59.9366 103.753 59.8265 103.69 59.7322L103.36 59.1819C103.187 58.8989 102.998 58.6002 102.857 58.3172C102.794 58.1757 102.731 58.05 102.668 57.9085L102.385 57.2796C102.259 57.028 102.149 56.7922 102.055 56.525C101.992 56.3677 101.945 56.2105 101.898 56.0533L101.678 55.393C101.599 55.1572 101.521 54.9213 101.442 54.6698C101.395 54.5126 101.363 54.3554 101.348 54.1981L101.206 53.5221C101.143 53.2706 101.096 53.0347 101.065 52.7832C101.033 52.6102 101.033 52.4373 101.017 52.2644L100.955 51.604C100.923 51.3525 100.907 51.1167 100.892 50.8651C100.892 50.6922 100.892 50.5192 100.892 50.3463V49.7174C100.892 49.4502 100.892 49.1986 100.923 48.9314C100.923 48.7584 100.955 48.5855 100.986 48.4125L101.065 47.7365C101.096 47.4535 101.128 47.1862 101.175 46.9033C101.3 46.2272 100.955 45.5669 100.326 45.2682C99.5711 44.9223 98.8164 44.5293 98.0303 44.0576C97.5115 43.7432 97.0241 43.3973 96.521 43.0357L96.2538 42.847C96.1594 42.7842 96.0808 42.737 96.0022 42.6741C95.5306 42.3125 95.0432 41.888 94.4615 41.3535L94.1628 41.0862C93.7226 40.6617 93.2824 40.1744 92.795 39.5769L92.4648 39.1839C92.2919 38.9795 92.1032 38.7751 91.946 38.555C91.553 37.989 91.1757 37.4073 90.8455 36.7942C90.5311 36.2125 90.2324 35.5993 89.9808 34.9862C89.9808 34.9705 89.9651 34.939 89.9494 34.9233C89.462 33.6813 89.1161 32.3764 88.9275 31.04C88.9275 30.9457 88.896 30.8671 88.8803 30.757C88.8331 30.3483 88.8174 29.9238 88.8174 29.5307C88.8174 29.3421 88.8174 29.1534 88.8174 28.949C88.8174 28.7447 88.8331 28.5403 88.8488 28.3516C88.896 27.707 88.9746 27.0782 89.0689 26.4336C89.0689 26.3707 89.0689 26.3078 89.0847 26.2449C89.1161 25.9934 89.1633 25.7418 89.2104 25.4745L89.4777 24.0439C89.6192 23.3049 89.7607 22.5817 89.8708 21.8585C89.8708 21.7799 89.8865 21.7013 89.8865 21.6384C90.0437 20.5694 90.2166 19.2173 90.1537 17.8495C90.1223 17.1263 89.572 16.5289 88.8488 16.4346C77.8436 15.0196 69.6369 16.0101 69.3225 16.0572L64.1186 16.6389C53.6951 17.9281 43.9162 22.8805 42.7842 23.4622C41.3221 23.9967 37.1087 25.616 35.5208 27.2668C32.9581 28.5403 27.1568 32.9895 25.8519 34.9705C24.8771 36.4326 25.1916 38.3349 25.6475 39.7499C25.4431 39.7341 25.2545 39.7027 25.113 39.687C24.3112 39.5927 23.3993 39.4826 22.5346 39.687C20.7266 40.0957 18.3055 42.1867 17.8338 42.6112C12.4098 47.4692 9.73713 53.7108 7.59898 58.7103L7.04872 59.9995C4.78479 65.2191 1.87627 74.7779 1.16879 78.2524C0.445593 81.8055 0.398428 88.7859 0.587088 90.9084C0.649975 91.7573 0.618532 92.9994 0.587088 94.43C0.524202 96.238 0.461315 98.2976 0.587088 100.341C0.822914 104.162 3.76288 111.205 3.87293 111.488C4.18736 112.258 5.27216 114.868 6.01108 115.764C6.3884 116.22 6.93866 117.399 7.14305 117.887C7.55181 118.987 8.58945 122.147 8.68378 124.065C8.79383 126.722 10.6962 129.898 11.2307 130.731C11.6709 131.958 13.1016 134.536 14.4065 135.762H14.3908C14.3908 135.762 15.4127 137.303 17.4093 139.237C18.9186 140.699 19.9091 142.193 21.4341 144.472L22.2673 145.714C24.8143 149.503 28.7761 151.924 30.9143 153.025C32.1878 153.685 33.3512 154.581 34.6875 155.619C36.1653 156.767 37.8476 158.072 40.1429 159.408C44.5922 162.018 51.0695 163.527 51.4783 163.621C53.0348 163.841 55 163.59 56.5879 163.401C57.1224 163.338 57.6412 163.275 57.9714 163.244C58.1915 163.496 58.5216 164.124 58.7103 164.675C58.7417 164.753 58.7575 164.816 58.8046 164.895C59.9523 167.159 64.1972 167.599 71.1462 167.599C71.2877 167.599 85.2486 167.599 88.3615 166.42C89.6349 165.932 90.2795 165.87 91.4272 165.744C92.1504 165.665 93.0308 165.571 94.2886 165.351C98.4077 164.643 99.744 161.184 99.7912 161.043C99.9484 160.65 100.137 160.005 100.326 159.408C101.08 159.848 102.024 160.508 102.542 160.854C103.989 161.845 104.335 162.081 104.979 162.018C105.089 162.018 105.341 161.986 109.287 161.31L109.444 161.279C112.541 160.76 116.346 157.458 119.663 154.408C120.277 153.842 120.748 153.402 121.031 153.182C121.581 152.758 122.368 152.302 123.201 151.83C124.333 151.185 125.622 150.447 126.848 149.503C128.845 147.947 132.508 143.372 133.357 142.287C135.715 140.605 138.026 137.083 138.136 136.926C138.168 136.863 138.215 136.8 138.247 136.737C139.551 133.954 141.045 132.099 142.476 130.307C143.608 128.908 144.771 127.446 145.824 125.606C147.805 122.1 148.513 119.27 148.701 118.217C149.315 116.676 149.771 114.601 149.943 113.736C150.745 112.054 151.075 109.067 151.531 105.011L151.783 102.841C151.862 102.181 151.484 101.536 150.855 101.285H150.792Z" fill="white"/>
<path d="M150.688 101.285C149.509 100.813 148.361 100.231 147.166 99.4924L147.009 99.3981C146.506 99.0837 146.034 98.7535 145.484 98.3447C144.651 97.7159 143.88 96.9927 143.047 96.0965C142.906 95.9393 142.78 95.7978 142.638 95.6406L142.528 95.5148C142.308 95.2476 142.104 94.9803 141.915 94.713L141.444 94.037C141.255 93.7383 141.082 93.4238 140.893 93.0937L140.768 92.8579L140.579 92.512C140.359 92.0561 140.154 91.5844 139.981 91.097L139.903 90.9241C139.683 90.2638 139.038 89.855 138.346 89.9022C136.02 90.1223 133.614 89.7921 131.193 88.9589C130.784 88.8174 130.375 88.6759 129.967 88.5029C129.668 88.3772 129.385 88.2514 129.102 88.1099C128.678 87.9055 128.269 87.6854 127.829 87.4339C127.577 87.2924 127.341 87.1509 127.09 87.0094C126.649 86.7264 126.225 86.4277 125.816 86.129L125.062 85.5473C124.574 85.1542 124.008 84.6668 123.474 84.148C123.081 83.7393 122.672 83.2833 122.232 82.7016C122.2 82.6545 122.153 82.6073 122.106 82.5601C122.043 82.4658 121.964 82.3557 121.901 82.2457L121.477 81.6011C121.335 81.4124 121.21 81.2238 121.084 81.0194C120.974 80.8465 120.895 80.6578 120.801 80.4691L120.455 79.8088C120.361 79.6359 120.266 79.4629 120.188 79.2743C120.093 79.0699 120.015 78.8498 119.936 78.6297L119.669 77.9065C119.606 77.7336 119.543 77.5763 119.48 77.4034C119.402 77.1519 119.339 76.9003 119.276 76.6488L119.134 76.0671C119.009 75.564 118.914 75.0451 118.836 74.542L118.804 74.3062L118.757 74.0232C118.757 73.9289 118.726 73.8503 118.71 73.7402C118.663 73.3 118.631 72.8598 118.616 72.3724V71.9951C118.584 71.8222 118.568 71.6493 118.568 71.4763C118.568 71.2719 118.568 71.0675 118.6 70.8632L118.631 70.0928C118.631 69.8727 118.631 69.6526 118.663 69.4325C118.741 68.615 118.16 67.8918 117.342 67.7974C112.075 67.2 107.925 65.1405 105.001 61.666C104.56 61.1471 104.136 60.5812 103.774 60.0309C103.711 59.9366 103.649 59.8265 103.586 59.7322L103.255 59.1819C103.083 58.8989 102.894 58.6002 102.752 58.3172C102.689 58.1757 102.627 58.05 102.564 57.9085L102.281 57.2796C102.155 57.028 102.045 56.7922 101.951 56.525C101.888 56.3677 101.841 56.2105 101.793 56.0533L101.573 55.393C101.495 55.1572 101.416 54.9213 101.337 54.6698C101.29 54.5126 101.259 54.3554 101.243 54.1981L101.102 53.5221C101.039 53.2706 100.992 53.0347 100.96 52.7832C100.929 52.6102 100.929 52.4373 100.913 52.2644L100.85 51.604C100.819 51.3525 100.803 51.1167 100.787 50.8651C100.787 50.6922 100.787 50.5192 100.787 50.3463V49.7174C100.787 49.4502 100.787 49.1986 100.819 48.9314C100.819 48.7584 100.85 48.5855 100.881 48.4125L100.96 47.7365C100.992 47.4535 101.023 47.1862 101.07 46.9033C101.196 46.2272 100.85 45.5669 100.221 45.2682C99.4665 44.9223 98.7119 44.5293 97.9258 44.0576C97.407 43.7432 96.9196 43.3973 96.4165 43.0357L96.1493 42.847C96.0549 42.7842 95.9763 42.737 95.8977 42.6741C95.4261 42.3125 94.9387 41.888 94.357 41.3535L94.0583 41.0862C93.6181 40.6617 93.1778 40.1744 92.6905 39.5769L92.3603 39.1839C92.1874 38.9795 91.9987 38.7751 91.8415 38.555C91.4485 37.989 91.0711 37.4073 90.741 36.7942C90.4266 36.2125 90.1278 35.5993 89.8763 34.9862C89.8763 34.9705 89.8606 34.939 89.8448 34.9233C89.3575 33.6813 89.0116 32.3764 88.8229 31.04C88.8229 30.9457 88.7915 30.8671 88.7758 30.757C88.7286 30.3483 88.7129 29.9238 88.7129 29.5307C88.7129 29.3421 88.7129 29.1534 88.7129 28.949C88.7129 28.7447 88.7286 28.5403 88.7443 28.3516C88.7915 27.707 88.8701 27.0782 88.9644 26.4336C88.9644 26.3707 88.9644 26.3078 88.9801 26.2449C89.0116 25.9934 89.0588 25.7418 89.1059 25.4745L89.3732 24.0439C89.5147 23.3049 89.6562 22.5817 89.7662 21.8585C89.7662 21.7799 89.782 21.7013 89.782 21.6384C89.9392 20.5694 90.1121 19.2173 90.0492 17.8495C90.0178 17.1263 89.4675 16.5289 88.7443 16.4346C77.7391 15.0196 69.5324 16.0101 69.2179 16.0572L64.0141 16.6389C53.5906 17.9281 43.8116 22.8805 42.6797 23.4622C41.2176 23.9967 37.0041 25.616 35.4162 27.2668C32.8536 28.5403 27.0523 32.9895 25.7474 34.9705C24.7726 36.4326 25.0871 38.3349 25.543 39.7499C25.3386 39.7341 25.15 39.7027 25.0085 39.687C24.2066 39.5927 23.2948 39.4826 22.4301 39.687C20.6221 40.0957 18.2009 42.1867 17.7293 42.6112C12.3053 47.4692 9.63261 53.7108 7.49445 58.7103L6.94419 59.9995C4.68027 65.2191 1.77175 74.7779 1.06427 78.2524C0.34107 81.8055 0.293905 88.7859 0.482566 90.9084C0.545453 91.7573 0.514009 92.9994 0.482566 94.43C0.419679 96.238 0.356792 98.2976 0.482566 100.341C0.718392 104.162 3.65835 111.205 3.76841 111.488C4.08284 112.258 5.16764 114.868 5.90656 115.764C6.28388 116.22 6.83414 117.399 7.03852 117.887C7.44729 118.987 8.48492 122.147 8.57925 124.065C8.68931 126.722 10.5916 129.898 11.1262 130.731C11.5664 131.958 12.9971 134.536 14.302 135.762H14.2862C14.2862 135.762 15.3082 137.303 17.3048 139.237C18.8141 140.699 19.8046 142.193 21.3296 144.472L22.1628 145.714C24.7097 149.503 28.6716 151.924 30.8098 153.025C32.0832 153.685 33.2466 154.581 34.583 155.619C36.0608 156.767 37.743 158.072 40.0384 159.408C44.4877 162.018 50.965 163.527 51.3738 163.621C52.9302 163.841 54.8955 163.59 56.4833 163.401C57.0179 163.338 57.5367 163.275 57.8669 163.244C58.087 163.496 58.4171 164.124 58.6058 164.675C58.6372 164.753 58.6529 164.816 58.7001 164.895C59.8478 167.159 64.0927 167.599 71.0417 167.599C71.1832 167.599 85.1441 167.599 88.257 166.42C89.5304 165.932 90.175 165.87 91.3227 165.744C92.0459 165.665 92.9263 165.571 94.184 165.351C98.3031 164.643 99.6395 161.184 99.6866 161.043C99.8439 160.65 100.033 160.005 100.221 159.408C100.976 159.848 101.919 160.508 102.438 160.854C103.884 161.845 104.23 162.081 104.875 162.018C104.985 162.018 105.236 161.986 109.183 161.31L109.34 161.279C112.437 160.76 116.242 157.458 119.559 154.408C120.172 153.842 120.644 153.402 120.927 153.182C121.477 152.758 122.263 152.302 123.096 151.83C124.228 151.185 125.517 150.447 126.744 149.503C128.74 147.947 132.404 143.372 133.253 142.287C135.611 140.605 137.922 137.083 138.032 136.926C138.063 136.863 138.111 136.8 138.142 136.737C139.447 133.954 140.94 132.099 142.371 130.307C143.503 128.908 144.667 127.446 145.72 125.606C147.701 122.1 148.408 119.27 148.597 118.217C149.21 116.676 149.666 114.601 149.839 113.736C150.641 112.054 150.971 109.067 151.427 105.011L151.678 102.841C151.757 102.181 151.38 101.536 150.751 101.285H150.688ZM148.408 104.665C148 108.281 147.654 111.394 147.04 112.526C146.962 112.667 146.915 112.824 146.883 112.966C146.789 113.422 146.333 115.733 145.72 117.195C145.673 117.305 145.641 117.431 145.626 117.541C145.626 117.572 145.17 120.387 143.063 124.113C142.135 125.748 141.098 127.037 139.997 128.42C138.456 130.323 136.869 132.304 135.422 135.369C134.746 136.376 132.875 138.907 131.334 139.944C131.209 140.039 131.083 140.133 130.989 140.259C129.809 141.752 126.429 145.919 124.841 147.145C123.788 147.962 122.656 148.607 121.556 149.236C120.628 149.755 119.763 150.258 119.04 150.808C118.71 151.06 118.16 151.563 117.468 152.207C115.456 154.063 111.258 157.914 108.837 158.323C108.821 158.323 108.695 158.339 108.679 158.355C106.667 158.7 105.472 158.889 104.906 158.983C104.67 158.842 104.372 158.622 104.026 158.386C101.102 156.405 99.7967 155.635 98.649 156.091C98.1302 156.295 97.7372 156.751 97.6114 157.301C97.4227 158.134 96.9196 159.675 96.8096 160.005C96.7467 160.147 95.9292 162.002 93.6023 162.411C92.4232 162.615 91.6057 162.709 90.9139 162.788C89.6562 162.93 88.76 163.024 87.125 163.637C85.3956 164.282 76.6229 164.628 70.9473 164.628C63.511 164.628 61.6715 163.951 61.2785 163.574C60.9326 162.599 59.9107 160.273 57.9769 160.273C57.4895 160.273 56.8449 160.351 56.0274 160.461C54.6911 160.634 52.8674 160.854 51.8297 160.713C51.7668 160.713 45.5096 159.235 41.4691 156.861C39.3467 155.619 37.7431 154.377 36.3281 153.276C34.9289 152.192 33.624 151.185 32.099 150.399C28.8917 148.733 26.1561 146.422 24.5525 144.064L23.735 142.837C22.1785 140.495 21.0466 138.797 19.3172 137.115C17.6979 135.542 16.8489 134.363 16.7074 134.127C16.6602 134.064 16.6131 134.002 16.5659 133.939C15.9842 133.31 14.3491 131.313 13.8618 129.678C13.8146 129.537 13.7517 129.395 13.6731 129.285C13.0914 128.405 11.5821 125.732 11.5035 123.955C11.3777 121.157 9.83699 117.006 9.7741 116.833H9.75838C9.44395 115.89 8.51637 114.318 8.13904 113.862C7.84033 113.5 7.03852 111.771 6.47254 110.372C5.67073 108.47 3.57975 102.92 3.40681 100.168C3.28103 98.2661 3.34392 96.2852 3.40681 94.5401C3.45397 93.0151 3.50114 91.6945 3.40681 90.6725C3.24959 88.8017 3.29675 82.0413 3.95707 78.8184C4.64882 75.4539 7.46301 66.2095 9.66405 61.1629L10.2143 59.8737C12.3525 54.8899 14.7736 49.2301 19.6945 44.828C20.5907 44.0262 22.2886 42.7684 23.0747 42.5955C23.4363 42.5169 24.0494 42.5955 24.6469 42.6584C25.8889 42.8156 27.4296 42.9885 28.593 41.9666C29.1118 41.5107 29.2533 40.7561 28.9232 40.1429C28.2943 38.9481 27.8541 37.2029 28.2314 36.637C29.2062 35.1591 34.8974 30.7413 36.9255 29.8766C37.1771 29.7666 37.3815 29.6094 37.5387 29.3893C38.0575 28.6661 41.1861 27.1882 43.7802 26.2606C43.8431 26.2449 43.906 26.2135 43.9689 26.182C44.0632 26.1349 54.0779 20.8995 64.3442 19.6261L69.5638 19.0444C69.6424 19.0444 77.0788 18.1325 87.0307 19.2645C86.9835 20.0505 86.8734 20.8052 86.7791 21.4341C86.7791 21.5127 86.7634 21.5756 86.7634 21.6384C86.6533 22.2673 86.5433 22.8962 86.4175 23.5408L86.1502 25.0343C86.0874 25.3645 86.0402 25.6946 85.9773 26.0248C85.9773 26.0877 85.9616 26.1506 85.9616 26.2135C85.8672 26.8738 85.7886 27.5184 85.7415 28.1787C85.7415 28.4145 85.71 28.6503 85.71 28.8704C85.71 29.1063 85.71 29.3264 85.71 29.5622C85.71 30.0967 85.7258 30.6155 85.8044 31.1501C85.8044 31.2444 85.8358 31.3545 85.8672 31.4802C86.0874 33.0839 86.5118 34.6403 87.0936 36.1182C87.0936 36.1339 87.1093 36.1653 87.125 36.181C87.235 36.4483 87.3765 36.7156 87.5023 36.9828C87.4394 36.9828 87.3923 36.9828 87.3294 36.9986C85.6314 37.2658 84.4051 37.8947 83.5404 38.6022C81.6224 40.1901 81.4337 42.2968 81.4337 42.2968C83.4461 43.6646 88.2098 43.5702 91.6843 42.9571C91.7786 43.0514 91.8572 43.1458 91.9516 43.2401C92.0302 43.3187 92.1245 43.3973 92.2974 43.5545C92.942 44.1519 93.4923 44.6393 94.0583 45.0638C94.184 45.1581 94.3255 45.2525 94.467 45.3468L94.6557 45.4726C95.206 45.8813 95.7719 46.2744 96.3694 46.636C96.9039 46.9504 97.4227 47.2491 97.9415 47.5164L97.8786 48.0038C97.8472 48.2396 97.8158 48.4754 97.8 48.7113C97.7686 49.0414 97.7686 49.3873 97.7686 49.7174V50.252C97.7529 50.4878 97.7529 50.7394 97.7686 50.9752C97.7686 51.2896 97.8158 51.604 97.8472 51.9185L97.9101 52.5002C97.9258 52.736 97.9573 52.9876 97.9887 53.2234C98.0359 53.5378 98.0988 53.868 98.1774 54.1824L98.3031 54.7641C98.3503 54.9999 98.3975 55.22 98.4446 55.4401C98.5232 55.7546 98.6333 56.0533 98.7433 56.3677L98.932 56.9337C98.9949 57.1538 99.0735 57.3896 99.1521 57.6097C99.2779 57.9242 99.4194 58.2386 99.5766 58.553L99.8281 59.0876C99.9225 59.292 100.001 59.4964 100.111 59.685C100.3 60.0466 100.52 60.3925 100.724 60.7384L100.992 61.1943C101.086 61.3515 101.18 61.5245 101.29 61.6817C101.73 62.3263 102.202 62.9709 102.721 63.584C105.881 67.3415 110.22 69.6998 115.628 70.5802V70.6745C115.613 70.9418 115.581 71.209 115.581 71.4763C115.581 71.7121 115.581 71.948 115.613 72.1838V72.5611C115.66 73.0642 115.691 73.583 115.739 74.0704C115.754 74.2119 115.77 74.3691 115.801 74.5106L115.88 75.0137C115.974 75.5954 116.084 76.1928 116.226 76.7745L116.367 77.3562C116.446 77.6707 116.525 78.0008 116.619 78.3153C116.698 78.5511 116.792 78.7869 116.886 79.0227L117.122 79.6359C117.216 79.9189 117.326 80.2019 117.452 80.4849C117.562 80.7364 117.688 80.988 117.83 81.2238L118.113 81.7898C118.238 82.0413 118.364 82.3086 118.506 82.5444C118.663 82.8117 118.851 83.0789 119.024 83.3305L119.386 83.865C119.512 84.0694 119.653 84.2738 119.795 84.4625C119.81 84.4782 119.889 84.5725 119.905 84.5882C119.921 84.6197 119.952 84.6354 119.968 84.6668C120.455 85.28 120.895 85.7831 121.335 86.239C121.964 86.8679 122.625 87.4339 123.159 87.8584C123.332 87.9998 123.505 88.1413 123.678 88.2671L124.024 88.5187C124.511 88.8803 124.999 89.2261 125.502 89.5406C125.785 89.7135 126.068 89.8707 126.382 90.0594C126.854 90.3267 127.325 90.5782 127.813 90.814C128.143 90.9713 128.473 91.1285 128.803 91.27C129.275 91.4586 129.747 91.6316 130.218 91.8045C132.655 92.6378 135.108 93.0151 137.497 92.9522C137.623 93.2509 137.749 93.5496 137.89 93.8326C137.938 93.9269 137.985 94.0213 138.111 94.2414L138.283 94.5401C138.488 94.9174 138.692 95.2947 138.944 95.672L139.494 96.4581C139.73 96.7883 139.966 97.1184 140.233 97.4172L140.359 97.5587C140.516 97.7473 140.689 97.936 140.893 98.1561C141.774 99.1308 142.717 99.9955 143.645 100.687L143.77 100.782C144.305 101.175 144.855 101.568 145.421 101.914L145.736 102.102C146.632 102.652 147.575 103.14 148.534 103.58L148.408 104.649V104.665Z" fill="#2D2321"/>
<path d="M99.435 30.301C99.435 30.301 98.979 31.6531 98.979 32.0618C98.979 32.4706 99.6394 34.6402 99.7808 35.1905C99.9223 35.7407 100.693 37.4858 100.929 38.0833C101.164 38.6807 101.762 39.9384 101.84 39.907C101.919 39.8913 104.277 38.6493 104.277 38.6493L104.655 38.099C102.925 33.917 103.098 28.666 103.098 28.666C103.098 28.666 100.457 28.1786 99.4192 30.2853L99.435 30.301Z" fill="#2D2321"/>
<path d="M102.045 3.33849C102.186 3.2756 102.642 2.47379 103.114 1.106C103.57 -0.277509 101.683 0.304195 101.164 0.587186C100.645 0.870177 100.535 3.33849 100.535 3.33849C100.535 3.33849 101.919 3.40138 102.06 3.33849H102.045Z" fill="#2D2321"/>
<path d="M110.456 39.6557C110.456 39.6557 111.006 37.2975 110.912 36.9044C110.833 36.4956 110.456 34.326 110.456 34.326C110.456 34.326 108.931 34.9549 108.365 35.1593C108.365 35.1593 108.475 36.6529 108.365 37.2188C108.255 37.7848 108.852 39.8601 108.821 40.3789C108.79 40.8977 110.456 39.6557 110.456 39.6557Z" fill="#2D2321"/>
<path d="M144.367 72.5457L145.169 71.4294C145.169 71.4294 144.367 68.6938 144.084 67.8291C143.801 66.9644 143.22 65.1879 143.172 64.842C143.109 64.4961 141.506 61.5719 141.506 61.5719C141.506 61.5719 138.927 63.7572 138.692 64.1031C138.692 64.1031 141.16 68.7567 141.93 69.4956C142.701 70.2346 144.367 72.5299 144.367 72.5299V72.5457Z" fill="#2D2321"/>
<path d="M159.413 96.4425C159.413 96.4425 157.212 98.1561 156.788 98.8951C156.363 99.634 155.278 100.231 155.153 100.357C155.027 100.483 157.134 101.819 157.354 101.819C157.574 101.819 160.498 100.782 160.577 100.656C160.655 100.53 161.646 98.9422 161.866 98.4549C162.086 97.9832 159.806 96.9456 159.413 96.4268V96.4425Z" fill="#2D2321"/>
<path d="M96.322 14.6739C96.322 14.6739 98.3815 14.6268 98.8217 14.501C99.2462 14.3752 101.227 13.7306 101.353 12.866C101.479 12.0013 101.432 10.9322 101.432 10.9322L98.6802 9.29712L93.7751 10.9322C94.2467 11.2309 96.0547 12.9131 96.0547 12.9131L96.3062 14.6739H96.322Z" fill="#2D2321"/>
<path d="M129.464 64.8892V63.6H125.942V64.6062L126.759 65.6124L129.464 64.8734V64.8892Z" fill="#2D2321"/>
<path d="M151.788 99.1308C152.15 98.9736 152.967 98.9421 152.857 98.7692C152.747 98.5962 151.081 98.2504 150.719 98.2504C150.719 98.2504 151.411 99.288 151.788 99.1308Z" fill="#2D2321"/>
<path d="M113.852 90.657C111.871 88.2673 107.469 86.0506 102.391 88.8019C100.504 89.8238 99.3877 91.1758 98.7431 92.5908C97.108 96.1753 98.5544 100.153 98.633 100.294C98.7431 100.483 99.3405 101.285 100.174 101.772C101.023 102.244 105.692 103.47 110.487 101.253C115.282 99.0367 114.936 92.8266 114.936 92.8266C114.842 92.1978 114.465 91.4274 113.836 90.6727L113.852 90.657Z" fill="#2D2321"/>
<path d="M114.433 128.766C111.761 126.565 106.918 126.974 103.334 131.565C103.255 131.659 103.176 131.754 103.114 131.848C99.2618 137.036 103.318 140.196 103.994 140.385C104.67 140.574 107.83 140.605 111.525 136.627C115.204 132.665 114.968 129.254 114.968 129.254C114.811 129.081 114.622 128.908 114.449 128.751L114.433 128.766Z" fill="#2D2321"/>
<path d="M53.8421 140.542C53.6534 140.558 53.4805 140.573 53.2918 140.605C47.239 141.548 47.3019 143.954 47.632 144.504C47.9465 145.054 50.9179 147.994 55.4614 147.224C60.005 146.453 62.3633 144.677 62.3633 144.677C62.3318 144.535 62.2689 144.362 62.2061 144.189C61.53 142.476 58.9831 139.945 53.8421 140.542Z" fill="#2D2321"/>
<path d="M80.9149 123.453C79.8144 121.424 76.9845 118.139 71.419 118.909C69.5324 119.176 68.086 119.837 66.9855 120.717C63.7782 123.295 63.5424 127.839 64.47 130.244C64.47 130.244 68.7463 133.263 74.4847 131.942C80.2232 130.622 81.591 125.685 81.4809 124.836C81.4495 124.632 81.2765 124.097 80.9149 123.453Z" fill="#2D2321"/>
<path d="M54.3767 52.5948C55.6502 46.0231 54.3767 44.4509 54.3767 44.4509C54.3138 44.4195 54.2352 44.388 54.1566 44.3409C51.5154 43.0045 45.9656 43.602 43.7646 50.5824C43.6545 50.944 43.5759 51.2742 43.4973 51.62C42.1138 58.0188 47.6164 60.55 48.1352 60.4556C48.6697 60.3613 53.0875 59.1822 54.3767 52.5948Z" fill="#2D2321"/>
<path d="M27.7596 73.2375C26.7534 73.3632 25.0555 73.9449 23.7663 76.2403C23.389 76.9163 23.1689 77.5924 23.0745 78.237C22.6815 80.8939 24.3165 83.0007 24.7568 82.9692C25.307 82.9378 28.813 76.1931 28.6243 73.206C28.6243 73.206 28.2784 73.1589 27.7596 73.206V73.2375Z" fill="#2D2321"/>
<path d="M70.3498 86.8365C75.6166 87.7169 79.2011 84.5254 79.6413 80.0133C79.6413 79.9504 79.657 79.9032 79.657 79.8404C80.0186 75.2339 76.6385 72.404 76.6385 72.404C75.7423 71.4607 72.991 70.0143 69.2335 70.0143C66.6395 70.0143 64.6585 71.7122 63.4794 73.929C62.9449 74.9352 62.5832 76.0357 62.426 77.1519C61.8758 80.7208 65.0044 85.9561 70.3498 86.8365Z" fill="#2D2321"/>
<path d="M41.1393 99.5555C38.3251 98.9424 35.3222 99.9957 33.3885 102.338C32.1464 103.832 31.3604 105.86 31.3446 108.344C31.3132 114.696 37.1302 117.085 38.3094 117.132C39.4885 117.164 44.1264 114.334 44.205 108.218C44.2522 103.675 42.5542 101.112 41.6581 100.09C41.3437 99.7285 41.1393 99.5555 41.1393 99.5555Z" fill="#2D2321"/>
<path d="M131.806 117.117C140.359 111.284 135.972 101.269 135.972 101.269C132.215 101.914 129.086 111.787 131.806 117.117Z" fill="#2D2321"/>
<path d="M154.885 142.304L124.556 128.975L134.07 160.71L139.929 155.526L152.111 170.082L161.207 162.035L149.026 147.488L154.885 142.304Z" fill="#EDA51E"/>
<path d="M152.111 170.855C152.111 170.855 152.076 170.855 152.049 170.855C151.845 170.838 151.649 170.74 151.516 170.58L139.85 156.637L134.586 161.288C134.39 161.466 134.114 161.528 133.865 161.448C133.608 161.377 133.412 161.181 133.341 160.923L123.827 129.189C123.738 128.895 123.827 128.584 124.058 128.388C124.28 128.193 124.609 128.139 124.885 128.264L155.215 141.593C155.455 141.699 155.624 141.922 155.668 142.179C155.712 142.437 155.615 142.704 155.419 142.882L150.128 147.568L161.821 161.537C162.088 161.857 162.052 162.337 161.741 162.613L152.645 170.66C152.503 170.784 152.325 170.855 152.129 170.855H152.111ZM139.939 154.761C139.939 154.761 139.974 154.761 140.001 154.761C140.205 154.779 140.401 154.877 140.534 155.037L152.2 168.979L160.141 161.964L148.448 147.995C148.181 147.675 148.217 147.194 148.528 146.919L153.481 142.544L125.792 130.38L134.479 159.349L139.432 154.966C139.574 154.841 139.752 154.77 139.947 154.77L139.939 154.761Z" fill="black"/>
</svg>
