<svg width="14" height="14" viewBox="0 0 14 14" fill="none" xmlns="http://www.w3.org/2000/svg">
<path d="M13.2997 0.710017C13.1129 0.522765 12.8592 0.417532 12.5947 0.417532C12.3302 0.417532 12.0766 0.522765 11.8897 0.710017L6.99973 5.59002L2.10973 0.700017C1.9229 0.512765 1.66924 0.407532 1.40473 0.407532C1.14021 0.407532 0.886558 0.512765 0.699727 0.700017C0.309727 1.09002 0.309727 1.72002 0.699727 2.11002L5.58973 7.00002L0.699727 11.89C0.309727 12.28 0.309727 12.91 0.699727 13.3C1.08973 13.69 1.71973 13.69 2.10973 13.3L6.99973 8.41002L11.8897 13.3C12.2797 13.69 12.9097 13.69 13.2997 13.3C13.6897 12.91 13.6897 12.28 13.2997 11.89L8.40973 7.00002L13.2997 2.11002C13.6797 1.73002 13.6797 1.09002 13.2997 0.710017Z" fill="#999999"/>
</svg>
