<?xml version="1.0" encoding="UTF-8"?>
<svg id="Layer_3" data-name="Layer 3" xmlns="http://www.w3.org/2000/svg" viewBox="0 0 200 131.43">
  <defs>
    <style>
      .cls-1, .cls-2 {
        opacity: .13;
      }

      .cls-2 {
        isolation: isolate;
      }

      .cls-2, .cls-3, .cls-4, .cls-5 {
        stroke-width: 0px;
      }

      .cls-4 {
        fill: #fff;
      }

      .cls-5 {
        fill: #eda51e;
      }
    </style>
  </defs>
  <path class="cls-3" d="m139.27,29.89c-.19,0-.37-.1-.48-.29-.14-.26-.04-.58.2-.72l8.12-4.67c.71-.4,1.14-.25,1.38-.06.17.14.26.33.23.55-.06.53-.06.58-9.23,5.13-.07.04-.16.06-.25.06h.01Z"/>
  <path class="cls-3" d="m87.63,14.35c-.2,0-.4-.12-.49-.32l-3.97-8.97c-.12-.27,0-.59.27-.71.27-.12.59,0,.71.27l3.97,8.97c.12.27,0,.59-.27.71-.07.03-.14.04-.22.04h0Z"/>
  <path class="cls-3" d="m60.98,34.37h-.12l-8.91-1.86c-.25-.04-.88-.19-1.04-.76-.06-.22,0-.45.16-.61.35-.33.56-.56,10.05,2.16.27.09.45.36.38.65-.06.25-.27.42-.52.42h0Z"/>
  <path class="cls-3" d="m49.11,69.22c-.2,0-.4-.12-.49-.32-.12-.27,0-.59.27-.71l9.24-4.07c.27-.12.59,0,.71.27.12.27,0,.59-.27.71l-9.24,4.07s-.14.04-.22.04h0Z"/>
  <path class="cls-3" d="m114.86,14.18s-.13,0-.19-.04c-.27-.1-.42-.42-.32-.69l3.26-8.49c.1-.27.42-.42.69-.32.27.1.42.42.32.69l-3.26,8.49c-.09.22-.29.35-.51.35h0Z"/>
  <path class="cls-3" d="m150.88,62.64s-.13,0-.2-.04l-8.99-3.59c-.27-.12-.42-.43-.3-.71.12-.27.43-.42.71-.3l8.98,3.59c.27.12.42.43.3.71-.09.22-.29.35-.5.35Z"/>
  <path class="cls-4" d="m90.54,97.51c-.17-5.06-1.48-10.07-3.81-14.6-3.86-7.53-10.38-13.54-14.08-21.16-4.31-8.91-2.86-19.76,2-26.61,6.78-9.56,18.97-13.76,28.25-13.24,5.86.33,23.08,2.16,28.44,18.98,5.39,16.87-7.51,29.15-12.26,36.29-3.26,4.9-7.33,9.66-7.87,15.47-.13,1.34-.12,2.77-.89,3.88-.94,1.36-2.74,1.82-4.38,2.16-2.99.65-6.06,1.31-9.09.84-3.03-.48-6.01-2.34-6.33-2.03h.01Z"/>
  <path class="cls-3" d="m99.02,100.25c-.75,0-1.5-.04-2.24-.16-1.8-.29-3.55-1.02-4.82-1.56-.49-.22-1.05-.45-1.27-.49-.12.04-.25.03-.36,0-.2-.07-.33-.27-.35-.49-.17-4.96-1.47-9.92-3.75-14.36-1.85-3.61-4.37-6.94-6.82-10.15-2.62-3.46-5.34-7.04-7.27-11.02-4.11-8.48-3.26-19.66,2.05-27.16,7.1-10.02,19.54-13.97,28.73-13.47,8.65.49,23.91,3.65,28.93,19.35,4.6,14.39-3.88,25.51-9.49,32.88-1.07,1.4-2.08,2.71-2.84,3.86-.58.87-1.18,1.74-1.77,2.6-2.74,3.92-5.57,7.98-6,12.63-.01.19-.03.39-.04.59-.1,1.23-.19,2.48-.94,3.56-1.04,1.49-2.9,1.99-4.72,2.39-2.19.48-4.61,1.01-7.04,1.01v-.03Zm-7.96-3.25c.33.09.75.27,1.34.52,1.21.52,2.88,1.23,4.56,1.49,2.97.46,6.11-.22,8.88-.82,1.67-.36,3.25-.79,4.05-1.95.58-.82.66-1.89.75-3.03.01-.2.03-.4.04-.61.46-4.95,3.37-9.11,6.19-13.15.59-.84,1.2-1.72,1.77-2.57.78-1.18,1.8-2.51,2.87-3.92,5.48-7.18,13.74-18.04,9.32-31.89-4.82-15.1-19.58-18.14-27.96-18.6-8.61-.49-20.97,3.39-27.79,13.01-5.09,7.2-5.9,17.91-1.96,26.06,1.87,3.88,4.56,7.41,7.15,10.83,2.47,3.26,5.02,6.62,6.92,10.31,2.28,4.44,3.6,9.37,3.85,14.34h.01Z"/>
  <path class="cls-5" d="m114.16,89.88s-27.04-.35-27.07-.1c-.38,5.39-.04,10.84,1.01,16.15.53,2.7,1.74,9.07,11.68,9.63,7.79.45,11.42-3.76,12.52-8.18,1.24-5.02,1.9-11.48,1.86-17.51Z"/>
  <path class="cls-3" d="m100.94,116.14c-.39,0-.78,0-1.18-.03-10.3-.59-11.61-7.21-12.17-10.04v-.04c-1.07-5.35-1.41-10.83-1.02-16.3.05-.39,1.64-.59,4.77-.59,2.25,0,5.38,0,9.3.04,6.69.06,13.46.14,13.53.14.29,0,.53.25.53.53.04,6.23-.65,12.66-1.89,17.65-.65,2.65-3.12,8.62-11.88,8.62h.01Zm-13.33-25.87c-.33,5.19.01,10.43,1.04,15.55v.04c.56,2.8,1.72,8.62,11.18,9.16,8.93.52,11.34-5.26,11.96-7.77,1.18-4.76,1.85-10.87,1.85-16.85-9.63-.12-23.48-.25-26.02-.14h0Z"/>
  <path class="cls-3" d="m105.21,94.41c-5.21,0-10.43-.13-15.59-.4-.1,0-.17-.09-.17-.19s.09-.17.19-.17c7.25.38,14.61.49,21.86.33.1,0,.17.07.17.17s-.07.19-.17.19c-2.09.04-4.2.07-6.3.07h.01Z"/>
  <path class="cls-3" d="m97.45,98.42c-2.51,0-5-.04-7.5-.13-.1,0-.17-.09-.17-.19s.09-.17.19-.17c7.04.24,14.15.14,21.17-.3.1,0,.19.07.19.17s-.07.19-.17.19c-4.54.29-9.13.43-13.72.43h.01Z"/>
  <path class="cls-3" d="m90.45,102.49c-.1,0-.17-.07-.17-.17s.07-.19.17-.19l20.22-.46c.1,0,.19.07.19.17s-.07.19-.17.19l-20.22.46h-.01Z"/>
  <path class="cls-3" d="m97.71,106.31c-2.12,0-4.25,0-6.36-.03-.1,0-.17-.09-.17-.19s.09-.17.17-.17c6.1.04,12.29.03,18.4-.07.09,0,.19.07.19.17s-.07.19-.17.19c-3.99.06-8.03.09-12.04.09h-.01Z"/>
  <path class="cls-3" d="m98.96,109.78c-2.13,0-4.27-.03-6.4-.1-.1,0-.17-.09-.17-.19s.09-.17.17-.17c5.34.16,10.76.12,16.1-.13.1,0,.19.07.19.17s-.07.19-.17.19c-3.23.14-6.48.23-9.72.23h.01Z"/>
  <path class="cls-3" d="m100.71,112.86c-1.85,0-3.69-.06-5.52-.16-.1,0-.17-.09-.17-.19s.09-.17.19-.17c3.39.19,6.82.2,10.21.04.09,0,.19.07.19.17s-.07.19-.17.19c-1.56.07-3.14.12-4.72.12h0Z"/>
  <g class="cls-1">
    <path class="cls-2" d="m113.75,90.13c-.59-1.51-3-1.04-2.99.59-.4,4.25-.43,7.34-.79,10.3-.29,1.67-.97,3.23-1.57,4.82-.53,1.27-3.13,4.5-5.71,5.6-.95.5-4.14,1.23-5.78.52-.98-.27-1.79-.75-4.34-2.09-2-1.08-3.71,1.74-1.76,2.93,1.08.66,2.16,1.34,3.22,2.05-.13-.09-.29-.22-.38-.29.92.74,2.05,1.24,3.2,1.54,6.46,1.28,11.57-2.12,14.57-7.51,1.12-2.22,1.7-5.21,1.86-6.35.32-1.96.27-1.85.36-4.02,0-.33.1-.78-.01-1.18.04-.89.07-1.79.13-2.65.04-1.05.07-2.09.13-3.14,0-.36.09-.75-.12-1.08h-.01Z"/>
  </g>
  <g class="cls-1">
    <path class="cls-2" d="m122.4,69.04c-.87.81-1.7,1.64-2.57,2.45,0,.01-.01.03-.03.03-1.27.98-2.37,2.19-3.49,3.32-1.01,1.02-1.95,2.09-2.86,3.19-.23.22-.48.45-.75.65-.19.17-1.11.94-1.28,1.08l-.06.04c-.13.1-.49.38-.71.53-2.38,1.72-4.62,3.29-6.5,3.68-2.22.5-4.34.53-6.03.26-1.1-.2-1.64-.32-2.16-.49-1.85-.64-3.36-1.17-4.46-1.7-2.84-1.38-5.49-3.1-8-5,2.25,3.26,3.49,6.52,5.61,11.31.25.43.5.87.74,1.31.04.09.1.17.14.26.1.03.22.04.33.04.91-.06,1.8.19,2.71.2,1.46.09,2.93,0,4.38-.06,2.32-.07,4.62-.53,6.94-.55,2.58-.2,4.05.06,5.13.23,1.41.03,1.15-.19,2.03-.16.16,0,.3-.03.43-.07.12-.4.23-.81.38-1.2-.25-.25-.26-.61-.12-.94,1.24-2.83,2.94-5.37,4.79-7.86,3.29-4.44,7.15-8.47,10.22-13.05.19-.36.36-.74.55-1.1.78-1.57,1.56-3.13,2.34-4.7-2.18,2.48-5.32,5.74-7.76,8.25l.04.04Z"/>
  </g>
  <path class="cls-3" d="m103.61,89.32h-.01c-.3,0-.53-.26-.52-.56l.09-2.35c.23-6.4.95-12.84,2.15-19.11.33-1.76.72-3.53,1.24-5.25-1-.4-1.98-1.15-3-2.28-.4-.45-.78-.89-1.14-1.37-.43.62-.89,1.21-1.4,1.8-.76.88-1.72,1.86-2.96,2.39-.89.37-1.96.53-3.25.48-.49-.01-.97-.07-1.46-.14,2.08,8.44,2.68,17.21,3.27,25.73.01.3-.2.56-.5.58-.29.01-.56-.2-.58-.51-.59-8.65-1.21-17.54-3.37-26.05-2.77-.71-5.32-2.29-7.12-4.51-.89-1.1-1.38-2.12-1.53-3.12-.19-1.36.37-2.71,1.38-3.36,1.37-.88,3.16-.36,4.21.61,1.05.95,1.6,2.26,2.06,3.53.72,1.96,1.34,3.94,1.86,5.94.59.12,1.18.19,1.79.22,1.12.04,2.03-.09,2.77-.39,1.04-.45,1.89-1.31,2.57-2.11.58-.66,1.1-1.36,1.56-2.05-2.45-3.74-3.56-8.34-3.03-12.78.09-.74.24-1.5.75-2.11.97-1.12,2.73-1.02,3.79-.27.89.62,1.54,1.64,1.96,3.1,1.07,3.76.26,8.09-2.18,12.03.4.56.84,1.1,1.3,1.62.89.98,1.72,1.62,2.54,1.98.87-2.55,2.08-4.95,3.89-6.95,1.28-1.41,3.29-2.61,5.08-1.72,1.67.84,2.02,3.12,1.27,4.72-.71,1.53-2.13,2.55-3.42,3.39-1.8,1.17-3.92,2.31-6.11,1.9-.5,1.69-.89,3.43-1.23,5.15-1.18,6.22-1.9,12.61-2.13,18.95l-.09,2.35c0,.29-.25.52-.53.52h.03Zm-17.12-37.01c-.35,0-.69.09-1,.27-.76.49-1,1.51-.89,2.31.12.81.53,1.64,1.28,2.58,1.53,1.89,3.65,3.27,5.97,3.99-.49-1.77-1.04-3.53-1.67-5.26-.42-1.14-.91-2.31-1.77-3.1-.49-.45-1.21-.78-1.92-.78h0Zm21.43,8.98c1.76.25,3.53-.71,5.19-1.77,1.15-.75,2.44-1.66,3.03-2.93.52-1.11.32-2.74-.78-3.29-1.24-.62-2.81.4-3.79,1.49-1.69,1.86-2.83,4.11-3.65,6.52h0Zm-6.5-18.5c-.43,0-.85.14-1.14.46-.33.38-.43.95-.5,1.53-.49,4.02.48,8.19,2.6,11.64,2.08-3.56,2.74-7.41,1.8-10.74-.35-1.21-.85-2.03-1.53-2.51-.35-.23-.79-.37-1.21-.37h-.01Z"/>
</svg>