<svg width="280" height="184" viewBox="0 0 280 184" fill="none" xmlns="http://www.w3.org/2000/svg">
<mask id="mask0_1826_9959" style="mask-type:alpha" maskUnits="userSpaceOnUse" x="19" y="-35" width="210" height="213">
<ellipse cx="124" cy="71.4789" rx="105" ry="106.479" fill="#D9D9D9"/>
</mask>
<g mask="url(#mask0_1826_9959)">
<path d="M161.831 129.332C161.949 128.667 161.565 128.001 161.032 127.587C160.5 127.173 159.834 126.981 159.184 126.818C151.538 124.792 143.493 124.422 135.625 125.206C134.856 125.28 133.88 125.591 133.865 126.36C133.865 126.715 134.087 127.025 134.309 127.291C135.773 128.948 137.947 129.776 140.077 130.412C146.155 132.201 152.721 132.882 158.829 131.181C159.893 130.885 161.594 130.648 161.831 129.362V129.332Z" fill="white"/>
<path d="M138.124 111.763C139.277 110.506 140.431 109.22 141.555 107.933C143.537 105.7 145.474 103.422 147.382 101.13C147.589 101.175 147.811 101.16 147.944 101.293C149.142 100.287 151.049 99.8436 152.75 100.154C153.667 101.101 154.761 101.944 155.87 102.787C156.299 103.097 156.699 103.422 157.172 103.703C157.468 103.881 157.763 104.058 158.044 104.236H158.059C158.148 104.325 158.237 104.384 158.325 104.428C158.399 104.472 158.473 104.517 158.532 104.561C159.479 105.197 160.381 105.863 161.313 106.499C161.549 106.661 161.845 106.72 162.082 106.646V107.001C162.333 107.815 162.806 111.379 160.558 116.333C158.385 121.11 157.542 126.685 157.423 131.521C152.883 132.941 149.437 131.373 144.661 130.53C142.856 130.205 141.037 129.88 139.573 129.184C138.183 124.053 137.118 118.877 136.379 113.671C136.956 113.05 137.547 112.414 138.124 111.793V111.763Z" fill="white"/>
<path d="M156.094 107.815C156.227 105.818 155.62 103.777 154.422 102.18C153.668 101.175 152.677 100.332 152.115 99.2076C151.539 98.0837 151.539 96.5161 152.559 95.7766C153.195 95.3034 154.067 95.3034 154.837 95.4661C156.877 95.8949 158.519 97.3442 159.968 98.8379C160.87 99.7696 161.758 100.746 162.305 101.914C162.793 102.964 163 104.117 163.103 105.256C163.163 105.966 163.192 106.706 162.896 107.371C162.497 108.273 161.595 108.835 160.708 109.279C159.791 109.737 158.77 110.151 157.75 109.974C156.729 109.796 156.02 108.835 156.079 107.8L156.094 107.815Z" fill="white"/>
<path d="M270.024 237.527C271.237 223.063 272.464 212.741 273.677 198.277C275.437 208.082 280.731 227.367 282.92 237.852C262.127 238.517 248.581 239.183 230.612 241.49C234.073 244.226 236.853 247.82 238.436 251.724C240.018 255.628 240.536 259.872 240.964 264.072C263.148 263.333 284.946 262.963 306.73 263.658C309.17 263.732 311.758 263.791 313.843 262.534C315.411 261.588 316.49 259.976 317.156 258.275C318.975 253.587 317.866 248.337 316.727 243.427C313.37 228.905 306.893 201.339 300.918 187.689C298.345 181.803 295.254 176.035 290.802 171.391C281.515 161.675 267.702 158.067 254.348 154.917C253.771 158.244 250.267 160.226 246.969 160.936C244.026 161.572 240.89 161.587 238.11 160.433C235.33 159.279 232.993 156.869 231.662 152.891C221.429 151.959 214.966 151.989 210.455 152.654C204.495 153.527 198.713 157.86 194.72 162.208C186.409 171.273 182.09 178.904 173.35 189.419C165.838 170.415 161.475 150.155 161.874 128.992C159.996 133.296 135.994 132.867 133.436 126.049C135.121 151.279 136.852 176.789 144.512 200.88C146.982 208.629 150.132 216.349 155.426 222.531C160.721 228.713 168.455 233.208 176.589 232.987C184.723 232.765 189.928 230.532 195.178 220.475C196.081 221.91 196.983 223.344 197.426 225.03C197.486 235.782 196.48 248.337 196.332 258.896C220.305 262.697 245.46 259.473 269.551 257.935C269.61 250.807 269.507 243.679 270.024 237.556V237.527Z" fill="white"/>
<path d="M240.95 264.605C240.758 264.605 240.58 264.501 240.477 264.353C240.373 264.191 240.359 263.984 240.447 263.806C241.719 261.292 240.699 255.82 239.028 251.709L238.909 251.399C237.371 247.583 235.626 243.265 230.465 242.008C230.199 241.949 230.021 241.712 230.036 241.431C230.051 241.165 230.258 240.943 230.524 240.913C244.115 239.168 254.896 238.355 269.507 237.749C269.463 237.66 269.448 237.556 269.448 237.453C270.054 230.221 270.676 223.921 271.282 217.813C271.873 211.72 272.495 205.42 273.101 198.189C273.13 197.908 273.352 197.701 273.633 197.686C273.914 197.686 274.151 197.863 274.21 198.144C275.201 203.646 277.301 212.179 279.357 220.416C280.968 226.938 282.507 233.105 283.453 237.689C283.483 237.852 283.453 238.015 283.349 238.148C283.246 238.281 283.098 238.355 282.935 238.355C261.817 239.035 249.202 239.701 232.979 241.697C237.002 243.649 238.614 247.642 239.945 250.955L240.063 251.265C241.616 255.096 242.71 260.331 241.764 263.437C267.984 262.564 288.038 262.446 306.716 263.052C308.978 263.126 311.537 263.2 313.518 262.002C315.19 260.996 316.121 259.281 316.609 258.009C318.428 253.321 317.171 247.864 316.166 243.487C313.548 232.158 306.612 202.078 300.386 187.837C297.236 180.62 294.145 175.636 290.389 171.702C281.604 162.503 269.064 158.895 254.763 155.523C253.846 158.821 250.252 160.729 247.073 161.424C243.686 162.163 240.507 161.986 237.874 160.892C234.842 159.634 232.55 157.032 231.234 153.349C221.858 152.521 215.262 152.447 210.515 153.142C203.431 154.177 197.383 160.049 195.105 162.533C190.476 167.591 187.075 172.22 183.466 177.115C180.583 181.034 177.61 185.071 173.75 189.715C173.632 189.863 173.425 189.937 173.233 189.907C173.04 189.877 172.878 189.744 172.804 189.567C165.01 169.839 161.121 149.977 161.268 130.501C158.799 132.29 153.223 132.438 151.316 132.423C145.696 132.408 137.37 131.181 134.102 128.031C135.714 152.225 137.547 177.174 145.016 200.658C147.101 207.195 150.207 215.551 155.826 222.102C161.505 228.727 169.24 232.572 176.56 232.365C184.354 232.144 189.471 230.118 194.188 220.017C194.321 219.736 194.647 219.618 194.928 219.751C195.209 219.884 195.327 220.209 195.194 220.49C190.254 231.064 184.635 233.253 176.59 233.475C168.959 233.696 160.884 229.703 154.983 222.827C149.23 216.113 146.066 207.624 143.951 200.984C136.216 176.686 134.501 150.924 132.845 126.02C132.83 125.739 133.022 125.487 133.288 125.443C133.569 125.384 133.835 125.546 133.924 125.813C135.004 129.214 143.611 131.27 151.301 131.299C156.773 131.329 160.795 130.294 161.298 128.756C161.387 128.489 161.638 128.342 161.919 128.386C162.185 128.43 162.392 128.667 162.378 128.948C162.023 148.499 165.749 168.463 173.484 188.295C177.033 183.977 179.843 180.161 182.549 176.464C186.173 171.539 189.589 166.881 194.262 161.779C196.614 159.206 202.899 153.127 210.323 152.048C215.218 151.338 222.006 151.412 231.663 152.284C231.885 152.299 232.062 152.447 232.136 152.654C233.334 156.203 235.449 158.703 238.273 159.871C241.335 161.128 244.603 160.818 246.807 160.344C249.809 159.694 253.225 157.875 253.757 154.769C253.787 154.621 253.876 154.488 253.994 154.399C254.127 154.311 254.275 154.281 254.423 154.325C269.123 157.786 282.033 161.424 291.143 170.948C295.003 174.985 298.153 180.058 301.362 187.408C307.618 201.738 314.583 231.892 317.201 243.25C318.251 247.775 319.538 253.41 317.6 258.423C317.053 259.843 315.988 261.795 314.051 262.963C311.773 264.339 308.934 264.25 306.642 264.176C287.786 263.57 267.526 263.703 240.921 264.59H240.906L240.95 264.605ZM273.885 202.211C273.382 207.861 272.879 212.963 272.391 217.946C271.799 224.039 271.178 230.339 270.572 237.571C270.572 237.63 270.557 237.675 270.542 237.719C274.166 237.571 278.04 237.438 282.24 237.305C281.279 232.809 279.83 226.923 278.277 220.712C276.665 214.19 274.994 207.476 273.885 202.226V202.211Z" fill="black"/>
<path d="M161.934 129.377C161.934 129.377 161.889 129.377 161.875 129.377C161.564 129.347 161.342 129.066 161.372 128.77C161.372 128.637 161.327 128.46 161.194 128.297C161.046 128.105 160.825 127.957 160.603 127.824C159.775 127.291 158.399 126.936 156.521 126.759C156.211 126.729 155.989 126.463 156.018 126.153C156.048 125.842 156.314 125.62 156.625 125.65C158.71 125.857 160.203 126.256 161.194 126.892C161.475 127.07 161.801 127.291 162.052 127.617C162.363 128.001 162.511 128.46 162.466 128.889C162.437 129.17 162.2 129.391 161.919 129.391L161.934 129.377Z" fill="black"/>
<path d="M133.481 126.774C133.185 126.774 132.934 126.537 132.934 126.227C132.934 125.798 133.126 125.369 133.496 125.058C133.791 124.807 134.146 124.674 134.427 124.585C135.167 124.349 135.921 124.245 136.69 124.275C137 124.275 137.237 124.541 137.222 124.851C137.222 125.162 136.956 125.399 136.646 125.384C136.01 125.369 135.374 125.458 134.753 125.65C134.56 125.709 134.339 125.798 134.191 125.916C134.087 126.005 134.013 126.123 134.028 126.212C134.028 126.522 133.791 126.774 133.481 126.774V126.774Z" fill="black"/>
<g opacity="0.13">
<path opacity="0.13" d="M133.495 125.975C133.599 125.561 133.939 125.265 134.338 125.132C134.412 125.103 134.501 125.103 134.575 125.088C134.782 124.393 135.728 124.156 136.231 124.674C136.675 125.236 137.148 125.783 137.665 126.286C137.799 126.419 137.932 126.552 138.079 126.67C138.834 126.951 139.765 127.262 140.904 127.572C142.176 128.016 143.463 128.504 144.794 128.711C146.317 128.933 146.45 128.933 148.328 129.125C149.94 129.347 152.987 130.175 155.338 130.234C158.192 130.974 154.465 125.517 156.861 126.034C157.497 126.167 159.153 126.286 160.115 126.877C160.47 127.099 160.839 127.321 161.061 127.676C161.091 127.72 161.106 127.779 161.12 127.824C161.165 127.824 161.224 127.824 161.268 127.824C162.318 127.913 162.629 129.436 161.697 129.939C159.213 131.24 156.418 131.994 153.608 132.053C152.646 132.053 151.685 131.906 150.724 131.92C149.807 131.92 148.875 131.965 147.958 131.861C146.051 131.654 144.158 131.284 142.279 130.915H142.191C142.191 130.915 142.339 130.915 142.413 130.929L142.176 130.9C142.058 130.885 142.087 130.9 142.176 130.9C141.303 130.782 140.416 130.663 139.573 130.367C137.133 129.51 134.589 128.534 133.939 127.38C133.82 127.217 133.717 127.055 133.628 126.877C133.465 126.611 133.421 126.271 133.51 125.96L133.495 125.975Z" fill="black"/>
</g>
<g opacity="0.13">
<path opacity="0.13" d="M142.785 106.603C142.592 106.439 142.503 106.38 142.785 106.603V106.603Z" fill="black"/>
</g>
<g opacity="0.13">
<path opacity="0.13" d="M152.055 110.802C152.129 110.802 152.233 110.773 152.263 110.773C152.188 110.773 152.114 110.787 152.055 110.802Z" fill="black"/>
</g>
<g opacity="0.13">
<path opacity="0.13" d="M151.91 110.832C151.91 110.832 151.999 110.832 152.044 110.817C151.955 110.832 151.866 110.847 151.91 110.832Z" fill="black"/>
</g>
<path d="M168.59 92.9666C161.832 100.391 155.62 108.332 150.045 116.688C147.087 121.11 143.997 125.931 139.042 127.868C137.963 128.282 136.794 128.563 135.67 128.356C133.985 128.06 132.594 126.744 131.885 125.177C131.175 123.609 131.071 121.834 131.204 120.134C131.308 118.817 131.559 117.486 132.21 116.318C132.801 115.238 133.63 114.292 134.591 113.523C137.416 111.29 136.351 110.21 136.913 107.859C138.554 101.027 148.596 101.027 152.604 95.1702C151.598 94.4751 150.592 93.78 149.779 92.8779C148.966 91.9758 148.344 90.8371 148.3 89.6244C148.226 87.7758 149.424 86.149 150.459 84.5666C137.342 79.8934 123.662 76.8469 109.879 75.1758C112.896 69.2899 115.351 63.123 117.776 56.9709C121.074 48.6152 124.387 40.2744 127.951 32.3624C136.661 41.1174 147.235 47.7427 157.706 54.2793C164.908 58.7751 172.125 63.2709 179.815 66.8645C183.911 68.7723 188.511 70.7836 190.359 74.9096C191.528 77.5124 191.32 80.5737 190.418 83.28C189.501 85.9864 187.919 88.4117 186.337 90.7927C185.035 92.7448 183.438 94.8448 181.013 95.4364C176.68 95.5695 172.317 94.6378 168.59 92.9666V92.9666Z" fill="white"/>
<path d="M112.038 39.1801C109.923 46.1308 107.172 52.8892 103.83 59.3519C101.759 58.997 100.118 57.2815 99.3045 55.3442C98.4911 53.4069 98.3728 51.2477 98.3432 49.1477C98.3284 48.2752 98.3284 47.4026 98.565 46.5745C98.7869 45.835 99.201 45.1695 99.615 44.5336C100.65 42.9512 101.804 41.3984 103.342 40.304C105.841 38.5442 109.287 38.2188 112.023 39.1801H112.038Z" fill="white"/>
<path d="M110.219 75.8562C116.09 61.0674 121.961 46.2787 127.832 31.2386C124.579 28.2069 122.006 24.3914 120.364 20.2062C120.364 20.2062 96.6281 77.1724 96.6133 76.9358C100.946 75.4273 105.634 74.9688 110.204 75.8562H110.219Z" fill="#EDA51E"/>
<path d="M158.371 87.9534C158.371 87.9534 158.238 87.9534 158.179 87.9238C157.735 87.7611 113.709 71.2273 97.101 77.7196C96.9088 77.7935 96.687 77.7491 96.5391 77.6308C96.406 77.6752 96.2729 77.6752 96.1398 77.6308C95.8588 77.5125 95.7257 77.1872 95.844 76.9062L119.92 19.2597C120.009 19.0527 120.216 18.9196 120.452 18.9196C120.689 18.9196 120.881 19.0674 120.955 19.2893C126.087 33.9893 143.434 44.5928 160.205 54.8266C163.103 56.6012 166.105 58.435 168.989 60.2541C169.196 60.3872 169.3 60.6534 169.226 60.89C166.357 69.9998 162.867 79.0062 158.874 87.6428C158.785 87.8498 158.578 87.9681 158.371 87.9681V87.9534ZM107.305 75.0724C126.087 75.0724 153.875 85.1287 158.09 86.6963C161.905 78.3703 165.262 69.7041 168.043 60.9491C165.277 59.2041 162.408 57.459 159.628 55.7583C143.183 45.7167 126.205 35.3498 120.408 20.9604L97.2046 76.4921C100.014 75.5012 103.46 75.0872 107.29 75.0872L107.305 75.0724Z" fill="black"/>
<path d="M110.484 75.2351C110.484 75.2351 110.351 75.2351 110.277 75.1907C109.996 75.0724 109.849 74.7471 109.967 74.4661L126.944 32.2886C127.063 32.0077 127.388 31.8746 127.669 31.9781C127.95 32.0964 128.098 32.4217 127.979 32.7027L111.002 74.8802C110.913 75.102 110.706 75.2351 110.484 75.2351V75.2351Z" fill="black"/>
<path d="M103.178 60.1357C103.075 60.1357 102.971 60.1062 102.882 60.047C100.294 58.3611 98.3866 55.5217 97.7802 52.4456C97.1739 49.3695 97.8394 45.9977 99.5697 43.4245C100.413 42.1822 101.492 41.0879 102.808 40.171C105.115 38.559 108.665 37.4055 111.741 38.9879C112.007 39.121 112.125 39.4611 111.977 39.7421C111.844 40.0083 111.504 40.1266 111.223 39.9787C108.591 38.6181 105.47 39.6681 103.43 41.0879C102.232 41.916 101.241 42.9217 100.487 44.0456C98.919 46.3674 98.3126 49.4287 98.8598 52.2238C99.4218 55.0188 101.137 57.5921 103.474 59.1153C103.725 59.278 103.799 59.6329 103.637 59.8843C103.533 60.047 103.356 60.1357 103.178 60.1357V60.1357Z" fill="black"/>
<path d="M178.706 96.235C175.955 96.235 173.101 95.0519 170.527 93.854C168.28 92.804 166.239 91.8132 164.257 90.8519C162.29 89.8906 160.249 88.8998 158.016 87.8646C157.735 87.7315 157.617 87.4061 157.75 87.1252C157.883 86.8442 158.208 86.7259 158.489 86.859C160.737 87.909 162.778 88.8998 164.76 89.8611C166.727 90.8223 168.768 91.8132 171.015 92.8484C174.594 94.5195 178.38 96.0132 181.634 94.5195C184.03 93.4252 185.553 90.9111 187.017 88.2047C188.244 85.9421 189.649 83.3836 190.211 80.6181C190.818 77.6604 190.33 74.8801 188.865 72.9871C187.682 71.4491 185.819 70.4435 184.34 69.6449C179.208 66.8942 174.106 64.2026 168.102 61.4075C167.821 61.2744 167.703 60.9491 167.836 60.6681C167.969 60.3871 168.294 60.2688 168.575 60.4019C174.609 63.197 179.726 65.9033 184.872 68.654C186.455 69.497 188.437 70.5618 189.768 72.2921C191.424 74.4512 191.986 77.5568 191.32 80.8252C190.714 83.7385 189.28 86.3857 188.022 88.7075C186.455 91.5766 184.843 94.2533 182.137 95.4956C181.057 95.9984 179.918 96.2054 178.765 96.2054L178.706 96.235Z" fill="black"/>
<path d="M136.971 129.377C136.32 129.377 135.655 129.288 134.974 129.066C130.863 127.75 129.236 122.515 130.36 118.64C131.336 115.283 133.599 113.508 136.483 111.246C137.001 110.832 137.548 110.403 138.124 109.944L138.302 109.811C142.502 106.439 146.879 101.944 151.316 96.4717C152.396 95.1407 153.475 92.952 154.614 90.6301C155.265 89.3139 155.93 87.9386 156.625 86.7259C156.773 86.4597 157.113 86.371 157.379 86.5189C157.646 86.6668 157.734 87.0069 157.586 87.2731C156.921 88.471 156.255 89.8168 155.605 91.1182C154.436 93.4992 153.327 95.747 152.174 97.1668C147.693 102.713 143.256 107.253 138.982 110.684L138.82 110.817C138.243 111.275 137.696 111.704 137.163 112.118C134.339 114.322 132.298 115.919 131.425 118.936C130.449 122.308 131.913 126.907 135.315 128.001C139.086 129.214 142.768 125.827 144.158 124.319C146.598 121.686 148.565 118.536 150.458 115.475C150.902 114.765 151.346 114.055 151.789 113.346C156.551 105.863 162.097 98.8675 168.279 92.5823C168.501 92.3604 168.841 92.3604 169.063 92.5823C169.284 92.8041 169.284 93.1442 169.063 93.3661C162.94 99.5921 157.439 106.513 152.721 113.937C152.277 114.632 151.834 115.342 151.39 116.052C149.467 119.143 147.471 122.352 144.957 125.058C143.641 126.478 140.535 129.362 136.941 129.362L136.971 129.377Z" fill="black"/>
<path d="M152.1 95.7174C151.967 95.7174 151.819 95.6582 151.716 95.5547L149.276 93.1737C148.921 92.8336 148.536 92.4491 148.24 91.9758C147.56 90.8815 147.486 89.373 148.019 87.9237C148.477 86.6815 149.305 85.6167 150.03 84.685C150.222 84.4484 150.562 84.404 150.814 84.5963C151.05 84.7885 151.095 85.1287 150.902 85.3801C150.193 86.297 149.453 87.2434 149.054 88.323C148.64 89.447 148.684 90.6005 149.172 91.4139C149.394 91.7688 149.719 92.0942 150.045 92.4047L152.485 94.7857C152.707 94.9927 152.707 95.3477 152.485 95.5695C152.381 95.6878 152.233 95.7322 152.085 95.7322L152.1 95.7174Z" fill="black"/>
<path d="M184.444 77.1725C184.355 77.1725 184.266 77.1577 184.192 77.1133C179.756 74.7915 175.142 72.6767 170.498 70.8133C170.217 70.695 170.069 70.3844 170.188 70.0887C170.306 69.8077 170.631 69.6598 170.912 69.7781C175.585 71.6415 180.229 73.7858 184.71 76.1225C184.976 76.2703 185.08 76.5957 184.947 76.8767C184.843 77.0689 184.651 77.1725 184.459 77.1725H184.444Z" fill="black"/>
<path d="M181.767 82.8365C181.693 82.8365 181.619 82.8217 181.545 82.7921C176.961 80.7808 172.273 78.8435 167.629 77.0245C167.348 76.9062 167.2 76.5956 167.318 76.2998C167.437 76.0189 167.747 75.871 168.043 75.9893C172.716 77.8231 177.404 79.7604 182.004 81.7717C182.285 81.89 182.418 82.2153 182.285 82.4963C182.196 82.7034 181.989 82.8217 181.782 82.8217L181.767 82.8365Z" fill="black"/>
<path d="M179.135 89.0034C179.046 89.0034 178.972 88.9886 178.883 88.9443C174.388 86.6964 169.729 84.6999 165.026 82.9844C164.745 82.8809 164.598 82.5555 164.701 82.2745C164.805 81.9936 165.13 81.8309 165.411 81.9492C170.158 83.6795 174.846 85.7055 179.386 87.9534C179.667 88.0865 179.771 88.4267 179.638 88.6929C179.534 88.8851 179.342 89.0034 179.135 89.0034V89.0034Z" fill="black"/>
<path d="M98.6091 37.0505C98.476 37.0505 98.3429 37.0062 98.2246 36.9026C93.8027 32.7322 90.7858 27.0977 89.7211 21.0343C89.6619 20.7386 89.8689 20.4428 90.1647 20.3984C90.4605 20.3393 90.7563 20.5463 90.8006 20.8421C91.8358 26.6836 94.7344 32.0963 98.9788 36.1041C99.2006 36.3111 99.2154 36.666 99.0084 36.8879C98.9049 37.0062 98.757 37.0653 98.6091 37.0653V37.0505Z" fill="black"/>
<path d="M94.293 42.7886C94.1895 42.7886 94.086 42.7591 93.9825 42.6999C90.7141 40.5555 87.2092 38.7513 83.586 37.3464C83.305 37.2281 83.1571 36.9175 83.2754 36.6217C83.3789 36.3408 83.7043 36.1929 84.0001 36.3112C87.6972 37.7457 91.2613 39.5943 94.6036 41.7682C94.855 41.9309 94.9289 42.2858 94.7663 42.5372C94.6627 42.6999 94.4853 42.7886 94.3078 42.7886H94.293Z" fill="black"/>
<path d="M75.7609 52.6527C75.5538 52.6527 75.3616 52.5344 75.2581 52.3422C75.125 52.0612 75.2433 51.7358 75.5095 51.6027C80.5968 49.1182 86.2757 47.9647 91.9102 48.2605C92.2207 48.2753 92.4574 48.5415 92.4426 48.8372C92.4278 49.1478 92.1616 49.3696 91.8658 49.3549C86.4236 49.0739 80.9369 50.183 76.0123 52.5936C75.9384 52.638 75.8496 52.6527 75.7757 52.6527H75.7609Z" fill="black"/>
<path d="M117.406 72.5139C117.406 72.5139 117.347 72.5139 117.317 72.4991C117.228 72.4547 117.199 72.3364 117.243 72.2477L122.227 62.7977C122.271 62.709 122.39 62.6794 122.478 62.7238C122.567 62.7681 122.597 62.8864 122.552 62.9752L117.568 72.4252C117.568 72.4252 117.465 72.5287 117.406 72.5287V72.5139Z" fill="black"/>
<path d="M121.74 73.7118C121.74 73.7118 121.681 73.7118 121.651 73.697C121.562 73.6526 121.533 73.5343 121.577 73.4456L124.121 68.728C124.165 68.6393 124.283 68.6097 124.372 68.6541C124.461 68.6984 124.49 68.8167 124.446 68.9055L121.902 73.6231C121.902 73.6231 121.799 73.7266 121.74 73.7266V73.7118Z" fill="black"/>
<path d="M126.576 75.516C126.576 75.516 126.516 75.516 126.487 75.4864C126.398 75.4421 126.369 75.3238 126.413 75.235L128.335 71.7005C128.38 71.6118 128.498 71.5822 128.587 71.6266C128.676 71.6709 128.705 71.7893 128.661 71.878L126.738 75.4125C126.738 75.4125 126.635 75.516 126.576 75.516Z" fill="black"/>
<path d="M131.928 76.6252C131.928 76.6252 131.869 76.6252 131.839 76.6104C131.75 76.566 131.706 76.4477 131.765 76.359L133.17 73.6379C133.215 73.5491 133.333 73.5048 133.422 73.5639C133.51 73.6083 133.555 73.7266 133.495 73.8153L132.091 76.5365C132.091 76.5365 131.987 76.64 131.928 76.64V76.6252Z" fill="black"/>
<g opacity="0.13">
<path opacity="0.13" d="M97.9597 50.1385C98.1667 49.3252 99.2759 49.0442 99.8822 49.5914C100.252 49.8871 100.296 50.3899 100.489 50.7892C101.021 52.2533 102.219 53.9245 103.151 54.7526C104.23 55.8026 103.964 55.1963 104.94 56.1871C105.96 57.7104 104.008 59.4702 102.603 58.2871C100.148 56.616 99.5421 54.8857 98.4625 52.7857C98.2111 52.1794 98.0041 51.5435 97.9449 50.878C97.8858 50.6266 97.8414 50.3752 97.9449 50.1238L97.9597 50.1385Z" fill="black"/>
</g>
<g opacity="0.13">
<path opacity="0.13" d="M96.7169 75.6196C97.1014 76.1668 97.9148 76.4182 98.5064 76.0633C98.5507 76.0633 98.5655 76.0189 98.6099 76.0041C98.669 75.9893 98.7282 75.9597 98.7873 75.9302C100.458 75.2351 101.361 75.3238 103.668 75.1759C106.507 74.9245 108.725 74.9837 110.988 75.1316C110.988 75.1612 111.018 75.1907 111.032 75.2203C111.166 75.5161 111.432 75.7527 111.742 75.8266C112.23 75.9745 112.26 75.8562 113.31 75.9597C114.537 76.0337 115.75 76.2259 116.963 76.3738C120.808 76.8027 124.564 77.7196 128.38 78.3999C131.16 79.0358 132.313 79.6717 135.7 80.4999C141.039 81.7569 144.677 82.8365 149.394 84.2562C149.912 84.4485 151.391 85.0105 153.062 85.6464C152.559 85.5281 152.071 85.4097 151.554 85.3358C151.494 85.321 151.42 85.3062 151.361 85.2914C150.089 84.5076 148.463 85.8238 148.995 87.2288C149.276 88.0569 150.252 88.5154 151.066 88.2048H151.095C153.151 88.4119 153.387 88.6485 155.354 89.2548C155.147 89.5506 154.97 89.8316 154.748 90.2013C154.955 90.364 155.044 90.645 154.896 90.9555C153.358 93.9872 151.376 96.7675 149.202 99.3703C148.123 100.672 146.895 101.87 145.668 103.038C145.047 103.629 144.411 104.191 143.775 104.753C143.642 104.872 143.494 105.005 143.346 105.123C143.316 105.552 143.508 105.996 143.893 106.217C144.544 106.72 145.313 106.262 145.801 105.774C146.466 105.212 147.487 104.295 147.516 104.265C148.123 103.748 148.832 103.097 149.527 102.476C150.045 102.062 150.548 101.648 151.021 101.189C151.095 101.115 151.169 101.041 151.243 100.967C151.746 100.524 152.16 100.198 152.382 100.051C153.092 99.4886 153.654 98.7788 154.26 98.1133C155.413 96.9154 156.641 95.8062 157.794 94.6083C158.046 94.4013 158.297 94.209 158.563 94.0316C159.037 93.7654 158.815 93.7506 159.924 93.44C160.175 93.3957 160.53 93.3957 160.663 93.3957C162.009 93.4992 162.187 93.6175 162.97 93.8541C163.946 94.1795 164.908 94.5788 165.81 95.0816C166.313 95.333 166.83 95.2295 167.23 94.9485C167.836 95.0224 168.487 94.7858 168.812 94.2238C169.522 93.2626 168.812 92.0647 167.836 91.6506C167.318 91.3252 166.801 91.0147 166.283 90.7189C166.638 90.8816 166.993 91.0443 167.363 91.2069C170.882 92.8337 174.328 95.0372 178.321 95.1259C180.096 95.2442 181.811 94.6971 183.556 94.4457C184.562 94.3865 185.242 93.1738 184.725 92.3161C184.385 91.5027 183.423 91.4288 182.669 91.5914C180.332 91.8428 179.623 92.0055 178.011 91.7393C174.609 91.2217 172.332 89.8759 168.664 87.9534C163.074 85.0104 157.454 82.0675 151.48 79.9527C145.816 77.8971 139.856 76.8766 134.058 75.2943C132.106 74.7766 130.154 74.2147 128.143 73.9781C125.806 73.7119 123.455 73.5788 121.148 73.0612C115.913 72.2626 110.589 71.8485 105.294 72.0703C103.002 72.3069 100.621 72.0851 98.4472 72.9724C97.2789 73.4309 95.9183 74.2738 96.7465 75.664L96.7169 75.6196ZM156.951 87.4506C157.055 87.3914 157.144 87.3323 157.247 87.2879L156.789 87.1104C156.863 87.214 156.907 87.3323 156.951 87.4506Z" fill="black"/>
</g>
<path d="M135.403 112.473C134.9 111.586 134.856 112.429 134.56 111.453C134.279 110.477 134.235 109.397 134.634 108.45C135.033 107.519 135.95 106.765 136.956 106.72C138.198 106.676 139.233 107.652 140.076 108.569C141.526 110.136 142.901 111.793 143.936 113.656C144.321 114.351 144.631 115.283 144.099 115.874C143.818 116.185 143.374 116.289 142.945 116.303C141.733 116.362 140.505 115.845 139.707 114.943C139.352 114.543 139.085 114.085 138.701 113.715C138.316 113.346 137.74 112.872 137.547 112.384C137.03 110.965 137.03 110.003 135.388 112.473H135.403Z" fill="white"/>
<path d="M138.434 108.406C137.931 107.519 137.413 106.632 137.132 105.641C136.851 104.665 136.807 103.585 137.206 102.639C137.606 101.707 138.522 100.953 139.528 100.908C140.77 100.864 141.806 101.84 142.649 102.757C144.098 104.325 145.473 105.981 146.508 107.844C146.893 108.539 147.203 109.471 146.671 110.063C146.39 110.373 145.946 110.477 145.518 110.492C144.305 110.551 143.196 110.92 142.382 110.018C142.027 109.619 138.552 106.484 138.419 108.406H138.434Z" fill="white"/>
<path d="M141.215 103.615C140.712 102.727 140.195 101.84 139.914 100.849C139.633 99.8731 139.588 98.7936 139.988 97.8471C140.387 96.9154 141.304 96.1612 142.309 96.1168C143.552 96.0724 144.587 97.0485 145.43 97.9654C146.879 99.533 148.254 101.189 149.29 103.053C149.674 103.748 149.985 104.679 149.452 105.271C149.171 105.582 148.728 106.691 148.299 106.706C147.086 106.765 145.859 105.241 145.06 104.339C144.705 103.94 141.348 101.692 141.215 103.6V103.615Z" fill="white"/>
<path d="M142.324 96.1316C141.303 96.1316 142.294 92.4197 142.708 91.488C143.107 90.5563 144.024 89.802 145.03 89.7577C146.272 89.7133 147.307 90.6894 148.15 91.6063C149.6 93.1739 150.975 94.8302 152.01 96.6936C152.395 97.3887 152.705 98.3204 152.173 98.9119C151.892 99.2225 152.69 103.23 152.262 103.245C151.049 103.304 149.57 102.801 148.757 101.899C148.402 101.5 145.03 96.1316 142.324 96.1316Z" fill="white"/>
<path d="M154.984 100.524C153.358 98.4682 149.587 93.9872 151.731 92.7893C152.825 92.183 155.443 93.4844 156.286 94.4161C157.735 95.9837 160.663 97.4626 161.699 99.3259C162.083 100.021 163.562 103.999 163.029 104.576C162.749 104.887 163.015 108.628 162.586 108.658C161.373 108.717 156.404 110.092 155.606 109.19C155.251 108.791 158.401 104.857 154.97 100.539L154.984 100.524Z" fill="white"/>
<path d="M142.946 117.353C140.594 117.353 138.273 113.863 137.001 111.941C136.883 111.763 136.764 111.586 136.675 111.453C136.498 111.201 136.572 110.861 136.823 110.684C137.075 110.506 137.415 110.58 137.592 110.832C137.696 110.979 137.799 111.142 137.933 111.334C138.968 112.902 141.408 116.57 143.183 116.229C143.789 116.111 143.937 115.86 143.996 115.682C144.38 114.573 142.665 111.763 140.757 109.56C139.737 108.377 138.613 107.208 137.178 107.046C136.04 106.913 135.152 107.829 134.886 108.776C134.546 109.959 135.211 111.305 135.788 112.488L135.833 112.577C135.966 112.858 135.847 113.183 135.581 113.316C135.3 113.449 134.975 113.331 134.842 113.065L134.797 112.976C134.161 111.675 133.363 110.063 133.821 108.465C134.294 106.824 135.759 105.759 137.311 105.937C139.145 106.158 140.491 107.548 141.6 108.835C142.591 109.989 145.785 113.908 145.046 116.052C144.883 116.525 144.469 117.117 143.39 117.324C143.242 117.353 143.109 117.368 142.961 117.368L142.946 117.353Z" fill="black"/>
<path d="M149.098 109.722C148.965 109.722 148.832 109.722 148.699 109.678C147.664 109.486 146.466 108.554 146.081 107.667C145.963 107.386 146.081 107.06 146.377 106.942C146.658 106.824 146.983 106.942 147.102 107.238C147.309 107.726 148.181 108.451 148.906 108.584C149.024 108.613 149.246 108.628 149.35 108.525C149.631 108.214 150.074 106.055 148.98 103.57C147.782 100.879 145.49 97.7583 143.419 97.0041C142.31 96.6048 141.438 96.6492 140.816 97.152C139.988 97.8175 139.604 99.3407 139.826 101.145C139.87 101.455 139.648 101.722 139.338 101.766C139.042 101.81 138.761 101.589 138.716 101.278C138.435 99.0745 138.968 97.2111 140.107 96.2794C140.757 95.7618 141.926 95.2886 143.789 95.9689C146.259 96.871 148.743 100.317 149.985 103.127C151.272 106.04 150.784 108.658 150.133 109.308C149.867 109.575 149.512 109.708 149.083 109.708L149.098 109.722Z" fill="black"/>
<path d="M145.785 114.958C144.972 114.958 144.188 114.647 143.922 114.411C143.685 114.203 143.671 113.863 143.878 113.627C144.085 113.39 144.425 113.375 144.661 113.582C144.868 113.745 146.096 114.085 146.584 113.582C146.88 113.287 147.028 112.813 147.072 112.133C147.146 110.772 146.806 109.264 146.022 107.504C144.987 105.168 143.404 103.334 141.467 102.18C140.698 101.722 139.071 101.485 137.977 102.21C137.001 102.861 136.631 104.206 136.883 106.099C136.927 106.41 136.705 106.676 136.409 106.72C136.099 106.765 135.833 106.543 135.788 106.247C135.374 103.275 136.424 101.899 137.371 101.278C138.923 100.243 141.038 100.627 142.044 101.219C144.188 102.491 145.918 104.502 147.042 107.046C147.9 108.968 148.27 110.654 148.181 112.192C148.122 113.168 147.856 113.878 147.368 114.366C146.939 114.795 146.362 114.958 145.785 114.958Z" fill="black"/>
<path d="M156.285 131.595C155.989 131.595 155.738 131.358 155.738 131.063C155.487 125.044 157.365 121.198 159.184 117.486C160.13 115.534 161.032 113.686 161.594 111.586L161.757 110.965C162.615 107.726 163.502 104.369 162.304 101.426C161.52 99.5034 159.938 98.0245 158.252 96.5604L158.015 96.3534C157.025 95.4809 155.649 94.2978 154.57 93.721C153.253 93.0259 152.484 92.952 152.218 93.1147C152.1 93.1886 152.041 93.3513 152.041 93.6175C152.041 96.1316 152.603 96.7823 153.963 98.3499C154.274 98.7048 154.629 99.1189 155.013 99.6069C157.306 102.446 157.572 107.001 155.634 110.447C155.487 110.713 155.146 110.802 154.88 110.654C154.614 110.506 154.525 110.166 154.673 109.9C156.389 106.839 156.182 102.801 154.156 100.302C153.771 99.8287 153.431 99.4295 153.12 99.0745C151.715 97.4478 150.932 96.5456 150.932 93.6175C150.932 92.7745 151.316 92.3604 151.641 92.1682C152.381 91.7245 153.534 91.9168 155.087 92.7449C156.285 93.3809 157.705 94.6231 158.74 95.5252L158.977 95.7323C160.692 97.2259 162.452 98.8675 163.325 101.012C164.67 104.295 163.694 107.992 162.822 111.246L162.659 111.867C162.082 114.07 161.151 115.963 160.175 117.96C158.415 121.553 156.611 125.265 156.847 131.003C156.847 131.314 156.625 131.565 156.315 131.58H156.285V131.595Z" fill="black"/>
<path d="M151.258 105.123C151.021 105.123 150.755 105.094 150.474 104.99C149.794 104.739 149.261 104.191 148.862 103.334C148.729 103.053 148.862 102.727 149.128 102.594C149.409 102.461 149.735 102.594 149.868 102.86C150.134 103.437 150.459 103.792 150.844 103.94C151.287 104.103 151.702 103.94 151.864 103.866C152.973 103.348 152.663 101.426 152.323 100.361L152.13 99.7696C151.435 97.6696 150.711 95.5104 149.513 93.6914C148.537 92.2126 145.964 89.7428 144.115 90.4379C142.606 90.9999 142.592 92.7745 142.725 94.8745C142.754 95.4069 142.784 95.8506 142.769 96.2351C142.754 96.5457 142.488 96.7675 142.178 96.7527C141.867 96.7379 141.645 96.4717 141.66 96.1612C141.675 95.8506 141.66 95.4069 141.616 94.9337C141.497 93.0851 141.305 90.29 143.716 89.3879C146.23 88.4562 149.173 91.1478 150.43 93.0851C151.702 95.0372 152.456 97.2703 153.166 99.4295L153.358 100.021C153.935 101.766 154.023 104.073 152.323 104.872C152.13 104.96 151.731 105.123 151.228 105.123H151.258Z" fill="black"/>
</g>
<g clip-path="url(#clip0_1826_9959)">
<path d="M204.801 56.6189C220.183 56.4167 235.565 56.2145 250.932 56.0123C255.831 55.9501 260.948 55.8256 265.257 53.4926C269.736 51.0508 272.847 46.1048 272.722 41.0189C272.598 35.9174 269.005 30.9869 264.075 29.6494C259.144 28.3118 253.358 30.9869 251.492 35.7307C251.741 26.9275 243.964 18.5287 235.145 18.5909C226.327 18.6531 218.55 27.6741 220.245 36.3217C218.737 32.309 213.915 30.1782 209.684 30.8936C205.454 31.5935 201.892 34.6109 199.513 38.1881C197.537 41.1588 196.215 44.7517 196.682 48.3134C197.148 51.8751 199.559 56.6966 204.801 56.6189Z" fill="white"/>
<path d="M204.678 57.2098C198.814 57.2098 196.528 51.6884 196.092 48.3911C195.532 44.1606 197.383 40.3189 199.032 37.8459C201.785 33.7087 205.627 30.9713 209.593 30.3026C213.357 29.6649 217.229 31.1424 219.438 33.7865C219.469 30.427 220.744 26.9897 223.124 24.0968C226.219 20.3017 230.714 18.031 235.147 17.9999C239.377 17.9843 243.654 19.8663 246.905 23.1791C249.767 26.1031 251.556 29.8048 251.976 33.5688C254.542 29.8515 259.69 27.8451 264.216 29.0738C269.255 30.4425 273.159 35.5596 273.299 40.9877C273.439 46.167 270.313 51.3929 265.522 53.9903C260.996 56.4477 255.646 56.5255 250.933 56.5877L204.802 57.1943H204.678V57.2098ZM211.319 31.3291C210.806 31.3291 210.293 31.3757 209.795 31.4535C206.155 32.0601 202.578 34.6264 200.012 38.4836C198.472 40.7855 196.746 44.3628 197.259 48.2356C197.648 51.144 199.638 56.0433 204.693 56.0433H204.802L250.933 55.4212C255.506 55.359 260.701 55.2968 264.978 52.9638C269.38 50.5686 272.257 45.7626 272.133 41.0188C272.008 36.0884 268.478 31.4379 263.92 30.2092C259.208 28.9339 253.749 31.5468 252.038 35.9484C251.929 36.2128 251.649 36.3684 251.384 36.3061C251.105 36.2439 250.918 35.9951 250.918 35.7151C251.027 31.5313 249.269 27.2696 246.081 24.0034C243.048 20.9083 239.082 19.1352 235.162 19.1664C231.072 19.1975 226.903 21.3127 224.026 24.8278C221.242 28.234 220.076 32.3711 220.838 36.1973C220.9 36.4928 220.713 36.7883 220.418 36.8661C220.122 36.9438 219.811 36.7883 219.718 36.5083C218.427 33.071 214.71 31.3291 211.319 31.3291V31.3291Z" fill="black"/>
<g opacity="0.13">
<path opacity="0.13" d="M268.928 46.5248C268.508 46.6181 268.228 46.9448 267.917 47.2092C267.543 47.4891 267.139 47.7224 266.75 47.9557C265.848 48.5468 264.946 49.1533 263.982 49.6355C263.888 49.6821 263.826 49.7133 263.795 49.7288C261.789 50.2576 259.845 51.1442 257.76 51.4397C256.329 51.6108 251.399 51.4708 248.537 51.5641C242.409 51.6885 236.266 51.7041 230.138 51.8907C225.285 51.7818 220.448 52.1707 215.642 52.8239C209.467 53.3061 207.414 53.5705 202.857 51.6574L203.059 51.7507C202.033 51.3775 201.146 50.6153 200.073 50.3976C198.067 50.0399 197.071 52.9172 198.86 53.9282C201.302 55.2036 203.884 56.3701 206.59 56.8989C212.827 57.9099 219.048 56.059 225.316 56.2457C227.509 56.199 229.702 56.3701 231.895 56.3079C234.85 56.199 237.805 55.9813 240.776 55.9346C245.193 55.8413 249.797 55.5458 253.063 55.1569C253.017 56.1057 253.872 57.0855 254.976 56.8367C258.522 56.479 261.991 55.3747 265.133 53.6794C265.848 53.3061 266.564 52.9017 267.263 52.4973C267.668 52.2329 268.166 52.0929 268.446 51.673C268.725 51.3308 268.834 50.9575 268.803 50.5842C269.285 50.2576 269.752 49.931 270.203 49.5422C270.654 49.1689 271.027 48.6712 271.012 48.0646C271.027 47.0225 269.954 46.2137 268.959 46.4937L268.928 46.5248Z" fill="black"/>
</g>
</g>
<g clip-path="url(#clip1_1826_9959)">
<path d="M33.8305 146.548C45.7677 146.393 57.705 146.238 69.6301 146.084C73.4322 146.036 77.4032 145.941 80.7466 144.156C84.2228 142.288 86.6368 138.503 86.5402 134.612C86.4437 130.709 83.6555 126.936 79.8293 125.913C76.0031 124.89 71.5131 126.936 70.0647 130.566C70.2578 123.831 64.2228 117.405 57.3791 117.452C50.5354 117.5 44.5004 124.402 45.816 131.018C44.6452 127.948 40.9035 126.318 37.6205 126.865C34.3374 127.401 31.5734 129.709 29.7267 132.446C28.1938 134.719 27.1679 137.468 27.53 140.193C27.8921 142.918 29.7629 146.607 33.8305 146.548Z" fill="white"/>
<path d="M33.734 147C29.1836 147 27.4094 142.775 27.0714 140.253C26.6369 137.016 28.0732 134.077 29.3526 132.184C31.489 129.019 34.4703 126.925 37.5482 126.413C40.4691 125.925 43.4745 127.055 45.1885 129.078C45.2126 126.508 46.2024 123.878 48.0491 121.665C50.451 118.761 53.9392 117.024 57.3792 117C60.6622 116.988 63.9815 118.428 66.5041 120.963C68.725 123.2 70.113 126.032 70.4389 128.912C72.4305 126.068 76.4257 124.533 79.938 125.473C83.8487 126.52 86.8783 130.435 86.9869 134.588C87.0955 138.551 84.6695 142.549 80.9519 144.537C77.4395 146.417 73.2875 146.476 69.6302 146.524L33.8306 146.988H33.734V147ZM38.8879 127.198C38.4896 127.198 38.0913 127.234 37.7051 127.293C34.8807 127.758 32.1046 129.721 30.113 132.672C28.9181 134.434 27.5783 137.171 27.9766 140.134C28.2784 142.359 29.8234 146.107 33.7461 146.107H33.8306L69.6302 145.631C73.1788 145.584 77.2102 145.536 80.5295 143.751C83.9453 141.919 86.1782 138.242 86.0817 134.612C85.9851 130.84 83.2452 127.282 79.7087 126.341C76.0515 125.366 71.8149 127.365 70.4872 130.733C70.4027 130.935 70.1855 131.054 69.9803 131.006C69.763 130.959 69.6182 130.768 69.6182 130.554C69.7027 127.353 68.3388 124.092 65.8644 121.593C63.5108 119.225 60.4329 117.869 57.3913 117.892C54.2168 117.916 50.9821 119.535 48.7491 122.224C46.5886 124.83 45.6833 127.996 46.2748 130.923C46.3231 131.149 46.1782 131.375 45.9489 131.435C45.7196 131.494 45.4782 131.375 45.4057 131.161C44.4039 128.531 41.5192 127.198 38.8879 127.198V127.198Z" fill="black"/>
<g opacity="0.13">
<path opacity="0.13" d="M83.5948 138.825C83.2689 138.896 83.0517 139.146 82.8103 139.348C82.5206 139.562 82.2068 139.741 81.905 139.919C81.2049 140.372 80.5049 140.836 79.7565 141.205C79.6841 141.24 79.6358 141.264 79.6117 141.276C78.0547 141.681 76.5459 142.359 74.9285 142.585C73.8181 142.716 69.9919 142.609 67.771 142.68C63.0154 142.775 58.2478 142.787 53.4922 142.93C49.7264 142.847 45.9726 143.144 42.243 143.644C37.4512 144.013 35.8579 144.215 32.3214 142.752L32.4783 142.823C31.6817 142.537 30.9937 141.954 30.1609 141.788C28.6039 141.514 27.8314 143.716 29.2194 144.489C31.1144 145.465 33.118 146.357 35.2182 146.762C40.0583 147.536 44.8863 146.119 49.7505 146.262C51.4524 146.227 53.1542 146.357 54.8561 146.31C57.1494 146.226 59.4427 146.06 61.7481 146.024C65.176 145.953 68.7487 145.727 71.2834 145.429C71.2472 146.155 71.911 146.905 72.768 146.714C75.52 146.441 78.2116 145.596 80.6497 144.299C81.2049 144.013 81.7602 143.704 82.3033 143.394C82.6171 143.192 83.0034 143.085 83.2206 142.764C83.4379 142.502 83.5224 142.216 83.4982 141.931C83.8724 141.681 84.2345 141.431 84.5845 141.133C84.9346 140.848 85.2243 140.467 85.2122 140.003C85.2243 139.205 84.3914 138.587 83.6189 138.801L83.5948 138.825Z" fill="black"/>
</g>
</g>
<defs>
<clipPath id="clip0_1826_9959">
<rect width="77.3157" height="39.21" fill="white" transform="translate(196 18)"/>
</clipPath>
<clipPath id="clip1_1826_9959">
<rect width="60" height="30" fill="white" transform="translate(27 117)"/>
</clipPath>
</defs>
</svg>
