<?xml version="1.0" encoding="UTF-8"?>
<svg id="Layer_1" data-name="Layer 1" xmlns="http://www.w3.org/2000/svg" xmlns:xlink="http://www.w3.org/1999/xlink" viewBox="0 0 200 131.43">
  <defs>
    <style>
      .cls-1 {
        clip-path: url(#clippath);
      }

      .cls-2 {
        fill: none;
      }

      .cls-2, .cls-3, .cls-4, .cls-5, .cls-6, .cls-7 {
        stroke-width: 0px;
      }

      .cls-8 {
        mask: url(#mask);
      }

      .cls-9 {
        clip-path: url(#clippath-1);
      }

      .cls-10, .cls-3 {
        opacity: .13;
      }

      .cls-3 {
        isolation: isolate;
      }

      .cls-5 {
        fill: #d9d9d9;
      }

      .cls-6 {
        fill: #fff;
      }

      .cls-7 {
        fill: #eda51e;
      }
    </style>
    <mask id="mask" x="-.09" y="-35.97" width="227.7" height="227.7" maskUnits="userSpaceOnUse">
      <g id="mask0_1826_9959" data-name="mask0 1826 9959">
        <ellipse class="cls-5" cx="79.71" cy="44.95" rx="79.8" ry="80.92"/>
      </g>
    </mask>
    <clipPath id="clippath">
      <rect class="cls-2" x="134.43" y="4.31" width="58.76" height="29.8"/>
    </clipPath>
    <clipPath id="clippath-1">
      <rect class="cls-2" x="5.99" y="79.55" width="45.6" height="22.8"/>
    </clipPath>
  </defs>
  <g class="cls-8">
    <g>
      <path class="cls-6" d="m108.46,88.92c.09-.51-.2-1.01-.61-1.33-.4-.31-.91-.46-1.4-.58-5.81-1.54-11.93-1.82-17.9-1.23-.58.06-1.33.29-1.34.88,0,.27.17.51.34.71,1.11,1.26,2.76,1.89,4.38,2.37,4.62,1.36,9.61,1.88,14.25.58.81-.22,2.1-.41,2.28-1.38v-.02Z"/>
      <path class="cls-6" d="m90.45,75.57c.88-.96,1.75-1.93,2.61-2.91,1.51-1.7,2.98-3.43,4.43-5.17.16.03.33.02.43.12.91-.76,2.36-1.1,3.65-.87.7.72,1.53,1.36,2.37,2,.33.24.63.48.99.7.22.14.45.27.66.41h.01c.07.07.14.11.2.15.06.03.11.07.16.1.72.48,1.41.99,2.11,1.47.18.12.4.17.58.11v.27c.19.62.55,3.33-1.16,7.09-1.65,3.63-2.29,7.87-2.38,11.54-3.45,1.08-6.07-.11-9.7-.75-1.37-.25-2.75-.49-3.87-1.02-1.06-3.9-1.87-7.83-2.43-11.79.44-.47.89-.96,1.33-1.43v-.02Z"/>
      <path class="cls-6" d="m104.1,72.57c.1-1.52-.36-3.07-1.27-4.28-.57-.76-1.33-1.4-1.75-2.26-.44-.85-.44-2.05.34-2.61.48-.36,1.15-.36,1.73-.24,1.55.33,2.8,1.43,3.9,2.56.69.71,1.36,1.45,1.78,2.34.37.8.53,1.67.61,2.54.05.54.07,1.1-.16,1.61-.3.69-.99,1.11-1.66,1.45-.7.35-1.47.66-2.25.53-.78-.14-1.31-.87-1.27-1.65h.01Z"/>
      <path class="cls-6" d="m190.69,171.15c.92-10.99,1.85-18.84,2.78-29.83,1.34,7.45,5.36,22.11,7.02,30.08-15.8.51-26.1,1.01-39.75,2.76,2.63,2.08,4.74,4.81,5.95,7.78,1.2,2.97,1.6,6.19,1.92,9.38,16.86-.56,33.43-.84,49.98-.31,1.85.06,3.82.1,5.41-.85,1.19-.72,2.01-1.94,2.52-3.24,1.38-3.56.54-7.55-.33-11.28-2.55-11.04-7.47-31.99-12.01-42.36-1.96-4.47-4.3-8.86-7.69-12.39-7.06-7.38-17.56-10.13-27.71-12.52-.44,2.53-3.1,4.03-5.61,4.57-2.24.48-4.62.49-6.73-.38-2.11-.88-3.89-2.71-4.9-5.73-7.78-.71-12.69-.69-16.12-.18-4.53.66-8.92,3.96-11.96,7.26-6.32,6.89-9.6,12.69-16.24,20.68-5.71-14.44-9.03-29.84-8.72-45.92-1.43,3.27-19.67,2.95-21.61-2.24,1.28,19.17,2.6,38.56,8.42,56.87,1.88,5.89,4.27,11.76,8.29,16.45,4.02,4.7,9.9,8.11,16.08,7.95,6.18-.17,10.14-1.87,14.13-9.51.69,1.09,1.37,2.18,1.71,3.46.05,8.17-.72,17.71-.83,25.74,18.22,2.89,37.34.44,55.65-.73.04-5.42-.03-10.83.36-15.49v-.02Z"/>
      <path class="cls-4" d="m168.59,191.73c-.15,0-.28-.08-.36-.19-.08-.12-.09-.28-.02-.42.97-1.91.19-6.07-1.08-9.19l-.09-.24c-1.17-2.9-2.5-6.18-6.42-7.14-.2-.04-.34-.22-.33-.44.01-.2.17-.37.37-.39,10.33-1.33,18.52-1.94,29.63-2.4-.03-.07-.04-.15-.04-.22.46-5.5.93-10.28,1.39-14.93.45-4.63.92-9.42,1.38-14.91.02-.21.19-.37.4-.38.21,0,.39.13.44.35.75,4.18,2.35,10.67,3.91,16.93,1.22,4.96,2.39,9.64,3.11,13.13.02.12,0,.25-.08.35-.08.1-.19.16-.31.16-16.05.52-25.64,1.02-37.97,2.54,3.06,1.48,4.28,4.52,5.29,7.04l.09.24c1.18,2.91,2.01,6.89,1.29,9.25,19.93-.66,35.17-.75,49.36-.29,1.72.06,3.66.11,5.17-.8,1.27-.76,1.98-2.07,2.35-3.03,1.38-3.56.43-7.71-.34-11.04-1.99-8.61-7.26-31.47-11.99-42.29-2.39-5.48-4.74-9.27-7.6-12.26-6.68-6.99-16.21-9.73-27.08-12.3-.7,2.51-3.43,3.96-5.84,4.48-2.57.56-4.99.43-6.99-.4-2.3-.96-4.05-2.93-5.05-5.73-7.13-.63-12.14-.69-15.75-.16-5.38.79-9.98,5.25-11.71,7.14-3.52,3.84-6.1,7.36-8.85,11.08-2.19,2.98-4.45,6.05-7.38,9.58-.09.11-.25.17-.39.15-.15-.02-.27-.12-.33-.26-5.92-14.99-8.88-30.09-8.77-44.89-1.88,1.36-6.11,1.47-7.56,1.46-4.27-.01-10.6-.94-13.08-3.34,1.23,18.39,2.62,37.35,8.29,55.2,1.58,4.97,3.95,11.32,8.22,16.3,4.32,5.04,10.19,7.96,15.76,7.8,5.92-.17,9.81-1.71,13.4-9.38.1-.21.35-.3.56-.2.21.1.3.35.2.56-3.75,8.04-8.02,9.7-14.14,9.87-5.8.17-11.94-2.87-16.42-8.09-4.37-5.1-6.78-11.55-8.38-16.6-5.88-18.47-7.18-38.05-8.44-56.97-.01-.21.13-.41.34-.44.21-.04.42.08.48.28.82,2.58,7.36,4.15,13.21,4.17,4.16.02,7.22-.76,7.6-1.93.07-.2.26-.31.47-.28.2.03.36.21.35.43-.27,14.86,2.56,30.03,8.44,45.1,2.7-3.28,4.83-6.18,6.89-8.99,2.75-3.74,5.35-7.28,8.9-11.16,1.79-1.96,6.56-6.58,12.21-7.4,3.72-.54,8.88-.48,16.22.18.17.01.3.12.36.28.91,2.7,2.52,4.6,4.66,5.48,2.33.96,4.81.72,6.49.36,2.28-.49,4.88-1.88,5.28-4.24.02-.11.09-.21.18-.28.1-.07.21-.09.33-.06,11.17,2.63,20.98,5.4,27.91,12.63,2.93,3.07,5.33,6.92,7.77,12.51,4.75,10.89,10.05,33.81,12.04,42.44.8,3.44,1.78,7.72.3,11.53-.42,1.08-1.23,2.56-2.7,3.45-1.73,1.05-3.89.98-5.63.92-14.33-.46-29.73-.36-49.95.31h-.01.03Zm25.03-47.42c-.38,4.29-.76,8.17-1.14,11.96-.45,4.63-.92,9.42-1.38,14.92,0,.04-.01.08-.02.11,2.75-.11,5.7-.21,8.89-.31-.73-3.42-1.83-7.89-3.01-12.61-1.23-4.96-2.5-10.06-3.34-14.05h0Z"/>
      <path class="cls-4" d="m108.54,88.95h-.04c-.24-.02-.41-.24-.38-.46,0-.1-.03-.24-.14-.36-.11-.15-.28-.26-.45-.36-.63-.41-1.68-.67-3.1-.81-.24-.02-.4-.22-.38-.46.02-.24.22-.41.46-.38,1.58.16,2.72.46,3.47.94.21.14.46.3.65.55.24.29.35.64.31.97-.02.21-.2.38-.42.38h.01Z"/>
      <path class="cls-4" d="m86.92,86.98c-.22,0-.42-.18-.42-.42,0-.33.15-.65.43-.89.22-.19.49-.29.71-.36.56-.18,1.14-.26,1.72-.24.24,0,.42.2.4.44,0,.24-.2.42-.44.41-.48-.01-.97.06-1.44.2-.15.04-.31.11-.43.2-.08.07-.14.16-.12.22,0,.24-.18.43-.42.43h0Z"/>
      <g class="cls-10">
        <path class="cls-3" d="m86.93,86.37c.08-.31.34-.54.64-.64.06-.02.12-.02.18-.03.16-.53.88-.71,1.26-.31.34.43.7.84,1.09,1.23.1.1.2.2.31.29.57.21,1.28.45,2.15.69.97.34,1.94.71,2.96.87,1.16.17,1.26.17,2.69.31,1.23.17,3.54.8,5.33.84,2.17.56-.66-3.58,1.16-3.19.48.1,1.74.19,2.47.64.27.17.55.34.72.61.02.03.03.08.04.11h.11c.8.07,1.03,1.23.33,1.61-1.89.99-4.01,1.56-6.15,1.61-.73,0-1.46-.11-2.19-.1-.7,0-1.41.03-2.1-.04-1.45-.16-2.89-.44-4.32-.72h-.07s.11,0,.17.01l-.18-.02c-.09-.01-.07,0,0,0-.66-.09-1.34-.18-1.98-.41-1.85-.65-3.79-1.39-4.28-2.27-.09-.12-.17-.25-.24-.38-.12-.2-.16-.46-.09-.7h-.01Z"/>
      </g>
      <g class="cls-10">
        <path class="cls-3" d="m93.99,71.65c-.15-.12-.21-.17,0,0h0Z"/>
      </g>
      <g class="cls-10">
        <path class="cls-3" d="m101.03,74.84c.06,0,.14-.02.16-.02-.06,0-.11.01-.16.02Z"/>
      </g>
      <g class="cls-10">
        <path class="cls-3" d="m100.92,74.86s.07,0,.1-.01c-.07.01-.14.02-.1.01Z"/>
      </g>
      <path class="cls-6" d="m113.6,61.28c-5.14,5.64-9.86,11.68-14.09,18.03-2.25,3.36-4.6,7.02-8.36,8.5-.82.31-1.71.53-2.56.37-1.28-.22-2.34-1.23-2.88-2.42-.54-1.19-.62-2.54-.52-3.83.08-1,.27-2.01.76-2.9.45-.82,1.08-1.54,1.81-2.12,2.15-1.7,1.34-2.52,1.76-4.3,1.25-5.19,8.88-5.19,11.93-9.64-.76-.53-1.53-1.06-2.15-1.74-.62-.69-1.09-1.55-1.12-2.47-.06-1.4.85-2.64,1.64-3.84-9.97-3.55-20.37-5.87-30.84-7.14,2.29-4.47,4.16-9.16,6-13.84,2.51-6.35,5.02-12.69,7.73-18.7,6.62,6.65,14.66,11.69,22.61,16.66,5.47,3.42,10.96,6.83,16.8,9.56,3.11,1.45,6.61,2.98,8.01,6.11.89,1.98.73,4.3.04,6.36-.7,2.06-1.9,3.9-3.1,5.71-.99,1.48-2.2,3.08-4.05,3.53-3.29.1-6.61-.61-9.44-1.88h0Z"/>
      <path class="cls-6" d="m70.62,20.4c-1.61,5.28-3.7,10.42-6.24,15.33-1.57-.27-2.82-1.57-3.44-3.05-.62-1.47-.71-3.11-.73-4.71-.01-.66-.01-1.33.17-1.96.17-.56.48-1.07.8-1.55.79-1.2,1.66-2.38,2.83-3.21,1.9-1.34,4.52-1.58,6.6-.85h.01Z"/>
      <path class="cls-7" d="m69.24,48.28c4.46-11.24,8.92-22.48,13.39-33.91-2.47-2.3-4.43-5.2-5.68-8.38,0,0-18.04,43.29-18.05,43.11,3.29-1.15,6.86-1.49,10.33-.82h.01Z"/>
      <path class="cls-4" d="m105.83,57.47s-.1,0-.15-.02c-.34-.12-33.8-12.69-46.42-7.76-.15.06-.31.02-.43-.07-.1.03-.2.03-.3,0-.21-.09-.31-.34-.22-.55L76.61,5.26c.07-.16.22-.26.4-.26s.33.11.38.28c3.9,11.17,17.08,19.23,29.83,27.01,2.2,1.35,4.48,2.74,6.68,4.12.16.1.24.3.18.48-2.18,6.92-4.83,13.77-7.87,20.33-.07.16-.22.25-.38.25h0Zm-38.81-9.79c14.27,0,35.39,7.64,38.6,8.83,2.9-6.33,5.45-12.91,7.56-19.57-2.1-1.33-4.28-2.65-6.4-3.95-12.5-7.63-25.4-15.51-29.81-26.45l-17.63,42.2c2.14-.75,4.75-1.07,7.66-1.07h.01Z"/>
      <path class="cls-4" d="m69.44,47.81s-.1,0-.16-.03c-.21-.09-.33-.34-.24-.55l12.9-32.06c.09-.21.34-.31.55-.24.21.09.33.34.24.55l-12.9,32.06c-.07.17-.22.27-.39.27h0Z"/>
      <path class="cls-4" d="m63.89,36.33c-.08,0-.16-.02-.22-.07-1.97-1.28-3.42-3.44-3.88-5.78-.46-2.34.04-4.9,1.36-6.86.64-.94,1.46-1.78,2.46-2.47,1.75-1.23,4.45-2.1,6.79-.9.2.1.29.36.18.57-.1.2-.36.29-.57.18-2-1.03-4.37-.24-5.92.84-.91.63-1.66,1.39-2.24,2.25-1.19,1.76-1.65,4.09-1.24,6.22.43,2.12,1.73,4.08,3.51,5.24.19.12.25.39.12.58-.08.12-.21.19-.35.19h0Z"/>
      <path class="cls-4" d="m121.29,63.77c-2.09,0-4.26-.9-6.22-1.81-1.71-.8-3.26-1.55-4.77-2.28-1.49-.73-3.05-1.48-4.74-2.27-.21-.1-.3-.35-.2-.56.1-.21.35-.3.56-.2,1.71.8,3.26,1.55,4.77,2.28,1.49.73,3.05,1.48,4.75,2.27,2.72,1.27,5.6,2.41,8.07,1.27,1.82-.83,2.98-2.74,4.09-4.8.93-1.72,2-3.66,2.43-5.77.46-2.25.09-4.36-1.02-5.8-.9-1.17-2.31-1.93-3.44-2.54-3.9-2.09-7.78-4.14-12.34-6.26-.21-.1-.3-.35-.2-.56.1-.21.35-.3.56-.2,4.59,2.12,8.47,4.18,12.39,6.27,1.2.64,2.71,1.45,3.72,2.76,1.26,1.64,1.69,4,1.18,6.49-.46,2.21-1.55,4.23-2.51,5.99-1.19,2.18-2.42,4.21-4.47,5.16-.82.38-1.69.54-2.56.54l-.04.02Z"/>
      <path class="cls-4" d="m89.57,88.95c-.49,0-1-.07-1.52-.24-3.12-1-4.36-4.98-3.51-7.92.74-2.55,2.46-3.9,4.65-5.62.39-.31.81-.64,1.25-.99l.14-.1c3.19-2.56,6.52-5.98,9.89-10.14.82-1.01,1.64-2.67,2.51-4.44.49-1,1-2.05,1.53-2.97.11-.2.37-.27.57-.16.2.11.27.37.16.57-.51.91-1.01,1.93-1.51,2.92-.89,1.81-1.73,3.52-2.61,4.6-3.41,4.22-6.78,7.67-10.03,10.27l-.12.1c-.44.35-.85.67-1.26.99-2.15,1.68-3.7,2.89-4.36,5.18-.74,2.56.37,6.06,2.96,6.89,2.87.92,5.66-1.65,6.72-2.8,1.85-2,3.35-4.4,4.79-6.72.34-.54.67-1.08,1.01-1.62,3.62-5.69,7.83-11,12.53-15.78.17-.17.43-.17.6,0,.17.17.17.43,0,.6-4.65,4.73-8.83,9.99-12.42,15.63-.34.53-.67,1.07-1.01,1.61-1.46,2.35-2.98,4.79-4.89,6.84-1,1.08-3.36,3.27-6.09,3.27h.02Z"/>
      <path class="cls-4" d="m101.07,63.37c-.1,0-.21-.04-.29-.12l-1.85-1.81c-.27-.26-.56-.55-.79-.91-.52-.83-.57-1.98-.17-3.08.35-.94.98-1.75,1.53-2.46.15-.18.4-.21.6-.07.18.15.21.4.07.6-.54.7-1.1,1.42-1.4,2.24-.31.85-.28,1.73.09,2.35.17.27.42.52.66.75l1.85,1.81c.17.16.17.43,0,.6-.08.09-.19.12-.3.12h.01Z"/>
      <path class="cls-4" d="m125.65,49.28c-.07,0-.14-.01-.19-.04-3.37-1.76-6.88-3.37-10.41-4.79-.21-.09-.33-.33-.24-.55.09-.21.34-.33.55-.24,3.55,1.42,7.08,3.05,10.49,4.82.2.11.28.36.18.57-.08.15-.22.22-.37.22h-.01Z"/>
      <path class="cls-4" d="m123.62,53.58c-.06,0-.11-.01-.17-.03-3.48-1.53-7.05-3-10.58-4.38-.21-.09-.33-.33-.24-.55.09-.21.33-.33.55-.24,3.55,1.39,7.11,2.87,10.61,4.39.21.09.31.34.21.55-.07.16-.22.25-.38.25h-.01Z"/>
      <path class="cls-4" d="m121.61,58.27c-.07,0-.12-.01-.19-.04-3.42-1.71-6.96-3.23-10.53-4.53-.21-.08-.33-.33-.25-.54.08-.21.33-.34.54-.25,3.61,1.32,7.17,2.85,10.62,4.56.21.1.29.36.19.56-.08.15-.22.24-.38.24h0Z"/>
      <path class="cls-4" d="m60.41,18.78c-.1,0-.2-.03-.29-.11-3.36-3.17-5.65-7.45-6.46-12.06-.04-.22.11-.45.34-.48.22-.04.45.11.48.34.79,4.44,2.99,8.55,6.22,11.6.17.16.18.43.02.6-.08.09-.19.13-.3.13h0Z"/>
      <path class="cls-4" d="m57.13,23.15c-.08,0-.16-.02-.24-.07-2.48-1.63-5.15-3-7.9-4.07-.21-.09-.33-.33-.24-.55.08-.21.33-.33.55-.24,2.81,1.09,5.52,2.5,8.06,4.15.19.12.25.39.12.58-.08.12-.21.19-.35.19h-.01Z"/>
      <path class="cls-4" d="m43.05,30.64c-.16,0-.3-.09-.38-.24-.1-.21-.01-.46.19-.56,3.87-1.89,8.18-2.76,12.46-2.54.24.01.42.21.4.44-.01.24-.21.4-.44.39-4.14-.21-8.31.63-12.05,2.46-.06.03-.12.04-.18.04h-.01Z"/>
      <path class="cls-4" d="m74.7,45.74s-.04,0-.07-.01c-.07-.03-.09-.12-.06-.19l3.79-7.18c.03-.07.12-.09.19-.06.07.03.09.12.06.19l-3.79,7.18s-.08.08-.12.08h0Z"/>
      <path class="cls-4" d="m77.99,46.65s-.04,0-.07-.01c-.07-.03-.09-.12-.06-.19l1.93-3.59c.03-.07.12-.09.19-.06.07.03.09.12.06.19l-1.93,3.59s-.08.08-.12.08h0Z"/>
      <path class="cls-4" d="m81.67,48.02s-.05,0-.07-.02c-.07-.03-.09-.12-.06-.19l1.46-2.69c.03-.07.12-.09.19-.06.07.03.09.12.06.19l-1.46,2.69s-.08.08-.12.08Z"/>
      <path class="cls-4" d="m85.74,48.86s-.04,0-.07-.01c-.07-.03-.1-.12-.06-.19l1.07-2.07c.03-.07.12-.1.19-.06.07.03.1.12.06.19l-1.07,2.07s-.08.08-.12.08h0Z"/>
      <g class="cls-10">
        <path class="cls-3" d="m59.92,28.73c.16-.62,1-.83,1.46-.42.28.22.31.61.46.91.4,1.11,1.31,2.38,2.02,3.01.82.8.62.34,1.36,1.09.78,1.16-.71,2.5-1.78,1.6-1.87-1.27-2.33-2.59-3.15-4.18-.19-.46-.35-.94-.39-1.45-.04-.19-.08-.38,0-.57h.01Z"/>
      </g>
      <g class="cls-10">
        <path class="cls-3" d="m58.98,48.1c.29.42.91.61,1.36.34.03,0,.04-.03.08-.04.04-.01.09-.03.13-.06,1.27-.53,1.96-.46,3.71-.57,2.16-.19,3.84-.15,5.56-.03,0,.02.02.04.03.07.1.22.3.4.54.46.37.11.39.02,1.19.1.93.06,1.85.2,2.78.31,2.92.33,5.78,1.02,8.68,1.54,2.11.48,2.99.97,5.56,1.6,4.06.96,6.82,1.78,10.41,2.85.39.15,1.52.57,2.79,1.06-.38-.09-.75-.18-1.15-.24-.05-.01-.1-.02-.15-.03-.97-.6-2.2.4-1.8,1.47.21.63.96.98,1.57.74h.02c1.56.16,1.74.34,3.24.8-.16.22-.29.44-.46.72.16.12.22.34.11.57-1.17,2.3-2.68,4.42-4.33,6.4-.82.99-1.75,1.9-2.69,2.79-.47.45-.96.88-1.44,1.3-.1.09-.21.19-.33.28-.02.33.12.66.42.83.49.38,1.08.03,1.45-.34.51-.43,1.28-1.12,1.3-1.15.46-.39,1-.89,1.53-1.36.39-.31.78-.63,1.14-.98.06-.06.11-.11.17-.17.38-.34.7-.58.87-.7.54-.43.97-.97,1.43-1.47.88-.91,1.81-1.75,2.69-2.66.19-.16.38-.3.58-.44.36-.2.19-.21,1.03-.45.19-.03.46-.03.56-.03,1.02.08,1.16.17,1.75.35.74.25,1.47.55,2.16.93.38.19.78.11,1.08-.1.46.06.96-.12,1.2-.55.54-.73,0-1.64-.74-1.96-.39-.25-.79-.48-1.18-.71.27.12.54.25.82.37,2.67,1.24,5.29,2.91,8.33,2.98,1.35.09,2.65-.33,3.98-.52.76-.04,1.28-.97.89-1.62-.26-.62-.99-.67-1.56-.55-1.78.19-2.31.31-3.54.11-2.59-.39-4.32-1.42-7.1-2.88-4.25-2.24-8.52-4.47-13.06-6.08-4.3-1.56-8.83-2.34-13.24-3.54-1.48-.39-2.97-.82-4.5-1-1.78-.2-3.56-.3-5.32-.7-3.98-.61-8.02-.92-12.05-.75-1.74.18-3.55.01-5.2.69-.89.35-1.92.99-1.29,2.05l-.02-.03Zm45.78,8.99c.08-.04.15-.09.22-.12l-.35-.13c.06.08.09.17.12.26Z"/>
      </g>
      <path class="cls-6" d="m88.38,76.11c-.38-.67-.42-.03-.64-.78-.21-.74-.25-1.56.06-2.28.3-.71,1-1.28,1.76-1.31.94-.03,1.73.71,2.37,1.41,1.1,1.19,2.15,2.45,2.93,3.87.29.53.53,1.24.12,1.69-.21.24-.55.32-.88.33-.92.04-1.85-.35-2.46-1.03-.27-.3-.47-.65-.76-.93-.29-.28-.73-.64-.88-1.01-.39-1.08-.39-1.81-1.64.07h.01Z"/>
      <path class="cls-6" d="m90.68,73.02c-.38-.67-.78-1.35-.99-2.1-.21-.74-.25-1.56.06-2.28.3-.71,1-1.28,1.76-1.32.94-.03,1.73.71,2.37,1.41,1.1,1.19,2.15,2.45,2.93,3.87.29.53.53,1.24.12,1.69-.21.24-.55.31-.88.33-.92.04-1.76.33-2.38-.36-.27-.3-2.91-2.69-3.01-1.23h.01Z"/>
      <path class="cls-6" d="m92.8,69.37c-.38-.67-.78-1.35-.99-2.1-.21-.74-.25-1.56.06-2.28.3-.71,1-1.28,1.76-1.32.94-.03,1.73.71,2.37,1.4,1.1,1.19,2.15,2.45,2.93,3.87.29.53.53,1.24.12,1.69-.21.24-.55,1.08-.88,1.09-.92.04-1.85-1.11-2.46-1.8-.27-.3-2.82-2.01-2.92-.56h0Z"/>
      <path class="cls-6" d="m93.64,63.69c-.78,0-.02-2.82.29-3.53.3-.71,1-1.28,1.76-1.32.94-.03,1.73.71,2.37,1.4,1.1,1.19,2.15,2.45,2.93,3.87.29.53.53,1.24.12,1.69-.21.24.39,3.28.07,3.29-.92.04-2.05-.34-2.66-1.02-.27-.3-2.83-4.38-4.89-4.38Z"/>
      <path class="cls-6" d="m103.26,67.02c-1.24-1.56-4.1-4.97-2.47-5.88.83-.46,2.82.53,3.46,1.24,1.1,1.19,3.33,2.32,4.11,3.73.29.53,1.42,3.55,1.01,3.99-.21.24-.01,3.08-.34,3.1-.92.04-4.7,1.09-5.3.4-.27-.3,2.12-3.29-.48-6.57h.01Z"/>
      <path class="cls-4" d="m94.11,79.82c-1.79,0-3.55-2.65-4.52-4.11-.09-.14-.18-.27-.25-.37-.13-.19-.08-.45.11-.58.19-.14.45-.08.58.11.08.11.16.24.26.38.79,1.19,2.64,3.98,3.99,3.72.46-.09.57-.28.62-.42.29-.84-1.01-2.98-2.46-4.65-.78-.9-1.63-1.79-2.72-1.91-.86-.1-1.54.6-1.74,1.31-.26.9.25,1.92.69,2.82l.03.07c.1.21.01.46-.19.56-.21.1-.46.01-.56-.19l-.03-.07c-.48-.99-1.09-2.21-.74-3.43.36-1.25,1.47-2.06,2.65-1.92,1.39.17,2.42,1.22,3.26,2.2.75.88,3.18,3.86,2.62,5.48-.12.36-.44.81-1.26.97-.11.02-.21.03-.33.03h-.01Z"/>
      <path class="cls-4" d="m98.79,74.02c-.1,0-.2,0-.3-.03-.79-.15-1.7-.85-1.99-1.53-.09-.21,0-.46.22-.55.21-.09.46,0,.55.22.16.37.82.92,1.37,1.02.09.02.26.03.34-.04.21-.24.55-1.88-.28-3.77-.91-2.05-2.65-4.42-4.23-4.99-.84-.3-1.51-.27-1.98.11-.63.51-.92,1.66-.75,3.03.03.24-.14.44-.37.47-.22.03-.44-.13-.47-.37-.21-1.67.19-3.09,1.06-3.8.49-.39,1.38-.75,2.8-.24,1.88.69,3.77,3.3,4.71,5.44.98,2.21.61,4.2.11,4.7-.2.2-.47.3-.8.3h.01Z"/>
      <path class="cls-4" d="m96.27,77.99c-.62,0-1.21-.24-1.42-.42-.18-.16-.19-.42-.03-.6.16-.18.42-.19.6-.03.16.12,1.09.38,1.46,0,.22-.22.34-.58.37-1.1.06-1.03-.2-2.18-.8-3.52-.79-1.78-1.99-3.17-3.46-4.05-.58-.35-1.82-.53-2.65.02-.74.49-1.02,1.52-.83,2.96.03.24-.14.44-.36.47-.24.03-.44-.13-.47-.36-.31-2.26.48-3.3,1.2-3.78,1.18-.79,2.79-.49,3.55-.04,1.63.97,2.94,2.5,3.8,4.43.65,1.46.93,2.74.87,3.91-.04.74-.25,1.28-.62,1.65-.33.33-.76.45-1.2.45Z"/>
      <path class="cls-4" d="m104.25,90.64c-.22,0-.42-.18-.42-.4-.19-4.57,1.24-7.5,2.62-10.32.72-1.48,1.4-2.89,1.83-4.48l.12-.47c.65-2.46,1.33-5.01.42-7.25-.6-1.46-1.8-2.59-3.08-3.7l-.18-.16c-.75-.66-1.8-1.56-2.62-2-1-.53-1.59-.58-1.79-.46-.09.06-.13.18-.13.38,0,1.91.43,2.41,1.46,3.6.24.27.51.58.8.96,1.74,2.16,1.94,5.62.47,8.24-.11.2-.37.27-.57.16-.2-.11-.27-.37-.16-.57,1.3-2.33,1.15-5.4-.39-7.29-.29-.36-.55-.66-.79-.93-1.07-1.24-1.66-1.92-1.66-4.15,0-.64.29-.96.54-1.1.56-.34,1.44-.19,2.62.44.91.48,1.99,1.43,2.78,2.11l.18.16c1.3,1.14,2.64,2.38,3.3,4.01,1.02,2.5.28,5.3-.38,7.78l-.12.47c-.44,1.67-1.15,3.11-1.89,4.63-1.34,2.73-2.71,5.55-2.53,9.91,0,.24-.17.43-.4.44h-.02Z"/>
      <path class="cls-4" d="m100.43,70.52c-.18,0-.38-.02-.6-.1-.52-.19-.92-.61-1.23-1.26-.1-.21,0-.46.2-.56.21-.1.46,0,.56.2.2.44.45.71.74.82.34.12.65,0,.78-.06.84-.39.61-1.85.35-2.66l-.15-.45c-.53-1.6-1.08-3.24-1.99-4.62-.74-1.12-2.7-3-4.1-2.47-1.15.43-1.16,1.78-1.06,3.37.02.4.04.74.03,1.03-.01.24-.21.4-.45.39-.24-.01-.41-.21-.39-.45.01-.24,0-.57-.03-.93-.09-1.4-.24-3.53,1.6-4.21,1.91-.71,4.15,1.34,5.1,2.81.97,1.48,1.54,3.18,2.08,4.82l.15.45c.44,1.33.51,3.08-.79,3.69-.15.07-.45.19-.83.19h.02Z"/>
    </g>
  </g>
  <g class="cls-1">
    <g>
      <path class="cls-6" d="m141.12,33.66c11.69-.15,23.38-.31,35.06-.46,3.72-.05,7.61-.14,10.89-1.91,3.4-1.86,5.77-5.61,5.67-9.48-.09-3.88-2.82-7.62-6.57-8.64-3.75-1.02-8.14,1.02-9.56,4.62.19-6.69-5.72-13.07-12.42-13.03-6.7.05-12.61,6.9-11.32,13.48-1.15-3.05-4.81-4.67-8.03-4.13-3.21.53-5.92,2.83-7.73,5.54-1.5,2.26-2.51,4.99-2.15,7.7.35,2.71,2.19,6.37,6.17,6.31Z"/>
      <path class="cls-4" d="m141.03,34.11c-4.46,0-6.19-4.2-6.53-6.7-.43-3.22.98-6.13,2.23-8.01,2.09-3.14,5.01-5.22,8.03-5.73,2.86-.48,5.8.64,7.48,2.65.02-2.55.99-5.17,2.8-7.36,2.35-2.88,5.77-4.61,9.14-4.63,3.21-.01,6.47,1.42,8.94,3.94,2.18,2.22,3.53,5.04,3.85,7.9,1.95-2.83,5.86-4.35,9.3-3.42,3.83,1.04,6.8,4.93,6.9,9.05.11,3.94-2.27,7.91-5.91,9.88-3.44,1.87-7.51,1.93-11.09,1.97l-35.06.46h-.09Zm5.05-19.67c-.39,0-.78.04-1.16.09-2.77.46-5.48,2.41-7.44,5.34-1.17,1.75-2.48,4.47-2.09,7.41.3,2.21,1.81,5.93,5.65,5.93h.08l35.06-.47c3.48-.05,7.42-.09,10.67-1.87,3.35-1.82,5.53-5.47,5.44-9.08-.1-3.75-2.78-7.28-6.24-8.22-3.58-.97-7.73,1.02-9.03,4.36-.08.2-.3.32-.5.27-.21-.05-.35-.24-.35-.45.08-3.18-1.25-6.42-3.68-8.9-2.31-2.35-5.32-3.7-8.3-3.68-3.11.02-6.28,1.63-8.46,4.3-2.12,2.59-3,5.73-2.42,8.64.05.22-.1.45-.32.51-.22.06-.46-.06-.53-.27-.98-2.61-3.81-3.94-6.38-3.94h0Z"/>
      <g class="cls-10">
        <path class="cls-3" d="m189.86,25.99c-.32.07-.53.32-.77.52-.28.21-.59.39-.89.57-.69.45-1.37.91-2.1,1.28-.07.04-.12.06-.14.07-1.52.4-3,1.08-4.59,1.3-1.09.13-4.83.02-7.01.09-4.66.09-9.33.11-13.98.25-3.69-.08-7.36.21-11.02.71-4.69.37-6.25.57-9.72-.89l.15.07c-.78-.28-1.45-.86-2.27-1.03-1.52-.27-2.28,1.91-.92,2.68,1.86.97,3.82,1.86,5.87,2.26,4.74.77,9.47-.64,14.23-.5,1.67-.04,3.33.09,5,.05,2.25-.08,4.49-.25,6.75-.28,3.36-.07,6.86-.3,9.34-.59-.03.72.61,1.47,1.45,1.28,2.69-.27,5.33-1.11,7.72-2.4.54-.28,1.09-.59,1.62-.9.31-.2.69-.31.9-.63.21-.26.29-.54.27-.83.37-.25.72-.5,1.06-.79.34-.28.63-.66.61-1.12.01-.79-.8-1.41-1.56-1.19l-.02.02Z"/>
      </g>
    </g>
  </g>
  <g class="cls-9">
    <g>
      <path class="cls-6" d="m11.18,102c9.07-.12,18.14-.24,27.21-.35,2.89-.04,5.91-.11,8.45-1.47,2.64-1.42,4.48-4.3,4.4-7.25-.07-2.97-2.19-5.83-5.1-6.61-2.91-.78-6.32.78-7.42,3.54.15-5.12-4.44-10-9.64-9.97-5.2.04-9.79,5.28-8.79,10.31-.89-2.33-3.73-3.57-6.23-3.16-2.5.41-4.6,2.16-6,4.24-1.17,1.73-1.94,3.82-1.67,5.89.28,2.07,1.7,4.87,4.79,4.83Z"/>
      <path class="cls-4" d="m11.11,102.35c-3.46,0-4.81-3.21-5.06-5.13-.33-2.46.76-4.69,1.73-6.13,1.62-2.41,3.89-4,6.23-4.39,2.22-.37,4.5.49,5.81,2.03.02-1.95.77-3.95,2.17-5.63,1.83-2.21,4.48-3.53,7.09-3.55,2.5,0,5.02,1.09,6.93,3.01,1.69,1.7,2.74,3.85,2.99,6.04,1.51-2.16,4.55-3.33,7.22-2.61,2.97.8,5.27,3.77,5.36,6.93.08,3.01-1.76,6.05-4.59,7.56-2.67,1.43-5.82,1.47-8.6,1.51l-27.21.35h-.07Zm3.92-15.05c-.3,0-.61.03-.9.07-2.15.35-4.26,1.85-5.77,4.09-.91,1.34-1.93,3.42-1.62,5.67.23,1.69,1.4,4.54,4.38,4.54h.06l27.21-.36c2.7-.04,5.76-.07,8.28-1.43,2.6-1.39,4.29-4.19,4.22-6.95-.07-2.87-2.16-5.57-4.84-6.29-2.78-.74-6,.78-7.01,3.34-.06.15-.23.24-.39.21-.17-.04-.28-.18-.28-.34.06-2.43-.97-4.91-2.85-6.81-1.79-1.8-4.13-2.83-6.44-2.81-2.41.02-4.87,1.25-6.57,3.29-1.64,1.98-2.33,4.39-1.88,6.61.04.17-.07.34-.25.39-.17.04-.36-.05-.41-.21-.76-2-2.95-3.01-4.95-3.01h0Z"/>
      <g class="cls-10">
        <path class="cls-3" d="m49,96.13c-.25.05-.41.24-.6.4-.22.16-.46.3-.69.43-.53.34-1.06.7-1.63.98-.06.03-.09.04-.11.05-1.18.31-2.33.82-3.56.99-.84.1-3.75.02-5.44.07-3.61.07-7.24.08-10.85.19-2.86-.06-5.71.16-8.55.54-3.64.28-4.85.43-7.54-.68l.12.05c-.61-.22-1.13-.66-1.76-.79-1.18-.21-1.77,1.47-.72,2.05,1.44.74,2.96,1.42,4.56,1.73,3.68.59,7.35-.49,11.04-.38,1.29-.03,2.59.07,3.88.04,1.74-.06,3.49-.19,5.24-.22,2.61-.05,5.32-.23,7.25-.45-.03.55.48,1.12,1.13.98,2.09-.21,4.14-.85,5.99-1.84.42-.22.84-.45,1.26-.69.24-.15.53-.23.7-.48.17-.2.23-.42.21-.63.28-.19.56-.38.83-.61.27-.22.49-.51.48-.86,0-.61-.62-1.08-1.21-.91l-.02.02Z"/>
      </g>
    </g>
  </g>
</svg>