<svg width="280" height="184" viewBox="0 0 280 184" fill="none" xmlns="http://www.w3.org/2000/svg">
<path d="M187.099 55.5362C186.88 55.5362 186.661 55.4181 186.543 55.1988C186.374 54.8951 186.492 54.524 186.779 54.3553L196.277 48.8892C197.104 48.4168 197.61 48.6024 197.896 48.8217C198.099 48.9904 198.2 49.2097 198.166 49.4628C198.099 50.087 198.099 50.1376 187.369 55.4687C187.285 55.5193 187.184 55.5362 187.082 55.5362H187.099Z" fill="black"/>
<path d="M126.687 37.3666C126.451 37.3666 126.215 37.2316 126.113 36.9955L121.474 26.502C121.339 26.1814 121.474 25.8103 121.794 25.6753C122.115 25.5403 122.486 25.6753 122.621 25.9958L127.26 36.4893C127.395 36.8099 127.26 37.181 126.94 37.316C126.856 37.3497 126.771 37.3666 126.687 37.3666V37.3666Z" fill="black"/>
<path d="M95.5102 60.7831C95.5102 60.7831 95.4259 60.7831 95.3753 60.7831L84.9492 58.6068C84.6624 58.5562 83.9201 58.3874 83.7346 57.7126C83.6671 57.4596 83.7346 57.1896 83.9201 57.0041C84.325 56.616 84.5781 56.3461 95.6789 59.5346C95.9995 59.6359 96.2019 59.9564 96.1176 60.2938C96.0501 60.5806 95.797 60.7831 95.5102 60.7831V60.7831Z" fill="black"/>
<path d="M81.6256 101.542C81.3894 101.542 81.1532 101.407 81.052 101.171C80.917 100.851 81.052 100.479 81.3726 100.344L92.1866 95.5869C92.5071 95.452 92.8783 95.5869 93.0133 95.9075C93.1482 96.228 93.0133 96.5992 92.6927 96.7341L81.8787 101.492C81.8787 101.492 81.71 101.542 81.6256 101.542V101.542Z" fill="black"/>
<path d="M158.538 37.1642C158.538 37.1642 158.387 37.1642 158.319 37.1136C157.999 36.9955 157.83 36.6243 157.948 36.3038L161.761 26.367C161.879 26.0465 162.25 25.8778 162.57 25.9959C162.891 26.114 163.06 26.4851 162.942 26.8057L159.129 36.7424C159.028 36.9955 158.791 37.1473 158.538 37.1473V37.1642Z" fill="black"/>
<path d="M200.683 93.8495C200.683 93.8495 200.531 93.8495 200.447 93.7989L189.936 89.5981C189.616 89.4631 189.447 89.092 189.582 88.7715C189.717 88.4509 190.088 88.2822 190.409 88.4172L200.919 92.6179C201.24 92.7529 201.408 93.1241 201.273 93.4446C201.172 93.6977 200.936 93.8495 200.683 93.8495Z" fill="black"/>
<path d="M130.095 134.642C129.893 128.721 128.358 122.867 125.641 117.569C121.12 108.763 113.495 101.728 109.176 92.8203C104.131 82.3943 105.835 69.7076 111.521 61.6941C119.45 50.5089 133.706 45.5995 144.57 46.2069C151.42 46.5949 171.563 48.7375 177.839 68.4086C184.149 88.1471 169.049 102.504 163.499 110.855C159.686 116.591 154.929 122.158 154.288 128.957C154.136 130.526 154.153 132.196 153.242 133.495C152.145 135.081 150.036 135.621 148.113 136.026C144.621 136.785 141.027 137.561 137.485 137.004C133.942 136.448 130.45 134.271 130.078 134.626L130.095 134.642Z" fill="white"/>
<path d="M140.016 137.848C139.138 137.848 138.261 137.797 137.401 137.662C135.292 137.325 133.25 136.464 131.766 135.84C131.192 135.587 130.534 135.317 130.281 135.267C130.146 135.317 129.994 135.3 129.859 135.267C129.623 135.182 129.471 134.946 129.455 134.693C129.252 128.89 127.734 123.086 125.068 117.89C122.909 113.672 119.956 109.775 117.088 106.013C114.018 101.964 110.846 97.7802 108.586 93.1239C103.778 83.204 104.773 70.1293 110.981 61.3566C119.282 49.6316 133.841 45.009 144.587 45.5995C154.71 46.1731 172.559 49.8678 178.43 68.2398C183.812 85.0767 173.892 98.0839 167.329 106.705C166.081 108.341 164.9 109.876 164.005 111.226C163.331 112.238 162.622 113.267 161.93 114.263C158.725 118.852 155.418 123.592 154.912 129.041C154.895 129.261 154.879 129.497 154.862 129.733C154.744 131.167 154.642 132.635 153.765 133.9C152.55 135.638 150.374 136.228 148.248 136.701C145.684 137.257 142.85 137.882 140.016 137.882V137.848ZM130.703 134.052C131.091 134.153 131.58 134.372 132.272 134.659C133.689 135.267 135.646 136.093 137.603 136.397C141.078 136.937 144.756 136.144 147.995 135.435C149.952 135.014 151.791 134.507 152.736 133.158C153.411 132.196 153.512 130.948 153.613 129.615C153.63 129.379 153.647 129.143 153.664 128.906C154.204 123.12 157.612 118.244 160.901 113.52C161.593 112.542 162.302 111.513 162.976 110.517C163.887 109.134 165.085 107.582 166.334 105.929C172.744 97.5271 182.411 84.8236 177.232 68.6278C171.597 50.9643 154.322 47.4047 144.52 46.8648C134.448 46.2912 119.99 50.8294 112.01 62.0821C106.055 70.5005 105.11 83.0353 109.716 92.5672C111.909 97.1054 115.047 101.239 118.084 105.237C120.969 109.05 123.955 112.981 126.182 117.299C128.847 122.496 130.399 128.265 130.686 134.069L130.703 134.052Z" fill="black"/>
<path d="M157.727 125.718C157.727 125.718 126.095 125.313 126.061 125.6C125.622 131.909 126.01 138.286 127.242 144.495C127.866 147.649 129.283 155.106 140.907 155.764C150.017 156.287 154.269 151.361 155.551 146.199C157.002 140.328 157.778 132.77 157.727 125.718Z" fill="#EDA51E"/>
<path d="M142.257 156.439C141.801 156.439 141.346 156.439 140.874 156.405C128.828 155.714 127.293 147.97 126.635 144.663V144.613C125.386 138.354 124.982 131.943 125.437 125.549C125.493 125.088 127.355 124.857 131.021 124.857C133.653 124.857 137.314 124.857 141.903 124.908C149.731 124.976 157.643 125.077 157.727 125.077C158.065 125.077 158.352 125.364 158.352 125.701C158.402 132.989 157.592 140.513 156.141 146.351C155.382 149.455 152.497 156.439 142.24 156.439H142.257ZM126.669 126.173C126.281 132.247 126.685 138.371 127.883 144.36V144.41C128.541 147.683 129.891 154.499 140.958 155.123C151.401 155.731 154.218 148.965 154.944 146.03C156.327 140.463 157.103 133.31 157.103 126.325C145.834 126.19 129.638 126.038 126.669 126.156V126.173Z" fill="black"/>
<path d="M147.25 131.015C141.16 131.015 135.053 130.863 129.013 130.543C128.895 130.543 128.811 130.442 128.811 130.323C128.811 130.205 128.912 130.121 129.03 130.121C137.516 130.56 146.12 130.695 154.606 130.509C154.724 130.509 154.808 130.593 154.808 130.711C154.808 130.83 154.724 130.931 154.606 130.931C152.159 130.981 149.696 131.015 147.233 131.015H147.25Z" fill="black"/>
<path d="M138.176 135.705C135.241 135.705 132.322 135.655 129.404 135.553C129.286 135.553 129.201 135.452 129.201 135.334C129.201 135.216 129.302 135.132 129.42 135.132C137.653 135.418 145.971 135.3 154.186 134.777C154.305 134.777 154.406 134.862 154.406 134.98C154.406 135.098 154.321 135.199 154.203 135.199C148.889 135.537 143.524 135.705 138.159 135.705H138.176Z" fill="black"/>
<path d="M129.993 140.463C129.875 140.463 129.791 140.378 129.791 140.26C129.791 140.142 129.875 140.041 129.993 140.041L153.646 139.501C153.764 139.501 153.865 139.585 153.865 139.704C153.865 139.822 153.781 139.923 153.663 139.923L130.01 140.463H129.993Z" fill="black"/>
<path d="M138.478 144.933C135.998 144.933 133.501 144.933 131.038 144.9C130.92 144.9 130.836 144.798 130.836 144.68C130.836 144.562 130.937 144.478 131.038 144.478C138.175 144.529 145.412 144.512 152.565 144.394C152.666 144.394 152.785 144.478 152.785 144.596C152.785 144.714 152.7 144.815 152.582 144.815C147.909 144.883 143.185 144.917 138.495 144.917L138.478 144.933Z" fill="black"/>
<path d="M139.949 148.999C137.452 148.999 134.955 148.966 132.458 148.881C132.34 148.881 132.256 148.78 132.256 148.662C132.256 148.544 132.357 148.459 132.458 148.459C138.7 148.645 145.044 148.594 151.286 148.308C151.404 148.308 151.505 148.392 151.505 148.51C151.505 148.628 151.421 148.729 151.303 148.729C147.524 148.898 143.728 148.999 139.932 148.999H139.949Z" fill="black"/>
<path d="M141.988 152.593C139.829 152.593 137.669 152.525 135.527 152.407C135.409 152.407 135.324 152.306 135.324 152.188C135.324 152.07 135.425 151.985 135.544 151.985C139.508 152.205 143.523 152.221 147.488 152.036C147.589 152.036 147.707 152.12 147.707 152.238C147.707 152.356 147.623 152.458 147.505 152.458C145.683 152.542 143.827 152.593 141.988 152.593V152.593Z" fill="black"/>
<g opacity="0.13">
<path opacity="0.13" d="M157.24 126.005C156.548 124.233 153.731 124.79 153.748 126.696C153.275 131.673 153.241 135.284 152.82 138.742C152.482 140.699 151.689 142.521 150.981 144.377C150.357 145.861 147.32 149.64 144.3 150.923C143.187 151.513 139.458 152.357 137.535 151.53C136.388 151.209 135.443 150.653 132.457 149.084C130.112 147.818 128.121 151.125 130.399 152.508C131.664 153.284 132.929 154.077 134.161 154.904C134.009 154.803 133.823 154.651 133.722 154.567C134.802 155.427 136.118 156.017 137.467 156.372C145.025 157.873 150.998 153.892 154.507 147.582C155.823 144.984 156.497 141.492 156.683 140.159C157.054 137.865 157.004 138 157.105 135.452C157.105 135.064 157.223 134.541 157.088 134.069C157.139 133.023 157.172 131.977 157.24 130.965C157.29 129.733 157.324 128.518 157.392 127.287C157.392 126.865 157.493 126.41 157.257 126.022L157.24 126.005Z" fill="black"/>
</g>
<g opacity="0.13">
<path opacity="0.13" d="M167.363 101.34C166.351 102.285 165.372 103.263 164.36 104.208C164.36 104.225 164.343 104.242 164.327 104.242C162.842 105.389 161.56 106.806 160.244 108.122C159.063 109.32 157.966 110.568 156.903 111.85C156.634 112.103 156.347 112.373 156.026 112.609C155.807 112.812 154.727 113.706 154.525 113.875L154.457 113.925C154.305 114.043 153.884 114.364 153.631 114.55C150.847 116.557 148.232 118.396 146.022 118.852C143.424 119.442 140.944 119.476 138.97 119.155C137.688 118.919 137.047 118.784 136.439 118.582C134.28 117.839 132.509 117.215 131.226 116.591C127.903 114.971 124.799 112.964 121.863 110.737C124.495 114.55 125.946 118.362 128.426 123.963C128.713 124.469 129.016 124.976 129.286 125.499C129.337 125.6 129.404 125.701 129.455 125.802C129.573 125.836 129.708 125.853 129.843 125.853C130.906 125.785 131.952 126.072 133.015 126.089C134.719 126.19 136.439 126.089 138.143 126.022C140.86 125.937 143.542 125.397 146.258 125.38C149.278 125.144 150.999 125.448 152.264 125.65C153.917 125.684 153.614 125.431 154.643 125.465C154.828 125.465 154.997 125.431 155.149 125.38C155.284 124.908 155.419 124.436 155.588 123.98C155.301 123.693 155.284 123.272 155.453 122.884C156.903 119.577 158.894 116.608 161.054 113.689C164.9 108.493 169.421 103.786 173.015 98.4213C173.234 97.9995 173.437 97.5609 173.656 97.1391C174.567 95.3002 175.478 93.4782 176.389 91.6393C173.842 94.541 170.164 98.3538 167.313 101.289L167.363 101.34Z" fill="black"/>
</g>
<path d="M145.378 125.06H145.362C145.007 125.06 144.737 124.756 144.754 124.402L144.856 121.652C145.125 114.161 145.969 106.637 147.369 99.2985C147.757 97.2403 148.213 95.1652 148.82 93.1576C147.656 92.6852 146.509 91.808 145.311 90.492C144.839 89.9691 144.4 89.4461 143.978 88.8893C143.472 89.6148 142.932 90.3065 142.342 90.9982C141.448 92.0273 140.334 93.1745 138.883 93.7987C137.837 94.2373 136.589 94.4229 135.087 94.3554C134.514 94.3385 133.957 94.2711 133.384 94.1867C135.813 104.056 136.521 114.313 137.213 124.284C137.23 124.638 136.977 124.942 136.623 124.959C136.285 124.976 135.965 124.722 135.948 124.368C135.256 114.246 134.531 103.854 132 93.8999C128.761 93.0732 125.775 91.2175 123.666 88.6194C122.62 87.3372 122.046 86.1394 121.878 84.9754C121.658 83.3895 122.316 81.8037 123.497 81.0445C125.1 80.0154 127.192 80.6228 128.424 81.7531C129.655 82.8665 130.296 84.4018 130.836 85.8864C131.68 88.1808 132.405 90.492 133.012 92.8371C133.704 92.972 134.396 93.0564 135.104 93.0901C136.42 93.1407 137.483 92.9889 138.343 92.6346C139.558 92.1116 140.554 91.0994 141.346 90.1715C142.021 89.3955 142.629 88.5857 143.168 87.7759C140.3 83.4064 139.001 78.0247 139.626 72.8286C139.727 71.9682 139.912 71.074 140.503 70.3655C141.633 69.0495 143.691 69.1676 144.94 70.0449C145.986 70.7703 146.745 71.9682 147.234 73.6721C148.483 78.0753 147.538 83.1365 144.687 87.7421C145.159 88.4001 145.665 89.0243 146.205 89.6317C147.251 90.7788 148.213 91.5212 149.174 91.9429C150.187 88.9568 151.604 86.1563 153.729 83.8113C155.231 82.158 157.576 80.7577 159.668 81.8037C161.625 82.7822 162.03 85.4477 161.152 87.3204C160.326 89.1087 158.656 90.3065 157.154 91.285C155.045 92.6515 152.565 93.9843 150.001 93.5119C149.411 95.4857 148.955 97.5271 148.567 99.5347C147.184 106.806 146.34 114.28 146.07 121.703L145.969 124.453C145.969 124.79 145.682 125.06 145.345 125.06H145.378ZM125.353 81.77C124.948 81.77 124.543 81.8712 124.189 82.0905C123.295 82.6641 123.025 83.8619 123.143 84.7898C123.278 85.7345 123.767 86.713 124.645 87.8096C126.433 90.0197 128.913 91.6392 131.629 92.4828C131.055 90.4077 130.414 88.3495 129.672 86.325C129.183 84.9922 128.609 83.6257 127.597 82.6978C127.023 82.1749 126.18 81.7868 125.353 81.7868V81.77ZM150.423 92.2803C152.481 92.5671 154.556 91.4537 156.496 90.2052C157.846 89.328 159.347 88.2651 160.039 86.7805C160.646 85.4815 160.41 83.5751 159.128 82.934C157.677 82.2086 155.838 83.4064 154.691 84.6717C152.717 86.848 151.384 89.4798 150.423 92.2972V92.2803ZM142.814 70.6354C142.308 70.6354 141.819 70.8041 141.481 71.1752C141.093 71.6139 140.975 72.2887 140.891 72.9635C140.317 77.6704 141.448 82.546 143.928 86.5781C146.357 82.411 147.133 77.9066 146.036 74.0095C145.632 72.5924 145.041 71.6307 144.248 71.074C143.843 70.8041 143.32 70.6354 142.831 70.6354H142.814Z" fill="black"/>
</svg>
