<?xml version="1.0" encoding="UTF-8"?>
<svg id="Layer_2" data-name="Layer 2" xmlns="http://www.w3.org/2000/svg" viewBox="0 0 200 131.43">
  <defs>
    <style>
      .cls-1, .cls-2, .cls-3 {
        stroke-width: 0px;
      }

      .cls-2 {
        fill: #2d2321;
      }

      .cls-3 {
        fill: #eda51e;
      }
    </style>
  </defs>
  <path class="cls-2" d="m154.41,59.88c.2-.68.68-.89.17-1.51-.52-.63-1.86-2.53-1.86-2.53-.15-.31-.27-.55-.36-.68-.45-.63-2.19-.08-2.44.33-.25.41.58,4.1.58,4.4,0,0,.85.7.98.7s1.89-.2,2.14-.2.63.18.83-.5h-.02Z"/>
  <path class="cls-2" d="m149.82,74.27c-.85-.34-1.68-.76-2.55-1.3l-.11-.07c-.36-.23-.7-.47-1.1-.76-.6-.45-1.16-.98-1.76-1.63-.1-.11-.19-.22-.3-.33l-.08-.09c-.16-.19-.31-.39-.44-.58l-.34-.49c-.14-.22-.26-.44-.4-.68l-.09-.17-.14-.25c-.16-.33-.31-.67-.43-1.02l-.06-.13c-.16-.48-.63-.77-1.13-.74-1.68.16-3.42-.08-5.17-.68-.3-.1-.59-.2-.89-.33-.22-.09-.42-.18-.63-.28-.31-.15-.6-.31-.92-.49-.18-.1-.35-.2-.53-.31-.32-.2-.63-.42-.92-.64l-.55-.42c-.35-.28-.76-.64-1.15-1.01-.28-.3-.58-.63-.9-1.05-.02-.03-.06-.07-.09-.1-.05-.07-.1-.15-.15-.23l-.31-.47c-.1-.14-.19-.27-.28-.42-.08-.13-.14-.26-.2-.4l-.25-.48c-.07-.13-.14-.25-.19-.39-.07-.15-.13-.31-.18-.47l-.19-.52c-.05-.13-.09-.24-.14-.36-.06-.18-.1-.36-.15-.55l-.1-.42c-.09-.36-.16-.74-.22-1.1l-.02-.17-.03-.2c0-.07-.02-.13-.03-.2-.03-.32-.06-.64-.07-.99v-.27c-.02-.13-.03-.25-.03-.38,0-.15,0-.3.02-.44l.02-.56c0-.16,0-.32.02-.48.06-.59-.36-1.11-.95-1.18-3.81-.43-6.81-1.92-8.92-4.43-.32-.38-.63-.78-.89-1.18-.05-.07-.09-.15-.14-.22l-.24-.4c-.13-.2-.26-.42-.36-.63-.05-.1-.09-.19-.14-.3l-.2-.45c-.09-.18-.17-.35-.24-.55-.05-.11-.08-.23-.11-.34l-.16-.48c-.06-.17-.11-.34-.17-.52-.03-.11-.06-.23-.07-.34l-.1-.49c-.05-.18-.08-.35-.1-.53-.02-.13-.02-.25-.03-.38l-.05-.48c-.02-.18-.03-.35-.05-.53v-.83c0-.19,0-.38.02-.57,0-.13.02-.25.05-.38l.06-.49c.02-.2.05-.4.08-.6.09-.49-.16-.97-.61-1.18-.55-.25-1.09-.53-1.66-.88-.38-.23-.73-.48-1.09-.74l-.19-.14c-.07-.05-.13-.08-.18-.13-.34-.26-.69-.57-1.11-.95l-.22-.19c-.32-.31-.64-.66-.99-1.09l-.24-.28c-.13-.15-.26-.3-.38-.45-.28-.41-.56-.83-.8-1.27-.23-.42-.44-.86-.63-1.31,0-.01-.01-.03-.02-.05-.35-.9-.6-1.84-.74-2.81,0-.07-.02-.13-.03-.2-.03-.3-.05-.6-.05-.89v-.42c0-.15.01-.3.02-.43.03-.47.09-.92.16-1.39,0-.05,0-.09.01-.14.02-.18.06-.36.09-.56l.19-1.03c.1-.53.2-1.06.28-1.58,0-.06.01-.11.01-.16.11-.77.24-1.75.19-2.74-.02-.52-.42-.95-.94-1.02-7.96-1.02-13.89-.31-14.12-.27l-3.76.42c-7.54.93-14.61,4.51-15.43,4.93-1.06.39-4.1,1.56-5.25,2.75-1.85.92-6.05,4.14-6.99,5.57-.7,1.06-.48,2.43-.15,3.46-.15-.01-.28-.03-.39-.05-.58-.07-1.24-.15-1.86,0-1.31.3-3.06,1.81-3.4,2.11-3.92,3.51-5.85,8.03-7.4,11.64l-.4.93c-1.64,3.77-3.74,10.69-4.25,13.2-.52,2.57-.56,7.62-.42,9.15.05.61.02,1.51,0,2.55-.05,1.31-.09,2.8,0,4.27.17,2.76,2.3,7.86,2.38,8.06.23.56,1.01,2.44,1.55,3.09.27.33.67,1.18.82,1.53.3.8,1.05,3.08,1.11,4.47.08,1.92,1.46,4.22,1.84,4.82.32.89,1.35,2.75,2.3,3.64h-.01s.74,1.11,2.18,2.51c1.09,1.06,1.81,2.14,2.91,3.79l.6.9c1.84,2.74,4.71,4.49,6.25,5.29.92.48,1.76,1.12,2.73,1.87,1.07.83,2.28,1.77,3.94,2.74,3.22,1.89,7.9,2.98,8.2,3.05,1.13.16,2.55-.02,3.69-.16.39-.05.76-.09,1-.11.16.18.4.64.53,1.03.02.06.03.1.07.16.83,1.64,3.9,1.96,8.92,1.96.1,0,10.2,0,12.45-.85.92-.35,1.39-.4,2.22-.49.52-.06,1.16-.13,2.07-.28,2.98-.51,3.94-3.01,3.98-3.12.11-.28.25-.75.39-1.18.55.32,1.23.8,1.6,1.05,1.05.72,1.3.89,1.76.84.08,0,.26-.02,3.11-.51l.11-.02c2.24-.37,4.99-2.76,7.39-4.97.44-.41.78-.73.99-.89.4-.31.97-.64,1.57-.98.82-.47,1.75-1,2.64-1.68,1.44-1.13,4.09-4.43,4.71-5.22,1.71-1.22,3.38-3.76,3.46-3.88.02-.05.06-.09.08-.14.94-2.01,2.02-3.35,3.06-4.65.82-1.01,1.66-2.07,2.42-3.4,1.43-2.53,1.94-4.58,2.08-5.34.44-1.11.77-2.61.9-3.24.58-1.22.82-3.38,1.15-6.31l.18-1.57c.06-.48-.22-.94-.67-1.13h-.05Zm-1.65,2.44c-.3,2.61-.55,4.87-.99,5.68-.06.1-.09.22-.11.32-.07.33-.4,2-.84,3.06-.03.08-.06.17-.07.25,0,.02-.33,2.06-1.85,4.75-.67,1.18-1.42,2.11-2.22,3.11-1.11,1.38-2.26,2.81-3.31,5.02-.49.73-1.84,2.56-2.96,3.31-.09.07-.18.14-.25.23-.85,1.08-3.3,4.09-4.44,4.98-.76.59-1.58,1.06-2.38,1.51-.67.38-1.3.74-1.82,1.14-.24.18-.64.55-1.14,1.01-1.46,1.34-4.49,4.13-6.24,4.42-.01,0-.1.01-.11.02-1.46.25-2.32.39-2.73.45-.17-.1-.39-.26-.64-.43-2.11-1.43-3.06-1.99-3.89-1.66-.38.15-.66.48-.75.87-.14.6-.5,1.72-.58,1.96-.05.1-.64,1.44-2.32,1.74-.85.15-1.44.22-1.94.27-.91.1-1.56.17-2.74.61-1.25.47-7.59.72-11.7.72-5.38,0-6.71-.49-6.99-.76-.25-.71-.99-2.39-2.39-2.39-.35,0-.82.06-1.41.14-.97.12-2.28.28-3.04.18-.05,0-4.57-1.07-7.49-2.79-1.53-.9-2.69-1.8-3.72-2.59-1.01-.78-1.96-1.51-3.06-2.08-2.32-1.21-4.3-2.88-5.46-4.58l-.59-.89c-1.13-1.69-1.94-2.92-3.19-4.14-1.17-1.14-1.78-1.99-1.89-2.16-.03-.05-.07-.09-.1-.14-.42-.45-1.6-1.9-1.96-3.08-.03-.1-.08-.2-.14-.28-.42-.64-1.51-2.57-1.57-3.85-.09-2.02-1.2-5.02-1.25-5.15h-.01c-.23-.68-.9-1.82-1.17-2.15-.22-.26-.8-1.51-1.2-2.52-.58-1.38-2.09-5.39-2.22-7.38-.09-1.38-.05-2.81,0-4.07.03-1.1.07-2.06,0-2.8-.11-1.35-.08-6.24.4-8.57.5-2.43,2.54-9.12,4.13-12.77l.4-.93c1.55-3.6,3.3-7.7,6.85-10.88.65-.58,1.88-1.49,2.44-1.61.26-.06.7,0,1.14.05.9.11,2.01.24,2.85-.5.38-.33.48-.88.24-1.32-.45-.86-.77-2.13-.5-2.54.7-1.07,4.82-4.26,6.29-4.89.18-.08.33-.19.44-.35.38-.52,2.64-1.59,4.51-2.26.05-.01.09-.03.14-.06.07-.03,7.31-3.82,14.73-4.74l3.77-.42c.06,0,5.43-.66,12.63.16-.03.57-.11,1.11-.18,1.57,0,.06-.01.1-.01.15-.08.45-.16.91-.25,1.38l-.19,1.08c-.05.24-.08.48-.13.72,0,.05-.01.09-.01.14-.07.48-.13.94-.16,1.42,0,.17-.02.34-.02.5v.5c0,.39.01.76.07,1.15,0,.07.02.15.05.24.16,1.16.47,2.28.89,3.35,0,.01.01.03.02.05.08.19.18.39.27.58-.05,0-.08,0-.13.01-1.23.19-2.11.65-2.74,1.16-1.39,1.15-1.52,2.67-1.52,2.67,1.46.99,4.9.92,7.41.48.07.07.13.14.19.2.06.06.13.11.25.23.47.43.86.78,1.27,1.09.09.07.19.14.3.2l.14.09c.4.3.81.58,1.24.84.39.23.76.44,1.14.64l-.05.35c-.02.17-.05.34-.06.51-.02.24-.02.49-.02.73v.39c-.01.17-.01.35,0,.52,0,.23.03.45.06.68l.05.42c.01.17.03.35.06.52.03.23.08.47.14.69l.09.42c.03.17.07.33.1.49.06.23.14.44.22.67l.14.41c.05.16.1.33.16.49.09.23.19.45.31.68l.18.39c.07.15.13.3.2.43.14.26.3.51.44.76l.19.33c.07.11.14.24.22.35.32.47.66.93,1.03,1.38,2.28,2.72,5.42,4.42,9.33,5.06v.07c-.01.19-.03.39-.03.58,0,.17,0,.34.02.51v.27c.03.36.06.74.09,1.09.01.1.02.22.05.32l.06.36c.07.42.15.85.25,1.27l.1.42c.06.23.11.47.18.69.06.17.13.34.19.51l.17.44c.07.2.15.41.24.61.08.18.17.36.27.53l.2.41c.09.18.18.38.28.55.11.19.25.39.38.57l.26.39c.09.15.19.3.3.43.01.01.07.08.08.09.01.02.03.03.05.06.35.44.67.81.99,1.14.45.45.93.86,1.32,1.17.13.1.25.2.38.3l.25.18c.35.26.7.51,1.07.74.2.13.41.24.64.38.34.19.68.38,1.03.55.24.11.48.23.72.33.34.14.68.26,1.02.39,1.76.6,3.54.88,5.26.83.09.22.18.43.28.64.03.07.07.14.16.3l.13.22c.15.27.3.55.48.82l.4.57c.17.24.34.48.53.69l.09.1c.11.14.24.27.39.43.64.7,1.32,1.33,1.99,1.83l.09.07c.39.28.78.57,1.19.82l.23.14c.65.4,1.33.75,2.02,1.07l-.09.77h0Z"/>
  <path class="cls-2" d="m112.76,22.94s-.33.98-.33,1.27.48,1.86.58,2.26c.1.4.66,1.66.83,2.09.17.43.6,1.34.66,1.32.06-.01,1.76-.91,1.76-.91l.27-.4c-1.25-3.02-1.13-6.82-1.13-6.82,0,0-1.91-.35-2.66,1.17h.01Z"/>
  <path class="cls-2" d="m114.65,3.45c.1-.05.43-.63.77-1.61.33-1-1.03-.58-1.41-.38-.38.2-.45,1.99-.45,1.99,0,0,1,.05,1.1,0h-.01Z"/>
  <path class="cls-2" d="m120.73,29.71s.4-1.71.33-1.99c-.06-.3-.33-1.86-.33-1.86,0,0-1.1.45-1.51.6,0,0,.08,1.08,0,1.49-.08.41.35,1.91.33,2.28s1.18-.52,1.18-.52Z"/>
  <path class="cls-2" d="m145.25,53.49l.58-.81s-.58-1.98-.78-2.6c-.2-.63-.63-1.91-.66-2.16-.05-.25-1.2-2.36-1.2-2.36,0,0-1.86,1.58-2.03,1.83,0,0,1.78,3.36,2.34,3.9.56.53,1.76,2.19,1.76,2.19h0Z"/>
  <path class="cls-2" d="m156.13,70.77s-1.59,1.24-1.9,1.77c-.31.53-1.09.97-1.18,1.06-.09.09,1.43,1.06,1.59,1.06s2.27-.75,2.33-.84c.06-.09.77-1.24.93-1.59.16-.34-1.49-1.09-1.77-1.47h0Z"/>
  <path class="cls-2" d="m110.51,11.64s1.49-.03,1.81-.13c.31-.09,1.74-.56,1.83-1.18.09-.63.06-1.4.06-1.4l-1.99-1.18-3.55,1.18c.34.22,1.65,1.43,1.65,1.43l.18,1.27h.01Z"/>
  <path class="cls-2" d="m134.47,47.95v-.93h-2.55v.73l.59.73,1.96-.53h0Z"/>
  <path class="cls-2" d="m150.62,72.71c.26-.11.85-.14.77-.26-.08-.13-1.28-.38-1.55-.38,0,0,.5.75.77.64Z"/>
  <path class="cls-2" d="m123.19,66.58c-1.43-1.73-4.62-3.33-8.29-1.34-1.36.74-2.17,1.72-2.64,2.74-1.18,2.59-.14,5.47-.08,5.57.08.14.51.72,1.11,1.07.61.34,3.99,1.23,7.46-.38,3.47-1.6,3.22-6.09,3.22-6.09-.07-.45-.34-1.01-.8-1.56h.01Z"/>
  <path class="cls-2" d="m123.61,94.14c-1.93-1.59-5.43-1.3-8.03,2.02-.06.07-.11.14-.16.2-2.79,3.75.15,6.04.64,6.17.49.14,2.77.16,5.45-2.72,2.66-2.86,2.49-5.33,2.49-5.33-.11-.13-.25-.25-.38-.36h-.01Z"/>
  <path class="cls-2" d="m79.8,102.65c-.14.01-.26.02-.4.05-4.38.68-4.33,2.42-4.09,2.82.23.4,2.38,2.52,5.66,1.97,3.29-.56,4.99-1.84,4.99-1.84-.02-.1-.07-.23-.11-.35-.49-1.24-2.33-3.07-6.05-2.64Z"/>
  <path class="cls-2" d="m99.37,90.3c-.8-1.47-2.84-3.84-6.87-3.29-1.36.19-2.41.67-3.21,1.31-2.32,1.86-2.49,5.15-1.82,6.89,0,0,3.09,2.18,7.24,1.23,4.15-.95,5.14-4.52,5.06-5.14-.02-.15-.15-.53-.41-1Z"/>
  <path class="cls-2" d="m80.18,39.06c.92-4.75,0-5.89,0-5.89-.05-.02-.1-.05-.16-.08-1.91-.97-5.92-.53-7.51,4.51-.08.26-.14.5-.19.75-1,4.63,2.98,6.46,3.35,6.39.39-.07,3.58-.92,4.51-5.68Z"/>
  <path class="cls-2" d="m60.94,53.99c-.73.09-1.96.51-2.89,2.17-.27.49-.43.98-.5,1.44-.28,1.92.9,3.44,1.22,3.42.4-.02,2.93-4.9,2.8-7.06,0,0-.25-.03-.63,0v.02Z"/>
  <path class="cls-2" d="m91.73,63.82c3.81.64,6.4-1.67,6.72-4.93,0-.05.01-.08.01-.13.26-3.33-2.18-5.38-2.18-5.38-.65-.68-2.64-1.73-5.35-1.73-1.88,0-3.31,1.23-4.16,2.83-.39.73-.65,1.52-.76,2.33-.4,2.58,1.86,6.37,5.73,7Z"/>
  <path class="cls-2" d="m70.61,73.02c-2.03-.44-4.21.32-5.6,2.01-.9,1.08-1.47,2.55-1.48,4.34-.02,4.59,4.18,6.32,5.04,6.35.85.02,4.21-2.02,4.26-6.45.03-3.29-1.19-5.14-1.84-5.88-.23-.26-.38-.39-.38-.39Z"/>
  <path class="cls-2" d="m136.17,85.71c6.18-4.22,3.01-11.46,3.01-11.46-2.72.47-4.98,7.61-3.01,11.46Z"/>
  <path class="cls-3" d="m152.86,103.93l-21.93-9.64,6.88,22.95,4.24-3.75,8.81,10.52,6.58-5.82-8.81-10.52,4.24-3.75Z"/>
  <path class="cls-1" d="m150.85,124.57h-.04c-.15-.01-.29-.08-.39-.2l-8.44-10.08-3.81,3.36c-.14.13-.34.17-.52.12-.19-.05-.33-.19-.38-.38l-6.88-22.95c-.06-.21,0-.44.17-.58.16-.14.4-.18.6-.09l21.93,9.64c.17.08.3.24.33.42.03.19-.04.38-.18.51l-3.83,3.39,8.45,10.1c.19.23.17.58-.06.78l-6.58,5.82c-.1.09-.23.14-.37.14h-.01Zm-8.8-11.64h.05c.15.01.29.08.39.2l8.44,10.08,5.74-5.07-8.45-10.1c-.19-.23-.17-.58.06-.78l3.58-3.16-20.02-8.8,6.28,20.95,3.58-3.17c.1-.09.23-.14.37-.14h0Z"/>
</svg>