<svg width="24" height="24" viewBox="0 0 24 24" fill="none" xmlns="http://www.w3.org/2000/svg">
<path fill-rule="evenodd" clip-rule="evenodd" d="M18.2961 11.97C17.9561 12.59 17.2961 13 16.5461 13H9.09609L7.99609 15H19.9961V17H7.99609C6.47609 17 5.51609 15.37 6.24609 14.03L7.59609 11.59L3.99609 4H1.99609V2H5.26609L6.20609 4H21.0061C21.7661 4 22.2461 4.82 21.8761 5.48L18.2961 11.97ZM19.3061 6H7.15609L9.52609 11H16.5461L19.3061 6ZM7.99609 18C6.89609 18 6.00609 18.9 6.00609 20C6.00609 21.1 6.89609 22 7.99609 22C9.09609 22 9.99609 21.1 9.99609 20C9.99609 18.9 9.09609 18 7.99609 18ZM16.0061 20C16.0061 18.9 16.8961 18 17.9961 18C19.0961 18 19.9961 18.9 19.9961 20C19.9961 21.1 19.0961 22 17.9961 22C16.8961 22 16.0061 21.1 16.0061 20Z" fill="white"/>
</svg>
