<svg width="206" height="155" viewBox="0 0 206 155" fill="none" xmlns="http://www.w3.org/2000/svg">
<g clip-path="url(#clip0_4757_9627)">
<path d="M10.7091 46.9876C29.4246 46.7416 48.1402 46.4956 66.8368 46.2496C72.7978 46.1739 79.0237 46.0225 84.2655 43.184C89.7156 40.213 93.5003 34.1952 93.3489 28.0072C93.1975 21.8002 88.8262 15.8014 82.8273 14.1739C76.8285 12.5465 69.7889 15.8014 67.5181 21.5731C67.8208 10.8623 58.359 0.643473 47.6292 0.719168C36.8995 0.794863 27.4376 11.7706 29.5003 22.2922C27.6647 17.4099 21.7984 14.8173 16.6511 15.6878C11.5039 16.5394 7.17034 20.2106 4.27502 24.563C1.8717 28.1775 0.263189 32.5488 0.8309 36.8824C1.39861 41.2159 4.33179 47.0823 10.7091 46.9876Z" fill="white"/>
<path d="M10.5593 47.7068C3.4251 47.7068 0.64331 40.9889 0.113446 36.9771C-0.567807 31.8298 1.68411 27.1556 3.69003 24.1468C7.03953 19.1131 11.7137 15.7825 16.5392 14.9688C21.1188 14.1929 25.8308 15.9907 28.5179 19.2077C28.5558 15.1202 30.1075 10.938 33.0029 7.41821C36.7687 2.80083 42.2376 0.0379638 47.6309 0.000116373C52.7781 -0.0188073 57.9822 2.27096 61.9372 6.30171C65.4192 9.85937 67.5954 14.3632 68.1064 18.9428C71.2288 14.42 77.4925 11.9788 82.9993 13.4738C89.1306 15.1391 93.8804 21.365 94.0508 27.9694C94.2211 34.271 90.4174 40.6293 84.5889 43.7896C79.0821 46.7795 72.5723 46.8741 66.8385 46.9498L10.7107 47.6879H10.5593V47.7068ZM18.6398 16.2177C18.0153 16.2177 17.3908 16.2745 16.7852 16.3691C12.3571 17.1072 8.00463 20.2296 4.88222 24.9226C3.00877 27.7234 0.908242 32.0758 1.53272 36.7878C2.00582 40.3265 4.42805 46.2875 10.5783 46.2875H10.7107L66.8385 45.5306C72.402 45.4549 78.7225 45.3792 83.9266 42.5406C89.282 39.6264 92.7829 33.7789 92.6315 28.0072C92.4801 22.0084 88.1844 16.3502 82.6398 14.8552C76.9059 13.3035 70.2636 16.4827 68.182 21.8381C68.0496 22.1598 67.709 22.349 67.3872 22.2733C67.0466 22.1976 66.8195 21.8948 66.8195 21.5542C66.952 16.4637 64.8136 11.2786 60.9343 7.30467C57.2441 3.53885 52.4186 1.38155 47.6498 1.41939C42.6729 1.45724 37.6013 4.03087 34.1004 8.30763C30.7131 12.4519 29.2938 17.4856 30.2211 22.1409C30.2968 22.5004 30.0697 22.86 29.7101 22.9546C29.3506 23.0492 28.9721 22.86 28.8586 22.5193C27.2879 18.3372 22.7651 16.2177 18.6398 16.2177Z" fill="black"/>
<g opacity="0.13">
<path opacity="0.13" d="M88.7333 34.7063C88.2223 34.8198 87.8817 35.2172 87.5032 35.5389C87.0491 35.8796 86.5571 36.1634 86.084 36.4473C84.9864 37.1664 83.8888 37.9044 82.7155 38.491C82.602 38.5478 82.5263 38.5856 82.4885 38.6046C80.0473 39.248 77.6818 40.3266 75.1461 40.6862C73.4051 40.8943 67.4063 40.724 63.9243 40.8376C56.4684 40.989 48.9935 41.0079 41.5375 41.235C35.6333 41.1025 29.7481 41.5756 23.9006 42.3704C16.3879 42.957 13.89 43.2787 8.34535 40.9511L8.59136 41.0646C7.3424 40.6105 6.26374 39.6832 4.95801 39.4183C2.51685 38.983 1.30573 42.4839 3.48196 43.714C6.45298 45.2657 9.59432 46.685 12.887 47.3284C20.4755 48.5584 28.0449 46.3065 35.6712 46.5336C38.3394 46.4768 41.0077 46.685 43.6759 46.6093C47.2714 46.4768 50.8669 46.2119 54.4814 46.1551C59.8557 46.0416 65.4571 45.682 69.4311 45.2089C69.3743 46.3633 70.4151 47.5555 71.7587 47.2527C76.0733 46.8175 80.2933 45.4739 84.1159 43.4112C84.9864 42.957 85.8569 42.465 86.7085 41.973C87.2005 41.6513 87.806 41.481 88.1467 40.97C88.4873 40.5537 88.6197 40.0995 88.5819 39.6454C89.1685 39.248 89.7362 38.8506 90.285 38.3775C90.8338 37.9233 91.288 37.3178 91.2691 36.5797C91.288 35.3118 89.9822 34.3278 88.7711 34.6684L88.7333 34.7063Z" fill="black"/>
</g>
</g>
<path d="M100.872 73.6845C77.9614 64.0907 63.1495 66.5096 56.4366 69.9883C53.7732 71.3744 44.3697 78.3047 37.0588 106.407C36.7599 107.548 36.4337 108.88 37.2219 109.695C45.5111 105.292 60.3502 93.5787 77.3092 86.295C86.142 82.4901 80.8423 90.0727 87.6096 88.2246C90.4089 87.4637 93.3169 86.8386 95.7629 85.2623C98.2089 83.686 102.286 77.8427 100.845 73.6573L100.872 73.6845Z" fill="white"/>
<path d="M37.249 110.755C36.9772 110.755 36.7055 110.647 36.5152 110.429C35.3194 109.179 35.7814 107.358 36.1076 106.162C43.5543 77.4896 53.2296 70.5321 56.0017 69.0917C59.8338 67.1077 74.4011 61.4819 101.28 72.7335C101.552 72.8422 101.769 73.0596 101.851 73.3314C103.454 78.0604 99.2144 84.2841 96.3336 86.1322C94.105 87.5726 91.5775 88.2249 89.1043 88.8771C88.6966 88.9858 88.289 89.0946 87.9085 89.2033C84.2938 90.2088 83.2611 88.7956 82.5001 87.3008C81.9837 86.2952 81.6304 85.5614 77.744 87.2465C66.6554 92.0026 56.5453 98.634 48.4191 103.961C44.2337 106.706 40.5919 109.097 37.7382 110.619C37.5752 110.701 37.4121 110.728 37.249 110.728V110.755ZM71.6018 67.9502C63.6387 67.9502 58.8554 69.907 56.9258 70.9126C55.0777 71.8638 45.4839 78.1147 38.0644 106.706C37.9556 107.168 37.7926 107.793 37.7654 108.309C40.4017 106.814 43.6086 104.722 47.2776 102.303C55.4582 96.9218 65.6498 90.2632 76.9015 85.4256C81.6304 83.3872 83.2067 84.2569 84.2938 86.4311C84.783 87.3823 85.0548 87.9259 87.3377 87.3008C87.7454 87.1921 88.1531 87.0834 88.5607 86.9747C90.9796 86.3224 93.2353 85.7245 95.1921 84.4743C97.4207 83.0611 100.791 77.9788 100.003 74.4729C87.9628 69.4993 78.5321 67.9774 71.5746 67.9774L71.6018 67.9502Z" fill="black"/>
<path d="M123.051 104.775C124.518 129.398 117.506 140.732 111.962 145.814C109.761 147.825 99.7593 156.005 70.5975 153.451C69.4288 153.342 68.0427 153.206 67.5264 152.201C74.4839 145.923 90.5732 135.975 103.184 122.55C109.761 115.565 100.765 117.984 104.787 112.276C106.445 109.912 108.021 107.412 110.331 105.645C112.642 103.878 119.572 102.03 123.078 104.775H123.051Z" fill="white"/>
<path d="M81.2239 154.973C77.9626 154.973 74.4023 154.81 70.5159 154.484C69.2929 154.375 67.4176 154.212 66.6295 152.69C66.412 152.283 66.4936 151.766 66.8469 151.467C69.2657 149.293 72.7173 146.711 76.7396 143.694C84.5125 137.878 94.1878 130.649 102.423 121.871C105.303 118.8 104.733 118.229 103.972 117.413C102.776 116.19 101.798 114.75 103.972 111.706C104.216 111.38 104.434 111.027 104.678 110.701C106.119 108.635 107.614 106.488 109.706 104.884C112.397 102.819 119.762 100.944 123.703 104.015C123.92 104.205 124.083 104.477 124.083 104.749C125.551 129.344 118.675 141.085 112.669 146.602C109.679 149.347 101.118 155 81.2511 155L81.2239 154.973ZM69.0755 152.174C69.5647 152.337 70.1897 152.391 70.679 152.446C97.5035 154.81 107.994 148.07 111.255 145.08C116.908 139.889 123.35 128.801 122.045 105.319C118.974 103.39 113.022 104.857 110.929 106.461C109.081 107.874 107.749 109.804 106.336 111.842C106.092 112.195 105.847 112.521 105.602 112.875C104.244 114.804 104.624 115.185 105.412 115.973C107.124 117.74 107.423 119.479 103.917 123.257C95.5466 132.144 85.7898 139.455 77.9626 145.298C74.4567 147.907 71.3856 150.217 69.1026 152.174H69.0755Z" fill="black"/>
<path d="M185.695 69.2272C156.315 88.007 126.936 106.787 97.557 125.567C97.557 125.567 72.9067 91.4314 73.4503 90.0997C100.791 67.5965 126.909 46.7783 154.875 24.9817C160.582 28.5963 168.002 31.0967 171.943 36.4779C174.171 39.5218 175.693 43.0006 177.215 46.4522C178.791 50.0396 180.395 53.6543 181.971 57.2418C183.656 61.0738 185.369 64.9874 185.695 69.2V69.2272Z" fill="white"/>
<path d="M80.5 85.5002L74 90.5002L98 124.5L104 120.5L80.5 85.5002Z" fill="#DEDEDE"/>
<path d="M97.5573 126.6C97.2311 126.6 96.9322 126.464 96.7419 126.165C96.6876 126.083 90.5182 117.522 84.4847 108.907C71.983 91.0512 72.2275 90.4533 72.5265 89.7195C72.5809 89.5564 72.6896 89.4205 72.8255 89.3118C98.6987 68.0044 124.599 47.2949 154.25 24.1666C154.576 23.8948 155.066 23.8676 155.419 24.1122C157.104 25.1722 158.898 26.1234 160.827 27.1562C165.284 29.4935 169.877 31.9395 172.758 35.9074C175.041 39.06 176.618 42.6203 178.14 46.0719L182.896 56.8615C184.608 60.7208 186.374 64.7431 186.701 69.1459C186.728 69.5264 186.537 69.8797 186.239 70.0699L98.1008 126.437C97.9378 126.545 97.7475 126.6 97.5573 126.6ZM74.6192 90.4805C76.3586 94.0136 89.268 112.359 97.8291 124.208L184.635 68.711C184.2 64.8518 182.597 61.21 181.048 57.6769L176.291 46.8873C174.824 43.5444 173.275 40.0656 171.128 37.1032C168.519 33.5158 164.143 31.2057 159.876 28.9771C158.218 28.1074 156.533 27.2105 154.93 26.2321C125.713 49.0343 100.166 69.4448 74.6192 90.4533V90.4805Z" fill="black"/>
<path d="M186.129 68.9556C176.698 54.1165 166.017 38.598 154.847 25.009C169.604 23.5686 185.938 22.8892 200.723 21.8021C203.386 21.6118 205.316 24.085 204.392 26.5854C198.984 41.2886 191.455 55.5297 186.129 68.9556Z" fill="white"/>
<path d="M186.129 69.961C185.775 69.961 185.449 69.7979 185.259 69.499C174.334 52.3226 163.843 37.565 154.059 25.634C153.814 25.335 153.76 24.9545 153.896 24.6012C154.032 24.2479 154.358 24.0033 154.738 23.9761C164.087 23.0521 174.116 22.4542 183.819 21.8562C189.417 21.5301 195.179 21.1768 200.642 20.7691C202.245 20.6604 203.794 21.3399 204.718 22.59C205.642 23.813 205.887 25.4437 205.316 26.9113C202.272 35.2277 198.522 43.4083 194.907 51.2898C192.053 57.5407 189.363 63.4383 187.026 69.3087C186.89 69.662 186.564 69.9066 186.183 69.9338C186.156 69.9338 186.129 69.9338 186.074 69.9338L186.129 69.961ZM156.858 25.8242C166.017 37.1574 175.774 50.9093 185.938 66.7268C188.113 61.4271 190.559 56.0731 193.113 50.4473C196.701 42.5657 200.424 34.4396 203.441 26.2047C203.74 25.3622 203.631 24.4925 203.115 23.813C202.571 23.1064 201.756 22.7259 200.805 22.8075C195.342 23.2151 189.553 23.5684 183.954 23.8946C174.931 24.4381 165.609 25.0089 156.858 25.8242Z" fill="black"/>
<path d="M143.459 81.3485C138.459 81.3485 133.621 79.1199 130.631 74.9073C128.294 71.6188 127.37 67.5422 128.077 63.4927C128.838 59.0899 131.338 55.2034 135.089 52.5672C142.59 47.3219 152.781 48.7895 157.809 55.8557C160.146 59.1442 161.07 63.2209 160.364 67.2704C159.603 71.6732 157.103 75.5596 153.352 78.1959C150.335 80.3157 146.857 81.3485 143.459 81.3485ZM136.257 54.225C132.941 56.5623 130.74 59.9595 130.061 63.8188C129.463 67.3519 130.224 70.8578 132.262 73.7115C136.638 79.8537 145.579 81.1311 152.156 76.5108C155.472 74.1735 157.673 70.7763 158.326 66.9171C158.923 63.3839 158.162 59.878 156.124 57.0243C151.749 50.8822 142.807 49.6048 136.23 54.225H136.257Z" fill="black"/>
<path d="M13.1975 142.553C12.8714 142.553 12.5724 142.39 12.355 142.118C12.0289 141.656 12.1376 141.031 12.5996 140.705C30.3195 128.285 48.7189 116.354 67.3357 105.265C67.8249 104.966 68.45 105.129 68.7218 105.619C69.0207 106.108 68.8577 106.733 68.3685 107.005C49.806 118.066 31.4338 129.943 13.7682 142.363C13.578 142.499 13.3877 142.553 13.1703 142.553H13.1975Z" fill="black"/>
<path d="M53.639 133.013C53.3129 133.013 53.0139 132.878 52.8237 132.606C52.4975 132.144 52.6062 131.519 53.0411 131.192C59.6453 126.409 66.4669 121.762 73.3429 117.386C73.8049 117.087 74.4572 117.223 74.7562 117.712C75.0551 118.174 74.9192 118.827 74.4572 119.126C67.6084 123.474 60.8139 128.094 54.2641 132.878C54.0738 133.013 53.8836 133.068 53.6662 133.068L53.639 133.013Z" fill="black"/>
<path d="M69.8613 136.873C69.5624 136.873 69.2362 136.737 69.046 136.465C68.7199 136.003 68.8014 135.378 69.2362 135.025C73.2585 131.981 77.4439 129.019 81.6565 126.219C82.1185 125.893 82.7708 126.029 83.0697 126.491C83.3687 126.953 83.26 127.605 82.798 127.904C78.6126 130.704 74.4815 133.639 70.4864 136.655C70.2962 136.791 70.0787 136.873 69.8613 136.873Z" fill="black"/>
<path d="M46.5995 98.2528H46.5451C46.3548 98.2256 46.219 98.0626 46.2461 97.8723L47.3876 89.4472C47.3876 89.257 47.5779 89.1211 47.7681 89.1482C47.9583 89.1482 48.0942 89.3385 48.0671 89.5287L46.9256 97.9538C46.9256 98.1169 46.7625 98.2528 46.5995 98.2528Z" fill="black"/>
<path d="M53.0147 94.2303H52.9875C52.7972 94.2303 52.6613 94.04 52.6885 93.8498L54.5094 76.9723C54.5094 76.7821 54.6997 76.6462 54.8899 76.6734C55.0802 76.6734 55.2161 76.8636 55.1889 77.0539L53.368 93.9313C53.368 94.0944 53.2049 94.2303 53.0418 94.2303H53.0147Z" fill="black"/>
<path d="M59.8608 92.1925H59.8337C59.6434 92.1925 59.5075 92.0022 59.5347 91.812L61.5459 72.1081C61.5459 71.9178 61.7361 71.7819 61.9264 71.8091C62.1166 71.8091 62.2525 71.9994 62.2253 72.1896L60.2142 91.8935C60.2142 92.0566 60.0511 92.1925 59.888 92.1925H59.8608Z" fill="black"/>
<path d="M66.8725 87.2732C66.6823 87.2732 66.5464 87.1101 66.5464 86.9199C66.8725 81.7289 67.5248 76.5107 68.476 71.4285C68.5032 71.2383 68.6934 71.1295 68.8837 71.1567C69.0739 71.1839 69.1826 71.3741 69.1555 71.5644C68.2042 76.6466 67.5791 81.8376 67.253 86.9742C67.253 87.1645 67.0899 87.3003 66.9269 87.3003L66.8725 87.2732Z" fill="black"/>
<path d="M73.9944 84.2837H73.9672C73.777 84.2837 73.6411 84.0935 73.6683 83.9032L75.0815 71.7004C75.0815 71.5101 75.2718 71.3742 75.462 71.4014C75.6522 71.4014 75.7881 71.5917 75.761 71.7819L74.3477 83.9847C74.3477 84.1478 74.1846 84.2837 74.0216 84.2837H73.9944Z" fill="black"/>
<path d="M81.2244 78.9568C81.2244 78.9568 81.17 78.9568 81.1429 78.9568C80.9526 78.9025 80.8439 78.7394 80.8983 78.5491L82.3115 72.5157C82.3659 72.3254 82.5289 72.2167 82.7192 72.2711C82.9094 72.3254 83.0181 72.4885 82.9638 72.6787L81.5505 78.7122C81.5234 78.8753 81.3875 78.984 81.2244 78.984V78.9568Z" fill="black"/>
<path d="M81.7934 151.168C81.6032 151.168 81.4673 151.032 81.4673 150.842L81.3857 144.455C81.3857 144.265 81.5216 144.102 81.7119 144.102C81.9021 144.102 82.038 144.238 82.038 144.428L82.1195 150.815C82.1195 151.005 81.9837 151.168 81.7934 151.168Z" fill="black"/>
<path d="M88.2885 149.728C88.1254 149.728 87.9623 149.592 87.9623 149.429C87.5547 146.249 87.3644 143.015 87.4188 139.835C87.4188 139.645 87.5818 139.509 87.7721 139.509C87.9623 139.509 88.0982 139.672 88.0982 139.863C88.0439 143.015 88.2341 146.222 88.6418 149.375C88.6418 149.565 88.5331 149.728 88.3428 149.755H88.2885V149.728Z" fill="black"/>
<path d="M94.7317 149.619C94.5686 149.619 94.4328 149.51 94.4056 149.347C93.699 145.053 93.1826 140.677 92.8564 136.302C92.8564 136.111 92.9923 135.948 93.1826 135.948C93.3728 135.948 93.5359 136.084 93.5359 136.274C93.862 140.596 94.3784 144.971 95.085 149.238C95.1122 149.428 95.0035 149.592 94.8132 149.619H94.7589H94.7317Z" fill="black"/>
<path d="M101.716 146.548C101.553 146.548 101.417 146.439 101.39 146.276L98.862 131.736C98.8349 131.545 98.9436 131.382 99.1338 131.355C99.3241 131.328 99.4871 131.437 99.5143 131.627L102.042 146.167C102.069 146.357 101.96 146.52 101.77 146.548H101.716Z" fill="black"/>
<path d="M108.593 142.77C108.457 142.77 108.321 142.661 108.267 142.526C106.663 136.873 105.576 131.029 104.978 125.186C104.978 124.996 105.087 124.833 105.277 124.806C105.467 124.806 105.63 124.914 105.657 125.105C106.255 130.921 107.342 136.71 108.946 142.335C109 142.526 108.892 142.716 108.701 142.743C108.674 142.743 108.647 142.743 108.62 142.743L108.593 142.77Z" fill="black"/>
<path d="M114.271 135.731C114.107 135.731 113.972 135.622 113.944 135.486C112.749 130.893 111.716 126.165 110.873 121.49C110.846 121.3 110.955 121.137 111.145 121.082C111.335 121.055 111.498 121.164 111.553 121.354C112.395 126.029 113.428 130.703 114.624 135.296C114.678 135.486 114.569 135.677 114.379 135.704C114.352 135.704 114.325 135.704 114.298 135.704L114.271 135.731Z" fill="black"/>
<path d="M119.055 125.512C118.892 125.512 118.756 125.404 118.729 125.241L116.962 117.577C116.908 117.386 117.044 117.223 117.207 117.169C117.397 117.115 117.56 117.25 117.615 117.414L119.381 125.078C119.436 125.268 119.3 125.431 119.137 125.485C119.137 125.485 119.082 125.485 119.055 125.485V125.512Z" fill="black"/>
<g opacity="0.13">
<path opacity="0.13" d="M202.355 24.4109C200.452 24.574 200.778 25.4708 200.126 26.3405C193.576 38.3531 187.76 50.6918 182.026 64.172C178.764 65.6125 175.802 67.7323 172.785 69.662C168.328 72.2982 157.267 80.5331 152.701 83.4411C145.961 87.6265 136.149 94.4753 128.078 99.5847C118.837 105.238 111.091 110.238 102.857 115.511C100.873 116.761 98.1276 118.636 97.4753 119.044C96.7687 119.506 95.899 119.859 95.6272 120.702C95.0837 122.088 96.3067 123.528 97.6656 123.474C97.7471 124.181 98.2363 124.779 98.8342 125.132C98.9701 125.73 99.3506 126.246 99.9485 126.545C100.411 127.17 101.172 127.578 101.987 127.388C102.422 127.279 102.802 127.034 103.183 126.79C107.205 126.545 111.119 125.078 115.032 124.126C116.092 123.827 117.152 123.528 118.212 123.257C118.919 123.039 119.734 122.876 120.25 122.278C120.441 122.061 120.604 121.816 120.74 121.572C122.071 121.028 122.533 119.452 122.669 118.093C122.832 116.897 122.968 115.701 122.941 114.505C122.941 114.342 122.941 114.098 122.887 113.88V113.799C122.887 113.799 122.887 113.608 122.887 113.527C122.941 113.201 122.995 112.848 122.941 112.521V112.467C122.941 112.467 122.995 112.331 123.022 112.277C123.512 111.081 122.724 109.641 121.392 109.532C120.875 109.477 120.413 109.695 119.979 109.939C129.246 104.259 138.514 98.5248 147.455 92.3011C153.135 88.4146 156.506 86.485 162.457 82.2996C162.539 82.2996 162.621 82.2996 162.729 82.2996C164.007 81.9191 164.903 80.8049 166.045 80.1254C169.306 77.7338 177.46 73.8745 182.379 70.3142C183.412 69.662 184.336 68.8466 185.124 67.9226C185.314 68.1672 185.586 68.3846 185.993 68.5748C187.896 69.1728 188.385 67.1888 189.01 65.8571C189.989 63.7644 190.967 61.6717 191.782 59.5246C194.718 50.8549 198.169 42.3754 201.512 33.8416C201.594 33.7329 201.648 33.6242 201.702 33.4883C201.702 33.3796 201.757 33.2709 201.784 33.1621C201.974 32.6729 202.164 32.2109 202.327 31.7489C202.599 31.1238 202.653 30.4172 202.409 29.8736C202.898 28.8681 203.414 27.8896 203.904 26.8841C204.311 25.797 203.496 24.574 202.355 24.4924V24.4109Z" fill="black"/>
</g>
<path d="M104.922 121.653C104.595 121.653 104.269 121.49 104.079 121.191L80.3528 85.4525C80.0538 84.9905 80.1625 84.3382 80.6245 84.0393C81.0866 83.7403 81.7388 83.849 82.0378 84.3111L105.764 120.05C106.063 120.512 105.954 121.164 105.492 121.463C105.329 121.572 105.112 121.626 104.922 121.626V121.653Z" fill="black"/>
<g opacity="0.13">
<path opacity="0.13" d="M160.067 63.3298C160.013 61.9981 160.394 60.4218 159.633 59.2532C158.518 57.3507 155.447 58.166 155.311 60.3403C155.067 68.6839 151.017 73.1138 143.625 75.8316C142.837 76.0762 141.994 76.2665 141.152 76.3208H141.07C141.07 76.3208 141.016 76.3208 140.989 76.3208H141.043C140.69 76.3752 140.336 76.5382 140.065 76.7557C138.651 77.8971 139.575 80.3703 141.396 80.2888C147.973 80.316 154.795 76.8644 158.029 71.0483C159.442 68.711 159.986 65.9933 160.04 63.2755L160.067 63.3298Z" fill="black"/>
</g>
<defs>
<clipPath id="clip0_4757_9627">
<rect width="94.0698" height="47.7067" fill="white"/>
</clipPath>
</defs>
</svg>
