<svg width="282" height="280" viewBox="0 0 282 280" fill="none" xmlns="http://www.w3.org/2000/svg">
<g opacity="0.5">
<path d="M280.358 156.989C279.97 158.668 279.139 160.116 278.021 161.214C277.085 162.133 275.931 162.873 274.35 163.28C273.172 163.584 271.907 163.64 270.633 163.435L270.593 163.429L270.528 163.537C268.867 166.314 267.048 168.778 264.871 171.193L264.622 171.467L264.293 171.827L264.076 172.06L263.701 172.46C262.893 173.314 262.014 174.202 260.773 175.431L260.451 175.749L260.383 175.827C259.955 176.306 259.546 176.707 258.949 177.153C257.868 177.96 256.585 178.55 255.038 178.797L254.923 178.815L254.81 178.83L254.801 178.852C254.629 179.242 254.438 179.626 254.228 180.005L254.157 180.131C253.546 181.204 252.792 182.174 251.856 183.01C250.368 184.338 248.533 185.007 246.624 185.074L246.625 185.112L246.521 186.005L246.485 186.303C246.42 186.816 246.37 187.12 246.295 187.422L246.203 189.607L246.13 191.296C246.026 193.678 245.913 196.152 245.791 198.733L245.673 201.189C245.576 203.198 245.137 204.855 244.422 206.666C244.066 207.567 243.572 208.423 242.842 209.212C242.956 209.212 243.071 209.213 243.186 209.215L243.37 209.219C245.435 209.266 247.271 209.559 249.258 210.459C251.224 211.349 253.014 212.732 254.38 214.796C256.046 217.311 256.64 220.269 256.214 223.105C255.928 225.009 255.253 226.595 254.344 227.998C253.798 228.843 253.199 229.566 252.54 230.238C251.753 231.042 250.899 231.753 249.925 232.464L249.752 232.59L249.48 232.784C247.298 234.327 244.8 235.766 239.856 238.435L235.992 240.517C232.328 242.5 230.76 243.4 229.649 244.159L229.335 244.373L229.082 244.544C228.078 245.219 227.14 245.804 225.548 246.766L223.802 247.822L223.409 248.063L223.106 248.25C222.786 248.449 222.516 248.621 222.243 248.798L222.04 248.931L221.935 249.004L221.833 249.078C221.711 249.166 221.551 249.286 221.32 249.461L220.741 249.902L220.418 250.145L220.184 250.319C219.617 250.739 219.174 251.047 218.612 251.407L217.554 252.077L216.914 252.479L216.585 252.684C214.588 253.923 213.167 254.734 211.454 255.591C209.823 256.406 208.124 256.796 206.461 256.817C202.977 258.814 198.418 257.953 195.192 254.986C194.33 255.22 193.467 255.411 192.58 255.558L192.367 255.592C191.297 255.76 190.232 255.835 189.025 255.735C188.904 256.056 188.758 256.383 188.575 256.725L188.403 257.028L188.318 257.174L188.267 257.257L188.217 257.334C188.073 257.554 187.906 257.765 187.51 258.266L187.258 258.527L187.06 258.729L186.969 258.82L186.91 258.876C186.466 259.299 186.138 259.49 184.936 260.192C181.981 261.574 178.398 261.078 175.497 259.072C173.901 257.968 172.886 256.751 172.098 255.437C171.534 254.497 171.231 253.759 170.984 252.976L170.954 252.882C170.88 252.642 170.819 252.425 170.767 252.218L170.148 252.421L168.955 252.816L168.885 252.854C168.763 252.92 168.64 252.984 168.513 253.049L168.385 253.114C167.716 253.447 167.025 253.737 166.247 253.982C165.503 254.217 164.536 254.456 163.703 254.604C163.354 254.667 163.006 254.718 162.63 254.758L162.422 254.778C161.694 254.845 160.977 254.858 160.071 254.764C158.797 254.63 157.535 254.327 156.084 253.599C154.721 252.914 153.437 251.944 152.329 250.579C151.974 250.141 151.653 249.678 151.367 249.195C150.061 251.436 148.114 253.053 144.259 253C141.339 252.961 139.136 251.949 137.475 250.441C137.412 250.436 137.349 250.43 137.285 250.424L137.054 250.399L134.322 251.782L132.062 252.92L129.559 254.172C126.251 255.822 123.345 257.246 121.333 258.197L120.869 258.415L120.423 258.621L120.026 258.802C118.383 259.547 116.844 260.166 114.321 261.124L111.512 262.185L110.509 262.569L110.014 262.761C109.266 263.054 108.673 263.296 108.07 263.554L107.074 263.986L105.46 264.694C103.268 265.662 100.985 266.697 97.563 268.266L89.2898 272.063L87.8517 272.717L86.3798 273.382L86.0072 273.553C85.6936 273.697 85.474 273.793 85.1794 273.916C84.5714 274.169 83.9662 274.389 83.3094 274.581C81.7057 275.05 79.9637 275.194 78.2076 274.934C76.7587 274.721 75.296 274.248 73.835 273.358C71.5555 271.97 69.7199 269.786 68.8326 266.991C68.0624 264.565 68.1311 262.015 68.9357 259.707C69.4975 258.096 70.3135 256.825 71.2774 255.756C71.7382 255.244 72.1846 254.833 72.6414 254.464L72.7769 254.356C72.8865 254.27 72.9884 254.193 73.0886 254.119L73.1447 254.078L74.3296 253.151L74.6791 252.879C75.9186 251.919 76.7146 251.337 77.7548 250.646L78.3257 250.268L78.9528 249.855C81.9779 247.865 84.4155 246.345 86.9103 244.924L88.8362 243.838L90.5015 242.908C92.9408 241.552 95.5474 240.129 99.3385 238.077L101.042 237.156L101.035 237.128C100.969 236.827 100.913 236.52 100.869 236.208L100.853 236.09C100.629 234.376 100.796 232.753 101.239 231.258C101.543 230.234 101.954 229.341 102.441 228.527C103.013 227.57 103.615 226.833 104.281 226.152C104.635 225.789 104.971 225.482 105.328 225.176C105.404 225.112 105.477 225.051 105.551 224.989L105.812 224.775L105.913 224.68C106.516 224.113 107.112 223.558 107.703 223.012L108.072 222.673L107.667 222.791C106.803 223.042 105.934 223.293 105.062 223.544L104.976 223.604C104.767 223.748 104.49 223.92 104.028 224.209L103.66 224.391L103.525 224.455C103.228 224.593 103.031 224.657 102.391 224.867L101.937 224.965L101.71 225.011L101.602 225.031L101.466 225.054C101.009 225.125 100.589 225.135 99.407 225.162L99.4044 225.162L90.958 227.594L88.7963 228.214C78.0449 231.289 71.7428 232.973 64.5808 234.615L63.8748 234.776C52.6253 237.332 42.4403 238.909 32.4512 239.478C29.5712 239.641 26.6091 238.731 24.2387 236.653C22.2076 234.872 21.0741 232.689 20.5902 230.449C20.1249 228.294 20.2974 226.524 20.766 224.85C21.0502 223.835 21.4697 222.857 22.0101 221.951C22.8762 220.499 24.0148 219.18 25.8089 218.05L26.6631 217.513L27.3872 217.061C30.281 215.26 32.4263 213.999 34.7426 212.77L35.6423 212.295L36.6372 211.772L37.5005 211.319C38.3628 210.867 39.2257 210.418 40.1196 209.954L41.383 209.301L41.3456 209.235C41.2367 209.041 41.1325 208.843 41.0331 208.641L40.9741 208.519C40.4006 207.32 40.0475 206.092 39.8915 204.872L39.8854 204.822L39.8348 204.812C38.7446 204.593 37.673 204.241 36.5815 203.663L36.4384 203.586L36.2958 203.541C35.0635 203.149 33.8623 202.671 32.7041 202.106L32.5307 202.021C30 200.762 27.9774 198.629 26.8796 195.953C26.5185 195.073 26.2786 194.203 26.1403 193.348L26.1144 193.179L26.1072 193.176C25.9785 193.127 25.8492 193.076 25.7194 193.021L25.5894 192.966C22.2866 191.543 19.6656 188.676 18.7271 184.894C18.6424 184.552 18.5723 184.206 18.5173 183.856C18.2867 182.386 18.3335 180.921 18.6287 179.519L18.6396 179.468L17.1013 177.201L17.4858 176.887L17.603 176.797L17.8575 176.609L19.4836 175.436L19.4694 175.421C18.7946 174.74 18.2209 173.987 17.7481 173.187L17.6895 173.087C17.0062 171.904 16.6009 170.739 16.3706 169.586C16.1164 168.312 16.0989 167.217 16.2026 166.158C16.2626 165.545 16.365 164.976 16.499 164.432C16.7178 163.544 17.0386 162.663 17.4583 161.824C17.7422 161.256 18.0774 160.692 18.4915 160.121C19.1698 159.188 19.9939 158.314 21.1044 157.512L22.1956 156.727L22.9457 156.194C24.3603 155.193 25.8541 154.163 27.9992 152.702L30.3204 151.124L30.2901 151.101C27.2331 148.761 25.3838 144.98 25.7404 140.815L25.7527 140.68C25.9804 138.328 26.7714 136.316 27.9185 134.53C28.2715 133.98 28.6335 133.491 29.0248 133.009L29.12 132.893L29.2315 132.758C29.3234 132.649 29.4148 132.542 29.5194 132.422L29.862 132.031L30.065 131.765C31.4761 129.93 32.9153 128.183 34.3935 126.521L35.9972 124.735C35.2867 123.723 34.7272 122.579 34.3606 121.324L34.3364 121.239L34.3237 121.239C32.5264 121.121 30.7411 120.858 28.9611 120.439L28.6227 120.358L28.5499 120.404C27.907 120.806 27.2776 121.144 26.4852 121.48L26.3516 121.536C24.1736 122.437 21.7597 122.823 19.1232 122.362C17.5197 122.081 15.9161 121.479 14.368 120.372C12.2376 118.849 10.6662 116.628 9.96097 114.045C9.40222 111.999 9.44983 110.069 9.87631 108.296C10.1307 107.242 10.4937 106.345 10.9316 105.522C11.399 104.643 11.881 103.97 12.4181 103.331C12.6945 103.002 12.9579 102.718 13.2355 102.436C13.3192 102.351 13.4012 102.269 13.485 102.187L13.7462 101.934L13.7662 101.914C14.2165 101.461 14.667 101.068 15.1352 100.701L15.2633 100.602L15.3838 100.511L15.5691 100.266C15.6789 100.122 15.7787 99.9944 15.8915 99.8538L15.9919 99.7293C16.458 99.1546 16.9408 98.6177 17.4933 98.0849L19.2018 96.4392L20.873 94.8335L22.4464 93.3253C24.3781 91.4755 26.3436 89.6009 28.358 87.6866L29.9806 86.1465L30.04 86.0621C31.1405 84.5023 32.2364 82.9661 33.3653 81.4019L33.8778 80.6932L33.8675 80.6739C33.1894 79.3779 32.7766 77.9923 32.6131 76.5911L32.6031 76.5L32.4874 76.501C31.7682 76.5051 31.0321 76.4467 30.2827 76.3152L30.1326 76.288C27.9034 75.8688 25.7215 74.8495 23.8651 72.987C21.8328 70.948 20.7412 68.3647 20.5342 65.7445C20.4014 64.0642 20.6297 62.5755 21.0739 61.2096C21.5569 59.7245 22.284 58.4546 23.1557 57.3752L23.8861 56.4823L24.1131 56.2069L24.3319 55.9441C25.3711 54.7028 26.16 53.8675 27.2704 52.9077L28.3656 51.9707L29.324 51.1551C30.7197 49.9705 31.9282 48.9591 32.9724 48.1016L33.1196 47.9812L33.112 47.9327C33.0621 47.6023 33.0262 47.2681 33.0051 46.9308L32.9979 46.8042C32.8939 44.7886 33.3128 42.9412 34.0751 41.3162C34.5705 40.2603 35.1655 39.3873 35.8296 38.6226C36.5645 37.7764 37.2763 37.1734 38.0344 36.6418C38.4268 36.3667 38.7924 36.1409 39.1654 35.93C39.3353 35.834 39.4968 35.7468 39.6609 35.6612L39.7745 35.6024L39.9827 35.497L41.744 34.5384L43.2284 33.725C46.3739 31.9948 48.8571 30.5832 51.3938 29.0755L52.1077 28.6498L52.1684 28.5878C52.7088 28.0445 53.2948 27.5623 53.9164 27.1384L54.0203 27.0682C54.7052 26.6111 55.2948 26.3008 55.9743 25.9908L56.2206 25.8803L56.4851 25.7652C57.0827 25.5093 57.8567 25.2027 59.1728 24.693C61.1205 23.9388 63.1979 23.732 65.1682 24.0155C66.8156 24.2526 68.4658 24.8044 70.136 25.9582C71.3804 26.8178 72.4536 27.9185 73.2807 29.1993L73.3065 29.2396L73.4634 29.2263C77.5051 28.8945 81.3681 28.91 85.4729 29.2792L85.9395 29.3225L86.555 29.3828L87.242 29.4543C88.8472 29.6267 90.5007 29.8419 92.8974 30.1775L93.4666 30.2577L93.5972 30.2683C94.2672 30.3258 94.8739 30.4065 95.58 30.5701C95.6803 30.1096 95.7991 29.6611 95.9508 29.1996C96.3766 27.9044 97.0923 26.707 98.0938 25.7314C98.92 24.9266 99.9324 24.2616 101.232 23.8363C103.261 23.1727 105.633 23.2497 107.984 24.2841C110.026 25.182 111.76 26.6876 112.982 28.5254C113.835 29.8083 114.334 31.059 114.624 32.2893C114.762 32.8773 114.838 33.3985 114.88 33.9025L114.891 34.0512C114.898 34.1409 114.902 34.2249 114.906 34.3061L114.912 34.4459L114.999 35.7358C115.007 35.8471 115.014 35.955 115.02 36.0599L116.431 35.1885L118.431 33.9583L120.393 32.7545C122.905 31.2149 125.522 29.6181 128.263 27.9527L130.132 26.8182C132.166 25.5845 134.133 24.8891 136.471 24.3417C137.516 24.0971 138.614 23.9762 139.81 24.0539C141.169 21.5254 142.584 19.1045 144.073 16.7686C145.307 14.8312 147.324 13.4569 149.873 13.131C152.057 12.8518 154.1 13.3777 155.879 14.3522C157.589 15.2893 158.735 16.4145 159.675 17.6738C160.246 18.4379 160.726 19.2666 161.101 20.1318C161.511 21.078 161.818 22.07 161.954 23.1753L172.332 16.5553L172.387 16.521L172.723 16.3235L172.86 16.2502C172.973 16.1918 173.158 16.1002 173.531 15.9146L173.771 15.8066L173.889 15.7568C174.035 15.6975 174.227 15.6267 174.66 15.4665L174.883 15.394C175.244 15.2776 175.38 15.2477 176.276 15.0513L176.574 15.0028L176.747 14.977C177.087 14.93 177.369 14.917 178.373 14.8703L178.637 14.8772C178.833 14.8866 179.1 14.9116 179.974 14.993L180.292 15.0493L180.362 15.0613L180.495 15.0909C180.644 15.1257 180.822 15.1716 181.104 15.2502L182.257 15.5765L183.679 16.2149L185.224 17.2075L186.755 18.612L188.075 20.3848L189.02 22.3569L189.543 24.3044L189.714 26.0552L189.646 27.5344L189.447 28.7428L189.186 29.7165L188.906 30.5002L188.767 30.8338L188.448 31.489L188.373 31.6384L188.317 31.7481C188.165 32.0414 188.062 32.2017 187.809 32.5948L187.406 33.149L187.321 33.2644C187.069 33.6029 186.977 33.7038 186.687 34.0225L186.378 34.3444L186.309 34.4137L186.278 34.4953C185.916 35.434 185.539 36.1043 185.095 36.7644L184.998 36.9085L184.676 37.4203L184.558 37.6041C184.444 37.7815 184.338 37.9417 184.227 38.1031C185.486 38.1923 186.781 38.5319 188.055 39.1456L189.169 38.393L189.556 38.0909C191.047 36.9305 192.546 35.7742 194.013 34.6567L194.984 33.9192C200.036 30.0912 203.591 27.5603 205.954 26.274L206.101 26.1947C206.5 25.9821 206.887 25.7934 207.361 25.6005C207.864 25.3956 208.388 25.2166 209.028 25.0611C209.613 24.9191 210.23 24.814 210.932 24.7642C212.201 24.6739 213.527 24.7696 215.007 25.2095C220.54 26.854 223.786 32.2189 223.079 37.6349C222.908 38.9519 222.551 40.0423 222.082 41.037C221.817 41.5997 221.536 42.0819 221.239 42.5276C220.726 43.2944 220.289 43.7957 219.782 44.306L219.713 44.3756C219.217 44.8689 218.741 45.2769 218.092 45.7967L217.777 46.0473L217.536 46.2363C216.669 46.9137 215.558 47.7464 214.789 48.3006L214.552 48.4704L214.361 48.6043L214.191 48.7217C213.602 49.1258 213.054 49.4646 212.245 49.9413L211.282 50.5054L211.001 50.6732C210.803 50.7929 210.689 50.8669 210.599 50.9304L210.312 51.1358L210.055 51.3246L209.836 51.4894C209.57 51.6909 209.265 51.9284 208.872 52.2376L207.347 53.4436L206.889 53.803L206.549 54.0669C206.329 54.2365 206.122 54.3942 205.923 54.544C206.043 55.0858 206.124 55.6535 206.156 56.259L207.614 55.2783C208.672 54.562 209.701 53.8509 211.294 52.737L215.197 50.0038L216.442 49.1382L216.976 48.769C217.726 48.2522 218.39 47.8002 219.097 47.3252L220.523 46.369L220.928 46.099C223.082 44.6673 224.411 43.849 226.108 42.9557L226.213 42.9009C226.715 42.6378 227.228 42.4045 227.886 42.179C228.574 41.943 229.302 41.757 230.177 41.6459L230.611 41.601L230.821 41.5822L230.962 41.5723C231.327 41.55 231.649 41.5609 232.535 41.5909L232.992 41.645L233.348 41.6903L233.537 41.7172C234.354 41.84 234.778 41.9991 236.483 42.6387C240.208 44.3879 242.611 47.9367 242.995 51.8645C243.206 54.0258 242.839 55.7391 242.195 57.3121C241.716 58.4823 241.221 59.2553 240.628 60.0212C240.032 60.7916 239.57 61.2513 238.904 61.8568C238.235 62.4645 237.439 63.1206 236.725 63.6217L236.6 63.7085L236.328 63.8937C235.585 64.3957 234.932 64.8044 233.904 65.4205L232.374 66.333L231.994 66.5627L231.758 66.7075C231.461 66.8907 231.234 67.0372 231.023 67.1796L230.868 67.2858L230.857 67.3484C230.838 67.455 230.818 67.5611 230.796 67.6668L230.774 67.7724C230.403 69.5135 229.838 70.637 229.094 71.7553C228.817 72.173 228.555 72.5145 228.282 72.84C228.038 73.1314 227.809 73.3812 227.565 73.6312L227.473 73.725C226.997 74.2078 226.444 74.7189 225.687 75.3941L225.244 75.7868L223.991 76.8887C222.877 77.8749 221.752 78.8093 220.612 79.6928C220.901 80.7224 221.168 81.7442 221.414 82.7594L221.901 84.8099C222.935 84.9352 223.989 85.2326 225.03 85.7172L225.1 85.7504L225.106 85.7427C226.029 84.6598 227.047 83.6678 228.17 82.7684L228.385 82.5985L228.387 82.5257C228.409 81.8837 228.469 81.2868 228.608 80.5872L228.632 80.4696C229.027 78.5589 229.889 76.7925 231.443 75.3694C232.387 74.5039 233.555 73.8226 235.047 73.4664C237.099 72.9761 239.373 73.2434 241.492 74.2723C243.171 75.0875 244.486 76.2242 245.515 77.5134C246.126 78.2803 246.578 79.0273 246.943 79.7793C247.279 80.4722 247.505 81.0842 247.683 81.6953L247.716 81.6762L247.921 81.5601L248.092 81.4655C248.375 81.3117 248.648 81.1746 249.014 81.014C249.274 80.8999 249.546 80.7905 249.862 80.6802C250.543 80.4426 251.24 80.2557 252.155 80.1359L252.363 80.1099C255.756 79.7049 259.049 80.287 262.245 83.9517C266.202 88.4893 265.701 93.0145 263.759 96.7345C263.241 97.7285 262.731 98.4103 262.157 99.0552C261.906 99.3363 261.677 99.5683 261.447 99.7851C261.21 100.008 261.004 100.186 260.793 100.358C260.587 100.526 260.396 100.673 260.183 100.831L259.157 101.589C257.385 102.892 255.678 104.119 253.169 105.897L252.582 106.311C252.772 106.859 252.961 107.409 253.152 107.964L253.403 108.698L253.421 108.703C254.636 109.012 255.789 109.542 256.836 110.24L256.904 110.286L256.958 110.211C257.291 109.749 257.676 109.311 258.118 108.907L258.207 108.826C259.541 107.64 261.268 106.827 263.428 106.707C265.791 106.575 268.092 107.357 270.004 108.726C271.23 109.604 272.154 110.604 272.893 111.671C273.696 112.832 274.235 114.025 274.575 115.201L274.851 116.181L274.936 116.484L275.024 116.805C275.392 118.166 275.6 119.144 275.744 120.396L275.88 121.634L276.028 123.009L276.165 124.334C276.258 125.24 276.337 126.059 276.404 126.801L276.419 126.964L276.456 126.987C276.708 127.144 276.956 127.313 277.2 127.493L277.291 127.561C278.736 128.649 279.82 129.976 280.589 131.396C281.088 132.318 281.415 133.199 281.634 134.063C281.876 135.018 281.96 135.819 281.976 136.609C281.981 137.018 281.966 137.382 281.938 137.741C281.925 137.905 281.909 138.058 281.892 138.213L281.879 138.319L281.855 138.513L281.695 140.189L281.609 141.113C281.31 144.352 281.113 146.875 280.963 149.497L280.923 150.198L280.938 150.273C281.061 150.93 281.121 151.581 281.124 152.222L281.124 152.329C281.12 153.03 281.059 153.585 280.955 154.197L280.917 154.418C280.814 154.987 280.66 155.679 280.358 156.989Z" fill="#ED1E45" fill-opacity="0.1"/>
<path d="M164.348 6.60278C165.963 6.97594 167.356 7.77435 168.412 8.85016C169.296 9.74968 170.007 10.8601 170.4 12.3806C170.692 13.5135 170.745 14.7299 170.549 15.9556L170.542 15.9941L170.646 16.0558C173.317 17.6541 175.687 19.4033 178.011 21.497L178.274 21.7359L178.62 22.0531L178.844 22.2616L179.228 22.622C180.05 23.3992 180.904 24.2443 182.086 25.4375L182.392 25.7471L182.467 25.813C182.928 26.2248 183.314 26.6177 183.743 27.1923C184.519 28.232 185.086 29.4659 185.324 30.9533L185.341 31.0636L185.356 31.1723L185.377 31.1814C185.752 31.3473 186.121 31.5303 186.486 31.7328L186.607 31.801C187.639 32.3886 188.572 33.1138 189.376 34.014C190.653 35.4448 191.296 37.2095 191.361 39.0453L191.398 39.0448L192.257 39.1443L192.544 39.1793C193.037 39.2412 193.329 39.2893 193.619 39.3616L195.721 39.4498L197.346 39.5201C199.637 39.6203 202.017 39.729 204.499 39.8467L206.862 39.9599C208.794 40.0535 210.388 40.4754 212.13 41.1632C212.996 41.5055 213.819 41.9801 214.578 42.6826C214.579 42.5724 214.58 42.462 214.582 42.3514L214.585 42.1749C214.631 40.1882 214.913 38.4233 215.778 36.5118C216.634 34.6211 217.965 32.8997 219.949 31.5856C222.369 29.9838 225.214 29.4125 227.942 29.822C229.773 30.097 231.299 30.7462 232.649 31.6197C233.461 32.1451 234.157 32.7217 234.803 33.3548C235.576 34.1118 236.26 34.9329 236.944 35.87L237.065 36.0366L237.251 36.2976C238.736 38.3964 240.119 40.7986 242.687 45.5537L244.689 49.2697C246.597 52.7935 247.462 54.3013 248.192 55.37L248.399 55.6721L248.563 55.9152C249.212 56.8807 249.775 57.7834 250.7 59.3139L251.716 60.9935L251.947 61.3718L252.127 61.6627C252.318 61.9703 252.484 62.2307 252.655 62.493L252.782 62.6877L252.853 62.7891L252.923 62.8874C253.008 63.0045 253.124 63.1587 253.292 63.3807L253.716 63.9375L253.95 64.248L254.118 64.473C254.522 65.0183 254.818 65.4448 255.163 65.9846L255.808 67.0021L256.195 67.6181L256.392 67.9345C257.584 69.855 258.364 71.2219 259.188 72.8691C259.972 74.4378 260.347 76.072 260.367 77.6708C262.288 81.0212 261.46 85.4062 258.605 88.5092C258.831 89.3381 259.014 90.1675 259.156 91.0208L259.189 91.226C259.351 92.2552 259.422 93.279 259.326 94.4397C259.634 94.5562 259.949 94.6969 260.279 94.8725L260.57 95.0378L260.71 95.12L260.79 95.1693L260.864 95.2167C261.076 95.3554 261.279 95.5158 261.76 95.897L262.012 96.1389L262.206 96.3293L262.293 96.4175L262.348 96.474C262.754 96.9015 262.938 97.2162 263.613 98.3726C264.942 101.215 264.465 104.661 262.536 107.45C261.474 108.985 260.303 109.962 259.039 110.72C258.136 111.262 257.425 111.553 256.672 111.791L256.581 111.819C256.351 111.891 256.142 111.95 255.943 112L256.138 112.595L256.518 113.743L256.554 113.81C256.618 113.927 256.68 114.045 256.742 114.167L256.804 114.291C257.125 114.934 257.404 115.598 257.64 116.347C257.865 117.063 258.095 117.992 258.238 118.794C258.298 119.129 258.348 119.464 258.386 119.825L258.405 120.026C258.47 120.725 258.483 121.415 258.391 122.287C258.263 123.511 257.972 124.726 257.271 126.121C256.612 127.432 255.68 128.667 254.366 129.732C253.945 130.074 253.5 130.383 253.035 130.658C255.19 131.914 256.746 133.786 256.695 137.494C256.657 140.301 255.683 142.421 254.233 144.018C254.228 144.079 254.222 144.14 254.217 144.201L254.193 144.423L255.523 147.051L256.617 149.224L257.822 151.631C259.409 154.812 260.779 157.607 261.693 159.543L261.902 159.989L262.101 160.417L262.275 160.799C262.991 162.38 263.587 163.86 264.508 166.286L265.529 168.987L265.898 169.953L266.083 170.428C266.364 171.148 266.597 171.718 266.845 172.298L267.261 173.256L267.942 174.808C268.873 176.917 269.868 179.112 271.377 182.403L275.03 190.36L275.658 191.743L276.298 193.158L276.463 193.517C276.601 193.818 276.694 194.03 276.812 194.313C277.055 194.898 277.267 195.48 277.451 196.111C277.902 197.654 278.041 199.329 277.791 201.018C277.586 202.411 277.131 203.818 276.275 205.223C274.94 207.416 272.84 209.181 270.151 210.034C267.817 210.775 265.364 210.709 263.145 209.935C261.595 209.395 260.373 208.61 259.344 207.683C258.852 207.24 258.457 206.811 258.102 206.372L257.998 206.241C257.915 206.136 257.841 206.038 257.77 205.942L257.731 205.887L256.839 204.748L256.577 204.412C255.654 203.22 255.094 202.454 254.43 201.454L254.066 200.905L253.668 200.302C251.755 197.392 250.293 195.048 248.926 192.649L247.882 190.796L246.987 189.195C245.682 186.849 244.314 184.342 242.34 180.696L241.454 179.058L241.427 179.064C241.138 179.128 240.843 179.181 240.542 179.224L240.429 179.239C238.78 179.455 237.219 179.294 235.781 178.868C234.797 178.576 233.937 178.181 233.155 177.713C232.234 177.162 231.525 176.583 230.87 175.943C230.521 175.602 230.225 175.28 229.932 174.935C229.87 174.863 229.811 174.793 229.751 174.721L229.545 174.47L229.455 174.374C228.909 173.794 228.375 173.22 227.85 172.651L227.524 172.297L227.637 172.686C227.878 173.517 228.12 174.353 228.361 175.192L228.419 175.274C228.557 175.475 228.723 175.742 229.001 176.186L229.176 176.54L229.238 176.67C229.37 176.955 229.432 177.145 229.634 177.761L229.729 178.198L229.773 178.415L229.792 178.519L229.814 178.65C229.883 179.09 229.892 179.494 229.918 180.63L229.917 180.633L232.257 188.756L232.853 190.835C235.811 201.175 237.43 207.236 239.01 214.124L239.165 214.803C241.623 225.622 243.139 235.418 243.686 245.025C243.844 247.794 242.968 250.643 240.969 252.923C239.256 254.876 237.156 255.967 235.001 256.432C232.929 256.88 231.226 256.714 229.617 256.263C228.64 255.99 227.7 255.586 226.828 255.067C225.432 254.234 224.163 253.139 223.076 251.413L222.56 250.592L222.125 249.895C220.392 247.112 219.18 245.049 217.998 242.821L217.541 241.956L217.037 240.999L216.602 240.169C216.167 239.34 215.735 238.51 215.289 237.65L214.661 236.435L214.597 236.471C214.411 236.576 214.22 236.676 214.026 236.772L213.909 236.828C212.755 237.38 211.574 237.719 210.401 237.87L210.353 237.875L210.343 237.924C210.132 238.973 209.794 240.003 209.238 241.053L209.164 241.191L209.12 241.328C208.743 242.513 208.283 243.668 207.74 244.782L207.658 244.949C206.447 247.383 204.396 249.328 201.822 250.384C200.975 250.731 200.138 250.962 199.316 251.095L199.154 251.12L199.151 251.127C199.104 251.251 199.054 251.375 199.002 251.5L198.949 251.625C197.58 254.801 194.822 257.322 191.184 258.225C190.856 258.306 190.523 258.374 190.186 258.426C188.772 258.648 187.363 258.603 186.014 258.319L185.965 258.309L183.784 259.788L183.483 259.419L183.396 259.306L183.216 259.061L182.087 257.497L182.073 257.511C181.417 258.16 180.693 258.712 179.924 259.166L179.827 259.223C178.69 259.88 177.569 260.27 176.46 260.491C175.235 260.736 174.182 260.753 173.163 260.653C172.573 260.595 172.026 260.497 171.503 260.368C170.648 260.157 169.801 259.849 168.994 259.445C168.448 259.172 167.905 258.85 167.357 258.452C166.459 257.799 165.618 257.007 164.846 255.939L164.092 254.889L163.579 254.168C162.617 252.807 161.625 251.371 160.22 249.308L158.703 247.075L158.681 247.105C156.43 250.045 152.793 251.823 148.786 251.48L148.657 251.469C146.395 251.25 144.46 250.489 142.742 249.386C142.213 249.046 141.742 248.698 141.279 248.322L141.167 248.23L141.037 248.123C140.932 248.035 140.829 247.947 140.714 247.846L140.337 247.517L140.082 247.321C138.317 245.964 136.637 244.58 135.038 243.159L133.32 241.616C132.346 242.3 131.247 242.838 130.04 243.19L129.958 243.214L129.957 243.226C129.844 244.954 129.591 246.671 129.188 248.383L129.11 248.709L129.154 248.779C129.541 249.397 129.866 250.002 130.189 250.764L130.243 250.893C131.11 252.988 131.481 255.309 131.038 257.845C130.768 259.387 130.188 260.929 129.124 262.418C127.658 264.467 125.522 265.978 123.038 266.657C121.07 267.194 119.213 267.148 117.508 266.738C116.494 266.494 115.631 266.144 114.839 265.723C113.994 265.274 113.347 264.81 112.732 264.294C112.416 264.028 112.143 263.775 111.871 263.508C111.79 263.427 111.711 263.348 111.632 263.268L111.389 263.016L111.369 262.997C110.933 262.564 110.555 262.131 110.203 261.681L110.107 261.557L110.02 261.442L109.784 261.263C109.646 261.158 109.523 261.062 109.388 260.953L109.268 260.857C108.715 260.408 108.199 259.944 107.686 259.413L106.103 257.77L104.559 256.162L103.108 254.649C101.329 252.791 99.5261 250.901 97.6849 248.964L96.2036 247.403L96.1223 247.346C94.622 246.288 93.1445 245.234 91.64 244.148L90.9583 243.655L90.9397 243.665C89.6932 244.317 88.3604 244.714 87.0127 244.872L86.925 244.881L86.926 244.993C86.9299 245.684 86.8737 246.392 86.7473 247.113L86.721 247.257C86.3178 249.401 85.3374 251.5 83.5459 253.285C81.5846 255.24 79.0998 256.29 76.5796 256.489C74.9633 256.616 73.5314 256.397 72.2177 255.97C70.7892 255.505 69.5678 254.806 68.5296 253.968L67.6707 253.265L67.4058 253.047L67.153 252.836C65.9591 251.837 65.1557 251.078 64.2325 250.01L63.3312 248.957L62.5468 248.035C61.4074 246.693 60.4346 245.531 59.6099 244.527L59.494 244.385L59.4474 244.392C59.1296 244.44 58.8081 244.475 58.4837 244.495L58.3619 244.502C56.4232 244.602 54.6462 244.199 53.0833 243.466C52.0676 242.99 51.2279 242.418 50.4924 241.779C49.6785 241.072 49.0985 240.388 48.5872 239.658C48.3226 239.281 48.1054 238.929 47.9026 238.571C47.8102 238.407 47.7264 238.252 47.644 238.094L47.5875 237.985L47.4861 237.785L46.5641 236.091L45.7817 234.663C44.1176 231.638 42.7599 229.25 41.3097 226.81L40.9002 226.124L40.8407 226.065C40.3181 225.546 39.8543 224.982 39.4465 224.384L39.3791 224.284C38.9394 223.625 38.6409 223.058 38.3428 222.405L38.2365 222.168L38.1258 221.914C37.8796 221.339 37.5847 220.595 37.0945 219.329C36.3691 217.456 36.1702 215.458 36.443 213.563C36.671 211.978 37.2019 210.391 38.3116 208.785C39.1384 207.588 40.1972 206.556 41.4292 205.76L41.468 205.736L41.4552 205.585C41.1361 201.698 41.151 197.982 41.5063 194.035L41.5479 193.586L41.6059 192.994L41.6747 192.333C41.8406 190.789 42.0476 189.199 42.3704 186.894L42.4476 186.347L42.4578 186.221C42.5131 185.577 42.5907 184.993 42.7481 184.314C42.3051 184.218 41.8737 184.103 41.4299 183.958C40.1841 183.548 39.0323 182.86 38.094 181.897C37.3199 181.102 36.6803 180.128 36.2712 178.878C35.633 176.928 35.707 174.646 36.702 172.384C37.5658 170.421 39.0139 168.753 40.7816 167.578C42.0157 166.757 43.2186 166.278 44.402 165.999C44.9676 165.866 45.4689 165.793 45.9537 165.753L46.0968 165.742C46.183 165.735 46.2638 165.731 46.3419 165.727L46.4763 165.722L47.717 165.638C47.8241 165.631 47.9279 165.624 48.0288 165.617L47.1906 164.261L46.0074 162.338L44.8495 160.451C43.3687 158.034 41.8329 155.517 40.231 152.881L39.1399 151.084C37.9533 149.128 37.2844 147.236 36.7579 144.987C36.5227 143.983 36.4064 142.926 36.4811 141.776C34.0491 140.469 31.7206 139.108 29.4738 137.677C27.6103 136.49 26.2885 134.55 25.9751 132.098C25.7065 129.997 26.2124 128.033 27.1498 126.322C28.0512 124.677 29.1335 123.575 30.3447 122.671C31.0797 122.123 31.8768 121.66 32.7091 121.3C33.6191 120.906 34.5733 120.61 35.6364 120.479L29.2692 110.498L29.2362 110.445L29.0462 110.122L28.9756 109.991C28.9195 109.882 28.8314 109.704 28.6528 109.345L28.549 109.115L28.5011 109.001C28.4441 108.861 28.376 108.676 28.2219 108.259L28.1522 108.046C28.0402 107.698 28.0115 107.567 27.8226 106.705L27.7759 106.419L27.7511 106.252C27.7059 105.925 27.6934 105.654 27.6485 104.689L27.6551 104.435C27.6642 104.246 27.6882 103.989 27.7665 103.149L27.8207 102.843L27.8322 102.776L27.8607 102.648C27.8942 102.504 27.9383 102.333 28.0139 102.062L28.3278 100.954L28.9419 99.5857L29.8967 98.0991L31.2477 96.6274L32.9528 95.3578L34.8497 94.4486L36.723 93.9453L38.4069 93.7817L39.8297 93.8461L40.992 94.0383L41.9286 94.2892L42.6824 94.5578L43.0033 94.6915L43.6335 94.9986L43.7772 95.0705L43.8827 95.1246C44.1648 95.2713 44.319 95.3703 44.6971 95.6133L45.2302 96.0011L45.3411 96.083C45.6667 96.3248 45.7638 96.4131 46.0703 96.6921L46.38 96.9896L46.4466 97.056L46.5251 97.0859C47.428 97.4339 48.0727 97.7965 48.7076 98.2232L48.8462 98.317L49.3385 98.6267L49.5153 98.7395C49.6859 98.8493 49.84 98.9512 49.9952 99.058C50.0811 97.8476 50.4077 96.6014 50.9981 95.3769L50.2742 94.3055L49.9836 93.9329C48.8675 92.4995 47.7553 91.0577 46.6804 89.6468L45.9711 88.7131C42.2892 83.854 39.8549 80.4354 38.6176 78.1625L38.5414 78.0211C38.3369 77.6378 38.1554 77.2649 37.9699 76.8092C37.7728 76.325 37.6006 75.8218 37.4511 75.2061C37.3145 74.6437 37.2135 74.0499 37.1655 73.3753C37.0788 72.1549 37.1708 70.8791 37.594 69.4555C39.1758 64.1348 44.3361 61.0127 49.5456 61.6919C50.8123 61.8571 51.8611 62.2003 52.8178 62.6511C53.3591 62.9062 53.8229 63.1758 54.2515 63.4621C54.9892 63.9548 55.4713 64.3751 55.9621 64.8629L56.0291 64.9299C56.5035 65.4065 56.896 65.8638 57.3959 66.4884L57.637 66.7918L57.8187 67.0231C58.4703 67.857 59.2712 68.9251 59.8043 69.665L59.9676 69.8933L60.0964 70.0765L60.2093 70.2398C60.5979 70.8068 60.9239 71.3335 61.3824 72.112L61.9249 73.0379L62.0863 73.3082C62.2014 73.4984 62.2727 73.6086 62.3337 73.6951L62.5313 73.971L62.7129 74.2178L62.8713 74.4285C63.0652 74.6842 63.2936 74.9781 63.591 75.3556L64.751 76.822L65.0967 77.2632L65.3505 77.5902C65.5137 77.8014 65.6653 78 65.8094 78.1914C66.3305 78.076 66.8766 77.9982 67.459 77.9678L66.5157 76.5658C65.8268 75.5477 65.1428 74.5583 64.0714 73.0262L61.4426 69.2723L60.61 68.0752L60.2548 67.5614C59.7578 66.8403 59.323 66.2017 58.8662 65.5223L57.9465 64.1506L57.6867 63.7609C56.3097 61.689 55.5226 60.4112 54.6634 58.7788L54.6107 58.6784C54.3577 58.195 54.1333 57.7018 53.9164 57.0695C53.6894 56.4077 53.5105 55.7071 53.4036 54.8655L53.3605 54.4485L53.3424 54.2461L53.3329 54.1112C53.3115 53.7599 53.322 53.4497 53.3508 52.5983L53.4029 52.1585L53.4464 51.8161L53.4723 51.6345C53.5905 50.8483 53.7435 50.4404 54.3587 48.8006C56.0412 45.2181 59.4547 42.9071 63.2327 42.538C65.3116 42.3349 66.9596 42.6879 68.4726 43.3072C69.5981 43.7679 70.3415 44.2442 71.0782 44.8141C71.8193 45.3874 72.2614 45.8317 72.8438 46.4725C73.4283 47.1155 74.0594 47.8817 74.5414 48.5679L74.6248 48.6881L74.803 48.9498C75.2858 49.6641 75.6789 50.2923 76.2715 51.281L77.1491 52.7525L77.3701 53.1178L77.5093 53.3449C77.6856 53.63 77.8265 53.849 77.9635 54.0517L78.0656 54.2009L78.1258 54.2114C78.2283 54.2296 78.3304 54.2491 78.4321 54.2699L78.5336 54.2911C80.2083 54.6481 81.289 55.1917 82.3646 55.9064C82.7663 56.1732 83.0949 56.4252 83.4079 56.6875C83.6882 56.9224 83.9284 57.1429 84.1689 57.3769L84.2591 57.4654C84.7235 57.9234 85.2151 58.4551 85.8645 59.1834L86.2423 59.6092L87.3021 60.8145C88.2506 61.8863 89.1495 62.968 89.9992 64.0647C90.9896 63.7866 91.9724 63.5292 92.9488 63.2928L94.9212 62.8244C95.0417 61.8303 95.3277 60.8166 95.7939 59.8155L95.8258 59.7481L95.8184 59.7418C94.7769 58.8543 93.8227 57.8755 92.9576 56.7955L92.7942 56.5888L92.7242 56.5865C92.1066 56.5652 91.5325 56.5073 90.8596 56.3743L90.7465 56.3515C88.9087 55.9715 87.2097 55.1422 85.8409 53.6481C85.0084 52.7393 84.3532 51.6163 84.0105 50.1819C83.5389 48.2079 83.7961 46.0207 84.7858 43.9826C85.57 42.3679 86.6633 41.1035 87.9033 40.1143C88.641 39.5267 89.3595 39.092 90.0829 38.7407C90.7493 38.4171 91.338 38.2004 91.9258 38.0288L91.9074 37.9973L91.7958 37.8002L91.7048 37.6351C91.5568 37.363 91.4249 37.1003 91.2705 36.7488C91.1607 36.4989 91.0555 36.237 90.9494 35.9329C90.7209 35.2781 90.5411 34.6083 90.4259 33.7277L90.4009 33.5279C90.0115 30.265 90.5714 27.0977 94.0964 24.0239C98.4609 20.2181 102.814 20.7001 106.392 22.567C107.348 23.0658 108.003 23.5562 108.624 24.1086C108.894 24.3493 109.117 24.5701 109.326 24.7914C109.54 25.0187 109.711 25.217 109.877 25.4204C110.039 25.618 110.18 25.802 110.332 26.0068L111.06 26.9931C112.314 28.6973 113.495 30.3396 115.204 32.7522L115.603 33.3169C116.13 33.1342 116.659 32.9518 117.193 32.7689L117.899 32.5274L117.903 32.5098C118.2 31.3412 118.71 30.2322 119.382 29.2251L119.426 29.1598L119.354 29.1084C118.909 28.7874 118.488 28.4171 118.099 27.9922L118.022 27.9065C116.881 26.6238 116.099 24.9625 115.983 22.886C115.856 20.6127 116.609 18.4002 117.926 16.5613C118.771 15.382 119.732 14.4929 120.759 13.7828C121.875 13.0107 123.023 12.492 124.154 12.1652L125.096 11.899L125.388 11.8177L125.697 11.7332C127.006 11.3789 127.947 11.1795 129.151 11.0408L130.342 10.9095L131.665 10.7675L132.939 10.6351C133.81 10.5465 134.598 10.4701 135.311 10.4054L135.468 10.3914L135.49 10.3557C135.642 10.1131 135.804 9.87429 135.977 9.64008L136.042 9.55247C137.089 8.16273 138.366 7.12042 139.731 6.38092C140.618 5.90039 141.466 5.58654 142.296 5.37599C143.215 5.14302 143.986 5.06165 144.746 5.04709C145.139 5.04204 145.489 5.0562 145.835 5.08362C145.992 5.0961 146.14 5.11073 146.288 5.12757L146.39 5.13954L146.577 5.16299L148.189 5.31712L149.077 5.3999C152.193 5.68723 154.62 5.87638 157.142 6.02114L157.816 6.05883L157.888 6.0449C158.52 5.92616 159.147 5.86865 159.763 5.86598L159.866 5.86604C160.54 5.86976 161.074 5.92838 161.663 6.0278L161.876 6.06496C162.423 6.16407 163.088 6.31184 164.348 6.60278Z" fill="#009AFF" fill-opacity="0.3"/>
<path d="M118.095 -0.00012207C119.852 -0.00012207 121.481 0.492448 122.829 1.35189C123.956 2.07049 124.955 3.04812 125.723 4.52573C126.294 5.62665 126.64 6.87083 126.729 8.18446L126.731 8.22574L126.853 8.26472C129.993 9.27863 132.858 10.5204 135.757 12.1293L136.086 12.3133L136.519 12.5585L136.8 12.7203L137.283 13.0011C138.317 13.6082 139.4 14.2776 140.906 15.2283L141.296 15.4752L141.389 15.5254C141.963 15.8409 142.455 16.1548 143.035 16.6462C144.085 17.5353 144.965 18.6749 145.565 20.1552L145.608 20.2652L145.65 20.3738L145.674 20.3782C146.101 20.4601 146.526 20.5612 146.95 20.6834L147.092 20.7249C148.299 21.0856 149.435 21.6123 150.48 22.3507C152.14 23.5243 153.225 25.1943 153.729 27.076L153.767 27.0666L154.678 26.9644L154.983 26.9321C155.507 26.8784 155.82 26.8583 156.137 26.8636L158.329 26.4531L160.025 26.1377C162.415 25.6943 164.899 25.2386 167.491 24.7675L169.958 24.3205C171.977 23.9559 173.724 24.0113 175.687 24.3063C176.663 24.4531 177.627 24.7471 178.578 25.2918C178.552 25.1779 178.527 25.0635 178.502 24.9488L178.464 24.7656C178.038 22.7017 177.908 20.8105 178.347 18.6287C178.78 16.4706 179.744 14.374 181.482 12.5422C183.599 10.3092 186.402 9.03966 189.317 8.81169C191.274 8.65861 193.005 8.9653 194.607 9.54562C195.571 9.89469 196.427 10.3244 197.246 10.8244C198.225 11.4221 199.127 12.1073 200.057 12.9124L200.221 13.0557L200.476 13.2809C202.51 15.0952 204.511 17.2474 208.297 21.5481L211.251 24.9101C214.061 28.0961 215.314 29.4477 216.322 30.3777L216.608 30.6407L216.835 30.8526C217.736 31.6954 218.533 32.4938 219.853 33.8545L221.302 35.3477L221.632 35.6834L221.887 35.9411C222.157 36.2133 222.391 36.4428 222.629 36.6731L222.808 36.8438L222.905 36.9318L223.001 37.0166C223.117 37.1172 223.273 37.249 223.5 37.4381L224.07 37.9124L224.386 38.1774L224.613 38.3699C225.16 38.837 225.567 39.207 226.053 39.6823L226.962 40.5797L227.508 41.1241L227.787 41.404C229.476 43.1039 230.607 44.3302 231.851 45.8358C233.035 47.2695 233.811 48.8689 234.213 50.516C236.996 53.5197 237.185 58.2488 234.976 62.1368C235.407 62.9395 235.794 63.7528 236.143 64.6008L236.226 64.805C236.639 65.8299 236.957 66.8707 237.134 68.0931C237.48 68.1399 237.839 68.2102 238.221 68.313L238.562 68.4142L238.726 68.4657L238.82 68.4975L238.908 68.5288C239.16 68.6216 239.407 68.739 239.995 69.018L240.313 69.2079L240.559 69.3583L240.67 69.4286L240.74 69.474C241.262 69.8186 241.527 70.1 242.5 71.1337C244.55 73.7535 244.878 77.4285 243.55 80.7719C242.819 82.6115 241.842 83.8999 240.718 84.9851C239.913 85.7613 239.248 86.2316 238.527 86.6574L238.44 86.7083C238.219 86.8369 238.018 86.9476 237.824 87.047L238.168 87.6153L238.833 88.7108L238.887 88.7715C238.981 88.8778 239.073 88.9847 239.166 89.0959L239.26 89.2087C239.745 89.7967 240.191 90.4168 240.613 91.1342C241.016 91.8198 241.475 92.7258 241.814 93.5195C241.956 93.852 242.087 94.1861 242.212 94.5505L242.28 94.7528C242.513 95.4602 242.691 96.1698 242.804 97.0925C242.964 98.3887 242.952 99.7134 242.561 101.322C242.193 102.835 241.524 104.333 240.421 105.748C240.067 106.201 239.681 106.627 239.266 107.022C241.792 107.805 243.845 109.369 244.676 113.212C245.306 116.123 244.806 118.545 243.688 120.542C243.697 120.606 243.706 120.67 243.715 120.735L243.743 120.97L245.743 123.368L247.392 125.353L249.21 127.552C251.606 130.461 253.688 133.022 255.093 134.804L255.416 135.215L255.723 135.61L255.995 135.963C257.111 137.426 258.078 138.813 259.609 141.1L261.306 143.648L261.918 144.557L262.222 145.004C262.684 145.681 263.061 146.215 263.455 146.754L264.113 147.645L265.186 149.087C266.65 151.043 268.202 153.075 270.545 156.115L276.213 163.465L277.192 164.744L278.191 166.054L278.446 166.385C278.661 166.664 278.807 166.86 278.996 167.125C279.387 167.671 279.744 168.222 280.086 168.831C280.919 170.317 281.461 172.015 281.606 173.82C281.726 175.309 281.591 176.871 281.042 178.527C280.186 181.112 278.436 183.438 275.863 184.961C273.628 186.284 271.079 186.801 268.602 186.532C266.873 186.343 265.423 185.824 264.139 185.112C263.526 184.771 263.015 184.422 262.544 184.053L262.405 183.943C262.294 183.854 262.194 183.77 262.098 183.688L262.045 183.641L260.852 182.677L260.502 182.391C259.264 181.38 258.504 180.723 257.579 179.848L257.072 179.367L256.518 178.839C253.848 176.289 251.779 174.216 249.795 172.062L248.275 170.398L246.969 168.956C245.063 166.844 243.052 164.58 240.144 161.283L238.839 159.802L238.812 159.815C238.528 159.95 238.236 160.076 237.936 160.191L237.823 160.234C236.171 160.85 234.52 161.058 232.934 160.96C231.847 160.893 230.865 160.69 229.945 160.393C228.863 160.044 227.992 159.615 227.163 159.11C226.722 158.841 226.34 158.578 225.954 158.293C225.873 158.233 225.795 158.174 225.717 158.115L225.444 157.904L225.327 157.826C224.626 157.357 223.937 156.892 223.26 156.429L222.838 156.141L223.048 156.516C223.495 157.318 223.944 158.123 224.393 158.933L224.472 159.004C224.663 159.179 224.898 159.414 225.29 159.807L225.556 160.132L225.651 160.251C225.855 160.514 225.965 160.695 226.32 161.283L226.522 161.712L226.619 161.926L226.664 162.03L226.718 162.159C226.893 162.598 226.999 163.013 227.297 164.181L227.297 164.184L231.649 172.02L232.761 174.026C238.28 184.005 241.397 189.881 244.67 196.622L244.992 197.287C250.109 207.88 254.01 217.64 256.865 227.437C257.687 230.262 257.462 233.415 255.94 236.248C254.637 238.675 252.727 240.303 250.612 241.299C248.578 242.256 246.78 242.491 245.01 242.41C243.936 242.36 242.868 242.168 241.844 241.839C240.203 241.312 238.632 240.483 237.098 238.96L236.369 238.234L235.753 237.618C233.301 235.156 231.557 233.313 229.805 231.293L229.127 230.508L228.378 229.64L227.731 228.886C227.084 228.132 226.44 227.378 225.775 226.596L224.836 225.49L224.779 225.543C224.611 225.695 224.438 225.845 224.26 225.99L224.153 226.076C223.093 226.922 221.954 227.555 220.778 227.99L220.729 228.007L220.731 228.06C220.763 229.194 220.659 230.34 220.335 231.557L220.291 231.717L220.279 231.869C220.172 233.184 219.972 234.487 219.676 235.768L219.631 235.96C218.961 238.764 217.305 241.264 214.898 242.97C214.106 243.531 213.297 243.969 212.479 244.303L212.318 244.367L212.316 244.375C212.297 244.514 212.275 244.655 212.251 244.796L212.226 244.938C211.569 248.547 209.321 251.811 205.779 253.612C205.459 253.775 205.131 253.924 204.796 254.059C203.389 254.625 201.921 254.916 200.461 254.944L200.408 254.945L198.508 256.995L198.108 256.684L197.992 256.589L197.747 256.379L196.208 255.032L196.197 255.05C195.675 255.877 195.058 256.62 194.372 257.273L194.286 257.355C193.267 258.305 192.203 258.976 191.11 259.47C189.903 260.015 188.818 260.283 187.742 260.424C187.12 260.505 186.531 260.534 185.96 260.525C185.027 260.512 184.079 260.395 183.149 260.171C182.52 260.019 181.882 259.816 181.22 259.535C180.137 259.075 179.08 258.457 178.029 257.538L176.999 256.633L176.298 256.01C174.979 254.834 173.613 253.586 171.67 251.79L169.571 249.845L169.555 249.881C167.93 253.456 164.597 256.162 160.377 256.765L160.241 256.783C157.852 257.097 155.672 256.773 153.634 256.043C153.007 255.819 152.437 255.571 151.869 255.293L151.732 255.225L151.573 255.145C151.443 255.079 151.316 255.013 151.172 254.936L150.705 254.686L150.395 254.545C148.248 253.564 146.183 252.535 144.193 251.447L142.05 250.264C141.208 251.202 140.2 252.021 139.037 252.673L138.958 252.717L138.96 252.73C139.255 254.543 139.403 256.378 139.395 258.243L139.392 258.598L139.454 258.66C140.001 259.206 140.482 259.754 140.997 260.465L141.083 260.584C142.478 262.542 143.414 264.852 143.56 267.579C143.649 269.237 143.418 270.969 142.673 272.762C141.648 275.229 139.801 277.301 137.397 278.595C135.492 279.62 133.564 280.016 131.705 279.999C130.599 279.988 129.624 279.833 128.706 279.587C127.726 279.325 126.947 279 126.189 278.613C125.799 278.414 125.456 278.217 125.112 278.006C125.009 277.942 124.909 277.88 124.808 277.815L124.497 277.614L124.472 277.599C123.919 277.255 123.425 276.898 122.953 276.517L122.825 276.412L122.707 276.313L122.421 276.185C122.253 276.109 122.104 276.039 121.938 275.96L121.791 275.888C121.114 275.557 120.47 275.201 119.814 274.774L117.787 273.454L115.809 272.162L113.95 270.944C111.669 269.449 109.356 267.926 106.993 266.364L105.091 265.105L104.993 265.065C103.191 264.33 101.414 263.593 99.6009 262.831L98.7793 262.484L98.7625 262.499C97.6303 263.47 96.3483 264.199 94.9936 264.683L94.9053 264.714L94.9329 264.829C95.1018 265.543 95.2124 266.287 95.2535 267.062L95.2608 267.218C95.3553 269.53 94.8426 271.932 93.4176 274.205C91.8575 276.693 89.5411 278.371 86.9852 279.179C85.3462 279.696 83.8148 279.811 82.356 279.684C80.7697 279.545 79.3415 279.114 78.0693 278.495L77.0147 277.974L76.689 277.812L76.3778 277.655C74.9064 276.907 73.8957 276.315 72.6876 275.432L71.5057 274.558L70.4757 273.793C68.9789 272.678 67.6971 271.709 66.6059 270.868L66.4525 270.75L66.406 270.769C66.0892 270.894 65.7654 271.006 65.4351 271.105L65.311 271.141C63.3322 271.707 61.4007 271.715 59.6115 271.331C58.4489 271.081 57.4452 270.69 56.5333 270.206C55.5242 269.67 54.7619 269.101 54.06 268.469C53.6967 268.143 53.3886 267.831 53.0936 267.509C52.9593 267.362 52.8356 267.221 52.713 267.078L52.6285 266.979L52.4761 266.796L51.1201 265.266L49.9717 263.977C47.5318 261.248 45.5603 259.105 43.4809 256.93L42.8943 256.318L42.8189 256.272C42.1553 255.86 41.5419 255.388 40.9782 254.868L40.8847 254.78C40.2735 254.205 39.8301 253.69 39.3665 253.086L39.2002 252.867L39.0252 252.63C38.634 252.095 38.152 251.396 37.344 250.205C36.1483 248.443 35.4667 246.425 35.2969 244.402C35.1549 242.71 35.325 240.944 36.0885 239.019C36.6574 237.585 37.505 236.265 38.588 235.149L38.6221 235.114L38.573 234.961C37.3171 231.021 36.4471 227.178 35.8733 223.014L35.8094 222.54L35.7282 221.914L35.6418 221.215C35.4452 219.58 35.2801 217.888 35.0642 215.428L35.0135 214.844L34.9941 214.712C34.8976 214.033 34.8388 213.412 34.8395 212.672C34.359 212.678 33.8861 212.663 33.3929 212.618C32.0085 212.493 30.6548 212.056 29.456 211.285C28.467 210.649 27.5743 209.795 26.8539 208.601C25.7297 206.738 25.2625 204.363 25.7513 201.788C26.1756 199.553 27.274 197.483 28.8198 195.847C29.899 194.704 31.0274 193.922 32.1832 193.351C32.7357 193.078 33.2362 192.883 33.7273 192.726L33.8725 192.68C33.9601 192.653 34.0425 192.629 34.1223 192.607L34.2599 192.57L35.5214 192.186C35.6302 192.153 35.7359 192.121 35.8385 192.091L34.6494 190.889L32.969 189.184L31.3233 187.511C29.2179 185.367 27.0316 183.133 24.7487 180.791L23.1933 179.194C21.5015 177.456 20.3599 175.661 19.2801 173.463C18.7977 172.481 18.4258 171.417 18.229 170.211C15.4053 169.441 12.6757 168.59 10.0139 167.647C7.80607 166.866 5.97847 165.177 5.07047 162.718C4.29242 160.611 4.34672 158.46 4.90736 156.469C5.44648 154.554 6.30185 153.157 7.33752 151.933C7.96591 151.191 8.67912 150.523 9.45291 149.952C10.2991 149.327 11.2141 148.794 12.2811 148.405L3.32559 139.611L3.27889 139.564L3.00564 139.275L2.90143 139.156C2.8175 139.057 2.68417 138.895 2.41413 138.566L2.25208 138.353L2.17542 138.247C2.08307 138.116 1.96886 137.941 1.71025 137.547L1.58731 137.343C1.38881 137.01 1.32787 136.882 0.92739 136.036L0.811106 135.752L0.74576 135.586C0.621057 135.258 0.543584 134.982 0.267096 133.994L0.213449 133.73C0.17785 133.533 0.141338 133.262 0.0221178 132.375L0.00506575 132.046L0 131.974V131.835C0 131.678 0.00518203 131.491 0.0186603 131.193L0.0786199 129.972L0.387004 128.412L1.01897 126.648L2.06372 124.805L3.52249 123.086L5.26519 121.693L7.08021 120.726L8.78067 120.155L10.2657 119.882L11.512 119.803L12.5393 119.839L13.382 119.936L13.7453 119.998L14.4694 120.165L14.635 120.205L14.7568 120.235C15.0832 120.32 15.266 120.385 15.7145 120.546L16.3576 120.819L16.4917 120.878C16.8856 121.05 17.007 121.118 17.3901 121.333L17.7808 121.566L17.8654 121.619L17.9537 121.631C18.9692 121.775 19.7216 121.996 20.4791 122.285L20.6446 122.349L21.2269 122.552L21.4364 122.626C21.6388 122.699 21.8223 122.767 22.0081 122.841C21.8083 121.569 21.8487 120.204 22.1667 118.797L21.1637 117.863L20.7747 117.547C19.2802 116.333 17.7878 115.108 16.3413 113.907L15.3861 113.111C10.425 108.969 7.09583 106.017 5.27614 103.964L5.16369 103.836C4.8611 103.489 4.58479 103.147 4.28458 102.72C3.96563 102.267 3.66781 101.788 3.36665 101.188C3.09155 100.639 2.84567 100.05 2.63535 99.3638C2.25491 98.1234 2.0459 96.7831 2.14381 95.211C2.50972 89.335 7.09602 84.8768 12.639 84.335C13.9868 84.2033 15.1519 84.3076 16.2476 84.545C16.8675 84.6794 17.4108 84.8472 17.9218 85.0408C18.8011 85.3738 19.3993 85.693 20.0225 86.08L20.1077 86.1332C20.7113 86.5124 21.2257 86.8913 21.891 87.4174L22.2123 87.6733L22.4551 87.869C23.3268 88.5752 24.4087 89.4877 25.1356 90.125L25.3587 90.322L25.5354 90.4806L25.691 90.6224C26.2276 91.1154 26.6897 91.5819 27.3489 92.2769L28.1299 93.1042L28.361 93.345C28.5253 93.5141 28.6252 93.611 28.7088 93.6857L28.9786 93.9237L29.225 94.1353L29.4389 94.3153C29.7001 94.5332 30.0061 94.7824 30.4032 95.1015L31.9509 96.3399L32.4131 96.7133L32.7532 96.9906C32.9721 97.17 33.1761 97.339 33.3705 97.5023C33.8813 97.2587 34.4268 97.0479 35.0211 96.8774L33.7127 95.6538C32.7584 94.7663 31.8162 93.9071 30.3444 92.5797L26.7343 89.3281L25.589 88.2898L25.0997 87.8436C24.4145 87.2172 23.8132 86.6611 23.1794 86.068L21.9025 84.8701L21.5414 84.5294C19.6252 82.7172 18.5077 81.5846 17.2312 80.1029L17.1528 80.0117C16.7762 79.5726 16.4269 79.1165 16.0523 78.5149C15.66 77.8851 15.3083 77.2039 14.9973 76.3597L14.8534 75.9391L14.7865 75.7342L14.7445 75.5972C14.6386 75.2392 14.5756 74.9162 14.4025 74.0294L14.3514 73.5625L14.3148 73.1983L14.2983 73.0045C14.233 72.1639 14.2939 71.7058 14.5385 69.8644C15.4228 65.7607 18.3979 62.5576 22.2124 61.2742C24.3113 60.5681 26.0978 60.5394 27.8082 60.8182C29.0806 61.0256 29.962 61.3402 30.8588 61.7533C31.7609 62.1688 32.3234 62.5224 33.0778 63.0455C33.8347 63.5704 34.6692 64.2115 35.3306 64.8056L35.4454 64.9099L35.6918 65.1377C36.3608 65.7606 36.9166 66.316 37.7643 67.1962L39.0215 68.5073L39.3367 68.832L39.5347 69.0334C39.7847 69.286 39.9825 69.4786 40.1722 69.6554L40.3133 69.7852L40.378 69.7817C40.4882 69.776 40.5983 69.7718 40.7083 69.769L40.8182 69.7667C42.6332 69.7357 43.879 70.0396 45.1603 70.5212C45.6389 70.7011 46.0383 70.8831 46.4242 71.0794C46.7697 71.2552 47.0704 71.4257 47.3745 71.6101L47.4888 71.68C48.0776 72.0424 48.7121 72.4745 49.5565 73.0721L50.0481 73.4219L51.4302 74.4144C52.6653 75.2955 53.8515 76.1987 54.9906 77.1291C55.9473 76.6053 56.9012 76.1047 57.8535 75.6273L59.7792 74.6724C59.6668 73.6164 59.7206 72.5006 59.9636 71.3547L59.9805 71.2775L59.9714 71.2728C58.684 70.6042 57.4651 69.8206 56.3142 68.9111L56.0961 68.7366L56.0233 68.7509C55.3803 68.8762 54.7735 68.9536 54.0467 68.9768L53.9244 68.9801C51.9355 69.0263 49.9829 68.5749 48.213 67.3577C47.1365 66.6174 46.1921 65.6133 45.4963 64.2128C44.5387 62.2855 44.2831 59.964 44.8198 57.6216C45.2449 55.7657 46.073 54.1981 47.1181 52.8799C47.74 52.0965 48.3787 51.4758 49.0421 50.9401C49.6534 50.4466 50.2098 50.0821 50.7761 49.7645L50.7497 49.7363L50.5873 49.5593L50.454 49.4104C50.2363 49.1646 50.0375 48.9245 49.7942 48.5981C49.6213 48.3661 49.4502 48.1207 49.2681 47.8317C48.876 47.2096 48.5307 46.5604 48.2019 45.6779L48.1284 45.4774C46.9485 42.1986 46.7721 38.7919 49.6807 34.774C53.282 29.7993 57.893 29.2581 62.0337 30.3331C63.1402 30.6204 63.9344 30.9705 64.7068 31.3933C65.0434 31.5775 65.3266 31.7523 65.5947 31.9312C65.8702 32.115 66.0941 32.2791 66.3142 32.4496C66.5282 32.6152 66.7179 32.7717 66.9236 32.947L67.9111 33.7924C69.6122 35.2541 71.223 36.6694 73.5638 38.7544L74.1101 39.2428C74.6111 38.9281 75.1143 38.6132 75.6217 38.2969L76.2937 37.8787L76.294 37.8596C76.3224 36.581 76.5847 35.3133 77.0387 34.1121L77.0687 34.0341L76.9823 33.9982C76.4461 33.7727 75.923 33.4906 75.4201 33.1443L75.3197 33.0742C73.8352 32.0212 72.6322 30.491 72.0176 28.3728C71.3447 26.054 71.5945 23.5881 72.5169 21.3733C73.1084 19.953 73.8895 18.8047 74.7807 17.8259C75.7497 16.7615 76.8116 15.9515 77.9028 15.3436L78.8124 14.8436L79.0943 14.69L79.3932 14.5289C80.6607 13.8504 81.5854 13.4195 82.7959 12.9888L83.9947 12.5688L85.3273 12.1062L86.6117 11.6654C87.4903 11.3657 88.2868 11.0986 89.0076 10.8615L89.1665 10.8096L89.1807 10.7674C89.2793 10.4805 89.39 10.1951 89.5128 9.91175L89.5595 9.80561C90.3101 8.11947 91.3802 6.73762 92.6142 5.6475C93.4161 4.93915 94.2168 4.41246 95.0245 3.99662C95.9182 3.53649 96.6949 3.2684 97.4767 3.07365C97.8813 2.97285 98.2458 2.90403 98.6096 2.84978C98.7753 2.82507 98.9312 2.80497 99.0883 2.78698L99.1969 2.77492L99.3949 2.75468L101.098 2.52891L102.034 2.40247C105.321 1.95561 107.873 1.57166 110.513 1.11903L111.219 0.997009L111.289 0.965541C111.914 0.691901 112.547 0.48288 113.184 0.332944L113.29 0.3085C113.986 0.151501 114.552 0.0845806 115.184 0.0466417L115.413 0.0343092C116.002 0.00608433 116.724 -0.00012207 118.095 -0.00012207Z" fill="#D7EDFF" fill-opacity="0.8"/>
</g>
<path d="M49.7088 114.988C68.4244 114.742 87.1399 114.496 105.837 114.25C111.798 114.174 118.023 114.023 123.265 111.184C128.715 108.213 132.5 102.195 132.349 96.0073C132.197 89.8003 127.826 83.8015 121.827 82.174C115.828 80.5466 108.789 83.8015 106.518 89.5732C106.821 78.8624 97.3587 68.6436 86.629 68.7193C75.8993 68.795 66.4374 79.7707 68.5001 90.2923C66.6645 85.41 60.7981 82.8175 55.6509 83.6879C50.5036 84.5395 46.1701 88.2107 43.2748 92.5632C40.8715 96.1776 39.2629 100.549 39.8307 104.882C40.3984 109.216 43.3315 115.082 49.7088 114.988Z" fill="white"/>
<path d="M49.5593 115.707C42.4251 115.707 39.6433 108.989 39.1134 104.977C38.4322 99.8298 40.6841 95.1556 42.69 92.1468C46.0395 87.1131 50.7137 83.7825 55.5392 82.9688C60.1188 82.1929 64.8308 83.9907 67.5179 87.2077C67.5558 83.1202 69.1075 78.938 72.0029 75.4182C75.7687 70.8008 81.2376 68.038 86.6309 68.0001C91.7781 67.9812 96.9822 70.271 100.937 74.3017C104.419 77.8594 106.595 82.3632 107.106 86.9428C110.229 82.42 116.493 79.9788 121.999 81.4738C128.131 83.1391 132.88 89.365 133.051 95.9694C133.221 102.271 129.417 108.629 123.589 111.79C118.082 114.78 111.572 114.874 105.838 114.95L49.7107 115.688H49.5593V115.707ZM57.6398 84.2177C57.0153 84.2177 56.3908 84.2745 55.7852 84.3691C51.3571 85.1072 47.0046 88.2296 43.8822 92.9226C42.0088 95.7234 39.9082 100.076 40.5327 104.788C41.0058 108.327 43.4281 114.288 49.5783 114.288H49.7107L105.838 113.531C111.402 113.455 117.723 113.379 122.927 110.541C128.282 107.626 131.783 101.779 131.631 96.0072C131.48 90.0084 127.184 84.3502 121.64 82.8552C115.906 81.3035 109.264 84.4827 107.182 89.8381C107.05 90.1598 106.709 90.349 106.387 90.2733C106.047 90.1976 105.82 89.8948 105.82 89.5542C105.952 84.4637 103.814 79.2786 99.9343 75.3047C96.2441 71.5389 91.4186 69.3815 86.6498 69.4194C81.6729 69.4572 76.6013 72.0309 73.1004 76.3076C69.7131 80.4519 68.2938 85.4856 69.2211 90.1409C69.2968 90.5004 69.0697 90.86 68.7101 90.9546C68.3506 91.0492 67.9721 90.86 67.8586 90.5193C66.2879 86.3372 61.7651 84.2177 57.6398 84.2177Z" fill="black"/>
<path d="M139.872 141.684C116.961 132.091 102.149 134.509 95.4361 137.988C92.7727 139.374 83.3692 146.305 76.0583 174.406C75.7594 175.548 75.4333 176.88 76.2214 177.695C84.5107 173.292 99.3497 161.579 116.309 154.295C125.141 150.49 119.842 158.073 126.609 156.224C129.408 155.464 132.316 154.838 134.762 153.262C137.208 151.686 141.285 145.843 139.845 141.657L139.872 141.684Z" fill="white"/>
<path d="M76.2488 178.755C75.977 178.755 75.7052 178.646 75.515 178.429C74.3192 177.179 74.7812 175.358 75.1073 174.162C82.554 145.489 92.2293 138.532 95.0015 137.092C98.8335 135.108 113.401 129.482 140.28 140.733C140.551 140.842 140.769 141.059 140.85 141.331C142.454 146.06 138.214 152.284 135.333 154.132C133.105 155.572 130.577 156.225 128.104 156.877C127.696 156.986 127.289 157.094 126.908 157.203C123.294 158.209 122.261 156.795 121.5 155.301C120.983 154.295 120.63 153.561 116.744 155.246C105.655 160.002 95.545 166.634 87.4189 171.961C83.2335 174.706 79.5917 177.097 76.738 178.619C76.5749 178.701 76.4118 178.728 76.2488 178.728V178.755ZM110.602 135.95C102.638 135.95 97.8551 137.907 95.9255 138.912C94.0774 139.864 84.4837 146.115 77.0641 174.706C76.9554 175.168 76.7923 175.793 76.7652 176.309C79.4014 174.814 82.6084 172.722 86.2774 170.303C94.4579 164.922 104.65 158.263 115.901 153.425C120.63 151.387 122.206 152.257 123.294 154.431C123.783 155.382 124.055 155.926 126.337 155.301C126.745 155.192 127.153 155.083 127.56 154.975C129.979 154.322 132.235 153.724 134.192 152.474C136.42 151.061 139.791 145.979 139.002 142.473C126.963 137.499 117.532 135.977 110.574 135.977L110.602 135.95Z" fill="black"/>
<path d="M162.051 172.775C163.519 197.398 156.507 208.731 150.963 213.814C148.761 215.825 138.76 224.005 109.598 221.451C108.429 221.342 107.043 221.206 106.527 220.2C113.484 213.922 129.574 203.975 142.184 190.549C148.761 183.565 139.765 185.984 143.788 180.276C145.445 177.912 147.022 175.411 149.332 173.645C151.642 171.878 158.572 170.03 162.078 172.775H162.051Z" fill="white"/>
<path d="M120.224 222.973C116.963 222.973 113.403 222.81 109.516 222.484C108.293 222.375 106.418 222.212 105.63 220.69C105.412 220.282 105.494 219.766 105.847 219.467C108.266 217.293 111.718 214.711 115.74 211.694C123.513 205.878 133.188 198.649 141.423 189.87C144.304 186.799 143.733 186.228 142.972 185.413C141.776 184.19 140.798 182.75 142.972 179.706C143.217 179.38 143.434 179.026 143.679 178.7C145.119 176.635 146.614 174.488 148.707 172.884C151.397 170.819 158.762 168.943 162.703 172.014C162.921 172.205 163.084 172.476 163.084 172.748C164.551 197.344 157.675 209.085 151.669 214.602C148.679 217.347 140.118 223 120.251 223L120.224 222.973ZM108.076 220.174C108.565 220.337 109.19 220.391 109.679 220.445C136.504 222.81 146.994 216.07 150.256 213.08C155.909 207.889 162.35 196.801 161.045 173.319C157.974 171.389 152.022 172.857 149.93 174.46C148.081 175.874 146.75 177.803 145.336 179.842C145.092 180.195 144.847 180.521 144.603 180.874C143.244 182.804 143.624 183.185 144.412 183.973C146.125 185.739 146.424 187.479 142.918 191.256C134.547 200.144 124.79 207.454 116.963 213.298C113.457 215.907 110.386 218.217 108.103 220.174H108.076Z" fill="black"/>
<path d="M224.695 137.227C195.315 156.007 165.936 174.787 136.557 193.567C136.557 193.567 111.907 159.431 112.45 158.1C139.791 135.596 165.909 114.778 193.875 92.9816C199.582 96.5962 207.002 99.0966 210.943 104.478C213.171 107.522 214.693 111 216.215 114.452C217.791 118.04 219.395 121.654 220.971 125.242C222.656 129.074 224.369 132.987 224.695 137.2V137.227Z" fill="white"/>
<path d="M136.557 194.6C136.231 194.6 135.932 194.464 135.742 194.165C135.688 194.083 129.518 185.522 123.485 176.907C110.983 159.051 111.228 158.453 111.527 157.719C111.581 157.556 111.69 157.42 111.825 157.312C137.699 136.004 163.599 115.295 193.25 92.1664C193.576 91.8946 194.066 91.8675 194.419 92.1121C196.104 93.172 197.898 94.1232 199.827 95.156C204.284 97.4933 208.877 99.9393 211.758 103.907C214.041 107.06 215.618 110.62 217.14 114.072L221.896 124.861C223.608 128.721 225.374 132.743 225.701 137.146C225.728 137.526 225.537 137.88 225.239 138.07L137.101 194.437C136.938 194.545 136.748 194.6 136.557 194.6ZM113.619 158.48C115.359 162.013 128.268 180.358 136.829 192.208L223.635 136.711C223.2 132.852 221.597 129.21 220.048 125.677L215.291 114.887C213.824 111.544 212.275 108.065 210.128 105.103C207.519 101.516 203.143 99.2055 198.876 96.9769C197.218 96.1072 195.533 95.2103 193.93 94.2319C164.713 117.034 139.166 137.445 113.619 158.453V158.48Z" fill="black"/>
<path d="M225.129 136.955C215.698 122.116 205.017 106.598 193.847 93.0089C208.605 91.5684 224.939 90.889 239.723 89.8019C242.387 89.6116 244.316 92.0848 243.392 94.5852C237.984 109.288 230.456 123.53 225.129 136.955Z" fill="white"/>
<path d="M225.129 137.961C224.776 137.961 224.449 137.798 224.259 137.499C213.334 120.322 202.843 105.565 193.059 93.6338C192.815 93.3349 192.76 92.9544 192.896 92.6011C193.032 92.2478 193.358 92.0032 193.739 91.976C203.088 91.0519 213.116 90.454 222.819 89.8561C228.417 89.53 234.179 89.1767 239.642 88.769C241.245 88.6603 242.795 89.3397 243.719 90.5899C244.643 91.8129 244.887 93.4436 244.316 94.9112C241.273 103.228 237.522 111.408 233.907 119.29C231.054 125.541 228.363 131.438 226.026 137.309C225.89 137.662 225.564 137.906 225.183 137.934C225.156 137.934 225.129 137.934 225.075 137.934L225.129 137.961ZM195.858 93.8241C205.017 105.157 214.774 118.909 224.939 134.727C227.113 129.427 229.559 124.073 232.114 118.447C235.701 110.566 239.424 102.439 242.441 94.2046C242.74 93.3621 242.631 92.4924 242.115 91.8129C241.572 91.1063 240.756 90.7258 239.805 90.8073C234.342 91.215 228.553 91.5683 222.955 91.8945C213.932 92.438 204.61 93.0087 195.858 93.8241Z" fill="black"/>
<path d="M182.459 149.348C177.459 149.348 172.621 147.12 169.631 142.907C167.294 139.619 166.37 135.542 167.077 131.492C167.838 127.09 170.338 123.203 174.089 120.567C181.59 115.322 191.781 116.789 196.809 123.855C199.146 127.144 200.07 131.221 199.364 135.27C198.603 139.673 196.103 143.559 192.352 146.196C189.335 148.316 185.857 149.348 182.459 149.348ZM175.257 122.225C171.941 124.562 169.74 127.959 169.061 131.819C168.463 135.352 169.224 138.858 171.262 141.711C175.638 147.853 184.579 149.131 191.156 144.511C194.472 142.173 196.673 138.776 197.326 134.917C197.923 131.384 197.162 127.878 195.124 125.024C190.749 118.882 181.807 117.605 175.23 122.225H175.257Z" fill="black"/>
<path d="M52.1975 210.553C51.8714 210.553 51.5724 210.39 51.355 210.118C51.0289 209.656 51.1376 209.031 51.5996 208.705C69.3195 196.285 87.7189 184.354 106.336 173.265C106.825 172.966 107.45 173.129 107.722 173.618C108.021 174.107 107.858 174.733 107.368 175.004C88.806 186.066 70.4338 197.942 52.7682 210.363C52.578 210.499 52.3877 210.553 52.1703 210.553H52.1975Z" fill="black"/>
<path d="M92.6388 201.013C92.3126 201.013 92.0137 200.877 91.8234 200.606C91.4973 200.144 91.606 199.519 92.0408 199.192C98.6451 194.409 105.467 189.762 112.343 185.386C112.805 185.087 113.457 185.223 113.756 185.712C114.055 186.174 113.919 186.826 113.457 187.125C106.608 191.474 99.8137 196.094 93.2638 200.877C93.0736 201.013 92.8834 201.068 92.6659 201.068L92.6388 201.013Z" fill="black"/>
<path d="M108.861 204.873C108.562 204.873 108.236 204.737 108.046 204.465C107.72 204.003 107.801 203.378 108.236 203.025C112.259 199.981 116.444 197.018 120.656 194.219C121.119 193.893 121.771 194.029 122.07 194.491C122.369 194.953 122.26 195.605 121.798 195.904C117.613 198.703 113.482 201.639 109.486 204.655C109.296 204.791 109.079 204.873 108.861 204.873Z" fill="black"/>
<path d="M85.5995 166.253H85.5451C85.3548 166.225 85.219 166.062 85.2461 165.872L86.3876 157.447C86.3876 157.257 86.5779 157.121 86.7681 157.148C86.9583 157.148 87.0942 157.338 87.0671 157.529L85.9256 165.954C85.9256 166.117 85.7625 166.253 85.5995 166.253Z" fill="black"/>
<path d="M92.0147 162.23H91.9875C91.7972 162.23 91.6613 162.04 91.6885 161.85L93.5094 144.972C93.5094 144.782 93.6997 144.646 93.8899 144.673C94.0802 144.673 94.2161 144.864 94.1889 145.054L92.368 161.931C92.368 162.094 92.2049 162.23 92.0418 162.23H92.0147Z" fill="black"/>
<path d="M98.8608 160.192H98.8337C98.6434 160.192 98.5075 160.002 98.5347 159.812L100.546 140.108C100.546 139.918 100.736 139.782 100.926 139.809C101.117 139.809 101.252 139.999 101.225 140.189L99.2142 159.893C99.2142 160.056 99.0511 160.192 98.888 160.192H98.8608Z" fill="black"/>
<path d="M105.873 155.273C105.682 155.273 105.546 155.11 105.546 154.92C105.873 149.729 106.525 144.511 107.476 139.428C107.503 139.238 107.693 139.13 107.884 139.157C108.074 139.184 108.183 139.374 108.155 139.564C107.204 144.647 106.579 149.838 106.253 154.974C106.253 155.164 106.09 155.3 105.927 155.3L105.873 155.273Z" fill="black"/>
<path d="M112.995 152.284H112.967C112.777 152.284 112.641 152.093 112.669 151.903L114.082 139.7C114.082 139.51 114.272 139.374 114.462 139.401C114.652 139.401 114.788 139.592 114.761 139.782L113.348 151.985C113.348 152.148 113.185 152.284 113.022 152.284H112.995Z" fill="black"/>
<path d="M120.224 146.957C120.224 146.957 120.17 146.957 120.143 146.957C119.953 146.902 119.844 146.739 119.898 146.549L121.312 140.516C121.366 140.325 121.529 140.217 121.719 140.271C121.909 140.325 122.018 140.488 121.964 140.679L120.551 146.712C120.523 146.875 120.387 146.984 120.224 146.984V146.957Z" fill="black"/>
<path d="M120.793 219.168C120.603 219.168 120.467 219.032 120.467 218.842L120.386 212.455C120.386 212.265 120.522 212.102 120.712 212.102C120.902 212.102 121.038 212.238 121.038 212.428L121.12 218.815C121.12 219.005 120.984 219.168 120.793 219.168Z" fill="black"/>
<path d="M127.288 217.728C127.125 217.728 126.962 217.592 126.962 217.429C126.555 214.249 126.364 211.015 126.419 207.835C126.419 207.645 126.582 207.509 126.772 207.509C126.962 207.509 127.098 207.672 127.098 207.863C127.044 211.015 127.234 214.222 127.642 217.375C127.642 217.565 127.533 217.728 127.343 217.755H127.288V217.728Z" fill="black"/>
<path d="M133.732 217.619C133.569 217.619 133.433 217.51 133.406 217.347C132.699 213.053 132.183 208.677 131.856 204.302C131.856 204.111 131.992 203.948 132.183 203.948C132.373 203.948 132.536 204.084 132.536 204.274C132.862 208.596 133.378 212.971 134.085 217.238C134.112 217.428 134.003 217.591 133.813 217.619H133.759H133.732Z" fill="black"/>
<path d="M140.716 214.548C140.553 214.548 140.417 214.439 140.39 214.276L137.862 199.736C137.835 199.546 137.944 199.382 138.134 199.355C138.324 199.328 138.487 199.437 138.514 199.627L141.042 214.167C141.069 214.357 140.96 214.52 140.77 214.548H140.716Z" fill="black"/>
<path d="M147.593 210.77C147.457 210.77 147.321 210.661 147.267 210.525C145.663 204.872 144.576 199.029 143.978 193.186C143.978 192.996 144.087 192.833 144.277 192.805C144.467 192.805 144.63 192.914 144.657 193.104C145.255 198.92 146.342 204.709 147.946 210.335C148 210.525 147.892 210.716 147.701 210.743C147.674 210.743 147.647 210.743 147.62 210.743L147.593 210.77Z" fill="black"/>
<path d="M153.271 203.731C153.107 203.731 152.972 203.622 152.944 203.486C151.749 198.893 150.716 194.165 149.873 189.49C149.846 189.3 149.955 189.137 150.145 189.082C150.335 189.055 150.498 189.164 150.553 189.354C151.395 194.029 152.428 198.703 153.624 203.296C153.678 203.486 153.569 203.677 153.379 203.704C153.352 203.704 153.325 203.704 153.298 203.704L153.271 203.731Z" fill="black"/>
<path d="M158.055 193.512C157.892 193.512 157.756 193.404 157.729 193.241L155.962 185.576C155.908 185.386 156.044 185.223 156.207 185.169C156.397 185.114 156.56 185.25 156.615 185.413L158.381 193.077C158.436 193.268 158.3 193.431 158.137 193.485C158.137 193.485 158.082 193.485 158.055 193.485V193.512Z" fill="black"/>
<g opacity="0.13">
<path opacity="0.13" d="M241.355 92.4108C239.452 92.5738 239.778 93.4707 239.126 94.3404C232.576 106.353 226.76 118.692 221.026 132.172C217.764 133.612 214.802 135.732 211.785 137.662C207.328 140.298 196.267 148.533 191.701 151.441C184.961 155.626 175.149 162.475 167.078 167.585C157.837 173.238 150.091 178.238 141.857 183.511C139.873 184.761 137.128 186.636 136.475 187.044C135.769 187.506 134.899 187.859 134.627 188.702C134.084 190.088 135.307 191.528 136.666 191.474C136.747 192.181 137.236 192.778 137.834 193.132C137.97 193.73 138.351 194.246 138.949 194.545C139.411 195.17 140.172 195.578 140.987 195.388C141.422 195.279 141.802 195.034 142.183 194.79C146.205 194.545 150.119 193.077 154.032 192.126C155.092 191.827 156.152 191.528 157.212 191.256C157.919 191.039 158.734 190.876 159.25 190.278C159.441 190.061 159.604 189.816 159.74 189.571C161.071 189.028 161.533 187.452 161.669 186.093C161.832 184.897 161.968 183.701 161.941 182.505C161.941 182.342 161.941 182.098 161.887 181.88V181.799C161.887 181.799 161.887 181.608 161.887 181.527C161.941 181.201 161.995 180.847 161.941 180.521V180.467C161.941 180.467 161.995 180.331 162.022 180.277C162.512 179.081 161.724 177.64 160.392 177.532C159.875 177.477 159.413 177.695 158.979 177.939C168.246 172.259 177.514 166.525 186.455 160.301C192.135 156.415 195.506 154.485 201.457 150.3C201.539 150.3 201.621 150.3 201.729 150.3C203.007 149.919 203.903 148.805 205.045 148.125C208.306 145.734 216.46 141.874 221.379 138.314C222.412 137.662 223.336 136.847 224.124 135.922C224.314 136.167 224.586 136.384 224.993 136.575C226.896 137.173 227.385 135.189 228.01 133.857C228.989 131.764 229.967 129.672 230.782 127.525C233.718 118.855 237.169 110.375 240.512 101.841C240.594 101.733 240.648 101.624 240.702 101.488C240.702 101.379 240.757 101.271 240.784 101.162C240.974 100.673 241.164 100.211 241.327 99.7488C241.599 99.1237 241.653 98.4171 241.409 97.8735C241.898 96.8679 242.414 95.8895 242.904 94.8839C243.311 93.7968 242.496 92.5738 241.355 92.4923V92.4108Z" fill="black"/>
</g>
<path d="M143.922 189.653C143.595 189.653 143.269 189.49 143.079 189.191L119.353 153.452C119.054 152.99 119.163 152.338 119.625 152.039C120.087 151.74 120.739 151.849 121.038 152.311L144.764 188.05C145.063 188.512 144.954 189.164 144.492 189.463C144.329 189.572 144.112 189.626 143.922 189.626V189.653Z" fill="black"/>
<g opacity="0.13">
<path opacity="0.13" d="M199.067 131.33C199.013 129.998 199.394 128.422 198.633 127.253C197.518 125.35 194.447 126.166 194.311 128.34C194.067 136.684 190.017 141.114 182.625 143.831C181.837 144.076 180.994 144.266 180.152 144.321H180.07C180.07 144.321 180.016 144.321 179.989 144.321H180.043C179.69 144.375 179.336 144.538 179.065 144.755C177.651 145.897 178.575 148.37 180.396 148.289C186.973 148.316 193.795 144.864 197.029 139.048C198.442 136.711 198.986 133.993 199.04 131.275L199.067 131.33Z" fill="black"/>
</g>
</svg>
