<svg width="137" height="186" viewBox="0 0 137 186" fill="none" xmlns="http://www.w3.org/2000/svg">
<g id="SETTINGS ICON">
<path id="Rectangle 25" d="M57.55 177.633C56.3581 177.118 56.1715 175.855 57.1997 175.261L109.339 145.158C109.901 144.834 110.682 144.812 111.327 145.104L120.885 149.432C122.053 149.961 122.217 151.209 121.194 151.793L68.9256 181.645C68.3747 181.959 67.6155 181.985 66.9793 181.71L57.55 177.633Z" fill="#333333" fill-opacity="0.1"/>
<path id="Rectangle 129" d="M10.9463 106.822C9.96677 106.231 9.91891 105.117 10.85 104.58L40.9548 87.1989C41.5974 86.8279 42.5135 86.8584 43.1828 87.2732L51.4031 92.3677C52.369 92.9664 52.4007 94.0742 51.467 94.6035L21.2116 111.757C20.5765 112.117 19.6799 112.089 19.016 111.689L10.9463 106.822Z" fill="#333333" fill-opacity="0.1"/>
<g id="Group 3171">
<g id="Group 3169">
<path id="icon/action/settings_24px" fill-rule="evenodd" clip-rule="evenodd" d="M118.533 66.977C118.533 68.8121 118.393 70.6202 118.206 72.4553L128.068 75.6667C128.956 75.9635 129.19 77.2858 128.629 78.7971L119.281 102.869C118.72 104.38 117.505 105.568 116.43 105.703L104.791 107.025C102.36 110.533 99.7428 113.879 96.8916 116.875L95.1154 132.203C94.9751 133.579 93.9936 135.118 92.825 135.792L81 149.5L80.7812 149.436C72.491 146.997 71.977 146.846 71.8379 145.642L70.0618 132.365C67.2105 132.662 64.593 132.392 62.1624 131.636L57 147.5C55.3195 146.983 53.922 146.571 52.7637 146.23C49.442 145.251 48.0883 144.852 47.6724 144.212L38.3241 130.935C37.7632 130.071 37.9969 128.479 38.885 127.157L48.7475 112.557C48.5605 110.938 48.4203 109.238 48.4203 107.457C48.4203 105.676 48.5605 103.813 48.7475 101.978L38.885 98.767C37.9969 98.4702 37.7164 97.1748 38.3241 95.6366L47.6724 71.5647C48.2333 70.0535 49.4486 68.8661 50.5237 68.7312L62.1624 67.4088C64.593 63.9006 67.2105 60.5543 70.0618 57.5588L71.8379 42.2305C71.9782 40.8542 72.9598 39.316 74.1283 38.6413L92.825 27.8468C93.6855 27.35 94.7291 27.6679 98.0141 28.6685C99.1905 29.0268 100.654 29.4727 102.5 30L96.8916 42.0686C99.7428 41.7717 102.36 42.0416 104.791 42.7972L116.43 30.6803C117.167 29.945 118.168 30.1715 121.441 30.9115C122.733 31.2035 124.378 31.5755 126.5 32L128.629 43.4989C129.19 44.3624 128.956 45.9546 128.068 47.277L118.206 61.8766C118.393 63.4958 118.533 65.142 118.533 66.977ZM67.1166 96.6623C67.1166 107.079 74.4551 111.316 83.4763 106.108C92.4974 100.899 99.8359 88.1885 99.8359 77.7718C99.8359 67.355 92.4974 63.1182 83.4763 68.3266C74.4551 73.5349 67.1166 86.2455 67.1166 96.6623Z" fill="#04AAE4"/>
<path id="icon/action/settings_24px_2" fill-rule="evenodd" clip-rule="evenodd" d="M126.533 69.5315C126.533 71.3666 126.393 73.1746 126.206 75.0097L136.068 78.2211C136.956 78.5179 137.19 79.8403 136.629 81.3515L127.281 105.423C126.72 106.935 125.505 108.122 124.43 108.257L112.791 109.579C110.36 113.088 107.743 116.434 104.892 119.429L103.115 134.758C102.975 136.134 101.994 137.672 100.825 138.347L82.1283 149.141C80.9598 149.816 79.9782 149.411 79.8379 148.197L78.0618 134.92C75.2105 135.216 72.593 134.947 70.1624 134.191L58.5237 146.308C57.4954 147.333 56.2333 147.63 55.6724 146.767L46.3241 133.489C45.7632 132.626 45.9969 131.033 46.885 129.711L56.7475 115.111C56.5605 113.492 56.4203 111.792 56.4203 110.011C56.4203 108.23 56.5605 106.368 56.7475 104.533L46.885 101.321C45.9969 101.025 45.7164 99.7293 46.3241 98.191L55.6724 74.1192C56.2333 72.6079 57.4486 71.4205 58.5237 71.2856L70.1624 69.9633C72.593 66.455 75.2105 63.1087 78.0618 60.1132L79.8379 44.785C79.9782 43.4086 80.9598 41.8704 82.1283 41.1958L100.825 30.4012C101.994 29.7265 102.975 30.1313 103.115 31.3457L104.892 44.623C107.743 44.3262 110.36 44.5961 112.791 45.3517L124.43 33.2348C125.458 32.2093 126.72 31.9124 127.281 32.776L136.629 46.0533C137.19 46.9169 136.956 48.5091 136.068 49.8314L126.206 64.431C126.393 66.0502 126.533 67.6964 126.533 69.5315ZM75.1166 99.2167C75.1166 109.633 82.4551 113.87 91.4763 108.662C100.497 103.454 107.836 90.743 107.836 80.3262C107.836 69.9095 100.497 65.6726 91.4763 70.881C82.4551 76.0894 75.1166 88.8 75.1166 99.2167Z" fill="#4ECDF9"/>
</g>
<g id="Group 3170">
<path id="icon/action/settings_24px_3" fill-rule="evenodd" clip-rule="evenodd" d="M47.3237 35.2444C47.3237 36.3227 47.2413 37.3852 47.1315 38.4636L52.927 40.3507C53.4489 40.5251 53.5862 41.3022 53.2566 42.1902L47.7632 56.3356C47.4336 57.2236 46.7195 57.9214 46.0877 58.0007L39.2484 58.7777C37.8202 60.8393 36.282 62.8057 34.6065 64.5659L33.5628 73.5733C33.4804 74.3821 32.9036 75.286 32.2169 75.6824L25.2682 83.7375L25.1396 83.6997C20.268 82.2669 19.9659 82.1781 19.8842 81.4706L18.8405 73.6685C17.165 73.8429 15.6269 73.6843 14.1986 73.2403L11.165 82.5622C10.1775 82.2584 9.3563 82.0164 8.67569 81.8159C6.72368 81.2408 5.92822 81.0064 5.68382 80.6301L0.190433 72.828C-0.139171 72.3205 -0.00183588 71.3849 0.520036 70.6079L6.31556 62.0286C6.2057 61.0772 6.1233 60.0781 6.1233 59.0315C6.1233 57.9848 6.2057 56.8906 6.31556 55.8123L0.520036 53.9252C-0.00183588 53.7507 -0.166638 52.9896 0.190433 52.0856L5.68382 37.9403C6.01343 37.0522 6.72757 36.3545 7.35931 36.2752L14.1986 35.4981C15.6269 33.4366 17.165 31.4702 18.8405 29.7099L19.8842 20.7026C19.9666 19.8938 20.5434 18.9899 21.2301 18.5934L32.2169 12.2502C32.7225 11.9583 33.3358 12.1451 35.2662 12.7331C35.9575 12.9436 36.8176 13.2056 37.9022 13.5155L34.6065 20.6074C36.282 20.433 37.8202 20.5915 39.2484 21.0356L46.0877 13.9153C46.521 13.4832 47.1095 13.6163 49.0326 14.0511C49.7915 14.2228 50.7583 14.4414 52.0054 14.6908L53.2566 21.4479C53.5862 21.9553 53.4489 22.891 52.927 23.668L47.1315 32.2472C47.2413 33.1987 47.3237 34.166 47.3237 35.2444ZM17.1099 52.6884C17.1099 58.8096 21.4222 61.2993 26.7233 58.2387C32.0244 55.1781 36.3368 47.7089 36.3368 41.5877C36.3368 35.4665 32.0244 32.9768 26.7233 36.0374C21.4222 39.098 17.1099 46.5672 17.1099 52.6884Z" fill="#C10000"/>
<path id="icon/action/settings_24px_4" fill-rule="evenodd" clip-rule="evenodd" d="M52.0248 36.7455C52.0248 37.8238 51.9424 38.8863 51.8325 39.9646L57.628 41.8518C58.1499 42.0262 58.2872 42.8032 57.9576 43.6913L52.4643 57.8367C52.1347 58.7247 51.4205 59.4225 50.7888 59.5018L43.9495 60.2788C42.5212 62.3404 40.9831 64.3068 39.3076 66.067L38.2638 75.0744C38.1814 75.8831 37.6046 76.787 36.918 77.1835L25.9312 83.5267C25.2445 83.9232 24.6677 83.6853 24.5853 82.9717L23.5415 75.1695C21.8661 75.344 20.3279 75.1854 18.8996 74.7414L12.0604 81.8616C11.4561 82.4642 10.7145 82.6387 10.3849 82.1312L4.89148 74.329C4.56188 73.8216 4.69921 72.886 5.22109 72.1089L11.0166 63.5297C10.9067 62.5782 10.8243 61.5792 10.8243 60.5325C10.8243 59.4859 10.9067 58.3917 11.0166 57.3134L5.22109 55.4262C4.69921 55.2518 4.53441 54.4906 4.89148 53.5867L10.3849 39.4413C10.7145 38.5533 11.4286 37.8555 12.0604 37.7762L18.8996 36.9992C20.3279 34.9376 21.8661 32.9712 23.5415 31.211L24.5853 22.2036C24.6677 21.3949 25.2445 20.4909 25.9312 20.0945L36.918 13.7513C37.6046 13.3548 38.1814 13.5927 38.2638 14.3063L39.3076 22.1085C40.9831 21.934 42.5212 22.0926 43.9495 22.5366L50.7888 15.4164C51.393 14.8138 52.1347 14.6393 52.4643 15.1468L57.9576 22.9489C58.2872 23.4564 58.1499 24.392 57.628 25.1691L51.8325 33.7483C51.9424 34.6998 52.0248 35.6671 52.0248 36.7455ZM21.8108 54.1894C21.8108 60.3106 26.1231 62.8003 31.4243 59.7397C36.7254 56.6791 41.0377 49.21 41.0377 43.0888C41.0377 36.9676 36.7254 34.4778 31.4243 37.5385C26.1231 40.5991 21.8108 48.0682 21.8108 54.1894Z" fill="#E40D0D"/>
</g>
</g>
</g>
</svg>
