<?xml version="1.0"?>
<svg xmlns="http://www.w3.org/2000/svg" viewBox="0 0 16.509 16.993">
  <g transform="translate(-6.85)">
    <g transform="translate(6.85)">
      <path d="M175.051,8.283V.478a.478.478,0,1,0-.955,0v7.8a2.425,2.425,0,0,0,0,4.755v3.474a.478.478,0,1,0,.955,0V13.038a2.425,2.425,0,0,0,0-4.755Zm-.478,3.846a1.468,1.468,0,1,1,1.468-1.468A1.469,1.469,0,0,1,174.574,12.129Z" transform="translate(-166.302 0)"/>
      <path d="M9.751,4.278V.478a.478.478,0,0,0-.955,0v3.8a2.425,2.425,0,0,0,0,4.755v7.479a.478.478,0,0,0,.955,0V9.029a2.423,2.423,0,0,0,0-4.752ZM9.274,8.123a1.468,1.468,0,1,1,1.468-1.468A1.469,1.469,0,0,1,9.274,8.123Z" transform="translate(-6.85 0)"/>
      <path d="M339.351,4.278V.478a.478.478,0,0,0-.955,0v3.8a2.425,2.425,0,0,0,0,4.755v7.483a.478.478,0,0,0,.955,0V9.029a2.423,2.423,0,0,0,0-4.752Zm-.478,3.846a1.468,1.468,0,1,1,1.468-1.468A1.469,1.469,0,0,1,338.874,8.123Z" transform="translate(-324.789 0)"/>
    </g>
  </g>
</svg>
