<svg width="24px" height="16px" viewBox="0 0 24 16" xmlns="http://www.w3.org/2000/svg">
  <g stroke="none" stroke-width="1" fill="none" fill-rule="evenodd">
    <g transform="translate(-489, -731)" fill="#FFF" fill-rule="nonzero">
      <g transform="translate(0, 708)">
        <g transform="translate(440, 0)">
          <path d="M72.296875,35.4494196 C72.6528281,35.4494196 72.9470208,35.7013154 72.9935811,36.0281891 L73,36.1190625 L73,37.4732143 C73,37.8122173 72.7354701,38.0924008 72.3922822,38.1367439 L72.296875,38.1428571 L64.103125,38.1428571 C63.7471719,38.1428571 63.4529792,37.8909239 63.4064189,37.5640783 L63.4,37.4732143 L63.4,36.1190625 C63.4,35.7800595 63.6645299,35.499876 64.0077178,35.4555329 L64.103125,35.4494196 L72.296875,35.4494196 Z M59.4968594,35.4494196 C59.8528555,35.4494196 60.1470124,35.7013154 60.1935663,36.0281891 L60.1999844,36.1190625 L60.1999844,37.4732143 C60.1999844,37.8122173 59.9354544,38.0924008 59.5922666,38.1367439 L59.4968594,38.1428571 L51.3031094,38.1428571 C50.9471562,38.1428571 50.6529635,37.8909239 50.6064033,37.5640783 L50.5999844,37.4732143 L50.5999844,36.1190625 C50.5999844,35.7800595 50.8645143,35.499876 51.2077021,35.4555329 L51.3031094,35.4494196 L59.4968594,35.4494196 Z M72.296875,31.4166518 C72.6528281,31.4166518 72.9470208,31.6685851 72.9935811,31.9954306 L73,32.0862946 L73,33.4404464 C73,33.7794494 72.7354701,34.0596329 72.3922822,34.103976 L72.296875,34.1100893 L64.103125,34.1100893 C63.7471719,34.1100893 63.4529792,33.858156 63.4064189,33.5313105 L63.4,33.4404464 L63.4,32.0862946 C63.4,31.7472917 63.6645299,31.4671081 64.0077178,31.4227651 L64.103125,31.4166518 L72.296875,31.4166518 Z M59.4968594,31.4166518 C59.8528555,31.4166518 60.1470124,31.6685851 60.1935663,31.9954306 L60.1999844,32.0862946 L60.1999844,33.4404464 C60.1999844,33.7794494 59.9354544,34.0596329 59.5922666,34.103976 L59.4968594,34.1100893 L51.3031094,34.1100893 C50.9471562,34.1100893 50.6529635,33.858156 50.6064033,33.5313105 L50.5999844,33.4404464 L50.5999844,32.0862946 C50.5999844,31.7472917 50.8645143,31.4671081 51.2077021,31.4227651 L51.3031094,31.4166518 L59.4968594,31.4166518 Z M57.896875,27.3839286 C58.2528281,27.3839286 58.5470208,27.6358619 58.5935811,27.9627074 L58.6,28.0535714 L58.6,29.4077232 C58.6,29.7467671 58.3354701,30.0269165 57.9922822,30.0712536 L57.896875,30.0773661 L49.703125,30.0773661 C49.3471719,30.0773661 49.0529792,29.8254328 49.0064189,29.4985872 L49,29.4077232 L49,28.0535714 C49,27.7145685 49.2645299,27.4343849 49.6077178,27.3900419 L49.703125,27.3839286 L57.896875,27.3839286 Z M59.4968594,23.3512054 C59.8528555,23.3512054 60.1470124,23.6031011 60.1935663,23.9299748 L60.1999844,24.0208482 L60.1999844,25.375 C60.1999844,25.714003 59.9354544,25.9941865 59.5922666,26.0385296 L59.4968594,26.0446429 L51.3031094,26.0446429 C50.9471562,26.0446429 50.6529635,25.7927096 50.6064033,25.465864 L50.5999844,25.375 L50.5999844,24.0208482 C50.5999844,23.6818452 50.8645143,23.4016617 51.2077021,23.3573186 L51.3031094,23.3512054 L59.4968594,23.3512054 Z"></path>
        </g>
      </g>
    </g>
  </g>
</svg>
