<svg width="168px" height="104px" viewBox="0 0 168 104"  xmlns="http://www.w3.org/2000/svg">
  <g stroke="none" stroke-width="1" fill="none" fill-rule="evenodd">
    <g transform="translate(-140, -1335)" fill="#F6F6F6" fill-rule="nonzero">
      <g transform="translate(140, 1335)">
        <path d="M163.078125,85.0624598 C165.569797,85.0624598 167.629146,86.8335372 167.955067,89.1317838 L168,89.7707141 L168,99.2917458 C168,101.675273 166.14829,103.645242 163.745976,103.957018 L163.078125,104 L105.721875,104 C103.230203,104 101.170854,102.228659 100.844933,99.9306101 L100.8,99.2917458 L100.8,89.7707141 C100.8,87.3871865 102.65171,85.4172181 105.054024,85.1054423 L105.721875,85.0624598 L163.078125,85.0624598 Z M73.4780156,85.0624598 C75.9699883,85.0624598 78.0290866,86.8335372 78.3549643,89.1317838 L78.3998906,89.7707141 L78.3998906,99.2917458 C78.3998906,101.675273 76.548181,103.645242 74.1458662,103.957018 L73.4780156,104 L16.1217656,104 C13.6300937,104 11.5707448,102.228659 11.2448232,99.9306101 L11.1998906,99.2917458 L11.1998906,89.7707141 C11.1998906,87.3871865 13.0516003,85.4172181 15.453915,85.1054423 L16.1217656,85.0624598 L73.4780156,85.0624598 Z M163.078125,56.7080973 C165.569797,56.7080973 167.629146,58.4794384 167.955067,60.7774872 L168,61.4163515 L168,70.9373832 C168,73.3209108 166.14829,75.2908792 163.745976,75.602655 L163.078125,75.6456375 L105.721875,75.6456375 C103.230203,75.6456375 101.170854,73.8742963 100.844933,71.5762476 L100.8,70.9373832 L100.8,61.4163515 C100.8,59.032824 102.65171,57.0628555 105.054024,56.7510797 L105.721875,56.7080973 L163.078125,56.7080973 Z M73.4780156,56.7080973 C75.9699883,56.7080973 78.0290866,58.4794384 78.3549643,60.7774872 L78.3998906,61.4163515 L78.3998906,70.9373832 C78.3998906,73.3209108 76.548181,75.2908792 74.1458662,75.602655 L73.4780156,75.6456375 L16.1217656,75.6456375 C13.6300937,75.6456375 11.5707448,73.8742963 11.2448232,71.5762476 L11.1998906,70.9373832 L11.1998906,61.4163515 C11.1998906,59.032824 13.0516003,57.0628555 15.453915,56.7510797 L16.1217656,56.7080973 L73.4780156,56.7080973 Z M62.278125,28.3540486 C64.7697969,28.3540486 66.8291458,30.1253898 67.1550674,32.4234386 L67.2,33.0623029 L67.2,42.5833346 C67.2,44.9671499 65.3482904,46.9368785 62.9459756,47.2486124 L62.278125,47.2915888 L4.921875,47.2915888 C2.43020313,47.2915888 0.370854167,45.5202477 0.0449326172,43.2221989 L0,42.5833346 L0,33.0623029 C0,30.6787753 1.85170964,28.7088069 4.25402441,28.3970311 L4.921875,28.3540486 L62.278125,28.3540486 Z M73.4780156,0 C75.9699883,0 78.0290866,1.7710774 78.3549643,4.06932397 L78.3998906,4.70825423 L78.3998906,14.2292859 C78.3998906,16.6128135 76.548181,18.5827819 74.1458662,18.8945577 L73.4780156,18.9375402 L16.1217656,18.9375402 C13.6300937,18.9375402 11.5707448,17.166199 11.2448232,14.8681503 L11.1998906,14.2292859 L11.1998906,4.70825423 C11.1998906,2.32472668 13.0516003,0.354758238 15.453915,0.0429824376 L16.1217656,0 L73.4780156,0 Z"></path>
      </g>
    </g>
  </g>
</svg>
