<svg xmlns="http://www.w3.org/2000/svg" viewBox="0 0 825.480144 126.816462">
<g transform="translate(-41.001240,161) scale(0.095238,-0.095238)"
fill="#bababa" stroke="none">
<path d="M8308 1479 c-82 -168 -111 -217 -129 -222 -13 -4 -119 -20 -237 -36
-118 -16 -214 -32 -214 -36 0 -3 76 -81 169 -173 166 -164 168 -167 161 -203
-25 -133 -74 -432 -71 -435 2 -2 99 46 215 107 l211 110 86 -43 c46 -24 143
-74 213 -112 113 -60 129 -66 129 -47 0 11 -17 114 -37 227 -20 114 -36 213
-36 220 0 6 75 86 167 178 92 91 166 169 163 173 -3 4 -32 11 -65 15 -97 11
-353 48 -379 55 -19 4 -47 51 -133 222 l-108 217 -105 -217z"/>
<path d="M6556 1625 c-16 -30 -63 -125 -105 -210 -75 -151 -77 -154 -116 -161
-22 -4 -127 -20 -234 -35 -106 -15 -194 -32 -195 -38 -1 -6 70 -79 158 -162
88 -84 163 -160 167 -170 3 -9 -10 -115 -31 -234 -21 -120 -36 -224 -34 -231
2 -9 73 23 208 95 112 60 210 109 216 109 6 0 104 -49 217 -109 114 -60 208
-107 210 -105 4 4 1 22 -51 314 l-27 157 169 166 c93 92 166 171 163 175 -2 5
-32 12 -65 16 -85 10 -338 46 -373 54 -27 5 -41 28 -131 215 -56 115 -105 209
-110 209 -4 0 -21 -25 -36 -55z"/>
</g>
</svg>
