<svg xmlns="http://www.w3.org/2000/svg" viewBox="0 0 825.480144 126.816462">
<g transform="translate(-41.001240,161) scale(0.095238,-0.095238)"
fill="#ffb605" stroke="none">
<path d="M8308 1479 c-82 -168 -111 -217 -129 -222 -13 -4 -119 -20 -237 -36
-118 -16 -214 -32 -214 -36 0 -3 76 -81 169 -173 166 -164 168 -167 161 -203
-25 -133 -74 -432 -71 -435 2 -2 99 46 215 107 l211 110 86 -43 c46 -24 143
-74 213 -112 113 -60 129 -66 129 -47 0 11 -17 114 -37 227 -20 114 -36 213
-36 220 0 6 75 86 167 178 92 91 166 169 163 173 -3 4 -32 11 -65 15 -97 11
-353 48 -379 55 -19 4 -47 51 -133 222 l-108 217 -105 -217z"/>
<path d="M1005 1471 c-77 -158 -107 -210 -124 -214 -13 -4 -119 -20 -237 -36
-117 -16 -213 -32 -213 -36 0 -3 75 -81 167 -173 l168 -167 -36 -212 c-20
-117 -40 -225 -43 -240 -7 -27 2 -24 191 74 109 57 206 108 216 115 20 12 61
-7 321 -146 110 -59 129 -65 129 -48 0 11 -12 83 -26 160 -14 77 -31 176 -38
219 l-13 80 169 166 c93 91 167 169 165 174 -3 4 -32 11 -66 15 -94 11 -352
47 -378 53 -19 4 -46 50 -129 215 -57 116 -109 210 -113 210 -5 0 -55 -94
-110 -209z"/>
<path d="M2829 1471 c-76 -157 -108 -211 -124 -215 -12 -3 -114 -18 -227 -33
-113 -15 -212 -30 -220 -33 -11 -3 39 -58 159 -175 l175 -170 -35 -199 c-19
-110 -38 -218 -42 -241 l-8 -41 119 63 c66 35 164 86 218 115 l98 51 59 -32
c336 -177 370 -194 370 -180 0 8 -12 76 -26 150 -13 75 -31 177 -38 226 l-13
91 170 166 c93 91 166 169 162 173 -5 4 -103 20 -219 35 -115 16 -220 31 -232
34 -17 4 -46 55 -123 215 -55 115 -105 209 -110 209 -6 0 -56 -94 -113 -209z"/>
<path d="M4655 1473 c-56 -114 -102 -210 -104 -212 -2 -2 -107 -18 -234 -36
-127 -19 -234 -36 -237 -39 -3 -4 70 -82 164 -174 l170 -167 -40 -234 c-22
-129 -38 -236 -36 -238 2 -2 97 45 211 105 114 61 211 110 216 110 5 0 103
-49 218 -109 115 -61 211 -108 212 -107 3 3 -14 105 -62 363 l-20 110 168 163
c93 90 169 168 169 174 0 6 -94 23 -214 39 -117 16 -222 32 -234 35 -15 4 -51
65 -125 215 -57 115 -108 209 -113 209 -5 0 -54 -93 -109 -207z"/>
<path d="M6556 1625 c-16 -30 -63 -125 -105 -210 -75 -151 -77 -154 -116 -161
-22 -4 -127 -20 -234 -35 -106 -15 -194 -32 -195 -38 -1 -6 70 -79 158 -162
88 -84 163 -160 167 -170 3 -9 -10 -115 -31 -234 -21 -120 -36 -224 -34 -231
2 -9 73 23 208 95 112 60 210 109 216 109 6 0 104 -49 217 -109 114 -60 208
-107 210 -105 4 4 1 22 -51 314 l-27 157 169 166 c93 92 166 171 163 175 -2 5
-32 12 -65 16 -85 10 -338 46 -373 54 -27 5 -41 28 -131 215 -56 115 -105 209
-110 209 -4 0 -21 -25 -36 -55z"/>
</g>
</svg>
