<svg xmlns="http://www.w3.org/2000/svg" viewBox="0 0 1343.988410 1343.824912">
<g transform="translate(-30.001409,1403.822196) scale(0.095238,-0.095238)"
fill="#0AAD03">
<path d="M6941 14730 c-1257 -78 -2473 -492 -3517 -1195 -629 -424 -1213 -977
-1672 -1582 -1181 -1557 -1664 -3524 -1337 -5449 214 -1262 758 -2423 1602
-3415 180 -211 546 -577 757 -757 611 -519 1264 -914 1992 -1203 2168 -861
4616 -597 6552 708 629 424 1213 977 1672 1582 690 910 1147 1963 1337 3085
304 1790 -92 3623 -1107 5129 -424 629 -977 1213 -1582 1672 -1123 852 -2446
1340 -3868 1426 -200 13 -624 12 -829 -1z m766 -1007 c405 -24 745 -76 1118
-169 2178 -540 3874 -2236 4414 -4414 345 -1387 188 -2840 -445 -4126 -588
-1196 -1555 -2163 -2751 -2751 -1690 -832 -3654 -832 -5344 0 -1598 786 -2767
2237 -3196 3969 -345 1387 -188 2840 445 4126 786 1598 2237 2767 3969 3196
586 146 1210 205 1790 169z"/>
<path d="M9491 9766 c-21 -4 -59 -20 -84 -35 -26 -16 -639 -620 -1406 -1388
l-1360 -1360 -645 644 c-440 438 -659 650 -687 663 -23 10 -71 21 -106 23 -55
5 -75 1 -128 -23 -56 -25 -105 -69 -410 -376 -221 -223 -353 -364 -366 -391
-14 -29 -20 -66 -20 -120 0 -145 -58 -80 1057 -1194 969 -966 1003 -1000 1080
-1036 159 -78 310 -78 466 0 80 40 3523 3481 3562 3560 23 48 26 66 23 131 -3
46 -13 94 -25 119 -12 26 -144 168 -361 386 -365 368 -393 390 -500 400 -29 3
-69 2 -90 -3z"/>
</g>
</svg>
