<?xml version="1.0" encoding="UTF-8"?>
<svg width="95px" height="95px" viewBox="0 0 95 95" version="1.1" xmlns="http://www.w3.org/2000/svg" xmlns:xlink="http://www.w3.org/1999/xlink">
    <title>success-icon</title>
    <g id="Landings" stroke="none" stroke-width="1" fill="none" fill-rule="evenodd">
        <g id="ABP-after_donation" transform="translate(-673.000000, -172.000000)" fill="#0AAD03" fill-rule="nonzero">
            <g id="Hero-copy" transform="translate(316.000000, 172.000000)">
                <path d="M404.5,0 C430.733526,0 452,21.2664744 452,47.5 C452,73.7335256 430.733526,95 404.5,95 C378.266474,95 357,73.7335256 357,47.5 C357,21.2664744 378.266474,0 404.5,0 Z M430.462291,27.0799223 C429.719282,26.4194699 428.602327,26.4481121 427.89405,27.1198123 L427.779922,27.2377087 L398.577,60.089 L380.986921,46.0163493 L380.854549,45.9193831 C380.043161,45.3767172 378.937366,45.5368079 378.316349,46.3130794 C377.695332,47.0893509 377.781881,48.2033164 378.489421,48.8757928 L378.613079,48.9836507 L397.613079,64.1836507 L397.747817,64.2821786 C398.482497,64.7717956 399.46227,64.6886033 400.103881,64.0821259 L400.220078,63.9622913 L430.620078,29.7622913 L430.72378,29.6351282 C431.307809,28.8529851 431.2053,27.7403747 430.462291,27.0799223 Z" id="success-icon"></path>
            </g>
        </g>
    </g>
</svg>