<svg width="151" height="153" viewBox="0 0 151 153" fill="none" xmlns="http://www.w3.org/2000/svg">
<g clip-path="url(#clip0_4757_9740)">
<path d="M25.923 46.2085C26.5588 46.9911 26.0575 48.1894 25.3727 48.9353C24.688 49.6811 23.7953 50.3415 23.5752 51.3197C23.2329 52.8604 24.6757 54.181 25.9719 55.098C25.7885 56.7977 25.5806 58.5585 24.6391 59.9891C24.3211 60.466 23.9176 60.9062 23.7587 61.4564C23.4652 62.4224 23.9543 63.4373 23.991 64.7335C17.0089 72.009 13.6341 81.9134 10.4916 91.3043C13.1083 91.4143 15.6639 92.4904 18.2806 92.258C18.9409 92.1969 19.589 92.0624 20.2493 92.0502C21.8511 92.0257 23.4041 92.7961 25.1037 92.8083C26.3754 103.018 25.4583 113.436 27.1824 123.585C27.2925 124.234 27.427 124.906 27.8549 125.395C28.1851 125.774 28.6497 125.994 29.1388 126.117C30.9485 126.581 33.0272 125.53 33.7242 123.793C35.0326 124.001 36.3532 124.136 37.686 124.197C37.9428 126.092 39.4468 127.865 41.3543 128.061C43.2619 128.269 45.2427 126.532 44.9004 124.747L48.5687 125.151C48.4586 125.799 48.7888 126.459 49.2901 126.875C49.7914 127.29 50.464 127.474 51.112 127.511C52.4449 127.584 53.9244 126.948 54.3646 125.689C55.7219 125.896 57.0914 125.958 58.4609 125.884C59.5858 127.168 61.5178 127.694 63.4376 127.547C71.6668 133.306 80.7642 137.831 90.3752 140.716C90.5953 143.883 90.473 147.075 89.9962 150.217C97.3695 151.232 104.779 152.247 112.226 152.272C116.163 152.284 120.321 151.954 123.72 149.215C124.356 140.924 124.222 132.573 123.353 124.099C124.527 123.316 125.371 121.984 125.359 120.577C125.359 119.171 124.356 117.765 122.974 117.496C123.182 116.249 123.243 114.989 123.145 113.73C124.833 113.608 126.178 112.189 126.875 110.636C127.389 109.499 127.584 108.007 126.679 107.151C125.86 106.369 124.539 106.503 123.549 106.075C123.635 105.073 123.732 104.082 123.818 103.08C125.102 102.59 126.043 101.319 126.129 99.9493C126.215 98.5798 125.432 97.1858 124.222 96.55C124.466 95.156 124.588 93.7376 124.588 92.3314C125.811 91.0475 126.325 89.1033 126.056 87.0246C132.011 79.0521 136.572 70.0403 139.469 60.5271C142.514 60.3437 145.571 60.1725 148.701 59.7935C150.01 57.5191 150.438 54.8657 150.682 52.2612C151.502 43.9097 150.743 35.4114 148.298 26.9865C139.849 27.1944 131.387 27.4023 122.938 27.5979C122.277 26.3507 120.883 25.5192 119.465 25.5437C118.047 25.5681 116.677 26.4241 116.053 27.6957C114.99 27.2555 113.804 27.1333 112.679 27.3289C112.483 25.3113 110.698 23.5505 108.668 23.4038C106.638 23.2449 104.608 24.7122 104.131 26.6442L101.906 26.7053C101.417 25.2624 100.023 24.1619 98.5067 24.0274C96.9904 23.8929 95.4253 24.7366 94.6916 26.0817C92.943 25.9472 91.2312 25.4947 89.6416 24.7611C88.7734 24.3576 87.6118 23.9296 87.0982 24.7978C78.2943 19.2708 69.3558 13.6828 59.5736 10.4669C59.6715 7.44665 59.9527 4.43862 60.613 1.2961C57.018 0.232292 53.203 0.183387 49.4491 0.134482C47.4193 0.110022 45.4017 0.0855621 43.3719 0.061102C37.5393 -4.04366e-05 31.5355 -0.0489454 25.9719 2.45774C25.9719 2.45774 27.1702 27.659 26.8767 28.087C25.8618 29.1753 24.7613 30.5815 25.2015 31.9999C25.6295 33.4061 27.4392 34.1886 27.5615 35.656C27.6593 36.7931 26.6689 37.7225 25.6784 38.3094C24.688 38.8841 23.5508 39.3732 22.9761 40.3636C22.3647 41.4152 22.5848 42.7969 23.2329 43.8241C23.8809 44.8512 24.9081 45.5849 25.9352 46.2452L25.923 46.2085ZM60.3562 66.4453C62.0192 66.0051 63.6944 65.6016 65.3573 65.1614C66.9836 64.7335 68.5732 64.1343 70.1628 63.6208C73.4521 62.5569 76.7536 61.4931 80.0795 60.5394C80.6053 60.3926 81.0577 60.4782 81.4001 60.7106C82.2683 59.9891 83.8456 60.0625 84.2369 61.4809C86.2789 68.9398 88.5166 76.3498 91.5002 83.4908C91.7936 84.1878 91.3045 85.0926 90.7054 85.4472C90.3752 85.6429 90.0206 85.704 89.6782 85.6551C89.5682 85.7529 89.4215 85.8385 89.2503 85.8874C85.7654 86.9268 82.3049 88.0517 78.7956 89.0666C77.0348 89.568 75.274 90.0815 73.5132 90.5706C72.8651 90.7418 72.2048 90.9375 71.5323 91.1086C70.872 91.4143 70.2117 91.72 69.5392 92.0257C69.3191 92.1847 69.0623 92.307 68.7322 92.3803C68.0719 92.5271 67.4727 92.258 67.0814 91.8178C66.9347 91.8423 66.7757 91.8178 66.629 91.7934C66.3722 91.7323 66.1154 91.5244 65.9809 91.2921C65.932 91.1942 65.8831 91.072 65.8587 90.9497L65.8342 90.9252C65.4307 90.913 65.0516 90.6684 64.9416 90.1304C63.5843 83.2462 61.5545 76.4843 59.1456 69.9058C58.9867 69.4778 59.1212 69.1477 59.3902 68.9398C58.9011 68.0594 59.1579 66.7388 60.344 66.4331L60.3562 66.4453Z" fill="white"/>
<path d="M55.4527 13.7806C55.5383 13.7806 55.6117 13.8173 55.6728 13.8784C55.7951 14.0007 55.7829 14.1963 55.6728 14.3186C52.4203 17.4734 48.9598 20.4936 45.3771 23.2815C45.2426 23.3916 45.0469 23.3671 44.9369 23.2326C44.8268 23.0981 44.8513 22.9025 44.9858 22.7924C48.5441 20.0167 51.9923 17.0209 55.2326 13.8784C55.2938 13.8173 55.3671 13.7928 55.4527 13.7928L55.4527 13.7806Z" fill="black"/>
<path d="M55.6727 5.2213C55.7461 5.2213 55.8194 5.24575 55.8806 5.30689C56.0029 5.41694 56.0151 5.61258 55.905 5.74709C50.1947 12.0566 44.0075 18.0604 37.5268 23.5995C37.3923 23.7096 37.1966 23.6974 37.0866 23.5629C36.9765 23.4284 36.9888 23.2327 37.1233 23.1227C43.5795 17.608 49.7423 11.6164 55.4404 5.33135C55.5015 5.25798 55.5871 5.23353 55.6727 5.23353L55.6727 5.2213Z" fill="black"/>
<path d="M49.669 2.51892C49.7423 2.51892 49.8157 2.54338 49.8646 2.59229C49.9991 2.70234 50.0114 2.89798 49.9013 3.03249C44.0687 9.9656 37.6491 16.5319 30.8505 22.5112C30.716 22.6213 30.5204 22.6091 30.4103 22.4868C30.3003 22.3523 30.3125 22.1566 30.4348 22.0466C37.2212 16.0795 43.604 9.53764 49.4244 2.62898C49.4856 2.55561 49.5712 2.51892 49.6568 2.51892L49.669 2.51892Z" fill="black"/>
<path d="M42.2468 3.00793C42.3202 3.00793 42.4058 3.03238 42.4547 3.09352C42.577 3.2158 42.5892 3.41144 42.4547 3.53372L30.3126 16.275C30.1903 16.3973 29.9946 16.3973 29.8724 16.275C29.7501 16.1527 29.7379 15.9571 29.8724 15.8348L42.0145 3.09352C42.0756 3.03238 42.1612 2.9957 42.2346 2.9957L42.2468 3.00793Z" fill="black"/>
<path d="M34.0177 2.27435C34.091 2.27435 34.1644 2.2988 34.2255 2.34771C34.3478 2.45776 34.3601 2.65341 34.25 2.78791L28.5152 9.21969C28.4052 9.34197 28.2095 9.35419 28.075 9.24414C27.9527 9.13409 27.9405 8.93845 28.0506 8.80394L33.7854 2.37217C33.8465 2.29881 33.9321 2.27435 34.0177 2.27435Z" fill="black"/>
<path d="M56.3943 19.6989C56.4677 19.6989 56.5288 19.7233 56.59 19.7722C56.7245 19.8823 56.7367 20.0779 56.6266 20.2124C55.5262 21.5453 54.3034 22.7925 52.995 23.9419C52.8727 24.0519 52.6649 24.0397 52.5548 23.9174C52.4448 23.7829 52.457 23.5873 52.5793 23.4772C53.851 22.3523 55.0493 21.1295 56.1375 19.8212C56.1987 19.7478 56.2843 19.7111 56.3821 19.7111L56.3943 19.6989Z" fill="black"/>
<path d="M119.636 127.963C119.807 127.963 119.942 128.11 119.942 128.281L119.832 148.677C119.832 148.848 119.697 148.982 119.526 148.982C119.355 148.982 119.22 148.848 119.22 148.665L119.33 128.269C119.33 128.097 119.465 127.963 119.636 127.963Z" fill="black"/>
<path d="M114.427 128.684C114.598 128.684 114.733 128.819 114.733 128.99L115.087 148.713C115.087 148.885 114.953 149.031 114.782 149.031C114.611 149.031 114.476 148.897 114.476 148.726L114.121 129.002C114.121 128.831 114.256 128.684 114.427 128.684Z" fill="black"/>
<path d="M108.851 127.498C109.022 127.498 109.157 127.633 109.157 127.804L109.242 149.056C109.242 149.227 109.108 149.361 108.937 149.361C108.766 149.361 108.631 149.227 108.631 149.056L108.545 127.804C108.545 127.633 108.68 127.498 108.851 127.498Z" fill="black"/>
<path d="M103.251 129.369C103.422 129.369 103.556 129.504 103.556 129.663C103.789 135.715 103.789 141.854 103.556 147.894C103.556 148.065 103.422 148.2 103.239 148.188C103.067 148.188 102.933 148.041 102.945 147.87C103.177 141.842 103.177 135.728 102.945 129.687C102.945 129.516 103.067 129.369 103.239 129.369L103.251 129.369Z" fill="black"/>
<path d="M98.164 128.281C98.3352 128.281 98.4697 128.428 98.4697 128.599L98.1885 148.237C98.1885 148.408 98.0662 148.542 97.8706 148.542C97.6994 148.542 97.5649 148.396 97.5649 148.225L97.8461 128.587C97.8461 128.416 97.9928 128.281 98.1518 128.281L98.164 128.281Z" fill="black"/>
<path d="M94.2267 128.244C94.3979 128.244 94.5324 128.379 94.5324 128.55L94.5569 145.999C94.5569 146.17 94.4224 146.305 94.2512 146.305C94.08 146.305 93.9455 146.17 93.9455 145.999L93.921 128.55C93.921 128.379 94.0555 128.244 94.2267 128.244Z" fill="black"/>
<path d="M1.36965 124.955C9.94128 124.062 18.5863 123.781 27.1946 124.087C26.1797 113.596 25.4338 103.092 24.9691 92.5639C16.8622 92.0503 8.75519 91.549 0.635991 91.0354C0.0123769 102.101 0.12243 113.216 1.35743 124.955L1.36965 124.955Z" fill="white"/>
<g opacity="0.13">
<path d="M21.0563 94.7404C20.7384 97.883 21.1296 101.062 21.3742 104.192C21.6554 107.555 21.7899 110.942 21.9367 114.317C22.0712 117.166 22.0956 120.101 23.0005 122.827C23.8564 125.652 28.0383 124.515 27.3291 121.629C25.4949 116.078 26.0574 107.469 25.6906 98.7389C25.605 97.8096 25.5438 96.8803 25.3727 95.951C25.336 95.4863 25.2993 95.0217 25.1526 94.5693C25.0792 93.7378 25.2381 94.1657 24.9569 93.4443C24.1866 91.4145 21.0563 92.0626 21.0807 94.2269C21.203 93.3343 21.0807 94.1535 21.0563 94.7404Z" fill="black"/>
</g>
<g opacity="0.13">
<path d="M10.1368 91.4268C10.3324 93.4443 13.316 93.6278 13.8295 91.6836C14.3186 89.8249 15.3091 86.8536 15.6025 86.3645C17.1188 83.1486 19.0385 80.1528 20.6526 76.9858C22.2422 74.1857 24.272 71.6423 25.6293 68.7077C26.0939 67.6683 26.3385 67.7539 26.5708 67.1303C26.9132 67.3382 27.2922 67.5094 27.6957 67.595C27.9158 67.6316 28.1237 67.6194 28.3194 67.5705C27.4879 66.6045 27.0354 65.2717 27.3656 64.0612C27.4512 63.9267 27.5123 63.7799 27.549 63.5843C27.6468 63.3275 27.9892 62.4715 28.4905 61.8113C28.5639 61.7257 28.6495 61.6156 28.6984 61.5667C28.7718 61.5056 28.8329 61.4322 28.8818 61.3588L28.9063 61.3588C29.0775 61.2243 29.75 60.9064 29.9946 60.7841C31.8165 60.1116 33.4794 59.7448 33.724 59.0967C34.1031 58.4976 33.7485 57.7639 33.186 57.5071C33.027 56.6512 32.3423 55.8808 31.2907 55.893C30.6426 55.893 30.0068 55.893 29.3587 55.893C29.3832 55.7341 29.3832 55.5751 29.3587 55.4284C29.3465 55.4284 29.3343 55.4284 29.3098 55.4284C29.0408 55.3183 28.7962 55.1838 28.5639 55.0249C28.6251 54.6825 28.515 54.3157 28.1482 54.12C27.9403 53.9855 27.7569 53.8388 27.5857 53.6798C27.549 53.5453 27.5123 53.3741 27.4757 53.154C27.3901 52.188 27.4634 52.078 27.8058 51.0631C28.087 50.415 28.1604 50.1338 28.7962 49.5346C28.8818 49.4735 28.9674 49.4124 29.0408 49.3512C29.2487 49.18 29.5299 49.1067 29.6766 48.8866C30.0679 48.4464 29.7989 47.6882 29.2364 47.5415C29.0408 47.5048 28.8574 47.5415 28.674 47.5904C28.5639 47.4437 28.4294 47.3092 28.2704 47.2358C28.4049 46.9546 28.3805 46.6367 28.2582 46.3554C28.2582 46.3554 28.2582 46.331 28.2582 46.3187C28.2949 46.3187 28.3438 46.3065 28.3805 46.2943C29.4199 45.9275 29.3098 44.289 28.2338 44.0322C28.087 43.9955 27.9403 43.9588 27.7936 43.9221L27.7691 43.9221C27.6468 43.8121 27.4512 43.592 27.3778 43.5186C27.3167 43.433 27.2678 43.3352 27.2433 43.274C27.1822 43.0906 27.121 42.8461 27.0844 42.6993C27.0844 42.6137 27.0844 42.5282 27.0844 42.4426L27.1088 42.3325C27.1944 41.8434 27.1944 41.66 27.4145 41.1586C27.8303 40.5473 28.6495 39.7036 29.8967 39.1166C30.6059 38.8354 31.3518 38.652 32.0977 38.5419C32.1589 38.5297 31.951 38.5664 31.9021 38.5664C32.6969 38.4686 33.4672 38.3096 34.2498 38.1384C34.6411 38.0895 35.0691 37.8449 35.0935 37.417C35.0935 36.2553 34.152 36.5366 33.4795 36.5977C32.9292 36.6466 32.3667 36.6711 31.8165 36.7444C31.792 36.2309 31.5597 35.7296 31.0217 35.4239C30.5937 35.2282 30.1413 35.0081 29.6644 34.8247C30.0801 34.2989 30.1168 33.4552 29.3587 32.9905L29.3098 32.9539C29.3098 32.9539 29.2854 32.9294 29.2242 32.8683C29.1508 32.8071 29.0897 32.7215 29.0163 32.6482C28.943 32.5381 28.8696 32.3914 28.8207 32.3058C28.7351 32.0735 28.674 31.8411 28.6251 31.5966C28.5761 30.4839 28.515 30.9363 28.7718 29.8969C29.0286 29.3711 29.0041 29.3956 29.1264 29.1755C29.2364 29.0532 29.3587 28.9309 29.481 28.8209C30.0679 28.344 29.8111 28.4663 30.3736 28.1239C30.8872 27.9405 31.1195 27.3413 30.875 26.9378C31.1317 26.6566 31.254 26.2531 31.1195 25.8129C30.9116 24.6757 30.7282 23.5385 30.4714 22.4136C30.4592 22.2302 30.4103 22.0712 30.3492 21.9367C30.1535 19.5767 29.9701 15.9207 29.9334 13.5852C29.7989 9.90463 30.2513 6.10181 29.3465 2.51909C28.9919 1.07622 27.011 0.55043 25.9961 1.63869C25.2747 2.38458 25.3113 3.52177 25.3725 4.48775C25.6782 10.1125 25.4825 15.7495 26.2651 21.3375C26.3385 21.9489 26.4118 22.5725 26.4974 23.1839C26.2529 24.0643 26.4363 23.9665 26.2651 24.7613C26.3262 25.4827 26.1061 26.2653 26.3629 26.9501C26.3874 27.0112 26.4118 27.0601 26.4363 27.109C26.0695 27.4636 25.8371 27.9649 25.5559 28.3685C24.5043 30.2882 24.6633 32.9416 26.2284 34.5435C26.3996 34.7024 26.583 34.8614 26.7664 35.0081C26.204 35.644 26.1795 36.72 26.8154 37.3314C27.1455 37.6248 27.549 37.8327 28.0137 37.8205L28.0503 37.8205C28.1849 37.8449 28.2949 37.8816 28.3805 37.9061C28.1237 38.0406 27.8792 38.1873 27.6224 38.3463C27.4756 38.0039 27.1944 37.7104 26.7909 37.6126C26.0083 37.4414 25.2991 37.9794 24.6266 38.3218C22.5846 39.6669 21.8387 42.6871 23.2571 44.7414C23.9663 45.793 25.0912 46.6978 26.3507 46.9668C26.3874 47.1502 26.4607 47.3214 26.583 47.4559C26.4241 47.5293 26.2651 47.6027 26.1061 47.6638C23.8929 48.7887 22.9269 51.7845 24.1619 53.9733C24.4921 54.6825 25.0179 55.2817 25.6415 55.7585C24.6266 56.2232 24.0397 57.5438 24.7978 58.7054C25.1157 59.2801 25.6782 59.5736 26.2896 59.7081C26.1795 59.7815 26.0572 59.8426 25.9472 59.916C24.9567 60.723 25.0546 60.5396 24.541 61.8846C24.2598 62.8873 24.3576 64.0122 24.7611 64.9905C24.651 65.0271 24.5532 65.0638 24.4554 65.125C24.0763 65.3451 23.8562 65.7119 23.6851 66.091C23.4405 66.0176 23.1837 66.0054 22.9392 66.091C22.6702 66.1888 22.4256 66.3233 22.2422 66.5434C22.1688 66.629 21.7164 67.2159 21.6063 67.3993C20.7871 68.6955 19.9801 70.016 19.1853 71.3366C17.9013 73.4887 16.5441 75.6041 15.4191 77.854C15.1379 78.5388 14.5265 79.2113 14.7466 80.0061C14.82 80.3118 14.9911 80.5441 15.2112 80.7153C13.6706 83.1853 12.032 85.5942 11.0416 88.3576C10.7359 89.3603 9.99001 90.363 10.1001 91.439L10.1368 91.4268Z" fill="black"/>
</g>
<g opacity="0.13">
<path d="M65.4182 12.7047C64.9535 12.7292 64.6112 13.1082 64.5133 13.5362C64.2076 13.4139 63.9019 13.3039 63.5963 13.1816C63.9019 12.7169 63.9753 12.1178 63.853 11.5798C63.7185 11.5186 63.584 11.4575 63.4495 11.4086C62.9115 11.164 62.3979 10.8461 61.9088 10.5282C61.7621 10.4304 61.6276 10.3203 61.4809 10.2225C60.4293 10.4915 59.9646 11.4819 60.0991 12.399C60.0625 12.4602 60.038 12.5213 60.0135 12.5947C59.8668 13.1816 60.307 13.4261 60.735 13.5973C60.9918 13.8174 61.3341 13.9764 61.7499 14.0375C62.9971 14.7467 64.281 16.0307 65.1125 16.5198C66.4575 17.4613 68.0105 17.9993 69.4044 18.8308C69.8324 19.0998 70.2359 19.3688 70.6394 19.6256C70.9818 19.9068 71.3975 20.2492 71.8744 20.7383C75.3471 24.2966 77.3035 26.2652 78.2573 30.6428C78.1228 31.2052 78.3429 31.8778 78.3306 32.4525C78.3306 32.5625 78.3429 32.6848 78.3551 32.7948C78.563 34.6412 78.6119 36.4876 78.5874 38.3462C78.6363 38.4196 78.6853 38.493 78.7464 38.5541C78.832 39.9236 78.9298 41.2809 79.0276 42.6504C79.0276 47.7371 78.8931 52.885 80.4094 57.8005C80.874 59.329 82.3291 59.6591 83.4296 59.1822C83.7231 60.3317 84.0288 61.4811 84.3589 62.6182C85.7773 67.1669 86.89 69.0989 88.3941 72.9629C89.5312 76.2521 90.5828 79.5781 92.2336 82.6472C92.8449 83.6132 93.334 85.0316 94.5079 85.3985C96.0241 85.8753 97.4303 84.0534 96.5866 82.6961C94.1778 79.3947 92.686 75.5185 90.8151 71.8991C89.788 69.6614 88.5897 67.4971 87.6115 65.235C86.9512 63.7554 85.5817 59.6469 84.7013 56.9446C84.6891 56.8345 84.6768 56.7367 84.6524 56.6267C83.1239 50.6106 82.8794 45.4628 83.1851 37.1357C83.2462 33.9687 84.0899 29.6646 84.7624 27.1701C84.7869 27.1701 84.7991 27.1701 84.8236 27.1701C86.1197 27.219 86.8411 25.4827 85.8874 24.5901C84.0777 23.1594 82.3169 21.6676 80.4827 20.2614C78.6486 18.9531 76.6799 17.8526 74.7357 16.7276C72.7059 15.6149 70.5905 14.6489 68.4629 13.7441C67.6314 13.3895 66.7755 13.0716 65.9195 12.7659C65.7728 12.7047 65.6016 12.6925 65.4426 12.7292L65.4182 12.7047Z" fill="black"/>
</g>
<g opacity="0.13">
<path d="M91.1088 28.1726C91.1943 28.5761 91.4267 28.9674 91.7813 29.1875C91.8546 29.2486 91.9402 29.3098 92.0258 29.3587C91.928 30.0312 92.0625 30.7649 92.0136 31.4496C92.0136 31.951 91.9402 32.5134 92.3437 32.8925C93.004 33.6017 94.3002 33.0637 94.2635 32.0977C94.2024 31.2295 94.3369 30.3247 94.2513 29.4687C94.5447 29.0897 94.5936 28.515 94.129 27.9525C94.0923 27.9158 94.0556 27.8791 94.0312 27.8424C94.0312 27.8424 94.0312 27.7813 94.0312 27.7446C93.9089 25.4825 90.583 25.9838 91.1088 28.1848L91.1088 28.1726Z" fill="black"/>
</g>
<g opacity="0.13">
<path d="M102.774 30.386C105.342 30.3248 105.342 26.5587 102.774 26.4853C100.206 26.5465 100.206 30.3126 102.774 30.386Z" fill="black"/>
</g>
<g opacity="0.13">
<path d="M114.403 33.0515C116.97 32.9904 116.97 29.2242 114.403 29.1509C111.835 29.212 111.835 32.9781 114.403 33.0515Z" fill="black"/>
</g>
<g opacity="0.13">
<path d="M87.5014 140.423C88.0883 142.001 90.5583 141.487 90.5217 139.812C90.8274 135.936 91.182 132.121 91.6222 129.333C91.7078 128.636 92.099 128.012 92.0868 127.303C92.1602 124.662 88.4674 124.821 88.6141 127.474C88.6141 128.11 88.7364 127.682 88.6753 128.672C88.2595 131.13 87.9905 133.612 87.7215 136.095C87.6115 137.097 87.5014 138.088 87.4281 139.09C87.4036 139.531 87.2813 140.007 87.5014 140.399L87.5014 140.423Z" fill="black"/>
</g>
<path d="M58.2528 66.1396C58.644 66.1396 59.0231 66.3964 59.1454 66.7877C59.9646 69.4044 60.7594 71.8744 61.5176 74.2222C66.9711 91.1698 70.5783 102.358 67.5458 122.766C67.3379 124.172 64.4522 128.11 63.1194 128.11L62.7403 128.11C60.6494 128.11 58.2527 128.134 57.6291 124.759C57.2745 122.876 57.0422 121.225 56.8221 119.648C56.4308 123.145 55.6727 126.263 54.3032 127.376C53.1049 128.342 50.1336 129.308 48.3483 127.266C47.5413 126.337 46.9177 125.004 46.453 123.463C46.294 124.27 46.0984 125.053 45.8294 125.872C45.4381 127.07 44.6555 129.528 41.7453 129.43C39.4832 129.345 37.4045 127.559 36.9154 125.297L36.7564 124.576C36.5119 123.426 36.194 121.971 35.876 120.308C35.5826 121.666 35.1791 123.035 34.6533 124.551C33.9563 126.569 30.9605 127.608 28.9918 127.046C25.7882 126.129 25.6659 122.302 25.6048 120.663C25.3602 113.522 25.2257 109.915 25.079 106.308C24.9322 102.7 24.7977 99.0933 24.5532 91.9401C24.541 91.4265 24.9322 90.9986 25.458 90.9741C25.9594 90.9374 26.3996 91.3532 26.424 91.879C26.6686 99.02 26.8031 102.627 26.9498 106.234C27.0843 109.841 27.231 113.449 27.4756 120.602C27.549 122.729 27.8424 124.772 29.5176 125.248C30.6915 125.591 32.5868 124.845 32.9047 123.94C34.3231 119.807 34.7878 116.848 34.7878 111.749C34.7878 111.248 35.1913 110.832 35.6926 110.82C36.194 110.783 36.6219 111.187 36.6464 111.688C36.9521 116.689 37.967 121.372 38.5784 124.172L38.7373 124.894C39.043 126.324 40.4003 127.498 41.8187 127.547C42.7969 127.584 43.4205 127.242 44.0686 125.273C45.108 122.081 45.0957 119.293 45.0713 113.73C45.0713 112.862 45.0713 111.932 45.0713 110.918C45.0713 110.404 45.487 109.988 46.0006 109.988C46.5141 109.988 46.9299 110.404 46.9299 110.918C46.9299 118.352 47.9937 124.001 49.7545 126.007C50.7082 127.083 52.5669 126.373 53.1416 125.896C54.8412 124.515 55.6483 115.809 55.2081 109.23C55.1714 108.741 55.526 108.313 56.0028 108.252C56.492 108.179 56.9322 108.496 57.0422 108.973C57.7636 112.165 58.0938 114.745 58.4362 117.472C58.7052 119.599 58.9864 121.788 59.4633 124.392C59.7934 126.153 60.4782 126.227 62.7403 126.227L62.9482 126.227C63.6574 125.738 65.5771 123.329 65.7117 122.473C68.683 102.493 65.137 91.4632 59.7568 74.7724C58.9986 72.4125 58.2038 69.9425 57.3846 67.3257C57.2256 66.8366 57.5069 66.3108 57.996 66.1641C58.0938 66.1396 58.1794 66.1274 58.2772 66.1274L58.2528 66.1396Z" fill="black"/>
<path d="M59.9524 1.33267C59.9524 1.33267 60.0136 1.33267 60.038 1.33267C60.5516 1.38158 60.9307 1.83401 60.8817 2.34757C60.7595 3.63148 60.576 6.50499 60.3559 9.83093C60.0013 15.15 59.5611 21.7774 59.1209 26.4728C59.072 26.9864 58.6074 27.3655 58.106 27.3166C57.5925 27.2676 57.2134 26.8152 57.2623 26.3017C57.6903 21.6429 58.1305 15.0277 58.4851 9.70866C58.7174 6.23599 58.9008 3.49697 59.0231 2.17638C59.072 1.68727 59.4756 1.33267 59.9524 1.33267Z" fill="black"/>
<path d="M23.5995 63.4495C23.734 63.4495 23.8807 63.4862 24.0152 63.5473C24.4799 63.7797 24.6633 64.3299 24.431 64.7946C23.4894 66.7021 22.2911 68.5852 21.1417 70.3949C20.8727 70.8228 20.6037 71.2508 20.3347 71.6788C16.593 77.6826 13.5361 84.1266 11.2373 90.8151C11.0661 91.3042 10.5403 91.561 10.0512 91.3898C9.56208 91.2186 9.3053 90.6929 9.47648 90.2037C11.8242 83.3685 14.9423 76.8022 18.7573 70.6883C19.0263 70.2603 19.2953 69.8324 19.5643 69.3922C20.6893 67.6069 21.8509 65.7728 22.7558 63.9508C22.9147 63.6207 23.2449 63.4373 23.5873 63.4373L23.5995 63.4495Z" fill="black"/>
<path d="M26.0938 1.33281C26.5952 1.33281 27.0109 1.7241 27.0231 2.22544C27.1454 5.5636 27.2677 10.3569 27.39 14.9912C27.5123 19.6255 27.6468 24.4187 27.7568 27.7447C27.769 28.2582 27.3777 28.6862 26.8642 28.7107C26.3262 28.7229 25.9226 28.3316 25.8982 27.818C25.7759 24.4799 25.6536 19.6866 25.5314 15.0523C25.4091 10.418 25.2746 5.62474 25.1645 2.2988C25.1523 1.78524 25.5436 1.35727 26.0572 1.33281L26.0938 1.33281Z" fill="black"/>
<path d="M26.8274 34.6656C27.3165 34.6656 27.72 35.0447 27.7567 35.5338C27.8056 36.4142 27.7567 37.2824 27.5855 38.1505C27.4877 38.6519 26.9986 38.982 26.4972 38.8842C25.9959 38.7864 25.6657 38.2973 25.7636 37.7959C25.8981 37.0989 25.947 36.3775 25.8981 35.6561C25.8614 35.1425 26.2527 34.7023 26.7662 34.6656C26.7907 34.6656 26.8029 34.6656 26.8274 34.6656Z" fill="black"/>
<path d="M26.0938 46.3674L26.1427 46.3674C26.6563 46.3919 27.0475 46.8321 27.0231 47.3456L26.9742 48.4584C26.9497 48.9719 26.534 49.3754 25.996 49.3387C25.4824 49.3143 25.0911 48.8741 25.1156 48.3605L25.1645 47.2478C25.1889 46.7465 25.6047 46.3552 26.0938 46.3552L26.0938 46.3674Z" fill="black"/>
<path d="M25.4579 55.1836L25.4701 55.1836C25.9837 55.1836 26.3994 55.6116 26.3872 56.1251C26.375 57.299 26.2649 58.4851 26.0693 59.6467C25.9837 60.1603 25.5068 60.5027 24.9932 60.4171C24.4919 60.3315 24.1373 59.8546 24.2229 59.341C24.3941 58.2772 24.4919 57.189 24.5164 56.1007C24.5164 55.5871 24.9443 55.1836 25.4457 55.1836L25.4579 55.1836Z" fill="black"/>
<path d="M107.567 82.5611C111.774 82.5611 116.322 82.9035 121.446 83.6739C122.852 83.8817 126.789 86.7552 126.789 88.1003L126.789 88.4793C126.789 90.5825 126.814 92.9669 123.439 93.5905C121.556 93.9451 119.905 94.1775 118.328 94.3975C121.825 94.7888 124.943 95.547 126.056 96.9165C127.022 98.1148 127.988 101.086 125.946 102.871C125.016 103.678 123.683 104.302 122.143 104.767C122.95 104.926 123.732 105.121 124.552 105.39C125.75 105.782 128.232 106.589 128.11 109.487C128.024 111.749 126.251 113.827 123.977 114.316L123.268 114.475C122.118 114.72 120.663 115.038 119 115.356C120.358 115.649 121.727 116.053 123.243 116.579C125.261 117.276 126.3 120.271 125.738 122.24C124.821 125.444 120.993 125.566 119.355 125.627C112.202 125.872 108.594 126.006 104.975 126.153C101.368 126.287 97.7607 126.434 90.632 126.679C90.1062 126.679 89.6904 126.3 89.666 125.774C89.6537 125.26 90.045 124.832 90.5708 124.808C97.6996 124.563 101.307 124.429 104.902 124.282C108.521 124.135 112.128 124.001 119.281 123.756C121.751 123.671 123.476 123.292 123.928 121.714C124.258 120.54 123.525 118.645 122.62 118.327C118.487 116.909 115.528 116.444 110.429 116.444C109.927 116.444 109.512 116.041 109.499 115.539C109.487 115.038 109.866 114.61 110.367 114.586C115.381 114.28 120.064 113.253 122.864 112.654L123.573 112.495C125.004 112.189 126.178 110.832 126.227 109.413C126.264 108.423 125.921 107.811 123.952 107.163C120.761 106.124 117.973 106.136 112.41 106.161C111.541 106.161 110.612 106.161 109.597 106.161C109.084 106.161 108.668 105.745 108.668 105.231C108.668 104.718 109.084 104.302 109.597 104.302C117.032 104.302 122.681 103.238 124.686 101.477C125.762 100.524 125.041 98.665 124.576 98.0903C123.194 96.3907 114.488 95.5836 107.91 96.0238C107.408 96.0483 106.993 95.7059 106.932 95.229C106.858 94.7522 107.176 94.2997 107.653 94.1897C110.844 93.4682 113.424 93.1381 116.163 92.7957C118.291 92.5267 120.48 92.2455 123.084 91.7686C124.845 91.4384 124.918 90.7659 124.918 88.4916L124.918 88.2837C124.429 87.5745 122.021 85.6547 121.165 85.5202C101.184 82.5489 90.1551 86.0949 73.4643 91.4751C71.1043 92.2332 68.6343 93.028 66.0176 93.8473C65.5285 94.0063 65.0027 93.725 64.856 93.2359C64.697 92.7468 64.9782 92.221 65.4673 92.0743C68.0841 91.255 70.5541 90.4602 72.9018 89.7021C85.5819 85.6181 95.0462 82.5734 107.567 82.5734L107.567 82.5611Z" fill="black"/>
<path d="M0.929444 90.326C0.929444 90.326 0.990582 90.326 1.01504 90.326C2.31117 90.4483 5.18469 90.6317 8.51063 90.864C13.8297 91.2187 20.4571 91.6589 25.1403 92.0991C25.6539 92.148 26.0329 92.6004 25.984 93.114C25.9351 93.6275 25.4705 94.0066 24.9691 93.9577C20.3104 93.5297 13.6952 93.0895 8.38836 92.7349C4.91569 92.5026 2.16445 92.3191 0.856081 92.1969C0.342516 92.148 -0.0365446 91.6955 0.0123656 91.182C0.0612758 90.6929 0.464794 90.3383 0.941676 90.3383L0.929444 90.326Z" fill="black"/>
<path d="M63.0585 126.679C63.193 126.679 63.3397 126.716 63.4742 126.777C65.3818 127.73 67.2648 128.916 69.0868 130.066C69.5147 130.335 69.9427 130.604 70.3585 130.873C76.3623 134.615 82.794 137.672 89.4948 139.97C89.9839 140.142 90.2407 140.667 90.0695 141.156C89.8983 141.646 89.3725 141.902 88.8834 141.731C82.0481 139.383 75.4819 136.265 69.368 132.45C68.94 132.181 68.5121 131.912 68.0841 131.643C66.2989 130.518 64.4525 129.357 62.6428 128.452C62.1781 128.22 61.9947 127.669 62.227 127.205C62.386 126.874 62.7161 126.691 63.0585 126.691L63.0585 126.679Z" fill="black"/>
<path d="M26.4488 123.438C26.9502 123.438 27.3659 123.83 27.3781 124.331C27.3904 124.845 26.9991 125.273 26.4855 125.297C23.1596 125.407 18.3785 125.542 13.7565 125.664C9.10994 125.786 4.30445 125.921 0.966286 126.031C0.428267 126.055 0.0247498 125.652 0.000295717 125.138C-0.0119323 124.624 0.379349 124.197 0.892912 124.172C4.23108 124.05 9.0488 123.928 13.6953 123.805C18.3174 123.683 23.0862 123.548 26.4121 123.438L26.4488 123.438Z" fill="black"/>
<path d="M34.8369 123.426C35.4972 123.426 36.1575 123.487 36.8056 123.622C37.3069 123.72 37.637 124.209 37.5392 124.71C37.4414 125.211 36.9523 125.542 36.451 125.444C35.754 125.309 35.0325 125.26 34.3111 125.309C33.7731 125.334 33.3573 124.955 33.3207 124.441C33.284 123.928 33.6753 123.487 34.1888 123.451C34.3967 123.438 34.6168 123.426 34.8247 123.426L34.8369 123.426Z" fill="black"/>
<path d="M45.9764 124.184L46.0253 124.184L47.138 124.233C47.6516 124.258 48.0429 124.698 48.0184 125.211C47.994 125.725 47.566 126.116 47.0402 126.092L45.9275 126.043C45.4139 126.018 45.0227 125.578 45.0471 125.065C45.0716 124.563 45.4873 124.172 45.9764 124.172L45.9764 124.184Z" fill="black"/>
<path d="M54.7802 124.82L54.7924 124.82C55.9663 124.832 57.1523 124.942 58.3018 125.138C58.8153 125.224 59.1577 125.701 59.0721 126.214C58.9865 126.728 58.5096 127.07 57.9961 126.984C56.9323 126.813 55.844 126.715 54.7557 126.691C54.2422 126.691 53.8264 126.263 53.8386 125.749C53.8386 125.236 54.2666 124.832 54.7679 124.832L54.7802 124.82Z" fill="black"/>
<path d="M107.959 22.4013C108.02 22.4013 108.081 22.4013 108.154 22.4013C110.416 22.4869 112.495 24.2721 112.984 26.5342L113.143 27.2557C113.388 28.4051 113.706 29.8479 114.024 31.5109C114.317 30.1536 114.721 28.7841 115.246 27.2679C115.943 25.2503 118.939 24.211 120.908 24.7735C124.111 25.6905 124.234 29.5178 124.295 31.1563C124.539 38.2851 124.674 41.8922 124.821 45.4872C124.967 49.1066 125.102 52.7138 125.346 59.867C125.359 60.3805 124.955 60.8085 124.442 60.833C123.928 60.8574 123.5 60.4539 123.476 59.9281C123.231 52.7749 123.097 49.1677 122.95 45.5483C122.815 41.9412 122.669 38.334 122.424 31.2052C122.351 29.0776 122.057 27.0356 120.382 26.5587C119.208 26.2163 117.313 26.95 116.995 27.8671C115.576 32 115.112 34.9591 115.112 40.0581C115.112 40.5594 114.708 40.9752 114.207 40.9874C113.718 41.0118 113.278 40.6206 113.253 40.1192C112.948 35.1181 111.933 30.4349 111.321 27.6347L111.162 26.9133C110.857 25.4827 109.499 24.3088 108.081 24.2599C107.115 24.2232 106.479 24.5656 105.831 26.5342C104.792 29.7257 104.804 32.5136 104.828 38.0772C104.828 38.9454 104.828 39.8747 104.828 40.8896C104.828 41.4031 104.413 41.8189 103.899 41.8189C103.385 41.8189 102.97 41.4031 102.97 40.8896C102.97 33.4551 101.906 27.8059 100.145 25.8006C99.1913 24.7123 97.3327 25.4337 96.758 25.9106C95.0584 27.2924 94.2513 35.9985 94.7038 42.577C94.7405 43.0661 94.3859 43.4941 93.909 43.5552C93.4199 43.6286 92.9797 43.3107 92.8696 42.8338C92.1482 39.6423 91.818 37.0623 91.4757 34.3233C91.2066 32.1957 90.9254 30.0069 90.4485 27.4024C90.1184 25.6416 89.4459 25.5682 87.1715 25.5682L86.9636 25.5682C86.2544 26.0574 84.3347 28.4662 84.2002 29.3222C81.2288 49.3022 84.7749 60.3316 90.1551 77.0225C90.9132 79.3824 91.708 81.8524 92.5272 84.4691C92.6862 84.9582 92.405 85.484 91.9158 85.6308C91.4267 85.7897 90.9009 85.5085 90.7542 85.0194C89.935 82.4026 89.1402 79.9326 88.382 77.5849C82.9285 60.6373 79.3213 49.449 82.3538 29.0409C82.5617 27.6347 85.4352 23.6974 86.7802 23.6974L87.1593 23.6974C89.2624 23.6974 91.6468 23.6729 92.2705 27.0478C92.6251 28.9309 92.8574 30.5816 93.0775 32.159C93.4688 28.6619 94.2269 25.5438 95.5964 24.4311C96.7947 23.4651 99.766 22.4991 101.551 24.5411C102.358 25.4704 102.982 26.8033 103.447 28.3439C103.606 27.5369 103.801 26.7543 104.07 25.9351C104.449 24.7735 105.232 22.3646 107.971 22.3646L107.959 22.4013Z" fill="black"/>
<path d="M91.6834 124.539C91.6834 124.539 91.7445 124.539 91.769 124.539C92.2826 124.588 92.6616 125.041 92.6127 125.554C92.1847 130.213 91.7445 136.828 91.3899 142.147C91.1576 145.62 90.9742 148.359 90.8519 149.679C90.803 150.193 90.3506 150.572 89.837 150.523C89.3234 150.474 88.9444 150.022 88.9933 149.508C89.1156 148.224 89.299 145.351 89.5191 142.025C89.8737 136.706 90.3139 130.078 90.7541 125.383C90.803 124.906 91.2065 124.539 91.6834 124.539Z" fill="black"/>
<path d="M139.518 60.3928C139.616 60.3928 139.726 60.405 139.824 60.4417C140.313 60.6129 140.57 61.1387 140.399 61.6278C138.051 68.4631 134.933 75.0294 131.118 81.1554C130.849 81.5834 130.58 82.0114 130.311 82.4394C129.186 84.2246 128.024 86.071 127.119 87.8929C126.887 88.3576 126.325 88.541 125.872 88.3087C125.407 88.0763 125.224 87.5261 125.456 87.0614C126.41 85.1539 127.596 83.2708 128.746 81.4489C129.015 81.0209 129.284 80.593 129.54 80.1772C133.282 74.1734 136.339 67.7294 138.638 61.0409C138.772 60.6496 139.127 60.4172 139.518 60.4172L139.518 60.3928Z" fill="black"/>
<path d="M123.047 123.145C123.549 123.145 123.965 123.536 123.977 124.038C124.099 127.376 124.221 132.169 124.344 136.803C124.466 141.438 124.6 146.231 124.71 149.557C124.723 150.07 124.331 150.498 123.818 150.523C123.28 150.547 122.876 150.144 122.852 149.63C122.73 146.292 122.607 141.499 122.485 136.865C122.363 132.23 122.228 127.437 122.118 124.111C122.106 123.597 122.497 123.169 123.011 123.145L123.047 123.145Z" fill="black"/>
<path d="M123.206 112.959C123.206 112.959 123.329 112.96 123.39 112.972C123.891 113.07 124.221 113.559 124.123 114.06C123.989 114.769 123.94 115.478 123.989 116.2C124.026 116.713 123.634 117.154 123.121 117.19C122.595 117.215 122.167 116.836 122.13 116.322C122.081 115.454 122.13 114.574 122.302 113.718C122.387 113.277 122.778 112.959 123.219 112.959L123.206 112.959Z" fill="black"/>
<path d="M123.83 102.505L123.879 102.505C124.393 102.53 124.784 102.97 124.759 103.483L124.71 104.596C124.686 105.11 124.27 105.501 123.732 105.476C123.219 105.452 122.827 105.012 122.852 104.498L122.901 103.386C122.925 102.884 123.341 102.493 123.83 102.493L123.83 102.505Z" fill="black"/>
<path d="M124.723 91.4267C124.723 91.4267 124.821 91.4267 124.869 91.4389C125.371 91.5245 125.725 92.0014 125.64 92.5149C125.469 93.5788 125.371 94.667 125.346 95.7553C125.346 96.2688 124.918 96.6724 124.417 96.6724L124.405 96.6724C123.891 96.6724 123.476 96.2444 123.488 95.7308C123.5 94.557 123.61 93.3709 123.806 92.2093C123.879 91.7568 124.27 91.4267 124.723 91.4267Z" fill="black"/>
<path d="M59.2555 25.2014C59.7568 25.2014 60.1725 25.5927 60.1848 26.1062C60.197 26.6198 59.8057 27.0478 59.2799 27.0722C52.1389 27.3168 48.5317 27.4513 44.9246 27.598C41.3174 27.7447 37.7102 27.8792 30.557 28.1238C28.4294 28.1972 26.3874 28.4906 25.9105 30.1658C25.5803 31.3397 26.314 33.235 27.2188 33.5529C31.3518 34.9713 34.3109 35.436 39.4099 35.436C39.9112 35.436 40.3269 35.8395 40.3392 36.3408C40.3514 36.8422 39.9724 37.2701 39.471 37.2946C34.4699 37.6003 29.7867 38.6152 26.9865 39.2266L26.2651 39.3855C24.8344 39.6912 23.6606 41.0485 23.6117 42.4669C23.575 43.4573 23.9174 44.0687 25.886 44.7168C29.0775 45.7562 31.8654 45.7439 37.429 45.7195C38.2972 45.7195 39.2265 45.7195 40.2414 45.7195C40.7549 45.7195 41.1707 46.1352 41.1707 46.6488C41.1707 47.1623 40.7549 47.5781 40.2414 47.5781C32.8069 47.5781 27.1577 48.6419 25.1524 50.4027C24.0763 51.3564 24.7978 53.2151 25.2624 53.7898C26.6441 55.4894 35.3503 56.2964 41.9288 55.844C42.4179 55.8073 42.8459 56.1619 42.907 56.6388C42.9804 57.1157 42.6624 57.5681 42.1856 57.6782C38.9941 58.3996 36.4141 58.7298 33.6873 59.0721C31.5597 59.3411 29.3709 59.6224 26.7664 60.0993C25.0056 60.4294 24.92 61.1019 24.9323 63.3763L24.9323 63.5842C25.4214 64.2934 27.8302 66.2131 28.6862 66.3476C48.6662 69.319 59.6956 65.7729 76.3865 60.3927C78.7464 59.6346 81.2164 58.8398 83.8331 58.0205C84.3345 57.8616 84.848 58.1428 84.9948 58.6319C85.1537 59.121 84.8725 59.6468 84.3834 59.7936C81.7667 60.6128 79.2967 61.4076 76.9489 62.1657C60.0013 67.6193 48.813 71.2265 28.4049 68.194C26.9987 67.9861 23.0614 65.1126 23.0614 63.7676L23.0614 63.3885C23.0614 61.2853 23.037 58.9009 26.4118 58.2773C28.2949 57.9227 29.9456 57.6904 31.523 57.4703C28.0259 57.079 24.9078 56.3209 23.7951 54.9514C22.8291 53.7531 21.8631 50.7817 23.9051 48.9965C24.8344 48.1895 26.1673 47.5659 27.7079 47.1012C26.9009 46.9422 26.1183 46.7466 25.2991 46.4776C24.1008 46.0863 21.6186 45.2793 21.7408 42.3935C21.8264 40.1314 23.6117 38.0527 25.8738 37.5636L26.5952 37.4046C27.7446 37.1601 29.1875 36.8422 30.8505 36.5242C29.4932 36.2308 28.1237 35.8273 26.6075 35.3015C24.5899 34.6045 23.5505 31.6087 24.113 29.64C25.0301 26.4364 28.8574 26.3141 30.4959 26.253C37.6369 26.0084 41.244 25.8739 44.8512 25.7272C48.4584 25.5804 52.0656 25.4459 59.2065 25.2014L59.2432 25.2014L59.2555 25.2014Z" fill="black"/>
<path d="M124.833 57.8983C124.833 57.8983 124.894 57.8983 124.918 57.8983C129.577 58.3263 136.192 58.7665 141.511 59.1211C144.984 59.3534 147.723 59.5369 149.044 59.6591C149.557 59.708 149.936 60.1605 149.887 60.674C149.838 61.1876 149.398 61.5544 148.872 61.5177C147.589 61.3955 144.715 61.212 141.389 60.9919C136.07 60.6373 129.443 60.1971 124.747 59.7569C124.234 59.708 123.855 59.2556 123.903 58.742C123.952 58.2652 124.356 57.8983 124.833 57.8983Z" fill="black"/>
<path d="M60.6739 10.0758C60.7717 10.0758 60.8818 10.088 60.9796 10.1247C67.8149 12.4724 74.3812 15.5905 80.5073 19.4055C80.9352 19.6745 81.3632 19.9435 81.7912 20.2126C83.5764 21.3375 85.4106 22.4991 87.2325 23.404C87.6972 23.6363 87.8806 24.1866 87.6483 24.6512C87.4159 25.1159 86.8535 25.2993 86.401 25.067C84.4935 24.1254 82.6104 22.9271 80.8007 21.7777C80.3728 21.5087 79.9448 21.2397 79.5168 20.9707C73.513 17.229 67.0812 14.1721 60.3805 11.8733C59.8914 11.7021 59.6346 11.1763 59.8058 10.6872C59.9403 10.2959 60.2949 10.0635 60.6862 10.0635L60.6739 10.0758Z" fill="black"/>
<path d="M148.946 25.8128C149.447 25.8128 149.863 26.204 149.875 26.7054C149.887 27.2189 149.496 27.6469 148.983 27.6714C145.644 27.7936 140.851 27.9159 136.217 28.0382C131.583 28.1605 126.789 28.295 123.463 28.405L123.427 28.405C122.925 28.405 122.51 28.0137 122.497 27.5124C122.485 26.9988 122.876 26.5709 123.39 26.5464C126.728 26.4241 131.521 26.3019 136.156 26.1796C140.79 26.0573 145.583 25.9228 148.909 25.8128L148.946 25.8128Z" fill="black"/>
<path d="M113.241 26.3875C113.241 26.3875 113.363 26.3875 113.424 26.3998C114.134 26.5343 114.843 26.5832 115.564 26.5343C116.09 26.4976 116.518 26.8889 116.555 27.4024C116.591 27.916 116.2 28.3562 115.687 28.3929C114.818 28.454 113.938 28.3929 113.082 28.2217C112.581 28.1239 112.251 27.6348 112.348 27.1334C112.434 26.6932 112.825 26.3753 113.265 26.3753L113.241 26.3875Z" fill="black"/>
<path d="M102.799 25.7515L102.848 25.7515L103.96 25.8005C104.474 25.8249 104.865 26.2651 104.841 26.7787C104.816 27.2922 104.388 27.6835 103.862 27.6591L102.75 27.6102C102.236 27.5857 101.845 27.1455 101.869 26.6319C101.894 26.1306 102.31 25.7393 102.799 25.7393L102.799 25.7515Z" fill="black"/>
<path d="M91.7202 24.8711C91.7202 24.8711 91.8181 24.8711 91.867 24.8833C92.9308 25.0545 94.0191 25.1523 95.1073 25.1768C95.6209 25.1768 96.0366 25.6048 96.0244 26.1183C96.0244 26.6319 95.5964 27.0354 95.0951 27.0354L95.0829 27.0354C93.909 27.0232 92.7229 26.9131 91.5735 26.7175C91.0599 26.6319 90.7176 26.155 90.8032 25.6414C90.8765 25.189 91.2678 24.8589 91.7202 24.8589L91.7202 24.8711Z" fill="black"/>
<path d="M46.5511 131.546C46.7223 131.546 46.9057 131.595 47.0646 131.692L66.7146 144.507C67.1425 144.788 67.2648 145.363 66.9836 145.791C66.7023 146.219 66.1276 146.341 65.6997 146.06L46.0497 133.245C45.6218 132.964 45.4995 132.389 45.7807 131.961C45.9641 131.692 46.2576 131.533 46.5633 131.533L46.5511 131.546Z" fill="black"/>
<path d="M34.2987 134.138C34.4821 134.138 34.6655 134.187 34.8245 134.297L53.3862 147.075C53.8141 147.369 53.9119 147.943 53.6307 148.371C53.3372 148.799 52.7625 148.897 52.3346 148.616L33.7729 135.838C33.3449 135.544 33.2471 134.97 33.5284 134.542C33.7118 134.285 34.0052 134.138 34.2987 134.138Z" fill="black"/>
<path d="M85.0926 8.75508C85.0926 8.75508 85.1538 8.75508 85.1782 8.75508C94.508 9.57434 103.752 11.4819 112.642 14.4287C113.131 14.5877 113.4 15.1135 113.229 15.6026C113.07 16.0917 112.544 16.3607 112.055 16.1895C103.3 13.2916 94.2023 11.4085 85.0193 10.6015C84.5057 10.5526 84.1266 10.1001 84.1756 9.58656C84.2122 9.09746 84.628 8.73063 85.1049 8.73063L85.0926 8.75508Z" fill="black"/>
</g>
<defs>
<clipPath id="clip0_4757_9740">
<rect width="151" height="152.272" fill="white" transform="translate(151 152.271) rotate(-180)"/>
</clipPath>
</defs>
</svg>
