<svg xmlns="http://www.w3.org/2000/svg" width="173.608" height="240" viewBox="0 0 173.608 240"><defs><style>.a{fill:#414042;}.b{fill:#e6e7e8;}.c{fill:#58595b;}.d{fill:#808285;}.e{fill:none;}.f{fill:#fff;}.g{fill:#51c8ec;}.h{fill:#ec2146;}.i{fill:#50c8ec;}.j{fill:#559490;opacity:0.5;}</style></defs><path class="a" d="M173.608,229.386A10.357,10.357,0,0,1,163.551,240H9.975C4.451,240,0,235.175,0,229.386V10.7C0,4.825,4.534,0,9.975,0H163.551c5.523,0,10.057,4.825,10.057,10.7Z" transform="translate(0)"/><rect class="b" width="136.747" height="198.092" transform="translate(18.386 20.999)"/><path class="c" d="M107.467,12.233A2.433,2.433,0,1,1,105.033,9.8,2.423,2.423,0,0,1,107.467,12.233Z" transform="translate(-18.229 -0.968)"/><path class="d" d="M109.072,260.736a4.236,4.236,0,1,1-4.236-4.236A4.231,4.231,0,0,1,109.072,260.736Z" transform="translate(-18.032 -31.911)"/><g transform="translate(42.389 76.056)"><path class="e" d="M82.91,117.9a1.1,1.1,0,0,0,.734.473l6.586,1.1a1.071,1.071,0,0,0,.527-.042l5.4-1.8a33.334,33.334,0,0,0-5.269-8.271q-4.553,3.447-8.941,7.1Z" transform="translate(-67.516 -90.136)"/><path class="f" d="M79.124,17.525l-.085-.109c-.122-.157-.243-.314-.369-.469q-.251-.317-.512-.628-1.312-1.58-2.762-3.034L62.481.37H25.952L13.035,13.285.12,26.2v36.53L12.786,75.4s0,0,0,0h0q1.471,1.495,3.08,2.845.479.4.972.79c.081.065.164.129.245.194q1.233.966,2.535,1.843c.261.175.522.347.787.519a44.1,44.1,0,0,0,58.717-64.06Z" transform="translate(-0.12 -0.37)"/><path class="e" d="M289.12,270.37Z" transform="translate(-238.144 -222.746)"/><path class="e" d="M103.354,414.238c-.146-.129-.289-.259-.434-.388C103.065,413.979,103.208,414.109,103.354,414.238Z" transform="translate(-84.787 -340.918)"/><path class="e" d="M99.073,410.284c-.159-.146-.316-.3-.473-.444C98.757,409.988,98.914,410.138,99.073,410.284Z" transform="translate(-81.229 -337.615)"/><path class="e" d="M94.015,405.358q-.352-.339-.695-.688Q93.664,405.019,94.015,405.358Z" transform="translate(-76.881 -333.357)"/><path class="g" d="M154.59,449.614c-.111-.053-.22-.109-.33-.164C154.371,449.5,154.48,449.561,154.59,449.614Z" transform="translate(-127.072 -370.238)"/><path class="g" d="M149.829,447.183c-.116-.06-.233-.122-.349-.183C149.6,447.062,149.711,447.123,149.829,447.183Z" transform="translate(-123.135 -368.22)"/><path class="g" d="M145.185,444.667c-.12-.065-.236-.132-.355-.2C144.948,444.537,145.066,444.6,145.185,444.667Z" transform="translate(-119.305 -366.137)"/><path class="g" d="M111.862,421.49c-.141-.111-.28-.226-.422-.34C111.581,421.265,111.72,421.379,111.862,421.49Z" transform="translate(-91.805 -346.93)"/><path class="g" d="M159.569,452c-.093-.042-.187-.088-.279-.131C159.383,451.914,159.475,451.958,159.569,452Z" transform="translate(-131.215 -372.232)"/><path class="g" d="M116.212,424.923c-.141-.106-.282-.215-.422-.323C115.929,424.708,116.07,424.817,116.212,424.923Z" transform="translate(-95.387 -349.772)"/><path class="g" d="M140.626,442.06c-.12-.069-.238-.139-.356-.21C140.388,441.92,140.506,441.991,140.626,442.06Z" transform="translate(-115.549 -363.979)"/><path class="g" d="M136.136,439.35c-.12-.072-.238-.146-.356-.22Z" transform="translate(-111.851 -361.739)"/><path class="g" d="M120.607,428.22c-.143-.1-.284-.206-.427-.31C120.323,428.014,120.464,428.118,120.607,428.22Z" transform="translate(-99.003 -352.498)"/><path class="g" d="M125.09,431.406c-.145-.1-.288-.2-.43-.3C124.8,431.211,124.947,431.309,125.09,431.406Z" transform="translate(-102.693 -355.133)"/><path class="g" d="M131.725,436.531c-.118-.076-.236-.154-.355-.231C131.488,436.378,131.606,436.455,131.725,436.531Z" transform="translate(-108.219 -359.408)"/><path class="g" d="M107.593,417.94c-.143-.118-.282-.24-.423-.36C107.311,417.7,107.45,417.822,107.593,417.94Z" transform="translate(-88.288 -343.99)"/><path class="h" d="M18.686,73.69c-.146-.129-.289-.259-.434-.388-.1-.086-.194-.173-.289-.261-.159-.146-.316-.3-.473-.444-.079-.076-.159-.148-.236-.224q-.352-.339-.695-.688l-.032-.026L5.412,60.541h0V45.467h.012c-.009-.333-.012-.669-.012-1V28.394L16.778,17.028,28.144,5.662H60.292L71.659,17.028q1.14,1.14,2.173,2.36,2.148-1.556,4.332-3.069-1.312-1.58-2.762-3.034L62.481.37H25.952L13.035,13.285.12,26.2V44.467c0,.379.005.755.014,1.132Q.121,45.035.12,44.467V62.731L12.786,75.4s0,0,0,0h0q1.471,1.495,3.08,2.845,1.524-2.175,3.094-4.314C18.87,73.847,18.778,73.77,18.686,73.69Z" transform="translate(-0.12 -0.37)"/><path class="g" d="M161.845,118.938A43.919,43.919,0,0,0,151.693,90.79q-2.183,1.511-4.332,3.069A38.816,38.816,0,0,1,102.5,154.633q-.426-.183-.847-.374c-.094-.042-.187-.088-.279-.131-.187-.086-.372-.173-.557-.263-.111-.053-.22-.109-.33-.164-.166-.083-.332-.164-.5-.249-.116-.06-.233-.122-.349-.183-.155-.083-.31-.164-.466-.249-.12-.065-.236-.132-.355-.2-.15-.083-.3-.168-.448-.252-.12-.069-.238-.139-.356-.21-.145-.086-.291-.171-.434-.259-.12-.072-.238-.146-.356-.22-.141-.088-.282-.176-.423-.266-.118-.076-.236-.153-.355-.231-.085-.056-.169-.109-.254-.166l-.146-.1c-.145-.1-.288-.2-.43-.3l-.363-.254c-.143-.1-.284-.206-.427-.31-.118-.086-.236-.173-.355-.261-.141-.106-.282-.215-.422-.323-.115-.088-.231-.176-.344-.268-.141-.111-.28-.226-.422-.34l-.332-.27c-.143-.118-.282-.24-.423-.36l-.041-.035q-1.569,2.14-3.094,4.314a44.093,44.093,0,0,0,72.445-33.776Z" transform="translate(-73.652 -74.841)"/><path class="f" d="M85,30.37H52.851L41.486,41.736,30.12,53.1V69.177c0,.33,0,.665.012,1H30.12V85.249L41.236,96.365l.032.026q.344.349.695.688c.078.076.159.15.236.224.157.15.314.3.473.444.1.088.192.173.289.261.145.131.288.261.434.388l.275.236q1.569-2.14,3.182-4.244c-.623-.547-1.229-1.117-1.811-1.711L41.3,88.939l-5.882-5.882V55.293l9.816-9.816,9.816-9.816H82.808l9.816,9.816q.86.86,1.651,1.773,2.114-1.6,4.262-3.156-1.035-1.217-2.173-2.36Z" transform="translate(-24.828 -25.078)"/><path class="f" d="M30.12,341.5l11.116,11.116Z" transform="translate(-24.828 -281.329)"/><path class="f" d="M97.5,408.794c-.079-.076-.159-.148-.236-.224C97.338,408.646,97.417,408.718,97.5,408.794Z" transform="translate(-80.126 -336.569)"/><path class="f" d="M101.569,412.621c-.1-.086-.194-.173-.289-.261C101.375,412.448,101.472,412.534,101.569,412.621Z" transform="translate(-83.437 -339.69)"/><path class="f" d="M105.38,416.05l.275.236h0Z" transform="translate(-86.814 -342.73)"/><path class="f" d="M147.306,445.839c-.155-.083-.31-.164-.466-.249C146.993,445.675,147.15,445.756,147.306,445.839Z" transform="translate(-120.961 -367.059)"/><path class="f" d="M151.946,448.289c-.166-.083-.332-.164-.5-.249C151.616,448.125,151.78,448.206,151.946,448.289Z" transform="translate(-124.757 -369.077)"/><path class="f" d="M114.184,423.348c-.115-.088-.231-.178-.344-.268C113.953,423.17,114.068,423.258,114.184,423.348Z" transform="translate(-93.781 -348.52)"/><path class="f" d="M156.687,450.643c-.187-.086-.372-.173-.557-.263C156.315,450.47,156.5,450.556,156.687,450.643Z" transform="translate(-128.612 -371.004)"/><path class="f" d="M161.727,452.994q-.426-.183-.847-.374Q161.3,452.81,161.727,452.994Z" transform="translate(-132.524 -372.849)"/><path class="f" d="M109.9,419.89l-.332-.27C109.679,419.712,109.79,419.8,109.9,419.89Z" transform="translate(-90.265 -345.67)"/><path class="f" d="M138.244,440.639c-.145-.086-.291-.171-.434-.259C137.953,440.468,138.1,440.553,138.244,440.639Z" transform="translate(-113.523 -362.768)"/><path class="f" d="M142.738,443.292c-.15-.083-.3-.168-.448-.252C142.438,443.126,142.588,443.209,142.738,443.292Z" transform="translate(-117.213 -364.959)"/><path class="f" d="M106.94,417.38l.041.035-.041-.035Z" transform="translate(-88.098 -343.825)"/><path class="f" d="M122.963,429.924l-.363-.254C122.722,429.756,122.842,429.839,122.963,429.924Z" transform="translate(-100.996 -353.947)"/><path class="f" d="M129.256,434.89c.085.056.169.109.254.166-.134-.088-.268-.176-.4-.266C129.158,434.823,129.207,434.859,129.256,434.89Z" transform="translate(-106.358 -358.164)"/><path class="f" d="M118.535,426.691c-.118-.086-.236-.173-.355-.261C118.3,426.518,118.416,426.6,118.535,426.691Z" transform="translate(-97.356 -351.279)"/><path class="f" d="M133.8,437.886c-.141-.088-.282-.176-.423-.266C133.521,437.71,133.662,437.8,133.8,437.886Z" transform="translate(-109.875 -360.495)"/><path class="i" d="M133.879,178.825a33.512,33.512,0,0,0,38.514-52.755,249.756,249.756,0,0,0-47.423,47.139,33.232,33.232,0,0,0,8.909,5.616Z" transform="translate(-102.948 -103.898)"/><path class="e" d="M133.887,245.225a33.559,33.559,0,0,0,42.449-14.518l-1.12-1.118v-3.937a1.1,1.1,0,0,0-.109-.49l-4.281-8.549v-4.131a1.1,1.1,0,0,0-.489-.914l-3.293-2.2a1.1,1.1,0,0,0-.878-.152l-4.032,1.007-6.773-2.907-.09-.63q-6.363,5.778-12.319,11.985h5.657l3.184,5.306a1.175,1.175,0,0,0,1.007.57h3.267l-.822,4.12L150.8,233.12a1.175,1.175,0,0,0-.346.831v2.937l-4.23,3.173a1.173,1.173,0,0,0-.469.94v4.244l-1.462-.483-2.064-5.161V228.077a1.175,1.175,0,0,0-.94-1.152l-5.013-1.005q-5.884,6.638-11.292,13.689a33.257,33.257,0,0,0,8.908,5.616Z" transform="translate(-102.956 -170.298)"/><path class="e" d="M344.11,134.614a1.1,1.1,0,0,0,.734.473l6.586,1.1a1.071,1.071,0,0,0,.527-.042l5.4-1.8a33.331,33.331,0,0,0-5.269-8.271q-4.553,3.447-8.941,7.1Z" transform="translate(-282.644 -103.898)"/><path class="f" d="M167.952,118.166a38.633,38.633,0,0,0-6.145-9.976q-2.148,1.556-4.261,3.156a33.367,33.367,0,0,1,5.269,8.271l-5.4,1.8a1.114,1.114,0,0,1-.527.042l-6.586-1.1a1.1,1.1,0,0,1-.734-.473l-.96-1.443q-4.172,3.471-8.191,7.121l.09.63,6.773,2.907,4.032-1.007a1.1,1.1,0,0,1,.878.152l3.293,2.2a1.1,1.1,0,0,1,.489.914v4.131l4.281,8.549a1.1,1.1,0,0,1,.109.49v3.937l1.12,1.118a33.463,33.463,0,0,1-51.357,8.9q-1.614,2.1-3.182,4.244l.041.035c.141.12.28.242.423.36.109.092.22.18.332.27.139.115.28.228.422.34l.344.268c.141.108.28.217.422.323.118.088.236.175.355.261.141.1.284.208.427.31.12.086.242.169.363.254.143.1.288.2.43.3s.266.178.4.266c.118.078.236.155.355.231.141.09.282.178.423.266.118.074.236.148.356.22.145.088.289.173.434.259l.356.21c.148.085.3.169.448.252.118.067.236.132.355.2.153.085.31.166.466.249.116.062.231.124.349.183.164.085.33.166.5.249.109.055.219.111.33.164.185.09.37.176.557.263.093.044.185.088.279.131.28.129.563.252.847.374a38.827,38.827,0,0,0,51-50.8Z" transform="translate(-88.098 -89.172)"/><path class="f" d="M194.013,282.88a1.175,1.175,0,0,1,.94,1.152v11.523l2.064,5.161,1.462.483v-4.244a1.178,1.178,0,0,1,.469-.94l4.23-3.173v-2.937a1.175,1.175,0,0,1,.346-.831l4.448-4.448.822-4.12h-3.267a1.177,1.177,0,0,1-1.007-.57l-3.184-5.306H195.68q-3.41,3.556-6.68,7.244Z" transform="translate(-155.684 -226.254)"/><path class="h" d="M117.331,70.186l-9.816-9.816H79.752l-9.816,9.816L60.12,80v27.763L66,113.648l3.745,3.739q.876.889,1.811,1.711,5.4-7.048,11.292-13.689,3.27-3.688,6.68-7.244,5.95-6.2,12.319-11.985,4.016-3.649,8.191-7.121,4.387-3.649,8.941-7.1Q118.191,71.048,117.331,70.186Z" transform="translate(-49.537 -49.787)"/><path class="j" d="M91.612,154.453q.757.558,1.538,1.085c.261.175.522.348.787.519.8.519,1.63,1.007,2.469,1.473a249.611,249.611,0,0,1,57.419-63.942q-1.013-1.439-2.133-2.8-2.183,1.511-4.332,3.069T143.1,97.015a249.755,249.755,0,0,0-47.423,47.139q-1.614,2.1-3.182,4.244l-.275-.236.275.236q-1.569,2.14-3.094,4.314Q90.477,153.614,91.612,154.453Z" transform="translate(-73.652 -74.841)"/></g></svg>