<svg width="180" height="161" viewBox="0 0 180 161" fill="none" xmlns="http://www.w3.org/2000/svg">
<g clip-path="url(#clip0_6_1002)">
<path d="M18.6463 77.9274C31.759 77.755 44.8717 77.5826 57.9711 77.4103C62.1476 77.3572 66.5096 77.2512 70.1822 75.2624C74.0007 73.1808 76.6524 68.9646 76.5463 64.629C76.4403 60.2802 73.3776 56.0773 69.1746 54.9371C64.9716 53.7968 60.0395 56.0773 58.4484 60.1211C58.6606 52.6168 52.0313 45.4572 44.5137 45.5102C36.9961 45.5633 30.3669 53.2532 31.8121 60.625C30.526 57.2043 26.4158 55.3878 22.8095 55.9977C19.2032 56.5944 16.167 59.1665 14.1384 62.216C12.4546 64.7484 11.3276 67.8111 11.7254 70.8473C12.1231 73.8835 14.1782 77.9936 18.6463 77.9274Z" fill="white"/>
<path d="M18.5415 78.4312C13.543 78.4312 11.594 73.7244 11.2228 70.9136C10.7454 67.3073 12.3232 64.0324 13.7286 61.9243C16.0754 58.3975 19.3502 56.064 22.7312 55.4939C25.9397 54.9503 29.2411 56.2099 31.1238 58.4638C31.1503 55.6 32.2375 52.6698 34.2661 50.2037C36.9045 46.9687 40.7362 45.0329 44.5149 45.0064C48.1213 44.9931 51.7673 46.5974 54.5384 49.4215C56.978 51.9141 58.5027 55.0696 58.8607 58.2782C61.0483 55.1094 65.4369 53.3991 69.2951 54.4465C73.5909 55.6132 76.9188 59.9753 77.0381 64.6025C77.1574 69.0176 74.4925 73.4725 70.4088 75.6866C66.5506 77.7815 61.9897 77.8478 57.9723 77.9008L18.6475 78.4179L18.5415 78.4179L18.5415 78.4312ZM24.2029 56.369C23.7653 56.369 23.3278 56.4087 22.9035 56.475C19.801 56.9921 16.7516 59.1798 14.5639 62.4679C13.2513 64.4301 11.7796 67.4796 12.2171 70.781C12.5486 73.2603 14.2457 77.4368 18.5547 77.4368L18.6475 77.4368L57.9723 76.9064C61.8703 76.8534 66.2987 76.8004 69.9448 74.8116C73.697 72.7698 76.1498 68.6729 76.0437 64.629C75.9377 60.4261 72.928 56.4618 69.0432 55.4143C65.0259 54.3271 60.3721 56.5546 58.9137 60.3067C58.8209 60.5321 58.5822 60.6647 58.3568 60.6117C58.1182 60.5587 57.9591 60.3465 57.9591 60.1079C58.0519 56.5413 56.5537 52.9085 53.8357 50.1242C51.2503 47.4857 47.8693 45.9743 44.5282 46.0008C41.0412 46.0273 37.4879 47.8305 35.0351 50.8269C32.6618 53.7305 31.6674 57.2573 32.3171 60.5189C32.3701 60.7708 32.211 61.0227 31.9591 61.089C31.7072 61.1553 31.442 61.0227 31.3625 60.7841C30.262 57.8539 27.0932 56.369 24.2029 56.369Z" fill="black"/>
<g opacity="0.13">
<path opacity="0.13" d="M73.3126 69.3227C72.9546 69.4022 72.716 69.6806 72.4508 69.906C72.1326 70.1447 71.7879 70.3436 71.4564 70.5424C70.6874 71.0463 69.9184 71.5633 69.0964 71.9744C69.0168 72.0141 68.9638 72.0407 68.9373 72.0539C67.2269 72.5047 65.5696 73.2604 63.793 73.5123C62.5732 73.6582 58.3702 73.5389 55.9306 73.6184C50.7068 73.7245 45.4697 73.7377 40.2458 73.8968C36.1091 73.804 31.9857 74.1355 27.8888 74.6924C22.6252 75.1034 20.8751 75.3288 16.9903 73.698L17.1627 73.7775C16.2876 73.4593 15.5319 72.8096 14.6171 72.624C12.9067 72.3191 12.0582 74.7719 13.5829 75.6337C15.6645 76.7209 17.8654 77.7153 20.1724 78.1661C25.489 79.0279 30.7925 77.4501 36.1357 77.6092C38.0051 77.5695 39.8746 77.7153 41.744 77.6623C44.2631 77.5695 46.7823 77.3838 49.3146 77.3441C53.0801 77.2645 57.0046 77.0126 59.7889 76.6811C59.7491 77.4899 60.4783 78.3252 61.4197 78.1131C64.4426 77.8081 67.3993 76.8668 70.0775 75.4216C70.6874 75.1034 71.2973 74.7587 71.8939 74.4139C72.2386 74.1885 72.6629 74.0692 72.9016 73.7112C73.1402 73.4195 73.233 73.1013 73.2065 72.7831C73.6175 72.5047 74.0153 72.2263 74.3998 71.8948C74.7843 71.5766 75.1025 71.1523 75.0892 70.6352C75.1025 69.7469 74.1876 69.0575 73.3391 69.2961L73.3126 69.3227Z" fill="black"/>
</g>
</g>
<path d="M91.1837 82.325C73.8148 81.2414 64.5675 86.2469 60.9241 90.0923C59.4799 91.6218 54.8491 98.3701 56.4696 118.65C56.5341 119.474 56.6244 120.43 57.3334 120.789C61.8077 115.97 68.9366 104.806 78.4868 96.0873C83.4583 91.5388 81.6935 97.7755 85.7477 94.9969C87.4255 93.8498 89.2065 92.7677 90.4631 91.1622C91.7197 89.5567 93.0748 84.7523 91.1594 82.3132L91.1837 82.325Z" fill="white"/>
<path d="M57.5949 121.484C57.415 121.547 57.2101 121.537 57.0342 121.437C55.9554 120.885 55.8427 119.573 55.7837 118.707C54.1219 98.0181 58.9263 91.1893 60.43 89.5988C62.5102 87.4049 70.8586 80.3331 91.2347 81.6019C91.4395 81.6114 91.6334 81.7053 91.7498 81.8664C93.8981 84.6277 92.5225 89.7214 91.0406 91.6068C89.8967 93.0724 88.3737 94.085 86.8868 95.0852C86.642 95.2509 86.3971 95.4165 86.1703 95.5759C84.009 97.0723 83.0007 96.3743 82.1534 95.5599C81.5805 95.0131 81.178 94.6086 78.9931 96.6171C72.7473 102.314 67.5801 109.027 63.4261 114.42C61.2869 117.199 59.4263 119.619 57.8874 121.282C57.7982 121.373 57.6965 121.429 57.5886 121.466L57.5949 121.484ZM70.4926 85.2576C65.2222 87.0879 62.5061 89.4825 61.4601 90.5916C60.4556 91.6459 55.5427 97.9883 57.2037 118.617C57.238 118.948 57.2737 119.399 57.3744 119.747C58.7756 118.152 60.4172 116.029 62.2896 113.585C66.467 108.143 71.6819 101.394 78.0169 95.6056C80.6783 93.1696 81.9215 93.3829 83.1407 94.572C83.6832 95.0891 83.988 95.3864 85.3553 94.448C85.6001 94.2823 85.8449 94.1167 86.0897 93.951C87.5407 92.9633 88.8963 92.0491 89.9041 90.7719C91.0542 89.3243 92.1165 85.186 90.789 83.0467C81.6773 82.5223 75.0857 83.6827 70.4808 85.2818L70.4926 85.2576Z" fill="black"/>
<path d="M113.009 97.8049C119.64 113.764 117.604 122.877 115.102 127.515C114.108 129.352 109.368 137.065 89.4804 142.077C88.682 142.274 87.7333 142.503 87.1604 141.956C90.3223 136.201 98.6847 125.92 103.945 114.135C106.693 108.001 101.295 111.669 102.645 106.967C103.199 105.021 103.667 103.004 104.79 101.304C105.913 99.6038 110.075 96.7877 113.027 97.7986L113.009 97.8049Z" fill="white"/>
<path d="M96.8634 140.642C94.7049 141.392 92.311 142.102 89.6638 142.78C88.8294 142.989 87.5507 143.312 86.6793 142.486C86.4416 142.266 86.3769 141.906 86.542 141.627C87.6432 139.632 89.3342 137.129 91.303 134.208C95.1107 128.572 99.8526 121.564 103.285 113.861C104.486 111.166 103.977 110.919 103.286 110.555C102.213 110.02 101.235 109.292 101.974 106.777C102.061 106.505 102.124 106.221 102.211 105.949C102.689 104.251 103.185 102.487 104.202 100.944C105.508 98.9587 109.951 96.0246 113.265 97.1515C113.453 97.2274 113.623 97.3698 113.686 97.5497C120.311 113.491 118.458 122.842 115.751 127.875C114.404 130.378 110.037 136.088 96.8877 140.654L96.8634 140.642ZM88.1795 141.582C88.5407 141.577 88.9669 141.47 89.3032 141.393C107.601 136.793 112.995 129.92 114.466 127.192C117.014 122.457 118.729 113.638 112.468 98.3959C109.992 97.8247 106.39 100.164 105.373 101.706C104.475 103.067 104.037 104.65 103.57 106.324C103.49 106.614 103.403 106.886 103.322 107.176C102.866 108.765 103.205 108.93 103.908 109.27C105.448 110.046 106.045 111.128 104.593 114.435C101.096 122.241 96.3184 129.322 92.481 134.988C90.7603 137.521 89.2586 139.756 88.1974 141.576L88.1795 141.582Z" fill="black"/>
<path d="M146.299 59.8784C131.171 79.0608 116.043 98.2432 100.914 117.426C100.914 117.426 76.7534 100.499 76.8071 99.4926C89.7304 78.3143 102.232 58.5325 115.731 37.6783C120.339 38.7588 125.825 38.7083 129.67 41.3641C131.844 42.8664 133.651 44.8191 135.452 46.7537C137.32 48.7657 139.212 50.7895 141.08 52.8016C143.076 54.9506 145.109 57.1473 146.293 59.8604L146.299 59.8784Z" fill="white"/>
<path d="M80.4158 94.8279L77.263 99.6312L100.962 116.618L104.014 112.591L80.4158 94.8279Z" fill="#DEDEDE"/>
<path d="M101.152 118.109C100.936 118.184 100.707 118.163 100.513 118.009C100.458 117.967 94.4068 113.719 88.4333 109.404C76.0547 100.459 76.0792 100.008 76.1084 99.4531C76.1069 99.3327 76.1476 99.2178 76.2125 99.1146C88.4393 79.0652 100.822 59.4053 115.13 37.2823C115.284 37.0275 115.601 36.8971 115.891 36.9777C117.25 37.292 118.656 37.5092 120.17 37.7492C123.658 38.2717 127.26 38.8349 130.078 40.7989C132.314 42.3608 134.176 44.3549 135.976 46.2895L141.604 52.3374C143.625 54.4981 145.718 56.7543 146.946 59.5933C147.052 59.8389 147.007 60.1165 146.853 60.3111L101.474 117.876C101.391 117.986 101.278 118.065 101.152 118.109ZM77.6683 99.4758C79.6317 101.414 92.3925 110.589 100.782 116.464L145.479 59.7803C144.304 57.326 142.406 55.2842 140.568 53.3018L134.941 47.2539C133.201 45.3787 131.376 43.4324 129.274 41.9652C126.723 40.1905 123.296 39.6673 119.959 39.1731C118.662 38.9785 117.341 38.7722 116.055 38.4932C101.959 60.3003 89.7418 79.6812 77.6621 99.4578L77.6683 99.4758Z" fill="black"/>
<path d="M146.524 59.5989C136.871 51.9452 126.235 44.1292 115.719 37.7028C125.155 33.3574 135.809 29.1534 145.345 25.0355C147.064 24.2974 148.91 25.4908 148.873 27.3581C148.673 38.3326 146.964 49.4885 146.524 59.5989Z" fill="white"/>
<path d="M146.755 60.2643C146.521 60.3455 146.268 60.3125 146.073 60.1584C134.894 51.3014 124.559 43.9453 115.341 38.2975C115.11 38.1559 114.987 37.9166 114.996 37.6515C115.004 37.3864 115.164 37.1496 115.409 37.0441C121.385 34.2836 127.885 31.5828 134.169 28.9569C137.8 27.4542 141.532 25.896 145.054 24.3706C146.09 23.9301 147.271 24.0237 148.17 24.6388C149.063 25.2358 149.6 26.2589 149.559 27.3614C149.456 33.5653 148.854 39.8417 148.274 45.889C147.822 50.6821 147.396 55.2038 147.199 59.6264C147.19 59.8915 147.03 60.1284 146.785 60.2338C146.767 60.24 146.749 60.2463 146.713 60.2588L146.755 60.2643ZM117.237 37.78C125.904 43.1757 135.523 50.0349 145.886 58.1675C146.107 54.1601 146.495 50.0543 146.893 45.7436C147.455 39.7026 148.052 33.4684 148.156 27.3247C148.16 26.6984 147.888 26.1478 147.39 25.8168C146.868 25.474 146.241 25.4096 145.63 25.6822C142.108 27.2076 138.358 28.7721 134.728 30.2748C128.881 32.7085 122.842 35.2289 117.237 37.78Z" fill="black"/>
<path d="M121.132 77.6087C117.822 78.7581 114.108 78.3951 111.161 76.2941C108.858 74.6548 107.309 72.1691 106.846 69.3265C106.338 66.2375 107.1 63.0906 108.976 60.4837C112.735 55.2879 119.818 53.9167 124.77 57.4378C127.072 59.0771 128.621 61.5629 129.084 64.4055C129.592 67.4944 128.831 70.6414 126.955 73.2483C125.445 75.3447 123.38 76.8279 121.132 77.6087ZM110.13 61.3123C108.473 63.6214 107.797 66.3759 108.234 69.0863C108.651 71.5621 109.96 73.7077 111.965 75.1279C116.273 78.1873 122.485 76.9776 125.776 72.4079C127.433 70.0988 128.109 67.3444 127.654 64.6402C127.237 62.1643 125.928 60.0188 123.923 58.5986C119.615 55.5391 113.404 56.7489 110.112 61.3186L110.13 61.3123Z" fill="black"/>
<path d="M48.9852 148.058C48.7694 148.133 48.534 148.094 48.3277 147.964C48.0056 147.733 47.9339 147.295 48.1647 146.972C57.0379 134.679 66.4733 122.553 76.2462 110.935C76.5012 110.625 76.9524 110.589 77.2447 110.85C77.5551 111.106 77.5908 111.557 77.3295 111.849C67.5863 123.437 58.1565 135.52 49.3192 147.801C49.2246 147.935 49.1111 148.014 48.9672 148.064L48.9852 148.058Z" fill="black"/>
<path d="M73.5589 132.449C73.3431 132.524 73.114 132.503 72.9256 132.366C72.6036 132.136 72.5318 131.697 72.7447 131.381C76.0163 126.697 79.463 122.053 83.0081 117.577C83.2452 117.273 83.7081 117.213 84.0185 117.468C84.3225 117.705 84.3825 118.168 84.1454 118.472C80.612 122.924 77.177 127.544 73.9414 132.215C73.8467 132.349 73.7333 132.429 73.5894 132.479L73.5589 132.449Z" fill="black"/>
<path d="M85.1827 131.275C84.9849 131.343 84.7378 131.328 84.5494 131.192C84.2273 130.961 84.1376 130.529 84.3442 130.195C86.3068 127.256 88.396 124.333 90.5407 121.512C90.7715 121.19 91.2344 121.13 91.5385 121.367C91.8425 121.604 91.9205 122.061 91.6834 122.365C89.5568 125.18 87.4973 128.072 85.5465 130.987C85.4518 131.121 85.3266 131.225 85.1827 131.275Z" fill="black"/>
<path d="M60.91 111.06L60.874 111.073C60.7418 111.099 60.6144 111.022 60.5887 110.89L59.4076 105.051C59.3639 104.925 59.4586 104.792 59.5907 104.766C59.7166 104.722 59.8503 104.817 59.876 104.949L61.0571 110.787C61.0946 110.895 61.0179 111.023 60.91 111.06Z" fill="black"/>
<path d="M64.2312 106.924L64.2132 106.93C64.0873 106.974 63.9537 106.879 63.9279 106.747L61.2538 95.1577C61.2101 95.0318 61.3047 94.8981 61.4369 94.8724C61.5628 94.8287 61.6965 94.9234 61.7222 95.0555L64.3963 106.644C64.4338 106.752 64.3571 106.88 64.2492 106.917L64.2312 106.924Z" fill="black"/>
<path d="M68.294 104.001L68.276 104.007C68.1501 104.051 68.0164 103.956 67.9907 103.824L64.7928 90.3209C64.7491 90.1949 64.8437 90.0613 64.9759 90.0355C65.1018 89.9918 65.2355 90.0865 65.2612 90.2187L68.4591 103.722C68.4966 103.83 68.4199 103.957 68.312 103.995L68.294 104.001Z" fill="black"/>
<path d="M71.804 99.1337C71.6781 99.1774 71.5507 99.1008 71.5069 98.9748C70.5296 95.4642 69.762 91.8606 69.2234 88.2783C69.1976 88.1461 69.2986 88.0304 69.4307 88.0047C69.5629 87.979 69.6785 88.0799 69.7043 88.2121C70.2429 91.7944 71.0223 95.3737 71.9871 98.8484C72.0308 98.9743 71.9542 99.1017 71.8462 99.1392L71.804 99.1337Z" fill="black"/>
<path d="M75.8306 95.5182L75.8126 95.5244C75.6867 95.5681 75.553 95.4734 75.5273 95.3413L73.6578 86.9399C73.6141 86.814 73.7088 86.6804 73.8409 86.6546C73.9668 86.6109 74.1005 86.7056 74.1262 86.8377L75.9957 95.2391C76.0332 95.347 75.9565 95.4744 75.8486 95.5119L75.8306 95.5182Z" fill="black"/>
<path d="M79.3913 90.3306C79.3913 90.3306 79.3553 90.3431 79.3373 90.3494C79.1989 90.3571 79.0895 90.2742 79.0817 90.1358L78.6303 85.8177C78.6225 85.6793 78.7055 85.5698 78.8439 85.5621C78.9823 85.5543 79.0917 85.6373 79.0995 85.7757L79.5509 90.0938C79.5704 90.208 79.5055 90.3112 79.3975 90.3486L79.3913 90.3306Z" fill="black"/>
<path d="M96.3659 137.993C96.24 138.037 96.1188 137.978 96.0751 137.853L94.5531 133.644C94.5094 133.518 94.5619 133.379 94.6878 133.335C94.8137 133.292 94.9349 133.35 94.9786 133.476L96.5006 137.685C96.5443 137.811 96.4918 137.95 96.3659 137.993Z" fill="black"/>
<path d="M100.334 135.547C100.226 135.585 100.087 135.532 100.049 135.424C99.0485 133.414 98.1792 131.317 97.4843 129.2C97.4406 129.074 97.5173 128.946 97.6432 128.903C97.7691 128.859 97.8965 128.936 97.9402 129.061C98.6289 131.161 99.4919 133.239 100.486 135.232C100.53 135.358 100.496 135.491 100.376 135.553L100.34 135.565L100.334 135.547Z" fill="black"/>
<path d="M104.573 133.994C104.465 134.031 104.35 133.991 104.295 133.889C102.84 131.209 101.493 128.432 100.271 125.611C100.227 125.485 100.28 125.346 100.406 125.302C100.531 125.258 100.671 125.311 100.714 125.437C101.923 128.222 103.271 130.999 104.719 133.661C104.781 133.781 104.747 133.913 104.627 133.975L104.591 133.988L104.573 133.994Z" fill="black"/>
<path d="M108.49 130.356C108.382 130.394 108.267 130.353 108.211 130.251L103.196 121.209C103.135 121.089 103.169 120.956 103.289 120.894C103.408 120.833 103.541 120.867 103.603 120.987L108.618 130.029C108.68 130.149 108.645 130.282 108.526 130.344L108.49 130.356Z" fill="black"/>
<path d="M112.173 126.275C112.083 126.306 111.968 126.266 111.901 126.188C109.54 122.815 107.477 119.198 105.739 115.468C105.695 115.342 105.729 115.209 105.849 115.147C105.975 115.104 106.108 115.138 106.17 115.258C107.902 118.97 109.952 122.551 112.307 125.906C112.386 126.02 112.358 126.17 112.238 126.232C112.22 126.238 112.202 126.245 112.184 126.251L112.173 126.275Z" fill="black"/>
<path d="M114.313 120.311C114.205 120.349 114.09 120.308 114.041 120.224C112.194 117.459 110.423 114.567 108.791 111.667C108.729 111.547 108.764 111.414 108.877 111.334C108.997 111.273 109.13 111.307 109.209 111.42C110.842 114.321 112.6 117.177 114.447 119.942C114.526 120.056 114.498 120.207 114.379 120.268C114.361 120.275 114.343 120.281 114.325 120.287L114.313 120.311Z" fill="black"/>
<path d="M115.131 112.448C115.023 112.486 114.908 112.445 114.852 112.343L111.921 107.677C111.842 107.563 111.894 107.424 111.99 107.351C112.103 107.271 112.242 107.324 112.316 107.419L115.246 112.085C115.326 112.199 115.274 112.338 115.178 112.412C115.178 112.412 115.142 112.424 115.124 112.43L115.131 112.448Z" fill="black"/>
<g opacity="0.13">
<path opacity="0.13" d="M147.024 26.3872C145.803 26.9324 146.225 27.451 145.993 28.1765C144.419 37.6326 143.406 47.1359 142.709 57.3759C140.881 59.0789 139.408 61.1629 137.855 63.1334C135.511 65.9027 130.083 73.8955 127.729 76.8696C124.23 81.189 119.311 87.977 115.143 93.214C110.326 99.0794 106.349 104.17 102.111 109.552C101.085 110.835 99.6993 112.707 99.3613 113.127C98.9998 113.595 98.5054 114.029 98.5192 114.649C98.478 115.692 99.6185 116.364 100.505 116.016C100.722 116.464 101.183 116.748 101.66 116.844C101.887 117.209 102.258 117.463 102.722 117.523C103.172 117.831 103.769 117.926 104.265 117.612C104.528 117.441 104.723 117.191 104.919 116.942C107.525 115.855 109.778 113.985 112.15 112.455C112.782 112.014 113.415 111.572 114.054 111.149C114.472 110.843 114.974 110.547 115.178 110.033C115.254 109.845 115.306 109.646 115.34 109.453C116.096 108.787 116.04 107.637 115.817 106.707C115.65 105.878 115.465 105.055 115.173 104.27C115.135 104.162 115.079 104 114.993 103.869L114.974 103.815C114.974 103.815 114.93 103.689 114.912 103.635C114.873 103.407 114.827 103.16 114.717 102.957L114.704 102.921C114.704 102.921 114.709 102.818 114.714 102.776C114.763 101.872 113.91 101.1 113.004 101.334C112.65 101.417 112.394 101.667 112.162 101.929C116.991 96.0393 121.806 90.1137 126.294 83.9393C129.16 80.0614 130.947 78.0097 133.924 73.8715C133.978 73.8528 134.032 73.834 134.104 73.809C134.862 73.2636 135.2 72.32 135.799 71.6079C137.408 69.2754 141.917 64.847 144.354 61.36C144.888 60.6909 145.312 59.9388 145.621 59.1461C145.804 59.2643 146.033 59.3457 146.347 59.3779C147.744 59.3364 147.611 57.9108 147.719 56.8857C147.885 55.2758 148.052 53.6658 148.098 52.0574C148.048 45.6446 148.384 39.2391 148.634 32.8226C148.663 32.7319 148.674 32.6474 148.679 32.545C148.654 32.4731 148.665 32.3886 148.658 32.3104C148.672 31.9429 148.691 31.5934 148.693 31.2501C148.729 30.7739 148.603 30.2938 148.316 29.9902C148.409 29.2122 148.526 28.446 148.618 27.668C148.638 26.8548 147.817 26.2327 147.043 26.4411L147.024 26.3872Z" fill="black"/>
</g>
<path d="M104.889 113.143C104.673 113.218 104.42 113.185 104.225 113.031L80.3074 94.8302C80.0034 94.5932 79.9254 94.1365 80.1625 93.8324C80.3996 93.5284 80.8562 93.4504 81.1603 93.6875L105.078 111.888C105.382 112.125 105.46 112.582 105.223 112.886C105.14 112.995 105.009 113.081 104.883 113.125L104.889 113.143Z" fill="black"/>
<g opacity="0.13">
<path opacity="0.13" d="M127.982 61.8656C127.64 60.9967 127.53 59.8659 126.757 59.2674C125.583 58.2643 123.737 59.5099 124.147 60.9801C125.903 66.5586 124.241 70.4214 119.973 73.9193C119.508 74.2623 118.994 74.5819 118.449 74.8115L118.395 74.8303C118.395 74.8303 118.359 74.8428 118.341 74.849L118.377 74.8365C118.155 74.9537 117.959 75.1428 117.829 75.3492C117.156 76.4295 118.336 77.854 119.523 77.3815C123.882 75.8878 127.603 72.0354 128.407 67.4426C128.805 65.5708 128.54 63.6471 127.952 61.8358L127.982 61.8656Z" fill="black"/>
</g>
<defs>
<clipPath id="clip0_6_1002">
<rect width="65.9082" height="33.4248" fill="white" transform="translate(11.1433 45.0063)"/>
</clipPath>
</defs>
</svg>
