<svg width="298" height="55" viewBox="0 0 298 55" fill="none" xmlns="http://www.w3.org/2000/svg">
<path fill-rule="evenodd" clip-rule="evenodd" d="M16.4998 0.612549L0.916748 16.1956V38.2337L16.4998 53.8168H38.5374L54.121 38.2337V16.1956L38.5374 0.612549H16.4998Z" fill="#D8D9D9"/>
<path fill-rule="evenodd" clip-rule="evenodd" d="M16.6458 0.963989L1.26807 16.3412V38.0882L16.6458 53.4654H38.3928L53.77 38.0882V16.3412L38.3928 0.963989H16.6458Z" fill="white"/>
<path fill-rule="evenodd" clip-rule="evenodd" d="M17.6597 51.0168L3.71655 37.0736V17.3557L17.6597 3.41254H37.3782L51.3208 17.3557V37.0736L37.3782 51.0168H17.6597Z" fill="#ED1E45"/>
<path fill-rule="evenodd" clip-rule="evenodd" d="M14.5152 28.556L14.1426 26.8405C13.9105 25.9071 13.6869 24.9159 13.472 23.8673C13.2565 22.8193 13.0409 21.8087 12.826 20.8368H12.7268C12.5279 21.828 12.3247 22.8428 12.1183 23.8818C11.9109 24.9207 11.6916 25.9071 11.46 26.8405L11.0622 28.556H14.5152ZM15.2604 31.8438H10.3171L9.32373 36.2751H5.5979L10.665 17.6347H15.0615L20.1292 36.2751H16.2538L15.2604 31.8438Z" fill="white"/>
<path fill-rule="evenodd" clip-rule="evenodd" d="M28.1023 33.0158C30.1057 33.0158 31.1076 32.1677 31.1076 30.4715C31.1076 29.6518 30.8594 29.0562 30.3625 28.6847C29.8655 28.3126 29.1118 28.1272 28.1023 28.1272H26.0405V33.0158H28.1023ZM27.7544 25.1536C28.6486 25.1536 29.2983 24.9493 29.7042 24.5392C30.11 24.1296 30.3132 23.5721 30.3132 22.8666C30.3132 22.1616 30.1057 21.6566 29.6918 21.3516C29.278 21.0466 28.64 20.8938 27.7791 20.8938H26.0405V25.1536H27.7544ZM22.3894 17.6348H27.9283C28.7732 17.6348 29.5553 17.7061 30.2758 17.8493C30.9963 17.9924 31.6252 18.2449 32.1639 18.6068C32.7016 18.9692 33.1241 19.4457 33.4307 20.036C33.7368 20.6273 33.8901 21.3708 33.8901 22.2661C33.8901 22.6859 33.836 23.1051 33.7288 23.5243C33.6205 23.9435 33.4591 24.3343 33.2442 24.6962C33.0286 25.0586 32.7472 25.3824 32.3998 25.6681C32.0519 25.9544 31.6461 26.164 31.1824 26.2975V26.4117C32.3414 26.6594 33.2152 27.1365 33.8033 27.8409C34.3909 28.5464 34.6846 29.528 34.6846 30.7857C34.6846 31.7388 34.5233 32.5585 34.2005 33.2447C33.8778 33.9309 33.4307 34.4981 32.8592 34.9457C32.2878 35.3939 31.6209 35.7273 30.8596 35.9461C30.0978 36.1659 29.2782 36.2752 28.4006 36.2752H22.3894V17.6348Z" fill="white"/>
<path fill-rule="evenodd" clip-rule="evenodd" d="M42.882 26.6118C44.8693 26.6118 45.8626 25.6211 45.8626 23.6387C45.8626 22.6667 45.6101 21.9806 45.1052 21.5801C44.5996 21.1796 43.8587 20.9797 42.882 20.9797H40.8454V26.6118H42.882ZM37.1938 17.6349H43.1058C43.9834 17.6349 44.8074 17.7347 45.5772 17.9352C46.3476 18.1351 47.0182 18.4686 47.5892 18.9355C48.1606 19.403 48.6115 20.0222 48.9433 20.7941C49.2741 21.5656 49.4398 22.5139 49.4398 23.6386C49.4398 24.7247 49.2698 25.6683 48.9305 26.4686C48.5911 27.2696 48.1317 27.9268 47.5522 28.4415C46.9721 28.9561 46.3015 29.3378 45.5402 29.5849C44.7779 29.8331 43.9668 29.957 43.1058 29.957H40.8457V36.2748H37.1938V17.6349Z" fill="white"/>
<path fill-rule="evenodd" clip-rule="evenodd" d="M104.499 40.8192C105.687 40.8192 106.799 40.5451 107.835 39.997C108.871 39.4489 109.79 38.8004 110.591 38.0518H110.715L111.005 40.3379H113.823V11.781H110.384V19.2812L110.55 22.6102C109.666 21.915 108.795 21.3668 107.939 20.9657C107.082 20.5647 106.074 20.3641 104.914 20.3641C103.754 20.3641 102.648 20.6048 101.599 21.0861C100.549 21.5674 99.6234 22.2492 98.8222 23.1316C98.0211 24.014 97.3788 25.0902 96.8953 26.3603C96.4118 27.6304 96.1701 29.0542 96.1701 30.6318C96.1701 33.8939 96.9229 36.4073 98.4286 38.1721C99.9342 39.9368 101.958 40.8192 104.499 40.8192ZM78.5285 32.3164L75.9179 40.338H72.3955L81.595 14.0271H85.4903L94.6899 40.338H91.0018L88.4325 32.3164H78.5285ZM79.3988 29.629H87.5623L86.2777 25.6182C85.7804 24.1476 85.3108 22.6837 84.8687 21.2264C84.4267 19.7691 83.9847 18.2785 83.5427 16.7544H83.3769C82.9625 18.2785 82.5343 19.7691 82.0923 21.2264C81.6503 22.6837 81.1806 24.1476 80.6834 25.6182L79.3988 29.629ZM101.143 36.0864C102.11 37.3966 103.477 38.0517 105.245 38.0517C106.185 38.0517 107.069 37.8311 107.897 37.39C108.726 36.9488 109.555 36.2736 110.384 35.3645V25.1771C109.527 24.4284 108.706 23.9003 107.918 23.5928C107.131 23.2853 106.323 23.1316 105.494 23.1316C104.693 23.1316 103.94 23.312 103.236 23.673C102.531 24.034 101.916 24.542 101.391 25.1971C100.867 25.8522 100.452 26.6343 100.148 27.5434C99.8444 28.4526 99.6925 29.4686 99.6925 30.5917C99.6925 32.9447 100.176 34.7763 101.143 36.0864ZM128.937 40.8192C130.097 40.8192 131.202 40.5853 132.252 40.1173C133.301 39.6494 134.227 38.9609 135.028 38.0518C135.829 37.1426 136.465 36.033 136.934 34.7228C137.404 33.4126 137.639 31.9286 137.639 30.2708C137.639 28.7734 137.466 27.4165 137.121 26.1998C136.775 24.9832 136.264 23.9404 135.588 23.0714C134.911 22.2024 134.075 21.5339 133.08 21.066C132.086 20.5981 130.939 20.3641 129.641 20.3641C128.508 20.3641 127.403 20.6248 126.326 21.1462C125.248 21.6676 124.254 22.316 123.342 23.0915L123.425 19.562V11.781H120.027V40.3379H122.762L123.052 38.3325H123.176C124.06 39.1079 125.007 39.7162 126.015 40.1574C127.023 40.5986 127.997 40.8192 128.937 40.8192ZM126.056 37.5905C126.927 37.898 127.693 38.0517 128.356 38.0517C129.185 38.0517 129.952 37.8713 130.656 37.5103C131.361 37.1493 131.968 36.6413 132.48 35.9862C132.991 35.3311 133.391 34.5222 133.681 33.5596C133.971 32.597 134.116 31.5141 134.116 30.3109C134.116 29.2413 134.02 28.2654 133.826 27.383C133.633 26.5006 133.322 25.7453 132.894 25.1169C132.466 24.4885 131.913 24.0006 131.236 23.653C130.56 23.3054 129.751 23.1316 128.812 23.1316C127.182 23.1316 125.387 24.0139 123.425 25.7787V36.0062C124.309 36.7549 125.186 37.283 126.056 37.5905ZM145.956 40.8192C146.426 40.8192 146.813 40.7925 147.117 40.739C147.42 40.6855 147.683 40.6053 147.904 40.4984L147.448 38.0117C147.255 38.0651 147.11 38.0919 147.013 38.0919H146.702C146.454 38.0919 146.233 37.9849 146.039 37.771C145.846 37.5571 145.749 37.1828 145.749 36.648V11.781H142.351V36.4073C142.351 37.8512 142.627 38.9475 143.18 39.6962C143.732 40.4449 144.658 40.8192 145.956 40.8192ZM163.701 40.1374C162.582 40.5919 161.401 40.8192 160.158 40.8192C158.915 40.8192 157.734 40.5919 156.615 40.1374C155.496 39.6828 154.509 39.021 153.652 38.152C152.796 37.283 152.112 36.2135 151.601 34.9434C151.09 33.6733 150.834 32.2361 150.834 30.6318C150.834 29.0007 151.09 27.5501 151.601 26.28C152.112 25.0099 152.796 23.9337 153.652 23.0513C154.509 22.169 155.496 21.5005 156.615 21.0459C157.734 20.5914 158.915 20.3641 160.158 20.3641C161.401 20.3641 162.582 20.5914 163.701 21.0459C164.82 21.5005 165.808 22.169 166.664 23.0513C167.521 23.9337 168.204 25.0099 168.715 26.28C169.227 27.5501 169.482 29.0007 169.482 30.6318C169.482 32.2361 169.227 33.6733 168.715 34.9434C168.204 36.2135 167.521 37.283 166.664 38.152C165.808 39.021 164.82 39.6828 163.701 40.1374ZM160.158 38.0919C159.302 38.0919 158.514 37.9114 157.796 37.5504C157.078 37.1894 156.463 36.6814 155.952 36.0263C155.441 35.3712 155.047 34.5891 154.771 33.68C154.495 32.7709 154.357 31.7548 154.357 30.6318C154.357 29.5088 154.495 28.486 154.771 27.5635C155.047 26.641 155.441 25.8456 155.952 25.1771C156.463 24.5086 157.078 23.9939 157.796 23.6329C158.514 23.272 159.302 23.0915 160.158 23.0915C161.015 23.0915 161.802 23.272 162.52 23.6329C163.239 23.9939 163.853 24.5086 164.364 25.1771C164.875 25.8456 165.269 26.641 165.545 27.5635C165.822 28.486 165.96 29.5088 165.96 30.6318C165.96 31.7548 165.822 32.7709 165.545 33.68C165.269 34.5891 164.875 35.3712 164.364 36.0263C163.853 36.6814 163.239 37.1894 162.52 37.5504C161.802 37.9114 161.015 38.0919 160.158 38.0919ZM185.632 40.1574C184.526 40.5986 183.366 40.8192 182.151 40.8192C180.825 40.8192 179.581 40.5919 178.421 40.1374C177.261 39.6828 176.259 39.021 175.417 38.152C174.574 37.283 173.911 36.2135 173.428 34.9434C172.944 33.6733 172.702 32.2361 172.702 30.6318C172.702 29.0007 172.965 27.5501 173.49 26.28C174.015 25.0099 174.719 23.9337 175.603 23.0513C176.487 22.169 177.516 21.5005 178.69 21.0459C179.865 20.5914 181.101 20.3641 182.399 20.3641C183.725 20.3641 184.858 20.5914 185.797 21.0459C186.737 21.5005 187.565 22.0353 188.284 22.6503L186.543 24.8161C185.963 24.3081 185.348 23.8936 184.699 23.5727C184.05 23.2519 183.325 23.0914 182.524 23.0914C181.612 23.0914 180.769 23.2719 179.996 23.6329C179.222 23.9939 178.559 24.5086 178.007 25.1771C177.454 25.8455 177.019 26.641 176.701 27.5635C176.384 28.486 176.225 29.5087 176.225 30.6318C176.225 31.7548 176.377 32.7708 176.681 33.68C176.985 34.5891 177.406 35.3712 177.945 36.0263C178.483 36.6814 179.139 37.1894 179.913 37.5504C180.686 37.9114 181.529 38.0918 182.441 38.0918C183.38 38.0918 184.243 37.898 185.031 37.5103C185.818 37.1226 186.529 36.6613 187.165 36.1266L188.657 38.3325C187.745 39.1079 186.737 39.7162 185.632 40.1574ZM195.855 40.3379V35.2041L199.626 30.9526L205.511 40.3379H209.24L201.574 28.6665L208.329 20.8454H204.558L195.98 31.1131H195.855V11.781H192.499V40.3379H195.855ZM218.303 31.474V40.3379H212.212V14.1875H221.494C222.986 14.1875 224.381 14.3278 225.68 14.6086C226.978 14.8893 228.111 15.3573 229.078 16.0124C230.044 16.6675 230.811 17.5365 231.377 18.6194C231.944 19.7023 232.227 21.0326 232.227 22.6101C232.227 24.1342 231.944 25.4578 231.377 26.5808C230.811 27.7039 230.044 28.6263 229.078 29.3483C228.111 30.0702 226.992 30.605 225.721 30.9526C224.45 31.3002 223.096 31.474 221.66 31.474H218.303ZM221.287 26.7814H218.304V18.8801H221.122C222.779 18.8801 224.05 19.1608 224.934 19.7224C225.818 20.2839 226.26 21.2465 226.26 22.6101C226.26 25.391 224.602 26.7814 221.287 26.7814ZM243.24 40.6788C242.729 40.7724 242.128 40.8192 241.438 40.8192C240.388 40.8192 239.504 40.6588 238.786 40.3379C238.067 40.017 237.494 39.5692 237.066 38.9943C236.638 38.4194 236.327 37.7242 236.133 36.9087C235.94 36.0931 235.843 35.1773 235.843 34.1613V12.2222H241.935V34.4019C241.935 35.0169 242.052 35.4447 242.287 35.6854C242.522 35.926 242.764 36.0464 243.012 36.0464H243.365C243.461 36.0464 243.593 36.0196 243.758 35.9661L244.504 40.3379C244.173 40.4716 243.751 40.5852 243.24 40.6788ZM253.3 40.8193C254.709 40.8193 255.918 40.5318 256.926 39.957C257.935 39.3821 258.881 38.5866 259.765 37.5705H259.889L260.345 40.338H265.318V20.4444H259.226V33.5998C258.618 34.3753 258.052 34.9368 257.527 35.2844C257.002 35.632 256.353 35.8058 255.58 35.8058C254.696 35.8058 254.046 35.5384 253.632 35.0036C253.217 34.4688 253.01 33.4795 253.01 32.0356V20.4444H246.919V32.7977C246.919 35.3111 247.423 37.2764 248.431 38.6936C249.44 40.1107 251.063 40.8193 253.3 40.8193ZM279.791 40.3178C278.741 40.6521 277.526 40.8192 276.144 40.8192C274.791 40.8192 273.402 40.5652 271.98 40.0571C270.557 39.5491 269.321 38.8806 268.271 38.0517L271.006 34.3618C271.945 35.057 272.843 35.5784 273.699 35.926C274.556 36.2736 275.426 36.4474 276.31 36.4474C277.222 36.4474 277.885 36.3003 278.299 36.0062C278.714 35.7121 278.921 35.2976 278.921 34.7629C278.921 34.442 278.803 34.1546 278.569 33.9005C278.334 33.6465 278.016 33.4126 277.616 33.1987C277.215 32.9847 276.766 32.7909 276.269 32.6171C275.771 32.4433 275.26 32.2494 274.735 32.0355C274.1 31.7949 273.465 31.5141 272.829 31.1932C272.194 30.8724 271.614 30.478 271.089 30.0101C270.564 29.5421 270.136 28.994 269.804 28.3656C269.473 27.7373 269.307 27.0086 269.307 26.1797C269.307 25.2706 269.493 24.4284 269.866 23.6529C270.239 22.8775 270.771 22.2224 271.462 21.6876C272.152 21.1529 272.981 20.7317 273.948 20.4242C274.915 20.1167 275.992 19.963 277.18 19.963C278.755 19.963 280.136 20.2237 281.324 20.7451C282.512 21.2665 283.548 21.8481 284.432 22.4898L281.697 26.0193C280.951 25.4845 280.219 25.0701 279.501 24.776C278.783 24.4818 278.064 24.3348 277.346 24.3348C275.799 24.3348 275.026 24.8562 275.026 25.899C275.026 26.2199 275.136 26.4939 275.357 26.7212C275.578 26.9485 275.875 27.1557 276.248 27.3429C276.621 27.53 277.049 27.7105 277.533 27.8843C278.016 28.0581 278.52 28.2386 279.045 28.4258C279.708 28.6664 280.364 28.9405 281.014 29.248C281.663 29.5555 282.257 29.9365 282.795 30.3911C283.334 30.8456 283.769 31.4005 284.101 32.0556C284.432 32.7107 284.598 33.4928 284.598 34.4019C284.598 35.311 284.418 36.1533 284.059 36.9287C283.7 37.7041 283.161 38.3793 282.443 38.9542C281.725 39.529 280.841 39.9836 279.791 40.3178Z" fill="black"/>
</svg>