<svg width="22px" height="17px" viewBox="0 0 22 17" xmlns="http://www.w3.org/2000/svg">
  <g stroke="none" stroke-width="1" fill="none" fill-rule="evenodd">
    <g transform="translate(-162, -731)" fill="#FFF" fill-rule="nonzero">
      <g transform="translate(0, 708)">
        <g transform="translate(140, 0)">
          <path d="M28.5714088,29.2207792 L31.4207659,39.5238095 L22,29.2207792 L28.5714088,29.2207792 Z M35.8489501,29.2207792 L33,39.5238095 L30.1510499,29.2207792 L35.8489501,29.2207792 Z M44,29.2207792 L34.5792341,39.5238095 L37.4285912,29.2207792 L44,29.2207792 Z M31.2422995,23.3333333 L28.625844,27.7489177 L22,27.7489177 L26.3553325,23.5487157 C26.4987975,23.4108514 26.6926279,23.3333333 26.8951068,23.3333333 L31.2422995,23.3333333 Z M33,23.3333333 L35.6164555,27.7489177 L30.3835445,27.7489177 L33,23.3333333 Z M39.1048932,23.3333333 C39.3073721,23.3333333 39.5012025,23.4108514 39.6446675,23.5487157 L44,27.7489177 L37.374156,27.7489177 L34.7577005,23.3333333 L39.1048932,23.3333333 Z" id="value-icon"></path>
        </g>
      </g>
    </g>
  </g>
</svg>
