<svg width="154px" height="113px" viewBox="0 0 154 113" xmlns="http://www.w3.org/2000/svg">
  <g stroke="none" stroke-width="1" fill="none" fill-rule="evenodd">
    <g transform="translate(-930, -848)" fill="#F6F6F6" fill-rule="nonzero">
      <path d="M975.999861,889.090909 L995.945361,961 L930,889.090909 L975.999861,889.090909 Z M1026.94265,889.090909 L1007,961 L987.057349,889.090909 L1026.94265,889.090909 Z M1084,889.090909 L1018.05464,961 L1038.00014,889.090909 L1084,889.090909 Z M994.696097,848 L976.380908,878.818182 L930,878.818182 L960.487328,849.503242 C961.491583,848.54103 962.848395,848 964.265748,848 L994.696097,848 Z M1007,848 L1025.31519,878.818182 L988.684812,878.818182 L1007,848 Z M1049.73425,848 C1051.1516,848 1052.50842,848.54103 1053.51267,849.503242 L1084,878.818182 L1037.61909,878.818182 L1019.3039,848 L1049.73425,848 Z"></path>
    </g>
  </g>
</svg>
