<svg viewBox="0 0 149 54" xmlns="http://www.w3.org/2000/svg" preserveAspectRatio="xMidYMax meet">
  <g transform="translate(-540, -1009)" fill="#ED1E45">
    <path d="M688.402439,1060 L688.402439,1063 L577.597561,1063 L577.597561,1060 L688.402439,1060 Z M584.148986,1009 C585.505987,1009 586.832312,1009.38813 587.974422,1010.11526 L588.281223,1010.32194 L606.982673,1023.63625 C610.204562,1025.93005 610.966354,1030.41469 608.684182,1033.65299 C608.295051,1034.20515 607.83067,1034.69874 607.305184,1035.11953 L606.982673,1035.36316 L588.281223,1048.67748 C585.059334,1050.97128 580.59741,1050.2056 578.315238,1046.96731 C577.530868,1045.85432 577.079344,1044.54215 577.009537,1043.18512 L577,1042.81403 L577,1016.18539 C577,1012.21701 580.20071,1009 584.148986,1009 Z M584.245275,1012 C581.98441,1012 580.136329,1013.78199 580.007207,1016.02897 L580,1016.28048 L580,1042.71917 C580,1043.60555 580.272901,1044.47006 580.781027,1045.19336 C582.084123,1047.04829 584.583964,1047.54134 586.475206,1046.36175 L586.699118,1046.21215 L605.208223,1032.9928 C605.521401,1032.76913 605.802687,1032.50393 606.044648,1032.2047 L606.218629,1031.97402 L606.366999,1031.74825 C607.490094,1029.9176 607.084354,1027.52142 605.42248,1026.17019 L605.208223,1026.00685 L586.699118,1012.7875 C585.981764,1012.27516 585.124359,1012 584.245275,1012 Z M563.583155,1036 C564.365657,1036 565,1036.67157 565,1037.5 C565,1038.2647 564.459495,1038.89575 563.760881,1038.98831 L563.583155,1039 L549.416845,1039 C548.634343,1039 548,1038.32843 548,1037.5 C548,1036.7353 548.540505,1036.10425 549.239119,1036.01169 L549.416845,1036 L563.583155,1036 Z M555.583155,1026 C556.365657,1026 557,1026.67157 557,1027.5 C557,1028.2647 556.459495,1028.89575 555.760881,1028.98831 L555.583155,1029 L541.416845,1029 C540.634343,1029 540,1028.32843 540,1027.5 C540,1026.7353 540.540505,1026.10425 541.239119,1026.01169 L541.416845,1026 L555.583155,1026 Z M563.583155,1016 C564.365657,1016 565,1016.67157 565,1017.5 C565,1018.2647 564.459495,1018.89575 563.760881,1018.98831 L563.583155,1019 L549.416845,1019 C548.634343,1019 548,1018.32843 548,1017.5 C548,1016.7353 548.540505,1016.10425 549.239119,1016.01169 L549.416845,1016 L563.583155,1016 Z"></path>
  </g>
</svg>
