<?xml version="1.0" encoding="UTF-8"?>
<svg width="368px" height="283px" viewBox="0 0 368 283" version="1.1" xmlns="http://www.w3.org/2000/svg" xmlns:xlink="http://www.w3.org/1999/xlink">
    <title>EB1D9311-7589-40C1-966B-7687522AA9F9</title>
    <defs>
        <linearGradient x1="-7.97051215e-15%" y1="50.0129955%" x2="100.026435%" y2="50.0129955%" id="linearGradient-1">
            <stop stop-color="#0C59A4" offset="0%"></stop>
            <stop stop-color="#114A8B" offset="100%"></stop>
        </linearGradient>
        <radialGradient cx="55.2461807%" cy="50.9262508%" fx="55.2461807%" fy="50.9262508%" r="61.9837382%" gradientTransform="translate(0.552462,0.509263),scale(0.863069,1.000000),translate(-0.552462,-0.509263)" id="radialGradient-2">
            <stop stop-color="#000000" stop-opacity="0" offset="72%"></stop>
            <stop stop-color="#000000" stop-opacity="0.53" offset="95%"></stop>
            <stop stop-color="#000000" offset="100%"></stop>
        </radialGradient>
        <linearGradient x1="76.6642245%" y1="24.7942842%" x2="33.233434%" y2="83.1510351%" id="linearGradient-3">
            <stop stop-color="#1B9DE2" offset="0%"></stop>
            <stop stop-color="#1595DF" offset="16%"></stop>
            <stop stop-color="#0680D7" offset="67%"></stop>
            <stop stop-color="#0078D4" offset="100%"></stop>
        </linearGradient>
        <radialGradient cx="10.1019077%" cy="27.7890034%" fx="10.1019077%" fy="27.7890034%" r="118.830897%" gradientTransform="translate(0.101019,0.277890),scale(0.665835,1.000000),rotate(92.290921),translate(-0.101019,-0.277890)" id="radialGradient-4">
            <stop stop-color="#35C1F1" offset="0%"></stop>
            <stop stop-color="#34C1ED" offset="11%"></stop>
            <stop stop-color="#2FC2DF" offset="23%"></stop>
            <stop stop-color="#2BC3D2" offset="31%"></stop>
            <stop stop-color="#36C752" offset="67%"></stop>
        </radialGradient>
        <radialGradient cx="93.7723426%" cy="45.4027789%" fx="93.7723426%" fy="45.4027789%" r="57.0956763%" gradientTransform="translate(0.937723,0.454028),scale(0.665835,1.000000),rotate(73.737701),translate(-0.937723,-0.454028)" id="radialGradient-5">
            <stop stop-color="#66EB6E" offset="0%"></stop>
            <stop stop-color="#66EB6E" stop-opacity="0" offset="100%"></stop>
        </radialGradient>
    </defs>
    <g id="Landings" stroke="none" stroke-width="1" fill="none" fill-rule="evenodd">
        <g id="Edge_landing" transform="translate(-140.000000, -1126.000000)">
            <g id="website-with-abp-for-edge" transform="translate(140.000000, 1126.000000)">
                <path d="M13.249,0 L269.749,0 C277.061523,0.0121085893 282.986788,5.93647858 283,13.249 L283,269.749 C282.987891,277.061523 277.063521,282.986788 269.751,283 L13.249,283 C5.93725771,282.986791 0.0132090511,277.062742 0,269.751 L0,13.249 C0.0132090511,5.93725771 5.93725771,0.0132090511 13.249,0 Z" id="Path_173" fill="#F1F1F1" fill-rule="nonzero"></path>
                <path d="M26.554,57.487 L256.502,57.487 C261.39643,57.4974506 265.361549,61.4625696 265.372,66.357 L265.372,256.502 C265.361549,261.39643 261.39643,265.361549 256.502,265.372 L26.554,265.372 C21.6595696,265.361549 17.6944506,261.39643 17.684,256.502 L17.684,66.357 C17.6944506,61.4625696 21.6595696,57.4974506 26.554,57.487 Z" id="Path_174" fill="#FFFFFF" fill-rule="nonzero"></path>
                <polygon id="Path_175" fill="#FFFFFF" fill-rule="nonzero" points="264.974 19.873 264.974 37.613 114.974 37.613 114.974 19.873"></polygon>
                <path d="M48.617,79.606 L234.327,79.606 C239.22143,79.6164506 243.186549,83.5815696 243.197,88.476 L243.197,141.528 C243.186549,146.42243 239.22143,150.387549 234.327,150.398 L48.617,150.398 C43.7225696,150.387549 39.7574506,146.42243 39.747,141.528 L39.747,88.476 C39.7968234,83.5980208 43.7390208,79.6558234 48.617,79.606 Z" id="Path_176" fill="#CECECE" fill-rule="nonzero"></path>
                <path d="M123.732,241.007 L46.54,241.007 C42.8238166,240.996017 39.8139833,237.986183 39.803,234.27 L39.803,181.387 C39.8139833,177.670817 42.8238166,174.660983 46.54,174.65 L123.732,174.65 C127.448183,174.660983 130.458017,177.670817 130.469,181.387 L130.469,234.27 C130.458017,237.986183 127.448183,240.996017 123.732,241.007 L123.732,241.007 Z" id="Path_177" fill="#44D15A" fill-rule="nonzero"></path>
                <path d="M25.709,20.379 C25.89512,20.19288 26.19688,20.19288 26.383,20.379 C26.545855,20.541855 26.5662118,20.7932469 26.4440706,20.9782361 L26.383,21.053 L19.2084543,28.22941 L40.941833,28.229467 C41.2179753,28.229467 41.441833,28.4533246 41.441833,28.729467 C41.441833,28.9749269 41.2649578,29.1790754 41.0317086,29.2214113 L40.941833,29.229467 L19.1804543,29.22941 L26.386,36.434 C26.5336367,36.6028641 26.5520913,36.8444912 26.4413638,37.031546 L26.386,37.108 C26.306506,37.2141672 26.1816302,37.2766669 26.049,37.2766669 C25.9428958,37.2766669 25.8417545,37.2366671 25.7648412,37.1663095 L25.712,37.108 L17.683,29.082 C17.5353633,28.9131359 17.5169087,28.6715088 17.6276362,28.484454 L17.683,28.408 L25.709,20.379 Z" id="Path" fill="#5D5D5D" fill-rule="nonzero"></path>
                <path d="M71.709,20.379 C71.89512,20.19288 72.19688,20.19288 72.383,20.379 C72.545855,20.541855 72.5662118,20.7932469 72.4440706,20.9782361 L72.383,21.053 L65.2084543,28.22941 L86.941833,28.229467 C87.2179753,28.229467 87.441833,28.4533246 87.441833,28.729467 C87.441833,28.9749269 87.2649578,29.1790754 87.0317086,29.2214113 L86.941833,29.229467 L65.1804543,29.22941 L72.386,36.434 C72.5336367,36.6028641 72.5520913,36.8444912 72.4413638,37.031546 L72.386,37.108 C72.306506,37.2141672 72.1816302,37.2766669 72.049,37.2766669 C71.9428958,37.2766669 71.8417545,37.2366671 71.7648412,37.1663095 L71.712,37.108 L63.683,29.082 C63.5353633,28.9131359 63.5169087,28.6715088 63.6276362,28.484454 L63.683,28.408 L71.709,20.379 Z" id="Path-Copy" fill="#5D5D5D" fill-rule="nonzero" transform="translate(75.499144, 28.758038) scale(-1, 1) translate(-75.499144, -28.758038) "></path>
                <path d="M239.153,182.85 L152.253,182.85 C149.993407,182.838514 148.164486,181.009593 148.153,178.75 L148.153,178.75 C148.164486,176.490407 149.993407,174.661486 152.253,174.65 L239.153,174.65 C241.412593,174.661486 243.241514,176.490407 243.253,178.75 L243.253,178.75 C243.221809,181.001321 241.404321,182.818809 239.153,182.85 L239.153,182.85 Z" id="Path_179" fill="#EAEAEA" fill-rule="nonzero"></path>
                <path d="M239.153,202.219 L152.253,202.219 C149.993407,202.207514 148.164486,200.378593 148.153,198.119 L148.153,198.119 C148.164486,195.859407 149.993407,194.030486 152.253,194.019 L239.153,194.019 C241.412593,194.030486 243.241514,195.859407 243.253,198.119 L243.253,198.119 C243.241514,200.378593 241.412593,202.207514 239.153,202.219 Z" id="Path_180" fill="#EAEAEA" fill-rule="nonzero"></path>
                <path d="M239.153,221.643 L152.253,221.643 C149.993407,221.631514 148.164486,219.802593 148.153,217.543 L148.153,217.543 C148.164486,215.283407 149.993407,213.454486 152.253,213.443 L239.153,213.443 C241.412593,213.454486 243.241514,215.283407 243.253,217.543 L243.253,217.543 C243.221809,219.794321 241.404321,221.611809 239.153,221.643 L239.153,221.643 Z" id="Path_181" fill="#EAEAEA" fill-rule="nonzero"></path>
                <path d="M222.653,241.011 L152.253,241.011 C149.993407,240.999514 148.164486,239.170593 148.153,236.911 L148.153,236.911 C148.164486,234.651407 149.993407,232.822486 152.253,232.811 L222.653,232.811 C224.912593,232.822486 226.741514,234.651407 226.753,236.911 L226.753,236.911 C226.741514,239.170593 224.912593,240.999514 222.653,241.011 L222.653,241.011 Z" id="Path_182" fill="#EAEAEA" fill-rule="nonzero"></path>
                <g id="microsoft-edge-new-2020-seeklogo.com-2" transform="translate(315.000000, 9.000000)" fill-rule="nonzero">
                    <path d="M47.8357213,39.4399047 C47.1291228,39.8093984 46.4004167,40.1349904 45.6537483,40.4148284 C43.2770657,41.3039953 40.7593938,41.7569744 38.2217909,41.7519848 C28.4256844,41.7519848 19.8923896,35.0144551 19.8923896,26.3684762 C19.9179264,24.0071365 21.2192205,21.8444154 23.2937005,20.715575 C14.4333167,21.0881573 12.1561153,30.3199184 12.1561153,35.7285712 C12.1561153,51.0210041 26.2519921,52.5713603 29.2889508,52.5713603 C30.9264656,52.5713603 33.3961941,52.095283 34.8784452,51.6274852 L35.1496392,51.5364096 C40.8534991,49.5648091 45.7160774,45.7103164 48.9370587,40.6073292 C49.140007,40.2876189 49.1001623,39.8709848 48.8402949,39.5955238 C48.5804275,39.3200627 48.1667713,39.255983 47.8357213,39.4399047 Z" id="Path" fill="url(#linearGradient-1)"></path>
                    <path d="M47.8357213,39.4399047 C47.1291228,39.8093984 46.4004167,40.1349904 45.6537483,40.4148284 C43.2770657,41.3039953 40.7593938,41.7569744 38.2217909,41.7519848 C28.4256844,41.7519848 19.8923896,35.0144551 19.8923896,26.3684762 C19.9179264,24.0071365 21.2192205,21.8444154 23.2937005,20.715575 C14.4333167,21.0881573 12.1561153,30.3199184 12.1561153,35.7285712 C12.1561153,51.0210041 26.2519921,52.5713603 29.2889508,52.5713603 C30.9264656,52.5713603 33.3961941,52.095283 34.8784452,51.6274852 L35.1496392,51.5364096 C40.8534991,49.5648091 45.7160774,45.7103164 48.9370587,40.6073292 C49.140007,40.2876189 49.1001623,39.8709848 48.8402949,39.5955238 C48.5804275,39.3200627 48.1667713,39.255983 47.8357213,39.4399047 Z" id="Path" fill="url(#radialGradient-2)" opacity="0.35"></path>
                    <path d="M21.8880461,49.971564 C20.0415736,48.8256712 18.4413599,47.3241797 17.1804497,45.554394 C14.2713333,41.569252 13.2724837,36.5023016 14.4515888,31.7114664 C15.6306939,26.9206311 18.867187,22.8957863 23.2937005,20.715575 C23.9395976,20.4112995 25.0430052,19.8607057 26.510765,19.8876144 C28.6070339,19.9028751 30.5752144,20.8987049 31.8290655,22.5784864 C32.6650533,23.6945425 33.1259774,25.0466927 33.1457019,26.4409228 C33.1457019,26.3974549 38.2093698,9.96450621 16.584237,9.96450621 C7.49613307,9.96450621 0.0227720143,18.5877162 0.0227720143,26.1532065 C-0.0130754221,30.1552505 0.843337393,34.1150024 2.52976377,37.7446553 C8.23470169,49.9152929 22.1502893,55.8863127 34.9032874,51.6357648 C30.5374729,53.012093 25.7877613,52.4069238 21.9066778,49.9798436 L21.8880461,49.971564 Z" id="Path" fill="url(#linearGradient-3)"></path>
                    <path d="M21.8880461,49.971564 C20.0415736,48.8256712 18.4413599,47.3241797 17.1804497,45.554394 C14.2713333,41.569252 13.2724837,36.5023016 14.4515888,31.7114664 C15.6306939,26.9206311 18.867187,22.8957863 23.2937005,20.715575 C23.9395976,20.4112995 25.0430052,19.8607057 26.510765,19.8876144 C28.6070339,19.9028751 30.5752144,20.8987049 31.8290655,22.5784864 C32.6650533,23.6945425 33.1259774,25.0466927 33.1457019,26.4409228 C33.1457019,26.3974549 38.2093698,9.96450621 16.584237,9.96450621 C7.49613307,9.96450621 0.0227720143,18.5877162 0.0227720143,26.1532065 C-0.0130754221,30.1552505 0.843337393,34.1150024 2.52976377,37.7446553 C8.23470169,49.9152929 22.1502893,55.8863127 34.9032874,51.6357648 C30.5374729,53.012093 25.7877613,52.4069238 21.9066778,49.9798436 L21.8880461,49.971564 Z" id="Path" opacity="0.41"></path>
                    <path d="M31.5350995,30.8125549 C31.3674146,31.0298946 30.851939,31.3300303 30.851939,31.9841192 C30.851939,32.5243635 31.2038702,33.0439088 31.8290655,33.4806581 C34.8059888,35.5505596 40.4182552,35.2773326 40.4327465,35.2773326 C42.63858,35.2720394 44.8026045,34.675173 46.6991908,33.5489648 C50.5923118,31.2760945 52.9895218,27.1108881 52.998758,22.6033253 C53.0525828,17.9646758 51.3426115,14.8805225 50.6511704,13.5143874 C46.2644523,4.93464537 36.7954348,0 26.4983439,0 C12.0080084,-0.00143263522 0.203770273,11.6352256 0,26.1221579 C0.0993687897,18.5587376 7.61827388,12.450458 16.561465,12.450458 C17.286029,12.450458 21.4181145,12.5208347 25.2562341,14.5348489 C28.6389133,16.3108245 30.41099,18.4552425 31.642749,20.5810314 C32.9221221,22.7896164 33.1498423,25.5798437 33.1498423,26.6913809 C33.1498423,27.802918 32.5826121,29.4505597 31.5350995,30.8125549 Z" id="Path" fill="url(#radialGradient-4)"></path>
                    <path d="M31.5350995,30.8125549 C31.3674146,31.0298946 30.851939,31.3300303 30.851939,31.9841192 C30.851939,32.5243635 31.2038702,33.0439088 31.8290655,33.4806581 C34.8059888,35.5505596 40.4182552,35.2773326 40.4327465,35.2773326 C42.63858,35.2720394 44.8026045,34.675173 46.6991908,33.5489648 C50.5923118,31.2760945 52.9895218,27.1108881 52.998758,22.6033253 C53.0525828,17.9646758 51.3426115,14.8805225 50.6511704,13.5143874 C46.2644523,4.93464537 36.7954348,0 26.4983439,0 C12.0080084,-0.00143263522 0.203770273,11.6352256 0,26.1221579 C0.0993687897,18.5587376 7.61827388,12.450458 16.561465,12.450458 C17.286029,12.450458 21.4181145,12.5208347 25.2562341,14.5348489 C28.6389133,16.3108245 30.41099,18.4552425 31.642749,20.5810314 C32.9221221,22.7896164 33.1498423,25.5798437 33.1498423,26.6913809 C33.1498423,27.802918 32.5826121,29.4505597 31.5350995,30.8125549 Z" id="Path" fill="url(#radialGradient-5)"></path>
                </g>
                <g id="logo-abp" transform="translate(316.000000, 115.000000)">
                    <polygon id="Fill-3" fill="#ED1E45" points="14.6448721 50 0 35.3551279 0 14.6448721 14.6448721 0 35.3556909 0 50 14.6448721 50 35.3551279 35.3556909 50"></polygon>
                    <path d="M11.3424138,26.4087433 L10.9510805,24.6069212 C10.7072715,23.6266174 10.4724715,22.5855021 10.2466807,21.4841383 C10.0203268,20.3833377 9.79397291,19.3219518 9.56818207,18.301107 L9.46401423,18.301107 C9.25511549,19.3422223 9.04171218,20.4081127 8.82493046,21.4993412 C8.6070226,22.5905697 8.37672722,23.6266174 8.13348123,24.6069212 L7.71568374,26.4087433 L11.3424138,26.4087433 Z M12.1250802,29.862048 L6.93301726,29.862048 L5.88964966,34.5163797 L1.9763173,34.5163797 L7.29844931,14.9378934 L11.9161815,14.9378934 L17.2388766,34.5163797 L13.1684478,34.5163797 L12.1250802,29.862048 Z" id="Fill-4" fill="#FFFFFF"></path>
                    <path d="M25.6134641,31.0931429 C27.7176545,31.0931429 28.7700312,30.2023671 28.7700312,28.4208155 C28.7700312,27.5598824 28.5093301,26.9343123 27.9873647,26.5441052 C27.4653994,26.1533351 26.6737238,25.958513 25.6134641,25.958513 L23.4478992,25.958513 L23.4478992,31.0931429 L25.6134641,31.0931429 Z M25.2480321,22.8351671 C26.1872318,22.8351671 26.869672,22.6206376 27.2959155,22.1898895 C27.722159,21.7597045 27.9355623,21.1741123 27.9355623,20.433113 C27.9355623,19.6926767 27.7176545,19.1622653 27.2829649,18.8418788 C26.8482753,18.5214924 26.1782227,18.3610176 25.2739333,18.3610176 L23.4478992,18.3610176 L23.4478992,22.8351671 L25.2480321,22.8351671 Z M19.6128335,14.9381187 L25.4304666,14.9381187 C26.3178639,14.9381187 27.1393822,15.0130069 27.8961475,15.1633464 C28.6529128,15.313686 29.3133932,15.5788917 29.8792779,15.9589635 C30.4440365,16.3395984 30.8877352,16.8401671 31.2098109,17.4601065 C31.5313236,18.0811721 31.6923614,18.8621493 31.6923614,19.8024753 C31.6923614,20.2433586 31.6354914,20.6836789 31.5228775,21.1239991 C31.4091375,21.5643194 31.2396536,21.974797 31.0138628,22.3548689 C30.7875089,22.7355038 30.4918974,23.0755977 30.1270285,23.3757137 C29.7615964,23.6763928 29.3353529,23.8965529 28.8482978,24.0367572 L28.8482978,24.156691 C30.0656539,24.416829 30.983457,24.9179608 31.6011442,25.657834 C32.2182682,26.3988333 32.5268303,27.4298134 32.5268303,28.7507742 C32.5268303,29.7519116 32.3573464,30.6128447 32.0183786,31.3335736 C31.6794108,32.0543024 31.2098109,32.6500298 30.6095789,33.1201928 C30.009347,33.5909188 29.3088886,33.941148 28.5093301,34.1708803 C27.7092084,34.4017388 26.8482753,34.5166049 25.9265307,34.5166049 L19.6128335,34.5166049 L19.6128335,14.9381187 Z" id="Fill-6" fill="#FFFFFF"></path>
                    <path d="M41.1366119,24.3668285 C43.2239102,24.3668285 44.2672778,23.3262762 44.2672778,21.2440455 C44.2672778,20.2232007 44.0020721,19.5024719 43.4716607,19.081859 C42.9406863,18.6612462 42.1625244,18.4512213 41.1366119,18.4512213 L38.9975112,18.4512213 L38.9975112,24.3668285 L41.1366119,24.3668285 Z M35.1618825,14.9382313 L41.3714118,14.9382313 C42.2931565,14.9382313 43.1585941,15.0429622 43.9671618,15.2535502 C44.7762925,15.463575 45.4806924,15.8138042 46.0803613,16.3042377 C46.6805932,16.7952342 47.1541346,17.4455793 47.5026746,18.2563993 C47.8500884,19.0666562 48.0240768,20.0627259 48.0240768,21.2440455 C48.0240768,22.3848242 47.8455838,23.3758263 47.4891609,24.2164889 C47.132738,25.0577146 46.6501875,25.7480377 46.0415095,26.2885843 C45.4322684,26.829131 44.7278686,27.2300364 43.92831,27.4896114 C43.1276253,27.7503125 42.2757013,27.8803815 41.3714118,27.8803815 L38.9975112,27.8803815 L38.9975112,34.5161545 L35.1618825,34.5161545 L35.1618825,14.9382313 Z" id="Fill-8" fill="#FFFFFF"></path>
                </g>
                <g id="ABP_PP_cctv" transform="translate(314.999999, 221.332999)" fill-rule="nonzero">
                    <g id="Group_166" transform="translate(0.000000, 0.000000)">
                        <circle id="Ellipse_21" fill="#84DBFF" cx="26.3330007" cy="26.3330007" r="26.333"></circle>
                        <path d="M26.3330007,1.77635684e-15 C40.876315,1.77635684e-15 52.6660007,11.7896864 52.6660007,26.3330007 C52.6660007,40.876315 40.876315,52.6660007 26.3330007,52.6660007 C11.7896864,52.6660007 1.29974516e-15,40.876315 1.29974516e-15,26.3330007 C-0.00159126941,19.3485669 2.77225918,12.6497404 7.71099977,7.71099977 C12.6497404,2.77225918 19.3485669,-0.00159126941 26.3330007,1.77635684e-15 Z" id="Path_1709" fill="#44D15A"></path>
                        <path d="M32.9201,11 L42,20.0799 L42,32.9201 L32.9201,42 L20.0799,42 L11,32.9201 L11,20.0799 L20.0799,11 L32.9201,11 Z M32.15006,12.86 L20.84994,12.86 L12.86,20.84994 L12.86,32.15006 L20.84994,40.14 L32.15006,40.14 L40.14,32.15006 L40.14,20.84994 L32.15006,12.86 Z M31.72164,21.31308 L34.15328,22.36956 L24.19422,32.00808 L18.84672,26.66058 L20.67758,25.22714 L24.22336,27.213 L31.72164,21.31308 Z" id="Combined-Shape" fill="#FFFFFF"></path>
                    </g>
                </g>
            </g>
        </g>
    </g>
</svg>