<svg width="261" height="250" viewBox="0 0 261 250" fill="none" xmlns="http://www.w3.org/2000/svg">
<path fill-rule="evenodd" clip-rule="evenodd" d="M49.8888 188.657C46.2638 186.31 46.8566 180.836 50.9001 179.32L73.4778 170.853L70.0494 181.069C70.0502 181.48 110.155 193.208 110.511 193.413L170.317 228.318H128.815L114.768 230.659L49.8888 188.657Z" fill="#333333" fill-opacity="0.2"/>
<path fill-rule="evenodd" clip-rule="evenodd" d="M232.297 192.961L205.187 176.726L169.828 155.544V83.165L232.091 119.869L232.297 192.961Z" fill="#FFAE00"/>
<path fill-rule="evenodd" clip-rule="evenodd" d="M106.939 118.951L151.393 144.898L169.828 155.663V83.165L106.939 118.951Z" fill="#FFCA00"/>
<path fill-rule="evenodd" clip-rule="evenodd" d="M169.956 155.423L169.828 155.348V85.8944L169.956 85.4971V155.423Z" fill="#E7A537"/>
<path fill-rule="evenodd" clip-rule="evenodd" d="M169.828 155.348L151.033 144.461L169.828 85.8945V155.348Z" fill="#FF9C00"/>
<path fill-rule="evenodd" clip-rule="evenodd" d="M170.308 155.626L106.941 118.918L107.145 192.04L170.308 228.747V155.626Z" fill="#C6C6C6"/>
<path fill-rule="evenodd" clip-rule="evenodd" d="M170.307 155.626V228.747L232.296 192.958L232.093 119.837L170.307 155.626Z" fill="#E6E6E6"/>
<path fill-rule="evenodd" clip-rule="evenodd" d="M232.091 159.542L228.22 157.832L221.761 167.988L220.587 166.108L210.743 171.059L209.16 174.621L201.141 173.433L196.55 177.019L188.516 183.288L181.123 191.204L170.311 191.109V228.747L232.297 192.961L232.091 159.542Z" fill="#E40D0D"/>
<path fill-rule="evenodd" clip-rule="evenodd" d="M152.349 183.29L147.6 184.873L139.718 173.429L131.703 174.617L130.119 171.055L122.996 166.008L119.104 167.987L112.64 157.829L108.77 159.544L108.566 192.958L170.556 228.747V191.112L152.349 183.29Z" fill="#CE0707"/>
<path fill-rule="evenodd" clip-rule="evenodd" d="M129.165 228.501L128.262 227.433L128.619 227.354L130.101 227.389L129.165 228.501Z" fill="#B4BCC6"/>
<path fill-rule="evenodd" clip-rule="evenodd" d="M128.262 227.433L96.957 190.414L107.04 154.911L107.143 192.04L108.567 192.867L108.566 192.958L132.531 206.794L142.485 212.579L142.471 212.71L130.102 227.389L128.619 227.354L128.262 227.433Z" fill="#7A6E85"/>
<path fill-rule="evenodd" clip-rule="evenodd" d="M142.486 212.578L132.532 206.794L142.49 212.543L142.486 212.578ZM108.568 192.867L107.145 192.04L107.041 154.911L115.692 124.452L146.826 166.404L145.391 181.665L139.719 173.429L131.704 174.617L130.12 171.055L122.996 166.008L119.105 167.987L112.64 157.829L108.771 159.544L108.568 192.867Z" fill="#978A98"/>
<path fill-rule="evenodd" clip-rule="evenodd" d="M142.489 212.543L108.566 192.958L108.567 192.867L108.77 159.544L112.64 157.829L119.104 167.987L122.996 166.008L130.119 171.055L131.703 174.617L139.718 173.429L145.39 181.665L144.454 191.614L159.226 189.755L170.439 191.206L160.018 208.884L154.213 202.816L143.131 206.509L142.489 212.543Z" fill="#333333" fill-opacity="0.21"/>
<path fill-rule="evenodd" clip-rule="evenodd" d="M170.176 191.14L160.678 196.681L155.533 210.138L146.628 200.243L141.878 199.649L138.316 190.942L141.285 181.444L143.461 179.267L147.023 184.016L152.35 183.291L170.176 191.14Z" fill="#E40D0D"/>
<path fill-rule="evenodd" clip-rule="evenodd" d="M141.68 198.66L145.044 181.642L142.274 176.497L139.107 194.306L141.878 199.649" fill="#CE0707"/>
<path fill-rule="evenodd" clip-rule="evenodd" d="M169.828 83.165L106.939 118.951L170.308 155.627L232.094 119.838L169.828 83.165ZM169.815 84.9943L228.954 119.826L170.308 153.797L110.12 118.962L169.815 84.9943Z" fill="#F4F4F4"/>
<path fill-rule="evenodd" clip-rule="evenodd" d="M149.271 160.792L122.881 209.94L110.414 194.702L89.5803 189.256L83.1055 178.642L89.24 113.569L103.464 111.004L149.271 160.792Z" fill="#F4F4F4"/>
<path fill-rule="evenodd" clip-rule="evenodd" d="M149.271 160.792L129.165 228.502L114.767 230.52L89.5801 189.257L135.023 163.167L149.271 160.792Z" fill="#E6E6E6"/>
<path fill-rule="evenodd" clip-rule="evenodd" d="M135.023 163.165L89.2141 113.377L68.8594 181.015L114.916 230.872L135.023 163.165Z" fill="#C6C6C6"/>
<path fill-rule="evenodd" clip-rule="evenodd" d="M210.742 170.956L215.228 176.892L227.563 176.166L236.929 169.438L224.396 163.931L210.742 170.956Z" fill="#FF363B"/>
<path fill-rule="evenodd" clip-rule="evenodd" d="M170.307 191.112L180.598 202.155L197.484 181.971L188.909 182.894L170.307 191.112Z" fill="#FF363B"/>
<path fill-rule="evenodd" clip-rule="evenodd" d="M188.58 183.027L211.535 182.433L210.941 171.154L201.047 171.747L188.58 183.027Z" fill="#FF363B"/>
<path fill-rule="evenodd" clip-rule="evenodd" d="M221.762 167.987L236.864 169.373L237.062 160.468L241.284 157.565L232.115 149.782V157.301L228.221 157.832L221.762 167.987Z" fill="#FF363B"/>
<path fill-rule="evenodd" clip-rule="evenodd" d="M145.991 139.945L158.894 147.155C159.623 147.562 161.283 149.69 162.731 149.428L170.065 154.033C171.513 153.771 174.545 151.741 175.864 150.963L198.208 138C199.526 137.222 207.586 132.492 208.003 131.654L208.003 123.162C208.42 122.324 208.245 121.624 207.516 121.217L194.614 114.007C193.885 113.6 192.662 113.518 191.214 113.78L167.853 117.061C166.405 117.323 164.851 117.907 163.532 118.685L140.188 132.454C138.869 133.232 137.893 134.14 137.476 134.978L142.604 138C142.187 138.838 145.262 139.538 145.991 139.945Z" fill="#333333" fill-opacity="0.2"/>
<path fill-rule="evenodd" clip-rule="evenodd" d="M145.526 20.8521L126.391 51.1006C125.31 52.8095 124.703 54.6238 124.703 56.1444V83.0644C124.703 84.5852 125.31 85.6876 126.392 86.1293C126.392 86.1293 135.597 91.6168 138.446 92.7809C141.975 94.2227 145.526 93.9471 145.526 93.9471C146.608 94.3888 148.074 94.1335 149.603 93.2374L176.668 77.3753C178.197 76.4792 179.663 75.0157 180.744 73.3068L199.879 43.0602C200.96 41.3513 201.567 39.5369 201.567 38.0162L208.966 20.3621C208.966 19.9177 212.192 15.2879 212.092 14.921C211.848 14.0324 200.644 8.34395 199.879 8.03129L180.744 0.211842C179.663 -0.229959 178.197 0.0252763 176.668 0.921393L149.603 16.7834C148.074 17.6795 146.608 19.1431 145.526 20.8521Z" fill="#C10000"/>
<path fill-rule="evenodd" clip-rule="evenodd" d="M157.056 27.3375L137.921 57.586C136.84 59.2948 136.232 61.1091 136.232 62.6297V89.5498C136.232 91.0705 136.84 92.173 137.921 92.6147L157.056 100.432C158.137 100.874 159.603 100.619 161.132 99.7228L188.197 83.8606C189.726 82.9646 191.192 81.5011 192.274 79.7922L211.408 49.5456C212.489 47.8366 213.097 46.0222 213.097 44.5015V17.5815C213.097 16.0608 212.49 14.9584 211.408 14.5166L192.274 6.69719C191.192 6.25539 189.726 6.51063 188.197 7.40674L161.132 23.2687C159.603 24.1649 158.137 25.6284 157.056 27.3375Z" fill="#E40D0D"/>
<path fill-rule="evenodd" clip-rule="evenodd" d="M175.23 80.6193C188.393 73.3158 191.517 60.2133 191.517 60.2133L199.072 35.5812C199.072 35.5812 199.755 33.0808 199.629 33.1267C192.594 35.7926 191.098 41.2906 191.098 41.2906C191.098 41.2906 188.393 49.4039 187.974 49.6366C187.555 49.8693 187.505 49.4079 187.505 49.4079V25.6493C187.505 25.6493 187.636 22.5115 184.293 24.3661C180.951 26.2206 181.12 29.1976 181.12 29.1976L181.126 46.7464C181.126 46.7464 181.17 47.4293 180.544 47.7766C179.987 48.0857 180.018 47.3847 180.018 47.3847V26.2371C180.018 26.2371 180.225 22.6686 176.845 24.544C173.464 26.4194 173.646 29.7961 173.646 29.7961L173.615 50.6781C173.615 50.6781 173.658 51.2963 173.101 51.6054C172.582 51.8936 172.601 51.2467 172.601 51.2467V33.7534C172.601 33.7534 172.788 30.0892 169.346 31.9993C165.965 33.8747 166.147 37.3988 166.147 37.3988L166.116 55.8878C166.116 55.8878 166.178 56.3895 165.646 56.6847C165.083 56.9972 165.095 56.4539 165.095 56.4539L165.07 45.2988C165.07 45.2988 165.102 42.193 162.26 43.7697C159.236 45.4471 159.293 48.5043 159.293 48.5043V72.6106C159.311 72.5943 158.529 89.8851 175.23 80.6193Z" fill="white"/>
<circle r="6.14025" transform="matrix(0.866025 0.5 -0.872496 0.488621 249.962 206.723)" fill="#03BCFC"/>
<circle r="6.14025" transform="matrix(0.866025 0.5 -0.872496 0.488621 249.962 206.723)" fill="#03BCFC"/>
<circle r="6.14025" transform="matrix(0.866025 0.5 -0.872496 0.488621 249.962 206.723)" fill="#03BCFC"/>
<circle r="6.14025" transform="matrix(0.866025 0.5 -0.872496 0.488621 249.962 206.723)" fill="#03BCFC"/>
<circle r="5.15521" transform="matrix(0.866025 0.5 -0.872496 0.488621 230.887 232.557)" fill="#FFCA00"/>
<circle r="3.73104" transform="matrix(0.866025 0.5 -0.872496 0.488621 253.312 149.621)" fill="#03BCFC"/>
<circle r="5.70597" transform="matrix(0.866025 0.5 -0.872496 0.488621 154.408 244.359)" fill="#FFAE00"/>
<circle r="3.73104" transform="matrix(0.866025 0.5 -0.872496 0.488621 134.601 238.654)" fill="#663399"/>
<circle r="3.73104" transform="matrix(0.866025 0.5 -0.872496 0.488621 225.681 209.317)" fill="#663399"/>
<circle r="3.73104" transform="matrix(0.866025 0.5 -0.872496 0.488621 245.775 177.546)" fill="#E40D0D"/>
<circle r="3.73104" transform="matrix(0.866025 0.5 -0.872496 0.488621 68.763 213.752)" fill="#CE0707"/>
<circle r="6.14252" transform="matrix(0.866025 0.5 -0.872496 0.488621 30.6204 200.494)" fill="#E40D0D"/>
<circle cx="237.786" cy="87.4291" r="4.26406" fill="#663399"/>
<circle cx="16.1109" cy="71.5704" r="6.14025" fill="#E40D0D"/>
<circle cx="96.3889" cy="93.3987" r="6.82249" fill="#03BCFC"/>
<circle cx="72.0627" cy="52.0349" r="6.82249" fill="#FFAE00"/>
<circle cx="250.067" cy="119.154" r="4.26406" fill="#9147FF"/>
<circle cx="179.522" cy="135.595" r="4.26406" fill="#9147FF"/>
<circle cx="119.756" cy="102.439" r="4.26406" fill="#FF9C00"/>
<circle cx="115.147" cy="23.4257" r="4.26406" fill="#FFCA00"/>
<circle cx="212.202" cy="83.3358" r="4.26406" fill="#FF9C00"/>
<circle cx="243.926" cy="49.9057" r="4.26406" fill="#E40D0D"/>
<circle cx="190.717" cy="113.419" r="4.26406" fill="#E40D0D"/>
<circle cx="30.4359" cy="83.4032" r="4.26406" fill="#FFAE00"/>
<circle cx="207.597" cy="154.119" r="6.14025" fill="#FF9C00"/>
<circle cx="92.3623" cy="79.6543" r="4.94631" fill="#E40D0D"/>
<circle cx="51.6352" cy="74.6659" r="4.26406" fill="#663399"/>
<circle cx="64.0863" cy="107.706" r="4.26406" fill="#FFAE00"/>
<circle cx="226.104" cy="31.0595" r="4.26406" fill="#FFAE00"/>
<circle cx="87.3754" cy="10.723" r="4.26406" fill="#663399"/>
<circle r="4.51475" transform="matrix(0.866025 0.5 -0.872496 0.488621 64.3282 158.583)" fill="#E40D0D"/>
<circle r="3.73104" transform="matrix(0.866025 0.5 -0.872496 0.488621 201.462 231.49)" fill="#9147FF"/>
<circle r="4.57843" transform="matrix(0.866025 0.5 -0.872496 0.488621 7.96061 155.327)" fill="#9147FF"/>
<circle r="4.52857" transform="matrix(0.866025 0.5 -0.872496 0.488621 33.4219 172.726)" fill="#663399"/>
</svg>
