<svg width="226" height="230" viewBox="0 0 226 230" fill="none" xmlns="http://www.w3.org/2000/svg">
<path fill-rule="evenodd" clip-rule="evenodd" d="M25.2959 188.971C18.52 186.3 17.9095 176.949 24.2806 173.42L43.2949 162.889L43.3229 181.418C43.3246 182.339 43.8163 183.191 44.6149 183.651L118.164 225.568L25.2959 188.971Z" fill="#333333" fill-opacity="0.2"/>
<path fill-rule="evenodd" clip-rule="evenodd" d="M47.4942 85.6906L139.507 33.0315C141.16 32.0854 143.306 31.6348 145.163 32.0617C147.771 32.6622 150.216 33.4821 150.21 35.763L150.35 121.204L142.254 125.983C144.903 127.271 225.672 166.546 225.805 166.642L226 169.939C226 171.361 225.247 172.672 224.015 173.385C210.267 181.341 129.729 227.853 129.729 227.853C127.078 229.384 123.813 229.384 121.163 227.853L44.6151 183.651C43.8165 183.19 43.3247 182.339 43.323 181.418L43.1899 93.0881C43.1976 90.0305 44.8389 87.2101 47.4942 85.6906Z" fill="#C6C6C6"/>
<path fill-rule="evenodd" clip-rule="evenodd" d="M45.9009 181.128L150.43 121.544L150.645 36.2904C150.652 33.8274 147.988 32.2808 145.849 33.5047L49.4574 88.67C47.3582 89.8711 46.062 92.1003 46.0552 94.5159L45.9009 181.128Z" fill="#666666"/>
<path fill-rule="evenodd" clip-rule="evenodd" d="M146.345 38.4549L50.6489 93.3297L50.4497 173.59L146.345 118.595V38.4549Z" fill="#03BCFC"/>
<path fill-rule="evenodd" clip-rule="evenodd" d="M45.9609 181.121L150.435 120.929L224.319 163.59C226.453 164.823 226.452 167.9 224.319 169.131L128.136 224.661C126.042 225.87 123.461 225.87 121.366 224.661L45.9609 181.121Z" fill="#F4F4F4"/>
<path fill-rule="evenodd" clip-rule="evenodd" d="M74.8761 182.974C72.7956 184.167 71.7554 184.764 69.6749 185.959C67.5707 184.769 66.5194 184.176 64.416 182.988C66.4965 181.795 67.5368 181.198 69.6172 180.003C71.7206 181.193 72.7727 181.786 74.8761 182.974Z" fill="#C6C6C6"/>
<path fill-rule="evenodd" clip-rule="evenodd" d="M82.5538 178.57C80.4734 179.763 79.4331 180.36 77.3526 181.554C75.2492 180.365 74.1971 179.772 72.0938 178.584C74.1742 177.39 75.2145 176.793 77.295 175.599C79.3992 176.788 80.4505 177.381 82.5538 178.57Z" fill="#C6C6C6"/>
<path fill-rule="evenodd" clip-rule="evenodd" d="M90.2324 174.164C88.1519 175.358 87.1117 175.955 85.0304 177.148C82.927 175.961 81.8749 175.367 79.7715 174.179C81.8528 172.984 82.8931 172.388 84.9736 171.195C87.0769 172.382 88.1291 172.977 90.2324 174.164Z" fill="#C6C6C6"/>
<path fill-rule="evenodd" clip-rule="evenodd" d="M97.9111 169.76C95.8298 170.954 94.7896 171.551 92.7091 172.744C90.6057 171.557 89.5536 170.962 87.4502 169.774C89.5307 168.58 90.5709 167.983 92.6523 166.79C94.7556 167.977 95.8078 168.571 97.9111 169.76Z" fill="#C6C6C6"/>
<path fill-rule="evenodd" clip-rule="evenodd" d="M105.589 165.354C103.509 166.548 102.468 167.145 100.387 168.339C98.2831 167.151 97.2318 166.557 95.1284 165.369C97.2089 164.175 98.2492 163.579 100.33 162.385C102.434 163.573 103.486 164.167 105.589 165.354Z" fill="#C6C6C6"/>
<path fill-rule="evenodd" clip-rule="evenodd" d="M113.269 160.949C111.187 162.143 110.147 162.74 108.066 163.933C105.963 162.745 104.911 162.151 102.808 160.964C104.888 159.771 105.929 159.173 108.01 157.979C110.113 159.167 111.165 159.761 113.269 160.949Z" fill="#C6C6C6"/>
<path fill-rule="evenodd" clip-rule="evenodd" d="M120.947 156.545C118.865 157.738 117.825 158.335 115.745 159.53C113.641 158.341 112.589 157.747 110.486 156.559C112.566 155.366 113.607 154.768 115.688 153.574C117.791 154.763 118.843 155.357 120.947 156.545Z" fill="#C6C6C6"/>
<path fill-rule="evenodd" clip-rule="evenodd" d="M128.625 152.139C126.544 153.333 125.503 153.93 123.423 155.123C121.32 153.936 120.267 153.342 118.164 152.154C120.245 150.96 121.285 150.363 123.366 149.169C125.47 150.357 126.522 150.952 128.625 152.139Z" fill="#C6C6C6"/>
<path fill-rule="evenodd" clip-rule="evenodd" d="M136.303 147.735C134.223 148.929 133.182 149.526 131.101 150.719C128.997 149.532 127.946 148.938 125.842 147.75C127.923 146.556 128.963 145.959 131.044 144.766C133.148 145.953 134.2 146.547 136.303 147.735Z" fill="#C6C6C6"/>
<path fill-rule="evenodd" clip-rule="evenodd" d="M143.981 143.331C141.901 144.524 140.861 145.121 138.78 146.315C136.677 145.127 135.625 144.532 133.521 143.344C135.602 142.151 136.642 141.554 138.723 140.36C140.827 141.549 141.878 142.142 143.981 143.331Z" fill="#C6C6C6"/>
<path fill-rule="evenodd" clip-rule="evenodd" d="M151.659 138.926C149.578 140.119 148.539 140.716 146.458 141.91C144.354 140.721 143.302 140.128 141.199 138.94C143.28 137.746 144.32 137.15 146.401 135.956C148.504 137.144 149.555 137.738 151.659 138.926Z" fill="#C6C6C6"/>
<path fill-rule="evenodd" clip-rule="evenodd" d="M159.337 134.521C157.257 135.715 156.216 136.311 154.135 137.505C152.032 136.317 150.981 135.723 148.876 134.535C150.957 133.341 151.998 132.745 154.079 131.551C156.181 132.739 157.234 133.333 159.337 134.521Z" fill="#C6C6C6"/>
<path fill-rule="evenodd" clip-rule="evenodd" d="M82.2578 187.143C80.1773 188.336 79.1371 188.933 77.0557 190.127C74.9524 188.938 73.9003 188.344 71.7969 187.157C73.8774 185.964 74.9176 185.366 76.9981 184.172C79.1015 185.361 80.1544 185.955 82.2578 187.143Z" fill="#C6C6C6"/>
<path fill-rule="evenodd" clip-rule="evenodd" d="M89.936 182.738C87.8556 183.932 86.8153 184.528 84.734 185.722C82.6306 184.534 81.5785 183.94 79.4751 182.752C81.5556 181.558 82.5958 180.962 84.6772 179.768C86.7806 180.956 87.8327 181.55 89.936 182.738Z" fill="#C6C6C6"/>
<path fill-rule="evenodd" clip-rule="evenodd" d="M97.6146 178.334C95.5333 179.527 94.493 180.124 92.4126 181.318C90.3092 180.13 89.2562 179.536 87.1528 178.347C89.2342 177.154 90.2744 176.557 92.3549 175.363C94.4591 176.552 95.5104 177.145 97.6146 178.334Z" fill="#C6C6C6"/>
<path fill-rule="evenodd" clip-rule="evenodd" d="M105.293 173.929C103.212 175.122 102.171 175.72 100.091 176.913C97.9865 175.725 96.9344 175.13 94.8311 173.943C96.9115 172.749 97.9518 172.152 100.033 170.959C102.137 172.146 103.189 172.74 105.293 173.929Z" fill="#C6C6C6"/>
<path fill-rule="evenodd" clip-rule="evenodd" d="M112.971 169.523C110.89 170.717 109.849 171.314 107.768 172.508C105.665 171.319 104.613 170.726 102.509 169.537C104.59 168.344 105.63 167.747 107.711 166.553C109.815 167.741 110.867 168.335 112.971 169.523Z" fill="#C6C6C6"/>
<path fill-rule="evenodd" clip-rule="evenodd" d="M120.65 165.118C118.568 166.313 117.528 166.909 115.448 168.103C113.343 166.915 112.291 166.321 110.188 165.134C112.269 163.939 113.31 163.343 115.39 162.148C117.494 163.337 118.546 163.931 120.65 165.118Z" fill="#C6C6C6"/>
<path fill-rule="evenodd" clip-rule="evenodd" d="M128.327 160.714C126.247 161.908 125.206 162.505 123.126 163.698C121.022 162.51 119.97 161.916 117.866 160.729C119.947 159.534 120.988 158.937 123.068 157.744C125.172 158.931 126.224 159.526 128.327 160.714Z" fill="#C6C6C6"/>
<path fill-rule="evenodd" clip-rule="evenodd" d="M136.007 156.309C133.926 157.502 132.886 158.099 130.805 159.293C128.701 158.105 127.649 157.511 125.545 156.322C127.626 155.129 128.667 154.532 130.747 153.339C132.851 154.526 133.903 155.121 136.007 156.309Z" fill="#C6C6C6"/>
<path fill-rule="evenodd" clip-rule="evenodd" d="M143.685 151.904C141.604 153.098 140.564 153.694 138.483 154.887C136.379 153.7 135.327 153.106 133.224 151.917C135.304 150.724 136.344 150.127 138.426 148.933C140.53 150.121 141.581 150.715 143.685 151.904Z" fill="#C6C6C6"/>
<path fill-rule="evenodd" clip-rule="evenodd" d="M151.363 147.499C149.282 148.693 148.241 149.29 146.161 150.483C144.057 149.295 143.005 148.7 140.901 147.513C142.982 146.32 144.022 145.722 146.103 144.529C148.207 145.717 149.258 146.311 151.363 147.499Z" fill="#C6C6C6"/>
<path fill-rule="evenodd" clip-rule="evenodd" d="M159.041 143.093C156.96 144.287 155.92 144.884 153.839 146.077C151.735 144.889 150.684 144.295 148.581 143.107C150.661 141.914 151.7 141.317 153.781 140.123C155.885 141.311 156.937 141.905 159.041 143.093Z" fill="#C6C6C6"/>
<path fill-rule="evenodd" clip-rule="evenodd" d="M166.717 138.69C163.23 140.691 161.485 141.692 157.997 143.692C155.893 142.505 154.841 141.911 152.737 140.723C156.226 138.721 157.97 137.721 161.459 135.72C163.562 136.908 164.614 137.502 166.717 138.69Z" fill="#C6C6C6"/>
<path fill-rule="evenodd" clip-rule="evenodd" d="M93.0771 189.34C89.6215 191.323 87.8937 192.314 84.4381 194.296C82.3347 193.107 81.2826 192.514 79.1792 191.326C82.634 189.343 84.3618 188.352 87.8174 186.37C89.9208 187.558 90.9729 188.152 93.0771 189.34Z" fill="#C6C6C6"/>
<path fill-rule="evenodd" clip-rule="evenodd" d="M97.3179 186.907C95.2374 188.101 94.1972 188.698 92.1167 189.891C90.0124 188.703 88.9603 188.109 86.8569 186.921C88.9374 185.727 89.9777 185.13 92.0582 183.937C94.1624 185.124 95.2145 185.718 97.3179 186.907Z" fill="#C6C6C6"/>
<path fill-rule="evenodd" clip-rule="evenodd" d="M104.996 182.502C102.915 183.696 101.874 184.292 99.7939 185.486C97.6897 184.298 96.6384 183.705 94.5342 182.515C96.6147 181.322 97.6558 180.726 99.7362 179.532C101.84 180.72 102.892 181.314 104.996 182.502Z" fill="#C6C6C6"/>
<path fill-rule="evenodd" clip-rule="evenodd" d="M112.675 178.098C110.593 179.292 109.553 179.889 107.472 181.082C105.368 179.894 104.316 179.299 102.213 178.112C104.293 176.919 105.334 176.321 107.415 175.128C109.518 176.316 110.57 176.909 112.675 178.098Z" fill="#C6C6C6"/>
<path fill-rule="evenodd" clip-rule="evenodd" d="M120.352 173.692C118.271 174.886 117.231 175.482 115.15 176.677C113.046 175.488 111.994 174.895 109.891 173.706C111.971 172.513 113.011 171.916 115.093 170.721C117.196 171.91 118.248 172.504 120.352 173.692Z" fill="#C6C6C6"/>
<path fill-rule="evenodd" clip-rule="evenodd" d="M128.031 169.287C125.95 170.481 124.91 171.078 122.829 172.272C120.725 171.084 119.673 170.49 117.569 169.301C119.65 168.107 120.69 167.511 122.772 166.317C124.875 167.506 125.927 168.1 128.031 169.287Z" fill="#C6C6C6"/>
<path fill-rule="evenodd" clip-rule="evenodd" d="M135.709 164.882C133.629 166.076 132.588 166.673 130.507 167.866C128.404 166.679 127.351 166.084 125.248 164.896C127.329 163.703 128.369 163.105 130.45 161.912C132.554 163.099 133.606 163.694 135.709 164.882Z" fill="#C6C6C6"/>
<path fill-rule="evenodd" clip-rule="evenodd" d="M143.389 160.478C141.307 161.671 140.267 162.268 138.186 163.461C136.082 162.274 135.03 161.68 132.927 160.491C135.007 159.298 136.047 158.701 138.129 157.507C140.232 158.695 141.284 159.289 143.389 160.478Z" fill="#C6C6C6"/>
<path fill-rule="evenodd" clip-rule="evenodd" d="M151.066 156.072C148.986 157.267 147.946 157.863 145.864 159.057C143.761 157.869 142.709 157.274 140.605 156.086C142.686 154.892 143.726 154.296 145.808 153.102C147.911 154.29 148.963 154.884 151.066 156.072Z" fill="#C6C6C6"/>
<path fill-rule="evenodd" clip-rule="evenodd" d="M158.745 151.668C156.664 152.862 155.623 153.459 153.543 154.652C151.439 153.464 150.387 152.869 148.284 151.682C150.364 150.489 151.405 149.891 153.486 148.697C155.589 149.886 156.64 150.48 158.745 151.668Z" fill="#C6C6C6"/>
<path fill-rule="evenodd" clip-rule="evenodd" d="M166.423 147.263C164.342 148.457 163.302 149.053 161.221 150.248C159.117 149.059 158.066 148.465 155.962 147.277C158.043 146.084 159.082 145.487 161.163 144.293C163.267 145.481 164.319 146.075 166.423 147.263Z" fill="#C6C6C6"/>
<path fill-rule="evenodd" clip-rule="evenodd" d="M174.1 142.859C172.02 144.052 170.979 144.648 168.899 145.842C166.796 144.654 165.743 144.061 163.639 142.872C165.72 141.678 166.761 141.082 168.841 139.888C170.945 141.076 171.997 141.67 174.1 142.859Z" fill="#C6C6C6"/>
<path fill-rule="evenodd" clip-rule="evenodd" d="M97.022 195.481C94.9415 196.674 93.9012 197.271 91.8199 198.465C89.7165 197.276 88.6644 196.683 86.561 195.494C88.6415 194.301 89.6818 193.704 91.7623 192.51C93.8656 193.698 94.9177 194.292 97.022 195.481Z" fill="#C6C6C6"/>
<path fill-rule="evenodd" clip-rule="evenodd" d="M104.7 191.077C102.619 192.27 101.579 192.867 99.4985 194.061C97.3943 192.872 96.3422 192.278 94.2388 191.09C96.3193 189.897 97.3595 189.3 99.44 188.106C101.544 189.294 102.596 189.888 104.7 191.077Z" fill="#C6C6C6"/>
<path fill-rule="evenodd" clip-rule="evenodd" d="M112.376 186.671C110.296 187.866 109.256 188.462 107.175 189.655C105.071 188.468 104.02 187.873 101.916 186.685C103.997 185.491 105.037 184.895 107.118 183.701C109.221 184.889 110.273 185.483 112.376 186.671Z" fill="#C6C6C6"/>
<path fill-rule="evenodd" clip-rule="evenodd" d="M120.057 182.266C117.975 183.459 116.935 184.057 114.854 185.251C112.75 184.062 111.698 183.468 109.595 182.28C111.675 181.087 112.715 180.49 114.797 179.296C116.9 180.484 117.952 181.078 120.057 182.266Z" fill="#C6C6C6"/>
<path fill-rule="evenodd" clip-rule="evenodd" d="M127.734 177.861C125.654 179.055 124.614 179.652 122.532 180.846C120.429 179.658 119.377 179.064 117.273 177.876C119.354 176.682 120.395 176.085 122.476 174.891C124.579 176.08 125.631 176.674 127.734 177.861Z" fill="#C6C6C6"/>
<path fill-rule="evenodd" clip-rule="evenodd" d="M135.413 173.456C133.332 174.65 132.292 175.246 130.211 176.44C128.107 175.252 127.055 174.658 124.952 173.471C127.032 172.276 128.073 171.68 130.154 170.486C132.257 171.674 133.309 172.268 135.413 173.456Z" fill="#C6C6C6"/>
<path fill-rule="evenodd" clip-rule="evenodd" d="M143.091 169.052C141.01 170.245 139.97 170.842 137.889 172.036C135.785 170.848 134.733 170.254 132.63 169.065C134.71 167.872 135.751 167.275 137.832 166.081C139.935 167.269 140.987 167.863 143.091 169.052Z" fill="#C6C6C6"/>
<path fill-rule="evenodd" clip-rule="evenodd" d="M150.77 164.646C148.69 165.84 147.649 166.437 145.567 167.63C143.464 166.443 142.412 165.848 140.309 164.66C142.389 163.467 143.429 162.869 145.511 161.676C147.614 162.864 148.666 163.458 150.77 164.646Z" fill="#C6C6C6"/>
<path fill-rule="evenodd" clip-rule="evenodd" d="M158.448 160.242C156.368 161.436 155.328 162.032 153.247 163.226C151.143 162.037 150.091 161.444 147.987 160.256C150.068 159.062 151.108 158.466 153.189 157.271C155.294 158.46 156.345 159.053 158.448 160.242Z" fill="#C6C6C6"/>
<path fill-rule="evenodd" clip-rule="evenodd" d="M166.126 155.836C164.045 157.029 163.004 157.626 160.924 158.82C158.821 157.632 157.768 157.038 155.665 155.85C157.746 154.657 158.786 154.06 160.867 152.865C162.97 154.055 164.022 154.648 166.126 155.836Z" fill="#C6C6C6"/>
<path fill-rule="evenodd" clip-rule="evenodd" d="M177.121 149.529C173.714 151.484 172.01 152.461 168.603 154.416C166.498 153.227 165.447 152.634 163.344 151.446C166.75 149.49 168.454 148.513 171.862 146.558C173.966 147.747 175.017 148.341 177.121 149.529Z" fill="#C6C6C6"/>
<path fill-rule="evenodd" clip-rule="evenodd" d="M181.481 147.028C179.401 148.221 178.362 148.817 176.279 150.011C174.177 148.823 173.125 148.229 171.021 147.04C173.101 145.847 174.142 145.251 176.223 144.057C178.327 145.245 179.378 145.838 181.481 147.028Z" fill="#C6C6C6"/>
<path fill-rule="evenodd" clip-rule="evenodd" d="M105.423 200.226C103.343 201.42 102.303 202.016 100.222 203.209C98.1187 202.021 97.0666 201.427 94.9624 200.24C97.0437 199.047 98.084 198.449 100.164 197.256C102.268 198.444 103.32 199.037 105.423 200.226Z" fill="#C6C6C6"/>
<path fill-rule="evenodd" clip-rule="evenodd" d="M113.101 195.82C111.021 197.014 109.98 197.61 107.9 198.804C105.796 197.616 104.744 197.022 102.641 195.835C104.722 194.641 105.762 194.044 107.842 192.85C109.946 194.038 110.998 194.632 113.101 195.82Z" fill="#C6C6C6"/>
<path fill-rule="evenodd" clip-rule="evenodd" d="M120.78 191.416C118.699 192.609 117.658 193.206 115.578 194.4C113.474 193.212 112.422 192.618 110.319 191.43C112.399 190.236 113.44 189.64 115.52 188.445C117.624 189.634 118.676 190.228 120.78 191.416Z" fill="#C6C6C6"/>
<path fill-rule="evenodd" clip-rule="evenodd" d="M166.849 164.986C152.318 173.323 137.787 181.659 123.256 189.996C121.152 188.807 120.1 188.214 117.996 187.025C132.528 178.689 147.059 170.353 161.591 162.016C163.695 163.204 164.747 163.799 166.849 164.986Z" fill="#C6C6C6"/>
<path fill-rule="evenodd" clip-rule="evenodd" d="M174.528 160.582C172.448 161.775 171.407 162.372 169.326 163.566C167.223 162.378 166.172 161.784 164.067 160.596C166.148 159.402 167.189 158.805 169.269 157.612C171.373 158.799 172.425 159.394 174.528 160.582Z" fill="#C6C6C6"/>
<path fill-rule="evenodd" clip-rule="evenodd" d="M182.207 156.176C180.126 157.371 179.085 157.967 177.004 159.16C174.9 157.973 173.849 157.378 171.746 156.191C173.826 154.997 174.866 154.4 176.948 153.207C179.051 154.394 180.102 154.988 182.207 156.176Z" fill="#C6C6C6"/>
<path fill-rule="evenodd" clip-rule="evenodd" d="M189.883 151.771C187.803 152.966 186.763 153.563 184.682 154.756C182.579 153.568 181.527 152.974 179.423 151.786C181.505 150.592 182.544 149.996 184.625 148.803C186.729 149.99 187.78 150.584 189.883 151.771Z" fill="#C6C6C6"/>
<path fill-rule="evenodd" clip-rule="evenodd" d="M131.228 192.134L167.075 171.458L187.56 184.065L151.726 204.749L131.228 192.134Z" fill="#C6C6C6"/>
<path fill-rule="evenodd" clip-rule="evenodd" d="M45.9009 181.128L46.0552 94.5158C46.062 92.1002 47.3582 89.871 49.4574 88.67L145.849 33.5046C145.873 33.4911 145.897 33.4775 145.92 33.4648C146.41 33.2006 146.925 33.0828 147.428 33.0828C147.513 33.0828 147.598 33.0862 147.683 33.093C146.697 34.6091 145.017 37.1441 142.777 40.4998L50.6494 93.3292L50.4502 173.59L54.5162 171.258C52.3958 174.389 50.5536 177.11 49.0454 179.336L45.9009 181.128Z" fill="#999999"/>
<path fill-rule="evenodd" clip-rule="evenodd" d="M50.6094 92.8832L142.777 40.5002L54.7627 170.72L50.6094 173.346V92.8832Z" fill="#00ACE8"/>
<path d="M42.2925 170.105L42.3437 170.002L42.2925 170.105Z" fill="#EBEBEB"/>
<path d="M74.5952 151.58C74.5837 151.536 74.5585 151.496 74.523 151.466C74.4876 151.437 74.4437 151.419 74.3977 151.416C74.3301 151.417 74.2643 151.438 74.2076 151.474L42.6434 169.699C42.519 169.777 42.416 169.885 42.3436 170.013L41.0894 169.282C41.1557 169.154 41.254 169.046 41.3746 168.968L72.9387 150.754C73.0697 150.688 73.2144 150.654 73.361 150.654C73.5077 150.654 73.6524 150.688 73.7834 150.754L74.2039 150.992C74.3056 151.058 74.3928 151.144 74.4601 151.246C74.5273 151.347 74.5733 151.461 74.5952 151.58Z" fill="#999999"/>
<g opacity="0.9">
<path d="M42.6435 204.759C42.5119 204.823 42.3675 204.856 42.2211 204.856C42.0748 204.856 41.9304 204.823 41.7988 204.759L41.3783 204.499C41.2541 204.42 41.1508 204.313 41.077 204.185C41.0031 204.058 40.961 203.915 40.9541 203.768V169.699C40.9596 169.547 41.0064 169.399 41.0894 169.271L42.3473 170.003C42.2678 170.131 42.2248 170.279 42.223 170.43V204.529C42.223 204.763 42.3948 204.905 42.6435 204.759Z" fill="#333333"/>
</g>
<path d="M74.3943 151.416C74.328 151.418 74.2635 151.438 74.2078 151.474L42.6437 169.699C42.5202 169.778 42.4176 169.886 42.3444 170.014C42.2712 170.141 42.2296 170.284 42.2231 170.43V204.529C42.2231 204.719 42.3182 204.828 42.4572 204.828C42.5235 204.826 42.588 204.806 42.6437 204.77L74.2078 186.549C74.3306 186.469 74.4328 186.361 74.5059 186.234C74.579 186.107 74.6209 185.964 74.6283 185.818V151.708C74.6283 151.518 74.5332 151.409 74.3943 151.409V151.416Z" fill="#FFCA00"/>
<path d="M59.8442 88.1961L59.8954 88.0937L59.8442 88.1961Z" fill="#EBEBEB"/>
<path d="M92.1469 40.4184C92.1355 40.3737 92.1103 40.3337 92.0748 40.3042C92.0394 40.2747 91.9955 40.257 91.9495 40.2539C91.8819 40.2554 91.8161 40.2757 91.7593 40.3124L60.1952 58.5371C60.0708 58.6155 59.9677 58.7235 59.8953 58.8515L58.6411 58.1202C58.7075 57.9925 58.8057 57.8842 58.9263 57.8057L90.4905 39.592C90.6215 39.5261 90.7661 39.4918 90.9128 39.4918C91.0595 39.4918 91.2041 39.5261 91.3351 39.592L91.7557 39.8297C91.8574 39.8962 91.9445 39.9826 92.0118 40.0838C92.0791 40.185 92.125 40.2989 92.1469 40.4184Z" fill="#999999"/>
<g opacity="0.9">
<path d="M60.1952 122.85C60.0636 122.914 59.9192 122.947 59.7729 122.947C59.6266 122.947 59.4821 122.914 59.3505 122.85L58.93 122.59C58.8059 122.511 58.7025 122.404 58.6287 122.276C58.5549 122.149 58.5128 122.006 58.5059 121.859V58.537C58.5114 58.3848 58.5581 58.2369 58.6412 58.1092L59.899 58.8405C59.8196 58.9692 59.7766 59.1171 59.7747 59.2683V122.62C59.7747 122.854 59.9466 122.996 60.1952 122.85Z" fill="#333333"/>
</g>
<path d="M91.946 40.2538C91.8797 40.256 91.8153 40.2762 91.7595 40.3123L75.9775 49.4247L60.1954 58.537C60.0719 58.6164 59.9693 58.7242 59.8962 58.8515C59.823 58.9788 59.7814 59.1217 59.7749 88.5215V122.62C59.7749 122.81 59.87 122.919 60.0089 122.919C60.0752 122.917 60.1397 122.897 60.1954 122.861L91.7595 104.64C91.8824 104.56 91.9845 104.452 92.0576 104.325C92.1307 104.198 92.1727 104.055 92.1801 103.909V40.5463C92.1801 40.3562 92.085 40.2465 91.946 40.2465V40.2538Z" fill="white"/>
<path d="M125.628 35.03C125.644 34.9784 125.663 34.9278 125.685 34.8784C125.663 34.9278 125.644 34.9784 125.628 35.03Z" fill="#EBEBEB"/>
<path d="M174.68 6.91767C174.664 6.84336 174.623 6.7767 174.564 6.72836C174.506 6.68002 174.432 6.65281 174.356 6.65108C174.254 6.65489 174.154 6.68749 174.069 6.74517L126.155 34.4028C125.968 34.521 125.813 34.6846 125.706 34.8785L123.798 33.7703C123.903 33.5854 124.052 33.4292 124.232 33.3155L172.14 5.65789C172.339 5.55851 172.558 5.50677 172.78 5.50677C173.003 5.50677 173.222 5.55851 173.421 5.65789L174.064 6.01335C174.222 6.1145 174.359 6.24681 174.465 6.40225C174.571 6.5577 174.644 6.73304 174.68 6.91767Z" fill="#999999"/>
<path opacity="0.9" d="M126.156 69.7864C125.957 69.883 125.739 69.9332 125.518 69.9332C125.297 69.9332 125.079 69.883 124.88 69.7864L124.237 69.3891C124.053 69.2728 123.899 69.1147 123.787 68.9276C123.675 68.7405 123.609 68.5297 123.594 68.3123V34.4237C123.603 34.1916 123.673 33.9661 123.798 33.7703L125.685 34.8785C125.57 35.0681 125.505 35.284 125.497 35.5057V69.4257C125.518 69.7864 125.784 70.0111 126.156 69.7864Z" fill="#333333"/>
<path d="M174.351 6.65631C174.252 6.65922 174.154 6.68805 174.069 6.73995L126.156 34.4028C125.97 34.5238 125.816 34.6866 125.705 34.8782C125.595 35.0698 125.53 35.2848 125.518 35.5058V69.4257C125.518 69.7132 125.664 69.8805 125.874 69.8805C125.975 69.8771 126.073 69.8445 126.156 69.7864L174.069 42.134C174.253 42.0129 174.407 41.8508 174.517 41.6603C174.628 41.4698 174.693 41.2561 174.707 41.0363V7.11109C174.707 6.82358 174.561 6.65631 174.351 6.65631Z" fill="#2284F7"/>
<path d="M2.15283 138.399C2.16996 138.344 2.19029 138.291 2.21371 138.239C2.19035 138.291 2.17002 138.344 2.15283 138.399Z" fill="#EBEBEB"/>
<path d="M54.0906 108.634C54.0733 108.555 54.03 108.484 53.9678 108.433C53.9056 108.382 53.828 108.353 53.7474 108.351C53.6386 108.355 53.5332 108.39 53.443 108.451L2.71197 137.735C2.51346 137.86 2.34975 138.033 2.23599 138.239L0.21582 137.065C0.327129 136.87 0.484893 136.704 0.6752 136.584L51.4007 107.3C51.6113 107.194 51.8434 107.14 52.0787 107.14C52.3141 107.14 52.5462 107.194 52.7567 107.3L53.4375 107.676C53.6055 107.783 53.75 107.923 53.8622 108.088C53.9745 108.252 54.0522 108.438 54.0906 108.634Z" fill="#999999"/>
<path opacity="0.9" d="M2.712 175.199C2.50161 175.302 2.27072 175.355 2.03677 175.355C1.80282 175.355 1.57193 175.302 1.36154 175.199L0.680768 174.779C0.485611 174.656 0.322249 174.488 0.20396 174.29C0.0856711 174.092 0.0157914 173.869 0 173.639L0 137.757C0.00920653 137.511 0.0837134 137.273 0.215853 137.065L2.21388 138.239C2.09194 138.439 2.02336 138.668 2.01463 138.903V174.817C2.03677 175.199 2.31904 175.437 2.712 175.199Z" fill="#333333"/>
<path d="M53.7423 108.357C53.6367 108.36 53.5337 108.39 53.4434 108.445L2.71234 137.735C2.51611 137.863 2.35275 138.035 2.23545 138.238C2.11816 138.441 2.05021 138.669 2.03711 138.903V174.817C2.03711 175.122 2.19208 175.299 2.41347 175.299C2.52064 175.295 2.62447 175.261 2.71234 175.199L53.4434 145.921C53.6383 145.793 53.8008 145.621 53.9179 145.419C54.0351 145.217 54.1038 144.991 54.1186 144.758V108.838C54.1186 108.534 53.9637 108.357 53.7423 108.357Z" fill="#E6E6E6"/>
<path d="M84.5586 104.821C84.5709 104.781 84.5856 104.742 84.6025 104.705C84.5857 104.742 84.571 104.781 84.5586 104.821Z" fill="#EBEBEB"/>
<path d="M122.019 83.3519C122.006 83.2952 121.975 83.2443 121.93 83.2074C121.885 83.1704 121.829 83.1497 121.771 83.1483C121.693 83.1513 121.617 83.1762 121.552 83.2202L84.9615 104.342C84.8183 104.432 84.7002 104.557 84.6182 104.705L83.1611 103.859C83.2414 103.717 83.3552 103.598 83.4925 103.511L120.079 82.3899C120.23 82.314 120.398 82.2745 120.568 82.2745C120.737 82.2745 120.905 82.314 121.057 82.3899L121.548 82.6613C121.669 82.7386 121.773 82.8396 121.854 82.9583C121.935 83.077 121.991 83.2109 122.019 83.3519Z" fill="#914AD8"/>
<path opacity="0.9" d="M84.9614 131.363C84.8097 131.437 84.6431 131.475 84.4744 131.475C84.3057 131.475 84.1391 131.437 83.9874 131.363L83.4964 131.06C83.3556 130.971 83.2378 130.85 83.1525 130.707C83.0672 130.564 83.0168 130.403 83.0054 130.237V104.357C83.012 104.18 83.0657 104.008 83.1611 103.858L84.6021 104.705C84.5142 104.85 84.4647 105.014 84.4584 105.184V131.087C84.4744 131.363 84.678 131.535 84.9614 131.363Z" fill="#2B0A4C"/>
<path d="M121.767 83.1523C121.691 83.1545 121.617 83.1765 121.552 83.2162L84.9616 104.341C84.8201 104.434 84.7023 104.558 84.6177 104.705C84.5331 104.851 84.4841 105.015 84.4746 105.184V131.087C84.4746 131.307 84.5864 131.435 84.7461 131.435C84.8234 131.432 84.8982 131.407 84.9616 131.363L121.552 110.246C121.692 110.153 121.809 110.029 121.894 109.884C121.979 109.738 122.028 109.575 122.039 109.407V83.4996C122.039 83.28 121.927 83.1523 121.767 83.1523Z" fill="#663399"/>
<path d="M138.097 98.4347L138.148 98.3323L138.097 98.4347Z" fill="#EBEBEB"/>
<path d="M170.4 79.9101C170.388 79.8654 170.363 79.8254 170.328 79.7959C170.292 79.7664 170.248 79.7487 170.202 79.7456C170.135 79.7471 170.069 79.7674 170.012 79.8041L138.448 98.0288C138.324 98.1072 138.221 98.2152 138.148 98.3432L136.894 97.6119C136.96 97.4842 137.059 97.3759 137.179 97.2974L168.743 79.0837C168.874 79.0178 169.019 78.9835 169.166 78.9835C169.312 78.9835 169.457 79.0178 169.588 79.0837L170.009 79.3214C170.11 79.3879 170.197 79.4743 170.265 79.5755C170.332 79.6767 170.378 79.7906 170.4 79.9101Z" fill="#999999"/>
<path opacity="0.9" d="M138.448 135.531C138.316 135.595 138.172 135.627 138.026 135.627C137.88 135.627 137.735 135.595 137.603 135.531L137.183 135.272C137.059 135.193 136.955 135.085 136.881 134.958C136.807 134.831 136.765 134.687 136.759 134.54V98.0287C136.764 97.8765 136.811 97.7286 136.894 97.6009L138.152 98.3322C138.072 98.4609 138.03 98.6088 138.028 98.7601V135.297C138.028 135.531 138.2 135.692 138.448 135.531Z" fill="#333333"/>
<path d="M170.198 79.7455C170.132 79.7478 170.068 79.768 170.012 79.804L138.448 98.0287C138.324 98.1081 138.222 98.216 138.149 98.3432C138.075 98.4705 138.034 98.6134 138.027 98.7601V135.297C138.027 135.487 138.122 135.597 138.261 135.597C138.327 135.594 138.391 135.576 138.448 135.542L170.012 117.318C170.135 117.237 170.237 117.129 170.31 117.002C170.383 116.875 170.425 116.733 170.432 116.586V80.0381C170.432 79.8479 170.337 79.7382 170.198 79.7382V79.7455Z" fill="#CE0707"/>
<path d="M177.101 2.66351L173.435 0.54105C172.434 0.0948409 171.333 -0.0800891 170.243 0.0338345C169.153 0.147758 168.112 0.546523 167.225 1.19007C164.665 2.86807 162.537 5.12597 161.013 7.78052C159.489 10.4351 158.613 13.4115 158.455 16.4683C158.338 17.5645 158.516 18.672 158.969 19.677C159.422 20.682 160.135 21.5482 161.033 22.1866L164.366 24.0986L165.05 22.7655C165.936 22.5654 166.788 22.2343 167.576 21.7832C170.135 20.1004 172.263 17.839 173.786 15.1818C175.31 12.5246 176.187 9.54627 176.347 6.48745C176.346 5.72557 176.258 4.96627 176.083 4.22466L177.101 2.66351Z" fill="#BA68C8"/>
<path d="M177.101 2.66351L173.435 0.54105C172.434 0.0948409 171.333 -0.0800891 170.243 0.0338345C169.153 0.147758 168.112 0.546523 167.225 1.19007C164.665 2.86807 162.537 5.12597 161.013 7.78052C159.489 10.4351 158.613 13.4115 158.455 16.4683C158.338 17.5645 158.516 18.672 158.969 19.677C159.422 20.682 160.135 21.5482 161.033 22.1866L164.366 24.0986L165.05 22.7655C165.936 22.5654 166.788 22.2343 167.576 21.7832C170.135 20.1004 172.263 17.839 173.786 15.1818C175.31 12.5246 176.187 9.54627 176.347 6.48745C176.346 5.72557 176.258 4.96627 176.083 4.22466L177.101 2.66351Z" fill="#E40D0D"/>
<path d="M158.701 13.4858C158.49 14.4601 158.378 15.4533 158.367 16.4502C158.251 17.5464 158.428 18.6539 158.881 19.6589C159.335 20.6639 160.047 21.5301 160.946 22.1686L164.279 24.0805L165.05 22.765C165.937 22.5649 166.788 22.2338 167.576 21.7827C168.439 21.2879 169.245 20.6996 169.979 20.0286L158.701 13.4858Z" fill="#CE0707"/>
<path d="M170.663 3.17222C168.103 4.85401 165.975 7.11516 164.451 9.77254C162.927 12.4299 162.051 15.4088 161.893 18.468C161.893 24.0986 165.839 26.379 170.663 23.5549C173.222 21.872 175.35 19.6106 176.873 16.9535C178.397 14.2963 179.274 11.3179 179.434 8.2591C179.504 2.62845 175.575 0.348117 170.663 3.17222Z" fill="#BA68C8"/>
<path d="M170.663 3.17222C168.103 4.85401 165.975 7.11516 164.451 9.77254C162.927 12.4299 162.051 15.4088 161.893 18.468C161.893 24.0986 165.839 26.379 170.663 23.5549C173.222 21.872 175.35 19.6106 176.873 16.9535C178.397 14.2963 179.274 11.3179 179.434 8.2591C179.504 2.62845 175.575 0.348117 170.663 3.17222Z" fill="#FF363B"/>
<path d="M172.067 13.0299L174.348 7.99564C174.556 7.75112 174.671 7.44013 174.671 7.11859C174.671 6.79706 174.556 6.48607 174.348 6.24154C173.874 5.85564 173.418 6.06613 173.137 6.66253L170.664 11.7845L168.278 9.50417C167.998 9.22351 167.542 9.50417 167.261 10.083C167.121 10.3224 167.047 10.5949 167.047 10.8724C167.047 11.1498 167.121 11.4223 167.261 11.6617L169.647 13.9947L167.261 19.0289C166.98 19.6253 166.858 20.327 167.261 20.6427C167.36 20.7155 167.475 20.7642 167.596 20.7849C167.717 20.8056 167.841 20.7977 167.959 20.762C168.076 20.7262 168.184 20.6635 168.273 20.5788C168.362 20.4942 168.43 20.3899 168.471 20.2743L170.857 15.2225L172.962 17.2573C173.034 17.3157 173.124 17.3476 173.216 17.3476C173.309 17.3476 173.399 17.3157 173.471 17.2573C173.7 17.1102 173.877 16.8957 173.979 16.6434C174.12 16.404 174.193 16.1315 174.193 15.854C174.193 15.5765 174.12 15.3041 173.979 15.0647L172.067 13.0299Z" fill="#FAFAFA"/>
<path d="M79.1027 144.176L75.4367 142.053C74.4357 141.607 73.3349 141.432 72.245 141.546C71.155 141.66 70.1142 142.059 69.2271 142.702C66.6672 144.38 64.539 146.638 63.0152 149.293C61.4913 151.947 60.6148 154.924 60.4566 157.98C60.3401 159.077 60.5176 160.184 60.9708 161.189C61.4239 162.194 62.1365 163.06 63.0352 163.699L66.368 165.611L67.0521 164.278C67.9382 164.077 68.7895 163.746 69.578 163.295C72.1373 161.612 74.2647 159.351 75.7883 156.694C77.3119 154.037 78.1889 151.058 78.3485 147.999C78.3482 147.238 78.2599 146.478 78.0854 145.737L79.1027 144.176Z" fill="#BA68C8"/>
<path d="M79.1027 144.176L75.4367 142.053C74.4357 141.607 73.3349 141.432 72.245 141.546C71.155 141.66 70.1142 142.059 69.2271 142.702C66.6672 144.38 64.539 146.638 63.0152 149.293C61.4913 151.947 60.6148 154.924 60.4566 157.98C60.3401 159.077 60.5176 160.184 60.9708 161.189C61.4239 162.194 62.1365 163.06 63.0352 163.699L66.368 165.611L67.0521 164.278C67.9382 164.077 68.7895 163.746 69.578 163.295C72.1373 161.612 74.2647 159.351 75.7883 156.694C77.3119 154.037 78.1889 151.058 78.3485 147.999C78.3482 147.238 78.2599 146.478 78.0854 145.737L79.1027 144.176Z" fill="#E40D0D"/>
<path d="M60.7025 154.998C60.4917 155.972 60.38 156.965 60.3692 157.962C60.2527 159.058 60.4302 160.166 60.8833 161.171C61.3365 162.176 62.0491 163.042 62.9478 163.681L66.2806 165.592L67.0524 164.277C67.9385 164.077 68.7898 163.746 69.5783 163.295C70.4412 162.8 71.2471 162.212 71.9814 161.541L60.7025 154.998Z" fill="#CE0707"/>
<path d="M72.6655 144.684C70.1052 146.366 67.9771 148.627 66.4534 151.285C64.9296 153.942 64.0532 156.921 63.895 159.98C63.895 165.611 67.8417 167.891 72.6655 165.067C75.2248 163.384 77.3523 161.123 78.8759 158.466C80.3995 155.808 81.2765 152.83 81.436 149.771C81.5062 144.141 77.577 141.86 72.6655 144.684Z" fill="#BA68C8"/>
<path d="M72.6655 144.684C70.1052 146.366 67.9771 148.627 66.4534 151.285C64.9296 153.942 64.0532 156.921 63.895 159.98C63.895 165.611 67.8417 167.891 72.6655 165.067C75.2248 163.384 77.3523 161.123 78.8759 158.466C80.3995 155.808 81.2765 152.83 81.436 149.771C81.5062 144.141 77.577 141.86 72.6655 144.684Z" fill="#FF363B"/>
<path d="M74.0692 154.542L76.3495 149.508C76.5583 149.263 76.673 148.952 76.673 148.631C76.673 148.309 76.5583 147.998 76.3495 147.754C75.8759 147.368 75.4199 147.578 75.1392 148.175L72.6659 153.297L70.2803 151.016C69.9997 150.736 69.5436 151.016 69.263 151.595C69.1227 151.834 69.0487 152.107 69.0487 152.384C69.0487 152.662 69.1227 152.934 69.263 153.174L71.6485 155.507L69.263 160.541C68.9823 161.137 68.8595 161.839 69.263 162.155C69.3619 162.228 69.4765 162.276 69.5976 162.297C69.7187 162.318 69.843 162.31 69.9605 162.274C70.078 162.238 70.1856 162.176 70.2746 162.091C70.3636 162.006 70.4317 161.902 70.4733 161.786L72.8589 156.735L74.9638 158.769C75.0357 158.828 75.1255 158.86 75.2181 158.86C75.3108 158.86 75.4006 158.828 75.4725 158.769C75.7015 158.622 75.8792 158.408 75.9812 158.155C76.1215 157.916 76.1954 157.644 76.1954 157.366C76.1954 157.089 76.1215 156.816 75.9812 156.577L74.0692 154.542Z" fill="#FAFAFA"/>
<path d="M55.3352 105.781L51.6691 103.658C50.6681 103.212 49.5674 103.037 48.4774 103.151C47.3874 103.265 46.3466 103.664 45.4596 104.307C42.8997 105.985 40.7714 108.243 39.2476 110.898C37.7237 113.552 36.8472 116.529 36.6891 119.586C36.5726 120.682 36.75 121.789 37.2032 122.794C37.6563 123.799 38.3689 124.665 39.2676 125.304L42.6004 127.216L43.2845 125.883C44.1706 125.683 45.0219 125.352 45.8104 124.901C48.3697 123.218 50.4971 120.956 52.0207 118.299C53.5443 115.642 54.4214 112.664 54.5809 109.605C54.5806 108.843 54.4923 108.084 54.3178 107.342L55.3352 105.781Z" fill="#BA68C8"/>
<path d="M55.3352 105.781L51.6691 103.658C50.6681 103.212 49.5674 103.037 48.4774 103.151C47.3874 103.265 46.3466 103.664 45.4596 104.307C42.8997 105.985 40.7714 108.243 39.2476 110.898C37.7237 113.552 36.8472 116.529 36.6891 119.586C36.5726 120.682 36.75 121.789 37.2032 122.794C37.6563 123.799 38.3689 124.665 39.2676 125.304L42.6004 127.216L43.2845 125.883C44.1706 125.683 45.0219 125.352 45.8104 124.901C48.3697 123.218 50.4971 120.956 52.0207 118.299C53.5443 115.642 54.4214 112.664 54.5809 109.605C54.5806 108.843 54.4923 108.084 54.3178 107.342L55.3352 105.781Z" fill="#E40D0D"/>
<path d="M36.9349 116.603C36.7241 117.577 36.6124 118.571 36.6017 119.568C36.4852 120.664 36.6626 121.771 37.1158 122.776C37.5689 123.781 38.2815 124.647 39.1802 125.286L42.513 127.198L43.2848 125.882C44.1709 125.682 45.0222 125.351 45.8107 124.9C46.6736 124.405 47.4795 123.817 48.2138 123.146L36.9349 116.603Z" fill="#CE0707"/>
<path d="M48.8975 106.29C46.3372 107.971 44.209 110.233 42.6853 112.89C41.1616 115.547 40.2851 118.526 40.127 121.585C40.127 127.216 44.0737 129.496 48.8975 126.672C51.4567 124.989 53.5842 122.728 55.1078 120.071C56.6314 117.414 57.5084 114.435 57.6679 111.377C57.7381 105.746 53.8089 103.466 48.8975 106.29Z" fill="#BA68C8"/>
<path d="M48.8975 106.29C46.3372 107.971 44.209 110.233 42.6853 112.89C41.1616 115.547 40.2851 118.526 40.127 121.585C40.127 127.216 44.0737 129.496 48.8975 126.672C51.4567 124.989 53.5842 122.728 55.1078 120.071C56.6314 117.414 57.5084 114.435 57.6679 111.377C57.7381 105.746 53.8089 103.466 48.8975 106.29Z" fill="#FF363B"/>
<path d="M50.3016 116.147L52.5819 111.113C52.7907 110.869 52.9054 110.558 52.9054 110.236C52.9054 109.914 52.7907 109.603 52.5819 109.359C52.1083 108.973 51.6523 109.184 51.3716 109.78L48.8983 114.902L46.5128 112.622C46.2321 112.341 45.776 112.622 45.4954 113.2C45.3551 113.44 45.2811 113.712 45.2811 113.99C45.2811 114.267 45.3551 114.54 45.4954 114.779L47.881 117.112L45.4954 122.146C45.2147 122.743 45.0919 123.444 45.4954 123.76C45.5944 123.833 45.7089 123.882 45.83 123.902C45.9511 123.923 46.0754 123.915 46.1929 123.879C46.3104 123.844 46.418 123.781 46.507 123.696C46.596 123.612 46.6641 123.507 46.7057 123.392L49.0913 118.34L51.1962 120.375C51.2681 120.433 51.3579 120.465 51.4505 120.465C51.5432 120.465 51.633 120.433 51.7049 120.375C51.9339 120.228 52.1116 120.013 52.2136 119.761C52.3539 119.521 52.4278 119.249 52.4278 118.971C52.4278 118.694 52.3539 118.421 52.2136 118.182L50.3016 116.147Z" fill="#FAFAFA"/>
<path d="M176.004 75.4307L172.338 73.3082C171.337 72.862 170.236 72.6871 169.146 72.801C168.056 72.9149 167.016 73.3137 166.129 73.9572C163.569 75.6352 161.44 77.8931 159.917 80.5477C158.393 83.2022 157.516 86.1787 157.358 89.2354C157.242 90.3317 157.419 91.4392 157.872 92.4441C158.325 93.4491 159.038 94.3153 159.937 94.9538L163.269 96.8658L163.953 95.5326C164.84 95.3326 165.691 95.0015 166.479 94.5503C169.039 92.8675 171.166 90.6061 172.69 87.949C174.213 85.2918 175.09 82.3134 175.25 79.2546C175.25 78.4927 175.161 77.7334 174.987 76.9918L176.004 75.4307Z" fill="#BA68C8"/>
<path d="M176.004 75.4307L172.338 73.3082C171.337 72.862 170.236 72.6871 169.146 72.801C168.056 72.9149 167.016 73.3137 166.129 73.9572C163.569 75.6352 161.44 77.8931 159.917 80.5477C158.393 83.2022 157.516 86.1787 157.358 89.2354C157.242 90.3317 157.419 91.4392 157.872 92.4441C158.325 93.4491 159.038 94.3153 159.937 94.9538L163.269 96.8658L163.953 95.5326C164.84 95.3326 165.691 95.0015 166.479 94.5503C169.039 92.8675 171.166 90.6061 172.69 87.949C174.213 85.2918 175.09 82.3134 175.25 79.2546C175.25 78.4927 175.161 77.7334 174.987 76.9918L176.004 75.4307Z" fill="#E40D0D"/>
<path d="M157.604 86.2528C157.393 87.2272 157.281 88.2204 157.271 89.2173C157.154 90.3135 157.332 91.421 157.785 92.426C158.238 93.431 158.95 94.2972 159.849 94.9356L163.182 96.8476L163.954 95.532C164.84 95.3319 165.691 95.0009 166.48 94.5497C167.343 94.0549 168.148 93.4667 168.883 92.7956L157.604 86.2528Z" fill="#AF0606"/>
<path d="M169.566 75.9394C167.006 77.6212 164.878 79.8823 163.354 82.5397C161.831 85.1971 160.954 88.176 160.796 91.2351C160.796 96.8658 164.743 99.1461 169.566 96.322C172.126 94.6392 174.253 92.3778 175.777 89.7206C177.3 87.0635 178.177 84.0851 178.337 81.0263C178.407 75.3956 174.478 73.1153 169.566 75.9394Z" fill="#BA68C8"/>
<path d="M169.566 75.9394C167.006 77.6212 164.878 79.8823 163.354 82.5397C161.831 85.1971 160.954 88.176 160.796 91.2351C160.796 96.8658 164.743 99.1461 169.566 96.322C172.126 94.6392 174.253 92.3778 175.777 89.7206C177.3 87.0635 178.177 84.0851 178.337 81.0263C178.407 75.3956 174.478 73.1153 169.566 75.9394Z" fill="#FF363B"/>
<path d="M170.971 85.7971L173.251 80.7628C173.46 80.5183 173.574 80.2073 173.574 79.8857C173.574 79.5642 173.46 79.2532 173.251 79.0087C172.777 78.6228 172.321 78.8333 172.041 79.4297L169.567 84.5516L167.182 82.2713C166.901 81.9907 166.445 82.2713 166.164 82.8502C166.024 83.0896 165.95 83.362 165.95 83.6395C165.95 83.917 166.024 84.1895 166.164 84.4289L168.55 86.7618L166.164 91.7961C165.884 92.3925 165.761 93.0941 166.164 93.4098C166.263 93.4826 166.378 93.5313 166.499 93.552C166.62 93.5727 166.744 93.5649 166.862 93.5291C166.979 93.4934 167.087 93.4306 167.176 93.346C167.265 93.2613 167.333 93.1571 167.375 93.0415L169.76 87.9897L171.865 90.0244C171.937 90.0828 172.027 90.1147 172.119 90.1147C172.212 90.1147 172.302 90.0828 172.374 90.0244C172.603 89.8773 172.781 89.6628 172.883 89.4105C173.023 89.1711 173.097 88.8986 173.097 88.6212C173.097 88.3437 173.023 88.0712 172.883 87.8318L170.971 85.7971Z" fill="#FAFAFA"/>
<path d="M131.393 75.065L127.727 72.9426C126.726 72.4964 125.625 72.3214 124.536 72.4354C123.446 72.5493 122.405 72.948 121.518 73.5916C118.958 75.2696 116.83 77.5275 115.306 80.182C113.782 82.8366 112.905 85.813 112.747 88.8698C112.631 89.966 112.808 91.0735 113.261 92.0785C113.714 93.0835 114.427 93.9497 115.326 94.5882L118.658 96.5001L119.343 95.167C120.229 94.9669 121.08 94.6359 121.869 94.1847C124.428 92.5019 126.555 90.2405 128.079 87.5833C129.602 84.9262 130.479 81.9478 130.639 78.889C130.639 78.1271 130.55 77.3678 130.376 76.6262L131.393 75.065Z" fill="#BA68C8"/>
<path d="M131.393 75.065L127.727 72.9426C126.726 72.4964 125.625 72.3214 124.536 72.4354C123.446 72.5493 122.405 72.948 121.518 73.5916C118.958 75.2696 116.83 77.5275 115.306 80.182C113.782 82.8366 112.905 85.813 112.747 88.8698C112.631 89.966 112.808 91.0735 113.261 92.0785C113.714 93.0835 114.427 93.9497 115.326 94.5882L118.658 96.5001L119.343 95.167C120.229 94.9669 121.08 94.6359 121.869 94.1847C124.428 92.5019 126.555 90.2405 128.079 87.5833C129.602 84.9262 130.479 81.9478 130.639 78.889C130.639 78.1271 130.55 77.3678 130.376 76.6262L131.393 75.065Z" fill="#E40D0D"/>
<path d="M112.993 85.8873C112.782 86.8617 112.67 87.8549 112.659 88.8517C112.543 89.948 112.72 91.0555 113.173 92.0604C113.627 93.0654 114.339 93.9316 115.238 94.5701L118.571 96.4821L119.342 95.1665C120.229 94.9664 121.08 94.6353 121.868 94.1842C122.731 93.6894 123.537 93.1012 124.271 92.4301L112.993 85.8873Z" fill="#CE0707"/>
<path d="M124.956 75.5737C122.395 77.2555 120.267 79.5167 118.743 82.1741C117.22 84.8314 116.343 87.8103 116.185 90.8695C116.185 96.5001 120.132 98.7805 124.956 95.9564C127.515 94.2735 129.642 92.0122 131.166 89.355C132.69 86.6978 133.567 83.7195 133.726 80.6606C133.796 75.03 129.867 72.7496 124.956 75.5737Z" fill="#BA68C8"/>
<path d="M124.956 75.5737C122.395 77.2555 120.267 79.5167 118.743 82.1741C117.22 84.8314 116.343 87.8103 116.185 90.8695C116.185 96.5001 120.132 98.7805 124.956 95.9564C127.515 94.2735 129.642 92.0122 131.166 89.355C132.69 86.6978 133.567 83.7195 133.726 80.6606C133.796 75.03 129.867 72.7496 124.956 75.5737Z" fill="#FF363B"/>
<path d="M126.359 85.4314L128.64 80.3971C128.848 80.1526 128.963 79.8416 128.963 79.5201C128.963 79.1985 128.848 78.8876 128.64 78.643C128.166 78.2571 127.71 78.4676 127.429 79.064L124.956 84.186L122.57 81.9057C122.29 81.625 121.834 81.9057 121.553 82.4845C121.413 82.7239 121.339 82.9964 121.339 83.2739C121.339 83.5513 121.413 83.8238 121.553 84.0632L123.939 86.3962L121.553 91.4304C121.272 92.0268 121.15 92.7284 121.553 93.0442C121.652 93.117 121.767 93.1657 121.888 93.1864C122.009 93.2071 122.133 93.1992 122.251 93.1635C122.368 93.1277 122.476 93.065 122.565 92.9803C122.654 92.8957 122.722 92.7914 122.763 92.6758L125.149 87.624L127.254 89.6588C127.326 89.7172 127.416 89.749 127.508 89.749C127.601 89.749 127.691 89.7172 127.763 89.6588C127.992 89.5117 128.169 89.2972 128.271 89.0448C128.411 88.8054 128.485 88.533 128.485 88.2555C128.485 87.978 128.411 87.7055 128.271 87.4662L126.359 85.4314Z" fill="#FAFAFA"/>
<path d="M98.8493 35.5733L95.1832 33.4508C94.1823 33.0046 93.0815 32.8297 91.9916 32.9436C90.9016 33.0575 89.8608 33.4563 88.9737 34.0999C86.4138 35.7779 84.2856 38.0358 82.7617 40.6903C81.2379 43.3449 80.3613 46.3213 80.2032 49.3781C80.0867 50.4743 80.2642 51.5818 80.7173 52.5868C81.1705 53.5918 81.883 54.458 82.7818 55.0964L86.1146 57.0084L86.7986 55.6753C87.6848 55.4752 88.5361 55.1441 89.3246 54.693C91.8839 53.0102 94.0113 50.7488 95.5349 48.0916C97.0585 45.4344 97.9355 42.4561 98.0951 39.3972C98.0948 38.6354 98.0065 37.8761 97.8319 37.1344L98.8493 35.5733Z" fill="#BA68C8"/>
<path d="M98.8493 35.5733L95.1832 33.4508C94.1823 33.0046 93.0815 32.8297 91.9916 32.9436C90.9016 33.0575 89.8608 33.4563 88.9737 34.0999C86.4138 35.7779 84.2856 38.0358 82.7617 40.6903C81.2379 43.3449 80.3613 46.3213 80.2032 49.3781C80.0867 50.4743 80.2642 51.5818 80.7173 52.5868C81.1705 53.5918 81.883 54.458 82.7818 55.0964L86.1146 57.0084L86.7986 55.6753C87.6848 55.4752 88.5361 55.1441 89.3246 54.693C91.8839 53.0102 94.0113 50.7488 95.5349 48.0916C97.0585 45.4344 97.9355 42.4561 98.0951 39.3972C98.0948 38.6354 98.0065 37.8761 97.8319 37.1344L98.8493 35.5733Z" fill="#E40D0D"/>
<path d="M80.4486 46.3956C80.2378 47.3699 80.1261 48.3631 80.1153 49.36C79.9988 50.4562 80.1763 51.5637 80.6294 52.5687C81.0826 53.5737 81.7952 54.4399 82.6939 55.0784L86.0266 56.9903L86.7985 55.6748C87.6846 55.4747 88.5359 55.1436 89.3244 54.6925C90.1873 54.1977 90.9932 53.6094 91.7275 52.9384L80.4486 46.3956Z" fill="#CE0707"/>
<path d="M92.4111 36.082C89.8509 37.7638 87.7227 40.025 86.199 42.6823C84.6752 45.3397 83.7988 48.3186 83.6406 51.3778C83.6406 57.0084 87.5873 59.2887 92.4111 56.4646C94.9704 54.7818 97.0979 52.5204 98.6215 49.8633C100.145 47.2061 101.022 44.2277 101.182 41.1689C101.252 35.5382 97.3226 33.2579 92.4111 36.082Z" fill="#BA68C8"/>
<path d="M92.4111 36.082C89.8509 37.7638 87.7227 40.025 86.199 42.6823C84.6752 45.3397 83.7988 48.3186 83.6406 51.3778C83.6406 57.0084 87.5873 59.2887 92.4111 56.4646C94.9704 54.7818 97.0979 52.5204 98.6215 49.8633C100.145 47.2061 101.022 44.2277 101.182 41.1689C101.252 35.5382 97.3226 33.2579 92.4111 36.082Z" fill="#FF363B"/>
<path d="M93.8153 45.9397L96.0956 40.9054C96.3044 40.6609 96.4191 40.3499 96.4191 40.0284C96.4191 39.7068 96.3044 39.3958 96.0956 39.1513C95.622 38.7654 95.1659 38.9759 94.8853 39.5723L92.412 44.6943L90.0264 42.4139C89.7458 42.1333 89.2897 42.4139 89.0091 42.9928C88.8688 43.2322 88.7948 43.5046 88.7948 43.7821C88.7948 44.0596 88.8688 44.3321 89.0091 44.5715L91.3946 46.9044L89.0091 51.9387C88.7284 52.5351 88.6056 53.2367 89.0091 53.5525C89.108 53.6252 89.2226 53.6739 89.3437 53.6946C89.4648 53.7153 89.5891 53.7075 89.7066 53.6717C89.8241 53.636 89.9317 53.5733 90.0207 53.4886C90.1097 53.4039 90.1777 53.2997 90.2194 53.1841L92.605 48.1323L94.7099 50.167C94.7818 50.2254 94.8716 50.2573 94.9642 50.2573C95.0569 50.2573 95.1467 50.2254 95.2186 50.167C95.4476 50.0199 95.6253 49.8054 95.7272 49.5531C95.8675 49.3137 95.9415 49.0412 95.9415 48.7638C95.9415 48.4863 95.8675 48.2138 95.7272 47.9744L93.8153 45.9397Z" fill="#FAFAFA"/>
</svg>
