<svg width="271" height="239" viewBox="0 0 271 239" fill="none" xmlns="http://www.w3.org/2000/svg">
<path opacity="0.1" d="M142.051 153.177L110.485 134.951L65.2512 137.61L1.11989 175.472C0.774887 175.675 0.489548 175.966 0.292831 176.316C0.0960999 176.665 -0.00502014 177.061 -0.000244141 177.463C0.0045166 177.865 0.11499 178.258 0.319962 178.603C0.524918 178.948 0.817078 179.232 1.16681 179.427L53.1881 208.336C53.7304 208.64 54.3428 208.796 54.964 208.788C55.5851 208.779 56.1932 208.607 56.7272 208.288L66.7579 202.339V202.372L71.0339 199.798L82.9702 192.726H111.462L101.858 181.28L142.084 157.09C142.423 156.888 142.704 156.6 142.898 156.255C143.091 155.91 143.192 155.52 143.188 155.124C143.185 154.728 143.078 154.34 142.879 153.998C142.679 153.656 142.394 153.373 142.051 153.177Z" fill="#333333"/>
<path d="M136.996 180.832L119.432 191.015C115.156 193.495 108.092 193.221 104.412 190.43L82.9846 172.987L106.524 159.348L135.992 172.115C140.798 174.255 141.272 178.352 136.996 180.832Z" fill="#C6C6C6"/>
<path d="M136.996 178.819L119.432 189.007C115.156 191.486 108.092 191.208 104.412 188.422L84.3833 172.143L107.909 158.504L135.977 170.121C140.798 172.242 141.272 176.32 136.996 178.819Z" fill="#F8FBFF"/>
<path style="mix-blend-mode:multiply" d="M136.996 178.819L119.432 189.007C115.156 191.486 108.092 191.208 104.412 188.422L84.3833 172.143L107.909 158.504L135.977 170.121C140.798 172.242 141.272 176.32 136.996 178.819Z" fill="url(#paint0_linear_1408_20343)"/>
<path d="M58.9336 184.613L54.3571 182.077V190.166L58.9336 192.703V184.613Z" fill="#E6E6E6"/>
<path d="M58.9334 184.613V192.703L167.111 129.973V121.878L58.9334 184.613Z" fill="#F8FBFF"/>
<path d="M58.6848 97.2314L54.1085 94.6951L54.3572 182.076L58.9336 184.613L58.6848 97.2314Z" fill="#121C23"/>
<path d="M166.868 34.5014L162.287 31.9651L54.1086 94.6949L58.6851 97.2313L166.868 34.5014Z" fill="#333333"/>
<path d="M58.6847 97.2313L58.9335 184.613L167.111 121.878L166.867 34.5015L58.6847 97.2313Z" fill="#666666"/>
<path d="M62.2756 99.1785L62.4915 179.121L163.525 119.936L163.309 39.9939L62.2756 99.1785Z" fill="#7DC9C6"/>
<path d="M62.2756 99.1785L62.4915 179.121L163.525 119.936L163.309 39.9939L62.2756 99.1785Z" fill="#2284F7"/>
<path fill-rule="evenodd" clip-rule="evenodd" d="M114.592 78.4519V83.3045C103.465 88.0359 94.4529 101.573 94.4529 113.556C94.4529 116.375 94.9564 118.872 95.8878 120.943C96.5675 122.47 101.34 122.073 101.626 121.006C102.197 120.15 101.35 118.516 100.84 117.53C100.742 117.34 100.656 117.175 100.595 117.044C99.8653 115.483 99.4877 113.557 99.4877 111.415C99.4877 102.442 106.259 92.2696 114.592 88.7264V93.579C114.592 94.7989 117.688 94.7264 118.461 94.248L123.78 83.0841C124.284 82.3279 124.284 81.4875 123.78 81.1594L119.291 76.5287C118.511 75.993 114.592 77.2319 114.592 78.4519ZM129.696 98.5692C129.696 107.542 122.924 117.714 114.592 121.258L117.173 115.96C117.173 114.74 113.508 114.624 112.452 116.339L105.429 126.889C104.925 127.646 104.925 128.486 105.429 128.814L114.653 134.64C115.434 135.175 119.635 130.443 114.592 131.532V126.68C125.719 121.948 134.731 108.411 134.731 96.4283C134.731 95.2414 135.072 94.0459 135.398 92.9049C135.846 91.3355 136.264 89.8691 135.725 88.67C135.045 87.1427 130.451 87.9465 129.168 89.875C128.488 90.896 128.211 92.1252 128.589 92.9406C129.319 94.5007 129.696 96.4276 129.696 98.5692Z" fill="#D08002"/>
<path fill-rule="evenodd" clip-rule="evenodd" d="M117.342 78.3847V83.2373C106.216 87.9704 97.2046 101.509 97.2046 113.492C97.2046 116.311 97.708 118.808 98.6394 120.879C99.3191 122.406 101.484 121.973 102.768 120.044C103.447 119.023 103.724 117.794 103.347 116.978C102.617 115.418 102.239 113.492 102.239 111.35C102.239 102.377 109.01 92.2037 117.342 88.6592V93.5118C117.342 94.7317 118.702 94.7499 119.507 93.5668L126.53 83.0156C127.034 82.2593 127.034 81.4189 126.53 81.0908L119.482 76.5256C118.702 75.9901 117.342 77.1648 117.342 78.3847ZM132.446 98.4998C132.446 107.473 125.675 117.646 117.343 121.191V116.338C117.343 115.118 115.983 115.1 115.203 116.272L108.18 126.823C107.676 127.58 107.676 128.42 108.18 128.748L115.203 133.324C115.983 133.86 117.343 132.685 117.343 131.465V126.613C128.469 121.879 137.48 108.341 137.48 96.3581C137.48 93.5388 136.977 91.042 136.046 88.9712C135.366 87.444 133.201 87.877 131.917 89.8057C131.238 90.8268 130.961 92.056 131.338 92.8714C132.068 94.4314 132.446 96.3582 132.446 98.4998Z" fill="#FFD600"/>
<path opacity="0.1" d="M247.82 178.494L220.368 163.87L181.866 167.456L128.274 201.616C127.986 201.799 127.751 202.056 127.593 202.36C127.436 202.664 127.361 203.004 127.377 203.347C127.392 203.689 127.498 204.021 127.683 204.309C127.868 204.598 128.125 204.832 128.429 204.988L199.579 233.685C203.38 235.651 182.245 224.405 185.038 222.617L185.039 222.645L188.611 220.325L198.585 213.946L222.884 213.116L214.36 203.633L247.963 181.83C248.246 181.648 248.477 181.395 248.632 181.095C248.787 180.795 248.862 180.459 248.847 180.122C248.833 179.784 248.73 179.456 248.55 179.17C248.37 178.885 248.118 178.651 247.82 178.494Z" fill="#333333"/>
<g clip-path="url(#clip0_1408_20343)">
<path d="M206.141 233.97L269.199 197.764C269.665 197.55 270.066 197.218 270.361 196.801C270.656 196.384 270.836 195.897 270.882 195.39V192.28C270.882 191.193 270.054 193.077 268.503 192.183L232.71 171.64C229.839 169.985 225.487 169.809 223.02 171.237L159.953 207.444C159.125 207.926 158.526 205.893 158.306 206.568C158.235 206.778 158.306 209.625 158.306 209.844C158.306 210.957 159.081 212.131 160.676 213.05L196.424 233.567C199.296 235.223 203.648 235.398 206.141 233.97Z" fill="#333333"/>
<path d="M206.141 230.939L269.2 194.715C271.693 193.269 271.375 190.79 268.504 189.135L232.711 168.592C229.839 166.936 225.487 166.761 223.02 168.189L159.954 204.395C157.469 205.823 157.778 208.32 160.649 209.975L196.425 230.518C199.297 232.174 203.648 232.349 206.141 230.939Z" fill="#E6E6E6"/>
<path d="M206.142 233.97C203.649 235.398 199.297 235.223 196.451 233.567V230.518C199.323 232.174 203.675 232.349 206.142 230.921V233.97Z" fill="#666666"/>
<path d="M206.142 230.939L269.2 194.715C269.708 194.491 270.138 194.121 270.435 193.653C270.731 193.185 270.881 192.64 270.865 192.087C270.871 192.142 270.871 192.198 270.865 192.253V195.363C270.819 195.871 270.639 196.358 270.344 196.775C270.049 197.192 269.648 197.524 269.182 197.737L206.124 233.944L206.142 230.939Z" fill="#666666"/>
<path d="M160.632 209.459L196.424 230.002C199.296 231.657 203.648 231.832 206.115 230.405L269.199 194.198C269.638 193.994 270.02 193.687 270.313 193.304C270.606 192.922 270.801 192.474 270.882 191.999C270.92 192.567 270.781 193.133 270.483 193.62C270.184 194.106 269.742 194.488 269.217 194.715L206.141 230.939C203.648 232.367 199.296 232.192 196.451 230.536L160.658 209.993C158.975 209.021 158.183 207.768 158.306 206.611C158.452 207.23 158.737 207.807 159.14 208.301C159.543 208.794 160.053 209.19 160.632 209.459Z" fill="#E6E6E6"/>
<path opacity="0.3" d="M220.492 218.272L242.938 205.385C243.388 205.131 243.335 204.676 242.815 204.378L234.384 199.542C234.117 199.395 233.818 199.311 233.512 199.299C233.206 199.287 232.901 199.346 232.623 199.472L210.185 212.358C209.727 212.612 209.788 213.068 210.308 213.366L218.73 218.201C218.997 218.352 219.296 218.436 219.602 218.448C219.909 218.461 220.214 218.4 220.492 218.272Z" fill="white"/>
<path d="M242.815 204.912L234.384 200.076C234.117 199.928 233.819 199.843 233.513 199.829C233.207 199.816 232.902 199.873 232.623 199.997L210.185 212.884C210.101 212.928 210.029 212.991 209.973 213.068C209.931 213.01 209.902 212.943 209.89 212.873C209.877 212.802 209.881 212.73 209.902 212.661C209.922 212.592 209.959 212.529 210.008 212.477C210.057 212.424 210.117 212.384 210.185 212.358L232.631 199.472C232.91 199.346 233.215 199.287 233.521 199.299C233.827 199.311 234.125 199.395 234.393 199.542L242.824 204.378C243.238 204.614 243.353 204.947 243.15 205.21C243.063 205.086 242.948 204.984 242.815 204.912Z" fill="#C6C6C6"/>
<path opacity="0.5" d="M227.108 172.84L223.24 175.066C222.967 175.201 222.665 175.271 222.359 175.271C222.054 175.271 221.752 175.201 221.479 175.066C221.371 175.031 221.277 174.963 221.21 174.871C221.143 174.78 221.108 174.67 221.108 174.557C221.108 174.445 221.143 174.335 221.21 174.243C221.277 174.152 221.371 174.084 221.479 174.049L225.337 171.824C225.61 171.687 225.912 171.616 226.218 171.616C226.524 171.616 226.826 171.687 227.099 171.824C227.207 171.858 227.302 171.925 227.369 172.016C227.437 172.107 227.473 172.216 227.474 172.329C227.475 172.442 227.44 172.552 227.375 172.644C227.309 172.736 227.215 172.805 227.108 172.84ZM220.483 176.625L218.651 177.676C218.378 177.814 218.076 177.886 217.77 177.886C217.464 177.886 217.162 177.814 216.889 177.676C216.404 177.396 216.404 176.94 216.889 176.651L218.721 175.6C218.995 175.465 219.296 175.395 219.602 175.395C219.908 175.395 220.209 175.465 220.483 175.6C220.594 175.633 220.692 175.7 220.761 175.793C220.831 175.885 220.868 175.997 220.868 176.112C220.868 176.228 220.831 176.34 220.761 176.432C220.692 176.525 220.594 176.592 220.483 176.625ZM215.893 179.253L214.061 180.304C213.788 180.441 213.486 180.513 213.18 180.513C212.874 180.513 212.572 180.441 212.299 180.304C212.191 180.269 212.097 180.201 212.031 180.11C211.964 180.019 211.928 179.909 211.928 179.796C211.928 179.683 211.964 179.573 212.031 179.482C212.097 179.391 212.191 179.323 212.299 179.288L214.131 178.237C214.404 178.099 214.706 178.027 215.012 178.027C215.319 178.027 215.62 178.099 215.893 178.237C216.001 178.272 216.095 178.34 216.162 178.431C216.228 178.522 216.264 178.632 216.264 178.745C216.264 178.858 216.228 178.968 216.162 179.059C216.095 179.15 216.001 179.218 215.893 179.253ZM211.312 181.881L209.48 182.941C209.206 183.076 208.905 183.146 208.599 183.146C208.293 183.146 207.992 183.076 207.718 182.941C207.61 182.906 207.516 182.838 207.45 182.747C207.383 182.656 207.347 182.546 207.347 182.433C207.347 182.32 207.383 182.21 207.45 182.119C207.516 182.028 207.61 181.96 207.718 181.925L209.551 180.865C209.824 180.728 210.125 180.656 210.431 180.656C210.737 180.656 211.039 180.728 211.312 180.865C211.42 180.9 211.514 180.968 211.581 181.059C211.647 181.15 211.683 181.26 211.683 181.373C211.683 181.486 211.647 181.596 211.581 181.687C211.514 181.778 211.42 181.846 211.312 181.881ZM206.723 184.509L204.89 185.56C204.616 185.695 204.315 185.766 204.009 185.766C203.704 185.766 203.402 185.695 203.128 185.56C203.022 185.523 202.929 185.454 202.864 185.362C202.798 185.27 202.763 185.16 202.763 185.048C202.763 184.935 202.798 184.826 202.864 184.734C202.929 184.642 203.022 184.573 203.128 184.535L204.961 183.484C205.235 183.349 205.536 183.279 205.842 183.279C206.147 183.279 206.449 183.349 206.723 183.484C206.834 183.517 206.931 183.584 207.001 183.677C207.07 183.769 207.108 183.881 207.108 183.997C207.108 184.112 207.07 184.224 207.001 184.317C206.931 184.409 206.834 184.476 206.723 184.509ZM202.133 187.137L200.301 188.189C200.027 188.326 199.726 188.397 199.42 188.397C199.114 188.397 198.812 188.326 198.539 188.189C198.431 188.154 198.337 188.086 198.27 187.994C198.204 187.903 198.168 187.793 198.168 187.68C198.168 187.568 198.204 187.458 198.27 187.366C198.337 187.275 198.431 187.207 198.539 187.172L200.371 186.121C200.644 185.983 200.946 185.912 201.252 185.912C201.558 185.912 201.86 185.983 202.133 186.121C202.626 186.436 202.626 186.892 202.168 187.181L202.133 187.137ZM197.552 189.765L195.72 190.817C195.447 190.954 195.145 191.026 194.839 191.026C194.533 191.026 194.231 190.954 193.958 190.817C193.473 190.536 193.473 190.081 193.958 189.792L195.79 188.74C196.063 188.603 196.365 188.532 196.671 188.532C196.977 188.532 197.279 188.603 197.552 188.74C197.695 188.74 197.831 188.797 197.932 188.897C198.033 188.997 198.089 189.133 198.089 189.275C198.089 189.417 198.033 189.552 197.932 189.653C197.831 189.753 197.695 189.809 197.552 189.809V189.765ZM192.962 192.393L191.13 193.445C190.856 193.58 190.555 193.65 190.249 193.65C189.943 193.65 189.642 193.58 189.368 193.445C189.26 193.41 189.166 193.342 189.1 193.251C189.033 193.159 188.997 193.049 188.997 192.937C188.997 192.824 189.033 192.714 189.1 192.623C189.166 192.531 189.26 192.463 189.368 192.429L191.2 191.377C191.473 191.24 191.775 191.168 192.081 191.168C192.387 191.168 192.689 191.24 192.962 191.377C193.105 191.377 193.241 191.434 193.342 191.534C193.443 191.634 193.5 191.77 193.5 191.912C193.5 192.053 193.443 192.189 193.342 192.29C193.241 192.39 193.105 192.446 192.962 192.446V192.393ZM188.373 195.022L186.54 196.082C186.267 196.219 185.965 196.29 185.659 196.29C185.353 196.29 185.051 196.219 184.778 196.082C184.67 196.047 184.577 195.979 184.51 195.887C184.443 195.796 184.407 195.686 184.407 195.573C184.407 195.461 184.443 195.351 184.51 195.26C184.577 195.168 184.67 195.1 184.778 195.065L186.602 194.058C186.876 193.923 187.177 193.853 187.483 193.853C187.788 193.853 188.09 193.923 188.364 194.058C188.472 194.092 188.566 194.159 188.634 194.25C188.701 194.34 188.738 194.45 188.739 194.563C188.74 194.676 188.705 194.786 188.639 194.878C188.573 194.97 188.48 195.038 188.373 195.074V195.022ZM183.792 197.65L181.959 198.701C181.685 198.836 181.384 198.906 181.078 198.906C180.773 198.906 180.471 198.836 180.197 198.701C180.091 198.664 179.998 198.594 179.933 198.503C179.867 198.411 179.832 198.301 179.832 198.188C179.832 198.076 179.867 197.966 179.933 197.874C179.998 197.783 180.091 197.713 180.197 197.676L182.03 196.625C182.303 196.488 182.605 196.416 182.911 196.416C183.217 196.416 183.518 196.488 183.792 196.625C183.863 196.625 183.934 196.639 184.001 196.666C184.067 196.693 184.127 196.733 184.178 196.784C184.229 196.834 184.269 196.894 184.296 196.96C184.324 197.026 184.338 197.097 184.338 197.168C184.338 197.239 184.324 197.31 184.296 197.376C184.269 197.442 184.229 197.501 184.178 197.552C184.127 197.602 184.067 197.642 184.001 197.67C183.934 197.697 183.863 197.711 183.792 197.711V197.65ZM179.202 200.278L177.37 201.329C177.096 201.466 176.795 201.537 176.489 201.537C176.183 201.537 175.881 201.466 175.608 201.329C175.5 201.294 175.406 201.226 175.339 201.135C175.273 201.044 175.237 200.934 175.237 200.821C175.237 200.708 175.273 200.598 175.339 200.507C175.406 200.416 175.5 200.348 175.608 200.313L177.44 199.262C177.713 199.124 178.015 199.052 178.321 199.052C178.627 199.052 178.929 199.124 179.202 199.262C179.695 199.603 179.695 200.059 179.202 200.348V200.278ZM174.612 202.906L172.78 203.957C172.507 204.096 172.205 204.169 171.899 204.169C171.592 204.169 171.29 204.096 171.018 203.957C170.525 203.677 170.533 203.221 171.018 202.932L172.85 201.881C173.124 201.746 173.426 201.676 173.731 201.676C174.037 201.676 174.338 201.746 174.612 201.881C175.114 202.24 175.106 202.696 174.612 202.976V202.906ZM169.934 205.595L168.102 206.647C167.828 206.782 167.527 206.852 167.221 206.852C166.915 206.852 166.614 206.782 166.34 206.647C166.233 206.609 166.141 206.54 166.075 206.448C166.01 206.356 165.975 206.247 165.975 206.134C165.975 206.022 166.01 205.912 166.075 205.82C166.141 205.728 166.233 205.659 166.34 205.622L168.164 204.658C168.437 204.523 168.739 204.453 169.045 204.453C169.35 204.453 169.652 204.523 169.926 204.658C170.031 204.694 170.122 204.761 170.187 204.851C170.252 204.941 170.287 205.048 170.288 205.159C170.289 205.269 170.255 205.377 170.192 205.468C170.129 205.559 170.039 205.628 169.934 205.665V205.595ZM231.239 175.355L229.654 176.231C229.34 176.388 228.993 176.471 228.641 176.471C228.289 176.471 227.942 176.388 227.628 176.231L226.059 175.355C225.936 175.314 225.829 175.236 225.752 175.132C225.676 175.027 225.635 174.901 225.635 174.772C225.635 174.643 225.676 174.517 225.752 174.412C225.829 174.308 225.936 174.23 226.059 174.189L227.645 173.313C227.96 173.158 228.307 173.077 228.658 173.077C229.01 173.077 229.357 173.158 229.671 173.313L231.248 174.189C231.794 174.514 231.786 175.03 231.239 175.355ZM223.047 178.859L221.47 177.983C220.915 177.667 220.915 177.107 221.47 176.826L223.055 175.95C223.367 175.791 223.713 175.707 224.064 175.707C224.415 175.707 224.761 175.791 225.073 175.95L226.65 176.826C226.77 176.869 226.874 176.947 226.948 177.05C227.021 177.154 227.061 177.278 227.061 177.405C227.061 177.531 227.021 177.655 226.948 177.759C226.874 177.862 226.77 177.94 226.65 177.983L225.064 178.859C224.754 179.025 224.408 179.115 224.056 179.123C223.704 179.131 223.355 179.055 223.038 178.903L223.047 178.859ZM222.069 180.611L220.483 181.487C220.17 181.647 219.822 181.73 219.47 181.73C219.118 181.73 218.77 181.647 218.457 181.487L216.88 180.611C216.76 180.569 216.656 180.49 216.582 180.387C216.508 180.283 216.469 180.159 216.469 180.033C216.469 179.906 216.508 179.782 216.582 179.679C216.656 179.575 216.76 179.497 216.88 179.454L218.466 178.578C218.778 178.421 219.124 178.338 219.474 178.338C219.825 178.338 220.17 178.421 220.483 178.578L222.06 179.454C222.183 179.495 222.291 179.573 222.367 179.677C222.443 179.782 222.484 179.908 222.484 180.037C222.484 180.166 222.443 180.292 222.367 180.397C222.291 180.501 222.183 180.579 222.06 180.62L222.069 180.611ZM217.479 183.239L215.893 184.115C215.58 184.271 215.235 184.352 214.885 184.352C214.534 184.352 214.189 184.271 213.876 184.115L212.299 183.239C212.176 183.199 212.068 183.121 211.992 183.016C211.916 182.911 211.875 182.786 211.875 182.656C211.875 182.527 211.916 182.401 211.992 182.297C212.068 182.192 212.176 182.114 212.299 182.074L213.885 181.198C214.199 181.04 214.546 180.958 214.898 180.958C215.25 180.958 215.597 181.04 215.911 181.198L217.488 182.074C217.618 182.111 217.731 182.19 217.812 182.298C217.892 182.406 217.935 182.537 217.933 182.672C217.931 182.806 217.884 182.936 217.801 183.042C217.717 183.147 217.601 183.223 217.47 183.256L217.479 183.239ZM207.718 184.719L209.304 183.843C209.616 183.686 209.962 183.603 210.313 183.603C210.663 183.603 211.009 183.686 211.321 183.843L212.898 184.719C213.453 185.035 213.453 185.595 212.898 185.876L211.312 186.752C211 186.91 210.654 186.992 210.304 186.992C209.953 186.992 209.608 186.91 209.295 186.752L207.718 185.876C207.603 185.831 207.505 185.753 207.435 185.652C207.365 185.551 207.327 185.432 207.326 185.309C207.325 185.187 207.361 185.067 207.429 184.965C207.498 184.863 207.595 184.783 207.709 184.737L207.718 184.719ZM203.128 187.348L204.714 186.471C205.027 186.316 205.373 186.235 205.723 186.235C206.073 186.235 206.418 186.316 206.731 186.471L208.308 187.348C208.432 187.388 208.539 187.466 208.615 187.57C208.691 187.675 208.732 187.801 208.732 187.93C208.732 188.059 208.691 188.185 208.615 188.29C208.539 188.394 208.432 188.472 208.308 188.513L206.723 189.389C206.409 189.547 206.062 189.629 205.71 189.629C205.358 189.629 205.011 189.547 204.696 189.389L203.12 188.513C203.002 188.469 202.901 188.39 202.83 188.288C202.759 188.185 202.72 188.063 202.72 187.939C202.72 187.814 202.759 187.693 202.83 187.59C202.901 187.487 203.002 187.409 203.12 187.365L203.128 187.348ZM198.539 189.976L200.124 189.1C200.438 188.94 200.785 188.856 201.137 188.856C201.49 188.856 201.837 188.94 202.151 189.1L203.727 189.976C203.848 190.018 203.952 190.096 204.025 190.2C204.099 190.303 204.139 190.427 204.139 190.554C204.139 190.681 204.099 190.804 204.025 190.908C203.952 191.011 203.848 191.09 203.727 191.132L202.142 192.008C201.829 192.166 201.484 192.248 201.133 192.248C200.783 192.248 200.437 192.166 200.124 192.008L198.547 191.132C197.966 190.843 197.975 190.326 198.53 190.002L198.539 189.976ZM193.958 192.604L195.543 191.728C195.856 191.57 196.202 191.488 196.552 191.488C196.903 191.488 197.248 191.57 197.561 191.728L199.138 192.604C199.693 192.919 199.693 193.48 199.138 193.76L197.552 194.636C197.24 194.796 196.894 194.879 196.543 194.879C196.192 194.879 195.847 194.796 195.535 194.636L193.958 193.76C193.848 193.713 193.755 193.635 193.689 193.536C193.623 193.437 193.587 193.321 193.586 193.202C193.586 193.084 193.619 192.967 193.684 192.867C193.748 192.767 193.84 192.688 193.949 192.639L193.958 192.604ZM189.368 195.232L190.954 194.356C191.266 194.198 191.612 194.116 191.962 194.116C192.313 194.116 192.659 194.198 192.971 194.356L194.548 195.232C194.671 195.272 194.779 195.35 194.855 195.455C194.931 195.559 194.972 195.685 194.972 195.814C194.972 195.944 194.931 196.069 194.855 196.174C194.779 196.279 194.671 196.357 194.548 196.397L192.962 197.273C192.648 197.429 192.301 197.51 191.949 197.51C191.598 197.51 191.251 197.429 190.936 197.273L189.359 196.397C188.795 196.108 188.804 195.591 189.359 195.267L189.368 195.232ZM184.778 197.86L186.364 196.984C186.678 196.826 187.025 196.744 187.377 196.744C187.729 196.744 188.076 196.826 188.39 196.984L189.967 197.86C190.522 198.175 190.522 198.736 189.967 199.016L188.381 199.892C188.069 200.05 187.723 200.132 187.373 200.132C187.022 200.132 186.677 200.05 186.364 199.892L184.787 199.016C184.68 198.969 184.588 198.892 184.523 198.794C184.458 198.697 184.423 198.583 184.421 198.466C184.419 198.349 184.451 198.234 184.513 198.134C184.574 198.034 184.664 197.955 184.769 197.904L184.778 197.86ZM185.369 201.644L183.783 202.52C183.47 202.678 183.125 202.76 182.774 202.76C182.424 202.76 182.078 202.678 181.765 202.52L180.189 201.644C180.065 201.604 179.958 201.526 179.882 201.421C179.805 201.317 179.764 201.191 179.764 201.062C179.764 200.933 179.805 200.807 179.882 200.702C179.958 200.598 180.065 200.52 180.189 200.479L181.774 199.603C182.087 199.447 182.433 199.366 182.783 199.366C183.133 199.366 183.478 199.447 183.792 199.603L185.369 200.479C185.512 200.505 185.641 200.58 185.735 200.691C185.828 200.802 185.878 200.943 185.877 201.087C185.876 201.232 185.823 201.372 185.729 201.482C185.634 201.592 185.503 201.665 185.36 201.688L185.369 201.644ZM175.608 203.125L177.193 202.249C177.507 202.089 177.854 202.006 178.206 202.006C178.559 202.006 178.906 202.089 179.22 202.249L180.788 203.125C180.908 203.167 181.012 203.245 181.086 203.349C181.159 203.453 181.199 203.576 181.199 203.703C181.199 203.83 181.159 203.954 181.086 204.057C181.012 204.161 180.908 204.239 180.788 204.281L179.202 205.157C178.888 205.315 178.541 205.397 178.189 205.397C177.837 205.397 177.49 205.315 177.176 205.157L175.599 204.281C175.035 204.01 175.044 203.493 175.599 203.169L175.608 203.125ZM168.895 206.979L172.516 204.903C172.828 204.745 173.174 204.663 173.524 204.663C173.875 204.663 174.22 204.745 174.533 204.903L176.11 205.779C176.23 205.822 176.334 205.9 176.408 206.003C176.481 206.107 176.521 206.231 176.521 206.357C176.521 206.484 176.481 206.608 176.408 206.712C176.334 206.815 176.23 206.893 176.11 206.936L172.489 209.021C172.176 209.176 171.831 209.257 171.48 209.257C171.13 209.257 170.785 209.176 170.472 209.021L168.895 208.145C168.785 208.097 168.692 208.019 168.626 207.92C168.56 207.821 168.524 207.705 168.524 207.587C168.523 207.468 168.556 207.352 168.621 207.252C168.685 207.151 168.777 207.072 168.886 207.023L168.895 206.979ZM235.477 177.79L231.856 179.875C231.543 180.031 231.198 180.112 230.847 180.112C230.497 180.112 230.152 180.031 229.839 179.875L228.262 178.999C228.138 178.959 228.031 178.881 227.955 178.776C227.879 178.671 227.838 178.545 227.838 178.416C227.838 178.287 227.879 178.161 227.955 178.057C228.031 177.952 228.138 177.874 228.262 177.834L231.891 175.749C232.2 175.595 232.541 175.515 232.887 175.515C233.232 175.515 233.573 175.595 233.882 175.749L235.459 176.625C236.041 176.949 236.041 177.501 235.477 177.79ZM228.852 181.592L227.266 182.468C226.954 182.626 226.608 182.708 226.258 182.708C225.907 182.708 225.562 182.626 225.249 182.468L223.672 181.592C223.117 181.277 223.117 180.716 223.672 180.436L225.258 179.56C225.57 179.402 225.916 179.32 226.266 179.32C226.617 179.32 226.963 179.402 227.275 179.56L228.852 180.436C228.972 180.478 229.076 180.556 229.15 180.66C229.224 180.763 229.263 180.887 229.263 181.014C229.263 181.141 229.224 181.264 229.15 181.368C229.076 181.471 228.972 181.55 228.852 181.592ZM222.685 185.096C222.371 185.254 222.024 185.336 221.672 185.336C221.32 185.336 220.973 185.254 220.659 185.096L219.082 184.22C218.527 183.896 218.536 183.344 219.082 183.055L220.668 182.179C220.983 182.023 221.33 181.942 221.681 181.942C222.033 181.942 222.379 182.023 222.694 182.179L224.262 183.055C224.386 183.095 224.493 183.173 224.569 183.278C224.645 183.383 224.686 183.508 224.686 183.638C224.686 183.767 224.645 183.893 224.569 183.997C224.493 184.102 224.386 184.18 224.262 184.22L222.685 185.096ZM218.096 187.724C217.783 187.882 217.438 187.964 217.087 187.964C216.736 187.964 216.391 187.882 216.078 187.724L214.501 186.848C214.381 186.806 214.277 186.728 214.203 186.624C214.13 186.521 214.09 186.397 214.09 186.27C214.09 186.143 214.13 186.019 214.203 185.916C214.277 185.812 214.381 185.734 214.501 185.692L216.096 184.816C216.408 184.656 216.754 184.573 217.105 184.573C217.456 184.573 217.801 184.656 218.113 184.816L219.69 185.692C219.81 185.734 219.915 185.812 219.988 185.916C220.062 186.019 220.101 186.143 220.101 186.27C220.101 186.397 220.062 186.521 219.988 186.624C219.915 186.728 219.81 186.806 219.69 186.848L218.096 187.724ZM213.524 187.383L215.1 188.259C215.655 188.574 215.655 189.091 215.1 189.415L213.515 190.291C213.203 190.451 212.857 190.534 212.506 190.534C212.155 190.534 211.809 190.451 211.497 190.291L209.921 189.415C209.8 189.373 209.696 189.294 209.622 189.191C209.549 189.087 209.509 188.964 209.509 188.837C209.509 188.71 209.549 188.586 209.622 188.483C209.696 188.379 209.8 188.301 209.921 188.259L211.506 187.383C211.822 187.232 212.17 187.157 212.52 187.164C212.871 187.172 213.214 187.262 213.524 187.426V187.383ZM208.846 189.958L210.608 190.974C210.72 191.01 210.817 191.08 210.887 191.175C210.956 191.269 210.993 191.383 210.993 191.5C210.993 191.617 210.956 191.731 210.887 191.825C210.817 191.92 210.72 191.99 210.608 192.026L208.846 193.05C208.562 193.193 208.248 193.267 207.93 193.267C207.611 193.267 207.298 193.193 207.013 193.05L205.251 192.034C204.749 191.745 204.758 191.281 205.251 190.992L207.013 189.967C207.301 189.832 207.616 189.765 207.934 189.771C208.252 189.777 208.564 189.856 208.846 190.002V189.958ZM204.256 192.586L206.018 193.602C206.13 193.638 206.228 193.708 206.297 193.803C206.366 193.897 206.404 194.011 206.404 194.128C206.404 194.245 206.366 194.359 206.297 194.453C206.228 194.548 206.13 194.618 206.018 194.654L204.256 195.679C203.973 195.821 203.661 195.895 203.344 195.895C203.027 195.895 202.715 195.821 202.432 195.679L200.671 194.662C200.559 194.627 200.461 194.557 200.391 194.462C200.322 194.368 200.285 194.254 200.285 194.137C200.285 194.02 200.322 193.906 200.391 193.811C200.461 193.717 200.559 193.647 200.671 193.611L202.432 192.586C202.719 192.452 203.034 192.387 203.351 192.396C203.667 192.405 203.978 192.488 204.256 192.639V192.586ZM199.666 195.214L201.428 196.23C201.537 196.268 201.631 196.339 201.698 196.432C201.765 196.525 201.801 196.637 201.801 196.752C201.801 196.866 201.765 196.978 201.698 197.071C201.631 197.165 201.537 197.235 201.428 197.273L199.666 198.298C199.383 198.438 199.071 198.511 198.755 198.511C198.438 198.511 198.126 198.438 197.843 198.298L196.081 197.273C195.579 196.993 195.579 196.52 196.081 196.23L197.843 195.206C198.131 195.074 198.446 195.012 198.763 195.024C199.08 195.036 199.389 195.122 199.666 195.276V195.214ZM195.085 197.842L196.847 198.859C196.959 198.894 197.057 198.964 197.126 199.059C197.196 199.153 197.233 199.267 197.233 199.384C197.233 199.501 197.196 199.615 197.126 199.71C197.057 199.804 196.959 199.874 196.847 199.91L195.085 200.935C194.801 201.077 194.487 201.151 194.169 201.151C193.851 201.151 193.537 201.077 193.253 200.935L191.491 199.919C190.989 199.63 190.998 199.165 191.491 198.867L193.253 197.851C193.546 197.711 193.868 197.643 194.193 197.652C194.518 197.661 194.836 197.747 195.121 197.904L195.085 197.842ZM190.496 200.471L192.258 201.487C192.76 201.776 192.76 202.24 192.258 202.538L190.496 203.554C190.213 203.697 189.901 203.771 189.584 203.771C189.267 203.771 188.955 203.697 188.672 203.554L186.91 202.538C186.798 202.502 186.7 202.432 186.631 202.338C186.562 202.243 186.524 202.129 186.524 202.012C186.524 201.895 186.562 201.781 186.631 201.687C186.7 201.592 186.798 201.522 186.91 201.487L188.672 200.462C188.961 200.331 189.276 200.271 189.593 200.284C189.91 200.298 190.219 200.386 190.496 200.541V200.471ZM184.065 206.191L182.303 205.175C181.801 204.886 181.801 204.421 182.303 204.132L184.065 203.107C184.348 202.967 184.66 202.894 184.977 202.894C185.293 202.894 185.605 202.967 185.888 203.107L187.65 204.124C187.762 204.159 187.86 204.229 187.929 204.324C187.999 204.418 188.036 204.532 188.036 204.649C188.036 204.766 187.999 204.88 187.929 204.975C187.86 205.069 187.762 205.139 187.65 205.175L185.888 206.2C185.611 206.352 185.301 206.436 184.984 206.447C184.667 206.458 184.352 206.394 184.065 206.261V206.191ZM179.475 208.819L177.713 207.803C177.601 207.767 177.503 207.697 177.434 207.603C177.365 207.508 177.327 207.394 177.327 207.277C177.327 207.16 177.365 207.046 177.434 206.952C177.503 206.857 177.601 206.787 177.713 206.752L179.475 205.727C179.759 205.584 180.073 205.51 180.391 205.51C180.709 205.51 181.023 205.584 181.307 205.727L183.069 206.743C183.181 206.779 183.279 206.849 183.348 206.943C183.418 207.038 183.455 207.152 183.455 207.269C183.455 207.385 183.418 207.499 183.348 207.594C183.279 207.688 183.181 207.758 183.069 207.794L181.307 208.819C181.029 208.974 180.719 209.062 180.401 209.075C180.082 209.089 179.765 209.028 179.475 208.898V208.819ZM173.035 209.441L174.797 208.416C175.08 208.274 175.392 208.2 175.709 208.2C176.026 208.2 176.338 208.274 176.621 208.416L178.383 209.432C178.885 209.721 178.885 210.186 178.383 210.484L176.621 211.5C176.339 211.644 176.026 211.72 175.709 211.72C175.392 211.72 175.079 211.644 174.797 211.5L173.035 210.484C172.949 210.436 172.877 210.366 172.827 210.281C172.777 210.196 172.751 210.1 172.751 210.002C172.751 209.904 172.777 209.807 172.827 209.722C172.877 209.638 172.949 209.568 173.035 209.52V209.441ZM239.82 180.173L234.076 183.475C233.792 183.618 233.478 183.692 233.16 183.692C232.842 183.692 232.528 183.618 232.244 183.475L230.482 182.459C229.98 182.179 229.988 181.706 230.482 181.417L236.234 178.114C236.517 177.972 236.829 177.898 237.146 177.898C237.463 177.898 237.775 177.972 238.058 178.114L239.82 179.13C240.331 179.411 240.331 179.884 239.82 180.173ZM231.239 185.087L229.478 186.112C229.195 186.255 228.883 186.329 228.566 186.329C228.249 186.329 227.937 186.255 227.654 186.112L225.892 185.096C225.39 184.807 225.39 184.343 225.892 184.045L227.654 183.029C227.936 182.884 228.249 182.809 228.566 182.809C228.883 182.809 229.196 182.884 229.478 183.029L231.239 184.045C231.348 184.083 231.443 184.153 231.509 184.246C231.576 184.34 231.612 184.452 231.612 184.566C231.612 184.681 231.576 184.792 231.509 184.886C231.443 184.979 231.348 185.05 231.239 185.087ZM226.658 187.715L224.897 188.732C224.614 188.874 224.302 188.948 223.985 188.948C223.668 188.948 223.356 188.874 223.073 188.732L221.311 187.715C221.199 187.68 221.101 187.61 221.032 187.515C220.963 187.421 220.925 187.307 220.925 187.19C220.925 187.073 220.963 186.959 221.032 186.864C221.101 186.77 221.199 186.7 221.311 186.664L223.073 185.639C223.356 185.497 223.668 185.423 223.985 185.423C224.302 185.423 224.614 185.497 224.897 185.639L226.658 186.655C227.187 186.962 227.187 187.426 226.685 187.724L226.658 187.715ZM222.069 190.344L220.307 191.369C220.023 191.511 219.709 191.585 219.391 191.585C219.072 191.585 218.759 191.511 218.474 191.369L216.713 190.352C216.21 190.063 216.219 189.599 216.713 189.31L218.474 188.285C218.759 188.144 219.073 188.071 219.391 188.071C219.709 188.071 220.022 188.144 220.307 188.285L222.069 189.301C222.182 189.334 222.281 189.402 222.353 189.494C222.425 189.587 222.465 189.7 222.468 189.817C222.471 189.934 222.437 190.049 222.369 190.145C222.302 190.241 222.206 190.314 222.095 190.352L222.069 190.344ZM213.876 194.005L212.114 192.989C212.002 192.954 211.904 192.883 211.835 192.789C211.766 192.694 211.728 192.581 211.728 192.464C211.728 192.347 211.766 192.233 211.835 192.138C211.904 192.044 212.002 191.974 212.114 191.938L213.876 190.913C214.159 190.771 214.471 190.696 214.788 190.696C215.105 190.696 215.417 190.771 215.7 190.913L217.461 191.929C217.573 191.965 217.671 192.035 217.74 192.129C217.81 192.224 217.847 192.338 217.847 192.455C217.847 192.572 217.81 192.686 217.74 192.78C217.671 192.875 217.573 192.945 217.461 192.98L215.7 193.997C215.422 194.139 215.115 194.215 214.803 194.218C214.491 194.222 214.182 194.152 213.902 194.014L213.876 194.005ZM209.286 196.633L207.524 195.617C207.022 195.337 207.022 194.864 207.524 194.575L209.286 193.55C209.569 193.407 209.881 193.333 210.198 193.333C210.515 193.333 210.827 193.407 211.11 193.55L212.872 194.566C212.981 194.604 213.075 194.674 213.142 194.768C213.208 194.861 213.244 194.973 213.244 195.087C213.244 195.202 213.208 195.314 213.142 195.407C213.075 195.5 212.981 195.571 212.872 195.609L211.11 196.633C210.831 196.773 210.524 196.846 210.212 196.848C209.9 196.849 209.593 196.779 209.313 196.642L209.286 196.633ZM204.696 199.262L202.935 198.245C202.432 197.956 202.441 197.492 202.935 197.194L204.696 196.178C204.98 196.033 205.294 195.958 205.613 195.958C205.931 195.958 206.245 196.033 206.529 196.178L208.291 197.194C208.403 197.23 208.5 197.3 208.57 197.394C208.639 197.489 208.677 197.603 208.677 197.72C208.677 197.837 208.639 197.951 208.57 198.045C208.5 198.14 208.403 198.21 208.291 198.245L206.529 199.27C206.249 199.41 205.94 199.483 205.627 199.485C205.314 199.486 205.004 199.416 204.723 199.279L204.696 199.262ZM200.116 201.89L198.354 200.873C198.242 200.838 198.144 200.768 198.075 200.673C198.005 200.579 197.968 200.465 197.968 200.348C197.968 200.231 198.005 200.117 198.075 200.022C198.144 199.928 198.242 199.858 198.354 199.822L200.116 198.797C200.398 198.655 200.711 198.581 201.027 198.581C201.344 198.581 201.657 198.655 201.939 198.797L203.701 199.813C204.203 200.103 204.203 200.567 203.701 200.865L201.939 201.881C201.663 202.024 201.357 202.102 201.045 202.108C200.733 202.115 200.424 202.049 200.142 201.916L200.116 201.89ZM195.526 204.518L193.764 203.502C193.262 203.212 193.262 202.748 193.764 202.459L195.526 201.434C195.808 201.292 196.121 201.218 196.438 201.218C196.754 201.218 197.067 201.292 197.349 201.434L199.111 202.45C199.223 202.486 199.321 202.556 199.39 202.651C199.46 202.745 199.497 202.859 199.497 202.976C199.497 203.093 199.46 203.207 199.39 203.301C199.321 203.396 199.223 203.466 199.111 203.502L197.349 204.527C197.072 204.667 196.765 204.742 196.453 204.745C196.141 204.748 195.833 204.679 195.552 204.544L195.526 204.518ZM190.936 207.146L189.174 206.13C189.062 206.094 188.964 206.024 188.895 205.929C188.826 205.835 188.788 205.721 188.788 205.604C188.788 205.487 188.826 205.373 188.895 205.279C188.964 205.184 189.062 205.114 189.174 205.078L190.936 204.053C191.22 203.911 191.534 203.837 191.852 203.837C192.171 203.837 192.484 203.911 192.768 204.053L194.53 205.07C194.642 205.105 194.74 205.175 194.809 205.27C194.879 205.364 194.916 205.478 194.916 205.595C194.916 205.712 194.879 205.826 194.809 205.921C194.74 206.015 194.642 206.085 194.53 206.121L192.768 207.137C192.492 207.284 192.184 207.365 191.871 207.372C191.557 207.38 191.246 207.314 190.963 207.181L190.936 207.146ZM189.958 208.749L188.196 209.774C187.914 209.916 187.601 209.991 187.285 209.991C186.968 209.991 186.655 209.916 186.373 209.774L184.611 208.758C184.109 208.477 184.109 208.004 184.611 207.715L186.373 206.69C186.655 206.548 186.968 206.474 187.285 206.474C187.601 206.474 187.914 206.548 188.196 206.69L189.958 207.707C190.496 208.031 190.496 208.495 189.985 208.784L189.958 208.749ZM177.255 211.92L181.783 209.292C182.065 209.148 182.378 209.072 182.695 209.072C183.012 209.072 183.325 209.148 183.607 209.292L185.369 210.308C185.481 210.344 185.578 210.414 185.648 210.509C185.717 210.603 185.754 210.717 185.754 210.834C185.754 210.951 185.717 211.065 185.648 211.159C185.578 211.254 185.481 211.324 185.369 211.36L180.84 213.988C180.556 214.13 180.243 214.204 179.924 214.204C179.606 214.204 179.292 214.13 179.008 213.988L177.246 212.971C176.77 212.717 176.779 212.253 177.281 211.955L177.255 211.92ZM244.057 182.757L235.891 187.444C235.571 187.603 235.218 187.686 234.86 187.686C234.502 187.686 234.149 187.603 233.829 187.444L232.297 186.568C232.172 186.525 232.064 186.444 231.988 186.338C231.912 186.231 231.871 186.103 231.871 185.972C231.871 185.841 231.912 185.713 231.988 185.607C232.064 185.5 232.172 185.419 232.297 185.376L240.454 180.698C240.773 180.536 241.126 180.452 241.485 180.452C241.843 180.452 242.196 180.536 242.516 180.698L244.048 181.574C244.174 181.614 244.284 181.693 244.362 181.798C244.441 181.904 244.483 182.031 244.484 182.163C244.485 182.294 244.445 182.422 244.368 182.529C244.291 182.636 244.182 182.715 244.057 182.757ZM232.852 189.187L231.31 190.063C230.991 190.225 230.638 190.31 230.279 190.31C229.921 190.31 229.568 190.225 229.248 190.063L227.707 189.187C227.143 188.863 227.143 188.311 227.707 188.005L229.248 187.129C229.569 186.967 229.924 186.883 230.284 186.883C230.643 186.883 230.998 186.967 231.319 187.129L232.852 188.005C232.971 188.049 233.074 188.129 233.146 188.233C233.219 188.337 233.258 188.46 233.258 188.587C233.258 188.714 233.219 188.837 233.146 188.942C233.074 189.046 232.971 189.125 232.852 189.17V189.187ZM228.262 191.815L226.72 192.691C226.401 192.854 226.048 192.938 225.689 192.938C225.331 192.938 224.978 192.854 224.659 192.691L223.126 191.815C222.553 191.491 222.562 190.939 223.126 190.633L224.668 189.757C224.987 189.594 225.34 189.51 225.698 189.51C226.057 189.51 226.41 189.594 226.729 189.757L228.262 190.633C228.843 190.948 228.834 191.517 228.262 191.807V191.815ZM223.681 194.443L222.139 195.319C221.818 195.479 221.463 195.562 221.104 195.562C220.745 195.562 220.39 195.479 220.069 195.319L218.536 194.443C217.972 194.119 217.972 193.567 218.536 193.261L220.078 192.385C220.397 192.222 220.75 192.138 221.109 192.138C221.467 192.138 221.82 192.222 222.139 192.385L223.672 193.261C223.795 193.302 223.901 193.381 223.977 193.486C224.053 193.59 224.094 193.716 224.095 193.845C224.096 193.973 224.057 194.099 223.982 194.205C223.908 194.311 223.803 194.391 223.681 194.435V194.443ZM219.091 197.071L217.549 197.948C217.23 198.11 216.877 198.194 216.519 198.194C216.16 198.194 215.807 198.11 215.488 197.948L213.955 197.071C213.83 197.031 213.72 196.952 213.643 196.845C213.565 196.739 213.524 196.611 213.524 196.48C213.524 196.349 213.565 196.221 213.643 196.115C213.72 196.009 213.83 195.93 213.955 195.889L215.497 195.013C215.818 194.851 216.172 194.767 216.532 194.767C216.892 194.767 217.246 194.851 217.567 195.013L219.1 195.889C219.225 195.93 219.334 196.01 219.411 196.117C219.487 196.224 219.528 196.352 219.527 196.483C219.526 196.615 219.483 196.742 219.405 196.848C219.327 196.953 219.217 197.032 219.091 197.071ZM214.501 199.7L212.96 200.576C212.64 200.735 212.287 200.818 211.929 200.818C211.571 200.818 211.218 200.735 210.898 200.576L209.366 199.7C208.793 199.367 208.802 198.824 209.366 198.508L210.907 197.632C211.227 197.473 211.58 197.39 211.938 197.39C212.296 197.39 212.649 197.473 212.969 197.632L214.501 198.526C215.083 198.85 215.074 199.402 214.501 199.708V199.7ZM209.921 202.328L208.379 203.204C208.058 203.365 207.703 203.45 207.344 203.45C206.984 203.45 206.629 203.365 206.309 203.204L204.776 202.328C204.212 202.004 204.212 201.452 204.776 201.145L206.317 200.269C206.637 200.107 206.99 200.022 207.348 200.022C207.707 200.022 208.06 200.107 208.379 200.269L209.921 201.145C210.049 201.184 210.162 201.262 210.242 201.37C210.323 201.477 210.366 201.607 210.366 201.741C210.366 201.874 210.323 202.005 210.242 202.112C210.162 202.219 210.049 202.298 209.921 202.336V202.328ZM205.331 204.956L203.789 205.832C203.47 205.994 203.117 206.079 202.758 206.079C202.4 206.079 202.047 205.994 201.728 205.832L200.195 204.956C200.069 204.915 199.96 204.836 199.883 204.73C199.805 204.624 199.763 204.496 199.763 204.364C199.763 204.233 199.805 204.105 199.883 203.999C199.96 203.893 200.069 203.814 200.195 203.773L201.745 202.897C202.065 202.738 202.418 202.655 202.776 202.655C203.134 202.655 203.487 202.738 203.807 202.897L205.34 203.773C205.903 204.115 205.903 204.658 205.331 204.973V204.956ZM200.741 207.584L199.199 208.46C198.879 208.619 198.527 208.703 198.169 208.703C197.811 208.703 197.458 208.619 197.138 208.46L195.605 207.584C195.033 207.26 195.041 206.708 195.605 206.401L197.147 205.525C197.466 205.363 197.819 205.278 198.177 205.278C198.536 205.278 198.889 205.363 199.208 205.525L200.741 206.401C201.287 206.743 201.287 207.286 200.741 207.601V207.584ZM196.16 210.212L194.618 211.088C194.298 211.25 193.943 211.334 193.583 211.334C193.224 211.334 192.869 211.25 192.548 211.088L191.015 210.212C190.89 210.171 190.781 210.092 190.703 209.986C190.626 209.88 190.584 209.752 190.584 209.621C190.584 209.489 190.626 209.362 190.703 209.255C190.781 209.149 190.89 209.07 191.015 209.029L192.557 208.153C192.876 207.991 193.229 207.906 193.588 207.906C193.946 207.906 194.299 207.991 194.618 208.153L196.16 209.029C196.296 209.062 196.418 209.14 196.504 209.249C196.591 209.359 196.638 209.494 196.638 209.634C196.638 209.773 196.591 209.909 196.504 210.018C196.418 210.128 196.296 210.205 196.16 210.238V210.212ZM191.57 212.84L190.029 213.716C189.709 213.876 189.356 213.959 188.998 213.959C188.64 213.959 188.287 213.876 187.967 213.716L186.434 212.84C186.31 212.797 186.202 212.717 186.126 212.61C186.05 212.503 186.009 212.375 186.009 212.244C186.009 212.113 186.05 211.986 186.126 211.879C186.202 211.772 186.31 211.692 186.434 211.649L187.985 210.773C188.305 210.613 188.658 210.53 189.016 210.53C189.374 210.53 189.726 210.613 190.046 210.773L191.597 211.666C191.728 211.705 191.843 211.785 191.924 211.894C192.006 212.003 192.05 212.135 192.05 212.271C192.05 212.407 192.006 212.539 191.924 212.648C191.843 212.757 191.728 212.836 191.597 212.875L191.57 212.84ZM181.748 214.356L183.289 213.48C183.61 213.318 183.965 213.234 184.325 213.234C184.684 213.234 185.039 213.318 185.36 213.48L186.893 214.356C187.456 214.68 187.456 215.232 186.893 215.538L185.351 216.414C185.032 216.579 184.679 216.664 184.32 216.664C183.961 216.664 183.608 216.579 183.289 216.414L181.748 215.538C181.634 215.491 181.537 215.411 181.469 215.309C181.4 215.207 181.364 215.087 181.364 214.964C181.364 214.842 181.4 214.722 181.469 214.62C181.537 214.518 181.634 214.438 181.748 214.391V214.356ZM241.132 185.175L244.709 183.116C245.03 182.955 245.385 182.87 245.744 182.87C246.104 182.87 246.458 182.955 246.779 183.116L248.312 183.992C248.438 184.033 248.547 184.112 248.624 184.218C248.702 184.325 248.744 184.452 248.744 184.584C248.744 184.715 248.702 184.843 248.624 184.949C248.547 185.055 248.438 185.134 248.312 185.175L244.735 187.234C244.416 187.398 244.061 187.484 243.7 187.484C243.34 187.484 242.985 187.398 242.665 187.234L241.132 186.358C241.007 186.317 240.898 186.238 240.82 186.132C240.743 186.025 240.701 185.898 240.701 185.766C240.701 185.635 240.743 185.507 240.82 185.401C240.898 185.295 241.007 185.216 241.132 185.175ZM236.543 187.803L238.093 186.927C238.413 186.767 238.766 186.684 239.124 186.684C239.482 186.684 239.835 186.767 240.155 186.927L241.687 187.803C241.813 187.844 241.922 187.923 242 188.029C242.077 188.135 242.119 188.263 242.119 188.394C242.119 188.526 242.077 188.653 242 188.76C241.922 188.866 241.813 188.945 241.687 188.986L240.146 189.862C239.826 190.021 239.473 190.104 239.115 190.104C238.757 190.104 238.404 190.021 238.084 189.862L236.552 188.986C236.429 188.944 236.322 188.865 236.246 188.761C236.17 188.657 236.127 188.532 236.124 188.404C236.122 188.275 236.158 188.148 236.23 188.041C236.302 187.933 236.405 187.85 236.525 187.803H236.543ZM231.962 190.431L233.503 189.555C233.823 189.393 234.176 189.308 234.534 189.308C234.893 189.308 235.246 189.393 235.565 189.555L237.098 190.431C237.223 190.472 237.332 190.551 237.41 190.657C237.487 190.763 237.529 190.891 237.529 191.022C237.529 191.154 237.487 191.282 237.41 191.388C237.332 191.494 237.223 191.573 237.098 191.614L235.547 192.49C235.228 192.652 234.875 192.737 234.517 192.737C234.158 192.737 233.805 192.652 233.486 192.49L231.953 191.614C231.831 191.57 231.726 191.49 231.651 191.384C231.577 191.279 231.538 191.153 231.539 191.024C231.54 190.895 231.581 190.769 231.657 190.665C231.733 190.56 231.839 190.482 231.962 190.44V190.431ZM199.851 208.828L228.923 192.183C229.242 192.024 229.595 191.941 229.953 191.941C230.311 191.941 230.664 192.024 230.984 192.183L232.526 193.059C232.65 193.102 232.758 193.183 232.834 193.29C232.91 193.396 232.951 193.524 232.951 193.655C232.951 193.786 232.91 193.914 232.834 194.02C232.758 194.127 232.65 194.208 232.526 194.251L203.454 210.895C203.135 211.058 202.782 211.142 202.424 211.142C202.065 211.142 201.712 211.058 201.393 210.895L199.851 210.019C199.279 209.73 199.279 209.205 199.851 208.872V208.828ZM195.27 211.456L196.812 210.58C197.131 210.418 197.484 210.333 197.843 210.333C198.201 210.333 198.554 210.418 198.873 210.58L200.406 211.456C200.979 211.78 200.97 212.332 200.406 212.639L198.865 213.515C198.546 213.677 198.192 213.761 197.834 213.761C197.476 213.761 197.122 213.677 196.803 213.515L195.27 212.639C194.689 212.367 194.698 211.833 195.27 211.509V211.456ZM190.681 214.084L192.222 213.208C192.541 213.046 192.895 212.961 193.253 212.961C193.611 212.961 193.965 213.046 194.284 213.208L195.817 214.084C195.942 214.125 196.051 214.204 196.129 214.31C196.206 214.416 196.248 214.544 196.248 214.675C196.248 214.807 196.206 214.934 196.129 215.041C196.051 215.147 195.942 215.226 195.817 215.267L194.266 216.143C193.946 216.302 193.593 216.385 193.235 216.385C192.878 216.385 192.525 216.302 192.205 216.143L190.672 215.267C190.568 215.211 190.482 215.127 190.423 215.024C190.365 214.922 190.336 214.806 190.341 214.688C190.345 214.571 190.383 214.457 190.449 214.359C190.516 214.262 190.608 214.185 190.716 214.137L190.681 214.084ZM185.994 216.773L187.544 215.897C187.864 215.735 188.217 215.651 188.575 215.651C188.934 215.651 189.287 215.735 189.606 215.897L191.139 216.773C191.264 216.814 191.373 216.893 191.451 217C191.529 217.106 191.57 217.234 191.57 217.365C191.57 217.496 191.529 217.624 191.451 217.73C191.373 217.836 191.264 217.915 191.139 217.956L189.597 218.832C189.278 218.994 188.925 219.079 188.566 219.079C188.208 219.079 187.855 218.994 187.536 218.832L186.003 217.956C185.43 217.685 185.43 217.159 185.994 216.826V216.773Z" fill="#C6C6C6"/>
<path d="M227.108 172.42L223.24 174.636C222.967 174.774 222.666 174.846 222.359 174.846C222.053 174.846 221.752 174.774 221.479 174.636C220.994 174.356 220.994 173.9 221.479 173.611L225.337 171.369C225.61 171.231 225.912 171.16 226.218 171.16C226.524 171.16 226.826 171.231 227.099 171.369C227.216 171.398 227.32 171.465 227.395 171.56C227.47 171.654 227.511 171.771 227.512 171.891C227.513 172.011 227.474 172.128 227.401 172.224C227.328 172.32 227.225 172.389 227.108 172.42ZM220.483 176.222L218.651 177.273C218.377 177.408 218.075 177.478 217.77 177.478C217.464 177.478 217.163 177.408 216.889 177.273C216.781 177.238 216.687 177.17 216.62 177.079C216.554 176.988 216.518 176.878 216.518 176.765C216.518 176.652 216.554 176.542 216.62 176.451C216.687 176.36 216.781 176.292 216.889 176.257L218.721 175.206C218.995 175.07 219.296 175 219.602 175C219.908 175 220.209 175.07 220.483 175.206C220.587 175.245 220.676 175.314 220.739 175.405C220.802 175.496 220.836 175.603 220.836 175.714C220.836 175.824 220.802 175.932 220.739 176.022C220.676 176.113 220.587 176.183 220.483 176.222ZM215.893 178.85L214.061 179.901C213.788 180.04 213.486 180.113 213.18 180.113C212.874 180.113 212.572 180.04 212.299 179.901C211.806 179.621 211.815 179.165 212.299 178.876L214.131 177.825C214.405 177.69 214.707 177.62 215.012 177.62C215.318 177.62 215.62 177.69 215.893 177.825C216.005 177.858 216.102 177.925 216.172 178.017C216.241 178.11 216.278 178.222 216.278 178.337C216.278 178.453 216.241 178.565 216.172 178.657C216.102 178.75 216.005 178.817 215.893 178.85ZM211.312 181.478L209.48 182.529C209.206 182.664 208.905 182.735 208.599 182.735C208.293 182.735 207.992 182.664 207.718 182.529C207.61 182.494 207.516 182.426 207.45 182.335C207.383 182.244 207.347 182.134 207.347 182.021C207.347 181.908 207.383 181.798 207.45 181.707C207.516 181.616 207.61 181.548 207.718 181.513L209.551 180.462C209.824 180.325 210.125 180.253 210.431 180.253C210.737 180.253 211.039 180.325 211.312 180.462C211.424 180.494 211.521 180.562 211.591 180.654C211.66 180.747 211.698 180.859 211.698 180.974C211.698 181.09 211.66 181.202 211.591 181.294C211.521 181.386 211.424 181.454 211.312 181.487V181.478ZM206.723 184.106L204.89 185.157C204.616 185.292 204.315 185.363 204.009 185.363C203.704 185.363 203.402 185.292 203.128 185.157C203.021 185.122 202.927 185.054 202.86 184.963C202.793 184.872 202.757 184.762 202.757 184.649C202.757 184.536 202.793 184.427 202.86 184.335C202.927 184.244 203.021 184.176 203.128 184.141L204.961 183.09C205.234 182.952 205.536 182.88 205.842 182.88C206.148 182.88 206.45 182.952 206.723 183.09C207.216 183.379 207.216 183.834 206.723 184.124V184.106ZM202.133 186.734L200.301 187.785C200.028 187.925 199.726 187.997 199.42 187.997C199.113 187.997 198.811 187.925 198.539 187.785C198.432 187.748 198.339 187.679 198.274 187.587C198.209 187.495 198.173 187.385 198.173 187.273C198.173 187.16 198.209 187.051 198.274 186.959C198.339 186.867 198.432 186.798 198.539 186.76L200.371 185.709C200.645 185.574 200.946 185.504 201.252 185.504C201.558 185.504 201.859 185.574 202.133 185.709C202.253 185.732 202.362 185.794 202.441 185.886C202.521 185.979 202.566 186.095 202.571 186.216C202.575 186.338 202.537 186.457 202.464 186.554C202.391 186.652 202.286 186.721 202.168 186.752L202.133 186.734ZM197.552 189.362L195.72 190.414C195.446 190.549 195.144 190.619 194.839 190.619C194.533 190.619 194.232 190.549 193.958 190.414C193.85 190.379 193.756 190.311 193.689 190.219C193.623 190.128 193.587 190.018 193.587 189.905C193.587 189.793 193.623 189.683 193.689 189.591C193.756 189.5 193.85 189.432 193.958 189.397L195.79 188.346C196.063 188.209 196.365 188.138 196.671 188.138C196.977 188.138 197.279 188.209 197.552 188.346C197.665 188.379 197.765 188.448 197.836 188.542C197.906 188.636 197.945 188.75 197.945 188.867C197.945 188.985 197.906 189.099 197.836 189.193C197.765 189.287 197.665 189.356 197.552 189.389V189.362ZM192.962 191.99L191.13 193.042C190.857 193.179 190.555 193.251 190.249 193.251C189.943 193.251 189.641 193.179 189.368 193.042C188.884 192.761 188.884 192.306 189.368 192.017L191.2 190.965C191.474 190.83 191.776 190.76 192.081 190.76C192.387 190.76 192.688 190.83 192.962 190.965C193.086 190.988 193.198 191.053 193.278 191.149C193.359 191.245 193.403 191.366 193.403 191.491C193.403 191.616 193.359 191.737 193.278 191.833C193.198 191.929 193.086 191.994 192.962 192.017V191.99ZM188.373 194.618L186.54 195.67C186.267 195.807 185.965 195.878 185.659 195.878C185.353 195.878 185.051 195.807 184.778 195.67C184.67 195.635 184.577 195.567 184.51 195.476C184.443 195.384 184.407 195.274 184.407 195.162C184.407 195.049 184.443 194.939 184.51 194.848C184.577 194.756 184.67 194.688 184.778 194.654L186.611 193.602C186.884 193.467 187.186 193.397 187.492 193.397C187.797 193.397 188.099 193.467 188.373 193.602C188.496 193.625 188.608 193.69 188.688 193.786C188.769 193.882 188.813 194.003 188.813 194.128C188.813 194.253 188.769 194.374 188.688 194.47C188.608 194.566 188.496 194.631 188.373 194.654V194.618ZM183.792 197.247L181.959 198.298C181.685 198.433 181.384 198.503 181.078 198.503C180.773 198.503 180.471 198.433 180.197 198.298C180.09 198.263 179.996 198.195 179.929 198.104C179.862 198.012 179.826 197.903 179.826 197.79C179.826 197.677 179.862 197.567 179.929 197.476C179.996 197.385 180.09 197.317 180.197 197.282L182.03 196.23C182.302 196.091 182.604 196.019 182.911 196.019C183.217 196.019 183.519 196.091 183.792 196.23C184.285 196.546 184.285 197.001 183.792 197.29V197.247ZM179.202 199.875L177.37 200.926C177.096 201.063 176.795 201.134 176.489 201.134C176.183 201.134 175.881 201.063 175.608 200.926C175.501 200.889 175.408 200.819 175.343 200.728C175.278 200.636 175.242 200.526 175.242 200.413C175.242 200.301 175.278 200.191 175.343 200.099C175.408 200.008 175.501 199.938 175.608 199.901L177.44 198.85C177.714 198.715 178.015 198.644 178.321 198.644C178.627 198.644 178.928 198.715 179.202 198.85C179.344 198.85 179.481 198.906 179.582 199.006C179.683 199.106 179.739 199.242 179.739 199.384C179.739 199.526 179.683 199.662 179.582 199.762C179.481 199.862 179.344 199.918 179.202 199.918V199.875ZM174.612 202.503L172.78 203.554C172.507 203.691 172.205 203.763 171.899 203.763C171.593 203.763 171.291 203.691 171.018 203.554C170.91 203.519 170.816 203.451 170.749 203.36C170.683 203.269 170.647 203.159 170.647 203.046C170.647 202.933 170.683 202.823 170.749 202.732C170.816 202.641 170.91 202.573 171.018 202.538L172.85 201.487C173.124 201.351 173.426 201.281 173.731 201.281C174.037 201.281 174.338 201.351 174.612 201.487C175.114 201.811 175.106 202.275 174.612 202.555V202.503ZM169.934 205.192L168.102 206.243C167.828 206.379 167.527 206.449 167.221 206.449C166.915 206.449 166.614 206.379 166.34 206.243C166.232 206.209 166.138 206.141 166.072 206.049C166.005 205.958 165.969 205.848 165.969 205.735C165.969 205.623 166.005 205.513 166.072 205.421C166.138 205.33 166.232 205.262 166.34 205.227L168.172 204.176C168.445 204.038 168.747 203.966 169.053 203.966C169.36 203.966 169.661 204.038 169.934 204.176C170.454 204.5 170.454 204.956 169.934 205.245V205.192ZM231.239 174.925L229.654 175.801C229.34 175.959 228.993 176.041 228.641 176.041C228.289 176.041 227.942 175.959 227.628 175.801L226.059 174.925C225.496 174.61 225.504 174.093 226.059 173.769L227.645 172.893C227.959 172.733 228.306 172.65 228.658 172.65C229.011 172.65 229.358 172.733 229.671 172.893L231.248 173.769C231.368 173.812 231.472 173.891 231.545 173.995C231.617 174.099 231.656 174.223 231.655 174.35C231.654 174.477 231.614 174.6 231.539 174.703C231.465 174.806 231.36 174.884 231.239 174.925ZM223.047 178.429L221.47 177.553C221.346 177.513 221.239 177.435 221.163 177.33C221.087 177.226 221.046 177.1 221.046 176.971C221.046 176.842 221.087 176.716 221.163 176.611C221.239 176.507 221.346 176.429 221.47 176.388L223.055 175.512C223.368 175.354 223.714 175.272 224.064 175.272C224.415 175.272 224.76 175.354 225.073 175.512L226.65 176.388C226.773 176.429 226.88 176.507 226.957 176.611C227.033 176.716 227.074 176.842 227.074 176.971C227.074 177.1 227.033 177.226 226.957 177.33C226.88 177.435 226.773 177.513 226.65 177.553L225.064 178.429C224.754 178.597 224.409 178.689 224.056 178.697C223.704 178.704 223.354 178.628 223.038 178.473L223.047 178.429ZM222.069 180.181L220.483 181.057C220.169 181.215 219.822 181.298 219.47 181.298C219.118 181.298 218.771 181.215 218.457 181.057L216.88 180.181C216.757 180.141 216.649 180.063 216.573 179.958C216.497 179.854 216.456 179.728 216.456 179.599C216.456 179.47 216.497 179.344 216.573 179.239C216.649 179.135 216.757 179.057 216.88 179.016L218.466 178.14C218.778 177.98 219.123 177.897 219.474 177.897C219.825 177.897 220.171 177.98 220.483 178.14L222.06 179.016C222.187 179.054 222.298 179.132 222.377 179.238C222.455 179.343 222.498 179.472 222.498 179.603C222.498 179.735 222.455 179.863 222.377 179.969C222.298 180.074 222.187 180.152 222.06 180.19L222.069 180.181ZM217.479 182.81L215.893 183.686C215.581 183.845 215.236 183.929 214.885 183.929C214.534 183.929 214.188 183.845 213.876 183.686L212.299 182.81C212.179 182.767 212.075 182.689 212.001 182.585C211.927 182.482 211.888 182.358 211.888 182.231C211.888 182.105 211.927 181.981 212.001 181.877C212.075 181.774 212.179 181.695 212.299 181.653L213.885 180.777C214.199 180.619 214.546 180.537 214.898 180.537C215.25 180.537 215.597 180.619 215.911 180.777L217.488 181.653C218.025 181.986 218.025 182.503 217.47 182.827L217.479 182.81ZM207.718 184.29L209.304 183.414C209.616 183.256 209.962 183.174 210.313 183.174C210.663 183.174 211.009 183.256 211.321 183.414L212.898 184.29C213.021 184.33 213.129 184.408 213.205 184.513C213.281 184.618 213.322 184.743 213.322 184.873C213.322 185.002 213.281 185.128 213.205 185.232C213.129 185.337 213.021 185.415 212.898 185.455L211.312 186.331C210.999 186.487 210.654 186.568 210.304 186.568C209.954 186.568 209.608 186.487 209.295 186.331L207.718 185.455C207.601 185.412 207.499 185.334 207.427 185.232C207.355 185.13 207.316 185.009 207.315 184.884C207.314 184.76 207.351 184.638 207.421 184.535C207.492 184.432 207.592 184.352 207.709 184.308L207.718 184.29ZM203.128 186.918L204.714 186.042C205.026 185.882 205.372 185.799 205.723 185.799C206.074 185.799 206.42 185.882 206.731 186.042L208.308 186.918C208.429 186.96 208.533 187.039 208.606 187.142C208.68 187.246 208.72 187.369 208.72 187.496C208.72 187.623 208.68 187.747 208.606 187.85C208.533 187.954 208.429 188.032 208.308 188.074L206.723 188.951C206.409 189.108 206.062 189.191 205.71 189.191C205.358 189.191 205.011 189.108 204.696 188.951L203.12 188.074C202.556 187.785 202.556 187.269 203.12 186.944L203.128 186.918ZM198.539 189.546L200.124 188.67C200.439 188.512 200.786 188.43 201.137 188.43C201.489 188.43 201.836 188.512 202.151 188.67L203.727 189.546C203.851 189.587 203.958 189.665 204.034 189.769C204.111 189.874 204.152 190 204.152 190.129C204.152 190.258 204.111 190.384 204.034 190.488C203.958 190.593 203.851 190.671 203.727 190.711L202.142 191.587C201.829 191.745 201.484 191.827 201.133 191.827C200.783 191.827 200.437 191.745 200.124 191.587L198.547 190.711C198.432 190.668 198.333 190.591 198.262 190.49C198.191 190.39 198.153 190.27 198.151 190.148C198.149 190.025 198.184 189.905 198.252 189.802C198.319 189.7 198.416 189.62 198.53 189.573L198.539 189.546ZM193.958 192.174L195.543 191.298C195.855 191.138 196.201 191.055 196.552 191.055C196.903 191.055 197.249 191.138 197.561 191.298L199.138 192.174C199.258 192.217 199.362 192.295 199.436 192.398C199.509 192.502 199.549 192.626 199.549 192.753C199.549 192.879 199.509 193.003 199.436 193.107C199.362 193.21 199.258 193.288 199.138 193.331L197.552 194.207C197.239 194.364 196.894 194.447 196.543 194.447C196.193 194.447 195.847 194.364 195.535 194.207L193.958 193.331C193.848 193.283 193.755 193.206 193.689 193.107C193.623 193.008 193.587 192.892 193.586 192.773C193.586 192.654 193.619 192.538 193.684 192.438C193.748 192.338 193.84 192.258 193.949 192.209L193.958 192.174ZM189.368 194.802L190.954 193.926C191.266 193.769 191.612 193.686 191.962 193.686C192.313 193.686 192.659 193.769 192.971 193.926L194.548 194.802C195.112 195.118 195.103 195.635 194.548 195.959L192.962 196.835C192.649 196.995 192.302 197.078 191.949 197.078C191.597 197.078 191.25 196.995 190.936 196.835L189.359 195.959C189.253 195.91 189.162 195.831 189.099 195.733C189.036 195.634 189.002 195.519 189.002 195.403C189.002 195.286 189.036 195.171 189.099 195.073C189.162 194.974 189.253 194.895 189.359 194.846L189.368 194.802ZM184.778 197.431L186.364 196.555C186.678 196.397 187.025 196.314 187.377 196.314C187.729 196.314 188.076 196.397 188.39 196.555L189.967 197.431C190.09 197.471 190.198 197.549 190.274 197.654C190.35 197.758 190.391 197.884 190.391 198.013C190.391 198.142 190.35 198.268 190.274 198.373C190.198 198.477 190.09 198.555 189.967 198.596L188.381 199.472C188.068 199.627 187.723 199.709 187.373 199.709C187.023 199.709 186.677 199.627 186.364 199.472L184.787 198.596C184.677 198.549 184.583 198.472 184.516 198.374C184.45 198.275 184.413 198.159 184.411 198.041C184.409 197.922 184.442 197.805 184.506 197.705C184.569 197.604 184.661 197.524 184.769 197.474L184.778 197.431ZM185.369 201.215L183.783 202.091C183.47 202.249 183.125 202.331 182.774 202.331C182.424 202.331 182.078 202.249 181.765 202.091L180.189 201.215C179.634 200.9 179.634 200.383 180.189 200.059L181.774 199.183C182.086 199.023 182.432 198.939 182.783 198.939C183.134 198.939 183.48 199.023 183.792 199.183L185.369 200.059C185.507 200.089 185.63 200.165 185.719 200.275C185.807 200.385 185.855 200.522 185.854 200.662C185.853 200.803 185.803 200.939 185.713 201.048C185.623 201.156 185.498 201.231 185.36 201.259L185.369 201.215ZM175.608 202.696L177.193 201.819C177.507 201.662 177.854 201.579 178.206 201.579C178.558 201.579 178.905 201.662 179.22 201.819L180.788 202.696C180.911 202.736 181.018 202.814 181.095 202.918C181.171 203.023 181.212 203.149 181.212 203.278C181.212 203.407 181.171 203.533 181.095 203.638C181.018 203.742 180.911 203.82 180.788 203.861L179.202 204.737C178.888 204.895 178.541 204.977 178.189 204.977C177.837 204.977 177.49 204.895 177.176 204.737L175.599 203.861C175.035 203.58 175.044 203.063 175.599 202.739L175.608 202.696ZM168.895 206.559L172.516 204.474C172.828 204.316 173.174 204.234 173.524 204.234C173.875 204.234 174.22 204.316 174.533 204.474L176.11 205.35C176.233 205.39 176.341 205.468 176.417 205.573C176.493 205.677 176.534 205.803 176.534 205.932C176.534 206.062 176.493 206.187 176.417 206.292C176.341 206.397 176.233 206.475 176.11 206.515L172.489 208.591C172.177 208.751 171.831 208.834 171.48 208.834C171.13 208.834 170.784 208.751 170.472 208.591L168.895 207.715C168.788 207.667 168.697 207.589 168.633 207.491C168.569 207.393 168.534 207.279 168.533 207.162C168.532 207.045 168.565 206.93 168.628 206.831C168.69 206.732 168.78 206.653 168.886 206.603L168.895 206.559ZM235.477 177.369L231.856 179.446C231.544 179.605 231.198 179.689 230.847 179.689C230.496 179.689 230.151 179.605 229.839 179.446L228.262 178.57C228.142 178.527 228.037 178.449 227.964 178.345C227.89 178.242 227.851 178.118 227.851 177.991C227.851 177.865 227.89 177.741 227.964 177.637C228.037 177.534 228.142 177.455 228.262 177.413L231.891 175.328C232.204 175.17 232.549 175.088 232.9 175.088C233.251 175.088 233.596 175.17 233.909 175.328L235.486 176.204C235.609 176.245 235.715 176.324 235.791 176.429C235.866 176.535 235.906 176.661 235.905 176.79C235.904 176.919 235.862 177.045 235.785 177.149C235.708 177.253 235.6 177.33 235.477 177.369ZM228.852 181.171L227.266 182.047C226.954 182.205 226.608 182.287 226.258 182.287C225.907 182.287 225.562 182.205 225.249 182.047L223.672 181.171C223.549 181.131 223.441 181.053 223.365 180.948C223.289 180.844 223.248 180.718 223.248 180.589C223.248 180.46 223.289 180.334 223.365 180.229C223.441 180.125 223.549 180.047 223.672 180.006L225.258 179.13C225.57 178.972 225.916 178.89 226.266 178.89C226.617 178.89 226.963 178.972 227.275 179.13L228.852 180.006C228.975 180.047 229.083 180.125 229.159 180.229C229.235 180.334 229.276 180.46 229.276 180.589C229.276 180.718 229.235 180.844 229.159 180.948C229.083 181.053 228.975 181.131 228.852 181.171ZM222.685 184.675C222.371 184.833 222.024 184.916 221.672 184.916C221.32 184.916 220.973 184.833 220.659 184.675L219.082 183.799C218.527 183.484 218.536 182.923 219.082 182.643L220.668 181.767C220.982 181.607 221.329 181.524 221.681 181.524C222.033 181.524 222.381 181.607 222.694 181.767L224.262 182.643C224.383 182.685 224.487 182.764 224.56 182.867C224.634 182.971 224.673 183.094 224.673 183.221C224.673 183.348 224.634 183.472 224.56 183.575C224.487 183.679 224.383 183.757 224.262 183.799L222.685 184.675ZM218.096 187.304C217.784 187.463 217.438 187.547 217.087 187.547C216.736 187.547 216.39 187.463 216.078 187.304L214.501 186.428C214.381 186.385 214.277 186.307 214.203 186.203C214.13 186.1 214.09 185.976 214.09 185.849C214.09 185.723 214.13 185.599 214.203 185.495C214.277 185.392 214.381 185.313 214.501 185.271L216.096 184.395C216.409 184.237 216.754 184.155 217.105 184.155C217.455 184.155 217.801 184.237 218.113 184.395L219.69 185.271C219.814 185.312 219.921 185.39 219.997 185.494C220.073 185.599 220.114 185.725 220.114 185.854C220.114 185.983 220.073 186.109 219.997 186.213C219.921 186.318 219.814 186.396 219.69 186.436L218.096 187.304ZM213.524 186.962L215.1 187.838C215.221 187.88 215.325 187.959 215.398 188.062C215.472 188.166 215.512 188.289 215.512 188.416C215.512 188.543 215.472 188.667 215.398 188.77C215.325 188.874 215.221 188.952 215.1 188.994L213.515 189.87C213.202 190.028 212.857 190.11 212.506 190.11C212.156 190.11 211.81 190.028 211.497 189.87L209.921 188.994C209.797 188.954 209.69 188.876 209.614 188.771C209.537 188.667 209.496 188.541 209.496 188.412C209.496 188.283 209.537 188.157 209.614 188.052C209.69 187.948 209.797 187.87 209.921 187.829L211.506 186.953C211.822 186.801 212.17 186.727 212.521 186.736C212.872 186.745 213.216 186.838 213.524 187.006V186.962ZM208.846 189.537L210.608 190.554C210.72 190.589 210.817 190.659 210.887 190.754C210.956 190.848 210.993 190.962 210.993 191.079C210.993 191.196 210.956 191.31 210.887 191.405C210.817 191.499 210.72 191.569 210.608 191.605L208.846 192.621C208.562 192.766 208.248 192.841 207.93 192.841C207.611 192.841 207.297 192.766 207.013 192.621L205.251 191.605C205.139 191.569 205.042 191.499 204.972 191.405C204.903 191.31 204.866 191.196 204.866 191.079C204.866 190.962 204.903 190.848 204.972 190.754C205.042 190.659 205.139 190.589 205.251 190.554L207.013 189.529C207.302 189.394 207.618 189.329 207.936 189.338C208.254 189.347 208.566 189.431 208.846 189.581V189.537ZM204.256 192.166L206.018 193.182C206.52 193.471 206.52 193.935 206.018 194.224L204.256 195.249C203.973 195.392 203.661 195.466 203.344 195.466C203.027 195.466 202.715 195.392 202.432 195.249L200.671 194.233C200.562 194.195 200.467 194.125 200.401 194.032C200.334 193.938 200.298 193.826 200.298 193.712C200.298 193.597 200.334 193.485 200.401 193.392C200.467 193.299 200.562 193.228 200.671 193.191L202.432 192.166C202.719 192.031 203.034 191.966 203.351 191.975C203.667 191.984 203.978 192.068 204.256 192.218V192.166ZM199.666 194.794L201.428 195.81C201.54 195.846 201.638 195.916 201.707 196.01C201.777 196.105 201.814 196.219 201.814 196.335C201.814 196.452 201.777 196.566 201.707 196.661C201.638 196.755 201.54 196.825 201.428 196.861L199.666 197.886C199.384 198.028 199.071 198.103 198.755 198.103C198.438 198.103 198.125 198.028 197.843 197.886L196.081 196.87C195.969 196.834 195.871 196.764 195.802 196.67C195.732 196.575 195.695 196.461 195.695 196.344C195.695 196.227 195.732 196.113 195.802 196.019C195.871 195.924 195.969 195.854 196.081 195.819L197.843 194.802C198.128 194.665 198.443 194.597 198.76 194.604C199.077 194.612 199.388 194.695 199.666 194.846V194.794ZM195.085 197.422L196.882 198.526C197.385 198.815 197.376 199.279 196.882 199.568L195.121 200.593C194.836 200.736 194.523 200.81 194.204 200.81C193.886 200.81 193.572 200.736 193.288 200.593L191.526 199.577C191.414 199.541 191.317 199.471 191.247 199.377C191.178 199.282 191.141 199.168 191.141 199.051C191.141 198.934 191.178 198.82 191.247 198.726C191.317 198.631 191.414 198.561 191.526 198.526L193.288 197.501C193.571 197.355 193.884 197.278 194.202 197.275C194.521 197.272 194.835 197.343 195.121 197.483L195.085 197.422ZM190.496 200.05L192.258 201.066C192.37 201.102 192.467 201.172 192.537 201.266C192.606 201.361 192.643 201.475 192.643 201.592C192.643 201.709 192.606 201.823 192.537 201.917C192.467 202.012 192.37 202.082 192.258 202.117L190.496 203.142C190.213 203.285 189.901 203.359 189.584 203.359C189.267 203.359 188.955 203.285 188.672 203.142L186.91 202.126C186.408 201.837 186.408 201.373 186.91 201.075L188.672 200.059C188.959 199.924 189.273 199.859 189.59 199.868C189.907 199.877 190.217 199.961 190.496 200.111V200.05ZM184.065 205.779L182.303 204.763C182.191 204.727 182.093 204.657 182.024 204.563C181.954 204.468 181.917 204.354 181.917 204.237C181.917 204.12 181.954 204.006 182.024 203.912C182.093 203.817 182.191 203.747 182.303 203.712L184.065 202.687C184.347 202.544 184.66 202.47 184.977 202.47C185.293 202.47 185.606 202.544 185.888 202.687L187.65 203.703C187.762 203.739 187.86 203.809 187.929 203.903C187.999 203.998 188.036 204.112 188.036 204.229C188.036 204.346 187.999 204.459 187.929 204.554C187.86 204.648 187.762 204.719 187.65 204.754L185.888 205.77C185.612 205.926 185.302 206.013 184.985 206.025C184.668 206.038 184.352 205.974 184.065 205.84V205.779ZM179.475 208.407L177.713 207.391C177.202 207.102 177.211 206.638 177.713 206.349L179.475 205.324C179.759 205.181 180.073 205.107 180.391 205.107C180.709 205.107 181.023 205.181 181.307 205.324L183.069 206.34C183.571 206.629 183.563 207.093 183.069 207.382L181.307 208.407C181.028 208.559 180.717 208.644 180.399 208.655C180.08 208.665 179.764 208.602 179.475 208.469V208.407ZM173.035 209.038L174.797 208.013C175.08 207.871 175.392 207.796 175.709 207.796C176.026 207.796 176.338 207.871 176.621 208.013L178.383 209.029C178.495 209.065 178.592 209.135 178.662 209.229C178.731 209.324 178.768 209.438 178.768 209.555C178.768 209.672 178.731 209.786 178.662 209.88C178.592 209.975 178.495 210.045 178.383 210.08L176.621 211.105C176.338 211.248 176.026 211.322 175.709 211.322C175.392 211.322 175.08 211.248 174.797 211.105L173.035 210.089C172.524 209.853 172.524 209.388 173.035 209.099V209.038ZM239.82 179.752L234.076 183.055C233.792 183.197 233.478 183.272 233.16 183.272C232.842 183.272 232.528 183.197 232.244 183.055L230.482 182.039C230.37 182.003 230.272 181.933 230.203 181.838C230.133 181.744 230.096 181.63 230.096 181.513C230.096 181.396 230.133 181.282 230.203 181.188C230.272 181.093 230.37 181.023 230.482 180.987L236.234 177.685C236.517 177.542 236.829 177.468 237.146 177.468C237.463 177.468 237.775 177.542 238.058 177.685L239.82 178.701C239.932 178.737 240.03 178.807 240.099 178.901C240.168 178.996 240.206 179.11 240.206 179.227C240.206 179.344 240.168 179.457 240.099 179.552C240.03 179.646 239.932 179.717 239.82 179.752ZM231.239 184.658L229.478 185.683C229.195 185.825 228.883 185.9 228.566 185.9C228.249 185.9 227.937 185.825 227.654 185.683L225.892 184.667C225.78 184.631 225.682 184.561 225.613 184.466C225.544 184.372 225.506 184.258 225.506 184.141C225.506 184.024 225.544 183.91 225.613 183.816C225.682 183.721 225.78 183.651 225.892 183.615L227.654 182.591C227.937 182.448 228.249 182.374 228.566 182.374C228.883 182.374 229.195 182.448 229.478 182.591L231.239 183.633C231.777 183.905 231.777 184.369 231.239 184.658ZM226.658 187.286L224.897 188.311C224.614 188.453 224.302 188.528 223.985 188.528C223.668 188.528 223.356 188.453 223.073 188.311L221.311 187.295C220.809 187.006 220.809 186.541 221.311 186.244L223.073 185.227C223.356 185.085 223.668 185.011 223.985 185.011C224.302 185.011 224.614 185.085 224.897 185.227L226.658 186.244C226.771 186.276 226.871 186.344 226.943 186.437C227.015 186.53 227.055 186.643 227.058 186.76C227.061 186.877 227.026 186.992 226.959 187.088C226.892 187.184 226.796 187.256 226.685 187.295L226.658 187.286ZM222.069 189.914L220.307 190.93C220.023 191.075 219.709 191.15 219.391 191.15C219.072 191.15 218.758 191.075 218.474 190.93L216.713 189.914C216.601 189.879 216.503 189.808 216.434 189.714C216.364 189.619 216.327 189.506 216.327 189.389C216.327 189.272 216.364 189.158 216.434 189.063C216.503 188.969 216.601 188.899 216.713 188.863L218.474 187.838C218.759 187.695 219.072 187.621 219.391 187.621C219.709 187.621 220.023 187.695 220.307 187.838L222.069 188.854C222.193 188.878 222.305 188.944 222.386 189.04C222.468 189.136 222.514 189.257 222.517 189.382C222.52 189.508 222.48 189.631 222.403 189.731C222.327 189.831 222.218 189.902 222.095 189.932L222.069 189.914ZM213.876 193.567L212.114 192.551C212.005 192.513 211.911 192.443 211.844 192.35C211.777 192.256 211.741 192.144 211.741 192.03C211.741 191.915 211.777 191.803 211.844 191.71C211.911 191.617 212.005 191.546 212.114 191.509L213.876 190.484C214.159 190.341 214.471 190.267 214.788 190.267C215.105 190.267 215.417 190.341 215.7 190.484L217.461 191.5C217.964 191.789 217.964 192.253 217.461 192.542L215.7 193.567C215.422 193.708 215.115 193.783 214.803 193.786C214.491 193.789 214.183 193.72 213.902 193.585L213.876 193.567ZM209.286 196.195L207.524 195.179C207.412 195.143 207.315 195.073 207.245 194.979C207.176 194.884 207.139 194.77 207.139 194.654C207.139 194.537 207.176 194.423 207.245 194.328C207.315 194.234 207.412 194.164 207.524 194.128L209.286 193.112C209.568 192.967 209.881 192.892 210.198 192.892C210.515 192.892 210.828 192.967 211.11 193.112L212.872 194.128C212.984 194.164 213.081 194.234 213.151 194.328C213.22 194.423 213.257 194.537 213.257 194.654C213.257 194.77 213.22 194.884 213.151 194.979C213.081 195.073 212.984 195.143 212.872 195.179L211.11 196.204C210.832 196.345 210.525 196.42 210.213 196.423C209.901 196.426 209.593 196.357 209.313 196.222L209.286 196.195ZM204.696 198.823L202.935 197.807C202.823 197.772 202.725 197.701 202.656 197.607C202.586 197.513 202.549 197.399 202.549 197.282C202.549 197.165 202.586 197.051 202.656 196.956C202.725 196.862 202.823 196.792 202.935 196.756L204.696 195.731C204.981 195.589 205.294 195.514 205.613 195.514C205.931 195.514 206.245 195.589 206.529 195.731L208.335 196.774C208.837 197.063 208.828 197.527 208.335 197.816L206.573 198.841C206.288 198.989 205.972 199.068 205.65 199.071C205.328 199.074 205.011 199.001 204.723 198.858L204.696 198.823ZM200.116 201.452L198.354 200.435C197.852 200.146 197.852 199.682 198.354 199.384L200.116 198.368C200.398 198.226 200.711 198.151 201.027 198.151C201.344 198.151 201.657 198.226 201.939 198.368L203.701 199.384C203.813 199.42 203.911 199.49 203.98 199.584C204.049 199.679 204.087 199.793 204.087 199.91C204.087 200.027 204.049 200.141 203.98 200.235C203.911 200.33 203.813 200.4 203.701 200.435L201.939 201.46C201.662 201.603 201.355 201.679 201.044 201.683C200.732 201.688 200.423 201.621 200.142 201.487L200.116 201.452ZM195.526 204.08L193.764 203.063C193.652 203.028 193.554 202.958 193.485 202.863C193.416 202.769 193.378 202.655 193.378 202.538C193.378 202.421 193.416 202.307 193.485 202.212C193.554 202.118 193.652 202.048 193.764 202.012L195.526 200.987C195.808 200.845 196.121 200.771 196.438 200.771C196.754 200.771 197.067 200.845 197.349 200.987L199.111 202.003C199.223 202.039 199.321 202.109 199.39 202.204C199.46 202.298 199.497 202.412 199.497 202.529C199.497 202.646 199.46 202.76 199.39 202.854C199.321 202.949 199.223 203.019 199.111 203.055L197.349 204.071C197.075 204.219 196.769 204.301 196.457 204.31C196.145 204.32 195.835 204.255 195.552 204.123L195.526 204.08ZM190.936 206.708L189.174 205.692C188.663 205.402 188.672 204.938 189.174 204.649L190.936 203.624C191.22 203.482 191.534 203.407 191.852 203.407C192.171 203.407 192.484 203.482 192.768 203.624L194.53 204.64C195.033 204.929 195.024 205.394 194.53 205.683L192.768 206.708C192.491 206.853 192.184 206.932 191.871 206.94C191.557 206.947 191.247 206.883 190.963 206.752L190.936 206.708ZM189.958 208.32L188.196 209.345C187.914 209.487 187.601 209.561 187.285 209.561C186.968 209.561 186.655 209.487 186.373 209.345L184.611 208.328C184.499 208.293 184.401 208.223 184.332 208.128C184.263 208.034 184.225 207.92 184.225 207.803C184.225 207.686 184.263 207.572 184.332 207.477C184.401 207.383 184.499 207.313 184.611 207.277L186.373 206.261C186.655 206.117 186.967 206.041 187.285 206.041C187.602 206.041 187.914 206.117 188.196 206.261L189.958 207.277C190.087 207.297 190.205 207.361 190.291 207.458C190.377 207.556 190.426 207.68 190.429 207.809C190.432 207.939 190.389 208.065 190.308 208.167C190.227 208.268 190.112 208.338 189.985 208.363L189.958 208.32ZM177.255 211.491L181.783 208.863C182.066 208.72 182.378 208.646 182.695 208.646C183.012 208.646 183.324 208.72 183.607 208.863L185.43 209.914C185.539 209.952 185.633 210.022 185.7 210.116C185.767 210.209 185.803 210.321 185.803 210.435C185.803 210.55 185.767 210.662 185.7 210.755C185.633 210.848 185.539 210.919 185.43 210.957L180.902 213.585C180.618 213.727 180.304 213.801 179.986 213.801C179.668 213.801 179.354 213.727 179.07 213.585L177.308 212.568C177.201 212.532 177.108 212.463 177.041 212.373C176.974 212.282 176.937 212.173 176.934 212.061C176.931 211.948 176.963 211.838 177.025 211.744C177.087 211.65 177.177 211.577 177.281 211.535L177.255 211.491ZM244.057 182.319L235.891 186.997C235.572 187.159 235.218 187.244 234.86 187.244C234.502 187.244 234.148 187.159 233.829 186.997L232.297 186.121C232.171 186.08 232.062 186.001 231.984 185.895C231.907 185.789 231.865 185.661 231.865 185.53C231.865 185.398 231.907 185.271 231.984 185.164C232.062 185.058 232.171 184.979 232.297 184.938L240.454 180.252C240.774 180.092 241.127 180.009 241.485 180.009C241.843 180.009 242.196 180.092 242.516 180.252L244.048 181.128C244.173 181.17 244.281 181.249 244.359 181.356C244.436 181.462 244.478 181.589 244.479 181.72C244.48 181.851 244.44 181.979 244.364 182.086C244.288 182.194 244.181 182.275 244.057 182.319ZM232.852 188.749L231.31 189.625C230.991 189.787 230.638 189.872 230.279 189.872C229.921 189.872 229.568 189.787 229.248 189.625L227.707 188.749C227.581 188.708 227.472 188.629 227.395 188.523C227.317 188.417 227.275 188.289 227.275 188.158C227.275 188.026 227.317 187.899 227.395 187.792C227.472 187.686 227.581 187.607 227.707 187.566L229.248 186.69C229.57 186.531 229.924 186.448 230.284 186.448C230.643 186.448 230.997 186.531 231.319 186.69L232.852 187.566C233.424 187.891 233.424 188.416 232.852 188.749ZM228.262 191.377L226.72 192.253C226.4 192.413 226.047 192.496 225.689 192.496C225.332 192.496 224.979 192.413 224.659 192.253L223.126 191.377C222.553 191.053 222.562 190.501 223.126 190.194L224.668 189.318C224.987 189.156 225.34 189.072 225.698 189.072C226.057 189.072 226.41 189.156 226.729 189.318L228.262 190.194C228.843 190.519 228.834 191.053 228.262 191.377ZM223.681 194.005L222.139 194.881C221.818 195.043 221.464 195.127 221.104 195.127C220.744 195.127 220.39 195.043 220.069 194.881L218.536 194.005C218.411 193.965 218.301 193.885 218.224 193.779C218.146 193.673 218.105 193.545 218.105 193.414C218.105 193.283 218.146 193.155 218.224 193.049C218.301 192.942 218.411 192.863 218.536 192.823L220.078 191.947C220.397 191.784 220.75 191.7 221.109 191.7C221.467 191.7 221.82 191.784 222.139 191.947L223.672 192.823C224.253 193.155 224.253 193.681 223.681 194.014V194.005ZM219.091 196.633L217.549 197.509C217.23 197.669 216.877 197.752 216.519 197.752C216.161 197.752 215.808 197.669 215.488 197.509L213.955 196.633C213.831 196.59 213.723 196.51 213.647 196.403C213.57 196.296 213.529 196.169 213.529 196.038C213.529 195.907 213.57 195.779 213.647 195.672C213.723 195.565 213.831 195.485 213.955 195.442L215.497 194.566C215.818 194.406 216.173 194.323 216.532 194.323C216.891 194.323 217.246 194.406 217.567 194.566L219.1 195.442C219.231 195.482 219.345 195.562 219.426 195.672C219.507 195.781 219.55 195.914 219.549 196.05C219.548 196.186 219.503 196.317 219.42 196.426C219.338 196.534 219.222 196.613 219.091 196.651V196.633ZM214.501 199.261L212.96 200.137C212.641 200.3 212.287 200.384 211.929 200.384C211.571 200.384 211.217 200.3 210.898 200.137L209.366 199.261C208.793 198.937 208.802 198.385 209.366 198.079L210.907 197.203C211.226 197.041 211.579 196.956 211.938 196.956C212.296 196.956 212.649 197.041 212.969 197.203L214.501 198.079C215.083 198.42 215.074 198.955 214.501 199.279V199.261ZM209.921 201.89L208.379 202.766C208.058 202.927 207.703 203.011 207.344 203.011C206.984 203.011 206.629 202.927 206.309 202.766L204.776 201.89C204.65 201.849 204.541 201.77 204.464 201.664C204.386 201.557 204.344 201.429 204.344 201.298C204.344 201.167 204.386 201.039 204.464 200.933C204.541 200.827 204.65 200.748 204.776 200.707L206.317 199.831C206.637 199.671 206.99 199.588 207.348 199.588C207.706 199.588 208.059 199.671 208.379 199.831L209.921 200.707C210.493 201.057 210.493 201.583 209.921 201.916V201.89ZM205.331 204.518L203.789 205.394C203.469 205.553 203.116 205.636 202.758 205.636C202.401 205.636 202.048 205.553 201.728 205.394L200.195 204.518C199.622 204.194 199.622 203.642 200.195 203.335L201.745 202.459C202.064 202.297 202.418 202.212 202.776 202.212C203.134 202.212 203.488 202.297 203.807 202.459L205.34 203.335C205.476 203.369 205.596 203.447 205.682 203.557C205.768 203.668 205.814 203.803 205.813 203.943C205.812 204.082 205.764 204.217 205.677 204.326C205.589 204.435 205.467 204.512 205.331 204.544V204.518ZM200.741 207.146L199.199 208.022C198.88 208.184 198.527 208.269 198.169 208.269C197.81 208.269 197.457 208.184 197.138 208.022L195.605 207.146C195.033 206.822 195.041 206.27 195.605 205.963L197.147 205.087C197.466 204.925 197.819 204.84 198.177 204.84C198.536 204.84 198.889 204.925 199.208 205.087L200.741 205.963C201.287 206.322 201.287 206.848 200.741 207.181V207.146ZM196.16 209.774L194.618 210.65C194.297 210.81 193.943 210.893 193.583 210.893C193.224 210.893 192.87 210.81 192.548 210.65L191.015 209.774C190.891 209.731 190.783 209.65 190.707 209.544C190.631 209.437 190.59 209.309 190.59 209.178C190.59 209.047 190.631 208.919 190.707 208.813C190.783 208.706 190.891 208.626 191.015 208.582L192.557 207.706C192.877 207.547 193.23 207.464 193.588 207.464C193.946 207.464 194.299 207.547 194.618 207.706L196.16 208.582C196.303 208.612 196.431 208.689 196.523 208.802C196.615 208.914 196.666 209.055 196.666 209.2C196.666 209.345 196.615 209.486 196.523 209.598C196.431 209.711 196.303 209.788 196.16 209.818V209.774ZM191.57 212.402L190.029 213.278C189.71 213.44 189.356 213.525 188.998 213.525C188.64 213.525 188.286 213.44 187.967 213.278L186.434 212.402C186.309 212.361 186.2 212.282 186.122 212.176C186.045 212.07 186.003 211.942 186.003 211.811C186.003 211.679 186.045 211.552 186.122 211.445C186.2 211.339 186.309 211.26 186.434 211.219L187.985 210.343C188.304 210.181 188.657 210.096 189.016 210.096C189.374 210.096 189.727 210.181 190.046 210.343L191.579 211.219C191.725 211.242 191.859 211.315 191.956 211.426C192.053 211.537 192.107 211.678 192.109 211.825C192.111 211.972 192.061 212.115 191.967 212.229C191.873 212.342 191.742 212.419 191.597 212.446L191.57 212.402ZM181.748 213.918L183.289 213.041C183.61 212.88 183.965 212.796 184.325 212.796C184.684 212.796 185.039 212.88 185.36 213.041L186.893 213.918C187.018 213.958 187.127 214.037 187.205 214.144C187.282 214.25 187.324 214.378 187.324 214.509C187.324 214.64 187.282 214.768 187.205 214.874C187.127 214.98 187.018 215.059 186.893 215.1L185.351 215.976C185.031 216.136 184.678 216.219 184.32 216.219C183.962 216.219 183.609 216.136 183.289 215.976L181.748 215.1C181.175 214.82 181.175 214.294 181.748 213.961V213.918ZM241.132 184.746L244.709 182.696C245.03 182.534 245.385 182.45 245.744 182.45C246.104 182.45 246.458 182.534 246.779 182.696L248.312 183.572C248.438 183.612 248.547 183.691 248.624 183.798C248.702 183.904 248.744 184.032 248.744 184.163C248.744 184.294 248.702 184.422 248.624 184.528C248.547 184.635 248.438 184.714 248.312 184.754L244.735 186.813C244.414 186.973 244.06 187.056 243.7 187.056C243.341 187.056 242.987 186.973 242.665 186.813L241.132 185.937C240.56 185.604 240.56 185.078 241.132 184.746ZM236.543 187.374L238.093 186.498C238.412 186.335 238.765 186.251 239.124 186.251C239.482 186.251 239.835 186.335 240.155 186.498L241.687 187.374C241.813 187.414 241.922 187.493 242 187.6C242.077 187.706 242.119 187.834 242.119 187.965C242.119 188.096 242.077 188.224 242 188.33C241.922 188.437 241.813 188.516 241.687 188.556L240.146 189.432C239.827 189.595 239.473 189.679 239.115 189.679C238.757 189.679 238.403 189.595 238.084 189.432L236.552 188.556C236.428 188.516 236.32 188.439 236.243 188.336C236.166 188.232 236.122 188.108 236.119 187.979C236.117 187.85 236.154 187.723 236.227 187.616C236.299 187.509 236.404 187.428 236.525 187.382L236.543 187.374ZM231.962 190.002L233.503 189.126C233.823 188.966 234.176 188.883 234.534 188.883C234.892 188.883 235.245 188.966 235.565 189.126L237.098 190.002C237.222 190.045 237.33 190.125 237.406 190.232C237.483 190.339 237.524 190.467 237.524 190.597C237.524 190.728 237.483 190.856 237.406 190.963C237.33 191.07 237.222 191.15 237.098 191.193L235.547 192.069C235.227 192.229 234.874 192.312 234.517 192.312C234.159 192.312 233.806 192.229 233.486 192.069L231.953 191.193C231.832 191.147 231.728 191.066 231.655 190.96C231.582 190.854 231.543 190.728 231.544 190.599C231.545 190.47 231.585 190.345 231.66 190.239C231.735 190.134 231.84 190.054 231.962 190.011V190.002ZM199.851 208.398L228.923 191.754C229.242 191.592 229.595 191.507 229.953 191.507C230.312 191.507 230.665 191.592 230.984 191.754L232.526 192.63C232.651 192.671 232.76 192.75 232.838 192.856C232.915 192.962 232.957 193.09 232.957 193.221C232.957 193.352 232.915 193.48 232.838 193.587C232.76 193.693 232.651 193.772 232.526 193.813L203.454 210.501C203.135 210.663 202.782 210.748 202.424 210.748C202.065 210.748 201.712 210.663 201.393 210.501L199.851 209.625C199.729 209.582 199.623 209.503 199.548 209.398C199.473 209.293 199.433 209.167 199.433 209.038C199.433 208.909 199.473 208.783 199.548 208.678C199.623 208.573 199.729 208.494 199.851 208.451V208.398ZM195.27 211.027L196.812 210.151C197.131 209.988 197.484 209.904 197.843 209.904C198.201 209.904 198.554 209.988 198.873 210.151L200.406 211.027C200.979 211.351 200.97 211.903 200.406 212.209L198.865 213.085C198.545 213.245 198.192 213.328 197.834 213.328C197.476 213.328 197.123 213.245 196.803 213.085L195.27 212.209C194.689 211.938 194.698 211.412 195.27 211.079V211.027ZM190.681 213.655L192.222 212.779C192.541 212.616 192.895 212.532 193.253 212.532C193.611 212.532 193.965 212.616 194.284 212.779L195.817 213.655C195.942 213.695 196.051 213.775 196.129 213.881C196.206 213.987 196.248 214.115 196.248 214.246C196.248 214.377 196.206 214.505 196.129 214.611C196.051 214.718 195.942 214.797 195.817 214.837L194.266 215.713C193.947 215.876 193.594 215.96 193.235 215.96C192.877 215.96 192.524 215.876 192.205 215.713L190.672 214.837C190.567 214.783 190.481 214.7 190.422 214.598C190.363 214.496 190.334 214.38 190.339 214.263C190.343 214.146 190.381 214.032 190.448 213.935C190.515 213.839 190.608 213.762 190.716 213.716L190.681 213.655ZM185.994 216.344L187.544 215.468C187.864 215.309 188.217 215.225 188.575 215.225C188.933 215.225 189.286 215.309 189.606 215.468L191.139 216.344C191.703 216.668 191.703 217.22 191.139 217.527L189.597 218.403C189.278 218.565 188.925 218.65 188.566 218.65C188.208 218.65 187.855 218.565 187.536 218.403L186.003 217.527C185.896 217.477 185.806 217.398 185.742 217.299C185.679 217.201 185.645 217.086 185.644 216.969C185.643 216.852 185.675 216.737 185.737 216.637C185.799 216.537 185.888 216.457 185.994 216.405V216.344Z" fill="#999999"/>
<path d="M160.94 203.913L221.726 169.012C224.051 167.663 225.954 164.036 225.954 160.917V113.55C225.954 110.432 224.051 109.004 221.699 110.353L160.914 145.254C158.562 146.603 156.65 150.23 156.65 153.349V200.716C156.676 203.834 158.588 205.262 160.94 203.913Z" fill="#333333"/>
<path d="M160.385 201.478L220.501 166.988C221.469 166.308 222.255 165.402 222.79 164.35C223.324 163.298 223.591 162.131 223.567 160.953V113.288C223.56 113.159 223.52 113.034 223.451 112.924C223.382 112.815 223.286 112.726 223.172 112.664C223.057 112.603 222.929 112.571 222.8 112.573C222.67 112.575 222.543 112.61 222.43 112.674L222.298 112.753L162.138 147.278C159.883 148.574 159.073 150.869 159.073 153.314V200.83C159.073 200.971 159.111 201.11 159.182 201.233C159.253 201.355 159.355 201.457 159.477 201.529C159.6 201.601 159.739 201.639 159.882 201.641C160.024 201.643 160.164 201.608 160.288 201.539L160.385 201.478Z" fill="#2284F7"/>
<path d="M162.138 147.278L222.298 112.718L222.43 112.674C222.545 112.608 222.675 112.574 222.808 112.573C222.941 112.573 223.071 112.608 223.186 112.673C223.301 112.739 223.397 112.834 223.463 112.947C223.53 113.061 223.566 113.191 223.567 113.323V160.918C223.597 162.102 223.333 163.276 222.798 164.335C222.263 165.394 221.474 166.305 220.501 166.989L160.385 201.513L160.288 201.574C160.164 201.643 160.023 201.678 159.881 201.676C159.739 201.674 159.6 201.636 159.477 201.564C159.354 201.492 159.253 201.39 159.182 201.268C159.111 201.145 159.073 201.006 159.072 200.865V153.314C159.072 150.87 159.883 148.592 162.138 147.278ZM159.548 200.83C159.548 200.918 159.583 201.003 159.646 201.065C159.709 201.128 159.794 201.163 159.883 201.163C159.942 201.166 160.001 201.151 160.05 201.119L220.263 166.542C221.158 165.904 221.883 165.058 222.374 164.078C222.866 163.097 223.109 162.013 223.082 160.918V113.288C223.082 113.216 223.053 113.147 223.002 113.096C222.951 113.045 222.881 113.016 222.809 113.016C222.763 113.003 222.714 113.003 222.668 113.016L162.376 147.716C160.042 149.056 159.548 151.518 159.548 153.34V200.83Z" fill="#2284F7"/>
<path d="M159.733 144.58L220.492 109.678C220.853 109.433 221.265 109.274 221.697 109.211C222.129 109.149 222.57 109.186 222.985 109.319C223.073 109.319 224.263 109.976 224.342 110.02C223.912 109.845 223.445 109.78 222.983 109.83C222.522 109.881 222.08 110.046 221.699 110.309L160.914 145.21C158.561 146.559 156.65 150.186 156.65 153.305V200.716C156.65 202.661 157.399 203.948 158.526 204.316C158.393 204.307 158.265 204.262 158.156 204.185L156.756 203.397C155.945 202.836 155.443 201.644 155.443 200.076V152.674C155.478 149.555 157.381 145.964 159.733 144.58Z" fill="#666666"/>
<path d="M159.733 144.58L220.492 109.678C220.853 109.433 221.265 109.274 221.697 109.211C222.129 109.149 222.57 109.186 222.985 109.319C223.073 109.319 224.263 109.976 224.342 110.02C223.912 109.845 223.445 109.78 222.983 109.83C222.522 109.881 222.08 110.046 221.699 110.309L160.914 145.21L159.733 144.58Z" fill="#666666"/>
<path d="M160.764 145.088L221.549 110.178C221.916 109.939 222.334 109.789 222.77 109.739C223.206 109.688 223.647 109.74 224.06 109.889C223.34 109.808 222.614 109.978 222.007 110.37L161.222 145.272C158.87 146.621 156.958 150.247 156.958 153.366V200.76C156.958 202.599 157.627 203.852 158.649 204.264C157.337 204.053 156.447 202.713 156.447 200.584V153.208C156.473 150.09 158.385 146.472 160.764 145.088Z" fill="#666666"/>
<path fill-rule="evenodd" clip-rule="evenodd" d="M194.862 135.716V139.272C186.709 142.739 180.104 152.659 180.104 161.44C180.104 163.506 180.473 165.336 181.156 166.854C181.654 167.973 185.151 167.682 185.361 166.9C185.779 166.272 185.159 165.075 184.785 164.353C184.713 164.214 184.65 164.093 184.605 163.996C184.07 162.853 183.794 161.441 183.794 159.871C183.794 153.296 188.756 145.842 194.862 143.245V146.801C194.862 147.695 197.131 147.642 197.698 147.291L201.596 139.11C201.965 138.556 201.965 137.94 201.596 137.7L198.306 134.306C197.734 133.914 194.862 134.822 194.862 135.716ZM205.931 150.458C205.931 157.034 200.969 164.488 194.863 167.084L196.754 163.202C196.754 162.308 194.068 162.223 193.294 163.48L188.148 171.211C187.779 171.765 187.779 172.381 188.148 172.622L194.907 176.891C195.479 177.283 198.558 173.815 194.863 174.614V171.058C203.016 167.59 209.621 157.67 209.621 148.889C209.621 148.019 209.871 147.143 210.109 146.307C210.438 145.157 210.744 144.082 210.349 143.204C209.851 142.084 206.485 142.673 205.544 144.087C205.046 144.835 204.843 145.736 205.119 146.333C205.654 147.476 205.931 148.889 205.931 150.458Z" fill="#D08002"/>
<path fill-rule="evenodd" clip-rule="evenodd" d="M196.878 135.666V139.222C188.725 142.691 182.121 152.612 182.121 161.393C182.121 163.459 182.49 165.289 183.172 166.806C183.67 167.926 185.257 167.608 186.197 166.195C186.695 165.447 186.898 164.546 186.622 163.948C186.087 162.805 185.81 161.393 185.81 159.824C185.81 153.248 190.772 145.793 196.878 143.196V146.752C196.878 147.646 197.874 147.659 198.464 146.792L203.611 139.06C203.98 138.506 203.98 137.89 203.611 137.649L198.446 134.304C197.874 133.911 196.878 134.772 196.878 135.666ZM207.946 150.407C207.946 156.983 202.984 164.438 196.878 167.035V163.479C196.878 162.585 195.882 162.572 195.31 163.431L190.163 171.163C189.794 171.717 189.794 172.333 190.163 172.573L195.31 175.927C195.882 176.319 196.878 175.458 196.878 174.564V171.008C205.031 167.54 211.635 157.618 211.635 148.838C211.635 146.771 211.266 144.942 210.584 143.424C210.086 142.305 208.499 142.622 207.559 144.036C207.06 144.784 206.858 145.685 207.134 146.282C207.669 147.426 207.946 148.838 207.946 150.407Z" fill="#FFD600"/>
</g>
<defs>
<linearGradient id="paint0_linear_1408_20343" x1="118.08" y1="178.889" x2="103.534" y2="163.777" gradientUnits="userSpaceOnUse">
<stop stop-color="white" stop-opacity="0"/>
<stop offset="0.09" stop-color="#FCFCFC" stop-opacity="0.12"/>
<stop offset="0.34" stop-color="#F4F4F4" stop-opacity="0.43"/>
<stop offset="0.56" stop-color="#EDEDED" stop-opacity="0.67"/>
<stop offset="0.76" stop-color="#E9E9E9" stop-opacity="0.85"/>
<stop offset="0.91" stop-color="#E6E6E6" stop-opacity="0.96"/>
<stop offset="1" stop-color="#E5E5E5"/>
</linearGradient>
<clipPath id="clip0_1408_20343">
<rect width="115.413" height="129.303" fill="white" transform="matrix(-1 0 0 1 270.882 109.17)"/>
</clipPath>
</defs>
</svg>
