<svg width="174" height="253" viewBox="0 0 174 253" fill="none" xmlns="http://www.w3.org/2000/svg">
<path opacity="0.1" d="M152.161 176.189C154.963 178.099 154.805 182.281 151.866 183.973L47.924 243.798C46.4462 244.649 44.619 244.612 43.1771 243.702L6.44848 220.52C3.52088 218.672 3.60901 214.374 6.60989 212.647L112.047 151.995C113.575 151.116 115.471 151.188 116.928 152.181L152.161 176.189Z" fill="#333333"/>
<path d="M132.632 1.15047L36.0868 56.8908C34.9874 57.5255 34.0962 59.0691 34.0962 60.3386V177.949C34.0962 179.218 34.9874 179.733 36.0868 179.098L132.632 123.358C133.731 122.723 134.622 121.179 134.622 119.91V2.29976C134.622 1.0303 133.731 0.515743 132.632 1.15047Z" fill="#2284F7" stroke="#E6E6E6" stroke-width="0.766189"/>
<path fill-rule="evenodd" clip-rule="evenodd" d="M39.4043 75.2793L129.646 23.1784V116.27L39.4043 168.371V75.2793Z" fill="#03BCFC"/>
<path d="M45.0664 88.4834L124.691 42.512" stroke="#71D9FD" stroke-width="0.766189" stroke-linecap="square"/>
<path d="M45.0664 143.266L124.691 97.2946" stroke="#71D9FD" stroke-width="0.766189" stroke-linecap="square"/>
<path d="M54.4426 53.8017L55.1659 53.3841L57.1897 57.6403L56.2342 58.1919L55.7962 57.2036L53.7592 58.3797L53.3345 59.8661L52.3989 60.4062L54.4426 53.8017ZM55.5043 56.5446L54.781 54.7556L54.0445 57.3874L55.5043 56.5446ZM60.1049 55.4055L60.0917 55.4132C59.9853 55.6903 59.8228 55.9557 59.6272 56.1717C59.4324 56.386 59.2224 56.5586 58.9968 56.6889C58.749 56.8319 58.529 56.9091 58.3366 56.9206C58.149 56.9333 57.9807 56.8909 57.8423 56.7961C57.7031 56.6989 57.597 56.5516 57.5304 56.3632C57.4583 56.1607 57.4224 55.925 57.4242 55.666C57.4242 55.3952 57.4617 55.1207 57.537 54.8423C57.6074 54.5761 57.7144 54.3063 57.8522 54.0474C57.9869 53.7957 58.1495 53.5655 58.3399 53.3559C58.53 53.1466 58.7381 52.9767 58.9637 52.8464C59.1139 52.7597 59.2467 52.7007 59.3618 52.6702C59.4766 52.6396 59.5784 52.6267 59.667 52.6319C59.7553 52.6369 59.8306 52.6535 59.8926 52.6817C59.9543 52.7097 60.0054 52.743 60.0452 52.7813L60.0651 52.7698V50.1877L60.8614 49.728V55.5204L60.1049 55.9572V55.4055ZM58.2205 55.2063C58.2205 55.3492 58.2414 55.475 58.2835 55.5836C58.3253 55.6921 58.3874 55.7738 58.4693 55.8288C58.5509 55.8836 58.6495 55.9087 58.7646 55.9035C58.8794 55.8985 59.0101 55.8537 59.1561 55.7694C59.3021 55.6852 59.4324 55.5792 59.5476 55.4515C59.6591 55.3287 59.7594 55.1874 59.8428 55.0358C59.9246 54.8867 59.9877 54.7304 60.0286 54.5761C60.0704 54.419 60.0917 54.2689 60.0917 54.126C60.0917 53.9827 60.0704 53.857 60.0286 53.7486C59.9877 53.6416 59.9246 53.5582 59.8428 53.5034C59.7594 53.4481 59.6591 53.4227 59.5476 53.4287C59.4324 53.4339 59.3021 53.4785 59.1561 53.5628C59.0101 53.6471 58.8794 53.7532 58.7646 53.8808C58.6531 54.0035 58.5527 54.1448 58.4693 54.2964C58.3876 54.4456 58.3244 54.6019 58.2835 54.7562C58.2414 54.913 58.2205 55.063 58.2205 55.2063ZM61.8388 49.5315L63.272 48.704C63.4668 48.5916 63.6569 48.5048 63.8427 48.4435C64.0285 48.3822 64.1943 48.3615 64.3403 48.3822C64.4863 48.4025 64.6047 48.4709 64.6953 48.5872C64.7862 48.7033 64.8313 48.8864 64.8313 49.1369C64.8313 49.4534 64.7573 49.7581 64.609 50.0506C64.4611 50.3429 64.2607 50.6053 64.0085 50.8379V50.8532C64.298 50.7139 64.5685 50.7078 64.7683 50.8359C64.8635 50.8982 64.9375 50.9922 64.9906 51.1175C65.0437 51.2424 65.0702 51.3945 65.0702 51.5734C65.0702 51.8745 65.0161 52.1536 64.9076 52.4105C64.801 52.6643 64.6552 52.9076 64.483 53.1192C64.3085 53.3349 64.1114 53.5291 63.8924 53.7015C63.6735 53.8739 63.4558 54.0225 63.2388 54.1478L61.8388 54.9561V49.5315ZM62.3961 51.5083L63.1658 51.0639C63.2986 50.9873 63.4279 50.9022 63.554 50.8091C63.6801 50.7157 63.7942 50.6076 63.8957 50.4854C63.9976 50.3626 64.0795 50.2261 64.1413 50.0755C64.2033 49.9248 64.2341 49.7549 64.2341 49.566C64.2341 49.3974 64.2056 49.2771 64.1479 49.2059C64.091 49.1347 64.0123 49.0945 63.919 49.089C63.8178 49.0838 63.7078 49.1045 63.5938 49.1503C63.4721 49.1976 63.3489 49.2572 63.2256 49.3285L62.3961 49.8073V51.5083ZM62.3961 54.0367L63.3384 53.4927C63.4757 53.4134 63.6117 53.318 63.7464 53.2073C63.8749 53.1028 63.9981 52.9773 64.1114 52.8357C64.2176 52.7028 64.3074 52.5511 64.3735 52.3932C64.4398 52.2346 64.473 52.0687 64.473 51.8952C64.473 51.706 64.4412 51.5661 64.3768 51.4757C64.3155 51.3869 64.229 51.3316 64.1247 51.3148C64.0208 51.2981 63.9014 51.3135 63.7664 51.3608C63.6297 51.4088 63.4908 51.4736 63.3516 51.5542L62.3961 52.1059V54.0367ZM65.9152 46.8102L66.4328 46.5114V52.3038L65.9152 52.6026V46.8102ZM67.2247 50.0537C67.2247 49.7725 67.2669 49.493 67.3508 49.2147C67.4347 48.9364 67.5499 48.6718 67.6958 48.4217C67.8418 48.1711 68.0167 47.9415 68.22 47.7321C68.4234 47.5228 68.6447 47.349 68.8836 47.2111C69.1224 47.0732 69.3437 46.9914 69.5471 46.9659C69.7505 46.9404 69.9253 46.9682 70.0713 47.0502C70.2173 47.1318 70.3324 47.2634 70.4163 47.4448C70.5003 47.6262 70.5424 47.857 70.5424 48.1382C70.5424 48.419 70.5003 48.6988 70.4163 48.9772C70.3324 49.2555 70.2173 49.5196 70.0713 49.7702C69.9253 50.0203 69.7505 50.2504 69.5471 50.4597C69.3437 50.6691 69.1224 50.8428 68.8836 50.9808C68.6447 51.1187 68.4234 51.2005 68.22 51.2259C68.0242 51.2527 67.8458 51.224 67.6958 51.1417C67.5478 51.0576 67.4305 50.9235 67.3508 50.7471C67.2669 50.5657 67.2247 50.3345 67.2247 50.0537ZM67.7821 49.7319C67.7821 49.9207 67.8076 50.0811 67.8584 50.2126C67.9092 50.3442 67.9835 50.4415 68.0807 50.5057C68.1779 50.5695 68.294 50.5971 68.429 50.5881C68.5641 50.5791 68.7154 50.5262 68.8836 50.4291C69.0518 50.332 69.2031 50.2102 69.3381 50.0632C69.4731 49.9163 69.5892 49.7547 69.6865 49.5786C69.7837 49.4022 69.858 49.2191 69.9087 49.0289C69.9595 48.8387 69.985 48.6489 69.985 48.46C69.985 48.2707 69.9595 48.1108 69.9087 47.9792C69.8602 47.8508 69.7846 47.751 69.6865 47.6861C69.5882 47.6221 69.4697 47.594 69.3381 47.6038C69.1946 47.6157 69.0397 47.6699 68.8836 47.7628C68.7154 47.8599 68.5641 47.9817 68.429 48.1286C68.294 48.2755 68.1779 48.4368 68.0807 48.6132C67.9835 48.7893 67.9092 48.9728 67.8584 49.163C67.8076 49.3532 67.7821 49.5426 67.7821 49.7319ZM73.4975 45.5356C73.387 45.4462 73.2676 45.404 73.1392 45.4092C73.0059 45.416 72.8609 45.4644 72.7145 45.551C72.542 45.6506 72.3894 45.7732 72.2567 45.9187C72.124 46.0643 72.0145 46.2233 71.9282 46.3957C71.842 46.5681 71.7766 46.7476 71.7325 46.9339C71.6883 47.1203 71.6661 47.3055 71.6661 47.4894C71.6661 47.6733 71.6917 47.8309 71.7424 47.9625C71.7932 48.0941 71.8642 48.1949 71.9548 48.2652C72.0453 48.3355 72.1548 48.368 72.2832 48.3629C72.4116 48.3577 72.5553 48.3092 72.7145 48.2173C73.0552 48.0206 73.3183 47.7204 73.5041 47.317L73.889 47.5162C73.7387 47.8022 73.5615 48.0501 73.3581 48.2594C73.1548 48.4688 72.9401 48.6387 72.7145 48.769C72.4756 48.9069 72.2567 48.9873 72.0576 49.0103C71.8585 49.0333 71.6893 49.0007 71.55 48.9126C71.4107 48.8245 71.3022 48.6879 71.2249 48.5027C71.1476 48.3175 71.1087 48.087 71.1087 47.8112C71.1087 47.5404 71.1476 47.2678 71.2249 46.9933C71.3022 46.7188 71.4117 46.4564 71.5533 46.2061C71.6972 45.9525 71.87 45.7185 72.0609 45.5184C72.2685 45.3017 72.4907 45.1252 72.7145 44.9993C72.9444 44.8666 73.1624 44.7867 73.3681 44.7599C73.5747 44.7333 73.7599 44.7733 73.9089 44.8767L73.4975 45.5356ZM74.4288 41.8949L74.9463 41.5961V45.3811L76.3597 42.9867L77.0962 42.5615L75.5966 45.0593L77.2488 46.0591L76.4857 46.4997L74.9463 45.5036V47.3885L74.4288 47.6873V41.8949Z" fill="white"/>
<path fill-rule="evenodd" clip-rule="evenodd" d="M42.1351 58.4358L39.7853 62.5059C39.7171 62.624 39.6631 62.7487 39.6262 62.8729C39.5893 62.9971 39.5703 63.1183 39.5703 63.2296V67.0675C39.5703 67.2922 39.6478 67.4631 39.7853 67.5426L42.1351 68.8995C42.2729 68.9787 42.4594 68.9605 42.6543 68.848L45.978 66.9291C46.1726 66.8167 46.3594 66.6194 46.4972 66.381L48.8469 62.3109C48.9845 62.0726 49.0619 61.8122 49.0619 61.5875V57.7497C49.0619 57.5246 48.9845 57.354 48.8469 57.2742L46.4972 55.9173C46.429 55.8779 46.3481 55.8622 46.259 55.871C46.1699 55.8798 46.0744 55.9131 45.978 55.9688L42.6543 57.8877C42.4597 58 42.2729 58.1973 42.1351 58.4358Z" fill="white"/>
<path fill-rule="evenodd" clip-rule="evenodd" d="M44.2032 66.4468C45.7757 65.5389 46.1487 63.658 46.1487 63.658L47.0512 60.1425C47.0512 60.1425 47.1328 59.7846 47.1178 59.7898C46.2772 60.0937 46.0985 60.8811 46.0985 60.8811C46.0985 60.8811 45.7757 62.0361 45.7255 62.065C45.6754 62.094 45.6694 62.0257 45.6694 62.0257V58.5454C45.6694 58.5454 45.685 58.0873 45.2859 58.3177C44.8864 58.5483 44.9069 58.9863 44.9069 58.9863L44.9075 61.5573C44.9075 61.5573 44.9129 61.6576 44.8381 61.7007C44.7714 61.7392 44.775 61.6373 44.775 61.6373V58.5395C44.775 58.5395 44.7999 58.0188 44.396 58.252C43.9924 58.485 44.014 58.9823 44.014 58.9823L44.0104 62.0406C44.0104 62.0406 44.0155 62.1316 43.9488 62.1701C43.887 62.2058 43.8891 62.1117 43.8891 62.1117V59.549C43.8891 59.549 43.9116 59.0144 43.5005 59.2518C43.0965 59.485 43.1182 60.0038 43.1182 60.0038L43.1145 62.7114C43.1145 62.7114 43.1221 62.7858 43.0584 62.8226C42.9911 62.8614 42.9926 62.7818 42.9926 62.7818L42.9896 61.1474C42.9896 61.1474 42.9932 60.6932 42.6539 60.8891C42.2929 61.0975 42.2995 61.5459 42.2995 61.5459V65.0772C42.3019 65.0751 42.2082 67.5982 44.2032 66.4464V66.4468Z" fill="#03BCFC"/>
<path d="M102.301 44.3293L66.0859 65.2382C64.9093 65.9175 63.9556 67.1542 63.9556 68.0005V71.0653C63.9556 71.9116 64.9093 72.047 66.0859 71.3677L102.301 50.4588C103.478 49.7795 104.431 48.5428 104.431 47.6965V44.6317C104.431 43.7854 103.478 43.65 102.301 44.3293Z" fill="white"/>
<path d="M77.7236 94.7214L46.2055 112.918C45.4726 113.342 44.8784 114.542 44.8784 115.6C44.8784 116.658 45.4726 117.172 46.2055 116.749L77.7236 98.5523C78.4566 98.1292 79.0507 96.9286 79.0507 95.8707C79.0507 94.8128 78.4566 94.2982 77.7236 94.7214Z" fill="white"/>
<path d="M96.5477 120.247L45.9605 149.454C45.3629 149.799 44.8784 150.765 44.8784 151.611C44.8784 152.457 45.3629 152.864 45.9605 152.519L96.5477 123.312C97.1453 122.967 97.6298 122.001 97.6298 121.155C97.6298 120.309 97.1453 119.902 96.5477 120.247Z" fill="white"/>
<path d="M108.246 120.006L46.2055 155.825C45.4726 156.248 44.8784 157.277 44.8784 158.124C44.8784 158.97 45.4726 159.313 46.2055 158.89L108.246 123.07C108.979 122.647 109.574 121.618 109.574 120.772C109.574 119.925 108.979 119.582 108.246 120.006Z" fill="white"/>
<path d="M48.5279 98.9354L46.2055 100.276C45.4726 100.699 44.8784 101.728 44.8784 102.575C44.8784 103.421 45.4726 103.764 46.2055 103.341L48.5279 102C49.2608 101.577 49.855 100.548 49.855 99.7016C49.855 98.8553 49.2608 98.5122 48.5279 98.9354Z" fill="white"/>
<path d="M108.247 64.4569L97.6303 70.5864C96.8974 71.0096 96.3032 72.0387 96.3032 72.885C96.3032 73.7313 96.8974 74.0743 97.6303 73.6512L108.247 67.5217C108.98 67.0985 109.574 66.0694 109.574 65.2231C109.574 64.3768 108.98 64.0337 108.247 64.4569Z" fill="white"/>
<path d="M74.0743 84.1863L53.8364 95.8707C53.1034 96.2938 52.5093 97.3229 52.5093 98.1692C52.5093 99.0155 53.1034 99.3586 53.8364 98.9354L74.0743 87.251C74.8072 86.8279 75.4014 85.7988 75.4014 84.9525C75.4014 84.1061 74.8072 83.7631 74.0743 84.1863Z" fill="white"/>
<path d="M70.1939 80.6801L46.4363 94.3966C45.5759 94.8933 44.8784 95.9821 44.8784 96.8284C44.8784 97.6747 45.5759 97.9581 46.4363 97.4613L70.1939 83.7449C71.0543 83.2481 71.7518 82.1594 71.7518 81.3131C71.7518 80.4668 71.0543 80.1834 70.1939 80.6801Z" fill="white"/>
<path d="M123.176 55.8373L113.555 61.3921C112.822 61.8153 112.228 62.8444 112.228 63.6907C112.228 64.537 112.822 64.88 113.555 64.4569L123.176 58.902C123.909 58.4789 124.504 57.4498 124.504 56.6035C124.504 55.7571 123.909 55.4141 123.176 55.8373Z" fill="white"/>
<path d="M44.7124 125.465C44.7124 123.772 45.9007 121.714 47.3666 120.868L80.5435 101.713C82.0094 100.867 83.1977 101.553 83.1977 103.245V110.907C83.1977 112.6 82.0094 114.658 80.5435 115.504L47.3666 134.659C45.9007 135.505 44.7124 134.819 44.7124 133.127V125.465Z" fill="#2284F7"/>
<path d="M85.8521 101.713C85.8521 100.02 87.0404 97.962 88.5062 97.1157L121.683 77.961C123.149 77.1146 124.337 77.8007 124.337 79.4933V87.1552C124.337 88.8478 123.149 90.9061 121.683 91.7524L88.5062 110.907C87.0404 111.753 85.8521 111.067 85.8521 109.375V101.713Z" fill="#2284F7"/>
<path fill-rule="evenodd" clip-rule="evenodd" d="M128.906 13.2695C128.906 13.3566 128.9 13.4423 128.891 13.5294L129.359 13.6818C129.401 13.6959 129.412 13.7586 129.385 13.8303L128.942 14.9724C128.915 15.0441 128.858 15.1004 128.807 15.1068L128.254 15.1696C128.139 15.336 128.015 15.4948 127.88 15.6369L127.795 16.3642C127.789 16.4295 127.742 16.5024 127.687 16.5345L126.8 17.0466C126.744 17.0786 126.698 17.0594 126.691 17.0018L126.607 16.3718C126.471 16.3859 126.347 16.3731 126.232 16.3373L125.68 16.9122C125.631 16.9608 125.571 16.9749 125.544 16.9339L125.101 16.304C125.074 16.263 125.085 16.1875 125.127 16.1247L125.595 15.432C125.586 15.3552 125.58 15.2746 125.58 15.1901C125.58 15.1055 125.586 15.0172 125.595 14.9301L125.127 14.7778C125.085 14.7637 125.072 14.7022 125.101 14.6292L125.544 13.4871C125.571 13.4154 125.629 13.3591 125.68 13.3527L126.232 13.29C126.347 13.1235 126.471 12.9648 126.607 12.8226L126.691 12.0954C126.698 12.0301 126.744 11.9571 126.8 11.9251L127.687 11.4129C127.742 11.3809 127.789 11.4001 127.795 11.4577L127.88 12.0877C128.015 12.0736 128.139 12.0864 128.254 12.1223L128.807 11.5474C128.855 11.4987 128.915 11.4846 128.942 11.5256L129.385 12.1556C129.412 12.1965 129.401 12.2721 129.359 12.3348L128.891 13.0275C128.9 13.1043 128.906 13.1824 128.906 13.2695ZM126.467 14.6779C126.467 15.1721 126.815 15.3731 127.243 15.126C127.671 14.8789 128.019 14.2759 128.019 13.7816C128.019 13.2874 127.671 13.0864 127.243 13.3335C126.815 13.5806 126.467 14.1837 126.467 14.6779Z" fill="#81DEFE"/>
<path fill-rule="evenodd" clip-rule="evenodd" d="M119.925 15.8199L116.82 17.6125C116.574 17.7546 116.377 18.099 116.377 18.3807V21.9657C116.377 22.2474 116.577 22.3627 116.82 22.2218L117.708 21.7097L118.215 22.0029C118.302 22.0528 118.442 21.9721 118.528 21.8223L119.038 20.9414L119.925 20.4293C120.169 20.2884 120.369 19.9427 120.369 19.6611V16.076C120.369 15.7943 120.169 15.6791 119.925 15.8199ZM118.595 20.6854L118.151 20.9414V20.4293L118.595 20.1732V20.6854ZM118.854 18.7866L119.054 18.4357C119.18 18.2168 119.26 17.9658 119.26 17.7405C119.26 17.1746 118.863 16.9454 118.373 17.2283C117.969 17.4614 117.63 17.9671 117.521 18.4549C117.486 18.6188 117.575 18.711 117.703 18.6368L117.77 18.5984C117.856 18.5484 117.925 18.4396 117.954 18.3282C118.014 18.0939 118.18 17.8519 118.373 17.7405C118.617 17.5997 118.817 17.7149 118.817 17.9966C118.817 18.1374 118.768 18.2936 118.688 18.4319L118.413 18.9133C118.278 19.1502 118.184 19.4114 118.16 19.6585C118.145 19.8006 118.233 19.8672 118.349 19.8006L118.417 19.7609C118.515 19.7046 118.593 19.5753 118.606 19.4575C118.635 19.195 118.726 19.0119 118.854 18.7866Z" fill="#81DEFE"/>
<path d="M142.604 12.6694L46.7972 69.6686C45.7062 70.3177 44.8218 71.873 44.8218 73.1424V190.753C44.8218 192.022 45.7062 192.525 46.7972 191.876L142.604 134.877C143.695 134.228 144.58 132.672 144.58 131.403V13.7927C144.58 12.5233 143.695 12.0203 142.604 12.6694Z" fill="#FF9C00" stroke="#E38C03" stroke-width="0.766189"/>
<path fill-rule="evenodd" clip-rule="evenodd" d="M50.0898 88.0139L139.641 34.7363V127.828L50.0898 181.106V88.0139Z" fill="#FFAE00"/>
<path d="M55.708 101.144L134.724 54.1345" stroke="#FFD270" stroke-width="0.766189" stroke-linecap="square"/>
<path d="M55.708 155.927L134.724 108.917" stroke="#FFD270" stroke-width="0.766189" stroke-linecap="square"/>
<path d="M65.0129 66.3402L65.7307 65.9132L67.739 70.143L66.7908 70.7071L66.3562 69.7244L64.3347 70.9271L63.9133 72.419L62.9849 72.9714L65.0129 66.3402ZM66.0665 69.0693L65.3488 67.2897L64.6179 69.9312L66.0665 69.0693ZM70.632 67.8702L70.6188 67.878C70.5132 68.1566 70.3519 68.424 70.1579 68.6426C69.9646 68.8595 69.7562 69.0348 69.5323 69.168C69.2864 69.3143 69.0681 69.3944 68.8772 69.4084C68.691 69.4236 68.5239 69.3833 68.3866 69.2903C68.2485 69.1949 68.1432 69.049 68.0771 68.8615C68.0056 68.6599 67.97 68.4247 67.9718 68.1657C67.9718 67.8948 68.009 67.6198 68.0837 67.3405C68.1535 67.0734 68.2597 66.8022 68.3965 66.5415C68.5301 66.2881 68.6915 66.0557 68.8805 65.8437C69.0691 65.6318 69.2755 65.4592 69.4994 65.326C69.6486 65.2373 69.7803 65.1765 69.8945 65.1446C70.0084 65.1124 70.1095 65.0983 70.1974 65.1023C70.285 65.1061 70.3597 65.1218 70.4213 65.1492C70.4825 65.1763 70.5332 65.209 70.5727 65.2468L70.5925 65.235V62.653L71.3826 62.1829V67.9753L70.632 68.4219V67.8702ZM68.7619 67.6956C68.7619 67.8385 68.7827 67.964 68.8245 68.0721C68.866 68.18 68.9275 68.2609 69.0089 68.3148C69.0898 68.3686 69.1876 68.3924 69.3019 68.3857C69.4158 68.3792 69.5455 68.3327 69.6904 68.2465C69.8352 68.1603 69.9646 68.0527 70.0789 67.9234C70.1895 67.7992 70.2891 67.6566 70.3719 67.5039C70.453 67.3537 70.5157 67.1966 70.5563 67.0418C70.5977 66.8842 70.6188 66.7337 70.6188 66.5908C70.6188 66.4476 70.5977 66.3222 70.5563 66.2143C70.5157 66.1078 70.453 66.0252 70.3719 65.9715C70.2891 65.9173 70.1895 65.8932 70.0789 65.9007C69.9646 65.9074 69.8352 65.9537 69.6904 66.0399C69.5455 66.1261 69.4158 66.2339 69.3019 66.363C69.1912 66.4872 69.0916 66.6297 69.0089 66.7825C68.9278 66.9327 68.8651 67.0898 68.8245 67.2446C68.7827 67.402 68.7619 67.5523 68.7619 67.6956ZM72.3526 61.9736L73.7748 61.1274C73.9681 61.0124 74.1568 60.9232 74.3411 60.8595C74.5255 60.7958 74.6901 60.7729 74.835 60.7917C74.9798 60.8101 75.0974 60.8769 75.1873 60.992C75.2775 61.1069 75.3222 61.2894 75.3222 61.54C75.3222 61.8564 75.2488 62.1621 75.1017 62.4566C74.9548 62.7508 74.756 63.0158 74.5057 63.2517V63.267C74.793 63.124 75.0614 63.1143 75.2597 63.2398C75.3542 63.3008 75.4276 63.3939 75.4803 63.5185C75.533 63.6427 75.5593 63.7944 75.5593 63.9734C75.5593 64.2745 75.5056 64.5543 75.398 64.8125C75.2921 65.0677 75.1474 65.313 74.9766 65.5268C74.8034 65.7448 74.6078 65.9416 74.3905 66.1168C74.1732 66.292 73.9572 66.4435 73.7419 66.5716L72.3526 67.3982V61.9736ZM72.9057 63.9431L73.6695 63.4887C73.8012 63.4103 73.9296 63.3236 74.0547 63.2288C74.1798 63.1337 74.2931 63.0242 74.3938 62.9007C74.4949 62.7766 74.5762 62.6389 74.6374 62.4876C74.699 62.336 74.7296 62.1657 74.7296 61.9768C74.7296 61.8083 74.7013 61.6884 74.644 61.6179C74.5876 61.5474 74.5094 61.5082 74.4169 61.504C74.3165 61.5 74.2073 61.5222 74.0942 61.5695C73.9734 61.6184 73.8512 61.6796 73.7288 61.7525L72.9057 62.2422V63.9431ZM72.9057 66.4715L73.8407 65.9152C73.977 65.8341 74.112 65.737 74.2457 65.6245C74.3731 65.5184 74.4954 65.3912 74.6078 65.2482C74.7132 65.1139 74.8023 64.961 74.8679 64.8023C74.9338 64.6428 74.9667 64.4765 74.9667 64.3029C74.9667 64.1137 74.9351 63.9743 74.8712 63.8847C74.8104 63.7967 74.7245 63.7426 74.621 63.7271C74.5179 63.7118 74.3994 63.7287 74.2654 63.7777C74.1298 63.8276 73.992 63.8942 73.8539 63.9766L72.9057 64.5407V66.4715ZM76.3979 59.1991L76.9115 58.8936V64.686L76.3979 64.9915V59.1991ZM77.6973 62.4255C77.6973 62.1443 77.7392 61.8643 77.8225 61.5849C77.9057 61.3055 78.02 61.0395 78.1649 60.7874C78.3097 60.5349 78.4832 60.303 78.685 60.091C78.8869 59.879 79.1065 59.7024 79.3435 59.5613C79.5806 59.4203 79.8002 59.3356 80.002 59.3075C80.2038 59.2794 80.3773 59.3049 80.5222 59.3849C80.667 59.4646 80.7813 59.5947 80.8646 59.775C80.9479 59.9553 80.9897 60.1856 80.9897 60.4668C80.9897 60.7476 80.9479 61.028 80.8646 61.3074C80.7813 61.5868 80.667 61.8525 80.5222 62.1049C80.3773 62.357 80.2038 62.5893 80.002 62.8013C79.8002 63.0133 79.5806 63.1899 79.3435 63.331C79.1065 63.472 78.8869 63.5567 78.685 63.5848C78.4907 63.6142 78.3137 63.5878 78.1649 63.5074C78.018 63.4252 77.9016 63.2926 77.8225 63.1173C77.7392 62.937 77.6973 62.7063 77.6973 62.4255ZM78.2505 62.0965C78.2505 62.2853 78.2758 62.4453 78.3262 62.5762C78.3766 62.7072 78.4503 62.8035 78.5468 62.8664C78.6432 62.9289 78.7585 62.955 78.8925 62.9442C79.0265 62.9335 79.1766 62.8786 79.3435 62.7793C79.5104 62.68 79.6606 62.5562 79.7946 62.4075C79.9286 62.2589 80.0438 62.0957 80.1403 61.9184C80.2367 61.7407 80.3105 61.5566 80.3608 61.3657C80.4112 61.1749 80.4366 60.9847 80.4366 60.7959C80.4366 60.6066 80.4112 60.447 80.3608 60.3161C80.3127 60.1883 80.2376 60.0895 80.1403 60.0259C80.0427 59.9631 79.9251 59.9366 79.7946 59.9481C79.6521 59.9619 79.4984 60.018 79.3435 60.113C79.1766 60.2123 79.0265 60.3361 78.8925 60.4848C78.7585 60.6334 78.6432 60.7962 78.5468 60.9739C78.4503 61.1512 78.3766 61.3357 78.3262 61.5266C78.2758 61.7174 78.2505 61.9072 78.2505 62.0965ZM83.9222 57.8257C83.8125 57.7377 83.694 57.6971 83.5666 57.7039C83.4344 57.7124 83.2905 57.7627 83.1452 57.8512C82.974 57.9531 82.8225 58.0777 82.6908 58.225C82.5591 58.3723 82.4505 58.5327 82.3649 58.7062C82.2793 58.8797 82.2144 59.0601 82.1706 59.247C82.1269 59.434 82.1048 59.6195 82.1048 59.8034C82.1048 59.9872 82.1301 60.1446 82.1805 60.2755C82.2309 60.4064 82.3013 60.5062 82.3912 60.5754C82.4811 60.6445 82.5898 60.6756 82.7172 60.6688C82.8446 60.6619 82.9871 60.6116 83.1452 60.5176C83.4833 60.3164 83.7444 60.0128 83.9288 59.607L84.3107 59.8012C84.1615 60.0891 83.9857 60.3393 83.7839 60.5513C83.5821 60.7633 83.3691 60.936 83.1452 61.0692C82.9081 61.2103 82.6908 61.2936 82.4933 61.3191C82.2958 61.3447 82.1278 61.3144 81.9896 61.2281C81.8513 61.1418 81.7436 61.0066 81.6669 60.8224C81.5902 60.6382 81.5517 60.4083 81.5517 60.1324C81.5517 59.8616 81.5902 59.5885 81.6669 59.313C81.7436 59.0375 81.8523 58.7737 81.9929 58.5215C82.1357 58.2661 82.3072 58.0297 82.4966 57.8272C82.7026 57.6078 82.923 57.4284 83.1452 57.2996C83.3733 57.1638 83.5896 57.0811 83.7938 57.0516C83.9988 57.0223 84.1825 57.0599 84.3304 57.1614L83.9222 57.8257ZM84.8463 54.1728L85.3599 53.8672V57.6522L86.7625 55.2395L87.4934 54.8046L86.0052 57.3219L87.6448 58.3003L86.8876 58.7508L85.3599 57.7748V59.6596L84.8463 59.9652V54.1728Z" fill="white"/>
<path fill-rule="evenodd" clip-rule="evenodd" d="M52.7995 71.1347L50.4678 75.2355C50.4001 75.3545 50.3464 75.4799 50.3098 75.6046C50.2732 75.7293 50.2544 75.8507 50.2544 75.9621V79.7999C50.2544 80.0246 50.3313 80.1946 50.4678 80.2722L52.7995 81.5985C52.9363 81.6759 53.1214 81.6553 53.3148 81.5402L56.6131 79.578C56.8062 79.4631 56.9916 79.2633 57.1283 79.0231L59.4601 74.9223C59.5966 74.6823 59.6735 74.4208 59.6735 74.1961V70.3583C59.6735 70.1332 59.5966 69.9636 59.4601 69.8857L57.1283 68.5594C57.0607 68.5209 56.9804 68.5062 56.8919 68.5162C56.8035 68.5262 56.7088 68.5607 56.6131 68.6176L53.3148 70.5799C53.1217 70.6948 52.9363 70.8945 52.7995 71.1347Z" fill="white"/>
<path fill-rule="evenodd" clip-rule="evenodd" d="M54.8517 79.1187C56.4122 78.1903 56.7824 76.3045 56.7824 76.3045L57.6779 72.7773C57.6779 72.7773 57.759 72.4183 57.7441 72.4237C56.9099 72.7387 56.7326 73.5283 56.7326 73.5283C56.7326 73.5283 56.4122 74.6875 56.3624 74.7171C56.3127 74.7467 56.3067 74.6785 56.3067 74.6785V71.1982C56.3067 71.1982 56.3222 70.7399 55.9261 70.9755C55.5298 71.2114 55.55 71.6491 55.55 71.6491L55.5506 74.2201C55.5506 74.2201 55.556 74.3202 55.4818 74.3644C55.4156 74.4038 55.4192 74.3018 55.4192 74.3018V71.204C55.4192 71.204 55.4439 70.683 55.0431 70.9214C54.6425 71.1597 54.664 71.6567 54.664 71.6567L54.6604 74.715C54.6604 74.715 54.6655 74.806 54.5993 74.8454C54.5379 74.8819 54.54 74.7877 54.54 74.7877V72.225C54.54 72.225 54.5624 71.6901 54.1544 71.9329C53.7535 72.1714 53.775 72.6899 53.775 72.6899L53.7714 75.3976C53.7714 75.3976 53.7789 75.4718 53.7157 75.5094C53.6489 75.5492 53.6504 75.4695 53.6504 75.4695L53.6474 73.8352C53.6474 73.8352 53.651 73.3809 53.3142 73.5812C52.956 73.7944 52.9626 74.2427 52.9626 74.2427V77.7739C52.9649 77.7718 52.872 80.2962 54.8517 79.1184V79.1187Z" fill="#FFAE00"/>
<path d="M112.506 56.2437L76.5672 77.6249C75.3996 78.3195 74.4531 79.5686 74.4531 80.4149V83.4797C74.4531 84.326 75.3996 84.449 76.5672 83.7544L112.506 62.3732C113.673 61.6786 114.62 60.4294 114.62 59.5831V56.5184C114.62 55.6721 113.673 55.5491 112.506 56.2437Z" fill="white"/>
<path d="M88.1161 106.956L56.8389 125.564C56.1116 125.997 55.522 127.205 55.522 128.263C55.522 129.321 56.1116 129.828 56.8389 129.395L88.1161 110.787C88.8435 110.355 89.4331 109.146 89.4331 108.088C89.4331 107.03 88.8435 106.524 88.1161 106.956Z" fill="white"/>
<path d="M106.796 132.237L56.5958 162.103C56.0027 162.456 55.522 163.428 55.522 164.274C55.522 165.12 56.0027 165.52 56.5958 165.168L106.796 135.301C107.389 134.949 107.87 133.977 107.87 133.13C107.87 132.284 107.389 131.884 106.796 132.237Z" fill="white"/>
<path d="M118.406 131.843L56.8389 168.471C56.1116 168.904 55.522 169.94 55.522 170.787C55.522 171.633 56.1116 171.968 56.8389 171.536L118.406 134.907C119.133 134.475 119.723 133.438 119.723 132.591C119.723 131.745 119.133 131.41 118.406 131.843Z" fill="white"/>
<path d="M59.1435 111.551L56.8389 112.922C56.1116 113.355 55.522 114.392 55.522 115.238C55.522 116.084 56.1116 116.42 56.8389 115.987L59.1435 114.616C59.8709 114.183 60.4605 113.146 60.4605 112.3C60.4605 111.454 59.8709 111.118 59.1435 111.551Z" fill="white"/>
<path d="M118.406 76.2938L107.87 82.5617C107.143 82.9944 106.553 84.0313 106.553 84.8776C106.553 85.7239 107.143 86.0592 107.87 85.6265L118.406 79.3585C119.133 78.9258 119.723 77.889 119.723 77.0426C119.723 76.1963 119.133 75.8611 118.406 76.2938Z" fill="white"/>
<path d="M84.4944 96.4688L64.4112 108.417C63.6839 108.85 63.0942 109.887 63.0942 110.733C63.0942 111.579 63.6839 111.915 64.4112 111.482L84.4944 99.5335C85.2218 99.1008 85.8114 98.064 85.8114 97.2177C85.8114 96.3713 85.2218 96.0361 84.4944 96.4688Z" fill="white"/>
<path d="M80.644 93.0132L57.0679 107.039C56.2141 107.547 55.522 108.645 55.522 109.492C55.522 110.338 56.2141 110.612 57.0679 110.104L80.644 96.078C81.4978 95.57 82.1899 94.4722 82.1899 93.6258C82.1899 92.7795 81.4978 92.5053 80.644 93.0132Z" fill="white"/>
<path d="M133.221 67.4795L123.673 73.1598C122.946 73.5925 122.356 74.6294 122.356 75.4757C122.356 76.322 122.946 76.6573 123.673 76.2246L133.221 70.5442C133.948 70.1115 134.538 69.0747 134.538 68.2284C134.538 67.382 133.948 67.0468 133.221 67.4795Z" fill="white"/>
<path d="M55.3574 138.13C55.3574 136.437 56.5366 134.364 57.9913 133.498L90.9147 113.911C92.3693 113.046 93.5486 113.716 93.5486 115.409V123.071C93.5486 124.763 92.3693 126.837 90.9147 127.702L57.9913 147.29C56.5366 148.155 55.3574 147.485 55.3574 145.792V138.13Z" fill="#FF9C00"/>
<path d="M96.1826 113.842C96.1826 112.149 97.3618 110.075 98.8165 109.21L131.74 89.6226C133.195 88.7572 134.374 89.4278 134.374 91.1204V98.7823C134.374 100.475 133.195 102.549 131.74 103.414L98.8165 123.001C97.3618 123.867 96.1826 123.196 96.1826 121.504V113.842Z" fill="#FF9C00"/>
<path fill-rule="evenodd" clip-rule="evenodd" d="M138.909 24.837C138.909 24.9241 138.902 25.01 138.893 25.0972L139.358 25.2434C139.4 25.2569 139.411 25.3195 139.384 25.3916L138.944 26.5395C138.918 26.6115 138.86 26.6686 138.81 26.6757L138.262 26.7456C138.147 26.9136 138.024 27.074 137.89 27.2178L137.806 27.9462C137.8 28.0116 137.754 28.0852 137.698 28.1179L136.818 28.6416C136.763 28.6744 136.717 28.6558 136.71 28.5982L136.627 27.9694C136.492 27.9852 136.369 27.974 136.255 27.9397L135.707 28.5218C135.658 28.5711 135.599 28.5859 135.573 28.5453L135.132 27.9212C135.106 27.8805 135.117 27.8048 135.159 27.7416L135.623 27.0428C135.614 26.9661 135.608 26.8855 135.608 26.801C135.608 26.7165 135.614 26.628 135.623 26.5409L135.159 26.3946C135.117 26.3811 135.104 26.3198 135.132 26.2464L135.573 25.0985C135.599 25.0265 135.656 24.9694 135.707 24.9623L136.255 24.8924C136.369 24.7244 136.492 24.5641 136.627 24.4202L136.71 23.6918C136.717 23.6264 136.763 23.5528 136.818 23.5201L137.698 22.9964C137.754 22.9637 137.8 22.9823 137.806 23.0398L137.89 23.6686C138.024 23.6528 138.147 23.664 138.262 23.6983L138.81 23.1162C138.858 23.0669 138.918 23.0521 138.944 23.0927L139.384 23.7169C139.411 23.7575 139.4 23.8332 139.358 23.8965L138.893 24.5952C138.902 24.6719 138.909 24.75 138.909 24.837ZM136.488 26.2773C136.488 26.7715 136.833 26.968 137.258 26.7153C137.683 26.4626 138.028 25.855 138.028 25.3608C138.028 24.8665 137.683 24.67 137.258 24.9227C136.833 25.1754 136.488 25.783 136.488 26.2773Z" fill="#FFD780"/>
<path fill-rule="evenodd" clip-rule="evenodd" d="M129.996 27.5046L126.915 29.3376C126.67 29.483 126.475 29.83 126.475 30.1116V33.6967C126.475 33.9784 126.673 34.091 126.915 33.947L127.795 33.4233L128.299 33.7099C128.385 33.7587 128.523 33.6762 128.609 33.5252L129.115 32.6377L129.996 32.114C130.238 31.97 130.436 31.6216 130.436 31.34V27.7549C130.436 27.4732 130.238 27.3606 129.996 27.5046ZM128.675 32.3874L128.235 32.6493V32.1371L128.675 31.8753V32.3874ZM128.933 30.4852L129.131 30.1318C129.256 29.9112 129.335 29.6592 129.335 29.4339C129.335 28.8679 128.941 28.6439 128.455 28.9333C128.055 29.1716 127.718 29.6817 127.61 30.171C127.575 30.3353 127.663 30.4264 127.79 30.3504L127.856 30.3111C127.942 30.2601 128.011 30.1504 128.039 30.0386C128.099 29.8035 128.264 29.5593 128.455 29.4454C128.697 29.3014 128.895 29.414 128.895 29.6957C128.895 29.8366 128.847 29.9934 128.768 30.1327L128.495 30.6177C128.36 30.8564 128.268 31.1188 128.244 31.3662C128.228 31.5085 128.316 31.574 128.431 31.5059L128.499 31.4653C128.596 31.4077 128.673 31.2773 128.686 31.1594C128.715 30.8965 128.805 30.7122 128.933 30.4852Z" fill="#FFD780"/>
<path d="M153.331 26.107L57.5242 83.1062C56.4332 83.7553 55.5488 85.3105 55.5488 86.58V204.19C55.5488 205.46 56.4332 205.962 57.5242 205.313L153.331 148.314C154.422 147.665 155.307 146.11 155.307 144.84V27.2303C155.307 25.9608 154.422 25.4579 153.331 26.107Z" fill="#CE0707" stroke="#AC0202" stroke-width="0.766189"/>
<path fill-rule="evenodd" clip-rule="evenodd" d="M60.8169 101.451L150.369 48.1738V141.266L60.8169 194.543V101.451Z" fill="#E40D0D"/>
<path d="M66.4351 114.582L145.451 67.5721" stroke="#F18686" stroke-width="0.766189" stroke-linecap="square"/>
<path d="M66.4351 169.364L145.451 122.355" stroke="#F18686" stroke-width="0.766189" stroke-linecap="square"/>
<path d="M75.74 79.7778L76.4577 79.3508L78.4661 83.5806L77.5179 84.1447L77.0833 83.162L75.0618 84.3647L74.6404 85.8566L73.7119 86.409L75.74 79.7778ZM76.7935 82.5069L76.0758 80.7273L75.3449 83.3687L76.7935 82.5069ZM81.359 81.3078L81.3459 81.3156C81.2403 81.5941 81.079 81.8616 80.8849 82.0802C80.6917 82.2971 80.4833 82.4724 80.2594 82.6056C80.0135 82.7519 79.7952 82.832 79.6042 82.846C79.418 82.8611 79.251 82.8209 79.1137 82.7279C78.9756 82.6325 78.8703 82.4865 78.8042 82.2991C78.7326 82.0975 78.697 81.8622 78.6988 81.6032C78.6988 81.3324 78.736 81.0574 78.8108 80.7781C78.8806 80.511 78.9867 80.2398 79.1235 79.9791C79.2572 79.7256 79.4185 79.4933 79.6075 79.2812C79.7962 79.0694 80.0026 78.8968 80.2265 78.7636C80.3756 78.6748 80.5073 78.6141 80.6215 78.5822C80.7355 78.55 80.8365 78.5358 80.9244 78.5399C81.012 78.5437 81.0868 78.5594 81.1483 78.5867C81.2096 78.6139 81.2603 78.6465 81.2998 78.6843L81.3195 78.6726V76.0905L82.1097 75.6204V81.4128L81.359 81.8594V81.3078ZM79.489 81.1331C79.489 81.276 79.5097 81.4016 79.5515 81.5096C79.593 81.6175 79.6546 81.6985 79.7359 81.7524C79.8169 81.8061 79.9147 81.8299 80.0289 81.8233C80.1428 81.8168 80.2726 81.7703 80.4174 81.6841C80.5623 81.5979 80.6917 81.4903 80.8059 81.361C80.9166 81.2368 81.0162 81.0942 81.0989 80.9415C81.18 80.7913 81.2427 80.6341 81.2833 80.4794C81.3248 80.3217 81.3459 80.1713 81.3459 80.0284C81.3459 79.8851 81.3248 79.7597 81.2833 79.6519C81.2427 79.5454 81.18 79.4628 81.0989 79.4091C81.0162 79.3549 80.9166 79.3308 80.8059 79.3383C80.6917 79.3449 80.5623 79.3913 80.4174 79.4774C80.2726 79.5636 80.1428 79.6715 80.0289 79.8005C79.9183 79.9247 79.8187 80.0673 79.7359 80.22C79.6548 80.3702 79.5921 80.5274 79.5515 80.6822C79.5097 80.8396 79.489 80.9898 79.489 81.1331ZM83.0796 75.4112L84.5019 74.565C84.6952 74.45 84.8838 74.3608 85.0682 74.297C85.2526 74.2333 85.4172 74.2105 85.562 74.2293C85.7069 74.2477 85.8244 74.3145 85.9143 74.4296C86.0045 74.5445 86.0493 74.727 86.0493 74.9775C86.0493 75.294 85.9759 75.5997 85.8287 75.8941C85.6819 76.1884 85.483 76.4534 85.2328 76.6892V76.7045C85.5201 76.5615 85.7885 76.5519 85.9867 76.6774C86.0812 76.7384 86.1547 76.8315 86.2073 76.9561C86.26 77.0803 86.2863 77.232 86.2863 77.4109C86.2863 77.712 86.2327 77.9918 86.125 78.2501C86.0192 78.5053 85.8745 78.7505 85.7036 78.9644C85.5304 79.1823 85.3349 79.3791 85.1176 79.5544C84.9003 79.7296 84.6843 79.8811 84.469 80.0092L83.0796 80.8358V75.4112ZM83.6327 77.3807L84.3965 76.9262C84.5282 76.8479 84.6566 76.7611 84.7817 76.6664C84.9069 76.5713 85.0201 76.4618 85.1209 76.3382C85.2219 76.2141 85.3033 76.0765 85.3645 75.9251C85.4261 75.7736 85.4567 75.6033 85.4567 75.4144C85.4567 75.2458 85.4284 75.1259 85.3711 75.0554C85.3147 74.985 85.2365 74.9458 85.1439 74.9416C85.0435 74.9376 84.9343 74.9598 84.8213 75.0071C84.7004 75.056 84.5782 75.1172 84.4558 75.19L83.6327 75.6797V77.3807ZM83.6327 79.9091L84.5677 79.3528C84.704 79.2717 84.839 79.1745 84.9727 79.0621C85.1001 78.9559 85.2225 78.8288 85.3349 78.6857C85.4402 78.5514 85.5294 78.3986 85.595 78.2398C85.6608 78.0804 85.6937 77.914 85.6937 77.7405C85.6937 77.5513 85.6621 77.4118 85.5982 77.3223C85.5374 77.2342 85.4515 77.1801 85.348 77.1647C85.245 77.1493 85.1265 77.1662 84.9925 77.2153C84.8569 77.2651 84.7191 77.3317 84.5809 77.4142L83.6327 77.9783V79.9091ZM87.1249 72.6367L87.6385 72.3311V78.1235L87.1249 78.4291V72.6367ZM88.4244 75.8631C88.4244 75.5819 88.4662 75.3019 88.5495 75.0225C88.6328 74.743 88.747 74.477 88.8919 74.225C89.0368 73.9725 89.2103 73.7406 89.4121 73.5285C89.6139 73.3165 89.8335 73.1399 90.0706 72.9989C90.3076 72.8579 90.5272 72.7732 90.729 72.7451C90.9308 72.7169 91.1044 72.7424 91.2492 72.8225C91.3941 72.9022 91.5083 73.0323 91.5916 73.2126C91.6749 73.3929 91.7167 73.6232 91.7167 73.9043C91.7167 74.1852 91.6749 74.4656 91.5916 74.745C91.5083 75.0244 91.3941 75.29 91.2492 75.5425C91.1044 75.7945 90.9308 76.0269 90.729 76.2389C90.5272 76.4509 90.3076 76.6275 90.0706 76.7685C89.8335 76.9096 89.6139 76.9942 89.4121 77.0224C89.2178 77.0517 89.0408 77.0254 88.8919 76.9449C88.745 76.8628 88.6286 76.7302 88.5495 76.5548C88.4662 76.3745 88.4244 76.1439 88.4244 75.8631ZM88.9775 75.534C88.9775 75.7229 89.0029 75.8829 89.0532 76.0138C89.1036 76.1447 89.1774 76.2411 89.2738 76.304C89.3703 76.3665 89.4855 76.3926 89.6195 76.3818C89.7535 76.371 89.9036 76.3162 90.0706 76.2169C90.2375 76.1176 90.3876 75.9938 90.5216 75.8451C90.6556 75.6964 90.7708 75.5332 90.8673 75.3559C90.9638 75.1783 91.0375 74.9942 91.0879 74.8033C91.1383 74.6124 91.1636 74.4223 91.1636 74.2334C91.1636 74.0442 91.1383 73.8846 91.0879 73.7536C91.0397 73.6258 90.9647 73.5271 90.8673 73.4635C90.7698 73.4007 90.6522 73.3742 90.5216 73.3856C90.3792 73.3994 90.2255 73.4556 90.0706 73.5505C89.9036 73.6499 89.7535 73.7736 89.6195 73.9223C89.4855 74.071 89.3703 74.2338 89.2738 74.4115C89.1774 74.5888 89.1036 74.7733 89.0532 74.9641C89.0029 75.155 88.9775 75.3448 88.9775 75.534ZM94.6492 71.2633C94.5396 71.1752 94.4211 71.1347 94.2936 71.1415C94.1614 71.15 94.0175 71.2003 93.8722 71.2888C93.701 71.3906 93.5496 71.5152 93.4179 71.6625C93.2862 71.8098 93.1775 71.9703 93.0919 72.1438C93.0063 72.3173 92.9415 72.4976 92.8977 72.6846C92.8539 72.8715 92.8318 73.057 92.8318 73.2409C92.8318 73.4248 92.8572 73.5821 92.9076 73.713C92.9579 73.844 93.0284 73.9438 93.1183 74.0129C93.2082 74.082 93.3168 74.1132 93.4442 74.1063C93.5716 74.0995 93.7142 74.0491 93.8722 73.9551C94.2104 73.754 94.4714 73.4504 94.6558 73.0446L95.0377 73.2388C94.8886 73.5267 94.7128 73.7769 94.5109 73.9889C94.3091 74.2009 94.0961 74.3736 93.8722 74.5068C93.6352 74.6478 93.4179 74.7311 93.2203 74.7567C93.0228 74.7823 92.8549 74.7519 92.7166 74.6656C92.5783 74.5793 92.4707 74.4442 92.394 74.26C92.3173 74.0757 92.2787 73.8458 92.2787 73.57C92.2787 73.2991 92.3173 73.0261 92.394 72.7506C92.4707 72.4751 92.5793 72.2112 92.7199 71.959C92.8627 71.7036 93.0342 71.4673 93.2236 71.2648C93.4296 71.0453 93.6501 70.866 93.8722 70.7371C94.1004 70.6014 94.3167 70.5187 94.5208 70.4892C94.7259 70.4599 94.9096 70.4975 95.0575 70.599L94.6492 71.2633ZM95.5734 67.6104L96.087 67.3048V71.0898L97.4895 68.677L98.2204 68.2422L96.7323 70.7595L98.3719 71.7378L97.6146 72.1883L96.087 71.2124V73.0972L95.5734 73.4028V67.6104Z" fill="white"/>
<path fill-rule="evenodd" clip-rule="evenodd" d="M63.5261 84.5723L61.1943 88.6731C61.1267 88.7921 61.073 88.9175 61.0364 89.0422C60.9998 89.1668 60.9809 89.2883 60.981 89.3996V93.2374C60.981 93.4622 61.0578 93.6321 61.1943 93.7097L63.5261 95.036C63.6629 95.1135 63.848 95.0928 64.0414 94.9778L67.3396 93.0155C67.5327 92.9006 67.7181 92.7009 67.8549 92.4607L70.1867 88.3599C70.3232 88.1198 70.4 87.8584 70.4 87.6337V83.7959C70.4 83.5708 70.3232 83.4012 70.1867 83.3232L67.8549 81.9969C67.7872 81.9584 67.7069 81.9438 67.6185 81.9538C67.5301 81.9638 67.4353 81.9982 67.3396 82.0552L64.0414 84.0174C63.8483 84.1323 63.6629 84.3321 63.5261 84.5723Z" fill="white"/>
<path fill-rule="evenodd" clip-rule="evenodd" d="M65.5783 92.5563C67.1388 91.6279 67.5089 89.7421 67.5089 89.7421L68.4045 86.2148C68.4045 86.2148 68.4855 85.8559 68.4706 85.8613C67.6365 86.1762 67.4591 86.9659 67.4591 86.9659C67.4591 86.9659 67.1388 88.1251 67.089 88.1547C67.0392 88.1843 67.0333 88.1161 67.0333 88.1161V84.6358C67.0333 84.6358 67.0488 84.1775 66.6527 84.4131C66.2563 84.6489 66.2766 85.0866 66.2766 85.0866L66.2772 87.6577C66.2772 87.6577 66.2825 87.7578 66.2083 87.802C66.1422 87.8413 66.1457 87.7393 66.1457 87.7393V84.6415C66.1457 84.6415 66.1705 84.1205 65.7696 84.359C65.3691 84.5973 65.3905 85.0943 65.3905 85.0943L65.387 88.1526C65.387 88.1526 65.392 88.2436 65.3259 88.2829C65.2645 88.3194 65.2666 88.2253 65.2666 88.2253V85.6626C65.2666 85.6626 65.2889 85.1277 64.8809 85.3704C64.4801 85.6089 64.5015 86.1274 64.5015 86.1274L64.498 88.8351C64.498 88.8351 64.5054 88.9094 64.4422 88.947C64.3755 88.9867 64.377 88.9071 64.377 88.9071L64.374 87.2728C64.374 87.2728 64.3776 86.8184 64.0408 87.0188C63.6826 87.2319 63.6891 87.6802 63.6891 87.6802V91.2115C63.6915 91.2094 63.5985 93.7338 65.5783 92.5559V92.5563Z" fill="#E40D0D"/>
<path d="M123.233 69.6813L87.2942 91.0624C86.1267 91.757 85.1802 93.0062 85.1802 93.8525V96.9173C85.1802 97.7636 86.1267 97.8865 87.2942 97.1919L123.233 75.8108C124.4 75.1162 125.347 73.867 125.347 73.0207V69.9559C125.347 69.1096 124.4 68.9866 123.233 69.6813Z" fill="white"/>
<path d="M98.8432 120.394L67.566 139.002C66.8386 139.435 66.249 140.643 66.249 141.701C66.249 142.759 66.8386 143.266 67.566 142.833L98.8432 124.225C99.5705 123.792 100.16 122.584 100.16 121.526C100.16 120.468 99.5705 119.961 98.8432 120.394Z" fill="white"/>
<path d="M117.523 145.674L67.3228 175.54C66.7298 175.893 66.249 176.865 66.249 177.712C66.249 178.558 66.7298 178.958 67.3228 178.605L117.523 148.739C118.116 148.386 118.597 147.414 118.597 146.568C118.597 145.721 118.116 145.321 117.523 145.674Z" fill="white"/>
<path d="M129.133 145.28L67.566 181.908C66.8386 182.341 66.249 183.378 66.249 184.224C66.249 185.071 66.8386 185.406 67.566 184.973L129.133 148.345C129.86 147.912 130.45 146.875 130.45 146.029C130.45 145.183 129.86 144.847 129.133 145.28Z" fill="white"/>
<path d="M69.8706 124.989L67.566 126.36C66.8386 126.792 66.249 127.829 66.249 128.676C66.249 129.522 66.8386 129.857 67.566 129.424L69.8706 128.053C70.5979 127.621 71.1875 126.584 71.1875 125.737C71.1875 124.891 70.5979 124.556 69.8706 124.989Z" fill="white"/>
<path d="M129.133 89.7313L118.597 95.9993C117.87 96.432 117.28 97.4688 117.28 98.3152C117.28 99.1615 117.87 99.4968 118.597 99.064L129.133 92.7961C129.86 92.3634 130.45 91.3265 130.45 90.4802C130.45 89.6339 129.86 89.2986 129.133 89.7313Z" fill="white"/>
<path d="M95.2215 109.906L75.1382 121.855C74.4109 122.287 73.8213 123.324 73.8213 124.171C73.8213 125.017 74.4109 125.352 75.1382 124.919L95.2215 112.971C95.9488 112.538 96.5384 111.502 96.5384 110.655C96.5384 109.809 95.9488 109.474 95.2215 109.906Z" fill="white"/>
<path d="M91.371 106.451L67.795 120.477C66.9412 120.985 66.249 122.083 66.249 122.929C66.249 123.775 66.9412 124.05 67.795 123.542L91.371 109.516C92.2248 109.008 92.917 107.91 92.917 107.063C92.917 106.217 92.2248 105.943 91.371 106.451Z" fill="white"/>
<path d="M143.948 80.917L134.4 86.5974C133.673 87.0301 133.083 88.0669 133.083 88.9132C133.083 89.7595 133.673 90.0948 134.4 89.6621L143.948 83.9818C144.676 83.5491 145.265 82.5122 145.265 81.6659C145.265 80.8196 144.676 80.4843 143.948 80.917Z" fill="white"/>
<path d="M66.084 151.568C66.084 149.875 67.2632 147.801 68.7179 146.936L101.641 127.349C103.096 126.483 104.275 127.154 104.275 128.846V136.508C104.275 138.201 103.096 140.275 101.641 141.14L68.7179 160.727C67.2632 161.593 66.084 160.922 66.084 159.23V151.568Z" fill="#CE0707"/>
<path d="M106.909 127.279C106.909 125.587 108.088 123.513 109.543 122.648L142.466 103.06C143.921 102.195 145.1 102.865 145.1 104.558V112.22C145.1 113.913 143.921 115.986 142.466 116.852L109.543 136.439C108.088 137.304 106.909 136.634 106.909 134.941V127.279Z" fill="#CE0707"/>
<path fill-rule="evenodd" clip-rule="evenodd" d="M149.635 38.2745C149.635 38.3616 149.628 38.4475 149.62 38.5347L150.084 38.6809C150.126 38.6944 150.137 38.757 150.11 38.8291L149.67 39.977C149.644 40.049 149.587 40.1061 149.536 40.1132L148.988 40.1831C148.874 40.3511 148.75 40.5115 148.616 40.6553L148.532 41.3837C148.526 41.4491 148.48 41.5227 148.425 41.5554L147.544 42.0791C147.489 42.1119 147.443 42.0933 147.436 42.0357L147.353 41.4069C147.219 41.4227 147.095 41.4115 146.981 41.3772L146.433 41.9593C146.384 42.0086 146.325 42.0234 146.299 41.9828L145.859 41.3587C145.832 41.318 145.843 41.2423 145.885 41.1791L146.349 40.4803C146.34 40.4036 146.334 40.323 146.334 40.2385C146.334 40.154 146.34 40.0655 146.349 39.9784L145.885 39.8321C145.843 39.8186 145.83 39.7573 145.859 39.6839L146.299 38.536C146.325 38.464 146.382 38.4069 146.433 38.3998L146.981 38.3299C147.095 38.1619 147.219 38.0016 147.353 37.8577L147.436 37.1293C147.443 37.0639 147.489 36.9903 147.544 36.9576L148.425 36.4339C148.48 36.4012 148.526 36.4198 148.532 36.4773L148.616 37.1061C148.75 37.0903 148.874 37.1015 148.988 37.1358L149.536 36.5537C149.584 36.5044 149.644 36.4896 149.67 36.5302L150.11 37.1544C150.137 37.195 150.126 37.2707 150.084 37.334L149.62 38.0327C149.628 38.1094 149.635 38.1875 149.635 38.2745ZM147.214 39.7148C147.214 40.209 147.56 40.4055 147.984 40.1528C148.409 39.9001 148.755 39.2925 148.755 38.7983C148.755 38.304 148.409 38.1075 147.984 38.3602C147.56 38.6129 147.214 39.2205 147.214 39.7148Z" fill="#F18686"/>
<path fill-rule="evenodd" clip-rule="evenodd" d="M140.721 40.9421L137.64 42.7751C137.396 42.9205 137.2 43.2675 137.2 43.5491V47.1342C137.2 47.4159 137.398 47.5285 137.64 47.3845L138.521 46.8608L139.025 47.1474C139.11 47.1962 139.249 47.1137 139.335 46.9627L139.841 46.0752L140.721 45.5515C140.963 45.4075 141.162 45.0591 141.162 44.7775V41.1924C141.162 40.9107 140.963 40.7981 140.721 40.9421ZM139.401 45.8249L138.961 46.0868V45.5746L139.401 45.3128V45.8249ZM139.658 43.9227L139.856 43.5693C139.982 43.3487 140.061 43.0967 140.061 42.8714C140.061 42.3054 139.667 42.0814 139.181 42.3708C138.78 42.6091 138.443 43.1192 138.336 43.6085C138.3 43.7728 138.388 43.8639 138.516 43.7879L138.582 43.7486C138.668 43.6976 138.736 43.5879 138.765 43.4761C138.824 43.241 138.989 42.9968 139.181 42.8829C139.423 42.7389 139.621 42.8515 139.621 43.1332C139.621 43.2741 139.572 43.4309 139.493 43.5702L139.22 44.0552C139.086 44.2939 138.994 44.5563 138.969 44.8037C138.954 44.946 139.042 45.0115 139.156 44.9434L139.225 44.9028C139.321 44.8452 139.399 44.7148 139.412 44.5969C139.44 44.334 139.531 44.1497 139.658 43.9227Z" fill="#F18686"/>
<path d="M164.058 38.7191L68.2513 95.7184C67.1603 96.3674 66.2759 97.9227 66.2759 99.1922V216.802C66.2759 218.072 67.1603 218.575 68.2513 217.926L164.058 160.926C165.149 160.277 166.034 158.722 166.034 157.453V39.8425C166.034 38.573 165.149 38.0701 164.058 38.7191Z" fill="#F4F4F4" stroke="#DCDCDC" stroke-width="0.766189"/>
<path fill-rule="evenodd" clip-rule="evenodd" d="M71.5439 114.064L161.096 60.786V153.878L71.5439 207.156V114.064Z" fill="white"/>
<path d="M77.1626 127.194L156.179 80.1843" stroke="#E6E6E6" stroke-width="0.766189" stroke-linecap="square"/>
<path d="M77.1626 181.977L156.179 134.967" stroke="#E6E6E6" stroke-width="0.766189" stroke-linecap="square"/>
<path d="M86.467 92.3899L87.1848 91.9629L89.1931 96.1927L88.2449 96.7568L87.8103 95.7742L85.7888 96.9768L85.3674 98.4688L84.439 99.0211L86.467 92.3899ZM87.5206 95.1191L86.8029 93.3394L86.072 95.9809L87.5206 95.1191ZM92.0861 93.9199L92.0729 93.9278C91.9673 94.2063 91.8061 94.4738 91.612 94.6924C91.4187 94.9092 91.2103 95.0846 90.9864 95.2178C90.7405 95.3641 90.5222 95.4441 90.3313 95.4581C90.1451 95.4733 89.978 95.4331 89.8407 95.3401C89.7026 95.2446 89.5973 95.0987 89.5312 94.9112C89.4597 94.7097 89.4241 94.4744 89.4259 94.2154C89.4259 93.9445 89.4631 93.6696 89.5378 93.3903C89.6076 93.1231 89.7138 92.852 89.8506 92.5912C89.9843 92.3378 90.1456 92.1054 90.3346 91.8934C90.5232 91.6816 90.7296 91.5089 90.9535 91.3757C91.1027 91.287 91.2344 91.2263 91.3486 91.1943C91.4625 91.1622 91.5636 91.148 91.6515 91.152C91.7391 91.1559 91.8138 91.1716 91.8754 91.1989C91.9366 91.2261 91.9873 91.2587 92.0268 91.2965L92.0466 91.2848V88.7027L92.8367 88.2326V94.025L92.0861 94.4716V93.9199ZM90.216 93.7453C90.216 93.8882 90.2368 94.0138 90.2786 94.1218C90.3201 94.2297 90.3816 94.3107 90.463 94.3646C90.544 94.4183 90.6417 94.4421 90.756 94.4354C90.8699 94.429 90.9996 94.3824 91.1445 94.2962C91.2893 94.2101 91.4187 94.1024 91.533 93.9732C91.6436 93.849 91.7432 93.7064 91.826 93.5537C91.9071 93.4035 91.9698 93.2463 92.0104 93.0915C92.0518 92.9339 92.0729 92.7835 92.0729 92.6406C92.0729 92.4973 92.0518 92.3719 92.0104 92.264C91.9698 92.1575 91.9071 92.075 91.826 92.0213C91.7432 91.9671 91.6436 91.943 91.533 91.9504C91.4187 91.9571 91.2893 92.0034 91.1445 92.0896C90.9996 92.1758 90.8699 92.2836 90.756 92.4127C90.6453 92.5369 90.5457 92.6795 90.463 92.8322C90.3819 92.9824 90.3192 93.1396 90.2786 93.2943C90.2368 93.4518 90.216 93.602 90.216 93.7453ZM93.8067 88.0233L95.229 87.1772C95.4222 87.0622 95.6109 86.9729 95.7952 86.9092C95.9796 86.8455 96.1442 86.8226 96.2891 86.8414C96.434 86.8598 96.5515 86.9267 96.6414 87.0418C96.7316 87.1566 96.7764 87.3392 96.7764 87.5897C96.7764 87.9062 96.7029 88.2119 96.5558 88.5063C96.4089 88.8005 96.2101 89.0656 95.9599 89.3014V89.3167C96.2471 89.1737 96.5155 89.164 96.7138 89.2896C96.8083 89.3506 96.8817 89.4437 96.9344 89.5682C96.9871 89.6924 97.0134 89.8442 97.0134 90.0231C97.0134 90.3242 96.9597 90.604 96.8521 90.8623C96.7462 91.1175 96.6015 91.3627 96.4307 91.5765C96.2575 91.7945 96.0619 91.9913 95.8446 92.1665C95.6273 92.3418 95.4113 92.4933 95.196 92.6214L93.8067 93.448V88.0233ZM94.3598 89.9928L95.1236 89.5384C95.2553 89.4601 95.3837 89.3733 95.5088 89.2786C95.6339 89.1835 95.7472 89.0739 95.8479 88.9504C95.949 88.8263 96.0303 88.6887 96.0915 88.5373C96.1531 88.3857 96.1837 88.2154 96.1837 88.0266C96.1837 87.858 96.1554 87.7381 96.0981 87.6676C96.0417 87.5972 95.9635 87.558 95.871 87.5537C95.7706 87.5498 95.6614 87.572 95.5483 87.6193C95.4275 87.6682 95.3053 87.7293 95.1829 87.8022L94.3598 88.2919V89.9928ZM94.3598 92.5213L95.2948 91.965C95.4311 91.8839 95.5661 91.7867 95.6998 91.6743C95.8272 91.5681 95.9495 91.441 96.0619 91.2979C96.1673 91.1636 96.2564 91.0107 96.322 90.852C96.3879 90.6925 96.4208 90.5262 96.4208 90.3527C96.4208 90.1634 96.3892 90.024 96.3253 89.9344C96.2645 89.8464 96.1786 89.7923 96.0751 89.7768C95.972 89.7615 95.8535 89.7784 95.7195 89.8275C95.5839 89.8773 95.4461 89.9439 95.308 90.0263L94.3598 90.5905V92.5213ZM97.852 85.2489L98.3656 84.9433V90.7357L97.852 91.0413V85.2489ZM99.1514 88.4753C99.1514 88.1941 99.1933 87.9141 99.2766 87.6346C99.3599 87.3552 99.4741 87.0892 99.619 86.8371C99.7638 86.5847 99.9373 86.3527 100.139 86.1407C100.341 85.9287 100.561 85.7521 100.798 85.6111C101.035 85.47 101.254 85.3854 101.456 85.3572C101.658 85.3291 101.831 85.3546 101.976 85.4347C102.121 85.5144 102.235 85.6445 102.319 85.8248C102.402 86.0051 102.444 86.2353 102.444 86.5165C102.444 86.7973 102.402 87.0777 102.319 87.3571C102.235 87.6366 102.121 87.9022 101.976 88.1546C101.831 88.4067 101.658 88.639 101.456 88.8511C101.254 89.0631 101.035 89.2397 100.798 89.3807C100.561 89.5217 100.341 89.6064 100.139 89.6345C99.9448 89.6639 99.7678 89.6375 99.619 89.5571C99.4721 89.475 99.3557 89.3424 99.2766 89.167C99.1933 88.9867 99.1514 88.7561 99.1514 88.4753ZM99.7046 88.1462C99.7046 88.3351 99.7299 88.495 99.7803 88.626C99.8307 88.7569 99.9044 88.8532 100.001 88.9161C100.097 88.9787 100.213 89.0047 100.347 88.994C100.481 88.9832 100.631 88.9284 100.798 88.8291C100.965 88.7298 101.115 88.606 101.249 88.4573C101.383 88.3086 101.498 88.1454 101.594 87.9681C101.691 87.7904 101.765 87.6063 101.815 87.4155C101.865 87.2246 101.891 87.0345 101.891 86.8456C101.891 86.6563 101.865 86.4967 101.815 86.3658C101.767 86.238 101.692 86.1393 101.594 86.0756C101.497 86.0128 101.379 85.9864 101.249 85.9978C101.106 86.0116 100.953 86.0678 100.798 86.1627C100.631 86.262 100.481 86.3858 100.347 86.5345C100.213 86.6832 100.097 86.846 100.001 87.0237C99.9044 87.201 99.8307 87.3854 99.7803 87.5763C99.7299 87.7672 99.7046 87.9569 99.7046 88.1462ZM105.376 83.8754C105.267 83.7874 105.148 83.7468 105.021 83.7537C104.888 83.7622 104.745 83.8125 104.599 83.901C104.428 84.0028 104.277 84.1274 104.145 84.2747C104.013 84.422 103.905 84.5824 103.819 84.7559C103.733 84.9295 103.669 85.1098 103.625 85.2967C103.581 85.4837 103.559 85.6692 103.559 85.8531C103.559 86.037 103.584 86.1943 103.635 86.3252C103.685 86.4562 103.755 86.556 103.845 86.6251C103.935 86.6942 104.044 86.7254 104.171 86.7185C104.299 86.7117 104.441 86.6613 104.599 86.5673C104.937 86.3661 105.198 86.0626 105.383 85.6567L105.765 85.8509C105.616 86.1389 105.44 86.389 105.238 86.6011C105.036 86.8131 104.823 86.9858 104.599 87.119C104.362 87.26 104.145 87.3433 103.947 87.3689C103.75 87.3945 103.582 87.3641 103.444 87.2778C103.305 87.1915 103.198 87.0564 103.121 86.8721C103.044 86.6879 103.006 86.458 103.006 86.1822C103.006 85.9113 103.044 85.6382 103.121 85.3627C103.198 85.0872 103.306 84.8234 103.447 84.5712C103.59 84.3158 103.761 84.0795 103.951 83.8769C104.157 83.6575 104.377 83.4782 104.599 83.3493C104.827 83.2136 105.044 83.1309 105.248 83.1014C105.453 83.0721 105.637 83.1096 105.785 83.2111L105.376 83.8754ZM106.3 80.2225L106.814 79.917V83.702L108.217 81.2892L108.947 80.8543L107.459 83.3717L109.099 84.35L108.342 84.8005L106.814 83.8246V85.7094L106.3 86.0149V80.2225Z" fill="black"/>
<path fill-rule="evenodd" clip-rule="evenodd" d="M74.2536 97.1845L71.9219 101.285C71.8542 101.404 71.8005 101.53 71.7639 101.654C71.7273 101.779 71.7085 101.9 71.7085 102.012V105.85C71.7085 106.074 71.7854 106.244 71.9219 106.322L74.2536 107.648C74.3904 107.726 74.5755 107.705 74.7689 107.59L78.0672 105.628C78.2603 105.513 78.4457 105.313 78.5824 105.073L80.9142 100.972C81.0507 100.732 81.1276 100.471 81.1276 100.246V96.408C81.1276 96.183 81.0507 96.0134 80.9142 95.9354L78.5824 94.6091C78.5148 94.5706 78.4345 94.5559 78.346 94.5659C78.2576 94.5759 78.1629 94.6104 78.0672 94.6674L74.7689 96.6296C74.5758 96.7445 74.3904 96.9443 74.2536 97.1845Z" fill="#F40D12"/>
<path fill-rule="evenodd" clip-rule="evenodd" d="M76.3058 105.168C77.8663 104.24 78.2365 102.354 78.2365 102.354L79.132 98.827C79.132 98.827 79.2131 98.4681 79.1982 98.4735C78.364 98.7884 78.1867 99.5781 78.1867 99.5781C78.1867 99.5781 77.8663 100.737 77.8165 100.767C77.7668 100.796 77.7608 100.728 77.7608 100.728V97.2479C77.7608 97.2479 77.7763 96.7896 77.3802 97.0253C76.9839 97.2611 77.0041 97.6988 77.0041 97.6988L77.0047 100.27C77.0047 100.27 77.0101 100.37 76.9359 100.414C76.8697 100.454 76.8733 100.352 76.8733 100.352V97.2537C76.8733 97.2537 76.898 96.7327 76.4972 96.9712C76.0966 97.2095 76.1181 97.7065 76.1181 97.7065L76.1145 100.765C76.1145 100.765 76.1196 100.856 76.0534 100.895C75.992 100.932 75.9941 100.837 75.9941 100.837V98.2747C75.9941 98.2747 76.0165 97.7399 75.6085 97.9826C75.2076 98.2211 75.2291 98.7396 75.2291 98.7396L75.2255 101.447C75.2255 101.447 75.233 101.522 75.1698 101.559C75.103 101.599 75.1045 101.519 75.1045 101.519L75.1015 99.885C75.1015 99.885 75.1051 99.4306 74.7683 99.631C74.4101 99.8441 74.4167 100.292 74.4167 100.292V103.824C74.419 103.822 74.3261 106.346 76.3058 105.168V105.168Z" fill="white"/>
<path d="M133.959 82.2934L98.0208 103.675C96.8532 104.369 95.9067 105.618 95.9067 106.465V109.529C95.9067 110.376 96.8532 110.499 98.0208 109.804L133.959 88.423C135.127 87.7283 136.073 86.4792 136.073 85.6329V82.5681C136.073 81.7218 135.127 81.5988 133.959 82.2934Z" fill="#333333"/>
<path d="M109.57 133.006L78.293 151.614C77.5657 152.047 76.9761 153.255 76.9761 154.313C76.9761 155.371 77.5657 155.878 78.293 155.445L109.57 136.837C110.298 136.404 110.887 135.196 110.887 134.138C110.887 133.08 110.298 132.573 109.57 133.006Z" fill="#333333"/>
<path d="M128.25 158.286L78.0499 188.153C77.4568 188.505 76.9761 189.478 76.9761 190.324C76.9761 191.17 77.4568 191.57 78.0499 191.217L128.25 161.351C128.844 160.998 129.324 160.026 129.324 159.18C129.324 158.334 128.844 157.934 128.25 158.286Z" fill="#2284F7"/>
<path d="M139.86 157.892L78.293 194.521C77.5657 194.953 76.9761 195.99 76.9761 196.837C76.9761 197.683 77.5657 198.018 78.293 197.585L139.86 160.957C140.587 160.524 141.177 159.487 141.177 158.641C141.177 157.795 140.587 157.46 139.86 157.892Z" fill="#2284F7"/>
<path d="M80.5976 137.601L78.293 138.972C77.5657 139.405 76.9761 140.441 76.9761 141.288C76.9761 142.134 77.5657 142.469 78.293 142.037L80.5976 140.666C81.325 140.233 81.9146 139.196 81.9146 138.35C81.9146 137.503 81.325 137.168 80.5976 137.601Z" fill="#CE0707"/>
<path d="M139.86 102.344L129.324 108.611C128.597 109.044 128.007 110.081 128.007 110.927C128.007 111.774 128.597 112.109 129.324 111.676L139.86 105.408C140.587 104.976 141.177 103.939 141.177 103.092C141.177 102.246 140.587 101.911 139.86 102.344Z" fill="#CE0707"/>
<path d="M105.949 122.519L85.8653 134.467C85.138 134.9 84.5483 135.936 84.5483 136.783C84.5483 137.629 85.138 137.964 85.8653 137.532L105.949 125.583C106.676 125.151 107.265 124.114 107.265 123.267C107.265 122.421 106.676 122.086 105.949 122.519Z" fill="#333333"/>
<path d="M102.098 119.063L78.522 133.089C77.6682 133.597 76.9761 134.695 76.9761 135.541C76.9761 136.388 77.6682 136.662 78.522 136.154L102.098 122.128C102.952 121.62 103.644 120.522 103.644 119.676C103.644 118.829 102.952 118.555 102.098 119.063Z" fill="#333333"/>
<path d="M154.675 93.5292L145.127 99.2095C144.4 99.6423 143.811 100.679 143.811 101.525C143.811 102.372 144.4 102.707 145.127 102.274L154.675 96.594C155.403 96.1613 155.992 95.1244 155.992 94.2781C155.992 93.4318 155.403 93.0965 154.675 93.5292Z" fill="#333333"/>
<path d="M76.8115 164.18C76.8115 162.487 77.9907 160.414 79.4454 159.548L112.369 139.961C113.823 139.095 115.003 139.766 115.003 141.459V149.12C115.003 150.813 113.823 152.887 112.369 153.752L79.4454 173.34C77.9907 174.205 76.8115 173.534 76.8115 171.842V164.18Z" fill="#E6E6E6"/>
<path d="M117.636 139.892C117.636 138.199 118.815 136.125 120.27 135.26L153.194 115.672C154.648 114.807 155.827 115.478 155.827 117.17V124.832C155.827 126.525 154.648 128.598 153.194 129.464L120.27 149.051C118.815 149.917 117.636 149.246 117.636 147.553V139.892Z" fill="#E6E6E6"/>
<path fill-rule="evenodd" clip-rule="evenodd" d="M159.054 53.1116C159.054 53.1986 159.047 53.2845 159.039 53.3717L159.503 53.518C159.545 53.5315 159.556 53.5941 159.529 53.6661L159.089 54.814C159.063 54.8861 159.006 54.9431 158.955 54.9502L158.407 55.0202C158.292 55.1881 158.169 55.3485 158.035 55.4924L157.951 56.2207C157.945 56.2861 157.899 56.3597 157.844 56.3924L156.963 56.9162C156.908 56.9489 156.862 56.9303 156.855 56.8728L156.772 56.2439C156.638 56.2598 156.514 56.2486 156.4 56.2142L155.852 56.7963C155.803 56.8456 155.744 56.8605 155.718 56.8199L155.277 56.1957C155.251 56.1551 155.262 56.0794 155.304 56.0161L155.768 55.3173C155.759 55.2406 155.753 55.16 155.753 55.0755C155.753 54.991 155.759 54.9026 155.768 54.8154L155.304 54.6691C155.262 54.6556 155.249 54.5943 155.277 54.521L155.718 53.3731C155.744 53.301 155.801 53.2439 155.852 53.2369L156.4 53.1669C156.514 52.999 156.638 52.8386 156.772 52.6947L156.855 51.9663C156.862 51.901 156.908 51.8274 156.963 51.7946L157.844 51.2709C157.899 51.2382 157.945 51.2568 157.951 51.3143L158.035 51.9432C158.169 51.9273 158.292 51.9385 158.407 51.9728L158.955 51.3908C159.003 51.3415 159.063 51.3266 159.089 51.3672L159.529 51.9914C159.556 52.032 159.545 52.1077 159.503 52.171L159.039 52.8698C159.047 52.9465 159.054 53.0245 159.054 53.1116ZM156.633 54.5518C156.633 55.046 156.978 55.2425 157.403 54.9898C157.828 54.7371 158.173 54.1295 158.173 53.6353C158.173 53.1411 157.828 52.9446 157.403 53.1973C156.978 53.45 156.633 54.0576 156.633 54.5518Z" fill="#999999"/>
<path fill-rule="evenodd" clip-rule="evenodd" d="M150.141 55.7792L147.06 57.6122C146.815 57.7576 146.62 58.1046 146.62 58.3862V61.9713C146.62 62.253 146.818 62.3656 147.06 62.2216L147.94 61.6979L148.444 61.9845C148.53 62.0333 148.669 61.9508 148.754 61.7998L149.261 60.9123L150.141 60.3886C150.383 60.2445 150.581 59.8962 150.581 59.6146V56.0295C150.581 55.7478 150.383 55.6352 150.141 55.7792ZM148.82 60.662L148.38 60.9239V60.4117L148.82 60.1499V60.662ZM149.078 58.7598L149.276 58.4064C149.401 58.1858 149.48 57.9338 149.48 57.7085C149.48 57.1425 149.086 56.9185 148.6 57.2079C148.2 57.4462 147.863 57.9563 147.755 58.4456C147.72 58.6099 147.808 58.701 147.935 58.625L148.002 58.5857C148.087 58.5347 148.156 58.4249 148.184 58.3132C148.244 58.0781 148.409 57.8339 148.6 57.72C148.842 57.576 149.04 57.6886 149.04 57.9703C149.04 58.1112 148.992 58.268 148.913 58.4073L148.64 58.8923C148.505 59.131 148.413 59.3934 148.389 59.6408C148.373 59.7831 148.461 59.8486 148.576 59.7805L148.644 59.7399C148.741 59.6823 148.818 59.5519 148.831 59.434C148.86 59.1711 148.95 58.9868 149.078 58.7598Z" fill="#999999"/>
</svg>
