<svg width="294" height="45" viewBox="0 0 294 45" fill="none" xmlns="http://www.w3.org/2000/svg">
<path fill-rule="evenodd" clip-rule="evenodd" d="M13.5085 0L0.5 13.0806V31.5796L13.5085 44.6602H31.9051L44.914 31.5796V13.0806L31.9051 0H13.5085Z" fill="#D8D9D9"/>
<path fill-rule="evenodd" clip-rule="evenodd" d="M13.6302 0.294922L0.793091 13.2027V31.4574L13.6302 44.3652H31.7842L44.6208 31.4574V13.2027L31.7842 0.294922H13.6302Z" fill="white"/>
<path fill-rule="evenodd" clip-rule="evenodd" d="M14.4768 42.3099L2.83728 30.6058V14.0544L14.4768 2.35034H30.9374L42.5765 14.0544V30.6058L30.9374 42.3099H14.4768Z" fill="#ED1E45"/>
<path fill-rule="evenodd" clip-rule="evenodd" d="M11.852 23.456L11.541 22.016C11.3472 21.2325 11.1606 20.4005 10.9811 19.5203C10.8012 18.6405 10.6213 17.7923 10.4419 16.9764H10.3591C10.193 17.8085 10.0234 18.6603 9.85113 19.5324C9.67794 20.4045 9.4949 21.2325 9.30158 22.016L8.96952 23.456H11.852ZM12.474 26.2158H8.34747L7.51821 29.9355H4.40796L8.63791 14.2886H12.308L16.5384 29.9355H13.3033L12.474 26.2158Z" fill="white"/>
<path fill-rule="evenodd" clip-rule="evenodd" d="M23.1945 27.1998C24.8669 27.1998 25.7033 26.4879 25.7033 25.0641C25.7033 24.376 25.4961 23.8761 25.0812 23.5642C24.6664 23.2519 24.0372 23.0962 23.1945 23.0962H21.4734V27.1998H23.1945ZM22.9041 20.6001C23.6505 20.6001 24.1929 20.4286 24.5317 20.0844C24.8705 19.7406 25.0401 19.2726 25.0401 18.6804C25.0401 18.0886 24.8669 17.6647 24.5214 17.4087C24.1759 17.1526 23.6434 17.0244 22.9247 17.0244H21.4734V20.6001H22.9041ZM18.4253 14.2888H23.0491C23.7543 14.2888 24.4073 14.3487 25.0087 14.4688C25.6102 14.589 26.1351 14.8009 26.5849 15.1047C27.0338 15.4089 27.3864 15.8089 27.6424 16.3044C27.8979 16.8007 28.0259 17.4249 28.0259 18.1764C28.0259 18.5287 27.9807 18.8806 27.8912 19.2325C27.8008 19.5844 27.6661 19.9125 27.4867 20.2162C27.3067 20.5204 27.0718 20.7922 26.7818 21.0321C26.4914 21.2724 26.1526 21.4483 25.7655 21.5604V21.6562C26.733 21.8641 27.4625 22.2646 27.9534 22.8559C28.4439 23.4481 28.6891 24.2721 28.6891 25.3278C28.6891 26.1279 28.5544 26.8159 28.285 27.3919C28.0156 27.9679 27.6424 28.444 27.1653 28.8198C26.6883 29.196 26.1316 29.4759 25.4961 29.6595C24.8602 29.844 24.1759 29.9358 23.4433 29.9358H18.4253V14.2888Z" fill="white"/>
<path fill-rule="evenodd" clip-rule="evenodd" d="M35.5319 21.8241C37.1909 21.8241 38.0202 20.9925 38.0202 19.3284C38.0202 18.5125 37.8094 17.9365 37.3878 17.6004C36.9658 17.2642 36.3473 17.0964 35.5319 17.0964H33.8318V21.8241H35.5319ZM30.7833 14.2888H35.7186C36.4512 14.2888 37.139 14.3725 37.7816 14.5408C38.4247 14.7087 38.9846 14.9886 39.4612 15.3805C39.9382 15.7729 40.3146 16.2927 40.5916 16.9407C40.8677 17.5882 41.006 18.3843 41.006 19.3284C41.006 20.2401 40.8641 21.0321 40.5809 21.7039C40.2976 22.3762 39.9141 22.9279 39.4303 23.3599C38.9461 23.7919 38.3862 24.1123 37.7507 24.3198C37.1144 24.5281 36.4373 24.6321 35.7186 24.6321H33.8318V29.9353H30.7833V14.2888Z" fill="white"/>
<path d="M58.1433 21.8762L57.3448 24.4522H62.4195L61.6209 21.8762C61.3118 20.9316 61.0199 19.9957 60.7451 19.0683C60.4703 18.1238 60.1956 17.1621 59.9208 16.1832H59.8177C59.5601 17.1621 59.294 18.1238 59.0192 19.0683C58.7444 19.9957 58.4525 20.9316 58.1433 21.8762ZM52.9913 31.3301L58.7101 14.4315H61.1315L66.8502 31.3301H64.5576L62.9605 26.1781H56.8038L55.1809 31.3301H52.9913ZM73.3146 31.6392C71.7518 31.6392 70.4981 31.0725 69.5536 29.939C68.6091 28.7884 68.1368 27.1741 68.1368 25.0962C68.1368 23.7395 68.3858 22.5717 68.8838 21.5928C69.399 20.5968 70.0688 19.8325 70.8931 19.3002C71.7346 18.7678 72.6276 18.5016 73.5722 18.5016C74.2934 18.5016 74.9203 18.6304 75.4526 18.888C75.985 19.1456 76.526 19.4977 77.0755 19.9442L76.9725 17.8061V12.989H79.1106V31.3301H77.3589L77.1786 29.8618H77.1013C76.6204 30.3426 76.0537 30.7634 75.4011 31.124C74.7485 31.4675 74.053 31.6392 73.3146 31.6392ZM73.7782 29.8618C74.8773 29.8618 75.9421 29.2865 76.9725 28.1358V21.5928C76.4401 21.112 75.9249 20.7771 75.4269 20.5882C74.946 20.3821 74.448 20.279 73.9328 20.279C73.263 20.279 72.6534 20.4851 72.1038 20.8973C71.5715 21.2923 71.1421 21.8504 70.8158 22.5717C70.4895 23.2758 70.3264 24.1087 70.3264 25.0704C70.3264 26.5645 70.6269 27.7409 71.228 28.5995C71.8291 29.441 72.6791 29.8618 73.7782 29.8618ZM88.8655 31.6392C88.2816 31.6392 87.672 31.5018 87.0366 31.227C86.4183 30.9351 85.8344 30.5401 85.2849 30.0421H85.2076L85.0273 31.3301H83.3271V12.989H85.4395V17.9864L85.3879 20.2533C85.9547 19.7553 86.5729 19.3431 87.2427 19.0168C87.9296 18.6733 88.6165 18.5016 89.3035 18.5016C90.9349 18.5016 92.1714 19.0769 93.0129 20.2275C93.8544 21.3781 94.2751 22.9237 94.2751 24.8643C94.2751 26.2897 94.0175 27.509 93.5023 28.5222C93.0043 29.5355 92.3431 30.3083 91.5188 30.8406C90.7117 31.373 89.8272 31.6392 88.8655 31.6392ZM88.5049 29.8618C89.5353 29.8618 90.3854 29.4238 91.0551 28.548C91.7421 27.655 92.0855 26.4357 92.0855 24.8901C92.0855 23.5162 91.8279 22.4085 91.3127 21.567C90.8147 20.7084 89.9732 20.279 88.7883 20.279C88.2559 20.279 87.7149 20.425 87.1654 20.717C86.6158 21.0089 86.0405 21.4297 85.4395 21.9792V28.548C85.989 29.0289 86.53 29.3723 87.0623 29.5784C87.6119 29.7673 88.0927 29.8618 88.5049 29.8618ZM99.8067 31.6392C99.0167 31.6392 98.4414 31.3988 98.0808 30.9179C97.7373 30.4199 97.5656 29.7158 97.5656 28.8056V12.989H99.6779V28.9602C99.6779 29.2865 99.738 29.5269 99.8582 29.6814C99.9784 29.8188 100.116 29.8875 100.27 29.8875C100.339 29.8875 100.399 29.8875 100.451 29.8875C100.519 29.8703 100.614 29.8532 100.734 29.836L101.017 31.4331C100.88 31.5018 100.717 31.5533 100.528 31.5877C100.339 31.622 100.099 31.6392 99.8067 31.6392ZM109 31.6392C107.987 31.6392 107.034 31.3816 106.141 30.8664C105.265 30.3512 104.552 29.6042 104.003 28.6253C103.47 27.6464 103.204 26.47 103.204 25.0962C103.204 23.6879 103.47 22.4944 104.003 21.5155C104.552 20.5366 105.265 19.7896 106.141 19.2744C107.034 18.7592 107.987 18.5016 109 18.5016C110.03 18.5016 110.984 18.7592 111.859 19.2744C112.735 19.7896 113.439 20.5366 113.972 21.5155C114.521 22.4944 114.796 23.6879 114.796 25.0962C114.796 26.47 114.521 27.6464 113.972 28.6253C113.439 29.6042 112.735 30.3512 111.859 30.8664C110.984 31.3816 110.03 31.6392 109 31.6392ZM109 29.8875C110.082 29.8875 110.949 29.4496 111.602 28.5738C112.272 27.6807 112.606 26.5215 112.606 25.0962C112.606 23.6536 112.272 22.4858 111.602 21.5928C110.949 20.6998 110.082 20.2533 109 20.2533C107.935 20.2533 107.068 20.6998 106.398 21.5928C105.728 22.4858 105.394 23.6536 105.394 25.0962C105.394 26.5215 105.728 27.6807 106.398 28.5738C107.068 29.4496 107.935 29.8875 109 29.8875ZM123.039 31.6392C121.94 31.6392 120.944 31.3816 120.051 30.8664C119.158 30.3512 118.454 29.6042 117.938 28.6253C117.423 27.6464 117.166 26.47 117.166 25.0962C117.166 23.6879 117.44 22.4944 117.99 21.5155C118.557 20.5366 119.295 19.7896 120.205 19.2744C121.133 18.7592 122.129 18.5016 123.194 18.5016C124.018 18.5016 124.722 18.6476 125.306 18.9395C125.907 19.2315 126.422 19.5749 126.851 19.9699L125.77 21.361C125.409 21.0347 125.022 20.7685 124.61 20.5624C124.215 20.3563 123.769 20.2533 123.271 20.2533C122.515 20.2533 121.837 20.4594 121.236 20.8715C120.652 21.2665 120.188 21.8332 119.845 22.5717C119.518 23.293 119.355 24.1345 119.355 25.0962C119.355 26.5215 119.707 27.6807 120.411 28.5738C121.133 29.4496 122.069 29.8875 123.219 29.8875C123.803 29.8875 124.344 29.7673 124.842 29.5269C125.34 29.2693 125.778 28.9687 126.156 28.6253L127.083 30.0421C126.517 30.5401 125.89 30.9351 125.203 31.227C124.516 31.5018 123.795 31.6392 123.039 31.6392ZM129.841 31.3301V12.989H131.928V25.4053H132.005L137.337 18.8107H139.681L135.482 23.8339L140.248 31.3301H137.93L134.272 25.3022L131.928 28.0328V31.3301H129.841ZM142.466 31.3301V14.5346H148.237C149.473 14.5346 150.589 14.7063 151.585 15.0498C152.599 15.3761 153.406 15.9342 154.007 16.7242C154.608 17.5141 154.909 18.5875 154.909 19.9442C154.909 21.2493 154.608 22.3227 154.007 23.1642C153.406 24.0057 152.607 24.6325 151.611 25.0446C150.615 25.4396 149.525 25.6371 148.34 25.6371H146.253V31.3301H142.466ZM146.253 22.6232H148.108C150.169 22.6232 151.199 21.7302 151.199 19.9442C151.199 19.0683 150.924 18.4501 150.375 18.0894C149.825 17.7288 149.035 17.5485 148.005 17.5485H146.253V22.6232ZM160.98 31.6392C159.675 31.6392 158.765 31.2528 158.25 30.48C157.752 29.69 157.503 28.651 157.503 27.363V13.2723H161.289V27.5176C161.289 27.9126 161.358 28.1874 161.495 28.3419C161.65 28.4965 161.805 28.5738 161.959 28.5738C162.045 28.5738 162.114 28.5738 162.165 28.5738C162.234 28.5566 162.32 28.5394 162.423 28.5222L162.886 31.3301C162.68 31.4159 162.414 31.4846 162.088 31.5362C161.779 31.6049 161.41 31.6392 160.98 31.6392ZM168.712 31.6392C167.321 31.6392 166.307 31.1841 165.672 30.2739C165.054 29.3466 164.745 28.0843 164.745 26.4872V18.5531H168.531V25.9978C168.531 26.9079 168.66 27.5434 168.918 27.904C169.175 28.2475 169.579 28.4192 170.128 28.4192C170.609 28.4192 171.013 28.3076 171.339 28.0843C171.665 27.8611 172.017 27.5004 172.395 27.0024V18.5531H176.182V31.3301H173.091L172.807 29.5526H172.73C172.198 30.1881 171.614 30.6947 170.979 31.0725C170.343 31.4503 169.587 31.6392 168.712 31.6392ZM183.275 31.6392C182.434 31.6392 181.567 31.4761 180.674 31.1498C179.798 30.8235 179.033 30.3941 178.381 29.8618L180.081 27.4918C180.665 27.9212 181.223 28.2561 181.755 28.4965C182.305 28.7197 182.846 28.8314 183.378 28.8314C183.945 28.8314 184.357 28.7369 184.615 28.548C184.872 28.3419 185.001 28.0757 185.001 27.7494C185.001 27.4575 184.872 27.2171 184.615 27.0282C184.374 26.8393 184.057 26.6675 183.662 26.513C183.267 26.3412 182.846 26.1695 182.399 25.9978C181.884 25.7917 181.369 25.5341 180.854 25.225C180.356 24.9158 179.935 24.5209 179.592 24.04C179.248 23.542 179.076 22.9409 179.076 22.2368C179.076 21.0518 179.523 20.0901 180.416 19.3517C181.326 18.6132 182.511 18.244 183.971 18.244C184.95 18.244 185.808 18.4157 186.547 18.7592C187.302 19.0855 187.946 19.4547 188.479 19.8669L186.779 22.1338C186.332 21.7903 185.886 21.5241 185.439 21.3352C184.993 21.1463 184.546 21.0518 184.1 21.0518C183.121 21.0518 182.631 21.3867 182.631 22.0565C182.631 22.4686 182.872 22.7863 183.353 23.0096C183.851 23.2157 184.426 23.4389 185.078 23.6794C185.628 23.8683 186.16 24.1173 186.676 24.4264C187.208 24.7183 187.646 25.1133 187.989 25.6114C188.35 26.0922 188.53 26.7276 188.53 27.5176C188.53 28.6682 188.084 29.6471 187.191 30.4542C186.298 31.2442 184.993 31.6392 183.275 31.6392Z" fill="black"/>
<path d="M196.736 31.3301V14.4315H201.553C202.824 14.4315 203.932 14.5861 204.876 14.8952C205.821 15.2043 206.559 15.7281 207.092 16.4666C207.624 17.1878 207.89 18.1667 207.89 19.4032C207.89 21.1721 207.315 22.4858 206.164 23.3445C205.014 24.2031 203.511 24.6325 201.656 24.6325H198.874V31.3301H196.736ZM198.874 22.8808H201.399C202.876 22.8808 203.966 22.606 204.67 22.0565C205.392 21.4898 205.752 20.6053 205.752 19.4032C205.752 18.1839 205.374 17.3424 204.619 16.8787C203.88 16.3979 202.773 16.1574 201.296 16.1574H198.874V22.8808ZM211.121 31.3301V18.8107H212.872L213.053 21.0776H213.13C213.559 20.2876 214.083 19.6608 214.701 19.1971C215.32 18.7334 215.981 18.5016 216.685 18.5016C217.183 18.5016 217.629 18.5875 218.024 18.7592L217.612 20.6139C217.406 20.5452 217.217 20.4937 217.046 20.4594C216.874 20.425 216.659 20.4078 216.402 20.4078C215.869 20.4078 215.311 20.6225 214.727 21.0518C214.16 21.4812 213.662 22.2282 213.233 23.293V31.3301H211.121ZM224.874 31.6392C223.758 31.6392 222.745 31.3816 221.835 30.8664C220.925 30.334 220.203 29.5784 219.671 28.5995C219.139 27.6206 218.872 26.4529 218.872 25.0962C218.872 23.7223 219.139 22.5459 219.671 21.567C220.22 20.5882 220.925 19.8325 221.783 19.3002C222.642 18.7678 223.543 18.5016 224.488 18.5016C226.085 18.5016 227.313 19.034 228.172 20.0987C229.048 21.1635 229.485 22.5889 229.485 24.3749C229.485 24.5981 229.477 24.8214 229.46 25.0446C229.46 25.2507 229.443 25.431 229.408 25.5856H220.959C221.045 26.9079 221.457 27.9641 222.195 28.7541C222.951 29.5441 223.93 29.939 225.132 29.939C225.733 29.939 226.283 29.8532 226.781 29.6814C227.296 29.4925 227.785 29.2521 228.249 28.9602L228.996 30.3512C228.464 30.6947 227.854 30.9952 227.167 31.2528C226.497 31.5104 225.733 31.6392 224.874 31.6392ZM220.933 24.0658H227.631C227.631 22.7949 227.356 21.8332 226.806 21.1806C226.274 20.5109 225.518 20.176 224.54 20.176C223.664 20.176 222.874 20.5195 222.17 21.2064C221.483 21.8762 221.071 22.8293 220.933 24.0658ZM232.579 31.3301V18.8107H234.331L234.511 20.6139H234.588C235.138 20.0129 235.739 19.5148 236.392 19.1198C237.044 18.7077 237.74 18.5016 238.478 18.5016C239.44 18.5016 240.187 18.7163 240.719 19.1456C241.269 19.5578 241.672 20.1417 241.93 20.8973C242.583 20.1932 243.244 19.6179 243.913 19.1714C244.583 18.7249 245.296 18.5016 246.052 18.5016C247.34 18.5016 248.293 18.9224 248.911 19.7638C249.546 20.5882 249.864 21.7989 249.864 23.396V31.3301H247.752V23.6794C247.752 22.5116 247.563 21.6615 247.185 21.1291C246.807 20.5968 246.223 20.3306 245.433 20.3306C244.506 20.3306 243.458 20.9746 242.291 22.2626V31.3301H240.178V23.6794C240.178 22.5116 239.989 21.6615 239.612 21.1291C239.234 20.5968 238.641 20.3306 237.834 20.3306C236.907 20.3306 235.859 20.9746 234.691 22.2626V31.3301H232.579ZM253.937 31.3301V18.8107H256.049V31.3301H253.937ZM255.019 16.2347C254.606 16.2347 254.263 16.1145 253.988 15.8741C253.731 15.6165 253.602 15.273 253.602 14.8437C253.602 14.4315 253.731 14.0966 253.988 13.839C254.263 13.5814 254.606 13.4526 255.019 13.4526C255.431 13.4526 255.766 13.5814 256.023 13.839C256.298 14.0966 256.435 14.4315 256.435 14.8437C256.435 15.273 256.298 15.6165 256.023 15.8741C255.766 16.1145 255.431 16.2347 255.019 16.2347ZM263.934 31.6392C262.612 31.6392 261.641 31.227 261.023 30.4027C260.405 29.5612 260.096 28.3419 260.096 26.7448V18.8107H262.234V26.4614C262.234 27.6292 262.414 28.4793 262.775 29.0117C263.153 29.5441 263.754 29.8102 264.578 29.8102C265.231 29.8102 265.806 29.6471 266.304 29.3208C266.819 28.9773 267.369 28.4364 267.953 27.6979V18.8107H270.065V31.3301H268.313L268.133 29.3723H268.056C267.472 30.0593 266.853 30.6088 266.201 31.021C265.548 31.4331 264.793 31.6392 263.934 31.6392ZM274.288 31.3301V18.8107H276.04L276.22 20.6139H276.297C276.847 20.0129 277.448 19.5148 278.101 19.1198C278.753 18.7077 279.449 18.5016 280.187 18.5016C281.149 18.5016 281.896 18.7163 282.428 19.1456C282.978 19.5578 283.381 20.1417 283.639 20.8973C284.292 20.1932 284.953 19.6179 285.623 19.1714C286.292 18.7249 287.005 18.5016 287.761 18.5016C289.049 18.5016 290.002 18.9224 290.62 19.7638C291.255 20.5882 291.573 21.7989 291.573 23.396V31.3301H289.461V23.6794C289.461 22.5116 289.272 21.6615 288.894 21.1291C288.516 20.5968 287.932 20.3306 287.142 20.3306C286.215 20.3306 285.167 20.9746 284 22.2626V31.3301H281.887V23.6794C281.887 22.5116 281.698 21.6615 281.321 21.1291C280.943 20.5968 280.35 20.3306 279.543 20.3306C278.616 20.3306 277.568 20.9746 276.4 22.2626V31.3301H274.288Z" fill="#ED1E45"/>
</svg>
