<svg width="261" height="48" viewBox="0 0 261 48" fill="none" xmlns="http://www.w3.org/2000/svg">
<path fill-rule="evenodd" clip-rule="evenodd" d="M13.662 0.500122L0 14.1621V33.4833L13.662 47.1453H32.9827L46.6451 33.4833V14.1621L32.9827 0.500122H13.662Z" fill="#D8D9D9"/>
<path fill-rule="evenodd" clip-rule="evenodd" d="M13.7898 0.808105L0.307861 14.2896V33.3556L13.7898 46.8371H32.8558L46.3373 33.3556V14.2896L32.8558 0.808105H13.7898Z" fill="white"/>
<path fill-rule="evenodd" clip-rule="evenodd" d="M14.6789 44.6904L2.45471 32.4661V15.1791L14.6789 2.95483H31.9665L44.1902 15.1791V32.4661L31.9665 44.6904H14.6789Z" fill="#ED1E45"/>
<path fill-rule="evenodd" clip-rule="evenodd" d="M11.9223 24.9984L11.5957 23.4944C11.3922 22.6762 11.1962 21.8071 11.0077 20.8878C10.8188 19.969 10.6298 19.083 10.4414 18.2309H10.3544C10.1801 19.0999 10.0019 19.9896 9.82098 20.9005C9.63909 21.8114 9.44686 22.6762 9.24382 23.4944L8.89508 24.9984H11.9223ZM12.5756 27.8809H8.24178L7.37087 31.766H4.10437L8.54681 15.4236H12.4013L16.8442 31.766H13.4466L12.5756 27.8809Z" fill="white"/>
<path fill-rule="evenodd" clip-rule="evenodd" d="M23.8345 28.9086C25.5909 28.9086 26.4693 28.1651 26.4693 26.678C26.4693 25.9593 26.2517 25.4372 25.816 25.1115C25.3803 24.7853 24.7195 24.6227 23.8345 24.6227H22.0269V28.9086H23.8345ZM23.5294 22.0156C24.3134 22.0156 24.883 21.8365 25.2388 21.477C25.5946 21.1179 25.7728 20.6291 25.7728 20.0106C25.7728 19.3925 25.5909 18.9498 25.228 18.6823C24.8652 18.4149 24.3059 18.281 23.5511 18.281H22.0269V22.0156H23.5294ZM18.8257 15.4238H23.6817C24.4224 15.4238 25.1082 15.4863 25.7399 15.6118C26.3715 15.7373 26.9228 15.9587 27.3952 16.2759C27.8666 16.5937 28.237 17.0115 28.5058 17.529C28.7742 18.0474 28.9086 18.6993 28.9086 19.4842C28.9086 19.8522 28.8611 20.2197 28.7671 20.5872C28.6722 20.9548 28.5307 21.2974 28.3422 21.6147C28.1533 21.9324 27.9066 22.2163 27.602 22.4668C27.297 22.7178 26.9412 22.9015 26.5346 23.0186V23.1187C27.5508 23.3358 28.3169 23.7541 28.8325 24.3717C29.3476 24.9902 29.6051 25.8508 29.6051 26.9534C29.6051 27.7891 29.4637 28.5077 29.1807 29.1093C28.8978 29.7109 28.5058 30.2081 28.0048 30.6006C27.5038 30.9935 26.9191 31.2859 26.2517 31.4776C25.5838 31.6703 24.8652 31.7662 24.0958 31.7662H18.8257V15.4238Z" fill="white"/>
<path fill-rule="evenodd" clip-rule="evenodd" d="M36.7919 23.2941C38.5342 23.2941 39.4051 22.4255 39.4051 20.6875C39.4051 19.8354 39.1837 19.2338 38.741 18.8827C38.2977 18.5316 37.6482 18.3563 36.7919 18.3563H35.0063V23.2941H36.7919ZM31.8047 15.424H36.9878C37.7572 15.424 38.4796 15.5114 39.1545 15.6872C39.8299 15.8625 40.4179 16.1548 40.9185 16.5642C41.4195 16.974 41.8147 17.5169 42.1057 18.1937C42.3957 18.87 42.5409 19.7014 42.5409 20.6875C42.5409 21.6397 42.3919 22.4669 42.0944 23.1686C41.7969 23.8708 41.3941 24.447 40.886 24.8982C40.3775 25.3494 39.7895 25.6841 39.1221 25.9007C38.4538 26.1183 37.7427 26.2269 36.9878 26.2269H35.0063V31.7659H31.8047V15.424Z" fill="white"/>
<path fill-rule="evenodd" clip-rule="evenodd" d="M90.8125 35.75C91.854 35.75 92.8289 35.5097 93.7371 35.0291C94.6454 34.5485 95.4507 33.9801 96.1531 33.3237H96.2621L96.5164 35.328H98.9869V10.2916H95.9715V16.8672L96.1168 19.7858C95.3417 19.1763 94.5788 18.6957 93.8279 18.3441C93.0771 17.9924 92.1931 17.8166 91.1758 17.8166C90.1586 17.8166 89.1897 18.0276 88.2694 18.4495C87.349 18.8715 86.5376 19.4693 85.8352 20.2429C85.1328 21.0165 84.5697 21.96 84.1458 23.0735C83.722 24.187 83.51 25.4353 83.51 26.8184C83.51 29.6784 84.17 31.882 85.4901 33.4292C86.8101 34.9764 88.5842 35.75 90.8125 35.75ZM68.0436 28.2953L65.7547 35.328H62.6666L70.732 12.2608H74.1471L82.2125 35.328H78.9791L76.7266 28.2953H68.0436ZM68.8065 25.9394H75.9636L74.8374 22.423C74.4014 21.1337 73.9897 19.8502 73.6021 18.5726C73.2146 17.295 72.8271 15.9881 72.4396 14.6519H72.2942C71.9309 15.9881 71.5555 17.295 71.168 18.5726C70.7805 19.8502 70.3687 21.1337 69.9327 22.423L68.8065 25.9394ZM87.8697 31.6007C88.7174 32.7493 89.9163 33.3237 91.4665 33.3237C92.2899 33.3237 93.065 33.1303 93.7916 32.7435C94.5182 32.3567 95.2448 31.7648 95.9715 30.9677V22.0362C95.2206 21.3798 94.5001 20.9168 93.8098 20.6473C93.1195 20.3777 92.4111 20.2429 91.6844 20.2429C90.982 20.2429 90.322 20.4011 89.7044 20.7176C89.0868 21.0341 88.5479 21.4795 88.0877 22.0538C87.6275 22.6281 87.2642 23.3138 86.9978 24.1109C86.7314 24.9079 86.5981 25.7987 86.5981 26.7833C86.5981 28.8462 87.022 30.452 87.8697 31.6007ZM112.237 35.75C113.254 35.75 114.223 35.5448 115.144 35.1346C116.064 34.7244 116.875 34.1207 117.578 33.3237C118.28 32.5266 118.837 31.5538 119.249 30.4051C119.661 29.2564 119.867 27.9554 119.867 26.502C119.867 25.1892 119.715 23.9995 119.412 22.9329C119.11 21.8663 118.662 20.952 118.068 20.1901C117.475 19.4283 116.742 18.8422 115.87 18.432C114.998 18.0217 113.993 17.8166 112.855 17.8166C111.862 17.8166 110.893 18.0452 109.948 18.5023C109.004 18.9594 108.132 19.5279 107.333 20.2077L107.405 17.1133V10.2916H104.426V35.328H106.824L107.078 33.5698H107.187C107.962 34.2497 108.792 34.783 109.676 35.1698C110.56 35.5566 111.414 35.75 112.237 35.75ZM109.712 32.9193C110.475 33.1889 111.147 33.3237 111.729 33.3237C112.455 33.3237 113.127 33.1654 113.745 32.849C114.363 32.5325 114.895 32.0871 115.343 31.5128C115.792 30.9384 116.143 30.2293 116.397 29.3854C116.651 28.5415 116.779 27.592 116.779 26.5371C116.779 25.5994 116.694 24.7438 116.524 23.9702C116.355 23.1966 116.082 22.5344 115.707 21.9835C115.331 21.4326 114.847 21.0048 114.254 20.7C113.66 20.3953 112.952 20.2429 112.128 20.2429C110.699 20.2429 109.125 21.0165 107.405 22.5637V31.5303C108.18 32.1867 108.949 32.6497 109.712 32.9193ZM127.159 35.75C127.57 35.75 127.91 35.7265 128.176 35.6796C128.442 35.6327 128.672 35.5624 128.866 35.4687L128.467 33.2885C128.297 33.3354 128.17 33.3588 128.085 33.3588H127.813C127.595 33.3588 127.401 33.2651 127.231 33.0775C127.062 32.89 126.977 32.5618 126.977 32.093V10.2916H123.998V31.882C123.998 33.1479 124.24 34.109 124.725 34.7654C125.209 35.4218 126.02 35.75 127.159 35.75ZM142.716 35.1522C141.735 35.5507 140.7 35.75 139.61 35.75C138.52 35.75 137.484 35.5507 136.503 35.1522C135.523 34.7537 134.657 34.1735 133.906 33.4116C133.155 32.6497 132.556 31.712 132.107 30.5985C131.659 29.485 131.435 28.225 131.435 26.8184C131.435 25.3885 131.659 24.1167 132.107 23.0032C132.556 21.8897 133.155 20.9461 133.906 20.1726C134.657 19.399 135.523 18.8129 136.503 18.4144C137.484 18.0159 138.52 17.8166 139.61 17.8166C140.7 17.8166 141.735 18.0159 142.716 18.4144C143.697 18.8129 144.563 19.399 145.314 20.1726C146.065 20.9461 146.664 21.8897 147.112 23.0032C147.56 24.1167 147.784 25.3885 147.784 26.8184C147.784 28.225 147.56 29.485 147.112 30.5985C146.664 31.712 146.065 32.6497 145.314 33.4116C144.563 34.1735 143.697 34.7537 142.716 35.1522ZM139.61 33.3588C138.859 33.3588 138.169 33.2006 137.539 32.8841C136.909 32.5677 136.37 32.1223 135.922 31.5479C135.474 30.9736 135.129 30.2879 134.887 29.4909C134.645 28.6938 134.523 27.803 134.523 26.8184C134.523 25.8339 134.645 24.9372 134.887 24.1284C135.129 23.3197 135.474 22.6223 135.922 22.0362C136.37 21.4502 136.909 20.9989 137.539 20.6824C138.169 20.366 138.859 20.2077 139.61 20.2077C140.361 20.2077 141.051 20.366 141.681 20.6824C142.31 20.9989 142.849 21.4502 143.297 22.0362C143.745 22.6223 144.091 23.3197 144.333 24.1284C144.575 24.9372 144.696 25.8339 144.696 26.8184C144.696 27.803 144.575 28.6938 144.333 29.4909C144.091 30.2879 143.745 30.9736 143.297 31.5479C142.849 32.1223 142.31 32.5677 141.681 32.8841C141.051 33.2006 140.361 33.3588 139.61 33.3588ZM161.943 35.1698C160.974 35.5566 159.957 35.75 158.891 35.75C157.728 35.75 156.638 35.5507 155.621 35.1522C154.604 34.7537 153.726 34.1735 152.987 33.4116C152.248 32.6497 151.667 31.712 151.243 30.5985C150.819 29.485 150.608 28.225 150.608 26.8184C150.608 25.3885 150.838 24.1167 151.298 23.0032C151.758 21.8897 152.376 20.9461 153.151 20.1726C153.926 19.399 154.828 18.8129 155.857 18.4144C156.887 18.0159 157.971 17.8166 159.109 17.8166C160.271 17.8166 161.265 18.0159 162.088 18.4144C162.912 18.8129 163.638 19.2817 164.268 19.8209L162.742 21.7197C162.233 21.2743 161.694 20.911 161.125 20.6297C160.556 20.3484 159.92 20.2077 159.218 20.2077C158.419 20.2077 157.68 20.366 157.002 20.6824C156.324 20.9989 155.742 21.4502 155.258 22.0362C154.773 22.6223 154.392 23.3197 154.113 24.1284C153.835 24.9372 153.696 25.8339 153.696 26.8184C153.696 27.803 153.829 28.6938 154.095 29.4909C154.362 30.2879 154.731 30.9736 155.203 31.5479C155.676 32.1223 156.251 32.5677 156.929 32.8841C157.607 33.2006 158.346 33.3588 159.145 33.3588C159.969 33.3588 160.726 33.1889 161.416 32.849C162.106 32.5091 162.73 32.1047 163.287 31.6358L164.595 33.5698C163.796 34.2497 162.912 34.783 161.943 35.1698ZM170.906 30.8271L174.212 27.0998L179.371 35.328H182.641L175.92 25.0954L181.842 18.2386H178.535L171.015 27.2404H170.906V10.2916H167.963V35.328H170.906V30.8271ZM190.587 27.5569V35.328H185.246V12.4014H193.384C194.692 12.4014 195.915 12.5245 197.054 12.7706C198.192 13.0168 199.185 13.427 200.033 14.0014C200.881 14.5757 201.553 15.3376 202.049 16.287C202.546 17.2364 202.794 18.4027 202.794 19.7858C202.794 21.122 202.546 22.2824 202.049 23.2669C201.553 24.2515 200.881 25.0603 200.033 25.6932C199.185 26.3262 198.204 26.795 197.09 27.0998C195.976 27.4045 194.789 27.5569 193.53 27.5569H190.587ZM193.203 23.4428H190.587V16.5156H193.057C194.511 16.5156 195.625 16.7617 196.4 17.254C197.175 17.7463 197.562 18.5902 197.562 19.7858C197.562 22.2238 196.109 23.4428 193.203 23.4428ZM212.449 35.6269C212.001 35.7089 211.474 35.75 210.869 35.75C209.949 35.75 209.173 35.6093 208.544 35.328C207.914 35.0467 207.411 34.654 207.036 34.15C206.661 33.646 206.388 33.0365 206.219 32.3215C206.049 31.6065 205.964 30.8036 205.964 29.9128V10.6784H211.305V30.1238C211.305 30.663 211.408 31.0381 211.614 31.249C211.82 31.46 212.031 31.5655 212.249 31.5655H212.558C212.643 31.5655 212.758 31.5421 212.903 31.4952L213.557 35.328C213.267 35.4452 212.897 35.5448 212.449 35.6269ZM221.269 35.75C222.504 35.75 223.564 35.498 224.448 34.9939C225.332 34.4899 226.162 33.7925 226.937 32.9017H227.046L227.445 35.328H231.805V17.8869H226.464V29.4205C225.931 30.1004 225.435 30.5927 224.975 30.8974C224.515 31.2022 223.945 31.3545 223.267 31.3545C222.492 31.3545 221.923 31.1201 221.56 30.6513C221.196 30.1824 221.015 29.3151 221.015 28.0492V17.8869H215.674V28.7173C215.674 30.9208 216.116 32.6439 217 33.8863C217.884 35.1287 219.307 35.75 221.269 35.75ZM244.494 35.3104C243.574 35.6034 242.508 35.75 241.297 35.75C240.11 35.75 238.893 35.5273 237.646 35.0819C236.398 34.6365 235.314 34.0504 234.394 33.3237L236.792 30.0886C237.615 30.6981 238.402 31.1553 239.153 31.46C239.904 31.7648 240.667 31.9171 241.442 31.9171C242.241 31.9171 242.823 31.7882 243.186 31.5303C243.549 31.2725 243.731 30.9091 243.731 30.4403C243.731 30.159 243.628 29.907 243.422 29.6843C243.216 29.4616 242.938 29.2564 242.587 29.0689C242.235 28.8814 241.842 28.7114 241.406 28.559C240.97 28.4067 240.522 28.2367 240.062 28.0492C239.505 27.8382 238.947 27.592 238.39 27.3107C237.833 27.0294 237.325 26.6837 236.865 26.2734C236.404 25.8632 236.029 25.3826 235.738 24.8317C235.448 24.2808 235.302 23.642 235.302 22.9153C235.302 22.1183 235.466 21.3798 235.793 20.7C236.12 20.0202 236.586 19.4458 237.191 18.977C237.797 18.5082 238.524 18.1389 239.371 17.8693C240.219 17.5998 241.164 17.465 242.205 17.465C243.586 17.465 244.797 17.6935 245.838 18.1507C246.88 18.6078 247.788 19.1177 248.563 19.6803L246.165 22.7746C245.511 22.3058 244.869 21.9424 244.24 21.6846C243.61 21.4267 242.98 21.2978 242.35 21.2978C240.994 21.2978 240.316 21.7549 240.316 22.6692C240.316 22.9505 240.413 23.1908 240.607 23.39C240.8 23.5893 241.061 23.7709 241.388 23.935C241.715 24.0991 242.09 24.2574 242.514 24.4097C242.938 24.5621 243.38 24.7204 243.84 24.8845C244.421 25.0954 244.997 25.3357 245.566 25.6053C246.135 25.8749 246.656 26.2089 247.128 26.6075C247.6 27.006 247.982 27.4924 248.272 28.0667C248.563 28.6411 248.708 29.3268 248.708 30.1238C248.708 30.9208 248.551 31.6593 248.236 32.3391C247.921 33.0189 247.449 33.6109 246.819 34.1149C246.189 34.6189 245.414 35.0174 244.494 35.3104Z" fill="black"/>
</svg>
