<svg xmlns="http://www.w3.org/2000/svg" width="201" height="201" viewBox="0 0 201 201" fill="none">
  <g clip-path="url(#clip0_168_414)">
    <mask id="mask0_168_414" style="mask-type:luminance" maskUnits="userSpaceOnUse" x="0" y="0" width="201" height="201">
      <path d="M201 0H0V201H201V0Z" fill="white"/>
    </mask>
    <g mask="url(#mask0_168_414)">
      <g opacity="0.27">
        <path d="M141.477 153.082C143.212 154.817 146.518 154.24 146.518 154.24C146.518 154.24 145.858 157.467 147.676 159.285C149.494 161.102 152.344 161.032 154.209 159.355C155.261 158.409 155.7 157.326 155.936 156.187C156.407 153.906 155.331 145.419 155.331 145.419C155.331 145.419 146.871 144.347 144.575 144.826C143.428 145.065 142.353 145.501 141.407 146.553C139.73 148.418 139.715 151.319 141.477 153.086" fill="black"/>
        <path d="M51.8831 143.974C51.9185 144.006 51.946 144.037 51.9695 144.08L54.0934 147.641C54.1994 147.821 54.1719 148.049 54.0227 148.198L49.7397 152.524L45.437 156.827C45.2878 156.976 45.0562 157.008 44.8756 156.898L41.3071 154.762C41.2678 154.739 41.2286 154.707 41.2011 154.672C40.836 154.864 40.3767 154.805 40.0744 154.503C39.7014 154.13 39.7014 153.518 40.0822 153.141C40.463 152.764 41.0715 152.76 41.4445 153.133C41.6565 153.345 41.7468 153.628 41.7193 153.906H43.5134C43.9688 153.906 44.4124 153.718 44.7343 153.396C45.1151 153.015 45.2996 152.473 45.2289 151.943L44.7657 148.532C44.5184 148.532 44.2711 148.442 44.0865 148.253C43.7136 147.88 43.7136 147.268 44.0944 146.891C44.4752 146.514 45.0837 146.51 45.4566 146.883C45.6372 147.064 45.7314 147.303 45.7354 147.543L49.1429 148.022C49.6729 148.096 50.2186 147.912 50.6033 147.531C50.9292 147.205 51.1098 146.773 51.1098 146.318L51.1176 144.52C50.8389 144.551 50.5484 144.461 50.3325 144.249C49.9595 143.876 49.9595 143.264 50.3403 142.887C50.7211 142.51 51.3296 142.506 51.7026 142.879C51.997 143.173 52.0559 143.617 51.8831 143.974ZM55.3025 148.983C55.1258 148.807 54.8353 148.807 54.6547 148.983L46.2222 157.416C46.0416 157.597 46.0416 157.887 46.2222 158.064L46.9955 158.837C47.1722 159.014 47.4627 159.014 47.6433 158.837L56.0759 150.405C56.2565 150.224 56.2565 149.933 56.0759 149.757L55.3025 148.983Z" fill="black"/>
        <path d="M102.125 158.503H95.7458L91.2351 153.993V147.613L95.7458 143.103H102.125L106.636 147.613V153.993L102.125 158.503ZM96.3975 156.933H101.477L105.07 153.341V148.261L101.477 144.669H96.3975L92.8054 148.261V153.341L96.3975 156.933Z" fill="black"/>
        <path d="M2.97178 158.503H-3.40761L-7.91833 153.993V147.613L-3.40761 143.103H2.97178L7.4825 147.613V153.993L2.97178 158.503ZM-2.75593 156.933H2.3201L5.91219 153.341V148.261L2.3201 144.669H-2.75593L-6.34802 148.261V153.341L-2.75593 156.933Z" fill="black"/>
        <path d="M204.215 158.503H197.836L193.325 153.993V147.613L197.836 143.103H204.215L208.726 147.613V153.993L204.215 158.503ZM198.487 156.933H203.567L207.16 153.341V148.261L203.567 144.669H198.487L194.895 148.261V153.341L198.487 156.933Z" fill="black"/>
      </g>
      <g opacity="0.27">
        <path d="M97.4929 41.3542C95.7577 43.0894 96.3348 46.3949 96.3348 46.3949C96.3348 46.3949 93.1078 45.7353 91.2901 47.553C89.4725 49.3706 89.5432 52.2207 91.2195 54.0855C92.1656 55.1376 93.2491 55.5773 94.3876 55.8128C96.6685 56.2839 105.156 55.2083 105.156 55.2083C105.156 55.2083 106.228 46.7482 105.749 44.4516C105.509 43.3053 105.074 42.2296 104.021 41.2835C102.157 39.6072 99.2556 39.5915 97.489 41.3542" fill="black"/>
      </g>
      <g opacity="0.27">
        <path d="M157.53 47.765C157.53 47.8082 157.53 47.8553 157.518 47.9024L156.505 51.9224C156.454 52.1265 156.27 52.2679 156.062 52.2679L149.977 52.2993H143.888C143.676 52.2993 143.491 52.1579 143.44 51.9538L142.427 47.9181C142.416 47.871 142.412 47.8239 142.416 47.7768C142.023 47.6551 141.736 47.29 141.736 46.8621C141.736 46.3321 142.172 45.9042 142.706 45.9042C143.24 45.9042 143.676 46.336 143.676 46.8621C143.676 47.1604 143.538 47.4274 143.322 47.604L144.59 48.8721C144.912 49.194 145.356 49.3746 145.811 49.3746C146.349 49.3746 146.864 49.1194 147.185 48.6954L149.274 45.9552C149.097 45.7825 148.991 45.543 148.991 45.276C148.991 44.7461 149.427 44.3181 149.961 44.3181C150.495 44.3181 150.931 44.75 150.931 45.276C150.931 45.5312 150.829 45.7668 150.664 45.9395L152.736 48.6875C153.058 49.1154 153.577 49.3706 154.114 49.3706C154.574 49.3706 155.006 49.194 155.331 48.8721L156.607 47.6079C156.387 47.4313 156.246 47.1643 156.246 46.8621C156.246 46.3321 156.682 45.9042 157.216 45.9042C157.75 45.9042 158.185 46.336 158.185 46.8621C158.185 47.2782 157.915 47.6354 157.538 47.765H157.53ZM156.403 53.7282C156.403 53.477 156.195 53.2729 155.944 53.2729H144.021C143.766 53.2729 143.562 53.477 143.562 53.7282V54.8235C143.562 55.0748 143.77 55.2789 144.021 55.2789H155.944C156.199 55.2789 156.403 55.0748 156.403 54.8235V53.7282Z" fill="black"/>
      </g>
      <g opacity="0.27">
        <path d="M56.8061 53.7165C56.7747 53.7518 56.7433 53.7793 56.7001 53.8028L53.1394 55.9267C52.9588 56.0327 52.7311 56.0052 52.5819 55.856L48.2557 51.573L43.9531 47.2703C43.8039 47.1211 43.7725 46.8895 43.8824 46.7089L46.018 43.1404C46.0416 43.1011 46.073 43.0619 46.1083 43.0344C45.916 42.6693 45.9748 42.21 46.2771 41.9077C46.6501 41.5348 47.2625 41.5348 47.6394 41.9156C48.0162 42.2964 48.0202 42.9049 47.6472 43.2778C47.4352 43.4898 47.1526 43.5801 46.8738 43.5526V45.3467C46.8738 45.8021 47.0623 46.2457 47.3842 46.5676C47.765 46.9484 48.3068 47.1329 48.8367 47.0623L52.2482 46.599C52.2482 46.3517 52.3385 46.1044 52.527 45.9199C52.8999 45.5469 53.5123 45.5469 53.8892 45.9277C54.2661 46.3085 54.27 46.917 53.8971 47.29C53.7165 47.4705 53.477 47.5648 53.2375 47.5687L52.7586 50.9763C52.684 51.5062 52.8685 52.0519 53.2493 52.4367C53.5752 52.7625 54.007 52.9431 54.4624 52.9431L56.2604 52.9509C56.229 52.6722 56.3193 52.3817 56.5313 52.1658C56.9042 51.7928 57.5166 51.7928 57.8935 52.1736C58.2704 52.5544 58.2743 53.1629 57.9014 53.5359C57.6069 53.8303 57.1633 53.8892 56.8061 53.7165ZM51.7928 57.1358C51.9695 56.9591 51.9695 56.6686 51.7928 56.4881L43.3603 48.0555C43.1797 47.8749 42.8892 47.8749 42.7125 48.0555L41.9391 48.8289C41.7625 49.0055 41.7625 49.296 41.9391 49.4766L50.3717 57.9092C50.5523 58.0898 50.8428 58.0898 51.0195 57.9092L51.7928 57.1358Z" fill="black"/>
      </g>
      <g opacity="0.27">
        <path d="M2.97178 57.1044H-3.40761L-7.91833 52.5937V46.2143L-3.40761 41.7036H2.97178L7.4825 46.2143V52.5937L2.97178 57.1044ZM-2.75593 55.5341H2.3201L5.91219 51.942V46.862L2.3201 43.2699H-2.75593L-6.34802 46.862V51.942L-2.75593 55.5341Z" fill="black"/>
      </g>
      <g opacity="0.27">
        <path d="M204.215 57.1044H197.836L193.325 52.5937V46.2143L197.836 41.7036H204.215L208.726 46.2143V52.5937L204.215 57.1044ZM198.487 55.5341H203.567L207.16 51.942V46.862L203.567 43.2699H198.487L194.895 46.862V51.942L198.487 55.5341Z" fill="black"/>
      </g>
      <g opacity="0.27">
        <path d="M106.487 98.4821C106.487 98.5253 106.487 98.5724 106.475 98.6195L105.462 102.64C105.411 102.844 105.227 102.985 105.019 102.985L98.9336 103.016H92.8447C92.6328 103.016 92.4482 102.875 92.3972 102.671L91.3844 98.6352C91.3726 98.5881 91.3687 98.541 91.3726 98.4939C90.98 98.3722 90.6934 98.0071 90.6934 97.5792C90.6934 97.0492 91.1292 96.6213 91.6631 96.6213C92.197 96.6213 92.6328 97.0532 92.6328 97.5792C92.6328 97.8776 92.4954 98.1445 92.2794 98.3212L93.5475 99.5892C93.8694 99.9111 94.313 100.092 94.7684 100.092C95.3062 100.092 95.8205 99.8365 96.1424 99.4126L98.2309 96.6724C98.0543 96.4996 97.9483 96.2602 97.9483 95.9932C97.9483 95.4632 98.384 95.0353 98.9179 95.0353C99.4518 95.0353 99.8876 95.4671 99.8876 95.9932C99.8876 96.2484 99.7855 96.4839 99.6206 96.6567L101.693 99.4047C102.015 99.8326 102.534 100.088 103.071 100.088C103.531 100.088 103.963 99.9111 104.288 99.5892L105.564 98.3251C105.344 98.1485 105.203 97.8815 105.203 97.5792C105.203 97.0492 105.639 96.6213 106.173 96.6213C106.707 96.6213 107.142 97.0532 107.142 97.5792C107.142 97.9953 106.872 98.3526 106.495 98.4821H106.487ZM105.36 104.445C105.36 104.194 105.152 103.99 104.901 103.99H92.9782C92.723 103.99 92.5189 104.194 92.5189 104.445V105.541C92.5189 105.792 92.727 105.996 92.9782 105.996H104.901C105.156 105.996 105.36 105.792 105.36 105.541V104.445Z" fill="black"/>
        <path d="M51.1962 107.888H44.8168L40.306 103.378V96.9982L44.8168 92.4875H51.1962L55.7069 96.9982V103.378L51.1962 107.888ZM45.4645 106.318H50.5445L54.1366 102.726V97.6459L50.5445 94.0538H45.4645L41.8724 97.6459V102.726L45.4645 106.318Z" fill="black"/>
        <path d="M153.172 107.888H146.793L142.282 103.378V96.9982L146.793 92.4875H153.172L157.683 96.9982V103.378L153.172 107.888ZM147.441 106.318H152.521L156.113 102.726V97.6459L152.521 94.0538H147.441L143.848 97.6459V102.726L147.441 106.318Z" fill="black"/>
        <path d="M6.66991 98.2544C4.93472 96.5192 1.62921 97.0963 1.62921 97.0963C1.62921 97.0963 2.28874 93.8693 0.471103 92.0517C-1.34653 90.2341 -4.19665 90.3047 -6.0614 91.981C-7.11351 92.9272 -7.55319 94.0107 -7.78874 95.1491C-8.25983 97.43 -7.18417 105.918 -7.18417 105.918C-7.18417 105.918 1.27589 106.989 3.57247 106.51C4.7188 106.271 5.79446 105.835 6.74058 104.783C8.41688 102.918 8.43259 100.017 6.66991 98.2505" fill="black"/>
        <path d="M6.66991 98.2544C4.93472 96.5192 1.62921 97.0963 1.62921 97.0963C1.62921 97.0963 2.28874 93.8693 0.471103 92.0517C-1.34653 90.2341 -4.19665 90.3047 -6.0614 91.981C-7.11351 92.9272 -7.55319 94.0107 -7.78874 95.1491C-8.25983 97.43 -7.18417 105.918 -7.18417 105.918C-7.18417 105.918 1.27589 106.989 3.57247 106.51C4.7188 106.271 5.79446 105.835 6.74058 104.783C8.41688 102.918 8.43259 100.017 6.66991 98.2505" fill="black"/>
        <path d="M207.65 98.2544C205.915 96.5192 202.61 97.0963 202.61 97.0963C202.61 97.0963 203.269 93.8693 201.451 92.0517C199.634 90.2341 196.784 90.3047 194.919 91.981C193.867 92.9272 193.427 94.0107 193.192 95.1491C192.721 97.43 193.796 105.918 193.796 105.918C193.796 105.918 202.256 106.989 204.553 106.51C205.699 106.271 206.775 105.835 207.721 104.783C209.397 102.918 209.413 100.017 207.65 98.2505" fill="black"/>
      </g>
      <g opacity="0.27">
        <path d="M7.57284 198.966C7.57284 199.01 7.57284 199.057 7.56106 199.104L6.54821 203.124C6.49717 203.328 6.31266 203.469 6.1046 203.469L0.0196333 203.501H-6.06925C-6.28124 203.501 -6.46576 203.359 -6.51679 203.155L-7.52964 199.12C-7.54142 199.072 -7.54535 199.025 -7.54142 198.978C-7.934 198.857 -8.22058 198.491 -8.22058 198.064C-8.22058 197.534 -7.78482 197.106 -7.25091 197.106C-6.71701 197.106 -6.28124 197.537 -6.28124 198.064C-6.28124 198.362 -6.41865 198.629 -6.63457 198.805L-5.36654 200.074C-5.04462 200.395 -4.60101 200.576 -4.14562 200.576C-3.60779 200.576 -3.09351 200.321 -2.7716 199.897L-0.683081 197.157C-0.859741 196.984 -0.965737 196.744 -0.965737 196.478C-0.969663 195.951 -0.533901 195.52 4.76837e-06 195.52C0.533912 195.52 0.969673 195.951 0.969673 196.478C0.969673 196.733 0.867602 196.968 0.70272 197.141L2.77553 199.889C3.09745 200.317 3.61565 200.572 4.15348 200.572C4.6128 200.572 5.04463 200.395 5.37047 200.074L6.64635 198.809C6.42651 198.633 6.28518 198.366 6.28518 198.064C6.28518 197.534 6.72094 197.106 7.25485 197.106C7.78875 197.106 8.22452 197.537 8.22452 198.064C8.22452 198.48 7.95364 198.837 7.57676 198.966H7.57284ZM6.45006 204.93C6.45006 204.678 6.242 204.474 5.99075 204.474H-5.93578C-6.19095 204.474 -6.39509 204.678 -6.39509 204.93V206.025C-6.39509 206.276 -6.18703 206.48 -5.93578 206.48H5.98682C6.242 206.48 6.44614 206.276 6.44614 206.025V204.93H6.45006Z" fill="black"/>
        <path d="M208.573 198.966C208.573 199.01 208.573 199.057 208.561 199.104L207.548 203.124C207.497 203.328 207.313 203.469 207.105 203.469L201.02 203.501H194.931C194.719 203.501 194.534 203.359 194.483 203.155L193.47 199.12C193.459 199.072 193.455 199.025 193.459 198.978C193.066 198.857 192.779 198.491 192.779 198.064C192.779 197.534 193.215 197.106 193.749 197.106C194.283 197.106 194.719 197.537 194.719 198.064C194.719 198.362 194.581 198.629 194.365 198.805L195.633 200.074C195.955 200.395 196.399 200.576 196.854 200.576C197.392 200.576 197.906 200.321 198.228 199.897L200.317 197.157C200.14 196.984 200.034 196.744 200.034 196.478C200.034 195.948 200.47 195.52 201.004 195.52C201.538 195.52 201.974 195.951 201.974 196.478C201.974 196.733 201.872 196.968 201.707 197.141L203.779 199.889C204.101 200.317 204.62 200.572 205.157 200.572C205.617 200.572 206.049 200.395 206.374 200.074L207.65 198.809C207.43 198.633 207.289 198.366 207.289 198.064C207.289 197.534 207.725 197.106 208.259 197.106C208.793 197.106 209.228 197.537 209.228 198.064C209.228 198.48 208.958 198.837 208.581 198.966H208.573ZM207.45 204.93C207.45 204.678 207.242 204.474 206.991 204.474H195.068C194.813 204.474 194.609 204.678 194.609 204.93V206.025C194.609 206.276 194.817 206.48 195.068 206.48H206.991C207.246 206.48 207.45 206.276 207.45 206.025V204.93Z" fill="black"/>
        <path d="M106.487 198.966C106.487 199.01 106.487 199.057 106.475 199.104L105.462 203.124C105.411 203.328 105.227 203.469 105.019 203.469L98.9336 203.501H92.8447C92.6328 203.501 92.4482 203.359 92.3972 203.155L91.3844 199.12C91.3726 199.072 91.3687 199.025 91.3726 198.978C90.98 198.857 90.6934 198.491 90.6934 198.064C90.6934 197.534 91.1292 197.106 91.6631 197.106C92.197 197.106 92.6328 197.537 92.6328 198.064C92.6328 198.362 92.4954 198.629 92.2794 198.805L93.5475 200.074C93.8694 200.395 94.313 200.576 94.7684 200.576C95.3062 200.576 95.8205 200.321 96.1424 199.897L98.2309 197.157C98.0543 196.984 97.9483 196.744 97.9483 196.478C97.9483 195.948 98.384 195.52 98.9179 195.52C99.4518 195.52 99.8876 195.951 99.8876 196.478C99.8876 196.733 99.7855 196.968 99.6206 197.141L101.693 199.889C102.015 200.317 102.534 200.572 103.071 200.572C103.531 200.572 103.963 200.395 104.288 200.074L105.564 198.809C105.344 198.633 105.203 198.366 105.203 198.064C105.203 197.534 105.639 197.106 106.173 197.106C106.707 197.106 107.142 197.537 107.142 198.064C107.142 198.48 106.872 198.837 106.495 198.966H106.487ZM105.36 204.93C105.36 204.678 105.152 204.474 104.901 204.474H92.9782C92.723 204.474 92.5189 204.678 92.5189 204.93V206.025C92.5189 206.276 92.727 206.48 92.9782 206.48H104.901C105.156 206.48 105.36 206.276 105.36 206.025V204.93Z" fill="black"/>
        <path d="M153.145 208.059H146.765L142.255 203.548V197.168L146.765 192.658H153.145L157.655 197.168V203.548L153.145 208.059ZM147.417 206.488H152.497L156.089 202.896V197.816L152.497 194.224H147.417L143.825 197.816V202.896L147.417 206.488Z" fill="black"/>
        <path d="M52.2522 193.392C49.7946 193.392 47.8671 196.14 47.8671 196.14C47.8671 196.14 46.0494 193.392 43.482 193.392C40.9145 193.392 38.9477 195.457 38.8142 197.958C38.7396 199.371 39.1911 200.446 39.831 201.42C41.1108 203.367 47.8749 208.608 47.8749 208.608C47.8749 208.608 54.6116 203.383 55.8992 201.42C56.5391 200.443 56.9945 199.371 56.916 197.958C56.7825 195.457 54.745 193.392 52.2482 193.392" fill="black"/>
        <path d="M52.3896 193.529C49.9321 193.529 48.0045 196.277 48.0045 196.277C48.0045 196.277 46.1869 193.529 43.6194 193.529C41.052 193.529 39.0851 195.594 38.9517 198.095C38.8771 199.508 39.3285 200.584 39.9684 201.557C41.2482 203.505 48.0124 208.746 48.0124 208.746C48.0124 208.746 54.749 203.52 56.0367 201.557C56.6766 200.58 57.132 199.508 57.0534 198.095C56.92 195.594 54.8825 193.529 52.3857 193.529" fill="black"/>
      </g>
      <g opacity="0.27">
        <path d="M7.57284 -2.03357C7.57284 -1.99039 7.57284 -1.94328 7.56106 -1.89617L6.54821 2.12383C6.49717 2.32797 6.31266 2.4693 6.10459 2.4693L0.0196333 2.49678H-6.06925C-6.28125 2.49678 -6.46576 2.35545 -6.51679 2.15131L-7.52964 -1.88439C-7.54142 -1.9315 -7.54535 -1.97861 -7.54142 -2.02572C-7.934 -2.14742 -8.22058 -2.51252 -8.22058 -2.94043C-8.22058 -3.47041 -7.78482 -3.89832 -7.25091 -3.89832C-6.71701 -3.89832 -6.28125 -3.46648 -6.28125 -2.94043C-6.28125 -2.64207 -6.41865 -2.37511 -6.63457 -2.19845L-5.36654 -0.930427C-5.04462 -0.608513 -4.60101 -0.427927 -4.14562 -0.427927C-3.60779 -0.427927 -3.09351 -0.683103 -2.7716 -1.10709L-0.683081 -3.84336C-0.859742 -4.01609 -0.965738 -4.25556 -0.965738 -4.52252C-0.969664 -5.04857 -0.533902 -5.48041 4.76837e-06 -5.48041C0.533911 -5.48041 0.969672 -5.04857 0.969672 -4.52252C0.969672 -4.26734 0.867601 -4.03179 0.702719 -3.85906L2.77161 -1.11101C3.09352 -0.683103 3.61172 -0.427927 4.14956 -0.427927C4.60887 -0.427927 5.04071 -0.604587 5.36655 -0.926501L6.64243 -2.1906C6.42258 -2.36726 6.28125 -2.63422 6.28125 -2.9365C6.28125 -3.46648 6.71702 -3.89439 7.25092 -3.89439C7.78483 -3.89439 8.22059 -3.46256 8.22059 -2.9365C8.22059 -2.52037 7.94971 -2.16312 7.57284 -2.03357ZM6.45006 3.92969C6.45006 3.67844 6.242 3.4743 5.99075 3.4743H-5.93578C-6.19095 3.4743 -6.39509 3.67844 -6.39509 3.92969V5.02498C-6.39509 5.27623 -6.18703 5.48037 -5.93578 5.48037H5.98682C6.242 5.48037 6.44614 5.27623 6.44614 5.02498V3.92969H6.45006Z" fill="black"/>
        <path d="M208.573 -2.03357C208.573 -1.99039 208.573 -1.94328 208.561 -1.89617L207.548 2.12383C207.497 2.32797 207.313 2.4693 207.105 2.4693L201.02 2.50071H194.931C194.719 2.50071 194.534 2.35938 194.483 2.15524L193.47 -1.88047C193.459 -1.92758 193.455 -1.97468 193.459 -2.02179C193.066 -2.14349 192.779 -2.50859 192.779 -2.9365C192.779 -3.46648 193.215 -3.89439 193.749 -3.89439C194.283 -3.89439 194.719 -3.46256 194.719 -2.9365C194.719 -2.63814 194.581 -2.37119 194.365 -2.19453L195.633 -0.926501C195.955 -0.604587 196.399 -0.424001 196.854 -0.424001C197.392 -0.424001 197.906 -0.679177 198.228 -1.10316L200.317 -3.84336C200.14 -4.01609 200.034 -4.25556 200.034 -4.52252C200.034 -5.0525 200.47 -5.48041 201.004 -5.48041C201.538 -5.48041 201.974 -5.04857 201.974 -4.52252C201.974 -4.26734 201.872 -4.03179 201.707 -3.85906L203.779 -1.11101C204.101 -0.683103 204.62 -0.427927 205.157 -0.427927C205.617 -0.427927 206.049 -0.604587 206.374 -0.926501L207.65 -2.1906C207.43 -2.36726 207.289 -2.63422 207.289 -2.9365C207.289 -3.46648 207.725 -3.89439 208.259 -3.89439C208.793 -3.89439 209.228 -3.46256 209.228 -2.9365C209.228 -2.52037 208.958 -2.16312 208.581 -2.03357H208.573ZM207.45 3.92969C207.45 3.67844 207.242 3.4743 206.991 3.4743H195.068C194.813 3.4743 194.609 3.67844 194.609 3.92969V5.02498C194.609 5.27623 194.817 5.48037 195.068 5.48037H206.991C207.246 5.48037 207.45 5.27623 207.45 5.02498V3.92969Z" fill="black"/>
        <path d="M106.487 -2.03357C106.487 -1.99039 106.487 -1.94328 106.475 -1.89617L105.462 2.12383C105.411 2.32797 105.227 2.4693 105.019 2.4693L98.9336 2.50071H92.8447C92.6328 2.50071 92.4482 2.35938 92.3972 2.15524L91.3844 -1.88047C91.3726 -1.92758 91.3687 -1.97468 91.3726 -2.02179C90.98 -2.14349 90.6934 -2.50859 90.6934 -2.9365C90.6934 -3.46648 91.1292 -3.89439 91.6631 -3.89439C92.197 -3.89439 92.6328 -3.46256 92.6328 -2.9365C92.6328 -2.63814 92.4954 -2.37119 92.2794 -2.19453L93.5475 -0.926501C93.8694 -0.604587 94.313 -0.424001 94.7684 -0.424001C95.3062 -0.424001 95.8205 -0.679177 96.1424 -1.10316L98.2309 -3.84336C98.0543 -4.01609 97.9483 -4.25556 97.9483 -4.52252C97.9483 -5.0525 98.384 -5.48041 98.9179 -5.48041C99.4518 -5.48041 99.8876 -5.04857 99.8876 -4.52252C99.8876 -4.26734 99.7855 -4.03179 99.6206 -3.85906L101.693 -1.11101C102.015 -0.683103 102.534 -0.427927 103.071 -0.427927C103.531 -0.427927 103.963 -0.604587 104.288 -0.926501L105.564 -2.1906C105.344 -2.36726 105.203 -2.63422 105.203 -2.9365C105.203 -3.46648 105.639 -3.89439 106.173 -3.89439C106.707 -3.89439 107.142 -3.46256 107.142 -2.9365C107.142 -2.52037 106.872 -2.16312 106.495 -2.03357H106.487ZM105.36 3.92969C105.36 3.67844 105.152 3.4743 104.901 3.4743H92.9782C92.723 3.4743 92.5189 3.67844 92.5189 3.92969V5.02498C92.5189 5.27623 92.727 5.48037 92.9782 5.48037H104.901C105.156 5.48037 105.36 5.27623 105.36 5.02498V3.92969Z" fill="black"/>
        <path d="M153.145 7.70237H146.765L142.255 3.19165V-3.19167L146.765 -7.70239H153.145L157.655 -3.19167V3.19165L153.145 7.70237ZM147.417 6.13206H152.497L156.089 2.53997V-2.53999L152.497 -6.13208H147.417L143.825 -2.53999V2.53997L147.417 6.13206Z" fill="black"/>
        <path d="M52.2522 -7.60818C49.7946 -7.60818 47.8671 -4.86014 47.8671 -4.86014C47.8671 -4.86014 46.0494 -7.60818 43.482 -7.60818C40.9145 -7.60818 38.9477 -5.54322 38.8142 -3.0425C38.7396 -1.62922 39.1911 -0.553556 39.831 0.420037C41.1108 2.36722 47.8749 7.60814 47.8749 7.60814C47.8749 7.60814 54.6116 2.38293 55.8992 0.420037C56.5391 -0.557482 56.9945 -1.62922 56.916 -3.0425C56.7825 -5.54322 54.745 -7.60818 52.2482 -7.60818" fill="black"/>
      </g>
    </g>
  </g>
  <defs>
    <clipPath id="clip0_168_414">
      <rect width="201" height="201" fill="white"/>
    </clipPath>
  </defs>
</svg>
