<svg width="32" height="32" viewBox="0 0 32 32" fill="none" xmlns="http://www.w3.org/2000/svg">
<rect width="32" height="32" rx="4" fill="#EDA51E" fill-opacity="0.17"/>
<path d="M23 18.9651C23 19.588 22.4268 20.0935 21.7273 20.0935H9.27267C8.57319 20.0935 8 19.588 8 18.9651V12.2219C8 11.599 8.57319 11.0935 9.27267 11.0935H21.7273C22.4268 11.0935 23 11.599 23 12.2219V18.9651Z" stroke="#EDA51E" stroke-width="2" stroke-linecap="round" stroke-linejoin="round"/>
<path d="M23.44 23.5335L8 8.09351" stroke="#EDA51E" stroke-width="2" stroke-linecap="round" stroke-linejoin="round"/>
<path d="M15.5 18.0935C16.8807 18.0935 18 16.9742 18 15.5935C18 14.2128 16.8807 13.0935 15.5 13.0935C14.1193 13.0935 13 14.2128 13 15.5935C13 16.9742 14.1193 18.0935 15.5 18.0935Z" fill="#EDA51E"/>
</svg>
