<svg width="32" height="32" viewBox="0 0 32 32" fill="none" xmlns="http://www.w3.org/2000/svg">
<rect width="32" height="32" rx="4" fill="#EDA51E" fill-opacity="0.17"/>
<path d="M23.32 23.9535L8.29 8.92346" stroke="#EDA51E" stroke-width="2" stroke-linecap="round" stroke-linejoin="round"/>
<path d="M24 16.0935C24 20.5135 20.42 24.0935 16 24.0935C11.58 24.0935 8 20.5135 8 16.0935C8 11.6735 11.58 8.09351 16 8.09351C20.42 8.09351 24 11.6735 24 16.0935Z" stroke="#EDA51E" stroke-width="2" stroke-miterlimit="13.33" stroke-linecap="round"/>
<path d="M14.03 17.7536C14.03 18.6736 14.77 19.4136 15.69 19.4136H16.31C17.23 19.4136 17.97 18.6736 17.97 17.7536C17.97 16.8336 17.23 16.0936 16.31 16.0936H15.69C14.77 16.0936 14.03 15.3536 14.03 14.4336C14.03 13.5136 14.77 12.7736 15.69 12.7736H16.31C17.23 12.7736 17.97 13.5136 17.97 14.4336" stroke="#EDA51E" stroke-width="2" stroke-miterlimit="13.33"/>
<path d="M16 10.9036V12.7636" stroke="#EDA51E" stroke-width="2" stroke-miterlimit="13.33"/>
<path d="M16 19.4235V21.2835" stroke="#EDA51E" stroke-width="2" stroke-miterlimit="13.33"/>
</svg>
