<svg width="33" height="32" viewBox="0 0 33 32" fill="none" xmlns="http://www.w3.org/2000/svg">
<path d="M6.49698 8.46502C7.21199 7.54253 8.04447 6.71251 8.96572 5.99629C8.88072 6.06129 8.79697 6.12754 8.71322 6.19379C9.65696 5.4663 10.6882 4.86252 11.7857 4.39629C11.6857 4.43629 11.5857 4.48128 11.4857 4.52128C12.6107 4.04877 13.792 3.72752 15.0006 3.56503C14.8906 3.58003 14.7781 3.59628 14.6693 3.60878C15.8968 3.44628 17.1406 3.45003 18.3669 3.61503C18.2569 3.60003 18.1444 3.58378 18.0357 3.57128C19.2357 3.73628 20.4082 4.05627 21.5256 4.52753C21.4256 4.48753 21.3256 4.44253 21.2256 4.40253C22.3156 4.86503 23.3406 5.46503 24.2781 6.18752C24.1931 6.12252 24.1094 6.05627 24.0256 5.99002C24.9531 6.71252 25.7906 7.54628 26.5106 8.47502C26.4456 8.39002 26.3794 8.30627 26.3131 8.22252C27.0356 9.16002 27.6356 10.185 28.0981 11.275C28.0581 11.175 28.0131 11.075 27.9731 10.975C28.4418 12.0913 28.7631 13.265 28.9294 14.4649C28.9144 14.3549 28.8981 14.2424 28.8856 14.1337C29.0506 15.3712 29.0506 16.6312 28.8856 17.8687C28.9006 17.7587 28.9169 17.6462 28.9294 17.5375C28.7644 18.7375 28.4444 19.91 27.9731 21.0274C28.0131 20.9274 28.0581 20.8274 28.0981 20.7274C27.6356 21.8174 27.0356 22.8424 26.3131 23.7799C26.3781 23.6949 26.4444 23.6111 26.5106 23.5274C25.7881 24.4549 24.9544 25.2924 24.0256 26.0124C24.1106 25.9474 24.1944 25.8811 24.2781 25.8149C23.3406 26.5374 22.3156 27.1374 21.2256 27.5999C21.3256 27.5599 21.4256 27.5149 21.5256 27.4749C20.4093 27.9436 19.2356 28.2649 18.0357 28.4311C18.1457 28.4161 18.2582 28.3999 18.3669 28.3874C17.1294 28.5524 15.8694 28.5524 14.6319 28.3874C14.7419 28.4024 14.8544 28.4186 14.9632 28.4311C13.7632 28.2661 12.5907 27.9461 11.4733 27.4749C11.5733 27.5149 11.6733 27.5599 11.7733 27.5999C10.6833 27.1374 9.65824 26.5374 8.72074 25.8149C8.80574 25.8799 8.88949 25.9461 8.97324 26.0124C8.04575 25.2899 7.20825 24.4561 6.48825 23.5274C6.55325 23.6124 6.6195 23.6961 6.68575 23.7799C5.96325 22.8424 5.36325 21.8174 4.90076 20.7274C4.94076 20.8274 4.98575 20.9274 5.02575 21.0274C4.55702 19.9111 4.23574 18.7374 4.0695 17.5375C4.0845 17.6475 4.10075 17.76 4.11325 17.8687C4.02825 17.25 3.98825 16.625 3.98825 16C3.98825 15.3475 3.41324 14.7187 2.73827 14.75C2.06329 14.7813 1.48828 15.3 1.48828 16C1.49078 18.715 2.23577 21.4275 3.64454 23.7526C5.00703 26.0026 6.9719 27.9027 9.28198 29.1651C11.6757 30.4751 14.4321 31.1251 17.1594 30.9964C19.8569 30.8689 22.5245 30.0314 24.7745 28.5251C26.9619 27.0601 28.7895 25.0377 29.9495 22.6653C31.152 20.2028 31.7095 17.4253 31.4495 14.6877C31.197 12.0064 30.2707 9.39775 28.672 7.21887C27.1058 5.09762 25.0346 3.34399 22.6019 2.29023C21.3607 1.75272 20.0832 1.35272 18.7421 1.16524C17.9983 1.06274 17.2521 0.990234 16.4983 0.990234C15.6583 0.990234 14.8233 1.07523 13.9958 1.20524C11.0271 1.67397 8.22335 3.12773 6.06463 5.2078C5.58339 5.67279 5.13715 6.17029 4.72463 6.70156C4.51213 6.97656 4.35964 7.22405 4.35964 7.58655C4.35964 7.8928 4.49714 8.25906 4.72463 8.47154C4.96213 8.69029 5.27465 8.85279 5.60963 8.83653C5.91837 8.81903 6.29698 8.72254 6.49698 8.46502Z" fill="black"/>
<path d="M17.7422 23.2939V21.0939C17.7422 20.4414 17.1671 19.8126 16.4922 19.8439C15.8147 19.8751 15.2422 20.3939 15.2422 21.0939V23.2939C15.2422 23.9464 15.8172 24.5751 16.4922 24.5439C17.1659 24.5126 17.7422 23.9938 17.7422 23.2939Z" fill="black"/>
<path d="M17.7422 10.8599V8.70618C17.7422 8.05367 17.1671 7.42493 16.4922 7.4562C15.8147 7.48745 15.2422 8.00621 15.2422 8.70618V10.8599C15.2422 11.5125 15.8172 12.1412 16.4922 12.1099C17.1659 12.0774 17.7422 11.5599 17.7422 10.8599Z" fill="black"/>
<path d="M11.8717 18.7351C11.8817 19.6726 12.253 20.5751 12.9093 21.2452C13.5717 21.9177 14.4567 22.2726 15.3868 22.3389C15.7368 22.3639 16.0893 22.3452 16.4405 22.3452C16.763 22.3452 17.088 22.3477 17.4093 22.3452C17.8342 22.3427 18.2742 22.2827 18.6742 22.1352C19.1742 21.9539 19.5717 21.7227 19.9843 21.3877C20.6093 20.8814 21.0943 20.0852 21.2317 19.2877C21.3292 18.7289 21.3317 18.2064 21.2067 17.6477C21.1042 17.1977 20.9005 16.7539 20.6255 16.3827C20.2905 15.9327 19.9105 15.5552 19.423 15.2664C18.908 14.9639 18.3605 14.8139 17.773 14.7439C16.9255 14.6464 16.0605 14.8002 15.2168 14.6964C15.3268 14.7114 15.4393 14.7277 15.548 14.7402C15.308 14.7052 15.073 14.6464 14.848 14.5527C14.948 14.5927 15.048 14.6377 15.148 14.6777C14.933 14.5839 14.7293 14.4677 14.5418 14.3252C14.6268 14.3902 14.7105 14.4564 14.7943 14.5227C14.6218 14.3877 14.4693 14.2352 14.3318 14.0627C14.3968 14.1477 14.463 14.2314 14.5293 14.3152C14.3943 14.1427 14.2855 13.9552 14.198 13.7564C14.238 13.8564 14.283 13.9564 14.323 14.0564C14.238 13.8502 14.1793 13.6414 14.1455 13.4189C14.1605 13.5289 14.1768 13.6414 14.1893 13.7502C14.158 13.5189 14.1618 13.2877 14.1918 13.0527C14.1768 13.1627 14.1605 13.2752 14.148 13.3839C14.183 13.1714 14.238 12.9652 14.3205 12.7652C14.2805 12.8652 14.2355 12.9652 14.1955 13.0652C14.2805 12.8714 14.3855 12.6902 14.5143 12.5214C14.4493 12.6064 14.383 12.6902 14.3168 12.7739C14.4568 12.5964 14.6143 12.4364 14.7918 12.2964C14.7068 12.3614 14.623 12.4277 14.5393 12.4939C14.7205 12.3564 14.9143 12.2439 15.1205 12.1539C15.0205 12.1939 14.9205 12.2389 14.8205 12.2789C15.0518 12.1814 15.2893 12.1164 15.5393 12.0814C15.4293 12.0964 15.3168 12.1127 15.208 12.1252C15.633 12.0727 16.0768 12.1027 16.5055 12.1027C16.9205 12.1027 17.3493 12.0752 17.7618 12.1277C17.6518 12.1127 17.5393 12.0964 17.4305 12.0839C17.6405 12.1152 17.843 12.1689 18.043 12.2489C17.943 12.2089 17.843 12.1639 17.743 12.1239C17.9455 12.2089 18.1368 12.3177 18.3118 12.4514C18.2268 12.3864 18.143 12.3202 18.0593 12.2539C18.218 12.3789 18.3618 12.5227 18.4868 12.6814C18.4217 12.5964 18.3555 12.5127 18.2892 12.4289C18.4142 12.5914 18.5142 12.7639 18.5955 12.9514C18.5555 12.8514 18.5105 12.7514 18.4705 12.6514C18.548 12.8414 18.6018 13.0389 18.633 13.2452C18.618 13.1352 18.6017 13.0227 18.5892 12.9139C18.6017 13.0139 18.608 13.1114 18.608 13.2114C18.6105 13.5339 18.7455 13.8677 18.973 14.0964C19.188 14.3114 19.5455 14.4776 19.858 14.4614C20.5305 14.4301 21.1142 13.9114 21.108 13.2114C21.098 12.2739 20.7267 11.3714 20.068 10.7014C19.4055 10.0289 18.518 9.6739 17.5905 9.60763C17.253 9.58513 16.9092 9.60138 16.568 9.60138C16.233 9.60138 15.903 9.59888 15.568 9.60138C14.5305 9.60763 13.508 10.0139 12.7742 10.7514C12.0517 11.4739 11.618 12.5139 11.668 13.5389C11.7155 14.4764 12.083 15.3514 12.7367 16.0289C13.018 16.3226 13.3654 16.5876 13.7342 16.7664C14.2242 17.0064 14.678 17.1314 15.2155 17.1914C16.0629 17.2889 16.928 17.1351 17.7717 17.2389C17.6617 17.2239 17.5492 17.2076 17.4404 17.1951C17.6879 17.2301 17.9279 17.2951 18.1592 17.3926C18.0592 17.3526 17.9592 17.3076 17.8592 17.2676C18.0654 17.3576 18.2592 17.4739 18.4404 17.6076C18.3555 17.5426 18.2717 17.4764 18.1879 17.4101C18.3654 17.5501 18.5255 17.7101 18.663 17.8876C18.598 17.8026 18.5317 17.7189 18.4655 17.6351C18.593 17.8039 18.7005 17.9851 18.7842 18.1789C18.7442 18.0789 18.6992 17.9789 18.6592 17.8789C18.7442 18.0789 18.7992 18.2814 18.8317 18.4976C18.8167 18.3876 18.8005 18.2751 18.788 18.1664C18.8192 18.3976 18.8192 18.6288 18.7905 18.8639C18.8055 18.7539 18.8217 18.6414 18.8342 18.5326C18.803 18.7513 18.7442 18.9639 18.6567 19.1701C18.6967 19.0701 18.7417 18.9701 18.7817 18.8701C18.6942 19.0701 18.5842 19.2576 18.4504 19.4288C18.5154 19.3438 18.5817 19.2601 18.6479 19.1763C18.5104 19.3488 18.3567 19.5013 18.1854 19.6363C18.2704 19.5713 18.3542 19.5051 18.4379 19.4388C18.2504 19.5826 18.0479 19.6988 17.8317 19.7914C17.9317 19.7514 18.0317 19.7064 18.1317 19.6664C17.9067 19.7564 17.6717 19.8201 17.4317 19.8539C17.5417 19.8389 17.6542 19.8226 17.763 19.8101C17.3442 19.8601 16.9105 19.8326 16.488 19.8326C16.0692 19.8326 15.6354 19.8639 15.2154 19.8076C15.3254 19.8226 15.4379 19.8389 15.5467 19.8514C15.3367 19.8201 15.1342 19.7664 14.9342 19.6864C15.0342 19.7264 15.1342 19.7714 15.2342 19.8114C15.0317 19.7239 14.8404 19.6176 14.6655 19.4839C14.7505 19.5489 14.8342 19.6151 14.918 19.6814C14.7592 19.5564 14.6155 19.4126 14.4905 19.2539C14.5555 19.3389 14.6217 19.4226 14.688 19.5064C14.563 19.3439 14.463 19.1714 14.3817 18.9839C14.4217 19.0839 14.4667 19.1839 14.5067 19.2839C14.4292 19.0939 14.3755 18.8964 14.3442 18.6901C14.3592 18.8001 14.3755 18.9126 14.388 19.0214C14.3755 18.9214 14.3692 18.8239 14.3692 18.7239C14.3667 18.4014 14.2317 18.0676 14.0042 17.8389C13.7892 17.6239 13.4317 17.4577 13.1192 17.4739C12.4492 17.5152 11.8642 18.0351 11.8717 18.7351Z" fill="black"/>
<path d="M9.56159 6.78734H5.62655H5.0703C5.4853 7.20235 5.90531 7.62235 6.32028 8.03732V4.10228V3.54603C6.32028 2.89351 5.74527 2.26478 5.0703 2.29604C4.39279 2.32729 3.82031 2.84606 3.82031 3.54603V7.48107V8.03732C3.82031 8.71233 4.39282 9.28731 5.0703 9.28731H9.00534H9.56159C10.2141 9.28731 10.8428 8.7123 10.8116 8.03732C10.7803 7.35982 10.2616 6.78734 9.56159 6.78734Z" fill="black"/>
</svg>
