<svg width="33" height="32" viewBox="0 0 33 32" fill="none" xmlns="http://www.w3.org/2000/svg">
<path d="M28.692 14.4634L15.667 1.43971C15.2195 0.959706 14.5795 0.735962 13.9395 0.799706L6.38689 1.56719C5.36315 1.66344 4.53064 2.49468 4.43438 3.51971L3.66689 11.0723C3.60314 11.7449 3.82689 12.3849 4.3069 12.8323L8.85058 17.376C7.85806 18.816 7.25058 20.5435 7.25058 22.3997C7.25058 27.2323 11.1869 31.1997 16.0506 31.1997C20.9155 31.1997 24.8192 27.2634 24.8192 22.3997C24.8192 22.0797 24.7867 21.7597 24.7555 21.4397L28.6591 17.536C29.5554 16.7035 29.5554 15.296 28.6916 14.4635L28.692 14.4634ZM16.052 29.632C12.052 29.632 8.81934 26.3994 8.81934 22.3994C8.81934 18.3994 12.052 15.1667 16.052 15.1667C20.052 15.1667 23.252 18.4317 23.252 22.3994C23.252 26.3671 20.0193 29.632 16.052 29.632ZM27.6033 16.4471L24.372 19.6471C23.2195 16.1597 19.9233 13.632 16.052 13.632C13.652 13.632 11.4446 14.6245 9.87566 16.192L5.39566 11.7434C5.26816 11.6159 5.20316 11.4234 5.23566 11.2309L5.97192 3.67823C6.00442 3.39073 6.22817 3.13449 6.54817 3.10198L14.1008 2.36572C14.1008 2.33322 14.1333 2.33322 14.1646 2.33322C14.3246 2.33322 14.4846 2.39697 14.6121 2.52572L27.6357 15.5494C27.827 15.8069 27.8271 16.1921 27.6033 16.4471Z" fill="black"/>
<path d="M10.5148 4.7666C8.91477 4.7666 7.63477 6.07911 7.63477 7.6466C7.63477 9.2466 8.94728 10.5591 10.5148 10.5591C12.1148 10.5591 13.4273 9.2466 13.4273 7.6466C13.426 6.0466 12.1148 4.7666 10.5148 4.7666ZM10.5148 8.99156C9.77851 8.99156 9.17102 8.38407 9.17102 7.64782C9.17102 6.91156 9.77851 6.30407 10.5148 6.30407C11.251 6.30407 11.8585 6.91156 11.8585 7.64782C11.8585 8.38283 11.251 8.99156 10.5148 8.99156Z" fill="black"/>
<path d="M16.6281 21.632H15.4756C14.9956 21.632 14.6119 21.2483 14.6119 20.7683C14.6119 20.2883 14.9956 19.9045 15.4756 19.9045H16.6281C16.9481 19.9045 17.2356 20.0645 17.3956 20.352C17.5881 20.7357 18.0681 20.8957 18.4519 20.7045C18.8356 20.512 18.9956 20.032 18.8044 19.6483C18.4206 18.912 17.6844 18.432 16.8519 18.3683L16.8531 17.5995C16.8531 17.152 16.5006 16.832 16.0856 16.832C15.6381 16.832 15.3181 17.1845 15.3181 17.5995V18.3358C14.0706 18.432 13.0781 19.4883 13.0781 20.7358C13.0781 22.0795 14.1656 23.1683 15.5106 23.1683H16.6632C17.1431 23.1683 17.5269 23.552 17.5269 24.032C17.5269 24.512 17.1431 24.8958 16.6632 24.8958H15.5106C15.2231 24.8958 14.9344 24.7358 14.8069 24.512C14.6794 24.2245 14.4231 24.032 14.0706 24.032C13.6231 24.032 13.3031 24.3845 13.3031 24.832C13.3031 24.9595 13.3356 25.0883 13.3994 25.1845C13.7831 25.9208 14.5194 26.3683 15.3194 26.432L15.3169 27.1995C15.3169 27.647 15.6694 27.967 16.0844 27.967C16.5319 27.967 16.8519 27.6145 16.8519 27.1995V26.432C18.0994 26.3358 19.0919 25.312 19.0919 24.032C19.0606 22.7195 17.9731 21.632 16.6281 21.632Z" fill="black"/>
</svg>
