<svg width="400" height="24" viewBox="0 0 400 24" fill="none" xmlns="http://www.w3.org/2000/svg">
<rect x="63.5" y="0.5" width="33" height="23" rx="3.5" fill="white"/>
<rect x="63.5" y="0.5" width="33" height="23" rx="3.5" stroke="#F9F7F6"/>
<path fill-rule="evenodd" clip-rule="evenodd" d="M73.7503 15.8583H71.6906L70.146 9.79247C70.0727 9.51344 69.917 9.26676 69.6881 9.1505C69.1166 8.85833 68.487 8.6258 67.8 8.50853V8.27499H71.1181C71.5761 8.27499 71.9195 8.6258 71.9768 9.03323L72.7782 13.4087L74.8369 8.27499H76.8394L73.7503 15.8583ZM77.9843 15.8583H76.039L77.6408 8.27499H79.5861L77.9843 15.8583ZM82.1028 10.3758C82.16 9.96738 82.5035 9.73384 82.9042 9.73384C83.5338 9.6752 84.2197 9.79248 84.7922 10.0836L85.1356 8.45091C84.5632 8.21737 83.9335 8.1001 83.3621 8.1001C81.4741 8.1001 80.1003 9.1505 80.1003 10.6083C80.1003 11.7174 81.0734 12.2997 81.7603 12.6505C82.5035 13.0003 82.7897 13.2338 82.7324 13.5836C82.7324 14.1083 82.16 14.3419 81.5886 14.3419C80.9017 14.3419 80.2147 14.167 79.5861 13.8748L79.2426 15.5086C79.9295 15.7997 80.6727 15.917 81.3596 15.917C83.4766 15.9746 84.7922 14.9252 84.7922 13.3501C84.7922 11.3666 82.1028 11.2503 82.1028 10.3758ZM91.6 15.8583L90.0555 8.27499H88.3965C88.053 8.27499 87.7095 8.50853 87.5951 8.85833L84.7349 15.8583H86.7374L87.1371 14.7503H89.5976L89.8265 15.8583H91.6ZM88.6827 10.3172L89.2541 13.1752H87.6523L88.6827 10.3172Z" fill="#172B85"/>
<rect x="111.5" y="0.5" width="33" height="23" rx="3.5" fill="white"/>
<rect x="111.5" y="0.5" width="33" height="23" rx="3.5" stroke="#F9F7F6"/>
<path fill-rule="evenodd" clip-rule="evenodd" d="M128.179 16.8292C126.995 17.8273 125.459 18.4298 123.781 18.4298C120.036 18.4298 117 15.4301 117 11.7298C117 8.02948 120.036 5.02979 123.781 5.02979C125.459 5.02979 126.995 5.63228 128.179 6.63033C129.363 5.63228 130.899 5.02979 132.577 5.02979C136.322 5.02979 139.358 8.02948 139.358 11.7298C139.358 15.4301 136.322 18.4298 132.577 18.4298C130.899 18.4298 129.363 17.8273 128.179 16.8292Z" fill="#ED0006"/>
<path fill-rule="evenodd" clip-rule="evenodd" d="M128.179 16.8292C129.637 15.6003 130.561 13.7717 130.561 11.7298C130.561 9.68783 129.637 7.85923 128.179 6.63032C129.363 5.63228 130.899 5.02979 132.577 5.02979C136.322 5.02979 139.358 8.02948 139.358 11.7298C139.358 15.4301 136.322 18.4298 132.577 18.4298C130.899 18.4298 129.363 17.8273 128.179 16.8292Z" fill="#F9A000"/>
<path fill-rule="evenodd" clip-rule="evenodd" d="M128.179 16.8292C129.637 15.6003 130.561 13.7717 130.561 11.7298C130.561 9.68787 129.637 7.85927 128.179 6.63037C126.721 7.85927 125.797 9.68787 125.797 11.7298C125.797 13.7717 126.721 15.6003 128.179 16.8292Z" fill="#FF5E00"/>
<rect x="159.5" y="0.5" width="33" height="23" rx="3.5" fill="white"/>
<rect x="159.5" y="0.5" width="33" height="23" rx="3.5" stroke="#F9F7F6"/>
<path fill-rule="evenodd" clip-rule="evenodd" d="M173.614 18.4483L173.835 16.9992L173.343 16.9873H170.995L172.627 6.2937C172.632 6.26132 172.649 6.23126 172.673 6.20987C172.697 6.18849 172.727 6.17676 172.76 6.17676H176.719C178.033 6.17676 178.94 6.45939 179.414 7.01734C179.636 7.27908 179.777 7.55267 179.845 7.85364C179.917 8.16951 179.918 8.54685 179.848 9.00715L179.843 9.04063V9.33561L180.065 9.46563C180.252 9.56815 180.401 9.68546 180.515 9.81975C180.705 10.0436 180.827 10.3281 180.879 10.6652C180.933 11.012 180.915 11.4248 180.827 11.892C180.726 12.4295 180.562 12.8976 180.341 13.2805C180.138 13.6334 179.879 13.9262 179.571 14.153C179.277 14.3686 178.928 14.5322 178.534 14.6369C178.151 14.7398 177.715 14.7917 177.237 14.7917H176.929C176.709 14.7917 176.495 14.8737 176.327 15.0207C176.158 15.1708 176.047 15.3758 176.013 15.6L175.989 15.7305L175.599 18.2848L175.582 18.3785C175.577 18.4082 175.569 18.423 175.557 18.433C175.547 18.4422 175.531 18.4483 175.517 18.4483H173.614Z" fill="#28356A"/>
<path fill-rule="evenodd" clip-rule="evenodd" d="M180.276 9.07471C180.264 9.15279 180.25 9.23258 180.235 9.31458C179.713 12.0852 177.927 13.0424 175.646 13.0424H174.484C174.205 13.0424 173.97 13.2517 173.927 13.5362L173.163 18.5394C173.135 18.7263 173.274 18.8945 173.457 18.8945H175.517C175.761 18.8945 175.968 18.7113 176.007 18.4627L176.027 18.3545L176.415 15.8103L176.44 15.6708C176.478 15.4213 176.685 15.238 176.929 15.238H177.237C179.233 15.238 180.796 14.4004 181.252 11.9766C181.443 10.9641 181.344 10.1186 180.84 9.52402C180.687 9.34476 180.497 9.19592 180.276 9.07471Z" fill="#298FC2"/>
<path fill-rule="evenodd" clip-rule="evenodd" d="M179.729 8.84944C179.65 8.82537 179.567 8.80362 179.483 8.78394C179.398 8.76476 179.311 8.74777 179.222 8.73287C178.908 8.68057 178.565 8.65576 178.198 8.65576H175.095C175.018 8.65576 174.945 8.6736 174.881 8.70586C174.737 8.77698 174.631 8.91701 174.605 9.08845L173.945 13.41L173.926 13.536C173.97 13.2515 174.205 13.0422 174.484 13.0422H175.645C177.927 13.0422 179.713 12.0845 180.235 9.31439C180.251 9.2324 180.264 9.15261 180.275 9.07452C180.143 9.00206 180 8.94011 179.846 8.88732C179.808 8.87425 179.769 8.86166 179.729 8.84944Z" fill="#22284F"/>
<path fill-rule="evenodd" clip-rule="evenodd" d="M174.606 9.08862C174.631 8.91718 174.738 8.77715 174.881 8.70652C174.946 8.67414 175.018 8.6563 175.095 8.6563H178.198C178.565 8.6563 178.909 8.68123 179.222 8.73353C179.311 8.74831 179.398 8.76542 179.483 8.7846C179.567 8.80415 179.65 8.82603 179.729 8.84998C179.769 8.8622 179.808 8.8749 179.847 8.88749C180.001 8.94028 180.144 9.00272 180.276 9.07469C180.431 8.05082 180.275 7.3537 179.739 6.72245C179.149 6.0274 178.083 5.72998 176.719 5.72998H172.76C172.482 5.72998 172.244 5.9393 172.201 6.22426L170.552 17.0279C170.519 17.2416 170.679 17.4344 170.887 17.4344H173.332L174.606 9.08862Z" fill="#28356A"/>
<rect x="207.5" y="0.5" width="33" height="23" rx="3.5" fill="white"/>
<rect x="207.5" y="0.5" width="33" height="23" rx="3.5" stroke="#F9F7F6"/>
<path fill-rule="evenodd" clip-rule="evenodd" d="M216.449 8.34316C216.164 8.69506 215.707 8.97261 215.251 8.93296C215.194 8.45715 215.417 7.95161 215.679 7.63936C215.964 7.27755 216.463 7.01983 216.868 7C216.915 7.49563 216.73 7.98135 216.449 8.34316ZM216.863 9.02712C216.461 9.003 216.094 9.15319 215.797 9.2745C215.606 9.35256 215.445 9.41867 215.322 9.41867C215.184 9.41867 215.016 9.34903 214.827 9.27084L214.827 9.27084C214.579 9.16838 214.296 9.05124 214 9.05686C213.319 9.06677 212.687 9.46823 212.34 10.1076C211.626 11.3863 212.154 13.2796 212.844 14.3205C213.182 14.8359 213.586 15.4009 214.119 15.3811C214.353 15.3719 214.521 15.2973 214.696 15.2202C214.897 15.1314 215.105 15.0391 215.431 15.0391C215.746 15.0391 215.945 15.129 216.137 15.2152C216.319 15.2973 216.494 15.376 216.754 15.3712C217.305 15.3613 217.653 14.8557 217.99 14.3403C218.355 13.7871 218.515 13.2471 218.539 13.1652L218.542 13.1557C218.541 13.1551 218.537 13.153 218.529 13.1492C218.407 13.0911 217.476 12.6469 217.467 11.4557C217.458 10.4559 218.206 9.94935 218.323 9.86961L218.323 9.8696C218.33 9.86476 218.335 9.86149 218.337 9.85978C217.862 9.12625 217.12 9.04695 216.863 9.02712ZM220.682 15.3167V7.5898H223.465C224.901 7.5898 225.905 8.62071 225.905 10.1274C225.905 11.6341 224.882 12.675 223.427 12.675H221.833V15.3167H220.682ZM221.833 8.60088H223.16C224.159 8.60088 224.73 9.15599 224.73 10.1324C224.73 11.1088 224.159 11.6688 223.156 11.6688H221.833V8.60088ZM229.705 14.3898C229.401 14.9945 228.73 15.3761 228.007 15.3761C226.937 15.3761 226.19 14.712 226.19 13.7108C226.19 12.7196 226.913 12.1496 228.25 12.0653L229.686 11.9761V11.5499C229.686 10.9204 229.291 10.5784 228.588 10.5784C228.007 10.5784 227.584 10.8907 227.498 11.3665H226.461C226.495 10.3653 227.398 9.63675 228.621 9.63675C229.938 9.63675 230.794 10.3554 230.794 11.4706V15.3167H229.729V14.3898H229.705ZM228.316 14.4592C227.703 14.4592 227.313 14.1519 227.313 13.6811C227.313 13.1954 227.688 12.9129 228.407 12.8683L229.686 12.784V13.2202C229.686 13.9438 229.096 14.4592 228.316 14.4592ZM234.328 15.619C233.867 16.9721 233.339 17.4181 232.217 17.4181C232.131 17.4181 231.846 17.4082 231.779 17.3884V16.4616C231.85 16.4715 232.026 16.4814 232.117 16.4814C232.626 16.4814 232.911 16.2584 233.087 15.6785L233.192 15.3365L231.242 9.7111H232.445L233.8 14.2759H233.824L235.18 9.7111H236.35L234.328 15.619Z" fill="black"/>
<rect x="255.5" y="0.5" width="33" height="23" rx="3.5" fill="white"/>
<rect x="255.5" y="0.5" width="33" height="23" rx="3.5" stroke="#F9F7F6"/>
<path fill-rule="evenodd" clip-rule="evenodd" d="M271.058 15.5283V12.5937H272.572C273.193 12.5937 273.717 12.3857 274.144 11.9755L274.247 11.8716C275.027 11.0224 274.975 9.69945 274.144 8.91379C273.728 8.49786 273.159 8.27256 272.572 8.28411H270.141V15.5283H271.058ZM271.058 11.704V9.1737H272.596C272.926 9.1737 273.239 9.30079 273.473 9.53186C273.968 10.0171 273.979 10.8259 273.501 11.3285C273.268 11.5769 272.937 11.7155 272.596 11.704H271.058ZM278.523 10.9588C278.13 10.5948 277.595 10.41 276.917 10.41C276.046 10.41 275.391 10.7335 274.958 11.3747L275.767 11.8889C276.063 11.4498 276.467 11.2303 276.98 11.2303C277.304 11.2303 277.617 11.3516 277.862 11.5711C278.101 11.7791 278.238 12.0795 278.238 12.3972V12.611C277.885 12.4146 277.441 12.3106 276.894 12.3106C276.257 12.3106 275.744 12.4608 275.363 12.7669C274.981 13.0731 274.788 13.4775 274.788 13.9916C274.776 14.4596 274.975 14.9044 275.328 15.2048C275.687 15.5283 276.143 15.69 276.678 15.69C277.31 15.69 277.811 15.407 278.193 14.8408H278.232V15.5283H279.109V12.4723C279.109 11.8311 278.916 11.3227 278.523 10.9588ZM276.035 14.6156C275.847 14.4769 275.733 14.2516 275.733 14.009C275.733 13.7375 275.858 13.5122 276.103 13.3331C276.354 13.154 276.667 13.0616 277.037 13.0616C277.55 13.0558 277.948 13.1713 278.233 13.4024C278.233 13.7952 278.079 14.1361 277.777 14.4249C277.504 14.7022 277.134 14.8582 276.747 14.8582C276.49 14.864 276.24 14.7773 276.035 14.6156ZM281.079 17.7062L284.143 10.5717H283.146L281.729 14.1303H281.712L280.26 10.5717H279.263L281.273 15.2106L280.134 17.7062H281.079Z" fill="#3C4043"/>
<path d="M267.893 11.9582C267.893 11.6751 267.87 11.392 267.825 11.1147H263.958V12.7149H266.173C266.082 13.2291 265.786 13.6912 265.353 13.9801V15.0199H266.674C267.449 14.2978 267.893 13.2291 267.893 11.9582Z" fill="#4285F4"/>
<path d="M263.959 16.0252C265.063 16.0252 265.997 15.6555 266.675 15.0201L265.354 13.9802C264.983 14.2344 264.511 14.3788 263.959 14.3788C262.888 14.3788 261.983 13.6452 261.658 12.6631H260.297V13.7376C260.992 15.1414 262.41 16.0252 263.959 16.0252Z" fill="#34A853"/>
<path d="M261.658 12.6626C261.487 12.1485 261.487 11.5882 261.658 11.0682V9.99951H260.297C259.711 11.1722 259.711 12.5587 260.297 13.7314L261.658 12.6626Z" fill="#FBBC04"/>
<path d="M263.959 9.35271C264.545 9.34116 265.109 9.56646 265.53 9.97662L266.703 8.78658C265.957 8.0818 264.978 7.69475 263.959 7.70631C262.41 7.70631 260.992 8.59594 260.297 9.99972L261.658 11.0742C261.983 10.0864 262.888 9.35271 263.959 9.35271Z" fill="#EA4335"/>
<rect x="303.5" y="0.5" width="33" height="23" rx="3.5" fill="#1F72CD"/>
<rect x="303.5" y="0.5" width="33" height="23" rx="3.5" stroke="#F9F7F6"/>
<path fill-rule="evenodd" clip-rule="evenodd" d="M309.095 8.5L305.914 15.7467H309.723L310.195 14.5913H311.274L311.746 15.7467H315.938V14.8649L316.311 15.7467H318.48L318.853 14.8462V15.7467H327.571L328.631 14.6213L329.623 15.7467L334.101 15.7561L330.91 12.1436L334.101 8.5H329.693L328.661 9.60463L327.7 8.5H318.216L317.402 10.3704L316.568 8.5H312.768V9.35186L312.345 8.5H309.095ZM309.832 9.52905H311.689L313.799 14.4431V9.52905H315.832L317.462 13.0524L318.964 9.52905H320.987V14.7291H319.756L319.746 10.6544L317.951 14.7291H316.85L315.045 10.6544V14.7291H312.512L312.032 13.5633H309.438L308.959 14.728H307.601L309.832 9.52905ZM327.12 9.52905H322.114V14.726H327.042L328.631 13.0036L330.162 14.726H331.763L329.436 12.1426L331.763 9.52905H330.232L328.651 11.2316L327.12 9.52905ZM310.735 10.4089L309.881 12.4856H311.589L310.735 10.4089ZM323.35 11.555V10.6057V10.6048H326.474L327.837 12.1229L326.413 13.6493H323.35V12.613H326.081V11.555H323.35Z" fill="white"/>
</svg>
