<svg width="261" height="48" viewBox="0 0 261 48" fill="none" xmlns="http://www.w3.org/2000/svg">
<path fill-rule="evenodd" clip-rule="evenodd" d="M13.662 0.5L0 14.162V33.4832L13.662 47.1451H32.9827L46.6451 33.4832V14.162L32.9827 0.5H13.662Z" fill="#D8D9D9"/>
<path fill-rule="evenodd" clip-rule="evenodd" d="M13.7898 0.808105L0.307861 14.2896V33.3556L13.7898 46.8371H32.8558L46.3373 33.3556V14.2896L32.8558 0.808105H13.7898Z" fill="white"/>
<path fill-rule="evenodd" clip-rule="evenodd" d="M14.6789 44.6904L2.45471 32.4661V15.1791L14.6789 2.95483H31.9665L44.1902 15.1791V32.4661L31.9665 44.6904H14.6789Z" fill="#ED1E45"/>
<path fill-rule="evenodd" clip-rule="evenodd" d="M11.9223 24.9984L11.5957 23.4944C11.3922 22.6762 11.1962 21.8071 11.0077 20.8878C10.8188 19.969 10.6298 19.083 10.4414 18.2309H10.3544C10.1801 19.0999 10.0019 19.9896 9.82098 20.9005C9.63909 21.8114 9.44686 22.6762 9.24382 23.4944L8.89508 24.9984H11.9223ZM12.5756 27.8809H8.24178L7.37087 31.766H4.10437L8.54681 15.4236H12.4013L16.8442 31.766H13.4466L12.5756 27.8809Z" fill="white"/>
<path fill-rule="evenodd" clip-rule="evenodd" d="M23.8345 28.9086C25.5909 28.9086 26.4693 28.1651 26.4693 26.678C26.4693 25.9593 26.2517 25.4372 25.816 25.1115C25.3803 24.7853 24.7195 24.6227 23.8345 24.6227H22.0269V28.9086H23.8345ZM23.5294 22.0156C24.3134 22.0156 24.883 21.8365 25.2388 21.477C25.5946 21.1179 25.7728 20.6291 25.7728 20.0106C25.7728 19.3925 25.5909 18.9498 25.228 18.6823C24.8652 18.4149 24.3059 18.281 23.5511 18.281H22.0269V22.0156H23.5294ZM18.8257 15.4238H23.6817C24.4224 15.4238 25.1082 15.4863 25.7399 15.6118C26.3715 15.7373 26.9228 15.9587 27.3952 16.2759C27.8666 16.5937 28.237 17.0115 28.5058 17.529C28.7742 18.0474 28.9086 18.6993 28.9086 19.4842C28.9086 19.8522 28.8611 20.2197 28.7671 20.5872C28.6722 20.9548 28.5307 21.2974 28.3422 21.6147C28.1533 21.9324 27.9066 22.2163 27.602 22.4668C27.297 22.7178 26.9412 22.9015 26.5346 23.0186V23.1187C27.5508 23.3358 28.3169 23.7541 28.8325 24.3717C29.3476 24.9902 29.6051 25.8508 29.6051 26.9534C29.6051 27.7891 29.4637 28.5077 29.1807 29.1093C28.8978 29.7109 28.5058 30.2081 28.0048 30.6006C27.5038 30.9935 26.9191 31.2859 26.2517 31.4776C25.5838 31.6703 24.8652 31.7662 24.0958 31.7662H18.8257V15.4238Z" fill="white"/>
<path fill-rule="evenodd" clip-rule="evenodd" d="M36.7919 23.294C38.5342 23.294 39.4051 22.4254 39.4051 20.6874C39.4051 19.8352 39.1837 19.2336 38.741 18.8826C38.2977 18.5315 37.6482 18.3562 36.7919 18.3562H35.0063V23.294H36.7919ZM31.8047 15.4238H36.9878C37.7572 15.4238 38.4796 15.5112 39.1545 15.687C39.8299 15.8623 40.4179 16.1547 40.9185 16.564C41.4195 16.9739 41.8147 17.5167 42.1057 18.1935C42.3957 18.8699 42.5409 19.7013 42.5409 20.6874C42.5409 21.6396 42.3919 22.4668 42.0944 23.1685C41.7969 23.8707 41.3941 24.4469 40.886 24.8981C40.3775 25.3493 39.7895 25.6839 39.1221 25.9006C38.4538 26.1182 37.7427 26.2268 36.9878 26.2268H35.0063V31.7657H31.8047V15.4238Z" fill="white"/>
<path fill-rule="evenodd" clip-rule="evenodd" d="M90.8125 35.7501C91.854 35.7501 92.8289 35.5098 93.7371 35.0292C94.6454 34.5487 95.4507 33.9802 96.1531 33.3238H96.2621L96.5164 35.3281H98.9869V10.2917H95.9715V16.8673L96.1168 19.7859C95.3417 19.1764 94.5788 18.6958 93.8279 18.3442C93.0771 17.9925 92.1931 17.8167 91.1758 17.8167C90.1586 17.8167 89.1897 18.0277 88.2694 18.4497C87.349 18.8716 86.5376 19.4694 85.8352 20.243C85.1328 21.0166 84.5697 21.9602 84.1458 23.0737C83.722 24.1872 83.51 25.4355 83.51 26.8186C83.51 29.6785 84.17 31.8821 85.4901 33.4293C86.8101 34.9765 88.5842 35.7501 90.8125 35.7501ZM68.0436 28.2954L65.7547 35.3281H62.6666L70.732 12.2609H74.1471L82.2125 35.3281H78.9791L76.7266 28.2954H68.0436ZM68.8065 25.9395H75.9636L74.8374 22.4231C74.4014 21.1338 73.9897 19.8503 73.6021 18.5727C73.2146 17.2951 72.8271 15.9882 72.4396 14.652H72.2942C71.9309 15.9882 71.5555 17.2951 71.168 18.5727C70.7805 19.8503 70.3687 21.1338 69.9327 22.4231L68.8065 25.9395ZM87.8697 31.6008C88.7174 32.7495 89.9163 33.3238 91.4665 33.3238C92.2899 33.3238 93.065 33.1304 93.7916 32.7436C94.5182 32.3568 95.2448 31.7649 95.9715 30.9679V22.0363C95.2206 21.38 94.5001 20.917 93.8098 20.6474C93.1195 20.3778 92.4111 20.243 91.6844 20.243C90.982 20.243 90.322 20.4012 89.7044 20.7177C89.0868 21.0342 88.5479 21.4796 88.0877 22.0539C87.6275 22.6283 87.2642 23.3139 86.9978 24.111C86.7314 24.908 86.5981 25.7988 86.5981 26.7834C86.5981 28.8463 87.022 30.4521 87.8697 31.6008ZM112.237 35.7501C113.254 35.7501 114.223 35.545 115.144 35.1347C116.064 34.7245 116.875 34.1208 117.578 33.3238C118.28 32.5268 118.837 31.5539 119.249 30.4052C119.661 29.2566 119.867 27.9555 119.867 26.5021C119.867 25.1893 119.715 23.9996 119.412 22.933C119.11 21.8664 118.662 20.9521 118.068 20.1903C117.475 19.4284 116.742 18.8423 115.87 18.4321C114.998 18.0218 113.993 17.8167 112.855 17.8167C111.862 17.8167 110.893 18.0453 109.948 18.5024C109.004 18.9595 108.132 19.528 107.333 20.2078L107.405 17.1135V10.2917H104.426V35.3281H106.824L107.078 33.5699H107.187C107.962 34.2498 108.792 34.7831 109.676 35.1699C110.56 35.5567 111.414 35.7501 112.237 35.7501ZM109.712 32.9194C110.475 33.189 111.147 33.3238 111.729 33.3238C112.455 33.3238 113.127 33.1656 113.745 32.8491C114.363 32.5326 114.895 32.0872 115.343 31.5129C115.792 30.9385 116.143 30.2294 116.397 29.3855C116.651 28.5416 116.779 27.5922 116.779 26.5373C116.779 25.5996 116.694 24.7439 116.524 23.9703C116.355 23.1967 116.082 22.5345 115.707 21.9836C115.331 21.4327 114.847 21.0049 114.254 20.7001C113.66 20.3954 112.952 20.243 112.128 20.243C110.699 20.243 109.125 21.0166 107.405 22.5638V31.5305C108.18 32.1868 108.949 32.6498 109.712 32.9194ZM127.159 35.7501C127.57 35.7501 127.91 35.7266 128.176 35.6798C128.442 35.6329 128.672 35.5625 128.866 35.4688L128.467 33.2886C128.297 33.3355 128.17 33.359 128.085 33.359H127.813C127.595 33.359 127.401 33.2652 127.231 33.0777C127.062 32.8901 126.977 32.5619 126.977 32.0931V10.2917H123.998V31.8821C123.998 33.148 124.24 34.1091 124.725 34.7655C125.209 35.4219 126.02 35.7501 127.159 35.7501ZM142.716 35.1523C141.735 35.5508 140.7 35.7501 139.61 35.7501C138.52 35.7501 137.484 35.5508 136.503 35.1523C135.523 34.7538 134.657 34.1736 133.906 33.4117C133.155 32.6498 132.556 31.7121 132.107 30.5986C131.659 29.4851 131.435 28.2251 131.435 26.8186C131.435 25.3886 131.659 24.1168 132.107 23.0033C132.556 21.8898 133.155 20.9463 133.906 20.1727C134.657 19.3991 135.523 18.813 136.503 18.4145C137.484 18.016 138.52 17.8167 139.61 17.8167C140.7 17.8167 141.735 18.016 142.716 18.4145C143.697 18.813 144.563 19.3991 145.314 20.1727C146.065 20.9463 146.664 21.8898 147.112 23.0033C147.56 24.1168 147.784 25.3886 147.784 26.8186C147.784 28.2251 147.56 29.4851 147.112 30.5986C146.664 31.7121 146.065 32.6498 145.314 33.4117C144.563 34.1736 143.697 34.7538 142.716 35.1523ZM139.61 33.359C138.859 33.359 138.169 33.2007 137.539 32.8843C136.909 32.5678 136.37 32.1224 135.922 31.548C135.474 30.9737 135.129 30.288 134.887 29.491C134.645 28.694 134.523 27.8031 134.523 26.8186C134.523 25.834 134.645 24.9373 134.887 24.1286C135.129 23.3198 135.474 22.6224 135.922 22.0363C136.37 21.4503 136.909 20.999 137.539 20.6825C138.169 20.3661 138.859 20.2078 139.61 20.2078C140.361 20.2078 141.051 20.3661 141.681 20.6825C142.31 20.999 142.849 21.4503 143.297 22.0363C143.745 22.6224 144.091 23.3198 144.333 24.1286C144.575 24.9373 144.696 25.834 144.696 26.8186C144.696 27.8031 144.575 28.694 144.333 29.491C144.091 30.288 143.745 30.9737 143.297 31.548C142.849 32.1224 142.31 32.5678 141.681 32.8843C141.051 33.2007 140.361 33.359 139.61 33.359ZM161.943 35.1699C160.974 35.5567 159.957 35.7501 158.891 35.7501C157.728 35.7501 156.638 35.5508 155.621 35.1523C154.604 34.7538 153.726 34.1736 152.987 33.4117C152.248 32.6498 151.667 31.7121 151.243 30.5986C150.819 29.4851 150.608 28.2251 150.608 26.8186C150.608 25.3886 150.838 24.1168 151.298 23.0033C151.758 21.8898 152.376 20.9463 153.151 20.1727C153.926 19.3991 154.828 18.813 155.857 18.4145C156.887 18.016 157.971 17.8167 159.109 17.8167C160.271 17.8167 161.265 18.016 162.088 18.4145C162.912 18.813 163.638 19.2819 164.268 19.821L162.742 21.7199C162.233 21.2745 161.694 20.9111 161.125 20.6298C160.556 20.3485 159.92 20.2078 159.218 20.2078C158.419 20.2078 157.68 20.3661 157.002 20.6825C156.324 20.999 155.742 21.4503 155.258 22.0363C154.773 22.6224 154.392 23.3198 154.113 24.1286C153.835 24.9373 153.696 25.834 153.696 26.8186C153.696 27.8031 153.829 28.694 154.095 29.491C154.362 30.288 154.731 30.9737 155.203 31.548C155.676 32.1224 156.251 32.5678 156.929 32.8843C157.607 33.2007 158.346 33.359 159.145 33.359C159.969 33.359 160.726 33.189 161.416 32.8491C162.106 32.5092 162.73 32.1048 163.287 31.636L164.595 33.5699C163.796 34.2498 162.912 34.7831 161.943 35.1699ZM170.906 30.8272L174.212 27.0999L179.371 35.3281H182.641L175.92 25.0956L181.842 18.2387H178.535L171.015 27.2405H170.906V10.2917H167.963V35.3281H170.906V30.8272ZM190.587 27.557V35.3281H185.246V12.4016H193.384C194.692 12.4016 195.915 12.5246 197.054 12.7708C198.192 13.0169 199.185 13.4272 200.033 14.0015C200.881 14.5758 201.553 15.3377 202.049 16.2871C202.546 17.2365 202.794 18.4028 202.794 19.7859C202.794 21.1221 202.546 22.2825 202.049 23.2671C201.553 24.2516 200.881 25.0604 200.033 25.6933C199.185 26.3263 198.204 26.7951 197.09 27.0999C195.976 27.4046 194.789 27.557 193.53 27.557H190.587ZM193.203 23.4429H190.587V16.5157H193.057C194.511 16.5157 195.625 16.7618 196.4 17.2541C197.175 17.7464 197.562 18.5903 197.562 19.7859C197.562 22.2239 196.109 23.4429 193.203 23.4429ZM212.449 35.627C212.001 35.7091 211.474 35.7501 210.869 35.7501C209.949 35.7501 209.173 35.6094 208.544 35.3281C207.914 35.0468 207.411 34.6542 207.036 34.1501C206.661 33.6461 206.388 33.0366 206.219 32.3216C206.049 31.6067 205.964 30.8038 205.964 29.913V10.6785H211.305V30.1239C211.305 30.6631 211.408 31.0382 211.614 31.2492C211.82 31.4601 212.031 31.5656 212.249 31.5656H212.558C212.643 31.5656 212.758 31.5422 212.903 31.4953L213.557 35.3281C213.267 35.4453 212.897 35.545 212.449 35.627ZM221.269 35.7501C222.504 35.7501 223.564 35.4981 224.448 34.9941C225.332 34.4901 226.162 33.7927 226.937 32.9018H227.046L227.445 35.3281H231.805V17.8871H226.464V29.4207C225.931 30.1005 225.435 30.5928 224.975 30.8975C224.515 31.2023 223.945 31.3547 223.267 31.3547C222.492 31.3547 221.923 31.1202 221.56 30.6514C221.196 30.1825 221.015 29.3152 221.015 28.0493V17.8871H215.674V28.7174C215.674 30.921 216.116 32.644 217 33.8864C217.884 35.1289 219.307 35.7501 221.269 35.7501ZM244.494 35.3105C243.574 35.6036 242.508 35.7501 241.297 35.7501C240.11 35.7501 238.893 35.5274 237.646 35.082C236.398 34.6366 235.314 34.0505 234.394 33.3238L236.792 30.0888C237.615 30.6983 238.402 31.1554 239.153 31.4601C239.904 31.7649 240.667 31.9173 241.442 31.9173C242.241 31.9173 242.823 31.7883 243.186 31.5305C243.549 31.2726 243.731 30.9092 243.731 30.4404C243.731 30.1591 243.628 29.9071 243.422 29.6844C243.216 29.4617 242.938 29.2566 242.587 29.069C242.235 28.8815 241.842 28.7115 241.406 28.5592C240.97 28.4068 240.522 28.2368 240.062 28.0493C239.505 27.8383 238.947 27.5922 238.39 27.3109C237.833 27.0295 237.325 26.6838 236.865 26.2735C236.404 25.8633 236.029 25.3827 235.738 24.8318C235.448 24.2809 235.302 23.6421 235.302 22.9154C235.302 22.1184 235.466 21.38 235.793 20.7001C236.12 20.0203 236.586 19.446 237.191 18.9771C237.797 18.5083 238.524 18.1391 239.371 17.8695C240.219 17.5999 241.164 17.4651 242.205 17.4651C243.586 17.4651 244.797 17.6937 245.838 18.1508C246.88 18.6079 247.788 19.1178 248.563 19.6804L246.165 22.7748C245.511 22.3059 244.869 21.9426 244.24 21.6847C243.61 21.4268 242.98 21.2979 242.35 21.2979C240.994 21.2979 240.316 21.755 240.316 22.6693C240.316 22.9506 240.413 23.1909 240.607 23.3901C240.8 23.5894 241.061 23.7711 241.388 23.9352C241.715 24.0993 242.09 24.2575 242.514 24.4099C242.938 24.5622 243.38 24.7205 243.84 24.8846C244.421 25.0956 244.997 25.3358 245.566 25.6054C246.135 25.875 246.656 26.2091 247.128 26.6076C247.6 27.0061 247.982 27.4925 248.272 28.0669C248.563 28.6412 248.708 29.3269 248.708 30.1239C248.708 30.921 248.551 31.6594 248.236 32.3392C247.921 33.0191 247.449 33.611 246.819 34.115C246.189 34.619 245.414 35.0175 244.494 35.3105Z" fill="black"/>
</svg>
