<svg width="33" height="32" viewBox="0 0 33 32" fill="none" xmlns="http://www.w3.org/2000/svg">
<path d="M31.2802 24.0865L24.6625 20.7777C24.4488 20.674 24.2001 20.674 23.9863 20.7777C22.3638 19.0652 22.015 16.099 21.7788 14.0388C21.7563 13.8401 21.7338 13.6488 21.7113 13.4689V13.4301C21.6226 12.8814 21.4188 12.3588 21.1138 11.8951C20.9063 11.5976 20.7726 11.2576 20.7225 10.8988L19.5513 3.01501C19.4388 2.07376 18.655 1.35626 17.7088 1.32502C17.2738 1.31502 16.8488 1.44877 16.4988 1.70502C16.1501 1.44627 15.7238 1.31251 15.2888 1.32502C14.355 1.35002 13.6188 2.01629 13.4401 3.04378L12.2838 10.8799C12.2338 11.2412 12.0988 11.5849 11.8913 11.8849C11.5826 12.3537 11.3788 12.8849 11.2926 13.4399V13.4787C11.2701 13.6574 11.2476 13.8499 11.2251 14.0487C10.9888 16.1099 10.6401 19.0762 9.01756 20.7875C8.80381 20.6825 8.55507 20.6825 8.34256 20.7875L1.71759 24.0864C1.46135 24.2177 1.30009 24.4802 1.29884 24.7677V29.9139C1.29759 30.1164 1.37759 30.3102 1.52134 30.4527C1.66384 30.5964 1.8576 30.6764 2.06009 30.6752H12.2812C12.5462 30.6702 12.79 30.5252 12.9212 30.2952L14.8412 26.9864V26.9851C14.99 26.7226 14.9712 26.3976 14.7937 26.1539C14.8437 26.0964 14.8962 26.0414 14.9537 25.9901C15.5325 25.8751 16.0675 25.6001 16.4987 25.1963C16.9274 25.5988 17.4587 25.8738 18.035 25.9901C18.0912 26.0414 18.145 26.0964 18.195 26.1539C18.015 26.3964 17.9962 26.7238 18.1462 26.9851L20.0662 30.2939V30.2952C20.1987 30.5252 20.4412 30.6702 20.7062 30.6752H30.9398C31.1423 30.6752 31.3348 30.5952 31.4773 30.4527C31.6198 30.3089 31.6998 30.1152 31.6986 29.9139V24.7677C31.6973 24.4802 31.5361 24.2177 31.2798 24.0864L31.2802 24.0865ZM11.8401 29.1553H2.81903V25.2392L7.73167 22.7817C7.77917 24.2442 8.48418 25.6079 9.65167 26.493C10.5129 27.1943 11.5729 27.6093 12.6817 27.6805L11.8401 29.1553ZM15.7377 23.7153C15.7377 23.9778 15.0465 24.4578 14.7777 24.4991C14.1377 24.4991 13.3315 25.4266 12.934 26.1753V26.1766C12.0827 26.1628 11.2627 25.8591 10.6078 25.3153C9.75151 24.6691 9.24901 23.6566 9.25151 22.5828C11.9777 20.6628 12.429 16.8228 12.7264 14.2279C12.7489 14.0392 12.7676 13.8604 12.7901 13.6867C12.8476 13.3342 12.9814 12.9992 13.1839 12.7042C13.4964 12.2317 13.7002 11.6967 13.7827 11.1367L14.9352 3.30918C14.9739 3.10793 15.0727 2.86419 15.3289 2.85792H15.3277C15.5052 2.85542 15.6664 2.96167 15.7339 3.12667L15.7377 23.7153ZM17.2615 23.7153L17.2602 3.11404C17.3252 2.94779 17.4877 2.83904 17.6665 2.8453C17.9227 2.8453 18.0215 3.0953 18.054 3.26779L19.2127 11.1328C19.2952 11.6903 19.5002 12.2227 19.8115 12.6915C20.0127 12.9853 20.1477 13.3215 20.204 13.674C20.2265 13.8465 20.2452 14.0265 20.2677 14.2152C20.5652 16.7977 21.0165 20.644 23.7426 22.5701H23.7439C23.7464 23.6439 23.2439 24.6551 22.3864 25.3026C21.7326 25.8464 20.9114 26.1501 20.0601 26.1639C19.6639 25.4152 18.8639 24.4876 18.2451 24.4876C17.9514 24.4451 17.2601 23.9651 17.2601 23.7026L17.2615 23.7153ZM30.1802 29.1553H21.1553L20.304 27.6803C21.4127 27.6091 22.4715 27.1941 23.334 26.4928C24.5002 25.6078 25.2053 24.2441 25.254 22.7815L30.1666 25.239L30.1802 29.1553Z" fill="black"/>
</svg>
