<svg width="33" height="32" viewBox="0 0 33 32" fill="none" xmlns="http://www.w3.org/2000/svg">
<path d="M24.8802 12.1587L24.8777 12.1562H20.0041V8.77128C20.0041 7.21876 19.5429 6.08878 18.6303 5.4212C17.1891 4.36494 15.254 4.95995 15.1478 4.99118C14.8415 5.08868 14.6328 5.37118 14.6328 5.69118V9.67998C14.6328 11.9125 12.2853 13.3824 11.0977 13.9824C10.9327 13.6761 10.609 13.4674 10.2365 13.4674H5.86273C5.32398 13.4674 4.88647 13.9061 4.88647 14.4436V25.8785C4.88647 26.4173 5.32523 26.8548 5.86273 26.8548H10.2327C10.5439 26.8548 10.8239 26.7073 11.0026 26.4785C11.5914 26.946 12.3226 27.2048 13.0851 27.2048H22.8439C23.9501 27.2048 24.8589 26.9198 25.5463 26.3548C26.2313 25.7935 26.6614 24.9635 26.7876 23.9573L28.1051 15.5899V15.5812C28.1076 15.5637 28.1113 15.5374 28.1113 15.5049C28.1138 13.6962 26.6726 12.2198 24.8787 12.1574L24.8802 12.1587ZM16.1 9.67375V6.28878C16.5888 6.23004 17.2613 6.23878 17.7563 6.60379C18.265 6.97755 18.5238 7.70628 18.5238 8.76503V12.8889C18.5238 13.2951 18.8538 13.6239 19.2588 13.6239H24.759C25.774 13.6239 26.6089 14.4389 26.6327 15.4501L25.3302 23.7388L25.324 23.7688V23.7863C25.1565 25.075 24.3215 25.7275 22.8415 25.7275H13.0828C12.0477 25.7275 11.2065 24.8863 11.2065 23.8513V15.5537C11.6828 15.3474 12.5302 14.9362 13.3803 14.3099C15.1603 13.0037 16.1003 11.4037 16.1003 9.67503L16.1 9.67375ZM6.35893 25.3825V14.9387H9.73525V25.3825H6.35893Z" fill="#293356"/>
</svg>
