<svg width="32" height="32" viewBox="0 0 32 32" fill="none" xmlns="http://www.w3.org/2000/svg">
<path fill-rule="evenodd" clip-rule="evenodd" d="M9.37257 6.10352e-05L4.57764e-05 9.37258V22.6275L9.37257 32.0001H22.6272L32 22.6275V9.37258L22.6272 6.10352e-05H9.37257Z" fill="#D8D9D9"/>
<path fill-rule="evenodd" clip-rule="evenodd" d="M9.46023 0.211426L0.211197 9.46013V22.54L9.46023 31.7887H22.5401L31.7888 22.54V9.46013L22.5401 0.211426H9.46023Z" fill="white"/>
<path fill-rule="evenodd" clip-rule="evenodd" d="M10.0702 30.3159L1.68398 21.9297V10.0703L10.0702 1.68408H21.93L30.3158 10.0703V21.9297L21.93 30.3159H10.0702Z" fill="#ED1E45"/>
<path fill-rule="evenodd" clip-rule="evenodd" d="M8.17906 16.8068L7.95497 15.775C7.81535 15.2136 7.6809 14.6174 7.5516 13.9868C7.42198 13.3564 7.29237 12.7486 7.16307 12.164H7.10342C6.9838 12.7602 6.86159 13.3706 6.73746 13.9955C6.61267 14.6203 6.4808 15.2136 6.34151 15.775L6.10226 16.8068H8.17906ZM8.62725 18.7842H5.65408L5.05661 21.4495H2.81569L5.86334 10.2381H8.50762L11.5556 21.4495H9.22472L8.62725 18.7842Z" fill="white"/>
<path fill-rule="evenodd" clip-rule="evenodd" d="M16.3512 19.4891C17.5561 19.4891 18.1588 18.9791 18.1588 17.9589C18.1588 17.4659 18.0095 17.1076 17.7106 16.8842C17.4117 16.6604 16.9583 16.5489 16.3512 16.5489H15.1111V19.4891H16.3512ZM16.1419 14.7604C16.6798 14.7604 17.0705 14.6375 17.3146 14.3909C17.5587 14.1445 17.6809 13.8092 17.6809 13.3849C17.6809 12.9609 17.5561 12.6571 17.3072 12.4737C17.0583 12.2902 16.6746 12.1983 16.1568 12.1983H15.1111V14.7604H16.1419ZM12.915 10.2382H16.2464C16.7546 10.2382 17.225 10.2811 17.6583 10.3672C18.0917 10.4533 18.4699 10.6052 18.794 10.8228C19.1174 11.0408 19.3714 11.3274 19.5559 11.6824C19.74 12.038 19.8322 12.4853 19.8322 13.0237C19.8322 13.2762 19.7996 13.5283 19.7351 13.7805C19.67 14.0326 19.573 14.2677 19.4437 14.4853C19.314 14.7033 19.1448 14.898 18.9358 15.0699C18.7266 15.2421 18.4825 15.3682 18.2036 15.4484V15.5171C18.9007 15.6661 19.4262 15.953 19.78 16.3767C20.1333 16.801 20.31 17.3914 20.31 18.1479C20.31 18.7211 20.213 19.2141 20.0189 19.6269C19.8248 20.0396 19.5559 20.3807 19.2122 20.6499C18.8684 20.9195 18.4673 21.1201 18.0095 21.2516C17.5513 21.3838 17.0583 21.4496 16.5305 21.4496H12.915V10.2382Z" fill="white"/>
<path fill-rule="evenodd" clip-rule="evenodd" d="M25.2403 15.6375C26.4356 15.6375 27.033 15.0416 27.033 13.8492C27.033 13.2647 26.8812 12.8519 26.5774 12.6111C26.2734 12.3702 25.8278 12.25 25.2403 12.25H24.0154V15.6375H25.2403ZM21.819 10.2383H25.3748C25.9026 10.2383 26.3982 10.2983 26.8612 10.4188C27.3245 10.5391 27.7279 10.7397 28.0713 11.0205C28.415 11.3017 28.6862 11.6741 28.8858 12.1384C29.0847 12.6024 29.1843 13.1728 29.1843 13.8492C29.1843 14.5025 29.0821 15.07 28.878 15.5514C28.6739 16.0331 28.3976 16.4284 28.049 16.7379C27.7002 17.0475 27.2968 17.277 26.839 17.4257C26.3804 17.575 25.8926 17.6494 25.3748 17.6494H24.0154V21.4493H21.819V10.2383Z" fill="white"/>
</svg>
