<svg width="150" height="28" viewBox="0 0 150 28" fill="none" xmlns="http://www.w3.org/2000/svg">
<path fill-rule="evenodd" clip-rule="evenodd" d="M7.86803 6.10352e-05L0 7.86809V18.9953L7.86803 26.8634H18.995L26.8633 18.9953V7.86809L18.995 6.10352e-05H7.86803Z" fill="#D8D9D9"/>
<path fill-rule="evenodd" clip-rule="evenodd" d="M7.94161 0.177551L0.177246 7.94164V18.9219L7.94161 26.686H18.9219L26.686 18.9219V7.94164L18.9219 0.177551H7.94161Z" fill="white"/>
<path fill-rule="evenodd" clip-rule="evenodd" d="M8.45373 25.4497L1.4137 18.4097V8.45391L8.45373 1.41388H18.4098L25.4495 8.45391V18.4097L18.4098 25.4497H8.45373Z" fill="#ED1E45"/>
<path fill-rule="evenodd" clip-rule="evenodd" d="M6.86622 14.109L6.6781 13.2429C6.56089 12.7716 6.44802 12.2711 6.33948 11.7417C6.23067 11.2125 6.12186 10.7023 6.01331 10.2116H5.96324C5.86282 10.712 5.76023 11.2244 5.65602 11.749C5.55127 12.2736 5.44056 12.7716 5.32363 13.2429L5.12279 14.109H6.86622ZM7.24245 15.7691H4.74654L4.24497 18.0065H2.36377L4.92221 8.59479H7.14203L9.70073 18.0065H7.74401L7.24245 15.7691Z" fill="white"/>
<path fill-rule="evenodd" clip-rule="evenodd" d="M13.7265 16.3608C14.738 16.3608 15.2439 15.9326 15.2439 15.0762C15.2439 14.6623 15.1186 14.3616 14.8677 14.174C14.6168 13.9862 14.2362 13.8925 13.7265 13.8925H12.6855V16.3608H13.7265ZM13.5508 12.3911C14.0023 12.3911 14.3304 12.288 14.5353 12.0809C14.7402 11.8741 14.8428 11.5926 14.8428 11.2364C14.8428 10.8805 14.738 10.6255 14.5291 10.4715C14.3201 10.3175 13.998 10.2403 13.5633 10.2403H12.6855V12.3911H13.5508ZM10.8419 8.59485H13.6386C14.0651 8.59485 14.4601 8.63085 14.8238 8.70312C15.1876 8.77539 15.5051 8.90288 15.7772 9.08559C16.0487 9.26856 16.2619 9.50919 16.4168 9.80721C16.5713 10.1058 16.6487 10.4812 16.6487 10.9332C16.6487 11.1452 16.6214 11.3568 16.5673 11.5685C16.5126 11.7802 16.4311 11.9775 16.3226 12.1602C16.2138 12.3432 16.0717 12.5067 15.8963 12.6509C15.7206 12.7955 15.5157 12.9013 15.2816 12.9687V13.0264C15.8668 13.1514 16.308 13.3923 16.6049 13.748C16.9016 14.1042 17.0499 14.5998 17.0499 15.2348C17.0499 15.7161 16.9684 16.1299 16.8055 16.4764C16.6425 16.8229 16.4168 17.1093 16.1282 17.3353C15.8397 17.5616 15.503 17.7299 15.1186 17.8404C14.734 17.9513 14.3201 18.0065 13.877 18.0065H10.8419V8.59485Z" fill="white"/>
<path fill-rule="evenodd" clip-rule="evenodd" d="M21.1887 13.1274C22.1921 13.1274 22.6936 12.6272 22.6936 11.6262C22.6936 11.1355 22.5661 10.789 22.3112 10.5868C22.0559 10.3846 21.6818 10.2837 21.1887 10.2837H20.1604V13.1274H21.1887ZM18.3165 8.59491H21.3016C21.7446 8.59491 22.1607 8.64526 22.5494 8.74649C22.9383 8.84745 23.277 9.01581 23.5652 9.25157C23.8538 9.4876 24.0814 9.80023 24.249 10.19C24.416 10.5795 24.4996 11.0583 24.4996 11.6262C24.4996 12.1746 24.4138 12.651 24.2425 13.0551C24.0711 13.4595 23.8391 13.7914 23.5465 14.0512C23.2537 14.3111 22.9151 14.5038 22.5307 14.6286C22.1458 14.7539 21.7363 14.8164 21.3016 14.8164H20.1604V18.0063H18.3165V8.59491Z" fill="white"/>
<path fill-rule="evenodd" clip-rule="evenodd" d="M52.2996 20.3009C52.8994 20.3009 53.4609 20.1625 53.9839 19.8857C54.507 19.609 54.9708 19.2816 55.3753 18.9036H55.4381L55.5846 20.0579H57.0073V5.63922H55.2707V9.42614L55.3544 11.107C54.908 10.7559 54.4687 10.4792 54.0362 10.2767C53.6038 10.0742 53.0947 9.97291 52.5089 9.97291C51.923 9.97291 51.3651 10.0944 50.835 10.3374C50.305 10.5804 49.8377 10.9247 49.4332 11.3702C49.0286 11.8157 48.7043 12.3591 48.4602 13.0004C48.2161 13.6417 48.0941 14.3606 48.0941 15.1571C48.0941 16.8042 48.4742 18.0733 49.2344 18.9643C49.9946 19.8554 51.0163 20.3009 52.2996 20.3009ZM39.1868 16.0077L37.8687 20.0579H36.0902L40.7351 6.77331H42.7019L47.3468 20.0579H45.4847L44.1875 16.0077H39.1868ZM39.6262 14.6509H43.7481L43.0995 12.6258C42.8484 11.8832 42.6112 11.1441 42.3881 10.4083C42.1649 9.67251 41.9417 8.91985 41.7185 8.15031H41.6348C41.4256 8.91985 41.2094 9.67251 40.9862 10.4083C40.763 11.1441 40.5259 11.8832 40.2748 12.6258L39.6262 14.6509ZM50.6049 17.9113C51.0931 18.5728 51.7835 18.9036 52.6762 18.9036C53.1505 18.9036 53.5969 18.7922 54.0153 18.5694C54.4338 18.3467 54.8522 18.0058 55.2707 17.5467V12.403C54.8383 12.025 54.4233 11.7584 54.0258 11.6031C53.6282 11.4478 53.2202 11.3702 52.8018 11.3702C52.3973 11.3702 52.0172 11.4613 51.6615 11.6436C51.3058 11.8259 50.9954 12.0824 50.7304 12.4131C50.4654 12.7439 50.2561 13.1388 50.1027 13.5978C49.9493 14.0568 49.8725 14.5699 49.8725 15.1369C49.8725 16.3249 50.1167 17.2497 50.6049 17.9113ZM64.6383 20.3009C65.2242 20.3009 65.7821 20.1827 66.3122 19.9465C66.8422 19.7102 67.3095 19.3626 67.714 18.9036C68.1185 18.4445 68.4393 17.8843 68.6765 17.2227C68.9136 16.5612 69.0322 15.8119 69.0322 14.9749C69.0322 14.2189 68.945 13.5337 68.7706 12.9194C68.5963 12.3051 68.3382 11.7786 67.9965 11.3399C67.6547 10.9011 67.2328 10.5636 66.7306 10.3273C66.2285 10.091 65.6496 9.97291 64.994 9.97291C64.4221 9.97291 63.8642 10.1045 63.3202 10.3678C62.7762 10.6311 62.274 10.9585 61.8137 11.35L61.8555 9.5679V5.63922H60.1398V20.0579H61.5208L61.6672 19.0453H61.73C62.1764 19.4368 62.6541 19.744 63.1632 19.9667C63.6724 20.1895 64.1641 20.3009 64.6383 20.3009ZM63.1841 18.6707C63.6235 18.8259 64.0106 18.9036 64.3454 18.9036C64.7638 18.9036 65.1509 18.8124 65.5066 18.6302C65.8623 18.4479 66.1692 18.1914 66.4272 17.8606C66.6853 17.5299 66.8875 17.1215 67.034 16.6355C67.1805 16.1494 67.2537 15.6027 67.2537 14.9951C67.2537 14.4551 67.2049 13.9623 67.1072 13.5168C67.0096 13.0713 66.8527 12.6899 66.6365 12.3726C66.4203 12.0554 66.1413 11.809 65.7995 11.6335C65.4578 11.458 65.0498 11.3702 64.5755 11.3702C63.7526 11.3702 62.8459 11.8157 61.8555 12.7068V17.8708C62.3019 18.2488 62.7448 18.5154 63.1841 18.6707ZM73.2317 20.3009C73.4688 20.3009 73.6641 20.2874 73.8176 20.2604C73.971 20.2334 74.1035 20.1929 74.2151 20.1389L73.9849 18.8833C73.8873 18.9103 73.8141 18.9238 73.7652 18.9238H73.6083C73.4828 18.9238 73.3712 18.8698 73.2736 18.7618C73.1759 18.6538 73.1271 18.4648 73.1271 18.1948V5.63922H71.4114V18.0733C71.4114 18.8023 71.5509 19.3558 71.8299 19.7339C72.1088 20.1119 72.5761 20.3009 73.2317 20.3009ZM82.1913 19.9566C81.6264 20.1861 81.03 20.3009 80.4024 20.3009C79.7747 20.3009 79.1783 20.1861 78.6134 19.9566C78.0485 19.7271 77.5498 19.3929 77.1174 18.9542C76.685 18.5154 76.3398 17.9754 76.0817 17.3341C75.8237 16.6928 75.6947 15.9672 75.6947 15.1571C75.6947 14.3336 75.8237 13.6012 76.0817 12.9599C76.3398 12.3186 76.685 11.7752 77.1174 11.3297C77.5498 10.8842 78.0485 10.5467 78.6134 10.3172C79.1783 10.0877 79.7747 9.9729 80.4024 9.9729C81.03 9.9729 81.6264 10.0877 82.1913 10.3172C82.7562 10.5467 83.2549 10.8842 83.6873 11.3297C84.1197 11.7752 84.4649 12.3186 84.723 12.9599C84.981 13.6012 85.1101 14.3336 85.1101 15.1571C85.1101 15.9672 84.981 16.6928 84.723 17.3341C84.4649 17.9754 84.1197 18.5154 83.6873 18.9542C83.2549 19.3929 82.7562 19.7271 82.1913 19.9566ZM80.4024 18.9238C79.9699 18.9238 79.5724 18.8327 79.2097 18.6504C78.8471 18.4682 78.5367 18.2117 78.2787 17.8809C78.0206 17.5501 77.8218 17.1552 77.6824 16.6962C77.5429 16.2372 77.4731 15.7242 77.4731 15.1571C77.4731 14.5901 77.5429 14.0737 77.6824 13.608C77.8218 13.1422 78.0206 12.7405 78.2787 12.403C78.5367 12.0655 78.8471 11.8056 79.2097 11.6234C79.5724 11.4411 79.9699 11.35 80.4024 11.35C80.8348 11.35 81.2323 11.4411 81.595 11.6234C81.9576 11.8056 82.268 12.0655 82.526 12.403C82.7841 12.7405 82.9829 13.1422 83.1224 13.608C83.2618 14.0737 83.3316 14.5901 83.3316 15.1571C83.3316 15.7242 83.2618 16.2372 83.1224 16.6962C82.9829 17.1552 82.7841 17.5501 82.526 17.8809C82.268 18.2117 81.9576 18.4682 81.595 18.6504C81.2323 18.8327 80.8348 18.9238 80.4024 18.9238ZM93.2641 19.9667C92.7061 20.1895 92.1203 20.3009 91.5065 20.3009C90.837 20.3009 90.2093 20.1861 89.6235 19.9566C89.0376 19.7271 88.532 19.3929 88.1065 18.9542C87.6811 18.5154 87.3463 17.9754 87.1022 17.3341C86.8581 16.6928 86.7361 15.9672 86.7361 15.1571C86.7361 14.3336 86.8686 13.6012 87.1336 12.9599C87.3986 12.3186 87.7543 11.7752 88.2007 11.3297C88.6471 10.8842 89.1667 10.5467 89.7595 10.3172C90.3523 10.0877 90.9765 9.9729 91.6321 9.9729C92.3016 9.9729 92.8735 10.0877 93.3478 10.3172C93.822 10.5467 94.2405 10.8167 94.6032 11.1272L93.7244 12.2208C93.4315 11.9642 93.1211 11.755 92.7933 11.593C92.4655 11.431 92.0994 11.35 91.6949 11.35C91.2346 11.35 90.8091 11.4411 90.4185 11.6233C90.028 11.8056 89.6932 12.0655 89.4142 12.403C89.1353 12.7405 88.9156 13.1422 88.7552 13.6079C88.5948 14.0737 88.5145 14.5901 88.5145 15.1571C88.5145 15.7242 88.5913 16.2372 88.7447 16.6962C88.8981 17.1552 89.1109 17.5501 89.3829 17.8809C89.6549 18.2116 89.9861 18.4682 90.3767 18.6504C90.7673 18.8327 91.1927 18.9238 91.653 18.9238C92.1273 18.9238 92.5632 18.8259 92.9607 18.6302C93.3582 18.4344 93.7174 18.2015 94.0382 17.9315L94.7915 19.0453C94.3312 19.4368 93.822 19.744 93.2641 19.9667ZM98.4261 20.0579V17.4657L100.33 15.3192L103.301 20.0579H105.184L101.314 14.1649L104.724 10.2159H102.82L98.4889 15.4002H98.4261V5.63922H96.7314V20.0579H98.4261ZM109.76 15.5824V20.0578H106.685V6.85426H111.372C112.125 6.85426 112.829 6.92514 113.485 7.06689C114.14 7.20865 114.712 7.44491 115.2 7.77567C115.689 8.10644 116.076 8.54521 116.362 9.09198C116.648 9.63876 116.791 10.3104 116.791 11.1069C116.791 11.8765 116.648 12.5448 116.362 13.1118C116.076 13.6788 115.689 14.1446 115.2 14.5091C114.712 14.8736 114.147 15.1436 113.506 15.3191C112.864 15.4946 112.181 15.5824 111.455 15.5824H109.76ZM111.267 13.213H109.76V9.22361H111.183C112.02 9.22361 112.662 9.36537 113.108 9.64888C113.555 9.9324 113.778 10.4184 113.778 11.1069C113.778 12.511 112.941 13.213 111.267 13.213ZM122.351 20.23C122.093 20.2772 121.79 20.3009 121.441 20.3009C120.911 20.3009 120.465 20.2199 120.102 20.0579C119.739 19.8959 119.45 19.6697 119.234 19.3795C119.017 19.0892 118.861 18.7382 118.763 18.3264C118.665 17.9146 118.616 17.4522 118.616 16.9392V5.86198H121.692V17.0607C121.692 17.3712 121.751 17.5872 121.87 17.7088C121.989 17.8303 122.111 17.891 122.236 17.891H122.414C122.463 17.891 122.529 17.8775 122.613 17.8505L122.989 20.0579C122.822 20.1254 122.609 20.1827 122.351 20.23ZM127.431 20.3009C128.142 20.3009 128.752 20.1558 129.261 19.8655C129.771 19.5752 130.248 19.1736 130.695 18.6606H130.757L130.988 20.0579H133.498V10.0134H130.423V16.6557C130.116 17.0473 129.83 17.3308 129.565 17.5063C129.3 17.6818 128.972 17.7695 128.581 17.7695C128.135 17.7695 127.807 17.6345 127.598 17.3645C127.389 17.0945 127.284 16.595 127.284 15.866V10.0134H124.208V16.2507C124.208 17.5198 124.463 18.5121 124.972 19.2276C125.481 19.9431 126.301 20.3009 127.431 20.3009ZM140.806 20.0477C140.276 20.2165 139.662 20.3009 138.965 20.3009C138.281 20.3009 137.58 20.1726 136.862 19.9161C136.144 19.6596 135.519 19.3221 134.989 18.9035L136.37 17.0405C136.845 17.3915 137.298 17.6547 137.73 17.8302C138.163 18.0058 138.602 18.0935 139.048 18.0935C139.509 18.0935 139.844 18.0193 140.053 17.8707C140.262 17.7222 140.367 17.513 140.367 17.243C140.367 17.081 140.307 16.9358 140.189 16.8076C140.07 16.6793 139.91 16.5612 139.708 16.4532C139.505 16.3452 139.279 16.2473 139.028 16.1595C138.776 16.0718 138.518 15.9739 138.253 15.8659C137.933 15.7444 137.612 15.6026 137.291 15.4406C136.97 15.2786 136.677 15.0795 136.412 14.8432C136.147 14.607 135.931 14.3302 135.764 14.0129C135.596 13.6957 135.512 13.3278 135.512 12.9093C135.512 12.4503 135.607 12.025 135.795 11.6335C135.983 11.2419 136.252 10.9112 136.6 10.6412C136.949 10.3712 137.368 10.1585 137.856 10.0033C138.344 9.84801 138.888 9.77038 139.488 9.77038C140.283 9.77038 140.98 9.90201 141.58 10.1653C142.18 10.4285 142.703 10.7222 143.149 11.0462L141.768 12.8283C141.392 12.5583 141.022 12.349 140.66 12.2005C140.297 12.052 139.934 11.9777 139.572 11.9777C138.79 11.9777 138.4 12.241 138.4 12.7675C138.4 12.9295 138.456 13.0679 138.567 13.1827C138.679 13.2974 138.829 13.402 139.017 13.4965C139.205 13.5911 139.422 13.6822 139.666 13.7699C139.91 13.8577 140.164 13.9488 140.429 14.0433C140.764 14.1648 141.095 14.3032 141.423 14.4585C141.751 14.6137 142.051 14.8061 142.323 15.0356C142.595 15.2651 142.815 15.5453 142.982 15.876C143.149 16.2068 143.233 16.6017 143.233 17.0607C143.233 17.5197 143.142 17.945 142.961 18.3365C142.78 18.728 142.508 19.0689 142.145 19.3592C141.782 19.6494 141.336 19.879 140.806 20.0477Z" fill="black"/>
</svg>
