<svg width="25" height="25" viewBox="0 0 25 25" fill="none" xmlns="http://www.w3.org/2000/svg">
<path d="M19.9999 18.9395V16.1742C20.8469 16.0014 21.608 15.5413 22.1547 14.8717C22.7014 14.2022 23 13.3644 23 12.5C23 11.6356 22.7014 10.7978 22.1547 10.1283C21.608 9.45873 20.8469 8.99861 19.9999 8.82575V5C20 4.87214 19.9674 4.74639 19.9052 4.6347C19.8429 4.523 19.7532 4.42906 19.6445 4.3618C19.5357 4.29454 19.4116 4.2562 19.2839 4.25042C19.1561 4.24463 19.0291 4.2716 18.9147 4.32875L10.0722 8.75H9.81044L3.28019 2.21975C3.13874 2.08313 2.94929 2.00754 2.75264 2.00924C2.55599 2.01095 2.36788 2.08983 2.22883 2.22889C2.08977 2.36794 2.01089 2.55605 2.00918 2.7527C2.00747 2.94935 2.08307 3.1388 2.21969 3.28025L21.7197 22.7803C21.8611 22.9169 22.0506 22.9925 22.2472 22.9908C22.4439 22.989 22.632 22.9102 22.7711 22.7711C22.9101 22.6321 22.989 22.4439 22.9907 22.2473C22.9924 22.0507 22.9168 21.8612 22.7802 21.7197L19.9999 18.9395ZM21.4999 12.5C21.4995 12.9653 21.3551 13.4191 21.0866 13.7992C20.818 14.1792 20.4384 14.4668 19.9999 14.6225V10.3775C20.4384 10.5332 20.818 10.8208 21.0866 11.2008C21.3551 11.5809 21.4995 12.0347 21.4999 12.5ZM5.74994 8.75C5.55103 8.75 5.36026 8.82902 5.21961 8.96967C5.07896 9.11032 4.99994 9.30109 4.99994 9.5V15.5C4.99994 15.6989 5.07896 15.8897 5.21961 16.0303C5.36026 16.171 5.55103 16.25 5.74994 16.25H10.0729L18.8059 20.6165L6.93944 8.75H5.74994Z" fill="#2284F7"/>
<path d="M7.25 20C7.25 20.1989 7.32902 20.3897 7.46967 20.5303C7.61032 20.671 7.80109 20.75 8 20.75C8.19891 20.75 8.38968 20.671 8.53033 20.5303C8.67098 20.3897 8.75 20.1989 8.75 20V17H7.25V20ZM2 12.5C2.0006 13.0966 2.23784 13.6685 2.65967 14.0903C3.0815 14.5122 3.65345 14.7494 4.25 14.75V10.25C3.65345 10.2506 3.0815 10.4878 2.65967 10.9097C2.23784 11.3315 2.0006 11.9034 2 12.5Z" fill="#2284F7"/>
</svg>
