<svg width="400" height="25" viewBox="0 0 400 25" fill="none" xmlns="http://www.w3.org/2000/svg">
<rect x="63.5" y="1.16016" width="33" height="23" rx="3.5" fill="white"/>
<rect x="63.5" y="1.16016" width="33" height="23" rx="3.5" stroke="#F9F7F6"/>
<path fill-rule="evenodd" clip-rule="evenodd" d="M73.7503 16.5185H71.6906L70.146 10.4526C70.0727 10.1736 69.917 9.92692 69.6881 9.81066C69.1166 9.51848 68.487 9.28596 67.8 9.16869V8.93515H71.1181C71.5761 8.93515 71.9195 9.28596 71.9768 9.69338L72.7782 14.0689L74.8369 8.93515H76.8394L73.7503 16.5185ZM77.9843 16.5185H76.039L77.6408 8.93515H79.5861L77.9843 16.5185ZM82.1028 11.036C82.16 10.6275 82.5035 10.394 82.9042 10.394C83.5338 10.3354 84.2197 10.4526 84.7922 10.7438L85.1356 9.11106C84.5632 8.87753 83.9335 8.76025 83.3621 8.76025C81.4741 8.76025 80.1003 9.81066 80.1003 11.2685C80.1003 12.3775 81.0734 12.9599 81.7603 13.3107C82.5035 13.6605 82.7897 13.894 82.7324 14.2438C82.7324 14.7685 82.16 15.002 81.5886 15.002C80.9017 15.002 80.2147 14.8271 79.5861 14.535L79.2426 16.1687C79.9295 16.4599 80.6727 16.5771 81.3596 16.5771C83.4766 16.6348 84.7922 15.5854 84.7922 14.0103C84.7922 12.0267 82.1028 11.9105 82.1028 11.036ZM91.6 16.5185L90.0555 8.93515H88.3965C88.053 8.93515 87.7095 9.16869 87.5951 9.51848L84.7349 16.5185H86.7374L87.1371 15.4105H89.5976L89.8265 16.5185H91.6ZM88.6827 10.9773L89.2541 13.8354H87.6523L88.6827 10.9773Z" fill="#172B85"/>
<rect x="111.5" y="1.16016" width="33" height="23" rx="3.5" fill="white"/>
<rect x="111.5" y="1.16016" width="33" height="23" rx="3.5" stroke="#F9F7F6"/>
<path fill-rule="evenodd" clip-rule="evenodd" d="M128.179 17.4896C126.995 18.4877 125.459 19.0902 123.781 19.0902C120.036 19.0902 117 16.0905 117 12.3902C117 8.68988 120.036 5.69019 123.781 5.69019C125.459 5.69019 126.995 6.29268 128.179 7.29073C129.363 6.29268 130.899 5.69019 132.577 5.69019C136.322 5.69019 139.358 8.68988 139.358 12.3902C139.358 16.0905 136.322 19.0902 132.577 19.0902C130.899 19.0902 129.363 18.4877 128.179 17.4896Z" fill="#ED0006"/>
<path fill-rule="evenodd" clip-rule="evenodd" d="M128.179 17.4896C129.637 16.2607 130.561 14.4321 130.561 12.3902C130.561 10.3482 129.637 8.51963 128.179 7.29072C129.363 6.29268 130.899 5.69019 132.577 5.69019C136.322 5.69019 139.358 8.68988 139.358 12.3902C139.358 16.0905 136.322 19.0902 132.577 19.0902C130.899 19.0902 129.363 18.4877 128.179 17.4896Z" fill="#F9A000"/>
<path fill-rule="evenodd" clip-rule="evenodd" d="M128.179 17.4896C129.637 16.2607 130.561 14.4321 130.561 12.3902C130.561 10.3483 129.637 8.51967 128.179 7.29077C126.721 8.51967 125.797 10.3483 125.797 12.3902C125.797 14.4321 126.721 16.2607 128.179 17.4896Z" fill="#FF5E00"/>
<rect x="159.5" y="1.16016" width="33" height="23" rx="3.5" fill="white"/>
<rect x="159.5" y="1.16016" width="33" height="23" rx="3.5" stroke="#F9F7F6"/>
<path fill-rule="evenodd" clip-rule="evenodd" d="M173.614 19.1084L173.835 17.6593L173.343 17.6475H170.995L172.627 6.95385C172.632 6.92147 172.649 6.89141 172.673 6.87003C172.697 6.84864 172.727 6.83691 172.76 6.83691H176.719C178.033 6.83691 178.94 7.11955 179.414 7.67749C179.636 7.93923 179.777 8.21283 179.845 8.51379C179.917 8.82967 179.918 9.207 179.848 9.66731L179.843 9.70079V9.99577L180.065 10.1258C180.252 10.2283 180.401 10.3456 180.515 10.4799C180.705 10.7038 180.827 10.9882 180.879 11.3254C180.933 11.6722 180.915 12.0849 180.827 12.5522C180.726 13.0896 180.562 13.5577 180.341 13.9407C180.138 14.2936 179.879 14.5864 179.571 14.8132C179.277 15.0287 178.928 15.1923 178.534 15.2971C178.151 15.4 177.715 15.4519 177.237 15.4519H176.929C176.709 15.4519 176.495 15.5339 176.327 15.6809C176.158 15.8309 176.047 16.036 176.013 16.2602L175.989 16.3907L175.599 18.9449L175.582 19.0387C175.577 19.0684 175.569 19.0831 175.557 19.0932C175.547 19.1023 175.531 19.1084 175.517 19.1084H173.614Z" fill="#28356A"/>
<path fill-rule="evenodd" clip-rule="evenodd" d="M180.276 9.73486C180.264 9.81295 180.25 9.89274 180.235 9.97473C179.713 12.7454 177.927 13.7025 175.646 13.7025H174.484C174.205 13.7025 173.97 13.9118 173.927 14.1963L173.163 19.1996C173.135 19.3864 173.274 19.5547 173.457 19.5547H175.517C175.761 19.5547 175.968 19.3715 176.007 19.1228L176.027 19.0147L176.415 16.4705L176.44 16.3309C176.478 16.0814 176.685 15.8981 176.929 15.8981H177.237C179.233 15.8981 180.796 15.0606 181.252 12.6367C181.443 11.6242 181.344 10.7788 180.84 10.1842C180.687 10.0049 180.497 9.85608 180.276 9.73486Z" fill="#298FC2"/>
<path fill-rule="evenodd" clip-rule="evenodd" d="M179.729 9.50984C179.65 9.48577 179.567 9.46402 179.483 9.44434C179.398 9.42516 179.311 9.40817 179.222 9.39327C178.908 9.34097 178.565 9.31616 178.198 9.31616H175.095C175.018 9.31616 174.945 9.334 174.881 9.36626C174.737 9.43738 174.631 9.57741 174.605 9.74885L173.945 14.0704L173.926 14.1964C173.97 13.9119 174.205 13.7026 174.484 13.7026H175.645C177.927 13.7026 179.713 12.7449 180.235 9.97479C180.251 9.8928 180.264 9.81301 180.275 9.73492C180.143 9.66246 180 9.60051 179.846 9.54772C179.808 9.53465 179.769 9.52206 179.729 9.50984Z" fill="#22284F"/>
<path fill-rule="evenodd" clip-rule="evenodd" d="M174.606 9.74878C174.631 9.57734 174.738 9.4373 174.881 9.36668C174.946 9.33429 175.018 9.31645 175.095 9.31645H178.198C178.565 9.31645 178.909 9.34138 179.222 9.39368C179.311 9.40847 179.398 9.42557 179.483 9.44476C179.567 9.46431 179.65 9.48618 179.729 9.51013C179.769 9.52235 179.808 9.53506 179.847 9.54765C180.001 9.60043 180.144 9.66288 180.276 9.73485C180.431 8.71098 180.275 8.01386 179.739 7.3826C179.149 6.68756 178.083 6.39014 176.719 6.39014H172.76C172.482 6.39014 172.244 6.59946 172.201 6.88441L170.552 17.688C170.519 17.9017 170.679 18.0946 170.887 18.0946H173.332L174.606 9.74878Z" fill="#28356A"/>
<rect x="207.5" y="1.16016" width="33" height="23" rx="3.5" fill="white"/>
<rect x="207.5" y="1.16016" width="33" height="23" rx="3.5" stroke="#F9F7F6"/>
<path fill-rule="evenodd" clip-rule="evenodd" d="M216.449 9.00331C216.164 9.35521 215.707 9.63277 215.251 9.59311C215.194 9.11731 215.417 8.61177 215.679 8.29952C215.964 7.93771 216.463 7.67998 216.868 7.66016C216.915 8.15579 216.73 8.6415 216.449 9.00331ZM216.863 9.68728C216.461 9.66315 216.094 9.81334 215.797 9.93465C215.606 10.0127 215.445 10.0788 215.322 10.0788C215.184 10.0788 215.016 10.0092 214.827 9.93099L214.827 9.93099C214.579 9.82853 214.296 9.7114 214 9.71702C213.319 9.72693 212.687 10.1284 212.34 10.7678C211.626 12.0465 212.154 13.9398 212.844 14.9806C213.182 15.4961 213.586 16.0611 214.119 16.0413C214.353 16.032 214.521 15.9575 214.696 15.8804C214.897 15.7915 215.105 15.6993 215.431 15.6993C215.746 15.6993 215.945 15.7891 216.137 15.8754C216.319 15.9574 216.494 16.0362 216.754 16.0313C217.305 16.0214 217.653 15.5159 217.99 15.0004C218.355 14.4472 218.515 13.9073 218.539 13.8254L218.542 13.8159C218.541 13.8153 218.537 13.8131 218.529 13.8093C218.407 13.7512 217.476 13.307 217.467 12.1159C217.458 11.1161 218.206 10.6095 218.323 10.5298L218.323 10.5298C218.33 10.5249 218.335 10.5216 218.337 10.5199C217.862 9.78641 217.12 9.7071 216.863 9.68728ZM220.682 15.9768V8.24995H223.465C224.901 8.24995 225.905 9.28086 225.905 10.7876C225.905 12.2943 224.882 13.3351 223.427 13.3351H221.833V15.9768H220.682ZM221.833 9.26104H223.16C224.159 9.26104 224.73 9.81614 224.73 10.7925C224.73 11.7689 224.159 12.329 223.156 12.329H221.833V9.26104ZM229.705 15.05C229.401 15.6547 228.73 16.0363 228.007 16.0363C226.937 16.0363 226.19 15.3722 226.19 14.371C226.19 13.3797 226.913 12.8098 228.25 12.7255L229.686 12.6363V12.21C229.686 11.5806 229.291 11.2386 228.588 11.2386C228.007 11.2386 227.584 11.5509 227.498 12.0267H226.461C226.495 11.0255 227.398 10.2969 228.621 10.2969C229.938 10.2969 230.794 11.0156 230.794 12.1307V15.9768H229.729V15.05H229.705ZM228.316 15.1194C227.703 15.1194 227.313 14.8121 227.313 14.3412C227.313 13.8555 227.688 13.573 228.407 13.5284L229.686 13.4442V13.8803C229.686 14.6039 229.096 15.1194 228.316 15.1194ZM234.328 16.2792C233.867 17.6322 233.339 18.0783 232.217 18.0783C232.131 18.0783 231.846 18.0684 231.779 18.0486V17.1217C231.85 17.1316 232.026 17.1416 232.117 17.1416C232.626 17.1416 232.911 16.9185 233.087 16.3386L233.192 15.9967L231.242 10.3713H232.445L233.8 14.936H233.824L235.18 10.3713H236.35L234.328 16.2792Z" fill="black"/>
<rect x="255.5" y="1.16016" width="33" height="23" rx="3.5" fill="white"/>
<rect x="255.5" y="1.16016" width="33" height="23" rx="3.5" stroke="#F9F7F6"/>
<path fill-rule="evenodd" clip-rule="evenodd" d="M271.058 16.188V13.2533H272.572C273.193 13.2533 273.717 13.0454 274.144 12.6352L274.247 12.5312C275.027 11.682 274.975 10.3591 274.144 9.57346C273.728 9.15753 273.159 8.93223 272.572 8.94378H270.141V16.188H271.058ZM271.058 12.3636V9.83336H272.596C272.926 9.83336 273.239 9.96046 273.473 10.1915C273.968 10.6768 273.979 11.4855 273.501 11.9881C273.268 12.2365 272.937 12.3752 272.596 12.3636H271.058ZM278.523 11.6185C278.13 11.2545 277.595 11.0696 276.917 11.0696C276.046 11.0696 275.391 11.3932 274.958 12.0344L275.767 12.5485C276.063 12.1095 276.467 11.89 276.98 11.89C277.304 11.89 277.617 12.0113 277.862 12.2308C278.101 12.4388 278.238 12.7392 278.238 13.0569V13.2706C277.885 13.0742 277.441 12.9702 276.894 12.9702C276.257 12.9702 275.744 13.1204 275.363 13.4266C274.981 13.7328 274.788 14.1372 274.788 14.6513C274.776 15.1192 274.975 15.5641 275.328 15.8645C275.687 16.188 276.143 16.3497 276.678 16.3497C277.31 16.3497 277.811 16.0666 278.193 15.5005H278.232V16.188H279.109V13.132C279.109 12.4908 278.916 11.9824 278.523 11.6185ZM276.035 15.2752C275.847 15.1366 275.733 14.9113 275.733 14.6687C275.733 14.3971 275.858 14.1718 276.103 13.9928C276.354 13.8137 276.667 13.7212 277.037 13.7212C277.55 13.7155 277.948 13.831 278.233 14.0621C278.233 14.4549 278.079 14.7957 277.777 15.0846C277.504 15.3619 277.134 15.5179 276.747 15.5179C276.49 15.5236 276.24 15.437 276.035 15.2752ZM281.079 18.3658L284.143 11.2314H283.146L281.729 14.7899H281.712L280.26 11.2314H279.263L281.273 15.8702L280.134 18.3658H281.079Z" fill="#3C4043"/>
<path d="M267.893 12.6181C267.893 12.335 267.87 12.0519 267.825 11.7747H263.958V13.3749H266.173C266.082 13.889 265.786 14.3511 265.353 14.64V15.6798H266.674C267.449 14.9577 267.893 13.889 267.893 12.6181Z" fill="#4285F4"/>
<path d="M263.959 16.6849C265.063 16.6849 265.997 16.3152 266.675 15.6797L265.354 14.6399C264.983 14.8941 264.511 15.0385 263.959 15.0385C262.888 15.0385 261.983 14.3048 261.658 13.3228H260.297V14.3973C260.992 15.801 262.41 16.6849 263.959 16.6849Z" fill="#34A853"/>
<path d="M261.658 13.3228C261.487 12.8087 261.487 12.2483 261.658 11.7284V10.6597H260.297C259.711 11.8324 259.711 13.2188 260.297 14.3915L261.658 13.3228Z" fill="#FBBC04"/>
<path d="M263.959 10.0126C264.545 10.0011 265.109 10.2264 265.53 10.6365L266.703 9.44649C265.957 8.74171 264.978 8.35466 263.959 8.36622C262.41 8.36622 260.992 9.25586 260.297 10.6596L261.658 11.7341C261.983 10.7463 262.888 10.0126 263.959 10.0126Z" fill="#EA4335"/>
<rect x="303.5" y="1.16016" width="33" height="23" rx="3.5" fill="#1F72CD"/>
<rect x="303.5" y="1.16016" width="33" height="23" rx="3.5" stroke="#F9F7F6"/>
<path fill-rule="evenodd" clip-rule="evenodd" d="M309.095 9.16016L305.914 16.4069H309.723L310.195 15.2515H311.274L311.746 16.4069H315.938V15.525L316.311 16.4069H318.48L318.853 15.5064V16.4069H327.571L328.631 15.2815L329.623 16.4069L334.101 16.4162L330.91 12.8038L334.101 9.16016H329.693L328.661 10.2648L327.7 9.16016H318.216L317.402 11.0306L316.568 9.16016H312.768V10.012L312.345 9.16016H309.095ZM309.832 10.1892H311.689L313.799 15.1033V10.1892H315.832L317.462 13.7126L318.964 10.1892H320.987V15.3892H319.756L319.746 11.3145L317.951 15.3892H316.85L315.045 11.3145V15.3892H312.512L312.032 14.2234H309.438L308.959 15.3882H307.601L309.832 10.1892ZM327.12 10.1892H322.114V15.3862H327.042L328.631 13.6638L330.162 15.3862H331.763L329.436 12.8027L331.763 10.1892H330.232L328.651 11.8918L327.12 10.1892ZM310.735 11.069L309.881 13.1458H311.589L310.735 11.069ZM323.35 12.2151V11.2659V11.265H326.474L327.837 12.7831L326.413 14.3095H323.35V13.2732H326.081V12.2151H323.35Z" fill="white"/>
</svg>
