<svg xmlns="http://www.w3.org/2000/svg" width="11" height="10" fill="none" viewBox="0 0 11 10"><path fill="#ed1e45" fill-rule="evenodd" d="M1.057 3.575s3.19 4.847 7.552 3.523l.25-2.476s-3.606.375-6.542-3.36z" clip-rule="evenodd"/><path fill="#000" d="M3.4 6.375A11 11 0 0 1 .78 3.753a.323.323 0 0 1-.014-.335l1.26-2.312a.3.3 0 0 1 .11-.117.3.3 0 0 1 .152-.051.4.4 0 0 1 .16.024q.074.035.129.099c2.781 3.536 6.112 3.25 6.25 3.234a.4.4 0 0 1 .144.018.4.4 0 0 1 .123.077.3.3 0 0 1 .075.123.3.3 0 0 1 .016.143l-.25 2.476a.36.36 0 0 1-.073.176.34.34 0 0 1-.158.103 6.02 6.02 0 0 1-5.299-1.037zM1.44 3.55c.58.787 3.33 4.198 6.86 3.288l.192-1.879a8.298 8.298 0 0 1-6.12-3.115l-.928 1.708z"/></svg>
