<svg xmlns="http://www.w3.org/2000/svg" width="9" height="6" fill="none" viewBox="0 0 9 6"><path fill="#fff" fill-rule="evenodd" d="M.321 3.003s3.75 4.234 7.796 1.88l-.091-2.597S4.58 3.5 1.23.342l-.908 2.66z" clip-rule="evenodd"/><path fill="#000" d="M2.975 5.339A9.6 9.6 0 0 1 .08 3.255a.3.3 0 0 1-.075-.16.4.4 0 0 1 .014-.183L.927.25a.4.4 0 0 1 .09-.145.4.4 0 0 1 .14-.09.3.3 0 0 1 .295.06c3.172 2.99 6.361 1.93 6.496 1.884a.297.297 0 0 1 .27.036q.06.042.093.11a.4.4 0 0 1 .036.142l.092 2.596a.385.385 0 0 1-.188.343 5.9 5.9 0 0 1-2.674.748 5.27 5.27 0 0 1-2.605-.594zM.69 2.892c.668.674 3.795 3.54 7.093 1.797l-.07-1.97A7.5 7.5 0 0 1 4.3 2.58 7.2 7.2 0 0 1 1.36.929L.69 2.89z"/></svg>
