<svg xmlns="http://www.w3.org/2000/svg" width="15" height="11" fill="none" viewBox="0 0 15 11"><path fill="#fff59e" fill-rule="evenodd" d="M.552 6.735s7.69.46 9.24-6.15l4.032.606S12.442 8.583 3.28 10.17L.559 6.735z" clip-rule="evenodd"/><path fill="#000" d="M14.36 1.057c.019.09.025.179.006.262-.013.076-1.567 7.8-10.99 9.424a.6.6 0 0 1-.288-.031.6.6 0 0 1-.235-.179L.132 7.1a.6.6 0 0 1-.127-.306.57.57 0 0 1 .05-.325.56.56 0 0 1 .21-.243.5.5 0 0 1 .307-.076c.293.02 7.263.344 8.678-5.716a.6.6 0 0 1 .223-.338.5.5 0 0 1 .382-.089c4.167.625 4.364.516 4.498 1.045h.007zM3.483 9.533c6.92-1.326 9.067-6.15 9.621-7.864l-2.911-.433c-1.44 4.926-6.25 5.882-8.494 6.054z"/></svg>
