<svg xmlns="http://www.w3.org/2000/svg" width="33" height="148" fill="none" viewBox="0 0 33 148"><path fill="#fff59e" fill-rule="evenodd" d="M3.994 76.786s.573 6.373 5.963 7.011l.014 3.375s-5.993-.425-8.35-7.814z" clip-rule="evenodd"/><path fill="#000" d="M10.142 87.601a.5.5 0 0 1-.206.033c-.061-.007-6.334-.537-8.757-8.137a.5.5 0 0 1-.013-.24.5.5 0 0 1 .109-.21l2.372-2.571a.47.47 0 0 1 .487-.125q.127.042.217.152c.053.069.09.155.096.242.024.246.613 6.008 5.556 6.594a.454.454 0 0 1 .409.455c.015 3.49.122 3.643-.275 3.802h.005zm-8-8.134c1.885 5.565 5.95 6.869 7.36 7.16L9.49 84.19c-4.055-.712-5.392-4.579-5.799-6.406l-1.554 1.682z"/><path fill="#ed1e45" fill-rule="evenodd" d="M23.458 9.387s-2.794-5.525 2.619-7.674l3.104 1.504s-3.645 2.268-1.914 6.858z" clip-rule="evenodd"/><path fill="#000" d="M22.289 5.842c-.065 1.202.18 2.419.72 3.611a.51.51 0 0 0 .381.241l3.809.688c.079.01.162.017.23.004a.5.5 0 0 0 .197-.068c.048-.039.095-.077.109-.129a.2.2 0 0 0 0-.155c-1.64-4.351 1.656-6.486 1.801-6.57a.3.3 0 0 0 .108-.11.18.18 0 0 0 .016-.137.3.3 0 0 0-.071-.138.4.4 0 0 0-.15-.109l-3.105-1.504a.67.67 0 0 0-.534-.03c-1.097.463-1.984 1.1-2.594 1.867s-.924 1.638-.918 2.547zm1.538 3.29c-.399-.938-1.921-5.18 2.277-7.033l2.352 1.144c-.995.863-1.664 1.88-1.98 2.984-.318 1.103-.259 2.264.16 3.414z"/><path fill="#fff" fill-rule="evenodd" d="M2.723 147.365s6.91-2.114 6.86-7.785l-2.871-1.168s-.818 4.44-6.31 6.638l2.32 2.321z" clip-rule="evenodd"/><path fill="#000" d="M6.895 145.546a13.8 13.8 0 0 1-4.05 2.209.41.41 0 0 1-.406-.1l-2.32-2.321a.37.37 0 0 1-.1-.172.4.4 0 0 1-.012-.201.424.424 0 0 1 .25-.295c5.203-2.081 6.032-6.16 6.06-6.332a.4.4 0 0 1 .072-.167.4.4 0 0 1 .134-.117.5.5 0 0 1 .172-.05c.061 0 .122.006.178.028l2.871 1.168c.072.028.14.084.184.151a.4.4 0 0 1 .072.228 7.5 7.5 0 0 1-3.099 5.965zm-4.061 1.352c1.146-.417 6.187-2.504 6.337-7.039l-2.175-.891a10.366 10.366 0 0 1-5.875 6.222z"/></svg>
