<svg xmlns="http://www.w3.org/2000/svg" width="64" height="77" fill="none" viewBox="0 0 64 77"><path fill="#ed1e45" fill-rule="evenodd" d="M60.562 76.273s-7.41-2.983-6.811-9.228l3.269-1.013s.477 4.97 6.32 7.908z" clip-rule="evenodd"/><path fill="#000" d="M56.14 73.87a15.2 15.2 0 0 0 4.25 2.823q.117.046.242.026a.42.42 0 0 0 .223-.102l2.778-2.333a.44.44 0 0 0 .128-.178.5.5 0 0 0 .031-.217.44.44 0 0 0-.076-.204.5.5 0 0 0-.166-.146c-5.53-2.785-6.053-7.36-6.072-7.552a.4.4 0 0 0-.063-.19.44.44 0 0 0-.14-.147.4.4 0 0 0-.185-.07.5.5 0 0 0-.198.019l-3.269 1.013a.46.46 0 0 0-.318.389 8.2 8.2 0 0 0 .612 3.772 8.25 8.25 0 0 0 2.236 3.097zm4.352 1.88c-1.217-.567-6.575-3.346-6.308-8.36l2.485-.772a11.43 11.43 0 0 0 5.875 7.411l-2.046 1.721z"/><path fill="#05a0ee" fill-rule="evenodd" d="M46.68 31.162s1.438-6.773 6.855-7.2l1.354 2.64s-4.171 1.153-5.808 6.58l-2.406-2.025z" clip-rule="evenodd"/><path fill="#000" d="M48.066 27.03a13.2 13.2 0 0 0-1.774 4.05.401.401 0 0 0 .129.383l2.406 2.024a.393.393 0 0 0 .532-.02q.07-.067.101-.165c1.552-5.14 5.377-6.272 5.538-6.317a.4.4 0 0 0 .153-.08.33.33 0 0 0 .101-.141.35.35 0 0 0 .032-.17.34.34 0 0 0-.044-.165l-1.358-2.64a.39.39 0 0 0-.379-.21 7.2 7.2 0 0 0-3.128 1.084 7.2 7.2 0 0 0-2.31 2.37zm-.948 3.99c.303-1.124 1.875-6.115 6.191-6.639l1.028 2.004a9.9 9.9 0 0 0-3.386 2.47 9.9 9.9 0 0 0-2.06 3.653l-1.773-1.492z"/><path fill="#fff59e" fill-rule="evenodd" d="M.847 6.59s4.475-.036 4.191-4.967l2.41.246s.514 5.503-4.443 7.107L.846 6.583z" clip-rule="evenodd"/><path fill="#000" d="M7.728 1.75a.6.6 0 0 1 .05.19c.006.056.48 5.805-4.614 7.458a.28.28 0 0 1-.168-.008.5.5 0 0 1-.169-.119L.67 6.878a.6.6 0 0 1-.125-.219.5.5 0 0 1-.027-.242.32.32 0 0 1 .081-.186.2.2 0 0 1 .16-.07c.171-.002 4.21-.099 3.948-4.622a.37.37 0 0 1 .067-.256.22.22 0 0 1 .206-.084c2.489.26 2.587.171 2.756.55l-.004-.004zM3.015 8.504c3.719-1.31 4.096-4.961 4.112-6.244L5.389 2.08c.048 3.694-2.534 4.622-3.785 4.86L3.018 8.5z"/></svg>
