<svg xmlns="http://www.w3.org/2000/svg" width="79" height="77" fill="none" viewBox="0 0 79 77"><g clip-path="url(#a)"><path fill="#eee" d="M12.175 54.278 68.25 50.01l1.11 13.167-55.905 4.54z"/><path fill="#0c294f" d="M36.942 37.079c.174 3.05.222 5.722.348 6.126.477 2.941 1.985 1.534 2.797 3.802l-6.895.392a23 23 0 0 1-.34-3.671 45 45 0 0 0-1.966 3.802c-6.765.385-13.773.872-21.245 1.516-3.855.322-4.541 1.854-4.396 4.403l1.827 16.482c.033.891.38 1.745.975 2.413a9.2 9.2 0 0 0 3.121 2.366c1.2.559 2.503.85 3.827.865l57.83-4.264c3.19-.181 5.217-1.762 4.928-4.135l-2.272-18.86c-.358-3.335-4.393-3.698-7.525-3.427-9.076.851-17.408 1.387-25.987 1.902a3.3 3.3 0 0 0-.61-1.16c-.537-.638-.993-.677-1.737-1.497a1.98 1.98 0 0 1-.58-1.357c-.023-.424-.123-2.178-.468-5.77a4.34 4.34 0 0 0 2.581-1.448 4.3 4.3 0 0 0 1.05-2.758 4.26 4.26 0 0 0-.866-2.409 4.26 4.26 0 0 0-2.091-1.483l-.292-5.126c.1-.006.048-.602-.027-.598-.164-3.127-.344-6.294-.525-9.471l-.042-.745-.342-5.958c.127-.007.046-.824-.07-.818-.036-.628-2.733-44.687-2.856-46.597a.395.395 0 0 0-.69-.241.373.373 0 0 0-.09.286l.187 3.306c-1.89-1.68-1.807-1.633-1.94-1.663l-.087-1.525a.4.4 0 0 0-.15-.228.4.4 0 0 0-.262-.078.396.396 0 0 0-.372.35c.412 11.368 2.77 47.386 2.91 47.378l.315 5.54c.154.364.185.787.097 1.172h.007l.542 9.535c-.02 0-.006.681.025.68l.291 5.126a4.27 4.27 0 0 0-1.657 1.43 4.23 4.23 0 0 0-.725 2.06 4.33 4.33 0 0 0 .936 2.796 4.37 4.37 0 0 0 2.511 1.559m.468 20.92a.397.397 0 0 0 .487.233.4.4 0 0 0 .227-.177 2.98 2.98 0 0 0-.654-3.524.38.38 0 0 0-.272-.07.4.4 0 0 0-.265.655c.188.171.345.378.46.604a4.63 4.63 0 0 1-4.188-2.641c3.959-.314 26.808-2.22 34.75-2.773l1.05 12.372c-18.566 1.867-35.64 2.567-55.125 4.42-.42-4.204-.816-8.427-1.21-12.633 6.547-.372 12.691-.81 18.78-1.3a5.63 5.63 0 0 0 2.343 3.05 5.68 5.68 0 0 0 3.763.845l.068-.134h.01a2.2 2.2 0 0 1-.227.786.4.4 0 0 0 .003.287m30.643-12.12c2.49-.23 3.804.657 4.043 2.804l.071-.144 1.566 14.85c.15 2.637.05 4.252-2.536 4.413-10.291.585-59.935 4.256-59.935 4.256-2.176.124-2.998.17-3.314-2.253L6.109 53.363c-.13-2.28.357-3.272 3.668-3.55 7.319-.635 14.135-1.087 20.82-1.491-.343.79-.633 1.539-.9 2.276a4.3 4.3 0 0 1 1.263-.496 7.8 7.8 0 0 0 .264 2.337c-6.156.48-12.361.922-18.987 1.299a.4.4 0 0 0-.155.04.388.388 0 0 0-.203.234.4.4 0 0 0-.02.158c.421 4.492.848 8.974 1.28 13.438a.39.39 0 0 0 .14.27q.06.053.138.073.073.024.155.016c19.76-1.535 36.964-2.63 55.904-4.555a.38.38 0 0 0 .27-.132.373.373 0 0 0 .09-.286L68.7 49.983a.393.393 0 0 0-.132-.27.376.376 0 0 0-.287-.09L32.822 52.45a6.1 6.1 0 0 1-.248-2.314c.362.024.715.12 1.037.287-.038-.666-.158-1.392-.262-2.132 11.873-.675 22.575-1.283 34.704-2.411M36.484 25.82l-.105-1.856 1.93 1.267.106 1.843zm1.989 2.278.05.884a4.1 4.1 0 0 0-1.788.101l-.127-2.242zm-5.265-54.959c1.223 1.088 1.797 1.634 1.929 1.716.045 1.285.111 2.441.191 3.604-1.741-1.431-1.745-1.444-1.902-1.477zm-.064-1.05-.153-2.693 1.886 1.848h.003c.137.122.074-.275.221 2.558a24 24 0 0 0-1.957-1.713m.366 5.947c1.13 1.027 1.77 1.635 1.904 1.702l.046-.105.146 2.563L33.66-19.3zm2.656 12.993c-1.054-.834-1.588-1.283-1.712-1.338l-.218-3.842 1.933 1.547c-.183.705-.086 2.405-.003 3.633m.293 1.222c-.11 1.072-.08 1.93-.028 2.762-1.213-1.072-1.644-1.41-1.768-1.475l-.16-2.795c1.216.948 1.812 1.452 1.956 1.508m-1.874 2.463 2.103 1.565.2 3.522-2.084-1.245zm1.737 28.25-.13-2.28 1.934 1.318.126 2.202zM36.19 19.5l-.143-2.525 1.873 1.396.146 2.577zm-.186-3.694-.163-2.87 1.904 1.692.133 2.588zm1.584-2.363-1.824-1.622-.2-3.512 1.906 1.487c-.01 1.315.053 2.493.118 3.646m-.285-4.77-1.809-1.415-.232-4.088 1.91 1.394c-.026 1.457.056 2.79.131 4.108m-.324-5.22-1.79-1.32-.153-2.693L36.96.823c-.076.949-.03 1.771.02 2.628m-1.044-20.183.188 3.06-1.935-1.56-.177-3.127zm-3.328-20.943c1.86 1.65 1.75 1.605 1.947 1.608l.146 2.563c-1.766-1.803-1.716-1.83-1.973-1.805a68 68 0 0 1-.12-2.366m.148 3.343.038-.002c1.864 1.9 1.783 1.867 1.98 1.894l.146 2.563c-1.86-1.822-1.765-1.79-1.976-1.815-.098-.83-.136-1.728-.188-2.64m3.09 66.915a2.134 2.134 0 0 1 1.653-1.703 2.138 2.138 0 0 1 2.591 2.05c.016.29-.03.581-.131.854a2.1 2.1 0 0 1-.457.735 2.16 2.16 0 0 1-1.556.68l.046-.105a2.2 2.2 0 0 1-1.195-.34 2.13 2.13 0 0 1-.806-.94 2.15 2.15 0 0 1-.145-1.23"/></g><g clip-path="url(#b)"><path fill="#0c294f" d="M12.219 68.04a2 2 0 0 1 .043-.669 1.6 1.6 0 0 1 .374-.712l3.161-4.113c.264-.341.495-.668.684-.968q.276-.44.441-.856.16-.404.215-.791c.036-.255.038-.524.005-.797-.05-.416-.183-.722-.389-.904-.174-.154-.414-.219-.74-.2l-.138.008a1.36 1.36 0 0 0-.773.354q-.143.136-.236.306a2 2 0 0 0-.069.143q-.045.111-.075.233c-.056.245-.252.783-.354.95-.142.235-.421.367-.828.39-.622.035-1.46-.172-1.907-.3l-.25-.07.005-.263c.015-.682.135-1.302.354-1.842a4.4 4.4 0 0 1 .903-1.403c.376-.39.83-.704 1.35-.938a6 6 0 0 1 1.682-.457q.21-.027.413-.037c.5-.028.975.01 1.413.11.561.132 1.06.352 1.485.662.43.309.78.705 1.046 1.17.262.465.43.996.504 1.578.062.497.046.974-.04 1.418a5.4 5.4 0 0 1-.42 1.27 8 8 0 0 1-.683 1.18c-.44.638-.776 1.076-.836 1.15-.425.532-.888 1.171-1.383 1.904.784-.106 2.093-.29 3.037-.425l.124-.007q.49-.028.837.232c.264.196.418.477.462.832l.233 1.903-9.504 1.167z"/><path fill="#0c294f" d="M16.112 55.444q.708-.042 1.319.101.779.18 1.364.607.587.423.948 1.063c.24.426.396.91.46 1.452q.085.696-.036 1.313-.123.615-.395 1.193-.27.577-.654 1.134a25 25 0 0 1-.82 1.129c-.403.506-1 1.3-1.8 2.537l.027-.002c.36-.02 3.738-.505 3.738-.505l.094-.005a.9.9 0 0 1 .617.165.84.84 0 0 1 .327.601l.19 1.566-8.833 1.088-.107-.87a1.6 1.6 0 0 1 .04-.553q.07-.301.298-.565l3.174-4.13q.41-.528.702-.997.292-.47.468-.908.172-.44.235-.868.061-.427.006-.889c-.062-.504-.228-.88-.498-1.12q-.362-.319-.982-.284-.076.003-.16.016-.302.037-.542.157-.241.116-.419.29a1.5 1.5 0 0 0-.298.39q-.045.086-.085.176c-.06.143-.086.26-.091.288-.058.234-.242.728-.313.848-.09.148-.299.215-.56.23-.643.036-1.59-.23-1.8-.29q.021-.965.332-1.718.305-.751.83-1.296.527-.541 1.247-.864a5.5 5.5 0 0 1 1.585-.428c.134-.018.262-.028.393-.036m-.04-.695c-.14.008-.289.016-.436.038-.64.077-1.238.24-1.778.483-.56.25-1.05.59-1.454 1.008q-.617.638-.974 1.513c-.234.575-.361 1.236-.378 1.962l-.01.528.504.145c.467.134 1.346.353 2.02.315.524-.03.895-.218 1.098-.553.12-.201.328-.768.393-1.04q.026-.1.06-.188.024-.055.052-.112a.9.9 0 0 1 .42-.392q.142-.068.328-.093l.118-.007c.343-.02.46.083.5.118.141.125.232.358.275.69q.044.368-.004.708c-.034.23-.098.472-.195.716-.1.254-.24.524-.41.8-.183.292-.405.608-.663.94l-3.164 4.115a2 2 0 0 0-.434.845c-.062.276-.08.543-.05.79l.107.868.082.677.67-.083 8.834-1.087.67-.083-.082-.676-.19-1.566c-.056-.446-.26-.816-.597-1.065a1.58 1.58 0 0 0-1.057-.298l-.138.008c-.783.113-1.613.231-2.29.324.329-.464.639-.884.932-1.248.063-.078.405-.527.851-1.168.278-.4.518-.816.71-1.229q.308-.652.446-1.35c.095-.478.11-.993.045-1.528a4.6 4.6 0 0 0-.546-1.705 4 4 0 0 0-1.142-1.28 4.45 4.45 0 0 0-1.607-.715 5.3 5.3 0 0 0-1.508-.119zM26.796 67.604a4.6 4.6 0 0 1-1.696-.21 4.34 4.34 0 0 1-1.753-1.096c-.508-.512-.941-1.186-1.289-2.007-.342-.808-.587-1.795-.723-2.93-.139-1.134-.139-2.152 0-3.02.14-.88.4-1.64.77-2.261.375-.63.86-1.128 1.44-1.485a4.8 4.8 0 0 1 1.937-.661q.176-.021.353-.03a4.7 4.7 0 0 1 1.695.203c.653.204 1.247.569 1.767 1.09.511.513.948 1.186 1.298 2.007.347.811.592 1.798.73 2.931.139 1.133.136 2.15-.004 3.02-.142.88-.406 1.644-.779 2.261a4.3 4.3 0 0 1-1.45 1.489 4.8 4.8 0 0 1-1.947.669 6 6 0 0 1-.346.03zm-.967-10.827a1.2 1.2 0 0 0-.524.207q-.234.164-.403.578-.181.46-.238 1.266c-.037.547-.003 1.257.1 2.11.105.858.24 1.555.408 2.077.163.508.345.903.535 1.171.176.242.354.402.53.467q.252.094.487.081l.07-.004c.185-.024.356-.092.529-.207.159-.108.296-.306.412-.585.127-.31.211-.737.248-1.267.04-.547.007-1.257-.096-2.112-.102-.85-.243-1.546-.411-2.07-.164-.51-.349-.904-.546-1.168-.179-.242-.363-.398-.543-.466a1.2 1.2 0 0 0-.49-.082l-.071.004z"/><path fill="#0c294f" d="M25.85 54.243a4.4 4.4 0 0 1 1.577.19 3.9 3.9 0 0 1 1.63 1.007q.724.725 1.225 1.898.503 1.177.705 2.837.203 1.663-.003 2.925t-.732 2.138a3.96 3.96 0 0 1-1.34 1.374 4.5 4.5 0 0 1-1.81.62q-.164.02-.326.029a4.4 4.4 0 0 1-1.573-.193 3.95 3.95 0 0 1-1.617-1.011c-.48-.484-.883-1.118-1.218-1.9q-.496-1.176-.701-2.836-.202-1.663 0-2.925.201-1.262.725-2.138a3.9 3.9 0 0 1 1.326-1.37 4.5 4.5 0 0 1 1.804-.613q.166-.02.329-.029m.896 10.83.09-.004a1.56 1.56 0 0 0 .677-.264q.322-.221.535-.738t.277-1.374q.061-.857-.1-2.18-.162-1.313-.426-2.135-.264-.82-.595-1.267t-.697-.58a1.5 1.5 0 0 0-.627-.1l-.094.005q-.353.045-.674.263c-.214.149-.386.39-.525.731q-.205.514-.263 1.37-.057.861.103 2.174.163 1.324.422 2.138.263.816.585 1.267.323.45.685.587.315.12.623.101m-.93-11.506c-.125.007-.25.014-.373.035a5.2 5.2 0 0 0-2.073.707 4.65 4.65 0 0 0-1.552 1.6c-.392.655-.667 1.457-.813 2.382-.145.9-.142 1.948-.002 3.115s.394 2.184.749 3.022c.363.86.822 1.57 1.359 2.115a4.66 4.66 0 0 0 1.89 1.18 5 5 0 0 0 1.814.223c.12-.007.245-.014.37-.034a5.2 5.2 0 0 0 2.078-.714 4.7 4.7 0 0 0 1.566-1.604c.394-.656.672-1.459.822-2.383.148-.904.15-1.952.005-3.119-.14-1.166-.397-2.183-.755-3.024-.37-.861-.829-1.57-1.369-2.112a4.6 4.6 0 0 0-1.906-1.172 5.1 5.1 0 0 0-1.814-.217zm.895 10.834a.9.9 0 0 1-.35-.058c-.111-.042-.243-.164-.375-.347-.172-.242-.335-.604-.49-1.078-.16-.499-.293-1.175-.394-2.014-.102-.832-.134-1.518-.1-2.044.033-.499.105-.891.214-1.163.083-.206.183-.358.28-.424a.85.85 0 0 1 .373-.15l.05-.004a.9.9 0 0 1 .358.062c.117.044.252.166.391.348.175.236.341.597.496 1.068.164.502.297 1.179.398 2.007.101.832.133 1.521.096 2.048q-.055.744-.224 1.16c-.086.212-.192.368-.293.435a.9.9 0 0 1-.383.155l-.047.002z"/><path fill="#fff" d="m41.002 64.26-.037-2.967-2.883-4.83 2.037-.025a.85.85 0 0 1 .549.166q.187.149.301.371l1.131 2.272 1.058-2.294a1.042 1.042 0 0 1 .293-.367q.104-.082.239-.136a.9.9 0 0 1 .26-.056l2.09-.027-2.758 4.9.037 2.966-2.32.027z"/><path fill="#0c294f" d="m38.674 56.793 1.45-.018a.54.54 0 0 1 .343.096.8.8 0 0 1 .207.254l1.029 2.07q.125.246.228.46.103.209.186.415a4 4 0 0 1 .168-.425q.101-.211.214-.458l.967-2.095a.734.734 0 0 1 .195-.243.6.6 0 0 1 .151-.086q.075-.03.16-.033l.027-.002 1.46-.018-2.513 4.463.033 2.719-1.646.018-.033-2.718-2.626-4.403m-1.185-.661.604 1.014 2.533 4.245.033 2.535.008.68.675-.008 1.645-.018.675-.008-.008-.68-.033-2.535 2.421-4.305.58-1.03-1.174.015-1.46.018-.058.004a1.2 1.2 0 0 0-.69.267 1.4 1.4 0 0 0-.387.499l-.76 1.65-.815-1.64a1.5 1.5 0 0 0-.399-.487 1.17 1.17 0 0 0-.762-.236l-1.45.018-1.174.015v-.013z"/><path fill="#fff" d="m45.703 64.203-.101-7.835 5.237-.063.027 1.957-2.91.036.012.99 2.229-.028.024 1.908-2.23.025.015 1.024 2.91-.033.024 1.957z"/><path fill="#0c294f" d="m45.942 56.706 4.566-.055.015 1.276-2.91.036.02 1.67 2.23-.027.015 1.228-2.229.028.023 1.704 2.91-.036.015 1.276-4.566.055-.093-7.154m-.68-.673.01.68.092 7.155.008.68.675-.007 4.566-.056.674-.007-.008-.68-.015-1.277-.008-.68-.675.008-2.236.028-.006-.344 1.555-.02.674-.008-.008-.68-.016-1.228-.008-.68-.675.007-1.554.02-.004-.31 2.236-.028.674-.008-.008-.68-.016-1.276-.008-.68-.674.007-4.566.056-.675.007z"/><path fill="#fff" d="M56.862 64.07a.93.93 0 0 1-.552-.16.85.85 0 0 1-.321-.42l-.355-1.016-2.212.028-.327 1.019a.9.9 0 0 1-.297.412.87.87 0 0 1-.502.188l-1.825.022 2.904-7.87 2.145-.026 3.105 7.797-1.767.022h.004zm-1.857-3.395-.516-1.489-.482 1.502z"/><path fill="#0c294f" d="m53.614 56.614 1.682-.02 2.835 7.12-1.275.015a.6.6 0 0 1-.353-.095.55.55 0 0 1-.197-.255l-.435-1.241-2.694.03-.401 1.252a.57.57 0 0 1-.186.249.53.53 0 0 1-.31.113l-.034.002-1.285.015zm1.866 4.395-.678-1.95q-.067-.185-.153-.437-.09-.252-.176-.545a9 9 0 0 1-.304 1.001l-.628 1.956 1.936-.021m-2.334-5.073-.16.434-2.653 7.185-.342.928.985-.011 1.285-.015.063-.004c.26-.015.5-.103.694-.26s.332-.346.404-.562l.258-.8 1.73-.02.274.78c.084.237.237.44.441.585q.322.226.752.22l1.275-.016.984-.011-.366-.923-2.834-7.12-.173-.434-.462.006-1.683.02-.462.007zm1.33 4.401.029-.09.032.09-.06.003z"/><path fill="#fff" d="M63.023 63.995c-.502.005-.76-.253-.89-.474l-1.205-2.062c-.03-.053-.054-.066-.054-.069 0 0-.035-.015-.129-.013l-.08.005.032 2.643-2.32.027-.102-7.832 2.644-.031a5.2 5.2 0 0 1 1.41.154q.608.172 1.013.498.415.334.606.8c.125.295.187.622.193.969q.007.4-.098.758a2.3 2.3 0 0 1-.313.671 2.5 2.5 0 0 1-.687.676q.117.121.21.27l1.861 2.986-2.09.028zm-2.061-4.445.094-.005c.141-.008.265-.032.36-.069a.7.7 0 0 0 .261-.16.6.6 0 0 0 .136-.226c.031-.1.049-.21.045-.333-.002-.283-.11-.41-.192-.476-.138-.118-.388-.179-.725-.173l-.324.004.018 1.443.323-.005z"/><path fill="#0c294f" d="m58.615 56.555 2.306-.03q.77-.008 1.315.144t.891.433c.23.187.402.41.507.665.106.256.163.54.166.842q.005.346-.084.658t-.267.574a2.1 2.1 0 0 1-.443.475 2.4 2.4 0 0 1-.608.347c.112.055.216.12.312.204.096.08.183.18.253.295l1.541 2.473-1.49.017q-.415.003-.598-.307l-1.204-2.063a.46.46 0 0 0-.187-.193.64.64 0 0 0-.293-.055l-.418.003.032 2.647-1.645.019-.093-7.155m2.467 3.336q.268-.016.46-.087a1 1 0 0 0 .385-.244.9.9 0 0 0 .216-.36q.065-.202.063-.438-.008-.473-.315-.732-.309-.263-.946-.252l-.66.007.025 2.12.661-.008zm-3.143-4.002.008.68.093 7.155.008.68.675-.007 1.646-.019.674-.008-.008-.68-.02-1.412.834 1.427c.25.422.668.65 1.187.64l1.49-.016 1.201-.014-.638-1.026-1.541-2.472-.019-.03c.187-.164.352-.347.485-.545q.24-.353.358-.77c.076-.27.114-.558.11-.854a3 3 0 0 0-.217-1.097 2.34 2.34 0 0 0-.708-.934c-.3-.245-.683-.43-1.132-.558-.422-.12-.928-.176-1.501-.17l-2.307.029-.674.007v-.006zm3.037 3.327-.01-.762c.358-.003.47.079.492.095.025.022.071.06.073.22a.7.7 0 0 1-.028.22.24.24 0 0 1-.055.095.35.35 0 0 1-.137.079 1 1 0 0 1-.264.046l-.07.004z"/><path fill="#fff" d="m67.287 64.018-.186.01a3.7 3.7 0 0 1-.739-.066 4.147 4.147 0 0 1-1.383-.517 2.9 2.9 0 0 1-.56-.428l-.194-.19.618-1.012a.7.7 0 0 1 .269-.26.75.75 0 0 1 .335-.101l.033-.002a.9.9 0 0 1 .474.14l.332.199q.163.097.381.175c.124.044.277.07.456.066l.07-.004q.28-.015.415-.125c.03-.026.12-.099.118-.368 0-.122-.043-.168-.055-.184a.7.7 0 0 0-.249-.173 3 3 0 0 0-.454-.158q-.289-.075-.594-.17a5 5 0 0 1-.628-.248 2.048 2.048 0 0 1-1.038-1.105 2.6 2.6 0 0 1-.173-.967 2.3 2.3 0 0 1 .177-.92 2.4 2.4 0 0 1 .538-.803c.237-.231.526-.421.866-.56.29-.118.62-.192.98-.212l.178-.01c.236-.003.47.014.691.049.225.035.444.087.647.16q.306.107.575.26.275.155.496.357l.193.177-.52 1.01a1 1 0 0 1-.25.293.64.64 0 0 1-.364.126l-.037.002a.84.84 0 0 1-.404-.11l-.293-.153a2 2 0 0 0-.32-.131 1.1 1.1 0 0 0-.372-.05l-.074.003c-.181.01-.318.049-.391.118-.052.047-.108.118-.109.282.004.068.023.1.044.123a.8.8 0 0 0 .26.17c.131.06.29.116.465.167q.293.085.598.19.32.111.622.258c.222.107.425.248.597.42.179.173.33.389.438.638.112.25.17.552.176.896q.005.563-.18 1.055a2.5 2.5 0 0 1-.56.876 2.7 2.7 0 0 1-.905.593 3.2 3.2 0 0 1-1.01.214"/><path fill="#0c294f" d="m67.115 56.374.162-.009q.325-.003.637.046.31.047.588.143.28.096.52.236c.16.09.308.194.436.313l-.398.774a.6.6 0 0 1-.152.18.32.32 0 0 1-.182.06l-.023.002a.46.46 0 0 1-.24-.068l-.296-.157a2.4 2.4 0 0 0-.374-.156 1.4 1.4 0 0 0-.479-.064l-.087.005q-.394.023-.596.204a.69.69 0 0 0-.22.54.5.5 0 0 0 .142.356q.14.141.362.242.222.1.51.182.286.083.584.185.299.1.584.242.285.14.51.356.224.217.364.534.14.316.144.761.008.495-.16.929-.162.434-.483.76a2.3 2.3 0 0 1-.79.514 2.9 2.9 0 0 1-.907.191l-.169.01a3.6 3.6 0 0 1-.675-.06 3.6 3.6 0 0 1-.665-.187 4 4 0 0 1-.607-.29 2.7 2.7 0 0 1-.497-.376l.475-.783a.419.419 0 0 1 .34-.2l.02-.001a.52.52 0 0 1 .295.089q.148.091.339.202.19.111.433.2.245.09.575.086l.084-.004q.388-.023.61-.205.245-.205.24-.634a.6.6 0 0 0-.14-.407 1.1 1.1 0 0 0-.363-.255 3.4 3.4 0 0 0-.506-.176 16 16 0 0 1-.58-.168q-.298-.09-.583-.229a1.731 1.731 0 0 1-.876-.927 2.2 2.2 0 0 1-.146-.84q-.004-.401.151-.788c.103-.258.26-.484.464-.687q.307-.302.758-.489.385-.159.874-.185m-.045-.675a3.3 3.3 0 0 0-1.087.235c-.38.154-.708.367-.973.63a2.72 2.72 0 0 0-.816 1.97c.007.422.072.79.2 1.096a2.4 2.4 0 0 0 1.204 1.28c.218.103.446.192.673.264q.32.099.607.174.231.058.402.137.063.028.105.062c.003.05-.005.082-.008.099a.5.5 0 0 1-.203.042l-.054.003a1 1 0 0 1-.337-.045 2 2 0 0 1-.325-.152q-.183-.107-.329-.196-.316-.192-.655-.187l-.05.003q-.26.014-.482.143a1.06 1.06 0 0 0-.396.387l-.472.772-.281.462.386.38q.27.267.628.478a4.616 4.616 0 0 0 1.49.559q.405.076.807.073l.198-.011a3.5 3.5 0 0 0 1.117-.237 3 3 0 0 0 1.022-.668c.277-.281.491-.617.635-.996q.212-.554.203-1.183a2.7 2.7 0 0 0-.204-1.033 2.4 2.4 0 0 0-.512-.744 2.7 2.7 0 0 0-.685-.482 6 6 0 0 0-.66-.272c-.21-.07-.416-.137-.615-.193a3 3 0 0 1-.417-.15.3.3 0 0 1-.052-.028c.03-.002.073-.014.13-.018l.061-.003a.7.7 0 0 1 .262.033q.154.051.27.11.16.087.291.154.282.151.566.148l.053-.003a1 1 0 0 0 .55-.194q.184-.14.323-.37l.012-.02.012-.022.398-.775.24-.466-.387-.353a3.2 3.2 0 0 0-.556-.4 3.9 3.9 0 0 0-1.34-.459 5 5 0 0 0-.745-.053l-.191.011z"/><path fill="#fff" d="M11.35 67.355a2 2 0 0 1 .043-.67c.056-.252.184-.494.37-.712l3.165-4.112c.264-.342.495-.669.684-.969q.276-.44.44-.856.161-.404.216-.791c.036-.255.037-.524.005-.797-.05-.416-.183-.722-.389-.904-.174-.154-.414-.219-.74-.2l-.138.008q-.242.03-.435.123-.193.094-.338.23a1.2 1.2 0 0 0-.302.45q-.045.114-.074.232c-.057.245-.253.784-.355.95-.141.236-.42.368-.828.39-.646.038-1.55-.197-1.907-.3l-.25-.07.005-.263c.016-.681.136-1.301.355-1.841a4.4 4.4 0 0 1 .902-1.403c.376-.39.83-.705 1.35-.938a6 6 0 0 1 1.682-.457q.21-.027.413-.037a5 5 0 0 1 1.417.11 4.1 4.1 0 0 1 1.485.661c.43.31.78.705 1.045 1.17.263.465.431.997.505 1.578.062.497.045.975-.04 1.419a5.4 5.4 0 0 1-.421 1.27 8 8 0 0 1-.682 1.18c-.437.63-.776 1.072-.836 1.15-.425.531-.889 1.17-1.383 1.904.783-.106 2.092-.29 3.036-.425l.125-.007q.49-.03.836.231.397.298.463.832l.233 1.904-9.504 1.167-.147-1.208z"/><path fill="#0c294f" d="M15.243 54.758q.708-.042 1.319.101.779.18 1.364.607.587.423.948 1.063c.24.426.396.91.46 1.452q.086.696-.037 1.313-.121.615-.394 1.193-.27.577-.654 1.134a25 25 0 0 1-.82 1.129c-.403.506-1 1.3-1.8 2.537l.027-.002c.36-.02 3.737-.505 3.737-.505l.095-.005a.9.9 0 0 1 .617.165.84.84 0 0 1 .327.601l.19 1.566-8.833 1.088-.107-.87q-.03-.252.04-.553.069-.301.298-.565l3.174-4.13q.41-.528.702-.997a6 6 0 0 0 .468-.908q.172-.44.234-.868.064-.427.007-.889c-.062-.504-.229-.88-.499-1.12q-.36-.319-.981-.284-.075.003-.161.016-.3.036-.541.157-.24.116-.42.29a1.5 1.5 0 0 0-.297.39q-.045.086-.085.176c-.06.143-.086.26-.092.288-.057.234-.242.728-.312.848-.09.148-.299.215-.561.23-.643.036-1.59-.23-1.798-.29q.02-.965.33-1.718.306-.751.831-1.296.527-.542 1.247-.864a5.5 5.5 0 0 1 1.585-.428c.134-.018.262-.028.393-.036m-.04-.695c-.14.008-.289.016-.436.038-.64.077-1.238.24-1.778.483-.56.25-1.05.59-1.454 1.008q-.618.638-.974 1.513c-.234.575-.362 1.236-.378 1.962l-.01.528.504.145c.467.134 1.346.353 2.02.315.524-.03.894-.218 1.098-.553.12-.201.328-.768.393-1.04q.026-.1.06-.188.023-.055.051-.112a.901.901 0 0 1 .42-.392q.143-.068.329-.093l.118-.007c.343-.02.46.083.5.118.141.125.232.358.275.69q.044.368-.004.708c-.034.23-.098.472-.196.716-.1.254-.24.524-.41.8q-.274.44-.662.94l-3.164 4.115a2 2 0 0 0-.434.845 2.3 2.3 0 0 0-.05.79l.107.868.082.677.67-.083 8.834-1.088.67-.082-.082-.676-.19-1.566c-.056-.446-.26-.816-.598-1.065a1.58 1.58 0 0 0-1.056-.298l-.138.008c-.783.113-1.613.231-2.29.324.328-.464.639-.884.932-1.248.063-.078.405-.527.851-1.168.278-.4.517-.816.71-1.229q.308-.652.446-1.35c.095-.478.11-.993.045-1.528a4.6 4.6 0 0 0-.546-1.705 4 4 0 0 0-1.142-1.28 4.45 4.45 0 0 0-1.607-.715 5.3 5.3 0 0 0-1.508-.119z"/><path fill="#fff" d="M25.927 66.918a4.6 4.6 0 0 1-1.696-.21 4.34 4.34 0 0 1-1.753-1.096c-.508-.512-.941-1.185-1.289-2.007-.342-.808-.587-1.795-.723-2.93-.139-1.134-.14-2.152 0-3.02.143-.88.4-1.64.77-2.261.375-.63.86-1.128 1.44-1.485a4.8 4.8 0 0 1 1.937-.661q.176-.021.353-.03a4.7 4.7 0 0 1 1.695.203c.653.204 1.247.569 1.766 1.09.512.513.949 1.186 1.299 2.007.347.811.591 1.798.73 2.931.139 1.136.136 2.15-.004 3.02-.142.88-.406 1.64-.779 2.261a4.3 4.3 0 0 1-1.45 1.489 4.8 4.8 0 0 1-1.947.669 6 6 0 0 1-.346.03zM24.96 56.09a1.2 1.2 0 0 0-.524.207q-.234.164-.403.578c-.121.303-.201.73-.238 1.266-.037.547-.003 1.26.1 2.11.105.858.24 1.555.408 2.077.163.508.345.903.535 1.171.176.242.354.402.53.467q.252.094.487.081l.07-.004c.185-.024.356-.091.529-.207.159-.108.3-.306.415-.585.128-.31.211-.738.249-1.267.04-.547.006-1.257-.097-2.113-.102-.852-.243-1.545-.411-2.07-.164-.508-.348-.903-.546-1.167-.179-.242-.363-.399-.542-.467a1.2 1.2 0 0 0-.491-.08z"/><path fill="#0c294f" d="M24.985 53.557a4.4 4.4 0 0 1 1.577.19 3.9 3.9 0 0 1 1.63 1.006q.723.727 1.224 1.899.503 1.176.705 2.837t-.002 2.924q-.206 1.262-.733 2.14a3.97 3.97 0 0 1-1.339 1.373 4.5 4.5 0 0 1-1.81.62q-.166.02-.326.029a4.4 4.4 0 0 1-1.574-.193 3.96 3.96 0 0 1-1.616-1.012q-.719-.725-1.218-1.898-.497-1.178-.702-2.837-.202-1.663 0-2.925t.725-2.139a3.9 3.9 0 0 1 1.326-1.369 4.5 4.5 0 0 1 1.804-.613 5 5 0 0 1 .33-.029m.892 10.83.09-.004a1.56 1.56 0 0 0 .677-.264q.322-.221.535-.738.214-.518.277-1.374.061-.857-.1-2.18-.162-1.313-.426-2.135c-.176-.545-.376-.97-.595-1.267q-.33-.446-.698-.58a1.5 1.5 0 0 0-.626-.1l-.095.005q-.352.045-.673.263c-.214.149-.386.39-.525.731q-.205.514-.263 1.37-.057.861.103 2.174.163 1.324.422 2.138.263.816.585 1.267.323.45.685.587.315.12.623.101m-.928-11.506c-.124.007-.248.014-.372.035a5.2 5.2 0 0 0-2.073.707 4.64 4.64 0 0 0-1.552 1.6c-.391.655-.666 1.457-.813 2.381-.144.9-.142 1.95-.002 3.116.141 1.166.395 2.184.75 3.021.362.862.82 1.57 1.358 2.116a4.66 4.66 0 0 0 1.89 1.18 5 5 0 0 0 1.814.223c.121-.007.246-.014.37-.035a5.2 5.2 0 0 0 2.078-.714 4.7 4.7 0 0 0 1.566-1.604c.394-.655.673-1.458.823-2.382.147-.904.149-1.953.005-3.119-.14-1.167-.398-2.184-.756-3.025-.37-.86-.828-1.57-1.369-2.111a4.6 4.6 0 0 0-1.905-1.172 5.1 5.1 0 0 0-1.815-.217zm.893 10.834a.9.9 0 0 1-.35-.058c-.111-.042-.243-.164-.375-.347-.172-.242-.335-.604-.49-1.078-.16-.499-.293-1.175-.394-2.014-.102-.832-.134-1.518-.1-2.044.033-.499.105-.891.214-1.163.083-.206.182-.358.28-.424a.85.85 0 0 1 .373-.15l.05-.004a.9.9 0 0 1 .358.062c.117.044.252.166.391.348.175.236.341.597.496 1.068.163.502.296 1.179.398 2.007.1.832.133 1.521.096 2.048q-.055.744-.225 1.16c-.085.212-.191.368-.292.435a.9.9 0 0 1-.383.155l-.047.002z"/></g><defs><clipPath id="a"><path fill="#fff" d="m0-38.806 71.504-4.065 6.53 114.862L6.53 76.055z"/></clipPath><clipPath id="b"><path fill="#fff" d="m9.84 53.737 60.093-3.416.908 15.974-60.093 3.416z"/></clipPath></defs></svg>
