<svg xmlns="http://www.w3.org/2000/svg" width="7" height="8" fill="none" viewBox="0 0 7 8"><path fill="#fff59e" d="m2.382 6.792.01-2.333L.337 3.348l2.225-.715.42-2.296L4.35 2.234l2.312-.308-1.378 1.883 1.01 2.106-2.219-.728-1.69 1.609h-.003z"/><path fill="#000" d="M2.386 7.134a.35.35 0 0 1-.24-.098.33.33 0 0 1-.102-.244l.01-2.13L.178 3.649a.34.34 0 0 1 .058-.62l2.031-.653L2.65.28a.34.34 0 0 1 .257-.271c.135-.03.27.02.349.132l1.25 1.73 2.112-.28a.34.34 0 0 1 .335.162.35.35 0 0 1-.016.372l-1.26 1.72.921 1.924a.34.34 0 0 1-.05.37.34.34 0 0 1-.36.098l-2.025-.664-1.544 1.47a.34.34 0 0 1-.233.095zM1.197 3.43l1.358.735c.108.061.18.176.176.298l-.007 1.544 1.118-1.063a.35.35 0 0 1 .338-.078l1.463.481-.667-1.392a.34.34 0 0 1 .03-.345l.911-1.243-1.527.203a.34.34 0 0 1-.318-.139l-.904-1.253-.278 1.514a.34.34 0 0 1-.23.26l-1.47.471z"/></svg>
