<svg width="45" height="60" viewBox="0 0 45 60" fill="none" xmlns="http://www.w3.org/2000/svg">
<g id="unblocked_content" clip-path="url(#clip0_886_212)">
<path id="Vector" d="M24.2787 60.0001C31.6975 60.0001 37.7115 57.2618 37.7115 53.8841C37.7115 50.5063 31.6975 47.7681 24.2787 47.7681C16.86 47.7681 10.8459 50.5063 10.8459 53.8841C10.8459 57.2618 16.86 60.0001 24.2787 60.0001Z" fill="#333333" fill-opacity="0.2"/>
<path id="Vector_2" d="M23.9028 51.4139C35.4078 51.4139 44.7343 42.0674 44.7343 30.5381C44.7343 19.0087 35.4078 9.66235 23.9028 9.66235C12.3979 9.66235 3.07129 19.0087 3.07129 30.5381C3.07129 42.0674 12.3979 51.4139 23.9028 51.4139Z" fill="#37BCEA"/>
<g id="Mask group">
<mask id="mask0_886_212" style="mask-type:alpha" maskUnits="userSpaceOnUse" x="3" y="9" width="42" height="43">
<g id="Group">
<path id="Vector_3" d="M23.9028 51.4139C35.4078 51.4139 44.7343 42.0674 44.7343 30.5381C44.7343 19.0087 35.4078 9.66235 23.9028 9.66235C12.3979 9.66235 3.07129 19.0087 3.07129 30.5381C3.07129 42.0674 12.3979 51.4139 23.9028 51.4139Z" fill="#4ECDF9"/>
</g>
</mask>
<g mask="url(#mask0_886_212)">
<g id="Group_2">
<path id="Vector_4" d="M29.7987 44.3557C41.3037 44.3557 50.6301 35.0092 50.6301 23.48C50.6301 11.9505 41.3037 2.60416 29.7987 2.60416C18.2937 2.60416 8.96716 11.9505 8.96716 23.48C8.96716 35.0092 18.2937 44.3557 29.7987 44.3557Z" fill="#53D3FF"/>
</g>
</g>
</g>
<path id="Vector_5" d="M44.8476 30.9284C44.6445 42.48 35.075 51.7352 23.5421 51.5285C11.9866 51.2989 2.75574 41.7222 2.95886 30.1704C3.16198 18.5958 12.7314 9.36361 24.2869 9.5703C35.8198 9.77698 45.0508 19.3537 44.8476 30.9284ZM3.18456 30.1704C2.98143 41.6072 12.122 51.0921 23.5421 51.2989C34.9622 51.5056 44.4413 42.3652 44.6445 30.9054C44.8476 19.4685 35.7071 9.98369 24.2869 9.77698C12.8442 9.59326 3.38767 18.7335 3.18456 30.1704Z" fill="#4ECDF9"/>
<path id="Vector_6" d="M24.5346 9.68555C24.2187 10.2597 23.7898 10.719 23.1804 10.8798C21.8037 11.2472 20.6978 10.742 20.0207 10.03C15.1683 10.9716 10.8575 13.5897 7.81067 17.3101C8.8263 17.1494 9.95476 17.2183 10.9929 17.8843C10.9929 17.8843 9.11971 18.068 9.18741 19.5148C9.27769 20.9617 10.9027 19.5378 11.67 20.6861C12.46 21.8343 13.8141 20.3415 12.8662 19.5378C11.9183 18.711 13.0016 17.5628 13.8593 18.1139C14.6943 18.665 14.8523 19.7445 14.3558 20.8469C13.8593 21.9491 15.7325 21.7195 16.1839 22.753C16.6579 23.7865 16.1388 24.7969 16.1388 24.7969L17.6058 23.6715C17.9894 23.373 18.5086 23.4189 18.847 23.7635L19.2081 24.1539C19.2081 24.1539 18.328 24.3835 18.2603 25.0495C18.1926 25.7156 19.7272 25.486 19.7724 26.3815C19.8176 27.3002 21.1492 27.415 21.2846 26.1978C21.42 24.9576 22.0744 24.8198 22.0744 24.8198C22.0744 24.8198 21.9165 23.5797 20.6752 23.5567C19.4339 23.5337 19.8176 22.2478 19.8176 22.2478C19.8176 22.2478 18.7794 22.041 19.1405 20.9847C19.5016 19.9282 17.4704 18.7339 19.9981 17.8383C22.5259 16.9427 21.6231 15.8403 21.6231 15.8403L20.4044 15.4958C20.4044 15.4958 22.3228 14.9676 22.3002 13.7964C22.3002 12.6251 24.3992 11.9362 24.8505 13.8423C25.3018 15.7485 24.1735 16.2996 24.1735 16.2996C24.1735 16.2996 25.5728 16.2078 25.5502 17.0116C25.5276 17.8154 24.3992 18.2976 24.3992 18.2976C24.3992 18.2976 24.5346 19.8823 23.7898 20.02C23.045 20.1578 23.1354 19.3082 23.1354 19.3082C23.1354 19.3082 21.8037 19.2393 22.1196 20.1808C22.4581 21.1224 22.0744 23.0285 22.0744 23.0285C22.0744 23.0285 23.3159 23.7174 23.1128 24.8658C22.9096 26.0141 22.5033 27.2313 23.9704 27.9661C25.4374 28.6782 25.3244 29.9411 25.3244 29.9411L26.7915 31.5947C26.7915 31.5947 26.3176 32.5593 27.085 32.8808C27.8748 33.2252 28.0328 32.0082 30.0415 32.766C32.0502 33.5239 32.7046 33.2482 32.9981 32.8578C32.9981 32.8578 34.6231 33.3861 35.3454 31.365C35.3454 31.365 36.7446 30.2858 35.887 28.4024C35.887 28.4024 36.8348 27.3461 36.2255 26.1289C35.6387 24.9117 36.4061 23.7406 37.0831 23.7174C37.0831 23.7174 36.8122 22.4545 37.8279 22.5234C38.8435 22.5923 38.5954 23.6715 38.5954 23.6715C38.5954 23.6715 40.0172 22.156 41.6422 23.1893C41.6422 23.1893 41.5066 25.1184 42.6126 25.0035C43.1091 24.9576 43.6733 25.1873 44.1474 25.44C41.9129 16.5982 34.0363 9.96112 24.5346 9.68555Z" fill="#10B501"/>
<path id="Vector_7" d="M44.306 25.6461L44.0802 25.5313C43.4934 25.2098 42.9969 25.0491 42.6132 25.095C42.3424 25.118 42.1393 25.0491 41.9587 24.8884C41.5073 24.4519 41.5073 23.5104 41.5299 23.2348C40.0178 22.3161 38.7313 23.6711 38.6861 23.74L38.4154 24.0156L38.483 23.6482C38.483 23.6482 38.5734 23.166 38.3476 22.8673C38.2348 22.7295 38.0543 22.6376 37.806 22.6147C37.5802 22.5917 37.4223 22.6606 37.3095 22.7754C37.0611 23.0741 37.1739 23.6711 37.1739 23.6711L37.1965 23.786H37.0611C36.8128 23.786 36.5195 23.9926 36.3389 24.3141C36.0456 24.8195 36.023 25.4624 36.3163 26.0365C36.858 27.1619 36.181 28.1495 36.0004 28.3791C36.7678 30.1245 35.6167 31.2269 35.4136 31.3876C34.7591 33.2019 33.3599 33.0182 33.0213 32.9493C32.5473 33.4774 31.6219 33.4545 29.9743 32.8345C28.7782 32.398 28.2817 32.6508 27.8754 32.8574C27.6047 32.9952 27.3563 33.11 26.9952 32.9723C26.7695 32.8804 26.6115 32.7197 26.5439 32.5128C26.4084 32.1684 26.5439 31.755 26.6115 31.5943L25.1671 29.9637V29.9178C25.1671 29.8719 25.2348 28.7235 23.8806 28.0347C22.4813 27.3456 22.7071 26.1745 22.9102 25.118C22.9328 25.0261 22.9552 24.9113 22.9778 24.8195C23.1584 23.763 22.0074 23.0971 21.9848 23.0971L21.9171 23.0511L21.9397 22.9823C21.9397 22.9593 22.3008 21.0989 21.9848 20.2034C21.8945 19.9278 21.9171 19.7211 22.03 19.5373C22.3234 19.1469 23.0456 19.1928 23.0908 19.1928H23.2036L23.181 19.3076C23.181 19.3076 23.1358 19.675 23.3163 19.836C23.4067 19.9048 23.5421 19.9278 23.7 19.9048C24.2417 19.79 24.2643 18.7106 24.2417 18.2972V18.2283L24.3095 18.2053C24.3095 18.2053 25.3702 17.723 25.3928 17.0111C25.3928 16.8733 25.3476 16.7585 25.2574 16.6666C24.9189 16.3451 24.1289 16.391 24.1289 16.391L23.6324 16.414L24.0837 16.1843C24.1289 16.1614 25.0995 15.6332 24.6932 13.8189C24.5126 13.061 24.0386 12.6476 23.3841 12.7165C22.865 12.7854 22.346 13.1758 22.346 13.75V13.773C22.3234 14.6916 21.2626 15.2198 20.6984 15.4495L21.6237 15.7021L21.6463 15.725C21.6689 15.748 21.9171 16.0695 21.8043 16.5288C21.6463 17.057 21.0369 17.5163 19.9987 17.9068C19.3443 18.1364 18.9832 18.389 18.8476 18.6876C18.7123 19.0091 18.8476 19.3765 19.0282 19.7671C19.1861 20.1574 19.3667 20.5708 19.2313 20.9841C19.1411 21.2826 19.1411 21.5354 19.2539 21.7191C19.4345 22.0406 19.8182 22.1095 19.8408 22.1095L19.9536 22.1324L19.931 22.2473C19.931 22.2473 19.773 22.7984 20.0213 23.143C20.1567 23.3267 20.3824 23.4185 20.6758 23.4185C21.9848 23.4415 22.2106 24.7506 22.2106 24.7735L22.233 24.8654L22.1428 24.8884C22.1202 24.8884 21.5334 25.0491 21.4206 26.1745C21.3528 26.8863 20.9015 27.1848 20.4952 27.1619C20.1115 27.1389 19.7278 26.8634 19.7054 26.3582C19.6828 25.9447 19.3217 25.8069 18.9154 25.6691C18.5543 25.5313 18.1706 25.3935 18.2157 25.0032C18.2609 24.4519 18.8026 24.1763 19.0734 24.0615L18.825 23.8089C18.5317 23.5104 18.0578 23.4645 17.7418 23.7171L15.9137 25.118L16.1168 24.7047C16.1168 24.7047 16.5908 23.7171 16.1619 22.7524C15.9814 22.3391 15.53 22.1554 15.1012 21.9717C14.7401 21.811 14.3789 21.6502 14.2661 21.3517C14.1984 21.1908 14.221 20.9841 14.3112 20.7545C14.8078 19.6521 14.6272 18.6417 13.8598 18.1364C13.4762 17.8838 13.0248 18.0446 12.8217 18.3431C12.6185 18.6187 12.5734 19.0321 13.0022 19.3995C13.3182 19.675 13.431 20.0426 13.3182 20.41C13.2053 20.7774 12.8894 21.0989 12.5283 21.1448C12.3251 21.1678 11.964 21.1678 11.6255 20.6856C11.2869 20.2034 10.7904 20.2263 10.2939 20.2493C9.93279 20.2723 9.59424 20.2952 9.36855 20.0885C9.21057 19.9508 9.14287 19.7441 9.12029 19.4454C9.05259 18.2742 10.1811 17.8838 10.7227 17.746C9.88765 17.2867 8.91716 17.1489 7.8564 17.3326L7.58557 17.3786L7.76613 17.1489C10.8581 13.4285 15.214 10.8334 20.0213 9.9377H20.0889L20.1115 9.96066C20.4726 10.3511 21.511 11.2238 23.1584 10.7645C23.6774 10.6267 24.1063 10.2363 24.4448 9.61618L24.4674 9.57025H24.5352C33.8563 9.84584 41.9587 16.3451 44.2382 25.3935L44.306 25.6461ZM41.733 23.3037C41.733 23.6023 41.7556 24.383 42.0941 24.7276C42.2295 24.8424 42.3874 24.9113 42.5906 24.8884C42.9743 24.8424 43.4484 24.9573 43.9674 25.2328C41.6428 16.414 33.721 10.0985 24.6028 9.7999C24.2417 10.4429 23.7904 10.8334 23.2261 10.9941C22.03 11.3156 20.8337 11.0171 19.9987 10.1674C15.372 11.04 11.1515 13.5203 8.08211 17.1489C9.21057 17.0111 10.2036 17.2408 11.0613 17.7919L11.3321 17.9527L11.0161 17.9757C10.9484 17.9757 9.2557 18.1594 9.32342 19.4913C9.34598 19.7211 9.39113 19.8819 9.50396 19.9737C9.66196 20.1115 9.95535 20.1115 10.2713 20.0885C10.7678 20.0656 11.3998 20.0197 11.8061 20.6167C11.9866 20.8923 12.2349 21.03 12.4831 20.9841C12.754 20.9382 13.0022 20.6856 13.0925 20.3871C13.1376 20.2263 13.1602 19.8819 12.8442 19.6061C12.3026 19.1239 12.3928 18.5728 12.6411 18.2513C12.9119 17.8838 13.4762 17.6771 13.9727 17.9986C14.8303 18.5728 15.0335 19.675 14.4918 20.8693C14.4241 21.053 14.4015 21.1908 14.4467 21.3058C14.5369 21.5124 14.8303 21.6502 15.1689 21.788C15.6203 21.9717 16.1168 22.2013 16.3425 22.6835C16.6585 23.3726 16.5456 24.0615 16.4328 24.4519L17.6064 23.5563C18.0352 23.2348 18.6221 23.2808 18.9832 23.6711L19.4797 24.1763L19.2991 24.2223C19.2991 24.2223 18.4866 24.4289 18.4414 25.0261C18.4189 25.2558 18.6445 25.3247 19.0056 25.4624C19.4119 25.6002 19.9084 25.7839 19.931 26.3352C19.9536 26.7486 20.2471 26.9323 20.5178 26.9323C20.8111 26.9323 21.1723 26.7485 21.24 26.1285C21.3528 25.118 21.8043 24.7965 22.03 24.6817C21.9623 24.406 21.6913 23.6252 20.721 23.6023C20.3373 23.6023 20.0665 23.4645 19.886 23.2348C19.6376 22.9134 19.7054 22.4539 19.7278 22.2702C19.5698 22.2243 19.2765 22.0865 19.1186 21.811C18.9832 21.5584 18.9606 21.2597 19.096 20.8923C19.2087 20.5708 19.0508 20.2034 18.8928 19.836C18.7123 19.4224 18.5317 19.0091 18.7348 18.5958C18.8928 18.2283 19.3217 17.9297 20.0213 17.7001C21.24 17.2637 21.6011 16.8044 21.6913 16.4829C21.7817 16.1843 21.6463 15.9777 21.6011 15.8858L20.0439 15.4495L20.405 15.3576C20.4276 15.3576 22.2106 14.8523 22.233 13.773C22.233 13.75 22.233 13.75 22.233 13.727C22.2556 13.061 22.865 12.5788 23.4519 12.5098C24.0386 12.441 24.7384 12.7395 24.9865 13.773C25.3024 15.1509 24.8511 15.8628 24.5352 16.1843C24.8286 16.2073 25.2574 16.2762 25.5056 16.5059C25.6411 16.6437 25.7087 16.8044 25.7087 17.0111C25.6861 17.769 24.8286 18.2513 24.5578 18.3661C24.5802 18.6876 24.5802 19.9967 23.858 20.1345C23.6098 20.1804 23.4293 20.1345 23.2939 20.0197C23.1134 19.8589 23.0908 19.5832 23.0908 19.4224C22.865 19.4224 22.4813 19.4684 22.3234 19.675C22.233 19.79 22.233 19.9508 22.3008 20.1345C22.5941 21.0071 22.346 22.5917 22.2782 22.9593C22.5491 23.12 23.4969 23.8089 23.2939 24.8654C23.2713 24.9573 23.2487 25.0721 23.2261 25.1639C23.023 26.2204 22.8198 27.2078 24.0837 27.828C25.4154 28.4939 25.5056 29.6193 25.5056 29.8719L26.9952 31.5254L26.9726 31.5943C26.9726 31.5943 26.7469 32.0536 26.8824 32.398C26.9274 32.5589 27.0404 32.6508 27.221 32.7426C27.4691 32.8574 27.6497 32.7656 27.9206 32.6278C28.3493 32.421 28.9136 32.1224 30.2 32.6048C32.2539 33.3626 32.7956 33.0411 33.0437 32.7197L33.0889 32.6508L33.1567 32.6737C33.2243 32.6967 34.6913 33.133 35.3684 31.2498V31.2269L35.391 31.2039C35.4361 31.158 36.7226 30.1474 35.91 28.3791L35.8876 28.3102L35.9326 28.2643C35.9778 28.2184 36.8128 27.2537 36.2487 26.1054C35.9326 25.4624 35.9552 24.7506 36.2937 24.1763C36.4969 23.8319 36.7904 23.6252 37.0837 23.5563C37.0611 23.3497 37.0386 22.8673 37.2869 22.5917C37.4449 22.408 37.6706 22.3391 37.9413 22.3391C38.2573 22.3621 38.483 22.4539 38.641 22.6606C38.7989 22.8673 38.8441 23.143 38.8441 23.3267C39.3182 22.9363 40.4917 22.1784 41.8008 23.0052L41.8458 23.0282V23.0971C41.733 23.1889 41.733 23.2348 41.733 23.3037Z" fill="#10B501"/>
<path id="Vector_8" d="M34.0814 43.123C34.2846 45.3507 31.0798 45.9937 31.0798 45.9937C31.0798 45.9937 30.8992 47.5324 29.2066 47.3257C27.4912 47.1191 26.4305 48.497 26.4305 48.497C26.4305 48.497 23.5416 48.3822 22.9322 49.2548C22.3003 50.1276 20.9236 50.0357 20.9236 50.0357C20.9236 50.0357 19.5694 49.737 20.6301 50.4261C21.0816 50.7246 21.1944 51.0002 21.1944 51.2298C21.9844 51.3446 22.7742 51.3906 23.5868 51.4135C27.8975 51.4826 31.9374 50.2424 35.3003 48.0606C35.0972 47.5324 35.4357 46.8206 36.4738 46.3611C38.5503 45.3967 37.7603 44.2713 37.7603 44.2713C37.7603 44.2713 36.2031 44.1794 36.6092 43.1459C37.0155 42.1126 36.4512 42.0437 36.4512 42.0437C35.8194 43.3756 34.0814 43.123 34.0814 43.123Z" fill="#10B501"/>
<path id="Vector_9" d="M37.9866 44.7991C37.9866 44.8909 37.964 44.9828 37.9414 45.0747C37.8061 45.6028 37.3096 46.0622 36.4746 46.4297C35.4588 46.8889 35.1881 47.555 35.3686 47.9913L35.3912 48.0832L35.3235 48.1291C31.8251 50.4026 27.7401 51.5739 23.5422 51.505C22.7523 51.4821 21.9398 51.4361 21.1273 51.3213L21.037 51.2984V51.2065C21.037 50.9539 20.879 50.7243 20.5179 50.4945C20.1342 50.2419 20.0214 50.1041 20.0892 49.9663C20.1118 49.9204 20.1794 49.7597 20.9016 49.9204C20.9016 49.9204 22.2107 49.9893 22.7975 49.1856C23.4068 48.3358 25.9346 48.3587 26.3409 48.3817C26.544 48.1291 27.5822 47.0267 29.162 47.2104C29.6585 47.2793 30.0873 47.1874 30.3807 46.9348C30.8322 46.5674 30.9223 45.9934 30.9223 45.9704V45.9015L30.9901 45.8785C31.0127 45.8785 34.1273 45.2124 33.9242 43.1226L33.9016 42.9848L34.037 43.0078C34.0596 43.0078 35.7072 43.2145 36.2714 41.9743L36.294 41.9054L36.3842 41.9284C36.452 41.9284 36.6099 41.9972 36.7001 42.158C36.8357 42.3876 36.8131 42.7322 36.6325 43.1915C36.5422 43.3982 36.5422 43.5819 36.6325 43.7197C36.8357 44.0411 37.4675 44.1559 37.6933 44.1789H37.7385L37.7609 44.2248C37.8286 44.2019 37.9866 44.4547 37.9866 44.7991ZM35.0977 47.7158C35.0977 47.2563 35.4362 46.6822 36.3842 46.246C37.1516 45.9015 37.6029 45.465 37.7159 45.0287C37.8061 44.7072 37.6933 44.4547 37.6481 44.3628C37.4449 44.3398 36.7453 44.248 36.4746 43.8115C36.339 43.6048 36.339 43.3522 36.452 43.0767C36.6325 42.5943 36.6099 42.3647 36.5422 42.2498C36.5196 42.2039 36.4746 42.158 36.452 42.158C35.9103 43.2604 34.6012 43.2604 34.1723 43.2374C34.2401 45.2354 31.6222 45.9704 31.1481 46.0852C31.1029 46.2689 30.9901 46.7741 30.5388 47.1185C30.1777 47.3941 29.7262 47.5091 29.162 47.4402C27.537 47.2334 26.4988 48.5424 26.4988 48.5654L26.4536 48.6113H26.4086C26.3861 48.6113 23.5648 48.4965 23.0005 49.3234C22.3461 50.2419 20.9468 50.15 20.9016 50.15C20.6759 50.1041 20.4503 50.0811 20.3373 50.0811C20.3825 50.1271 20.4729 50.196 20.6759 50.3337C21.037 50.5863 21.2401 50.8391 21.2853 51.1376C22.0527 51.2295 22.8199 51.2984 23.5873 51.2984C27.7175 51.3672 31.7123 50.2419 35.1655 48.0143C35.1203 47.9224 35.0977 47.8306 35.0977 47.7158Z" fill="#10B501"/>
<path id="Vector_10" d="M3.07183 30.423C3.0267 37.5883 6.61522 43.9728 12.1447 47.7391C12.077 47.6702 11.2194 46.5678 13.5891 47.165C13.5891 47.165 13.2506 46.0167 11.9867 45.1439C10.7229 44.2713 10.1586 43.2608 10.926 42.9852C10.926 42.9852 9.7298 42.457 10.2715 41.5383L11.0162 41.5613C11.0162 41.5613 11.6031 40.7117 10.6777 39.9767C10.6777 39.9767 10.136 40.7117 9.50411 40.2752C8.87217 39.8389 8.78189 38.3232 9.88778 38.2772C10.9937 38.2313 11.0162 39.0122 11.0162 39.0122C11.0162 39.0122 11.9867 38.5758 11.1968 37.2667C10.4069 35.9578 9.07528 36.9452 9.07528 36.9452C9.07528 36.9452 7.63085 37.1059 7.11176 35.5213L6.88605 36.0496C6.81835 36.2333 6.54752 36.2333 6.45724 36.0496C6.32181 35.7511 6.07355 35.4295 5.73502 35.4754C5.0805 35.5672 5.46418 36.5319 6.29926 37.4965C7.13431 38.438 6.43467 39.4715 6.43467 39.4715C6.43467 39.4715 6.34439 38.6217 5.21592 37.8409C4.06489 37.06 3.99718 34.7176 5.26105 35.0161L4.89994 34.0974C4.85481 33.9596 5.0128 33.8448 5.12565 33.9367L6.05098 34.7406C6.05098 34.7406 6.95376 34.3272 5.57704 33.0182C4.2003 31.7091 4.24544 30.8822 4.426 30.5378C4.426 30.5378 3.88433 30.5378 3.74891 31.6632C3.72635 32.2602 3.38781 31.4106 3.07183 30.423Z" fill="#10B501"/>
<path id="Vector_11" d="M13.7266 47.3258L13.546 47.2798C12.3499 46.9813 12.1016 47.1421 12.0565 47.2339C11.9888 47.3487 12.1242 47.5785 12.2144 47.6934L12.6884 48.2674L12.079 47.8311C6.32385 43.9039 2.91587 37.4047 2.96101 30.4232V29.78L3.16414 30.4002C3.43498 31.2728 3.59296 31.5715 3.68324 31.7093V31.6863C3.81864 30.4691 4.45059 30.4691 4.47316 30.4691H4.63114L4.56344 30.6298C4.47316 30.8365 4.24746 31.6174 5.6919 32.9954C6.2787 33.5465 6.54953 34.0287 6.48183 34.4191C6.4367 34.7408 6.14329 34.8785 6.14329 34.8785L6.07559 34.9015L5.10511 34.0517C5.08253 34.0287 5.05996 34.0517 5.05996 34.0517C5.05996 34.0517 5.0374 34.0747 5.0374 34.0976L5.46622 35.223L5.26309 35.1771C4.92455 35.1082 4.69885 35.2 4.56344 35.4985C4.29261 36.1185 4.56344 37.3128 5.30822 37.795C6.07559 38.3234 6.39155 38.8745 6.5044 39.2189C6.63981 38.8745 6.79781 38.2315 6.25614 37.6113C5.71448 36.9913 5.19538 36.1874 5.37594 35.7052C5.42107 35.5904 5.51135 35.4526 5.75961 35.4067C5.98531 35.3837 6.32385 35.4526 6.59468 36.0497C6.61725 36.1185 6.68496 36.1185 6.70753 36.1185C6.73009 36.1185 6.79781 36.1185 6.82037 36.0497L7.15892 35.246L7.2492 35.5215C7.70057 36.8995 8.87418 36.8995 9.05474 36.8765C9.19016 36.7847 9.75438 36.4173 10.3638 36.555C10.7474 36.6239 11.0408 36.8535 11.2891 37.2669C11.5825 37.7491 11.6953 38.1856 11.5825 38.553C11.4471 38.9893 11.086 39.15 11.086 39.15L10.928 39.2189V39.0582C10.928 39.0582 10.9054 38.8285 10.7249 38.6448C10.5443 38.4841 10.2735 38.4152 9.91237 38.4152C9.43842 38.4382 9.28044 38.7367 9.21272 38.9663C9.07731 39.4026 9.25787 39.9769 9.5964 40.2065C10.1381 40.5739 10.612 39.9539 10.6346 39.931L10.7023 39.8391L10.7926 39.908C11.7631 40.6887 11.1537 41.6304 11.1311 41.6304L11.1086 41.6763L10.3638 41.6534C10.2509 41.8371 10.2283 42.0437 10.2961 42.2045C10.4315 42.641 10.9957 42.8706 10.9957 42.8935L11.244 43.0084L10.9957 43.1002C10.8377 43.1691 10.7474 43.261 10.7249 43.3987C10.6797 43.7432 11.086 44.3863 12.079 45.0752C13.3655 45.971 13.704 47.1191 13.7266 47.165V47.3258ZM11.8308 47.3028C11.8308 47.2339 11.8533 47.188 11.8759 47.1191C12.0339 46.8665 12.5304 46.8435 13.4106 47.0273C13.2526 46.6828 12.8464 45.8791 11.9211 45.236C10.9731 44.57 10.4089 43.835 10.4766 43.3528C10.4992 43.238 10.5443 43.1002 10.7023 42.9854C10.4992 42.8706 10.1832 42.6178 10.0704 42.2734C9.98009 42.0208 10.0252 41.7452 10.1832 41.4926L10.2058 41.4467L10.9506 41.4697C11.0408 41.3089 11.3117 40.7117 10.7023 40.1606C10.454 40.4361 9.95751 40.7576 9.43842 40.3902C9.03216 40.1147 8.82905 39.4487 8.98703 38.8974C9.09988 38.4611 9.43842 38.2085 9.88981 38.1856C10.3186 38.1626 10.6346 38.2545 10.8603 38.4611C10.9957 38.5989 11.0634 38.7367 11.1086 38.8515C11.1988 38.7826 11.3117 38.6448 11.3794 38.4611C11.4697 38.1626 11.3794 37.7721 11.1086 37.3358C10.9054 36.9913 10.6346 36.7847 10.3186 36.7387C9.73181 36.6239 9.14501 37.0373 9.14501 37.0602L9.12244 37.0832H9.09988C9.07731 37.0832 7.72314 37.221 7.13635 35.843L7.0235 36.1185C6.97837 36.2335 6.86551 36.3254 6.73009 36.3254C6.59468 36.3254 6.48183 36.2565 6.41413 36.1415C6.30127 35.8889 6.09816 35.5904 5.80475 35.6363C5.64677 35.6593 5.60163 35.7282 5.57905 35.7971C5.46622 36.0956 5.82733 36.7847 6.4367 37.4735C7.3169 38.4611 6.59468 39.5635 6.59468 39.5635L6.4367 39.8161L6.41413 39.5176C6.41413 39.5176 6.32385 38.7137 5.24051 37.956C4.40546 37.3817 4.11205 36.0956 4.42801 35.3837C4.56344 35.0623 4.83427 34.8785 5.17281 34.9015L4.83427 34.1435C4.78913 34.0287 4.83427 33.9139 4.92455 33.845C5.01483 33.7761 5.15024 33.7761 5.24051 33.868L6.09816 34.626C6.16587 34.5798 6.23357 34.488 6.25614 34.3502C6.30127 34.1435 6.18842 33.7532 5.53392 33.1102C4.31518 31.9389 4.20233 31.158 4.29261 30.7447C4.15718 30.8595 3.95407 31.0891 3.88637 31.7093C3.88637 31.7782 3.86379 31.9848 3.70581 31.9848C3.61553 31.9848 3.50268 32.0078 3.16414 31.1121C3.3447 37.6113 6.52698 43.6513 11.8082 47.4406C11.8308 47.3717 11.8308 47.3487 11.8308 47.3028Z" fill="#10B501"/>
<path id="Vector_12" d="M4.6521 29.0907C4.6521 29.0907 5.80314 29.9405 6.59306 31.9155C7.38299 33.8905 8.96284 33.2016 9.00799 31.9615C9.00799 31.9615 7.85695 32.3978 7.72153 30.262C7.58612 28.1263 6.38993 26.3807 6.38993 26.3807L5.17119 26.1052C5.17119 26.1052 5.32917 27.8505 4.6521 29.0907Z" fill="#10B501"/>
<path id="Vector_13" d="M9.14358 31.8013V31.962C9.121 32.605 8.69219 33.1563 8.12795 33.2481C7.49602 33.363 6.88663 32.8805 6.52554 31.962C5.75817 30.033 4.62971 29.2061 4.60713 29.1831L4.53943 29.1372L4.58456 29.0454C5.19395 27.8511 5.05852 26.1287 5.05852 26.1057L5.03595 25.968L6.45782 26.2894L6.48039 26.3354C6.52554 26.3354 7.69913 28.1037 7.85713 30.2396C7.90226 31.0204 8.10539 31.5717 8.44393 31.7783C8.71476 31.962 8.9856 31.8472 9.00817 31.8472L9.14358 31.8013ZM4.78769 29.0683C5.05852 29.298 6.00643 30.1478 6.7061 31.8702C7.02206 32.6968 7.54115 33.1333 8.08282 33.0413C8.51163 32.9724 8.82761 32.582 8.91789 32.0998C8.78247 32.1228 8.55678 32.1228 8.33108 31.962C7.92484 31.7094 7.69913 31.1352 7.654 30.2626C7.51858 28.3335 6.5481 26.7259 6.36754 26.4731L5.30678 26.2435C5.30678 26.6798 5.32935 28.0118 4.78769 29.0683Z" fill="#10B501"/>
<path id="Vector_14" d="M3.09351 28.7237C3.63517 28.4482 4.15427 27.92 4.35739 26.8406C4.78621 24.4293 6.09523 24.9115 6.09523 24.9115L5.93725 23.6254L5.12475 23.1891C5.12475 23.1891 5.53099 22.0867 5.37301 20.9613C4.13169 23.3269 3.34177 25.945 3.09351 28.7237Z" fill="#10B501"/>
<path id="Vector_15" d="M6.23106 25.0726L6.07308 25.0037C6.0505 25.0037 5.73452 24.8889 5.37343 25.0956C4.9446 25.3482 4.62863 25.9454 4.47065 26.8639C4.2901 27.8056 3.86128 28.4715 3.16163 28.8161L2.98108 28.908L3.00363 28.7243C3.25191 25.9684 4.01926 23.3502 5.30571 20.916L5.46371 20.6172L5.50884 20.9389C5.64425 21.9034 5.37343 22.845 5.28315 23.1206L6.07308 23.5569L6.23106 25.0726ZM3.22934 28.5404C3.771 28.196 4.10954 27.6219 4.26752 26.841C4.44808 25.8535 4.78662 25.2104 5.28315 24.9348C5.57654 24.7741 5.8248 24.7741 6.00536 24.7971L5.86995 23.7176L5.03488 23.2584L5.05745 23.1665C5.05745 23.1665 5.37343 22.3169 5.32828 21.3522C4.17725 23.6028 3.4776 26.0143 3.22934 28.5404Z" fill="#10B501"/>
<path id="Vector_16" d="M12.5288 24.3139C12.5739 24.6354 12.8899 24.8191 13.1833 24.7042C13.3639 24.6354 13.567 24.5205 13.8378 24.3598C14.7632 23.7857 15.4402 24.9109 15.4402 24.9109C15.4402 24.9109 16.0722 22.9359 14.7857 22.6374C13.6347 22.3848 13.7927 23.4411 12.8448 23.7628C12.6191 23.8317 12.4837 24.0383 12.5062 24.268L12.5288 24.3139Z" fill="#10B501"/>
<path id="Vector_17" d="M15.7101 23.9235C15.7101 24.4289 15.5521 24.8882 15.5521 24.9111L15.4844 25.1408L15.349 24.9571C15.349 24.9571 15.033 24.4289 14.5591 24.3141C14.3334 24.2682 14.1303 24.3141 13.9046 24.4289C13.6563 24.5896 13.4306 24.7045 13.2275 24.7963C13.0695 24.8652 12.8664 24.8652 12.7084 24.7733C12.5504 24.6815 12.4376 24.5208 12.415 24.337V24.2911C12.3699 24.0154 12.5504 23.7628 12.8213 23.6709C13.1824 23.5561 13.3629 23.3035 13.5435 23.0739C13.8143 22.7295 14.0626 22.3848 14.8073 22.5458C15.1233 22.6146 15.3716 22.7983 15.507 23.0509C15.6875 23.3035 15.7101 23.625 15.7101 23.9235ZM15.3942 24.6585C15.4844 24.3141 15.5973 23.6021 15.3264 23.1428C15.2136 22.9361 15.0105 22.7983 14.7622 22.7295C14.1528 22.5917 13.9723 22.8443 13.7015 23.1658C13.5209 23.4183 13.2952 23.6939 12.889 23.8317C12.7084 23.9006 12.5955 24.0615 12.6181 24.2222V24.2682C12.6407 24.383 12.7084 24.4978 12.7987 24.5437C12.889 24.6126 13.0244 24.6126 13.1372 24.5667C13.3403 24.4748 13.5435 24.36 13.7917 24.2222C14.0626 24.0615 14.3334 24.0154 14.6042 24.0615C14.9653 24.1993 15.2587 24.4519 15.3942 24.6585Z" fill="#10B501"/>
<path id="Vector_18" d="M7.65356 26.8637C7.72127 27.6676 8.94001 27.5528 8.89488 26.7489V26.7259C8.8046 25.7615 7.85669 25.8533 7.69871 26.5193C7.65356 26.6341 7.65356 26.7489 7.65356 26.8637Z" fill="#10B501"/>
<path id="Vector_19" d="M9.00643 26.818C9.00643 27.2313 8.66789 27.4839 8.32936 27.5069C7.96824 27.5298 7.58456 27.3232 7.53943 26.8639C7.53943 26.7491 7.53943 26.6113 7.562 26.4965C7.65228 26.1291 7.96824 25.8763 8.30678 25.8993C8.60019 25.9222 8.91615 26.1521 8.98387 26.7032V26.7261C9.00643 26.7721 9.00643 26.795 9.00643 26.818ZM7.76511 26.8409C7.78769 27.1854 8.05852 27.3002 8.30678 27.2772C8.55504 27.2543 8.80332 27.0706 8.78074 26.7491V26.7261C8.7356 26.3587 8.57761 26.1291 8.30678 26.1061C8.10367 26.0832 7.85539 26.2439 7.78769 26.5424C7.76511 26.6572 7.76511 26.7491 7.76511 26.8409Z" fill="#10B501"/>
<path id="Vector_20" d="M17.2231 48.9791C17.2231 48.9791 17.6293 48.1984 16.1623 48.2213C15.3047 48.2213 14.7856 48.6806 13.9054 48.8643C14.1311 48.9791 14.3342 49.0939 14.5599 49.2087C14.5825 49.2087 16.2075 48.5658 17.2231 48.9791Z" fill="#10B501"/>
<path id="Vector_21" d="M17.4031 48.7726C17.4031 48.9104 17.3354 49.0252 17.3354 49.0482L17.2903 49.14L17.2 49.0941C16.2295 48.7037 14.6948 49.2778 14.6271 49.3237L14.582 49.3467L14.5368 49.3237C14.3111 49.2089 14.0854 49.0941 13.8823 48.9793L13.634 48.8415L13.9049 48.7726C14.2434 48.7037 14.5368 48.5889 14.8302 48.4741C15.259 48.2904 15.6653 48.1295 16.1844 48.1295C16.7938 48.1295 17.1774 48.2674 17.3354 48.52C17.3806 48.5889 17.4031 48.6808 17.4031 48.7726ZM17.1774 48.8415C17.2 48.7726 17.2 48.6808 17.1548 48.5889C17.0871 48.4511 16.8389 48.3133 16.1844 48.3133C15.6878 48.3133 15.3042 48.4741 14.8979 48.6348C14.6948 48.7267 14.4691 48.8185 14.2208 48.8874C14.3337 48.9563 14.4691 49.0252 14.582 49.0711C14.8528 49.0022 16.2069 48.543 17.1774 48.8415Z" fill="#10B501"/>
<path id="Vector_22" d="M18.2832 47.7161C18.5993 47.7161 18.8474 47.8769 18.8474 48.0606C18.8474 48.2443 18.5767 48.3821 18.2607 48.3821C17.9447 48.3821 17.6964 48.2213 17.6964 48.0376C17.719 47.8539 17.9672 47.7161 18.2832 47.7161Z" fill="#10B501"/>
<path id="Vector_23" d="M18.9604 48.0604C18.9604 48.313 18.6445 48.4967 18.2608 48.4967C17.8771 48.4967 17.5837 48.29 17.5837 48.0374C17.5837 47.7848 17.8997 47.601 18.2834 47.601C18.6671 47.6239 18.9604 47.8078 18.9604 48.0604ZM17.8094 48.0374C17.8094 48.1522 18.0126 48.2671 18.2834 48.2671C18.5543 48.2671 18.7574 48.1522 18.7574 48.0374C18.7574 47.9226 18.5543 47.8078 18.2834 47.8078C18.0126 47.8308 17.8094 47.9456 17.8094 48.0374Z" fill="#10B501"/>
<path id="Vector_24" d="M14.2206 25.1406C14.514 25.1406 14.7623 25.3702 14.7623 25.6228C14.7623 25.8983 14.514 26.105 14.198 26.105C13.9046 26.105 13.6564 25.8754 13.6564 25.6228C13.6564 25.3472 13.9046 25.1406 14.2206 25.1406Z" fill="#10B501"/>
<path id="Vector_25" d="M14.8746 25.6463C14.8746 25.9678 14.5812 26.2204 14.2201 26.2204C13.859 26.2204 13.5656 25.9448 13.5656 25.6233C13.5656 25.3018 13.859 25.0493 14.2201 25.0493C14.5812 25.0493 14.8746 25.3248 14.8746 25.6463ZM13.7687 25.6233C13.7687 25.83 13.9492 25.9907 14.1975 26.0137C14.4458 26.0137 14.6489 25.853 14.6489 25.6463C14.6489 25.4396 14.4683 25.2789 14.2201 25.2559C13.9718 25.2559 13.7687 25.4167 13.7687 25.6233Z" fill="#10B501"/>
<path id="Vector_26" d="M30.1764 33.7303C30.4698 33.7303 30.7181 33.937 30.7181 34.1896C30.7181 34.4422 30.4698 34.6491 30.1538 34.6261C29.8605 34.6261 29.6122 34.4192 29.6122 34.1666C29.6348 33.937 29.8831 33.7303 30.1764 33.7303Z" fill="#10B501"/>
<path id="Vector_27" d="M30.8309 34.2124C30.8309 34.5339 30.5374 34.7635 30.1763 34.7635C29.8152 34.7635 29.5219 34.5109 29.5219 34.1894C29.5219 33.8679 29.8152 33.6381 30.1763 33.6381C30.56 33.6381 30.8309 33.8909 30.8309 34.2124ZM29.7476 34.1894C29.7476 34.3731 29.9281 34.5339 30.1763 34.5568C30.4246 34.5568 30.6278 34.419 30.6278 34.2124C30.6278 34.0287 30.4472 33.8679 30.1989 33.845C29.9507 33.845 29.7476 33.9828 29.7476 34.1894Z" fill="#10B501"/>
<path id="Vector_28" d="M29.0478 34.4646C29.2509 34.4646 29.4089 34.6483 29.4089 34.8552C29.4089 35.0618 29.2509 35.2455 29.0478 35.2455C28.8446 35.2455 28.6866 35.0618 28.6866 34.8552C28.6866 34.6253 28.8672 34.4646 29.0478 34.4646Z" fill="#10B501"/>
<path id="Vector_29" d="M29.5231 34.8555C29.5231 35.1313 29.2974 35.3379 29.0492 35.3379C28.8009 35.3379 28.5752 35.1083 28.5978 34.8326C28.5978 34.557 28.8235 34.3503 29.0718 34.3503C29.32 34.3733 29.5231 34.58 29.5231 34.8555ZM28.8009 34.8555C28.8009 35.0165 28.9139 35.1313 29.0492 35.1313C29.1846 35.1313 29.2974 35.0165 29.2974 34.8555C29.2974 34.6948 29.1846 34.58 29.0492 34.58C28.9139 34.58 28.8009 34.6948 28.8009 34.8555Z" fill="#10B501"/>
<path id="Vector_30" d="M21.7808 18.7343C22.0969 18.6652 22.458 18.4356 22.4806 17.7926C22.2323 17.5859 21.8486 17.6318 21.6906 17.9304C21.5552 18.1371 21.3747 18.3208 21.1263 18.3208L21.1941 18.4586C21.2843 18.6652 21.5326 18.8032 21.7808 18.7343Z" fill="#10B501"/>
<path id="Vector_31" d="M22.5723 17.7461V17.792C22.5497 18.5498 22.0758 18.7795 21.8049 18.8484C21.5115 18.9174 21.2182 18.7565 21.0826 18.481L20.9473 18.1825L21.1278 18.2054C21.2858 18.2054 21.4437 18.1135 21.5793 17.8609C21.6695 17.7002 21.8275 17.5853 22.008 17.5624C22.1886 17.5394 22.3917 17.5853 22.5271 17.7002L22.5723 17.7461ZM21.7599 18.6417C22.1436 18.5498 22.3465 18.2973 22.3691 17.838C22.2789 17.7691 22.166 17.7461 22.0758 17.7691C21.963 17.792 21.85 17.8609 21.7825 17.9528C21.6243 18.2284 21.4437 18.3432 21.2858 18.3662C21.3536 18.5728 21.5567 18.6876 21.7599 18.6417Z" fill="#10B501"/>
<path id="Vector_32" d="M12.144 39.8848C12.46 39.8159 12.8211 39.5863 12.8437 38.9432C12.5954 38.7365 12.2117 38.7824 12.0537 39.0809C11.9183 39.2878 11.7378 39.4715 11.4895 39.4715L11.5572 39.6093C11.6475 39.793 11.8957 39.9308 12.144 39.8848Z" fill="#10B501"/>
<path id="Vector_33" d="M12.9336 38.8746V38.9205C12.911 39.6783 12.4371 39.9079 12.1662 39.9768C11.8728 40.0457 11.5794 39.885 11.444 39.6094L11.3086 39.3109L11.4891 39.3339C11.6471 39.3339 11.8051 39.242 11.9405 39.0124C12.0308 38.8517 12.1888 38.7366 12.3694 38.7137C12.5499 38.6907 12.753 38.7366 12.8884 38.8516L12.9336 38.8746ZM12.1211 39.7702C12.5048 39.6783 12.7079 39.4257 12.7305 38.9665C12.6402 38.8976 12.5273 38.8746 12.4371 38.8976C12.3242 38.9205 12.2114 38.9894 12.1437 39.0813C11.9857 39.3568 11.8051 39.4716 11.6471 39.4946C11.7148 39.7242 11.918 39.8161 12.1211 39.7702Z" fill="#10B501"/>
<path id="Vector_34" d="M41.9125 26.8402C41.7998 26.932 41.8674 27.1157 42.0029 27.1157C42.409 27.1387 43.0185 27.2765 43.4924 27.8046C44.034 28.4248 43.6955 28.8381 43.4699 28.9989C43.4022 29.0678 43.3796 29.1596 43.4474 29.2285C44.2824 30.0783 44.6209 32.237 44.6435 32.3289C44.6887 31.8466 44.7112 31.3642 44.7112 30.882C44.7337 29.527 44.6209 28.2179 44.4177 26.932C43.3796 25.9215 42.3866 26.4496 41.9125 26.8402Z" fill="#10B501"/>
<path id="Vector_35" d="M44.8467 30.9283C44.8467 31.3876 44.8017 31.893 44.7791 32.3752L44.7113 33.2478L44.576 32.3981C44.5534 32.3063 44.2149 30.1704 43.4023 29.3437C43.3573 29.2978 43.3121 29.2059 43.3347 29.137C43.3347 29.0681 43.3799 28.9993 43.4249 28.9533C43.5378 28.8615 43.6958 28.7007 43.6958 28.5168C43.7184 28.3331 43.628 28.1265 43.4249 27.9198C42.9736 27.4376 42.4093 27.2998 42.003 27.2768C41.8902 27.2768 41.7999 27.208 41.7549 27.0931C41.7323 26.9781 41.7549 26.8863 41.845 26.8174C42.2513 26.473 43.3573 25.807 44.5082 26.9552L44.5308 26.9781V27.0011C44.7565 28.2643 44.8693 29.5963 44.8467 30.9283ZM44.5986 31.5713C44.5986 31.3417 44.6212 31.135 44.6212 30.9283C44.6437 29.6193 44.5534 28.3331 44.3276 27.047C43.3347 26.1056 42.4319 26.5648 41.9804 26.9552C41.9578 26.9781 41.9578 27.0011 41.9578 27.0011C41.9578 27.0011 41.9804 27.0241 42.003 27.047C42.4545 27.0702 43.0863 27.2309 43.5828 27.7591C43.8086 28.0117 43.9215 28.2872 43.8989 28.5168C43.8763 28.7926 43.6958 28.9993 43.5378 29.1141C43.5152 29.137 43.5152 29.137 43.5152 29.16C43.5152 29.16 43.5152 29.183 43.5378 29.2059C44.0795 29.7341 44.418 30.8135 44.5986 31.5713Z" fill="#10B501"/>
<path id="Vector_36" d="M6.41125 19.2155C6.90777 18.848 7.49459 18.5724 8.08138 18.6413C8.19424 18.6642 8.23937 18.5265 8.17166 18.4576C8.01368 18.2739 7.72027 18.0442 7.33659 17.9064C6.99805 18.3198 6.70466 18.7561 6.41125 19.2155Z" fill="#10B501"/>
<path id="Vector_37" d="M8.30745 18.527C8.30745 18.55 8.30745 18.5959 8.28487 18.6189C8.23974 18.7108 8.14946 18.7567 8.05919 18.7337C7.58522 18.6648 7.06613 18.8485 6.47933 19.2848L6.00537 19.6293L6.32135 19.147C6.61474 18.6878 6.93072 18.2514 7.24669 17.838L7.29183 17.7691L7.35954 17.7921C7.78835 17.9528 8.05919 18.1825 8.23974 18.3662C8.28487 18.4121 8.30745 18.481 8.30745 18.527ZM6.7953 18.8256C7.26926 18.573 7.69807 18.4581 8.10432 18.527C7.96891 18.3662 7.72065 18.1595 7.38211 18.0217C7.15641 18.2973 6.97585 18.573 6.7953 18.8256Z" fill="#10B501"/>
<path id="Vector_38" d="M23.1136 48.1294C23.1136 48.1294 24.4227 47.6931 25.5061 47.8539C25.5061 47.8539 25.2803 46.8433 23.9262 47.0731C23.9262 47.0731 24.197 47.5553 23.1136 48.1294Z" fill="#10B501"/>
<path id="Vector_39" d="M25.6411 47.992L25.4831 47.9691C24.445 47.8083 23.1585 48.2446 23.1359 48.2446L23.0455 48.0379C23.9935 47.5098 23.8129 47.1424 23.8129 47.1194L23.7452 46.9815L23.8807 46.9585C25.3252 46.7289 25.5959 47.8083 25.5959 47.8083L25.6411 47.992ZM23.7002 47.8772C24.1515 47.7854 24.7609 47.6935 25.3476 47.7394C25.2348 47.5098 24.8963 47.0735 24.0613 47.1883C24.0613 47.2342 24.0613 47.3261 24.0387 47.395C23.9935 47.5557 23.8807 47.7165 23.7002 47.8772Z" fill="#10B501"/>
<path id="Vector_40" d="M19.6602 13.7496C19.6602 13.7496 20.45 14.117 20.0439 14.7371C19.6376 15.3342 18.3962 15.0816 17.6063 14.5534C17.6063 14.5534 18.7122 14.14 18.0351 13.3132C17.3581 12.4865 19.8181 12.3027 19.6602 13.7496Z" fill="#4ECDF9"/>
<path id="Vector_41" d="M20.2698 14.3928C20.2698 14.5306 20.2248 14.6454 20.1344 14.7832C19.6605 15.4722 18.3289 15.1277 17.5615 14.6224L17.381 14.5076L17.5841 14.4387C17.5841 14.4387 18.0581 14.255 18.1484 13.9335C18.1935 13.7727 18.1258 13.566 17.9678 13.3823C17.7421 13.1067 17.8324 12.923 17.9001 12.8311C18.1032 12.5555 18.6448 12.4866 19.1189 12.6703C19.5702 12.8541 19.8185 13.2215 19.7959 13.7038C19.9313 13.7727 20.2022 13.9564 20.2698 14.255C20.2472 14.3009 20.2698 14.3468 20.2698 14.3928ZM17.8324 14.5535C18.6224 14.9899 19.6154 15.1506 19.9539 14.6684C20.0442 14.5306 20.0666 14.4157 20.0442 14.2779C19.9765 14.0483 19.7055 13.8875 19.6154 13.8416L19.5476 13.8186V13.7497C19.6154 13.1986 19.2316 12.9689 19.0059 12.877C18.5998 12.7163 18.1709 12.8081 18.0355 12.9689C17.9904 13.0378 18.0129 13.1526 18.1032 13.2675C18.3063 13.5201 18.3966 13.7727 18.3289 14.0253C18.2612 14.2779 18.0129 14.4617 17.8324 14.5535Z" fill="#10B501"/>
<path id="Vector_42" d="M30.5829 10.7645C30.5604 10.7645 29.4544 11.4994 28.3485 11.3616C27.2652 11.2238 24.7376 11.155 26.7237 12.8085C26.7237 12.8085 29.7479 11.109 32.5239 11.5224C31.892 11.2468 31.26 10.9942 30.5829 10.7645Z" fill="#4ECDF9"/>
<path id="Vector_43" d="M33.2685 11.752L32.5239 11.6601C29.8156 11.2467 26.8137 12.9002 26.7911 12.9232L26.7235 12.9691L26.6783 12.9232C26.0465 12.395 25.7982 11.9816 25.9335 11.6831C26.2045 11.063 27.8745 11.2238 28.3937 11.2926C29.4319 11.4304 30.4926 10.7415 30.5378 10.7185L30.5828 10.6956L30.628 10.7185C31.2824 10.9482 31.937 11.2008 32.5915 11.4994L33.2685 11.752ZM26.7461 12.6936C27.1748 12.4639 29.522 11.2926 31.8919 11.3845C31.463 11.2008 31.0343 11.04 30.6054 10.9022C30.3796 11.04 29.3641 11.6142 28.3485 11.4994C27.378 11.3845 26.272 11.4075 26.1141 11.7749C26.0689 11.8668 26.0915 12.1424 26.7461 12.6936Z" fill="#10B501"/>
<path id="Vector_44" d="M7.99293 12.7909C7.99293 11.7612 8.73019 11.3459 9.62229 11.8619L21.4381 18.6817C21.9102 18.9882 22.303 19.4021 22.5842 19.8895C22.8657 20.3767 23.028 20.9237 23.0578 21.4858L23.0307 31.2274C23.0307 32.2571 22.2935 32.6724 21.4013 32.1539L9.59034 25.3367C9.11858 25.0302 8.7261 24.6163 8.44504 24.1289C8.16399 23.6415 8.00232 23.0945 7.97327 22.5326L7.99293 12.7909Z" fill="#333333" fill-opacity="0.2"/>
<path id="Vector_45" d="M1.52381 11.3483L1.44516 11.3139L1.41813 11.3016L1.34686 11.2746H1.32966L1.24856 11.2304H1.19941H1.17483L1.10111 11.2156H0.992974H0.860267H0.788996H0.75705L0.67595 11.2353L0.602224 11.2623H0.582563L0.521124 11.2918C0.514639 11.2931 0.50795 11.2931 0.501465 11.2918L6.32586 7.92004H6.33814L6.40942 7.88072L6.48314 7.85615L6.56423 7.83894H6.60601H6.67975H6.69449C6.72557 7.83648 6.75679 7.83648 6.78788 7.83894H6.80999C6.84599 7.83652 6.88212 7.83652 6.91812 7.83894H6.99184H7.01644H7.06312L7.1516 7.86596H7.16879L7.24253 7.89546H7.26218L7.33836 7.93233L7.36786 7.94707L7.47108 8.00113L1.64668 11.3852L1.54346 11.3311L1.52381 11.3483Z" fill="#FFCA00"/>
<path id="Vector_46" d="M15.0574 30.7826L20.8819 27.3961C20.8819 27.9098 20.7 28.2685 20.4074 28.4382L14.5831 31.8222C14.8731 31.655 15.055 31.2937 15.0574 30.7826Z" fill="#FF9C00"/>
<path id="Vector_47" d="M15.0845 21.0407L20.9089 17.6542L20.8818 27.3959L15.0575 30.7824L15.0845 21.0407Z" fill="#FFAE00"/>
<path id="Vector_48" d="M7.48076 8.03302L19.2893 14.8503L13.4649 18.2368L1.65637 11.4195L7.48076 8.03302Z" fill="#FFAE00"/>
<path id="Vector_49" d="M0.0196599 12.3459C0.0196599 11.3162 0.756924 10.9008 1.64902 11.4169L13.4649 18.2366C13.9369 18.5431 14.3296 18.957 14.6111 19.4444C14.8925 19.9317 15.0547 20.4787 15.0845 21.0407L15.0574 30.7824C15.0574 31.8122 14.3201 32.2274 13.4281 31.7089L1.61707 24.8917C1.14531 24.5852 0.752836 24.1713 0.471774 23.6839C0.190711 23.1965 0.0290425 22.6494 0 22.0876L0.0196599 12.3459Z" fill="#FF9C00"/>
<path id="Vector_50" d="M15.0771 20.8687C15.0771 20.8221 15.0771 20.7754 15.0649 20.7287C15.0636 20.7165 15.0636 20.7041 15.0649 20.6919C15.0649 20.6696 15.0649 20.6476 15.0526 20.6256V20.5813C15.0496 20.5598 15.0456 20.5384 15.0403 20.5174V20.483C15.028 20.4289 15.0157 20.3748 15.001 20.3208V20.2937C14.9887 20.2471 14.9739 20.2004 14.9567 20.1511C14.942 20.1069 14.9248 20.0628 14.9076 20.0159C14.9046 20.005 14.9004 19.9943 14.8953 19.9841C14.8805 19.9448 14.8658 19.908 14.8486 19.8685V19.8513C14.8314 19.8096 14.8117 19.7678 14.7921 19.7261L14.7773 19.6941L14.7257 19.5982L14.711 19.5663L14.6446 19.4459L14.6299 19.4237L14.5684 19.3206L14.5488 19.2911L14.4652 19.1682L14.4529 19.1509C14.4234 19.1093 14.3939 19.0674 14.362 19.0282C14.3615 19.0224 14.3615 19.0167 14.362 19.0109C14.3227 18.9617 14.2834 18.9126 14.2416 18.8659L14.2244 18.8487L14.1506 18.7626C14.1211 18.7356 14.0941 18.7061 14.0671 18.6791L14.0499 18.6619C14.014 18.6256 13.9763 18.5911 13.9368 18.5587L13.8189 18.4604L13.7968 18.4432C13.7574 18.4113 13.7181 18.3842 13.6763 18.3547H13.6542C13.6131 18.3254 13.3299 18.1896 13.2859 18.1649L19.2894 14.8527L19.4196 14.9314L19.4344 14.9461C19.4761 14.9731 19.5155 15.0026 19.5548 15.0321L19.5768 15.0518C19.6183 15.0819 19.6578 15.1147 19.6948 15.1501L19.8055 15.2533L19.9259 15.3639C19.9505 15.3909 19.975 15.4204 20.002 15.4474V15.4597C20.0439 15.5064 20.0831 15.5556 20.1226 15.6047L20.2109 15.7251L20.292 15.848V15.8677L20.4174 16.0299C20.4181 16.0348 20.4181 16.0397 20.4174 16.0446L20.4837 16.1651V16.1847C20.4985 16.2167 20.5157 16.2511 20.5329 16.283C20.532 16.2895 20.532 16.2961 20.5329 16.3027V16.315C20.5526 16.3567 20.5722 16.3985 20.5894 16.4403C20.5894 16.4403 20.5894 16.4403 20.5894 16.455C20.5894 16.4698 20.6215 16.5312 20.6361 16.5681V16.5878V16.6025L20.6828 16.7377C20.6976 16.7844 20.7124 16.8311 20.7246 16.8777C20.7254 16.8834 20.7254 16.8892 20.7246 16.8949C20.7394 16.949 20.7541 17.0031 20.7639 17.0571C20.7639 17.0571 20.7639 17.0571 20.7639 17.0719C20.7639 17.0866 20.7639 17.0866 20.7639 17.094C20.7694 17.115 20.7735 17.1364 20.7763 17.1579C20.7774 17.1726 20.7774 17.1874 20.7763 17.2021C20.775 17.2234 20.775 17.2448 20.7763 17.266C20.775 17.2766 20.775 17.2874 20.7763 17.298C20.7763 17.3447 20.7763 17.3914 20.7763 17.4381C20.7774 17.4479 20.7774 17.4578 20.7763 17.4676C20.7763 17.5142 20.9089 17.6826 20.9089 17.7293L15.0845 21.0408C15.0845 20.9941 15.0845 20.945 15.0845 20.8984C15.0833 20.8882 15.0808 20.8784 15.0771 20.8687Z" fill="#FFCA00"/>
<path id="Vector_51" d="M6.16338 20.7926C5.68649 20.1885 5.41064 19.4502 5.37451 18.6815C5.37451 17.5977 6.14372 17.1627 7.09479 17.6985C7.13657 17.723 7.17834 17.7476 7.22012 17.7771C7.65755 18.0916 8.02357 18.4951 8.2942 18.9609C8.56483 19.4268 8.73396 19.9446 8.79049 20.4804C8.8372 21.2644 8.50788 21.7509 7.99672 21.8272L8.62094 25.1694C8.69712 25.565 8.4661 25.7715 8.15153 25.5896L5.97907 24.3363C5.8194 24.2355 5.69107 24.0922 5.60855 23.9224C5.52605 23.7526 5.49264 23.5631 5.51212 23.3754L6.16338 20.7926Z" fill="#333333"/>
<path id="Vector_52" d="M6.02917 6.16603C6.02917 5.18301 6.38059 4.4949 6.94093 4.16805L9.0667 2.93927C8.50637 3.26612 8.15987 3.9567 8.15741 4.93725L8.1402 11.0344L6.01196 12.2632L6.02917 6.16603Z" fill="#333333"/>
<path id="Vector_53" d="M14.4414 11.0222L16.5672 9.78607L16.55 15.8833L14.4242 17.1194L14.4414 11.0222Z" fill="#333333"/>
<path id="Vector_54" d="M3.8518 4.90768C3.86163 1.55313 6.24545 0.194104 9.16502 1.88736C12.0846 3.58061 14.4512 7.66751 14.4414 11.0221L14.4242 17.1242L12.2443 15.8659L12.264 9.76872C12.264 7.80268 10.8755 5.38199 9.15765 4.38914C7.43982 3.39629 6.03656 4.19499 6.02919 6.17087L6.01198 12.268L3.83459 11.0098L3.8518 4.90768Z" fill="#666666"/>
<path id="Vector_55" d="M14.4066 10.4913C14.4066 10.4569 14.4066 10.4225 14.4066 10.3881C14.4066 10.3536 14.3943 10.2504 14.3869 10.1841C14.3795 10.1177 14.3869 10.1177 14.3869 10.0858C14.3771 9.99404 14.3648 9.90311 14.3501 9.813V9.76385L14.2985 9.47385V9.43944C14.2837 9.36326 14.2665 9.28954 14.2493 9.21335C14.2321 9.13717 14.2296 9.12243 14.2174 9.07572L14.1731 8.89387L14.1363 8.7587C14.1166 8.68252 14.0945 8.6088 14.0724 8.53507L14.0502 8.45643C14.0208 8.35567 13.9863 8.25244 13.9544 8.15168C13.9468 8.13407 13.9402 8.11602 13.9347 8.09763C13.9077 8.01652 13.8782 7.93296 13.8487 7.85187C13.8364 7.81993 13.8241 7.79043 13.8143 7.75848L13.7258 7.53239L13.6964 7.46111C13.657 7.36281 13.6177 7.26698 13.5759 7.17113C13.5759 7.15146 13.5587 7.13426 13.5514 7.11461C13.5145 7.03596 13.4801 6.95487 13.4432 6.86885L13.4039 6.78776C13.3621 6.69928 13.3179 6.60835 13.2737 6.51987V6.50022C13.2278 6.40683 13.1786 6.31344 13.1262 6.22006L13.0844 6.14141L12.9615 5.92024C12.9493 5.89811 12.937 5.876 12.9222 5.85389C12.8706 5.76294 12.8141 5.66957 12.76 5.57863C12.7471 5.56156 12.7356 5.54348 12.7256 5.52457L12.588 5.30831L12.529 5.21737L12.3963 5.02322L12.3447 4.94706L12.1678 4.7013L12.1505 4.67917C12.0867 4.5907 12.0203 4.50468 11.954 4.41867L11.8581 4.29826C11.8188 4.24911 11.7795 4.1975 11.7377 4.14835L11.6369 4.03039L11.519 3.8903C11.433 3.792 11.3445 3.69615 11.256 3.60031C11.1675 3.50446 11.0766 3.41354 10.9857 3.32261L10.7694 3.1727L10.7153 3.12109C10.6392 3.04981 10.5605 2.981 10.4696 2.9122L10.4082 2.85813L10.2312 2.70822L10.1452 2.63941L9.98792 2.51654L9.89453 2.44526L9.73723 2.33222L9.64386 2.26585L9.47429 2.15281L9.39318 2.1012L9.14744 1.94637L8.97786 1.853L8.93116 1.82842L8.80338 1.76206L8.75914 1.73994L8.59447 1.6613H8.5699L8.42983 1.59986L8.37821 1.57775L8.28482 1.54088L8.23077 1.51876L8.13245 1.45241H8.09068L7.9457 1.40572H7.92603L7.80314 1.36886H7.77366L7.55984 1.31725H7.5451C7.47453 1.30058 7.40318 1.28746 7.33131 1.27793C7.27232 1.26809 7.21334 1.26072 7.15436 1.25581H7.11749H6.94792H6.75133H6.59895H6.56455H6.44658H6.41464L6.27455 1.27547H6.24507L6.13694 1.29759H6.10007L5.96983 1.33199L5.8494 1.37131H5.81499L5.71423 1.41063H5.68966L5.56923 1.4647L5.5422 1.47944L5.44883 1.5286L5.39966 1.55317L7.52545 0.324396L7.55494 0.307194H7.5746L7.66799 0.258043L7.69747 0.243298L7.8007 0.191689H7.8179L7.92603 0.142538L7.96288 0.13025L8.09068 0.0909293L8.22094 0.0565237H8.25534L8.36594 0.0245756H8.39542L8.53305 0H8.56745H8.68295H8.71736H8.86973H9.0737C9.13023 0 9.18675 -1.37974e-09 9.24327 0.0122877H9.28014L9.45708 0.0344057C9.52834 0.0344057 9.59962 0.0589811 9.67088 0.0737265H9.68564C9.75608 0.0884719 9.82734 0.105675 9.89944 0.125335H9.91664H9.93138L10.0567 0.159741H10.0788L10.2165 0.223637H10.2582L10.3615 0.2605L10.4155 0.282618L10.5089 0.319481L10.5482 0.334226H10.5728L10.7104 0.395665H10.7375L10.8997 0.474307L10.9439 0.496424L11.0717 0.56278L11.1208 0.587354L11.2855 0.700402C11.369 0.749552 11.4551 0.801161 11.5313 0.855228L11.6123 0.909293L11.777 1.02234L11.8704 1.08624L12.0228 1.20666L12.1162 1.27793L12.2734 1.4008L12.3595 1.47207C12.4209 1.51876 12.4799 1.57037 12.5388 1.61952L12.5978 1.67359C12.6765 1.7424 12.7551 1.81121 12.8313 1.88494C12.8505 1.90002 12.8685 1.91644 12.8854 1.93409L13.0328 2.07663L13.0549 2.09874C13.1459 2.18969 13.2368 2.28306 13.3253 2.37644C13.4137 2.4723 13.5022 2.56813 13.5882 2.66644L13.6103 2.69102L13.7062 2.80652L13.8168 2.92694L13.9397 3.07685C13.9691 3.11863 14.0035 3.15794 14.033 3.19728L14.0502 3.21939C14.1117 3.29804 14.1731 3.37667 14.2321 3.46515L14.2468 3.48726C14.3009 3.55854 14.3525 3.63226 14.4041 3.70352L14.4238 3.73548L14.4754 3.81167C14.5221 3.87556 14.5663 3.94191 14.6081 4.00826L14.6671 4.09674L14.7113 4.16309L14.8047 4.313L14.8391 4.36952C14.8883 4.45063 14.9374 4.53172 14.9841 4.61528L15.0038 4.64476L15.0406 4.71113C15.0824 4.78485 15.1242 4.85857 15.1635 4.9323C15.1783 4.95933 15.193 4.98391 15.2053 5.01094L15.2348 5.06256C15.2741 5.13874 15.3159 5.21493 15.3527 5.29111L15.365 5.31322C15.397 5.37957 15.4314 5.44593 15.4633 5.51474L15.4928 5.57863C15.5076 5.60567 15.5199 5.6327 15.5321 5.65974C15.569 5.73837 15.6059 5.81948 15.6403 5.9055C15.6403 5.92515 15.6575 5.94235 15.6648 5.96202C15.6722 5.98167 15.6648 5.9743 15.6648 5.98167C15.7042 6.07261 15.741 6.16107 15.7779 6.252C15.7779 6.27657 15.7976 6.30115 15.8049 6.32328C15.8123 6.34539 15.8418 6.4142 15.859 6.45844C15.8762 6.50267 15.8811 6.51987 15.8934 6.54937C15.9057 6.57885 15.9155 6.61326 15.9278 6.64276C15.9573 6.72385 15.9868 6.80741 16.0138 6.88852C16.0138 6.90572 16.0138 6.92537 16.0335 6.94257V6.95731C16.0654 7.05317 16.0949 7.15146 16.1244 7.24731C16.1244 7.27435 16.1416 7.29893 16.149 7.32596C16.1564 7.35298 16.1834 7.44146 16.1981 7.49798C16.2034 7.51489 16.2075 7.53213 16.2104 7.54959C16.2252 7.59383 16.235 7.64052 16.2473 7.68476C16.2596 7.729 16.2792 7.80517 16.2915 7.86661C16.3038 7.92805 16.3136 7.96 16.3235 8.0067C16.3333 8.05339 16.3407 8.07059 16.348 8.105C16.3554 8.13941 16.3653 8.18856 16.3726 8.23033V8.26474C16.3923 8.36304 16.407 8.45889 16.4242 8.55472V8.60387C16.4242 8.68252 16.4488 8.7587 16.4586 8.83735C16.4586 8.84963 16.4586 8.86439 16.4586 8.87913C16.4586 8.89387 16.4586 8.94302 16.4586 8.97496L16.4808 9.17894V9.28217C16.4808 9.35098 16.4808 9.41978 16.4808 9.48615C16.4808 9.5525 16.4808 9.55004 16.4808 9.57952C16.4808 9.67783 16.5598 9.71715 16.5598 9.813L14.355 11.0983C14.355 11.0024 14.355 10.9041 14.355 10.8083C14.355 10.7764 14.355 10.7469 14.355 10.7149C14.355 10.683 14.4115 10.5601 14.4066 10.4913Z" fill="#828282"/>
</g>
<defs>
<clipPath id="clip0_886_212">
<rect width="45" height="60" fill="white"/>
</clipPath>
</defs>
</svg>
