<svg width="24" height="24" viewBox="0 0 24 24" fill="none" xmlns="http://www.w3.org/2000/svg">
<g id="Group 98">
<path id="Path" d="M24 12.009C24 15.1924 22.7342 18.2451 20.4815 20.4943C18.2289 22.7436 15.1743 24.0048 11.991 24C5.36855 24 1.3625e-05 18.6315 1.3625e-05 12.009C-0.00478182 8.82571 1.25645 5.77112 3.50571 3.51846C5.75496 1.26581 8.80762 0 11.991 0C18.6234 0 24 5.37663 24 12.009Z" fill="#EDECEB"/>
<path id="Path_2" d="M16.9174 14.7624L14.1642 12.0092L16.9174 9.23788C17.407 8.62329 17.3553 7.73863 16.7973 7.18533C16.2394 6.63204 15.3543 6.58768 14.7438 7.08241L11.9906 9.83562L9.2374 7.08241C8.62693 6.58768 7.74188 6.63204 7.18394 7.18533C6.626 7.73863 6.57424 8.62329 7.06385 9.23788L9.81705 12.0092L7.06385 14.7624C6.52237 15.3717 6.5496 16.2974 7.12599 16.8738C7.70237 17.4502 8.62811 17.4775 9.2374 16.936L11.9906 14.1647L14.7438 16.936C15.3531 17.4775 16.2788 17.4502 16.8552 16.8738C17.4316 16.2974 17.4589 15.3717 16.9174 14.7624Z" fill="#B8B8B8"/>
</g>
</svg>
