<svg width="29" height="29" viewBox="0 0 29 29" fill="none" xmlns="http://www.w3.org/2000/svg">
<g id="logo">
<g id="Group">
<g id="logo-abp">
<path id="Fill 1" fill-rule="evenodd" clip-rule="evenodd" d="M8.23527 0.607239L0 8.70475V20.1565L8.23527 28.2541H19.8816L28.1171 20.1565V8.70475L19.8816 0.607239H8.23527Z" fill="#D8D9D9"/>
<path id="Fill 2" fill-rule="evenodd" clip-rule="evenodd" d="M8.3123 0.789764L0.185547 8.78031V20.0808L8.3123 28.0714H19.8051L27.9315 20.0808V8.78031L19.8051 0.789764H8.3123Z" fill="white"/>
<path id="Fill 3" fill-rule="evenodd" clip-rule="evenodd" d="M8.84823 26.799L1.47961 19.5537V9.30753L8.84823 2.06216H19.269L26.6373 9.30753V19.5537L19.269 26.799H8.84823Z" fill="#ED1E45"/>
<path id="Fill 4" fill-rule="evenodd" clip-rule="evenodd" d="M7.18655 15.1275L6.98965 14.2361C6.86697 13.7511 6.74883 13.236 6.63523 12.6911C6.52134 12.1465 6.40745 11.6214 6.29384 11.1164H6.24143C6.13632 11.6314 6.02894 12.1588 5.91987 12.6986C5.81023 13.2385 5.69435 13.7511 5.57196 14.2361L5.36175 15.1275H7.18655ZM7.58038 16.836H4.96798L4.44301 19.1387H2.474L5.15185 9.45248H7.47528L10.1534 19.1387H8.10536L7.58038 16.836Z" fill="white"/>
<path id="Fill 6" fill-rule="evenodd" clip-rule="evenodd" d="M14.3672 17.4451C15.4259 17.4451 15.9554 17.0044 15.9554 16.123C15.9554 15.6971 15.8243 15.3876 15.5616 15.1945C15.299 15.0012 14.9007 14.9048 14.3672 14.9048H13.2776V17.4451H14.3672ZM14.1833 13.3596C14.6559 13.3596 14.9993 13.2535 15.2137 13.0404C15.4282 12.8275 15.5356 12.5378 15.5356 12.1712C15.5356 11.8049 15.4259 11.5425 15.2072 11.384C14.9885 11.2255 14.6513 11.1461 14.1964 11.1461H13.2776V13.3596H14.1833ZM11.3479 9.45258H14.2751C14.7216 9.45258 15.1349 9.48963 15.5157 9.564C15.8964 9.63838 16.2288 9.76959 16.5135 9.95763C16.7977 10.1459 17.0209 10.3936 17.183 10.7003C17.3447 11.0076 17.4258 11.3939 17.4258 11.8592C17.4258 12.0773 17.3971 12.2951 17.3405 12.513C17.2833 12.7308 17.198 12.9339 17.0844 13.1219C16.9705 13.3102 16.8217 13.4785 16.6382 13.627C16.4543 13.7757 16.2398 13.8846 15.9948 13.954V14.0133C16.6073 14.142 17.0691 14.39 17.3799 14.756C17.6904 15.1226 17.8456 15.6327 17.8456 16.2862C17.8456 16.7815 17.7603 17.2074 17.5898 17.564C17.4192 17.9206 17.183 18.2153 16.881 18.4479C16.5789 18.6808 16.2265 18.8541 15.8242 18.9677C15.4216 19.082 14.9884 19.1388 14.5247 19.1388H11.3479V9.45258Z" fill="white"/>
<path id="Fill 8" fill-rule="evenodd" clip-rule="evenodd" d="M22.1777 14.1173C23.228 14.1173 23.7529 13.6025 23.7529 12.5723C23.7529 12.0673 23.6195 11.7107 23.3526 11.5026C23.0854 11.2945 22.6939 11.1906 22.1777 11.1906H21.1014V14.1173H22.1777ZM19.1715 9.45261H22.2959C22.7596 9.45261 23.1951 9.50442 23.6019 9.60861C24.009 9.71251 24.3635 9.88578 24.6652 10.1284C24.9672 10.3713 25.2055 10.6931 25.3808 11.0942C25.5556 11.4951 25.6432 11.9879 25.6432 12.5723C25.6432 13.1367 25.5534 13.627 25.374 14.0429C25.1947 14.4591 24.9519 14.8006 24.6456 15.068C24.3391 15.3355 23.9847 15.5338 23.5824 15.6622C23.1795 15.7912 22.7509 15.8556 22.2959 15.8556H21.1014V19.1385H19.1715V9.45261Z" fill="white"/>
</g>
</g>
</g>
</svg>
