<svg xmlns="http://www.w3.org/2000/svg" width="98" height="32" fill="none"><path fill="#A6A6A6" d="M90.01 0H7.81c-.3 0-.596 0-.895.002-.25.001-.498.006-.75.01A11.22 11.22 0 0 0 4.527.15a5.6 5.6 0 0 0-1.553.493c-.488.24-.935.553-1.323.926A4.93 4.93 0 0 0 .69 2.842c-.249.47-.42.975-.511 1.495A9.823 9.823 0 0 0 .032 5.91c-.008.24-.009.483-.013.723V24.79c.004.244.005.48.013.725.006.527.055 1.052.146 1.572.09.52.262 1.025.51 1.496.248.47.573.898.963 1.268.387.375.833.687 1.323.926.489.24 1.013.406 1.553.495.542.086 1.089.133 1.638.14.252.005.5.008.75.008l.895.001h82.2l.885-.001c.25 0 .505-.003.754-.009a11.274 11.274 0 0 0 1.634-.139 5.713 5.713 0 0 0 1.559-.495c.49-.239.935-.551 1.321-.926.39-.371.715-.8.966-1.268.247-.471.417-.975.506-1.496.09-.52.141-1.045.151-1.572.004-.244.004-.48.004-.725.006-.285.006-.569.006-.859V7.491c0-.288 0-.573-.006-.858 0-.24 0-.482-.004-.723-.01-.527-.06-1.053-.151-1.573a5.058 5.058 0 0 0-.506-1.495 5.186 5.186 0 0 0-2.287-2.2 5.687 5.687 0 0 0-1.56-.492A11.075 11.075 0 0 0 91.65.012c-.25-.004-.505-.009-.754-.01C90.602 0 90.303 0 90.01 0Z"/><path fill="#000" d="M6.92 30.734c-.25 0-.493-.003-.74-.009a10.77 10.77 0 0 1-1.527-.128 4.942 4.942 0 0 1-1.353-.43 4.413 4.413 0 0 1-1.142-.799c-.338-.32-.62-.69-.834-1.097A4.374 4.374 0 0 1 .88 26.97a9.386 9.386 0 0 1-.136-1.473 68.865 68.865 0 0 1-.012-.718V6.633s.008-.543.012-.702c.007-.493.052-.985.136-1.471a4.4 4.4 0 0 1 .444-1.306c.213-.406.493-.777.83-1.098a4.544 4.544 0 0 1 1.145-.803c.426-.207.881-.35 1.351-.427.507-.08 1.019-.123 1.532-.13L6.92.688H90.89l.746.01c.51.006 1.017.049 1.519.128a4.99 4.99 0 0 1 1.365.43 4.486 4.486 0 0 1 1.974 1.901c.212.408.36.845.437 1.296.085.49.132.985.142 1.482.002.223.002.461.002.7.007.294.007.574.007.857v16.44c0 .285 0 .564-.007.845 0 .255 0 .49-.003.73-.01.488-.056.975-.14 1.456a4.384 4.384 0 0 1-.44 1.312 4.32 4.32 0 0 1-.83 1.088c-.334.325-.72.597-1.144.804a4.92 4.92 0 0 1-1.363.431c-.505.08-1.016.122-1.527.128-.24.006-.49.009-.734.009l-.885.001-83.09-.001Z"/><path fill="#fff" d="M20.258 15.947c.008-.656.19-1.299.526-1.869.337-.57.818-1.05 1.4-1.393a4.09 4.09 0 0 0-1.423-1.218 4.268 4.268 0 0 0-1.839-.477c-1.372-.138-2.702.79-3.402.79-.712 0-1.789-.776-2.948-.753a4.47 4.47 0 0 0-2.121.608 4.253 4.253 0 0 0-1.534 1.535c-1.58 2.63-.401 6.496 1.112 8.622.758 1.041 1.643 2.204 2.801 2.163 1.133-.045 1.557-.695 2.925-.695 1.355 0 1.752.695 2.934.668 1.216-.018 1.982-1.045 2.713-2.096a8.479 8.479 0 0 0 1.24-2.43 3.876 3.876 0 0 1-1.733-1.382 3.654 3.654 0 0 1-.651-2.073ZM18.026 9.592a3.73 3.73 0 0 0 .91-2.742 4.106 4.106 0 0 0-2.62 1.304 3.61 3.61 0 0 0-.741 1.23 3.51 3.51 0 0 0-.194 1.41c.507.005 1.008-.1 1.466-.309a3.332 3.332 0 0 0 1.179-.893ZM34.584 21.319h-3.868l-.928 2.637h-1.639l3.664-9.755h1.702l3.663 9.755h-1.666l-.928-2.637Zm-3.467-1.217h3.066l-1.512-4.279h-.042l-1.512 4.28ZM45.09 20.4c0 2.21-1.23 3.63-3.088 3.63a2.59 2.59 0 0 1-1.35-.3 2.462 2.462 0 0 1-.977-.944h-.035v3.522H38.12v-9.464h1.47v1.183h.028a2.58 2.58 0 0 1 .997-.942c.415-.221.884-.33 1.359-.316 1.877 0 3.115 1.427 3.115 3.631Zm-1.561 0c0-1.44-.774-2.386-1.955-2.386-1.16 0-1.94.966-1.94 2.386 0 1.433.78 2.393 1.94 2.393 1.181 0 1.955-.94 1.955-2.393ZM53.232 20.4c0 2.21-1.23 3.63-3.087 3.63-.47.024-.938-.08-1.35-.3a2.462 2.462 0 0 1-.978-.944h-.035v3.522h-1.518v-9.464h1.47v1.183h.027a2.58 2.58 0 0 1 .997-.942 2.71 2.71 0 0 1 1.359-.316c1.877 0 3.115 1.427 3.115 3.631Zm-1.56 0c0-1.44-.775-2.386-1.956-2.386-1.16 0-1.94.966-1.94 2.386 0 1.433.78 2.393 1.94 2.393 1.181 0 1.955-.94 1.955-2.393ZM58.613 21.238c.113.967 1.09 1.602 2.426 1.602 1.28 0 2.2-.635 2.2-1.507 0-.757-.555-1.21-1.87-1.521l-1.315-.305c-1.863-.433-2.728-1.27-2.728-2.63 0-1.683 1.526-2.839 3.692-2.839 2.144 0 3.614 1.156 3.664 2.84h-1.533c-.092-.974-.93-1.562-2.152-1.562-1.224 0-2.06.595-2.06 1.46 0 .69.534 1.096 1.842 1.406l1.118.264c2.082.473 2.947 1.277 2.947 2.704 0 1.825-1.512 2.968-3.917 2.968-2.25 0-3.77-1.116-3.868-2.88h1.554ZM68.12 15.16v1.684h1.408V18H68.12v3.92c0 .61.282.893.9.893.167-.002.334-.014.5-.034v1.15c-.279.05-.561.072-.844.067-1.498 0-2.082-.54-2.082-1.92V18H65.52v-1.156h1.076V15.16h1.526ZM70.342 20.4c0-2.238 1.371-3.644 3.509-3.644 2.145 0 3.51 1.406 3.51 3.644 0 2.244-1.358 3.644-3.51 3.644-2.151 0-3.509-1.4-3.509-3.644Zm5.47 0c0-1.535-.73-2.441-1.961-2.441-1.23 0-1.962.913-1.962 2.441 0 1.541.731 2.44 1.962 2.44 1.23 0 1.962-.899 1.962-2.44ZM78.612 16.844h1.448v1.21h.035c.099-.378.329-.712.653-.946a1.813 1.813 0 0 1 1.127-.339c.175 0 .35.018.52.055v1.365a2.202 2.202 0 0 0-.682-.088c-.22-.009-.44.029-.645.11-.204.08-.387.203-.538.358a1.46 1.46 0 0 0-.333.542 1.417 1.417 0 0 0-.066.626v4.219h-1.519v-7.112ZM89.396 21.867c-.204 1.29-1.512 2.177-3.185 2.177-2.152 0-3.488-1.386-3.488-3.61 0-2.231 1.343-3.678 3.424-3.678 2.047 0 3.334 1.352 3.334 3.508v.5h-5.225v.089c-.024.261.01.525.1.773.09.248.234.475.422.666.188.19.417.34.67.44.253.098.525.145.798.135.359.032.72-.047 1.027-.228.308-.18.547-.45.681-.772h1.442Zm-5.133-2.123h3.699a1.651 1.651 0 0 0-.11-.692 1.703 1.703 0 0 0-.387-.592 1.784 1.784 0 0 0-.602-.393 1.842 1.842 0 0 0-.716-.128 1.935 1.935 0 0 0-.721.134c-.229.09-.437.223-.612.391a1.796 1.796 0 0 0-.408.587 1.74 1.74 0 0 0-.143.693ZM30.927 6.859c.318-.022.638.024.935.135.298.111.566.284.785.507.22.223.385.49.484.781.1.292.13.601.09.906 0 1.497-.842 2.358-2.294 2.358h-1.761V6.859h1.76Zm-1.004 4.024h.92c.227.013.454-.023.666-.105.21-.082.4-.209.554-.37.154-.162.269-.354.336-.564.067-.209.084-.43.051-.647.03-.216.012-.436-.056-.643a1.465 1.465 0 0 0-.337-.56 1.54 1.54 0 0 0-.552-.367 1.593 1.593 0 0 0-.663-.106h-.919v3.362ZM34.076 9.776a1.613 1.613 0 0 1 .081-.689c.077-.222.201-.425.365-.598.163-.173.362-.311.584-.405a1.803 1.803 0 0 1 1.41 0c.223.094.422.232.585.405.164.173.288.376.364.598.077.222.105.456.081.689.024.232-.003.467-.08.689-.076.222-.2.426-.364.6a1.743 1.743 0 0 1-.585.405 1.803 1.803 0 0 1-1.412 0 1.743 1.743 0 0 1-.585-.406 1.662 1.662 0 0 1-.364-.599 1.614 1.614 0 0 1-.08-.69Zm2.724 0c0-.767-.359-1.216-.987-1.216-.632 0-.987.449-.987 1.216 0 .772.355 1.217.987 1.217.628 0 .987-.448.987-1.217ZM42.16 11.546h-.754l-.76-2.606h-.058l-.757 2.606h-.746L38.07 8.008h.736l.66 2.7h.054l.756-2.7h.697l.756 2.7h.058l.656-2.7h.726l-1.01 3.538ZM44.023 8.008h.699v.562h.054c.092-.202.247-.37.444-.484.197-.113.425-.164.654-.146a1.24 1.24 0 0 1 .526.076 1.2 1.2 0 0 1 .44.288c.122.126.213.277.266.442.054.165.068.339.041.51v2.29h-.726V9.43c0-.568-.257-.851-.794-.851a.874.874 0 0 0-.653.254.782.782 0 0 0-.225.642v2.07h-.726V8.008ZM48.304 6.628h.727v4.918h-.727V6.628ZM50.04 9.775a1.615 1.615 0 0 1 .081-.688c.077-.222.2-.425.364-.598.164-.173.363-.311.585-.406a1.803 1.803 0 0 1 1.41 0c.223.095.422.233.585.406.163.173.288.376.364.598.077.221.105.456.081.688.024.233-.003.468-.08.69-.076.222-.2.426-.364.6a1.742 1.742 0 0 1-.585.405 1.803 1.803 0 0 1-1.412 0 1.742 1.742 0 0 1-.585-.406 1.662 1.662 0 0 1-.364-.599 1.614 1.614 0 0 1-.08-.69Zm2.723 0c0-.766-.358-1.215-.987-1.215-.631 0-.986.449-.986 1.215 0 .773.355 1.218.986 1.218.629 0 .987-.448.987-1.218ZM54.275 10.545c0-.636.493-1.004 1.368-1.056l.997-.055V9.13c0-.374-.257-.585-.753-.585-.406 0-.686.143-.767.393h-.703c.074-.607.669-.997 1.503-.997.923 0 1.443.442 1.443 1.189v2.417h-.699v-.497h-.057a1.22 1.22 0 0 1-.475.42 1.279 1.279 0 0 1-.63.135 1.155 1.155 0 0 1-.858-.268 1.071 1.071 0 0 1-.272-.358 1.032 1.032 0 0 1-.097-.433Zm2.365-.302v-.296l-.898.056c-.507.032-.737.198-.737.51 0 .318.287.503.682.503a.901.901 0 0 0 .647-.192.838.838 0 0 0 .306-.581ZM58.317 9.775c0-1.117.598-1.825 1.528-1.825.23-.01.458.042.657.152.2.11.363.273.47.468h.055V6.628h.726v4.918h-.696v-.56H61a1.254 1.254 0 0 1-.488.464 1.319 1.319 0 0 1-.667.154c-.936 0-1.528-.708-1.528-1.829Zm.75 0c0 .75.368 1.202.983 1.202.613 0 .99-.458.99-1.198 0-.738-.382-1.202-.99-1.202-.61 0-.983.454-.983 1.198ZM64.757 9.776a1.617 1.617 0 0 1 .082-.689c.076-.222.2-.425.364-.598.163-.173.362-.311.584-.405a1.803 1.803 0 0 1 1.41 0c.223.094.422.232.585.405.164.173.288.376.365.598.076.222.104.456.08.689.024.232-.003.467-.08.689-.076.222-.2.426-.363.6a1.744 1.744 0 0 1-.585.405 1.803 1.803 0 0 1-1.412 0 1.744 1.744 0 0 1-.585-.406 1.66 1.66 0 0 1-.364-.599 1.616 1.616 0 0 1-.08-.69Zm2.724 0c0-.767-.358-1.216-.987-1.216-.631 0-.986.449-.986 1.216 0 .772.355 1.217.986 1.217.629 0 .987-.448.987-1.217ZM69.202 8.008h.7v.562h.053c.093-.202.248-.37.445-.484.196-.113.425-.164.653-.146a1.24 1.24 0 0 1 .526.076 1.2 1.2 0 0 1 .44.288c.122.126.214.277.267.442.053.165.067.339.04.51v2.29h-.725V9.43c0-.568-.257-.851-.794-.851a.875.875 0 0 0-.654.254.805.805 0 0 0-.225.642v2.07h-.726V8.008ZM76.43 7.128v.897h.797v.588h-.797v1.818c0 .37.159.533.52.533.093 0 .185-.005.277-.016v.582c-.13.022-.263.034-.395.035-.807 0-1.13-.273-1.13-.955V8.612h-.583v-.588h.584v-.896h.727ZM78.219 6.628h.72v1.949h.057c.097-.204.256-.374.457-.487.2-.114.433-.165.665-.147.178-.01.356.02.521.084.166.064.314.163.435.289.121.126.212.276.266.44.053.163.069.336.045.506v2.284h-.727V9.434c0-.565-.273-.851-.787-.851a.891.891 0 0 0-.68.241.823.823 0 0 0-.198.302.796.796 0 0 0-.048.354v2.066h-.726V6.628ZM85.619 10.59a1.441 1.441 0 0 1-.604.79 1.54 1.54 0 0 1-.99.234 1.731 1.731 0 0 1-.706-.13 1.672 1.672 0 0 1-.584-.405 1.59 1.59 0 0 1-.353-.602 1.546 1.546 0 0 1-.057-.689 1.572 1.572 0 0 1 .058-.69c.071-.224.19-.43.352-.606.16-.175.359-.315.58-.41.223-.096.463-.144.707-.142 1.023 0 1.64.673 1.64 1.783v.244h-2.597v.039a.901.901 0 0 0 .257.715 1.005 1.005 0 0 0 .723.298c.173.02.35-.01.505-.086a.867.867 0 0 0 .37-.342h.699Zm-2.554-1.14h1.858a.824.824 0 0 0-.242-.65.919.919 0 0 0-.664-.265.975.975 0 0 0-.677.264.875.875 0 0 0-.275.651Z"/></svg>
