<svg xmlns="http://www.w3.org/2000/svg" width="32" height="15" fill="none"><path fill="#EDA51E" d="M3.833 1.244s4.921 4.56 10.466 5.452c3.925.64 8.265.252 12.172-.889-1.924-.72-3.996-1.376-5.984-2.238-1.924-.72-.57-3.762 1.27-2.837 3.082 1.508 6.27 3.055 9.41 4.111.855.32.909 1.405.51 2.084-1.804 2.637-3.889 5.05-6.359 7.202-.338.229-.85.274-1.277.114-.213-.08-.427-.16-.558-.445 0 0-.107-.04-.172-.183-.196-.428-.136-.879.244-1.21 1.116-1.238 2.167-2.62 3.284-3.858-1.972.919-6.193 2.534-11.608 1.928-3.538-.377-5.979-1.645-7.647-2.387C5.316 7.003 2.77 5.696 1.06 2.927c-1.104-1.832.671-3.18 2.583-1.518l.19-.165Z"/></svg>
