<svg xmlns="http://www.w3.org/2000/svg" width="51" height="51" fill="none"><path fill="#ED1F45" fill-opacity=".1" d="M25.128 50.51c13.807 0 25-11.192 25-25 0-13.807-11.193-25-25-25s-25 11.194-25 25c0 13.808 11.193 25 25 25Z"/><path fill="#ED1F45" d="M25.27 44.309c-.147 0-.324-.03-.531-.092a2.294 2.294 0 0 1-.605-.256c-2.417-1.38-4.45-2.594-6.097-3.644-1.648-1.05-2.972-2.057-3.973-3.021-1.002-.977-1.728-2.02-2.18-3.131-.451-1.123-.677-2.448-.677-3.974V17.136c0-.891.183-1.538.55-1.941.366-.403.927-.757 1.684-1.062.55-.22 1.288-.507 2.216-.86.94-.355 1.934-.727 2.984-1.118 1.062-.39 2.057-.75 2.985-1.08.94-.342 1.684-.61 2.234-.806.232-.06.464-.116.695-.164a3.458 3.458 0 0 1 1.41 0c.232.036.464.091.696.164.55.196 1.288.464 2.216.806.94.33 1.935.69 2.984 1.08 1.062.391 2.063.763 3.003 1.117s1.679.641 2.216.86c.757.318 1.318.678 1.684 1.081.367.39.55 1.032.55 1.923V30.19c0 1.526-.22 2.863-.66 4.01-.427 1.136-1.135 2.204-2.123 3.205-.99.988-2.314 2.002-3.974 3.04-1.66 1.037-3.71 2.209-6.152 3.515-.208.11-.415.195-.623.256a1.754 1.754 0 0 1-.512.092Z"/><path fill="#fff" d="M25.03 34.475c-.52 0-.987-.105-1.4-.317a2.674 2.674 0 0 1-.992-.855 2.294 2.294 0 0 1-.424-1.171h5.632c-.033.428-.174.819-.423 1.172-.25.358-.58.642-.993.854-.407.212-.874.317-1.4.317Zm-6.331-3.515c-.516 0-.928-.15-1.237-.448-.31-.298-.464-.689-.464-1.172s.13-.909.39-1.277a4.53 4.53 0 0 1 .985-1.001c.217-.169.383-.402.496-.7.114-.299.204-.654.27-1.066.064-.413.14-.866.227-1.36.022-.195.049-.382.081-.56.033-.185.068-.364.106-.538l8.122 8.122h-8.976Zm6.331-13.632c.57 0 1.085.163 1.546.489.467.325.8.748 1.001 1.27a3.767 3.767 0 0 1 1.538 1.025 5.326 5.326 0 0 1 1.034 1.668 8.9 8.9 0 0 1 .545 2.157c.082.493.155.946.22 1.359.07.412.162.767.276 1.066.114.298.283.532.505.7.385.293.71.626.977 1 .266.37.399.795.399 1.278 0 .554-.193.977-.578 1.27L21.498 19.615c.147-.108.301-.206.464-.293.168-.087.345-.165.529-.236.2-.52.532-.944.993-1.27a2.619 2.619 0 0 1 1.546-.488Zm-7.47 1.93a.636.636 0 0 1-.196-.48c0-.202.065-.367.195-.497a.69.69 0 0 1 .497-.196.69.69 0 0 1 .496.196l14.575 14.567a.68.68 0 0 1 .196.488.69.69 0 0 1-.196.496.662.662 0 0 1-.488.196.68.68 0 0 1-.488-.196L17.559 19.257Z"/></svg>
