<svg xmlns="http://www.w3.org/2000/svg" width="51" height="51" fill="none"><path fill="#ED1F45" fill-opacity=".1" d="M25.872 50.51c13.807 0 25-11.192 25-25 0-13.807-11.193-25-25-25s-25 11.194-25 25c0 13.808 11.193 25 25 25Z"/><path fill="#ED1F45" d="M26.015 44.309c-.147 0-.324-.03-.532-.092a2.302 2.302 0 0 1-.604-.256c-2.418-1.38-4.449-2.594-6.097-3.644-1.649-1.05-2.972-2.057-3.974-3.021-1.001-.977-1.728-2.02-2.18-3.131-.45-1.123-.676-2.448-.676-3.974V17.136c0-.891.183-1.538.549-1.941.367-.403.928-.757 1.686-1.062.548-.22 1.287-.507 2.214-.86a275.91 275.91 0 0 1 5.97-2.197c.939-.343 1.684-.611 2.233-.807.233-.06.464-.116.697-.164a3.457 3.457 0 0 1 1.409 0c.233.036.464.091.695.164.55.196 1.29.464 2.216.806.94.33 1.936.69 2.986 1.08 1.06.391 2.062.763 3.001 1.117.941.354 1.68.641 2.216.86.758.318 1.319.678 1.686 1.081.366.39.548 1.032.548 1.923V30.19c0 1.526-.22 2.863-.659 4.01-.427 1.136-1.134 2.204-2.123 3.205-.99.988-2.315 2.002-3.974 3.04-1.66 1.037-3.71 2.209-6.153 3.515-.206.11-.414.195-.622.256a1.75 1.75 0 0 1-.512.092Z"/><g clip-path="url(#a)"><path fill="#fff" fill-rule="evenodd" d="M19.532 22.288h-1.277a.878.878 0 1 0 0 1.758h5.567a.878.878 0 1 0 0-1.758h-2.078a6.43 6.43 0 0 1 4.714-2.05 6.449 6.449 0 0 1 6.446 6.445 6.449 6.449 0 0 1-6.446 6.445 6.43 6.43 0 0 1-4.714-2.051h1.199a.878.878 0 1 0 0-1.758h-4.688a.879.879 0 1 0 0 1.758h1.277a8.197 8.197 0 0 0 6.926 3.809c4.527 0 8.203-3.676 8.203-8.204 0-4.527-3.676-8.203-8.203-8.203a8.197 8.197 0 0 0-6.925 3.809Zm7.615 2.463a2.052 2.052 0 0 0-2.62 2.62l-.155.155a.88.88 0 0 0 1.242 1.243l.156-.155a2.052 2.052 0 0 0 2.62-2.62L30.3 24.08a.88.88 0 0 0-1.242-1.242l-1.913 1.912Zm-9.77 2.81h4.687a.878.878 0 1 0 0-1.757h-4.688a.878.878 0 1 0 0 1.757Zm9.081-1.171a.293.293 0 1 1 0 .586.293.293 0 0 1 0-.586Zm5.06-6.893a8.877 8.877 0 0 1 2.133 2.134.879.879 0 1 0 1.435-1.012 10.612 10.612 0 0 0-2.554-2.558.88.88 0 0 0-1.014 1.436Zm-5.939-1.604h1.758a.878.878 0 1 0 0-1.757H25.58a.879.879 0 1 0 0 1.757Z" clip-rule="evenodd"/></g><defs><clipPath id="a"><path fill="#fff" d="M16.497 16.136h18.75v18.75h-18.75z"/></clipPath></defs></svg>
