<svg xmlns="http://www.w3.org/2000/svg" width="51" height="51" fill="none"><path fill="#ED1F45" fill-opacity=".1" d="M25.043 50.51c13.807 0 25-11.192 25-25 0-13.807-11.193-25-25-25-13.808 0-25 11.194-25 25 0 13.808 11.192 25 25 25Z"/><path fill="#ED1F45" d="M25.185 44.309c-.147 0-.324-.03-.532-.092a2.302 2.302 0 0 1-.604-.256c-2.417-1.38-4.449-2.594-6.097-3.644-1.649-1.05-2.972-2.057-3.974-3.021-1.001-.977-1.728-2.02-2.18-3.131-.45-1.123-.676-2.448-.676-3.974V17.136c0-.891.183-1.538.549-1.941.367-.403.928-.757 1.686-1.062.548-.22 1.287-.507 2.214-.86a275.91 275.91 0 0 1 5.97-2.197c.939-.343 1.684-.611 2.233-.807.233-.06.464-.116.697-.164a3.457 3.457 0 0 1 1.409 0c.233.036.464.091.695.164.55.196 1.29.464 2.216.806.94.33 1.936.69 2.986 1.08 1.06.391 2.062.763 3.001 1.117.941.354 1.68.641 2.216.86.758.318 1.319.678 1.686 1.081.366.39.548 1.032.548 1.923V30.19c0 1.526-.22 2.863-.659 4.01-.427 1.136-1.134 2.204-2.123 3.205-.99.988-2.314 2.002-3.974 3.04-1.66 1.037-3.71 2.209-6.153 3.515-.206.11-.414.195-.622.256a1.75 1.75 0 0 1-.512.092Z"/><path fill="#fff" d="M18.032 30.498c-.81 0-1.435-.217-1.875-.652-.435-.44-.652-1.06-.652-1.86v-7.2c0-.81.217-1.43.652-1.86.44-.434 1.065-.652 1.875-.652h10.262c.81 0 1.434.217 1.875.652.44.434.66 1.055.66 1.86V24.8h-1.993v-3.75c0-.273-.069-.474-.206-.6-.131-.127-.326-.191-.586-.191h-9.762c-.26 0-.455.064-.586.19-.133.127-.199.328-.199.601v6.665c0 .273.066.476.199.608.13.127.326.19.586.19h4.745v1.985h-4.995Zm6.6 3.516c-.811 0-1.436-.217-1.875-.652-.435-.434-.652-1.055-.652-1.86v-4.908c0-.81.217-1.433.652-1.867.439-.435 1.064-.652 1.875-.652h7.396c.811 0 1.433.217 1.87.652.438.434.657 1.057.657 1.867v4.908c0 .805-.219 1.426-.658 1.86-.436.435-1.058.652-1.869.652h-7.396Zm1.837-2.322a.788.788 0 0 0 .594-.234l1.275-1.267 1.273 1.267a.833.833 0 0 0 .602.234.774.774 0 0 0 .57-.234.761.761 0 0 0 .234-.571.755.755 0 0 0-.248-.557l-1.281-1.29 1.289-1.288a.79.79 0 0 0 .24-.564.777.777 0 0 0-.234-.572.774.774 0 0 0-.57-.234c-.23 0-.428.08-.594.242l-1.281 1.274-1.283-1.274a.795.795 0 0 0-.586-.235.787.787 0 0 0-.805.806c0 .205.08.39.243.557l1.289 1.289-1.29 1.289a.776.776 0 0 0-.242.557.787.787 0 0 0 .805.806Z"/></svg>
