<svg xmlns="http://www.w3.org/2000/svg" width="51" height="51" fill="none"><path fill="#ED1F45" fill-opacity=".1" d="M25.957 50.51c13.807 0 25-11.192 25-25 0-13.807-11.193-25-25-25s-25 11.194-25 25c0 13.808 11.193 25 25 25Z"/><path fill="#ED1F45" d="M26.1 44.309c-.147 0-.324-.03-.532-.092a2.301 2.301 0 0 1-.604-.256c-2.417-1.38-4.449-2.594-6.097-3.644-1.649-1.05-2.972-2.057-3.974-3.021-1.001-.977-1.728-2.02-2.18-3.131-.45-1.123-.676-2.448-.676-3.974V17.136c0-.891.183-1.538.549-1.941.367-.403.928-.757 1.685-1.062.549-.22 1.288-.507 2.215-.86a276.665 276.665 0 0 1 5.97-2.197c.939-.343 1.684-.611 2.233-.807a14.4 14.4 0 0 1 .697-.164 3.457 3.457 0 0 1 1.409 0c.233.036.464.091.695.164.55.196 1.29.464 2.216.806.94.33 1.936.69 2.986 1.08 1.06.391 2.062.763 3.001 1.117.941.354 1.68.641 2.216.86.758.318 1.319.678 1.686 1.081.366.39.548 1.032.548 1.923V30.19c0 1.526-.22 2.863-.659 4.01-.427 1.136-1.134 2.204-2.123 3.205-.99.988-2.314 2.002-3.974 3.04-1.66 1.037-3.71 2.209-6.153 3.515a3.3 3.3 0 0 1-.622.256 1.75 1.75 0 0 1-.512.092Z"/><path fill="#fff" d="M30.422 23.07v-1.075c0-2.37-2.003-4.297-4.465-4.297-2.461 0-4.464 1.928-4.464 4.297v1.074c-1.846 0-3.348 1.446-3.348 3.223v4.297c0 2.369 2.003 4.297 4.464 4.297h6.697c2.461 0 4.464-1.928 4.464-4.297v-4.297c0-1.777-1.502-3.223-3.348-3.223Zm-6.697-1.075c0-1.185 1.002-2.148 2.232-2.148 1.231 0 2.232.963 2.232 2.148v1.074h-4.464v-1.074Zm7.813 8.594c0 1.184-1.002 2.148-2.232 2.148h-6.697c-1.23 0-2.232-.964-2.232-2.148v-4.297c0-.593.5-1.074 1.116-1.074h8.929c.615 0 1.116.482 1.116 1.074v4.297Z"/><path fill="#fff" d="M25.957 30.198c-.863 0-1.562-.466-1.562-1.041v-1.042c0-.575.7-1.042 1.562-1.042.863 0 1.563.466 1.563 1.042v1.042c0 .575-.7 1.041-1.563 1.041Z"/></svg>
