<svg xmlns="http://www.w3.org/2000/svg" width="84" height="84" fill="none"><g clip-path="url(#a)"><path fill="#fff" d="M0 0h84v84H0z"/><path fill="#000" d="M0 0h2.27v2.27H0V0Zm2.27 0h2.27v2.27H2.27V0Zm2.27 0h2.27v2.27H4.54V0Zm2.27 0h2.271v2.27h-2.27V0Zm2.271 0h2.27v2.27h-2.27V0Zm2.27 0h2.27v2.27h-2.27V0Zm2.27 0h2.27v2.27h-2.27V0Zm4.541 0h2.27v2.27h-2.27V0Zm2.27 0h2.27v2.27h-2.27V0Zm9.082 0h2.27v2.27h-2.27V0Zm4.54 0h2.27v2.27h-2.27V0Zm6.81 0h2.271v2.27h-2.27V0Zm2.271 0h2.27v2.27h-2.27V0Zm2.27 0h2.27v2.27h-2.27V0Zm2.27 0h2.27v2.27h-2.27V0Zm6.812 0h2.27v2.27h-2.27V0Zm4.54 0h2.27v2.27h-2.27V0Zm2.27 0h2.27v2.27h-2.27V0Zm6.811 0h2.27v2.27h-2.27V0Zm2.27 0h2.27v2.27h-2.27V0Zm2.27 0h2.27v2.27h-2.27V0Zm2.27 0h2.271v2.27h-2.27V0Zm2.271 0h2.27v2.27h-2.27V0Zm2.27 0h2.27v2.27h-2.27V0Zm2.27 0H84v2.27h-2.27V0ZM0 2.27h2.27v2.27H0V2.27Zm13.622 0h2.27v2.27h-2.27V2.27Zm4.54 0h2.27v2.27h-2.27V2.27Zm4.54 0h2.271v2.27h-2.27V2.27Zm2.271 0h2.27v2.27h-2.27V2.27Zm6.81 0h2.271v2.27h-2.27V2.27Zm2.271 0h2.27v2.27h-2.27V2.27Zm2.27 0h2.27v2.27h-2.27V2.27Zm2.27 0h2.27v2.27h-2.27V2.27Zm4.541 0h2.27v2.27h-2.27V2.27Zm4.54 0h2.27v2.27h-2.27V2.27Zm2.27 0h2.271v2.27h-2.27V2.27Zm2.271 0h2.27v2.27h-2.27V2.27Zm2.27 0h2.27v2.27h-2.27V2.27Zm6.811 0h2.27v2.27h-2.27V2.27Zm6.811 0h2.27v2.27h-2.27V2.27Zm13.622 0H84v2.27h-2.27V2.27ZM0 4.54h2.27v2.27H0V4.54Zm4.54 0h2.27v2.27H4.54V4.54Zm2.27 0h2.271v2.27h-2.27V4.54Zm2.271 0h2.27v2.27h-2.27V4.54Zm4.54 0h2.27v2.27h-2.27V4.54Zm4.541 0h2.27v2.27h-2.27V4.54Zm2.27 0h2.27v2.27h-2.27V4.54Zm2.27 0h2.271v2.27h-2.27V4.54Zm4.541 0h2.27v2.27h-2.27V4.54Zm6.811 0h2.27v2.27h-2.27V4.54Zm2.27 0h2.27v2.27h-2.27V4.54Zm2.27 0h2.27v2.27h-2.27V4.54Zm6.811 0h2.27v2.27h-2.27V4.54Zm4.54 0h2.271v2.27h-2.27V4.54Zm4.541 0h2.27v2.27h-2.27V4.54Zm6.811 0h2.27v2.27h-2.27V4.54Zm2.27 0h2.27v2.27h-2.27V4.54Zm4.541 0h2.27v2.27h-2.27V4.54Zm4.54 0h2.27v2.27h-2.27V4.54Zm2.27 0h2.271v2.27h-2.27V4.54Zm2.271 0h2.27v2.27h-2.27V4.54Zm4.54 0H84v2.27h-2.27V4.54ZM0 6.81h2.27v2.271H0v-2.27Zm4.54 0h2.27v2.271H4.54v-2.27Zm2.27 0h2.271v2.271h-2.27v-2.27Zm2.271 0h2.27v2.271h-2.27v-2.27Zm4.54 0h2.27v2.271h-2.27v-2.27Zm4.541 0h2.27v2.271h-2.27v-2.27Zm9.081 0h2.27v2.271h-2.27v-2.27Zm2.27 0h2.27v2.271h-2.27v-2.27Zm4.541 0h2.27v2.271h-2.27v-2.27Zm2.27 0h2.27v2.271h-2.27v-2.27Zm9.081 0h2.27v2.271h-2.27v-2.27Zm4.54 0h2.271v2.271h-2.27v-2.27Zm2.271 0h2.27v2.271h-2.27v-2.27Zm6.811 0h2.27v2.271h-2.27v-2.27Zm2.27 0h2.27v2.271h-2.27v-2.27Zm6.811 0h2.27v2.271h-2.27v-2.27Zm4.54 0h2.27v2.271h-2.27v-2.27Zm2.27 0h2.271v2.271h-2.27v-2.27Zm2.271 0h2.27v2.271h-2.27v-2.27Zm4.54 0H84v2.271h-2.27v-2.27ZM0 9.082h2.27v2.27H0v-2.27Zm4.54 0h2.27v2.27H4.54v-2.27Zm2.27 0h2.271v2.27h-2.27v-2.27Zm2.271 0h2.27v2.27h-2.27v-2.27Zm4.54 0h2.27v2.27h-2.27v-2.27Zm4.541 0h2.27v2.27h-2.27v-2.27Zm4.54 0h2.271v2.27h-2.27v-2.27Zm2.271 0h2.27v2.27h-2.27v-2.27Zm6.81 0h2.271v2.27h-2.27v-2.27Zm4.541 0h2.27v2.27h-2.27v-2.27Zm6.811 0h2.27v2.27h-2.27v-2.27Zm6.81 0h2.271v2.27h-2.27v-2.27Zm2.271 0h2.27v2.27h-2.27v-2.27Zm6.811 0h2.27v2.27h-2.27v-2.27Zm2.27 0h2.27v2.27h-2.27v-2.27Zm2.27 0h2.27v2.27h-2.27v-2.27Zm4.541 0h2.27v2.27h-2.27v-2.27Zm4.54 0h2.27v2.27h-2.27v-2.27Zm2.27 0h2.271v2.27h-2.27v-2.27Zm2.271 0h2.27v2.27h-2.27v-2.27Zm4.54 0H84v2.27h-2.27v-2.27ZM0 11.351h2.27v2.27H0v-2.27Zm13.622 0h2.27v2.27h-2.27v-2.27Zm9.08 0h2.271v2.27h-2.27v-2.27Zm11.352 0h2.27v2.27h-2.27v-2.27Zm2.27 0h2.27v2.27h-2.27v-2.27Zm11.352 0h2.27v2.27h-2.27v-2.27Zm2.27 0h2.27v2.27h-2.27v-2.27Zm2.27 0h2.27v2.27h-2.27v-2.27Zm4.54 0h2.271v2.27h-2.27v-2.27Zm4.541 0h2.27v2.27h-2.27v-2.27Zm2.27 0h2.27v2.27h-2.27v-2.27Zm4.541 0h2.27v2.27h-2.27v-2.27Zm13.622 0H84v2.27h-2.27v-2.27ZM0 13.621h2.27v2.27H0v-2.27Zm2.27 0h2.27v2.27H2.27v-2.27Zm2.27 0h2.27v2.27H4.54v-2.27Zm2.27 0h2.271v2.27h-2.27v-2.27Zm2.271 0h2.27v2.27h-2.27v-2.27Zm2.27 0h2.27v2.27h-2.27v-2.27Zm2.27 0h2.27v2.27h-2.27v-2.27Zm4.541 0h2.27v2.27h-2.27v-2.27Zm4.54 0h2.271v2.27h-2.27v-2.27Zm4.541 0h2.27v2.27h-2.27v-2.27Zm4.54 0h2.271v2.27h-2.27v-2.27Zm4.541 0h2.27v2.27h-2.27v-2.27Zm4.54 0h2.271v2.27h-2.27v-2.27Zm4.541 0h2.27v2.27h-2.27v-2.27Zm4.54 0h2.271v2.27h-2.27v-2.27Zm4.541 0h2.27v2.27h-2.27v-2.27Zm4.541 0h2.27v2.27h-2.27v-2.27Zm4.54 0h2.27v2.27h-2.27v-2.27Zm4.541 0h2.27v2.27h-2.27v-2.27Zm2.27 0h2.27v2.27h-2.27v-2.27Zm2.27 0h2.27v2.27h-2.27v-2.27Zm2.27 0h2.271v2.27h-2.27v-2.27Zm2.271 0h2.27v2.27h-2.27v-2.27Zm2.27 0h2.27v2.27h-2.27v-2.27Zm2.27 0H84v2.27h-2.27v-2.27Zm-63.567 2.27h2.27v2.271h-2.27v-2.27Zm9.081 0h2.27v2.271h-2.27v-2.27Zm9.081 0h2.27v2.271h-2.27v-2.27Zm2.27 0h2.27v2.271h-2.27v-2.27Zm4.541 0h2.27v2.271h-2.27v-2.27Zm4.54 0h2.27v2.271h-2.27v-2.27Zm9.082 0h2.27v2.271h-2.27v-2.27Zm2.27 0h2.27v2.271h-2.27v-2.27Zm4.54 0h2.27v2.271h-2.27v-2.27ZM2.27 18.163h2.27v2.27H2.27v-2.27Zm2.27 0h2.27v2.27H4.54v-2.27Zm4.541 0h2.27v2.27h-2.27v-2.27Zm4.54 0h2.27v2.27h-2.27v-2.27Zm2.27 0h2.271v2.27h-2.27v-2.27Zm6.812 0h2.27v2.27h-2.27v-2.27Zm4.54 0h2.27v2.27h-2.27v-2.27Zm11.352 0h2.27v2.27h-2.27v-2.27Zm9.08 0h2.27v2.27h-2.27v-2.27Zm2.27 0h2.271v2.27h-2.27v-2.27Zm9.082 0h2.27v2.27h-2.27v-2.27Zm2.27 0h2.27v2.27h-2.27v-2.27Zm2.27 0h2.27v2.27h-2.27v-2.27Zm4.541 0h2.27v2.27h-2.27v-2.27Zm4.54 0h2.27v2.27h-2.27v-2.27Zm2.27 0h2.271v2.27h-2.27v-2.27Zm2.271 0h2.27v2.27h-2.27v-2.27Zm2.27 0h2.27v2.27h-2.27v-2.27Zm2.27 0H84v2.27h-2.27v-2.27ZM0 20.432h2.27v2.27H0v-2.27Zm2.27 0h2.27v2.27H2.27v-2.27Zm2.27 0h2.27v2.27H4.54v-2.27Zm4.541 0h2.27v2.27h-2.27v-2.27Zm11.351 0h2.27v2.27h-2.27v-2.27Zm2.27 0h2.271v2.27h-2.27v-2.27Zm2.271 0h2.27v2.27h-2.27v-2.27Zm2.27 0h2.27v2.27h-2.27v-2.27Zm4.54 0h2.271v2.27h-2.27v-2.27Zm2.271 0h2.27v2.27h-2.27v-2.27Zm11.351 0h2.27v2.27h-2.27v-2.27Zm9.081 0h2.27v2.27h-2.27v-2.27Zm4.541 0h2.27v2.27h-2.27v-2.27Zm2.27 0h2.27v2.27h-2.27v-2.27Zm2.27 0h2.27v2.27h-2.27v-2.27Zm2.27 0h2.271v2.27h-2.27v-2.27Zm4.541 0h2.27v2.27h-2.27v-2.27Zm4.54 0h2.271v2.27h-2.27v-2.27Zm6.812 0H84v2.27h-2.27v-2.27Zm-79.46 2.27h2.27v2.271H2.27v-2.27Zm11.352 0h2.27v2.271h-2.27v-2.27Zm2.27 0h2.27v2.271h-2.27v-2.27Zm13.622 0h2.27v2.271h-2.27v-2.27Zm4.54 0h2.27v2.271h-2.27v-2.27Zm2.27 0h2.27v2.271h-2.27v-2.27Zm6.811 0h2.27v2.271h-2.27v-2.27Zm6.81 0h2.271v2.271h-2.27v-2.27Zm6.812 0h2.27v2.271h-2.27v-2.27Zm4.54 0h2.27v2.271h-2.27v-2.27Zm2.27 0h2.27v2.271h-2.27v-2.27Zm4.541 0h2.27v2.271h-2.27v-2.27Zm2.27 0h2.27v2.271h-2.27v-2.27Zm2.27 0h2.27v2.271h-2.27v-2.27Zm2.27 0h2.271v2.271h-2.27v-2.27Zm4.541 0h2.27v2.271h-2.27v-2.27Zm2.27 0H84v2.271h-2.27v-2.27ZM0 24.974h2.27v2.27H0v-2.27Zm6.81 0h2.271v2.27h-2.27v-2.27Zm2.271 0h2.27v2.27h-2.27v-2.27Zm13.622 0h2.27v2.27h-2.27v-2.27Zm13.621 0h2.27v2.27h-2.27v-2.27Zm2.27 0h2.27v2.27h-2.27v-2.27Zm2.27 0h2.271v2.27h-2.27v-2.27Zm2.271 0h2.27v2.27h-2.27v-2.27Zm2.27 0h2.27v2.27h-2.27v-2.27Zm2.27 0h2.27v2.27h-2.27v-2.27Zm2.27 0h2.271v2.27h-2.27v-2.27Zm2.271 0h2.27v2.27h-2.27v-2.27Zm2.27 0h2.27v2.27h-2.27v-2.27Zm2.27 0h2.271v2.27h-2.27v-2.27Zm2.271 0h2.27v2.27h-2.27v-2.27Zm4.54 0h2.27v2.27h-2.27v-2.27Zm2.27 0h2.271v2.27h-2.27v-2.27Zm13.623 0h2.27v2.27h-2.27v-2.27Zm2.27 0H84v2.27h-2.27v-2.27ZM0 27.243h2.27v2.27H0v-2.27Zm4.54 0h2.27v2.27H4.54v-2.27Zm2.27 0h2.271v2.27h-2.27v-2.27Zm4.541 0h2.27v2.27h-2.27v-2.27Zm2.27 0h2.27v2.27h-2.27v-2.27Zm2.27 0h2.271v2.27h-2.27v-2.27Zm4.541 0h2.27v2.27h-2.27v-2.27Zm6.811 0h2.27v2.27h-2.27v-2.27Zm2.27 0h2.27v2.27h-2.27v-2.27Zm2.27 0h2.271v2.27h-2.27v-2.27Zm15.893 0h2.27v2.27h-2.27v-2.27Zm2.27 0h2.27v2.27h-2.27v-2.27Zm4.54 0h2.27v2.27h-2.27v-2.27Zm2.27 0h2.271v2.27h-2.27v-2.27Zm4.541 0h2.27v2.27h-2.27v-2.27Zm4.54 0h2.271v2.27h-2.27v-2.27Zm2.271 0h2.27v2.27h-2.27v-2.27Zm13.622 0H84v2.27h-2.27v-2.27ZM0 29.513h2.27v2.27H0v-2.27Zm2.27 0h2.27v2.27H2.27v-2.27Zm2.27 0h2.27v2.27H4.54v-2.27Zm2.27 0h2.271v2.27h-2.27v-2.27Zm2.271 0h2.27v2.27h-2.27v-2.27Zm2.27 0h2.27v2.27h-2.27v-2.27Zm4.54 0h2.271v2.27h-2.27v-2.27Zm9.082 0h2.27v2.27h-2.27v-2.27Zm2.27 0h2.27v2.27h-2.27v-2.27Zm2.27 0h2.27v2.27h-2.27v-2.27Zm9.082 0h2.27v2.27h-2.27v-2.27Zm4.54 0h2.27v2.27h-2.27v-2.27Zm11.352 0h2.27v2.27h-2.27v-2.27Zm2.27 0h2.27v2.27h-2.27v-2.27Zm6.81 0h2.27v2.27h-2.27v-2.27Zm4.541 0h2.27v2.27h-2.27v-2.27Zm6.81 0h2.271v2.27h-2.27v-2.27Zm2.271 0h2.27v2.27h-2.27v-2.27Zm4.54 0H84v2.27h-2.27v-2.27Zm-77.188 2.27h2.27v2.271H4.54v-2.27Zm6.81 0h2.27v2.271h-2.27v-2.27Zm2.27 0h2.27v2.271h-2.27v-2.27Zm2.27 0h2.271v2.271h-2.27v-2.27Zm2.271 0h2.27v2.271h-2.27v-2.27Zm2.27 0h2.27v2.271h-2.27v-2.27Zm4.541 0h2.27v2.271h-2.27v-2.27Zm2.27 0h2.27v2.271h-2.27v-2.27Zm4.54 0h2.271v2.271h-2.27v-2.27Zm9.082 0h2.27v2.271h-2.27v-2.27Zm2.27 0h2.27v2.271h-2.27v-2.27Zm4.54 0h2.27v2.271h-2.27v-2.27Zm6.812 0h2.27v2.271h-2.27v-2.27Zm2.27 0h2.27v2.271h-2.27v-2.27Zm11.351 0h2.27v2.271h-2.27v-2.27Zm2.27 0h2.27v2.271h-2.27v-2.27Zm2.27 0h2.27v2.271h-2.27v-2.27Zm4.541 0h2.27v2.271h-2.27v-2.27Zm2.27 0h2.27v2.271h-2.27v-2.27Zm2.27 0H84v2.271h-2.27v-2.27ZM4.542 34.055h2.27v2.27H4.54v-2.27Zm2.27 0h2.27v2.27h-2.27v-2.27Zm4.54 0h2.27v2.27h-2.27v-2.27Zm4.54 0h2.271v2.27h-2.27v-2.27Zm4.541 0h2.27v2.27h-2.27v-2.27Zm6.811 0h2.27v2.27h-2.27v-2.27Zm6.811 0h2.27v2.27h-2.27v-2.27Zm2.27 0h2.27v2.27h-2.27v-2.27Zm2.27 0h2.27v2.27h-2.27v-2.27Zm2.27 0h2.271v2.27h-2.27v-2.27Zm2.271 0h2.27v2.27h-2.27v-2.27Zm2.27 0h2.27v2.27h-2.27v-2.27Zm11.352 0h2.27v2.27h-2.27v-2.27Zm2.27 0h2.27v2.27h-2.27v-2.27Zm2.27 0h2.27v2.27h-2.27v-2.27Zm2.27 0h2.27v2.27h-2.27v-2.27Zm4.541 0h2.27v2.27h-2.27v-2.27Zm2.27 0h2.27v2.27h-2.27v-2.27Zm2.27 0h2.27v2.27h-2.27v-2.27Zm9.082 0H84v2.27h-2.27v-2.27ZM0 36.324h2.27v2.27H0v-2.27Zm6.81 0h2.271v2.27h-2.27v-2.27Zm2.271 0h2.27v2.27h-2.27v-2.27Zm2.27 0h2.27v2.27h-2.27v-2.27Zm2.27 0h2.27v2.27h-2.27v-2.27Zm2.27 0h2.271v2.27h-2.27v-2.27Zm2.271 0h2.27v2.27h-2.27v-2.27Zm22.703 0h2.27v2.27h-2.27v-2.27Zm2.27 0h2.27v2.27h-2.27v-2.27Zm2.27 0h2.27v2.27h-2.27v-2.27Zm9.081 0h2.27v2.27h-2.27v-2.27Zm2.27 0h2.271v2.27h-2.27v-2.27Zm2.271 0h2.27v2.27h-2.27v-2.27Zm2.27 0h2.27v2.27h-2.27v-2.27Zm6.811 0h2.27v2.27h-2.27v-2.27Zm2.27 0h2.27v2.27h-2.27v-2.27Zm4.54 0h2.271v2.27h-2.27v-2.27Zm-70.377 2.27h2.27v2.27H4.54v-2.27Zm2.27 0h2.27v2.27h-2.27v-2.27Zm4.54 0h2.27v2.27h-2.27v-2.27Zm9.081 0h2.27v2.27h-2.27v-2.27Zm2.27 0h2.271v2.27h-2.27v-2.27Zm2.271 0h2.27v2.27h-2.27v-2.27Zm11.351 0h2.27v2.27h-2.27v-2.27Zm6.811 0h2.27v2.27h-2.27v-2.27Zm9.081 0h2.27v2.27h-2.27v-2.27Zm2.27 0h2.27v2.27h-2.27v-2.27Zm2.27 0h2.271v2.27h-2.27v-2.27Zm6.812 0h2.27v2.27h-2.27v-2.27Zm2.27 0h2.27v2.27h-2.27v-2.27Zm2.27 0h2.27v2.27h-2.27v-2.27Zm6.81 0h2.271v2.27h-2.27v-2.27Zm4.541 0h2.27v2.27h-2.27v-2.27Zm2.27 0H84v2.27h-2.27v-2.27ZM0 40.865h2.27v2.271H0v-2.27Zm2.27 0h2.27v2.271H2.27v-2.27Zm2.27 0h2.27v2.271H4.54v-2.27Zm4.541 0h2.27v2.271h-2.27v-2.27Zm2.27 0h2.27v2.271h-2.27v-2.27Zm2.27 0h2.27v2.271h-2.27v-2.27Zm6.811 0h2.27v2.271h-2.27v-2.27Zm13.622 0h2.27v2.271h-2.27v-2.27Zm4.54 0h2.27v2.271h-2.27v-2.27Zm2.27 0h2.271v2.271h-2.27v-2.27Zm4.541 0h2.27v2.271h-2.27v-2.27Zm2.27 0h2.27v2.271h-2.27v-2.27Zm4.541 0h2.27v2.271h-2.27v-2.27Zm2.27 0h2.27v2.271h-2.27v-2.27Zm4.541 0h2.27v2.271h-2.27v-2.27Zm6.81 0h2.271v2.271h-2.27v-2.27Zm4.541 0h2.27v2.271h-2.27v-2.27Zm2.27 0h2.27v2.271h-2.27v-2.27Zm4.541 0h2.27v2.271h-2.27v-2.27Zm2.27 0h2.27v2.271h-2.27v-2.27Zm2.27 0H84v2.271h-2.27v-2.27ZM0 43.136h2.27v2.27H0v-2.27Zm4.54 0h2.27v2.27H4.54v-2.27Zm2.27 0h2.271v2.27h-2.27v-2.27Zm4.541 0h2.27v2.27h-2.27v-2.27Zm4.54 0h2.271v2.27h-2.27v-2.27Zm2.271 0h2.27v2.27h-2.27v-2.27Zm2.27 0h2.27v2.27h-2.27v-2.27Zm2.27 0h2.271v2.27h-2.27v-2.27Zm6.811 0h2.27v2.27h-2.27v-2.27Zm2.27 0h2.271v2.27h-2.27v-2.27Zm2.271 0h2.27v2.27h-2.27v-2.27Zm2.27 0h2.27v2.27h-2.27v-2.27Zm4.54 0h2.271v2.27h-2.27v-2.27Zm2.271 0h2.27v2.27h-2.27v-2.27Zm2.27 0h2.27v2.27h-2.27v-2.27Zm2.27 0h2.27v2.27h-2.27v-2.27Zm2.27 0h2.271v2.27h-2.27v-2.27Zm4.541 0h2.27v2.27h-2.27v-2.27Zm2.27 0h2.271v2.27h-2.27v-2.27Zm2.271 0h2.27v2.27h-2.27v-2.27Zm4.54 0h2.27v2.27h-2.27v-2.27Zm4.541 0h2.27v2.27h-2.27v-2.27ZM2.27 45.405h2.27v2.27H2.27v-2.27Zm4.54 0h2.271v2.27h-2.27v-2.27Zm6.812 0h2.27v2.27h-2.27v-2.27Zm6.81 0h2.27v2.27h-2.27v-2.27Zm4.541 0h2.27v2.27h-2.27v-2.27Zm4.54 0h2.27v2.27h-2.27v-2.27Zm4.541 0h2.27v2.27h-2.27v-2.27Zm2.27 0h2.27v2.27h-2.27v-2.27Zm2.27 0h2.27v2.27h-2.27v-2.27Zm2.27 0h2.271v2.27h-2.27v-2.27Zm6.812 0h2.27v2.27h-2.27v-2.27Zm4.54 0h2.27v2.27h-2.27v-2.27Zm4.54 0h2.271v2.27h-2.27v-2.27Zm4.541 0h2.27v2.27h-2.27v-2.27Zm2.27 0h2.27v2.27h-2.27v-2.27Zm2.27 0h2.271v2.27h-2.27v-2.27Zm2.271 0h2.27v2.27h-2.27v-2.27Zm2.27 0h2.27v2.27h-2.27v-2.27Zm11.352 0H84v2.27h-2.27v-2.27Zm-79.46 2.27h2.27v2.27H2.27v-2.27Zm2.27 0h2.27v2.27H4.54v-2.27Zm2.27 0h2.271v2.27h-2.27v-2.27Zm2.271 0h2.27v2.27h-2.27v-2.27Zm9.081 0h2.27v2.27h-2.27v-2.27Zm4.54 0h2.271v2.27h-2.27v-2.27Zm6.811 0h2.27v2.27h-2.27v-2.27Zm9.082 0h2.27v2.27h-2.27v-2.27Zm2.27 0h2.27v2.27h-2.27v-2.27Zm4.54 0h2.27v2.27h-2.27v-2.27Zm9.081 0h2.27v2.27h-2.27v-2.27Zm13.622 0h2.27v2.27h-2.27v-2.27Zm6.81 0h2.271v2.27h-2.27v-2.27Zm4.541 0h2.27v2.27h-2.27v-2.27Zm2.27 0H84v2.27h-2.27v-2.27ZM0 49.946h2.27v2.271H0v-2.27Zm4.54 0h2.27v2.271H4.54v-2.27Zm9.082 0h2.27v2.271h-2.27v-2.27Zm6.81 0h2.27v2.271h-2.27v-2.27Zm6.811 0h2.27v2.271h-2.27v-2.27Zm2.27 0h2.27v2.271h-2.27v-2.27Zm2.27 0h2.271v2.271h-2.27v-2.27Zm2.271 0h2.27v2.271h-2.27v-2.27Zm6.81 0h2.271v2.271h-2.27v-2.27Zm2.271 0h2.27v2.271h-2.27v-2.27Zm13.622 0h2.27v2.271h-2.27v-2.27Zm6.81 0h2.27v2.271h-2.27v-2.27Zm2.27 0h2.271v2.271h-2.27v-2.27Zm6.812 0h2.27v2.271h-2.27v-2.27Zm4.54 0h2.27v2.271h-2.27v-2.27Zm2.27 0h2.27v2.271h-2.27v-2.27Zm2.27 0H84v2.271h-2.27v-2.27ZM2.27 52.217h2.27v2.27H2.27v-2.27Zm2.27 0h2.27v2.27H4.54v-2.27Zm6.811 0h2.27v2.27h-2.27v-2.27Zm6.811 0h2.27v2.27h-2.27v-2.27Zm2.27 0h2.27v2.27h-2.27v-2.27Zm2.27 0h2.271v2.27h-2.27v-2.27Zm9.082 0h2.27v2.27h-2.27v-2.27Zm2.27 0h2.27v2.27h-2.27v-2.27Zm2.27 0h2.27v2.27h-2.27v-2.27Zm4.54 0h2.271v2.27h-2.27v-2.27Zm2.271 0h2.27v2.27h-2.27v-2.27Zm2.27 0h2.27v2.27h-2.27v-2.27Zm2.27 0h2.27v2.27h-2.27v-2.27Zm2.27 0h2.271v2.27h-2.27v-2.27Zm2.271 0h2.27v2.27h-2.27v-2.27Zm13.622 0h2.27v2.27h-2.27v-2.27Zm2.27 0h2.27v2.27h-2.27v-2.27Zm6.81 0h2.271v2.27h-2.27v-2.27Zm4.541 0h2.27v2.27h-2.27v-2.27Zm2.27 0H84v2.27h-2.27v-2.27Zm-74.918 2.27h2.27v2.27h-2.27v-2.27Zm2.27 0h2.27v2.27h-2.27v-2.27Zm4.54 0h2.27v2.27h-2.27v-2.27Zm2.27 0h2.271v2.27h-2.27v-2.27Zm9.082 0h2.27v2.27h-2.27v-2.27Zm6.81 0h2.271v2.27h-2.27v-2.27Zm11.352 0h2.27v2.27h-2.27v-2.27Zm2.27 0h2.27v2.27h-2.27v-2.27Zm2.27 0h2.27v2.27h-2.27v-2.27Zm6.812 0h2.27v2.27h-2.27v-2.27Zm6.81 0h2.27v2.27h-2.27v-2.27Zm4.54 0h2.271v2.27h-2.27v-2.27Zm15.893 0H84v2.27h-2.27v-2.27Zm-79.46 2.27h2.27v2.271H2.27v-2.27Zm4.54 0h2.271v2.271h-2.27v-2.27Zm2.271 0h2.27v2.271h-2.27v-2.27Zm13.622 0h2.27v2.271h-2.27v-2.27Zm6.81 0h2.27v2.271h-2.27v-2.27Zm2.27 0h2.271v2.271h-2.27v-2.27Zm2.271 0h2.27v2.271h-2.27v-2.27Zm2.27 0h2.27v2.271h-2.27v-2.27Zm2.27 0h2.27v2.271h-2.27v-2.27Zm2.27 0h2.271v2.271h-2.27v-2.27Zm2.271 0h2.27v2.271h-2.27v-2.27Zm2.27 0h2.27v2.271h-2.27v-2.27Zm9.081 0h2.27v2.271h-2.27v-2.27Zm2.27 0h2.271v2.271h-2.27v-2.27Zm4.541 0h2.27v2.271h-2.27v-2.27Zm4.54 0h2.271v2.271h-2.27v-2.27Zm11.352 0h2.27v2.271h-2.27v-2.27Zm2.27 0h2.27v2.271h-2.27v-2.27Zm2.27 0H84v2.271h-2.27v-2.27ZM0 59.028h2.27v2.27H0v-2.27Zm6.81 0h2.271v2.27h-2.27v-2.27Zm4.541 0h2.27v2.27h-2.27v-2.27Zm2.27 0h2.27v2.27h-2.27v-2.27Zm6.811 0h2.27v2.27h-2.27v-2.27Zm4.541 0h2.27v2.27h-2.27v-2.27Zm6.81 0h2.271v2.27h-2.27v-2.27Zm9.082 0h2.27v2.27h-2.27v-2.27Zm18.162 0h2.27v2.27h-2.27v-2.27Zm9.081 0h2.27v2.27h-2.27v-2.27Zm4.54 0h2.27v2.27h-2.27v-2.27Zm2.27 0h2.271v2.27h-2.27v-2.27Zm4.541 0h2.27v2.27h-2.27v-2.27Zm2.27 0H84v2.27h-2.27v-2.27ZM2.27 61.297h2.27v2.27H2.27v-2.27Zm4.54 0h2.271v2.27h-2.27v-2.27Zm4.541 0h2.27v2.27h-2.27v-2.27Zm4.54 0h2.271v2.27h-2.27v-2.27Zm6.812 0h2.27v2.27h-2.27v-2.27Zm4.54 0h2.27v2.27h-2.27v-2.27Zm9.081 0h2.27v2.27h-2.27v-2.27Zm2.27 0h2.27v2.27h-2.27v-2.27Zm4.541 0h2.27v2.27h-2.27v-2.27Zm4.54 0h2.27v2.27h-2.27v-2.27Zm2.27 0h2.271v2.27h-2.27v-2.27Zm4.541 0h2.27v2.27h-2.27v-2.27Zm2.27 0h2.271v2.27h-2.27v-2.27Zm2.271 0h2.27v2.27h-2.27v-2.27Zm2.27 0h2.27v2.27h-2.27v-2.27Zm6.811 0h2.27v2.27h-2.27v-2.27ZM0 63.567h2.27v2.27H0v-2.27Zm9.081 0h2.27v2.27h-2.27v-2.27Zm4.54 0h2.27v2.27h-2.27v-2.27Zm4.541 0h2.27v2.27h-2.27v-2.27Zm4.54 0h2.271v2.27h-2.27v-2.27Zm4.541 0h2.27v2.27h-2.27v-2.27Zm2.27 0h2.27v2.27h-2.27v-2.27Zm6.811 0h2.27v2.27h-2.27v-2.27Zm4.54 0h2.271v2.27h-2.27v-2.27Zm2.271 0h2.27v2.27h-2.27v-2.27Zm2.27 0h2.27v2.27h-2.27v-2.27Zm2.27 0h2.27v2.27h-2.27v-2.27Zm6.812 0h2.27v2.27h-2.27v-2.27Zm2.27 0h2.27v2.27h-2.27v-2.27Zm6.81 0h2.27v2.27h-2.27v-2.27Zm2.27 0h2.271v2.27h-2.27v-2.27Zm2.271 0h2.27v2.27h-2.27v-2.27Zm2.27 0h2.27v2.27h-2.27v-2.27Zm2.27 0h2.27v2.27h-2.27v-2.27Zm9.082 0H84v2.27h-2.27v-2.27Zm-63.568 2.27h2.27v2.271h-2.27v-2.27Zm4.54 0h2.271v2.271h-2.27v-2.27Zm2.271 0h2.27v2.271h-2.27v-2.27Zm4.54 0h2.27v2.271h-2.27v-2.27Zm2.27 0h2.271v2.271h-2.27v-2.27Zm2.271 0h2.27v2.271h-2.27v-2.27Zm2.27 0h2.27v2.271h-2.27v-2.27Zm2.27 0h2.27v2.271h-2.27v-2.27Zm9.082 0h2.27v2.271h-2.27v-2.27Zm2.27 0h2.27v2.271h-2.27v-2.27Zm4.54 0h2.27v2.271h-2.27v-2.27Zm6.811 0h2.27v2.271h-2.27v-2.27Zm2.27 0h2.27v2.271h-2.27v-2.27Zm9.082 0h2.27v2.271h-2.27v-2.27Zm6.81 0h2.27v2.271h-2.27v-2.27Zm2.27 0H84v2.271h-2.27v-2.27ZM0 68.109h2.27v2.27H0v-2.27Zm2.27 0h2.27v2.27H2.27v-2.27Zm2.27 0h2.27v2.27H4.54v-2.27Zm2.27 0h2.271v2.27h-2.27v-2.27Zm2.271 0h2.27v2.27h-2.27v-2.27Zm2.27 0h2.27v2.27h-2.27v-2.27Zm2.27 0h2.27v2.27h-2.27v-2.27Zm4.541 0h2.27v2.27h-2.27v-2.27Zm9.081 0h2.27v2.27h-2.27v-2.27Zm4.54 0h2.271v2.27h-2.27v-2.27Zm4.541 0h2.27v2.27h-2.27v-2.27Zm2.27 0h2.27v2.27h-2.27v-2.27Zm6.811 0h2.27v2.27h-2.27v-2.27Zm4.54 0h2.271v2.27h-2.27v-2.27Zm4.541 0h2.27v2.27h-2.27v-2.27Zm2.27 0h2.271v2.27h-2.27v-2.27Zm4.541 0h2.27v2.27h-2.27v-2.27Zm2.27 0h2.27v2.27h-2.27v-2.27Zm4.541 0h2.27v2.27h-2.27v-2.27Zm4.54 0h2.27v2.27h-2.27v-2.27Zm4.541 0h2.27v2.27h-2.27v-2.27Zm2.27 0h2.27v2.27h-2.27v-2.27Zm2.27 0H84v2.27h-2.27v-2.27ZM0 70.378h2.27v2.27H0v-2.27Zm13.622 0h2.27v2.27h-2.27v-2.27Zm9.08 0h2.271v2.27h-2.27v-2.27Zm4.541 0h2.27v2.27h-2.27v-2.27Zm2.27 0h2.27v2.27h-2.27v-2.27Zm4.541 0h2.27v2.27h-2.27v-2.27Zm2.27 0h2.27v2.27h-2.27v-2.27Zm4.54 0h2.271v2.27h-2.27v-2.27Zm6.812 0h2.27v2.27h-2.27v-2.27Zm2.27 0h2.27v2.27h-2.27v-2.27Zm2.27 0h2.27v2.27h-2.27v-2.27Zm2.27 0h2.27v2.27h-2.27v-2.27Zm2.27 0h2.271v2.27h-2.27v-2.27Zm2.271 0h2.27v2.27h-2.27v-2.27Zm2.27 0h2.27v2.27h-2.27v-2.27Zm2.27 0h2.27v2.27h-2.27v-2.27Zm9.082 0h2.27v2.27h-2.27v-2.27Zm9.08 0H84v2.27h-2.27v-2.27ZM0 72.648h2.27v2.27H0v-2.27Zm4.54 0h2.27v2.27H4.54v-2.27Zm2.27 0h2.271v2.27h-2.27v-2.27Zm2.271 0h2.27v2.27h-2.27v-2.27Zm4.54 0h2.27v2.27h-2.27v-2.27Zm4.541 0h2.27v2.27h-2.27v-2.27Zm2.27 0h2.27v2.27h-2.27v-2.27Zm11.352 0h2.27v2.27h-2.27v-2.27Zm4.54 0h2.27v2.27h-2.27v-2.27Zm9.081 0h2.27v2.27h-2.27v-2.27Zm4.54 0h2.271v2.27h-2.27v-2.27Zm6.812 0h2.27v2.27h-2.27v-2.27Zm6.81 0h2.27v2.27h-2.27v-2.27Zm2.27 0h2.271v2.27h-2.27v-2.27Zm2.271 0h2.27v2.27h-2.27v-2.27Zm2.27 0h2.27v2.27h-2.27v-2.27Zm2.27 0h2.27v2.27h-2.27v-2.27Zm2.27 0h2.271v2.27h-2.27v-2.27Zm6.812 0H84v2.27h-2.27v-2.27ZM0 74.919h2.27v2.271H0v-2.27Zm4.54 0h2.27v2.271H4.54v-2.27Zm2.27 0h2.271v2.271h-2.27v-2.27Zm2.271 0h2.27v2.271h-2.27v-2.27Zm4.54 0h2.27v2.271h-2.27v-2.27Zm15.893 0h2.27v2.271h-2.27v-2.27Zm2.27 0h2.27v2.271h-2.27v-2.27Zm4.54 0h2.27v2.271h-2.27v-2.27Zm2.27 0h2.27v2.271h-2.27v-2.27Zm4.541 0h2.27v2.271h-2.27v-2.27Zm2.27 0h2.27v2.271h-2.27v-2.27Zm2.27 0h2.27v2.271h-2.27v-2.27Zm2.27 0h2.271v2.271h-2.27v-2.27Zm2.271 0h2.27v2.271h-2.27v-2.27Zm4.54 0h2.271v2.271h-2.27v-2.27Zm6.812 0h2.27v2.271h-2.27v-2.27Zm2.27 0h2.27v2.271h-2.27v-2.27Zm4.54 0h2.27v2.271h-2.27v-2.27Zm2.27 0h2.27v2.271h-2.27v-2.27Zm4.541 0h2.27v2.271h-2.27v-2.27Zm4.54 0H84v2.271h-2.27v-2.27ZM0 77.19h2.27v2.27H0v-2.27Zm4.54 0h2.27v2.27H4.54v-2.27Zm2.27 0h2.271v2.27h-2.27v-2.27Zm2.271 0h2.27v2.27h-2.27v-2.27Zm4.54 0h2.27v2.27h-2.27v-2.27Zm4.541 0h2.27v2.27h-2.27v-2.27Zm2.27 0h2.27v2.27h-2.27v-2.27Zm4.541 0h2.27v2.27h-2.27v-2.27Zm2.27 0h2.27v2.27h-2.27v-2.27Zm6.811 0h2.27v2.27h-2.27v-2.27Zm4.54 0h2.27v2.27h-2.27v-2.27Zm2.27 0h2.271v2.27h-2.27v-2.27Zm2.271 0h2.27v2.27h-2.27v-2.27Zm2.27 0h2.27v2.27h-2.27v-2.27Zm4.54 0h2.271v2.27h-2.27v-2.27Zm6.812 0h2.27v2.27h-2.27v-2.27Zm6.81 0h2.27v2.27h-2.27v-2.27Zm2.27 0h2.271v2.27h-2.27v-2.27Zm4.541 0h2.27v2.27h-2.27v-2.27Zm2.27 0h2.27v2.27h-2.27v-2.27Zm4.541 0h2.27v2.27h-2.27v-2.27Zm4.54 0H84v2.27h-2.27v-2.27ZM0 79.46h2.27v2.27H0v-2.27Zm13.622 0h2.27v2.27h-2.27v-2.27Zm4.54 0h2.27v2.27h-2.27v-2.27Zm9.081 0h2.27v2.27h-2.27v-2.27Zm9.081 0h2.27v2.27h-2.27v-2.27Zm4.54 0h2.271v2.27h-2.27v-2.27Zm4.541 0h2.27v2.27h-2.27v-2.27Zm2.27 0h2.27v2.27h-2.27v-2.27Zm2.27 0h2.271v2.27h-2.27v-2.27Zm2.271 0h2.27v2.27h-2.27v-2.27Zm4.54 0h2.271v2.27h-2.27v-2.27Zm4.541 0h2.27v2.27h-2.27v-2.27Zm2.27 0h2.27v2.27h-2.27v-2.27Zm4.541 0h2.27v2.27h-2.27v-2.27Zm11.352 0h2.27v2.27h-2.27v-2.27ZM0 81.73h2.27V84H0v-2.27Zm2.27 0h2.27V84H2.27v-2.27Zm2.27 0h2.27V84H4.54v-2.27Zm2.27 0h2.271V84h-2.27v-2.27Zm2.271 0h2.27V84h-2.27v-2.27Zm2.27 0h2.27V84h-2.27v-2.27Zm2.27 0h2.27V84h-2.27v-2.27Zm13.622 0h2.27V84h-2.27v-2.27Zm2.27 0h2.27V84h-2.27v-2.27Zm4.541 0h2.27V84h-2.27v-2.27Zm4.54 0h2.27V84h-2.27v-2.27Zm4.541 0h2.27V84h-2.27v-2.27Zm4.54 0h2.27V84h-2.27v-2.27Zm6.812 0h2.27V84h-2.27v-2.27Zm2.27 0h2.27V84h-2.27v-2.27Zm4.54 0h2.27V84h-2.27v-2.27Zm2.27 0h2.27V84h-2.27v-2.27Zm6.811 0h2.27V84h-2.27v-2.27Zm4.54 0h2.271V84h-2.27v-2.27Zm4.541 0h2.27V84h-2.27v-2.27Zm2.27 0H84V84h-2.27v-2.27Z"/></g><defs><clipPath id="a"><path fill="#fff" d="M0 0h84v84H0z"/></clipPath></defs></svg>
