<svg xmlns="http://www.w3.org/2000/svg" width="86" height="86" fill="none"><path fill="#000" d="M1.02 1h2.27v2.27H1.02V1ZM3.29 1h2.27v2.27H3.29V1Z"/><path fill="#000" d="M5.56 1h2.27v2.27H5.56V1ZM7.83 1h2.27v2.27H7.83V1ZM10.1 1h2.27v2.27H10.1V1ZM12.37 1h2.27v2.27h-2.27V1ZM14.64 1h2.271v2.27h-2.27V1ZM25.992 1h2.27v2.27h-2.27V1ZM32.803 1h2.27v2.27h-2.27V1ZM37.343 1h2.27v2.27h-2.27V1ZM39.614 1h2.27v2.27h-2.27V1ZM41.884 1h2.27v2.27h-2.27V1ZM46.425 1h2.27v2.27h-2.27V1ZM48.695 1h2.27v2.27h-2.27V1ZM50.965 1h2.27v2.27h-2.27V1ZM55.506 1h2.27v2.27h-2.27V1ZM69.127 1h2.27v2.27h-2.27V1ZM71.397 1h2.27v2.27h-2.27V1ZM73.668 1h2.27v2.27h-2.27V1ZM75.938 1h2.27v2.27h-2.27V1ZM78.208 1h2.27v2.27h-2.27V1ZM80.479 1h2.27v2.27h-2.27V1ZM82.749 1h2.27v2.27h-2.27V1ZM1.02 3.27h2.27v2.27H1.02V3.27ZM14.64 3.27h2.271v2.27h-2.27V3.27ZM25.992 3.27h2.27v2.27h-2.27V3.27ZM30.533 3.27h2.27v2.27h-2.27V3.27Z"/><path fill="#000" d="M32.803 3.27h2.27v2.27h-2.27V3.27ZM39.614 3.27h2.27v2.27h-2.27V3.27ZM41.884 3.27h2.27v2.27h-2.27V3.27ZM44.154 3.27h2.27v2.27h-2.27V3.27ZM48.695 3.27h2.27v2.27h-2.27V3.27ZM62.316 3.27h2.27v2.27h-2.27V3.27ZM69.127 3.27h2.27v2.27h-2.27V3.27ZM82.749 3.27h2.27v2.27h-2.27V3.27ZM1.02 5.54h2.27v2.27H1.02V5.54ZM5.56 5.54h2.27v2.27H5.56V5.54ZM7.83 5.54h2.27v2.27H7.83V5.54ZM10.1 5.54h2.27v2.27H10.1V5.54ZM14.64 5.54h2.271v2.27h-2.27V5.54ZM19.181 5.54h2.27v2.27h-2.27V5.54ZM21.452 5.54h2.27v2.27h-2.27V5.54ZM23.722 5.54h2.27v2.27h-2.27V5.54ZM30.533 5.54h2.27v2.27h-2.27V5.54ZM35.073 5.54h2.27v2.27h-2.27V5.54ZM37.343 5.54h2.27v2.27h-2.27V5.54ZM44.154 5.54h2.27v2.27h-2.27V5.54ZM46.425 5.54h2.27v2.27h-2.27V5.54ZM48.695 5.54h2.27v2.27h-2.27V5.54ZM55.506 5.54h2.27v2.27h-2.27V5.54ZM62.316 5.54h2.27v2.27h-2.27V5.54ZM69.127 5.54h2.27v2.27h-2.27V5.54ZM73.668 5.54h2.27v2.27h-2.27V5.54ZM75.938 5.54h2.27v2.27h-2.27V5.54ZM78.208 5.54h2.27v2.27h-2.27V5.54ZM82.749 5.54h2.27v2.27h-2.27V5.54Z"/><path fill="#000" d="M1.02 7.81h2.27v2.271H1.02v-2.27ZM5.56 7.81h2.27v2.271H5.56v-2.27ZM7.83 7.81h2.27v2.271H7.83v-2.27ZM10.1 7.81h2.27v2.271H10.1v-2.27ZM14.64 7.81h2.271v2.271h-2.27v-2.27ZM19.181 7.81h2.27v2.271h-2.27v-2.27ZM21.452 7.81h2.27v2.271h-2.27v-2.27ZM28.262 7.81h2.27v2.271h-2.27v-2.27ZM30.533 7.81h2.27v2.271h-2.27v-2.27Z"/><path fill="#000" d="M32.803 7.81h2.27v2.271h-2.27v-2.27ZM35.073 7.81h2.27v2.271h-2.27v-2.27ZM37.343 7.81h2.27v2.271h-2.27v-2.27ZM39.614 7.81h2.27v2.271h-2.27v-2.27ZM41.884 7.81h2.27v2.271h-2.27v-2.27ZM44.154 7.81h2.27v2.271h-2.27v-2.27ZM50.965 7.81h2.27v2.271h-2.27v-2.27ZM57.776 7.81h2.27v2.271h-2.27v-2.27Z"/><path fill="#000" d="M60.046 7.81h2.27v2.271h-2.27v-2.27Z"/><path fill="#000" d="M62.316 7.81h2.27v2.271h-2.27v-2.27ZM64.587 7.81h2.27v2.271h-2.27v-2.27ZM69.127 7.81h2.27v2.271h-2.27v-2.27ZM73.668 7.81h2.27v2.271h-2.27v-2.27ZM75.938 7.81h2.27v2.271h-2.27v-2.27ZM78.208 7.81h2.27v2.271h-2.27v-2.27ZM82.749 7.81h2.27v2.271h-2.27v-2.27ZM1.02 10.081h2.27v2.27H1.02v-2.27ZM5.56 10.081h2.27v2.27H5.56v-2.27ZM7.83 10.081h2.27v2.27H7.83v-2.27ZM10.1 10.081h2.27v2.27H10.1v-2.27ZM14.64 10.081h2.271v2.27h-2.27v-2.27ZM19.181 10.081h2.27v2.27h-2.27v-2.27ZM30.533 10.081h2.27v2.27h-2.27v-2.27ZM37.343 10.081h2.27v2.27h-2.27v-2.27ZM41.884 10.081h2.27v2.27h-2.27v-2.27ZM44.154 10.081h2.27v2.27h-2.27v-2.27ZM46.425 10.081h2.27v2.27h-2.27v-2.27ZM50.965 10.081h2.27v2.27h-2.27v-2.27Z"/><path fill="#000" d="M53.235 10.081h2.27v2.27h-2.27v-2.27ZM57.776 10.081h2.27v2.27h-2.27v-2.27ZM64.587 10.081h2.27v2.27h-2.27v-2.27ZM69.127 10.081h2.27v2.27h-2.27v-2.27ZM73.668 10.081h2.27v2.27h-2.27v-2.27ZM75.938 10.081h2.27v2.27h-2.27v-2.27ZM78.208 10.081h2.27v2.27h-2.27v-2.27ZM82.749 10.081h2.27v2.27h-2.27v-2.27ZM1.02 12.351h2.27v2.27H1.02v-2.27ZM14.64 12.351h2.271v2.27h-2.27v-2.27ZM19.181 12.351h2.27v2.27h-2.27v-2.27ZM21.452 12.351h2.27v2.27h-2.27v-2.27ZM25.992 12.351h2.27v2.27h-2.27v-2.27ZM32.803 12.351h2.27v2.27h-2.27v-2.27ZM37.343 12.351h2.27v2.27h-2.27v-2.27ZM41.884 12.351h2.27v2.27h-2.27v-2.27ZM46.425 12.351h2.27v2.27h-2.27v-2.27ZM50.965 12.351h2.27v2.27h-2.27v-2.27ZM62.316 12.351h2.27v2.27h-2.27v-2.27ZM69.127 12.351h2.27v2.27h-2.27v-2.27ZM82.749 12.351h2.27v2.27h-2.27v-2.27ZM1.02 14.622h2.27v2.27H1.02v-2.27ZM3.29 14.622h2.27v2.27H3.29v-2.27Z"/><path fill="#000" d="M5.56 14.622h2.27v2.27H5.56v-2.27ZM7.83 14.622h2.27v2.27H7.83v-2.27ZM10.1 14.622h2.27v2.27H10.1v-2.27ZM12.37 14.622h2.27v2.27h-2.27v-2.27ZM14.64 14.622h2.271v2.27h-2.27v-2.27ZM19.181 14.622h2.27v2.27h-2.27v-2.27ZM23.722 14.622h2.27v2.27h-2.27v-2.27ZM28.262 14.622h2.27v2.27h-2.27v-2.27ZM32.803 14.622h2.27v2.27h-2.27v-2.27ZM37.343 14.622h2.27v2.27h-2.27v-2.27ZM41.884 14.622h2.27v2.27h-2.27v-2.27ZM46.425 14.622h2.27v2.27h-2.27v-2.27ZM50.965 14.622h2.27v2.27h-2.27v-2.27ZM55.506 14.622h2.27v2.27h-2.27v-2.27ZM60.046 14.622h2.27v2.27h-2.27v-2.27ZM64.587 14.622h2.27v2.27h-2.27v-2.27ZM69.127 14.622h2.27v2.27h-2.27v-2.27ZM71.397 14.622h2.27v2.27h-2.27v-2.27ZM73.668 14.622h2.27v2.27h-2.27v-2.27ZM75.938 14.622h2.27v2.27h-2.27v-2.27ZM78.208 14.622h2.27v2.27h-2.27v-2.27ZM80.479 14.622h2.27v2.27h-2.27v-2.27ZM82.749 14.622h2.27v2.27h-2.27v-2.27ZM19.181 16.892h2.27v2.27h-2.27v-2.27ZM23.722 16.892h2.27v2.27h-2.27v-2.27ZM25.992 16.892h2.27v2.27h-2.27v-2.27ZM30.533 16.892h2.27v2.27h-2.27v-2.27Z"/><path fill="#000" d="M32.803 16.892h2.27v2.27h-2.27v-2.27ZM35.073 16.892h2.27v2.27h-2.27v-2.27ZM37.343 16.892h2.27v2.27h-2.27v-2.27ZM44.154 16.892h2.27v2.27h-2.27v-2.27ZM55.506 16.892h2.27v2.27h-2.27v-2.27ZM62.316 16.892h2.27v2.27h-2.27v-2.27ZM1.02 19.162h2.27v2.27H1.02v-2.27ZM5.56 19.162h2.27v2.27H5.56v-2.27ZM7.83 19.162h2.27v2.27H7.83v-2.27ZM10.1 19.162h2.27v2.27H10.1v-2.27ZM12.37 19.162h2.27v2.27h-2.27v-2.27ZM14.64 19.162h2.271v2.27h-2.27v-2.27ZM21.452 19.162h2.27v2.27h-2.27v-2.27ZM23.722 19.162h2.27v2.27h-2.27v-2.27ZM41.884 19.162h2.27v2.27h-2.27v-2.27ZM46.425 19.162h2.27v2.27h-2.27v-2.27ZM48.695 19.162h2.27v2.27h-2.27v-2.27ZM50.965 19.162h2.27v2.27h-2.27v-2.27ZM55.506 19.162h2.27v2.27h-2.27v-2.27ZM57.776 19.162h2.27v2.27h-2.27v-2.27Z"/><path fill="#000" d="M60.046 19.162h2.27v2.27h-2.27v-2.27Z"/><path fill="#000" d="M62.316 19.162h2.27v2.27h-2.27v-2.27ZM64.587 19.162h2.27v2.27h-2.27v-2.27ZM69.127 19.162h2.27v2.27h-2.27v-2.27ZM71.397 19.162h2.27v2.27h-2.27v-2.27ZM73.668 19.162h2.27v2.27h-2.27v-2.27ZM75.938 19.162h2.27v2.27h-2.27v-2.27ZM78.208 19.162h2.27v2.27h-2.27v-2.27ZM3.29 21.432h2.27v2.27H3.29v-2.27Z"/><path fill="#000" d="M5.56 21.432h2.27v2.27H5.56v-2.27ZM7.83 21.432h2.27v2.27H7.83v-2.27ZM10.1 21.432h2.27v2.27H10.1v-2.27ZM19.181 21.432h2.27v2.27h-2.27v-2.27ZM23.722 21.432h2.27v2.27h-2.27v-2.27ZM30.533 21.432h2.27v2.27h-2.27v-2.27ZM35.073 21.432h2.27v2.27h-2.27v-2.27ZM37.343 21.432h2.27v2.27h-2.27v-2.27ZM39.614 21.432h2.27v2.27h-2.27v-2.27ZM48.695 21.432h2.27v2.27h-2.27v-2.27ZM57.776 21.432h2.27v2.27h-2.27v-2.27ZM62.316 21.432h2.27v2.27h-2.27v-2.27ZM71.397 21.432h2.27v2.27h-2.27v-2.27ZM75.938 21.432h2.27v2.27h-2.27v-2.27ZM80.479 21.432h2.27v2.27h-2.27v-2.27ZM3.29 23.703h2.27v2.27H3.29v-2.27ZM10.1 23.703h2.27v2.27H10.1v-2.27ZM14.64 23.703h2.271v2.27h-2.27v-2.27ZM21.452 23.703h2.27v2.27h-2.27v-2.27ZM28.262 23.703h2.27v2.27h-2.27v-2.27ZM30.533 23.703h2.27v2.27h-2.27v-2.27Z"/><path fill="#000" d="M32.803 23.703h2.27v2.27h-2.27v-2.27ZM46.425 23.703h2.27v2.27h-2.27v-2.27ZM48.695 23.703h2.27v2.27h-2.27v-2.27ZM53.235 23.703h2.27v2.27h-2.27v-2.27ZM55.506 23.703h2.27v2.27h-2.27v-2.27ZM60.046 23.703h2.27v2.27h-2.27v-2.27Z"/><path fill="#000" d="M62.316 23.703h2.27v2.27h-2.27v-2.27ZM69.127 23.703h2.27v2.27h-2.27v-2.27ZM71.397 23.703h2.27v2.27h-2.27v-2.27ZM78.208 23.703h2.27v2.27h-2.27v-2.27ZM80.479 23.703h2.27v2.27h-2.27v-2.27ZM82.749 23.703h2.27v2.27h-2.27v-2.27ZM3.29 25.973h2.27v2.27H3.29v-2.27Z"/><path fill="#000" d="M5.56 25.973h2.27v2.27H5.56v-2.27ZM7.83 25.973h2.27v2.27H7.83v-2.27ZM10.1 25.973h2.27v2.27H10.1v-2.27ZM12.37 25.973h2.27v2.27h-2.27v-2.27ZM19.181 25.973h2.27v2.27h-2.27v-2.27ZM21.452 25.973h2.27v2.27h-2.27v-2.27ZM30.533 25.973h2.27v2.27h-2.27v-2.27ZM37.343 25.973h2.27v2.27h-2.27v-2.27ZM48.695 25.973h2.27v2.27h-2.27v-2.27ZM53.235 25.973h2.27v2.27h-2.27v-2.27ZM62.316 25.973h2.27v2.27h-2.27v-2.27ZM64.587 25.973h2.27v2.27h-2.27v-2.27ZM66.857 25.973h2.27v2.27h-2.27v-2.27ZM69.127 25.973h2.27v2.27h-2.27v-2.27ZM71.397 25.973h2.27v2.27h-2.27v-2.27ZM73.668 25.973h2.27v2.27h-2.27v-2.27ZM82.749 25.973h2.27v2.27h-2.27v-2.27ZM5.56 28.243h2.27v2.27H5.56v-2.27ZM10.1 28.243h2.27v2.27H10.1v-2.27ZM12.37 28.243h2.27v2.27h-2.27v-2.27ZM14.64 28.243h2.271v2.27h-2.27v-2.27ZM19.181 28.243h2.27v2.27h-2.27v-2.27ZM21.452 28.243h2.27v2.27h-2.27v-2.27ZM23.722 28.243h2.27v2.27h-2.27v-2.27ZM25.992 28.243h2.27v2.27h-2.27v-2.27ZM28.262 28.243h2.27v2.27h-2.27v-2.27ZM30.533 28.243h2.27v2.27h-2.27v-2.27Z"/><path fill="#000" d="M32.803 28.243h2.27v2.27h-2.27v-2.27ZM39.614 28.243h2.27v2.27h-2.27v-2.27ZM53.235 28.243h2.27v2.27h-2.27v-2.27ZM55.506 28.243h2.27v2.27h-2.27v-2.27ZM57.776 28.243h2.27v2.27h-2.27v-2.27Z"/><path fill="#000" d="M60.046 28.243h2.27v2.27h-2.27v-2.27Z"/><path fill="#000" d="M62.316 28.243h2.27v2.27h-2.27v-2.27ZM64.587 28.243h2.27v2.27h-2.27v-2.27ZM66.857 28.243h2.27v2.27h-2.27v-2.27ZM69.127 28.243h2.27v2.27h-2.27v-2.27ZM73.668 28.243h2.27v2.27h-2.27v-2.27ZM75.938 28.243h2.27v2.27h-2.27v-2.27ZM78.208 28.243h2.27v2.27h-2.27v-2.27ZM80.479 28.243h2.27v2.27h-2.27v-2.27ZM82.749 28.243h2.27v2.27h-2.27v-2.27ZM5.56 30.514h2.27v2.27H5.56v-2.27ZM12.37 30.514h2.27v2.27h-2.27v-2.27ZM19.181 30.514h2.27v2.27h-2.27v-2.27ZM21.452 30.514h2.27v2.27h-2.27v-2.27ZM25.992 30.514h2.27v2.27h-2.27v-2.27ZM32.803 30.514h2.27v2.27h-2.27v-2.27ZM37.343 30.514h2.27v2.27h-2.27v-2.27ZM39.614 30.514h2.27v2.27h-2.27v-2.27ZM44.154 30.514h2.27v2.27h-2.27v-2.27ZM46.425 30.514h2.27v2.27h-2.27v-2.27ZM48.695 30.514h2.27v2.27h-2.27v-2.27ZM53.235 30.514h2.27v2.27h-2.27v-2.27ZM64.587 30.514h2.27v2.27h-2.27v-2.27ZM66.857 30.514h2.27v2.27h-2.27v-2.27ZM71.397 30.514h2.27v2.27h-2.27v-2.27ZM80.479 30.514h2.27v2.27h-2.27v-2.27ZM1.02 32.784h2.27v2.27H1.02v-2.27ZM3.29 32.784h2.27v2.27H3.29v-2.27Z"/><path fill="#000" d="M5.56 32.784h2.27v2.27H5.56v-2.27ZM7.83 32.784h2.27v2.27H7.83v-2.27ZM12.37 32.784h2.27v2.27h-2.27v-2.27ZM14.64 32.784h2.271v2.27h-2.27v-2.27ZM16.911 32.784h2.27v2.27h-2.27v-2.27ZM23.722 32.784h2.27v2.27h-2.27v-2.27ZM35.073 32.784h2.27v2.27h-2.27v-2.27ZM39.614 32.784h2.27v2.27h-2.27v-2.27ZM46.425 32.784h2.27v2.27h-2.27v-2.27ZM48.695 32.784h2.27v2.27h-2.27v-2.27ZM57.776 32.784h2.27v2.27h-2.27v-2.27Z"/><path fill="#000" d="M60.046 32.784h2.27v2.27h-2.27v-2.27Z"/><path fill="#000" d="M62.316 32.784h2.27v2.27h-2.27v-2.27ZM64.587 32.784h2.27v2.27h-2.27v-2.27ZM69.127 32.784h2.27v2.27h-2.27v-2.27ZM71.397 32.784h2.27v2.27h-2.27v-2.27ZM73.668 32.784h2.27v2.27h-2.27v-2.27ZM75.938 32.784h2.27v2.27h-2.27v-2.27ZM80.479 32.784h2.27v2.27h-2.27v-2.27ZM82.749 32.784h2.27v2.27h-2.27v-2.27ZM3.29 35.054h2.27v2.27H3.29v-2.27Z"/><path fill="#000" d="M5.56 35.054h2.27v2.27H5.56v-2.27ZM19.181 35.054h2.27v2.27h-2.27v-2.27ZM21.452 35.054h2.27v2.27h-2.27v-2.27ZM30.533 35.054h2.27v2.27h-2.27v-2.27ZM37.343 35.054h2.27v2.27h-2.27v-2.27ZM39.614 35.054h2.27v2.27h-2.27v-2.27ZM41.884 35.054h2.27v2.27h-2.27v-2.27ZM44.154 35.054h2.27v2.27h-2.27v-2.27ZM46.425 35.054h2.27v2.27h-2.27v-2.27ZM48.695 35.054h2.27v2.27h-2.27v-2.27ZM50.965 35.054h2.27v2.27h-2.27v-2.27Z"/><path fill="#000" d="M53.235 35.054h2.27v2.27h-2.27v-2.27ZM57.776 35.054h2.27v2.27h-2.27v-2.27ZM62.316 35.054h2.27v2.27h-2.27v-2.27ZM66.857 35.054h2.27v2.27h-2.27v-2.27ZM69.127 35.054h2.27v2.27h-2.27v-2.27ZM71.397 35.054h2.27v2.27h-2.27v-2.27ZM73.668 35.054h2.27v2.27h-2.27v-2.27ZM80.479 35.054h2.27v2.27h-2.27v-2.27ZM82.749 35.054h2.27v2.27h-2.27v-2.27ZM12.37 37.324h2.27v2.27h-2.27v-2.27ZM14.64 37.324h2.271v2.27h-2.27v-2.27ZM19.181 37.324h2.27v2.27h-2.27v-2.27ZM23.722 37.324h2.27v2.27h-2.27v-2.27ZM35.073 37.324h2.27v2.27h-2.27v-2.27ZM37.343 37.324h2.27v2.27h-2.27v-2.27ZM44.154 37.324h2.27v2.27h-2.27v-2.27ZM48.695 37.324h2.27v2.27h-2.27v-2.27Z"/><path fill="#000" d="M53.235 37.324h2.27v2.27h-2.27v-2.27ZM60.046 37.324h2.27v2.27h-2.27v-2.27Z"/><path fill="#000" d="M62.316 37.324h2.27v2.27h-2.27v-2.27ZM66.857 37.324h2.27v2.27h-2.27v-2.27ZM69.127 37.324h2.27v2.27h-2.27v-2.27ZM73.668 37.324h2.27v2.27h-2.27v-2.27ZM78.208 37.324h2.27v2.27h-2.27v-2.27ZM80.479 37.324h2.27v2.27h-2.27v-2.27ZM3.29 39.595h2.27v2.27H3.29v-2.27ZM10.1 39.595h2.27v2.27H10.1v-2.27ZM12.37 39.595h2.27v2.27h-2.27v-2.27ZM16.911 39.595h2.27v2.27h-2.27v-2.27ZM19.181 39.595h2.27v2.27h-2.27v-2.27ZM32.803 39.595h2.27v2.27h-2.27v-2.27ZM35.073 39.595h2.27v2.27h-2.27v-2.27ZM41.884 39.595h2.27v2.27h-2.27v-2.27ZM46.425 39.595h2.27v2.27h-2.27v-2.27ZM50.965 39.595h2.27v2.27h-2.27v-2.27ZM55.506 39.595h2.27v2.27h-2.27v-2.27ZM60.046 39.595h2.27v2.27h-2.27v-2.27ZM64.587 39.595h2.27v2.27h-2.27v-2.27ZM75.938 39.595h2.27v2.27h-2.27v-2.27ZM80.479 39.595h2.27v2.27h-2.27v-2.27ZM5.56 41.865h2.27v2.27H5.56v-2.27ZM14.64 41.865h2.271v2.27h-2.27v-2.27ZM16.911 41.865h2.27v2.27h-2.27v-2.27ZM25.992 41.865h2.27v2.27h-2.27v-2.27ZM35.073 41.865h2.27v2.27h-2.27v-2.27ZM37.343 41.865h2.27v2.27h-2.27v-2.27ZM41.884 41.865h2.27v2.27h-2.27v-2.27ZM44.154 41.865h2.27v2.27h-2.27v-2.27ZM50.965 41.865h2.27v2.27h-2.27v-2.27ZM60.046 41.865h2.27v2.27h-2.27v-2.27Z"/><path fill="#000" d="M62.316 41.865h2.27v2.27h-2.27v-2.27ZM64.587 41.865h2.27v2.27h-2.27v-2.27ZM69.127 41.865h2.27v2.27h-2.27v-2.27ZM71.397 41.865h2.27v2.27h-2.27v-2.27ZM80.479 41.865h2.27v2.27h-2.27v-2.27ZM82.749 41.865h2.27v2.27h-2.27v-2.27ZM1.02 44.135h2.27v2.27H1.02v-2.27ZM3.29 44.135h2.27v2.27H3.29v-2.27ZM12.37 44.135h2.27v2.27h-2.27v-2.27ZM28.262 44.135h2.27v2.27h-2.27v-2.27ZM30.533 44.135h2.27v2.27h-2.27v-2.27ZM35.073 44.135h2.27v2.27h-2.27v-2.27ZM41.884 44.135h2.27v2.27h-2.27v-2.27ZM44.154 44.135h2.27v2.27h-2.27v-2.27ZM46.425 44.135h2.27v2.27h-2.27v-2.27ZM48.695 44.135h2.27v2.27h-2.27v-2.27ZM50.965 44.135h2.27v2.27h-2.27v-2.27ZM55.506 44.135h2.27v2.27h-2.27v-2.27Z"/><path fill="#000" d="M60.046 44.135h2.27v2.27h-2.27v-2.27Z"/><path fill="#000" d="M62.316 44.135h2.27v2.27h-2.27v-2.27ZM69.127 44.135h2.27v2.27h-2.27v-2.27ZM73.668 44.135h2.27v2.27h-2.27v-2.27ZM82.749 44.135h2.27v2.27h-2.27v-2.27ZM1.02 46.405h2.27v2.27H1.02v-2.27ZM3.29 46.405h2.27v2.27H3.29v-2.27Z"/><path fill="#000" d="M5.56 46.405h2.27v2.27H5.56v-2.27ZM14.64 46.405h2.271v2.27h-2.27v-2.27ZM16.911 46.405h2.27v2.27h-2.27v-2.27ZM21.452 46.405h2.27v2.27h-2.27v-2.27ZM30.533 46.405h2.27v2.27h-2.27v-2.27Z"/><path fill="#000" d="M32.803 46.405h2.27v2.27h-2.27v-2.27ZM35.073 46.405h2.27v2.27h-2.27v-2.27ZM39.614 46.405h2.27v2.27h-2.27v-2.27ZM44.154 46.405h2.27v2.27h-2.27v-2.27ZM50.965 46.405h2.27v2.27h-2.27v-2.27ZM55.506 46.405h2.27v2.27h-2.27v-2.27ZM57.776 46.405h2.27v2.27h-2.27v-2.27ZM66.857 46.405h2.27v2.27h-2.27v-2.27ZM69.127 46.405h2.27v2.27h-2.27v-2.27ZM73.668 46.405h2.27v2.27h-2.27v-2.27ZM75.938 46.405h2.27v2.27h-2.27v-2.27ZM78.208 46.405h2.27v2.27h-2.27v-2.27ZM5.56 48.676h2.27v2.27H5.56v-2.27ZM7.83 48.676h2.27v2.27H7.83v-2.27ZM10.1 48.676h2.27v2.27H10.1v-2.27ZM28.262 48.676h2.27v2.27h-2.27v-2.27ZM30.533 48.676h2.27v2.27h-2.27v-2.27ZM37.343 48.676h2.27v2.27h-2.27v-2.27ZM41.884 48.676h2.27v2.27h-2.27v-2.27ZM44.154 48.676h2.27v2.27h-2.27v-2.27ZM46.425 48.676h2.27v2.27h-2.27v-2.27ZM53.235 48.676h2.27v2.27h-2.27v-2.27ZM55.506 48.676h2.27v2.27h-2.27v-2.27ZM57.776 48.676h2.27v2.27h-2.27v-2.27ZM64.587 48.676h2.27v2.27h-2.27v-2.27ZM66.857 48.676h2.27v2.27h-2.27v-2.27ZM75.938 48.676h2.27v2.27h-2.27v-2.27ZM1.02 50.946h2.27v2.27H1.02v-2.27Z"/><path fill="#000" d="M7.83 50.946h2.27v2.27H7.83v-2.27ZM10.1 50.946h2.27v2.27H10.1v-2.27ZM14.64 50.946h2.271v2.27h-2.27v-2.27ZM16.911 50.946h2.27v2.27h-2.27v-2.27ZM21.452 50.946h2.27v2.27h-2.27v-2.27ZM30.533 50.946h2.27v2.27h-2.27v-2.27ZM35.073 50.946h2.27v2.27h-2.27v-2.27ZM37.343 50.946h2.27v2.27h-2.27v-2.27ZM41.884 50.946h2.27v2.27h-2.27v-2.27ZM50.965 50.946h2.27v2.27h-2.27v-2.27ZM60.046 50.946h2.27v2.27h-2.27v-2.27Z"/><path fill="#000" d="M62.316 50.946h2.27v2.27h-2.27v-2.27ZM69.127 50.946h2.27v2.27h-2.27v-2.27ZM71.397 50.946h2.27v2.27h-2.27v-2.27ZM73.668 50.946h2.27v2.27h-2.27v-2.27ZM75.938 50.946h2.27v2.27h-2.27v-2.27ZM82.749 50.946h2.27v2.27h-2.27v-2.27ZM1.02 53.216h2.27v2.27H1.02v-2.27ZM3.29 53.216h2.27v2.27H3.29v-2.27Z"/><path fill="#000" d="M5.56 53.216h2.27v2.27H5.56v-2.27ZM10.1 53.216h2.27v2.27H10.1v-2.27ZM12.37 53.216h2.27v2.27h-2.27v-2.27ZM16.911 53.216h2.27v2.27h-2.27v-2.27ZM19.181 53.216h2.27v2.27h-2.27v-2.27ZM21.452 53.216h2.27v2.27h-2.27v-2.27ZM23.722 53.216h2.27v2.27h-2.27v-2.27ZM25.992 53.216h2.27v2.27h-2.27v-2.27ZM28.262 53.216h2.27v2.27h-2.27v-2.27ZM35.073 53.216h2.27v2.27h-2.27v-2.27ZM37.343 53.216h2.27v2.27h-2.27v-2.27ZM46.425 53.216h2.27v2.27h-2.27v-2.27ZM57.776 53.216h2.27v2.27h-2.27v-2.27Z"/><path fill="#000" d="M60.046 53.216h2.27v2.27h-2.27v-2.27ZM64.587 53.216h2.27v2.27h-2.27v-2.27ZM71.397 53.216h2.27v2.27h-2.27v-2.27ZM73.668 53.216h2.27v2.27h-2.27v-2.27ZM3.29 55.486h2.27v2.27H3.29v-2.27ZM7.83 55.486h2.27v2.27H7.83v-2.27ZM12.37 55.486h2.27v2.27h-2.27v-2.27ZM14.64 55.486h2.271v2.27h-2.27v-2.27ZM16.911 55.486h2.27v2.27h-2.27v-2.27ZM19.181 55.486h2.27v2.27h-2.27v-2.27ZM21.452 55.486h2.27v2.27h-2.27v-2.27ZM23.722 55.486h2.27v2.27h-2.27v-2.27ZM28.262 55.486h2.27v2.27h-2.27v-2.27ZM30.533 55.486h2.27v2.27h-2.27v-2.27ZM41.884 55.486h2.27v2.27h-2.27v-2.27ZM44.154 55.486h2.27v2.27h-2.27v-2.27ZM46.425 55.486h2.27v2.27h-2.27v-2.27ZM48.695 55.486h2.27v2.27h-2.27v-2.27ZM50.965 55.486h2.27v2.27h-2.27v-2.27Z"/><path fill="#000" d="M53.235 55.486h2.27v2.27h-2.27v-2.27ZM55.506 55.486h2.27v2.27h-2.27v-2.27ZM60.046 55.486h2.27v2.27h-2.27v-2.27ZM66.857 55.486h2.27v2.27h-2.27v-2.27ZM69.127 55.486h2.27v2.27h-2.27v-2.27ZM73.668 55.486h2.27v2.27h-2.27v-2.27ZM78.208 55.486h2.27v2.27h-2.27v-2.27ZM82.749 55.486h2.27v2.27h-2.27v-2.27ZM1.02 57.757h2.27v2.27H1.02v-2.27ZM3.29 57.757h2.27v2.27H3.29v-2.27ZM7.83 57.757h2.27v2.27H7.83v-2.27ZM12.37 57.757h2.27v2.27h-2.27v-2.27ZM23.722 57.757h2.27v2.27h-2.27v-2.27ZM25.992 57.757h2.27v2.27h-2.27v-2.27ZM28.262 57.757h2.27v2.27h-2.27v-2.27ZM32.803 57.757h2.27v2.27h-2.27v-2.27ZM35.073 57.757h2.27v2.27h-2.27v-2.27ZM37.343 57.757h2.27v2.27h-2.27v-2.27ZM39.614 57.757h2.27v2.27h-2.27v-2.27ZM48.695 57.757h2.27v2.27h-2.27v-2.27ZM57.776 57.757h2.27v2.27h-2.27v-2.27ZM64.587 57.757h2.27v2.27h-2.27v-2.27ZM66.857 57.757h2.27v2.27h-2.27v-2.27ZM71.397 57.757h2.27v2.27h-2.27v-2.27ZM1.02 60.027h2.27v2.27H1.02v-2.27ZM10.1 60.027h2.27v2.27H10.1v-2.27ZM14.64 60.027h2.271v2.27h-2.27v-2.27ZM16.911 60.027h2.27v2.27h-2.27v-2.27ZM46.425 60.027h2.27v2.27h-2.27v-2.27ZM48.695 60.027h2.27v2.27h-2.27v-2.27ZM53.235 60.027h2.27v2.27h-2.27v-2.27ZM55.506 60.027h2.27v2.27h-2.27v-2.27ZM57.776 60.027h2.27v2.27h-2.27v-2.27Z"/><path fill="#000" d="M60.046 60.027h2.27v2.27h-2.27v-2.27Z"/><path fill="#000" d="M62.316 60.027h2.27v2.27h-2.27v-2.27ZM64.587 60.027h2.27v2.27h-2.27v-2.27ZM69.127 60.027h2.27v2.27h-2.27v-2.27ZM73.668 60.027h2.27v2.27h-2.27v-2.27ZM75.938 60.027h2.27v2.27h-2.27v-2.27ZM78.208 60.027h2.27v2.27h-2.27v-2.27ZM80.479 60.027h2.27v2.27h-2.27v-2.27ZM82.749 60.027h2.27v2.27h-2.27v-2.27ZM1.02 62.297h2.27v2.27H1.02v-2.27ZM5.56 62.297h2.27v2.27H5.56v-2.27ZM7.83 62.297h2.27v2.27H7.83v-2.27ZM16.911 62.297h2.27v2.27h-2.27v-2.27ZM28.262 62.297h2.27v2.27h-2.27v-2.27ZM32.803 62.297h2.27v2.27h-2.27v-2.27ZM37.343 62.297h2.27v2.27h-2.27v-2.27ZM41.884 62.297h2.27v2.27h-2.27v-2.27ZM48.695 62.297h2.27v2.27h-2.27v-2.27ZM50.965 62.297h2.27v2.27h-2.27v-2.27Z"/><path fill="#000" d="M53.235 62.297h2.27v2.27h-2.27v-2.27ZM64.587 62.297h2.27v2.27h-2.27v-2.27ZM69.127 62.297h2.27v2.27h-2.27v-2.27ZM80.479 62.297h2.27v2.27h-2.27v-2.27ZM82.749 62.297h2.27v2.27h-2.27v-2.27ZM1.02 64.568h2.27v2.27H1.02v-2.27ZM5.56 64.568h2.27v2.27H5.56v-2.27ZM10.1 64.568h2.27v2.27H10.1v-2.27ZM12.37 64.568h2.27v2.27h-2.27v-2.27ZM14.64 64.568h2.271v2.27h-2.27v-2.27ZM16.911 64.568h2.27v2.27h-2.27v-2.27ZM19.181 64.568h2.27v2.27h-2.27v-2.27ZM21.452 64.568h2.27v2.27h-2.27v-2.27ZM23.722 64.568h2.27v2.27h-2.27v-2.27ZM39.614 64.568h2.27v2.27h-2.27v-2.27ZM50.965 64.568h2.27v2.27h-2.27v-2.27Z"/><path fill="#000" d="M53.235 64.568h2.27v2.27h-2.27v-2.27ZM55.506 64.568h2.27v2.27h-2.27v-2.27ZM57.776 64.568h2.27v2.27h-2.27v-2.27Z"/><path fill="#000" d="M60.046 64.568h2.27v2.27h-2.27v-2.27ZM64.587 64.568h2.27v2.27h-2.27v-2.27ZM66.857 64.568h2.27v2.27h-2.27v-2.27ZM69.127 64.568h2.27v2.27h-2.27v-2.27ZM71.397 64.568h2.27v2.27h-2.27v-2.27ZM73.668 64.568h2.27v2.27h-2.27v-2.27ZM75.938 64.568h2.27v2.27h-2.27v-2.27ZM78.208 64.568h2.27v2.27h-2.27v-2.27ZM19.181 66.838h2.27v2.27h-2.27v-2.27ZM21.452 66.838h2.27v2.27h-2.27v-2.27ZM25.992 66.838h2.27v2.27h-2.27v-2.27ZM39.614 66.838h2.27v2.27h-2.27v-2.27ZM44.154 66.838h2.27v2.27h-2.27v-2.27ZM46.425 66.838h2.27v2.27h-2.27v-2.27ZM48.695 66.838h2.27v2.27h-2.27v-2.27ZM53.235 66.838h2.27v2.27h-2.27v-2.27ZM57.776 66.838h2.27v2.27h-2.27v-2.27ZM62.316 66.838h2.27v2.27h-2.27v-2.27ZM64.587 66.838h2.27v2.27h-2.27v-2.27ZM73.668 66.838h2.27v2.27h-2.27v-2.27ZM75.938 66.838h2.27v2.27h-2.27v-2.27ZM80.479 66.838h2.27v2.27h-2.27v-2.27ZM1.02 69.108h2.27v2.27H1.02v-2.27ZM3.29 69.108h2.27v2.27H3.29v-2.27Z"/><path fill="#000" d="M5.56 69.108h2.27v2.27H5.56v-2.27ZM7.83 69.108h2.27v2.27H7.83v-2.27ZM10.1 69.108h2.27v2.27H10.1v-2.27ZM12.37 69.108h2.27v2.27h-2.27v-2.27ZM14.64 69.108h2.271v2.27h-2.27v-2.27ZM32.803 69.108h2.27v2.27h-2.27v-2.27ZM35.073 69.108h2.27v2.27h-2.27v-2.27ZM37.343 69.108h2.27v2.27h-2.27v-2.27ZM39.614 69.108h2.27v2.27h-2.27v-2.27ZM48.695 69.108h2.27v2.27h-2.27v-2.27ZM57.776 69.108h2.27v2.27h-2.27v-2.27ZM64.587 69.108h2.27v2.27h-2.27v-2.27ZM69.127 69.108h2.27v2.27h-2.27v-2.27ZM73.668 69.108h2.27v2.27h-2.27v-2.27ZM78.208 69.108h2.27v2.27h-2.27v-2.27ZM80.479 69.108h2.27v2.27h-2.27v-2.27ZM82.749 69.108h2.27v2.27h-2.27v-2.27ZM1.02 71.378h2.27v2.27H1.02v-2.27ZM14.64 71.378h2.271v2.27h-2.27v-2.27ZM19.181 71.378h2.27v2.27h-2.27v-2.27ZM23.722 71.378h2.27v2.27h-2.27v-2.27ZM25.992 71.378h2.27v2.27h-2.27v-2.27ZM28.262 71.378h2.27v2.27h-2.27v-2.27ZM32.803 71.378h2.27v2.27h-2.27v-2.27ZM39.614 71.378h2.27v2.27h-2.27v-2.27ZM41.884 71.378h2.27v2.27h-2.27v-2.27ZM44.154 71.378h2.27v2.27h-2.27v-2.27ZM48.695 71.378h2.27v2.27h-2.27v-2.27ZM50.965 71.378h2.27v2.27h-2.27v-2.27Z"/><path fill="#000" d="M53.235 71.378h2.27v2.27h-2.27v-2.27ZM57.776 71.378h2.27v2.27h-2.27v-2.27Z"/><path fill="#000" d="M60.046 71.378h2.27v2.27h-2.27v-2.27Z"/><path fill="#000" d="M62.316 71.378h2.27v2.27h-2.27v-2.27ZM64.587 71.378h2.27v2.27h-2.27v-2.27ZM73.668 71.378h2.27v2.27h-2.27v-2.27ZM75.938 71.378h2.27v2.27h-2.27v-2.27ZM80.479 71.378h2.27v2.27h-2.27v-2.27ZM1.02 73.649h2.27v2.27H1.02v-2.27ZM5.56 73.649h2.27v2.27H5.56v-2.27ZM7.83 73.649h2.27v2.27H7.83v-2.27ZM10.1 73.649h2.27v2.27H10.1v-2.27ZM14.64 73.649h2.271v2.27h-2.27v-2.27ZM19.181 73.649h2.27v2.27h-2.27v-2.27ZM21.452 73.649h2.27v2.27h-2.27v-2.27ZM25.992 73.649h2.27v2.27h-2.27v-2.27ZM32.803 73.649h2.27v2.27h-2.27v-2.27ZM35.073 73.649h2.27v2.27h-2.27v-2.27ZM37.343 73.649h2.27v2.27h-2.27v-2.27ZM48.695 73.649h2.27v2.27h-2.27v-2.27ZM53.235 73.649h2.27v2.27h-2.27v-2.27ZM55.506 73.649h2.27v2.27h-2.27v-2.27ZM57.776 73.649h2.27v2.27h-2.27v-2.27ZM62.316 73.649h2.27v2.27h-2.27v-2.27ZM64.587 73.649h2.27v2.27h-2.27v-2.27ZM66.857 73.649h2.27v2.27h-2.27v-2.27ZM69.127 73.649h2.27v2.27h-2.27v-2.27ZM71.397 73.649h2.27v2.27h-2.27v-2.27ZM73.668 73.649h2.27v2.27h-2.27v-2.27ZM78.208 73.649h2.27v2.27h-2.27v-2.27ZM80.479 73.649h2.27v2.27h-2.27v-2.27ZM1.02 75.919h2.27v2.27H1.02v-2.27ZM5.56 75.919h2.27v2.27H5.56v-2.27ZM7.83 75.919h2.27v2.27H7.83v-2.27ZM10.1 75.919h2.27v2.27H10.1v-2.27ZM14.64 75.919h2.271v2.27h-2.27v-2.27ZM19.181 75.919h2.27v2.27h-2.27v-2.27ZM25.992 75.919h2.27v2.27h-2.27v-2.27ZM28.262 75.919h2.27v2.27h-2.27v-2.27ZM30.533 75.919h2.27v2.27h-2.27v-2.27ZM35.073 75.919h2.27v2.27h-2.27v-2.27ZM41.884 75.919h2.27v2.27h-2.27v-2.27ZM46.425 75.919h2.27v2.27h-2.27v-2.27ZM48.695 75.919h2.27v2.27h-2.27v-2.27ZM50.965 75.919h2.27v2.27h-2.27v-2.27ZM55.506 75.919h2.27v2.27h-2.27v-2.27ZM64.587 75.919h2.27v2.27h-2.27v-2.27ZM66.857 75.919h2.27v2.27h-2.27v-2.27ZM69.127 75.919h2.27v2.27h-2.27v-2.27ZM73.668 75.919h2.27v2.27h-2.27v-2.27ZM75.938 75.919h2.27v2.27h-2.27v-2.27ZM80.479 75.919h2.27v2.27h-2.27v-2.27ZM1.02 78.19h2.27v2.27H1.02v-2.27ZM5.56 78.19h2.27v2.27H5.56v-2.27ZM7.83 78.19h2.27v2.27H7.83v-2.27ZM10.1 78.19h2.27v2.27H10.1v-2.27ZM14.64 78.19h2.271v2.27h-2.27v-2.27ZM19.181 78.19h2.27v2.27h-2.27v-2.27ZM21.452 78.19h2.27v2.27h-2.27v-2.27ZM28.262 78.19h2.27v2.27h-2.27v-2.27ZM32.803 78.19h2.27v2.27h-2.27v-2.27ZM35.073 78.19h2.27v2.27h-2.27v-2.27ZM37.343 78.19h2.27v2.27h-2.27v-2.27ZM44.154 78.19h2.27v2.27h-2.27v-2.27ZM48.695 78.19h2.27v2.27h-2.27v-2.27ZM50.965 78.19h2.27v2.27h-2.27v-2.27ZM55.506 78.19h2.27v2.27h-2.27v-2.27ZM57.776 78.19h2.27v2.27h-2.27v-2.27ZM62.316 78.19h2.27v2.27h-2.27v-2.27ZM66.857 78.19h2.27v2.27h-2.27v-2.27ZM82.749 78.19h2.27v2.27h-2.27v-2.27ZM1.02 80.46h2.27v2.27H1.02v-2.27ZM14.64 80.46h2.271v2.27h-2.27v-2.27ZM25.992 80.46h2.27v2.27h-2.27v-2.27ZM30.533 80.46h2.27v2.27h-2.27v-2.27Z"/><path fill="#000" d="M32.803 80.46h2.27v2.27h-2.27v-2.27ZM35.073 80.46h2.27v2.27h-2.27v-2.27ZM44.154 80.46h2.27v2.27h-2.27v-2.27ZM46.425 80.46h2.27v2.27h-2.27v-2.27ZM48.695 80.46h2.27v2.27h-2.27v-2.27ZM55.506 80.46h2.27v2.27h-2.27v-2.27ZM60.046 80.46h2.27v2.27h-2.27v-2.27Z"/><path fill="#000" d="M62.316 80.46h2.27v2.27h-2.27v-2.27ZM64.587 80.46h2.27v2.27h-2.27v-2.27ZM69.127 80.46h2.27v2.27h-2.27v-2.27ZM73.668 80.46h2.27v2.27h-2.27v-2.27ZM82.749 80.46h2.27v2.27h-2.27v-2.27ZM1.02 82.73h2.27V85H1.02v-2.27ZM3.29 82.73h2.27V85H3.29v-2.27Z"/><path fill="#000" d="M5.56 82.73h2.27V85H5.56v-2.27ZM7.83 82.73h2.27V85H7.83v-2.27ZM10.1 82.73h2.27V85H10.1v-2.27ZM12.37 82.73h2.27V85h-2.27v-2.27ZM14.64 82.73h2.271V85h-2.27v-2.27ZM19.181 82.73h2.27V85h-2.27v-2.27ZM23.722 82.73h2.27V85h-2.27v-2.27ZM28.262 82.73h2.27V85h-2.27v-2.27ZM30.533 82.73h2.27V85h-2.27v-2.27ZM35.073 82.73h2.27V85h-2.27v-2.27ZM37.343 82.73h2.27V85h-2.27v-2.27ZM39.614 82.73h2.27V85h-2.27v-2.27ZM44.154 82.73h2.27V85h-2.27v-2.27ZM50.965 82.73h2.27V85h-2.27v-2.27Z"/><path fill="#000" d="M53.235 82.73h2.27V85h-2.27v-2.27ZM55.506 82.73h2.27V85h-2.27v-2.27ZM57.776 82.73h2.27V85h-2.27v-2.27Z"/><path fill="#000" d="M60.046 82.73h2.27V85h-2.27v-2.27Z"/><path fill="#000" d="M62.316 82.73h2.27V85h-2.27v-2.27ZM69.127 82.73h2.27V85h-2.27v-2.27ZM73.668 82.73h2.27V85h-2.27v-2.27ZM78.208 82.73h2.27V85h-2.27v-2.27ZM80.479 82.73h2.27V85h-2.27v-2.27ZM82.749 82.73h2.27V85h-2.27v-2.27Z"/><path stroke="#000" stroke-width=".5" d="M3.29 1H1.02v2.27M3.29 1v2.27m0-2.27h2.27M3.29 3.27H1.02m2.27 0h2.27m-2.27 0v2.27M1.02 3.27v2.27M5.56 1v2.27m0-2.27h2.27M5.56 3.27h2.27m0-2.27v2.27m0-2.27h2.27M7.83 3.27h2.27m0-2.27v2.27m0-2.27h2.27M10.1 3.27h2.27m0-2.27v2.27m0-2.27h2.27m-2.27 2.27h2.27m0-2.27v2.27m0-2.27h2.271v2.27m-2.27 0h2.27m-2.27 0v2.27m2.27-2.27v2.27m11.351-2.27V1h-2.27v2.27m2.27 0h-2.27m2.27 0v2.27h-2.27m0-2.27v2.27m9.081-2.27V1h-2.27v2.27m2.27 0h-2.27m2.27 0v2.27m-2.27-2.27h-2.27v2.27m2.27-2.27v2.27M39.613 1h-2.27v2.27h2.27m0-2.27v2.27m0-2.27h2.271m-2.27 2.27h2.27m-2.27 0v2.27M41.884 1v2.27m0-2.27h2.27v2.27m-2.27 0h2.27m-2.27 0v2.27m2.27-2.27v2.27m0-2.27h2.27M48.695 1h-2.27v2.27M48.695 1v2.27m0-2.27h2.271m-2.27 2.27h-2.27m2.27 0h2.27m-2.27 0v2.27m-2.27-2.27v2.27M50.965 1v2.27m0-2.27h2.27v2.27h-2.27m0 0v2.27M71.397 1h-2.27v2.27M71.397 1v2.27m0-2.27h2.27m-2.27 2.27h-2.27m2.27 0h2.27m-2.27 0v2.27m-2.27-2.27v2.27M73.667 1v2.27m0-2.27h2.271m-2.27 2.27h2.27m0-2.27v2.27m0-2.27h2.27m-2.27 2.27h2.27m0-2.27v2.27m0-2.27h2.27m-2.27 2.27h2.27m0-2.27v2.27m0-2.27h2.27m-2.27 2.27h2.27m0-2.27v2.27m0-2.27h2.271v2.27m-2.27 0h2.27m-2.27 0v2.27m2.27-2.27v2.27m-81.73 0H1.02m2.27 0v2.27M1.02 5.54v2.27m15.892-2.27h-2.27m2.27 0v2.27m-2.27-2.27v2.27m11.351-2.27h-2.27m2.27 0v2.27h-2.27m9.08-2.27h-2.27m2.27 0h2.271m-2.27 0v2.27m-2.27-2.27v2.27m4.54-2.27h2.27m-2.27 0v2.27m6.811-2.27h-2.27m2.27 0h2.27m-4.54 0h-2.27m2.27 0v2.27m4.54-2.27h2.27m-2.27 0v2.27m2.27-2.27v2.27m0-2.27h2.27m2.271 0h-2.27m2.27 0v2.27m-2.27-2.27v2.27m15.892-2.27V3.27h-2.27v2.27m2.27 0h-2.27m2.27 0v2.27m-2.27-2.27v2.27m9.08-2.27h-2.27m2.27 0v2.27m-2.27-2.27v2.27M85.02 5.54h-2.27m2.27 0v2.27m-2.27-2.27v2.27m-79.46 0H1.02m2.27 0v2.271m-2.27-2.27v2.27m6.811-4.54H5.56v2.27m2.27-2.27v2.27m0-2.27h2.27M7.83 7.81H5.56m2.27 0h2.27m-2.27 0v2.27m-2.27-2.27v2.27m4.54-4.54v2.27m0-2.27h2.27v2.27m-2.27 0h2.27m-2.27 0v2.27m2.27-2.27v2.27m4.541-2.27h-2.27m2.27 0v2.27m-2.27-2.27v2.27m6.81-4.54h-2.27v2.27m2.27-2.27v2.27m0-2.27h2.27m-2.27 2.27h-2.27m2.27 0h2.27m-2.27 0v2.27m-2.27-2.27v2.27m4.54-4.54v2.27m0 0v2.27h-2.27m11.352-2.27h-2.27m2.27 0v2.27m0-2.27h2.27m-4.54 0h-2.27v2.27h2.27m0-2.27v2.27m6.81-4.54v2.27m0 0h-2.27m2.27 0h2.27m-2.27 0v2.27m-2.27-2.27v2.27m4.54-2.27v2.27m0-2.27h2.271m4.54 0h-2.27m2.27 0h2.27m-2.27 0v2.27m-2.27-2.27h-2.27m2.27 0v2.27m4.54-2.27h2.271m0 0h2.27v2.27m-2.27-2.27v2.27m6.81-2.27V5.54h-2.27v2.27h2.27Zm0 0h2.271m-2.27 0v2.27m6.81-2.27h-2.27m2.27 0v2.27m0-2.27h2.271v2.27m-4.54-2.27h-2.27m2.27 0v2.27m9.08-2.27h-2.27m2.27 0v2.27m-2.27-2.27v2.27m6.811-4.54h-2.27v2.27m2.27-2.27v2.27m0-2.27h2.27m-2.27 2.27h-2.27m2.27 0h2.27m-2.27 0v2.27m-2.27-2.27v2.27m4.54-4.54v2.27m0-2.27h2.27v2.27m-2.27 0h2.27m-2.27 0v2.27m2.27-2.27v2.27m4.541-2.27h-2.27m2.27 0v2.27m-2.27-2.27v2.27m-79.46 0H1.02m2.27 0v2.27m-2.27-2.27v2.27m6.811-2.27H5.56m2.27 0h2.27m-2.27 0v2.27m-2.27-2.27v2.27h2.27m2.27-2.27h2.27m-2.27 0v2.27m2.27-2.27v2.27H10.1m6.811-2.27h-2.27m2.27 0v2.27m-2.27-2.27v2.27m6.81-2.27h-2.27m2.27 0v2.27m-2.27-2.27v2.27m11.352-2.27h2.27m-2.27 0v2.27h2.27m0-2.27h2.27m-2.27 0v2.27m2.27-2.27h2.27m0 0h2.27m-2.27 0v2.27m2.27-2.27h2.271m-2.27 0v2.27m2.27-4.54v2.27m0 0h2.27m-2.27 0v2.27m2.27-2.27h2.27m-2.27 0v2.27m2.27-2.27v2.27m0-2.27h2.27v2.27m4.541-2.27h-2.27m2.27 0v2.27m0-2.27h2.27v2.27h-2.27m-2.27-2.27v2.27m9.081-4.54v2.27m0 0h-2.27m2.27 0h2.27m-2.27 0v2.27h-2.27v-2.27m4.54 0h2.27m0 0h2.271m-2.27 0v2.27m2.27-2.27v2.27h-2.27m6.81-2.27h-2.27m2.27 0v2.27m-2.27-2.27v2.27m6.811-2.27h-2.27m2.27 0h2.27m-2.27 0v2.27m-2.27-2.27v2.27h2.27m2.27-2.27h2.27m-2.27 0v2.27m2.27-2.27v2.27h-2.27m6.811-2.27h-2.27m2.27 0v2.27m-2.27-2.27v2.27m-79.46 0H1.02m2.27 0v2.27m-2.27-2.27v2.27m6.811-2.27h2.27m6.811 0h-2.27m2.27 0v2.27m-2.27-2.27v2.27m6.81-2.27h-2.27m2.27 0v2.27m0-2.27h2.27v2.27m-4.54-2.27v2.27m13.622-2.27h2.27v2.27m-2.27-2.27v2.27m6.81-2.27h-2.27m2.27 0v2.27m-2.27-2.27v2.27m6.811-2.27h-2.27m2.27 0h2.27m-2.27 0v2.27m-2.27-2.27v2.27m4.54-2.27h2.27m-2.27 0v2.27m2.27-2.27v2.27m4.541-2.27h-2.27m2.27 0v2.27m-2.27-2.27v2.27m13.622-2.27h-2.27v2.27m2.27-2.27v2.27m6.81-2.27h-2.27m2.27 0v2.27m-2.27-2.27v2.27m6.811-2.27h2.27m6.811 0h-2.27m2.27 0v2.27m-2.27-2.27v2.27m-79.46 0H1.02m2.27 0v2.27m0-2.27h2.27m-4.54 0v2.27h2.27m13.622-2.27h-2.27m2.27 0v2.27h-2.27m0-2.27h-2.27m2.27 0v2.27m6.81-2.27h-2.27m2.27 0h2.27m-2.27 0v2.27m-2.27-2.27v2.27m4.54-2.27h2.271m-2.27 0v2.27m4.54-2.27v-2.27h-2.27v2.27m2.27 0h-2.27m2.27 0h2.27v2.27m-2.27-2.27v2.27m-2.27-2.27v2.27m9.081-2.27h-2.27m2.27 0v2.27m-2.27-2.27v2.27m6.81-2.27h-2.27m2.27 0v2.27m-2.27-2.27v2.27m6.811-2.27h-2.27m2.27 0v2.27m-2.27-2.27v2.27h2.27m4.54-2.27h-2.27m2.27 0v2.27h-2.27m0-2.27v2.27m6.811-2.27h-2.27m2.27 0v2.27h-2.27v-2.27m13.622 0h-2.27m2.27 0h2.27v2.27h-2.27m0-2.27v2.27m-2.27-2.27h-2.27v2.27h2.27m0-2.27v2.27m9.08-2.27h-2.27m2.27 0v2.27m0-2.27h2.27m-4.54 0v2.27h2.27m13.622-2.27h-2.27m2.27 0v2.27h-2.27m0-2.27h-2.27m2.27 0v2.27m-79.46 0h2.27m0-2.27v2.27m0-2.27H7.83m-2.27 2.27h2.27m0-2.27v2.27m0-2.27h2.27m-2.27 2.27h2.27m0-2.27v2.27m0-2.27h2.27m-2.27 2.27h2.27m0-2.27v2.27m0 0h2.27m6.812 0h-2.27m2.27 0v2.271m-2.27-2.27v2.27h2.27m4.54-2.27h-2.27m2.27 0v2.27m0-2.27h2.27m-4.54 0v2.27m6.81-2.27h-2.27m2.27 0h2.27m-2.27 0v2.27h2.27m-4.54-2.27v2.27h-2.27m9.081-2.27h-2.27m2.27 0v2.27m0-2.27h2.27m-4.54 0v2.27m6.81-2.27h-2.27m2.27 0v2.27h-2.27m0-2.27v2.27m6.811-2.27h2.27m-2.27 0v2.27m2.27-2.27v2.27m11.352-2.27v-2.27h-2.27v2.27m2.27 0h-2.27m2.27 0v2.27m-2.27-2.27v2.27m6.81-2.27h2.27m-2.27 0v2.27m2.27-2.27v2.27m6.811-2.27h2.27m0-2.27v2.27m0-2.27h2.271m-2.27 2.27h2.27m0-2.27v2.27m0-2.27h2.27m-2.27 2.27h2.27m0-2.27v2.27m0-2.27h2.27m-2.27 2.27h2.27m0-2.27v2.27m0 0h2.27m-61.296 2.27h2.27m-2.27 0v2.27m4.54-2.27h-2.27m2.27 0v2.27m-2.27-2.27v2.27m9.08-2.27h2.271m0 0h2.27m9.082 0h-2.27m2.27 0h2.27m-2.27 0v2.27h2.27m-4.54-2.27h-2.271v2.27m2.27-2.27v2.27h-2.27m15.892-2.27h-2.27m2.27 0v2.27m0-2.27h2.27m-4.54 0v2.27h2.27m6.81-2.27h-2.27m2.27 0v2.27m0-2.27h2.271v2.27h-2.27m-2.27-2.27h-2.27m2.27 0v2.27m-59.028 0v-2.27H1.02v2.27h2.27Zm0 0h2.27m-2.27 0v2.27m4.541-4.54H5.56v2.27m2.27-2.27v2.27m0-2.27h2.27m-2.27 2.27H5.56m2.27 0h2.27m-2.27 0v2.27m-2.27-2.27v2.27m4.54-4.54v2.27m0-2.27h2.27m-2.27 2.27h2.27m-2.27 0v2.27m2.27-4.54v2.27m0-2.27h2.27m-2.27 2.27h2.27m-2.27 0v2.27m2.27-4.54v2.27m0-2.27h2.271v2.27h-2.27m9.08 0h-2.27m2.27 0h2.271m-2.27 0v2.27m-2.27-2.27h-2.27v2.27h2.27m0-2.27v2.27m4.54-2.27v2.27h-2.27m18.162-2.27h-2.27m2.27 0v2.27h-2.27m9.08-4.54v2.27m0-2.27h2.271m-2.27 2.27h2.27m-2.27 0v2.27m2.27-4.54v2.27m0-2.27h2.27v2.27h-2.27m0 0v2.27m6.81-2.27h2.271m-2.27 0v2.27m2.27-4.54v2.27m0 0h2.27m-2.27 0v2.27m2.27-2.27h2.27m-2.27 0v2.27m2.27-2.27v2.27m6.811-4.54h-2.27v2.27h2.27m0-2.27v2.27m0-2.27h2.27m-2.27 2.27h2.27m-2.27 0v2.27m2.27-4.54v2.27m0-2.27h2.271m-2.27 2.27h2.27m-2.27 0v2.27m2.27-4.54v2.27m0-2.27h2.27m-2.27 2.27h2.27m-2.27 0v2.27h2.27m0-4.54v2.27m0-2.27h2.27v2.27m-2.27 0h2.27m-2.27 0v2.27m2.27-2.27h2.27v2.27m-2.27-2.27v2.27m-74.918 0H3.29m2.27 0h2.27m-2.27 0v2.271m-2.27-2.27v2.27m4.54-2.27h2.27m0 0h2.27m-2.27 0v2.27m2.27-2.27v2.27m9.082-2.27h2.27m-2.27 0v2.27m2.27-2.27v2.27m9.08-2.27v-2.27h-2.27v2.27m2.27 0h-2.27m2.27 0v2.27m0-2.27h2.271m-4.54 0h-2.27v2.27h2.27m0-2.27v2.27m6.81-4.54h-2.27v2.27m2.27-2.27v2.27m0-2.27h2.27m-2.27 2.27h-2.27m2.27 0h2.27m-4.54 0v2.27h-2.27m6.81-4.54v2.27m11.352 0h-2.27m2.27 0v2.27m-2.27-2.27h-2.27v2.27h2.27m0-2.27v2.27m11.351-2.27h-2.27m2.27 0h2.27m-2.27 0v2.27h2.27m-4.54-2.27h-2.27m2.27 0v2.27h-2.27m9.08-2.27h-2.27m2.27 0v2.27m-2.27-2.27v2.27m11.352-2.27h-2.27m2.27 0v2.27m-2.27-2.27h-2.27v2.27m2.27-2.27v2.27m6.81-2.27h2.27m-2.27 0v2.27h2.27m2.27-2.27h-2.27m2.27 0v2.27m0-2.27h2.271v2.27m-4.54-2.27v2.27m-74.92 0H3.29m2.27 0v2.27m0-2.27H7.83m-4.54 0v2.27h2.27m6.81-2.27H10.1m2.27 0v2.27m0-2.27h2.27m-4.54 0H7.83m2.27 0v2.27m4.54-2.27h2.271v-2.27h-2.27v2.27Zm0 0v2.27m9.082-2.27h-2.27m2.27 0v2.27m-2.27-2.27h-2.27v2.27m2.27-2.27v2.27m9.08-2.27h2.27m-2.27 0v2.27m2.27-2.27v2.27m15.893-2.27h2.27m-2.27 0v2.27h2.27v-2.27m4.54-2.27h-2.27v2.27m2.27-2.27v2.27m0 0h-2.27m2.27 0v2.27m-2.27-2.27v2.27m9.081-2.27h2.27m-2.27 0v2.27m2.27-2.27v2.27m0-2.27h2.271m4.54 0h-2.27m2.27 0h2.27m-2.27 0v2.27m-2.27-2.27h-2.27m2.27 0v2.27m4.54-2.27v2.27m0-2.27h2.271v2.27m4.54-2.27h2.27m0 0h2.271m-2.27 0v2.27m2.27-2.27v2.27m-79.46 0H7.83m-2.27 0v2.27m2.27-4.54v2.27m0 0h2.27m-2.27 0v2.27m2.27-2.27h2.27m-2.27 0v2.27h2.27m0-2.27h2.27m-2.27 0v2.27m2.27-2.27v2.27m0-2.27h2.271v2.27h-2.27m6.81-2.27h-2.27m2.27 0h2.27m-2.27 0v2.27m-2.27-2.27v2.27m4.54-2.27v2.27m0-2.27h2.271m6.81 0h-2.27m2.27 0v2.27m0-2.27h2.271v2.27m-4.54-2.27h-2.27m2.27 0v2.27m9.08-2.27v-2.27h-2.27v2.27h2.27Zm0 0h2.271v2.27m-2.27-2.27v2.27m15.892-2.27h-2.27m2.27 0v2.27m0-2.27h2.27m-4.54 0v2.27m11.35-2.27h-2.27m2.27 0h2.271m-2.27 0v2.27m-2.27-2.27h-2.27m2.27 0v2.27m4.54-4.54v2.27m0 0h2.27m-2.27 0v2.27m2.27-2.27h2.27m-2.27 0v2.27m2.27-2.27h2.27m-2.27 0v2.27m2.27-2.27h2.271m-2.27 0v2.27m2.27-2.27v2.27m0-2.27h2.27m6.811 0h-2.27m2.27 0v2.27h-2.27m0-2.27h-2.27m2.27 0v2.27m-74.919 0H5.56m2.27 0v2.27m-2.27-2.27v2.27m6.81-2.27h2.27m-2.27 0v2.27m2.27-2.27v2.27m6.812-2.27h-2.27m2.27 0h2.27m-2.27 0v2.27m-2.27-2.27v2.27m4.54-2.27h2.27m-2.27 0v2.27m2.27-4.54v2.27m0-2.27h2.27m-2.27 2.27h2.27m-2.27 0v2.27m2.27-4.54v2.27m0 0h2.27m-2.27 0v2.27h-2.27m4.54-2.27h2.27m0 0h2.271m-2.27 0v2.27h2.27m0-2.27v2.27m6.811-2.27h-2.27m2.27 0v2.27m-2.27-2.27h-2.27v2.27m2.27-2.27v2.27m15.892-2.27h-2.27m2.27 0h2.27m-2.27 0v2.27h-2.27v-2.27m4.54-2.27v2.27m0-2.27h2.27m-2.27 2.27h2.27m0-2.27v2.27m0 0h2.27m0 0h2.27m0 0h2.271m-2.27 0v2.27m2.27-2.27h2.27m-2.27 0v2.27m2.27-2.27h2.27m-2.27 0v2.27m2.27-2.27h2.27m-2.27 0v2.27m4.541-2.27h-2.27m2.27 0h2.27m-4.54 0v2.27m4.54-4.54v2.27m0-2.27h2.27m-2.27 2.27h2.27m0-2.27v2.27m0 0h2.27m-2.27 0v2.27m2.27-2.27v2.27m-74.918 0H5.56m2.27 0v2.271m0-2.27h2.27v2.27H7.83m-2.27-2.27H3.29m2.27 0v2.27m9.08-2.27h-2.27m2.27 0v2.27m0-2.27h2.271m-4.54 0v2.27h2.27m6.81-2.27h-2.27m2.27 0h2.27m-4.54 0h-2.27m2.27 0v2.27m4.54-2.27h2.271m-2.27 0v2.27m2.27-2.27v2.27h-2.27m11.351-2.27h2.27m-2.27 0v2.27h2.27m2.27-2.27h-2.27m2.27 0h2.271m-2.27 0v2.27m-2.27-2.27v2.27m4.54-2.27v2.27m4.54-4.54h-2.27v2.27h2.27m0-2.27v2.27m0-2.27h2.27m-2.27 2.27h2.27m-2.27 0v2.27m2.27-4.54v2.27m0-2.27h2.271v2.27m-2.27 0h2.27m-2.27 0v2.27m2.27-2.27v2.27m15.892-2.27h-2.27m2.27 0h2.27m-2.27 0v2.27m-2.27-2.27h-2.27m2.27 0v2.27m4.54-2.27h2.27m-2.27 0v2.27m4.54-2.27h-2.27m2.27 0v2.27m0-2.27h2.271m-4.54 0v2.27m11.35-2.27h-2.27m2.27 0v2.27m0-2.27h2.271v2.27m-4.54-2.27v2.27m-77.19-2.27H1.02v2.27h2.27m0-2.27v2.27m0 0h2.27m-2.27 0v2.27h2.27m0-2.27H7.83m-2.27 0v2.27m2.27-2.27v2.27H5.56m9.08-2.27h2.271m0-2.27v2.27m0 0h2.27m0 0h2.27m-2.27 0v2.27m4.54-2.27h-2.27m2.27 0v2.27m13.622-2.27h2.27m-2.27 0v2.27m4.541-2.27h-2.27m2.27 0v2.27m0-2.27h2.27m-4.54 0v2.27m9.08-2.27h-2.27m2.27 0h2.271m-2.27 0v2.27m-2.27-2.27h-2.27m2.27 0v2.27m4.54-2.27v2.27m0-2.27h2.27m6.811-2.27h-2.27v2.27m2.27-2.27v2.27m0-2.27h2.27m-2.27 2.27h-2.27m2.27 0h2.27m-2.27 0v2.27m-2.27-2.27v2.27h2.27m2.27-4.54v2.27m0 0h2.27m-2.27 0v2.27m2.27-2.27h2.271m-2.27 0v2.27m2.27-2.27h2.27m-2.27 0v2.27m4.54-2.27h-2.27m2.27 0h2.27m-2.27 0v2.27m-2.27-2.27v2.27m4.54-2.27h2.271m-2.27 0v2.27m2.27-4.54v2.27m0-2.27h2.27v2.27h-2.27m0 0v2.27m6.81-2.27h-2.27m2.27 0h2.271m-2.27 0v2.27m-2.27-2.27v2.27m4.54-2.27v2.27h-2.27m-61.297-2.27v2.27m0 0h-2.27m2.27 0h2.27m-2.27 0v2.27m-2.27-2.27v2.27m4.54-2.27h2.27v2.27h-2.27v-2.27Zm15.892 0h-2.27m2.27 0h2.27m-2.27 0v2.27h-2.27m0-2.27h-2.27v2.27m2.27-2.27v2.27m4.54-2.27h2.27m0-2.27v2.27m0 0h2.27m-2.27 0v2.27m2.27-2.27h2.27m-2.27 0v2.27m2.27-2.27h2.271m-2.27 0v2.27m2.27-2.27h2.27m-2.27 0v2.27m2.27-4.54v2.27m0-2.27h2.27v2.27m-2.27 0h2.27m-2.27 0v2.27m2.27-2.27v2.27m4.541-2.27h2.27m-2.27 0v2.27m4.54-2.27h-2.27m2.27 0v2.27m-2.27-2.27v2.27m6.811-2.27h-2.27m2.27 0h2.27m-2.27 0v2.27m-2.27-2.27v2.27m4.54-2.27h2.27m-2.27 0v2.27h-2.27m4.54-2.27h2.271m-2.27 0v2.27h2.27m0-2.27v2.27m6.81-2.27h-2.27m2.27 0v2.27m-2.27-2.27h-2.27v2.27m2.27-2.27v2.27m-65.837-2.27h-2.27v2.27m2.27-2.27v2.27m0-2.27h2.27v2.27m-2.27 0h-2.27m2.27 0h2.27m-2.27 0v2.27m-2.27-2.27H10.1v2.27h2.27m0-2.27v2.27m4.54-2.27h2.27m-2.27 0v2.27m4.54-2.27h-2.27m2.27 0v2.27h-2.27m0-2.27v2.27m18.162-2.27h-2.27m2.27 0v2.27m-2.27-2.27h-2.27v2.27h2.27m0-2.27v2.27m11.352-2.27h-2.27m2.27 0h2.27m-2.27 0v2.27m-2.27-2.27h-2.271v2.27m2.27-2.27v2.27m6.811-2.27h-2.27m2.27 0h2.27m-2.27 0v2.27m-2.27-2.27v2.27h-2.27m9.08-2.27h-2.27m2.27 0h2.27v2.27h-2.27v-2.27Zm-2.27 0v2.27m9.081-2.27h-2.27m2.27 0h2.27m-2.27 0v2.27m-2.27-2.27v2.27m4.54-2.27h2.271m-2.27 0v2.27m4.54-2.27h-2.27m0 0v2.27m9.081-2.27h2.27m-2.27 0v2.27h2.27v-2.27m2.27 0h-2.27m2.27 0h2.27m-2.27 0v2.27m2.27-2.27v2.27m-77.188 0v-2.27H3.29v2.27h2.27Zm0 0h2.27v2.271H5.56m0-2.27v2.27m6.81-2.27h2.27m0 0h2.271m-2.27 0v2.27m4.54-2.27h-2.27m2.27 0v2.27h-2.27m0-2.27v2.27m18.162-2.27h2.27m-2.27 0v2.27m2.27-2.27v2.27m0-2.27h2.27v2.27h-2.27m6.811-2.27h-2.27m2.27 0v2.27m0-2.27h2.27m-4.54 0v2.27m4.54-2.27v2.27m6.811-2.27h-2.27m2.27 0v2.27m-2.27-2.27v2.27m11.351-2.27h-2.27m2.27 0v2.27m0-2.27h2.27m-4.54 0v2.27m6.811-2.27h-2.27m2.27 0v2.27h-2.27m0-2.27v2.27m18.162-2.27h-2.27m2.27 0v2.27m0-2.27h2.27v2.27m-4.54-2.27v2.27h2.27m-77.19 0H3.29m2.27 0v2.27m11.352-2.27h-2.27m0 0h-2.27v2.27h2.27m0-2.27v2.27m13.621-2.27v-2.27h-2.27v2.27h2.27Zm0 0h2.27m-2.27 0v2.27h2.27m6.811-2.27h-2.27m2.27 0v2.27m-2.27-2.27v2.27m9.081-2.27h-2.27m2.27 0h2.27m-2.27 0v2.27m-2.27-2.27v2.27m4.54-2.27v2.27m0-2.27h2.27m4.541 0h-2.27m2.27 0v2.27m-2.27-2.27h-2.27m2.27 0v2.27m11.351-2.27h-2.27m2.27 0h2.27m-2.27 0v2.27m-2.27-2.27v2.27m4.54-2.27v2.27h-2.27m9.081-4.54h-2.27v2.27m2.27-2.27v2.27m0-2.27h2.27v2.27m-2.27 0h-2.27m2.27 0h2.27m-2.27 0v2.27m-2.27-2.27v2.27m4.54-2.27h2.271v2.27m-2.27-2.27v2.27m9.08-2.27h2.271m-2.27 0v2.27h2.27v-2.27m-81.73 0H1.02v2.27m2.27-2.27v2.27m0 0H1.02m2.27 0h2.27m-2.27 0v2.27m-2.27-2.27v2.27h2.27m2.27-2.27v2.27m0-2.27H7.83v2.27m6.81-2.27h2.271m-2.27 0v2.27h2.27m13.622-4.54v2.27m0-2.27h2.27v2.27m-2.27 0h2.27m-2.27 0v2.27m2.27-2.27v2.27m0-2.27h2.27m2.27 0h-2.27m2.27 0v2.27m-2.27-2.27v2.27m9.081-2.27h-2.27m2.27 0h2.27m-2.27 0v2.27m-2.27-2.27h-2.27v2.27m2.27-2.27v2.27m4.54-2.27h2.27m-2.27 0v2.27m2.27-4.54v2.27m0 0h2.271m0 0h2.27m-2.27 0v2.27h2.27m0-2.27v2.27m4.54-2.27v-2.27h-2.27v2.27m2.27 0h-2.27m2.27 0v2.27m0-2.27h2.271m-4.54 0v2.27m6.81-2.27h-2.27m0 0v2.27m11.351-2.27h-2.27m2.27 0v2.27h-2.27m0-2.27h-2.27v2.27m2.27-2.27v2.27m6.811-2.27h-2.27m2.27 0v2.27m0-2.27h2.27m-4.54 0v2.27h2.27m-72.649 0h2.27m0 0H7.83m-2.27 0v2.27h2.27m0-2.27v2.27m0-2.27h2.27m6.811-2.27v2.27m0-2.27h2.27v2.27h-2.27m15.892 0h-2.27m2.27 0h2.27m-2.27 0v2.27m-2.27-2.27h-2.27v2.27h2.27m0-2.27v2.27m4.54-2.27h2.27m0 0h2.27m-2.27 0v2.27m4.541-2.27h-2.27m2.27 0h2.27m-2.27 0v2.27m-2.27-2.27v2.27m6.81-2.27h-2.27m2.27 0v2.27m0-2.27h2.27v2.27h-2.27m-2.27-2.27v2.27m9.081-2.27h2.27m-2.27 0v2.27m4.54-2.27h-2.27m2.27 0h2.271m-2.27 0v2.27m-2.27-2.27v2.27m4.54-2.27v2.27m9.081-2.27h-2.27m2.27 0v2.27m-2.27-2.27h-2.27v2.27m2.27-2.27v2.27m9.081-2.27h2.27m-2.27 0v2.27m2.27-4.54v2.27m0-2.27h2.27v2.27h-2.27m0 0v2.27m-70.378 0h2.27m-2.27 0v2.271m2.27-4.54v2.27m0-2.27h2.27v2.27m-2.27 0h2.27m-2.27 0v2.27m2.27-2.27v2.27m18.163-2.27h2.27m-2.27 0v2.27m2.27-2.27v2.27h-2.27m9.08-2.27h-2.27m2.27 0v2.27m-2.27-2.27h-2.27v2.27m2.27-2.27v2.27m6.811-2.27h-2.27m2.27 0h2.27m-2.27 0v2.27h-2.27v-2.27m13.622 0h-2.27m2.27 0h2.27m-4.54 0h-2.27v2.27h2.27v-2.27Zm4.54 0h2.27m0 0h2.27m-2.27 0v2.27m6.811-2.27h-2.27m2.27 0h2.27m-4.54 0h-2.27m2.27 0v2.27m4.54-2.27h2.27m-2.27 0v2.27h2.27m6.811-2.27h-2.27m2.27 0v2.27h-2.27m0-2.27h-2.27m2.27 0v2.27m-72.649 0v-2.27H1.02v2.27m2.27 0H1.02m2.27 0v2.27m0-2.27h2.27m-4.54 0v2.27h2.27m6.811-2.27H7.83m2.27 0h2.27m-2.27 0v2.27m-2.27-2.27H5.56m2.27 0v2.27m4.54-2.27v2.27m0-2.27h2.27m2.271-2.27h-2.27v2.27m2.27-2.27v2.27m0-2.27h2.27v2.27m-2.27 0h-2.27m2.27 0h2.27m-2.27 0v2.27m-2.27-2.27v2.27m4.54-2.27v2.27m0-2.27h2.27m2.27 0v-2.27h-2.27v2.27m2.27 0h-2.27m2.27 0v2.27m0-2.27h2.271m-4.54 0v2.27m9.08-2.27h-2.27m2.27 0v2.27m6.811-2.27h-2.27m2.27 0h2.27m-2.27 0v2.27m-2.27-2.27v2.27h2.27m2.27-2.27v2.27h-2.27m24.973-4.54v2.27m0 0h-2.27m2.27 0h2.27m-2.27 0v2.27m-2.27-2.27h-2.27v2.27m2.27-2.27v2.27m4.54-2.27h2.271v2.27m-2.27-2.27v2.27h2.27m4.54-4.54v2.27m0-2.27h2.27m-2.27 2.27h2.27m-2.27 0v2.27m2.27-4.54v2.27m0 0h2.271m-2.27 0v2.27m2.27-2.27v2.27m-72.649 0h2.27m-2.27 0v2.27m2.27-4.54v2.27m0 0H7.83m-2.27 0v2.27m2.27-2.27h2.27m-2.27 0v2.27m4.54-2.27H10.1m2.27 0h2.27m-2.27 0v2.27m-2.27-2.27v2.27m4.54-2.27v2.27m0-2.27h2.271m2.27 0h-2.27m2.27 0h2.27m-2.27 0v2.27m-2.27-2.27v2.27m4.54-2.27h2.27m-2.27 0v2.27m2.27-2.27h2.271m-2.27 0v2.27m2.27-4.54v2.27m0-2.27h2.27m-2.27 2.27h2.27m-2.27 0v2.27m2.27-4.54v2.27m0 0h2.27m-2.27 0v2.27m2.27-2.27v2.27m0-2.27h2.27v2.27m15.893-2.27v-2.27h-2.27v2.27m2.27 0h-2.27m2.27 0v2.27m0-2.27h2.27m-4.54 0h-2.27m2.27 0v2.27m13.621-2.27h-2.27m2.27 0h2.27m-2.27 0v2.27m-2.27-2.27h-2.27m2.27 0v2.27m4.54-2.27v2.27h-2.27m6.811-2.27h2.27m-2.27 0v2.27m6.81-2.27h-2.27m2.27 0h2.271m-2.27 0v2.27m-2.27-2.27h-2.27m2.27 0v2.27m4.54-2.27v2.27h-2.27m-68.108 0H3.29m2.27 0v2.271H3.29m0-2.27H1.02v2.27m2.27-2.27v2.27m6.81-2.27H7.83m2.27 0v2.27m-2.27-2.27v2.27h2.27m4.54-2.27h-2.27m2.27 0h2.271m-2.27 0v2.27m-2.27-2.27v2.27m4.54-2.27h2.27m0 0h2.27m0 0h2.27m0 0h2.271m-2.27 0v2.27h2.27m0-2.27v2.27m0-2.27h2.27m2.27 0h-2.27m2.27 0h2.27m-2.27 0v2.27h-2.27m0-2.27v2.27m4.54-2.27h2.271m-2.27 0v2.27h2.27m9.081-4.54h-2.27v2.27m2.27-2.27v2.27m0 0h-2.27m2.27 0h2.27m-4.54 0h-2.27m2.27 0v2.27h-2.27m6.81-2.27h2.27m0 0h2.271m-2.27 0v2.27m2.27-4.54v2.27m0-2.27h2.27m-2.27 2.27h2.27m-2.27 0v2.27m2.27-4.54v2.27m0-2.27h2.27m-2.27 2.27h2.27m0-2.27v2.27m0 0h2.27m0 0h2.271m-2.27 0v2.27m2.27-2.27v2.27m9.081-4.54v2.27m0 0h-2.27m2.27 0h2.27m-2.27 0v2.27m-2.27-2.27h-2.27v2.27m2.27-2.27v2.27m4.54-2.27h2.27m-2.27 0v2.27m2.27-2.27v2.27m-70.378 0H1.02m2.27 0v2.27m-2.27-2.27v2.27m9.081-2.27h2.27m-2.27 0v2.27m4.54-2.27h-2.27m2.27 0h2.271m-2.27 0v2.27h2.27m-4.54-2.27v2.27H10.1m15.891-2.27h2.27m6.811-2.27v2.27m0-2.27h2.27m-2.27 2.27h2.27m0-2.27v2.27m0-2.27h2.27m-2.27 2.27h2.27m0-2.27v2.27m11.352 0h-2.27m2.27 0v2.27m-2.27-2.27h-2.27v2.27h2.27m0-2.27v2.27m11.351-2.27h-2.27m2.27 0v2.27m0-2.27h2.27m-4.54 0h-2.27m2.27 0v2.27m9.081-2.27h-2.27m2.27 0h2.27m-2.27 0v2.27m-2.27-2.27h-2.27m2.27 0v2.27m4.54-2.27h2.27m-2.27 0v2.27m4.54-2.27h-2.27m2.27 0h2.271m-2.27 0v2.27h2.27m-4.54-2.27v2.27m-68.109 0H1.02m2.27 0v2.27m-2.27-2.27v2.27m9.081-2.27H7.83m2.27 0v2.27m6.811-4.54v2.27m0-2.27h2.27v2.27m-2.27 0h2.27m-2.27 0v2.27m2.27-2.27v2.27m29.514-2.27h2.27m-2.27 0v2.27h2.27m0-2.27v2.27m0-2.27h2.27m2.27-2.27h-2.27v2.27m2.27-2.27v2.27m0 0h-2.27m2.27 0h2.27m-2.27 0v2.27m-2.27-2.27v2.27m4.54-2.27h2.271m0 0h2.27m0-2.27v2.27m0 0h2.27m0 0h2.271m-2.27 0v2.27m2.27-2.27v2.27m4.54-2.27h-2.27m2.27 0v2.27m-2.27-2.27v2.27m6.811-4.54v2.27m0-2.27h2.27m-2.27 2.27h2.27m0-2.27v2.27m0-2.27h2.27m-2.27 2.27h2.27m0-2.27v2.27m0-2.27h2.27m-2.27 2.27h2.27m-2.27 0v2.27m2.27-4.54v2.27m0-2.27h2.271v2.27m-2.27 0h2.27m-2.27 0v2.27m2.27-2.27v2.27h-2.27m-79.46 0H1.02m2.27 0v2.27H1.02v-2.27m6.811-2.27H5.56v2.27m2.27-2.27v2.27m0 0H5.56m2.27 0h2.27m-2.27 0v2.27H5.56v-2.27m4.54 0h2.27m-2.27 0v2.27h2.27m6.811-2.27h-2.27m2.27 0v2.27m0-2.27h2.27m-4.54 0h-2.27m2.27 0v2.27m22.703-2.27v-2.27h-2.27v2.27h2.27Zm0 0h2.27m-2.27 0v2.27m2.27-2.27h2.27v-2.27h-2.27v2.27Zm0 0v2.27m9.081-2.27h2.27m-2.27 0v2.27m2.27-2.27h2.27m-2.27 0v2.27m2.27-2.27v2.27m0-2.27h2.27m9.082 0h-2.27m2.27 0v2.27m0-2.27h2.27m-4.54 0v2.27m6.81-2.27h-2.27m2.27 0v2.27m0-2.27h2.27m-4.54 0v2.27m13.622-2.27h-2.27m0 0h-2.27m2.27 0v2.27m-68.109-2.27v2.27m0-2.27h2.27m-2.27 2.27h2.27m0-2.27v2.27m0 0h2.271m0 0h2.27m0 0h2.27m-2.27 0v2.271h2.27m0-4.54v2.27m0-2.27h2.27m-2.27 2.27h2.27m-2.27 0v2.27m2.27-4.54v2.27m0-2.27h2.271v2.27m-2.27 0h2.27m-2.27 0v2.27h-2.27m4.54-2.27h2.27v2.27h-2.27v-2.27Zm15.892 0h-2.27m2.27 0v2.27m-2.27-2.27v2.27m13.621-2.27h-2.27m2.27 0h2.27m-2.27 0v2.27h2.27v-2.27m-4.54 0h-2.27m2.27 0v2.27m4.54-2.27h2.27m0-2.27v2.27m0-2.27h2.271m-2.27 2.27h2.27m-2.27 0v2.27m2.27-4.54v2.27m0-2.27h2.27v2.27m-2.27 0h2.27m-2.27 0v2.27m2.27-2.27h2.27m-2.27 0v2.27h2.27m2.271-2.27h-2.27m2.27 0h2.27m-2.27 0v2.27m-2.27-2.27v2.27m4.54-2.27h2.27m0 0h2.27m0-2.27v2.27m0-2.27h2.271m-2.27 2.27h2.27m-2.27 0v2.27m2.27-4.54v2.27m0-2.27h2.27m-2.27 2.27h2.27m-2.27 0v2.27m2.27-4.54v2.27m0 0h2.27m-2.27 0v2.27m2.27-2.27h2.27v2.27m-2.27-2.27v2.27m-38.594 0h-2.27m2.27 0v2.27m-2.27-2.27h-2.27m2.27 0v2.27m6.81-4.54h-2.27v2.27h2.27m0-2.27v2.27m0-2.27h2.27m-2.27 2.27h2.27m0-2.27v2.27m0 0h2.271m-2.27 0v2.27m2.27-2.27v2.27m9.081-2.27h-2.27m2.27 0v2.27m-2.27-2.27v2.27m6.81-2.27h2.271m-2.27 0v2.27m2.27-2.27v2.27m9.081-2.27h-2.27m2.27 0h2.27m-2.27 0v2.27m-2.27-2.27v2.27m4.54-2.27h2.27m-2.27 0v2.27m4.54-2.27h-2.27m2.27 0v2.27m0-2.27h2.271v2.27h-2.27m-2.27-2.27v2.27m-77.19-2.27H1.02v2.27m2.27-2.27v2.27m0-2.27h2.27m-2.27 2.27H1.02m2.27 0h2.27m-2.27 0v2.27m-2.27-2.27v2.27m4.54-4.54v2.27m0-2.27H7.83m-2.27 2.27h2.27m0-2.27v2.27m0-2.27h2.27m-2.27 2.27h2.27m0-2.27v2.27m0-2.27h2.27m-2.27 2.27h2.27m0-2.27v2.27m0-2.27h2.27m-2.27 2.27h2.27m0-2.27v2.27m0-2.27h2.271v2.27m-2.27 0h2.27m-2.27 0v2.27m2.27-2.27v2.27m18.162-4.54h-2.27v2.27m2.27-2.27v2.27m0-2.27h2.27m-2.27 2.27h-2.27m2.27 0h2.27m-2.27 0v2.27m-2.27-2.27v2.27m4.54-4.54v2.27m0 0h2.27m0 0h2.271m-2.27 0v2.27m2.27-2.27v2.27m0-2.27h2.27m6.811 0h-2.27m2.27 0v2.27m0-2.27h2.27m-4.54 0v2.27m11.351-2.27h-2.27m2.27 0v2.27m0-2.27h2.27m-4.54 0v2.27m9.081-2.27h-2.27m2.27 0v2.27m-2.27-2.27h-2.27m2.27 0v2.27m11.351-2.27h-2.27m2.27 0v2.27m0-2.27h2.27m-4.54 0v2.27m6.81-2.27h-2.27m2.27 0h2.27m-2.27 0v2.27m-2.27-2.27v2.27m4.54-2.27v2.27m-79.459 0H1.02m2.27 0v2.27m-2.27-2.27v2.27m15.892-2.27h-2.27m2.27 0v2.27m-2.27-2.27v2.27m6.81-2.27v-2.27h-2.27v2.27m2.27 0h-2.27m2.27 0v2.27m0-2.27h2.27m-4.54 0v2.27m6.811-4.54h-2.27v2.27m2.27-2.27v2.27m0-2.27h2.27m-2.27 2.27h-2.27m2.27 0h2.27m-2.27 0v2.27m-2.27-2.27v2.27h-2.27m6.81-4.54v2.27m0-2.27h2.27v2.27h-2.27m0 0v2.27m6.811-2.27h-2.27m2.27 0v2.27m0-2.27h2.27m-4.54 0v2.27m9.081-2.27h-2.27m2.27 0h2.27m-4.54 0h-2.27m2.27 0v2.27h-2.27m6.81-4.54v2.27m0-2.27h2.27v2.27h-2.27m6.811 0h-2.27m2.27 0h2.27m-2.27 0v2.27m-2.27-2.27v2.27m4.54-4.54v2.27m0-2.27h2.27v2.27m-2.27 0h2.27m-2.27 0v2.27m2.27-2.27v2.27m0-2.27h2.27m2.271 0h-2.27m2.27 0h2.27m-2.27 0v2.27h-2.27m0-2.27v2.27m4.54-4.54v2.27m0 0h2.27m-2.27 0v2.27h2.27m0-2.27h2.271m-2.27 0v2.27m2.27-2.27v2.27m0-2.27h2.27m6.811 0h-2.27m2.27 0h2.27m-2.27 0v2.27m-2.27-2.27h-2.27m2.27 0v2.27m4.54-2.27h2.27m-2.27 0v2.27m4.54-2.27h-2.27m2.27 0v2.27m-2.27-2.27v2.27m-77.189 0H1.02m2.27 0v2.271m-2.27-2.27v2.27m6.811-4.54H5.56v2.27m2.27-2.27v2.27m0-2.27h2.27m-2.27 2.27H5.56m2.27 0h2.27m-2.27 0v2.27m-2.27-2.27v2.27m4.54-4.54v2.27m0-2.27h2.27v2.27m-2.27 0h2.27m-2.27 0v2.27m2.27-2.27v2.27m4.541-2.27h-2.27m2.27 0v2.27m-2.27-2.27v2.27m6.81-2.27h-2.27m2.27 0v2.27m-2.27-2.27v2.27m9.081-2.27h-2.27m2.27 0v2.27m0-2.27h2.27m-4.54 0v2.27h2.27m6.811-2.27h-2.27m2.27 0h2.27m-2.27 0v2.27m-2.27-2.27h-2.27m2.27 0v2.27m4.54-4.54v2.27m0 0v2.27m13.622-2.27h-2.27m2.27 0v2.27m0-2.27h2.27m-4.54 0h-2.27v2.27m2.27-2.27v2.27m6.81-2.27h-2.27m2.27 0h2.27m-2.27 0v2.27m-2.27-2.27v2.27m4.54-2.27v2.27m6.812-2.27h2.27m-2.27 0v2.27m2.27-2.27h2.27m-2.27 0v2.27m2.27-4.54v2.27m0-2.27h2.27m-2.27 2.27h2.27m-2.27 0v2.27m2.27-4.54v2.27m0 0h2.27m-2.27 0v2.27h-2.27m4.54-2.27h2.271m-2.27 0v2.27h2.27m0-2.27v2.27m0-2.27h2.27m2.27 0h-2.27m2.27 0h2.27m-2.27 0v2.27h2.27m-4.54-2.27v2.27h-2.27m6.81-2.27v2.27m-79.459 0H1.02m2.27 0v2.27m-2.27-2.27v2.27m6.811-2.27H5.56m2.27 0h2.27m-2.27 0v2.27m-2.27-2.27v2.27h2.27m2.27-2.27h2.27m-2.27 0v2.27m2.27-2.27v2.27H10.1m6.811-2.27h-2.27m2.27 0v2.27m-2.27-2.27v2.27m6.81-2.27h-2.27m2.27 0v2.27m0-2.27h2.27v2.27h-2.27m-2.27-2.27v2.27h2.27m6.811-2.27h2.27m-2.27 0v2.27m2.27-4.54v2.27m0 0h2.27m-2.27 0v2.27m2.27-2.27h2.271m-2.27 0v2.27m4.54-2.27h-2.27m2.27 0v2.27m0-2.27h2.27v2.27h-2.27m-2.27-2.27v2.27m9.081-2.27v-2.27h-2.27v2.27h2.27Zm0 0h2.27m-2.27 0v2.27m4.54-2.27h-2.27m2.27 0h2.271m-2.27 0v2.27m-2.27-2.27v2.27m4.54-2.27h2.27m-2.27 0v2.27m2.27-2.27v2.27h-2.27m6.81-2.27h-2.27m2.27 0v2.27m0-2.27h2.271v2.27m-4.54-2.27v2.27m11.351-2.27h-2.27m2.27 0h2.27m-2.27 0v2.27m-2.27-2.27h-2.27v2.27m2.27-2.27v2.27m4.54-2.27v2.27m13.622-2.27h2.27v2.27m-2.27-2.27v2.27m-79.46 0H1.02m2.27 0v2.27m-2.27-2.27v2.27m6.811-2.27h2.27m6.811 0h-2.27m2.27 0v2.27m-2.27-2.27v2.27m15.892-2.27h-2.27m2.27 0h2.27m-2.27 0v2.27m-2.27-2.27h-2.27v2.27m2.27-2.27v2.27m6.81-2.27h-2.27m2.27 0h2.27m-2.27 0v2.27m-2.27-2.27v2.27m4.54-2.27v2.27m9.082-2.27h-2.27m2.27 0v2.27m0-2.27h2.27m-4.54 0v2.27m6.81-2.27h-2.27m2.27 0v2.27m-2.27-2.27v2.27m9.08-2.27h-2.27m2.27 0h2.271m-2.27 0v2.27m-2.27-2.27v2.27m4.54-2.27h2.27m-2.27 0v2.27m4.54-2.27h-2.27m2.27 0v2.27m0-2.27h2.271m-4.54 0v2.27m6.81-2.27h-2.27m2.27 0h2.27v2.27m-2.27-2.27v2.27m-2.27-2.27v2.27h-2.27m20.432-2.27h-2.27m2.27 0v2.27m-2.27-2.27v2.27m-79.46 0H1.02m2.27 0V85m0-2.27h2.27m-4.54 0V85h2.27m13.622-2.27h-2.27m2.27 0V85h-2.27m0-2.27h-2.27m2.27 0V85m13.621-2.27h-2.27m2.27 0h2.27m-2.27 0V85h2.27m-4.54-2.27h-2.27V85h2.27v-2.27Zm6.81 0h-2.27m2.27 0h2.271m-2.27 0V85h-2.27m0-2.27V85m4.54-2.27h2.27m-2.27 0V85h2.27m0-2.27V85m0-2.27h2.27m6.812 0h-2.27m2.27 0h2.27m-2.27 0V85h-2.27v-2.27m4.54 0h2.27m0 0h2.27m-2.27 0V85h2.27m4.54-2.27h-2.27m2.27 0V85m0-2.27h2.271m-4.54 0h-2.27m2.27 0V85m6.81-2.27h-2.27m2.27 0h2.27m-2.27 0V85m-2.27-2.27V85m4.54-2.27V85h-2.27m9.081-2.27h-2.27m2.27 0V85h-2.27v-2.27m6.811 0v-2.27h-2.27v2.27m2.27 0h-2.27m2.27 0V85h-2.27v-2.27m11.351 0h-2.27m2.27 0V85h-2.27m0-2.27h-2.27m2.27 0V85m-79.46 0h2.27m0-2.27V85m0-2.27H7.83M5.56 85h2.27m0-2.27V85m0-2.27h2.27M7.83 85h2.27m0-2.27V85m0-2.27h2.27M10.1 85h2.27m0-2.27V85m0 0h2.27m22.703 0h2.27m0-2.27V85m0-2.27h2.271V85h-2.27m13.621-2.27V85m0 0h2.27m0 0h2.27m0 0h2.271m0 0h2.27m18.163-2.27h-2.27V85h2.27m0-2.27V85m0 0h2.27M55.506 1h2.27v2.27h-2.27V1ZM30.533 35.054h2.27v2.27h-2.27v-2.27Zm-9.081 11.351h2.27v2.27h-2.27v-2.27Zm61.297 4.54h2.27v2.271h-2.27v-2.27Zm-4.54 4.541h2.27v2.27h-2.27v-2.27Zm4.54 0h2.27v2.27h-2.27v-2.27Zm-54.487 6.811h2.27v2.27h-2.27v-2.27Zm4.54 0h2.271v2.27h-2.27v-2.27Zm36.325 6.811h2.27v2.27h-2.27v-2.27ZM19.181 82.73h2.27V85h-2.27v-2.27Z"/></svg>
