<svg xmlns="http://www.w3.org/2000/svg" viewBox="315" width="340" height="32">
    <svg width="35" height="11" viewBox="0 0 35 11" fill="none" role="img" aria-labelledby="visaTitleID" x="0" y="10">
        <title id="visaTitleID">Visa</title>
        <path d="M12.7087 10.764L14.4468 0.725616H17.2258L15.4877 10.764H12.7087Z" fill="#0058A0"></path>
        <path d="M25.5648 0.971798C24.7673 0.687442 23.9249 0.544843 23.0768 0.550646C20.331 0.550646 18.3898 1.91218 18.3898 3.86409C18.3741 5.30639 19.7705 6.11023 20.825 6.591C21.8796 7.07177 22.2702 7.39677 22.2663 7.83715C22.2663 8.5083 21.4012 8.81599 20.6024 8.81599C19.7011 8.84214 18.8059 8.66176 17.9875 8.28907L17.6301 8.12945L17.2395 10.3775C17.8879 10.6583 19.0889 10.9006 20.3349 10.9121C23.2642 10.9121 25.1527 9.56598 25.1742 7.4833C25.1742 6.341 24.4438 5.47178 22.8307 4.75639C21.8542 4.29101 21.2684 3.98717 21.2684 3.51025C21.2684 3.09294 21.7722 2.64679 22.86 2.64679C23.5728 2.63222 24.281 2.76318 24.9398 3.0314L25.1898 3.14871L25.5648 0.971798Z" fill="#0058A0"></path>
        <path d="M32.6908 0.742937H30.5426C29.8767 0.742937 29.3709 0.921782 29.0877 1.57563L24.9612 10.7679H27.8788C27.8788 10.7679 28.3573 9.52943 28.4647 9.25828H32.0229C32.1069 9.6102 32.3608 10.764 32.3608 10.764H34.9406L32.6908 0.742937ZM29.2654 7.20444C29.4939 6.62752 30.3707 4.39869 30.3707 4.39869C30.3707 4.39869 30.5992 3.82177 30.7398 3.43715L30.9351 4.30253L31.5796 7.2006L29.2654 7.20444Z" fill="#0058A0"></path>
        <path d="M10.3828 0.742937L7.65848 7.57752L7.3675 6.18714C6.86756 4.58907 5.28374 2.84485 3.52026 1.97562L6.00827 10.7563H8.93764L13.3219 0.742937H10.3828Z" fill="#0058A0"></path>
        <path d="M5.13525 0.725616H0.653316L0.618164 0.935231C4.10411 1.766 6.4105 3.77368 7.36743 6.18713L6.39097 1.57177C6.22497 0.935231 5.7387 0.742924 5.13525 0.725616Z" fill="#FAA61A"></path>
    </svg>
    <svg width="27" height="21" viewBox="0 0 27 21" fill="none" role="img" aria-labelledby="mastercardTitleID" x="51" y="5">
        <title id="mastercardTitleID">Mastercard</title>
        <path d="M4.47568 18.858C4.39958 18.7829 4.30927 18.7238 4.21004 18.684C4.10255 18.6416 3.98789 18.6202 3.87233 18.6212C3.80505 18.6217 3.73791 18.6275 3.67156 18.6387C3.60074 18.6496 3.53156 18.6693 3.46564 18.6974C3.39745 18.7271 3.33398 18.7667 3.27722 18.8148C3.2137 18.8675 3.16032 18.9313 3.11969 19.0032C3.04924 18.8858 2.94862 18.7894 2.82831 18.7241C2.69911 18.6542 2.55408 18.6188 2.4072 18.6212C2.35199 18.6216 2.2969 18.6264 2.24247 18.6356C2.18451 18.6462 2.12789 18.6631 2.07361 18.6861C2.01611 18.7106 1.96237 18.7432 1.91402 18.7828C1.86 18.8268 1.81312 18.8789 1.77503 18.9373V18.6768H1.32715V20.807H1.77914V19.6261C1.77783 19.5437 1.79252 19.4619 1.82239 19.3852C1.84863 19.319 1.88784 19.2588 1.9377 19.2081C1.9861 19.1622 2.04364 19.1271 2.10656 19.1051C2.1723 19.0801 2.24213 19.0675 2.31248 19.068C2.4462 19.0604 2.57625 19.1134 2.66666 19.2122C2.75716 19.3297 2.80181 19.476 2.79228 19.624V20.8091H3.24427V19.6261C3.24296 19.5437 3.25764 19.4619 3.28752 19.3852C3.31376 19.319 3.35297 19.2588 3.40283 19.2081C3.45123 19.1622 3.50877 19.1271 3.57169 19.1051C3.63747 19.0802 3.70727 19.0676 3.77761 19.068C3.911 19.0606 4.04067 19.1135 4.13076 19.2122C4.22162 19.3295 4.26664 19.4759 4.2574 19.624V20.8091H4.70837V19.4706C4.71048 19.352 4.68949 19.2342 4.64659 19.1236C4.60799 19.0245 4.54987 18.9342 4.47568 18.858Z" fill="#1D1D1B"></path>
        <path d="M6.85814 18.9351C6.7835 18.8415 6.68933 18.7652 6.58221 18.7117C6.46014 18.6512 6.3251 18.6215 6.1889 18.6252C5.90426 18.6222 5.63094 18.7365 5.43317 18.9413C5.335 19.0432 5.25801 19.1636 5.20666 19.2955C5.0968 19.5857 5.0968 19.9061 5.20666 20.1964C5.25777 20.3284 5.33479 20.4488 5.43317 20.5506C5.63214 20.7543 5.90622 20.8671 6.19096 20.8625C6.32694 20.8664 6.46186 20.8374 6.58427 20.7781C6.6917 20.7237 6.78589 20.6464 6.8602 20.5516V20.8069H7.32352V18.6767H6.85814V18.9351ZM6.84064 20.0131C6.81156 20.0932 6.76675 20.1668 6.70885 20.2293C6.65097 20.2909 6.58082 20.3397 6.50293 20.3724C6.42013 20.4084 6.33063 20.4263 6.24038 20.4249C6.14758 20.4264 6.05555 20.4078 5.97062 20.3704C5.89237 20.3364 5.8222 20.2862 5.7647 20.2231C5.70896 20.1599 5.66596 20.0865 5.63806 20.0069C5.60814 19.9219 5.59316 19.8324 5.59379 19.7423C5.59299 19.6522 5.60798 19.5626 5.63806 19.4777C5.66596 19.3978 5.70896 19.3241 5.7647 19.2605C5.82254 19.1981 5.89265 19.1483 5.97062 19.1143C6.0554 19.0763 6.14753 19.0577 6.24038 19.0597C6.33063 19.0584 6.42013 19.0763 6.50293 19.1122C6.58103 19.1446 6.65126 19.1934 6.70885 19.2553C6.76653 19.3177 6.81132 19.3908 6.84064 19.4705C6.87218 19.5576 6.88787 19.6497 6.88697 19.7423C6.88795 19.8346 6.87225 19.9264 6.84064 20.0131Z" fill="#1D1D1B"></path>
        <path d="M9.45868 19.7415C9.29793 19.627 9.11029 19.5561 8.91402 19.5355L8.69368 19.5026C8.64529 19.4944 8.59896 19.4861 8.55571 19.4769C8.51719 19.4684 8.47985 19.4553 8.44452 19.4377C8.41528 19.4228 8.3899 19.4013 8.37039 19.3749C8.35116 19.3479 8.34139 19.3154 8.34259 19.2823C8.34079 19.2069 8.38028 19.1366 8.44555 19.099C8.53532 19.0469 8.63849 19.0226 8.74207 19.029C8.80803 19.0286 8.87388 19.0344 8.93873 19.0465C9.00066 19.0575 9.06187 19.0723 9.122 19.0908C9.17575 19.1068 9.22838 19.1264 9.27953 19.1494C9.32074 19.1679 9.36095 19.1885 9.39999 19.2112L9.59973 18.8488C9.4794 18.7737 9.3481 18.7177 9.21054 18.683C9.05586 18.6431 8.89667 18.6234 8.73693 18.6243C8.61311 18.6225 8.48968 18.6385 8.37039 18.6717C8.27046 18.6995 8.17655 18.7456 8.09342 18.8076C8.01879 18.864 7.95877 18.9374 7.91839 19.0218C7.87616 19.1108 7.85502 19.2084 7.85661 19.307C7.85282 19.4648 7.9201 19.616 8.03988 19.7188C8.19614 19.838 8.38348 19.9095 8.5794 19.9247L8.80179 19.9536C8.90007 19.9622 8.99546 19.9913 9.08184 20.039C9.13625 20.0697 9.17034 20.1269 9.17142 20.1893C9.17048 20.2711 9.12288 20.3451 9.0489 20.3798C8.9358 20.433 8.81123 20.457 8.68647 20.4498C8.60788 20.4503 8.52937 20.4445 8.45172 20.4323C8.38735 20.4215 8.32398 20.4053 8.26228 20.3839C8.20914 20.3657 8.15779 20.3426 8.10887 20.315C8.0653 20.2898 8.02335 20.2619 7.98325 20.2316L7.76807 20.5806C7.84259 20.6371 7.92387 20.6842 8.01002 20.7206C8.09061 20.7553 8.17395 20.7832 8.25919 20.804C8.33519 20.8237 8.41266 20.8371 8.49085 20.8442C8.56292 20.8514 8.62676 20.8545 8.68236 20.8545C8.82135 20.8563 8.95994 20.839 9.0942 20.803C9.20517 20.7749 9.30993 20.7264 9.40308 20.6599C9.48033 20.6035 9.54371 20.5303 9.58841 20.4457C9.63287 20.3588 9.65549 20.2623 9.6543 20.1646C9.66173 20.0002 9.58878 19.8424 9.45868 19.7415Z" fill="#1D1D1B"></path>
        <path d="M13.8097 18.9321C13.7214 18.8336 13.6128 18.7553 13.4915 18.7025C13.3614 18.647 13.2211 18.6193 13.0797 18.6212C12.9323 18.6196 12.786 18.6473 12.6493 18.7025C12.5229 18.7547 12.4089 18.833 12.3147 18.9321C12.2188 19.0342 12.1445 19.1547 12.0964 19.2863C12.0436 19.4325 12.0174 19.587 12.0192 19.7424C12.0168 19.8994 12.0437 20.0555 12.0985 20.2026C12.1483 20.3345 12.2247 20.4547 12.3229 20.5558C12.4208 20.6546 12.5383 20.7317 12.6678 20.7823C12.8082 20.8371 12.9578 20.8644 13.1085 20.8626C13.2647 20.8632 13.4202 20.8407 13.5698 20.7957C13.7218 20.7477 13.8621 20.6684 13.9816 20.563L13.751 20.2315C13.6625 20.3024 13.5631 20.3584 13.4565 20.3972C13.3537 20.4354 13.245 20.4553 13.1353 20.4559C13.0614 20.4562 12.9879 20.4458 12.917 20.425C12.8487 20.405 12.7847 20.3721 12.7286 20.3283C12.6701 20.282 12.6208 20.225 12.5834 20.1604C12.5407 20.084 12.5128 20.0001 12.501 19.9133H14.0753C14.0753 19.8866 14.0805 19.8588 14.0825 19.8289C14.0846 19.799 14.0825 19.7692 14.0825 19.7404C14.0847 19.5854 14.0592 19.4313 14.0074 19.2853C13.9646 19.156 13.8975 19.0362 13.8097 18.9321ZM12.5093 19.5602C12.5204 19.4866 12.5415 19.4149 12.5721 19.347C12.6002 19.2855 12.6389 19.2294 12.6864 19.1813C12.7336 19.1337 12.7905 19.0968 12.8532 19.0732C12.9239 19.0465 12.999 19.0336 13.0745 19.0351C13.2091 19.03 13.3399 19.0798 13.437 19.173C13.5372 19.279 13.5998 19.4151 13.6151 19.5602H12.5093Z" fill="#1D1D1B"></path>
        <path d="M19.9876 18.9353C19.8269 18.7311 19.578 18.6163 19.3183 18.6264C19.0337 18.6235 18.7604 18.7378 18.5626 18.9425C18.4641 19.0444 18.3868 19.1648 18.3351 19.2967C18.2252 19.587 18.2252 19.9074 18.3351 20.1976C18.3866 20.3296 18.4639 20.4501 18.5626 20.5518C18.6584 20.6512 18.7733 20.7303 18.9003 20.7845C19.0324 20.8408 19.1747 20.8692 19.3183 20.8679C19.4543 20.8716 19.5892 20.8427 19.7117 20.7835C19.8189 20.7288 19.9131 20.6515 19.9876 20.5569V20.8123H20.4519V18.6769H19.9876V18.9353ZM19.9691 20.0133C19.9404 20.0934 19.8959 20.1669 19.8383 20.2295C19.7803 20.291 19.7102 20.3397 19.6324 20.3726C19.5499 20.4085 19.4608 20.4264 19.3709 20.4251C19.2777 20.4266 19.1854 20.408 19.1001 20.3706C19.0216 20.337 18.9514 20.2867 18.8942 20.2233C18.8384 20.1601 18.7954 20.0867 18.7675 20.0071C18.7376 19.9221 18.7226 19.8326 18.7232 19.7425C18.7224 19.6524 18.7374 19.5629 18.7675 19.4779C18.7954 19.398 18.8384 19.3243 18.8942 19.2607C18.9517 19.1979 19.0219 19.1481 19.1001 19.1145C19.2703 19.0431 19.4621 19.0431 19.6324 19.1145C19.7104 19.147 19.7806 19.1958 19.8383 19.2576C19.8957 19.32 19.9401 19.3931 19.9691 19.4728C20.0014 19.5597 20.0175 19.6518 20.0164 19.7446C20.016 19.8366 19.9986 19.9277 19.9649 20.0133H19.9691Z" fill="#1D1D1B"></path>
        <path d="M11.4512 20.3827C11.3805 20.4099 11.3056 20.4242 11.2298 20.4249C11.1849 20.4256 11.1402 20.4179 11.098 20.4023C11.0588 20.3872 11.0236 20.3632 10.9951 20.3323C10.9627 20.2966 10.9381 20.2545 10.923 20.2087C10.9041 20.1499 10.895 20.0883 10.8962 20.0265V19.0998H11.6427V18.6767H10.8962V18.0321H10.4298V18.6767H10.0005V19.0998H10.4257V20.0357C10.4257 20.3189 10.4926 20.5269 10.6316 20.6618C10.7842 20.8025 10.9876 20.875 11.1948 20.8625C11.3191 20.8644 11.4426 20.8434 11.5593 20.8007C11.6275 20.7745 11.6935 20.7432 11.757 20.7071L11.5984 20.3179C11.5507 20.3423 11.5015 20.364 11.4512 20.3827Z" fill="#1D1D1B"></path>
        <path d="M15.6468 18.6212C15.5249 18.6193 15.4041 18.6439 15.2927 18.6933C15.1839 18.7578 15.093 18.8484 15.028 18.9568V18.6768H14.6069V20.807H15.0332V19.6384C15.0317 19.5562 15.0446 19.4743 15.0713 19.3965C15.093 19.3301 15.1281 19.2687 15.1742 19.2163C15.2181 19.1673 15.2727 19.1292 15.3338 19.1051C15.3993 19.0789 15.4693 19.066 15.5398 19.067C15.601 19.0677 15.6621 19.0746 15.722 19.0876C15.7538 19.0934 15.7852 19.1016 15.8157 19.1123L15.9526 18.6675C15.9154 18.6559 15.8776 18.6462 15.8394 18.6387C15.7758 18.6277 15.7114 18.6219 15.6468 18.6212Z" fill="#1D1D1B"></path>
        <path d="M22.1066 18.6212C21.9847 18.6192 21.8638 18.6438 21.7524 18.6933C21.6435 18.7575 21.5525 18.8482 21.4878 18.9568V18.6768H21.0657V20.807H21.493V19.6384C21.4917 19.5563 21.5042 19.4745 21.53 19.3965C21.5522 19.3303 21.5872 19.269 21.633 19.2163C21.6768 19.1673 21.7314 19.1292 21.7926 19.1051C21.858 19.0789 21.928 19.066 21.9985 19.067C22.0598 19.0677 22.1208 19.0746 22.1807 19.0876C22.2125 19.0935 22.2438 19.1018 22.2744 19.1123L22.4114 18.6675C22.3738 18.6557 22.3357 18.6461 22.2971 18.6387C22.2342 18.6278 22.1705 18.6219 22.1066 18.6212Z" fill="#1D1D1B"></path>
        <path d="M24.2769 17.8117V18.935C24.1162 18.7308 23.8673 18.616 23.6077 18.6261C23.3228 18.6235 23.0493 18.7377 22.8509 18.9422C22.7531 19.0444 22.6761 19.1647 22.6244 19.2964C22.5145 19.5867 22.5145 19.9071 22.6244 20.1973C22.6759 20.3291 22.7529 20.4495 22.8509 20.5515C23.0493 20.756 23.3228 20.8702 23.6077 20.8676C23.7436 20.8713 23.8785 20.8424 24.001 20.7832C24.1082 20.7285 24.2024 20.6512 24.2769 20.5566V20.812H24.7413V17.8117H24.2769ZM24.2584 20.013C24.2297 20.0931 24.1852 20.1666 24.1276 20.2292C24.0696 20.2907 23.9995 20.3395 23.9217 20.3723C23.8392 20.4082 23.7501 20.4261 23.6602 20.4249C23.567 20.4263 23.4747 20.4077 23.3894 20.3703C23.3128 20.336 23.2443 20.2858 23.1886 20.2231C23.1321 20.1604 23.089 20.0868 23.062 20.0068C23.0317 19.9219 23.0164 19.8324 23.0167 19.7422C23.0162 19.6521 23.0315 19.5625 23.062 19.4776C23.089 19.3974 23.1321 19.3235 23.1886 19.2604C23.2446 19.1982 23.313 19.1484 23.3894 19.1142C23.5596 19.0428 23.7514 19.0428 23.9217 19.1142C23.9997 19.1467 24.0699 19.1955 24.1276 19.2573C24.185 19.3197 24.2294 19.3928 24.2584 19.4725C24.2902 19.5595 24.3063 19.6516 24.3057 19.7443C24.3061 19.836 24.2901 19.927 24.2584 20.013Z" fill="#1D1D1B"></path>
        <path d="M16.7588 19.2492C16.8191 19.1888 16.8909 19.1412 16.9699 19.1092C17.0541 19.0757 17.1439 19.0589 17.2345 19.0598C17.3338 19.0589 17.4324 19.0756 17.5259 19.1092C17.6088 19.1396 17.6853 19.1854 17.7514 19.2441L17.9748 18.8724C17.8893 18.8035 17.7938 18.7479 17.6917 18.7076C17.3978 18.5923 17.0712 18.5923 16.7774 18.7076C16.5048 18.814 16.2876 19.0271 16.1761 19.2976C16.0608 19.5829 16.0608 19.9019 16.1761 20.1872C16.2884 20.4571 16.5053 20.67 16.7774 20.7771C17.0715 20.8911 17.3975 20.8911 17.6917 20.7771C17.7934 20.736 17.8888 20.6806 17.9748 20.6124L17.7514 20.2407C17.6853 20.299 17.6088 20.3445 17.5259 20.3746C17.4325 20.4084 17.3339 20.4255 17.2345 20.425C17.1439 20.4255 17.054 20.4083 16.9699 20.3746C16.8906 20.343 16.8188 20.2953 16.7588 20.2345C16.6982 20.1729 16.6506 20.0998 16.6188 20.0193C16.5502 19.8411 16.5502 19.6437 16.6188 19.4654C16.6508 19.3848 16.6984 19.3113 16.7588 19.2492Z" fill="#1D1D1B"></path>
        <path d="M25.7203 20.4951C25.75 20.4951 25.7795 20.501 25.8068 20.5126C25.8331 20.5237 25.8572 20.5394 25.8779 20.559C25.8982 20.5785 25.9143 20.602 25.9252 20.6279C25.9373 20.6544 25.9433 20.6833 25.9427 20.7124C25.9432 20.7415 25.9372 20.7703 25.9252 20.7968C25.9142 20.8227 25.8981 20.8462 25.8779 20.8658C25.8572 20.8857 25.8332 20.9018 25.8068 20.9131C25.7794 20.9244 25.75 20.93 25.7203 20.9296C25.69 20.9301 25.6599 20.9245 25.6318 20.9131C25.5783 20.8915 25.5354 20.8497 25.5124 20.7968C25.5012 20.7701 25.4956 20.7413 25.4959 20.7124C25.4954 20.6834 25.501 20.6546 25.5124 20.6279C25.5235 20.6021 25.5396 20.5787 25.5597 20.559C25.6032 20.518 25.6606 20.4952 25.7203 20.4951ZM25.7203 20.8699C25.7412 20.87 25.7619 20.8658 25.7811 20.8575C25.7995 20.8494 25.8163 20.8379 25.8305 20.8236C25.8445 20.8093 25.8557 20.7925 25.8634 20.7742C25.8717 20.7546 25.8759 20.7336 25.8758 20.7124C25.876 20.6915 25.8718 20.6708 25.8634 20.6516C25.8559 20.6328 25.8447 20.6157 25.8305 20.6012C25.816 20.5875 25.7993 20.5764 25.7811 20.5682C25.7619 20.56 25.7412 20.5558 25.7203 20.5559C25.6988 20.5557 25.6774 20.5599 25.6575 20.5682C25.6392 20.5761 25.6225 20.5873 25.6081 20.6012C25.5936 20.6156 25.582 20.6327 25.5741 20.6516C25.5661 20.6709 25.5623 20.6916 25.5628 20.7124C25.5624 20.7335 25.5662 20.7545 25.5741 20.7742C25.5823 20.7926 25.5938 20.8093 25.6081 20.8236C25.6221 20.8381 25.639 20.8496 25.6575 20.8575C25.6771 20.8673 25.6985 20.8729 25.7203 20.874V20.8699ZM25.7327 20.6156C25.7542 20.6139 25.7756 20.6205 25.7924 20.6341C25.8065 20.6452 25.8142 20.6626 25.813 20.6805C25.8138 20.6949 25.8086 20.7091 25.7986 20.7196C25.7867 20.7307 25.7715 20.7375 25.7553 20.7391L25.8161 20.8081H25.7533L25.6997 20.7412H25.6925V20.8081H25.639V20.6156H25.7327ZM25.6949 20.6713V20.7151H25.7464C25.7545 20.7167 25.7628 20.7167 25.7708 20.7151C25.7763 20.7108 25.7792 20.704 25.7786 20.6971C25.7806 20.6902 25.7786 20.6827 25.7734 20.6778C25.7654 20.6756 25.757 20.6756 25.749 20.6778L25.6949 20.6713Z" fill="#1D1D1B"></path>
        <path d="M9.97143 8.72458C9.96986 6.27058 11.0929 3.95119 13.0191 2.4306C9.73034 -0.175785 4.98942 0.189134 2.13832 3.26812C-0.712774 6.3471 -0.712774 11.1021 2.13832 14.181C4.98942 17.26 9.73034 17.6249 13.0191 15.0186C11.0928 13.4981 9.9697 11.1786 9.97143 8.72458Z" fill="#E30D17"></path>
        <path d="M13.0193 15.0144C14.7025 15.0144 16.0669 12.1965 16.0669 8.72046C16.0669 5.2444 14.7025 2.42649 13.0193 2.42649C11.3362 2.42649 9.97168 5.2444 9.97168 8.72046C9.97168 12.1965 11.3362 15.0144 13.0193 15.0144Z" fill="#EB610A"></path>
        <path d="M25.4817 13.0622V12.8274H25.387V12.7636H25.6505V12.8274H25.5476V13.0622H25.4817ZM25.9852 13.0622V12.8562L25.9172 13.0354H25.8431L25.7762 12.8562V13.0622H25.7051V12.7636H25.8081L25.8822 12.9551L25.9563 12.7636H26.0593V13.0622H25.9852Z" fill="#F69F00"></path>
        <path d="M17.9982 0.693586C16.1903 0.691452 14.435 1.30231 13.019 2.42642C14.9444 3.94773 16.0675 6.26658 16.0675 8.7204C16.0675 11.1742 14.9444 13.4931 13.019 15.0144C15.7784 17.2049 19.6432 17.3412 22.55 15.3506C25.4568 13.36 26.7268 9.70727 25.682 6.34269C24.6371 2.97811 21.5213 0.687392 17.9982 0.693586Z" fill="#F69F00"></path>
    </svg>
    <svg width="45" height="13" viewBox="0 0 45 13" fill="none" role="img" aria-labelledby="paypalTitleID" x="94" y="10">
        <title id="paypalTitleID">PayPal</title>
        <path d="M5.79961 3.88556C5.60911 5.14981 4.65375 5.14981 3.72274 5.14981H3.19565L3.56518 2.78873C3.58531 2.64527 3.70786 2.53907 3.85165 2.54048H4.09371C4.72537 2.54048 5.32121 2.54048 5.62916 2.90418C5.81393 3.11489 5.86979 3.43528 5.79961 3.88556ZM5.39999 0.579176H1.89939C1.65833 0.580213 1.4543 0.758793 1.41956 0.999149L0.00442909 10.0351C-0.0105482 10.1199 0.0128818 10.2071 0.068313 10.2727C0.123744 10.3383 0.205378 10.3756 0.290894 10.3743H1.96242C2.20215 10.3743 2.40631 10.1986 2.44368 9.96002L2.82181 7.51667C2.85917 7.27887 3.06269 7.1038 3.30164 7.10392H4.40882C6.712 7.10392 8.0412 5.97966 8.38925 3.75423C8.54537 2.78007 8.38925 2.01517 7.94237 1.47974C7.44821 0.890909 6.56734 0.579176 5.39999 0.579176Z" fill="#253B80"></path>
        <path d="M13.5157 7.12267C13.383 8.06512 12.5708 8.75808 11.6264 8.73473C11.1409 8.73473 10.7513 8.57743 10.5021 8.28012C10.2445 7.94336 10.1485 7.50885 10.2399 7.09381C10.3729 6.15556 11.1757 5.46212 12.1163 5.47309C12.538 5.45023 12.9478 5.61857 13.2335 5.93203C13.4959 6.26822 13.599 6.70331 13.5157 7.12267ZM15.8561 3.83937H14.176C14.0322 3.83795 13.9096 3.94415 13.8895 4.08761L13.815 4.55954L13.6976 4.38779C13.3352 3.85814 12.5274 3.68062 11.7195 3.68062C9.86897 3.68062 8.28195 5.09208 7.98116 7.0736C7.82074 8.0622 8.04848 9.0075 8.60566 9.67138C9.11556 10.2775 9.84605 10.5373 10.714 10.5373C11.585 10.546 12.4221 10.1975 13.033 9.5718L12.9571 10.0408C12.9421 10.1257 12.9655 10.2128 13.0209 10.2785C13.0764 10.3441 13.158 10.3813 13.2435 10.38H14.7518C14.9909 10.3807 15.1948 10.2054 15.2316 9.96723L16.1425 4.1742C16.1561 4.09002 16.132 4.00412 16.0767 3.93953C16.0215 3.87494 15.9407 3.83828 15.8561 3.83937Z" fill="#253B80"></path>
        <path d="M24.7691 3.83933H23.0861C22.925 3.83996 22.7745 3.92036 22.6836 4.05437L20.3632 7.49353L19.3792 4.18858C19.3172 3.98103 19.1274 3.83905 18.9123 3.83933H17.2594C17.1644 3.83679 17.0744 3.88184 17.019 3.9596C16.9637 4.03737 16.9502 4.13773 16.983 4.22755L18.8364 9.71174L17.0932 12.1912C17.0263 12.2799 17.0159 12.3995 17.0668 12.4986C17.1176 12.5976 17.2204 12.6583 17.331 12.6544H19.0068C19.1664 12.6551 19.316 12.5762 19.4065 12.4437L25.0083 4.29971C25.0737 4.21079 25.0829 4.09201 25.0319 3.99395C24.981 3.89589 24.8789 3.83582 24.7691 3.83933Z" fill="#253B80"></path>
        <path d="M30.7518 3.88551C30.5613 5.14976 29.606 5.14976 28.675 5.14976H28.1464L28.5174 2.78868C28.5375 2.64522 28.6601 2.53902 28.8039 2.54043H29.0459C29.6762 2.54043 30.2734 2.54043 30.5814 2.90413C30.759 3.11484 30.8149 3.43523 30.7518 3.88551ZM30.3479 0.584899H26.843C26.6038 0.585497 26.4005 0.761035 26.3632 0.9991L24.9495 10.035C24.9345 10.1199 24.958 10.207 25.0134 10.2726C25.0688 10.3383 25.1504 10.3755 25.236 10.3742H27.0278C27.1951 10.3742 27.3377 10.2519 27.3644 10.0855L27.7654 7.52384C27.8028 7.28603 28.0063 7.11096 28.2453 7.11108H29.351C31.6556 7.11108 32.9848 5.98682 33.3329 3.7614C33.489 2.78723 33.3329 2.02233 32.886 1.4869C32.3918 0.890859 31.511 0.579126 30.3408 0.579126L30.3479 0.584899Z" fill="#179BD7"></path>
        <path d="M38.4595 7.12267C38.3268 8.06512 37.5147 8.75808 36.5702 8.73473C36.0847 8.73473 35.6951 8.57743 35.4459 8.28012C35.1883 7.94336 35.0923 7.50885 35.1837 7.09381C35.317 6.15808 36.1162 5.46566 37.0544 5.47309C37.4757 5.45005 37.8852 5.61846 38.1701 5.93203C38.4363 6.26641 38.5422 6.70221 38.4595 7.12267ZM40.7942 3.83937H39.1212C38.9774 3.83795 38.8549 3.94415 38.8347 4.08761L38.7603 4.55954L38.6428 4.38779C38.2804 3.85814 37.4726 3.68062 36.6648 3.68062C34.8142 3.68062 33.2344 5.09208 32.9264 7.0736C32.7674 8.0622 32.9937 9.0075 33.5509 9.67138C34.0622 10.2775 34.7913 10.5373 35.6593 10.5373C36.5303 10.546 37.3674 10.1975 37.9782 9.5718L37.9023 10.0408C37.8873 10.1257 37.9107 10.2128 37.9662 10.2785C38.0216 10.3441 38.1032 10.3813 38.1888 10.38H39.697C39.9356 10.38 40.1387 10.2048 40.1754 9.96723L41.0821 4.1944C41.1026 4.10695 41.0816 4.01484 41.0251 3.94524C40.9687 3.87564 40.8833 3.83651 40.7942 3.83937Z" fill="#179BD7"></path>
        <path d="M42.768 0.827401L41.3357 10.0293C41.3208 10.1141 41.3442 10.2013 41.3996 10.2669C41.455 10.3325 41.5367 10.3698 41.6222 10.3685H43.0703C43.31 10.3685 43.5142 10.1928 43.5515 9.95424L44.9667 0.918323C44.9816 0.833478 44.9582 0.746328 44.9028 0.680702C44.8474 0.615075 44.7657 0.577837 44.6802 0.579134H43.0559C42.9116 0.577012 42.7882 0.68339 42.768 0.827401Z" fill="#179BD7"></path>
     </svg>
     <svg width="32" height="13" viewBox="0 0 32 13" fill="none" role="img" aria-labelledby="applePayTitleID" x="155" y="9">
        <title id="applePayTitleID">Apple Pay</title>
        <path d="M6.13141 1.69433C5.76187 2.13162 5.1706 2.47653 4.57932 2.42726C4.50541 1.83599 4.79489 1.20776 5.13364 0.819736C5.50319 0.370122 6.14989 0.0498496 6.67341 0.0252132C6.73501 0.641122 6.4948 1.24471 6.13141 1.69433ZM6.66725 2.54428C5.81114 2.49501 5.07821 3.03085 4.67171 3.03085C4.25905 3.03085 3.63698 2.56892 2.95948 2.58124C2.07873 2.59355 1.25957 3.09244 0.809959 3.88696C-0.113904 5.47601 0.569755 7.82878 1.46282 9.12219C1.90012 9.76274 2.42364 10.4649 3.11346 10.4402C3.76632 10.4156 4.025 10.0153 4.81337 10.0153C5.60789 10.0153 5.83578 10.4402 6.5256 10.4279C7.24005 10.4156 7.68966 9.78737 8.12696 9.14683C8.62585 8.42006 8.8291 7.71176 8.84141 7.67481C8.8291 7.66249 7.46178 7.13896 7.44946 5.56224C7.43714 4.24419 8.5273 3.61596 8.57657 3.57901C7.96066 2.66746 6.99985 2.56892 6.66725 2.54428ZM11.613 0.758145V10.3602H13.1035V7.07737H15.1668C17.0515 7.07737 18.3757 5.78396 18.3757 3.9116C18.3757 2.03924 17.0761 0.758145 15.2161 0.758145H11.613ZM13.1035 2.0146H14.8219C16.1153 2.0146 16.8544 2.70442 16.8544 3.91776C16.8544 5.1311 16.1153 5.82708 14.8157 5.82708H13.1035V2.0146ZM21.098 10.4341C22.0342 10.4341 22.9026 9.95983 23.2968 9.20842H23.3276V10.3602H24.7072V5.58071C24.7072 4.19492 23.5986 3.30185 21.8925 3.30185C20.3096 3.30185 19.1394 4.20724 19.0963 5.45137H20.439C20.5498 4.8601 21.098 4.47208 21.8494 4.47208C22.761 4.47208 23.2722 4.89706 23.2722 5.67926V6.20894L21.4121 6.31981C19.6814 6.42451 18.7452 7.13281 18.7452 8.36462C18.7452 9.60876 19.7122 10.4341 21.098 10.4341ZM21.4983 9.29465C20.7038 9.29465 20.1988 8.91278 20.1988 8.32767C20.1988 7.72408 20.6853 7.37301 21.6154 7.31758L23.2722 7.21287V7.75487C23.2722 8.6541 22.5084 9.29465 21.4983 9.29465ZM26.5488 12.9716C28.0023 12.9716 28.686 12.4173 29.2834 10.7359L31.9011 3.39424H30.3859L28.6306 9.06676H28.5998L26.8444 3.39424H25.2862L27.8114 10.3848L27.6759 10.8098C27.448 11.5304 27.0785 11.8076 26.4195 11.8076C26.3024 11.8076 26.0746 11.7952 25.9822 11.7829V12.9347C26.0684 12.9593 26.4379 12.9716 26.5488 12.9716Z" fill="black"></path>
    </svg>
    <svg width="41" height="28" viewBox="0 0 41 28" fill="none" role="img" aria-labelledby="googlePayTitleID" x="203" y="2">
        <title id="googlePayTitleID">Google Pay</title>
        <path d="M19.678 13.5032V17.1688H18.5151V8.11636H21.5993C21.9675 8.10867 22.3335 8.17396 22.6763 8.30847C23.019 8.44298 23.3318 8.64404 23.5965 8.90004C23.8638 9.14051 24.0766 9.43541 24.2205 9.76494C24.3643 10.0945 24.436 10.451 24.4307 10.8105C24.4384 11.172 24.3678 11.5308 24.2238 11.8624C24.0798 12.194 23.8658 12.4906 23.5965 12.7318C23.0571 13.2461 22.3914 13.503 21.5993 13.5025H19.678V13.5032ZM19.678 9.23085V12.3909H21.6282C21.842 12.3972 22.0548 12.3589 22.2529 12.2783C22.451 12.1977 22.6302 12.0766 22.7788 11.9228C22.9267 11.7791 23.0443 11.6071 23.1245 11.4171C23.2048 11.2271 23.2462 11.0229 23.2462 10.8166C23.2462 10.6104 23.2048 10.4062 23.1245 10.2162C23.0443 10.0262 22.9267 9.85424 22.7788 9.71046C22.632 9.55343 22.4535 9.42941 22.2552 9.3466C22.0568 9.26379 21.8431 9.22409 21.6282 9.23013H19.678V9.23085ZM27.1104 10.7729C27.9699 10.7729 28.6484 11.0026 29.1458 11.462C29.6432 11.9214 29.8917 12.5512 29.8912 13.3515V17.1688H28.7789V16.3093H28.7283C28.2468 17.0172 27.6064 17.3711 26.807 17.3711C26.1247 17.3711 25.5539 17.1688 25.0945 16.7644C24.874 16.5787 24.6978 16.3462 24.5786 16.0838C24.4594 15.8214 24.4002 15.5357 24.4054 15.2475C24.4054 14.6066 24.6476 14.0969 25.1321 13.7185C25.6165 13.34 26.2632 13.1502 27.0721 13.1493C27.7626 13.1493 28.3313 13.2757 28.7782 13.5285V13.2627C28.7795 13.0662 28.7371 12.872 28.654 12.6939C28.5709 12.5159 28.4493 12.3586 28.2979 12.2334C27.9903 11.956 27.5896 11.8046 27.1754 11.8094C26.5258 11.8094 26.0118 12.0834 25.6333 12.6314L24.6091 11.9864C25.1725 11.1774 26.0063 10.7729 27.1104 10.7729ZM25.6059 15.2728C25.6051 15.4208 25.6397 15.5669 25.7068 15.6988C25.7739 15.8307 25.8715 15.9447 25.9916 16.0312C26.2488 16.2335 26.568 16.3407 26.8952 16.3346C27.3859 16.3338 27.8563 16.1384 28.2032 15.7914C28.5885 15.4288 28.7811 15.0034 28.7811 14.5151C28.4185 14.2262 27.9129 14.0818 27.2643 14.0818C26.7919 14.0818 26.398 14.1956 26.0826 14.4234C25.7641 14.6545 25.6059 14.9355 25.6059 15.2728ZM36.2763 10.9752L32.3932 19.8991H31.1928L32.6338 16.7766L30.0805 10.9752H31.3445L33.1899 15.4245H33.2152L35.0101 10.9752H36.2763Z" fill="#5F6368"></path>
        <path d="M14.9788 12.713C14.9792 12.3586 14.9493 12.0049 14.8892 11.6556H9.98486V13.6585H12.7939C12.7364 13.9784 12.6147 14.2833 12.4362 14.5549C12.2577 14.8266 12.026 15.0592 11.7552 15.2389V16.539H13.4316C14.4132 15.634 14.9788 14.2956 14.9788 12.713Z" fill="#4285F4"></path>
        <path d="M9.98488 17.7951C11.3883 17.7951 12.57 17.3342 13.4317 16.5397L11.7552 15.2396C11.2886 15.556 10.6877 15.7365 9.98488 15.7365C8.62842 15.7365 7.47708 14.8221 7.06538 13.5899H5.33838V14.9297C5.77122 15.7911 6.43495 16.5151 7.25544 17.0211C8.07594 17.5271 9.02092 17.795 9.98488 17.7951Z" fill="#34A853"></path>
        <path d="M7.06543 13.5899C6.84777 12.9442 6.84777 12.2449 7.06543 11.5992V10.2594H5.33843C4.9743 10.984 4.78467 11.7836 4.78467 12.5946C4.78467 13.4055 4.9743 14.2052 5.33843 14.9297L7.06543 13.5899Z" fill="#FBBC04"></path>
        <path d="M9.98488 9.4526C10.7265 9.44048 11.4431 9.72069 11.9799 10.2327L13.4642 8.74836C12.523 7.86433 11.2761 7.37898 9.98488 7.39407C9.02092 7.39411 8.07594 7.66208 7.25544 8.16805C6.43495 8.67402 5.77122 9.39808 5.33838 10.2594L7.06538 11.5992C7.47708 10.367 8.62842 9.4526 9.98488 9.4526Z" fill="#EA4335"></path>
    </svg>
    <svg width="55" height="17" viewBox="0 0 55 17" fill="none" role="img" aria-labelledby="americanExpressTitleID" x="260" y="7">
        <title id="americanExpressTitleID">American Express</title>
        <path fill-rule="evenodd" clip-rule="evenodd" d="M2.77507 0.960114L0 7.38468H1.82171L2.33179 6.10038H5.28296L5.79001 7.38468H7.62993L4.8579 0.960114H2.77507ZM3.79523 2.45695L4.70609 4.70373H2.88438L3.79523 2.45695Z" fill="#016FD0"></path>
        <path fill-rule="evenodd" clip-rule="evenodd" d="M7.81885 7.38468V0.960114L10.3753 0.969222L11.863 5.11058L13.3143 0.960114H15.8496V7.38468H14.2434V2.65127L12.5432 7.38468H11.1344L9.42499 2.65127V7.38468H7.81885Z" fill="#016FD0"></path>
        <path fill-rule="evenodd" clip-rule="evenodd" d="M16.948 7.38468V0.960114H22.1915V2.39623H18.5724V3.49533H22.1065V4.84947H18.5724V5.99107H22.1915V7.38468H16.948Z" fill="#016FD0"></path>
        <path fill-rule="evenodd" clip-rule="evenodd" d="M23.1213 0.960114V7.38468H24.7275V5.10451H25.4045L27.3265 7.38468H29.2878L27.1625 5.01949C28.1734 4.91877 28.9394 4.06178 28.9265 3.04597C28.9265 1.69487 27.8639 0.960114 26.6797 0.960114H23.1213ZM24.7275 2.39927H26.5492C26.9486 2.37481 27.2941 2.67445 27.3265 3.0733C27.3006 3.45971 26.9759 3.75771 26.5887 3.75037H24.7275V2.39927Z" fill="#016FD0"></path>
        <path fill-rule="evenodd" clip-rule="evenodd" d="M31.2365 7.38468H29.5969V0.960114H31.2365V7.38468Z" fill="#016FD0"></path>
        <path fill-rule="evenodd" clip-rule="evenodd" d="M35.1224 7.38468H34.7702C33.0578 7.38468 32.0164 6.03662 32.0164 4.19972C32.0164 2.31729 33.0456 0.960114 35.2074 0.960114H36.9836V2.47821H35.1436C34.2662 2.47821 33.6438 3.16438 33.6438 4.21187C33.6438 5.4567 34.3542 5.97893 35.3774 5.97893H35.7994L35.1224 7.38165V7.38468Z" fill="#016FD0"></path>
        <path fill-rule="evenodd" clip-rule="evenodd" d="M38.6205 0.960114L35.8545 7.38468H37.6489L38.159 6.10038H41.1223L41.6293 7.38468H43.4692L40.7154 0.960114H38.6205ZM39.6406 2.45695L40.5515 4.70373H38.7298L39.6406 2.45695Z" fill="#016FD0"></path>
        <path fill-rule="evenodd" clip-rule="evenodd" d="M43.6628 7.38468V0.960114H45.7032L48.3112 4.9952V0.960114H49.9174V7.38468H47.9408L45.2659 3.24332V7.38468H43.6628Z" fill="#016FD0"></path>
        <path fill-rule="evenodd" clip-rule="evenodd" d="M11.7073 16.5021V10.0776H16.9477V11.5137H13.3316V12.6128H16.8658V13.9669H13.3316V15.1085H16.9477V16.5021H11.7073Z" fill="#016FD0"></path>
        <path fill-rule="evenodd" clip-rule="evenodd" d="M37.3904 16.5021V10.0776H42.6308V11.5137H39.0117V12.6128H42.5276V13.9669H39.0117V15.1085H42.6308V16.5021H37.3904Z" fill="#016FD0"></path>
        <path fill-rule="evenodd" clip-rule="evenodd" d="M17.1511 16.5021L19.7045 13.3293L17.0903 10.0776H19.1155L20.67 12.0875L22.2306 10.0776H24.1768L21.5991 13.2898L24.1555 16.5021H22.1304L20.6214 14.5225L19.1458 16.5021H17.1511Z" fill="#016FD0"></path>
        <path fill-rule="evenodd" clip-rule="evenodd" d="M24.3472 10.0776V16.5021H25.9958V14.474H27.6839C29.117 14.474 30.2009 13.7149 30.2009 12.2393C30.2009 11.0249 29.3508 10.0776 27.8934 10.0776H24.3472ZM25.9958 11.5319H27.775C27.9814 11.5127 28.1862 11.5828 28.3376 11.7244C28.489 11.8659 28.5727 12.0655 28.5675 12.2727C28.5672 12.4791 28.481 12.676 28.3294 12.8161C28.1778 12.9561 27.9747 13.0266 27.7689 13.0105H25.9958V11.5319Z" fill="#016FD0"></path>
        <path fill-rule="evenodd" clip-rule="evenodd" d="M30.8955 10.0776V16.5021H32.5017V14.2189H33.1787L35.1037 16.5021H37.0681L34.9427 14.1339C35.9531 14.0331 36.7182 13.1757 36.7037 12.1604C36.7037 10.8093 35.6441 10.0776 34.46 10.0776H30.8955ZM32.5017 11.5137H34.3234C34.717 11.5009 35.0518 11.7984 35.0854 12.1907C35.0596 12.5772 34.7349 12.8752 34.3477 12.8678H32.4865V11.5137H32.5017Z" fill="#016FD0"></path>
        <path fill-rule="evenodd" clip-rule="evenodd" d="M43.3755 16.5021V15.1085H46.5909C47.0645 15.1085 47.271 14.8504 47.271 14.5681C47.271 14.2857 47.0645 14.0246 46.5909 14.0246H45.1365C43.8735 14.0246 43.1721 13.2564 43.1721 12.0997C43.1721 11.0704 43.8158 10.0776 45.6922 10.0776H48.8194L48.1424 11.5228H45.4371C44.921 11.5228 44.76 11.793 44.76 12.0541C44.7594 12.2111 44.8249 12.3611 44.9405 12.4674C45.056 12.5737 45.2109 12.6264 45.3673 12.6128H46.8854C48.2911 12.6128 48.9014 13.4113 48.9014 14.4588C48.9014 15.5822 48.2213 16.5021 46.8064 16.5021H43.3755Z" fill="#016FD0"></path>
        <path fill-rule="evenodd" clip-rule="evenodd" d="M49.2686 16.5021V15.1085H52.3473C52.824 15.1085 53.0304 14.8504 53.0304 14.5681C53.0304 14.2857 52.824 14.0246 52.3473 14.0246H51.0326C49.7696 14.0246 49.0652 13.2564 49.0652 12.0997C49.0652 11.0704 49.7089 10.0776 51.5852 10.0776H54.6518L53.9747 11.5228H51.3332C50.814 11.5228 50.6561 11.793 50.6561 12.0541C50.6559 12.2083 50.7193 12.3557 50.8314 12.4614C50.9435 12.5672 51.0943 12.622 51.2482 12.6128H52.6327C54.0415 12.6128 54.6518 13.4113 54.6518 14.4588C54.6518 15.5822 53.9717 16.5021 52.5568 16.5021H49.2686Z" fill="#016FD0"></path>
    </svg>
</svg>