<svg width="25" height="24" viewBox="0 0 25 24" fill="none" xmlns="http://www.w3.org/2000/svg">
<g id="Frame 36">
<path id="Star 1" d="M19.9455 6.2807L20.6926 6.21466L19.9455 6.28071C20.044 7.39421 20.634 8.40573 21.5548 9.03951L21.6886 9.13157C22.7239 9.84416 22.9747 11.2667 22.2455 12.2904L22.1719 12.3937C21.5192 13.3101 21.3123 14.4711 21.6085 15.5565L21.6424 15.6807C21.9716 16.8872 21.2537 18.1307 20.0443 18.4489L20.2352 19.1742L20.0443 18.4489L19.8329 18.5045C18.7625 18.7862 17.8712 19.5264 17.3977 20.5269L18.0756 20.8477L17.3977 20.5269L17.302 20.7291C16.7747 21.8432 15.449 22.3257 14.3289 21.8111L14.0655 21.6901C13.0717 21.2335 11.9282 21.2335 10.9344 21.6901L10.671 21.8111C9.55088 22.3257 8.22523 21.8432 7.69792 20.7291L7.60223 20.5269C7.12872 19.5264 6.23741 18.7862 5.16697 18.5045L4.95559 18.4489L4.76473 19.1742L4.95559 18.4489C3.74616 18.1307 3.02832 16.8872 3.35751 15.6807L3.39141 15.5565C3.68756 14.4711 3.48072 13.3101 2.82796 12.3937L2.75437 12.2904C2.02516 11.2667 2.27597 9.84416 3.31129 9.13157L3.44504 9.03951C4.36586 8.40574 4.95592 7.39421 5.05436 6.28071L5.06908 6.11422L4.32199 6.04817L5.06908 6.11422C5.17837 4.87799 6.26799 3.96369 7.50441 4.07074L7.77228 4.09393C8.86556 4.18859 9.94544 3.79962 10.7272 3.02956L10.921 2.83867C11.7969 1.97599 13.203 1.97599 14.0788 2.83867L14.2726 3.02956C15.0544 3.79962 16.1343 4.18859 17.2276 4.09393L17.4955 4.07074C18.7319 3.96369 19.8215 4.87799 19.9308 6.11422L19.9455 6.2807Z" fill="#2284F7" stroke="#2284F7" stroke-width="1.5"/>
<path id="Vector 1" d="M8.19598 12.5463L11.1643 15.4671L16.804 9.91757" stroke="#E9F3FE" stroke-width="2" stroke-linecap="round" stroke-linejoin="round"/>
</g>
</svg>
