<svg width="154" height="122" viewBox="0 0 154 122" fill="none" xmlns="http://www.w3.org/2000/svg">
<g clip-path="url(#clip0_3615_26888)">
<path d="M138.199 14.0001H1.19922V99.0001H138.199V14.0001Z" fill="white"/>
<path d="M137.969 100.56H1.06922C0.589219 100.56 0.199219 100.17 0.199219 99.69V4.91004C0.199219 4.43004 0.589219 4.04004 1.06922 4.04004H137.969C138.449 4.04004 138.839 4.43004 138.839 4.91004V99.69C138.839 100.17 138.449 100.56 137.969 100.56ZM1.06922 99.69H137.969V5.12505H1.06922V99.69Z" fill="black"/>
<path d="M1.06874 13.3799L137.969 13.3799V0.869883L1.06874 0.869883V13.3799Z" fill="white"/>
<path d="M137.969 14.25H1.06922C0.589219 14.25 0.199219 13.86 0.199219 13.38V0.87C0.199219 0.39 0.589219 0 1.06922 0H137.969C138.449 0 138.839 0.39 138.839 0.87V13.38C138.839 13.86 138.449 14.25 137.969 14.25ZM1.19922 13.38L137.969 13V1H1.19922V13.38Z" fill="black"/>
<path d="M100.078 7.99H92.8583C92.3783 7.99 91.9883 7.6 91.9883 7.12C91.9883 6.64 92.3783 6.25 92.8583 6.25H100.078C100.558 6.25 100.948 6.64 100.948 7.12C100.948 7.6 100.558 7.99 100.078 7.99Z" fill="black"/>
<path d="M114.729 7.99H107.509C107.029 7.99 106.639 7.6 106.639 7.12C106.639 6.64 107.029 6.25 107.509 6.25H114.729C115.209 6.25 115.599 6.64 115.599 7.12C115.599 7.6 115.209 7.99 114.729 7.99Z" fill="black"/>
<path d="M129.379 7.99H122.159C121.679 7.99 121.289 7.6 121.289 7.12C121.289 6.64 121.679 6.25 122.159 6.25H129.379C129.859 6.25 130.249 6.64 130.249 7.12C130.249 7.6 129.859 7.99 129.379 7.99Z" fill="black"/>
<rect opacity="0.2" x="11.1992" y="70" width="78" height="2" rx="1" fill="black"/>
<path opacity="0.2" d="M11.1992 32C11.1992 31.4477 11.6469 31 12.1992 31H126.199C126.752 31 127.199 31.4477 127.199 32C127.199 32.5523 126.752 33 126.199 33H12.1992C11.6469 33 11.1992 32.5523 11.1992 32Z" fill="black"/>
<path opacity="0.2" d="M11.1992 45C11.1992 44.4477 11.6469 44 12.1992 44H126.199C126.752 44 127.199 44.4477 127.199 45C127.199 45.5523 126.752 46 126.199 46H12.1992C11.6469 46 11.1992 45.5523 11.1992 45Z" fill="black"/>
<path opacity="0.2" d="M11.1992 58C11.1992 57.4477 11.6469 57 12.1992 57H126.199C126.752 57 127.199 57.4477 127.199 58C127.199 58.5523 126.752 59 126.199 59H12.1992C11.6469 59 11.1992 58.5523 11.1992 58Z" fill="black"/>
<path d="M144.282 86.7818L151.56 84.7367L148.627 75.0571L142.274 77.1022L138.096 70.945L141.604 64.8753L132.783 60.9233L130.003 67.7719L122.55 67.8665L119.574 61.8986L110.549 66.9131L114.312 72.306L109.326 78.1502L104.421 76.5054L101.83 87.1457L107.623 88.3247L110.134 95.1878L105.746 99.8166L113.176 106.389L116.721 101.52L123.555 102.939L124.253 109.474L133.351 108.899L132.477 102.953L137.768 99.5327L142.783 104.132L149.61 95.77L143.562 92.2475L144.289 86.7672L144.282 86.7818ZM126.691 91.6507C123.14 91.6507 120.258 88.7687 120.258 85.217C120.258 81.6654 123.14 78.7834 126.691 78.7834C130.243 78.7834 133.125 81.6654 133.125 85.217C133.125 88.7687 130.243 91.6507 126.691 91.6507Z" fill="#FFAE00"/>
<path d="M124.254 110.137C123.933 110.137 123.657 109.896 123.628 109.569L122.98 103.492L116.998 102.247L113.693 106.781C113.592 106.927 113.424 107.022 113.249 107.036C113.075 107.058 112.893 107 112.762 106.883L105.331 100.311C105.2 100.195 105.127 100.035 105.12 99.8675C105.113 99.6928 105.178 99.5254 105.295 99.4017L109.414 95.0567L107.158 88.8923L101.707 87.7788C101.539 87.7424 101.394 87.6405 101.299 87.495C101.205 87.3494 101.175 87.1748 101.219 87.0074L103.81 76.367C103.854 76.1924 103.963 76.0468 104.116 75.9595C104.269 75.8721 104.458 75.8576 104.625 75.9158L109.13 77.4223L113.519 72.2768L110.033 67.2842C109.931 67.1386 109.894 66.9567 109.938 66.782C109.982 66.6073 110.091 66.4545 110.251 66.3744L119.276 61.36C119.428 61.2726 119.603 61.2581 119.771 61.309C119.938 61.36 120.076 61.4764 120.149 61.6292L122.944 67.2405L129.574 67.1532L132.201 60.6904C132.267 60.5303 132.39 60.4066 132.551 60.341C132.711 60.2755 132.885 60.2828 133.045 60.3483L141.866 64.3002C142.026 64.373 142.157 64.5113 142.208 64.686C142.267 64.8534 142.245 65.0426 142.157 65.1954L138.846 70.9231L142.536 76.3598L148.438 74.4602C148.598 74.4093 148.773 74.4238 148.926 74.5039C149.079 74.5839 149.188 74.7222 149.239 74.8823L152.172 84.562C152.223 84.7221 152.201 84.904 152.121 85.0496C152.041 85.2024 151.903 85.3116 151.735 85.3553L144.865 87.2839L144.253 91.9345L149.937 95.246C150.098 95.3406 150.207 95.5007 150.243 95.6826C150.28 95.8646 150.229 96.0538 150.112 96.1994L143.285 104.562C143.176 104.7 143.016 104.78 142.842 104.795C142.667 104.809 142.499 104.751 142.368 104.627L137.718 100.362L133.176 103.295L133.992 108.841C134.021 109.016 133.97 109.198 133.853 109.329C133.744 109.467 133.577 109.554 133.402 109.562L124.305 110.137C124.305 110.137 124.276 110.137 124.261 110.137H124.254ZM116.728 100.915C116.772 100.915 116.816 100.915 116.859 100.93L123.693 102.349C123.963 102.407 124.166 102.626 124.195 102.902L124.829 108.834L132.631 108.346L131.859 103.077C131.823 102.83 131.932 102.589 132.143 102.451L137.434 99.0305C137.674 98.8777 137.994 98.8995 138.205 99.096L142.725 103.237L148.657 95.9665L143.249 92.8151C143.031 92.6841 142.907 92.4367 142.943 92.182L143.671 86.7017C143.708 86.4542 143.882 86.2432 144.13 86.1777L150.782 84.3073L148.22 75.8649L142.478 77.7135C142.208 77.8008 141.917 77.6989 141.757 77.466L137.58 71.3089C137.441 71.1051 137.434 70.8431 137.558 70.6393L140.716 65.1809L133.133 61.7821L130.593 68.0265C130.498 68.2594 130.265 68.4195 130.018 68.4195L122.565 68.5142H122.558C122.318 68.5142 122.099 68.3759 121.99 68.1648L119.312 62.7864L111.474 67.1386L114.836 71.9566C115.003 72.1895 114.989 72.5097 114.8 72.7281L109.814 78.5722C109.647 78.7688 109.378 78.8415 109.13 78.7615L104.88 77.335L102.609 86.6653L107.762 87.7133C107.98 87.757 108.155 87.9098 108.228 88.1136L110.739 94.9767C110.819 95.2023 110.768 95.457 110.6 95.6317L106.663 99.7874L113.082 105.464L116.219 101.163C116.343 100.996 116.532 100.901 116.728 100.901V100.915ZM126.692 92.2911C122.791 92.2911 119.618 89.118 119.618 85.217C119.618 81.316 122.791 78.1428 126.692 78.1428C130.593 78.1428 133.766 81.316 133.766 85.217C133.766 89.118 130.593 92.2911 126.692 92.2911ZM126.692 79.4165C123.49 79.4165 120.891 82.022 120.891 85.2243C120.891 88.4266 123.497 91.0321 126.692 91.0321C129.887 91.0321 132.5 88.4266 132.5 85.2243C132.5 82.022 129.894 79.4165 126.692 79.4165Z" fill="black"/>
<g opacity="0.13">
<path d="M114.378 103.652C114.131 102.822 113.206 102.495 112.602 101.963C112.406 101.789 111.358 101.061 110.273 100.086C109.582 99.5106 109.051 98.6664 108.243 98.2588C106.816 97.6038 105.543 99.5179 106.656 100.61C108.621 102.611 110.077 103.666 111.758 104.904C112.158 105.115 111.947 105.34 112.988 105.479C113.912 105.5 114.633 104.54 114.378 103.652Z" fill="black"/>
</g>
<g opacity="0.13">
<path d="M132.194 106.738C131.99 106.643 131.473 106.723 131.321 106.76C130.418 106.818 129.508 106.811 128.613 106.723C127.733 106.636 126.845 106.614 125.964 106.541C125.513 106.519 125.025 106.359 124.603 106.592C123.089 107.167 123.577 109.496 125.185 109.482C126.619 109.649 128.067 109.554 129.508 109.54C130.192 109.562 130.877 109.562 131.561 109.511C131.895 109.511 132.245 109.496 132.536 109.307C133.599 108.703 133.387 107.036 132.201 106.73L132.194 106.738Z" fill="black"/>
</g>
<g opacity="0.13">
<path d="M146.249 95.1586C144.982 97.2036 142.864 99.7 142.34 100.602C142.02 101.076 141.423 101.338 141.227 101.883C140.623 103.186 142.384 104.358 143.381 103.339C144.414 102.487 145.368 100.821 145.608 100.617C146.423 99.6199 147.202 98.5937 147.922 97.5239C148.199 97.029 148.708 96.6069 148.767 96.0246C149.014 94.5836 146.976 93.8922 146.256 95.1586H146.249Z" fill="black"/>
</g>
<path d="M104.444 85.2103C104.408 85.2103 104.371 85.203 104.335 85.1812C104.233 85.123 104.204 84.992 104.262 84.8901L107.071 80.2904C107.13 80.1886 107.261 80.1594 107.362 80.2177C107.464 80.2759 107.493 80.4069 107.435 80.5088L104.626 85.1084C104.59 85.1739 104.517 85.2103 104.444 85.2103Z" fill="black"/>
<path d="M107.784 85.7342C107.741 85.7342 107.704 85.7197 107.668 85.6979C107.573 85.6324 107.544 85.5013 107.617 85.4067C111.416 79.8755 115.412 74.3734 119.502 69.0532C119.575 68.9586 119.706 68.9441 119.8 69.0169C119.895 69.0896 119.909 69.2206 119.837 69.3152C115.754 74.6281 111.758 80.123 107.966 85.6469C107.923 85.7051 107.857 85.7415 107.792 85.7415L107.784 85.7342Z" fill="black"/>
<path d="M115.049 69.5047C115.005 69.5047 114.962 69.4901 114.918 69.461C114.823 69.3882 114.809 69.2572 114.874 69.1626L118.011 65.036C118.084 64.9414 118.215 64.9268 118.309 64.9923C118.404 65.0651 118.419 65.1961 118.353 65.2907L115.216 69.4173C115.173 69.4683 115.114 69.4974 115.049 69.4974V69.5047Z" fill="black"/>
<path d="M110.36 89.5262C110.324 89.5262 110.28 89.5189 110.244 89.4898C110.149 89.4243 110.12 89.2933 110.178 89.1987C114.356 82.7141 118.817 76.2877 123.432 70.1014C123.504 70.0068 123.635 69.9923 123.73 70.0578C123.825 70.1305 123.839 70.2616 123.774 70.3562C119.167 76.5351 114.713 82.9543 110.535 89.4243C110.491 89.4898 110.426 89.5189 110.36 89.5189V89.5262Z" fill="black"/>
<path d="M112.159 93.3687C112.115 93.3687 112.064 93.3541 112.028 93.325C111.933 93.2523 111.919 93.1213 111.991 93.0266C113.956 90.5303 115.849 87.9321 117.624 85.2902C117.69 85.1956 117.821 85.1665 117.916 85.232C118.01 85.2975 118.039 85.4285 117.974 85.5231C116.191 88.1723 114.291 90.785 112.319 93.2814C112.275 93.3323 112.217 93.3614 112.151 93.3614L112.159 93.3687Z" fill="black"/>
<path d="M123.046 77.8741C123.003 77.8741 122.959 77.8596 122.923 77.8378C122.828 77.7723 122.806 77.634 122.872 77.5394C124.677 75.0285 126.554 72.5249 128.454 70.0795C128.527 69.9849 128.658 69.9703 128.752 70.0431C128.847 70.1159 128.861 70.2469 128.789 70.3415C126.889 72.7796 125.019 75.2832 123.214 77.7868C123.17 77.845 123.105 77.8741 123.039 77.8741H123.046Z" fill="black"/>
<path d="M128.549 76.5785C128.513 76.5785 128.469 76.5712 128.44 76.5494C128.338 76.4839 128.309 76.3602 128.375 76.2583C130.813 72.3937 133.397 68.5655 136.053 64.8611C136.119 64.7664 136.25 64.7446 136.351 64.8101C136.446 64.8756 136.468 65.0066 136.402 65.1085C133.746 68.8057 131.17 72.6339 128.739 76.4839C128.695 76.5494 128.63 76.5858 128.557 76.5858L128.549 76.5785Z" fill="black"/>
<path d="M110.463 101.447C110.42 101.447 110.376 101.433 110.332 101.403C110.238 101.331 110.223 101.2 110.296 101.105C113.164 97.386 116.206 93.7107 119.313 90.1882C119.393 90.1008 119.524 90.0935 119.612 90.1663C119.699 90.2464 119.706 90.3774 119.634 90.4647C116.526 93.98 113.498 97.648 110.631 101.36C110.587 101.411 110.529 101.44 110.463 101.44V101.447Z" fill="black"/>
<path d="M116.882 99.3587C116.839 99.3587 116.795 99.3442 116.759 99.3223C116.664 99.2568 116.642 99.1258 116.708 99.0312C118.076 97.1171 119.51 95.2103 120.972 93.3617C121.045 93.2671 121.176 93.2525 121.271 93.3253C121.365 93.3981 121.38 93.5291 121.307 93.6237C119.844 95.465 118.418 97.3646 117.057 99.2787C117.013 99.3369 116.948 99.366 116.882 99.366V99.3587Z" fill="black"/>
<path d="M132.086 78.1942C132.042 78.1942 131.998 78.1796 131.962 78.1505C131.867 78.0777 131.846 77.9467 131.918 77.8521C133.367 75.9089 134.968 74.0458 136.678 72.3209C136.758 72.2408 136.896 72.2408 136.976 72.3209C137.057 72.401 137.057 72.5392 136.976 72.6193C135.281 74.3296 133.694 76.1709 132.26 78.0996C132.217 78.1578 132.158 78.1869 132.093 78.1869L132.086 78.1942Z" fill="black"/>
<path d="M120.71 100.312C120.667 100.312 120.63 100.298 120.594 100.276C120.499 100.21 120.47 100.079 120.543 99.9846C121.751 98.2161 123.039 96.4694 124.371 94.7954C124.444 94.7008 124.575 94.6863 124.669 94.759C124.764 94.8318 124.779 94.9628 124.706 95.0574C123.381 96.7314 122.1 98.4708 120.892 100.225C120.848 100.283 120.783 100.319 120.717 100.319L120.71 100.312Z" fill="black"/>
<path d="M134.321 82.3427C134.277 82.3427 134.234 82.3282 134.19 82.2991C134.095 82.2263 134.081 82.0953 134.153 82.0007C135.696 79.992 137.305 78.0051 138.935 76.0837C139.008 75.9964 139.146 75.9818 139.233 76.0619C139.321 76.1346 139.335 76.2729 139.255 76.3603C137.625 78.2744 136.024 80.2612 134.481 82.2627C134.437 82.3136 134.379 82.3427 134.314 82.3427H134.321Z" fill="black"/>
<path d="M124.917 101.491C124.873 101.491 124.822 101.476 124.786 101.447C124.691 101.374 124.676 101.243 124.749 101.149C130.877 93.3759 137.362 85.7268 144.014 78.398C144.094 78.3106 144.225 78.3033 144.312 78.3834C144.4 78.4635 144.407 78.5945 144.327 78.6818C137.675 85.9961 131.197 93.6452 125.077 101.411C125.033 101.462 124.975 101.491 124.909 101.491H124.917Z" fill="black"/>
<path d="M126.205 106.062C126.154 106.062 126.11 106.047 126.067 106.011C125.979 105.938 125.965 105.8 126.045 105.712L140.36 88.7401C140.433 88.6527 140.572 88.6382 140.659 88.7182C140.746 88.791 140.761 88.9293 140.681 89.0166L126.365 105.989C126.321 106.04 126.263 106.062 126.205 106.062Z" fill="black"/>
<path d="M144.634 84.2134C144.583 84.2134 144.532 84.1988 144.495 84.1624C144.408 84.0823 144.401 83.9513 144.473 83.864L148.083 79.7301C148.163 79.6428 148.294 79.6355 148.382 79.7083C148.469 79.7884 148.476 79.9194 148.404 80.0067L144.794 84.1406C144.75 84.1915 144.692 84.2134 144.634 84.2134Z" fill="black"/>
<path d="M138.221 97.3644C138.171 97.3644 138.12 97.3499 138.083 97.3135C137.996 97.2334 137.989 97.1024 138.061 97.0151L140.791 93.9074C140.871 93.8201 141.002 93.8128 141.089 93.8856C141.176 93.9656 141.184 94.0966 141.111 94.184L138.382 97.2916C138.338 97.3426 138.28 97.3644 138.221 97.3644Z" fill="black"/>
<path d="M141.482 99.7151C141.438 99.7151 141.387 99.7005 141.351 99.6714C141.264 99.5986 141.249 99.4676 141.322 99.373C141.737 98.8636 142.181 98.3468 142.617 97.8519C143.207 97.1751 143.811 96.4764 144.35 95.7704C144.379 95.7341 144.408 95.6977 144.437 95.6686C144.437 95.5812 144.502 95.4939 144.59 95.4721C144.677 95.4502 144.845 95.3993 144.932 95.5594C145.012 95.7122 144.888 95.8287 144.837 95.8723C144.801 95.9087 144.735 95.9597 144.684 96.0252C144.139 96.7384 143.527 97.4444 142.938 98.1212C142.508 98.6161 142.064 99.1256 141.657 99.635C141.613 99.686 141.555 99.7151 141.489 99.7151H141.482Z" fill="black"/>
<path d="M102.199 26H38.1992V64H102.199V26Z" fill="white"/>
<path d="M93.9728 34H45.4256C44.749 34 44.1992 33.5517 44.1992 33C44.1992 32.4483 44.749 32 45.4256 32H93.9728C94.6495 32 95.1992 32.4483 95.1992 33C95.1992 33.5517 94.6495 34 93.9728 34Z" fill="black"/>
<path d="M75.4297 40H44.9687C44.5442 40 44.1992 39.5517 44.1992 39C44.1992 38.4483 44.5442 38 44.9687 38H75.4297C75.8543 38 76.1992 38.4483 76.1992 39C76.1992 39.5517 75.8543 40 75.4297 40Z" fill="black"/>
<path d="M101.805 64H38.5936C37.8243 64 37.1992 63.5019 37.1992 62.8889V25.1111C37.1992 24.4981 37.8243 24 38.5936 24H101.805C102.574 24 103.199 24.4981 103.199 25.1111V62.8889C103.199 63.5019 102.574 64 101.805 64ZM38.5936 62.25L101.805 62.5V25.5H38.5936V62.25Z" fill="black"/>
<rect x="52.1992" y="46" width="37" height="10" rx="1" fill="black"/>
</g>
<defs>
<clipPath id="clip0_3615_26888">
<rect width="153" height="122" fill="white" transform="translate(0.199219)"/>
</clipPath>
</defs>
</svg>
