<svg width="92" height="99" viewBox="0 0 92 99" fill="none" xmlns="http://www.w3.org/2000/svg">
<path d="M80.8051 22.5947C80.6395 22.5947 80.474 22.5055 80.3849 22.3398C80.2575 22.1104 80.3467 21.8301 80.5631 21.7027L87.7321 17.5739C88.3561 17.2171 88.7381 17.3572 88.9545 17.5229C89.1074 17.6503 89.1837 17.816 89.1583 18.0071C89.1073 18.4786 89.1073 18.5169 81.0088 22.5437C80.9451 22.5819 80.8687 22.5947 80.7923 22.5947H80.8051Z" fill="black"/>
<path d="M35.2083 8.87029C35.03 8.87029 34.8518 8.76835 34.7754 8.58994L31.2736 0.663703C31.1718 0.421583 31.2736 0.141234 31.5156 0.0392884C31.7575 -0.0626569 32.0376 0.0392884 32.1395 0.281408L35.6412 8.20765C35.7431 8.44977 35.6412 8.73012 35.3993 8.83207C35.3356 8.85755 35.272 8.87029 35.2083 8.87029Z" fill="black"/>
<path d="M11.6769 26.5579C11.6769 26.5579 11.6132 26.5579 11.575 26.5579L3.70565 24.914C3.48918 24.8758 2.9289 24.7484 2.78884 24.2387C2.7379 24.0475 2.78884 23.8436 2.9289 23.7034C3.23451 23.4104 3.42551 23.2065 11.8042 25.6149C12.0461 25.6914 12.1989 25.9335 12.1353 26.1884C12.0843 26.405 11.8933 26.5579 11.6769 26.5579Z" fill="black"/>
<path d="M1.19681 57.3452C1.01854 57.3452 0.84027 57.2433 0.763868 57.0649C0.662 56.8228 0.763868 56.5424 1.00581 56.4405L9.16802 52.8469C9.40996 52.745 9.6901 52.8469 9.79197 53.089C9.89384 53.3311 9.79197 53.6115 9.55003 53.7134L1.38781 57.307C1.38781 57.307 1.26048 57.3452 1.19681 57.3452Z" fill="black"/>
<path d="M59.2496 8.71741C59.2496 8.71741 59.135 8.71741 59.084 8.67918C58.8421 8.58998 58.7147 8.30963 58.8039 8.06751L61.6817 0.561788C61.7708 0.319668 62.0509 0.192237 62.2929 0.281439C62.5348 0.370641 62.6622 0.65099 62.573 0.89311L59.6952 8.39883C59.6188 8.58998 59.4406 8.70466 59.2496 8.70466V8.71741Z" fill="black"/>
<path d="M91.0585 51.5347C91.0585 51.5347 90.9439 51.5346 90.8803 51.4964L82.9473 48.3234C82.7053 48.2214 82.578 47.9411 82.6799 47.699C82.7817 47.4568 83.0619 47.3294 83.3038 47.4314L91.2368 50.6044C91.4788 50.7063 91.6061 50.9867 91.5042 51.2288C91.4278 51.42 91.2495 51.5347 91.0585 51.5347Z" fill="black"/>
<path d="M37.7804 82.3472C37.6276 77.8743 36.4689 73.4524 34.4188 69.4511C31.0062 62.7992 25.2506 57.4853 21.9908 50.7569C18.1835 42.8816 19.4696 33.2988 23.7608 27.2458C29.7456 18.7971 40.5054 15.0888 48.7058 15.5475C53.8757 15.8406 69.0795 17.459 73.8164 32.3175C78.5788 47.227 67.1822 58.0715 62.9929 64.3793C60.1151 68.712 56.5243 72.9172 56.0404 78.0527C55.9258 79.2378 55.9385 80.4994 55.2509 81.4806C54.4232 82.6785 52.8315 83.0863 51.3799 83.3921C48.744 83.9655 46.0318 84.5517 43.3577 84.1312C40.6837 83.7107 38.0478 82.0668 37.7677 82.3344L37.7804 82.3472Z" fill="white"/>
<path d="M45.2682 84.7685C44.606 84.7685 43.9439 84.7302 43.2944 84.6283C41.7028 84.3734 40.162 83.7235 39.0414 83.252C38.6085 83.0609 38.1119 82.857 37.9209 82.8188C37.819 82.857 37.7044 82.8443 37.6025 82.8188C37.4243 82.7551 37.3097 82.5767 37.2969 82.3855C37.1441 78.0019 35.9981 73.6182 33.9862 69.6933C32.3563 66.5075 30.1279 63.5639 27.9632 60.7221C25.6457 57.6638 23.2518 54.5035 21.5455 50.9864C17.9165 43.4934 18.6677 33.6175 23.3537 26.991C29.6186 18.1345 40.6077 14.6429 48.719 15.0889C56.3591 15.5222 69.8312 18.3129 74.2625 32.1902C78.3245 44.9079 70.8372 54.7329 65.8838 61.2446C64.9415 62.4807 64.0502 63.6403 63.3753 64.6598C62.8659 65.4244 62.3311 66.2017 61.8091 66.9535C59.3897 70.4197 56.8939 74.0005 56.5119 78.1166C56.4992 78.2822 56.4864 78.4606 56.4737 78.639C56.3846 79.7222 56.3082 80.8308 55.646 81.7866C54.7292 83.0991 53.0866 83.5451 51.4821 83.9019C49.5466 84.3225 47.4074 84.794 45.2682 84.794V84.7685ZM38.2392 81.9013C38.5321 81.9777 38.9014 82.1434 39.4234 82.36C40.4931 82.8188 41.9702 83.4432 43.4473 83.6726C46.0704 84.0803 48.8463 83.4814 51.2911 82.9462C52.7682 82.6276 54.1562 82.2453 54.8693 81.2259C55.3786 80.4995 55.455 79.5565 55.5314 78.5498C55.5441 78.3714 55.5569 78.193 55.5696 78.0146C55.9771 73.6437 58.5493 69.9609 61.0323 66.3928C61.5544 65.6537 62.0892 64.8764 62.5985 64.1246C63.2861 63.0796 64.1902 61.9073 65.1325 60.6584C69.9713 54.3123 77.2676 44.7167 73.3584 32.4833C69.1054 19.1412 56.0662 16.4524 48.668 16.0446C41.0661 15.6114 30.1534 19.0393 24.1304 27.539C19.6355 33.8978 18.9224 43.366 22.3987 50.5658C24.054 53.9938 26.4225 57.1158 28.7145 60.136C30.892 63.0159 33.1458 65.9851 34.8266 69.2473C36.8385 73.1722 38.01 77.5304 38.2265 81.914L38.2392 81.9013Z" fill="black"/>
<path d="M58.6359 75.6059C58.6359 75.6059 34.7605 75.3 34.735 75.5167C34.404 80.2826 34.6968 85.0995 35.6264 89.789C36.0975 92.172 37.1671 97.8044 45.9406 98.3014C52.8167 98.6965 56.0256 94.9755 56.9933 91.0761C58.0884 86.6414 58.6741 80.9325 58.6359 75.6059Z" fill="#EDA51E"/>
<path d="M46.9591 98.8112C46.6153 98.8112 46.2715 98.8112 45.9149 98.7857C36.8231 98.2633 35.6644 92.4142 35.1678 89.9165V89.8783C34.2255 85.1506 33.9199 80.3082 34.2637 75.4785C34.3061 75.1302 35.7111 74.9561 38.4785 74.9561C40.4649 74.9561 43.2281 74.9561 46.6917 74.9943C52.6 75.0453 58.5721 75.1217 58.6357 75.1217C58.8904 75.1217 59.1069 75.3383 59.1069 75.5932C59.1451 81.0983 58.5339 86.7817 57.4388 91.1908C56.8658 93.5356 54.6883 98.8112 46.9463 98.8112H46.9591ZM35.1933 75.95C34.9004 80.5376 35.206 85.1633 36.1101 89.6871V89.7254C36.6067 92.1975 37.6254 97.3458 45.9786 97.8173C53.8607 98.276 55.9872 93.166 56.5347 90.9487C57.5789 86.7435 58.1646 81.3404 58.1646 76.0647C49.6586 75.9628 37.4344 75.8481 35.1933 75.9373V75.95Z" fill="black"/>
<path d="M50.7283 79.607C46.1315 79.607 41.522 79.4923 36.9633 79.2502C36.8742 79.2502 36.8105 79.1738 36.8105 79.0846C36.8105 78.9954 36.8869 78.9316 36.9761 78.9316C43.3811 79.263 49.8752 79.3649 56.2802 79.2247C56.3693 79.2247 56.433 79.2884 56.433 79.3776C56.433 79.4669 56.3693 79.5433 56.2802 79.5433C54.4338 79.5815 52.5747 79.607 50.7156 79.607H50.7283Z" fill="black"/>
<path d="M43.8797 83.1501C41.6641 83.1501 39.4612 83.1119 37.2583 83.0354C37.1691 83.0354 37.1055 82.9589 37.1055 82.8697C37.1055 82.7805 37.1819 82.7168 37.271 82.7168C43.485 82.9335 49.7626 82.8443 55.9639 82.4492C56.053 82.4492 56.1294 82.5129 56.1294 82.6021C56.1294 82.6913 56.0658 82.7678 55.9766 82.7678C51.9655 83.0227 47.9163 83.1501 43.867 83.1501H43.8797Z" fill="black"/>
<path d="M37.7036 86.7434C37.6144 86.7434 37.5508 86.6797 37.5508 86.5905C37.5508 86.5013 37.6144 86.4249 37.7036 86.4249L55.556 86.0171C55.6452 86.0171 55.7216 86.0808 55.7216 86.17C55.7216 86.2592 55.6579 86.3357 55.5688 86.3357L37.7163 86.7434H37.7036Z" fill="black"/>
<path d="M44.1062 90.1204C42.2344 90.1204 40.3498 90.1204 38.4907 90.0949C38.4016 90.0949 38.3379 90.0185 38.3379 89.9293C38.3379 89.8401 38.4143 89.7764 38.4907 89.7764C43.877 89.8146 49.3397 89.8018 54.7387 89.7126C54.8151 89.7126 54.9043 89.7764 54.9043 89.8656C54.9043 89.9548 54.8406 90.0312 54.7515 90.0312C51.2243 90.0822 47.6589 90.1077 44.1189 90.1077L44.1062 90.1204Z" fill="black"/>
<path d="M45.2167 93.1914C43.3321 93.1914 41.4475 93.1659 39.563 93.1022C39.4738 93.1022 39.4102 93.0258 39.4102 92.9366C39.4102 92.8473 39.4866 92.7836 39.563 92.7836C44.2744 92.9238 49.0622 92.8856 53.7736 92.6689C53.8628 92.6689 53.9392 92.7327 53.9392 92.8219C53.9392 92.9111 53.8755 92.9875 53.7864 92.9875C50.934 93.115 48.069 93.1914 45.2039 93.1914H45.2167Z" fill="black"/>
<path d="M46.7563 95.9055C45.1264 95.9055 43.4965 95.8546 41.8794 95.7654C41.7902 95.7654 41.7266 95.6889 41.7266 95.5997C41.7266 95.5105 41.803 95.4468 41.8921 95.4468C44.8845 95.6124 47.9151 95.6252 50.9075 95.485C50.9839 95.485 51.073 95.5487 51.073 95.6379C51.073 95.7271 51.0093 95.8036 50.9202 95.8036C49.545 95.8673 48.1443 95.9055 46.7563 95.9055Z" fill="black"/>
<g opacity="0.13">
<path opacity="0.13" d="M58.269 75.8228C57.7469 74.4848 55.6204 74.9053 55.6331 76.3453C55.2766 80.1045 55.2511 82.8315 54.9328 85.4439C54.6781 86.9221 54.0796 88.2983 53.5448 89.7001C53.0737 90.8215 50.7817 93.6759 48.5023 94.6444C47.6619 95.0904 44.8478 95.7276 43.3962 95.1032C42.5303 94.8611 41.8172 94.4405 39.5634 93.2554C37.7934 92.2997 36.2909 94.7973 38.0099 95.8423C38.9649 96.4285 39.9199 97.0274 40.8495 97.6518C40.7349 97.5754 40.5948 97.4607 40.5184 97.397C41.3333 98.0469 42.3266 98.4929 43.3452 98.7605C49.0499 99.8946 53.5576 96.8872 56.2062 92.1213C57.1994 90.1588 57.7087 87.521 57.8488 86.5143C58.1289 84.7812 58.0907 84.8832 58.1671 82.959C58.1671 82.6659 58.2563 82.2708 58.1544 81.914C58.1926 81.1239 58.2181 80.3339 58.269 79.5693C58.3072 78.639 58.3327 77.7215 58.3836 76.7913C58.3836 76.4727 58.46 76.1286 58.2817 75.8355L58.269 75.8228Z" fill="black"/>
</g>
<g opacity="0.13">
<path opacity="0.13" d="M65.9088 57.1921C65.1448 57.9057 64.4063 58.6448 63.6423 59.3584C63.6423 59.3711 63.6295 59.3839 63.6168 59.3839C62.4962 60.2504 61.5285 61.3208 60.5353 62.3148C59.6439 63.2196 58.8162 64.1626 58.014 65.131C57.8103 65.3222 57.5938 65.5261 57.3519 65.7045C57.1863 65.8574 56.3714 66.5328 56.2186 66.6602L56.1677 66.6985C56.0531 66.7877 55.7347 67.0298 55.5437 67.17C53.4427 68.6864 51.469 70.0754 49.8009 70.4195C47.8399 70.8655 45.9681 70.891 44.4782 70.6488C43.5105 70.4704 43.0266 70.3685 42.5682 70.2156C40.9383 69.6549 39.6013 69.1834 38.6335 68.7119C36.125 67.4885 33.782 65.9721 31.5664 64.29C33.5528 67.17 34.6479 70.0499 36.5198 74.2806C36.7362 74.6629 36.9654 75.0452 37.1692 75.4403C37.2074 75.5167 37.2583 75.5932 37.2965 75.6696C37.3856 75.6951 37.4875 75.7079 37.5894 75.7079C38.3916 75.6569 39.1811 75.8735 39.9833 75.8863C41.2694 75.9627 42.5682 75.8863 43.8543 75.8353C45.9044 75.7716 47.929 75.3638 49.9791 75.3511C52.2584 75.1727 53.5573 75.402 54.5123 75.5549C55.7602 75.5804 55.531 75.3893 56.3077 75.4148C56.4478 75.4148 56.5751 75.3893 56.6897 75.3511C56.7916 74.9942 56.8935 74.6374 57.0208 74.2934C56.8043 74.0767 56.7916 73.7582 56.9189 73.4651C58.014 70.9674 59.5166 68.7246 61.1465 66.5201C64.0497 62.5952 67.4623 59.0398 70.1746 54.9875C70.3401 54.6689 70.4929 54.3376 70.6585 54.019C71.3461 52.63 72.0337 51.2538 72.7213 49.8647C70.7985 52.0566 68.0226 54.9365 65.8706 57.1538L65.9088 57.1921Z" fill="black"/>
</g>
<path d="M49.3163 75.1092H49.3036C49.0362 75.1092 48.8324 74.8798 48.8452 74.6122L48.9216 72.5351C49.1253 66.8771 49.762 61.1936 50.8189 55.6504C51.1117 54.0957 51.4556 52.5283 51.914 51.0119C51.0353 50.6551 50.1695 49.9924 49.2654 48.9984C48.9088 48.6034 48.5778 48.2084 48.2594 47.7878C47.8774 48.3358 47.4699 48.8583 47.0243 49.3807C46.3494 50.1581 45.509 51.0246 44.4139 51.4961C43.6244 51.8274 42.6821 51.9676 41.5488 51.9166C41.1159 51.9039 40.6957 51.8529 40.2627 51.7892C42.0964 59.2439 42.6312 66.9918 43.1533 74.523C43.166 74.7906 42.975 75.02 42.7076 75.0327C42.4529 75.0455 42.211 74.8543 42.1983 74.5867C41.6762 66.9408 41.1286 59.091 39.2186 51.5726C36.7738 50.9482 34.5199 49.5464 32.9282 47.584C32.1387 46.6155 31.7058 45.7107 31.5785 44.8314C31.4129 43.6336 31.9095 42.4357 32.8009 41.8623C34.0106 41.0849 35.5895 41.5437 36.5191 42.3975C37.4486 43.2385 37.9325 44.3982 38.34 45.5196C38.9767 47.2526 39.5242 48.9984 39.9826 50.7697C40.5047 50.8717 41.0268 50.9354 41.5616 50.9609C42.5548 50.9991 43.357 50.8844 44.0064 50.6168C44.9232 50.2218 45.6745 49.4572 46.273 48.7563C46.7823 48.1701 47.2407 47.5585 47.6482 46.9468C45.4835 43.6463 44.503 39.5813 44.9742 35.6564C45.0506 35.0065 45.1906 34.3311 45.6363 33.7959C46.4895 32.8019 48.043 32.8911 48.9852 33.5537C49.7747 34.1017 50.3477 35.0065 50.717 36.2935C51.6593 39.6195 50.9462 43.4424 48.7942 46.9213C49.1508 47.4183 49.5328 47.8898 49.9403 48.3485C50.7297 49.2151 51.4555 49.7758 52.1814 50.0944C52.9454 47.8388 54.015 45.7235 55.6194 43.9522C56.7527 42.7033 58.5227 41.6456 60.1016 42.4357C61.5787 43.1748 61.8843 45.1882 61.2222 46.6027C60.5983 47.9535 59.3376 48.8583 58.2043 49.5974C56.6126 50.6296 54.7408 51.6363 52.8053 51.2795C52.3596 52.7704 52.0158 54.3123 51.723 55.8288C50.6788 61.3211 50.0421 66.9663 49.8384 72.5733L49.762 74.6504C49.762 74.9053 49.5455 75.1092 49.2908 75.1092H49.3163ZM34.2016 42.4102C33.896 42.4102 33.5904 42.4867 33.323 42.6524C32.6481 43.0856 32.4443 43.9904 32.5335 44.6913C32.6353 45.4049 33.0046 46.144 33.6668 46.9723C35.0165 48.6416 36.8884 49.865 38.9385 50.5021C38.5055 48.9347 38.0216 47.3801 37.4614 45.8509C37.0921 44.8442 36.6591 43.812 35.8951 43.1111C35.4622 42.7161 34.8255 42.423 34.2016 42.423V42.4102ZM53.1236 50.3492C54.6771 50.5659 56.2434 49.7248 57.7077 48.7818C58.7264 48.1192 59.8597 47.3163 60.3818 46.195C60.8402 45.2137 60.6619 43.7738 59.6942 43.2895C58.5991 42.7416 57.2111 43.6463 56.3452 44.6021C54.8554 46.2459 53.8495 48.2339 53.1236 50.362V50.3492ZM47.3808 33.9998C46.9988 33.9998 46.6295 34.1272 46.3749 34.4075C46.082 34.7389 45.9929 35.2486 45.9292 35.7583C45.4962 39.3136 46.3494 42.9964 48.2212 46.042C50.0549 42.8945 50.6406 39.4921 49.8129 36.5484C49.5073 35.478 49.0616 34.7516 48.4632 34.3311C48.1576 34.1272 47.7628 33.9998 47.3935 33.9998H47.3808Z" fill="black"/>
</svg>
