<svg width="184" height="33" viewBox="0 0 184 33" fill="none" xmlns="http://www.w3.org/2000/svg">
<path fill-rule="evenodd" clip-rule="evenodd" d="M9.65145 0.00012207L0 9.59256V23.1585L9.65145 32.751H23.3005L32.9523 23.1585V9.59256L23.3005 0.00012207H9.65145Z" fill="#D8D9D9"/>
<path fill-rule="evenodd" clip-rule="evenodd" d="M9.74108 0.216309L0.216797 9.68203V23.0688L9.74108 32.5345H23.2102L32.7342 23.0688V9.68203L23.2102 0.216309H9.74108Z" fill="white"/>
<path fill-rule="evenodd" clip-rule="evenodd" d="M10.3701 31.0273L1.73438 22.4443V10.3066L10.3701 1.72363H22.5829L31.2183 10.3066V22.4443L22.5829 31.0273H10.3701Z" fill="#ED1E45"/>
<path fill-rule="evenodd" clip-rule="evenodd" d="M8.42338 17.201L8.19262 16.145C8.04885 15.5705 7.91039 14.9603 7.77725 14.3149C7.64377 13.6697 7.5103 13.0477 7.37715 12.4494H7.31573C7.19254 13.0595 7.0667 13.6842 6.93887 14.3238C6.81038 14.9633 6.67458 15.5705 6.53114 16.145L6.28477 17.201H8.42338ZM8.8849 19.2249H5.82325L5.208 21.9527H2.90039L6.03874 10.4783H8.76172L11.9004 21.9527H9.50015L8.8849 19.2249Z" fill="white"/>
<path fill-rule="evenodd" clip-rule="evenodd" d="M16.8373 19.9464C18.0781 19.9464 18.6986 19.4244 18.6986 18.3802C18.6986 17.8757 18.5449 17.509 18.2371 17.2804C17.9293 17.0513 17.4625 16.9372 16.8373 16.9372H15.5603V19.9464H16.8373ZM16.6218 15.1066C17.1756 15.1066 17.578 14.9809 17.8294 14.7285C18.0807 14.4763 18.2066 14.1331 18.2066 13.6989C18.2066 13.2649 18.0781 12.9541 17.8217 12.7663C17.5654 12.5785 17.1703 12.4845 16.6371 12.4845H15.5603V15.1066H16.6218ZM13.2988 10.4784H16.7294C17.2526 10.4784 17.7371 10.5223 18.1833 10.6104C18.6296 10.6985 19.019 10.8539 19.3527 11.0767C19.6858 11.2998 19.9474 11.5931 20.1373 11.9565C20.3269 12.3205 20.4219 12.7782 20.4219 13.3293C20.4219 13.5877 20.3883 13.8457 20.3219 14.1038C20.2549 14.3618 20.1549 14.6024 20.0218 14.8252C19.8883 15.0482 19.714 15.2476 19.4988 15.4234C19.2833 15.5997 19.032 15.7287 18.7448 15.8109V15.8812C19.4626 16.0336 20.0038 16.3273 20.3681 16.7609C20.732 17.1952 20.9139 17.7994 20.9139 18.5736C20.9139 19.1604 20.814 19.6649 20.6141 20.0873C20.4142 20.5097 20.1373 20.8589 19.7834 21.1344C19.4294 21.4103 19.0164 21.6156 18.5449 21.7502C18.0731 21.8855 17.5654 21.9528 17.0219 21.9528H13.2988V10.4784Z" fill="white"/>
<path fill-rule="evenodd" clip-rule="evenodd" d="M25.9919 16.0044C27.2228 16.0044 27.838 15.3945 27.838 14.1742C27.838 13.5759 27.6816 13.1535 27.3689 12.907C27.0557 12.6605 26.5969 12.5374 25.9919 12.5374H24.7305V16.0044H25.9919ZM22.4688 10.4785H26.1304C26.6739 10.4785 27.1842 10.5399 27.661 10.6633C28.1382 10.7864 28.5535 10.9917 28.9071 11.2791C29.2611 11.5669 29.5403 11.948 29.7459 12.4232C29.9507 12.8981 30.0533 13.4818 30.0533 14.1742C30.0533 14.8428 29.9481 15.4236 29.7379 15.9163C29.5277 16.4093 29.2432 16.8139 28.8842 17.1307C28.525 17.4475 28.1096 17.6824 27.6381 17.8345C27.166 17.9873 26.6636 18.0636 26.1304 18.0636H24.7305V21.9526H22.4688V10.4785Z" fill="white"/>
<path fill-rule="evenodd" clip-rule="evenodd" d="M64.155 24.75C64.8908 24.75 65.5795 24.5813 66.2211 24.2439C66.8628 23.9065 67.4317 23.5073 67.9279 23.0464H68.0049L68.1846 24.4537H69.9298V6.875H67.7996V11.4919L67.9022 13.5411C67.3547 13.1131 66.8157 12.7757 66.2853 12.5288C65.7549 12.2819 65.1303 12.1585 64.4117 12.1585C63.6931 12.1585 63.0086 12.3066 62.3585 12.6029C61.7083 12.8992 61.1351 13.3189 60.6389 13.8621C60.1426 14.4052 59.7448 15.0677 59.4454 15.8495C59.146 16.6314 58.9963 17.5078 58.9963 18.4789C58.9963 20.487 59.4625 22.0342 60.395 23.1205C61.3275 24.2068 62.5809 24.75 64.155 24.75ZM48.07 19.5159L46.4531 24.4537H44.2715L49.9693 8.2576H52.3818L58.0796 24.4537H55.7954L54.2041 19.5159H48.07ZM48.609 17.8617H53.6651L52.8695 15.3928C52.5615 14.4875 52.2706 13.5864 51.9969 12.6893C51.7231 11.7923 51.4493 10.8747 51.1756 9.93646H51.0729C50.8162 10.8747 50.551 11.7923 50.2773 12.6893C50.0035 13.5864 49.7126 14.4875 49.4046 15.3928L48.609 17.8617ZM62.0761 21.8367C62.675 22.6432 63.522 23.0464 64.617 23.0464C65.1988 23.0464 65.7463 22.9107 66.2596 22.6391C66.7729 22.3675 67.2863 21.9519 67.7996 21.3923V15.1212C67.2692 14.6603 66.7601 14.3353 66.2725 14.146C65.7848 13.9567 65.2843 13.8621 64.771 13.8621C64.2748 13.8621 63.8086 13.9732 63.3722 14.1954C62.9359 14.4176 62.5552 14.7303 62.2301 15.1335C61.905 15.5368 61.6484 16.0182 61.4602 16.5779C61.2719 17.1375 61.1778 17.7629 61.1778 18.4542C61.1778 19.9027 61.4773 21.0302 62.0761 21.8367ZM79.2905 24.75C80.0091 24.75 80.6935 24.606 81.3437 24.3179C81.9939 24.0299 82.5671 23.6061 83.0633 23.0464C83.5595 22.4868 83.9531 21.8038 84.2439 20.9972C84.5348 20.1907 84.6803 19.2772 84.6803 18.2567C84.6803 17.335 84.5733 16.4997 84.3594 15.7508C84.1456 15.0019 83.829 14.36 83.4098 13.825C82.9906 13.2901 82.473 12.8786 81.857 12.5906C81.2411 12.3025 80.531 12.1585 79.7268 12.1585C79.0253 12.1585 78.3408 12.319 77.6735 12.6399C77.0062 12.9609 76.3902 13.36 75.8256 13.8374L75.8769 11.6647V6.875H73.7723V24.4537H75.4663L75.6459 23.2193H75.7229C76.2705 23.6966 76.8565 24.071 77.481 24.3426C78.1056 24.6142 78.7087 24.75 79.2905 24.75ZM77.5067 22.7625C78.0457 22.9518 78.5205 23.0464 78.9311 23.0464C79.4445 23.0464 79.9193 22.9353 80.3556 22.7131C80.7919 22.4909 81.1683 22.1782 81.4849 21.7749C81.8014 21.3717 82.0495 20.8738 82.2292 20.2812C82.4089 19.6887 82.4987 19.0221 82.4987 18.2814C82.4987 17.623 82.4388 17.0223 82.319 16.4791C82.1992 15.9359 82.0068 15.471 81.7415 15.0842C81.4763 14.6974 81.1341 14.397 80.7149 14.183C80.2957 13.969 79.7952 13.8621 79.2135 13.8621C78.204 13.8621 77.0918 14.4052 75.8769 15.4915V21.7873C76.4245 22.2482 76.9677 22.5732 77.5067 22.7625ZM89.8317 24.75C90.1226 24.75 90.3622 24.7335 90.5504 24.7006C90.7386 24.6677 90.9011 24.6183 91.038 24.5525L90.7557 23.0218C90.6359 23.0547 90.5461 23.0711 90.4862 23.0711H90.2937C90.1397 23.0711 90.0028 23.0053 89.8831 22.8736C89.7633 22.7419 89.7034 22.5115 89.7034 22.1823V6.875H87.5988V22.0342C87.5988 22.923 87.7699 23.5978 88.1121 24.0587C88.4543 24.5196 89.0275 24.75 89.8317 24.75ZM100.822 24.3303C100.129 24.6101 99.3977 24.75 98.6277 24.75C97.8578 24.75 97.1263 24.6101 96.4333 24.3303C95.7403 24.0505 95.1286 23.6431 94.5982 23.1082C94.0678 22.5732 93.6443 21.9149 93.3278 21.133C93.0112 20.3512 92.8529 19.4665 92.8529 18.4789C92.8529 17.4749 93.0112 16.582 93.3278 15.8002C93.6443 15.0183 94.0678 14.3558 94.5982 13.8127C95.1286 13.2695 95.7403 12.858 96.4333 12.5782C97.1263 12.2984 97.8578 12.1585 98.6277 12.1585C99.3977 12.1585 100.129 12.2984 100.822 12.5782C101.515 12.858 102.127 13.2695 102.657 13.8127C103.188 14.3558 103.611 15.0183 103.928 15.8002C104.244 16.582 104.403 17.4749 104.403 18.4789C104.403 19.4665 104.244 20.3512 103.928 21.133C103.611 21.9149 103.188 22.5732 102.657 23.1082C102.127 23.6431 101.515 24.0505 100.822 24.3303ZM98.6277 23.0711C98.0973 23.0711 97.6097 22.96 97.1648 22.7378C96.7199 22.5156 96.3392 22.2029 96.0227 21.7996C95.7061 21.3964 95.4623 20.9149 95.2912 20.3553C95.1201 19.7957 95.0345 19.1702 95.0345 18.4789C95.0345 17.7876 95.1201 17.1581 95.2912 16.5902C95.4623 16.0224 95.7061 15.5327 96.0227 15.1212C96.3392 14.7097 96.7199 14.3929 97.1648 14.1707C97.6097 13.9485 98.0973 13.8374 98.6277 13.8374C99.1581 13.8374 99.6458 13.9485 100.091 14.1707C100.536 14.3929 100.916 14.7097 101.233 15.1212C101.549 15.5327 101.793 16.0224 101.964 16.5902C102.135 17.1581 102.221 17.7876 102.221 18.4789C102.221 19.1702 102.135 19.7957 101.964 20.3553C101.793 20.9149 101.549 21.3964 101.233 21.7996C100.916 22.2029 100.536 22.5156 100.091 22.7378C99.6458 22.96 99.1581 23.0711 98.6277 23.0711ZM114.405 24.3426C113.72 24.6142 113.002 24.75 112.249 24.75C111.428 24.75 110.658 24.6101 109.939 24.3303C109.22 24.0505 108.6 23.6431 108.078 23.1082C107.556 22.5732 107.146 21.9149 106.846 21.133C106.547 20.3512 106.397 19.4665 106.397 18.4789C106.397 17.4749 106.56 16.582 106.885 15.8002C107.21 15.0183 107.646 14.3558 108.194 13.8127C108.741 13.2695 109.379 12.858 110.106 12.5782C110.833 12.2984 111.599 12.1585 112.403 12.1585C113.224 12.1585 113.926 12.2984 114.507 12.5782C115.089 12.858 115.603 13.1872 116.047 13.5658L114.969 14.899C114.61 14.5863 114.229 14.3311 113.827 14.1336C113.425 13.9361 112.976 13.8374 112.48 13.8374C111.915 13.8374 111.393 13.9485 110.914 14.1707C110.435 14.3929 110.025 14.7097 109.682 15.1212C109.34 15.5327 109.071 16.0224 108.874 16.5902C108.677 17.1581 108.579 17.7876 108.579 18.4789C108.579 19.1702 108.673 19.7957 108.861 20.3553C109.049 20.9149 109.31 21.3964 109.644 21.7996C109.977 22.2029 110.384 22.5156 110.863 22.7378C111.342 22.96 111.864 23.0711 112.429 23.0711C113.01 23.0711 113.545 22.9518 114.033 22.7131C114.52 22.4745 114.961 22.1906 115.354 21.8614L116.278 23.2193C115.714 23.6966 115.089 24.071 114.405 24.3426ZM120.737 24.4537V21.2935L123.072 18.6765L126.717 24.4537H129.027L124.279 17.2692L128.462 12.4548H126.127L120.814 18.7752H120.737V6.875H118.658V24.4537H120.737ZM134.64 18.9974V24.4537H130.867V8.35635H136.617C137.541 8.35635 138.405 8.44277 139.209 8.61559C140.013 8.78842 140.715 9.07646 141.313 9.47971C141.912 9.88297 142.387 10.4179 142.738 11.0845C143.089 11.7511 143.264 12.57 143.264 13.5411C143.264 14.4793 143.089 15.294 142.738 15.9853C142.387 16.6766 141.912 17.2445 141.313 17.6889C140.715 18.1333 140.022 18.4625 139.234 18.6765C138.447 18.8904 137.609 18.9974 136.719 18.9974H134.64ZM136.488 16.1088H134.64V11.245H136.386C137.412 11.245 138.199 11.4178 138.747 11.7635C139.294 12.1091 139.568 12.7017 139.568 13.5411C139.568 15.2529 138.542 16.1088 136.488 16.1088ZM150.085 24.6636C149.768 24.7212 149.396 24.75 148.969 24.75C148.318 24.75 147.771 24.6512 147.326 24.4537C146.881 24.2562 146.526 23.9805 146.261 23.6266C145.996 23.2728 145.803 22.8448 145.683 22.3428C145.564 21.8408 145.504 21.277 145.504 20.6516V7.14658H149.277V20.7997C149.277 21.1783 149.349 21.4416 149.495 21.5898C149.64 21.7379 149.79 21.812 149.944 21.812H150.162C150.222 21.812 150.303 21.7955 150.406 21.7626L150.868 24.4537C150.662 24.536 150.402 24.606 150.085 24.6636ZM156.316 24.75C157.188 24.75 157.937 24.5731 158.561 24.2192C159.186 23.8653 159.772 23.3756 160.32 22.7502H160.397L160.679 24.4537H163.759V12.2079H159.986V20.3059C159.609 20.7833 159.259 21.1289 158.934 21.3429C158.608 21.5569 158.206 21.6638 157.727 21.6638C157.18 21.6638 156.778 21.4993 156.521 21.1701C156.264 20.8409 156.136 20.2319 156.136 19.3431V12.2079H152.363V19.8122C152.363 21.3593 152.675 22.5691 153.3 23.4415C153.925 24.3138 154.93 24.75 156.316 24.75ZM172.723 24.4414C172.073 24.6471 171.32 24.75 170.464 24.75C169.626 24.75 168.766 24.5936 167.885 24.2809C167.004 23.9682 166.238 23.5567 165.588 23.0464L167.282 20.775C167.863 21.203 168.42 21.5239 168.95 21.7379C169.48 21.9519 170.019 22.0589 170.567 22.0589C171.132 22.0589 171.542 21.9683 171.799 21.7873C172.056 21.6062 172.184 21.3511 172.184 21.0219C172.184 20.8244 172.111 20.6475 171.966 20.4911C171.82 20.3347 171.623 20.1907 171.375 20.059C171.127 19.9274 170.849 19.808 170.541 19.7011C170.233 19.5941 169.917 19.4747 169.592 19.3431C169.198 19.1949 168.805 19.0221 168.411 18.8246C168.017 18.6271 167.658 18.3843 167.333 18.0963C167.008 17.8082 166.743 17.4708 166.537 17.084C166.332 16.6972 166.229 16.2487 166.229 15.7384C166.229 15.1788 166.345 14.6603 166.576 14.183C166.807 13.7057 167.136 13.3024 167.564 12.9732C167.992 12.644 168.505 12.3848 169.104 12.1955C169.703 12.0062 170.37 11.9116 171.106 11.9116C172.081 11.9116 172.937 12.0721 173.672 12.393C174.408 12.714 175.05 13.072 175.597 13.467L173.903 15.6397C173.441 15.3105 172.988 15.0554 172.543 14.8743C172.098 14.6933 171.653 14.6027 171.209 14.6027C170.25 14.6027 169.771 14.9237 169.771 15.5656C169.771 15.7631 169.84 15.9318 169.977 16.0717C170.113 16.2116 170.297 16.3392 170.528 16.4544C170.759 16.5696 171.025 16.6807 171.324 16.7877C171.623 16.8947 171.936 17.0058 172.261 17.121C172.672 17.2692 173.078 17.4379 173.48 17.6272C173.882 17.8164 174.25 18.051 174.584 18.3308C174.917 18.6106 175.187 18.9521 175.392 19.3554C175.597 19.7587 175.7 20.2401 175.7 20.7997C175.7 21.3593 175.589 21.8778 175.366 22.3551C175.144 22.8325 174.81 23.2481 174.365 23.602C173.921 23.9558 173.373 24.2356 172.723 24.4414Z" fill="black"/>
</svg>
