<svg width="183" height="152" viewBox="0 0 183 152" fill="none" xmlns="http://www.w3.org/2000/svg">
<mask id="mask0_3615_26724" style="mask-type:alpha" maskUnits="userSpaceOnUse" x="0" y="0" width="151" height="152">
<ellipse cx="75.6046" cy="76" rx="74.9444" ry="76" fill="#D9D9D9"/>
</mask>
<g mask="url(#mask0_3615_26724)">
<path d="M102.291 117.293C102.376 116.818 102.101 116.343 101.722 116.048C101.342 115.752 100.867 115.615 100.403 115.499C94.9501 114.053 89.2122 113.789 83.6009 114.348C83.0524 114.401 82.3563 114.623 82.3457 115.171C82.3457 115.425 82.5039 115.646 82.6621 115.836C83.7063 117.019 85.2568 117.61 86.7757 118.064C91.1108 119.341 95.7939 119.826 100.15 118.613C100.91 118.401 102.122 118.233 102.291 117.314V117.293Z" fill="white"/>
<path d="M85.3813 104.753C86.2041 103.856 87.0268 102.938 87.8284 102.019C89.2418 100.425 90.6235 98.7999 91.9841 97.1638C92.1318 97.1955 92.29 97.1849 92.385 97.2799C93.2393 96.5622 94.6 96.2455 95.8129 96.4672C96.4669 97.1427 97.2474 97.7444 98.0385 98.3461C98.3444 98.5677 98.6291 98.7999 98.9667 99.0005C99.1776 99.1272 99.3886 99.2538 99.589 99.3805H99.5995C99.6628 99.4438 99.7261 99.4861 99.7894 99.5177C99.8421 99.5494 99.8949 99.5811 99.937 99.6127C100.612 100.067 101.255 100.542 101.92 100.995C102.089 101.112 102.3 101.154 102.468 101.101V101.354C102.648 101.935 102.985 104.479 101.382 108.015C99.8316 111.424 99.2304 115.404 99.146 118.855C95.9079 119.869 93.4503 118.75 90.0434 118.148C88.7566 117.916 87.4592 117.684 86.415 117.188C85.4235 113.525 84.6641 109.83 84.1367 106.115C84.5481 105.672 84.97 105.218 85.3813 104.774V104.753Z" fill="white"/>
<path d="M98.1986 101.935C98.2935 100.51 97.8611 99.0532 97.0067 97.9132C96.4688 97.1954 95.7621 96.5938 95.3613 95.7915C94.9499 94.9893 94.9499 93.8704 95.6777 93.3427C96.1313 93.0049 96.7536 93.0049 97.3021 93.121C98.7576 93.4271 99.9284 94.4615 100.962 95.5277C101.605 96.1927 102.238 96.8893 102.629 97.7232C102.977 98.4727 103.124 99.296 103.198 100.109C103.24 100.615 103.261 101.143 103.051 101.618C102.766 102.262 102.122 102.663 101.489 102.98C100.836 103.307 100.108 103.603 99.3799 103.476C98.6522 103.349 98.1459 102.663 98.1881 101.924L98.1986 101.935Z" fill="white"/>
<path d="M179.457 194.517C180.322 184.194 181.197 176.826 182.062 166.503C183.317 173.501 187.093 187.266 188.654 194.75C173.824 195.225 164.163 195.7 151.347 197.346C153.816 199.299 155.799 201.864 156.927 204.651C158.056 207.437 158.425 210.467 158.731 213.465C174.552 212.937 190.099 212.673 205.636 213.169C207.376 213.222 209.222 213.264 210.709 212.367C211.827 211.691 212.597 210.541 213.072 209.327C214.369 205.981 213.578 202.234 212.766 198.729C210.372 188.364 205.752 168.688 201.491 158.945C199.655 154.744 197.451 150.627 194.276 147.313C187.652 140.378 177.801 137.802 168.276 135.554C167.865 137.929 165.365 139.344 163.013 139.85C160.914 140.304 158.678 140.315 156.695 139.491C154.712 138.668 153.046 136.947 152.096 134.108C144.797 133.443 140.188 133.464 136.971 133.939C132.72 134.562 128.596 137.655 125.748 140.758C119.821 147.229 116.741 152.675 110.507 160.18C105.149 146.616 102.037 132.155 102.322 117.05C100.983 120.122 83.8638 119.816 82.0391 114.95C83.2415 132.957 84.4756 151.166 89.9392 168.361C91.7007 173.892 93.9473 179.402 97.7234 183.814C101.499 188.226 107.016 191.435 112.817 191.277C118.618 191.119 122.331 189.525 126.075 182.347C126.719 183.371 127.362 184.395 127.679 185.598C127.721 193.272 127.004 202.234 126.898 209.77C143.996 212.483 161.937 210.182 179.119 209.084C179.161 203.996 179.088 198.909 179.457 194.539V194.517Z" fill="white"/>
<path d="M158.719 213.845C158.582 213.845 158.455 213.771 158.381 213.665C158.308 213.549 158.297 213.401 158.36 213.275C159.267 211.48 158.54 207.575 157.348 204.64L157.263 204.419C156.166 201.695 154.922 198.613 151.241 197.716C151.051 197.674 150.924 197.505 150.935 197.304C150.945 197.114 151.093 196.956 151.283 196.935C160.976 195.689 168.665 195.109 179.086 194.676C179.055 194.613 179.044 194.539 179.044 194.465C179.477 189.303 179.92 184.806 180.352 180.447C180.774 176.098 181.217 171.601 181.649 166.44C181.67 166.239 181.829 166.091 182.029 166.081C182.229 166.081 182.398 166.208 182.44 166.408C183.147 170.335 184.645 176.425 186.111 182.305C187.261 186.96 188.358 191.361 189.033 194.634C189.054 194.75 189.033 194.866 188.959 194.961C188.885 195.056 188.78 195.109 188.664 195.109C173.602 195.594 164.604 196.069 153.034 197.494C155.903 198.888 157.052 201.738 158.002 204.102L158.086 204.324C159.194 207.058 159.974 210.794 159.299 213.011C178 212.388 192.302 212.304 205.624 212.736C207.238 212.789 209.063 212.842 210.476 211.987C211.668 211.269 212.332 210.045 212.68 209.137C213.978 205.791 213.081 201.896 212.364 198.771C210.497 190.686 205.55 169.216 201.11 159.051C198.863 153.9 196.659 150.343 193.98 147.535C187.714 140.969 178.77 138.394 168.57 135.987C167.916 138.341 165.353 139.703 163.086 140.199C160.67 140.726 158.402 140.6 156.525 139.819C154.363 138.921 152.728 137.064 151.789 134.435C145.102 133.844 140.398 133.791 137.012 134.288C131.96 135.026 127.646 139.217 126.021 140.99C122.72 144.6 120.294 147.904 117.72 151.398C115.664 154.195 113.543 157.077 110.791 160.391C110.706 160.497 110.558 160.55 110.421 160.529C110.284 160.508 110.168 160.413 110.115 160.286C104.557 146.205 101.783 132.029 101.888 118.127C100.127 119.404 96.1504 119.51 94.7898 119.499C90.7817 119.489 84.8434 118.613 82.5124 116.364C83.662 133.633 84.9699 151.44 90.2965 168.203C91.7837 172.868 93.9987 178.832 98.0068 183.508C102.057 188.237 107.573 190.981 112.795 190.834C118.353 190.675 122.003 189.229 125.367 182.02C125.462 181.819 125.694 181.735 125.895 181.83C126.095 181.925 126.179 182.157 126.085 182.358C122.562 189.905 118.554 191.467 112.816 191.625C107.373 191.784 101.614 188.934 97.4056 184.025C93.3026 179.233 91.0454 173.174 89.5371 168.435C84.0207 151.092 82.7971 132.704 81.6158 114.929C81.6053 114.728 81.7424 114.549 81.9322 114.517C82.1326 114.475 82.3225 114.591 82.3858 114.781C83.1558 117.209 89.2945 118.676 94.7792 118.697C98.6818 118.718 101.551 117.979 101.909 116.881C101.973 116.691 102.152 116.586 102.352 116.618C102.542 116.649 102.69 116.818 102.679 117.019C102.426 130.973 105.084 145.223 110.601 159.378C113.132 156.296 115.136 153.573 117.066 150.934C119.65 147.419 122.087 144.094 125.42 140.452C127.097 138.615 131.58 134.277 136.875 133.506C140.366 133 145.207 133.053 152.095 133.675C152.253 133.686 152.38 133.791 152.432 133.939C153.287 136.473 154.795 138.256 156.81 139.09C158.993 139.988 161.324 139.766 162.896 139.428C165.037 138.964 167.473 137.665 167.853 135.449C167.874 135.343 167.937 135.248 168.022 135.185C168.117 135.121 168.222 135.1 168.328 135.132C178.812 137.602 188.02 140.199 194.517 146.996C197.27 149.878 199.517 153.499 201.806 158.745C206.267 168.973 211.235 190.496 213.102 198.603C213.851 201.833 214.769 205.854 213.387 209.433C212.997 210.446 212.237 211.839 210.856 212.673C209.231 213.655 207.206 213.591 205.571 213.539C192.123 213.106 177.673 213.201 158.698 213.834H158.687L158.719 213.845ZM182.208 169.311C181.85 173.343 181.491 176.985 181.143 180.542C180.721 184.891 180.278 189.388 179.846 194.549C179.846 194.591 179.835 194.623 179.825 194.655C182.409 194.549 185.172 194.454 188.168 194.359C187.482 191.15 186.449 186.949 185.341 182.516C184.191 177.861 182.999 173.069 182.208 169.321V169.311Z" fill="black"/>
<path d="M102.364 117.325C102.364 117.325 102.332 117.325 102.321 117.325C102.1 117.304 101.942 117.103 101.963 116.892C101.963 116.797 101.931 116.671 101.836 116.554C101.731 116.417 101.572 116.312 101.414 116.217C100.824 115.837 99.8426 115.583 98.5031 115.457C98.2816 115.436 98.1234 115.246 98.1445 115.024C98.1656 114.802 98.3554 114.644 98.5769 114.665C100.064 114.813 101.129 115.098 101.836 115.552C102.037 115.678 102.269 115.837 102.448 116.069C102.669 116.343 102.775 116.671 102.743 116.977C102.722 117.177 102.553 117.336 102.353 117.336L102.364 117.325Z" fill="black"/>
<path d="M82.0699 115.467C81.859 115.467 81.6797 115.298 81.6797 115.077C81.6797 114.77 81.8168 114.464 82.0805 114.243C82.2914 114.063 82.5446 113.968 82.745 113.905C83.2724 113.736 83.8103 113.662 84.3588 113.683C84.5803 113.683 84.749 113.873 84.7385 114.095C84.7385 114.317 84.5486 114.485 84.3271 114.475C83.8736 114.464 83.42 114.528 82.977 114.665C82.8399 114.707 82.6817 114.77 82.5762 114.855C82.5024 114.918 82.4497 115.003 82.4602 115.066C82.4602 115.288 82.2914 115.467 82.0699 115.467Z" fill="black"/>
<g opacity="0.13">
<path opacity="0.13" d="M82.0801 114.897C82.1539 114.602 82.3965 114.39 82.6813 114.295C82.734 114.274 82.7973 114.274 82.8501 114.264C82.9977 113.768 83.6728 113.599 84.0314 113.968C84.3478 114.369 84.6854 114.76 85.0545 115.119C85.1494 115.214 85.2444 115.309 85.3499 115.393C85.8878 115.594 86.5523 115.815 87.3644 116.037C88.2715 116.354 89.1892 116.702 90.1385 116.85C91.2249 117.008 91.3198 117.008 92.6593 117.145C93.809 117.304 95.9818 117.895 97.6589 117.937C99.6946 118.465 97.0366 114.57 98.7453 114.939C99.1989 115.034 100.38 115.119 101.066 115.541C101.319 115.699 101.583 115.858 101.741 116.111C101.762 116.143 101.772 116.185 101.783 116.217C101.815 116.217 101.857 116.217 101.889 116.217C102.637 116.28 102.859 117.367 102.194 117.726C100.422 118.655 98.4289 119.193 96.4248 119.235C95.7393 119.235 95.0537 119.13 94.3681 119.14C93.7141 119.14 93.0496 119.172 92.3957 119.098C91.035 118.95 89.6849 118.687 88.3454 118.423H88.2821C88.2821 118.423 88.3876 118.423 88.4403 118.433L88.2715 118.412C88.1872 118.402 88.2083 118.412 88.2715 118.412C87.6492 118.328 87.0164 118.243 86.4152 118.032C84.6748 117.42 82.8606 116.723 82.3965 115.9C82.3121 115.784 82.2383 115.668 82.175 115.541C82.059 115.351 82.0274 115.108 82.0906 114.887L82.0801 114.897Z" fill="black"/>
</g>
<g opacity="0.13">
<path opacity="0.13" d="M88.7065 101.07C88.505 100.911 88.5686 100.953 88.7065 101.07V101.07Z" fill="black"/>
</g>
<g opacity="0.13">
<path opacity="0.13" d="M95.3164 104.067C95.3694 104.067 95.4437 104.046 95.4649 104.046C95.4119 104.046 95.3588 104.057 95.3164 104.067Z" fill="black"/>
</g>
<g opacity="0.13">
<path opacity="0.13" d="M95.2135 104.088C95.2135 104.088 95.2772 104.088 95.309 104.078C95.2454 104.088 95.1817 104.099 95.2135 104.088Z" fill="black"/>
</g>
<path d="M107.112 91.3371C102.292 96.636 97.862 102.304 93.8856 108.268C91.7761 111.424 89.5716 114.865 86.0382 116.248C85.2682 116.544 84.4349 116.744 83.6333 116.597C82.4309 116.385 81.4394 115.446 80.9331 114.327C80.4268 113.208 80.353 111.942 80.4479 110.728C80.5218 109.788 80.7011 108.838 81.1652 108.004C81.5871 107.234 82.1777 106.558 82.8633 106.009C84.8779 104.415 84.1185 103.645 84.5193 101.967C85.6901 97.0899 92.8519 97.0899 95.7103 92.9099C94.9931 92.4138 94.2759 91.9177 93.6957 91.2738C93.1156 90.6299 92.6726 89.8171 92.641 88.9516C92.5882 87.6321 93.4426 86.471 94.1809 85.3416C84.8252 82.006 75.0687 79.8316 65.2383 78.6388C67.39 74.4377 69.1409 70.036 70.8707 65.6449C73.2228 59.681 75.5855 53.7277 78.1275 48.0804C84.34 54.3293 91.8816 59.0582 99.3493 63.7238C104.486 66.9327 109.633 70.1416 115.118 72.7066C118.04 74.0682 121.32 75.5038 122.638 78.4488C123.472 80.3066 123.324 82.4916 122.681 84.4232C122.027 86.3549 120.898 88.086 119.769 89.7854C118.841 91.1788 117.702 92.6777 115.972 93.0999C112.882 93.1949 109.77 92.5299 107.112 91.3371Z" fill="white"/>
<path d="M66.7767 52.9466C65.2684 57.9077 63.3066 62.7316 60.9228 67.3444C59.4462 67.0911 58.2754 65.8666 57.6953 64.4839C57.1151 63.1011 57.0308 61.56 57.0097 60.0611C56.9991 59.4383 56.9991 58.8155 57.1679 58.2244C57.3261 57.6966 57.6214 57.2216 57.9168 56.7677C58.6551 55.6383 59.4778 54.53 60.5748 53.7489C62.3573 52.4927 64.8149 52.2605 66.7662 52.9466H66.7767Z" fill="white"/>
<path d="M65.4792 79.1245C69.6666 68.5689 73.854 58.0134 78.0414 47.2784C75.7209 45.1145 73.8856 42.3912 72.7149 39.4039C72.7149 39.4039 55.7859 80.0639 55.7754 79.895C58.8658 78.8184 62.2094 78.4911 65.4686 79.1245H65.4792Z" fill="#EDA51E"/>
<path d="M99.8214 87.7588C99.8214 87.7588 99.7265 87.7588 99.6843 87.7377C99.3679 87.6216 67.9676 75.8205 56.1227 80.4544C55.9856 80.5071 55.8273 80.4755 55.7219 80.391C55.6269 80.4227 55.532 80.4227 55.4371 80.391C55.2367 80.3066 55.1418 80.0744 55.2261 79.8738L72.3976 38.7283C72.4609 38.5805 72.6086 38.4855 72.7774 38.4855C72.9461 38.4855 73.0832 38.591 73.136 38.7494C76.796 49.2416 89.1684 56.8099 101.129 64.1144C103.197 65.381 105.338 66.6899 107.395 67.9882C107.542 68.0833 107.616 68.2733 107.563 68.4421C105.517 74.9444 103.028 81.3727 100.18 87.5371C100.117 87.6849 99.9691 87.7694 99.8214 87.7694V87.7588ZM63.4005 78.5649C76.796 78.5649 96.615 85.7427 99.621 86.8616C102.342 80.9188 104.737 74.7332 106.72 68.4844C104.747 67.2388 102.701 65.9932 100.718 64.7794C88.989 57.6121 76.8804 50.2127 72.7457 39.9421L56.1965 79.5782C58.2006 78.871 60.6582 78.5755 63.39 78.5755L63.4005 78.5649Z" fill="black"/>
<path d="M65.6699 78.6811C65.6699 78.6811 65.575 78.6811 65.5223 78.6494C65.3218 78.565 65.2164 78.3327 65.3008 78.1322L77.4094 48.0277C77.4938 47.8272 77.7258 47.7322 77.9262 47.8061C78.1266 47.8905 78.2321 48.1227 78.1477 48.3233L66.0391 78.4277C65.9758 78.5861 65.8281 78.6811 65.6699 78.6811Z" fill="black"/>
<path d="M60.4577 67.9038C60.3839 67.9038 60.3101 67.8827 60.2468 67.8405C58.401 66.6372 57.0403 64.6105 56.6079 62.4149C56.1754 60.2194 56.65 57.8127 57.8841 55.9761C58.4853 55.0894 59.2553 54.3083 60.194 53.6538C61.8395 52.5033 64.3709 51.6799 66.5648 52.8094C66.7547 52.9044 66.839 53.1472 66.7336 53.3477C66.6386 53.5377 66.396 53.6222 66.1956 53.5166C64.3182 52.5455 62.0926 53.2949 60.637 54.3083C59.7827 54.8994 59.076 55.6172 58.5381 56.4194C57.42 58.0766 56.9876 60.2616 57.3778 62.2566C57.7786 64.2516 59.0022 66.0883 60.6687 67.1755C60.848 67.2916 60.9007 67.5449 60.7847 67.7244C60.7109 67.8405 60.5843 67.9038 60.4577 67.9038Z" fill="black"/>
<path d="M114.325 93.6699C112.363 93.6699 110.327 92.8255 108.492 91.9705C106.889 91.221 105.433 90.5138 104.02 89.8277C102.617 89.1416 101.161 88.4344 99.5687 87.6955C99.3683 87.6005 99.2839 87.3682 99.3788 87.1677C99.4737 86.9671 99.7058 86.8827 99.9062 86.9777C101.509 87.7271 102.965 88.4344 104.378 89.1205C105.781 89.8066 107.237 90.5138 108.84 91.2527C111.393 92.4455 114.093 93.5116 116.413 92.4455C118.122 91.6644 119.208 89.8699 120.253 87.9382C121.128 86.3232 122.13 84.4971 122.531 82.5232C122.963 80.4121 122.615 78.4277 121.571 77.0766C120.727 75.9788 119.398 75.261 118.343 74.691C114.683 72.7277 111.044 70.8066 106.762 68.8116C106.562 68.7166 106.477 68.4844 106.572 68.2838C106.667 68.0832 106.899 67.9988 107.1 68.0938C111.403 70.0888 115.053 72.0205 118.723 73.9838C119.852 74.5855 121.265 75.3455 122.214 76.5805C123.396 78.1216 123.797 80.3382 123.322 82.671C122.889 84.7505 121.866 86.6399 120.97 88.2971C119.852 90.3449 118.702 92.2555 116.772 93.1421C116.002 93.501 115.19 93.6488 114.367 93.6488L114.325 93.6699Z" fill="black"/>
<path d="M84.5597 117.325C84.0956 117.325 83.621 117.262 83.1358 117.103C80.2036 116.164 79.0433 112.427 79.845 109.662C80.5411 107.266 82.1549 105.999 84.2117 104.384C84.5808 104.088 84.9711 103.782 85.3825 103.455L85.509 103.36C88.5045 100.953 91.6266 97.7445 94.7909 93.8389C95.5609 92.8889 96.3309 91.3267 97.143 89.6695C97.6071 88.7301 98.0818 87.7484 98.5775 86.8828C98.683 86.6928 98.9256 86.6295 99.1154 86.7351C99.3053 86.8406 99.3686 87.0834 99.2631 87.2734C98.7885 88.1284 98.3138 89.0889 97.8497 90.0178C97.0165 91.7173 96.2254 93.3217 95.4027 94.3351C92.2068 98.2934 89.0425 101.534 85.9942 103.983L85.8782 104.078C85.4668 104.405 85.0766 104.711 84.6969 105.007C82.6823 106.58 81.2267 107.719 80.6044 109.873C79.9082 112.279 80.9525 115.562 83.3784 116.343C86.0681 117.209 88.6944 114.792 89.6859 113.715C91.4262 111.836 92.8291 109.588 94.1792 107.403C94.4956 106.896 94.812 106.389 95.1285 105.883C98.5248 100.542 102.48 95.5489 106.889 91.0628C107.047 90.9045 107.29 90.9045 107.448 91.0628C107.606 91.2212 107.606 91.4639 107.448 91.6223C103.081 96.0662 99.1576 101.006 95.7929 106.305C95.4765 106.801 95.1601 107.308 94.8437 107.814C93.4725 110.021 92.0485 112.311 90.2555 114.243C89.3167 115.256 87.1017 117.314 84.5386 117.314L84.5597 117.325Z" fill="black"/>
<path d="M95.3506 93.3006C95.2557 93.3006 95.1502 93.2584 95.0764 93.1845L93.3361 91.4851C93.0829 91.2423 92.8087 90.9679 92.5977 90.6301C92.1125 89.849 92.0598 88.7723 92.4395 87.7379C92.7665 86.8512 93.3571 86.0912 93.874 85.4262C94.0111 85.2573 94.2537 85.2256 94.433 85.3629C94.6018 85.5001 94.6334 85.7429 94.4963 85.9223C93.99 86.5767 93.4626 87.2523 93.1778 88.0229C92.8825 88.8251 92.9142 89.6484 93.2622 90.229C93.4204 90.4823 93.6525 90.7145 93.8845 90.9362L95.6249 92.6356C95.7831 92.7834 95.7831 93.0367 95.6249 93.1951C95.5511 93.2795 95.4456 93.3112 95.3401 93.3112L95.3506 93.3006Z" fill="black"/>
<path d="M118.418 80.064C118.355 80.064 118.291 80.0535 118.239 80.0218C115.074 78.3646 111.783 76.8551 108.471 75.5251C108.271 75.4407 108.166 75.219 108.25 75.0079C108.334 74.8074 108.566 74.7018 108.767 74.7862C112.1 76.1162 115.412 77.6468 118.608 79.3146C118.798 79.4201 118.871 79.6524 118.776 79.8529C118.703 79.9901 118.566 80.064 118.428 80.064H118.418Z" fill="black"/>
<path d="M116.51 84.1066C116.457 84.1066 116.405 84.096 116.352 84.0749C113.082 82.6394 109.738 81.2566 106.427 79.9582C106.226 79.8738 106.121 79.6521 106.205 79.441C106.289 79.2405 106.511 79.1349 106.722 79.2194C110.055 80.5282 113.399 81.911 116.679 83.3466C116.879 83.431 116.974 83.6632 116.879 83.8638C116.816 84.0116 116.668 84.096 116.521 84.096L116.51 84.1066Z" fill="black"/>
<path d="M114.631 88.5083C114.567 88.5083 114.515 88.4977 114.451 88.4661C111.245 86.8616 107.922 85.4366 104.568 84.2122C104.368 84.1383 104.262 83.9061 104.336 83.7055C104.41 83.505 104.642 83.3889 104.842 83.4733C108.228 84.7083 111.572 86.1544 114.81 87.7589C115.01 87.8539 115.084 88.0966 114.989 88.2866C114.915 88.4239 114.778 88.5083 114.631 88.5083Z" fill="black"/>
<path d="M57.1998 51.4266C57.1049 51.4266 57.01 51.3949 56.9256 51.321C53.7719 48.3444 51.6202 44.3227 50.8607 39.9949C50.8185 39.7838 50.9662 39.5727 51.1772 39.541C51.3881 39.4988 51.5991 39.6466 51.6307 39.8577C52.369 44.0271 54.4364 47.8905 57.4635 50.751C57.6218 50.8988 57.6323 51.1521 57.4846 51.3105C57.4108 51.3949 57.3053 51.4371 57.1998 51.4371V51.4266Z" fill="black"/>
<path d="M54.1216 55.5222C54.0478 55.5222 53.9739 55.5011 53.9001 55.4589C51.5691 53.9283 49.0693 52.6405 46.4851 51.6377C46.2847 51.5533 46.1793 51.3316 46.2636 51.1205C46.3375 50.92 46.5695 50.8144 46.7805 50.8989C49.4174 51.9227 51.9594 53.2422 54.3431 54.7939C54.5224 54.91 54.5752 55.1633 54.4591 55.3427C54.3853 55.4589 54.2587 55.5222 54.1322 55.5222H54.1216Z" fill="black"/>
<path d="M40.9037 62.5627C40.756 62.5627 40.6189 62.4783 40.545 62.3411C40.4501 62.1405 40.5345 61.9083 40.7244 61.8133C44.3527 60.04 48.403 59.2166 52.4217 59.4277C52.6432 59.4383 52.8119 59.6283 52.8014 59.8394C52.7908 60.0611 52.601 60.2194 52.39 60.2088C48.5085 60.0083 44.5953 60.8 41.083 62.5205C41.0302 62.5522 40.967 62.5627 40.9142 62.5627H40.9037Z" fill="black"/>
<path d="M70.6052 76.7388C70.6052 76.7388 70.563 76.7388 70.5419 76.7282C70.4786 76.6966 70.4575 76.6121 70.4891 76.5488L74.0437 69.8038C74.0753 69.7404 74.1597 69.7193 74.223 69.751C74.2863 69.7827 74.3074 69.8671 74.2757 69.9304L70.7212 76.6754C70.7212 76.6754 70.6474 76.7493 70.6052 76.7493V76.7388Z" fill="black"/>
<path d="M73.697 77.5939C73.697 77.5939 73.6548 77.5939 73.6337 77.5834C73.5704 77.5517 73.5493 77.4672 73.5809 77.4039L75.3951 74.0367C75.4268 73.9734 75.5112 73.9522 75.5744 73.9839C75.6377 74.0156 75.6588 74.1 75.6272 74.1634L73.813 77.5306C73.813 77.5306 73.7392 77.6045 73.697 77.6045V77.5939Z" fill="black"/>
<path d="M77.1462 78.8816C77.1462 78.8816 77.104 78.8816 77.0829 78.8605C77.0196 78.8288 76.9985 78.7444 77.0302 78.681L78.4014 76.1583C78.433 76.0949 78.5174 76.0738 78.5807 76.1055C78.6439 76.1372 78.665 76.2216 78.6334 76.2849L77.2622 78.8077C77.2622 78.8077 77.1884 78.8816 77.1462 78.8816Z" fill="black"/>
<path d="M80.9615 79.6731C80.9615 79.6731 80.9193 79.6731 80.8982 79.6625C80.8348 79.6309 80.8032 79.5464 80.8454 79.4831L81.8482 77.5409C81.8798 77.4775 81.9643 77.4459 82.0276 77.4881C82.091 77.5198 82.1226 77.6042 82.0804 77.6675L81.0776 79.6098C81.0776 79.6098 81.0037 79.6837 80.9615 79.6837V79.6731Z" fill="black"/>
<g opacity="0.13">
<path opacity="0.13" d="M56.7365 60.7684C56.8841 60.1878 57.6752 59.9873 58.1077 60.3778C58.3714 60.5889 58.403 60.9478 58.5401 61.2328C58.9198 62.2778 59.7742 63.4706 60.4387 64.0617C61.2087 64.8111 61.0188 64.3784 61.715 65.0856C62.4427 66.1728 61.0505 67.4289 60.0484 66.5845C58.2975 65.3917 57.8651 64.1567 57.0951 62.6578C56.9158 62.225 56.7681 61.7711 56.7259 61.2961C56.6837 61.1167 56.6521 60.9373 56.7259 60.7578L56.7365 60.7684Z" fill="black"/>
</g>
<g opacity="0.13">
<path opacity="0.13" d="M55.8497 78.9558C56.124 79.3463 56.7041 79.5258 57.126 79.2724C57.1576 79.2724 57.1682 79.2408 57.1998 79.2302C57.242 79.2197 57.2842 79.1985 57.3264 79.1774C58.5183 78.6813 59.1617 78.7447 60.8071 78.6391C62.8323 78.4597 64.4144 78.5019 66.0282 78.6074C66.0282 78.6285 66.0493 78.6497 66.0598 78.6708C66.1548 78.8819 66.3446 79.0508 66.5661 79.1035C66.9142 79.2091 66.9353 79.1247 67.6842 79.1985C68.5596 79.2513 69.4245 79.3885 70.2894 79.4941C73.0318 79.8002 75.7109 80.4547 78.4322 80.9402C80.4151 81.3941 81.2378 81.848 83.6532 82.4391C87.4609 83.3363 90.0556 84.1069 93.4203 85.1202C93.7895 85.2574 94.8443 85.6585 96.0361 86.1124C95.6775 86.028 95.3295 85.9435 94.9603 85.8908C94.9181 85.8802 94.8654 85.8697 94.8232 85.8591C93.9161 85.2997 92.7558 86.2391 93.1356 87.2419C93.336 87.833 94.0321 88.1602 94.6122 87.9385H94.6333C96.0994 88.0863 96.2682 88.2552 97.671 88.688C97.5234 88.8991 97.3968 89.0997 97.2386 89.3635C97.3862 89.4797 97.4495 89.6802 97.3441 89.9019C96.2471 92.0658 94.8337 94.0502 93.2832 95.908C92.5132 96.8369 91.6378 97.6919 90.7623 98.5258C90.3193 98.948 89.8658 99.3491 89.4122 99.7502C89.3173 99.8347 89.2118 99.9297 89.1064 100.014C89.0853 100.32 89.2224 100.637 89.4966 100.795C89.9607 101.154 90.5092 100.827 90.8573 100.479C91.3319 100.077 92.0597 99.423 92.0808 99.4019C92.5132 99.0324 93.0195 98.568 93.5153 98.1247C93.8844 97.8291 94.2431 97.5335 94.5806 97.2063C94.6333 97.1535 94.6861 97.1008 94.7388 97.048C95.0974 96.7313 95.3927 96.4991 95.551 96.3935C96.0572 95.9924 96.458 95.4858 96.8905 95.0108C97.7132 94.1558 98.5887 93.3641 99.4114 92.5091C99.5907 92.3613 99.77 92.2241 99.9599 92.0974C100.297 91.9074 100.139 91.8969 100.93 91.6752C101.11 91.6435 101.363 91.6435 101.458 91.6435C102.417 91.7174 102.544 91.8019 103.103 91.9708C103.799 92.203 104.485 92.488 105.128 92.8469C105.487 93.0263 105.856 92.9524 106.141 92.7519C106.573 92.8047 107.037 92.6358 107.269 92.2347C107.776 91.5485 107.269 90.6935 106.573 90.398C106.204 90.1658 105.835 89.9441 105.466 89.733C105.719 89.8491 105.972 89.9652 106.236 90.0813C108.746 91.2424 111.204 92.8152 114.051 92.8785C115.317 92.963 116.541 92.5724 117.785 92.393C118.503 92.3508 118.988 91.4852 118.619 90.873C118.376 90.2924 117.69 90.2397 117.152 90.3558C115.486 90.5352 114.98 90.6513 113.83 90.4613C111.404 90.0919 109.78 89.1313 107.164 87.7591C103.177 85.6585 99.1688 83.558 94.9076 82.0485C90.8678 80.5813 86.6171 79.853 82.4825 78.7235C81.0902 78.3541 79.6979 77.953 78.2634 77.7841C76.5969 77.5941 74.9198 77.4991 73.2744 77.1297C69.5405 76.5597 65.7434 76.2641 61.9674 76.4224C60.3325 76.5913 58.6343 76.433 57.0838 77.0663C56.2505 77.3935 55.2802 77.9952 55.8708 78.9874L55.8497 78.9558ZM98.8102 87.4002C98.884 87.358 98.9473 87.3158 99.0211 87.2841L98.6941 87.1574C98.7469 87.2313 98.7785 87.3158 98.8102 87.4002Z" fill="black"/>
</g>
<path d="M83.4424 105.26C83.0838 104.627 83.0522 105.228 82.8412 104.532C82.6408 103.835 82.6092 103.064 82.8939 102.389C83.1787 101.724 83.8327 101.186 84.5499 101.154C85.4359 101.122 86.1743 101.819 86.7755 102.473C87.8091 103.592 88.7901 104.774 89.5284 106.104C89.8026 106.601 90.0241 107.266 89.6444 107.688C89.444 107.909 89.1276 107.983 88.8217 107.994C87.9568 108.036 87.0814 107.667 86.5118 107.023C86.2586 106.738 86.0688 106.411 85.7945 106.147C85.5203 105.883 85.1089 105.545 84.9718 105.197C84.6027 104.183 84.6027 103.497 83.4319 105.26H83.4424Z" fill="white"/>
<path d="M85.6034 102.357C85.2448 101.724 84.8756 101.09 84.6752 100.383C84.4748 99.6865 84.4431 98.916 84.7279 98.2404C85.0127 97.5754 85.6667 97.0371 86.3839 97.0054C87.2699 96.9738 88.0082 97.6704 88.6095 98.3249C89.6431 99.4438 90.624 100.626 91.3624 101.956C91.6366 102.452 91.8581 103.117 91.4784 103.539C91.278 103.761 90.9616 103.835 90.6557 103.845C89.7908 103.888 88.9997 104.152 88.4196 103.508C88.1665 103.223 85.6878 100.985 85.5928 102.357H85.6034Z" fill="white"/>
<path d="M87.5858 98.9372C87.2272 98.3038 86.858 97.6705 86.6576 96.9633C86.4572 96.2666 86.4256 95.4961 86.7104 94.8205C86.9951 94.1555 87.6491 93.6172 88.3663 93.5855C89.2523 93.5538 89.9907 94.2505 90.5919 94.905C91.6255 96.0238 92.6065 97.2061 93.3448 98.5361C93.619 99.0322 93.8405 99.6972 93.4608 100.119C93.2604 100.341 92.944 101.133 92.6381 101.143C91.7732 101.186 90.8978 100.098 90.3282 99.4544C90.075 99.1694 87.6807 97.565 87.5858 98.9266V98.9372Z" fill="white"/>
<path d="M88.3771 93.5959C87.6493 93.5959 88.356 90.9464 88.6513 90.2814C88.9361 89.6164 89.5901 89.0781 90.3073 89.0465C91.1933 89.0148 91.9316 89.7115 92.5328 90.3659C93.5665 91.4848 94.5474 92.667 95.2858 93.997C95.56 94.4931 95.7815 95.1581 95.4018 95.5803C95.2014 95.802 95.771 98.6626 95.4651 98.6731C94.6002 98.7153 93.5454 98.3565 92.9653 97.7126C92.7122 97.4276 90.3073 93.5959 88.3771 93.5959Z" fill="white"/>
<path d="M97.408 96.731C96.2478 95.2638 93.5581 92.0655 95.0875 91.2105C95.868 90.7777 97.735 91.7066 98.3362 92.3716C99.3698 93.4905 101.458 94.546 102.197 95.876C102.471 96.3721 103.526 99.2116 103.146 99.6232C102.945 99.8449 103.135 102.515 102.829 102.537C101.965 102.579 98.4206 103.56 97.851 102.917C97.5978 102.632 99.8445 99.8238 97.3974 96.7416L97.408 96.731Z" fill="white"/>
<path d="M88.8215 108.743C87.1444 108.743 85.4884 106.252 84.5813 104.88C84.4969 104.753 84.4126 104.627 84.3493 104.532C84.2227 104.352 84.2754 104.109 84.4547 103.983C84.6341 103.856 84.8767 103.909 85.0032 104.088C85.0771 104.194 85.1509 104.31 85.2458 104.447C85.9841 105.566 87.7245 108.184 88.9902 107.941C89.4227 107.857 89.5282 107.677 89.5703 107.55C89.8446 106.759 88.6211 104.753 87.2604 103.18C86.5326 102.336 85.731 101.502 84.7079 101.386C83.8957 101.291 83.2629 101.945 83.073 102.621C82.8304 103.465 83.3051 104.426 83.7164 105.27L83.7481 105.334C83.843 105.534 83.7586 105.767 83.5688 105.862C83.3683 105.957 83.1363 105.872 83.0414 105.682L83.0097 105.619C82.5562 104.69 81.9866 103.539 82.3136 102.399C82.6511 101.228 83.6953 100.468 84.8028 100.594C86.1107 100.753 87.0706 101.745 87.8616 102.663C88.5683 103.487 90.8466 106.284 90.3192 107.814C90.2032 108.152 89.9079 108.574 89.1379 108.722C89.0324 108.743 88.9375 108.754 88.832 108.754L88.8215 108.743Z" fill="black"/>
<path d="M93.2091 103.297C93.1142 103.297 93.0192 103.297 92.9243 103.265C92.186 103.128 91.3316 102.463 91.0574 101.829C90.973 101.629 91.0574 101.397 91.2683 101.312C91.4687 101.228 91.7008 101.312 91.7852 101.523C91.9328 101.872 92.5551 102.389 93.072 102.484C93.1563 102.505 93.3146 102.516 93.3884 102.442C93.5888 102.22 93.9052 100.679 93.1247 98.9056C92.2703 96.9845 90.6355 94.7573 89.1588 94.2189C88.3677 93.9339 87.7454 93.9656 87.3024 94.3245C86.7118 94.7995 86.4375 95.8867 86.5957 97.1745C86.6274 97.3961 86.4692 97.5861 86.2477 97.6178C86.0367 97.6495 85.8363 97.4911 85.8047 97.2695C85.6043 95.6967 85.984 94.3667 86.7961 93.7017C87.2602 93.3322 88.0935 92.9945 89.4225 93.48C91.1839 94.1239 92.9559 96.5834 93.8419 98.5889C94.7596 100.668 94.4115 102.537 93.9474 103.001C93.7576 103.191 93.5044 103.286 93.1985 103.286L93.2091 103.297Z" fill="black"/>
<path d="M90.8449 107.033C90.2647 107.033 89.7057 106.812 89.5159 106.643C89.3471 106.495 89.3365 106.252 89.4842 106.083C89.6319 105.914 89.8745 105.904 90.0432 106.052C90.1909 106.168 91.0664 106.41 91.4144 106.052C91.6254 105.84 91.7309 105.503 91.7625 105.017C91.8152 104.046 91.5726 102.969 91.0136 101.713C90.2753 100.045 89.1467 98.7366 87.765 97.9133C87.2165 97.586 86.0562 97.4171 85.2757 97.9344C84.5796 98.3988 84.3159 99.3594 84.4952 100.71C84.5268 100.932 84.3686 101.122 84.1577 101.154C83.9362 101.185 83.7463 101.027 83.7147 100.816C83.4193 98.6944 84.1682 97.7127 84.8433 97.2694C85.9508 96.5305 87.4591 96.8049 88.1763 97.2272C89.7057 98.1349 90.9398 99.5705 91.7414 101.386C92.3532 102.758 92.6169 103.962 92.5536 105.059C92.5114 105.756 92.3215 106.263 91.9735 106.611C91.6676 106.917 91.2562 107.033 90.8449 107.033Z" fill="black"/>
<path d="M98.3339 118.908C98.1229 118.908 97.9436 118.739 97.9436 118.528C97.7643 114.232 99.1038 111.488 100.401 108.838C101.076 107.445 101.72 106.126 102.12 104.627L102.236 104.183C102.848 101.872 103.481 99.4756 102.627 97.375C102.068 96.0028 100.939 94.9473 99.7367 93.9023L99.5679 93.7545C98.8612 93.1317 97.8803 92.2873 97.1103 91.8756C96.1716 91.3795 95.6231 91.3267 95.4333 91.4428C95.3489 91.4956 95.3067 91.6117 95.3067 91.8017C95.3067 93.5961 95.7075 94.0606 96.6779 95.1795C96.8994 95.4328 97.1525 95.7284 97.4268 96.0767C99.0616 98.1034 99.2515 101.354 97.8698 103.814C97.7643 104.004 97.5217 104.067 97.3318 103.962C97.142 103.856 97.0787 103.613 97.1842 103.423C98.4077 101.238 98.26 98.3567 96.815 96.5728C96.5408 96.235 96.2982 95.95 96.0767 95.6967C95.0746 94.5356 94.5156 93.8917 94.5156 91.8017C94.5156 91.2 94.7899 90.9045 95.0219 90.7673C95.5493 90.4506 96.372 90.5878 97.4795 91.1789C98.3339 91.6328 99.3464 92.5195 100.085 93.1634L100.254 93.3111C101.477 94.3773 102.732 95.5489 103.355 97.0795C104.314 99.4228 103.618 102.062 102.996 104.384L102.88 104.827C102.469 106.4 101.804 107.751 101.108 109.176C99.8527 111.741 98.5659 114.391 98.7347 118.486C98.7347 118.708 98.5765 118.887 98.355 118.898H98.3339V118.908Z" fill="black"/>
<path d="M94.7506 100.014C94.5818 100.014 94.392 99.9928 94.1916 99.9189C93.7064 99.7395 93.3267 99.3489 93.0419 98.7367C92.947 98.5361 93.0419 98.3039 93.2317 98.2089C93.4321 98.1139 93.6642 98.2089 93.7591 98.3989C93.949 98.8106 94.181 99.0639 94.4553 99.1694C94.7717 99.2856 95.067 99.1695 95.183 99.1167C95.9741 98.7472 95.7526 97.375 95.51 96.615L95.3729 96.1928C94.8772 94.6939 94.3603 93.1528 93.506 91.8544C92.8098 90.7989 90.9746 89.0361 89.6561 89.5322C88.5802 89.9333 88.5697 91.2 88.6646 92.6989C88.6857 93.0789 88.7068 93.3956 88.6963 93.67C88.6857 93.8917 88.4959 94.05 88.2744 94.0394C88.0529 94.0289 87.8946 93.8389 87.9052 93.6172C87.9157 93.3956 87.9052 93.0789 87.8736 92.7411C87.7892 91.4217 87.6521 89.4267 89.3713 88.7828C91.1644 88.1178 93.2634 90.0389 94.1599 91.4217C95.067 92.815 95.605 94.4089 96.1112 95.95L96.2484 96.3722C96.6597 97.6178 96.723 99.2645 95.51 99.8345C95.3729 99.8978 95.0881 100.014 94.7295 100.014H94.7506Z" fill="black"/>
<path d="M78.4512 35.4138C78.4512 32.1733 81.0775 29.5449 84.3156 29.5449C87.5538 29.5449 90.1801 32.1733 90.1801 35.4138C90.1801 38.6544 87.5538 41.2827 84.3156 41.2827C81.0775 41.2827 78.4512 38.6544 78.4512 35.4138Z" fill="white"/>
</g>
<g clip-path="url(#clip0_3615_26724)">
<path d="M133.274 65.3939C144.253 65.2496 155.232 65.1053 166.201 64.961C169.697 64.9166 173.35 64.8278 176.425 63.1626C179.622 61.4197 181.842 57.8894 181.753 54.2593C181.665 50.6181 179.1 47.099 175.581 46.1443C172.062 45.1895 167.932 47.099 166.6 50.4849C166.778 44.2015 161.227 38.2068 154.933 38.2512C148.638 38.2956 143.088 44.7344 144.298 50.9067C143.221 48.0426 139.779 46.5217 136.76 47.0324C133.74 47.5319 131.198 49.6856 129.5 52.2389C128.09 54.3592 127.146 56.9236 127.479 59.4658C127.812 62.008 129.533 65.4494 133.274 65.3939Z" fill="white"/>
<path d="M133.187 65.8156C129.002 65.8156 127.37 61.8746 127.059 59.5211C126.66 56.5016 127.981 53.7595 129.157 51.9944C131.122 49.0415 133.864 47.0877 136.695 46.6103C139.382 46.1552 142.146 47.2098 143.722 49.097C143.744 46.6991 144.655 44.2457 146.353 42.1809C148.562 39.4722 151.771 37.8514 154.935 37.8292C157.954 37.8181 161.007 39.1613 163.327 41.5259C165.37 43.613 166.646 46.2551 166.946 48.9416C168.778 46.2884 172.452 44.8563 175.683 45.7333C179.28 46.7102 182.066 50.3625 182.166 54.2369C182.266 57.9336 180.035 61.6637 176.615 63.5176C173.385 65.2716 169.566 65.3271 166.202 65.3715L133.276 65.8045H133.187V65.8156ZM137.927 47.343C137.561 47.343 137.195 47.3763 136.839 47.4318C134.242 47.8648 131.688 49.6965 129.857 52.4496C128.758 54.0926 127.525 56.6459 127.892 59.4101C128.169 61.4861 129.59 64.983 133.198 64.983H133.276L166.202 64.5389C169.466 64.4945 173.174 64.4501 176.227 62.7849C179.369 61.0753 181.422 57.645 181.333 54.2591C181.245 50.74 178.725 47.4207 175.472 46.5437C172.108 45.6334 168.212 47.4984 166.991 50.6401C166.913 50.8288 166.713 50.9398 166.524 50.8954C166.325 50.851 166.191 50.6734 166.191 50.4736C166.269 47.4873 165.015 44.4455 162.739 42.1143C160.574 39.9051 157.743 38.6396 154.946 38.6618C152.026 38.684 149.051 40.1937 146.997 42.7026C145.01 45.1338 144.177 48.0868 144.721 50.8177C144.766 51.0286 144.633 51.2396 144.422 51.2951C144.211 51.3506 143.989 51.2396 143.922 51.0397C143.001 48.5863 140.347 47.343 137.927 47.343Z" fill="black"/>
<g opacity="0.13">
<path opacity="0.13" d="M179.046 58.1891C178.746 58.2557 178.546 58.4888 178.324 58.6776C178.058 58.8774 177.769 59.0439 177.492 59.2104C176.848 59.6323 176.204 60.0652 175.516 60.4094C175.449 60.4427 175.405 60.4649 175.382 60.476C173.95 60.8534 172.563 61.4862 171.075 61.6971C170.054 61.8192 166.535 61.7193 164.492 61.7859C160.118 61.8747 155.733 61.8858 151.359 62.0191C147.896 61.9413 144.443 62.2189 141.013 62.6851C136.606 63.0293 135.14 63.218 131.887 61.8525L132.032 61.9191C131.299 61.6527 130.666 61.1087 129.9 60.9533C128.468 60.698 127.758 62.7517 129.034 63.4733C130.777 64.3836 132.62 65.2162 134.552 65.5937C139.003 66.3153 143.444 64.9942 147.918 65.1274C149.483 65.0941 151.048 65.2162 152.614 65.1718C154.723 65.0941 156.832 64.9387 158.952 64.9054C162.105 64.8388 165.391 64.6279 167.722 64.3503C167.689 65.0275 168.3 65.7269 169.088 65.5493C171.619 65.2939 174.095 64.5057 176.337 63.2957C176.848 63.0293 177.358 62.7406 177.858 62.452C178.147 62.2633 178.502 62.1634 178.702 61.8636C178.901 61.6194 178.979 61.353 178.957 61.0865C179.301 60.8534 179.634 60.6203 179.956 60.3428C180.278 60.0763 180.544 59.7211 180.533 59.2881C180.544 58.5443 179.778 57.9671 179.068 58.1669L179.046 58.1891Z" fill="black"/>
</g>
</g>
<g clip-path="url(#clip1_3615_26724)">
<path d="M11.2464 129.581C19.7667 129.471 28.2869 129.36 36.7986 129.25C39.5123 129.216 42.3467 129.148 44.7331 127.874C47.2142 126.541 48.9372 123.84 48.8683 121.062C48.7994 118.276 46.8093 115.584 44.0783 114.853C41.3473 114.123 38.1426 115.584 37.1087 118.174C37.2466 113.367 32.9391 108.78 28.0543 108.814C23.1696 108.848 18.8621 113.774 19.8011 118.497C18.9655 116.306 16.2948 115.142 13.9515 115.533C11.6082 115.915 9.63536 117.563 8.31726 119.516C7.22315 121.139 6.49087 123.101 6.74932 125.046C7.00777 126.991 8.34311 129.624 11.2464 129.581Z" fill="white"/>
<path d="M11.1773 129.904C7.9294 129.904 6.66299 126.889 6.42177 125.088C6.11163 122.778 7.13682 120.68 8.05002 119.329C9.57488 117.07 11.7028 115.575 13.8996 115.21C15.9845 114.862 18.1296 115.668 19.353 117.112C19.3702 115.278 20.0766 113.401 21.3947 111.821C23.1091 109.748 25.5989 108.508 28.0542 108.491C30.3974 108.483 32.7666 109.511 34.5671 111.32C36.1523 112.916 37.143 114.938 37.3756 116.993C38.7971 114.963 41.6487 113.868 44.1557 114.539C46.947 115.286 49.1093 118.081 49.1869 121.045C49.2644 123.873 47.5328 126.727 44.8793 128.146C42.3724 129.488 39.4088 129.53 36.7984 129.564L11.2462 129.895H11.1773V129.904ZM14.8559 115.77C14.5716 115.77 14.2873 115.796 14.0116 115.838C11.9957 116.17 10.0142 117.571 8.59276 119.678C7.73987 120.935 6.7836 122.888 7.0679 125.003C7.28328 126.591 8.386 129.267 11.1859 129.267H11.2462L36.7984 128.927C39.3313 128.893 42.2087 128.859 44.5778 127.585C47.0159 126.277 48.6097 123.653 48.5407 121.062C48.4718 118.369 46.5162 115.83 43.992 115.159C41.3816 114.462 38.3578 115.889 37.4101 118.293C37.3498 118.437 37.1947 118.522 37.0483 118.488C36.8932 118.454 36.7898 118.319 36.7898 118.166C36.8501 115.881 35.8766 113.554 34.1105 111.77C32.4306 110.08 30.2338 109.111 28.0628 109.128C25.797 109.145 23.4882 110.3 21.8944 112.22C20.3523 114.08 19.7062 116.339 20.1283 118.429C20.1628 118.59 20.0594 118.752 19.8957 118.794C19.732 118.837 19.5597 118.752 19.508 118.599C18.793 116.722 16.734 115.77 14.8559 115.77Z" fill="black"/>
<g opacity="0.13">
<path opacity="0.13" d="M46.7665 124.069C46.5339 124.12 46.3788 124.298 46.2065 124.443C45.9998 124.596 45.7758 124.723 45.5604 124.85C45.0607 125.173 44.5611 125.504 44.0269 125.768C43.9752 125.793 43.9408 125.81 43.9236 125.819C42.8122 126.108 41.7353 126.592 40.5809 126.753C39.7883 126.846 37.0574 126.77 35.4722 126.821C32.0779 126.889 28.6749 126.897 25.2806 126.999C22.5927 126.94 19.9134 127.152 17.2514 127.509C13.8312 127.772 12.694 127.917 10.1698 126.872L10.2818 126.923C9.7132 126.719 9.22215 126.303 8.62771 126.184C7.51637 125.989 6.965 127.56 7.95574 128.112C9.3083 128.809 10.7384 129.446 12.2374 129.734C15.692 130.286 19.1381 129.276 22.6099 129.378C23.8246 129.352 25.0394 129.446 26.2541 129.412C27.891 129.352 29.5278 129.233 31.1733 129.208C33.62 129.157 36.17 128.995 37.9792 128.783C37.9533 129.301 38.4272 129.836 39.0388 129.7C41.0031 129.505 42.9242 128.902 44.6644 127.976C45.0607 127.772 45.457 127.551 45.8447 127.331C46.0687 127.186 46.3444 127.11 46.4995 126.88C46.6545 126.694 46.7148 126.49 46.6976 126.286C46.9647 126.108 47.2231 125.929 47.473 125.717C47.7228 125.513 47.9296 125.241 47.9209 124.91C47.9296 124.341 47.3351 123.899 46.7837 124.052L46.7665 124.069Z" fill="black"/>
</g>
</g>
<defs>
<clipPath id="clip0_3615_26724">
<rect width="55.1846" height="27.9864" fill="white" transform="translate(126.994 37.8291)"/>
</clipPath>
<clipPath id="clip1_3615_26724">
<rect width="42.8254" height="21.4127" fill="white" transform="translate(6.37109 108.491)"/>
</clipPath>
</defs>
</svg>
