<svg width="14" height="14" viewBox="0 0 14 14" fill="none" xmlns="http://www.w3.org/2000/svg">
<g clip-path="url(#clip0_601_594)">
<path d="M2.91667 12.25H11.0833M6.74446 1.90512C6.76964 1.85939 6.80663 1.82126 6.85157 1.7947C6.89651 1.76814 6.94776 1.75413 6.99996 1.75413C7.05217 1.75413 7.10341 1.76814 7.14835 1.7947C7.19329 1.82126 7.23028 1.85939 7.25546 1.90512L8.97746 5.17412C9.01853 5.24982 9.07584 5.31548 9.14529 5.3664C9.21474 5.41732 9.2946 5.45223 9.37915 5.46862C9.46369 5.48502 9.55081 5.48249 9.63426 5.46123C9.71771 5.43996 9.79541 5.40048 9.8618 5.34562L12.3567 3.20829C12.4046 3.16934 12.4636 3.14658 12.5253 3.14331C12.5869 3.14003 12.648 3.1564 12.6998 3.19006C12.7515 3.22372 12.7913 3.27293 12.8133 3.33061C12.8353 3.38829 12.8384 3.45147 12.8222 3.51104L11.169 9.48787C11.1353 9.61018 11.0626 9.71815 10.962 9.79541C10.8613 9.87268 10.7382 9.91503 10.6114 9.91604H3.38913C3.26216 9.91515 3.13894 9.87286 3.03819 9.79559C2.93744 9.71831 2.86465 9.61027 2.83088 9.48787L1.1783 3.51162C1.16211 3.45205 1.16524 3.38887 1.18724 3.33119C1.20925 3.27351 1.24899 3.2243 1.30074 3.19064C1.35249 3.15698 1.41359 3.14061 1.47524 3.14389C1.53688 3.14717 1.5959 3.16992 1.6438 3.20887L4.13813 5.34621C4.20451 5.40106 4.28222 5.44054 4.36567 5.46181C4.44912 5.48308 4.53624 5.4856 4.62078 5.46921C4.70532 5.45281 4.78518 5.4179 4.85463 5.36698C4.92408 5.31607 4.9814 5.2504 5.02246 5.17471L6.74446 1.90512Z" stroke="url(#paint0_linear_601_594)" stroke-width="2" stroke-linecap="round" stroke-linejoin="round"/>
</g>
<defs>
<linearGradient id="paint0_linear_601_594" x1="7.00025" y1="1.75413" x2="7.00025" y2="12.25" gradientUnits="userSpaceOnUse">
<stop stop-color="#010109"/>
<stop offset="0.504808" stop-color="#020E21"/>
</linearGradient>
<clipPath id="clip0_601_594">
<rect width="14" height="14" fill="white"/>
</clipPath>
</defs>
</svg>
