<svg width="32" height="32" viewBox="0 0 32 32" fill="none" xmlns="http://www.w3.org/2000/svg">
<rect width="32" height="32" rx="4" fill="#EDA51E" fill-opacity="0.17"/>
<path d="M23.03 23.1234L8 8.09344" stroke="#EDA51E" stroke-width="2" stroke-linecap="round" stroke-linejoin="round"/>
<path d="M19.63 15.0034C19.13 14.5034 18.81 13.8834 18.68 13.2334C18.6 12.8334 18.29 12.5234 17.89 12.4434C17.24 12.3134 16.62 11.9934 16.12 11.4934C15.59 10.9634 15.27 10.3134 15.15 9.63344C15.05 9.05344 14.48 8.68344 13.91 8.82344C10.91 9.57344 8.68 12.2934 8.68 15.5234C8.68 19.3434 11.77 22.4334 15.59 22.4334C18.83 22.4334 21.54 20.2134 22.29 17.2034C22.43 16.6334 22.06 16.0634 21.48 15.9634C20.8 15.8434 20.14 15.5234 19.62 14.9934L19.63 15.0034Z" stroke="#EDA51E" stroke-width="2" stroke-linecap="round" stroke-linejoin="round"/>
<path d="M19.01 9.06344C19.5457 9.06344 19.98 8.62916 19.98 8.09344C19.98 7.55773 19.5457 7.12344 19.01 7.12344C18.4743 7.12344 18.04 7.55773 18.04 8.09344C18.04 8.62916 18.4743 9.06344 19.01 9.06344Z" fill="#EDA51E"/>
<path d="M22.38 9.06344C22.9157 9.06344 23.35 8.62916 23.35 8.09344C23.35 7.55773 22.9157 7.12344 22.38 7.12344C21.8443 7.12344 21.41 7.55773 21.41 8.09344C21.41 8.62916 21.8443 9.06344 22.38 9.06344Z" fill="#EDA51E"/>
<path d="M22.38 12.4334C22.9157 12.4334 23.35 11.9992 23.35 11.4634C23.35 10.9277 22.9157 10.4934 22.38 10.4934C21.8443 10.4934 21.41 10.9277 21.41 11.4634C21.41 11.9992 21.8443 12.4334 22.38 12.4334Z" fill="#EDA51E"/>
</svg>
