<svg width="41" height="40" viewBox="0 0 41 40" fill="none" xmlns="http://www.w3.org/2000/svg">
<path fill-rule="evenodd" clip-rule="evenodd" d="M12.2157 0L0.5 11.7157V28.2843L12.2157 40H28.7839L40.5 28.2843V11.7157L28.7839 0H12.2157Z" fill="#D8D9D9"/>
<path fill-rule="evenodd" clip-rule="evenodd" d="M12.3253 0.26416L0.764038 11.825V28.1749L12.3253 39.7358H28.6752L40.2361 28.1749V11.825L28.6752 0.26416H12.3253Z" fill="white"/>
<path fill-rule="evenodd" clip-rule="evenodd" d="M13.0877 37.8948L2.60498 27.412V12.5877L13.0877 2.10498H27.9125L38.3948 12.5877V27.412L27.9125 37.8948H13.0877Z" fill="#ED1E45"/>
<path fill-rule="evenodd" clip-rule="evenodd" d="M10.7237 21.0084L10.4436 19.7187C10.2691 19.017 10.101 18.2718 9.93942 17.4834C9.7774 16.6954 9.61537 15.9357 9.45375 15.205H9.37919C9.22966 15.9502 9.07691 16.7132 8.92174 17.4943C8.76576 18.2754 8.60092 19.017 8.4268 19.7187L8.12774 21.0084H10.7237ZM11.2841 23.4803H7.56764L6.8208 26.8118H4.01965L7.82922 12.7976H11.1346L14.9445 26.8118H12.0309L11.2841 23.4803Z" fill="white"/>
<path fill-rule="evenodd" clip-rule="evenodd" d="M20.939 24.3616C22.4452 24.3616 23.1985 23.7239 23.1985 22.4487C23.1985 21.8325 23.0119 21.3847 22.6383 21.1054C22.2647 20.8257 21.698 20.6862 20.939 20.6862H19.3889V24.3616H20.939ZM20.6775 18.4505C21.3497 18.4505 21.8382 18.297 22.1433 17.9886C22.4484 17.6807 22.6012 17.2615 22.6012 16.7311C22.6012 16.2011 22.4452 15.8215 22.1341 15.5921C21.8229 15.3628 21.3433 15.2479 20.696 15.2479H19.3889V18.4505H20.6775ZM16.6438 12.7979H20.808C21.4432 12.7979 22.0313 12.8515 22.573 12.9591C23.1147 13.0667 23.5874 13.2565 23.9925 13.5286C24.3967 13.801 24.7143 14.1593 24.9449 14.6031C25.175 15.0476 25.2903 15.6067 25.2903 16.2797C25.2903 16.5953 25.2496 16.9105 25.169 17.2257C25.0875 17.5409 24.9662 17.8347 24.8046 18.1067C24.6426 18.3792 24.431 18.6226 24.1698 18.8375C23.9082 19.0527 23.6031 19.2103 23.2545 19.3106V19.3965C24.1259 19.5827 24.7828 19.9414 25.225 20.471C25.6667 21.0014 25.8876 21.7394 25.8876 22.6849C25.8876 23.4015 25.7663 24.0178 25.5236 24.5337C25.281 25.0496 24.9449 25.476 24.5152 25.8125C24.0856 26.1495 23.5842 26.4001 23.0119 26.5646C22.4392 26.7298 21.8229 26.8121 21.1631 26.8121H16.6438V12.7979Z" fill="white"/>
<path fill-rule="evenodd" clip-rule="evenodd" d="M32.0505 19.5468C33.5446 19.5468 34.2914 18.802 34.2914 17.3115C34.2914 16.5808 34.1016 16.0649 33.7219 15.7638C33.3419 15.4628 32.7849 15.3124 32.0505 15.3124H30.5194V19.5468H32.0505ZM27.7737 12.7979H32.2184C32.8782 12.7979 33.4977 12.8728 34.0765 13.0236C34.6556 13.1739 35.1598 13.4246 35.5891 13.7756C36.0187 14.1271 36.3577 14.5926 36.6072 15.173C36.8559 15.753 36.9804 16.4659 36.9804 17.3115C36.9804 18.1281 36.8526 18.8375 36.5975 19.4392C36.3424 20.0413 35.997 20.5355 35.5613 20.9224C35.1252 21.3093 34.621 21.5963 34.0487 21.7821C33.4755 21.9687 32.8657 22.0618 32.2184 22.0618H30.5192V26.8117H27.7737V12.7979Z" fill="white"/>
</svg>
