<svg width="48" height="48" viewBox="0 0 48 48" fill="none" xmlns="http://www.w3.org/2000/svg">
<circle cx="24" cy="24" r="24" fill="#F4F4F4"/>
<path d="M24.75 14C24.75 13.5858 24.4142 13.25 24 13.25C23.5858 13.25 23.25 13.5858 23.25 14L24.75 14ZM23.4697 34.5303C23.7626 34.8232 24.2374 34.8232 24.5303 34.5303L29.3033 29.7574C29.5962 29.4645 29.5962 28.9896 29.3033 28.6967C29.0104 28.4038 28.5355 28.4038 28.2426 28.6967L24 32.9393L19.7574 28.6967C19.4645 28.4038 18.9896 28.4038 18.6967 28.6967C18.4038 28.9896 18.4038 29.4645 18.6967 29.7574L23.4697 34.5303ZM23.25 14L23.25 34L24.75 34L24.75 14L23.25 14Z" fill="black"/>
</svg>
