<svg width="45" height="60" viewBox="0 0 45 60" fill="none" xmlns="http://www.w3.org/2000/svg">
<g clip-path="url(#clip0_1195_934)">
<path d="M24.2787 60.0001C31.6974 60.0001 37.7115 57.2618 37.7115 53.8841C37.7115 50.5063 31.6974 47.7681 24.2787 47.7681C16.86 47.7681 10.8459 50.5063 10.8459 53.8841C10.8459 57.2618 16.86 60.0001 24.2787 60.0001Z" fill="#333333" fill-opacity="0.2"/>
<path d="M23.9037 51.4139C35.4087 51.4139 44.7352 42.0674 44.7352 30.5381C44.7352 19.0087 35.4087 9.66235 23.9037 9.66235C12.3988 9.66235 3.07227 19.0087 3.07227 30.5381C3.07227 42.0674 12.3988 51.4139 23.9037 51.4139Z" fill="#37BCEA"/>
<mask id="mask0_1195_934" style="mask-type:alpha" maskUnits="userSpaceOnUse" x="3" y="9" width="42" height="43">
<path d="M23.9037 51.4139C35.4087 51.4139 44.7352 42.0674 44.7352 30.5381C44.7352 19.0087 35.4087 9.66235 23.9037 9.66235C12.3988 9.66235 3.07227 19.0087 3.07227 30.5381C3.07227 42.0674 12.3988 51.4139 23.9037 51.4139Z" fill="#4ECDF9"/>
</mask>
<g mask="url(#mask0_1195_934)">
<path d="M29.8002 44.3558C41.3052 44.3558 50.6317 35.0093 50.6317 23.4801C50.6317 11.9506 41.3052 2.60425 29.8002 2.60425C18.2953 2.60425 8.96875 11.9506 8.96875 23.4801C8.96875 35.0093 18.2953 44.3558 29.8002 44.3558Z" fill="#53D3FF"/>
</g>
<path d="M44.8471 30.9284C44.644 42.48 35.0745 51.7352 23.5416 51.5285C11.9861 51.2989 2.75526 41.7222 2.95837 30.1704C3.1615 18.5958 12.7309 9.36361 24.2864 9.5703C35.8194 9.77698 45.0503 19.3537 44.8471 30.9284ZM3.18407 30.1704C2.98094 41.6072 12.1215 51.0921 23.5416 51.2989C34.9618 51.5056 44.4408 42.3652 44.644 30.9054C44.8471 19.4685 35.7066 9.98369 24.2864 9.77698C12.8438 9.59326 3.38718 18.7335 3.18407 30.1704Z" fill="#4ECDF9"/>
<path d="M24.5346 9.68552C24.2187 10.2596 23.7898 10.719 23.1804 10.8797C21.8037 11.2472 20.6978 10.7419 20.0207 10.03C15.1683 10.9716 10.8575 13.5897 7.81067 17.3101C8.8263 17.1493 9.95476 17.2182 10.9929 17.8842C10.9929 17.8842 9.11971 18.068 9.18741 19.5148C9.27769 20.9617 10.9027 19.5378 11.67 20.6861C12.46 21.8343 13.8141 20.3415 12.8662 19.5378C11.9183 18.7109 13.0016 17.5627 13.8593 18.1139C14.6943 18.665 14.8523 19.7444 14.3558 20.8468C13.8593 21.9491 15.7325 21.7194 16.1839 22.753C16.6579 23.7865 16.1388 24.7968 16.1388 24.7968L17.6058 23.6715C17.9894 23.373 18.5086 23.4189 18.847 23.7635L19.2081 24.1539C19.2081 24.1539 18.328 24.3835 18.2603 25.0494C18.1926 25.7156 19.7272 25.4859 19.7724 26.3815C19.8176 27.3002 21.1492 27.415 21.2846 26.1978C21.42 24.9576 22.0744 24.8198 22.0744 24.8198C22.0744 24.8198 21.9165 23.5796 20.6752 23.5567C19.4339 23.5337 19.8176 22.2478 19.8176 22.2478C19.8176 22.2478 18.7794 22.0409 19.1405 20.9846C19.5016 19.9281 17.4704 18.7339 19.9981 17.8383C22.5259 16.9426 21.6231 15.8403 21.6231 15.8403L20.4044 15.4958C20.4044 15.4958 22.3228 14.9676 22.3002 13.7963C22.3002 12.6251 24.3992 11.9361 24.8505 13.8423C25.3018 15.7484 24.1735 16.2996 24.1735 16.2996C24.1735 16.2996 25.5728 16.2077 25.5502 17.0115C25.5276 17.8153 24.3992 18.2976 24.3992 18.2976C24.3992 18.2976 24.5346 19.8822 23.7898 20.02C23.045 20.1578 23.1354 19.3081 23.1354 19.3081C23.1354 19.3081 21.8037 19.2393 22.1196 20.1807C22.4581 21.1224 22.0744 23.0285 22.0744 23.0285C22.0744 23.0285 23.3159 23.7174 23.1128 24.8657C22.9096 26.0141 22.5033 27.2313 23.9704 27.9661C25.4374 28.6781 25.3244 29.9411 25.3244 29.9411L26.7915 31.5946C26.7915 31.5946 26.3176 32.5593 27.085 32.8807C27.8748 33.2252 28.0328 32.0081 30.0415 32.7659C32.0502 33.5239 32.7046 33.2481 32.9981 32.8578C32.9981 32.8578 34.6231 33.3861 35.3454 31.365C35.3454 31.365 36.7446 30.2857 35.887 28.4024C35.887 28.4024 36.8348 27.3461 36.2255 26.1289C35.6387 24.9117 36.4061 23.7406 37.0831 23.7174C37.0831 23.7174 36.8122 22.4544 37.8279 22.5233C38.8435 22.5922 38.5954 23.6715 38.5954 23.6715C38.5954 23.6715 40.0172 22.1559 41.6422 23.1893C41.6422 23.1893 41.5066 25.1183 42.6126 25.0035C43.1091 24.9576 43.6733 25.1872 44.1474 25.44C41.9129 16.5982 34.0363 9.96109 24.5346 9.68552Z" fill="#10B501"/>
<path d="M44.3063 25.6462L44.0806 25.5314C43.4937 25.2099 42.9973 25.0492 42.6135 25.0951C42.3428 25.1181 42.1397 25.0492 41.9591 24.8884C41.5076 24.4519 41.5076 23.5105 41.5302 23.2349C40.0182 22.3162 38.7317 23.6712 38.6865 23.7401L38.4158 24.0156L38.4834 23.6482C38.4834 23.6482 38.5737 23.166 38.348 22.8673C38.2352 22.7295 38.0547 22.6377 37.8063 22.6147C37.5806 22.5918 37.4226 22.6606 37.3098 22.7755C37.0615 23.0742 37.1743 23.6712 37.1743 23.6712L37.1969 23.786H37.0615C36.8132 23.786 36.5198 23.9927 36.3393 24.3142C36.046 24.8195 36.0234 25.4625 36.3167 26.0366C36.8584 27.1619 36.1813 28.1495 36.0008 28.3792C36.7682 30.1245 35.6171 31.2269 35.4139 31.3877C34.7595 33.2019 33.3602 33.0182 33.0217 32.9494C32.5476 33.4775 31.6223 33.4545 29.9747 32.8345C28.7785 32.3981 28.2821 32.6508 27.8758 32.8575C27.605 32.9953 27.3567 33.1101 26.9956 32.9723C26.7698 32.8805 26.6119 32.7197 26.5443 32.5129C26.4087 32.1684 26.5443 31.7551 26.6119 31.5943L25.1674 29.9638V29.9179C25.1674 29.8719 25.2352 28.7236 23.881 28.0347C22.4817 27.3456 22.7074 26.1745 22.9106 25.1181C22.9332 25.0262 22.9556 24.9114 22.9782 24.8195C23.1587 23.7631 22.0078 23.0971 21.9852 23.0971L21.9174 23.0512L21.94 22.9823C21.94 22.9593 22.3011 21.099 21.9852 20.2034C21.8948 19.9279 21.9174 19.7212 22.0304 19.5373C22.3237 19.1469 23.046 19.1929 23.0911 19.1929H23.2039L23.1813 19.3077C23.1813 19.3077 23.1361 19.6751 23.3167 19.836C23.4071 19.9049 23.5424 19.9279 23.7004 19.9049C24.2421 19.7901 24.2647 18.7106 24.2421 18.2972V18.2284L24.3098 18.2054C24.3098 18.2054 25.3706 17.7231 25.3932 17.0112C25.3932 16.8734 25.348 16.7586 25.2578 16.6667C24.9193 16.3452 24.1293 16.3911 24.1293 16.3911L23.6328 16.4141L24.0841 16.1844C24.1293 16.1614 25.0998 15.6332 24.6936 13.8189C24.513 13.0611 24.0389 12.6477 23.3845 12.7166C22.8654 12.7855 22.3463 13.1759 22.3463 13.7501V13.773C22.3237 14.6916 21.263 15.2199 20.6987 15.4495L21.6241 15.7021L21.6467 15.7251C21.6693 15.7481 21.9174 16.0696 21.8047 16.5289C21.6467 17.0571 21.0373 17.5164 19.9991 17.9068C19.3447 18.1365 18.9835 18.3891 18.848 18.6877C18.7126 19.0092 18.848 19.3766 19.0285 19.7671C19.1865 20.1575 19.3671 20.5708 19.2317 20.9842C19.1415 21.2827 19.1415 21.5355 19.2543 21.7192C19.4348 22.0406 19.8185 22.1095 19.8411 22.1095L19.9539 22.1325L19.9313 22.2473C19.9313 22.2473 19.7734 22.7984 20.0217 23.1431C20.1571 23.3268 20.3828 23.4186 20.6761 23.4186C21.9852 23.4416 22.211 24.7506 22.211 24.7736L22.2334 24.8655L22.1432 24.8884C22.1206 24.8884 21.5337 25.0492 21.421 26.1745C21.3532 26.8864 20.9019 27.1849 20.4956 27.1619C20.1119 27.139 19.7282 26.8634 19.7058 26.3582C19.6832 25.9447 19.3221 25.8069 18.9158 25.6692C18.5547 25.5314 18.171 25.3936 18.2161 25.0032C18.2613 24.4519 18.803 24.1764 19.0737 24.0616L18.8254 23.809C18.5321 23.5105 18.0581 23.4645 17.7422 23.7171L15.914 25.1181L16.1172 24.7047C16.1172 24.7047 16.5911 23.7171 16.1623 22.7525C15.9817 22.3392 15.5303 22.1555 15.1015 21.9718C14.7404 21.811 14.3793 21.6503 14.2665 21.3518C14.1988 21.1908 14.2213 20.9842 14.3116 20.7545C14.8081 19.6521 14.6276 18.6418 13.8602 18.1365C13.4765 17.8839 13.0252 18.0446 12.822 18.3432C12.6189 18.6188 12.5738 19.0321 13.0026 19.3995C13.3185 19.6751 13.4314 20.0427 13.3185 20.4101C13.2057 20.7775 12.8897 21.099 12.5286 21.1449C12.3255 21.1679 11.9644 21.1679 11.6259 20.6856C11.2873 20.2034 10.7908 20.2264 10.2943 20.2494C9.93316 20.2723 9.5946 20.2953 9.36892 20.0886C9.21094 19.9508 9.14323 19.7442 9.12066 19.4455C9.05296 18.2743 10.1814 17.8839 10.7231 17.7461C9.88801 17.2868 8.91753 17.149 7.85677 17.3327L7.58594 17.3786L7.76649 17.149C10.8585 13.4285 15.2144 10.8334 20.0217 9.93776H20.0893L20.1119 9.96072C20.473 10.3511 21.5113 11.2238 23.1587 10.7645C23.6778 10.6267 24.1067 10.2363 24.4452 9.61624L24.4678 9.57031H24.5356C33.8567 9.84591 41.9591 16.3452 44.2386 25.3936L44.3063 25.6462ZM41.7334 23.3038C41.7334 23.6023 41.756 24.3831 42.0945 24.7277C42.2298 24.8425 42.3878 24.9114 42.591 24.8884C42.9747 24.8425 43.4487 24.9573 43.9678 25.2329C41.6432 16.4141 33.7213 10.0985 24.6032 9.79996C24.2421 10.443 23.7908 10.8334 23.2265 10.9942C22.0304 11.3157 20.8341 11.0171 19.9991 10.1674C15.3724 11.0401 11.1519 13.5204 8.08247 17.149C9.21094 17.0112 10.204 17.2408 11.0616 17.792L11.3325 17.9528L11.0165 17.9757C10.9488 17.9757 9.25607 18.1595 9.32379 19.4914C9.34634 19.7212 9.39149 19.8819 9.50433 19.9738C9.66233 20.1116 9.95572 20.1116 10.2717 20.0886C10.7682 20.0656 11.4002 20.0197 11.8064 20.6168C11.987 20.8923 12.2352 21.0301 12.4835 20.9842C12.7543 20.9382 13.0026 20.6856 13.0929 20.3871C13.138 20.2264 13.1606 19.8819 12.8446 19.6062C12.3029 19.124 12.3932 18.5729 12.6415 18.2513C12.9123 17.8839 13.4765 17.6772 13.9731 17.9987C14.8307 18.5729 15.0338 19.6751 14.4922 20.8694C14.4245 21.0531 14.4019 21.1908 14.447 21.3058C14.5373 21.5125 14.8307 21.6503 15.1693 21.7881C15.6206 21.9718 16.1172 22.2014 16.3428 22.6836C16.6588 23.3727 16.546 24.0616 16.4331 24.4519L17.6067 23.5564C18.0356 23.2349 18.6224 23.2808 18.9836 23.6712L19.48 24.1764L19.2995 24.2223C19.2995 24.2223 18.4869 24.429 18.4418 25.0262C18.4192 25.2558 18.6448 25.3247 19.006 25.4625C19.4123 25.6003 19.9087 25.784 19.9313 26.3353C19.9539 26.7486 20.2474 26.9323 20.5182 26.9323C20.8115 26.9323 21.1726 26.7486 21.2404 26.1286C21.3532 25.1181 21.8047 24.7966 22.0304 24.6818C21.9626 24.406 21.6917 23.6253 20.7213 23.6023C20.3376 23.6023 20.0669 23.4645 19.8863 23.2349C19.638 22.9134 19.7058 22.454 19.7282 22.2703C19.5702 22.2244 19.2769 22.0866 19.1189 21.811C18.9835 21.5584 18.961 21.2597 19.0963 20.8923C19.2091 20.5708 19.0511 20.2034 18.8932 19.836C18.7126 19.4225 18.5321 19.0092 18.7352 18.5958C18.8932 18.2283 19.3221 17.9298 20.0217 17.7001C21.2404 17.2638 21.6015 16.8045 21.6917 16.483C21.7821 16.1844 21.6467 15.9777 21.6015 15.8858L20.0443 15.4495L20.4054 15.3576C20.428 15.3576 22.211 14.8524 22.2334 13.773C22.2334 13.7501 22.2334 13.7501 22.2334 13.7271C22.256 13.0611 22.8654 12.5788 23.4523 12.5099C24.0389 12.441 24.7387 12.7396 24.9869 13.773C25.3028 15.151 24.8515 15.8629 24.5356 16.1844C24.8289 16.2074 25.2578 16.2763 25.506 16.5059C25.6415 16.6437 25.7091 16.8045 25.7091 17.0112C25.6865 17.769 24.8289 18.2513 24.5582 18.3661C24.5806 18.6877 24.5806 19.9968 23.8584 20.1345C23.6102 20.1805 23.4297 20.1345 23.2943 20.0197C23.1137 19.859 23.0911 19.5832 23.0911 19.4225C22.8654 19.4225 22.4817 19.4684 22.3237 19.6751C22.2334 19.7901 22.2334 19.9508 22.3011 20.1345C22.5945 21.0071 22.3463 22.5918 22.2786 22.9594C22.5495 23.1201 23.4973 23.809 23.2943 24.8655C23.2717 24.9573 23.2491 25.0721 23.2265 25.164C23.0234 26.2205 22.8202 27.2079 24.0841 27.8281C25.4158 28.494 25.506 29.6194 25.506 29.8719L26.9956 31.5255L26.973 31.5943C26.973 31.5943 26.7473 32.0536 26.8828 32.3981C26.9278 32.559 27.0408 32.6508 27.2213 32.7427C27.4695 32.8575 27.65 32.7656 27.921 32.6279C28.3497 32.421 28.9139 32.1225 30.2004 32.6049C32.2543 33.3627 32.796 33.0412 33.0441 32.7197L33.0893 32.6508L33.1571 32.6738C33.2247 32.6968 34.6917 33.1331 35.3687 31.2499V31.2269L35.3913 31.204C35.4365 31.1581 36.723 30.1475 35.9104 28.3792L35.888 28.3103L35.933 28.2644C35.9782 28.2184 36.8132 27.2538 36.2491 26.1055C35.933 25.4625 35.9556 24.7506 36.2941 24.1764C36.4973 23.8319 36.7908 23.6253 37.0841 23.5564C37.0615 23.3497 37.0389 22.8673 37.2873 22.5918C37.4452 22.4081 37.671 22.3392 37.9417 22.3392C38.2576 22.3621 38.4834 22.454 38.6413 22.6606C38.7993 22.8673 38.8445 23.1431 38.8445 23.3268C39.3186 22.9364 40.4921 22.1784 41.8011 23.0053L41.8461 23.0282V23.0971C41.7334 23.189 41.7334 23.2349 41.7334 23.3038Z" fill="#10B501"/>
<path d="M34.0815 43.123C34.2846 45.3507 31.0798 45.9937 31.0798 45.9937C31.0798 45.9937 30.8993 47.5324 29.2067 47.3257C27.4913 47.1191 26.4306 48.497 26.4306 48.497C26.4306 48.497 23.5417 48.3822 22.9322 49.2548C22.3004 50.1276 20.9237 50.0357 20.9237 50.0357C20.9237 50.0357 19.5695 49.737 20.6302 50.4261C21.0817 50.7246 21.1945 51.0002 21.1945 51.2298C21.9845 51.3446 22.7743 51.3906 23.5869 51.4135C27.8976 51.4826 31.9374 50.2424 35.3004 48.0606C35.0972 47.5324 35.4357 46.8206 36.4739 46.3611C38.5504 45.3967 37.7604 44.2713 37.7604 44.2713C37.7604 44.2713 36.2032 44.1794 36.6093 43.1459C37.0156 42.1126 36.4513 42.0437 36.4513 42.0437C35.8195 43.3756 34.0815 43.123 34.0815 43.123Z" fill="#10B501"/>
<path d="M37.9862 44.799C37.9862 44.8908 37.9636 44.9827 37.9411 45.0745C37.8057 45.6027 37.3092 46.0621 36.4742 46.4295C35.4585 46.8888 35.1877 47.5549 35.3683 47.9912L35.3909 48.083L35.3231 48.129C31.8248 50.4025 27.7398 51.5738 23.5418 51.5049C22.752 51.4819 21.9394 51.436 21.127 51.3212L21.0366 51.2982V51.2064C21.0366 50.9538 20.8786 50.7242 20.5175 50.4943C20.1338 50.2418 20.0211 50.104 20.0888 49.9662C20.1114 49.9203 20.179 49.7595 20.9012 49.9203C20.9012 49.9203 22.2103 49.9892 22.7972 49.1855C23.4064 48.3356 25.9342 48.3586 26.3405 48.3816C26.5436 48.129 27.5818 47.0266 29.1616 47.2103C29.6581 47.2792 30.087 47.1873 30.3803 46.9347C30.8318 46.5673 30.922 45.9932 30.922 45.9703V45.9014L30.9898 45.8784C31.0124 45.8784 34.127 45.2123 33.9238 43.1225L33.9012 42.9847L34.0366 43.0077C34.0592 43.0077 35.7068 43.2143 36.2711 41.9742L36.2936 41.9053L36.3838 41.9282C36.4516 41.9282 36.6096 41.9971 36.6998 42.1579C36.8353 42.3875 36.8127 42.7321 36.6322 43.1914C36.5418 43.398 36.5418 43.5818 36.6322 43.7195C36.8353 44.041 37.4672 44.1558 37.6929 44.1788H37.7381L37.7605 44.2247C37.8283 44.2018 37.9862 44.4545 37.9862 44.799ZM35.0974 47.7156C35.0974 47.2562 35.4359 46.6821 36.3838 46.2458C37.1512 45.9014 37.6025 45.4649 37.7155 45.0286C37.8057 44.7071 37.6929 44.4545 37.6477 44.3627C37.4446 44.3397 36.7449 44.2479 36.4742 43.8114C36.3386 43.6047 36.3386 43.3521 36.4516 43.0766C36.6322 42.5942 36.6096 42.3645 36.5418 42.2497C36.5192 42.2038 36.4742 42.1579 36.4516 42.1579C35.9099 43.2603 34.6009 43.2603 34.172 43.2373C34.2398 45.2353 31.6218 45.9703 31.1477 46.0851C31.1025 46.2688 30.9898 46.774 30.5385 47.1184C30.1774 47.394 29.7259 47.509 29.1616 47.4401C27.5366 47.2332 26.4985 48.5423 26.4985 48.5653L26.4533 48.6112H26.4083C26.3857 48.6112 23.5644 48.4964 23.0001 49.3232C22.3457 50.2418 20.9464 50.1499 20.9012 50.1499C20.6755 50.104 20.4499 50.081 20.337 50.081C20.3822 50.1269 20.4725 50.1958 20.6755 50.3336C21.0366 50.5862 21.2398 50.839 21.2849 51.1375C22.0524 51.2293 22.8196 51.2982 23.587 51.2982C27.7172 51.3671 31.712 50.2418 35.1651 48.0142C35.1199 47.9223 35.0974 47.8305 35.0974 47.7156Z" fill="#10B501"/>
<path d="M3.07269 30.4229C3.02756 37.5882 6.61608 43.9727 12.1456 47.739C12.0779 47.6701 11.2202 46.5677 13.59 47.1649C13.59 47.1649 13.2515 46.0166 11.9876 45.1438C10.7237 44.2712 10.1595 43.2606 10.9268 42.9851C10.9268 42.9851 9.73065 42.4569 10.2723 41.5382L11.0171 41.5612C11.0171 41.5612 11.6039 40.7116 10.6786 39.9766C10.6786 39.9766 10.1369 40.7116 9.50496 40.2751C8.87302 39.8388 8.78274 38.323 9.88863 38.2771C10.9945 38.2312 11.0171 39.0121 11.0171 39.0121C11.0171 39.0121 11.9876 38.5756 11.1976 37.2666C10.4077 35.9577 9.07613 36.9451 9.07613 36.9451C9.07613 36.9451 7.6317 37.1058 7.11261 35.5212L6.88691 36.0495C6.81921 36.2332 6.54837 36.2332 6.45809 36.0495C6.32267 35.751 6.07441 35.4293 5.73587 35.4753C5.08135 35.5671 5.46504 36.5317 6.30011 37.4964C7.13517 38.4379 6.43552 39.4714 6.43552 39.4714C6.43552 39.4714 6.34524 38.6216 5.21678 37.8408C4.06574 37.0599 3.99804 34.7175 5.26191 35.016L4.9008 34.0973C4.85567 33.9595 5.01365 33.8447 5.1265 33.9366L6.05183 34.7404C6.05183 34.7404 6.95461 34.3271 5.57789 33.018C4.20115 31.709 4.2463 30.8821 4.42685 30.5377C4.42685 30.5377 3.88519 30.5377 3.74976 31.663C3.7272 32.2601 3.38867 31.4104 3.07269 30.4229Z" fill="#10B501"/>
<path d="M13.727 47.3258L13.5464 47.2798C12.3502 46.9813 12.102 47.1421 12.0568 47.2339C11.9891 47.3487 12.1245 47.5785 12.2148 47.6934L12.6888 48.2674L12.0794 47.8311C6.32421 43.9039 2.91623 37.4047 2.96138 30.4232V29.78L3.16451 30.4002C3.43534 31.2728 3.59332 31.5715 3.6836 31.7093V31.6863C3.81901 30.4691 4.45095 30.4691 4.47353 30.4691H4.63151L4.56381 30.6298C4.47353 30.8365 4.24782 31.6174 5.69227 32.9954C6.27907 33.5465 6.5499 34.0287 6.4822 34.4191C6.43707 34.7408 6.14366 34.8785 6.14366 34.8785L6.07595 34.9015L5.10547 34.0517C5.0829 34.0287 5.06032 34.0517 5.06032 34.0517C5.06032 34.0517 5.03777 34.0747 5.03777 34.0976L5.46658 35.223L5.26345 35.1771C4.92492 35.1082 4.69921 35.2 4.56381 35.4985C4.29297 36.1185 4.56381 37.3128 5.30858 37.795C6.07595 38.3234 6.39192 38.8745 6.50477 39.2189C6.64018 38.8745 6.79818 38.2315 6.25651 37.6113C5.71484 36.9913 5.19575 36.1874 5.37631 35.7052C5.42144 35.5904 5.51171 35.4526 5.75997 35.4067C5.98568 35.3837 6.32421 35.4526 6.59505 36.0497C6.61762 36.1185 6.68532 36.1185 6.7079 36.1185C6.73045 36.1185 6.79818 36.1185 6.82073 36.0497L7.15929 35.246L7.24957 35.5215C7.70094 36.8995 8.87455 36.8995 9.0551 36.8765C9.19053 36.7847 9.75475 36.4173 10.3641 36.555C10.7478 36.6239 11.0412 36.8535 11.2895 37.2669C11.5829 37.7491 11.6957 38.1856 11.5829 38.553C11.4475 38.9893 11.0863 39.15 11.0863 39.15L10.9284 39.2189V39.0582C10.9284 39.0582 10.9058 38.8285 10.7252 38.6448C10.5447 38.4841 10.2738 38.4152 9.91273 38.4152C9.43879 38.4382 9.28081 38.7367 9.21308 38.9663C9.07768 39.4026 9.25823 39.9769 9.59677 40.2065C10.1384 40.5739 10.6124 39.9539 10.635 39.931L10.7027 39.8391L10.793 39.908C11.7634 40.6887 11.154 41.6304 11.1315 41.6304L11.1089 41.6763L10.3641 41.6534C10.2513 41.8371 10.2287 42.0437 10.2964 42.2045C10.4318 42.641 10.9961 42.8706 10.9961 42.8935L11.2443 43.0084L10.9961 43.1002C10.8381 43.1691 10.7478 43.261 10.7252 43.3987C10.6801 43.7432 11.0863 44.3863 12.0794 45.0752C13.3658 45.971 13.7044 47.1191 13.727 47.165V47.3258ZM11.8311 47.3028C11.8311 47.2339 11.8537 47.188 11.8763 47.1191C12.0343 46.8665 12.5308 46.8435 13.411 47.0273C13.253 46.6828 12.8468 45.8791 11.9214 45.236C10.9735 44.57 10.4093 43.835 10.477 43.3528C10.4995 43.238 10.5447 43.1002 10.7027 42.9854C10.4995 42.8706 10.1836 42.6178 10.0707 42.2734C9.98045 42.0208 10.0256 41.7452 10.1836 41.4926L10.2061 41.4467L10.9509 41.4697C11.0412 41.3089 11.312 40.7117 10.7027 40.1606C10.4544 40.4361 9.95788 40.7576 9.43879 40.3902C9.03253 40.1147 8.82942 39.4487 8.9874 38.8974C9.10025 38.4611 9.43879 38.2085 9.89018 38.1856C10.319 38.1626 10.635 38.2545 10.8607 38.4611C10.9961 38.5989 11.0638 38.7367 11.1089 38.8515C11.1992 38.7826 11.312 38.6448 11.3798 38.4611C11.47 38.1626 11.3798 37.7721 11.1089 37.3358C10.9058 36.9913 10.635 36.7847 10.319 36.7387C9.73218 36.6239 9.14538 37.0373 9.14538 37.0602L9.12281 37.0832H9.10025C9.07768 37.0832 7.72351 37.221 7.13671 35.843L7.02386 36.1185C6.97873 36.2335 6.86588 36.3254 6.73045 36.3254C6.59505 36.3254 6.4822 36.2565 6.41449 36.1415C6.30164 35.8889 6.09853 35.5904 5.80512 35.6363C5.64714 35.6593 5.60199 35.7282 5.57942 35.7971C5.46658 36.0956 5.8277 36.7847 6.43707 37.4735C7.31727 38.4611 6.59505 39.5635 6.59505 39.5635L6.43707 39.8161L6.41449 39.5176C6.41449 39.5176 6.32421 38.7137 5.24088 37.956C4.40582 37.3817 4.11242 36.0956 4.42838 35.3837C4.56381 35.0623 4.83464 34.8785 5.17318 34.9015L4.83464 34.1435C4.78949 34.0287 4.83464 33.9139 4.92492 33.845C5.0152 33.7761 5.1506 33.7761 5.24088 33.868L6.09853 34.626C6.16623 34.5798 6.23394 34.488 6.25651 34.3502C6.30164 34.1435 6.18879 33.7532 5.53429 33.1102C4.31555 31.9389 4.2027 31.158 4.29297 30.7447C4.15755 30.8595 3.95444 31.0891 3.88673 31.7093C3.88673 31.7782 3.86416 31.9848 3.70618 31.9848C3.6159 31.9848 3.50305 32.0078 3.16451 31.1121C3.34507 37.6113 6.52734 43.6513 11.8086 47.4406C11.8311 47.3717 11.8311 47.3487 11.8311 47.3028Z" fill="#10B501"/>
<path d="M4.65234 29.0908C4.65234 29.0908 5.80338 29.9406 6.59331 31.9156C7.38323 33.8906 8.96308 33.2017 9.00823 31.9615C9.00823 31.9615 7.8572 32.3978 7.72177 30.2621C7.58636 28.1263 6.39018 26.3808 6.39018 26.3808L5.17144 26.1052C5.17144 26.1052 5.32942 27.8506 4.65234 29.0908Z" fill="#10B501"/>
<path d="M9.14321 31.8014V31.9621C9.12064 32.6051 8.69182 33.1563 8.12758 33.2482C7.49566 33.363 6.88627 32.8806 6.52517 31.9621C5.7578 30.033 4.62934 29.2062 4.60677 29.1832L4.53906 29.1373L4.58419 29.0454C5.19358 27.8512 5.05816 26.1288 5.05816 26.1058L5.03558 25.968L6.45745 26.2895L6.48003 26.3354C6.52517 26.3354 7.69877 28.1038 7.85677 30.2397C7.9019 31.0204 8.10503 31.5717 8.44356 31.7784C8.7144 31.9621 8.98523 31.8473 9.0078 31.8473L9.14321 31.8014ZM4.78732 29.0684C5.05816 29.298 6.00606 30.1478 6.70573 31.8702C7.02169 32.6969 7.54078 33.1334 8.08245 33.0414C8.51127 32.9725 8.82725 32.5821 8.91753 32.0999C8.7821 32.1228 8.55641 32.1228 8.33071 31.9621C7.92447 31.7095 7.69877 31.1352 7.65364 30.2626C7.51821 28.3336 6.54773 26.726 6.36717 26.4732L5.30641 26.2436C5.30641 26.6799 5.32899 28.0119 4.78732 29.0684Z" fill="#10B501"/>
<path d="M3.09357 28.7237C3.63523 28.4482 4.15433 27.92 4.35746 26.8406C4.78627 24.4293 6.09529 24.9115 6.09529 24.9115L5.93731 23.6254L5.12481 23.1891C5.12481 23.1891 5.53105 22.0867 5.37307 20.9613C4.13175 23.3269 3.34183 25.945 3.09357 28.7237Z" fill="#10B501"/>
<path d="M6.23045 25.0726L6.07247 25.0037C6.04989 25.0037 5.73391 24.8889 5.37282 25.0955C4.94399 25.3481 4.62802 25.9453 4.47004 26.8639C4.28949 27.8055 3.86067 28.4714 3.16102 28.8161L2.98047 28.9079L3.00302 28.7242C3.2513 25.9683 4.01865 23.3502 5.3051 20.9159L5.4631 20.6172L5.50823 20.9389C5.64364 21.9033 5.37282 22.845 5.28254 23.1205L6.07247 23.5568L6.23045 25.0726ZM3.22873 28.5403C3.77039 28.1959 4.10893 27.6218 4.26691 26.8409C4.44747 25.8535 4.78601 25.2103 5.28254 24.9348C5.57593 24.774 5.82419 24.774 6.00475 24.797L5.86934 23.7176L5.03427 23.2583L5.05684 23.1664C5.05684 23.1664 5.37282 22.3168 5.32767 21.3522C4.17664 23.6027 3.47699 26.0142 3.22873 28.5403Z" fill="#10B501"/>
<path d="M12.5288 24.3139C12.5739 24.6354 12.8899 24.8191 13.1833 24.7042C13.3639 24.6354 13.567 24.5205 13.8378 24.3598C14.7632 23.7857 15.4402 24.9109 15.4402 24.9109C15.4402 24.9109 16.0722 22.9359 14.7857 22.6374C13.6347 22.3848 13.7927 23.4411 12.8448 23.7628C12.6191 23.8317 12.4837 24.0383 12.5062 24.268L12.5288 24.3139Z" fill="#10B501"/>
<path d="M15.7102 23.9235C15.7102 24.4289 15.5522 24.8882 15.5522 24.9111L15.4845 25.1408L15.3491 24.9571C15.3491 24.9571 15.0331 24.4289 14.5591 24.3141C14.3335 24.2682 14.1303 24.3141 13.9046 24.4289C13.6564 24.5896 13.4307 24.7045 13.2276 24.7963C13.0696 24.8652 12.8664 24.8652 12.7085 24.7733C12.5505 24.6815 12.4376 24.5208 12.4151 24.337V24.2911C12.3699 24.0154 12.5505 23.7628 12.8213 23.6709C13.1824 23.5561 13.363 23.3035 13.5435 23.0739C13.8144 22.7295 14.0626 22.3848 14.8074 22.5458C15.1234 22.6146 15.3716 22.7983 15.5071 23.0509C15.6876 23.3035 15.7102 23.625 15.7102 23.9235ZM15.3942 24.6585C15.4845 24.3141 15.5973 23.6021 15.3265 23.1428C15.2137 22.9361 15.0105 22.7983 14.7623 22.7295C14.1529 22.5917 13.9723 22.8443 13.7015 23.1658C13.521 23.4183 13.2953 23.6939 12.889 23.8317C12.7085 23.9006 12.5956 24.0615 12.6182 24.2222V24.2682C12.6408 24.383 12.7085 24.4978 12.7987 24.5437C12.889 24.6126 13.0244 24.6126 13.1373 24.5667C13.3404 24.4748 13.5435 24.36 13.7918 24.2222C14.0626 24.0615 14.3335 24.0154 14.6043 24.0615C14.9654 24.1993 15.2588 24.4519 15.3942 24.6585Z" fill="#10B501"/>
<path d="M7.6543 26.8638C7.722 27.6676 8.94074 27.5528 8.89561 26.7489V26.726C8.80533 25.7615 7.85743 25.8534 7.69944 26.5193C7.6543 26.6341 7.6543 26.7489 7.6543 26.8638Z" fill="#10B501"/>
<path d="M9.00606 26.8179C9.00606 27.2312 8.66753 27.4838 8.32899 27.5067C7.96788 27.5297 7.58419 27.323 7.53906 26.8638C7.53906 26.749 7.53906 26.6112 7.56164 26.4964C7.65191 26.129 7.96788 25.8762 8.30642 25.8992C8.59982 25.9221 8.91579 26.1519 8.98351 26.703V26.726C9.00606 26.7719 9.00606 26.7949 9.00606 26.8179ZM7.76475 26.8408C7.78732 27.1853 8.05816 27.3001 8.30642 27.2771C8.55467 27.2542 8.80295 27.0704 8.78038 26.749V26.726C8.73523 26.3586 8.57725 26.129 8.30642 26.106C8.1033 26.083 7.85503 26.2438 7.78732 26.5423C7.76475 26.6571 7.76475 26.749 7.76475 26.8408Z" fill="#10B501"/>
<path d="M17.2239 48.979C17.2239 48.979 17.6302 48.1982 16.1632 48.2212C15.3055 48.2212 14.7865 48.6805 13.9062 48.8642C14.1319 48.979 14.3351 49.0938 14.5608 49.2086C14.5833 49.2086 16.2083 48.5656 17.2239 48.979Z" fill="#10B501"/>
<path d="M17.4039 48.7725C17.4039 48.9103 17.3361 49.0251 17.3361 49.0481L17.291 49.14L17.2007 49.094C16.2302 48.7037 14.6955 49.2777 14.6278 49.3237L14.5827 49.3466L14.5375 49.3237C14.3119 49.2088 14.0862 49.094 13.883 48.9792L13.6348 48.8414L13.9056 48.7725C14.2441 48.7037 14.5375 48.5888 14.831 48.474C15.2598 48.2903 15.666 48.1294 16.1851 48.1294C16.7945 48.1294 17.1782 48.2674 17.3361 48.52C17.3813 48.5888 17.4039 48.6807 17.4039 48.7725ZM17.1782 48.8414C17.2007 48.7725 17.2007 48.6807 17.1556 48.5888C17.0879 48.4511 16.8396 48.3133 16.1851 48.3133C15.6886 48.3133 15.3049 48.474 14.8987 48.6348C14.6955 48.7266 14.4698 48.8185 14.2216 48.8874C14.3344 48.9562 14.4698 49.0251 14.5827 49.0711C14.8535 49.0022 16.2077 48.5429 17.1782 48.8414Z" fill="#10B501"/>
<path d="M18.2841 47.7161C18.6001 47.7161 18.8483 47.8768 18.8483 48.0605C18.8483 48.2442 18.5775 48.382 18.2615 48.382C17.9455 48.382 17.6973 48.2213 17.6973 48.0376C17.7198 47.8538 17.9681 47.7161 18.2841 47.7161Z" fill="#10B501"/>
<path d="M18.9606 48.0603C18.9606 48.3129 18.6447 48.4966 18.2611 48.4966C17.8774 48.4966 17.584 48.2899 17.584 48.0373C17.584 47.7847 17.9 47.6008 18.2837 47.6008C18.6673 47.6238 18.9606 47.8077 18.9606 48.0603ZM17.8097 48.0373C17.8097 48.1521 18.0128 48.2669 18.2837 48.2669C18.5545 48.2669 18.7577 48.1521 18.7577 48.0373C18.7577 47.9225 18.5545 47.8077 18.2837 47.8077C18.0128 47.8306 17.8097 47.9455 17.8097 48.0373Z" fill="#10B501"/>
<path d="M14.2206 25.1406C14.514 25.1406 14.7622 25.3702 14.7622 25.6228C14.7622 25.8983 14.514 26.105 14.198 26.105C13.9046 26.105 13.6563 25.8754 13.6563 25.6228C13.6563 25.3472 13.9046 25.1406 14.2206 25.1406Z" fill="#10B501"/>
<path d="M14.8754 25.6464C14.8754 25.9678 14.582 26.2204 14.2209 26.2204C13.8598 26.2204 13.5664 25.9449 13.5664 25.6234C13.5664 25.3019 13.8598 25.0493 14.2209 25.0493C14.582 25.0493 14.8754 25.3249 14.8754 25.6464ZM13.7695 25.6234C13.7695 25.8301 13.9501 25.9908 14.1984 26.0138C14.4466 26.0138 14.6497 25.853 14.6497 25.6464C14.6497 25.4397 14.4692 25.2789 14.2209 25.256C13.9726 25.256 13.7695 25.4167 13.7695 25.6234Z" fill="#10B501"/>
<path d="M30.1756 33.7305C30.4689 33.7305 30.7173 33.9371 30.7173 34.1897C30.7173 34.4423 30.4689 34.6492 30.153 34.6262C29.8597 34.6262 29.6113 34.4194 29.6113 34.1668C29.6339 33.9371 29.8823 33.7305 30.1756 33.7305Z" fill="#10B501"/>
<path d="M30.8306 34.2124C30.8306 34.5339 30.537 34.7636 30.1759 34.7636C29.8148 34.7636 29.5215 34.511 29.5215 34.1895C29.5215 33.868 29.8148 33.6382 30.1759 33.6382C30.5596 33.6382 30.8306 33.891 30.8306 34.2124ZM29.7472 34.1895C29.7472 34.3732 29.9278 34.5339 30.1759 34.5569C30.4243 34.5569 30.6274 34.4191 30.6274 34.2124C30.6274 34.0287 30.4469 33.868 30.1985 33.845C29.9504 33.845 29.7472 33.9828 29.7472 34.1895Z" fill="#10B501"/>
<path d="M29.0486 34.4646C29.2518 34.4646 29.4097 34.6483 29.4097 34.8552C29.4097 35.0618 29.2518 35.2455 29.0486 35.2455C28.8455 35.2455 28.6875 35.0618 28.6875 34.8552C28.6875 34.6253 28.8681 34.4646 29.0486 34.4646Z" fill="#10B501"/>
<path d="M29.5226 34.8555C29.5226 35.1313 29.2969 35.3379 29.0487 35.3379C28.8004 35.3379 28.5747 35.1083 28.5973 34.8326C28.5973 34.557 28.823 34.3503 29.0713 34.3503C29.3195 34.3733 29.5226 34.58 29.5226 34.8555ZM28.8004 34.8555C28.8004 35.0165 28.9134 35.1313 29.0487 35.1313C29.1841 35.1313 29.2969 35.0165 29.2969 34.8555C29.2969 34.6948 29.1841 34.58 29.0487 34.58C28.9134 34.58 28.8004 34.6948 28.8004 34.8555Z" fill="#10B501"/>
<path d="M21.7814 18.7343C22.0975 18.6652 22.4586 18.4356 22.4812 17.7926C22.2329 17.5859 21.8492 17.6318 21.6912 17.9304C21.5558 18.1371 21.3753 18.3208 21.127 18.3208L21.1947 18.4586C21.2849 18.6652 21.5332 18.8032 21.7814 18.7343Z" fill="#10B501"/>
<path d="M22.5722 17.7461V17.792C22.5496 18.5498 22.0757 18.7794 21.8048 18.8483C21.5115 18.9174 21.2181 18.7565 21.0826 18.481L20.9472 18.1824L21.1278 18.2054C21.2857 18.2054 21.4437 18.1135 21.5792 17.8609C21.6694 17.7001 21.8274 17.5853 22.0079 17.5624C22.1885 17.5394 22.3917 17.5853 22.527 17.7001L22.5722 17.7461ZM21.7598 18.6417C22.1435 18.5498 22.3465 18.2972 22.3691 17.8379C22.2789 17.769 22.1659 17.7461 22.0757 17.769C21.9629 17.792 21.85 17.8609 21.7824 17.9528C21.6242 18.2284 21.4437 18.3432 21.2857 18.3661C21.3535 18.5728 21.5566 18.6876 21.7598 18.6417Z" fill="#10B501"/>
<path d="M12.1447 39.8849C12.4607 39.816 12.8218 39.5864 12.8444 38.9432C12.5961 38.7366 12.2125 38.7825 12.0545 39.081C11.919 39.2879 11.7385 39.4716 11.4902 39.4716L11.5579 39.6093C11.6482 39.793 11.8965 39.9308 12.1447 39.8849Z" fill="#10B501"/>
<path d="M12.9336 38.8746V38.9206C12.911 39.6783 12.4371 39.908 12.1662 39.9769C11.8728 40.0458 11.5794 39.885 11.444 39.6095L11.3086 39.3109L11.4891 39.3339C11.6471 39.3339 11.8051 39.2421 11.9405 39.0124C12.0308 38.8517 12.1888 38.7367 12.3694 38.7137C12.5499 38.6908 12.753 38.7367 12.8884 38.8517L12.9336 38.8746ZM12.1211 39.7702C12.5048 39.6783 12.7079 39.4258 12.7305 38.9665C12.6402 38.8976 12.5273 38.8746 12.4371 38.8976C12.3242 38.9206 12.2114 38.9895 12.1437 39.0813C11.9857 39.3569 11.8051 39.4717 11.6471 39.4946C11.7148 39.7243 11.918 39.8161 12.1211 39.7702Z" fill="#10B501"/>
<path d="M41.9126 26.8402C41.7998 26.932 41.8674 27.1158 42.003 27.1158C42.4091 27.1387 43.0185 27.2765 43.4924 27.8046C44.0341 28.4248 43.6956 28.8382 43.47 28.9989C43.4022 29.0678 43.3796 29.1596 43.4474 29.2285C44.2824 30.0783 44.6209 32.237 44.6435 32.3289C44.6887 31.8467 44.7113 31.3643 44.7113 30.882C44.7337 29.527 44.6209 28.218 44.4178 26.932C43.3796 25.9215 42.3867 26.4496 41.9126 26.8402Z" fill="#10B501"/>
<path d="M44.8461 30.9283C44.8461 31.3876 44.8011 31.893 44.7785 32.3752L44.7107 33.2478L44.5754 32.3981C44.5528 32.3063 44.2142 30.1704 43.4017 29.3437C43.3567 29.2978 43.3115 29.2059 43.3341 29.137C43.3341 29.0681 43.3792 28.9993 43.4242 28.9533C43.5372 28.8615 43.6952 28.7007 43.6952 28.5168C43.7178 28.3331 43.6274 28.1265 43.4242 27.9198C42.9729 27.4376 42.4087 27.2998 42.0024 27.2768C41.8896 27.2768 41.7992 27.208 41.7542 27.0931C41.7317 26.9781 41.7542 26.8863 41.8444 26.8174C42.2507 26.473 43.3567 25.807 44.5076 26.9552L44.5302 26.9781V27.0011C44.7559 28.2643 44.8687 29.5963 44.8461 30.9283ZM44.5979 31.5713C44.5979 31.3417 44.6205 31.135 44.6205 30.9283C44.6431 29.6193 44.5528 28.3331 44.327 27.047C43.3341 26.1056 42.4313 26.5648 41.9798 26.9552C41.9572 26.9781 41.9572 27.0011 41.9572 27.0011C41.9572 27.0011 41.9798 27.0241 42.0024 27.047C42.4539 27.0702 43.0857 27.2309 43.5822 27.7591C43.8079 28.0117 43.9209 28.2872 43.8983 28.5168C43.8757 28.7926 43.6952 28.9993 43.5372 29.1141C43.5146 29.137 43.5146 29.137 43.5146 29.16C43.5146 29.16 43.5146 29.183 43.5372 29.2059C44.0789 29.7341 44.4174 30.8135 44.5979 31.5713Z" fill="#10B501"/>
<path d="M6.41211 19.2156C6.90863 18.848 7.49544 18.5725 8.08224 18.6413C8.19509 18.6643 8.24022 18.5265 8.17252 18.4577C8.01454 18.274 7.72113 18.0443 7.33744 17.9065C6.99891 18.3199 6.70552 18.7562 6.41211 19.2156Z" fill="#10B501"/>
<path d="M8.30793 18.527C8.30793 18.5499 8.30793 18.5959 8.28536 18.6188C8.24023 18.7107 8.14995 18.7566 8.05967 18.7337C7.58571 18.6648 7.06662 18.8485 6.47982 19.2848L6.00586 19.6292L6.32184 19.147C6.61523 18.6877 6.93121 18.2513 7.24717 17.838L7.29232 17.769L7.36003 17.792C7.78884 17.9528 8.05967 18.1824 8.24023 18.3662C8.28536 18.4121 8.30793 18.481 8.30793 18.527ZM6.79579 18.8255C7.26975 18.5729 7.69856 18.458 8.1048 18.527C7.9694 18.3662 7.72114 18.1595 7.3826 18.0217C7.1569 18.2973 6.97634 18.5729 6.79579 18.8255Z" fill="#10B501"/>
<path d="M23.1133 48.1294C23.1133 48.1294 24.4224 47.6931 25.5057 47.8538C25.5057 47.8538 25.2799 46.8432 23.9259 47.0731C23.9259 47.0731 24.1966 47.5553 23.1133 48.1294Z" fill="#10B501"/>
<path d="M25.6405 47.9921L25.4825 47.9691C24.4444 47.8084 23.1579 48.2447 23.1353 48.2447L23.0449 48.038C23.9929 47.5099 23.8123 47.1425 23.8123 47.1195L23.7446 46.9815L23.8801 46.9586C25.3246 46.7289 25.5953 47.8084 25.5953 47.8084L25.6405 47.9921ZM23.6996 47.8773C24.1508 47.7854 24.7603 47.6936 25.347 47.7395C25.2342 47.5099 24.8957 47.0736 24.0607 47.1884C24.0607 47.2343 24.0607 47.3262 24.0381 47.395C23.9929 47.5558 23.8801 47.7165 23.6996 47.8773Z" fill="#10B501"/>
<path d="M19.6593 13.7497C19.6593 13.7497 20.4491 14.1171 20.043 14.7372C19.6367 15.3343 18.3954 15.0817 17.6055 14.5535C17.6055 14.5535 18.7114 14.1401 18.0343 13.3133C17.3572 12.4866 19.8173 12.3029 19.6593 13.7497Z" fill="#4ECDF9"/>
<path d="M20.2698 14.3928C20.2698 14.5306 20.2248 14.6454 20.1344 14.7832C19.6605 15.4722 18.3289 15.1277 17.5615 14.6224L17.381 14.5076L17.5841 14.4387C17.5841 14.4387 18.0581 14.255 18.1484 13.9335C18.1935 13.7727 18.1258 13.566 17.9678 13.3823C17.7421 13.1067 17.8324 12.923 17.9001 12.8311C18.1032 12.5555 18.6448 12.4866 19.1189 12.6703C19.5702 12.8541 19.8185 13.2215 19.7959 13.7038C19.9313 13.7727 20.2022 13.9564 20.2698 14.255C20.2472 14.3009 20.2698 14.3468 20.2698 14.3928ZM17.8324 14.5535C18.6224 14.9899 19.6154 15.1506 19.9539 14.6684C20.0442 14.5306 20.0666 14.4157 20.0442 14.2779C19.9765 14.0483 19.7055 13.8875 19.6154 13.8416L19.5476 13.8186V13.7497C19.6154 13.1986 19.2316 12.9689 19.0059 12.877C18.5998 12.7163 18.1709 12.8081 18.0355 12.9689C17.9904 13.0378 18.0129 13.1526 18.1032 13.2675C18.3063 13.5201 18.3966 13.7727 18.3289 14.0253C18.2612 14.2779 18.0129 14.4617 17.8324 14.5535Z" fill="#10B501"/>
<path d="M30.5826 10.7644C30.56 10.7644 29.4541 11.4993 28.3481 11.3615C27.2648 11.2237 24.7372 11.1548 26.7233 12.8083C26.7233 12.8083 29.7476 11.1089 32.5235 11.5223C31.8917 11.2467 31.2596 10.9941 30.5826 10.7644Z" fill="#4ECDF9"/>
<path d="M33.2693 11.752L32.5246 11.6601C29.8163 11.2467 26.8144 12.9002 26.7918 12.9232L26.7243 12.9691L26.6791 12.9232C26.0472 12.395 25.7989 11.9816 25.9343 11.6831C26.2052 11.063 27.8752 11.2238 28.3944 11.2926C29.4326 11.4304 30.4933 10.7415 30.5385 10.7185L30.5835 10.6956L30.6287 10.7185C31.2831 10.9482 31.9378 11.2008 32.5922 11.4994L33.2693 11.752ZM26.7469 12.6936C27.1756 12.4639 29.5228 11.2926 31.8926 11.3845C31.4637 11.2008 31.035 11.04 30.6061 10.9022C30.3804 11.04 29.3648 11.6142 28.3493 11.4994C27.3787 11.3845 26.2728 11.4075 26.1148 11.7749C26.0696 11.8668 26.0922 12.1424 26.7469 12.6936Z" fill="#10B501"/>
<path d="M7.99232 12.7908C7.99232 11.7611 8.72958 11.3458 9.62167 11.8619L21.4375 18.6816C21.9096 18.9881 22.3023 19.402 22.5836 19.8894C22.8651 20.3766 23.0273 20.9237 23.0572 21.4857L23.0301 31.2274C23.0301 32.257 22.2929 32.6724 21.4007 32.1539L9.58973 25.3366C9.11797 25.0301 8.72549 24.6163 8.44443 24.1289C8.16338 23.6414 8.00171 23.0944 7.97266 22.5326L7.99232 12.7908Z" fill="#333333" fill-opacity="0.2"/>
<path d="M1.52429 11.3484L1.44565 11.314L1.41862 11.3017L1.34735 11.2747H1.33015L1.24905 11.2304H1.1999H1.17532L1.1016 11.2157H0.993462H0.860755H0.789485H0.757538L0.676438 11.2353L0.602712 11.2624H0.583051L0.521612 11.2919C0.515127 11.2932 0.508438 11.2932 0.501953 11.2919L6.32635 7.9201H6.33863L6.40991 7.88078L6.48363 7.85621L6.56472 7.83901H6.6065H6.68024H6.69498C6.72605 7.83654 6.75728 7.83654 6.78837 7.83901H6.81048C6.84648 7.83658 6.88261 7.83658 6.91861 7.83901H6.99233H7.01692H7.06361L7.15209 7.86602H7.16928L7.24302 7.89552H7.26266L7.33885 7.93239L7.36835 7.94714L7.47157 8.00119L1.64717 11.3852L1.54395 11.3312L1.52429 11.3484Z" fill="#FFCA00"/>
<path d="M15.0583 30.7825L20.8827 27.396C20.8827 27.9097 20.7009 28.2684 20.4083 28.438L14.584 31.8221C14.874 31.6549 15.0558 31.2936 15.0583 30.7825Z" fill="#FF9C00"/>
<path d="M15.0837 21.0406L20.908 17.6541L20.881 27.3958L15.0566 30.7823L15.0837 21.0406Z" fill="#FFAE00"/>
<path d="M7.48076 8.03305L19.2893 14.8503L13.4649 18.2368L1.65637 11.4196L7.48076 8.03305Z" fill="#FFAE00"/>
<path d="M0.0196599 12.3459C0.0196599 11.3162 0.756924 10.9008 1.64902 11.4169L13.4649 18.2366C13.9369 18.5431 14.3296 18.957 14.6111 19.4444C14.8925 19.9317 15.0547 20.4787 15.0845 21.0407L15.0574 30.7824C15.0574 31.8122 14.3201 32.2274 13.4281 31.7089L1.61707 24.8917C1.14531 24.5852 0.752836 24.1713 0.471774 23.6839C0.190711 23.1965 0.0290425 22.6494 0 22.0876L0.0196599 12.3459Z" fill="#FF9C00"/>
<path d="M15.0764 20.8688C15.0764 20.8221 15.0764 20.7754 15.0641 20.7288C15.0629 20.7166 15.0629 20.7042 15.0641 20.6919C15.0641 20.6697 15.0641 20.6477 15.0518 20.6256V20.5814C15.0489 20.5599 15.0448 20.5384 15.0395 20.5175V20.483C15.0272 20.429 15.015 20.3749 15.0002 20.3208V20.2938C14.9879 20.2471 14.9732 20.2005 14.956 20.1512C14.9413 20.1069 14.924 20.0629 14.9068 20.016C14.9038 20.0051 14.8997 19.9943 14.8945 19.9842C14.8798 19.9449 14.8651 19.908 14.8479 19.8686V19.8514C14.8307 19.8097 14.811 19.7679 14.7913 19.7262L14.7766 19.6942L14.725 19.5982L14.7102 19.5664L14.6439 19.446L14.6291 19.4238L14.5677 19.3206L14.548 19.2912L14.4645 19.1682L14.4522 19.151C14.4227 19.1093 14.3932 19.0675 14.3613 19.0282C14.3608 19.0225 14.3608 19.0167 14.3613 19.011C14.3219 18.9617 14.2826 18.9127 14.2408 18.866L14.2236 18.8488L14.1499 18.7627C14.1204 18.7356 14.0934 18.7062 14.0664 18.6792L14.0492 18.6619C14.0133 18.6256 13.9755 18.5912 13.9361 18.5588L13.8181 18.4605L13.796 18.4433C13.7567 18.4113 13.7174 18.3843 13.6756 18.3548H13.6535C13.6124 18.3255 13.3292 18.1897 13.2852 18.1649L19.2887 14.8528L19.4189 14.9314L19.4337 14.9462C19.4754 14.9732 19.5148 15.0027 19.5541 15.0322L19.5761 15.0518C19.6176 15.0819 19.657 15.1148 19.6941 15.1502L19.8048 15.2534L19.9252 15.3639C19.9498 15.391 19.9742 15.4205 20.0013 15.4475V15.4598C20.0431 15.5065 20.0824 15.5556 20.1218 15.6048L20.2102 15.7252L20.2913 15.8481V15.8677L20.4167 16.03C20.4174 16.0348 20.4174 16.0398 20.4167 16.0447L20.483 16.1651V16.1848C20.4978 16.2167 20.515 16.2511 20.5322 16.2831C20.5313 16.2896 20.5313 16.2962 20.5322 16.3027V16.315C20.5518 16.3568 20.5715 16.3986 20.5887 16.4404C20.5887 16.4404 20.5887 16.4404 20.5887 16.4551C20.5887 16.4699 20.6207 16.5313 20.6354 16.5682V16.5878V16.6026L20.682 16.7377C20.6968 16.7844 20.7117 16.8311 20.7239 16.8778C20.7246 16.8835 20.7246 16.8893 20.7239 16.895C20.7387 16.9491 20.7533 17.0031 20.7631 17.0572C20.7631 17.0572 20.7631 17.0572 20.7631 17.072C20.7631 17.0867 20.7631 17.0867 20.7631 17.0941C20.7687 17.1151 20.7728 17.1364 20.7755 17.158C20.7767 17.1727 20.7767 17.1875 20.7755 17.2022C20.7742 17.2235 20.7742 17.2448 20.7755 17.2661C20.7742 17.2767 20.7742 17.2874 20.7755 17.298C20.7755 17.3447 20.7755 17.3914 20.7755 17.4381C20.7767 17.4479 20.7767 17.4578 20.7755 17.4676C20.7755 17.5143 20.9081 17.6826 20.9081 17.7293L15.0838 21.0408C15.0838 20.9942 15.0838 20.9451 15.0838 20.8984C15.0826 20.8882 15.0801 20.8784 15.0764 20.8688Z" fill="#FFCA00"/>
<path d="M6.16387 20.7926C5.68698 20.1886 5.41113 19.4502 5.375 18.6815C5.375 17.5978 6.1442 17.1628 7.09528 17.6985C7.13706 17.7231 7.17883 17.7477 7.22061 17.7772C7.65804 18.0917 8.02406 18.4951 8.29468 18.961C8.56531 19.4269 8.73444 19.9447 8.79098 20.4804C8.83768 21.2645 8.50837 21.751 7.9972 21.8273L8.62143 25.1695C8.69761 25.5651 8.46659 25.7715 8.15202 25.5897L5.97956 24.3363C5.81989 24.2356 5.69156 24.0923 5.60904 23.9225C5.52654 23.7526 5.49313 23.5632 5.51261 23.3754L6.16387 20.7926Z" fill="#333333"/>
<path d="M6.02911 6.16603C6.02911 5.18301 6.38053 4.4949 6.94086 4.16805L9.06664 2.93927C8.50631 3.26612 8.15981 3.9567 8.15735 4.93725L8.14014 11.0344L6.0119 12.2632L6.02911 6.16603Z" fill="#333333"/>
<path d="M14.441 11.0223L16.5668 9.78613L16.5496 15.8833L14.4238 17.1195L14.441 11.0223Z" fill="#333333"/>
<path d="M3.85119 4.90762C3.86102 1.55307 6.24484 0.194043 9.16441 1.8873C12.084 3.58054 14.4506 7.66745 14.4408 11.022L14.4236 17.1241L12.2437 15.8658L12.2634 9.76865C12.2634 7.80262 10.8749 5.38193 9.15704 4.38908C7.43921 3.39623 6.03595 4.19493 6.02858 6.1708L6.01137 12.268L3.83398 11.0097L3.85119 4.90762Z" fill="#666666"/>
<path d="M14.4073 10.4913C14.4073 10.4569 14.4073 10.4225 14.4073 10.3881C14.4073 10.3536 14.395 10.2504 14.3877 10.1841C14.3803 10.1177 14.3877 10.1177 14.3877 10.0858C14.3778 9.99404 14.3655 9.90311 14.3508 9.813V9.76385L14.2992 9.47385V9.43944C14.2844 9.36326 14.2672 9.28954 14.25 9.21335C14.2328 9.13717 14.2304 9.12243 14.2181 9.07572L14.1739 8.89387L14.137 8.7587C14.1173 8.68252 14.0952 8.6088 14.0731 8.53507L14.051 8.45643C14.0215 8.35567 13.9871 8.25244 13.9551 8.15168C13.9475 8.13407 13.941 8.11602 13.9355 8.09763C13.9084 8.01652 13.8789 7.93296 13.8494 7.85187C13.8372 7.81993 13.8249 7.79043 13.8151 7.75848L13.7266 7.53239L13.6971 7.46111C13.6578 7.36281 13.6184 7.26698 13.5767 7.17113C13.5767 7.15146 13.5595 7.13426 13.5521 7.11461C13.5152 7.03596 13.4808 6.95487 13.444 6.86885L13.4046 6.78776C13.3629 6.69928 13.3186 6.60835 13.2744 6.51987V6.50022C13.2285 6.40683 13.1794 6.31344 13.1269 6.22006L13.0852 6.14141L12.9623 5.92024C12.95 5.89811 12.9377 5.876 12.923 5.85389C12.8714 5.76294 12.8148 5.66957 12.7608 5.57863C12.7479 5.56156 12.7364 5.54348 12.7264 5.52457L12.5887 5.30831L12.5297 5.21737L12.397 5.02322L12.3454 4.94706L12.1685 4.7013L12.1513 4.67917C12.0874 4.5907 12.021 4.50468 11.9547 4.41867L11.8588 4.29826C11.8195 4.24911 11.7802 4.1975 11.7384 4.14835L11.6377 4.03039L11.5197 3.8903C11.4337 3.792 11.3452 3.69615 11.2567 3.60031C11.1683 3.50446 11.0773 3.41354 10.9864 3.32261L10.7701 3.1727L10.7161 3.12109C10.6399 3.04981 10.5613 2.981 10.4703 2.9122L10.4089 2.85813L10.2319 2.70822L10.1459 2.63941L9.98865 2.51654L9.89526 2.44526L9.73796 2.33222L9.64459 2.26585L9.47502 2.15281L9.39391 2.1012L9.14817 1.94637L8.97859 1.853L8.93189 1.82842L8.80411 1.76206L8.75987 1.73994L8.59521 1.6613H8.57063L8.43056 1.59986L8.37895 1.57775L8.28556 1.54088L8.2315 1.51876L8.13319 1.45241H8.09141L7.94643 1.40572H7.92676L7.80387 1.36886H7.77439L7.56058 1.31725H7.54584C7.47526 1.30058 7.40391 1.28746 7.33204 1.27793C7.27306 1.26809 7.21408 1.26072 7.15509 1.25581H7.11822H6.94865H6.75206H6.59969H6.56528H6.44732H6.41537L6.27528 1.27547H6.2458L6.13767 1.29759H6.1008L5.97056 1.33199L5.85013 1.37131H5.81572L5.71496 1.41063H5.69039L5.56996 1.4647L5.54293 1.47944L5.44956 1.5286L5.40039 1.55317L7.52619 0.324396L7.55567 0.307194H7.57533L7.66872 0.258043L7.69821 0.243298L7.80143 0.191689H7.81863L7.92676 0.142538L7.96361 0.13025L8.09141 0.0909293L8.22167 0.0565237H8.25608L8.36667 0.0245756H8.39615L8.53378 0H8.56819H8.68369H8.71809H8.87046H9.07443C9.13096 0 9.18748 -1.37974e-09 9.244 0.0122877H9.28087L9.45782 0.0344057C9.52908 0.0344057 9.60035 0.0589811 9.67161 0.0737265H9.68637C9.75682 0.0884719 9.82808 0.105675 9.90017 0.125335H9.91737H9.93211L10.0574 0.159741H10.0796L10.2172 0.223637H10.259L10.3622 0.2605L10.4163 0.282618L10.5096 0.319481L10.549 0.334226H10.5735L10.7112 0.395665H10.7382L10.9004 0.474307L10.9446 0.496424L11.0724 0.56278L11.1216 0.587354L11.2862 0.700402C11.3698 0.749552 11.4558 0.801161 11.532 0.855228L11.6131 0.909293L11.7777 1.02234L11.8711 1.08624L12.0235 1.20666L12.1169 1.27793L12.2742 1.4008L12.3602 1.47207C12.4216 1.51876 12.4806 1.57037 12.5396 1.61952L12.5986 1.67359C12.6772 1.7424 12.7558 1.81121 12.832 1.88494C12.8512 1.90002 12.8693 1.91644 12.8861 1.93409L13.0335 2.07663L13.0557 2.09874C13.1466 2.18969 13.2375 2.28306 13.326 2.37644C13.4145 2.4723 13.5029 2.56813 13.5889 2.66644L13.6111 2.69102L13.7069 2.80652L13.8175 2.92694L13.9404 3.07685C13.9699 3.11863 14.0043 3.15794 14.0338 3.19728L14.051 3.21939C14.1124 3.29804 14.1739 3.37667 14.2328 3.46515L14.2476 3.48726C14.3017 3.55854 14.3532 3.63226 14.4049 3.70352L14.4245 3.73548L14.4761 3.81167C14.5228 3.87556 14.5671 3.94191 14.6088 4.00826L14.6678 4.09674L14.7121 4.16309L14.8054 4.313L14.8399 4.36952C14.889 4.45063 14.9382 4.53172 14.9848 4.61528L15.0045 4.64476L15.0414 4.71113C15.0831 4.78485 15.1249 4.85857 15.1642 4.9323C15.179 4.95933 15.1937 4.98391 15.206 5.01094L15.2355 5.06256C15.2748 5.13874 15.3166 5.21493 15.3535 5.29111L15.3658 5.31322C15.3977 5.37957 15.4321 5.44593 15.4641 5.51474L15.4936 5.57863C15.5083 5.60567 15.5206 5.6327 15.5329 5.65974C15.5697 5.73837 15.6066 5.81948 15.641 5.9055C15.641 5.92515 15.6582 5.94235 15.6656 5.96202C15.673 5.98167 15.6656 5.9743 15.6656 5.98167C15.7049 6.07261 15.7418 6.16107 15.7786 6.252C15.7786 6.27657 15.7983 6.30115 15.8057 6.32328C15.813 6.34539 15.8425 6.4142 15.8597 6.45844C15.8769 6.50267 15.8819 6.51987 15.8941 6.54937C15.9064 6.57885 15.9163 6.61326 15.9285 6.64276C15.958 6.72385 15.9875 6.80741 16.0146 6.88852C16.0146 6.90572 16.0146 6.92537 16.0342 6.94257V6.95731C16.0662 7.05317 16.0957 7.15146 16.1252 7.24731C16.1252 7.27435 16.1424 7.29893 16.1497 7.32596C16.1571 7.35298 16.1841 7.44146 16.1989 7.49798C16.2041 7.51489 16.2082 7.53213 16.2112 7.54959C16.2259 7.59383 16.2357 7.64052 16.248 7.68476C16.2603 7.729 16.28 7.80517 16.2923 7.86661C16.3045 7.92805 16.3144 7.96 16.3242 8.0067C16.334 8.05339 16.3414 8.07059 16.3488 8.105C16.3561 8.13941 16.366 8.18856 16.3734 8.23033V8.26474C16.393 8.36304 16.4078 8.45889 16.425 8.55472V8.60387C16.425 8.68252 16.4495 8.7587 16.4594 8.83735C16.4594 8.84963 16.4594 8.86439 16.4594 8.87913C16.4594 8.89387 16.4594 8.94302 16.4594 8.97496L16.4815 9.17894V9.28217C16.4815 9.35098 16.4815 9.41978 16.4815 9.48615C16.4815 9.5525 16.4815 9.55004 16.4815 9.57952C16.4815 9.67783 16.5606 9.71715 16.5606 9.813L14.3557 11.0983C14.3557 11.0024 14.3557 10.9041 14.3557 10.8083C14.3557 10.7764 14.3557 10.7469 14.3557 10.7149C14.3557 10.683 14.4122 10.5601 14.4073 10.4913Z" fill="#828282"/>
</g>
<defs>
<clipPath id="clip0_1195_934">
<rect width="45" height="60" fill="white"/>
</clipPath>
</defs>
</svg>
