<svg width="24" height="24" viewBox="0 0 24 24" fill="none" xmlns="http://www.w3.org/2000/svg">
<path d="M24 12.009C24 15.1924 22.7342 18.2451 20.4815 20.4943C18.2289 22.7436 15.1743 24.0048 11.991 24C5.36855 24 1.3625e-05 18.6315 1.3625e-05 12.009C-0.00478182 8.82571 1.25645 5.77112 3.50571 3.51846C5.75496 1.26581 8.80762 0 11.991 0C18.6234 0 24 5.37663 24 12.009Z" fill="#EDECEB"/>
<path d="M16.9181 14.7625L14.1649 12.0093L16.9181 9.23797C17.4078 8.62339 17.356 7.73872 16.798 7.18542C16.2401 6.63213 15.355 6.58777 14.7445 7.0825L11.9913 9.83571L9.23813 7.0825C8.62767 6.58777 7.74261 6.63213 7.18467 7.18542C6.62673 7.73872 6.57497 8.62339 7.06458 9.23797L9.81778 12.0093L7.06458 14.7625C6.5231 15.3718 6.55034 16.2975 7.12672 16.8739C7.70311 17.4503 8.62884 17.4776 9.23813 16.9361L11.9913 14.1648L14.7445 16.9361C15.3538 17.4776 16.2796 17.4503 16.856 16.8739C17.4323 16.2975 17.4596 15.3718 16.9181 14.7625Z" fill="#B8B8B8"/>
</svg>
