<svg width="55" height="49" viewBox="0 0 55 49" fill="none" xmlns="http://www.w3.org/2000/svg">
<ellipse cx="14.6068" cy="4.17152" rx="14.6068" ry="4.17152" transform="matrix(0.999655 -0.0262543 0 1 12.9558 40.2036)" fill="black" fill-opacity="0.1"/>
<path fill-rule="evenodd" clip-rule="evenodd" d="M17.5958 9.11057L9.79283 21.4819C9.35202 22.1808 9.10437 22.9228 9.10437 23.5447V34.5547C9.10437 35.1767 9.35204 35.6276 9.7929 35.8082C9.7929 35.8082 13.5468 38.0525 14.7087 38.5286C16.1478 39.1183 17.5958 39.0056 17.5958 39.0056C18.0366 39.1863 18.6346 39.0819 19.258 38.7154L30.2947 32.2279C30.9182 31.8614 31.5161 31.2629 31.957 30.564L39.7599 18.1934C40.2007 17.4945 40.4484 16.7524 40.4484 16.1305L43.4654 8.91014C43.4654 8.7284 44.7809 6.83486 44.74 6.6848C44.6408 6.32136 40.0719 3.99486 39.7599 3.86699L31.957 0.668916C31.5162 0.488225 30.9182 0.592613 30.2947 0.959115L19.2581 7.4465C18.6346 7.813 18.0366 8.41159 17.5958 9.11057Z" fill="#F06A21"/>
<path fill-rule="evenodd" clip-rule="evenodd" d="M22.2989 11.7629L14.496 24.1342C14.0551 24.8331 13.8075 25.5751 13.8075 26.1971V37.2071C13.8075 37.829 14.0552 38.2799 14.496 38.4606L22.2989 41.658C22.7398 41.8386 23.3377 41.7342 23.9612 41.3677L34.9979 34.8803C35.6213 34.5138 36.2193 33.9152 36.6601 33.2163L44.463 20.8458C44.9039 20.1469 45.1515 19.4048 45.1515 18.7828V7.77281C45.1515 7.15089 44.9039 6.7 44.4631 6.51933L36.6601 3.32126C36.2193 3.14057 35.6213 3.24496 34.9978 3.61146L23.9612 10.0988C23.3377 10.4653 22.7397 11.0639 22.2989 11.7629Z" fill="#FFA841"/>
<g opacity="0.1">
<path d="M32.6059 10.3287C31.7865 10.0241 31.6381 8.92556 32.3471 8.41333L35.1138 6.41475C35.6031 6.06131 36.2854 6.1726 36.6378 6.66333L38.9001 9.8136C39.2525 10.3043 39.1415 10.9887 38.6523 11.3421L37.9967 11.8156C37.7017 12.0288 37.3202 12.0806 36.9793 11.9539L32.6059 10.3287Z" fill="black"/>
<path d="M33.3022 9.42509C32.7512 8.98456 32.7544 8.14365 33.3088 7.70736L35.3869 6.07187C35.9163 5.65524 36.6918 5.81345 37.0168 6.40439L38.7095 9.48164C39.0903 10.174 38.6363 11.0305 37.8511 11.1012L36.0828 11.2604C35.8031 11.2856 35.5244 11.2016 35.3047 11.026L33.3022 9.42509Z" fill="black"/>
<path d="M27.8657 37.9586C27.1913 38.3528 26.3514 37.8321 26.4014 37.0508L26.6872 32.5847C26.7217 32.0456 27.1854 31.6366 27.723 31.6712L32.4801 31.9774C33.0176 32.012 33.4253 32.4771 33.3908 33.0162L33.3102 34.2756C33.2894 34.6006 33.1087 34.894 32.8281 35.058L27.8657 37.9586Z" fill="black"/>
<path d="M29.191 36.4213C28.6686 36.6294 28.0794 36.3529 27.9042 35.8172L26.9413 32.8742C26.7313 32.2324 27.2178 31.5753 27.8911 31.5914L32.7361 31.7068C33.3538 31.7215 33.8023 32.3013 33.6632 32.905L33.3382 34.3149C33.2661 34.6276 33.0456 34.885 32.7481 35.0035L29.191 36.4213Z" fill="black"/>
<path d="M37.8511 14.1762C37.5982 13.4355 38.2722 12.7118 39.0262 12.9144L43.3363 14.0728C43.8566 14.2126 44.1653 14.7489 44.0259 15.2707L42.3054 19.6336C42.166 20.1554 42.118 20.7203 41.5977 20.5804L40.3824 20.2538C40.0687 20.1695 39.8174 19.9341 39.7122 19.626L37.8511 14.1762Z" fill="black"/>
<path d="M34.0847 23.9436C33.4881 23.0506 34.1263 21.8513 35.1981 21.8513H38.0479C38.1888 21.8513 38.3247 21.8732 38.4523 21.9136C39.5255 22.2539 39.2259 23.7437 38.9065 24.8233C38.5871 25.903 38.5624 27.3928 37.4892 27.7331C37.3616 27.7735 37.2257 27.7954 37.0848 27.7954H36.602C36.155 27.7954 36.1257 27.6501 35.8769 27.2777L34.0847 23.9436Z" fill="black"/>
<path d="M34.2402 23.9065C33.5939 22.9136 34.4526 21.6289 35.6138 21.8513L36.8949 22.0968C37.5058 22.2138 37.9562 22.737 37.9825 23.3603L38.0815 25.7116C38.1044 26.256 37.76 26.748 37.2417 26.9112C36.7286 27.0728 36.1709 26.8723 35.8769 26.4207L34.2402 23.9065Z" fill="black"/>
<path d="M31.5136 20.1265C30.4011 20.4198 29.4054 19.3633 29.7599 18.2657L30.7292 15.2649C30.9808 14.4859 31.8221 14.0671 32.5928 14.3372L36.323 15.6441C37.08 15.9093 37.4802 16.7388 37.218 17.4987L37.0452 17.9993C36.8865 18.4592 36.5096 18.8094 36.0403 18.9332L31.5136 20.1265Z" fill="black"/>
<path d="M32.5004 18.4463C31.7278 18.5063 31.0439 17.9484 30.9451 17.1776L30.7482 15.6406C30.6327 14.7393 31.358 13.9525 32.263 13.9974L35.8633 14.1762C36.621 14.2138 37.2227 14.8291 37.2455 15.5896L37.2782 16.6808C37.3016 17.4595 36.7109 18.1192 35.9365 18.1794L32.5004 18.4463Z" fill="black"/>
<path d="M22.5548 13.64C22.9912 12.9913 23.9727 13.0936 24.2667 13.8185L25.9162 17.8852C26.1191 18.3856 25.8792 18.9563 25.3803 19.1598L21.0277 20.9357C20.5288 21.1393 19.9598 20.8986 19.7569 20.3982L19.2953 19.2603C19.1728 18.9583 19.2084 18.6149 19.3902 18.3447L22.5548 13.64Z" fill="black"/>
<path d="M22.6992 13.3494C23.1572 12.663 24.2048 12.8196 24.4432 13.6101L25.2608 16.3208C25.3712 16.6867 25.2589 17.0836 24.9733 17.3368L23.0126 19.0753C22.6508 19.396 22.1095 19.403 21.7397 19.0917L20.5708 18.1078C20.1895 17.7868 20.1104 17.2294 20.3872 16.8146L22.6992 13.3494Z" fill="black"/>
<path d="M19.4415 29.478C18.6731 30.0101 17.6237 29.4668 17.6112 28.5304L17.5645 25.0298C17.5555 24.3595 18.1085 23.8186 18.7764 23.8443L22.646 23.9936C23.1992 24.015 23.6614 24.4232 23.7524 24.9709L23.8573 25.602C23.9317 26.0496 23.7415 26.5 23.3692 26.7578L19.4415 29.478Z" fill="black"/>
<path d="M20.1572 28.3673C19.5409 28.6908 18.781 28.4052 18.5284 27.7551L17.8622 26.04C17.6174 25.41 17.9543 24.7036 18.597 24.4992L21.1425 23.6897C21.5269 23.5674 21.947 23.6529 22.2535 23.9156L23.3665 24.8695C23.9946 25.4079 23.8815 26.4124 23.1495 26.7966L20.1572 28.3673Z" fill="black"/>
<path d="M23.8653 39.265C23.8658 40.0475 22.9954 40.5138 22.3472 40.0783L19.881 38.4211C19.4335 38.1205 19.3138 37.5129 19.6136 37.0641L21.5029 34.2357C21.8027 33.7869 22.4084 33.6669 22.8559 33.9675L23.4301 34.3534C23.7002 34.5348 23.8624 34.8393 23.8626 35.1654L23.8653 39.265Z" fill="black"/>
<path d="M23.7651 37.778C23.7236 38.6176 22.7152 39.0171 22.1129 38.4324L21.283 37.6269C21.0499 37.4007 20.9442 37.0731 21.001 36.7528L21.3798 34.6154C21.4971 33.9536 22.2297 33.605 22.815 33.9324L23.3955 34.2571C23.7195 34.4383 23.913 34.7882 23.8946 35.1598L23.7651 37.778Z" fill="black"/>
<path d="M19.881 34.248C20.7599 35.0594 20.3802 36.5259 19.2188 36.8058L16.83 37.3817C16.0282 37.575 15.2221 37.0798 15.0293 36.2757L14.2667 33.0932C14.074 32.289 14.5677 31.4805 15.3694 31.2872L15.6294 31.2245C16.1133 31.1079 16.6233 31.2407 16.9895 31.5787L19.881 34.248Z" fill="black"/>
<path d="M18.597 33.7548C19.3726 34.684 18.4229 36.0439 17.2872 35.6305C17.1744 35.5894 17.0685 35.5314 16.9731 35.4583L15.2282 34.1222C14.3427 33.444 14.5394 32.055 15.5782 31.651C16.1481 31.4294 16.7954 31.5965 17.1877 32.0666L18.597 33.7548Z" fill="black"/>
</g>
<path d="M35.6069 10.1814C33.8989 9.54669 33.591 7.25703 35.07 6.18868C36.0907 5.45133 37.5136 5.68274 38.2481 6.70553L39.5115 8.46492C40.0335 9.19174 39.8686 10.2057 39.1432 10.7297C38.7056 11.0458 38.14 11.1227 37.6346 10.935L35.6069 10.1814Z" fill="#660000"/>
<path d="M35.2887 9.3578C34.1923 8.48124 34.1996 6.80765 35.3036 5.93876C36.3581 5.10893 37.9021 5.42304 38.5489 6.59898L38.9487 7.32582C39.6493 8.59945 38.8126 10.176 37.3672 10.3061C36.8524 10.3524 36.3399 10.1981 35.936 9.87525L35.2887 9.3578Z" fill="#78223D"/>
<path d="M31.3028 35.5657C29.5548 36.5854 27.3753 35.2361 27.5035 33.2137C27.5919 31.8184 28.7935 30.7608 30.1874 30.8514L32.5771 31.0067C33.5684 31.0712 34.3211 31.9279 34.2582 32.9203C34.2203 33.5185 33.8875 34.0581 33.3704 34.3597L31.3028 35.5657Z" fill="#660000"/>
<path d="M31.3437 35.0074C30.1532 35.4805 28.8092 34.85 28.409 33.6306C27.9296 32.17 29.0373 30.6762 30.5719 30.7138L32.6421 30.7646C33.7826 30.7925 34.6117 31.8616 34.3557 32.9743C34.223 33.5506 33.8163 34.0247 33.2673 34.2429L31.3437 35.0074Z" fill="#78223D"/>
<path d="M39.6539 15.5632C39.7504 13.9393 41.6159 13.0853 42.9065 14.0741C43.7971 14.7565 43.9689 16.0323 43.2903 16.9238L42.1247 18.4549C41.6422 19.0887 40.7379 19.2092 40.1047 18.7241C39.7229 18.4316 39.5111 17.968 39.5396 17.4876L39.6539 15.5632Z" fill="#660000"/>
<path d="M40.9192 15.5188C41.1674 14.8198 41.8995 14.4197 42.621 14.5889C43.5887 14.8157 44.0534 15.9251 43.5364 16.7745L42.3431 18.7354C41.9675 19.3525 41.1421 19.5089 40.5658 19.0721C40.1398 18.7493 39.9716 18.187 40.1504 17.6834L40.9192 15.5188Z" fill="#78223D"/>
<path d="M35.4259 24.3332C34.3897 22.782 35.5016 20.7021 37.3671 20.7021C38.6563 20.7021 39.7015 21.7473 39.7015 23.0366V25.2801C39.7015 26.1936 38.9609 26.9341 38.0475 26.9341C37.495 26.9341 36.9789 26.6583 36.6721 26.1988L35.4259 24.3332Z" fill="#660000"/>
<path d="M36.045 23.8572C35.1999 22.559 36.3264 20.882 37.8477 21.1734C38.6482 21.3268 39.2381 22.0105 39.2724 22.8248L39.3579 24.8542C39.3807 25.3964 39.0369 25.8864 38.5193 26.0493C38.0056 26.2111 37.447 26.0108 37.1532 25.5594L36.045 23.8572Z" fill="#78223D"/>
<path d="M30.4975 14.5735C28.9077 14.9926 27.4819 13.4842 27.9877 11.9184C28.3465 10.8077 29.5481 10.2113 30.6496 10.5972L32.5428 11.2606C33.3052 11.5277 33.7087 12.3616 33.4452 13.1251C33.2859 13.5867 32.9074 13.9382 32.4357 14.0625L30.4975 14.5735Z" fill="#660000"/>
<path d="M30.2676 13.5855C29.3274 13.6586 28.4943 12.9799 28.3742 12.0432C28.2342 10.9503 29.1143 9.99758 30.2134 10.0522L31.9987 10.1408C32.8615 10.1836 33.5472 10.8836 33.5731 11.7481C33.5996 12.6312 32.9292 13.3788 32.0494 13.4471L30.2676 13.5855Z" fill="#78223D"/>
<path d="M21.8724 15.0999C22.9914 13.4364 25.5095 13.6954 26.2623 15.5515C26.7817 16.8321 26.1655 18.2934 24.886 18.8155L22.691 19.711C21.7811 20.0823 20.744 19.645 20.3747 18.7344C20.152 18.1853 20.217 17.5609 20.548 17.0689L21.8724 15.0999Z" fill="#660000"/>
<path d="M22.4095 14.2403C23.3497 12.8311 25.5014 13.1495 25.9903 14.7701C26.2164 15.5197 25.9856 16.3331 25.3996 16.8527L24.4958 17.6541C23.8102 18.262 22.7842 18.2758 22.0843 17.6867C21.3646 17.0809 21.2158 16.0293 21.7388 15.2454L22.4095 14.2403Z" fill="#78223D"/>
<path d="M21.6441 27.9608C20.0884 29.0382 17.9605 27.9417 17.9352 26.0495C17.9172 24.696 19.0373 23.6038 20.3899 23.656L22.6367 23.7427C23.4014 23.7722 24.0401 24.335 24.1656 25.0899C24.2679 25.7056 24.0058 26.3252 23.4927 26.6805L21.6441 27.9608Z" fill="#660000"/>
<path d="M21.3297 26.9495C20.2662 27.5077 18.9538 27.0161 18.5189 25.8965C18.0985 24.8144 18.6786 23.602 19.7849 23.2502L21.0892 22.8354C21.7135 22.6368 22.3962 22.7754 22.8936 23.2018C23.9088 24.0719 23.7255 25.6919 22.5416 26.3134L21.3297 26.9495Z" fill="#78223D"/>
<path d="M24.7826 36.4056C24.7836 38.0155 22.9926 38.9733 21.658 38.0766C20.7364 37.4573 20.4893 36.2069 21.106 35.2836L22.1716 33.6884C22.6093 33.033 23.4945 32.8581 24.1487 33.2976C24.5437 33.5631 24.781 34.0083 24.7813 34.4848L24.7826 36.4056Z" fill="#660000"/>
<path d="M24.7296 35.9277C24.6702 37.1297 23.226 37.7003 22.363 36.8627C22.029 36.5385 21.8774 36.0691 21.9587 35.6105L22.2181 34.1471C22.3748 33.2635 23.3532 32.7986 24.1354 33.2361C24.5688 33.4785 24.8276 33.9464 24.803 34.443L24.7296 35.9277Z" fill="#78223D"/>
<path d="M19.1893 32.8346C20.569 34.1083 19.9693 36.4086 18.1427 36.8489C16.8809 37.1531 15.6128 36.3764 15.3103 35.1142L14.7859 32.9261C14.5714 32.0309 15.1229 31.1303 16.0179 30.9145C16.5587 30.7842 17.1285 30.9323 17.537 31.3094L19.1893 32.8346Z" fill="#660000"/>
<path d="M19.0807 33.4276C19.8551 34.3554 18.9027 35.7122 17.7672 35.2989C17.6544 35.2578 17.5486 35.1998 17.4533 35.1269L15.7032 33.7867C14.819 33.1096 15.0171 31.7244 16.0559 31.3204C16.627 31.0983 17.2756 31.2652 17.668 31.7353L19.0807 33.4276Z" fill="#78223D"/>
<path opacity="0.1" fill-rule="evenodd" clip-rule="evenodd" d="M29.2657 34.0444C34.6337 31.0573 35.9075 25.6985 35.9075 25.6985L38.9884 15.6243C38.9884 15.6243 39.2667 14.6016 39.2156 14.6204C36.3465 15.7107 35.7365 17.9593 35.7365 17.9593C35.7365 17.9593 34.6337 21.2776 34.4627 21.3728C34.2917 21.4679 34.2713 21.2792 34.2713 21.2792V11.5622C34.2713 11.5622 34.3249 10.2789 32.9618 11.0374C31.5988 11.7959 31.6677 13.0134 31.6677 13.0134L31.6702 20.1907C31.6702 20.1907 31.6881 20.47 31.4328 20.6121C31.2057 20.7385 31.2184 20.4517 31.2184 20.4517V11.8026C31.2184 11.8026 31.3027 10.3432 29.9243 11.1102C28.5459 11.8772 28.6199 13.2582 28.6199 13.2582L28.6071 21.7987C28.6071 21.7987 28.625 22.0516 28.3978 22.178C28.186 22.2959 28.1936 22.0313 28.1936 22.0313V14.8767C28.1936 14.8767 28.2702 13.3781 26.8663 14.1593C25.4879 14.9263 25.5619 16.3676 25.5619 16.3676L25.5492 23.9295C25.5492 23.9295 25.5747 24.1346 25.3577 24.2553C25.128 24.3832 25.1331 24.161 25.1331 24.161L25.1229 19.5986C25.1229 19.5986 25.1357 18.3284 23.9768 18.9733C22.7439 19.6593 22.7669 20.9097 22.7669 20.9097V30.7689C22.7745 30.7622 22.4555 37.834 29.2657 34.0444Z" fill="black"/>
<path d="M36.0032 9.89307C36.4939 9.92903 36.8529 10.1846 37.0696 10.4966C37.2611 10.7724 37.3268 11.0656 37.3528 11.2388C37.367 11.3334 37.3721 11.4156 37.3743 11.4761C37.3753 11.5065 37.3754 11.5325 37.3752 11.5532V16.9468C37.4945 16.7164 37.6524 16.4474 37.8616 16.1616C38.4628 15.3401 39.469 14.3863 41.0881 13.771L41.0969 13.7671C41.2816 13.6992 41.4401 13.7088 41.51 13.7163C41.5902 13.725 41.6529 13.7425 41.6877 13.7534C41.7572 13.7753 41.8096 13.8011 41.8313 13.812C41.8797 13.8365 41.9187 13.8619 41.9368 13.8735C41.9787 13.9006 42.0221 13.9313 42.0579 13.9575C42.1335 14.0131 42.2311 14.0882 42.3372 14.1714C42.5515 14.3397 42.8287 14.5637 43.1008 14.7847C43.374 15.0065 43.6452 15.2285 43.8479 15.395C43.9493 15.4783 44.0339 15.5475 44.093 15.5962C44.1225 15.6205 44.1455 15.6397 44.1614 15.6528C44.1692 15.6593 44.1758 15.6641 44.1799 15.6675C44.182 15.6692 44.1838 15.6705 44.1848 15.6714L44.1858 15.6724V15.6733L44.7844 16.1675L44.3899 16.8354L38.9885 25.9839C38.9841 26.029 38.9802 26.0808 38.9739 26.1382C38.948 26.3715 38.9048 26.7039 38.8362 27.1099C38.6991 27.9203 38.4584 29.0346 38.0403 30.2495C37.2119 32.6562 35.6415 35.5914 32.6741 37.2427L32.5911 37.2896L32.4993 37.3179C30.3982 37.9618 28.731 37.9465 27.427 37.4263C26.1118 36.9016 25.3033 35.9177 24.8176 34.9077C24.4525 34.1484 24.2598 33.3547 24.1575 32.6753L24.053 32.7661V31.5767C24.0455 31.3948 24.0424 31.2355 24.0432 31.105C24.0439 30.9851 24.0474 30.8887 24.05 30.8218L24.053 30.7466V20.8823C24.0533 20.8627 24.0545 20.8381 24.0559 20.8091C24.0588 20.751 24.0642 20.6738 24.0764 20.5825C24.1007 20.4012 24.151 20.1558 24.2532 19.8813C24.4608 19.3238 24.8877 18.6479 25.7297 18.1792C26.0688 17.9905 26.4498 17.8579 26.845 17.8853L26.8479 16.3657C26.8475 16.3453 26.8474 16.3197 26.8479 16.2896C26.8489 16.2263 26.8525 16.1414 26.8625 16.0405C26.8824 15.84 26.9284 15.5661 27.0315 15.2603C27.2408 14.6395 27.6914 13.8812 28.6194 13.3647C29.0266 13.1382 29.4678 12.9898 29.9143 13.0347C29.9165 13.0042 29.9176 12.9715 29.9211 12.937C29.9415 12.74 29.9875 12.4721 30.092 12.1724C30.3049 11.5618 30.7591 10.8272 31.678 10.3159C32.1046 10.0785 32.5715 9.9231 33.0432 9.99658C33.5557 10.0765 33.8815 10.3937 34.0618 10.7026C34.2487 10.5402 34.4634 10.3827 34.7151 10.2427C35.1303 10.0116 35.5663 9.86112 36.0032 9.89307Z" fill="#C6C6C6" stroke="#C6C6C6" stroke-width="1.81782"/>
<path d="M30.6958 13.3672L31.914 14.4817L32.2539 14.7923L32.2056 15.2514L31.6385 20.5938L29.8674 20.7616L28.2441 15.4189L28.0971 14.9349L28.4293 14.5546L29.4008 13.4397L30.0113 12.7409L30.6958 13.3672Z" fill="#C6C6C6" stroke="#C6C6C6" stroke-width="1.81782"/>
<path d="M33.8638 10.4521L35.082 11.5667L35.4205 11.876L35.374 12.3328L34.8317 17.6273L33.0623 17.8053L31.4134 12.51L31.2627 12.0229L31.5974 11.6396L32.5689 10.5247L33.1794 9.82587L33.8638 10.4521Z" fill="#C6C6C6" stroke="#C6C6C6" stroke-width="1.81782"/>
<path d="M27.764 18.3791L28.9837 19.4797L29.2849 19.7513L29.2845 20.1575L29.2847 25.1001L27.5456 25.4643L25.3499 20.433L25.1062 19.8744L25.5282 19.4368L26.5045 18.4228L27.1127 17.7909L27.764 18.3791Z" fill="#C6C6C6" stroke="#C6C6C6" stroke-width="1.81782"/>
<path d="M39.3244 12.9322L38.5261 16.4749L38.0103 18.7621L36.8523 16.7243L34.4191 12.4446L34.0611 11.8156L34.5925 11.3245L35.6901 10.3114L36.2695 9.77649L36.8797 10.2768L39.013 12.0262L39.4478 12.3831L39.3244 12.9322Z" fill="#C6C6C6" stroke="#C6C6C6" stroke-width="1.81782"/>
<path d="M38.1766 11.6721C38.6672 11.7081 39.0264 11.9637 39.243 12.2756C39.4345 12.5514 39.4993 12.8447 39.5253 13.0178C39.5395 13.1125 39.5456 13.1946 39.5477 13.2551C39.5488 13.2856 39.5488 13.3116 39.5487 13.3323V18.7249C39.668 18.4946 39.8261 18.2261 40.035 17.9407C40.6363 17.1192 41.6425 16.1654 43.2616 15.55L43.2704 15.5461C43.4145 15.4932 43.6292 15.4573 43.8671 15.5344C44.1015 15.6106 44.2499 15.7614 44.3319 15.8782C44.4685 16.0729 44.4881 16.2668 44.4921 16.3C44.5055 16.4129 44.4953 16.5085 44.493 16.5305C44.4855 16.6028 44.4712 16.6776 44.4608 16.7288C44.4377 16.8427 44.4032 16.9854 44.371 17.1145C44.338 17.2466 44.304 17.3781 44.2782 17.4758C44.2652 17.5249 44.2537 17.5661 44.246 17.595C44.2421 17.6094 44.2393 17.6212 44.2372 17.6292C44.2362 17.6328 44.2358 17.6359 44.2352 17.6379L44.2343 17.6409V17.6418L44.2264 17.6692L41.1454 27.7434C41.1432 27.7519 41.1413 27.7614 41.1385 27.7717C41.1257 27.8198 41.1072 27.888 41.0819 27.9729C41.0314 28.1427 40.9546 28.3825 40.8456 28.677C40.6276 29.2657 40.2793 30.0765 39.7548 30.9846C38.7064 32.7998 36.9395 35.0241 34.076 36.6174C32.2914 37.6105 30.827 37.9777 29.621 37.8088C28.3639 37.6328 27.5487 36.8993 27.0536 36.0706C26.7247 35.5198 26.5314 34.918 26.4139 34.3821L26.2264 34.5452V32.7024C26.2262 32.6712 26.2253 32.6438 26.2255 32.6204C26.2256 32.5911 26.2263 32.5681 26.2264 32.5549V22.6614C26.2267 22.6418 26.2279 22.6172 26.2294 22.5881C26.2323 22.53 26.2377 22.4528 26.2499 22.3616C26.2741 22.1802 26.3244 21.9348 26.4266 21.6604C26.6343 21.1028 27.061 20.427 27.9032 19.9583C28.2423 19.7695 28.6231 19.6369 29.0184 19.6643L29.0214 18.1448C29.021 18.1243 29.0209 18.0988 29.0214 18.0686C29.0224 18.0053 29.026 17.9205 29.036 17.8196C29.0559 17.619 29.1009 17.3452 29.204 17.0393C29.4133 16.4185 29.8647 15.6603 30.7928 15.1438C31.2001 14.9172 31.6413 14.7688 32.0878 14.8137C32.0899 14.7833 32.091 14.7506 32.0946 14.7161C32.1149 14.519 32.161 14.2512 32.2655 13.9514C32.4783 13.3409 32.9318 12.6063 33.8505 12.095C34.2772 11.8575 34.7448 11.7021 35.2167 11.7756C35.7284 11.8555 36.0539 12.1721 36.2343 12.4807C36.4211 12.3183 36.6369 12.1618 36.8885 12.0217C37.3038 11.7907 37.7398 11.6402 38.1766 11.6721Z" fill="white" stroke="#C6C6C6" stroke-width="1.81782"/>
</svg>
