<svg width="58" height="51" viewBox="0 0 58 51" fill="none" xmlns="http://www.w3.org/2000/svg">
<g clip-path="url(#clip0_680_2665)">
<path d="M0.322144 0.0644531V46.1368C0.322144 48.3034 2.061 50.0645 4.20873 50.0645H53.4123C55.5563 50.0645 57.2989 48.3072 57.2989 46.1368L57.2952 0.0644531H0.322144ZM22.3357 5.56428H35.2817C36.7135 5.56428 37.8718 6.73479 37.8718 8.18176C37.8718 9.62494 36.7135 10.7992 35.2817 10.7992H22.3357C20.9038 10.7992 19.7456 9.62873 19.7456 8.18176C19.7456 6.73479 20.9038 5.56428 22.3357 5.56428Z" fill="#F1F3F4"/>
<path d="M0.322144 0.0644531V46.1368C0.322144 48.3034 2.061 50.0645 4.20873 50.0645H53.4123C55.5563 50.0645 57.2989 48.3072 57.2989 46.1368L57.2952 0.0644531H0.322144ZM22.3357 5.56428H35.2817C36.7135 5.56428 37.8718 6.73479 37.8718 8.18176C37.8718 9.62494 36.7135 10.7992 35.2817 10.7992H22.3357C20.9038 10.7992 19.7456 9.62873 19.7456 8.18176C19.7456 6.73479 20.9038 5.56428 22.3357 5.56428Z" fill="#F1F3F4"/>
<path d="M0.322144 0.0644531V25.1969H57.2952V0.0644531H0.322144ZM22.3357 5.56428H35.2817C36.7135 5.56428 37.8718 6.73479 37.8718 8.18176C37.8718 9.62494 36.7135 10.7992 35.2817 10.7992H22.3357C20.9038 10.7992 19.7456 9.62873 19.7456 8.18176C19.7456 6.73479 20.9038 5.56428 22.3357 5.56428Z" fill="#E8EAED"/>
<path d="M28.8089 21.2729C19.7045 21.2729 11.7583 26.2694 7.50403 33.7012L10.8965 44.1593L16.1323 50.0645H19.4661L28.8089 33.7049L50.1138 33.7011C45.8595 26.2694 37.9134 21.2729 28.8089 21.2729Z" fill="url(#paint0_linear_680_2665)"/>
<path d="M7.50406 33.7012C4.70557 38.6122 3.62028 44.4029 4.51499 50.0645H16.8497L7.50406 33.7012Z" fill="url(#paint1_linear_680_2665)"/>
<path d="M28.809 33.7048L38.1546 50.0645H53.1029C53.9974 44.4042 52.9122 38.6156 50.1138 33.7048H28.809Z" fill="url(#paint2_linear_680_2665)"/>
<path d="M28.8086 33.7048C22.0167 33.7048 16.5105 39.2709 16.5105 46.1368C16.5105 47.51 16.7348 48.8294 17.1415 50.0645H40.4757C40.8825 48.8294 41.1068 47.51 41.1068 46.1368C41.1068 39.2709 35.6006 33.7048 28.8086 33.7048Z" fill="#F1F3F4"/>
<path d="M28.8089 36.0344C27.4966 36.0344 26.1972 36.2957 24.9848 36.8034C23.7724 37.3111 22.6708 38.0552 21.7429 38.9933C20.815 39.9314 20.0789 41.045 19.5767 42.2707C19.0745 43.4964 18.816 44.81 18.816 46.1367C18.8219 47.4871 19.0954 48.8227 19.6206 50.0644H37.9972C38.5223 48.8227 38.7959 47.4871 38.8017 46.1367C38.8017 44.81 38.5432 43.4964 38.041 42.2707C37.5389 41.045 36.8028 39.9314 35.8749 38.9933C34.9469 38.0552 33.8453 37.3111 32.633 36.8034C31.4206 36.2957 30.1212 36.0344 28.8089 36.0344Z" fill="#1A73E8"/>
<path opacity="0.1" d="M57.2954 25.197H0.322266V25.5228H57.2954V25.197Z" fill="#BDC1C6"/>
<path opacity="0.1" d="M57.2954 24.8674H0.322266V25.1932H57.2954V24.8674Z" fill="#BDC1C6"/>
</g>
<defs>
<linearGradient id="paint0_linear_680_2665" x1="7.50397" y1="36.8126" x2="50.1138" y2="36.8126" gradientUnits="userSpaceOnUse">
<stop stop-color="#D93025"/>
<stop offset="1" stop-color="#EA4335"/>
</linearGradient>
<linearGradient id="paint1_linear_680_2665" x1="31.4736" y1="69.447" x2="9.8261" y2="32.346" gradientUnits="userSpaceOnUse">
<stop stop-color="#1E8E3E"/>
<stop offset="1" stop-color="#34A853"/>
</linearGradient>
<linearGradient id="paint2_linear_680_2665" x1="46.5908" y1="33.6545" x2="24.944" y2="70.7543" gradientUnits="userSpaceOnUse">
<stop stop-color="#FBBC04"/>
<stop offset="1" stop-color="#FCC934"/>
</linearGradient>
<clipPath id="clip0_680_2665">
<rect width="56.9767" height="50" fill="white" transform="translate(0.322144 0.0644531)"/>
</clipPath>
</defs>
</svg>
