<svg width="120" height="24" viewBox="0 0 120 24" fill="none" xmlns="http://www.w3.org/2000/svg">
<path d="M12.2666 0.0644531L15.7838 7.19116L23.6486 8.33398L17.9576 13.8813L19.3011 21.7144L12.2666 18.0161L5.23212 21.7144L6.57559 13.8813L0.884573 8.33398L8.74936 7.19116L12.2666 0.0644531Z" fill="#EDA51E"/>
<path d="M36.2023 0.0644531L39.7195 7.19116L47.5843 8.33398L41.8933 13.8813L43.2368 21.7144L36.2023 18.0161L29.1678 21.7144L30.5113 13.8813L24.8202 8.33398L32.685 7.19116L36.2023 0.0644531Z" fill="#EDA51E"/>
<path d="M60.1376 0.0644531L63.6548 7.19116L71.5196 8.33398L65.8286 13.8813L67.1721 21.7144L60.1376 18.0161L53.1031 21.7144L54.4466 13.8813L48.7555 8.33398L56.6203 7.19116L60.1376 0.0644531Z" fill="#EDA51E"/>
<path d="M84.0731 0.0644531L87.5904 7.19116L95.4551 8.33398L89.7641 13.8813L91.1076 21.7144L84.0731 18.0161L77.0386 21.7144L78.3821 13.8813L72.6911 8.33398L80.5559 7.19116L84.0731 0.0644531Z" fill="#EDA51E"/>
<path d="M108.009 0.0644531L111.526 7.19116L119.391 8.33398L113.7 13.8813L115.043 21.7144L108.009 18.0161L100.974 21.7144L102.318 13.8813L96.6268 8.33398L104.492 7.19116L108.009 0.0644531Z" fill="#EDA51E"/>
<path fill-rule="evenodd" clip-rule="evenodd" d="M108.009 18.0162L108.009 18.0161L115.043 21.7144L113.7 13.8813L119.391 8.33398L111.526 7.19116L108.009 0.0644531L108.009 0.0647314V18.0162Z" fill="#CDCDCD"/>
</svg>
