<svg width="55" height="50" viewBox="0 0 55 50" fill="none" xmlns="http://www.w3.org/2000/svg">
<path fill-rule="evenodd" clip-rule="evenodd" d="M9.56203 41.0707C5.87877 39.6192 5.54688 34.5358 9.01015 32.6177L9.0171 37.2174C9.01752 37.4461 9.13959 37.6574 9.33785 37.7718L27.5963 48.1777L9.56203 41.0707Z" fill="#333333" fill-opacity="0.2"/>
<path fill-rule="evenodd" clip-rule="evenodd" d="M10.0525 13.453L32.8947 0.380389C33.3051 0.145526 33.8378 0.033667 34.2987 0.139639C34.9461 0.288715 35.5531 0.492248 35.5516 1.05848L35.5864 22.2693L33.5766 23.4556C34.2343 23.7754 54.2851 33.5252 54.3182 33.5492L54.3666 34.3675C54.3666 34.7206 54.1797 35.0461 53.8739 35.2231C50.4608 37.1981 30.4672 48.7448 30.4672 48.7448C29.8093 49.1248 28.9986 49.1248 28.3409 48.7448L9.3378 37.7717C9.13954 37.6573 9.01747 37.446 9.01705 37.2172L8.98401 15.2894C8.9859 14.5304 9.39336 13.8302 10.0525 13.453Z" fill="#C6C6C6"/>
<path fill-rule="evenodd" clip-rule="evenodd" d="M9.65698 37.1453L35.6063 22.3535L35.6597 1.18943C35.6614 0.577984 35.0001 0.194046 34.4691 0.497875L10.5399 14.1927C10.0188 14.4908 9.69697 15.0442 9.69529 15.6439L9.65698 37.1453Z" fill="#666666"/>
<path fill-rule="evenodd" clip-rule="evenodd" d="M34.5923 1.72681L10.8358 15.3495L10.7864 35.2741L34.5923 21.6216V1.72681Z" fill="#03BCFC"/>
<path fill-rule="evenodd" clip-rule="evenodd" d="M9.672 37.1436L35.6076 22.2009L53.9492 32.7914C54.4792 33.0975 54.479 33.8614 53.9492 34.1671L30.072 47.9523C29.5521 48.2526 28.9114 48.2526 28.3914 47.9523L9.672 37.1436Z" fill="#F4F4F4"/>
<path fill-rule="evenodd" clip-rule="evenodd" d="M16.8501 37.6036C16.3337 37.8999 16.0754 38.0481 15.5589 38.3446C15.0366 38.0494 14.7756 37.902 14.2534 37.6072C14.7699 37.3109 15.0281 37.1627 15.5446 36.8662C16.0668 37.1614 16.328 37.3088 16.8501 37.6036Z" fill="#C6C6C6"/>
<path fill-rule="evenodd" clip-rule="evenodd" d="M18.756 36.5103C18.2395 36.8066 17.9813 36.9548 17.4648 37.2511C16.9427 36.9561 16.6815 36.8087 16.1593 36.5139C16.6758 36.2174 16.934 36.0692 17.4505 35.7729C17.9729 36.0679 18.2339 36.2153 18.756 36.5103Z" fill="#C6C6C6"/>
<path fill-rule="evenodd" clip-rule="evenodd" d="M20.6622 35.4164C20.1458 35.7126 19.8875 35.8609 19.3708 36.1571C18.8487 35.8623 18.5875 35.7149 18.0653 35.42C18.582 35.1235 18.8402 34.9755 19.3567 34.6792C19.8789 34.974 20.1401 35.1216 20.6622 35.4164Z" fill="#C6C6C6"/>
<path fill-rule="evenodd" clip-rule="evenodd" d="M22.5686 34.3233C22.0519 34.6196 21.7937 34.7678 21.2772 35.0641C20.755 34.7693 20.4938 34.6217 19.9717 34.3267C20.4882 34.0304 20.7464 33.8822 21.2631 33.5859C21.7853 33.8807 22.0464 34.0281 22.5686 34.3233Z" fill="#C6C6C6"/>
<path fill-rule="evenodd" clip-rule="evenodd" d="M24.4747 33.2294C23.9583 33.5258 23.6998 33.6741 23.1833 33.9703C22.6609 33.6755 22.4 33.5279 21.8778 33.2332C22.3943 32.9367 22.6525 32.7887 23.169 32.4922C23.6914 32.7872 23.9526 32.9346 24.4747 33.2294Z" fill="#C6C6C6"/>
<path fill-rule="evenodd" clip-rule="evenodd" d="M26.381 32.1359C25.8643 32.4323 25.6061 32.5806 25.0896 32.8768C24.5674 32.5818 24.3062 32.4344 23.7841 32.1396C24.3005 31.8434 24.559 31.6952 25.0755 31.3987C25.5976 31.6937 25.8588 31.8411 26.381 32.1359Z" fill="#C6C6C6"/>
<path fill-rule="evenodd" clip-rule="evenodd" d="M28.2871 31.0426C27.7704 31.3388 27.5122 31.4871 26.9957 31.7835C26.4735 31.4885 26.2123 31.3409 25.6902 31.0461C26.2067 30.7499 26.4649 30.6014 26.9816 30.3052C27.5038 30.6002 27.7647 30.7476 28.2871 31.0426Z" fill="#C6C6C6"/>
<path fill-rule="evenodd" clip-rule="evenodd" d="M30.1931 29.9491C29.6764 30.2453 29.4182 30.3936 28.9017 30.6898C28.3795 30.395 28.1184 30.2476 27.5962 29.9526C28.1127 29.6562 28.3709 29.5081 28.8876 29.2117C29.4098 29.5067 29.671 29.6543 30.1931 29.9491Z" fill="#C6C6C6"/>
<path fill-rule="evenodd" clip-rule="evenodd" d="M32.0994 28.8556C31.5829 29.1521 31.3244 29.3001 30.808 29.5963C30.2856 29.3016 30.0246 29.1542 29.5024 28.8592C30.0189 28.5629 30.2772 28.4147 30.7939 28.1184C31.316 28.4132 31.5772 28.5606 32.0994 28.8556Z" fill="#C6C6C6"/>
<path fill-rule="evenodd" clip-rule="evenodd" d="M34.0054 27.762C33.4889 28.0583 33.2307 28.2065 32.7142 28.5028C32.192 28.208 31.9308 28.0604 31.4084 27.7654C31.9251 27.4692 32.1834 27.3209 32.6999 27.0247C33.2222 27.3197 33.4832 27.467 34.0054 27.762Z" fill="#C6C6C6"/>
<path fill-rule="evenodd" clip-rule="evenodd" d="M35.9114 26.6686C35.3949 26.9648 35.1369 27.1131 34.6202 27.4095C34.098 27.1143 33.8369 26.9669 33.3147 26.6721C33.8314 26.3757 34.0896 26.2277 34.6061 25.9314C35.1283 26.2262 35.3892 26.3738 35.9114 26.6686Z" fill="#C6C6C6"/>
<path fill-rule="evenodd" clip-rule="evenodd" d="M37.8176 25.5752C37.3011 25.8714 37.0427 26.0194 36.5262 26.3159C36.0041 26.0209 35.7431 25.8735 35.2207 25.5785C35.7372 25.2823 35.9956 25.1342 36.5121 24.8378C37.0341 25.1328 37.2955 25.2802 37.8176 25.5752Z" fill="#C6C6C6"/>
<path fill-rule="evenodd" clip-rule="evenodd" d="M18.6826 38.6385C18.1661 38.9348 17.9079 39.083 17.3912 39.3795C16.869 39.0843 16.6079 38.9369 16.0857 38.6421C16.6022 38.3458 16.8604 38.1974 17.3769 37.9011C17.8991 38.1961 18.1605 38.3437 18.6826 38.6385Z" fill="#C6C6C6"/>
<path fill-rule="evenodd" clip-rule="evenodd" d="M20.5887 37.545C20.0723 37.8413 19.814 37.9893 19.2973 38.2858C18.7752 37.9908 18.514 37.8434 17.9918 37.5484C18.5083 37.2519 18.7665 37.1039 19.2832 36.8076C19.8054 37.1024 20.0666 37.25 20.5887 37.545Z" fill="#C6C6C6"/>
<path fill-rule="evenodd" clip-rule="evenodd" d="M22.4948 36.4517C21.9782 36.748 21.7199 36.8962 21.2034 37.1925C20.6813 36.8977 20.4199 36.7503 19.8977 36.4551C20.4144 36.1588 20.6726 36.0106 21.1891 35.7144C21.7115 36.0094 21.9725 36.1567 22.4948 36.4517Z" fill="#C6C6C6"/>
<path fill-rule="evenodd" clip-rule="evenodd" d="M24.4011 35.3582C23.8844 35.6545 23.6262 35.8027 23.1097 36.099C22.5873 35.804 22.3261 35.6564 21.804 35.3616C22.3204 35.0653 22.5787 34.9171 23.0954 34.6208C23.6175 34.9156 23.8787 35.063 24.4011 35.3582Z" fill="#C6C6C6"/>
<path fill-rule="evenodd" clip-rule="evenodd" d="M26.3072 34.2643C25.7905 34.5607 25.5323 34.709 25.0156 35.0052C24.4934 34.7102 24.2322 34.5628 23.7101 34.2679C24.2266 33.9716 24.4848 33.8234 25.0015 33.5271C25.5237 33.8219 25.7848 33.9695 26.3072 34.2643Z" fill="#C6C6C6"/>
<path fill-rule="evenodd" clip-rule="evenodd" d="M28.2133 33.171C27.6967 33.4675 27.4384 33.6155 26.9219 33.9119C26.3996 33.6169 26.1384 33.4696 25.6162 33.1748C26.1329 32.8783 26.3911 32.7303 26.9076 32.4336C27.43 32.7288 27.691 32.8762 28.2133 33.171Z" fill="#C6C6C6"/>
<path fill-rule="evenodd" clip-rule="evenodd" d="M30.1194 32.0777C29.6029 32.374 29.3447 32.5222 28.8282 32.8185C28.3058 32.5235 28.0446 32.3761 27.5225 32.0813C28.0389 31.7846 28.2974 31.6366 28.8139 31.3403C29.336 31.6351 29.5972 31.7827 30.1194 32.0777Z" fill="#C6C6C6"/>
<path fill-rule="evenodd" clip-rule="evenodd" d="M32.0257 30.984C31.509 31.2802 31.2508 31.4285 30.7343 31.7247C30.2119 31.4299 29.9508 31.2823 29.4286 30.9873C29.9451 30.6911 30.2035 30.5428 30.72 30.2466C31.2422 30.5414 31.5034 30.689 32.0257 30.984Z" fill="#C6C6C6"/>
<path fill-rule="evenodd" clip-rule="evenodd" d="M33.932 29.8902C33.4153 30.1867 33.157 30.3347 32.6404 30.631C32.1182 30.3362 31.857 30.1888 31.3348 29.8936C31.8513 29.5973 32.1096 29.4493 32.6263 29.1528C33.1486 29.4478 33.4096 29.5952 33.932 29.8902Z" fill="#C6C6C6"/>
<path fill-rule="evenodd" clip-rule="evenodd" d="M35.8379 28.7967C35.3214 29.0932 35.0629 29.2415 34.5467 29.5377C34.0243 29.2427 33.7631 29.0951 33.2407 28.8003C33.7574 28.5041 34.0157 28.3558 34.5321 28.0596C35.0545 28.3544 35.3155 28.502 35.8379 28.7967Z" fill="#C6C6C6"/>
<path fill-rule="evenodd" clip-rule="evenodd" d="M37.7439 27.7032C37.2275 27.9995 36.9692 28.1477 36.4527 28.444C35.9304 28.149 35.6694 28.0016 35.1472 27.7066C35.6637 27.4103 35.9217 27.2623 36.4382 26.9658C36.9606 27.2608 37.2218 27.4082 37.7439 27.7032Z" fill="#C6C6C6"/>
<path fill-rule="evenodd" clip-rule="evenodd" d="M39.6498 26.6101C38.7839 27.1067 38.3508 27.3552 37.4849 27.8519C36.9626 27.5571 36.7014 27.4097 36.1792 27.1147C37.0453 26.6178 37.4782 26.3695 38.3443 25.8727C38.8664 26.1677 39.1276 26.3151 39.6498 26.6101Z" fill="#C6C6C6"/>
<path fill-rule="evenodd" clip-rule="evenodd" d="M21.3685 39.1839C20.5106 39.6761 20.0817 39.9222 19.2238 40.4142C18.7017 40.1192 18.4405 39.9718 17.9183 39.677C18.776 39.1848 19.2049 38.9388 20.0628 38.4465C20.5849 38.7415 20.8461 38.8889 21.3685 39.1839Z" fill="#C6C6C6"/>
<path fill-rule="evenodd" clip-rule="evenodd" d="M22.4213 38.5799C21.9048 38.8762 21.6465 39.0244 21.1301 39.3207C20.6077 39.0257 20.3465 38.8783 19.8243 38.5833C20.3408 38.2868 20.5991 38.1388 21.1155 37.8425C21.6379 38.1373 21.8991 38.2847 22.4213 38.5799Z" fill="#C6C6C6"/>
<path fill-rule="evenodd" clip-rule="evenodd" d="M24.3274 37.4864C23.8107 37.7829 23.5524 37.9309 23.0359 38.2272C22.5136 37.9324 22.2526 37.785 21.7302 37.4898C22.2467 37.1935 22.5052 37.0455 23.0216 36.749C23.5438 37.044 23.805 37.1914 24.3274 37.4864Z" fill="#C6C6C6"/>
<path fill-rule="evenodd" clip-rule="evenodd" d="M26.2336 36.3929C25.7169 36.6894 25.4587 36.8376 24.942 37.1339C24.4198 36.8389 24.1586 36.6913 23.6365 36.3965C24.153 36.1003 24.4112 35.952 24.9279 35.6558C25.4501 35.9505 25.7112 36.0979 26.2336 36.3929Z" fill="#C6C6C6"/>
<path fill-rule="evenodd" clip-rule="evenodd" d="M28.1397 35.2994C27.623 35.5959 27.3648 35.7439 26.8481 36.0404C26.326 35.7454 26.0648 35.598 25.5426 35.303C26.0591 35.0067 26.3173 34.8585 26.834 34.562C27.3562 34.857 27.6174 35.0046 28.1397 35.2994Z" fill="#C6C6C6"/>
<path fill-rule="evenodd" clip-rule="evenodd" d="M30.046 34.2059C29.5293 34.5024 29.271 34.6504 28.7545 34.9469C28.2322 34.6519 27.971 34.5045 27.4486 34.2095C27.9653 33.913 28.2235 33.765 28.7402 33.4685C29.2624 33.7637 29.5236 33.9111 30.046 34.2059Z" fill="#C6C6C6"/>
<path fill-rule="evenodd" clip-rule="evenodd" d="M31.9518 33.1124C31.4353 33.4086 31.1771 33.5569 30.6604 33.8531C30.1382 33.5584 29.877 33.4107 29.3549 33.1158C29.8713 32.8195 30.1296 32.6713 30.6463 32.375C31.1684 32.6698 31.4296 32.8174 31.9518 33.1124Z" fill="#C6C6C6"/>
<path fill-rule="evenodd" clip-rule="evenodd" d="M33.8582 32.0189C33.3416 32.3151 33.0833 32.4634 32.5668 32.7596C32.0445 32.4648 31.7833 32.3175 31.2611 32.0222C31.7776 31.726 32.0358 31.5778 32.5525 31.2815C33.0747 31.5763 33.3359 31.7239 33.8582 32.0189Z" fill="#C6C6C6"/>
<path fill-rule="evenodd" clip-rule="evenodd" d="M35.7643 30.9254C35.2478 31.2218 34.9896 31.3699 34.4729 31.6663C33.9507 31.3713 33.6895 31.2237 33.1674 30.9287C33.6838 30.6325 33.9421 30.4845 34.4588 30.188C34.9809 30.483 35.2421 30.6304 35.7643 30.9254Z" fill="#C6C6C6"/>
<path fill-rule="evenodd" clip-rule="evenodd" d="M37.6704 29.8319C37.1539 30.1283 36.8955 30.2766 36.379 30.5728C35.8568 30.2778 35.5956 30.1302 35.0735 29.8354C35.59 29.5392 35.8484 29.391 36.3649 29.0945C36.8871 29.3895 37.148 29.5371 37.6704 29.8319Z" fill="#C6C6C6"/>
<path fill-rule="evenodd" clip-rule="evenodd" d="M39.5765 28.7384C39.06 29.0346 38.8017 29.1826 38.2852 29.4793C37.7629 29.1841 37.5019 29.0367 36.9797 28.7417C37.4962 28.4455 37.7542 28.2972 38.2707 28.001C38.7931 28.296 39.0543 28.4434 39.5765 28.7384Z" fill="#C6C6C6"/>
<path fill-rule="evenodd" clip-rule="evenodd" d="M41.4824 27.645C40.9659 27.9412 40.7077 28.0893 40.1912 28.3855C39.6691 28.0907 39.4079 27.9433 38.8855 27.6483C39.402 27.3519 39.6604 27.2039 40.1769 26.9076C40.6991 27.2024 40.9603 27.35 41.4824 27.645Z" fill="#C6C6C6"/>
<path fill-rule="evenodd" clip-rule="evenodd" d="M22.3478 40.7083C21.8313 41.0046 21.5731 41.1528 21.0564 41.4491C20.5342 41.1541 20.273 41.0067 19.7509 40.7117C20.2673 40.4154 20.5256 40.2672 21.0421 39.9709C21.5642 40.2657 21.8254 40.4133 22.3478 40.7083Z" fill="#C6C6C6"/>
<path fill-rule="evenodd" clip-rule="evenodd" d="M24.2537 39.6151C23.7372 39.9113 23.4789 40.0596 22.9625 40.3558C22.4401 40.0608 22.1789 39.9134 21.6567 39.6184C22.1732 39.3222 22.4315 39.1739 22.9479 38.8777C23.4703 39.1725 23.7313 39.3201 24.2537 39.6151Z" fill="#C6C6C6"/>
<path fill-rule="evenodd" clip-rule="evenodd" d="M26.1596 38.5213C25.6431 38.8178 25.3848 38.9658 24.8683 39.2621C24.346 38.9673 24.085 38.8197 23.5626 38.5247C24.0793 38.2284 24.3376 38.0804 24.854 37.7839C25.3762 38.0789 25.6374 38.2263 26.1596 38.5213Z" fill="#C6C6C6"/>
<path fill-rule="evenodd" clip-rule="evenodd" d="M28.066 37.4278C27.5493 37.7241 27.2911 37.8725 26.7744 38.1688C26.2522 37.8738 25.991 37.7262 25.4689 37.4314C25.9854 37.1351 26.2436 36.9869 26.7603 36.6904C27.2824 36.9854 27.5436 37.133 28.066 37.4278Z" fill="#C6C6C6"/>
<path fill-rule="evenodd" clip-rule="evenodd" d="M29.972 36.3343C29.4556 36.6308 29.1973 36.7788 28.6806 37.0753C28.1585 36.7803 27.8973 36.6329 27.3751 36.3379C27.8916 36.0416 28.1501 35.8934 28.6665 35.5969C29.1887 35.8921 29.4499 36.0395 29.972 36.3343Z" fill="#C6C6C6"/>
<path fill-rule="evenodd" clip-rule="evenodd" d="M31.8782 35.2406C31.3617 35.5371 31.1035 35.6851 30.5868 35.9816C30.0646 35.6866 29.8034 35.5392 29.2812 35.2444C29.7977 34.9477 30.0562 34.7997 30.5727 34.5034C31.0948 34.7982 31.356 34.9458 31.8782 35.2406Z" fill="#C6C6C6"/>
<path fill-rule="evenodd" clip-rule="evenodd" d="M33.7844 34.1473C33.2679 34.4436 33.0097 34.5918 32.493 34.8881C31.9709 34.5933 31.7097 34.4457 31.1875 34.1507C31.704 33.8544 31.9622 33.7062 32.4789 33.4099C33.0011 33.7047 33.2623 33.8523 33.7844 34.1473Z" fill="#C6C6C6"/>
<path fill-rule="evenodd" clip-rule="evenodd" d="M35.6909 33.0538C35.1744 33.3501 34.916 33.4983 34.3993 33.7945C33.8771 33.4998 33.6159 33.3522 33.0938 33.0572C33.6102 32.7609 33.8685 32.6127 34.3852 32.3164C34.9073 32.6114 35.1685 32.7588 35.6909 33.0538Z" fill="#C6C6C6"/>
<path fill-rule="evenodd" clip-rule="evenodd" d="M37.5968 31.9603C37.0803 32.2568 36.8221 32.4048 36.3056 32.7013C35.7832 32.406 35.522 32.2587 34.9999 31.9639C35.5164 31.6674 35.7746 31.5194 36.2913 31.2229C36.8137 31.5179 37.0746 31.6653 37.5968 31.9603Z" fill="#C6C6C6"/>
<path fill-rule="evenodd" clip-rule="evenodd" d="M39.5028 30.8665C38.9863 31.1628 38.7279 31.311 38.2114 31.6075C37.6892 31.3125 37.428 31.1649 36.9059 30.8701C37.4224 30.5739 37.6806 30.4256 38.1973 30.1292C38.7195 30.4244 38.9804 30.5718 39.5028 30.8665Z" fill="#C6C6C6"/>
<path fill-rule="evenodd" clip-rule="evenodd" d="M42.2325 29.3009C41.3867 29.7864 40.9636 30.0288 40.1178 30.5141C39.5954 30.2191 39.3344 30.0717 38.8123 29.7769C39.6579 29.2914 40.0809 29.0488 40.927 28.5635C41.4492 28.8585 41.7101 29.0061 42.2325 29.3009Z" fill="#C6C6C6"/>
<path fill-rule="evenodd" clip-rule="evenodd" d="M43.3149 28.6798C42.7985 28.976 42.5404 29.1241 42.0235 29.4203C41.5016 29.1255 41.2404 28.9781 40.718 28.6829C41.2345 28.3867 41.493 28.2386 42.0094 27.9424C42.5318 28.2372 42.7928 28.3846 43.3149 28.6798Z" fill="#C6C6C6"/>
<path fill-rule="evenodd" clip-rule="evenodd" d="M24.4335 41.8863C23.917 42.1828 23.6588 42.3308 23.1423 42.6271C22.6201 42.3321 22.3589 42.1847 21.8365 41.8899C22.3532 41.5937 22.6115 41.4454 23.128 41.1492C23.6501 41.444 23.9113 41.5914 24.4335 41.8863Z" fill="#C6C6C6"/>
<path fill-rule="evenodd" clip-rule="evenodd" d="M26.3394 40.7926C25.8229 41.0888 25.5647 41.2368 25.0482 41.5333C24.5258 41.2383 24.2648 41.0909 23.7427 40.7961C24.2592 40.4997 24.5174 40.3516 25.0339 40.0552C25.556 40.3502 25.8172 40.4976 26.3394 40.7926Z" fill="#C6C6C6"/>
<path fill-rule="evenodd" clip-rule="evenodd" d="M28.2456 39.6993C27.7291 39.9956 27.4707 40.1438 26.9542 40.4401C26.432 40.1453 26.1708 39.9979 25.6487 39.7029C26.1652 39.4064 26.4234 39.2584 26.9399 38.9619C27.4623 39.2569 27.7234 39.4045 28.2456 39.6993Z" fill="#C6C6C6"/>
<path fill-rule="evenodd" clip-rule="evenodd" d="M39.6825 33.138C36.0752 35.2076 32.4678 37.277 28.8604 39.3466C28.3382 39.0516 28.0771 38.9042 27.5547 38.6092C31.1623 36.5399 34.7696 34.4702 38.377 32.4006C38.8994 32.6956 39.1606 32.8432 39.6825 33.138Z" fill="#C6C6C6"/>
<path fill-rule="evenodd" clip-rule="evenodd" d="M41.5887 32.0448C41.0723 32.341 40.8138 32.4893 40.2973 32.7855C39.7752 32.4905 39.5142 32.3431 38.9918 32.0481C39.5083 31.7519 39.7668 31.6036 40.2832 31.3074C40.8054 31.6022 41.0666 31.7498 41.5887 32.0448Z" fill="#C6C6C6"/>
<path fill-rule="evenodd" clip-rule="evenodd" d="M43.4949 30.951C42.9784 31.2475 42.7199 31.3955 42.2035 31.6918C41.6811 31.397 41.4201 31.2494 40.8979 30.9546C41.4144 30.6582 41.6727 30.5101 42.1894 30.2139C42.7115 30.5087 42.9725 30.656 43.4949 30.951Z" fill="#C6C6C6"/>
<path fill-rule="evenodd" clip-rule="evenodd" d="M45.4007 29.8576C44.8842 30.154 44.6259 30.3023 44.1095 30.5985C43.5873 30.3035 43.3261 30.1561 42.804 29.8611C43.3206 29.5649 43.5787 29.4169 44.0952 29.1206C44.6175 29.4154 44.8785 29.5628 45.4007 29.8576Z" fill="#C6C6C6"/>
<path fill-rule="evenodd" clip-rule="evenodd" d="M30.8395 39.8775L39.7386 34.7446L44.8238 37.8744L35.9281 43.0092L30.8395 39.8775Z" fill="#C6C6C6"/>
<path fill-rule="evenodd" clip-rule="evenodd" d="M9.65698 37.1453L9.69529 15.6439C9.69697 15.0442 10.0188 14.4908 10.5399 14.1927L34.4691 0.497899C34.475 0.494535 34.4809 0.491171 34.4868 0.488017C34.6085 0.422415 34.7362 0.393188 34.861 0.393188C34.8823 0.393188 34.9033 0.39403 34.9244 0.395712C34.6796 0.77208 34.2624 1.40139 33.7064 2.23445L10.8358 15.3493L10.7863 35.274L11.7957 34.6951C11.2694 35.4724 10.812 36.1478 10.4376 36.7004L9.65698 37.1453Z" fill="#999999"/>
<path fill-rule="evenodd" clip-rule="evenodd" d="M10.8259 15.2386L33.7064 2.2345L11.857 34.5616L10.8259 35.2134V15.2386Z" fill="#4ECDF9"/>
<path d="M26.8902 40.738C25.9632 40.2848 25.8521 39.2811 26.6762 38.8053L38.223 32.1387C38.7127 31.856 39.3996 31.8522 39.9445 32.1291L40.8698 32.5994C41.7794 33.0618 41.8737 34.0554 41.0524 34.5236L29.4429 41.1416C28.9615 41.416 28.2918 41.4232 27.7528 41.1597L26.8902 40.738Z" fill="#333333" fill-opacity="0.2"/>
<path d="M40.2688 14.8674L40.3301 14.8406L40.3512 14.831L40.4067 14.81H40.4201L40.4833 14.7755H40.5216H40.5407L40.5982 14.764H40.6824H40.7858H40.8413H40.8662L40.9294 14.7793L40.9868 14.8004H41.0022L41.05 14.8234C41.0551 14.8244 41.0603 14.8244 41.0654 14.8234L36.5274 12.1963H36.5178L36.4623 12.1657L36.4049 12.1466L36.3417 12.1332H36.3091H36.2517H36.2402C36.216 12.1312 36.1916 12.1312 36.1674 12.1332H36.1502C36.1221 12.1313 36.094 12.1313 36.0659 12.1332H36.0085H35.9894H35.953L35.884 12.1542H35.8706L35.8132 12.1772H35.7979L35.7385 12.2059L35.7156 12.2174L35.6351 12.2595L40.1731 14.8961L40.2535 14.854L40.2688 14.8674Z" fill="#FFCA00"/>
<path d="M29.7242 30.0091L25.1863 27.3706C25.1863 27.7708 25.328 28.0503 25.5558 28.1825L30.0938 30.8191C29.8678 30.6889 29.7261 30.4074 29.7242 30.0091Z" fill="#FF9C00"/>
<path d="M29.7032 22.4192L25.1653 19.7806L25.1863 27.3707L29.7243 30.0092L29.7032 22.4192Z" fill="#FFAE00"/>
<path d="M35.6275 12.2844L26.4271 17.5959L30.9651 20.2344L40.1654 14.9229L35.6275 12.2844Z" fill="#FFAE00"/>
<path d="M41.4406 15.6448C41.4406 14.8425 40.8662 14.519 40.1712 14.9211L30.9651 20.2345C30.5974 20.4733 30.2914 20.7958 30.0721 21.1755C29.8528 21.5552 29.7264 21.9813 29.7032 22.4192L29.7243 30.0093C29.7243 30.8115 30.2987 31.1351 30.9938 30.7311L40.1961 25.4196C40.5636 25.1808 40.8694 24.8583 41.0884 24.4786C41.3074 24.0988 41.4333 23.6726 41.456 23.2349L41.4406 15.6448Z" fill="#FF9C00"/>
<path d="M29.709 22.2852C29.709 22.2488 29.709 22.2124 29.7186 22.1761C29.7195 22.1665 29.7195 22.1569 29.7186 22.1473C29.7186 22.1301 29.7186 22.1129 29.7281 22.0956V22.0612C29.7304 22.0444 29.7336 22.0278 29.7377 22.0114V21.9846C29.7473 21.9425 29.7568 21.9003 29.7683 21.8582V21.8371C29.7779 21.8008 29.7894 21.7644 29.8028 21.7261C29.8143 21.6916 29.8277 21.6572 29.8411 21.6208C29.8434 21.6122 29.8466 21.6038 29.8507 21.5959C29.8622 21.5653 29.8736 21.5365 29.887 21.5059V21.4925C29.9005 21.4599 29.9158 21.4274 29.9311 21.3948L29.9426 21.3699L29.9828 21.2953L29.9943 21.2704L30.046 21.1766L30.0575 21.1593L30.1053 21.0789L30.1206 21.0559L30.1857 20.9602L30.1953 20.9468C30.2183 20.9142 30.2413 20.8817 30.2662 20.8511C30.2665 20.8466 30.2665 20.8421 30.2662 20.8377C30.2968 20.7994 30.3274 20.7611 30.36 20.7247L30.3734 20.7113L30.4308 20.6443C30.4538 20.6232 30.4749 20.6002 30.4959 20.5792L30.5093 20.5658C30.5373 20.5374 30.5667 20.5106 30.5974 20.4853L30.6893 20.4087L30.7066 20.3953C30.7372 20.3705 30.7678 20.3494 30.8004 20.3264H30.8176C30.8496 20.3036 31.0703 20.1977 31.1046 20.1785L26.4271 17.5979L26.3256 17.6592L26.3141 17.6707C26.2816 17.6917 26.2509 17.7147 26.2203 17.7377L26.2031 17.753C26.1708 17.7764 26.14 17.802 26.1112 17.8296L26.025 17.91L25.9312 17.9962C25.912 18.0172 25.8929 18.0402 25.8718 18.0613V18.0708C25.8393 18.1072 25.8086 18.1455 25.778 18.1838L25.7091 18.2776L25.6459 18.3734V18.3887L25.5482 18.5151C25.5477 18.5189 25.5477 18.5227 25.5482 18.5266L25.4965 18.6204V18.6357C25.485 18.6606 25.4716 18.6874 25.4582 18.7123C25.4589 18.7174 25.4589 18.7225 25.4582 18.7276V18.7372C25.4429 18.7697 25.4276 18.8023 25.4142 18.8348C25.4142 18.8348 25.4142 18.8348 25.4142 18.8463C25.4142 18.8578 25.3893 18.9057 25.3778 18.9344V18.9497V18.9612L25.3414 19.0665C25.33 19.1029 25.3185 19.1393 25.3089 19.1757C25.3083 19.1801 25.3083 19.1846 25.3089 19.1891C25.2974 19.2312 25.2859 19.2733 25.2783 19.3154C25.2783 19.3154 25.2783 19.3154 25.2783 19.3269C25.2783 19.3384 25.2783 19.3384 25.2783 19.3441C25.274 19.3605 25.2708 19.3771 25.2687 19.3939C25.2678 19.4054 25.2678 19.4169 25.2687 19.4284C25.2696 19.445 25.2696 19.4616 25.2687 19.4782C25.2696 19.4865 25.2696 19.4948 25.2687 19.5031C25.2687 19.5395 25.2687 19.5758 25.2687 19.6122C25.2677 19.6198 25.2677 19.6276 25.2687 19.6352C25.2687 19.6716 25.1653 19.8027 25.1653 19.8391L29.7032 22.4192C29.7032 22.3828 29.7032 22.3446 29.7032 22.3082C29.7042 22.3003 29.7061 22.2926 29.709 22.2852Z" fill="#FFCA00"/>
<path d="M36.5466 10.4501C36.5466 9.6842 36.2727 9.14807 35.8362 8.89341L34.1799 7.93604C34.6165 8.1907 34.8865 8.72874 34.8884 9.49272L34.9018 14.2432L36.56 15.2006L36.5466 10.4501Z" fill="#53597F"/>
<path d="M29.9922 14.2336L28.3359 13.2705L28.3493 18.021L30.0056 18.9841L29.9922 14.2336Z" fill="#53597F"/>
<path d="M38.243 9.4698C38.2353 6.85617 36.378 5.79731 34.1033 7.11657C31.8286 8.43583 29.9847 11.6201 29.9923 14.2337L30.0057 18.988L31.7041 18.0076L31.6888 13.2572C31.6888 11.7254 32.7706 9.83934 34.109 9.06578C35.4474 8.29223 36.5408 8.91452 36.5465 10.454L36.5599 15.2045L38.2564 14.2241L38.243 9.4698Z" fill="#3C4167"/>
<path d="M30.0195 13.82C30.0195 13.7932 30.0195 13.7664 30.0195 13.7396C30.0195 13.7128 30.029 13.6324 30.0348 13.5807C30.0405 13.529 30.0348 13.529 30.0348 13.5041C30.0424 13.4326 30.052 13.3618 30.0635 13.2916V13.2533L30.1037 13.0273V13.0005C30.1152 12.9412 30.1286 12.8837 30.142 12.8244C30.1554 12.765 30.1573 12.7535 30.1669 12.7172L30.2014 12.5755L30.2301 12.4701C30.2454 12.4108 30.2626 12.3534 30.2799 12.2959L30.2971 12.2346C30.3201 12.1561 30.3469 12.0757 30.3718 11.9972C30.3777 11.9835 30.3828 11.9694 30.3871 11.9551C30.4081 11.8919 30.4311 11.8268 30.4541 11.7636C30.4637 11.7387 30.4732 11.7157 30.4809 11.6908L30.5498 11.5147L30.5728 11.4592C30.6035 11.3826 30.6341 11.3079 30.6666 11.2332C30.6666 11.2179 30.68 11.2045 30.6858 11.1892C30.7145 11.1279 30.7413 11.0647 30.77 10.9977L30.8007 10.9345C30.8332 10.8656 30.8677 10.7947 30.9022 10.7258V10.7105C30.9379 10.6377 30.9762 10.565 31.017 10.4922L31.0496 10.4309L31.1453 10.2586C31.1549 10.2414 31.1645 10.2242 31.176 10.2069C31.2162 10.1361 31.2602 10.0633 31.3023 9.99247C31.3124 9.97916 31.3213 9.96508 31.3291 9.95034L31.4364 9.78185L31.4823 9.711L31.5857 9.55974L31.6259 9.50038L31.7638 9.3089L31.7772 9.29167C31.827 9.22274 31.8787 9.15573 31.9304 9.08871L32.005 8.99489C32.0357 8.95659 32.0663 8.91638 32.0989 8.87809L32.1774 8.78618L32.2693 8.67704C32.3363 8.60045 32.4052 8.52577 32.4742 8.4511C32.5431 8.37642 32.6139 8.30558 32.6848 8.23473L32.8533 8.11793L32.8954 8.07772C32.9548 8.0222 33.016 7.96858 33.0869 7.91497L33.1347 7.87285L33.2726 7.75605L33.3396 7.70243L33.4622 7.6067L33.5349 7.55117L33.6575 7.46309L33.7302 7.41139L33.8623 7.32331L33.9255 7.2831L34.117 7.16247L34.2491 7.08971L34.2855 7.07057L34.3851 7.01887L34.4195 7.00164L34.5478 6.94036H34.567L34.6761 6.8925L34.7163 6.87526L34.7891 6.84654L34.8312 6.82931L34.9078 6.77761H34.9404L35.0533 6.74123H35.0686L35.1644 6.71251H35.1874L35.3539 6.6723H35.3654C35.4204 6.65932 35.476 6.64909 35.532 6.64166C35.578 6.634 35.6239 6.62826 35.6699 6.62443H35.6986H35.8307H35.9839H36.1026H36.1294H36.2213H36.2462L36.3553 6.63975H36.3783L36.4626 6.65698H36.4913L36.5928 6.68379L36.6866 6.71442H36.7134L36.7919 6.74506H36.8111L36.9049 6.78718L36.9259 6.79867L36.9987 6.83697L37.037 6.85612L35.3807 5.89874L35.3578 5.88534H35.3424L35.2697 5.84704L35.2467 5.83556L35.1663 5.79535H35.1529L35.0686 5.75705L35.0399 5.74748L34.9404 5.71684L34.8389 5.69004H34.8121L34.7259 5.66514H34.7029L34.5957 5.646H34.5689H34.4789H34.4521H34.3334H34.1745C34.1304 5.646 34.0864 5.646 34.0423 5.65557H34.0136L33.8758 5.6728C33.8202 5.6728 33.7647 5.69195 33.7092 5.70344H33.6977C33.6428 5.71493 33.5873 5.72833 33.5311 5.74365H33.5177H33.5062L33.4086 5.77045H33.3913L33.2841 5.82024H33.2515L33.1711 5.84896L33.129 5.86619L33.0562 5.89491L33.0256 5.9064H33.0065L32.8992 5.95427H32.8782L32.7518 6.01554L32.7173 6.03277L32.6178 6.08447L32.5795 6.10362L32.4512 6.1917C32.3861 6.22999 32.3191 6.2702 32.2597 6.31233L32.1965 6.35445L32.0682 6.44253L31.9955 6.49231L31.8768 6.58614L31.804 6.64166L31.6815 6.7374L31.6144 6.79293C31.5666 6.82931 31.5206 6.86952 31.4747 6.90781L31.4287 6.94994C31.3674 7.00355 31.3062 7.05716 31.2468 7.11461C31.2319 7.12635 31.2178 7.13915 31.2047 7.1529L31.0898 7.26396L31.0726 7.28119C31.0017 7.35203 30.9309 7.42479 30.8619 7.49756C30.793 7.57223 30.7241 7.64691 30.6571 7.7235L30.6398 7.74264L30.5652 7.83264L30.479 7.92646L30.3833 8.04326C30.3603 8.07581 30.3335 8.10644 30.3105 8.13708L30.2971 8.15431C30.2492 8.21558 30.2014 8.27686 30.1554 8.34579L30.1439 8.36302C30.1018 8.41855 30.0616 8.47599 30.0214 8.53152L30.0061 8.55641L29.9658 8.61577C29.9295 8.66555 29.895 8.71725 29.8624 8.76895L29.8165 8.83788L29.782 8.88958L29.7093 9.00637L29.6825 9.05041C29.6442 9.1136 29.6059 9.17679 29.5695 9.24189L29.5542 9.26487L29.5254 9.31656C29.4929 9.37401 29.4603 9.43145 29.4297 9.48889C29.4182 9.50995 29.4067 9.5291 29.3972 9.55016L29.3742 9.59037C29.3435 9.64973 29.311 9.70909 29.2823 9.76844L29.2727 9.78568C29.2478 9.83737 29.221 9.88907 29.1961 9.94269L29.1731 9.99247C29.1616 10.0135 29.1521 10.0346 29.1425 10.0557C29.1138 10.1169 29.0851 10.1801 29.0583 10.2471C29.0583 10.2624 29.0448 10.2759 29.0391 10.2912C29.0334 10.3065 29.0391 10.3007 29.0391 10.3065C29.0085 10.3773 28.9797 10.4463 28.951 10.5171C28.951 10.5363 28.9357 10.5554 28.93 10.5726C28.9242 10.5899 28.9012 10.6435 28.8878 10.6779C28.8744 10.7124 28.8706 10.7258 28.861 10.7488C28.8515 10.7718 28.8438 10.7986 28.8342 10.8216C28.8112 10.8847 28.7883 10.9498 28.7672 11.013C28.7672 11.0264 28.7672 11.0417 28.7519 11.0552V11.0666C28.727 11.1413 28.704 11.2179 28.681 11.2926C28.681 11.3136 28.6676 11.3328 28.6619 11.3539C28.6562 11.3749 28.6351 11.4438 28.6236 11.4879C28.6195 11.5011 28.6163 11.5145 28.614 11.5281C28.6025 11.5626 28.5949 11.5989 28.5853 11.6334C28.5757 11.6679 28.5604 11.7272 28.5508 11.7751C28.5413 11.823 28.5336 11.8479 28.526 11.8842C28.5183 11.9206 28.5125 11.934 28.5068 11.9608C28.5011 11.9876 28.4934 12.0259 28.4877 12.0585V12.0853C28.4723 12.1619 28.4609 12.2366 28.4474 12.3112V12.3495C28.4474 12.4108 28.4283 12.4702 28.4206 12.5314C28.4206 12.541 28.4206 12.5525 28.4206 12.564C28.4206 12.5755 28.4206 12.6138 28.4206 12.6386L28.4034 12.7976V12.878C28.4034 12.9316 28.4034 12.9852 28.4034 13.0369C28.4034 13.0886 28.4034 13.0867 28.4034 13.1097C28.4034 13.1863 28.3418 13.2169 28.3418 13.2916L30.0597 14.293C30.0597 14.2183 30.0597 14.1417 30.0597 14.067C30.0597 14.0422 30.0597 14.0192 30.0597 13.9943C30.0597 13.9694 30.0156 13.8737 30.0195 13.82Z" fill="#696F8E"/>
<path d="M36.6538 22.2257C37.0254 21.7551 37.2403 21.1799 37.2684 20.5809C37.2684 19.7365 36.6691 19.3976 35.9281 19.815C35.8956 19.8342 35.863 19.8533 35.8305 19.8763C35.4897 20.1214 35.2045 20.4357 34.9936 20.7987C34.7828 21.1616 34.651 21.5651 34.6069 21.9825C34.5706 22.5933 34.8271 22.9725 35.2254 23.0318L34.7391 25.6359C34.6797 25.9441 34.8597 26.105 35.1048 25.9633L36.7974 24.9868C36.9218 24.9083 37.0218 24.7966 37.0861 24.6643C37.1504 24.532 37.1764 24.3844 37.1612 24.2381L36.6538 22.2257Z" fill="black"/>
</svg>
