<svg width="48" height="50" viewBox="0 0 48 50" fill="none" xmlns="http://www.w3.org/2000/svg">
  <g clip-path="url(#clip0_2922_5078)">
    <path d="M45.9091 23.7943C45.9909 23.5195 46.1839 23.4345 45.9778 23.1826C45.7652 22.9307 45.2254 22.1586 45.2254 22.1586C45.1665 22.0343 45.1142 21.9394 45.0782 21.8838C44.895 21.6319 44.1916 21.8511 44.0902 22.018C43.9888 22.1848 44.3257 23.6766 44.3257 23.7943C44.3257 23.7943 44.6692 24.079 44.7216 24.079C44.7739 24.079 45.4838 23.9972 45.5852 23.9972C45.6867 23.9972 45.8371 24.0691 45.9222 23.7943H45.9124H45.9091Z" fill="black"/>
    <path d="M44.0541 29.6111C43.7106 29.4737 43.3737 29.3036 43.0269 29.0877L42.9811 29.0615C42.8339 28.9699 42.6965 28.8718 42.5362 28.754C42.2941 28.5708 42.0684 28.3581 41.823 28.0964C41.7805 28.0506 41.7445 28.0081 41.702 27.9623L41.6693 27.9263C41.6039 27.8478 41.545 27.7693 41.4893 27.6908L41.352 27.4945C41.2963 27.4062 41.2473 27.3146 41.1917 27.2197L41.1557 27.151L41.1001 27.0496C41.0346 26.9154 40.9757 26.778 40.9267 26.6374L40.9038 26.5883C40.8383 26.3953 40.6519 26.2775 40.449 26.2906C39.7686 26.356 39.0652 26.2579 38.3586 26.0158C38.2376 25.9733 38.1198 25.934 37.9987 25.8817C37.9104 25.8457 37.8286 25.8097 37.7468 25.7672C37.6225 25.7083 37.5048 25.6429 37.3739 25.5709C37.3019 25.5284 37.23 25.4891 37.158 25.4466C37.0304 25.3648 36.9061 25.2765 36.785 25.1881L36.5659 25.018C36.4219 24.9035 36.2583 24.7596 36.1013 24.6091C35.9868 24.488 35.8658 24.3572 35.7382 24.1871C35.7284 24.174 35.7153 24.1609 35.7022 24.1445C35.6826 24.1184 35.6597 24.0857 35.6433 24.0529L35.519 23.8632C35.4765 23.8076 35.4405 23.752 35.4045 23.6931C35.3718 23.644 35.3489 23.5884 35.3227 23.5328L35.2213 23.3398C35.1951 23.2907 35.1657 23.2384 35.1428 23.1827C35.1166 23.1239 35.0937 23.0584 35.0708 22.993L34.9923 22.7804C34.9727 22.7313 34.9563 22.6855 34.9367 22.6331C34.9138 22.5612 34.8942 22.4859 34.8778 22.414L34.8353 22.2438C34.7993 22.0966 34.7698 21.9461 34.7469 21.7989L34.7371 21.7302L34.724 21.6484C34.724 21.6223 34.7142 21.5994 34.711 21.5667C34.6979 21.4391 34.6881 21.3082 34.6848 21.1675V21.0563C34.675 21.0072 34.6717 20.9549 34.6717 20.9058C34.6717 20.8469 34.6717 20.7881 34.6815 20.7259L34.6913 20.5002C34.6913 20.4347 34.6913 20.3726 34.7011 20.3072C34.724 20.0683 34.5539 19.8557 34.3151 19.8295C32.7775 19.6561 31.5638 19.0542 30.71 18.0368C30.5824 17.8863 30.4581 17.7195 30.3501 17.5592C30.3305 17.533 30.3142 17.5003 30.2945 17.4708L30.1997 17.3105C30.1506 17.2287 30.095 17.1404 30.0524 17.0586C30.0328 17.0161 30.0165 16.9801 29.9968 16.9376L29.915 16.7544C29.8791 16.6824 29.8463 16.6104 29.8202 16.5352C29.8005 16.4894 29.7875 16.4436 29.7744 16.3978L29.7089 16.2048C29.686 16.1361 29.6631 16.0674 29.6402 15.9921C29.6272 15.9463 29.6173 15.9005 29.6141 15.8547L29.5715 15.6585C29.5519 15.5865 29.5388 15.5145 29.529 15.4425C29.5192 15.3935 29.5192 15.3411 29.5159 15.2921L29.4963 15.099C29.4865 15.0271 29.4832 14.9551 29.4767 14.8831V14.5462C29.4767 14.4677 29.4767 14.3957 29.4865 14.3172C29.4865 14.2681 29.4963 14.2158 29.5061 14.1667L29.529 13.9704C29.5388 13.8886 29.5486 13.8101 29.5617 13.7283C29.5977 13.532 29.4963 13.339 29.3131 13.2507C29.0939 13.1493 28.8715 13.0348 28.6425 12.8974C28.492 12.8058 28.348 12.7044 28.2008 12.5997L28.1223 12.5441C28.0961 12.5244 28.0732 12.5113 28.0503 12.495C27.9129 12.3903 27.769 12.266 27.5989 12.109L27.5105 12.0305C27.383 11.9061 27.2521 11.7655 27.1114 11.5888L27.0166 11.4743C26.9675 11.4154 26.9119 11.3533 26.8661 11.2911C26.7516 11.1243 26.6403 10.9574 26.5455 10.7775C26.4539 10.6074 26.3655 10.4275 26.2936 10.2508C26.2936 10.2475 26.2903 10.2377 26.2838 10.2312C26.1398 9.86804 26.0417 9.48855 25.9861 9.09598C25.9861 9.06981 25.9762 9.04691 25.973 9.01419C25.9599 8.89315 25.9533 8.77211 25.9533 8.65434V8.48422C25.9533 8.42534 25.9566 8.36318 25.9632 8.31084C25.9762 8.12109 25.9991 7.9379 26.0286 7.75142C26.0286 7.7318 26.0286 7.71544 26.0319 7.69581C26.0417 7.62384 26.0548 7.5486 26.0678 7.47008L26.1464 7.05134C26.1889 6.83542 26.2281 6.62278 26.2609 6.41341C26.2609 6.39051 26.2641 6.36761 26.2641 6.34798C26.3099 6.0372 26.359 5.64135 26.3426 5.24224C26.3328 5.0296 26.1725 4.85621 25.9599 4.83004C22.7441 4.41784 20.3461 4.70573 20.2545 4.71881L18.7333 4.88893C15.6876 5.26514 12.8317 6.71111 12.5012 6.88122C12.0727 7.03825 10.8426 7.50934 10.3781 7.99351C9.62893 8.36645 7.93433 9.66521 7.55484 10.2443C7.27023 10.6728 7.36183 11.2257 7.49596 11.6412C7.43707 11.6379 7.38146 11.6281 7.33893 11.6215C7.10338 11.5954 6.8384 11.5626 6.5865 11.6215C6.0598 11.7426 5.3499 12.3511 5.2125 12.4754C3.62913 13.8952 2.84726 15.7173 2.22242 17.1797L2.06212 17.5559C1.40129 19.0804 0.550717 21.8742 0.344617 22.8883C0.131974 23.9254 0.118888 25.9667 0.174502 26.585C0.194131 26.8337 0.184317 27.1968 0.174502 27.6155C0.154874 28.1422 0.138517 28.7442 0.174502 29.3428C0.243202 30.4584 1.10359 32.5161 1.13303 32.5979C1.22463 32.8236 1.54196 33.5859 1.75787 33.8476C1.8691 33.9817 2.0294 34.3252 2.08829 34.4692C2.20933 34.7898 2.5103 35.7123 2.53974 36.275C2.57246 37.0503 3.1286 37.9794 3.28236 38.2215C3.40994 38.5814 3.82869 39.3338 4.21144 39.6904H4.20817C4.20817 39.6904 4.50587 40.1418 5.09146 40.7045C5.5331 41.1331 5.82099 41.5682 6.2659 42.2355L6.50798 42.5987C7.2506 43.7044 8.40868 44.4143 9.03353 44.7349C9.40647 44.9279 9.7467 45.1896 10.136 45.4939C10.5678 45.8276 11.0585 46.2103 11.7292 46.5996C13.0279 47.3619 14.9221 47.8035 15.0399 47.8297C15.4946 47.8951 16.0704 47.8199 16.5316 47.7642C16.6887 47.7446 16.8392 47.7283 16.9373 47.7184C17.0027 47.7904 17.0976 47.9769 17.1532 48.1372C17.163 48.1601 17.1663 48.1797 17.1794 48.2026C17.5131 48.8634 18.7562 48.9943 20.7845 48.9943C20.827 48.9943 24.9032 48.9943 25.8127 48.6508C26.1856 48.5069 26.3721 48.4905 26.709 48.4545C26.9217 48.4316 27.1769 48.4054 27.5465 48.34C28.7504 48.1339 29.1397 47.123 29.1528 47.0805C29.1986 46.966 29.2542 46.7763 29.3098 46.6029C29.529 46.7305 29.8071 46.9235 29.9576 47.0249C30.3796 47.3128 30.481 47.3848 30.6707 47.3651C30.7035 47.3651 30.7754 47.3553 31.9302 47.159L31.976 47.1492C32.8822 46.9987 33.9912 46.0337 34.9629 45.1406C35.1428 44.9737 35.2802 44.8461 35.362 44.7807C35.5223 44.6564 35.7513 44.5223 35.9966 44.3849C36.327 44.1951 36.7033 43.9792 37.0631 43.7044C37.6454 43.2497 38.7152 41.9117 38.9638 41.5976C39.6541 41.1069 40.328 40.0764 40.3607 40.0306C40.3705 40.011 40.3836 39.9946 40.3934 39.975C40.7762 39.1604 41.2113 38.6206 41.63 38.0972C41.9604 37.6883 42.3007 37.2597 42.6082 36.7232C43.1872 35.6992 43.3933 34.8716 43.4489 34.564C43.6289 34.1126 43.7597 33.5074 43.8121 33.2555C44.0476 32.7648 44.1425 31.8913 44.2766 30.707L44.3486 30.0724C44.3715 29.8794 44.2603 29.6896 44.077 29.6176H44.0574L44.0541 29.6111ZM43.3868 30.5991C43.2657 31.6557 43.1676 32.5652 42.9877 32.8956C42.9648 32.9381 42.9517 32.9839 42.9419 33.0232C42.9157 33.1573 42.7816 33.8312 42.6016 34.2598C42.5885 34.2925 42.5787 34.3285 42.5755 34.3612C42.5755 34.371 42.4413 35.1922 41.8263 36.2815C41.5548 36.7592 41.2505 37.1354 40.9299 37.541C40.4785 38.0972 40.0172 38.6762 39.5919 39.5726C39.3956 39.867 38.8493 40.6064 38.3979 40.9106C38.3619 40.9368 38.3259 40.9662 38.2964 41.0022C37.9529 41.4373 36.965 42.6543 36.5004 43.0141C36.1929 43.2529 35.8625 43.4427 35.5419 43.6259C35.2704 43.7764 35.0185 43.9236 34.8058 44.0839C34.7077 44.1559 34.5474 44.3031 34.3478 44.4928C33.759 45.0359 32.5322 46.1613 31.8256 46.279C31.8223 46.279 31.783 46.2823 31.7798 46.2888C31.1909 46.3902 30.8441 46.4459 30.6773 46.472C30.6086 46.4295 30.5203 46.3673 30.4188 46.2986C29.565 45.7196 29.1822 45.4939 28.8486 45.628C28.6981 45.6869 28.5836 45.821 28.5443 45.9813C28.4887 46.2234 28.3415 46.6749 28.3088 46.773C28.2891 46.8155 28.0503 47.3553 27.3731 47.4764C27.0296 47.5352 26.7908 47.5647 26.588 47.5876C26.2216 47.6301 25.9599 47.6563 25.4823 47.8362C24.9785 48.026 22.4137 48.1241 20.755 48.1241C18.5828 48.1241 18.0463 47.9278 17.9318 47.8166C17.8304 47.532 17.5327 46.8515 16.9667 46.8515C16.8228 46.8515 16.6363 46.8744 16.3975 46.9071C16.0082 46.9562 15.475 47.0216 15.1707 46.9791C15.1511 46.9791 13.3256 46.5473 12.1447 45.8537C11.5231 45.4906 11.0553 45.1275 10.6431 44.8069C10.2341 44.4896 9.85465 44.1951 9.40647 43.9661C8.47084 43.4787 7.66934 42.8048 7.20153 42.1145L6.96271 41.7546C6.50799 41.0709 6.17757 40.5737 5.6705 40.0829C5.19614 39.6249 4.95079 39.2782 4.90826 39.2095C4.89517 39.1898 4.88209 39.1735 4.86573 39.1539C4.69561 38.9706 4.21799 38.3883 4.07404 37.9107C4.06096 37.8682 4.04133 37.8289 4.01843 37.7962C3.84831 37.5378 3.40667 36.7592 3.38377 36.239C3.34779 35.4212 2.89633 34.2075 2.87997 34.1584H2.8767C2.7851 33.8836 2.51357 33.4223 2.40234 33.2915C2.31402 33.1868 2.08174 32.6797 1.9149 32.2708C1.67936 31.7146 1.07087 30.092 1.01853 29.2905C0.982545 28.7344 0.998902 28.1553 1.01853 27.645C1.03162 27.2001 1.0447 26.814 1.01853 26.5163C0.972731 25.97 0.985816 23.9941 1.17883 23.0519C1.38166 22.0705 2.20279 19.3683 2.84726 17.8928L3.00756 17.5166C3.6324 16.0608 4.33903 14.4055 5.77846 13.1198C6.04017 12.8843 6.53743 12.5179 6.76643 12.4688C6.87111 12.4459 7.05104 12.4688 7.22443 12.4884C7.58756 12.5342 8.03901 12.5833 8.37597 12.2856C8.52645 12.1515 8.56898 11.9323 8.47084 11.7524C8.28764 11.4023 8.16006 10.892 8.26801 10.7284C8.55263 10.2966 10.2145 9.00438 10.8066 8.75248C10.8786 8.71977 10.9408 8.67397 10.9866 8.60854C11.1371 8.39589 12.0531 7.96407 12.8088 7.69581C12.8284 7.69254 12.8447 7.68272 12.8644 7.67291C12.8905 7.65982 15.8185 6.1288 18.8184 5.75912L20.3428 5.58901C20.3657 5.58901 22.538 5.32403 25.4463 5.65444C25.4332 5.88344 25.4005 6.1059 25.3743 6.2891C25.3743 6.312 25.371 6.33162 25.371 6.34798C25.3383 6.53118 25.3056 6.71438 25.2696 6.90412L25.1911 7.33922C25.1715 7.4341 25.1584 7.53224 25.142 7.62711C25.142 7.64674 25.1388 7.6631 25.1388 7.68272C25.1126 7.87574 25.0897 8.06548 25.0733 8.25849C25.0733 8.32719 25.0635 8.3959 25.0635 8.46132V8.66415C25.0635 8.82118 25.0668 8.97167 25.0897 9.12869C25.0897 9.15487 25.0995 9.18758 25.1093 9.22357C25.1747 9.69138 25.2991 10.1461 25.4692 10.5779C25.4692 10.5812 25.4724 10.591 25.479 10.5976C25.5117 10.6761 25.551 10.7546 25.5902 10.8331C25.5706 10.8331 25.5575 10.8331 25.5411 10.8364C25.0439 10.9149 24.6873 11.0981 24.4354 11.3042C23.876 11.7687 23.8204 12.3838 23.8204 12.3838C24.4092 12.7829 25.7996 12.7567 26.8137 12.5768C26.8399 12.6029 26.8628 12.6324 26.8922 12.6586C26.9151 12.6815 26.9413 12.7044 26.9937 12.7502C27.1834 12.9235 27.3437 13.0675 27.5073 13.1918C27.5433 13.218 27.5858 13.2474 27.6283 13.2736L27.6839 13.3096C27.8442 13.4306 28.0111 13.5451 28.1845 13.6498C28.3415 13.7414 28.492 13.8297 28.6425 13.9082L28.6228 14.0522C28.613 14.1209 28.6032 14.1896 28.5999 14.2583C28.5901 14.3532 28.5901 14.4546 28.5901 14.5527V14.7097C28.5868 14.7784 28.5868 14.8537 28.5901 14.9224C28.5901 15.014 28.6032 15.1056 28.613 15.1972L28.6326 15.3673C28.6359 15.436 28.6457 15.5112 28.6555 15.5799C28.6686 15.6715 28.6883 15.7697 28.7112 15.8613L28.7471 16.0314C28.7602 16.1001 28.7733 16.1655 28.7897 16.2277C28.8126 16.3193 28.8453 16.4076 28.878 16.4992L28.9336 16.6661C28.9532 16.7315 28.9761 16.8002 28.999 16.8623C29.035 16.9539 29.0776 17.0455 29.1234 17.1371L29.1953 17.2942C29.2215 17.3531 29.2444 17.4119 29.2771 17.4676C29.3327 17.5722 29.3982 17.6737 29.457 17.7751L29.5356 17.9092C29.5617 17.955 29.5912 18.0041 29.6239 18.0531C29.7515 18.2429 29.8889 18.4294 30.0426 18.6093C30.9652 19.7085 32.2345 20.3955 33.8146 20.6539V20.6801C33.8113 20.7586 33.8015 20.8371 33.8015 20.9156C33.8015 20.9843 33.8015 21.053 33.8113 21.1217V21.233C33.8244 21.3802 33.8342 21.5307 33.8473 21.6746C33.8506 21.7171 33.8571 21.7629 33.8669 21.8022L33.8898 21.9494C33.916 22.1195 33.9487 22.2929 33.9912 22.463L34.0338 22.6331C34.0567 22.7247 34.0796 22.8229 34.1057 22.9145C34.1286 22.9832 34.1548 23.0519 34.1843 23.1206L34.253 23.3005C34.2791 23.3823 34.3118 23.4674 34.3478 23.5491C34.3805 23.6211 34.4165 23.6964 34.4591 23.7651L34.5408 23.9319C34.5768 24.0039 34.6128 24.0824 34.6553 24.1511C34.7011 24.2296 34.7568 24.3081 34.8058 24.3801L34.9105 24.5371C34.9465 24.596 34.989 24.6549 35.0316 24.7105C35.0348 24.7138 35.0577 24.7432 35.0643 24.7465C35.0675 24.7563 35.0774 24.7596 35.0839 24.7694C35.2278 24.9493 35.3554 25.0965 35.483 25.2274C35.6662 25.4106 35.8592 25.5774 36.0163 25.7017C36.0653 25.7443 36.1177 25.7835 36.1667 25.8195L36.2682 25.8915C36.4121 25.9962 36.5528 26.0976 36.7 26.1892C36.7818 26.2383 36.8668 26.2841 36.9584 26.3397C37.0958 26.4182 37.2332 26.4902 37.3772 26.5589C37.472 26.6047 37.5702 26.6505 37.6651 26.693C37.8025 26.7486 37.9399 26.7977 38.0773 26.85C38.7904 27.0921 39.5069 27.2033 40.2037 27.187C40.2397 27.2753 40.2757 27.3604 40.3182 27.4454C40.3313 27.4716 40.3444 27.501 40.3836 27.5665L40.4327 27.6548C40.4916 27.766 40.5537 27.874 40.6257 27.9852L40.786 28.2142C40.8547 28.3091 40.9234 28.4072 41.0019 28.4955L41.0379 28.5381C41.0837 28.5937 41.136 28.6493 41.1949 28.7115C41.4534 28.9961 41.7282 29.248 41.9997 29.4508L42.0357 29.477C42.1927 29.5915 42.353 29.706 42.5166 29.8074L42.6082 29.863C42.8699 30.0233 43.1447 30.1672 43.426 30.2948L43.39 30.6056L43.3868 30.5991Z" fill="black"/>
    <path d="M42.5134 29.7945C42.3465 29.6931 42.1862 29.5786 42.0325 29.4641L41.9965 29.4379C41.725 29.2351 41.4502 28.9832 41.1917 28.6986C41.1328 28.6331 41.0805 28.5808 41.0347 28.5252L40.9987 28.4827C40.9202 28.3943 40.8515 28.2995 40.7828 28.2013L40.6225 27.9723C40.5505 27.8611 40.4884 27.7531 40.4295 27.6419L40.3804 27.5536C40.3444 27.4881 40.3313 27.462 40.315 27.4325C40.2725 27.3507 40.2365 27.2624 40.2005 27.1741C39.5037 27.1937 38.7872 27.0825 38.0741 26.8371C37.9367 26.7881 37.7993 26.7357 37.6619 26.6801C37.5637 26.6376 37.4688 26.5918 37.374 26.546C37.23 26.4773 37.0926 26.402 36.9552 26.3268C36.8636 26.2712 36.7818 26.2254 36.6968 26.1763C36.5496 26.0847 36.4089 25.9833 36.265 25.8786L36.1635 25.8066C36.1145 25.7706 36.0621 25.7281 36.0131 25.6889C35.856 25.5645 35.663 25.401 35.4798 25.2145C35.3522 25.0804 35.2214 24.9332 35.0807 24.7565C35.0774 24.7467 35.0676 24.7434 35.0611 24.7336C35.0578 24.7303 35.0349 24.7009 35.0284 24.6976C34.9858 24.642 34.9466 24.5831 34.9073 24.5242L34.8026 24.3672C34.7536 24.2952 34.6979 24.2167 34.6521 24.1382C34.6096 24.0695 34.5736 23.991 34.5376 23.919L34.4559 23.7522C34.4133 23.6835 34.3773 23.6082 34.3446 23.5363C34.3087 23.4545 34.2759 23.3694 34.2498 23.2876L34.1811 23.1077C34.1549 23.039 34.1254 22.9703 34.1025 22.9016C34.0764 22.81 34.0535 22.7119 34.0306 22.6203L33.988 22.4501C33.9455 22.28 33.9161 22.1066 33.8866 21.9365L33.8637 21.7893C33.8539 21.7468 33.8506 21.701 33.8441 21.6617C33.831 21.5178 33.8212 21.3673 33.8081 21.2201V21.1089C33.7983 21.0402 33.7983 20.9715 33.7983 20.9028C33.7983 20.8242 33.8081 20.7457 33.8114 20.6672V20.641C32.2313 20.3826 30.962 19.6956 30.0394 18.5964C29.889 18.4165 29.7516 18.23 29.6207 18.0403C29.588 17.9945 29.5618 17.9454 29.5324 17.8963L29.4539 17.7622C29.395 17.6608 29.3295 17.5594 29.2739 17.4547C29.2412 17.3991 29.2183 17.3402 29.1921 17.2813L29.1202 17.1243C29.0744 17.0327 29.0318 16.9411 28.9959 16.8495C28.9729 16.784 28.9501 16.7153 28.9304 16.6532L28.8748 16.4863C28.8421 16.3947 28.8094 16.3064 28.7865 16.2148C28.7734 16.1494 28.7603 16.0872 28.744 16.0185L28.708 15.8484C28.6851 15.7568 28.6654 15.6587 28.6524 15.5671C28.6425 15.4984 28.6327 15.4231 28.6295 15.3544L28.6098 15.1843C28.6 15.0927 28.5869 15.0011 28.5869 14.9095C28.5837 14.8408 28.5837 14.7656 28.5869 14.6969V14.5398C28.5869 14.445 28.5869 14.3436 28.5967 14.2454C28.6 14.1767 28.6098 14.108 28.6196 14.0393L28.6393 13.8954C28.4888 13.8169 28.335 13.7285 28.1813 13.6369C28.0079 13.5322 27.841 13.4177 27.6807 13.2967L27.6251 13.2607C27.5826 13.2345 27.5433 13.2051 27.5041 13.1789C27.3372 13.0546 27.1769 12.9139 26.9905 12.7373C26.9414 12.6915 26.912 12.6686 26.8891 12.6457C26.8629 12.6195 26.84 12.5901 26.8105 12.5639C25.7964 12.7438 24.4028 12.77 23.8172 12.3709C23.8172 12.3709 23.8728 11.7559 24.4322 11.2913C24.6841 11.0852 25.044 10.902 25.538 10.8235C25.5576 10.8202 25.5707 10.8202 25.587 10.8202C25.551 10.7417 25.5085 10.6632 25.4758 10.5847C25.4725 10.5814 25.466 10.5716 25.466 10.5651C25.2959 10.1332 25.1716 9.6785 25.1061 9.21068C25.0963 9.1747 25.0865 9.14198 25.0865 9.11581C25.0636 8.95878 25.0603 8.8083 25.0603 8.65127V8.44844C25.0603 8.38301 25.0701 8.31431 25.0701 8.24561C25.0832 8.0526 25.1061 7.86285 25.1356 7.66984C25.1356 7.65021 25.1388 7.63385 25.1388 7.61423C25.1585 7.51935 25.1716 7.42121 25.1879 7.32634L25.2664 6.89124C25.3024 6.7015 25.3351 6.5183 25.3678 6.3351C25.3678 6.31547 25.3711 6.29911 25.3711 6.27621C25.3973 6.09301 25.43 5.87055 25.4431 5.64155C22.5348 5.31114 20.3626 5.57613 20.3397 5.57613L18.8152 5.74624C15.8153 6.11918 12.8906 7.64694 12.8612 7.66003C12.8415 7.66984 12.8252 7.67965 12.8056 7.68292C12.0466 7.95445 11.1339 8.38628 10.9834 8.59565C10.9376 8.66108 10.8787 8.70688 10.8034 8.7396C10.2113 8.9915 8.54944 10.2837 8.26482 10.7155C8.15359 10.8824 8.28445 11.3895 8.46765 11.7395C8.56252 11.9194 8.52326 12.1386 8.37278 12.2727C8.03255 12.5704 7.58436 12.5214 7.22124 12.4756C7.04785 12.4559 6.86792 12.433 6.76324 12.4559C6.53424 12.505 6.03698 12.8747 5.77527 13.107C4.33911 14.3926 3.62921 16.048 3.00437 17.5037L2.84407 17.88C2.1996 19.3554 1.37847 22.0543 1.17564 23.039C0.982626 23.9812 0.96954 25.9571 1.01534 26.5034C1.04151 26.8011 1.02843 27.1872 1.01534 27.6321C0.995712 28.1424 0.979355 28.7215 1.01534 29.2776C1.06441 30.0824 1.67617 31.7017 1.91171 32.2579C2.07855 32.6668 2.31083 33.1706 2.39915 33.2786C2.51038 33.4127 2.78191 33.8707 2.87351 34.1455H2.87678C2.89641 34.1946 3.3446 35.4083 3.38058 36.2261C3.40348 36.7463 3.84512 37.5249 4.01524 37.7833C4.03814 37.816 4.05777 37.8553 4.07085 37.8978C4.2148 38.3755 4.69242 38.9578 4.86254 39.141C4.87562 39.1606 4.88871 39.1769 4.90507 39.1966C4.9476 39.2653 5.19295 39.6088 5.66731 40.0701C6.17111 40.5608 6.50479 41.058 6.95952 41.7417L7.19834 42.1016C7.66615 42.7919 8.46765 43.4658 9.40328 43.9532C9.84819 44.1822 10.2309 44.4767 10.6399 44.794C11.0521 45.1146 11.5232 45.4777 12.1415 45.8408C13.3224 46.5344 15.1512 46.9662 15.1675 46.9662C15.4718 47.0087 16.005 46.9433 16.3943 46.8942C16.6331 46.8615 16.8229 46.8386 16.9635 46.8386C17.5295 46.8386 17.8272 47.5191 17.9286 47.8037C18.0431 47.9149 18.5796 48.1112 20.7519 48.1112C22.4105 48.1112 24.972 48.0098 25.4791 47.8233C25.9567 47.6434 26.2184 47.6172 26.5848 47.5747C26.7876 47.5518 27.0265 47.5256 27.37 47.4635C28.0504 47.3424 28.2892 46.8026 28.3056 46.7601C28.3383 46.6652 28.4855 46.2138 28.5411 45.9684C28.5771 45.8081 28.6916 45.674 28.8454 45.6151C29.1791 45.481 29.5618 45.7067 30.4157 46.2858C30.5171 46.3545 30.6054 46.4199 30.6741 46.4591C30.8409 46.433 31.1877 46.3774 31.7766 46.2759C31.7798 46.2727 31.8191 46.2661 31.8224 46.2661C32.529 46.1451 33.7558 45.0197 34.3446 44.4799C34.5475 44.2902 34.7078 44.143 34.8026 44.071C35.0153 43.9107 35.2672 43.7635 35.5387 43.613C35.8593 43.4298 36.1897 43.2401 36.4972 43.0013C36.9618 42.6414 37.9497 41.4244 38.2932 40.9893C38.3194 40.9533 38.3587 40.9239 38.3947 40.8977C38.8461 40.5935 39.3924 39.8541 39.5887 39.5597C40.0107 38.6633 40.4753 38.0843 40.9267 37.5282C41.2473 37.1225 41.5516 36.7463 41.8231 36.2687C42.4381 35.1793 42.5723 34.3581 42.5723 34.3483C42.5755 34.3156 42.5854 34.2796 42.5984 34.2469C42.7784 33.8184 42.9092 33.1444 42.9387 33.0103C42.9485 32.9678 42.9616 32.922 42.9845 32.8827C43.1644 32.5523 43.2658 31.6429 43.3836 30.5862L43.4196 30.2689C43.1382 30.1413 42.8634 29.9973 42.6017 29.837L42.5101 29.7814L42.5134 29.7945Z" fill="white"/>
    <path d="M44.0706 29.6111H44.0509C43.7075 29.4737 43.3705 29.3036 43.0237 29.0877L42.9779 29.0615C42.8307 28.9699 42.6933 28.8718 42.533 28.754C42.2909 28.5708 42.0652 28.3581 41.8198 28.0964C41.7773 28.0506 41.7413 28.0081 41.6988 27.9623L41.6661 27.9263C41.6007 27.8478 41.5418 27.7693 41.4861 27.6908L41.3488 27.4945C41.2931 27.4062 41.2441 27.3146 41.1884 27.2197L41.1525 27.151L41.0969 27.0496C41.0314 26.9154 40.9725 26.778 40.9235 26.6374L40.9006 26.5883C40.8351 26.3953 40.6487 26.2775 40.4458 26.2906C39.7654 26.356 39.062 26.2579 38.3554 26.0158C38.2344 25.9733 38.1166 25.934 37.9955 25.8817C37.9072 25.8457 37.8254 25.8097 37.7436 25.7672C37.6193 25.7083 37.5016 25.6429 37.3707 25.5709C37.2987 25.5284 37.2268 25.4891 37.1548 25.4466C37.0272 25.3648 36.9029 25.2765 36.7818 25.1881L36.5627 25.018C36.4187 24.9035 36.2551 24.7596 36.0981 24.6091C35.9836 24.488 35.8626 24.3572 35.735 24.1871C35.7252 24.174 35.7121 24.1609 35.699 24.1445C35.6794 24.1184 35.6565 24.0857 35.6401 24.0529L35.5158 23.8632C35.4733 23.8076 35.4373 23.752 35.4013 23.6931C35.3686 23.644 35.3457 23.5884 35.3195 23.5328L35.2181 23.3398C35.1919 23.2907 35.1625 23.2384 35.1396 23.1827C35.1134 23.1239 35.0905 23.0584 35.0676 22.993L34.9891 22.7804C34.9695 22.7313 34.9531 22.6855 34.9335 22.6331C34.9106 22.5612 34.891 22.4859 34.8746 22.414L34.8321 22.2438C34.7961 22.0966 34.7666 21.9461 34.7437 21.7989L34.7339 21.7302L34.7208 21.6484C34.7208 21.6223 34.711 21.5994 34.7078 21.5667C34.6947 21.4391 34.6849 21.3082 34.6816 21.1675V21.0563C34.6718 21.0072 34.6685 20.9549 34.6685 20.9058C34.6685 20.8469 34.6685 20.7881 34.6783 20.7259L34.6881 20.5002C34.6881 20.4347 34.6881 20.3726 34.6979 20.3072C34.7208 20.0683 34.5507 19.8557 34.3119 19.8295C32.7743 19.6561 31.5606 19.0542 30.7068 18.0368C30.5792 17.8863 30.4549 17.7195 30.3469 17.5592C30.3273 17.533 30.311 17.5003 30.2913 17.4708L30.1965 17.3105C30.1474 17.2287 30.0918 17.1404 30.0492 17.0586C30.0296 17.0161 30.0133 16.9801 29.9936 16.9376L29.9118 16.7544C29.8759 16.6824 29.8431 16.6104 29.817 16.5352C29.7973 16.4894 29.7843 16.4436 29.7712 16.3978L29.7057 16.2048C29.6828 16.1361 29.6599 16.0674 29.637 15.9921C29.624 15.9463 29.6141 15.9005 29.6109 15.8547L29.5683 15.6585C29.5487 15.5865 29.5356 15.5145 29.5258 15.4425C29.516 15.3935 29.516 15.3411 29.5127 15.2921L29.4931 15.099C29.4833 15.0271 29.48 14.9551 29.4735 14.8831V14.5462C29.4735 14.4677 29.4735 14.3957 29.4833 14.3172C29.4833 14.2681 29.4931 14.2158 29.5029 14.1667L29.5258 13.9704C29.5356 13.8886 29.5454 13.8101 29.5585 13.7283C29.5945 13.532 29.4931 13.339 29.3099 13.2507C29.0907 13.1493 28.8683 13.0348 28.6393 12.8974C28.4888 12.8058 28.3448 12.7044 28.1976 12.5997L28.1191 12.5441C28.0929 12.5244 28.07 12.5113 28.0471 12.495C27.9097 12.3903 27.7658 12.266 27.5957 12.109L27.5073 12.0304C27.3798 11.9061 27.2489 11.7655 27.1082 11.5888L27.0134 11.4743C26.9643 11.4154 26.9087 11.3533 26.8629 11.2911C26.7484 11.1243 26.6371 10.9574 26.5423 10.7775C26.4507 10.6074 26.3623 10.4275 26.2904 10.2508C26.2904 10.2475 26.2871 10.2377 26.2806 10.2312C26.1366 9.86804 26.0385 9.48855 25.9829 9.09598C25.9829 9.06981 25.973 9.04691 25.9698 9.01419C25.9567 8.89315 25.9501 8.77211 25.9501 8.65434V8.48422C25.9501 8.42534 25.9534 8.36318 25.96 8.31084C25.973 8.12109 25.9959 7.9379 26.0254 7.75142C26.0254 7.7318 26.0254 7.71544 26.0287 7.69581C26.0385 7.62384 26.0516 7.5486 26.0646 7.47008L26.1432 7.05134C26.1857 6.83542 26.2249 6.62278 26.2577 6.41341C26.2577 6.39051 26.2609 6.36761 26.2609 6.34798C26.3067 6.0372 26.3558 5.64135 26.3394 5.24224C26.3296 5.0296 26.1693 4.85621 25.9567 4.83004C22.7409 4.41784 20.3429 4.70573 20.2513 4.71881L18.7301 4.88893C15.6844 5.26514 12.8285 6.71111 12.498 6.88122C12.0695 7.03825 10.8394 7.50934 10.3749 7.99351C9.62573 8.36645 7.93113 9.66521 7.54837 10.2443C7.26376 10.6728 7.35536 11.2257 7.48948 11.6412C7.4306 11.6379 7.37498 11.6281 7.33246 11.6215C7.09691 11.5953 6.83193 11.5626 6.58003 11.6215C6.05333 11.7426 5.34343 12.351 5.20603 12.4754C3.62266 13.8952 2.84079 15.7173 2.21595 17.1797L2.05565 17.5559C1.39482 19.0804 0.544247 21.8742 0.338147 22.8883C0.125504 23.9254 0.112418 25.9667 0.168033 26.585C0.187661 26.8337 0.177847 27.1968 0.168033 27.6155C0.148404 28.1422 0.132047 28.7442 0.168033 29.3428C0.236733 30.4584 1.09712 32.5161 1.12656 32.5979C1.21816 32.8236 1.53549 33.5859 1.7514 33.8476C1.86263 33.9817 2.02293 34.3252 2.08182 34.4692C2.20286 34.7898 2.50383 35.7123 2.53327 36.275C2.56599 37.0503 3.12213 37.9794 3.27589 38.2215C3.40347 38.5813 3.82222 39.3338 4.20497 39.6904H4.2017C4.2017 39.6904 4.4994 40.1418 5.08499 40.7045C5.52663 41.1331 5.81452 41.5682 6.25943 42.2355L6.50151 42.5987C7.24413 43.7044 8.40221 44.4143 9.02706 44.7349C9.4 44.9279 9.74023 45.1896 10.1295 45.4939C10.5614 45.8276 11.0521 46.2103 11.7227 46.5996C13.0215 47.3619 14.9156 47.8035 15.0334 47.8297C15.4881 47.8951 16.0639 47.8199 16.5252 47.7642C16.6822 47.7446 16.8327 47.7283 16.9308 47.7184C16.9963 47.7904 17.0911 47.9769 17.1467 48.1372C17.1566 48.1601 17.1598 48.1797 17.1729 48.2026C17.5066 48.8634 18.7497 48.991 20.778 48.991C20.8205 48.991 24.8967 48.991 25.8062 48.6475C26.1791 48.5036 26.3656 48.4872 26.7026 48.4512C26.9152 48.4283 27.1704 48.4022 27.5401 48.3367C28.7439 48.1306 29.1332 47.1198 29.1463 47.0772C29.1921 46.9627 29.2477 46.773 29.3034 46.5996C29.5225 46.7272 29.8006 46.9202 29.9511 47.0216C30.3731 47.3095 30.4745 47.3815 30.6643 47.3619C30.697 47.3619 30.769 47.352 31.9238 47.1558L31.9696 47.1459C32.8758 46.9955 33.9848 46.0304 34.9564 45.1373C35.1363 44.9704 35.2737 44.8429 35.3555 44.7774C35.5158 44.6531 35.7448 44.519 35.9902 44.3816C36.3206 44.1918 36.6968 43.9759 37.0566 43.7011C37.639 43.2464 38.7087 41.9084 38.9573 41.5943C39.6476 41.1036 40.3215 40.0731 40.3542 40.0273C40.3641 40.0077 40.3771 39.9913 40.387 39.9717C40.7697 39.1571 41.2048 38.6173 41.6236 38.0939C41.954 37.685 42.2942 37.2564 42.6017 36.7199C43.1807 35.6959 43.3868 34.8683 43.4425 34.5608C43.6224 34.1093 43.7533 33.5041 43.8056 33.2522C44.0411 32.7615 44.136 31.888 44.2701 30.7038L44.3421 30.0691C44.365 29.8761 44.2538 29.6863 44.0706 29.6144V29.6111ZM43.3868 30.5925C43.2658 31.6525 43.1677 32.5619 42.9877 32.8923C42.9648 32.9349 42.9518 32.9807 42.9419 33.0199C42.9158 33.1541 42.7816 33.828 42.6017 34.2565C42.5886 34.2892 42.5788 34.3252 42.5755 34.3579C42.5755 34.3678 42.4414 35.1889 41.8264 36.2783C41.5549 36.7559 41.2506 37.1321 40.93 37.5378C40.4785 38.0939 40.0173 38.6729 39.592 39.5693C39.3957 39.8637 38.8494 40.6031 38.3979 40.9073C38.3619 40.9335 38.326 40.9629 38.2965 40.9989C37.953 41.434 36.965 42.651 36.5005 43.0109C36.193 43.2497 35.8626 43.4394 35.542 43.6226C35.2704 43.7731 35.0185 43.9203 34.8059 44.0806C34.7078 44.1526 34.5475 44.2998 34.3479 44.4895C33.759 45.0326 32.5323 46.158 31.8256 46.2757C31.8224 46.2757 31.7831 46.279 31.7798 46.2856C31.191 46.387 30.8442 46.4426 30.6774 46.4688C30.6087 46.4262 30.5203 46.3641 30.4189 46.2954C29.5651 45.7163 29.1823 45.4906 28.8486 45.6247C28.6981 45.6836 28.5836 45.8177 28.5444 45.978C28.4888 46.2201 28.3416 46.6716 28.3088 46.7697C28.2892 46.8123 28.0504 47.352 27.3732 47.4731C27.0297 47.532 26.7909 47.5614 26.5881 47.5843C26.2217 47.6268 25.96 47.653 25.4823 47.8329C24.9785 48.0227 22.4137 48.1208 20.7551 48.1208C18.5829 48.1208 18.0464 47.9245 17.9319 47.8133C17.8305 47.5287 17.5328 46.8482 16.9668 46.8482C16.8229 46.8482 16.6364 46.8711 16.3976 46.9039C16.0083 46.9529 15.475 47.0184 15.1708 46.9758C15.1512 46.9758 13.3257 46.544 12.1447 45.8505C11.5232 45.4873 11.0553 45.1242 10.6431 44.8036C10.2342 44.4863 9.85473 44.1918 9.40654 43.9628C8.47091 43.4754 7.66941 42.8015 7.2016 42.1112L6.96279 41.7514C6.50806 41.0676 6.17764 40.5704 5.67057 40.0797C5.19621 39.6217 4.95086 39.2749 4.90833 39.2062C4.89524 39.1866 4.88216 39.1702 4.8658 39.1506C4.69569 38.9674 4.21806 38.3851 4.07412 37.9074C4.06103 37.8649 4.0414 37.8256 4.0185 37.7929C3.84839 37.5345 3.40674 36.7559 3.38385 36.2357C3.34786 35.4179 2.8964 34.2042 2.88005 34.1551H2.87677C2.78517 33.8803 2.51365 33.419 2.40242 33.2882C2.31409 33.1835 2.08182 32.6764 1.91497 32.2675C1.67943 31.7114 1.07095 30.0887 1.0186 29.2872C0.982618 28.7311 0.998975 28.152 1.0186 27.6417C1.03169 27.1968 1.04478 26.8108 1.0186 26.5131C0.972804 25.9667 0.985889 23.9908 1.1789 23.0486C1.38173 22.0672 2.20286 19.365 2.84733 17.8896L3.00763 17.5134C3.63247 16.0576 4.3391 14.4022 5.77853 13.1166C6.04024 12.881 6.5375 12.5146 6.7665 12.4655C6.87119 12.4426 7.05111 12.4655 7.2245 12.4852C7.58763 12.531 8.03908 12.58 8.37604 12.2823C8.52653 12.1482 8.56906 11.929 8.47091 11.7491C8.28771 11.3991 8.16013 10.8887 8.26808 10.7252C8.5527 10.2933 10.2146 9.00111 10.8067 8.74921C10.8787 8.71649 10.9408 8.67069 10.9866 8.60527C11.1371 8.39262 12.0531 7.96079 12.8088 7.69254C12.8285 7.68927 12.8448 7.67945 12.8644 7.66964C12.8906 7.65655 15.8185 6.12552 18.8184 5.75585L20.3429 5.58574C20.3658 5.58574 22.538 5.32075 25.4463 5.65117C25.4333 5.88017 25.4005 6.10262 25.3744 6.28582C25.3744 6.30872 25.3711 6.32835 25.3711 6.34471C25.3384 6.52791 25.3057 6.71111 25.2697 6.90085L25.1912 7.33595C25.1715 7.43082 25.1585 7.52897 25.1421 7.62384C25.1421 7.64347 25.1388 7.65982 25.1388 7.67945C25.1127 7.87247 25.0898 8.06221 25.0734 8.25522C25.0734 8.32392 25.0636 8.39262 25.0636 8.45805V8.66088C25.0636 8.81791 25.0669 8.96839 25.0898 9.12542C25.0898 9.15159 25.0996 9.18431 25.1094 9.22029C25.1748 9.68811 25.2991 10.1428 25.4692 10.5747C25.4692 10.5779 25.4725 10.5878 25.4791 10.5943C25.5118 10.6728 25.551 10.7513 25.5903 10.8298C25.5707 10.8298 25.5576 10.8298 25.5412 10.8331C25.044 10.9116 24.6874 11.0948 24.4355 11.3009C23.8761 11.7655 23.8204 12.3805 23.8204 12.3805C24.4093 12.7796 25.7997 12.7534 26.8138 12.5735C26.84 12.5997 26.8629 12.6291 26.8923 12.6553C26.9152 12.6782 26.9414 12.7011 26.9937 12.7469C27.1835 12.9203 27.3438 13.0642 27.5073 13.1885C27.5433 13.2147 27.5859 13.2441 27.6284 13.2703L27.684 13.3063C27.8443 13.4273 28.0111 13.5418 28.1845 13.6465C28.3416 13.7381 28.492 13.8265 28.6425 13.905L28.6229 14.0489C28.6131 14.1176 28.6033 14.1863 28.6 14.255C28.5902 14.3499 28.5902 14.4513 28.5902 14.5494V14.7065C28.5869 14.7752 28.5869 14.8504 28.5902 14.9191C28.5902 15.0107 28.6033 15.1023 28.6131 15.1939L28.6327 15.364C28.636 15.4327 28.6458 15.508 28.6556 15.5767C28.6687 15.6683 28.6883 15.7664 28.7112 15.858L28.7472 16.0281C28.7603 16.0968 28.7734 16.1623 28.7897 16.2244C28.8126 16.316 28.8454 16.4043 28.8781 16.4959L28.9337 16.6628C28.9533 16.7282 28.9762 16.7969 28.9991 16.8591C29.0351 16.9507 29.0776 17.0423 29.1234 17.1339L29.1954 17.2909C29.2216 17.3498 29.2445 17.4087 29.2772 17.4643C29.3328 17.569 29.3982 17.6704 29.4571 17.7718L29.5356 17.9059C29.5618 17.9517 29.5912 18.0008 29.624 18.0499C29.7515 18.2396 29.8889 18.4261 30.0427 18.606C30.9652 19.7052 32.2346 20.3922 33.8147 20.6507V20.6768C33.8114 20.7553 33.8016 20.8339 33.8016 20.9124C33.8016 20.9811 33.8016 21.0498 33.8114 21.1185V21.2297C33.8245 21.3769 33.8343 21.5274 33.8474 21.6713C33.8506 21.7139 33.8572 21.7597 33.867 21.7989L33.8899 21.9461C33.9161 22.1163 33.9488 22.2896 33.9913 22.4598L34.0338 22.6299C34.0567 22.7215 34.0796 22.8196 34.1058 22.9112C34.1287 22.9799 34.1549 23.0486 34.1843 23.1173L34.253 23.2972C34.2792 23.379 34.3119 23.4641 34.3479 23.5459C34.3806 23.6178 34.4166 23.6931 34.4591 23.7618L34.5409 23.9286C34.5769 24.0006 34.6129 24.0791 34.6554 24.1478C34.7012 24.2263 34.7568 24.3048 34.8059 24.3768L34.9106 24.5338C34.9466 24.5927 34.9891 24.6516 35.0316 24.7072C35.0349 24.7105 35.0578 24.7399 35.0643 24.7432C35.0676 24.753 35.0774 24.7563 35.084 24.7661C35.2279 24.946 35.3555 25.0933 35.4831 25.2241C35.6663 25.4073 35.8593 25.5742 36.0163 25.6985C36.0654 25.741 36.1177 25.7803 36.1668 25.8162L36.2682 25.8882C36.4122 25.9929 36.5528 26.0943 36.7001 26.1859C36.7818 26.235 36.8669 26.2808 36.9585 26.3364C37.0959 26.4149 37.2333 26.4869 37.3772 26.5556C37.4721 26.6014 37.5703 26.6472 37.6651 26.6897C37.8025 26.7453 37.9399 26.7944 38.0773 26.8467C38.7905 27.0888 39.5069 27.2001 40.2038 27.1837C40.2397 27.272 40.2757 27.3571 40.3182 27.4421C40.3313 27.4683 40.3444 27.4978 40.3837 27.5632L40.4328 27.6515C40.4916 27.7627 40.5538 27.8707 40.6258 27.9819L40.7861 28.2109C40.8548 28.3058 40.9235 28.4039 41.002 28.4923L41.038 28.5348C41.0838 28.5904 41.1361 28.646 41.195 28.7082C41.4534 28.9928 41.7282 29.2447 41.9998 29.4475L42.0357 29.4737C42.1928 29.5882 42.3531 29.7027 42.5167 29.8041L42.6082 29.8597C42.87 30.02 43.1448 30.164 43.4261 30.2916L43.3901 30.6023L43.3868 30.5925Z" fill="black"/>
    <path d="M29.0809 8.87009C29.0809 8.87009 28.9468 9.26593 28.9468 9.3837C28.9468 9.50147 29.1398 10.1361 29.1823 10.2964C29.2248 10.4567 29.4473 10.9671 29.516 11.1405C29.5847 11.3138 29.7581 11.6835 29.781 11.6737C29.8039 11.6704 30.4942 11.3073 30.4942 11.3073L30.6054 11.147C30.1016 9.92676 30.1507 8.39246 30.1507 8.39246C30.1507 8.39246 29.3786 8.24851 29.0744 8.86681H29.0776L29.0809 8.87009Z" fill="black"/>
    <path d="M29.8432 0.992379C29.8857 0.97275 30.0165 0.740479 30.1572 0.341365C30.2913 -0.0642921 29.7385 0.105822 29.588 0.190879C29.4375 0.272665 29.4048 0.99565 29.4048 0.99565C29.4048 0.99565 29.8104 1.01528 29.8497 0.99565H29.8464L29.8432 0.992379Z" fill="black"/>
    <path d="M32.3 11.6051C32.3 11.6051 32.4603 10.9148 32.4341 10.8003C32.4112 10.6792 32.3 10.0479 32.3 10.0479C32.3 10.0479 31.8551 10.2311 31.6883 10.2899C31.6883 10.2899 31.721 10.725 31.6883 10.8919C31.6555 11.0587 31.8322 11.6639 31.8224 11.8144C31.8126 11.9649 32.3 11.6018 32.3 11.6018V11.6051Z" fill="black"/>
    <path d="M42.2059 21.2132L42.4414 20.886C42.4414 20.886 42.2059 20.0878 42.1241 19.8326C42.0423 19.5807 41.8722 19.0606 41.8591 18.9592C41.8395 18.8577 41.3717 18.0039 41.3717 18.0039C41.3717 18.0039 40.6192 18.6418 40.5505 18.7432C40.5505 18.7432 41.2703 20.1042 41.496 20.3201C41.7217 20.536 42.2092 21.2066 42.2092 21.2066L42.2059 21.2132Z" fill="black"/>
    <path d="M46.6026 28.1942C46.6026 28.1942 45.9581 28.6947 45.8371 28.9106C45.7127 29.1265 45.3954 29.2999 45.3594 29.3392C45.3234 29.3752 45.9385 29.7677 46.0039 29.7677C46.0693 29.7677 46.9232 29.4635 46.9461 29.4275C46.969 29.3915 47.2569 28.927 47.3223 28.783C47.3877 28.6456 46.7203 28.3414 46.6058 28.1909L46.6026 28.1942Z" fill="black"/>
    <path d="M28.1714 4.30661C28.1714 4.30661 28.7734 4.29353 28.901 4.25754C29.0253 4.22156 29.6043 4.03181 29.6403 3.77991C29.6763 3.52801 29.6632 3.21396 29.6632 3.21396L28.8584 2.73633L27.4255 3.21396C27.5629 3.30228 28.0929 3.793 28.0929 3.793L28.1649 4.30661H28.1681H28.1714Z" fill="black"/>
    <path d="M37.8516 18.9753V18.5991H36.8243V18.8936L37.0632 19.188L37.8548 18.9721L37.8516 18.9753Z" fill="black"/>
    <path d="M44.3749 28.9798C44.4795 28.934 44.7183 28.9242 44.6856 28.8751C44.6529 28.826 44.1655 28.7246 44.0608 28.7246C44.0608 28.7246 44.2636 29.0288 44.3716 28.983L44.3749 28.9798Z" fill="black"/>
    <path d="M33.2913 26.5062C32.7122 25.8094 31.4266 25.1616 29.9413 25.9631C29.3917 26.2608 29.0646 26.6567 28.8749 27.0689C28.3972 28.1157 28.8192 29.2771 28.8421 29.3196C28.8749 29.3752 29.0482 29.6075 29.2936 29.7514C29.5422 29.8888 30.9064 30.2487 32.3066 29.6009C33.7067 28.9532 33.6053 27.1376 33.6053 27.1376C33.5792 26.9544 33.4679 26.7286 33.2847 26.5094H33.288L33.2913 26.5062Z" fill="black"/>
    <path d="M33.4614 37.6389C32.6795 36.9944 31.2663 37.1154 30.2194 38.4567C30.1965 38.4829 30.1736 38.5123 30.154 38.5385C29.0286 40.0532 30.2129 40.979 30.4124 41.0313C30.6087 41.087 31.5345 41.0968 32.6141 39.9321C33.6904 38.7741 33.6184 37.7763 33.6184 37.7763C33.5726 37.7272 33.517 37.6749 33.4679 37.6291H33.4647L33.4614 37.6389Z" fill="black"/>
    <path d="M15.7597 41.0805C15.704 41.0837 15.655 41.0903 15.5994 41.1001C13.8295 41.3749 13.8491 42.0783 13.9473 42.2386C14.0389 42.3989 14.9058 43.2592 16.234 43.0335C17.5622 42.8078 18.2492 42.2909 18.2492 42.2909C18.2394 42.2484 18.223 42.1993 18.2034 42.147C18.0071 41.6464 17.2612 40.9071 15.7597 41.0805Z" fill="black"/>
    <path d="M23.6699 36.085C23.3493 35.4929 22.5216 34.5311 20.8957 34.7568C20.3461 34.8353 19.9209 35.0283 19.6003 35.2835C18.6646 36.0359 18.5959 37.3641 18.8642 38.0675C18.8642 38.0675 20.1139 38.9508 21.7888 38.5647C23.4671 38.1787 23.8662 36.736 23.8335 36.4874C23.8237 36.4285 23.7746 36.2715 23.6666 36.0817L23.6699 36.085Z" fill="black"/>
    <path d="M15.9167 15.3834C16.2896 13.4631 15.9167 13.0051 15.9167 13.0051C15.8971 12.9953 15.8742 12.9855 15.8513 12.9724C15.0792 12.5831 13.4566 12.7565 12.8154 14.7946C12.7827 14.8993 12.7598 14.9974 12.7369 15.0988C12.3312 16.9668 13.9407 17.7094 14.0912 17.68C14.2483 17.6538 15.5372 17.307 15.9134 15.3834H15.9167Z" fill="black"/>
    <path d="M8.1372 21.416C7.84277 21.452 7.34879 21.6221 6.9693 22.2928C6.85808 22.489 6.79592 22.6886 6.76648 22.8751C6.65198 23.6504 7.1296 24.2654 7.25719 24.2589C7.41749 24.2491 8.44145 22.2797 8.38583 21.4062C8.38583 21.4062 8.28442 21.3931 8.13393 21.4062V21.416H8.1372Z" fill="black"/>
    <path d="M20.5816 25.3875C22.1192 25.6459 23.1661 24.7135 23.2969 23.3952C23.2969 23.3755 23.3002 23.3624 23.3002 23.3461C23.4049 22.0015 22.4169 21.1739 22.4169 21.1739C22.1552 20.8991 21.3504 20.4771 20.2545 20.4771C19.4955 20.4771 18.9165 20.9743 18.573 21.622C18.4159 21.9165 18.3113 22.2371 18.2655 22.5642C18.1052 23.6078 19.0179 25.1356 20.5816 25.394V25.3875Z" fill="black"/>
    <path d="M12.0466 29.1037C11.2255 28.9238 10.3455 29.2313 9.7828 29.9183C9.41967 30.3534 9.19067 30.9488 9.18412 31.6718C9.17431 33.5267 10.8755 34.2268 11.219 34.2399C11.5625 34.2497 12.9201 33.422 12.943 31.6358C12.9561 30.3076 12.4621 29.5585 12.2004 29.2608C12.1088 29.1561 12.0499 29.1037 12.0499 29.1037H12.0466Z" fill="black"/>
    <path d="M38.5386 34.2365C41.0379 32.5321 39.7555 29.6074 39.7555 29.6074C38.6563 29.7972 37.7436 32.6793 38.5386 34.2365Z" fill="black"/>
    <path d="M45.281 41.5942L36.4187 37.7012L39.1994 46.9724L40.9104 45.4577L44.4697 49.7106L47.1261 47.3584L43.5668 43.1088L45.2777 41.5942H45.281Z" fill="#EDA51E"/>
    <path d="M44.4696 49.9363H44.45C44.3911 49.9297 44.3322 49.9036 44.293 49.8545L40.8841 45.7816L39.3466 47.1392C39.2909 47.1916 39.2092 47.2079 39.1372 47.185C39.0619 47.1654 39.0031 47.1065 38.9834 47.0313L36.2027 37.76C36.1766 37.675 36.2027 37.5834 36.2714 37.5278C36.3369 37.4722 36.4317 37.4558 36.5135 37.4918L45.3758 41.3848C45.4445 41.4175 45.4968 41.4796 45.5099 41.5549C45.523 41.6301 45.4936 41.7087 45.438 41.761L43.8938 43.1284L47.3092 47.2112C47.3877 47.3061 47.3779 47.4435 47.2863 47.5252L44.6299 49.8774C44.5874 49.9134 44.535 49.933 44.4794 49.933H44.4729L44.4696 49.9363ZM40.9136 45.2352H40.9332C40.9921 45.2418 41.051 45.268 41.0902 45.317L44.4991 49.39L46.8185 47.3388L43.4031 43.256C43.3246 43.1612 43.3344 43.0238 43.426 42.942L44.872 41.6628L36.7818 38.1101L39.3204 46.5733L40.7664 45.2941C40.8089 45.2581 40.8612 45.2385 40.9168 45.2385L40.9136 45.2352Z" fill="black"/>
  </g>
  <defs>
    <clipPath id="clip0_2922_5078">
      <rect width="47.2165" height="49.8533" fill="white" transform="translate(0.141724 0.0830078)"/>
    </clipPath>
  </defs>
</svg>
