<svg width="32" height="48" viewBox="0 0 32 48" fill="none" xmlns="http://www.w3.org/2000/svg">
  <path d="M0.575073 22.1897V40.7602C0.575073 41.5143 0.916277 42.2263 1.49974 42.7028C4.81282 45.4108 9.95817 47.1567 15.7507 47.1567C21.5432 47.1567 26.6885 45.4108 30.0016 42.7028C30.5851 42.2251 30.9263 41.5143 30.9263 40.7602V22.1885C30.9263 20.8066 29.806 19.6875 28.4252 19.6875H3.0761C1.69422 19.6875 0.575073 20.8078 0.575073 22.1885V22.1897Z" fill="#EDA51E" stroke="black" stroke-width="1.13735" stroke-miterlimit="10"/>
  <path d="M3.25574 19.5908C2.94638 19.5908 2.69617 19.3406 2.69617 19.0312V13.9177C2.71436 13.0613 2.9225 7.5918 7.45823 3.83515C8.28167 3.15275 11.3025 0.824599 15.7506 0.863269C20.8004 0.906488 24.0589 3.9705 24.979 4.91449C28.4866 8.51305 28.7664 12.86 28.8051 13.9177V19.0312C28.8051 19.3406 28.5548 19.5908 28.2455 19.5908H24.9483C24.639 19.5908 24.3888 19.3406 24.3888 19.0312V13.9177C24.3239 13.0704 24.0157 10.5091 21.9799 8.27421C21.4078 7.6464 19.2434 5.34555 15.7506 5.28186C12.5228 5.22271 10.3744 7.11412 9.82732 7.63047C7.20119 10.1099 7.11589 13.3354 7.1102 13.9189V19.0324C7.1102 19.3417 6.85999 19.5919 6.55063 19.5919C5.45195 19.5919 4.35442 19.5919 3.25574 19.5919V19.5908Z" fill="white" stroke="black" stroke-width="1.13735" stroke-miterlimit="10"/>
  <path d="M13.8898 30.8769C14.0814 30.9853 13.8591 33.3847 13.7613 34.7598C13.6987 35.6469 13.6145 36.4988 13.5156 37.3131C13.428 38.0319 13.991 38.6643 14.7155 38.6643H17.0095C17.7226 38.6643 18.2799 38.0501 18.2128 37.3415L17.5975 30.878C18.9748 29.5507 19.3058 27.6434 18.5301 26.3616C17.7624 25.0923 16.1872 24.891 15.9199 24.8615C15.6549 24.833 14.1343 24.6954 13.2495 25.611C12.2042 26.6914 12.2838 28.998 13.8886 30.878L13.8898 30.8769Z" fill="white" stroke="black" stroke-width="1.13735" stroke-miterlimit="10"/>
</svg>
