<svg width="55" height="50" viewBox="0 0 55 50" fill="none" xmlns="http://www.w3.org/2000/svg">
<path fill-rule="evenodd" clip-rule="evenodd" d="M9.56313 41.0884C5.87725 39.6343 5.54491 34.5473 9.01028 32.626L9.01722 37.2306C9.01764 37.4596 9.13971 37.6711 9.33797 37.7856L27.5964 48.2025L9.56313 41.0884Z" fill="#333333" fill-opacity="0.2"/>
<path fill-rule="evenodd" clip-rule="evenodd" d="M10.0527 13.4411L32.8949 0.354564C33.3053 0.119452 33.8379 0.00747409 34.2989 0.113559C34.9463 0.262793 35.5532 0.466542 35.5518 1.03338L35.5865 22.2667L33.5768 23.4543C34.2345 23.7744 54.2853 33.5346 54.3183 33.5586L54.3667 34.3778C54.3667 34.7312 54.1798 35.0571 53.874 35.2343C50.4609 37.2114 30.4673 48.7704 30.4673 48.7704C29.8094 49.1507 28.9987 49.1507 28.341 48.7704L9.33792 37.7856C9.13966 37.6711 9.01759 37.4595 9.01717 37.2305L8.98413 15.2794C8.98603 14.5196 9.39349 13.8187 10.0527 13.4411Z" fill="#C6C6C6"/>
<path fill-rule="evenodd" clip-rule="evenodd" d="M9.65723 37.1584L35.6065 22.351L35.66 1.16439C35.6617 0.552304 35.0004 0.167958 34.4694 0.472109L10.5401 14.1814C10.019 14.4799 9.69721 15.0339 9.69553 15.6342L9.65723 37.1584Z" fill="#666666"/>
<path fill-rule="evenodd" clip-rule="evenodd" d="M34.5923 1.70227L10.8358 15.3394L10.7864 35.2852L34.5923 21.6182V1.70227Z" fill="#E6E6E6"/>
<path fill-rule="evenodd" clip-rule="evenodd" d="M9.67212 37.1568L35.6077 22.1982L53.9493 32.8C54.4793 33.1064 54.4791 33.8711 53.9493 34.1772L30.0721 47.977C29.5522 48.2776 28.9116 48.2776 28.3915 47.977L9.67212 37.1568Z" fill="#F4F4F4"/>
<path fill-rule="evenodd" clip-rule="evenodd" d="M16.8501 37.6172C16.3337 37.9138 16.0754 38.0622 15.5589 38.3589C15.0366 38.0634 14.7756 37.9159 14.2534 37.6208C14.7699 37.3242 15.0281 37.1758 15.5446 36.879C16.0668 37.1745 16.328 37.3221 16.8501 37.6172Z" fill="#C6C6C6"/>
<path fill-rule="evenodd" clip-rule="evenodd" d="M18.7561 36.5227C18.2397 36.8193 17.9814 36.9677 17.4649 37.2643C16.9428 36.9689 16.6816 36.8214 16.1594 36.5263C16.6759 36.2295 16.9341 36.0811 17.4506 35.7845C17.973 36.0799 18.234 36.2274 18.7561 36.5227Z" fill="#C6C6C6"/>
<path fill-rule="evenodd" clip-rule="evenodd" d="M20.6624 35.4279C20.1459 35.7245 19.8876 35.8729 19.3709 36.1694C18.8488 35.8743 18.5876 35.7268 18.0654 35.4315C18.5821 35.1347 18.8404 34.9865 19.3568 34.6899C19.879 34.985 20.1402 35.1328 20.6624 35.4279Z" fill="#C6C6C6"/>
<path fill-rule="evenodd" clip-rule="evenodd" d="M22.5686 34.3335C22.0519 34.6301 21.7937 34.7785 21.2772 35.075C20.755 34.7799 20.4938 34.6322 19.9717 34.3369C20.4882 34.0403 20.7464 33.8919 21.2631 33.5953C21.7853 33.8904 22.0464 34.038 22.5686 34.3335Z" fill="#C6C6C6"/>
<path fill-rule="evenodd" clip-rule="evenodd" d="M24.4747 33.2384C23.9583 33.5352 23.6998 33.6836 23.1833 33.9802C22.6609 33.6851 22.4 33.5373 21.8778 33.2422C22.3943 32.9455 22.6525 32.7973 23.169 32.5005C23.6914 32.7958 23.9526 32.9433 24.4747 33.2384Z" fill="#C6C6C6"/>
<path fill-rule="evenodd" clip-rule="evenodd" d="M26.381 32.1437C25.8643 32.4405 25.6061 32.5889 25.0896 32.8855C24.5674 32.5902 24.3062 32.4426 23.7841 32.1475C24.3005 31.8509 24.559 31.7025 25.0755 31.4058C25.5976 31.7011 25.8588 31.8486 26.381 32.1437Z" fill="#C6C6C6"/>
<path fill-rule="evenodd" clip-rule="evenodd" d="M28.2872 31.0493C27.7705 31.3459 27.5123 31.4943 26.9958 31.7911C26.4737 31.4958 26.2125 31.348 25.6903 31.0529C26.2068 30.7563 26.465 30.6077 26.9817 30.3112C27.5039 30.6065 27.7649 30.754 28.2872 31.0493Z" fill="#C6C6C6"/>
<path fill-rule="evenodd" clip-rule="evenodd" d="M30.1932 29.9545C29.6765 30.2511 29.4183 30.3994 28.9018 30.696C28.3797 30.4009 28.1185 30.2534 27.5963 29.9581C28.1128 29.6613 28.371 29.5131 28.8877 29.2163C29.4099 29.5116 29.6711 29.6594 30.1932 29.9545Z" fill="#C6C6C6"/>
<path fill-rule="evenodd" clip-rule="evenodd" d="M32.0995 28.8599C31.583 29.1567 31.3246 29.3049 30.8081 29.6014C30.2857 29.3063 30.0247 29.1588 29.5026 28.8635C30.019 28.5669 30.2773 28.4185 30.794 28.1219C31.3161 28.417 31.5773 28.5646 32.0995 28.8599Z" fill="#C6C6C6"/>
<path fill-rule="evenodd" clip-rule="evenodd" d="M34.0054 27.7654C33.4889 28.062 33.2307 28.2104 32.7142 28.5069C32.192 28.2118 31.9308 28.0641 31.4084 27.7688C31.9251 27.4722 32.1834 27.3238 32.6999 27.0272C33.2222 27.3225 33.4832 27.4701 34.0054 27.7654Z" fill="#C6C6C6"/>
<path fill-rule="evenodd" clip-rule="evenodd" d="M35.9115 26.6707C35.3951 26.9673 35.137 27.1157 34.6203 27.4125C34.0982 27.1169 33.837 26.9694 33.3148 26.6743C33.8315 26.3775 34.0898 26.2293 34.6062 25.9327C35.1284 26.2278 35.3894 26.3756 35.9115 26.6707Z" fill="#C6C6C6"/>
<path fill-rule="evenodd" clip-rule="evenodd" d="M37.8176 25.5761C37.3011 25.8726 37.0427 26.0208 36.5262 26.3176C36.0041 26.0223 35.7431 25.8747 35.2207 25.5794C35.7372 25.2829 35.9956 25.1347 36.5121 24.8379C37.0341 25.1332 37.2955 25.2808 37.8176 25.5761Z" fill="#C6C6C6"/>
<path fill-rule="evenodd" clip-rule="evenodd" d="M18.6827 38.6532C18.1663 38.9498 17.908 39.0982 17.3913 39.395C16.8692 39.0994 16.608 38.9519 16.0858 38.6568C16.6023 38.3602 16.8605 38.2116 17.377 37.915C17.8992 38.2103 18.1606 38.3581 18.6827 38.6532Z" fill="#C6C6C6"/>
<path fill-rule="evenodd" clip-rule="evenodd" d="M20.5887 37.5587C20.0723 37.8553 19.814 38.0035 19.2973 38.3003C18.7752 38.005 18.514 37.8574 17.9918 37.5621C18.5083 37.2653 18.7665 37.1171 19.2832 36.8206C19.8054 37.1157 20.0666 37.2634 20.5887 37.5587Z" fill="#C6C6C6"/>
<path fill-rule="evenodd" clip-rule="evenodd" d="M22.495 36.4641C21.9783 36.7607 21.72 36.9091 21.2036 37.2057C20.6814 36.9106 20.42 36.763 19.8978 36.4675C20.4145 36.1709 20.6728 36.0225 21.1892 35.726C21.7116 36.0213 21.9726 36.1688 22.495 36.4641Z" fill="#C6C6C6"/>
<path fill-rule="evenodd" clip-rule="evenodd" d="M24.4012 35.3695C23.8845 35.6661 23.6263 35.8145 23.1098 36.1111C22.5874 35.8157 22.3262 35.668 21.8041 35.3729C22.3206 35.0763 22.5788 34.9279 23.0955 34.6313C23.6177 34.9264 23.8788 35.074 24.4012 35.3695Z" fill="#C6C6C6"/>
<path fill-rule="evenodd" clip-rule="evenodd" d="M26.3073 34.2745C25.7907 34.5712 25.5324 34.7196 25.0157 35.0162C24.4936 34.7209 24.2324 34.5733 23.7102 34.278C24.2267 33.9815 24.4849 33.8331 25.0016 33.5365C25.5238 33.8316 25.785 33.9794 26.3073 34.2745Z" fill="#C6C6C6"/>
<path fill-rule="evenodd" clip-rule="evenodd" d="M28.2135 33.1798C27.6968 33.4766 27.4385 33.6248 26.9221 33.9216C26.3997 33.6263 26.1385 33.4787 25.6163 33.1836C26.133 32.8868 26.3913 32.7386 26.9077 32.4417C27.4301 32.7372 27.6911 32.8847 28.2135 33.1798Z" fill="#C6C6C6"/>
<path fill-rule="evenodd" clip-rule="evenodd" d="M30.1194 32.0855C29.6029 32.382 29.3447 32.5304 28.8282 32.827C28.3058 32.5317 28.0446 32.3841 27.5225 32.089C28.0389 31.792 28.2974 31.6439 28.8139 31.3473C29.336 31.6424 29.5972 31.7902 30.1194 32.0855Z" fill="#C6C6C6"/>
<path fill-rule="evenodd" clip-rule="evenodd" d="M32.0259 30.9906C31.5092 31.2872 31.2509 31.4356 30.7344 31.7322C30.2121 31.4371 29.9509 31.2893 29.4287 30.994C29.9452 30.6974 30.2036 30.549 30.7201 30.2524C31.2423 30.5475 31.5035 30.6953 32.0259 30.9906Z" fill="#C6C6C6"/>
<path fill-rule="evenodd" clip-rule="evenodd" d="M33.9321 29.8959C33.4154 30.1927 33.1572 30.3409 32.6405 30.6374C32.1183 30.3423 31.8571 30.1948 31.335 29.8993C31.8514 29.6027 32.1097 29.4545 32.6264 29.1577C33.1488 29.453 33.4097 29.6006 33.9321 29.8959Z" fill="#C6C6C6"/>
<path fill-rule="evenodd" clip-rule="evenodd" d="M35.838 28.8012C35.3215 29.098 35.0631 29.2464 34.5468 29.5429C34.0244 29.2476 33.7632 29.0999 33.2408 28.8048C33.7575 28.5082 34.0158 28.3598 34.5323 28.0632C35.0546 28.3583 35.3156 28.5061 35.838 28.8012Z" fill="#C6C6C6"/>
<path fill-rule="evenodd" clip-rule="evenodd" d="M37.7439 27.7064C37.2275 28.003 36.9692 28.1514 36.4527 28.448C35.9304 28.1527 35.6694 28.0051 35.1472 27.7098C35.6637 27.4132 35.9217 27.265 36.4382 26.9683C36.9606 27.2636 37.2218 27.4111 37.7439 27.7064Z" fill="#C6C6C6"/>
<path fill-rule="evenodd" clip-rule="evenodd" d="M39.6498 26.6121C38.7839 27.1092 38.3508 27.358 37.4849 27.8552C36.9626 27.5601 36.7014 27.4125 36.1792 27.1172C37.0453 26.6199 37.4782 26.3713 38.3443 25.8739C38.8664 26.1692 39.1276 26.3168 39.6498 26.6121Z" fill="#C6C6C6"/>
<path fill-rule="evenodd" clip-rule="evenodd" d="M21.3686 39.1994C20.5108 39.6921 20.0818 39.9384 19.224 40.4309C18.7018 40.1356 18.4406 39.988 17.9185 39.6929C18.7761 39.2002 19.205 38.9539 20.0629 38.4612C20.585 38.7565 20.8462 38.904 21.3686 39.1994Z" fill="#C6C6C6"/>
<path fill-rule="evenodd" clip-rule="evenodd" d="M22.4213 38.5947C21.9048 38.8913 21.6465 39.0397 21.1301 39.3363C20.6077 39.041 20.3465 38.8934 19.8243 38.5981C20.3408 38.3013 20.5991 38.1531 21.1155 37.8566C21.6379 38.1517 21.8991 38.2992 22.4213 38.5947Z" fill="#C6C6C6"/>
<path fill-rule="evenodd" clip-rule="evenodd" d="M24.3274 37.5C23.8107 37.7968 23.5524 37.945 23.0359 38.2415C22.5136 37.9464 22.2526 37.7989 21.7302 37.5034C22.2467 37.2068 22.5052 37.0586 23.0216 36.7618C23.5438 37.0572 23.805 37.2047 24.3274 37.5Z" fill="#C6C6C6"/>
<path fill-rule="evenodd" clip-rule="evenodd" d="M26.2337 36.4054C25.717 36.7022 25.4588 36.8506 24.9421 37.1472C24.4199 36.8519 24.1588 36.7041 23.6366 36.409C24.1531 36.1124 24.4113 35.9641 24.928 35.6675C25.4502 35.9626 25.7114 36.1101 26.2337 36.4054Z" fill="#C6C6C6"/>
<path fill-rule="evenodd" clip-rule="evenodd" d="M28.1397 35.3106C27.623 35.6073 27.3648 35.7555 26.8481 36.0523C26.326 35.757 26.0648 35.6094 25.5426 35.3141C26.0591 35.0176 26.3173 34.8692 26.834 34.5724C27.3562 34.8677 27.6174 35.0155 28.1397 35.3106Z" fill="#C6C6C6"/>
<path fill-rule="evenodd" clip-rule="evenodd" d="M30.0461 34.2158C29.5294 34.5126 29.2711 34.6608 28.7547 34.9576C28.2323 34.6623 27.9711 34.5147 27.4487 34.2194C27.9654 33.9226 28.2237 33.7744 28.7404 33.4777C29.2625 33.7732 29.5237 33.9207 30.0461 34.2158Z" fill="#C6C6C6"/>
<path fill-rule="evenodd" clip-rule="evenodd" d="M31.9519 33.1212C31.4354 33.4178 31.1772 33.5662 30.6605 33.8628C30.1383 33.5677 29.8771 33.4199 29.355 33.1246C29.8715 32.828 30.1297 32.6796 30.6464 32.3831C31.1686 32.6782 31.4297 32.8259 31.9519 33.1212Z" fill="#C6C6C6"/>
<path fill-rule="evenodd" clip-rule="evenodd" d="M33.8584 32.0266C33.3417 32.3232 33.0834 32.4716 32.567 32.7682C32.0446 32.4731 31.7834 32.3255 31.2612 32.03C31.7777 31.7334 32.036 31.585 32.5526 31.2885C33.0748 31.5836 33.336 31.7313 33.8584 32.0266Z" fill="#C6C6C6"/>
<path fill-rule="evenodd" clip-rule="evenodd" d="M35.7643 30.9318C35.2478 31.2286 34.9896 31.3767 34.4729 31.6735C33.9507 31.3782 33.6895 31.2305 33.1674 30.9351C33.6838 30.6386 33.9421 30.4904 34.4588 30.1936C34.9809 30.4889 35.2421 30.6365 35.7643 30.9318Z" fill="#C6C6C6"/>
<path fill-rule="evenodd" clip-rule="evenodd" d="M37.6705 29.8372C37.1541 30.134 36.8956 30.2823 36.3791 30.5789C35.857 30.2836 35.5958 30.1358 35.0736 29.8407C35.5901 29.5442 35.8485 29.3958 36.365 29.099C36.8872 29.3943 37.1482 29.5421 37.6705 29.8372Z" fill="#C6C6C6"/>
<path fill-rule="evenodd" clip-rule="evenodd" d="M39.5766 28.7427C39.0601 29.0393 38.8019 29.1874 38.2854 29.4844C37.763 29.1889 37.502 29.0414 36.9799 28.7461C37.4963 28.4495 37.7544 28.3011 38.2709 28.0045C38.7932 28.2998 39.0544 28.4474 39.5766 28.7427Z" fill="#C6C6C6"/>
<path fill-rule="evenodd" clip-rule="evenodd" d="M41.4824 27.6481C40.9659 27.9447 40.7077 28.0928 40.1912 28.3894C39.6691 28.0943 39.4079 27.9468 38.8855 27.6515C39.402 27.3547 39.6604 27.2065 40.1769 26.9099C40.6991 27.205 40.9603 27.3528 41.4824 27.6481Z" fill="#C6C6C6"/>
<path fill-rule="evenodd" clip-rule="evenodd" d="M22.3478 40.7254C21.8313 41.0219 21.5731 41.1703 21.0564 41.4669C20.5342 41.1716 20.273 41.024 19.7509 40.7287C20.2673 40.4321 20.5256 40.2838 21.0421 39.9872C21.5642 40.2823 21.8254 40.43 22.3478 40.7254Z" fill="#C6C6C6"/>
<path fill-rule="evenodd" clip-rule="evenodd" d="M24.2538 39.6309C23.7373 39.9274 23.4791 40.0758 22.9626 40.3724C22.4402 40.0771 22.179 39.9296 21.6569 39.6342C22.1733 39.3377 22.4316 39.1893 22.9481 38.8927C23.4704 39.1878 23.7314 39.3356 24.2538 39.6309Z" fill="#C6C6C6"/>
<path fill-rule="evenodd" clip-rule="evenodd" d="M26.1597 38.536C25.6432 38.8328 25.385 38.981 24.8685 39.2776C24.3461 38.9825 24.0851 38.8347 23.5627 38.5394C24.0794 38.2428 24.3377 38.0946 24.8542 37.7979C25.3763 38.0932 25.6375 38.2407 26.1597 38.536Z" fill="#C6C6C6"/>
<path fill-rule="evenodd" clip-rule="evenodd" d="M28.0661 37.4413C27.5494 37.7379 27.2912 37.8865 26.7745 38.183C26.2523 37.8877 25.9912 37.74 25.469 37.4449C25.9855 37.1483 26.2437 36.9999 26.7604 36.7031C27.2826 36.9984 27.5438 37.1462 28.0661 37.4413Z" fill="#C6C6C6"/>
<path fill-rule="evenodd" clip-rule="evenodd" d="M29.9722 36.3467C29.4557 36.6435 29.1975 36.7917 28.6808 37.0884C28.1586 36.7931 27.8974 36.6456 27.3752 36.3503C27.8917 36.0537 28.1502 35.9053 28.6667 35.6085C29.1888 35.904 29.45 36.0516 29.9722 36.3467Z" fill="#C6C6C6"/>
<path fill-rule="evenodd" clip-rule="evenodd" d="M31.8783 35.2519C31.3618 35.5487 31.1036 35.6968 30.5869 35.9936C30.0647 35.6983 29.8035 35.5508 29.2814 35.2557C29.7979 34.9587 30.0563 34.8105 30.5728 34.5139C31.0949 34.809 31.3561 34.9568 31.8783 35.2519Z" fill="#C6C6C6"/>
<path fill-rule="evenodd" clip-rule="evenodd" d="M33.7844 34.1575C33.2679 34.4541 33.0097 34.6024 32.493 34.899C31.9709 34.6039 31.7097 34.4562 31.1875 34.1609C31.704 33.8643 31.9622 33.7159 32.4789 33.4193C33.0011 33.7144 33.2623 33.8622 33.7844 34.1575Z" fill="#C6C6C6"/>
<path fill-rule="evenodd" clip-rule="evenodd" d="M35.6909 33.0626C35.1744 33.3592 34.916 33.5076 34.3993 33.8042C33.8771 33.5091 33.6159 33.3613 33.0938 33.066C33.6102 32.7694 33.8685 32.621 34.3852 32.3245C34.9073 32.6198 35.1685 32.7673 35.6909 33.0626Z" fill="#C6C6C6"/>
<path fill-rule="evenodd" clip-rule="evenodd" d="M37.5968 31.968C37.0803 32.2648 36.8221 32.413 36.3056 32.7098C35.7832 32.4143 35.522 32.2667 34.9999 31.9716C35.5164 31.6748 35.7746 31.5266 36.2913 31.2299C36.8137 31.5252 37.0746 31.6727 37.5968 31.968Z" fill="#C6C6C6"/>
<path fill-rule="evenodd" clip-rule="evenodd" d="M39.5029 30.8731C38.9865 31.1696 38.728 31.318 38.2115 31.6148C37.6894 31.3195 37.4282 31.1717 36.906 30.8766C37.4225 30.5801 37.6807 30.4317 38.1974 30.1349C38.7196 30.4304 38.9806 30.578 39.5029 30.8731Z" fill="#C6C6C6"/>
<path fill-rule="evenodd" clip-rule="evenodd" d="M42.2325 29.3057C41.3867 29.7917 40.9636 30.0344 40.1178 30.5202C39.5954 30.2249 39.3344 30.0773 38.8123 29.7822C39.6579 29.2962 40.0809 29.0533 40.927 28.5675C41.4492 28.8628 41.7101 29.0106 42.2325 29.3057Z" fill="#C6C6C6"/>
<path fill-rule="evenodd" clip-rule="evenodd" d="M43.3151 28.6841C42.7986 28.9807 42.5406 29.1289 42.0237 29.4254C41.5017 29.1303 41.2405 28.9828 40.7181 28.6873C41.2346 28.3907 41.4931 28.2425 42.0096 27.9459C42.5319 28.241 42.7929 28.3886 43.3151 28.6841Z" fill="#C6C6C6"/>
<path fill-rule="evenodd" clip-rule="evenodd" d="M24.4335 41.9046C23.917 42.2014 23.6588 42.3496 23.1423 42.6461C22.6201 42.3508 22.3589 42.2033 21.8365 41.9082C22.3532 41.6116 22.6115 41.4632 23.128 41.1666C23.6501 41.4617 23.9113 41.6093 24.4335 41.9046Z" fill="#C6C6C6"/>
<path fill-rule="evenodd" clip-rule="evenodd" d="M26.3395 40.8097C25.823 41.1063 25.5648 41.2545 25.0483 41.5512C24.5259 41.2559 24.265 41.1084 23.7428 40.8133C24.2593 40.5165 24.5175 40.3683 25.034 40.0715C25.5562 40.3668 25.8174 40.5144 26.3395 40.8097Z" fill="#C6C6C6"/>
<path fill-rule="evenodd" clip-rule="evenodd" d="M28.2456 39.7151C27.7291 40.0117 27.4707 40.1601 26.9542 40.4566C26.432 40.1615 26.1708 40.014 25.6487 39.7187C26.1652 39.4219 26.4234 39.2737 26.9399 38.9769C27.4623 39.2722 27.7234 39.42 28.2456 39.7151Z" fill="#C6C6C6"/>
<path fill-rule="evenodd" clip-rule="evenodd" d="M39.6825 33.1471C36.0752 35.2189 32.4678 37.2905 28.8604 39.3623C28.3382 39.067 28.0771 38.9195 27.5547 38.6241C31.1623 36.5525 34.7696 34.4807 38.377 32.4089C38.8994 32.7042 39.1606 32.852 39.6825 33.1471Z" fill="#C6C6C6"/>
<path fill-rule="evenodd" clip-rule="evenodd" d="M41.5887 32.0525C41.0723 32.3491 40.8138 32.4975 40.2973 32.794C39.7752 32.4987 39.5142 32.3512 38.9918 32.0559C39.5083 31.7593 39.7668 31.6109 40.2832 31.3143C40.8054 31.6094 41.0666 31.7572 41.5887 32.0525Z" fill="#C6C6C6"/>
<path fill-rule="evenodd" clip-rule="evenodd" d="M43.4949 30.9577C42.9784 31.2545 42.7199 31.4027 42.2035 31.6992C41.6811 31.4041 41.4201 31.2564 40.8979 30.9613C41.4144 30.6645 41.6727 30.5163 42.1894 30.2197C42.7115 30.5148 42.9725 30.6624 43.4949 30.9577Z" fill="#C6C6C6"/>
<path fill-rule="evenodd" clip-rule="evenodd" d="M45.4007 29.863C44.8842 30.1598 44.626 30.3082 44.1095 30.6047C43.5873 30.3094 43.3261 30.1619 42.804 29.8666C43.3206 29.57 43.5787 29.4218 44.0952 29.1252C44.6175 29.4203 44.8785 29.5679 45.4007 29.863Z" fill="#C6C6C6"/>
<path fill-rule="evenodd" clip-rule="evenodd" d="M30.8396 39.8937L39.7387 34.7554L44.8239 37.8884L35.9282 43.0287L30.8396 39.8937Z" fill="#C6C6C6"/>
<path fill-rule="evenodd" clip-rule="evenodd" d="M9.65723 37.1584L9.69553 15.6342C9.69721 15.0339 10.019 14.4799 10.5401 14.1815L34.4694 0.472131C34.4753 0.468763 34.4812 0.465396 34.487 0.462238C34.6087 0.396567 34.7365 0.36731 34.8613 0.36731C34.8825 0.36731 34.9036 0.368152 34.9246 0.369835C34.6798 0.746604 34.2627 1.37659 33.7066 2.21053L10.836 15.3393L10.7866 35.2851L11.796 34.7057C11.2696 35.4838 10.8123 36.1599 10.4378 36.7131L9.65723 37.1584Z" fill="#999999"/>
<path fill-rule="evenodd" clip-rule="evenodd" d="M10.826 15.2285L33.7065 2.21057L11.8571 34.572L10.826 35.2245V15.2285Z" fill="white"/>
<path d="M15.597 18.0539C15.6882 17.2049 16.235 16.2652 16.9255 15.7708L17.7192 15.2024C21.0597 12.8103 24.4359 10.8589 27.7765 9.3893L28.5179 9.06313C29.2385 8.7461 29.8084 9.06922 29.9009 9.84726L29.967 10.4035C30.2329 12.642 30.2113 15.0777 29.9028 17.6414C29.8096 18.4165 29.2988 19.2639 28.6697 19.6874L27.1477 20.7119C24.2194 22.6829 21.2762 24.3841 18.348 25.7981L17.0076 26.4453C16.2755 26.7988 15.6854 26.4883 15.5922 25.7006L15.583 25.6229C15.3049 23.2731 15.3097 20.729 15.597 18.0539Z" fill="#333333" fill-opacity="0.2"/>
<path d="M16.855 18.6823C16.9461 17.8333 17.4929 16.8936 18.1834 16.3992L18.9771 15.8308C22.3176 13.4388 25.6939 11.4873 29.0344 10.0177L29.7758 9.69155C30.4965 9.37452 31.0664 9.69764 31.1588 10.4757L31.2249 11.032C31.4909 13.2705 31.4693 15.7061 31.1608 18.2699C31.0675 19.0449 30.5568 19.8923 29.9276 20.3158L28.4056 21.3403C25.4773 23.3114 22.5342 25.0125 19.6059 26.4265L18.2655 27.0737C17.5334 27.4273 16.9433 27.1168 16.8501 26.329L16.8409 26.2513C16.5629 23.9016 16.5676 21.3574 16.855 18.6823Z" fill="#E40D0D"/>
<path d="M22.3062 16.2639V21.7256C22.3062 22.1421 23.0647 22.8046 23.3703 22.4012L27.4748 16.982C27.7575 16.613 27.0035 16.0425 26.7207 15.995L23.0085 15.4151C22.7029 15.365 22.3062 15.8474 22.3062 16.2639Z" fill="#C6C6C6"/>
<path d="M22.9011 16.7405V22.2022C22.9011 22.6187 23.2979 22.6424 23.6034 22.2391L27.3157 17.3626C27.5985 16.9935 27.5985 16.519 27.3157 16.4716L23.6034 15.8917C23.2979 15.8416 22.9011 16.324 22.9011 16.7405Z" fill="white"/>
<path fill-rule="evenodd" clip-rule="evenodd" d="M34.512 16.9874L31.065 22.437C30.8703 22.7449 30.7609 23.0718 30.7609 23.3457V28.1956C30.7609 28.4696 30.8703 28.6682 31.065 28.7478C31.065 28.7478 32.7234 29.7364 33.2366 29.9462C33.8724 30.2059 34.512 30.1563 34.512 30.1563C34.7068 30.2358 34.9709 30.1898 35.2464 30.0284L40.122 27.1707C40.3974 27.0092 40.6616 26.7456 40.8563 26.4377L44.3033 20.9885C44.4981 20.6806 44.6075 20.3537 44.6075 20.0797L45.9403 16.8992C45.9403 16.8191 46.5214 15.985 46.5033 15.9189C46.4595 15.7588 44.4412 14.734 44.3034 14.6776L40.8563 13.2689C40.6616 13.1893 40.3974 13.2353 40.122 13.3967L35.2464 16.2544C34.971 16.4159 34.7068 16.6795 34.512 16.9874Z" fill="#C10000"/>
<path fill-rule="evenodd" clip-rule="evenodd" d="M36.5892 18.156L33.1421 23.6056C32.9474 23.9135 32.838 24.2403 32.838 24.5143V29.3642C32.838 29.6382 32.9474 29.8368 33.1422 29.9164L36.5892 31.3248C36.784 31.4044 37.0481 31.3584 37.3235 31.197L42.1991 28.3393C42.4746 28.1778 42.7387 27.9142 42.9335 27.6063L46.3805 22.157C46.5752 21.8492 46.6846 21.5223 46.6846 21.2483V16.3984C46.6846 16.1244 46.5752 15.9258 46.3805 15.8462L42.9335 14.4375C42.7387 14.3579 42.4745 14.4038 42.1991 14.5653L37.3236 17.423C37.0481 17.5844 36.7839 17.8481 36.5892 18.156Z" fill="#E40D0D"/>
<path fill-rule="evenodd" clip-rule="evenodd" d="M39.863 27.7553C42.2344 26.4394 42.7971 24.0789 42.7971 24.0789L44.1582 19.6412C44.1582 19.6412 44.2811 19.1907 44.2585 19.199C42.9911 19.6792 42.7216 20.6698 42.7216 20.6698C42.7216 20.6698 42.2344 22.1315 42.1589 22.1734C42.0833 22.2153 42.0743 22.1322 42.0743 22.1322V17.8518C42.0743 17.8518 42.098 17.2865 41.4959 17.6206C40.8937 17.9548 40.9241 18.4911 40.9241 18.4911L40.9253 21.6527C40.9253 21.6527 40.9332 21.7757 40.8204 21.8383C40.72 21.894 40.7257 21.7677 40.7257 21.7677V17.9577C40.7257 17.9577 40.7629 17.3148 40.154 17.6527C39.5451 17.9906 39.5778 18.5989 39.5778 18.5989L39.5721 22.361C39.5721 22.361 39.58 22.4724 39.4797 22.5281C39.3861 22.58 39.3894 22.4635 39.3894 22.4635V19.3119C39.3894 19.3119 39.4233 18.6517 38.8031 18.9959C38.1942 19.3337 38.2269 19.9686 38.2269 19.9686L38.2212 23.2996C38.2212 23.2996 38.2325 23.39 38.1366 23.4432C38.0352 23.4995 38.0374 23.4016 38.0374 23.4016L38.0329 21.3919C38.0329 21.3919 38.0385 20.8323 37.5266 21.1164C36.982 21.4186 36.9921 21.9694 36.9921 21.9694V26.3124C36.9955 26.3095 36.8545 29.4246 39.863 27.7553Z" fill="white"/>
</svg>
