<svg width="53" height="46" viewBox="0 0 53 46" fill="none" xmlns="http://www.w3.org/2000/svg">
  <g clip-path="url(#clip0_2922_5055)">
    <path d="M43.798 40.8606H7.68179C4.05123 40.8606 1.10718 37.9177 1.10718 34.286C1.14443 30.0466 1.16359 25.8083 1.16465 21.57C1.16465 17.1518 1.14656 12.7336 1.10718 8.31645C1.18168 7.26592 1.48929 5.21062 3.03262 3.66728C4.60789 2.09201 6.6749 1.84721 7.68179 1.74183C14.6289 1.01487 23.4536 1.10853 26.0081 1.1064C26.9629 1.1064 37.5906 1.08405 43.798 1.74183C44.707 1.83763 46.8772 2.09733 48.4472 3.66728C49.6371 4.85725 50.3726 6.50063 50.3726 8.31645C50.5153 12.4132 50.5951 16.6366 50.5983 20.9814C50.6025 25.5518 50.5216 29.9902 50.3726 34.2871C50.3726 34.7245 50.329 37.0545 43.798 40.8617V40.8606Z" fill="white" stroke="black" stroke-width="1.07375" stroke-miterlimit="10"/>
    <path d="M31.6525 20.7483C31.6057 20.3502 31.3332 20.0224 29.4631 18.8537C28.0422 17.966 26.915 17.3519 26.2626 17.0007C24.9034 16.2684 26.0114 16.8953 22.5585 15.1966C21.3739 14.6133 20.8481 14.344 20.4511 14.5867C20.0009 14.8623 20.0179 15.601 20.0296 16.6558C20.053 18.7686 20.0413 20.6887 20.0296 21.3241C20.0168 22.0085 19.9583 23.7434 20.0296 25.9478C20.0456 26.4299 20.0849 27.3293 20.6193 27.6124C21.0067 27.8179 21.6272 27.6848 21.8976 27.6263C22.1786 27.5656 22.4042 27.4773 22.5575 27.4081C24.9715 25.9467 27.3844 24.4853 29.7984 23.0229C30.0677 22.8696 31.7834 21.8648 31.6515 20.7494L31.6525 20.7483Z" fill="#EDA51E" stroke="black" stroke-width="1.07375" stroke-miterlimit="10"/>
    <path d="M1.10718 10.1528H50.3726" stroke="black" stroke-width="1.07375" stroke-miterlimit="10"/>
    <path d="M1.10718 32.4512H50.3726" stroke="black" stroke-width="1.07375" stroke-miterlimit="10"/>
    <path d="M50.6014 29.9382H44.4951C46.8729 26.6418 46.1705 23.3454 46.279 22.1565V22.1023C46.279 20.643 45.1444 19.4541 43.6851 19.4541C41.9013 19.4541 41.3073 20.9676 40.7124 22.5344C40.0099 24.3715 39.0913 26.6961 36.0643 28.1543L34.1186 29.1814V29.0728C34.1186 28.4778 33.6322 27.9925 33.0382 27.9925C31.9047 28.034 30.7701 28.0766 29.6365 28.1181C29.4864 28.1042 28.5104 28.0329 27.7153 28.7759C26.9 29.5379 26.9256 30.548 26.932 30.6949C26.9958 32.2617 27.0363 33.8742 27.0469 35.5293C27.0629 37.8752 27.0203 40.1391 26.932 42.3136C26.9298 42.4871 26.9373 43.4535 27.7153 44.2316C28.2018 44.718 28.8776 45.015 29.6344 45.015H33.0393C33.6343 45.015 34.1196 44.5285 34.1196 43.9346V43.8803C35.0382 44.0964 35.795 44.3125 36.4975 44.4753C38.5506 45.016 40.0642 45.4482 42.2259 45.4482H47.9543C49.1975 45.4482 50.2236 44.421 50.2236 43.1246C50.2236 42.5839 50.0618 42.0975 49.7372 41.7197C50.6014 41.395 51.1964 40.5308 51.1964 39.5579C51.1964 39.0172 51.0346 38.5308 50.71 38.153C51.5743 37.8283 52.1692 36.9641 52.1692 35.9912C52.1692 35.3962 51.9532 34.9109 51.6285 34.4777C52.3853 34.0998 52.926 33.2888 52.926 32.3702C52.8717 30.9653 51.8457 29.9382 50.6025 29.9382H50.6014ZM29.6333 43.8803C28.7148 43.8803 28.0123 43.1779 28.0123 42.2593V30.6406C28.0123 29.7221 28.7148 29.0196 29.6333 29.0196H33.0382V43.8271H29.6333V43.8814V43.8803ZM50.6014 33.5049C50.5471 33.5049 47.3594 33.5049 47.4126 33.5049C47.0879 33.5049 46.8719 33.7209 46.8719 34.0456C46.8719 34.3702 47.0879 34.5863 47.4126 34.5863H49.8447C50.4929 34.5863 51.0336 35.127 51.0336 35.8294C51.0336 36.5319 50.4929 37.0726 49.8447 37.0726C49.4668 37.0726 46.3322 37.0726 46.4397 37.0726C46.1151 37.0726 45.899 37.2887 45.899 37.6133C45.899 37.938 46.1151 38.154 46.4397 38.154C46.6015 38.154 48.9261 38.154 48.8718 38.154C49.52 38.154 50.0607 38.6947 50.0607 39.3972C50.0607 40.0997 49.52 40.6404 48.8718 40.6404C48.494 40.6404 45.3594 40.6404 45.4669 40.6404C45.1423 40.6404 44.9262 40.8565 44.9262 41.1811C44.9262 42.0996 46.2769 41.6132 47.899 41.7218C48.5472 41.7218 49.0879 42.2625 49.0879 42.965C49.0879 43.6675 48.5472 44.3157 47.899 44.3157H42.1705C40.1174 44.3157 38.7656 43.9378 36.7125 43.3971C35.9557 43.181 35.0914 42.965 34.0643 42.6946V30.3735L36.5507 29.1846C39.9556 27.5093 40.9816 24.8611 41.7384 22.9697C42.3866 21.3487 42.7112 20.5919 43.6841 20.5919C44.4951 20.5919 45.1433 21.2944 45.1976 22.1054C45.0891 23.4561 45.7383 26.3746 43.5766 29.3474L42.9816 30.1585C42.7112 30.4831 42.9816 31.0227 43.4137 31.0227H50.6014C51.2496 31.0227 51.7903 31.5634 51.7903 32.2659C51.7903 32.9684 51.2496 33.5091 50.6014 33.5091V33.5049Z" fill="black"/>
    <path d="M50.6015 31.0187H43.4138C42.9816 31.0187 42.7113 30.478 42.9816 30.1545L43.5766 29.3434C45.7383 26.3706 45.0901 23.4532 45.1976 22.1014C45.1434 21.2904 44.4952 20.5879 43.6841 20.5879C42.7113 20.5879 42.3866 21.3447 41.7384 22.9657C40.9817 24.8571 39.9546 27.5052 36.5507 29.1806L34.0643 30.3695V42.6906C35.0914 42.961 35.9557 43.177 36.7125 43.3931C38.7657 43.9338 40.1174 44.3116 42.1706 44.3116H47.899C48.5472 44.3116 49.0879 43.6634 49.0879 42.961C49.0879 42.2585 48.5472 41.7178 47.899 41.7178C46.278 41.6092 44.9262 42.0956 44.9262 41.1771C44.9262 40.8524 45.1423 40.6364 45.4669 40.6364H48.8719C49.5201 40.6364 50.0608 40.0957 50.0608 39.3932C50.0608 38.6907 49.5201 38.15 48.8719 38.15C48.9261 38.15 46.6026 38.15 46.4398 38.15C46.1151 38.15 45.8991 37.9339 45.8991 37.6093C45.8991 37.2847 46.1151 37.0686 46.4398 37.0686H49.8447C50.4929 37.0686 51.0336 36.5279 51.0336 35.8254C51.0336 35.1229 50.4929 34.5822 49.8447 34.5822H47.4126C47.088 34.5822 46.8719 34.3662 46.8719 34.0415C46.8719 33.7169 47.088 33.5008 47.4126 33.5008C47.3583 33.5008 50.5472 33.5008 50.6015 33.5008C51.2497 33.5008 51.7904 32.9601 51.7904 32.2577C51.7904 31.5552 51.2497 31.0145 50.6015 31.0145V31.0187Z" fill="white"/>
    <path d="M28.0123 30.6411V42.2598C28.0123 43.1784 28.7148 43.8808 29.6334 43.8808L33.0383 43.8266V29.019H29.6334C28.7148 29.019 28.0123 29.7215 28.0123 30.6401V30.6411Z" fill="#EDA51E"/>
  </g>
  <defs>
    <clipPath id="clip0_2922_5055">
      <rect width="52.35" height="44.8771" fill="white" transform="translate(0.574951 0.571289)"/>
    </clipPath>
  </defs>
</svg>
