<svg xmlns="http://www.w3.org/2000/svg" viewBox="0 0 1358 1357.896340">
<g transform="translate(-150,1388) scale(0.095238,-0.095238)"
fill="#ed1e45" stroke="none">
<path d="M3667 12482 l-2092 -2092 1 -2961 0 -2961 2092 -2076 2091 -2076
2961 0 2961 0 2076 2092 2076 2091 0 2945 1 2946 -2092 2092 -2092 2092 -2945
0 -2946 0 -2092 -2092z m9399 -682 l1813 -1797 0 -2558 0 -2559 -1813 -1797
-1812 -1797 -2548 -1 -2548 0 -1803 1804 -1803 1803 0 2546 0 2547 1803 1803
1803 1804 2548 0 2548 0 1812 -1798z"/>
<path d="M8448 9606 c-277 -40 -568 -200 -757 -415 -270 -309 -434 -736 -506
-1316 -23 -190 -26 -696 -5 -887 33 -296 95 -590 166 -781 191 -519 485 -833
933 -1000 l95 -36 331 0 c321 1 332 1 399 25 115 42 295 132 372 186 105 73
284 256 361 370 177 261 321 662 378 1057 34 233 40 779 12 1082 -13 132 -60
375 -100 514 -151 527 -418 892 -787 1076 -138 68 -272 112 -389 126 -109 13
-412 13 -503 -1z m451 -800 c78 -36 173 -127 220 -212 76 -137 129 -350 154
-619 21 -224 19 -985 -4 -1182 -54 -471 -164 -712 -373 -816 -77 -38 -85 -39
-186 -39 -100 0 -109 2 -186 39 -209 102 -323 356 -383 853 -21 175 -30 757
-15 961 42 566 165 900 371 1004 74 37 117 45 234 42 89 -2 114 -6 168 -31z"/>
<path d="M4662 8959 c-199 -327 -555 -912 -790 -1299 l-428 -704 0 -349 0
-349 929 0 930 0 0 -514 0 -515 472 0 473 0 0 513 0 513 39 7 c22 3 135 6 252
6 l213 1 0 366 0 366 -71 6 c-39 4 -150 10 -247 14 l-176 7 0 499 c0 275 -3
844 -7 1264 l-7 764 -610 0 -610 -1 -362 -595z m667 -718 c-8 -210 -18 -573
-22 -806 l-8 -424 -424 6 c-256 3 -429 10 -435 16 -14 13 -9 23 201 375 242
407 399 687 525 940 139 279 158 311 170 290 5 -9 2 -183 -7 -397z"/>
<path d="M12131 9416 c-1119 -1842 -1425 -2346 -1461 -2408 l-44 -74 0 -338 0
-338 796 0 c438 0 861 -3 940 -7 l144 -7 0 -389 c0 -214 3 -443 6 -508 l7
-118 460 0 460 0 3 504 c3 412 6 506 18 514 7 4 116 12 242 16 l228 8 7 221
c4 121 7 288 7 370 l0 149 -150 7 c-82 3 -192 6 -245 6 l-95 1 -7 190 c-4 105
-7 674 -7 1265 l0 1075 -612 0 -612 0 -85 -139z m412 -788 c-9 -51 -25 -582
-33 -1123 l-7 -480 -430 0 c-373 0 -430 2 -435 15 -4 10 45 103 118 229 312
536 476 827 578 1031 165 328 228 426 209 328z"/>
</g>
</svg>
