<svg width="124" height="125" viewBox="0 0 124 125" fill="none" xmlns="http://www.w3.org/2000/svg">
<g clip-path="url(#clip0_3078_253687)">
<path d="M0.775986 89.5486L122.843 89.5486L122.843 5.03806L0.775986 5.03806L0.775986 89.5486Z" fill="white"/>
<path d="M122.843 90.3332H0.775735C0.347743 90.3332 0 89.9855 0 89.5575V5.04698C0 4.61898 0.347743 4.27124 0.775735 4.27124H122.843C123.271 4.27124 123.618 4.61898 123.618 5.04698V89.5575C123.618 89.9855 123.271 90.3332 122.843 90.3332ZM1.55147 88.7818H122.067V5.82271H1.55147V88.7818Z" fill="black"/>
<path d="M0.775986 12.5991L122.843 12.5991V1.44459L0.775986 1.44459V12.5991Z" fill="white"/>
<path d="M122.843 13.3749H0.775735C0.347743 13.3749 0 13.0272 0 12.5992V1.44468C0 1.01669 0.347743 0.668945 0.775735 0.668945H122.843C123.271 0.668945 123.618 1.01669 123.618 1.44468V12.5992C123.618 13.0272 123.271 13.3749 122.843 13.3749ZM1.55147 11.8235H122.067V2.22042H1.55147V11.8235Z" fill="black"/>
<path d="M89.0582 7.79341H82.6205C82.1925 7.79341 81.8447 7.44567 81.8447 7.01768C81.8447 6.58969 82.1925 6.24194 82.6205 6.24194H89.0582C89.4862 6.24194 89.8339 6.58969 89.8339 7.01768C89.8339 7.44567 89.4862 7.79341 89.0582 7.79341Z" fill="black"/>
<path d="M102.121 7.79341H95.683C95.255 7.79341 94.9072 7.44567 94.9072 7.01768C94.9072 6.58969 95.255 6.24194 95.683 6.24194H102.121C102.549 6.24194 102.896 6.58969 102.896 7.01768C102.896 7.44567 102.549 7.79341 102.121 7.79341Z" fill="black"/>
<path d="M115.184 7.79341H108.746C108.318 7.79341 107.971 7.44567 107.971 7.01768C107.971 6.58969 108.318 6.24194 108.746 6.24194H115.184C115.612 6.24194 115.96 6.58969 115.96 7.01768C115.96 7.44567 115.612 7.79341 115.184 7.79341Z" fill="black"/>
<path d="M48.3718 29.2908H17.6634C17.2354 29.2908 16.8877 28.9431 16.8877 28.5151C16.8877 28.0871 17.2354 27.7394 17.6634 27.7394H48.3718C48.7998 27.7394 49.1476 28.0871 49.1476 28.5151C49.1476 28.9431 48.7998 29.2908 48.3718 29.2908Z" fill="black"/>
<path d="M112.855 67.5605H89.5834C89.1554 67.5605 88.8076 67.2128 88.8076 66.7848C88.8076 66.3568 89.1554 66.009 89.5834 66.009H112.855C113.283 66.009 113.631 66.3568 113.631 66.7848C113.631 67.2128 113.283 67.5605 112.855 67.5605Z" fill="black"/>
<path d="M37.3691 40.9715H17.7171C17.2892 40.9715 16.9414 40.6238 16.9414 40.1958C16.9414 39.7678 17.2892 39.42 17.7171 39.42H37.3691C37.7971 39.42 38.1448 39.7678 38.1448 40.1958C38.1448 40.6238 37.7971 40.9715 37.3691 40.9715Z" fill="black"/>
<path d="M110.823 24.5474H75.6562V50.9223H110.823V24.5474Z" fill="white"/>
<path d="M110.823 51.6979H75.6566C75.2286 51.6979 74.8809 51.3502 74.8809 50.9222V24.5472C74.8809 24.1192 75.2286 23.7715 75.6566 23.7715H110.823C111.251 23.7715 111.599 24.1192 111.599 24.5472V50.9222C111.599 51.3502 111.251 51.6979 110.823 51.6979ZM76.4323 50.1465H110.048V25.323H76.4323V50.1465Z" fill="black"/>
<g opacity="0.13">
<path d="M122.094 13.054H0.0273438V16.6741H122.094V13.054Z" fill="black"/>
</g>
<path d="M17.5293 73.863V98.7906C21.1584 102.358 27.4308 104.726 34.5797 104.726C41.7286 104.726 48.0017 102.359 51.6294 98.7906V73.863H17.5293Z" fill="#EDA51E"/>
<path d="M19.9121 73.753V67.3794C19.9121 59.2792 26.4789 52.7119 34.5787 52.7119C42.6785 52.7119 49.2459 59.2792 49.2459 67.3787V73.7524H44.2833V67.3787C44.2833 62.0192 39.939 57.675 34.5787 57.675C29.2183 57.675 24.8721 62.0185 24.8721 67.3787V73.7524H19.9121V73.753Z" fill="#EDA51E"/>
<path d="M34.5795 105.166C27.5702 105.166 21.0798 102.899 17.2196 99.1034C17.136 99.0211 17.0879 98.9078 17.0879 98.7906V73.863C17.0879 73.6207 17.2854 73.4238 17.5284 73.4238H51.6293C51.8722 73.4238 52.0685 73.6214 52.0685 73.863V98.7906C52.0685 98.9078 52.0211 99.0211 51.9374 99.1034C48.0785 102.899 41.5901 105.166 34.5795 105.166ZM17.9683 98.6049C21.6837 102.165 27.8745 104.286 34.5795 104.286C41.2846 104.286 47.4753 102.165 51.1887 98.6049V74.3023H17.9683V98.6049Z" fill="#00002C"/>
<path d="M49.248 74.1923C49.005 74.1923 48.8087 73.9954 48.8087 73.753V67.3794C48.8087 59.5347 42.4257 53.1525 34.5807 53.1525C26.7358 53.1525 20.3534 59.5347 20.3534 67.3794V73.753C20.3534 73.996 20.1565 74.1923 19.9135 74.1923C19.6705 74.1923 19.4736 73.9954 19.4736 73.753V67.3794C19.4736 59.05 26.2505 52.2727 34.5801 52.2727C42.9097 52.2727 49.6879 59.05 49.6879 67.3794V73.753C49.6879 73.996 49.4903 74.1923 49.248 74.1923Z" fill="#00002C"/>
<path d="M44.2837 74.1921C44.0407 74.1921 43.8445 73.9952 43.8445 73.7529V67.3792C43.8445 62.2712 39.6879 58.1161 34.5797 58.1161C29.4716 58.1161 25.3144 62.2712 25.3144 67.3792V73.7529C25.3144 73.9959 25.1168 74.1921 24.8738 74.1921C24.6308 74.1921 24.4346 73.9952 24.4346 73.7529V67.3792C24.4346 61.7859 28.9856 57.2363 34.5804 57.2363C40.1752 57.2363 44.7256 61.7859 44.7256 67.3792V73.7529C44.7256 73.9959 44.528 74.1921 44.285 74.1921H44.2837Z" fill="#00002C"/>
<path d="M32.4885 86.4335L31.8637 95.1819H37.4875L36.6544 86.4335C38.5291 85.392 39.5706 80.8094 34.5715 79.9763C29.4348 79.1202 30.6139 85.392 32.4885 86.4335Z" fill="white"/>
<path d="M37.7593 95.9782H31.398C31.2742 95.9782 31.157 95.9262 31.0733 95.8347C30.9904 95.7444 30.9489 95.6213 30.9601 95.4995L31.7279 86.8738C30.7572 86.0381 30.2061 84.8482 30.2061 83.5767C30.2061 81.1646 32.1691 79.2029 34.5806 79.2029C36.9921 79.2029 38.9552 81.1646 38.9552 83.5767C38.9552 84.8469 38.4027 86.0355 37.4327 86.8738L38.1985 95.4995C38.2097 95.622 38.1689 95.7451 38.0852 95.8347C38.0023 95.9262 37.8844 95.9782 37.7606 95.9782H37.7593ZM31.8794 95.0985H37.2786L36.5344 86.719C36.5213 86.5702 36.5845 86.424 36.703 86.3318C37.5742 85.6569 38.0741 84.6533 38.0741 83.5753C38.0741 81.6486 36.5061 80.0813 34.5793 80.0813C32.6525 80.0813 31.0845 81.6486 31.0845 83.5753C31.0845 84.654 31.5843 85.6588 32.4549 86.3318C32.5741 86.424 32.6367 86.5695 32.6241 86.719L31.878 95.0985H31.8794Z" fill="#00002C"/>
</g>
<defs>
<clipPath id="clip0_3078_253687">
<rect width="123.5" height="123.5" fill="white" transform="translate(0 0.668945)"/>
</clipPath>
</defs>
</svg>
