<svg width="137" height="121" viewBox="0 0 137 121" fill="none" xmlns="http://www.w3.org/2000/svg">
<path d="M53.731 112.541C44.742 112.541 35.736 108.877 29.4437 102.469C29.1977 102.216 29.1977 101.811 29.4521 101.558C29.7065 101.313 30.1136 101.313 30.368 101.566C37.3981 108.716 47.9475 112.321 57.9033 110.97C58.2595 110.92 58.5817 111.173 58.6326 111.519C58.6835 111.874 58.4376 112.194 58.0814 112.245C56.6398 112.439 55.1896 112.541 53.731 112.541Z" fill="black"/>
<path d="M52.3489 115.799C52.086 115.799 51.8401 115.639 51.7468 115.377C51.6196 115.048 51.7977 114.676 52.1284 114.55C53.9347 113.891 55.6223 112.971 57.1487 111.823C55.4442 110.861 53.816 109.755 52.298 108.514C52.0267 108.286 51.9843 107.881 52.2132 107.61C52.4422 107.34 52.8493 107.298 53.1206 107.526C54.8167 108.919 56.6654 110.143 58.6158 111.156C58.8024 111.257 58.9381 111.443 58.955 111.654C58.9805 111.865 58.8957 112.076 58.726 112.211C56.8858 113.739 54.8167 114.93 52.5779 115.748C52.5016 115.774 52.4252 115.791 52.3574 115.791L52.3489 115.799Z" fill="black"/>
<path d="M122.404 38.7413C122.404 38.7413 122.371 38.7413 122.354 38.7413C121.997 38.716 121.735 38.4036 121.76 38.0491C122.506 29.1007 118.198 20.0172 110.795 14.8929C110.498 14.6903 110.43 14.2935 110.634 13.9981C110.837 13.7026 111.244 13.6351 111.533 13.8377C119.309 19.2152 123.829 28.7545 123.049 38.1504C123.024 38.4881 122.735 38.7413 122.404 38.7413Z" fill="black"/>
<path d="M113.136 21.2411C112.856 21.2411 112.593 21.0554 112.517 20.7768C111.889 18.5903 111.126 16.4208 110.235 14.3272C110.142 14.0992 110.184 13.8375 110.346 13.6518C110.507 13.4661 110.77 13.3901 111.007 13.4576L117.672 15.3149C118.02 15.4077 118.215 15.7623 118.122 16.1084C118.029 16.4545 117.672 16.6487 117.325 16.5558L111.923 15.0532C112.618 16.8091 113.237 18.6157 113.755 20.4307C113.856 20.7683 113.653 21.1313 113.314 21.2242C113.254 21.2411 113.195 21.2495 113.136 21.2495V21.2411Z" fill="black"/>
<path d="M131.876 37.5679C131.876 37.5679 131.834 37.5679 131.808 37.5679C131.452 37.5341 131.198 37.2133 131.232 36.8588C131.825 31.1858 130.867 25.4453 128.459 20.2704C128.306 19.9496 128.45 19.5697 128.772 19.4178C129.095 19.2658 129.476 19.4093 129.629 19.7301C132.13 25.1161 133.131 31.0845 132.512 36.9939C132.478 37.3231 132.198 37.5679 131.868 37.5679H131.876Z" fill="black"/>
<path d="M41.9098 120.662C41.9098 120.662 41.825 120.662 41.7826 120.653C35.2359 119.37 29.0708 116.035 24.4236 111.274C24.1777 111.021 24.1777 110.616 24.4405 110.363C24.695 110.118 25.102 110.118 25.3564 110.379C29.8255 114.955 35.7532 118.163 42.0455 119.395C42.3932 119.463 42.6222 119.801 42.5543 120.147C42.495 120.451 42.2236 120.662 41.9183 120.662H41.9098Z" fill="black"/>
<path d="M53.731 112.541C44.742 112.541 35.736 108.877 29.4437 102.469C29.1977 102.216 29.1977 101.811 29.4521 101.558C29.7065 101.313 30.1136 101.313 30.368 101.566C37.3981 108.716 47.9475 112.321 57.9033 110.97C58.2595 110.92 58.5817 111.173 58.6326 111.519C58.6835 111.874 58.4376 112.194 58.0814 112.245C56.6398 112.439 55.1896 112.541 53.731 112.541Z" fill="black"/>
<path d="M52.3489 115.799C52.086 115.799 51.8401 115.639 51.7468 115.377C51.6196 115.048 51.7977 114.676 52.1284 114.55C53.9347 113.891 55.6223 112.971 57.1487 111.823C55.4442 110.861 53.816 109.755 52.298 108.514C52.0267 108.286 51.9843 107.881 52.2132 107.61C52.4422 107.34 52.8493 107.298 53.1206 107.526C54.8167 108.919 56.6654 110.143 58.6158 111.156C58.8024 111.257 58.9381 111.443 58.955 111.654C58.9805 111.865 58.8957 112.076 58.726 112.211C56.8858 113.739 54.8167 114.93 52.5779 115.748C52.5016 115.774 52.4252 115.791 52.3574 115.791L52.3489 115.799Z" fill="black"/>
<path d="M122.404 38.7413C122.404 38.7413 122.371 38.7413 122.354 38.7413C121.997 38.716 121.735 38.4036 121.76 38.0491C122.506 29.1007 118.198 20.0172 110.795 14.8929C110.498 14.6903 110.43 14.2935 110.634 13.9981C110.837 13.7026 111.244 13.6351 111.533 13.8377C119.309 19.2152 123.829 28.7545 123.049 38.1504C123.024 38.4881 122.735 38.7413 122.404 38.7413Z" fill="black"/>
<path d="M113.136 21.2411C112.856 21.2411 112.593 21.0554 112.517 20.7768C111.889 18.5903 111.126 16.4208 110.235 14.3272C110.142 14.0992 110.184 13.8375 110.346 13.6518C110.507 13.4661 110.77 13.3901 111.007 13.4576L117.672 15.3149C118.02 15.4077 118.215 15.7623 118.122 16.1084C118.029 16.4545 117.672 16.6487 117.325 16.5558L111.923 15.0532C112.618 16.8091 113.237 18.6157 113.755 20.4307C113.856 20.7683 113.653 21.1313 113.314 21.2242C113.254 21.2411 113.195 21.2495 113.136 21.2495V21.2411Z" fill="black"/>
<path d="M29.4778 42.3628C25.6193 43.6459 22.2017 46.3558 20.37 49.9774C18.5468 53.5989 18.4365 58.0985 20.37 61.661C23.1855 66.8443 30.1647 69.1574 35.6938 67.0638C41.7148 64.776 45.3867 57.5751 43.6228 51.4041C41.8589 45.233 34.761 40.6153 29.4778 42.3712V42.3628ZM36.7962 58.5544C36.2535 59.8206 35.0239 60.9941 33.7857 61.5934C30.9703 62.961 27.7733 61.7876 26.1111 59.2466C24.3981 56.638 24.6441 53.1093 26.4164 50.5767C27.2984 49.3189 28.4093 48.3312 29.9612 48.0357C31.3943 47.7656 32.8275 48.0273 33.9553 48.9306C34.6846 49.0572 35.38 49.3611 35.9567 49.8339C37.0676 50.754 37.5425 52.5859 37.6358 53.9704C37.729 55.4899 37.3983 57.1614 36.7962 58.5544Z" fill="white"/>
<path d="M58.5138 53.9705C56.911 53.4893 55.3676 52.6535 54.3076 51.3535C52.832 49.5469 52.4759 46.989 53.078 44.735C53.6801 42.481 55.1471 40.531 56.9365 39.0283C55.3591 36.5295 53.6461 34.1826 51.8483 31.9033C49.6689 33.5073 47.5828 35.0268 45.1659 35.145C42.8339 35.2632 40.5781 33.9885 39.128 32.1735C37.6779 30.35 36.9571 28.0454 36.6687 25.7407C36.5839 25.5212 36.4652 25.479 36.3804 25.4706C33.9381 25.2933 31.4873 25.1076 29.045 24.9303C28.604 27.2012 27.561 29.2357 25.9667 30.7046C24.3724 32.1735 22.2015 33.0514 20.0305 32.9839C19.1401 32.9586 18.2581 32.7728 17.3847 32.5871C15.96 32.2748 14.442 31.8949 13.4414 30.8396C11.4994 32.1566 9.75248 33.5579 8.06491 35.0184C8.92989 35.6009 9.29454 36.4113 9.59983 37.1964C10.2528 38.8763 10.7447 40.7167 10.3376 42.4726C9.9136 44.2876 8.5398 45.7903 6.89464 46.6851C5.24948 47.58 3.35838 47.9345 1.49273 48.0443C0.97544 50.7035 0.721033 53.5484 0.63623 56.4018C2.23051 56.9674 3.73999 57.4486 5.10531 58.2421C6.46215 59.0272 7.6833 60.1584 8.2854 61.602C8.96381 63.2313 8.80269 65.1307 8.09035 66.7431C7.37801 68.3555 6.15686 69.7062 4.77458 70.8206C6.44519 73.5135 8.04795 76.0123 9.69311 78.4774C12.2372 76.8143 15.4427 76.2994 18.2327 77.1942C18.9281 77.4137 19.598 77.726 20.1747 78.1819C20.887 78.7475 21.4128 79.5157 21.8283 80.3261C22.812 82.2678 23.1852 84.5133 22.8714 86.666C25.8395 87.257 28.7143 87.6368 31.5975 87.8648C31.4279 84.8763 32.7169 81.8795 35.0914 80.2417C37.4659 78.604 40.8495 78.4943 43.2409 80.1151C44.3688 80.8833 45.2422 81.9723 46.0818 83.0444C48.6852 81.2125 51.2547 79.3469 53.6631 77.2871C52.3147 75.2019 50.9494 73.1168 50.8901 70.7699C50.8307 68.3217 52.3147 65.9918 54.3754 64.658C56.4361 63.3241 59.0141 62.9274 61.4564 63.1806C62.296 60.3357 63.0083 57.5583 63.6019 54.7556C61.8041 54.6121 60.125 54.4517 58.5138 53.962V53.9705ZM43.1731 60.2259C42.1809 62.404 40.5696 64.2865 38.6361 65.7048C37.5083 66.5321 36.2617 67.199 34.9303 67.6295C29.469 69.3685 23.0664 66.3126 20.5308 61.1883C18.6822 57.457 18.767 52.8308 20.7429 49.167C22.7187 45.5032 26.5433 42.8778 30.6986 42.3544C34.413 41.8817 39.1195 43.8824 41.7993 47.4787C44.479 51.0834 45.0217 56.1485 43.1731 60.2259Z" fill="#ACD4F7"/>
<g opacity="0.13">
<path d="M46.5062 54.2828C46.4468 53.8607 46.362 53.4386 46.2602 53.025C46.2094 52.9237 46.1669 52.8308 46.1161 52.7295C45.3444 51.2099 44.42 49.7748 43.3685 48.4326C43.1989 48.5507 43.0632 48.728 43.0038 48.9391C42.8936 49.6566 43.4618 50.3235 43.6398 51.0073C44.2759 52.8983 44.6999 53.8101 44.4963 55.5322C44.5218 56.1907 43.4278 59.8545 43.0801 60.3103C42.6646 61.1123 42.1897 61.889 41.6385 62.615C41.4689 62.8176 41.418 62.902 41.4435 62.9104C41.1721 63.1215 40.9346 63.4001 40.6633 63.6196C40.0951 64.1008 39.5269 64.5819 38.9503 65.0631C38.7976 65.1729 38.5517 65.3755 38.3736 65.5528C38.4669 65.4177 38.2125 65.6541 37.9835 65.8482C37.8563 65.9326 37.2881 66.321 36.9998 66.4645C34.9985 67.1652 32.9208 67.5535 31.8184 67.6126C30.3513 67.7477 28.9097 67.3762 27.7818 67.1145C26.9762 66.8866 26.2723 66.093 25.4073 66.2534C25.0342 66.3463 24.7883 66.6249 24.6865 66.9541C24.7713 67.047 24.8561 67.1314 24.9409 67.2158C25.2377 67.4522 25.5261 67.697 25.8229 67.9334C26.8914 68.6256 27.9684 69.3263 29.0454 70.0101C30.8262 70.5251 32.7343 70.6264 35.007 70.1958C34.9646 70.1958 34.9222 70.2043 34.8713 70.2127C37.2627 69.7062 38.009 69.3938 39.7559 68.4905C41.2823 67.5873 42.512 66.2703 43.4618 64.7761C43.4872 64.7339 43.5126 64.6917 43.5466 64.6495H43.555C44.6659 63.2566 45.514 61.6695 46.1076 59.998C46.7097 58.1576 46.7012 56.1738 46.5231 54.2744L46.5062 54.2828Z" fill="black"/>
</g>
<g opacity="0.13">
<path d="M52.3315 73.7498C52.0941 73.7667 51.8566 73.8174 51.6531 73.9356C51.3478 74.1044 51.1527 74.383 50.9577 74.6616C50.7796 74.8895 50.5931 75.109 50.4319 75.3538C49.957 75.9616 49.8214 76.2233 48.7698 77.287C48.1847 77.9117 47.2688 78.3 46.8872 79.0767C46.8872 79.0936 46.8787 79.102 46.8702 79.1189C46.6413 79.2455 46.4208 79.3806 46.1918 79.4988C45.7678 79.7605 45.2166 79.8871 44.9198 80.3092C43.9954 81.3982 45.4286 83.0022 46.6413 82.2593C47.9048 81.5924 49.0921 80.7988 50.1606 79.8449C50.2114 79.7943 50.2623 79.7352 50.3217 79.6845C51.1527 79.0176 51.9584 78.3254 52.7046 77.5656C52.976 77.2786 53.2982 76.9409 53.5611 76.5779C53.2813 76.0207 53.0438 75.4467 52.8234 74.8726C52.6537 74.5012 52.4926 74.1213 52.3485 73.7414L52.3315 73.7498Z" fill="black"/>
</g>
<g opacity="0.13">
<path d="M60.5657 54.6205C60.0823 56.4609 59.5396 58.2843 58.9459 60.0994C58.6746 60.9351 58.4032 61.7877 58.1318 62.6319C58.4541 63.0287 59.0053 63.2566 59.5141 63.0962C59.5396 63.0962 59.565 63.0709 59.5904 63.0625C60.0314 63.6787 61.1847 63.6027 61.4052 62.7417C61.5154 62.3449 61.6851 61.9481 61.8207 61.5514C61.9055 61.5091 61.9988 61.4585 62.0751 61.391C62.6009 61.0111 62.7451 60.2935 62.9401 59.711C63.2285 58.5292 63.3896 57.3135 63.4405 56.1063C63.4405 56.0388 63.4405 55.9628 63.4574 55.8868C62.4907 55.4816 61.5324 55.0595 60.5741 54.629L60.5657 54.6205Z" fill="black"/>
</g>
<path d="M31.5976 88.5063C31.5976 88.5063 31.5637 88.5063 31.5468 88.5063C28.4939 88.27 25.6191 87.8732 22.7443 87.2991C22.4051 87.2316 22.1846 86.9108 22.2355 86.5731C22.5323 84.5555 22.1761 82.4366 21.2518 80.6131C20.8193 79.7521 20.3359 79.1189 19.7762 78.6799C19.3267 78.3169 18.7586 78.0299 18.0377 77.802C15.4682 76.9747 12.4832 77.4221 10.0578 79.0092C9.76104 79.2033 9.36247 79.1189 9.16742 78.8235C7.5477 76.3922 5.92797 73.8765 4.24041 71.1498C4.0708 70.8712 4.13016 70.5166 4.38457 70.314C5.86013 69.1321 6.91168 67.8405 7.51378 66.4814C8.20915 64.9112 8.277 63.2144 7.70034 61.8383C7.0728 60.3441 5.77533 59.3564 4.79162 58.7824C3.65527 58.1239 2.37476 57.6765 1.0264 57.2037L0.432782 56.9927C0.169895 56.8998 -0.00818993 56.6465 0.000290305 56.368C0.0935729 53.236 0.381901 50.3826 0.865274 47.9092C0.924636 47.6221 1.17056 47.4111 1.45889 47.3942C3.56199 47.2676 5.24107 46.8455 6.58943 46.111C8.19219 45.2331 9.36247 43.8148 9.71016 42.3122C10.1087 40.6154 9.54055 38.8003 8.99782 37.4074C8.71797 36.6899 8.41268 36.0061 7.70882 35.5249C7.5477 35.4151 7.43745 35.2294 7.42897 35.0352C7.42049 34.8326 7.49681 34.6469 7.64946 34.5118C9.59143 32.8235 11.3214 31.4812 13.0853 30.2824C13.3482 30.1052 13.6959 30.1389 13.9164 30.3753C14.7813 31.2786 16.1212 31.6332 17.5289 31.9371C18.4278 32.1312 19.2335 32.3001 20.056 32.3254C22.015 32.3845 24.0078 31.6163 25.5343 30.2149C26.9929 28.8726 27.9851 26.9985 28.4175 24.7952C28.4769 24.4744 28.7652 24.2549 29.096 24.2802L36.4314 24.8205C36.813 24.8459 37.1267 25.0991 37.2794 25.5043C37.2963 25.555 37.3048 25.5972 37.3133 25.6478C37.6271 28.1635 38.4157 30.2234 39.6369 31.7598C41.0616 33.541 43.1647 34.5878 45.1406 34.4865C47.3963 34.3683 49.4655 32.8403 51.4753 31.363C51.7551 31.152 52.1537 31.2111 52.3657 31.4812C54.3755 34.0475 56.0546 36.3944 57.4878 38.6568C57.6574 38.927 57.6065 39.2815 57.3606 39.4926C56.0546 40.59 54.3671 42.405 53.7056 44.8701C53.1205 47.0481 53.5445 49.3696 54.808 50.9145C55.6815 51.9866 57.0214 52.8139 58.7005 53.3204C60.2439 53.7847 61.8551 53.9451 63.6444 54.0886C63.831 54.1055 64.0006 54.1984 64.1108 54.3419C64.2211 54.4939 64.2635 54.6796 64.2296 54.8569C63.6444 57.6174 62.9406 60.3863 62.0756 63.3325C61.9908 63.628 61.7025 63.8222 61.3887 63.7884C58.8785 63.5267 56.5126 64.0163 54.7232 65.1644C52.7388 66.4392 51.4838 68.6172 51.5347 70.7192C51.5855 72.855 52.8321 74.7882 54.155 76.8312L54.1974 76.8987C54.3755 77.1688 54.3162 77.5234 54.0787 77.7345C51.5855 79.8618 48.9312 81.7781 46.4465 83.5256C46.1667 83.7198 45.7766 83.6691 45.5646 83.399C44.8098 82.4366 43.9533 81.3391 42.8679 80.6047C40.7563 79.1696 37.6356 79.2287 35.4561 80.7313C33.3361 82.1918 32.0725 84.9607 32.2421 87.7888C32.2506 87.9745 32.1828 88.1518 32.0471 88.2868C31.9284 88.405 31.7672 88.4726 31.5976 88.4726V88.5063ZM23.5753 86.151C25.9837 86.6069 28.4006 86.9446 30.9362 87.1641C30.9786 84.125 32.3948 81.3138 34.7268 79.7099C37.3811 77.8864 41.0277 77.8273 43.6056 79.5832C44.6572 80.3008 45.5052 81.2801 46.2091 82.1665C48.38 80.63 50.6527 78.9754 52.8152 77.1604C51.5431 75.1766 50.305 73.1252 50.2457 70.7783C50.1863 68.2457 51.6703 65.6287 54.0278 64.1176C55.9274 62.8936 58.3782 62.328 60.9816 62.4968C61.7025 60.0233 62.3046 57.668 62.8134 55.338C61.2276 55.203 59.769 55.0173 58.3273 54.5867C56.4023 54.0042 54.8419 53.025 53.8074 51.7587C52.2894 49.893 51.7721 47.141 52.459 44.5746C53.0102 42.5232 54.2653 40.5731 56.097 38.9185C54.8335 36.96 53.4342 34.993 51.7297 32.8066C49.7284 34.2755 47.6422 35.6768 45.1999 35.8035C42.817 35.9301 40.2984 34.6891 38.6193 32.5871C37.2879 30.924 36.4314 28.7376 36.0582 26.1121L29.5539 25.631C29.0196 27.8681 27.9342 29.7844 26.3993 31.1942C24.6269 32.8235 22.2948 33.7267 20.0052 33.6423C19.0723 33.617 18.1649 33.4313 17.2406 33.2287C15.8668 32.9332 14.4506 32.5618 13.3736 31.6754C11.9744 32.6462 10.5751 33.7352 9.0487 35.0268C9.63383 35.6346 9.93912 36.3353 10.1935 36.9769C10.7956 38.5386 11.4316 40.5985 10.9567 42.633C10.5158 44.5155 9.15046 46.2039 7.20001 47.2676C5.79229 48.0358 4.09624 48.5001 2.02707 48.6689C1.63698 50.8385 1.39105 53.2867 1.28929 55.9712L1.43345 56.0218C2.84117 56.5115 4.17256 56.9842 5.41916 57.7018C6.57247 58.3687 8.10739 59.5506 8.87061 61.374C9.58295 63.0708 9.50663 65.1307 8.67557 67.0217C8.05651 68.4315 7.0304 69.7568 5.6142 70.9725C7.0728 73.3193 8.47204 75.4973 9.87976 77.6163C12.5256 76.0967 15.6718 75.7084 18.4194 76.5948C19.2843 76.8734 19.9882 77.2279 20.5649 77.6922C21.2687 78.2494 21.8708 79.0261 22.3881 80.056C23.3379 81.9301 23.7534 84.0743 23.5669 86.1679L23.5753 86.151Z" fill="black"/>
<path d="M31.2665 62.7837C29.0956 62.7837 26.8907 61.5849 25.6611 59.6517C24.3636 57.6172 24.1601 54.8483 25.1099 52.4423C25.7544 50.813 26.8653 49.4454 28.2476 48.5928C29.774 47.6473 31.5888 47.3519 33.217 47.7908C35.0657 48.2889 36.448 49.0993 37.3129 50.2137C38.3645 51.5559 38.9411 53.3456 38.9242 55.2704C38.9242 56.5789 38.6443 57.7016 38.1016 58.6134C37.6267 59.4154 36.9652 60.0232 36.3801 60.5212C34.9045 61.7706 33.5816 62.4629 32.2248 62.6993C31.9025 62.7583 31.5718 62.7837 31.2496 62.7837H31.2665ZM31.7075 48.8798C30.7577 48.8798 29.774 49.1584 28.926 49.6818C27.7812 50.3909 26.8568 51.539 26.3141 52.9151C25.5085 54.9496 25.6781 57.2711 26.7551 58.9679C27.8914 60.7661 30.0623 61.7791 32.0213 61.433C33.1407 61.2388 34.2685 60.6394 35.5575 59.542C36.0579 59.1199 36.626 58.5965 36.9992 57.9633C37.4232 57.2542 37.6352 56.3425 37.6437 55.2704C37.6437 53.6411 37.1773 52.13 36.3038 51.0156C35.6084 50.1292 34.4551 49.4623 32.8863 49.0402C32.5046 48.9389 32.1146 48.8883 31.7075 48.8883V48.8798Z" fill="black"/>
<path d="M31.734 68.7522C26.9935 68.7522 22.1513 65.9157 19.955 61.4668C18.013 57.5413 18.0978 52.7126 20.1754 48.8546C22.2531 45.0051 26.2558 42.2615 30.6146 41.7043C34.6936 41.1893 39.6121 43.4518 42.3173 47.0818C45.1582 50.8976 45.7179 56.1569 43.759 60.4791C42.7583 62.6993 41.1131 64.6748 39.01 66.2112C37.755 67.1229 36.449 67.8067 35.1176 68.2288C34.0152 68.5749 32.8703 68.7438 31.7255 68.7438L31.734 68.7522ZM31.8273 42.9199C31.4711 42.9199 31.1234 42.9453 30.7757 42.9875C26.8239 43.494 23.1944 45.9759 21.3118 49.4709C19.4292 52.9658 19.3444 57.3472 21.1083 60.9012C23.576 65.882 29.6818 68.6256 34.7275 67.0132C35.9232 66.6333 37.1105 66.017 38.2468 65.1813C40.1718 63.7799 41.6643 61.9733 42.5802 59.9557C44.3271 56.1062 43.8014 51.2437 41.2743 47.85C39.0609 44.8785 35.2278 42.9115 31.8188 42.9115L31.8273 42.9199Z" fill="black"/>
<path d="M58.5138 53.9705C56.911 53.4893 55.3676 52.6535 54.3076 51.3535C52.832 49.5469 52.4759 46.989 53.078 44.735C53.6801 42.481 55.1471 40.531 56.9365 39.0283C55.3591 36.5295 53.6461 34.1826 51.8483 31.9033C49.6689 33.5073 47.5828 35.0268 45.1659 35.145C42.8339 35.2632 40.5781 33.9885 39.128 32.1735C37.6779 30.35 36.9571 28.0454 36.6687 25.7407C36.5839 25.5212 36.4652 25.479 36.3804 25.4706C33.9381 25.2933 31.4873 25.1076 29.045 24.9303C28.604 27.2012 27.561 29.2357 25.9667 30.7046C24.3724 32.1735 22.2015 33.0514 20.0305 32.9839C19.1401 32.9586 18.2581 32.7728 17.3847 32.5871C15.96 32.2748 14.442 31.8949 13.4414 30.8396C11.4994 32.1566 9.75248 33.5579 8.06491 35.0184C8.92989 35.6009 9.29454 36.4113 9.59983 37.1964C10.2528 38.8763 10.7447 40.7167 10.3376 42.4726C9.9136 44.2876 8.5398 45.7903 6.89464 46.6851C5.24948 47.58 3.35838 47.9345 1.49273 48.0443C0.97544 50.7035 0.721033 53.5484 0.63623 56.4018C2.23051 56.9674 3.73999 57.4486 5.10531 58.2421C6.46215 59.0272 7.6833 60.1584 8.2854 61.602C8.96381 63.2313 8.80269 65.1307 8.09035 66.7431C7.37801 68.3555 6.15686 69.7062 4.77458 70.8206C6.44519 73.5135 8.04795 76.0123 9.69311 78.4774C12.2372 76.8143 15.4427 76.2994 18.2327 77.1942C18.9281 77.4137 19.598 77.726 20.1747 78.1819C20.887 78.7475 21.4128 79.5157 21.8283 80.3261C22.812 82.2678 23.1852 84.5133 22.8714 86.666C25.8395 87.257 28.7143 87.6368 31.5975 87.8648C31.4279 84.8763 32.7169 81.8795 35.0914 80.2417C37.4659 78.604 40.8495 78.4943 43.2409 80.1151C44.3688 80.8833 45.2422 81.9723 46.0818 83.0444C48.6852 81.2125 51.2547 79.3469 53.6631 77.2871C52.3147 75.2019 50.9494 73.1168 50.8901 70.7699C50.8307 68.3217 52.3147 65.9918 54.3754 64.658C56.4361 63.3241 59.0141 62.9274 61.4564 63.1806C62.296 60.3357 63.0083 57.5583 63.6019 54.7556C61.8041 54.6121 60.125 54.4517 58.5138 53.962V53.9705ZM43.1731 60.2259C42.1809 62.404 40.5696 64.2865 38.6361 65.7048C37.5083 66.5321 36.2617 67.199 34.9303 67.6295C29.469 69.3685 23.0664 66.3126 20.5308 61.1883C18.6822 57.457 18.767 52.8308 20.7429 49.167C22.7187 45.5032 26.5433 42.8778 30.6986 42.3544C34.413 41.8817 39.1195 43.8824 41.7993 47.4787C44.479 51.0834 45.0217 56.1485 43.1731 60.2259Z" fill="#EDA51E"/>
<g opacity="0.13">
<path d="M46.5062 54.2828C46.4468 53.8607 46.362 53.4386 46.2602 53.025C46.2094 52.9237 46.1669 52.8308 46.1161 52.7295C45.3444 51.2099 44.42 49.7748 43.3685 48.4326C43.1989 48.5507 43.0632 48.728 43.0038 48.9391C42.8936 49.6566 43.4618 50.3235 43.6398 51.0073C44.2759 52.8983 44.6999 53.8101 44.4963 55.5322C44.5218 56.1907 43.4278 59.8545 43.0801 60.3103C42.6646 61.1123 42.1897 61.889 41.6385 62.615C41.4689 62.8176 41.418 62.902 41.4435 62.9104C41.1721 63.1215 40.9346 63.4001 40.6633 63.6196C40.0951 64.1008 39.5269 64.5819 38.9503 65.0631C38.7976 65.1729 38.5517 65.3755 38.3736 65.5528C38.4669 65.4177 38.2125 65.6541 37.9835 65.8482C37.8563 65.9326 37.2881 66.321 36.9998 66.4645C34.9985 67.1652 32.9208 67.5535 31.8184 67.6126C30.3513 67.7477 28.9097 67.3762 27.7818 67.1145C26.9762 66.8866 26.2723 66.093 25.4073 66.2534C25.0342 66.3463 24.7883 66.6249 24.6865 66.9541C24.7713 67.047 24.8561 67.1314 24.9409 67.2158C25.2377 67.4522 25.5261 67.697 25.8229 67.9334C26.8914 68.6256 27.9684 69.3263 29.0454 70.0101C30.8262 70.5251 32.7343 70.6264 35.007 70.1958C34.9646 70.1958 34.9222 70.2043 34.8713 70.2127C37.2627 69.7062 38.009 69.3938 39.7559 68.4905C41.2823 67.5873 42.512 66.2703 43.4618 64.7761C43.4872 64.7339 43.5126 64.6917 43.5466 64.6495H43.555C44.6659 63.2566 45.514 61.6695 46.1076 59.998C46.7097 58.1576 46.7012 56.1738 46.5231 54.2744L46.5062 54.2828Z" fill="black"/>
</g>
<g opacity="0.13">
<path d="M52.3315 73.7498C52.0941 73.7667 51.8566 73.8174 51.6531 73.9356C51.3478 74.1044 51.1527 74.383 50.9577 74.6616C50.7796 74.8895 50.5931 75.109 50.4319 75.3538C49.957 75.9616 49.8214 76.2233 48.7698 77.287C48.1847 77.9117 47.2688 78.3 46.8872 79.0767C46.8872 79.0936 46.8787 79.102 46.8702 79.1189C46.6413 79.2455 46.4208 79.3806 46.1918 79.4988C45.7678 79.7605 45.2166 79.8871 44.9198 80.3092C43.9954 81.3982 45.4286 83.0022 46.6413 82.2593C47.9048 81.5924 49.0921 80.7988 50.1606 79.8449C50.2114 79.7943 50.2623 79.7352 50.3217 79.6845C51.1527 79.0176 51.9584 78.3254 52.7046 77.5656C52.976 77.2786 53.2982 76.9409 53.5611 76.5779C53.2813 76.0207 53.0438 75.4467 52.8234 74.8726C52.6537 74.5012 52.4926 74.1213 52.3485 73.7414L52.3315 73.7498Z" fill="black"/>
</g>
<g opacity="0.13">
<path d="M60.5657 54.6205C60.0823 56.4609 59.5396 58.2843 58.9459 60.0994C58.6746 60.9351 58.4032 61.7877 58.1318 62.6319C58.4541 63.0287 59.0053 63.2566 59.5141 63.0962C59.5396 63.0962 59.565 63.0709 59.5904 63.0625C60.0314 63.6787 61.1847 63.6027 61.4052 62.7417C61.5154 62.3449 61.6851 61.9481 61.8207 61.5514C61.9055 61.5091 61.9988 61.4585 62.0751 61.391C62.6009 61.0111 62.7451 60.2935 62.9401 59.711C63.2285 58.5292 63.3896 57.3135 63.4405 56.1063C63.4405 56.0388 63.4405 55.9628 63.4574 55.8868C62.4907 55.4816 61.5324 55.0595 60.5741 54.629L60.5657 54.6205Z" fill="black"/>
</g>
<path d="M31.5976 88.5063C31.5976 88.5063 31.5637 88.5063 31.5468 88.5063C28.4939 88.27 25.6191 87.8732 22.7443 87.2991C22.4051 87.2316 22.1846 86.9108 22.2355 86.5731C22.5323 84.5555 22.1761 82.4366 21.2518 80.6131C20.8193 79.7521 20.3359 79.1189 19.7762 78.6799C19.3267 78.3169 18.7586 78.0299 18.0377 77.802C15.4682 76.9747 12.4832 77.4221 10.0578 79.0092C9.76104 79.2033 9.36247 79.1189 9.16742 78.8235C7.5477 76.3922 5.92797 73.8765 4.24041 71.1498C4.0708 70.8712 4.13016 70.5166 4.38457 70.314C5.86013 69.1321 6.91168 67.8405 7.51378 66.4814C8.20915 64.9112 8.277 63.2144 7.70034 61.8383C7.0728 60.3441 5.77533 59.3564 4.79162 58.7824C3.65527 58.1239 2.37476 57.6765 1.0264 57.2037L0.432782 56.9927C0.169895 56.8998 -0.00818993 56.6465 0.000290305 56.368C0.0935729 53.236 0.381901 50.3826 0.865274 47.9092C0.924636 47.6221 1.17056 47.4111 1.45889 47.3942C3.56199 47.2676 5.24107 46.8455 6.58943 46.111C8.19219 45.2331 9.36247 43.8148 9.71016 42.3122C10.1087 40.6154 9.54055 38.8003 8.99782 37.4074C8.71797 36.6899 8.41268 36.0061 7.70882 35.5249C7.5477 35.4151 7.43745 35.2294 7.42897 35.0352C7.42049 34.8326 7.49681 34.6469 7.64946 34.5118C9.59143 32.8235 11.3214 31.4812 13.0853 30.2824C13.3482 30.1052 13.6959 30.1389 13.9164 30.3753C14.7813 31.2786 16.1212 31.6332 17.5289 31.9371C18.4278 32.1312 19.2335 32.3001 20.056 32.3254C22.015 32.3845 24.0078 31.6163 25.5343 30.2149C26.9929 28.8726 27.9851 26.9985 28.4175 24.7952C28.4769 24.4744 28.7652 24.2549 29.096 24.2802L36.4314 24.8205C36.813 24.8459 37.1267 25.0991 37.2794 25.5043C37.2963 25.555 37.3048 25.5972 37.3133 25.6478C37.6271 28.1635 38.4157 30.2234 39.6369 31.7598C41.0616 33.541 43.1647 34.5878 45.1406 34.4865C47.3963 34.3683 49.4655 32.8403 51.4753 31.363C51.7551 31.152 52.1537 31.2111 52.3657 31.4812C54.3755 34.0475 56.0546 36.3944 57.4878 38.6568C57.6574 38.927 57.6065 39.2815 57.3606 39.4926C56.0546 40.59 54.3671 42.405 53.7056 44.8701C53.1205 47.0481 53.5445 49.3696 54.808 50.9145C55.6815 51.9866 57.0214 52.8139 58.7005 53.3204C60.2439 53.7847 61.8551 53.9451 63.6444 54.0886C63.831 54.1055 64.0006 54.1984 64.1108 54.3419C64.2211 54.4939 64.2635 54.6796 64.2296 54.8569C63.6444 57.6174 62.9406 60.3863 62.0756 63.3325C61.9908 63.628 61.7025 63.8222 61.3887 63.7884C58.8785 63.5267 56.5126 64.0163 54.7232 65.1644C52.7388 66.4392 51.4838 68.6172 51.5347 70.7192C51.5855 72.855 52.8321 74.7882 54.155 76.8312L54.1974 76.8987C54.3755 77.1688 54.3162 77.5234 54.0787 77.7345C51.5855 79.8618 48.9312 81.7781 46.4465 83.5256C46.1667 83.7198 45.7766 83.6691 45.5646 83.399C44.8098 82.4366 43.9533 81.3391 42.8679 80.6047C40.7563 79.1696 37.6356 79.2287 35.4561 80.7313C33.3361 82.1918 32.0725 84.9607 32.2421 87.7888C32.2506 87.9745 32.1828 88.1518 32.0471 88.2868C31.9284 88.405 31.7672 88.4726 31.5976 88.4726V88.5063ZM23.5753 86.151C25.9837 86.6069 28.4006 86.9446 30.9362 87.1641C30.9786 84.125 32.3948 81.3138 34.7268 79.7099C37.3811 77.8864 41.0277 77.8273 43.6056 79.5832C44.6572 80.3008 45.5052 81.2801 46.2091 82.1665C48.38 80.63 50.6527 78.9754 52.8152 77.1604C51.5431 75.1766 50.305 73.1252 50.2457 70.7783C50.1863 68.2457 51.6703 65.6287 54.0278 64.1176C55.9274 62.8936 58.3782 62.328 60.9816 62.4968C61.7025 60.0233 62.3046 57.668 62.8134 55.338C61.2276 55.203 59.769 55.0173 58.3273 54.5867C56.4023 54.0042 54.8419 53.025 53.8074 51.7587C52.2894 49.893 51.7721 47.141 52.459 44.5746C53.0102 42.5232 54.2653 40.5731 56.097 38.9185C54.8335 36.96 53.4342 34.993 51.7297 32.8066C49.7284 34.2755 47.6422 35.6768 45.1999 35.8035C42.817 35.9301 40.2984 34.6891 38.6193 32.5871C37.2879 30.924 36.4314 28.7376 36.0582 26.1121L29.5539 25.631C29.0196 27.8681 27.9342 29.7844 26.3993 31.1942C24.6269 32.8235 22.2948 33.7267 20.0052 33.6423C19.0723 33.617 18.1649 33.4313 17.2406 33.2287C15.8668 32.9332 14.4506 32.5618 13.3736 31.6754C11.9744 32.6462 10.5751 33.7352 9.0487 35.0268C9.63383 35.6346 9.93912 36.3353 10.1935 36.9769C10.7956 38.5386 11.4316 40.5985 10.9567 42.633C10.5158 44.5155 9.15046 46.2039 7.20001 47.2676C5.79229 48.0358 4.09624 48.5001 2.02707 48.6689C1.63698 50.8385 1.39105 53.2867 1.28929 55.9712L1.43345 56.0218C2.84117 56.5115 4.17256 56.9842 5.41916 57.7018C6.57247 58.3687 8.10739 59.5506 8.87061 61.374C9.58295 63.0708 9.50663 65.1307 8.67557 67.0217C8.05651 68.4315 7.0304 69.7568 5.6142 70.9725C7.0728 73.3193 8.47204 75.4973 9.87976 77.6163C12.5256 76.0967 15.6718 75.7084 18.4194 76.5948C19.2843 76.8734 19.9882 77.2279 20.5649 77.6922C21.2687 78.2494 21.8708 79.0261 22.3881 80.056C23.3379 81.9301 23.7534 84.0743 23.5669 86.1679L23.5753 86.151Z" fill="black"/>
<path d="M31.2665 62.7837C29.0956 62.7837 26.8907 61.5849 25.6611 59.6517C24.3636 57.6172 24.1601 54.8483 25.1099 52.4423C25.7544 50.813 26.8653 49.4454 28.2476 48.5928C29.774 47.6473 31.5888 47.3519 33.217 47.7908C35.0657 48.2889 36.448 49.0993 37.3129 50.2137C38.3645 51.5559 38.9411 53.3456 38.9242 55.2704C38.9242 56.5789 38.6443 57.7016 38.1016 58.6134C37.6267 59.4154 36.9652 60.0232 36.3801 60.5212C34.9045 61.7706 33.5816 62.4629 32.2248 62.6993C31.9025 62.7583 31.5718 62.7837 31.2496 62.7837H31.2665ZM31.7075 48.8798C30.7577 48.8798 29.774 49.1584 28.926 49.6818C27.7812 50.3909 26.8568 51.539 26.3141 52.9151C25.5085 54.9496 25.6781 57.2711 26.7551 58.9679C27.8914 60.7661 30.0623 61.7791 32.0213 61.433C33.1407 61.2388 34.2685 60.6394 35.5575 59.542C36.0579 59.1199 36.626 58.5965 36.9992 57.9633C37.4232 57.2542 37.6352 56.3425 37.6437 55.2704C37.6437 53.6411 37.1773 52.13 36.3038 51.0156C35.6084 50.1292 34.4551 49.4623 32.8863 49.0402C32.5046 48.9389 32.1146 48.8883 31.7075 48.8883V48.8798Z" fill="black"/>
<path d="M31.734 68.7522C26.9935 68.7522 22.1513 65.9157 19.955 61.4668C18.013 57.5413 18.0978 52.7126 20.1754 48.8546C22.2531 45.0051 26.2558 42.2615 30.6146 41.7043C34.6936 41.1893 39.6121 43.4518 42.3173 47.0818C45.1582 50.8976 45.7179 56.1569 43.759 60.4791C42.7583 62.6993 41.1131 64.6748 39.01 66.2112C37.755 67.1229 36.449 67.8067 35.1176 68.2288C34.0152 68.5749 32.8703 68.7438 31.7255 68.7438L31.734 68.7522ZM31.8273 42.9199C31.4711 42.9199 31.1234 42.9453 30.7757 42.9875C26.8239 43.494 23.1944 45.9759 21.3118 49.4709C19.4292 52.9658 19.3444 57.3472 21.1083 60.9012C23.576 65.882 29.6818 68.6256 34.7275 67.0132C35.9232 66.6333 37.1105 66.017 38.2468 65.1813C40.1718 63.7799 41.6643 61.9733 42.5802 59.9557C44.3271 56.1062 43.8014 51.2437 41.2743 47.85C39.0609 44.8785 35.2278 42.9115 31.8188 42.9115L31.8273 42.9199Z" fill="black"/>
<path d="M94.8338 15.391L93.4176 10.7564L96.4026 6.57769L89.0587 1.52942C88.1089 3.06585 87.1676 4.59383 86.2178 6.13026C86.167 6.21468 86.1161 6.2991 86.0313 6.34975C85.921 6.41729 85.7854 6.42573 85.6497 6.41729C84.013 6.39196 82.3763 6.36664 80.7396 6.32443C79.934 4.80488 79.1538 3.36131 78.2719 1.97684C78.204 1.8671 78.1192 1.74891 77.992 1.71514C77.8648 1.68137 77.7376 1.75735 77.6274 1.82489C75.6854 2.98143 73.7349 4.14641 71.793 5.30296C71.7421 5.33672 71.6912 5.36205 71.6573 5.4127C71.5725 5.53933 71.6488 5.69973 71.7167 5.82635C72.4544 7.10953 73.3279 8.31672 74.3201 9.42261C73.4381 11.0266 72.5138 12.5208 71.5047 13.9559C71.2587 14.302 70.9874 14.665 70.5803 14.7832C70.2411 14.8845 69.8764 14.7832 69.5372 14.6988C68.1719 14.3189 66.8151 13.8799 65.4752 13.3988C64.3304 16.0748 64.1184 19.1224 64.8646 21.9335C64.9749 22.1446 70.0545 21.427 70.0545 21.427L73.082 26.6357L70.6481 30.5949L76.2197 34.6217L79.1114 30.4345L84.2165 30.5358L86.1839 34.9594L93.7907 32.3509L91.9505 27.8175L94.6896 23.4193L99.8541 23.0057L100.015 16.7671L94.8338 15.4164V15.391ZM86.0567 17.7548C86.1076 17.9743 85.9126 18.4048 85.8278 18.6074C85.7514 18.7847 85.6751 18.9451 85.5733 19.1055C85.3783 19.401 85.1324 19.6795 84.8695 19.9159C84.3268 20.414 83.7162 20.777 83.0208 21.0387C82.741 21.14 82.4357 21.2075 82.1473 21.2582C81.8844 21.3004 81.647 21.3257 81.3841 21.3004C81.223 21.2835 81.0534 21.2329 80.8923 21.2329C81.3502 21.2329 80.8499 21.2329 80.6718 21.1906C79.8916 20.9712 79.1199 20.338 78.7383 19.6289C78.5093 19.2068 78.2973 18.7256 78.2804 18.236C78.2634 17.797 78.3821 17.3411 78.5517 16.9359C78.7976 16.3534 79.0775 15.7709 79.4421 15.256C79.8492 14.6735 80.358 14.0657 81.011 13.7449C81.6724 13.4156 82.3848 13.365 83.0208 13.6098C83.2837 13.4916 83.589 13.4494 83.8434 13.5423C84.3183 13.7195 84.7253 13.9475 85.0476 14.3358C85.3698 14.7241 85.5903 15.0956 85.7769 15.5683C85.8362 15.7118 85.8871 15.8638 85.921 16.0157C85.9465 16.1002 85.955 16.193 85.9719 16.2859C85.9889 16.4294 86.0143 16.5645 86.0313 16.708V16.6151C86.0058 16.4969 86.0143 16.4885 86.0313 16.5982C86.0567 16.7418 86.0737 16.8768 86.0906 17.0203C86.0906 17.0879 86.0991 17.1638 86.0991 17.2314C86.0991 17.4087 86.0822 17.5944 86.0313 17.7632L86.0567 17.7548Z" fill="white"/>
<path d="M72.4545 20.988C72.4545 20.988 72.4121 20.988 72.3951 20.9796C72.2849 20.9458 72.217 20.8276 72.251 20.7179C73.7011 15.7878 75.4226 10.8662 77.3561 6.0965C77.3985 5.98676 77.5257 5.9361 77.6359 5.97831C77.7462 6.02052 77.797 6.14715 77.7546 6.2569C75.8296 11.0097 74.1166 15.9144 72.6665 20.8361C72.6411 20.9289 72.5563 20.988 72.463 20.988H72.4545Z" fill="black"/>
<path d="M74.6933 21.7899C74.6933 21.7899 74.6509 21.7899 74.6339 21.7899C74.5237 21.7562 74.4558 21.638 74.4897 21.5282C75.8296 16.8683 77.6105 12.3012 79.7644 7.95362C79.8153 7.84388 79.9425 7.80167 80.0528 7.85232C80.163 7.90297 80.2054 8.0296 80.1545 8.13934C78.009 12.4616 76.2451 17.0034 74.9053 21.638C74.8798 21.7308 74.795 21.7899 74.7017 21.7899H74.6933Z" fill="black"/>
<path d="M73.8537 30.713C73.8537 30.713 73.7943 30.713 73.7689 30.6961C73.6586 30.6539 73.6077 30.5272 73.6501 30.4175L77.3475 21.5788C77.3899 21.4691 77.5171 21.4184 77.6274 21.4606C77.7376 21.5028 77.7885 21.6295 77.7461 21.7392L74.0487 30.5779C74.0148 30.6623 73.9385 30.713 73.8537 30.713Z" fill="black"/>
<path d="M78.7047 28.8219C78.7047 28.8219 78.6539 28.8219 78.6199 28.8051C78.5097 28.7628 78.4588 28.6362 78.5012 28.5265L80.5619 23.4529C80.6043 23.3431 80.7315 23.2925 80.8417 23.3347C80.952 23.3769 81.0029 23.5035 80.9605 23.6133L78.8998 28.6869C78.8659 28.7713 78.7811 28.8219 78.6962 28.8219H78.7047Z" fill="black"/>
<path d="M82.5631 12.0902C82.5631 12.0902 82.5207 12.0902 82.4952 12.0818C82.385 12.048 82.3171 11.9298 82.3511 11.8116L83.3348 8.69656C83.3687 8.58682 83.4874 8.51928 83.6061 8.55305C83.7164 8.58682 83.7842 8.705 83.7503 8.82319L82.7666 11.9383C82.7412 12.0311 82.6564 12.0902 82.5631 12.0902Z" fill="black"/>
<path d="M86.4473 12.9005C86.4473 12.9005 86.3964 12.9005 86.3709 12.8836C86.2607 12.8414 86.2013 12.7148 86.2437 12.6051C87.2529 9.93741 88.4062 7.28665 89.6867 4.72875C89.7376 4.61901 89.8733 4.5768 89.975 4.63589C90.0853 4.68654 90.1277 4.81317 90.0683 4.92292C88.7963 7.46393 87.643 10.1063 86.6423 12.757C86.6084 12.8414 86.5321 12.8921 86.4388 12.8921L86.4473 12.9005Z" fill="black"/>
<path d="M82.5548 28.8642C82.5548 28.8642 82.4954 28.8642 82.4615 28.8473C82.3513 28.7967 82.3089 28.6701 82.3597 28.5603L91.7389 8.83155C91.7898 8.72181 91.917 8.6796 92.0272 8.73025C92.1374 8.7809 92.1798 8.90753 92.129 9.01727L82.7498 28.746C82.7159 28.822 82.6396 28.8727 82.5548 28.8727V28.8642Z" fill="black"/>
<path d="M86.3111 29.6663C86.3111 29.6663 86.2518 29.6663 86.2179 29.6494C86.1076 29.5988 86.0652 29.4722 86.1161 29.3624L92.4169 15.9398C92.4678 15.83 92.595 15.7878 92.7052 15.8385C92.8155 15.8891 92.8579 16.0157 92.807 16.1255L86.5062 29.5481C86.4723 29.6241 86.3959 29.6748 86.3111 29.6748V29.6663Z" fill="black"/>
<path d="M93.0272 22.9465C93.0272 22.9465 92.9593 22.9381 92.9254 22.9212C92.8236 22.8621 92.7812 22.7355 92.8406 22.6257L95.6136 17.6366C95.673 17.5353 95.8002 17.4931 95.9105 17.5522C96.0122 17.6112 96.0546 17.7379 95.9953 17.8476L93.2222 22.8368C93.1798 22.9043 93.112 22.9465 93.0357 22.9465H93.0272Z" fill="black"/>
<path d="M88.3721 32.3846C88.3721 32.3846 88.3043 32.3846 88.2789 32.3593C88.1686 32.3086 88.1262 32.1736 88.1856 32.0723L89.4406 29.5819C89.4915 29.4806 89.6272 29.4299 89.729 29.489C89.8392 29.5397 89.8816 29.6748 89.8223 29.7761L88.5672 32.2664C88.5333 32.3424 88.4569 32.3846 88.3721 32.3846Z" fill="black"/>
<path d="M67.1798 19.8313C67.1798 19.8313 67.1119 19.8313 67.0865 19.806C66.9763 19.7553 66.9339 19.6287 66.9847 19.519L68.6808 16.0493C68.7317 15.9396 68.8589 15.8974 68.9691 15.948C69.0794 15.9987 69.1218 16.1253 69.0709 16.235L67.3748 19.7047C67.3409 19.7807 67.2646 19.8229 67.1798 19.8229V19.8313Z" fill="black"/>
<path d="M74.3372 6.74634C74.3372 6.74634 74.2694 6.73789 74.2355 6.72101C74.1337 6.66192 74.0913 6.53529 74.1507 6.42554L75.4057 4.19688C75.4651 4.09558 75.5923 4.05337 75.7025 4.11246C75.8043 4.17155 75.8467 4.29818 75.7874 4.40793L74.5323 6.63659C74.4899 6.70413 74.422 6.74634 74.3457 6.74634H74.3372Z" fill="black"/>
<g opacity="0.13">
<path d="M87.5496 18.6833C87.4902 17.9067 86.286 17.8307 86.0995 18.582C85.862 19.3165 85.9553 19.1898 85.1581 19.9412C84.3949 20.549 84.6663 20.3717 83.4791 20.8022C82.3681 21.1315 82.8176 21.0639 81.8763 21.0639C81.7491 21.0386 81.6219 21.0048 81.4947 20.9711C81.0368 20.8022 81.1809 20.8867 80.3075 20.4055C79.9428 20.2197 79.6206 19.8989 79.205 19.8736C77.933 19.6457 77.3139 21.4691 78.4333 22.0938C80.4262 23.4446 82.4275 24.0524 84.7087 22.938C85.8874 22.3049 86.7355 21.2243 87.168 19.9749C87.3545 19.5697 87.6005 19.1392 87.5665 18.6833H87.5496Z" fill="black"/>
</g>
<g opacity="0.13">
<path d="M90.984 31.2112C90.2377 31.4813 89.9748 31.6586 88.5671 31.9034C87.8972 32.1145 87.0915 32.0047 86.5234 32.4353C85.3277 33.271 86.3198 35.2211 87.7106 34.8075C89.3812 34.4613 91.2977 34.3938 92.5952 33.1697C93.6213 32.0301 92.3238 30.5443 90.9925 31.2112H90.984Z" fill="black"/>
</g>
<g opacity="0.13">
<path d="M100.991 20.6586C100.991 20.6586 100.991 20.6332 100.991 20.6163V20.6586C100.991 20.38 100.932 20.1098 100.787 19.8735C100.211 18.8013 98.5148 18.9786 98.1162 20.0845C98.0908 20.1352 98.0653 20.1942 98.0229 20.2702C97.9127 20.4897 97.8364 20.7176 97.7516 20.9371C97.6752 21.106 97.5735 21.3423 97.5056 21.4774C97.3615 21.7222 97.2936 21.9924 97.2852 22.2794C97.3021 24.1029 99.9055 24.449 100.406 22.7015C100.66 22.1359 100.864 21.5534 100.94 20.9456C100.957 20.8527 100.974 20.7683 100.974 20.6754L100.991 20.6586Z" fill="black"/>
</g>
<path d="M86.125 35.5334C85.8621 35.5334 85.6246 35.373 85.5229 35.1282C84.9886 33.8197 84.4374 32.4605 83.6148 31.1436C82.0375 31.3208 80.4602 31.2364 78.9592 31.0929C78.5182 31.8696 78.0942 32.6631 77.6447 33.4904C77.3819 33.98 77.1105 34.4781 76.8306 34.9931C76.678 35.2801 76.3303 35.3983 76.0335 35.2885C73.5573 34.3346 71.3948 32.7897 69.792 30.8228C69.6055 30.5948 69.597 30.274 69.7751 30.0377C70.6062 28.9065 71.4457 27.7499 72.3531 26.357C71.4033 25.1329 70.5553 23.6725 69.7751 21.9166C69.4359 21.9841 69.0882 22.0601 68.7405 22.1276C67.5448 22.3724 66.3152 22.6341 64.9753 22.8114C64.653 22.8536 64.3477 22.6594 64.2629 22.3471C63.4997 19.595 63.7117 16.4884 64.8905 13.1116C65.0007 12.7993 65.3314 12.6136 65.6537 12.698C67.3328 13.1116 69.0119 13.5253 70.7842 13.9474C71.4966 12.4869 72.3616 11.1109 73.2774 9.68422C72.4633 8.62053 71.5559 7.37113 70.7418 5.92756C70.5977 5.66586 70.6485 5.33663 70.8775 5.13402C72.7177 3.50473 75.0328 2.07805 77.7635 0.913066C78.0688 0.786437 78.4164 0.904624 78.5776 1.18321C79.4001 2.60989 80.1464 4.10411 80.7994 5.62365C82.4869 5.3704 84.1915 5.3113 85.896 5.44637C86.6677 4.00281 87.4733 2.51703 88.4825 0.963718C88.6606 0.685134 89.0252 0.592273 89.322 0.735786C91.3149 1.74882 93.206 2.98134 94.9359 4.39958C95.4023 4.77946 95.8518 5.17623 96.3097 5.573C96.5472 5.77561 96.8355 6.02887 96.9373 6.42564C96.9881 6.60292 96.9542 6.79708 96.844 6.94904C96.4539 7.52309 96.0468 8.08869 95.6313 8.66274C95.0801 9.43096 94.5119 10.2245 93.9268 11.094C94.4271 12.3012 94.9274 13.5422 95.3939 14.7831C96.844 14.9182 98.6927 15.2052 100.669 15.9988C100.898 16.0916 101.059 16.3111 101.076 16.5559C101.228 19.097 100.889 21.4185 100.024 23.6471C99.9223 23.9004 99.6933 24.0777 99.3965 24.0608L98.8284 24.0355C97.5563 23.9848 96.2419 23.9342 94.8342 24.0355C94.2914 25.2933 93.4858 26.5512 92.3325 27.9525C93.0872 29.2441 93.8505 30.5948 94.5204 32.1819C94.6476 32.4858 94.5204 32.8404 94.2321 33.0008C91.6032 34.3937 88.898 35.2463 86.1928 35.5249C86.1674 35.5249 86.1504 35.5249 86.125 35.5249V35.5334ZM83.9371 29.8097C84.1491 29.8097 84.3526 29.9195 84.4798 30.0968C85.3957 31.4728 85.9893 32.8488 86.5405 34.1911C88.7369 33.9041 90.9417 33.2118 93.1042 32.1397C92.4512 30.7046 91.7219 29.4467 91.0096 28.2227C90.8739 27.9863 90.8993 27.6824 91.0689 27.4798C92.4088 25.9096 93.2738 24.5504 93.7996 23.1997C93.8844 22.9718 94.0964 22.8114 94.3423 22.7945C95.9705 22.6426 97.4546 22.7017 98.8877 22.7607H98.9895C99.6255 20.9626 99.8969 19.0801 99.8205 17.054C97.9549 16.3618 96.2164 16.1507 94.8935 16.041C94.6391 16.0241 94.4271 15.8553 94.3423 15.6189C93.8081 14.1584 93.206 12.698 92.6208 11.2797C92.536 11.0856 92.5615 10.8576 92.6802 10.6804C93.3501 9.68422 93.9777 8.78937 94.5967 7.9283C94.919 7.48088 95.2327 7.0419 95.538 6.60292C95.5126 6.58603 95.4956 6.56071 95.4787 6.54382C95.0377 6.1555 94.5882 5.76717 94.1388 5.39572C92.6293 4.15476 91.0011 3.0742 89.2796 2.15403C88.3553 3.62292 87.6005 5.0496 86.8627 6.42564C86.744 6.65357 86.4981 6.79708 86.2267 6.76331C84.3356 6.57759 82.4191 6.64513 80.545 6.96592C80.2482 7.01657 79.9514 6.85617 79.8411 6.57759C79.239 5.12558 78.5436 3.6989 77.7804 2.32287C75.601 3.30213 73.7184 4.45867 72.1665 5.75028C72.9637 7.09255 73.8371 8.25753 74.6088 9.25368C74.7784 9.46473 74.7869 9.76864 74.6427 9.99657C73.5573 11.6765 72.5396 13.2636 71.7679 14.952C71.6407 15.2306 71.327 15.3825 71.0302 15.315C69.2748 14.9013 67.6126 14.4877 65.959 14.0825C65.1025 16.767 64.9159 19.2405 65.4078 21.4438C66.4848 21.275 67.5109 21.0639 68.5115 20.8613C69.0373 20.7516 69.5546 20.6503 70.0719 20.549C70.3687 20.4899 70.674 20.6503 70.7927 20.9288C71.6577 22.9718 72.599 24.5926 73.676 25.9096C73.8541 26.1206 73.871 26.4245 73.7269 26.6609C72.8195 28.096 71.9715 29.2695 71.1574 30.3922C72.4633 31.878 74.1254 33.0683 76.0165 33.8787C76.2031 33.5411 76.3727 33.2118 76.5508 32.891C77.0766 31.9202 77.5684 31.0085 78.0942 30.0968C78.2214 29.8773 78.4673 29.7591 78.7217 29.776C80.3923 29.9448 82.1732 30.0714 83.8947 29.8182C83.9286 29.8182 83.954 29.8182 83.988 29.8182L83.9371 29.8097Z" fill="black"/>
<path d="M81.5969 21.4776C80.9015 21.4776 80.1892 21.3341 79.5362 21.0555C78.968 20.8107 78.5525 20.5068 78.2811 20.1184C77.908 19.595 77.8147 18.9703 77.7723 18.4891C77.6451 16.8176 78.0522 15.2897 78.9341 14.1922C80.0111 12.8499 81.8004 12.2674 83.2845 12.7571C83.3862 12.7908 83.471 12.8499 83.5389 12.9175H83.5558C85.1247 13.4409 86.2865 14.9689 86.3882 16.6572C86.4815 18.2781 85.6165 19.8905 84.1834 20.7685C83.4117 21.2412 82.5128 21.4776 81.5969 21.4776ZM82.2075 13.8714C81.3934 13.8714 80.5199 14.2851 79.9517 14.9942C79.2733 15.8384 78.9596 17.0371 79.0698 18.3878C79.0952 18.7002 79.1461 19.097 79.3412 19.3671C79.4769 19.5613 79.7143 19.7217 80.062 19.8736C81.1899 20.3632 82.5128 20.2873 83.5219 19.671C84.5395 19.0463 85.1756 17.8644 85.1077 16.7332C85.0399 15.5851 84.2258 14.4961 83.1658 14.15L83.047 14.1162C82.9453 14.0909 82.7672 14.0318 82.6145 13.9136C82.4873 13.8883 82.3516 13.8799 82.216 13.8799L82.2075 13.8714Z" fill="black"/>
<path d="M72.4545 20.988C72.4545 20.988 72.4121 20.988 72.3951 20.9796C72.2849 20.9458 72.217 20.8276 72.251 20.7179C73.7011 15.7878 75.4226 10.8662 77.3561 6.0965C77.3985 5.98676 77.5257 5.9361 77.6359 5.97831C77.7462 6.02052 77.797 6.14715 77.7546 6.2569C75.8296 11.0097 74.1166 15.9144 72.6665 20.8361C72.6411 20.9289 72.5563 20.988 72.463 20.988H72.4545Z" fill="black"/>
<path d="M74.6933 21.7899C74.6933 21.7899 74.6509 21.7899 74.6339 21.7899C74.5237 21.7562 74.4558 21.638 74.4897 21.5282C75.8296 16.8683 77.6105 12.3012 79.7644 7.95362C79.8153 7.84388 79.9425 7.80167 80.0528 7.85232C80.163 7.90297 80.2054 8.0296 80.1545 8.13934C78.009 12.4616 76.2451 17.0034 74.9053 21.638C74.8798 21.7308 74.795 21.7899 74.7017 21.7899H74.6933Z" fill="black"/>
<path d="M73.8537 30.713C73.8537 30.713 73.7943 30.713 73.7689 30.6961C73.6586 30.6539 73.6077 30.5272 73.6501 30.4175L77.3475 21.5788C77.3899 21.4691 77.5171 21.4184 77.6274 21.4606C77.7376 21.5028 77.7885 21.6295 77.7461 21.7392L74.0487 30.5779C74.0148 30.6623 73.9385 30.713 73.8537 30.713Z" fill="black"/>
<path d="M78.7047 28.8219C78.7047 28.8219 78.6539 28.8219 78.6199 28.8051C78.5097 28.7628 78.4588 28.6362 78.5012 28.5265L80.5619 23.4529C80.6043 23.3431 80.7315 23.2925 80.8417 23.3347C80.952 23.3769 81.0029 23.5035 80.9605 23.6133L78.8998 28.6869C78.8659 28.7713 78.7811 28.8219 78.6962 28.8219H78.7047Z" fill="black"/>
<path d="M82.5631 12.0902C82.5631 12.0902 82.5207 12.0902 82.4952 12.0818C82.385 12.048 82.3171 11.9298 82.3511 11.8116L83.3348 8.69656C83.3687 8.58682 83.4874 8.51928 83.6061 8.55305C83.7164 8.58682 83.7842 8.705 83.7503 8.82319L82.7666 11.9383C82.7412 12.0311 82.6564 12.0902 82.5631 12.0902Z" fill="black"/>
<path d="M86.4473 12.9005C86.4473 12.9005 86.3964 12.9005 86.3709 12.8836C86.2607 12.8414 86.2013 12.7148 86.2437 12.6051C87.2529 9.93741 88.4062 7.28665 89.6867 4.72875C89.7376 4.61901 89.8733 4.5768 89.975 4.63589C90.0853 4.68654 90.1277 4.81317 90.0683 4.92292C88.7963 7.46393 87.643 10.1063 86.6423 12.757C86.6084 12.8414 86.5321 12.8921 86.4388 12.8921L86.4473 12.9005Z" fill="black"/>
<path d="M82.5548 28.8642C82.5548 28.8642 82.4954 28.8642 82.4615 28.8473C82.3513 28.7967 82.3089 28.6701 82.3597 28.5603L91.7389 8.83155C91.7898 8.72181 91.917 8.6796 92.0272 8.73025C92.1374 8.7809 92.1798 8.90753 92.129 9.01727L82.7498 28.746C82.7159 28.822 82.6396 28.8727 82.5548 28.8727V28.8642Z" fill="black"/>
<path d="M86.3111 29.6663C86.3111 29.6663 86.2518 29.6663 86.2179 29.6494C86.1076 29.5988 86.0652 29.4722 86.1161 29.3624L92.4169 15.9398C92.4678 15.83 92.595 15.7878 92.7052 15.8385C92.8155 15.8891 92.8579 16.0157 92.807 16.1255L86.5062 29.5481C86.4723 29.6241 86.3959 29.6748 86.3111 29.6748V29.6663Z" fill="black"/>
<path d="M93.0272 22.9465C93.0272 22.9465 92.9593 22.9381 92.9254 22.9212C92.8236 22.8621 92.7812 22.7355 92.8406 22.6257L95.6136 17.6366C95.673 17.5353 95.8002 17.4931 95.9105 17.5522C96.0122 17.6112 96.0546 17.7379 95.9953 17.8476L93.2222 22.8368C93.1798 22.9043 93.112 22.9465 93.0357 22.9465H93.0272Z" fill="black"/>
<path d="M88.3721 32.3846C88.3721 32.3846 88.3043 32.3846 88.2789 32.3593C88.1686 32.3086 88.1262 32.1736 88.1856 32.0723L89.4406 29.5819C89.4915 29.4806 89.6272 29.4299 89.729 29.489C89.8392 29.5397 89.8816 29.6748 89.8223 29.7761L88.5672 32.2664C88.5333 32.3424 88.4569 32.3846 88.3721 32.3846Z" fill="black"/>
<path d="M67.1798 19.8313C67.1798 19.8313 67.1119 19.8313 67.0865 19.806C66.9763 19.7553 66.9339 19.6287 66.9847 19.519L68.6808 16.0493C68.7317 15.9396 68.8589 15.8974 68.9691 15.948C69.0794 15.9987 69.1218 16.1253 69.0709 16.235L67.3748 19.7047C67.3409 19.7807 67.2646 19.8229 67.1798 19.8229V19.8313Z" fill="black"/>
<path d="M74.3372 6.74634C74.3372 6.74634 74.2694 6.73789 74.2355 6.72101C74.1337 6.66192 74.0913 6.53529 74.1507 6.42554L75.4057 4.19688C75.4651 4.09558 75.5923 4.05337 75.7025 4.11246C75.8043 4.17155 75.8467 4.29818 75.7874 4.40793L74.5323 6.63659C74.4899 6.70413 74.422 6.74634 74.3457 6.74634H74.3372Z" fill="black"/>
<g opacity="0.13">
<path d="M87.5496 18.6833C87.4902 17.9067 86.286 17.8307 86.0995 18.582C85.862 19.3165 85.9553 19.1898 85.1581 19.9412C84.3949 20.549 84.6663 20.3717 83.4791 20.8022C82.3681 21.1315 82.8176 21.0639 81.8763 21.0639C81.7491 21.0386 81.6219 21.0048 81.4947 20.9711C81.0368 20.8022 81.1809 20.8867 80.3075 20.4055C79.9428 20.2197 79.6206 19.8989 79.205 19.8736C77.933 19.6457 77.3139 21.4691 78.4333 22.0938C80.4262 23.4446 82.4275 24.0524 84.7087 22.938C85.8874 22.3049 86.7355 21.2243 87.168 19.9749C87.3545 19.5697 87.6005 19.1392 87.5665 18.6833H87.5496Z" fill="black"/>
</g>
<g opacity="0.13">
<path d="M90.984 31.2112C90.2377 31.4813 89.9748 31.6586 88.5671 31.9034C87.8972 32.1145 87.0915 32.0047 86.5234 32.4353C85.3277 33.271 86.3198 35.2211 87.7106 34.8075C89.3812 34.4613 91.2977 34.3938 92.5952 33.1697C93.6213 32.0301 92.3238 30.5443 90.9925 31.2112H90.984Z" fill="black"/>
</g>
<g opacity="0.13">
<path d="M100.991 20.6586C100.991 20.6586 100.991 20.6332 100.991 20.6163V20.6586C100.991 20.38 100.932 20.1098 100.787 19.8735C100.211 18.8013 98.5148 18.9786 98.1162 20.0845C98.0908 20.1352 98.0653 20.1942 98.0229 20.2702C97.9127 20.4897 97.8364 20.7176 97.7516 20.9371C97.6752 21.106 97.5735 21.3423 97.5056 21.4774C97.3615 21.7222 97.2936 21.9924 97.2852 22.2794C97.3021 24.1029 99.9055 24.449 100.406 22.7015C100.66 22.1359 100.864 21.5534 100.94 20.9456C100.957 20.8527 100.974 20.7683 100.974 20.6754L100.991 20.6586Z" fill="black"/>
</g>
<path d="M86.125 35.5334C85.8621 35.5334 85.6246 35.373 85.5229 35.1282C84.9886 33.8197 84.4374 32.4605 83.6148 31.1436C82.0375 31.3208 80.4602 31.2364 78.9592 31.0929C78.5182 31.8696 78.0942 32.6631 77.6447 33.4904C77.3819 33.98 77.1105 34.4781 76.8306 34.9931C76.678 35.2801 76.3303 35.3983 76.0335 35.2885C73.5573 34.3346 71.3948 32.7897 69.792 30.8228C69.6055 30.5948 69.597 30.274 69.7751 30.0377C70.6062 28.9065 71.4457 27.7499 72.3531 26.357C71.4033 25.1329 70.5553 23.6725 69.7751 21.9166C69.4359 21.9841 69.0882 22.0601 68.7405 22.1276C67.5448 22.3724 66.3152 22.6341 64.9753 22.8114C64.653 22.8536 64.3477 22.6594 64.2629 22.3471C63.4997 19.595 63.7117 16.4884 64.8905 13.1116C65.0007 12.7993 65.3314 12.6136 65.6537 12.698C67.3328 13.1116 69.0119 13.5253 70.7842 13.9474C71.4966 12.4869 72.3616 11.1109 73.2774 9.68422C72.4633 8.62053 71.5559 7.37113 70.7418 5.92756C70.5977 5.66586 70.6485 5.33663 70.8775 5.13402C72.7177 3.50473 75.0328 2.07805 77.7635 0.913066C78.0688 0.786437 78.4164 0.904624 78.5776 1.18321C79.4001 2.60989 80.1464 4.10411 80.7994 5.62365C82.4869 5.3704 84.1915 5.3113 85.896 5.44637C86.6677 4.00281 87.4733 2.51703 88.4825 0.963718C88.6606 0.685134 89.0252 0.592273 89.322 0.735786C91.3149 1.74882 93.206 2.98134 94.9359 4.39958C95.4023 4.77946 95.8518 5.17623 96.3097 5.573C96.5472 5.77561 96.8355 6.02887 96.9373 6.42564C96.9881 6.60292 96.9542 6.79708 96.844 6.94904C96.4539 7.52309 96.0468 8.08869 95.6313 8.66274C95.0801 9.43096 94.5119 10.2245 93.9268 11.094C94.4271 12.3012 94.9274 13.5422 95.3939 14.7831C96.844 14.9182 98.6927 15.2052 100.669 15.9988C100.898 16.0916 101.059 16.3111 101.076 16.5559C101.228 19.097 100.889 21.4185 100.024 23.6471C99.9223 23.9004 99.6933 24.0777 99.3965 24.0608L98.8284 24.0355C97.5563 23.9848 96.2419 23.9342 94.8342 24.0355C94.2914 25.2933 93.4858 26.5512 92.3325 27.9525C93.0872 29.2441 93.8505 30.5948 94.5204 32.1819C94.6476 32.4858 94.5204 32.8404 94.2321 33.0008C91.6032 34.3937 88.898 35.2463 86.1928 35.5249C86.1674 35.5249 86.1504 35.5249 86.125 35.5249V35.5334ZM83.9371 29.8097C84.1491 29.8097 84.3526 29.9195 84.4798 30.0968C85.3957 31.4728 85.9893 32.8488 86.5405 34.1911C88.7369 33.9041 90.9417 33.2118 93.1042 32.1397C92.4512 30.7046 91.7219 29.4467 91.0096 28.2227C90.8739 27.9863 90.8993 27.6824 91.0689 27.4798C92.4088 25.9096 93.2738 24.5504 93.7996 23.1997C93.8844 22.9718 94.0964 22.8114 94.3423 22.7945C95.9705 22.6426 97.4546 22.7017 98.8877 22.7607H98.9895C99.6255 20.9626 99.8969 19.0801 99.8205 17.054C97.9549 16.3618 96.2164 16.1507 94.8935 16.041C94.6391 16.0241 94.4271 15.8553 94.3423 15.6189C93.8081 14.1584 93.206 12.698 92.6208 11.2797C92.536 11.0856 92.5615 10.8576 92.6802 10.6804C93.3501 9.68422 93.9777 8.78937 94.5967 7.9283C94.919 7.48088 95.2327 7.0419 95.538 6.60292C95.5126 6.58603 95.4956 6.56071 95.4787 6.54382C95.0377 6.1555 94.5882 5.76717 94.1388 5.39572C92.6293 4.15476 91.0011 3.0742 89.2796 2.15403C88.3553 3.62292 87.6005 5.0496 86.8627 6.42564C86.744 6.65357 86.4981 6.79708 86.2267 6.76331C84.3356 6.57759 82.4191 6.64513 80.545 6.96592C80.2482 7.01657 79.9514 6.85617 79.8411 6.57759C79.239 5.12558 78.5436 3.6989 77.7804 2.32287C75.601 3.30213 73.7184 4.45867 72.1665 5.75028C72.9637 7.09255 73.8371 8.25753 74.6088 9.25368C74.7784 9.46473 74.7869 9.76864 74.6427 9.99657C73.5573 11.6765 72.5396 13.2636 71.7679 14.952C71.6407 15.2306 71.327 15.3825 71.0302 15.315C69.2748 14.9013 67.6126 14.4877 65.959 14.0825C65.1025 16.767 64.9159 19.2405 65.4078 21.4438C66.4848 21.275 67.5109 21.0639 68.5115 20.8613C69.0373 20.7516 69.5546 20.6503 70.0719 20.549C70.3687 20.4899 70.674 20.6503 70.7927 20.9288C71.6577 22.9718 72.599 24.5926 73.676 25.9096C73.8541 26.1206 73.871 26.4245 73.7269 26.6609C72.8195 28.096 71.9715 29.2695 71.1574 30.3922C72.4633 31.878 74.1254 33.0683 76.0165 33.8787C76.2031 33.5411 76.3727 33.2118 76.5508 32.891C77.0766 31.9202 77.5684 31.0085 78.0942 30.0968C78.2214 29.8773 78.4673 29.7591 78.7217 29.776C80.3923 29.9448 82.1732 30.0714 83.8947 29.8182C83.9286 29.8182 83.954 29.8182 83.988 29.8182L83.9371 29.8097Z" fill="black"/>
<path d="M81.5969 21.4776C80.9015 21.4776 80.1892 21.3341 79.5362 21.0555C78.968 20.8107 78.5525 20.5068 78.2811 20.1184C77.908 19.595 77.8147 18.9703 77.7723 18.4891C77.6451 16.8176 78.0522 15.2897 78.9341 14.1922C80.0111 12.8499 81.8004 12.2674 83.2845 12.7571C83.3862 12.7908 83.471 12.8499 83.5389 12.9175H83.5558C85.1247 13.4409 86.2865 14.9689 86.3882 16.6572C86.4815 18.2781 85.6165 19.8905 84.1834 20.7685C83.4117 21.2412 82.5128 21.4776 81.5969 21.4776ZM82.2075 13.8714C81.3934 13.8714 80.5199 14.2851 79.9517 14.9942C79.2733 15.8384 78.9596 17.0371 79.0698 18.3878C79.0952 18.7002 79.1461 19.097 79.3412 19.3671C79.4769 19.5613 79.7143 19.7217 80.062 19.8736C81.1899 20.3632 82.5128 20.2873 83.5219 19.671C84.5395 19.0463 85.1756 17.8644 85.1077 16.7332C85.0399 15.5851 84.2258 14.4961 83.1658 14.15L83.047 14.1162C82.9453 14.0909 82.7672 14.0318 82.6145 13.9136C82.4873 13.8883 82.3516 13.8799 82.216 13.8799L82.2075 13.8714Z" fill="black"/>
<path d="M127.721 81.0269C125.847 78.0976 125.126 74.4 126.034 71.0401C126.814 68.1868 128.697 65.7217 130.978 63.569C128.306 59.6013 125.364 55.8194 122.158 52.2653C121.87 51.953 121.582 51.6322 121.234 51.3873C120.691 50.999 119.996 50.7458 119.309 50.273C116.4 53.4218 112.067 55.1946 107.716 55.1187C102.069 54.418 96.9974 50.2983 95.0639 44.9208C89.5942 45.7904 84.2347 47.3352 79.2314 49.471C80.2659 51.1847 80.5373 53.2614 80.5034 55.2622C80.4695 57.4233 80.0963 59.6182 79.155 61.5599C78.2052 63.5099 76.6364 65.1983 74.6436 66.0594C73.4902 66.5575 72.2267 66.7601 70.9801 66.8698C68.8092 67.0724 66.6128 67.0133 64.4673 66.836C64.4673 66.836 60.3374 82.0906 60.8038 82.0906C62.1437 82.4198 63.4836 82.7913 64.8065 83.188C66.2736 83.6355 67.7406 84.1335 69.0212 84.9777C70.3017 85.8219 71.3787 87.046 71.7603 88.5233C72.0147 89.511 71.9384 90.5494 71.7603 91.554C71.1412 95.1924 69.2416 98.5945 66.4601 101.034C66.4601 101.034 76.6873 111.139 76.8569 111.038C78.0187 109.324 79.9437 108.311 81.7839 107.366C82.5641 106.969 83.3443 106.564 84.1753 106.302C87.2028 105.34 90.6712 106.327 92.9948 108.48C95.3184 110.633 96.548 113.807 96.7261 117.015C100.356 116.812 103.985 116.542 107.598 116.179C109.184 116.027 110.82 115.833 112.296 114.668C112.202 111.468 112.898 108.244 114.289 105.357C114.967 103.955 115.815 102.621 117.011 101.617C118.792 100.131 121.2 99.5316 123.515 99.6582C125.83 99.7848 128.069 100.595 130.308 101.465C132.682 96.999 135.082 92.4488 135.854 87.2908C132.572 86.1089 129.604 83.9478 127.73 81.0185L127.721 81.0269ZM110.244 81.9808C109.989 84.0744 109.039 86.0076 107.725 87.6369C107.063 88.4558 106.292 89.1565 105.444 89.7812C104.613 90.3974 103.553 90.9799 102.544 91.2332C101.458 91.5033 100.237 91.3851 99.1345 91.3851C97.9727 91.3851 96.7854 91.3767 95.6745 90.9799C94.6145 90.6085 93.7071 89.9247 92.9015 89.1565C92.1128 88.4051 91.18 87.7129 90.6373 86.759C88.5087 83.0108 89.1278 78.0385 91.6634 74.6448C93.0202 72.8298 94.9283 71.4538 96.9381 70.4154C99.1005 69.2926 101.645 68.8959 104.002 69.5797C104.723 69.7907 104.977 70.4154 104.884 70.9895C108.76 72.9902 110.761 77.7514 110.252 81.9808H110.244Z" fill="white"/>
<path d="M109.981 66.971C106.682 64.8099 102.408 63.9826 99.1941 64.3203C93.6226 64.9197 89.5012 67.7392 86.5756 72.5005C83.6499 77.2617 83.1919 83.4665 85.4901 88.5486C87.7967 93.6306 92.8424 97.421 98.4055 98.0964C103.061 98.662 107.895 97.0834 111.431 94.0105C114.959 90.9376 116.409 86.455 116.867 81.8119C117.096 79.4651 116.155 70.9978 109.981 66.9626V66.971ZM103.672 91.3766C99.2111 92.8793 93.877 91.1825 91.0786 87.4089C90.256 86.2946 89.6284 85.0114 89.3995 83.6438C89.1705 82.2762 89.3401 80.8664 89.6793 79.5157C90.4934 76.2318 92.376 73.1336 95.2084 71.268C98.0408 69.4023 101.882 68.938 104.901 70.4913C108.65 72.4161 110.973 76.5104 111.143 80.571C111.346 85.2562 108.132 89.8655 103.672 91.3682V91.3766Z" fill="#71BB69"/>
<g opacity="0.13">
<path d="M117.952 80.0645C117.766 79.5074 117.579 78.9502 117.384 78.4015C117.02 77.3631 116.596 76.3501 116.265 75.3033C116.197 75.3033 116.138 75.3033 116.07 75.3286C114.925 75.8351 115.544 76.6624 115.578 77.7008C115.697 78.7223 115.926 79.7268 116.061 80.7399C116.189 81.7614 116.222 82.7997 116.146 83.8296L116.121 83.914C115.968 84.4881 115.705 85.0199 115.553 85.594C114.857 87.9662 114.586 88.6922 113.246 90.5663C113.161 90.6676 113.034 90.8364 112.949 90.963C112.847 91.1403 112.457 91.6722 112.338 91.841C112.305 91.8832 112.279 91.917 112.262 91.9339C112.203 92.0098 112.143 92.0774 112.084 92.1533C111.914 92.3982 111.066 93.2424 111.066 93.2761C109.905 94.1625 110.015 94.1456 108.751 95.0658C107.81 95.6905 106.801 96.2223 105.783 96.7035C104.52 97.2354 102.959 97.9361 101.034 98.0458C99.5249 98.0711 98.0154 98.0458 96.5144 97.877C94.1908 97.4295 93.6481 97.0412 91.6552 95.9353C91.0531 95.5977 90.4765 94.8632 89.7302 94.9983C89.7217 94.9983 89.7132 95.0067 89.6963 95.0152C90.2305 95.5976 90.7733 96.1717 91.3245 96.7373C92.0284 97.4633 92.7492 98.1724 93.47 98.8731C95.7851 99.768 98.2698 100.274 100.755 100.173C102.154 100.114 103.57 100.055 104.935 99.692C107.344 99.0588 109.582 97.8601 111.516 96.2983C112.924 95.0152 114.476 93.8502 115.637 92.3306C117.299 89.6039 118.08 86.4128 118.105 84.0407C118.198 83.1627 118.13 81.6263 117.944 80.0645H117.952Z" fill="black"/>
</g>
<g opacity="0.13">
<path d="M136.396 87.603C136.218 86.877 135.15 86.7335 134.785 87.392C133.191 90.1609 131.597 92.9383 129.918 95.665C129.222 96.7625 128.323 97.7502 127.823 98.9574C127.662 99.2613 127.441 99.5568 127.424 99.9113C127.212 100.941 128.484 101.76 129.366 101.203C129.706 101.026 129.858 100.688 130.028 100.376C130.172 100.232 130.316 100.08 130.426 99.9113C132.055 97.5476 132.86 94.728 134.242 92.2207C134.929 90.9122 135.625 89.5953 136.303 88.2868C136.422 88.0842 136.456 87.8394 136.388 87.6115L136.396 87.603Z" fill="black"/>
</g>
<g opacity="0.13">
<path d="M110.438 112.076C109.802 111.882 109.2 112.237 108.581 112.355C104.476 113.486 101.72 113.545 97.0139 113.393C94.8853 113.444 94.8853 116.551 97.0139 116.61C100.593 116.711 104.222 116.753 107.707 115.867C108.53 115.673 109.353 115.495 110.167 115.267C110.659 115.141 111.15 114.904 111.405 114.44C111.948 113.562 111.43 112.338 110.438 112.076Z" fill="black"/>
</g>
<path d="M96.446 117.42C96.1068 117.42 95.8185 117.158 95.8015 116.812C95.6319 113.765 94.2412 110.818 92.0024 108.725C91.0696 107.855 89.5855 106.783 87.8216 106.614C86.2952 106.462 84.7603 106.994 83.3102 107.543C81.0459 108.412 78.7563 109.51 77.3231 111.688C77.2214 111.84 77.0687 111.941 76.8906 111.966C76.7125 112 76.5344 111.95 76.3903 111.84C71.9636 108.48 68.5037 105.145 65.8154 101.659C65.6034 101.389 65.6458 100.992 65.9172 100.772C68.5885 98.5691 70.4796 95.3612 71.0986 91.9591C71.3446 90.6252 71.3276 89.5953 71.0393 88.7089C70.5389 87.1556 69.1567 85.8556 66.8161 84.7328C64.7045 83.7197 62.3894 83.0106 59.9471 82.6307C59.7775 82.6054 59.6249 82.5126 59.5231 82.369C59.4213 82.2255 59.3789 82.0567 59.4129 81.8879C60.2863 76.7045 61.7619 71.4705 63.8056 66.3378C63.9328 66.0171 64.2975 65.8567 64.6197 65.9664C67.3843 66.9457 74.2957 67.0385 77.1026 63.704C81.7668 58.1745 79.5534 51.8431 78.7648 50.0281C78.6291 49.7073 78.7648 49.3443 79.0785 49.1923C81.7328 47.926 86.1765 46.6344 90.8745 45.2668C92.3246 44.8447 93.8087 44.4142 95.2842 43.9752C95.5132 43.9077 95.7507 43.9752 95.9203 44.1272C96.0899 44.2876 96.1577 44.5324 96.0899 44.7603C95.8185 45.7396 98.3795 50.6106 102.391 52.6619C111.583 57.3472 117.418 51.4885 118.986 49.5806C119.105 49.4371 119.275 49.3527 119.453 49.3443C119.631 49.3358 119.818 49.4034 119.945 49.5384C124.448 54.0802 128.272 58.5882 131.622 63.3241C131.826 63.6111 131.758 64.0079 131.469 64.2189C127.577 67.0048 125.567 72.2134 126.576 76.8818C127.585 81.508 131.554 85.4672 136.456 86.7335C136.625 86.7757 136.77 86.8855 136.854 87.0374C136.939 87.1894 136.965 87.3667 136.914 87.5355C135.353 92.7779 133.115 97.8937 130.443 102.334C130.274 102.613 129.926 102.723 129.629 102.596C126.11 101.085 122.692 99.81 119.538 100.891C117.24 101.676 115.323 103.727 114.263 106.53C113.457 108.657 113.203 110.97 112.932 113.41C112.872 113.925 112.813 114.448 112.754 114.98C112.72 115.25 112.516 115.478 112.245 115.529C106.758 116.652 101.594 117.259 96.4545 117.395H96.4376L96.446 117.42ZM87.2959 105.306C87.5079 105.306 87.7284 105.314 87.9404 105.339C89.6279 105.5 91.3325 106.353 92.8843 107.788C95.2164 109.957 96.7089 112.963 97.0396 116.111C101.763 115.951 106.512 115.385 111.541 114.381C111.583 114.009 111.626 113.646 111.668 113.283C111.948 110.751 112.219 108.362 113.076 106.091C114.271 102.934 116.476 100.604 119.139 99.6919C122.548 98.5269 126.178 99.7509 129.638 101.211C132.021 97.1508 134.039 92.5416 135.506 87.8056C130.443 86.2523 126.398 82.0482 125.338 77.1688C124.261 72.2219 126.263 66.7346 130.223 63.5773C127.119 59.2551 123.608 55.1185 119.529 50.9567C117.528 53.1178 111.185 58.6051 101.822 53.8269C98.2014 51.9781 95.3097 47.8163 94.8687 45.4694C93.656 45.8324 92.4434 46.1786 91.2477 46.5247C86.9143 47.7825 82.8098 48.9728 80.1979 50.1209C81.1647 52.6451 82.8183 58.9512 78.0948 64.5482C75.0589 68.1529 68.1984 68.3048 64.7893 67.3762C62.9746 72.0361 61.6262 76.7721 60.7951 81.4742C63.1272 81.8963 65.3406 82.597 67.3843 83.5762C70.064 84.8679 71.6668 86.4212 72.2774 88.3206C72.6251 89.4096 72.659 90.6421 72.3707 92.187C71.7346 95.6735 69.869 98.9743 67.2147 101.346C69.6739 104.428 72.7692 107.399 76.6447 110.405C78.2729 108.294 80.5795 107.197 82.8522 106.327C84.1921 105.812 85.727 105.289 87.3043 105.289L87.2959 105.306Z" fill="black"/>
<path d="M99.7195 92.5754C95.9967 92.5754 92.2654 90.8279 90.0181 87.7972C89.0768 86.5225 88.4493 85.1296 88.2203 83.7536C87.9998 82.4535 88.0931 81.0184 88.5087 79.3722C89.416 75.7084 91.5361 72.568 94.3091 70.7446C97.4892 68.6594 101.551 68.3386 104.655 69.9341C108.471 71.8927 111.058 76.063 111.244 80.5541C111.456 85.4842 108.056 90.3973 103.332 91.9929C102.162 92.3896 100.932 92.5754 99.711 92.5754H99.7195ZM100.33 70.2043C98.5153 70.2043 96.6412 70.753 95.0215 71.8167C92.5113 73.4629 90.5948 76.3331 89.7637 79.6846C89.3991 81.1619 89.3143 82.4282 89.5008 83.551C89.6959 84.7244 90.2386 85.9316 91.0612 87.0375C93.6816 90.5662 98.7782 92.1786 102.934 90.7772C107.131 89.359 110.15 84.9945 109.964 80.6132C109.794 76.5779 107.479 72.8297 104.07 71.0822C102.934 70.4998 101.653 70.2127 100.339 70.2127L100.33 70.2043Z" fill="black"/>
<path d="M99.7456 98.8646C99.0927 98.8646 98.4482 98.8224 97.8037 98.7464C92.0626 98.0457 86.7963 94.154 84.3795 88.8272C81.9965 83.5678 82.429 77.1858 85.4989 72.1797C88.5857 67.1483 92.9954 64.2949 98.6008 63.6956C102.264 63.3072 106.666 64.3794 109.812 66.4476C116.52 70.8374 117.181 79.8872 116.986 81.8963C116.426 87.5693 114.578 91.6974 111.338 94.517C108.124 97.3113 103.909 98.873 99.7541 98.873L99.7456 98.8646ZM100.144 64.8943C99.6608 64.8943 99.1944 64.9197 98.728 64.9703C93.4703 65.5359 89.5015 68.1107 86.5928 72.8466C83.735 77.4981 83.3364 83.4159 85.5497 88.2953C87.78 93.2254 92.6562 96.8217 97.9563 97.4717C102.349 98.0035 107.03 96.5346 110.482 93.5377C113.467 90.9461 115.171 87.0881 115.697 81.7613C115.943 79.2709 114.832 71.2595 109.099 67.5113C106.581 65.8651 103.197 64.8943 100.144 64.8943Z" fill="black"/>
<path d="M109.981 66.971C106.682 64.8099 102.408 63.9826 99.1941 64.3203C93.6226 64.9197 89.5012 67.7392 86.5756 72.5005C83.6499 77.2617 83.1919 83.4665 85.4901 88.5486C87.7967 93.6306 92.8424 97.421 98.4055 98.0964C103.061 98.662 107.895 97.0834 111.431 94.0105C114.959 90.9376 116.409 86.455 116.867 81.8119C117.096 79.4651 116.155 70.9978 109.981 66.9626V66.971ZM103.672 91.3766C99.2111 92.8793 93.877 91.1825 91.0786 87.4089C90.256 86.2946 89.6284 85.0114 89.3995 83.6438C89.1705 82.2762 89.3401 80.8664 89.6793 79.5157C90.4934 76.2318 92.376 73.1336 95.2084 71.268C98.0408 69.4023 101.882 68.938 104.901 70.4913C108.65 72.4161 110.973 76.5104 111.143 80.571C111.346 85.2562 108.132 89.8655 103.672 91.3682V91.3766Z" fill="#EDA51E"/>
<g opacity="0.13">
<path d="M117.952 80.0645C117.766 79.5074 117.579 78.9502 117.384 78.4015C117.02 77.3631 116.596 76.3501 116.265 75.3033C116.197 75.3033 116.138 75.3033 116.07 75.3286C114.925 75.8351 115.544 76.6624 115.578 77.7008C115.697 78.7223 115.926 79.7268 116.061 80.7399C116.189 81.7614 116.222 82.7997 116.146 83.8296L116.121 83.914C115.968 84.4881 115.705 85.0199 115.553 85.594C114.857 87.9662 114.586 88.6922 113.246 90.5663C113.161 90.6676 113.034 90.8364 112.949 90.963C112.847 91.1403 112.457 91.6722 112.338 91.841C112.305 91.8832 112.279 91.917 112.262 91.9339C112.203 92.0098 112.143 92.0774 112.084 92.1533C111.914 92.3982 111.066 93.2424 111.066 93.2761C109.905 94.1625 110.015 94.1456 108.751 95.0658C107.81 95.6905 106.801 96.2223 105.783 96.7035C104.52 97.2354 102.959 97.9361 101.034 98.0458C99.5249 98.0711 98.0154 98.0458 96.5144 97.877C94.1908 97.4295 93.6481 97.0412 91.6552 95.9353C91.0531 95.5977 90.4765 94.8632 89.7302 94.9983C89.7217 94.9983 89.7132 95.0067 89.6963 95.0152C90.2305 95.5976 90.7733 96.1717 91.3245 96.7373C92.0284 97.4633 92.7492 98.1724 93.47 98.8731C95.7851 99.768 98.2698 100.274 100.755 100.173C102.154 100.114 103.57 100.055 104.935 99.692C107.344 99.0588 109.582 97.8601 111.516 96.2983C112.924 95.0152 114.476 93.8502 115.637 92.3306C117.299 89.6039 118.08 86.4128 118.105 84.0407C118.198 83.1627 118.13 81.6263 117.944 80.0645H117.952Z" fill="black"/>
</g>
<g opacity="0.13">
<path d="M136.396 87.603C136.218 86.877 135.15 86.7335 134.785 87.392C133.191 90.1609 131.597 92.9383 129.918 95.665C129.222 96.7625 128.323 97.7502 127.823 98.9574C127.662 99.2613 127.441 99.5568 127.424 99.9113C127.212 100.941 128.484 101.76 129.366 101.203C129.706 101.026 129.858 100.688 130.028 100.376C130.172 100.232 130.316 100.08 130.426 99.9113C132.055 97.5476 132.86 94.728 134.242 92.2207C134.929 90.9122 135.625 89.5953 136.303 88.2868C136.422 88.0842 136.456 87.8394 136.388 87.6115L136.396 87.603Z" fill="black"/>
</g>
<g opacity="0.13">
<path d="M110.438 112.076C109.802 111.882 109.2 112.237 108.581 112.355C104.476 113.486 101.72 113.545 97.0139 113.393C94.8853 113.444 94.8853 116.551 97.0139 116.61C100.593 116.711 104.222 116.753 107.707 115.867C108.53 115.673 109.353 115.495 110.167 115.267C110.659 115.141 111.15 114.904 111.405 114.44C111.948 113.562 111.43 112.338 110.438 112.076Z" fill="black"/>
</g>
<path d="M96.446 117.42C96.1068 117.42 95.8185 117.158 95.8015 116.812C95.6319 113.765 94.2412 110.818 92.0024 108.725C91.0696 107.855 89.5855 106.783 87.8216 106.614C86.2952 106.462 84.7603 106.994 83.3102 107.543C81.0459 108.412 78.7563 109.51 77.3231 111.688C77.2214 111.84 77.0687 111.941 76.8906 111.966C76.7125 112 76.5344 111.95 76.3903 111.84C71.9636 108.48 68.5037 105.145 65.8154 101.659C65.6034 101.389 65.6458 100.992 65.9172 100.772C68.5885 98.5691 70.4796 95.3612 71.0986 91.9591C71.3446 90.6252 71.3276 89.5953 71.0393 88.7089C70.5389 87.1556 69.1567 85.8556 66.8161 84.7328C64.7045 83.7197 62.3894 83.0106 59.9471 82.6307C59.7775 82.6054 59.6249 82.5126 59.5231 82.369C59.4213 82.2255 59.3789 82.0567 59.4129 81.8879C60.2863 76.7045 61.7619 71.4705 63.8056 66.3378C63.9328 66.0171 64.2975 65.8567 64.6197 65.9664C67.3843 66.9457 74.2957 67.0385 77.1026 63.704C81.7668 58.1745 79.5534 51.8431 78.7648 50.0281C78.6291 49.7073 78.7648 49.3443 79.0785 49.1923C81.7328 47.926 86.1765 46.6344 90.8745 45.2668C92.3246 44.8447 93.8087 44.4142 95.2842 43.9752C95.5132 43.9077 95.7507 43.9752 95.9203 44.1272C96.0899 44.2876 96.1577 44.5324 96.0899 44.7603C95.8185 45.7396 98.3795 50.6106 102.391 52.6619C111.583 57.3472 117.418 51.4885 118.986 49.5806C119.105 49.4371 119.275 49.3527 119.453 49.3443C119.631 49.3358 119.818 49.4034 119.945 49.5384C124.448 54.0802 128.272 58.5882 131.622 63.3241C131.826 63.6111 131.758 64.0079 131.469 64.2189C127.577 67.0048 125.567 72.2134 126.576 76.8818C127.585 81.508 131.554 85.4672 136.456 86.7335C136.625 86.7757 136.77 86.8855 136.854 87.0374C136.939 87.1894 136.965 87.3667 136.914 87.5355C135.353 92.7779 133.115 97.8937 130.443 102.334C130.274 102.613 129.926 102.723 129.629 102.596C126.11 101.085 122.692 99.81 119.538 100.891C117.24 101.676 115.323 103.727 114.263 106.53C113.457 108.657 113.203 110.97 112.932 113.41C112.872 113.925 112.813 114.448 112.754 114.98C112.72 115.25 112.516 115.478 112.245 115.529C106.758 116.652 101.594 117.259 96.4545 117.395H96.4376L96.446 117.42ZM87.2959 105.306C87.5079 105.306 87.7284 105.314 87.9404 105.339C89.6279 105.5 91.3325 106.353 92.8843 107.788C95.2164 109.957 96.7089 112.963 97.0396 116.111C101.763 115.951 106.512 115.385 111.541 114.381C111.583 114.009 111.626 113.646 111.668 113.283C111.948 110.751 112.219 108.362 113.076 106.091C114.271 102.934 116.476 100.604 119.139 99.6919C122.548 98.5269 126.178 99.7509 129.638 101.211C132.021 97.1508 134.039 92.5416 135.506 87.8056C130.443 86.2523 126.398 82.0482 125.338 77.1688C124.261 72.2219 126.263 66.7346 130.223 63.5773C127.119 59.2551 123.608 55.1185 119.529 50.9567C117.528 53.1178 111.185 58.6051 101.822 53.8269C98.2014 51.9781 95.3097 47.8163 94.8687 45.4694C93.656 45.8324 92.4434 46.1786 91.2477 46.5247C86.9143 47.7825 82.8098 48.9728 80.1979 50.1209C81.1647 52.6451 82.8183 58.9512 78.0948 64.5482C75.0589 68.1529 68.1984 68.3048 64.7893 67.3762C62.9746 72.0361 61.6262 76.7721 60.7951 81.4742C63.1272 81.8963 65.3406 82.597 67.3843 83.5762C70.064 84.8679 71.6668 86.4212 72.2774 88.3206C72.6251 89.4096 72.659 90.6421 72.3707 92.187C71.7346 95.6735 69.869 98.9743 67.2147 101.346C69.6739 104.428 72.7692 107.399 76.6447 110.405C78.2729 108.294 80.5795 107.197 82.8522 106.327C84.1921 105.812 85.727 105.289 87.3043 105.289L87.2959 105.306Z" fill="black"/>
<path d="M99.7195 92.5754C95.9967 92.5754 92.2654 90.8279 90.0181 87.7972C89.0768 86.5225 88.4493 85.1296 88.2203 83.7536C87.9998 82.4535 88.0931 81.0184 88.5087 79.3722C89.416 75.7084 91.5361 72.568 94.3091 70.7446C97.4892 68.6594 101.551 68.3386 104.655 69.9341C108.471 71.8927 111.058 76.063 111.244 80.5541C111.456 85.4842 108.056 90.3973 103.332 91.9929C102.162 92.3896 100.932 92.5754 99.711 92.5754H99.7195ZM100.33 70.2043C98.5153 70.2043 96.6412 70.753 95.0215 71.8167C92.5113 73.4629 90.5948 76.3331 89.7637 79.6846C89.3991 81.1619 89.3143 82.4282 89.5008 83.551C89.6959 84.7244 90.2386 85.9316 91.0612 87.0375C93.6816 90.5662 98.7782 92.1786 102.934 90.7772C107.131 89.359 110.15 84.9945 109.964 80.6132C109.794 76.5779 107.479 72.8297 104.07 71.0822C102.934 70.4998 101.653 70.2127 100.339 70.2127L100.33 70.2043Z" fill="black"/>
<path d="M99.7456 98.8646C99.0927 98.8646 98.4482 98.8224 97.8037 98.7464C92.0626 98.0457 86.7963 94.154 84.3795 88.8272C81.9965 83.5678 82.429 77.1858 85.4989 72.1797C88.5857 67.1483 92.9954 64.2949 98.6008 63.6956C102.264 63.3072 106.666 64.3794 109.812 66.4476C116.52 70.8374 117.181 79.8872 116.986 81.8963C116.426 87.5693 114.578 91.6974 111.338 94.517C108.124 97.3113 103.909 98.873 99.7541 98.873L99.7456 98.8646ZM100.144 64.8943C99.6608 64.8943 99.1944 64.9197 98.728 64.9703C93.4703 65.5359 89.5015 68.1107 86.5928 72.8466C83.735 77.4981 83.3364 83.4159 85.5497 88.2953C87.78 93.2254 92.6562 96.8217 97.9563 97.4717C102.349 98.0035 107.03 96.5346 110.482 93.5377C113.467 90.9461 115.171 87.0881 115.697 81.7613C115.943 79.2709 114.832 71.2595 109.099 67.5113C106.581 65.8651 103.197 64.8943 100.144 64.8943Z" fill="black"/>
<path d="M131.876 37.5679C131.876 37.5679 131.834 37.5679 131.808 37.5679C131.452 37.5341 131.198 37.2133 131.232 36.8588C131.825 31.1858 130.867 25.4453 128.459 20.2704C128.306 19.9496 128.45 19.5697 128.772 19.4178C129.095 19.2658 129.476 19.4093 129.629 19.7301C132.13 25.1161 133.131 31.0845 132.512 36.9939C132.478 37.3231 132.198 37.5679 131.868 37.5679H131.876Z" fill="black"/>
<path d="M41.9098 120.662C41.9098 120.662 41.825 120.662 41.7826 120.653C35.2359 119.37 29.0708 116.035 24.4236 111.274C24.1777 111.021 24.1777 110.616 24.4405 110.363C24.695 110.118 25.102 110.118 25.3564 110.379C29.8255 114.955 35.7532 118.163 42.0455 119.395C42.3932 119.463 42.6222 119.801 42.5543 120.147C42.495 120.451 42.2236 120.662 41.9183 120.662H41.9098Z" fill="black"/>
</svg>
