<svg width="144" height="107" viewBox="0 0 144 107" fill="none" xmlns="http://www.w3.org/2000/svg">
<g clip-path="url(#clip0_3078_313147)">
<path d="M7.33984 32.8777C20.1688 32.7091 32.9978 32.5404 45.8139 32.3718C49.9 32.3199 54.1676 32.2161 57.7608 30.2704C61.4966 28.2338 64.091 24.1088 63.9872 19.8671C63.8834 15.6124 60.887 11.5003 56.775 10.3848C52.6629 9.26921 47.8375 11.5003 46.2809 15.4567C46.4884 8.11473 40.0026 1.11002 32.6476 1.16191C25.2927 1.21379 18.8068 8.73737 20.2207 15.9496C18.9625 12.6029 14.9412 10.8258 11.4129 11.4225C7.88465 12.0062 4.91413 14.5227 2.92946 17.5062C1.28206 19.9838 0.179466 22.9803 0.568616 25.9508C0.957767 28.9213 2.96838 32.9425 7.33984 32.8777Z" fill="white"/>
<path d="M7.23769 33.3707C2.34736 33.3707 0.440523 28.7657 0.0773154 26.0157C-0.389666 22.4874 1.15397 19.2834 2.52897 17.2209C4.82495 13.7704 8.02896 11.4874 11.3367 10.9296C14.4759 10.3978 17.7058 11.6301 19.5478 13.8353C19.5738 11.0334 20.6374 8.16666 22.6221 5.75393C25.2035 2.58884 28.9523 0.694968 32.6492 0.669025C36.1775 0.656053 39.7448 2.22563 42.4558 4.9886C44.8426 7.42728 46.3344 10.5145 46.6846 13.6537C48.8249 10.5535 53.1186 8.88011 56.8933 9.90487C61.0962 11.0464 64.3521 15.3141 64.4688 19.8412C64.5855 24.1608 61.9782 28.5192 57.983 30.6855C54.2082 32.735 49.7459 32.7999 45.8155 32.8518L7.34146 33.3577H7.23769V33.3707ZM12.7766 11.7858C12.3485 11.7858 11.9205 11.8247 11.5054 11.8895C8.47 12.3954 5.48651 14.5358 3.34618 17.7527C2.06198 19.6726 0.622126 22.656 1.05019 25.886C1.37448 28.3117 3.03486 32.3978 7.25066 32.3978H7.34146L45.8155 31.8789C49.6292 31.827 53.9617 31.7751 57.5289 29.8294C61.1999 27.8317 63.5997 23.8235 63.4959 19.8671C63.3921 15.7551 60.4476 11.8766 56.6469 10.8518C52.7164 9.78812 48.1634 11.9674 46.7365 15.6384C46.6457 15.8589 46.4122 15.9886 46.1917 15.9367C45.9582 15.8848 45.8025 15.6773 45.8025 15.4438C45.8933 11.9544 44.4275 8.40015 41.7683 5.6761C39.2389 3.09473 35.9311 1.61596 32.6622 1.6419C29.2507 1.66785 25.7742 3.432 23.3745 6.3636C21.0525 9.2044 20.0797 12.6549 20.7153 15.8459C20.7672 16.0924 20.6115 16.3388 20.365 16.4037C20.1186 16.4685 19.8591 16.3388 19.7813 16.1053C18.7047 13.2386 15.6044 11.7858 12.7766 11.7858Z" fill="black"/>
<g opacity="0.13">
<path opacity="0.13" d="M60.8242 24.4593C60.474 24.5372 60.2405 24.8096 59.9811 25.0301C59.6697 25.2636 59.3325 25.4582 59.0082 25.6527C58.2558 26.1457 57.5035 26.6516 56.6992 27.0537C56.6214 27.0926 56.5695 27.1185 56.5436 27.1315C54.8702 27.5725 53.2487 28.3119 51.5105 28.5584C50.3171 28.7011 46.2051 28.5843 43.8183 28.6622C38.7075 28.7659 33.5837 28.7789 28.4728 28.9346C24.4256 28.8438 20.3914 29.1681 16.3832 29.7129C11.2334 30.115 9.52117 30.3355 5.72047 28.74L5.8891 28.8178C5.03297 28.5065 4.29358 27.8709 3.39853 27.6893C1.72519 27.3909 0.894997 29.7907 2.38674 30.6339C4.4233 31.6975 6.5766 32.6704 8.83367 33.1115C14.0353 33.9546 19.224 32.411 24.4516 32.5666C26.2806 32.5277 28.1096 32.6704 29.9386 32.6185C32.4032 32.5277 34.8679 32.3461 37.3455 32.3072C41.0294 32.2294 44.869 31.9829 47.5931 31.6586C47.5542 32.4499 48.2676 33.2671 49.1886 33.0596C52.1461 32.7612 55.0388 31.8402 57.6591 30.4263C58.2558 30.115 58.8525 29.7777 59.4362 29.4405C59.7735 29.2199 60.1886 29.1032 60.4221 28.753C60.6556 28.4676 60.7464 28.1563 60.7204 27.8449C61.1226 27.5725 61.5117 27.3001 61.8879 26.9758C62.2641 26.6645 62.5754 26.2494 62.5624 25.7435C62.5754 24.8744 61.6803 24.1999 60.8502 24.4334L60.8242 24.4593Z" fill="black"/>
</g>
</g>
<path d="M71.068 51.1776C55.2919 44.6014 45.0926 46.2594 40.4702 48.644C38.6362 49.5941 32.1611 54.3447 27.127 73.6077C26.9211 74.3902 26.6966 75.303 27.2393 75.8619C32.9471 72.8439 43.1651 64.8145 54.8427 59.8218C60.9249 57.2136 57.2756 62.4113 61.9354 61.1445C63.863 60.6229 65.8654 60.1944 67.5497 59.1139C69.234 58.0333 72.0411 54.028 71.0493 51.159L71.068 51.1776Z" fill="white"/>
<path d="M27.258 76.5886C27.0709 76.5886 26.8837 76.514 26.7527 76.365C25.9293 75.508 26.2474 74.2599 26.472 73.4401C31.5997 53.7859 38.262 49.0167 40.1708 48.0293C42.8095 46.6693 52.8403 42.813 71.3487 50.5257C71.5358 50.6002 71.6855 50.7492 71.7417 50.9355C72.8458 54.1771 69.9264 58.4433 67.9427 59.7101C66.4081 60.6975 64.6677 61.1446 62.9647 61.5917C62.684 61.6662 62.4033 61.7407 62.1413 61.8152C59.6523 62.5045 58.9412 61.5358 58.4172 60.5112C58.0616 59.8219 57.8183 59.3189 55.1422 60.4739C47.5068 63.7341 40.5451 68.2797 34.9495 71.9311C32.0676 73.8127 29.5598 75.4522 27.5949 76.4954C27.4826 76.5513 27.3703 76.5699 27.258 76.5699V76.5886ZM50.9128 47.2468C45.4295 47.2468 42.1358 48.5882 40.8071 49.2775C39.5345 49.9295 32.9284 54.2143 27.8194 73.8127C27.7446 74.1294 27.6323 74.5579 27.6136 74.9119C29.4288 73.8873 31.6371 72.4528 34.1635 70.7947C39.7965 67.1061 46.8144 62.5418 54.562 59.2257C57.8183 57.8285 58.9037 58.4246 59.6523 59.915C59.9892 60.5671 60.1763 60.9396 61.7483 60.5112C62.029 60.4366 62.3097 60.3621 62.5904 60.2876C64.256 59.8405 65.8093 59.4306 67.1567 58.5737C68.6913 57.6049 71.0118 54.1212 70.4691 51.718C62.1787 48.3087 55.6849 47.2655 50.8941 47.2655L50.9128 47.2468Z" fill="black"/>
<path d="M86.3401 72.4894C87.3506 89.3678 82.5224 97.1364 78.7047 100.62C77.1888 101.999 70.302 107.606 50.2216 105.855C49.4169 105.781 48.4625 105.687 48.1069 104.998C52.8978 100.695 63.9766 93.8762 72.66 84.6732C77.1888 79.8853 70.9944 81.5434 73.7641 77.6311C74.9057 76.0104 75.9911 74.2964 77.5818 73.0855C79.1725 71.8746 83.9446 70.6078 86.3588 72.4894H86.3401Z" fill="white"/>
<path d="M57.5389 106.899C55.2931 106.899 52.8416 106.787 50.1655 106.563C49.3233 106.489 48.032 106.377 47.4893 105.334C47.3396 105.054 47.3958 104.7 47.639 104.495C49.3046 103.005 51.6813 101.235 54.451 99.1673C59.8033 95.1805 66.4655 90.2251 72.1359 84.2077C74.1196 82.1025 73.7266 81.7113 73.2026 81.1524C72.3792 80.3141 71.7055 79.3267 73.2026 77.2402C73.3711 77.0166 73.5208 76.7744 73.6892 76.5509C74.6811 75.135 75.7103 73.6633 77.1513 72.5641C79.004 71.1483 84.0756 69.8628 86.7892 71.968C86.9389 72.0984 87.0512 72.2847 87.0512 72.471C88.0617 89.3308 83.327 97.3788 79.1912 101.161C77.1326 103.042 71.2377 106.917 57.5576 106.917L57.5389 106.899ZM49.1736 104.98C49.5105 105.092 49.9409 105.129 50.2777 105.166C68.7487 106.787 75.9723 102.167 78.2181 100.117C82.1106 96.5591 86.5459 88.9582 85.6476 72.8622C83.5329 71.5395 79.4345 72.5455 77.9935 73.6447C76.7209 74.6134 75.8039 75.9361 74.8308 77.3333C74.6624 77.5755 74.4939 77.7991 74.3255 78.0413C73.3898 79.364 73.6518 79.6248 74.1945 80.165C75.3735 81.376 75.5793 82.5683 73.1652 85.1578C67.4012 91.2497 60.6828 96.2611 55.2931 100.266C52.879 102.055 50.7643 103.638 49.1923 104.98H49.1736Z" fill="black"/>
<path d="M129.475 48.1222C109.245 60.9953 89.0154 73.8684 68.7853 86.7415C68.7853 86.7415 51.8115 63.3426 52.1858 62.4298C71.0123 47.0044 88.9966 32.7341 108.254 17.7931C112.184 20.2708 117.293 21.9848 120.006 25.6734C121.541 27.76 122.589 30.1446 123.637 32.5105C124.722 34.9696 125.826 37.4474 126.912 39.9065C128.072 42.5333 129.251 45.2159 129.475 48.1035V48.1222Z" fill="white"/>
<path d="M55.1802 59.277L50.7246 62.7043L67.176 86.0104L71.2888 83.2685L55.1802 59.277Z" fill="#EDA51E"/>
<path d="M68.7852 87.4495C68.5606 87.4495 68.3548 87.3564 68.2238 87.1514C68.1863 87.0956 63.9382 81.2272 59.7836 75.3216C51.1751 63.0819 51.3435 62.6721 51.5494 62.1691C51.5868 62.0573 51.6617 61.9641 51.7552 61.8896C69.5712 47.284 87.4058 33.0882 107.823 17.2343C108.048 17.048 108.384 17.0294 108.628 17.1971C109.788 17.9236 111.023 18.5757 112.352 19.2836C115.421 20.8858 118.584 22.5624 120.567 25.2824C122.139 27.4434 123.225 29.8839 124.273 32.2499L127.548 39.6458C128.727 42.2912 129.943 45.0484 130.168 48.0664C130.187 48.3272 130.056 48.5694 129.85 48.6998L69.1595 87.3377C69.0472 87.4123 68.9162 87.4495 68.7852 87.4495ZM52.9904 62.6907C54.1881 65.1126 63.0773 77.6876 68.9723 85.8101L128.746 47.7684C128.446 45.1229 127.342 42.6266 126.275 40.2047L123 32.8087C121.99 30.5173 120.923 28.1327 119.445 26.1021C117.648 23.6429 114.635 22.0594 111.697 20.5318C110.555 19.9356 109.395 19.3209 108.291 18.6502C88.1731 34.2805 70.5817 48.2714 52.9904 62.6721V62.6907Z" fill="black"/>
<path d="M129.774 47.936C123.281 37.7642 115.926 27.1266 108.234 17.8118C118.396 16.8244 129.643 16.3587 139.824 15.6135C141.658 15.4831 142.987 17.1784 142.35 18.8923C138.626 28.971 133.442 38.7329 129.774 47.936Z" fill="white"/>
<path d="M129.774 48.6251C129.531 48.6251 129.307 48.5134 129.176 48.3084C121.653 36.5345 114.429 26.4186 107.692 18.2402C107.523 18.0352 107.486 17.7744 107.579 17.5322C107.673 17.2901 107.898 17.1224 108.16 17.1038C114.597 16.4704 121.503 16.0605 128.184 15.6506C132.039 15.4271 136.006 15.1849 139.768 14.9055C140.872 14.8309 141.939 15.2967 142.575 16.1537C143.211 16.992 143.38 18.1098 142.987 19.1158C140.891 24.8164 138.308 30.424 135.819 35.8266C133.854 40.1114 132.001 44.154 130.392 48.178C130.298 48.4202 130.074 48.5879 129.812 48.6065C129.793 48.6065 129.774 48.6065 129.737 48.6065L129.774 48.6251ZM109.619 18.3706C115.926 26.1391 122.644 35.5658 129.643 46.4082C131.141 42.7754 132.825 39.1054 134.584 35.2491C137.054 29.8464 139.618 24.2762 141.695 18.6314C141.901 18.0539 141.826 17.4577 141.471 16.992C141.097 16.5076 140.535 16.2468 139.88 16.3027C136.119 16.5821 132.132 16.8243 128.277 17.0479C122.064 17.4205 115.645 17.8117 109.619 18.3706Z" fill="black"/>
<path d="M106.165 54.0911C111.23 51.0362 112.988 44.7004 110.09 39.9397C107.193 35.179 100.738 33.7962 95.6728 36.8511C90.6076 39.9061 88.8503 46.2419 91.7477 51.0026C94.6451 55.7633 101.1 57.1461 106.165 54.0911Z" fill="white"/>
<path d="M100.393 56.4311C96.9491 56.4311 93.618 54.9034 91.5594 52.0158C89.95 49.7616 89.3137 46.9672 89.8003 44.1914C90.3243 41.1734 92.046 38.5093 94.6286 36.7023C99.7937 33.1067 106.812 34.1127 110.274 38.9564C111.883 41.2106 112.519 44.0051 112.033 46.7809C111.509 49.7989 109.787 52.4629 107.205 54.27C105.127 55.7231 102.732 56.4311 100.393 56.4311ZM95.4333 37.8387C93.1502 39.4408 91.6343 41.7695 91.1665 44.4149C90.7547 46.8368 91.2787 49.24 92.6823 51.1961C95.6953 55.4064 101.852 56.282 106.381 53.115C108.664 51.5128 110.18 49.1841 110.629 46.5387C111.041 44.1169 110.517 41.7136 109.113 39.7575C106.1 35.5472 99.9434 34.6716 95.4146 37.8387H95.4333Z" fill="black"/>
<path d="M10.6964 98.3849C10.4718 98.3849 10.266 98.2731 10.1163 98.0868C9.8917 97.7701 9.96655 97.3417 10.2847 97.1181C22.4864 88.6043 35.1559 80.4259 47.9751 72.825C48.312 72.6201 48.7424 72.7319 48.9295 73.0672C49.1354 73.4025 49.0231 73.831 48.6863 74.0173C35.9045 81.5996 23.2536 89.7408 11.0894 98.2545C10.9584 98.3477 10.8274 98.3849 10.6777 98.3849H10.6964Z" fill="black"/>
<path d="M38.5436 91.8457C38.319 91.8457 38.1131 91.7526 37.9821 91.5663C37.7576 91.2496 37.8324 90.8211 38.1319 90.5976C42.6794 87.3187 47.3767 84.1331 52.1114 81.1337C52.4295 80.9288 52.8786 81.0219 53.0845 81.3572C53.2904 81.6739 53.1968 82.1211 52.8786 82.326C48.1627 85.3067 43.4841 88.4738 38.974 91.7526C38.843 91.8457 38.712 91.883 38.5623 91.883L38.5436 91.8457Z" fill="black"/>
<path d="M49.7148 94.4914C49.5089 94.4914 49.2844 94.3983 49.1534 94.212C48.9288 93.8953 48.9849 93.4668 49.2844 93.2246C52.0541 91.1381 54.936 89.1075 57.8367 87.1886C58.1549 86.965 58.604 87.0582 58.8099 87.3749C59.0157 87.6916 58.9409 88.1387 58.6227 88.3436C55.7408 90.2625 52.8962 92.2745 50.1452 94.3424C50.0142 94.4355 49.8645 94.4914 49.7148 94.4914Z" fill="black"/>
<path d="M33.6957 68.0186H33.6585C33.5281 67.9999 33.4349 67.8882 33.4535 67.7578L34.236 61.9826C34.236 61.8522 34.3664 61.759 34.4968 61.7776C34.6272 61.7776 34.7204 61.908 34.7017 62.0385L33.9193 67.8137C33.9193 67.9254 33.8075 68.0186 33.6957 68.0186Z" fill="black"/>
<path d="M38.1142 65.2611H38.0954C37.9644 65.2611 37.8709 65.1307 37.8896 65.0003L39.1434 53.4313C39.1434 53.3009 39.2744 53.2077 39.4054 53.2264C39.5364 53.2264 39.63 53.3568 39.6113 53.4872L38.3574 65.0562C38.3574 65.168 38.2452 65.2611 38.1329 65.2611H38.1142Z" fill="black"/>
<path d="M42.829 63.8641H42.8103C42.6793 63.8641 42.5857 63.7337 42.6044 63.6033L43.9893 50.0968C43.9893 49.9664 44.1203 49.8733 44.2513 49.8919C44.3823 49.8919 44.4759 50.0223 44.4571 50.1527L43.0723 63.6592C43.0723 63.771 42.96 63.8641 42.8477 63.8641H42.829Z" fill="black"/>
<path d="M47.6572 60.4922C47.5262 60.4922 47.4326 60.3805 47.4326 60.25C47.6572 56.6918 48.1063 53.1149 48.7613 49.6311C48.78 49.5007 48.911 49.4262 49.042 49.4448C49.173 49.4635 49.2479 49.5939 49.2292 49.7243C48.5742 53.208 48.1438 56.7663 47.9192 60.2873C47.9192 60.4177 47.8069 60.5109 47.6946 60.5109L47.6572 60.4922Z" fill="black"/>
<path d="M52.5605 58.4431H52.5417C52.4107 58.4431 52.3172 58.3127 52.3359 58.1822L53.309 49.8175C53.309 49.6871 53.44 49.594 53.571 49.6126C53.702 49.6126 53.7956 49.743 53.7769 49.8734L52.8037 58.2381C52.8037 58.3499 52.6915 58.4431 52.5792 58.4431H52.5605Z" fill="black"/>
<path d="M57.5394 54.7916C57.5394 54.7916 57.5019 54.7916 57.4832 54.7916C57.3522 54.7543 57.2774 54.6425 57.3148 54.5121L58.2879 50.3764C58.3254 50.2459 58.4377 50.1714 58.5687 50.2087C58.6997 50.2459 58.7745 50.3577 58.7371 50.4881L57.764 54.6239C57.7452 54.7357 57.6517 54.8102 57.5394 54.8102V54.7916Z" fill="black"/>
<path d="M57.9298 104.291C57.7994 104.291 57.7063 104.198 57.7063 104.067L57.6504 99.6892C57.6504 99.5588 57.7435 99.447 57.8739 99.447C58.0044 99.447 58.0975 99.5402 58.0975 99.6706L58.1534 104.049C58.1534 104.179 58.0602 104.291 57.9298 104.291Z" fill="black"/>
<path d="M62.4002 103.303C62.2885 103.303 62.1767 103.21 62.1767 103.099C61.8972 100.919 61.7668 98.7019 61.8041 96.5223C61.8041 96.3919 61.9159 96.2987 62.0463 96.2987C62.1767 96.2987 62.2698 96.4105 62.2698 96.5409C62.2326 98.7019 62.363 100.9 62.6424 103.061C62.6424 103.192 62.5679 103.303 62.4375 103.322H62.4002V103.303Z" fill="black"/>
<path d="M66.8396 103.229C66.7273 103.229 66.6338 103.154 66.615 103.042C66.1285 100.099 65.7729 97.0993 65.5483 94.1C65.5483 93.9696 65.6419 93.8578 65.7729 93.8578C65.9039 93.8578 66.0162 93.9509 66.0162 94.0813C66.2408 97.0435 66.5963 100.043 67.0829 102.968C67.1016 103.098 67.0268 103.21 66.8958 103.229H66.8583H66.8396Z" fill="black"/>
<path d="M71.649 101.123C71.5367 101.123 71.4431 101.049 71.4244 100.937L69.684 90.9701C69.6653 90.8397 69.7401 90.7279 69.8711 90.7093C70.0021 90.6906 70.1144 90.7651 70.1331 90.8956L71.8736 100.862C71.8923 100.993 71.8174 101.105 71.6864 101.123H71.649Z" fill="black"/>
<path d="M76.3835 98.5341C76.2899 98.5341 76.1964 98.4595 76.1589 98.3664C75.0548 94.4914 74.3062 90.486 73.8945 86.4807C73.8945 86.3503 73.9694 86.2385 74.1004 86.2198C74.2314 86.2198 74.3437 86.2944 74.3624 86.4248C74.7741 90.4115 75.5227 94.3796 76.6268 98.236C76.6642 98.3664 76.5894 98.4968 76.4584 98.5154C76.4397 98.5154 76.4209 98.5154 76.4022 98.5154L76.3835 98.5341Z" fill="black"/>
<path d="M80.2938 93.7091C80.1815 93.7091 80.0879 93.6346 80.0692 93.5415C79.2458 90.3931 78.5346 87.1515 77.9545 83.9472C77.9358 83.8168 78.0106 83.705 78.1416 83.6677C78.2726 83.6491 78.3849 83.7236 78.4224 83.854C79.0025 87.0583 79.7136 90.2626 80.5371 93.4111C80.5745 93.5415 80.4996 93.6719 80.3686 93.6905C80.3499 93.6905 80.3312 93.6905 80.3125 93.6905L80.2938 93.7091Z" fill="black"/>
<path d="M83.5885 86.7043C83.4763 86.7043 83.3827 86.6298 83.364 86.518L82.1475 81.2645C82.1101 81.1341 82.2037 81.0223 82.316 80.985C82.447 80.9478 82.5593 81.0409 82.5967 81.1527L83.8131 86.4063C83.8505 86.5367 83.757 86.6484 83.6447 86.6857C83.6447 86.6857 83.6073 86.6857 83.5885 86.6857V86.7043Z" fill="black"/>
<g opacity="0.13">
<path opacity="0.13" d="M140.947 17.402C139.637 17.5138 139.861 18.1285 139.412 18.7247C134.902 26.959 130.897 35.4169 126.949 44.6572C124.703 45.6445 122.663 47.0977 120.586 48.4204C117.517 50.2274 109.9 55.8722 106.756 57.8656C102.115 60.7346 95.3591 65.4292 89.801 68.9316C83.4381 72.8066 78.1046 76.2344 72.4342 79.8486C71.068 80.7056 69.1779 81.991 68.7288 82.2704C68.2422 82.5872 67.6433 82.8293 67.4562 83.4069C67.0819 84.357 67.9241 85.3443 68.8598 85.3071C68.9159 85.7915 69.2528 86.2013 69.6645 86.4435C69.7581 86.8533 70.0201 87.2073 70.4318 87.4122C70.7499 87.8407 71.2739 88.1202 71.8353 87.9897C72.1348 87.9152 72.3968 87.7476 72.6588 87.5799C75.4285 87.4122 78.1233 86.4062 80.8182 85.7542C81.548 85.5493 82.2779 85.3443 83.0077 85.158C83.4943 85.009 84.0557 84.8972 84.4113 84.4874C84.5423 84.3383 84.6546 84.1707 84.7481 84.003C85.6651 83.6304 85.9833 82.5499 86.0768 81.6184C86.1891 80.7987 86.2827 79.979 86.264 79.1593C86.264 79.0475 86.264 78.8798 86.2266 78.7308V78.6749C86.2266 78.6749 86.2266 78.5445 86.2266 78.4886C86.264 78.2651 86.3014 78.0229 86.264 77.7993V77.7621C86.264 77.7621 86.3014 77.6689 86.3201 77.6317C86.657 76.812 86.1143 75.8246 85.1973 75.7501C84.8417 75.7128 84.5236 75.8618 84.2241 76.0295C90.6057 72.1359 96.9872 68.2051 103.144 63.9389C107.055 61.2748 109.376 59.9521 113.474 57.0831C113.531 57.0831 113.587 57.0831 113.662 57.0831C114.541 56.8223 115.159 56.0585 115.945 55.5928C118.19 53.9534 123.805 51.308 127.192 48.8675C127.903 48.4204 128.539 47.8615 129.082 47.2281C129.213 47.3957 129.4 47.5448 129.681 47.6752C130.991 48.085 131.328 46.7251 131.758 45.8122C132.432 44.3777 133.106 42.9432 133.667 41.4715C135.688 35.5286 138.065 29.7162 140.367 23.8665C140.423 23.7919 140.46 23.7174 140.498 23.6243C140.498 23.5498 140.535 23.4752 140.554 23.4007C140.685 23.0654 140.816 22.7487 140.928 22.432C141.115 22.0035 141.153 21.5191 140.984 21.1465C141.321 20.4572 141.677 19.7866 142.014 19.0973C142.294 18.3521 141.733 17.5138 140.947 17.4579V17.402Z" fill="black"/>
</g>
<path d="M73.856 84.0591C73.6315 84.0591 73.4069 83.9473 73.2759 83.7424L56.9384 59.2444C56.7325 58.9277 56.8074 58.4806 57.1255 58.2756C57.4437 58.0707 57.8928 58.1452 58.0987 58.4619L74.4362 82.9599C74.642 83.2766 74.5672 83.7237 74.249 83.9287C74.1367 84.0032 73.987 84.0404 73.856 84.0404V84.0591Z" fill="black"/>
<g opacity="0.13">
<path opacity="0.13" d="M111.829 44.0797C111.792 43.1669 112.054 42.0864 111.53 41.2853C110.762 39.9812 108.648 40.5401 108.554 42.0305C108.386 47.7498 105.597 50.7864 100.507 52.6494C99.9643 52.8171 99.3842 52.9475 98.8041 52.9847H98.7479C98.7479 52.9847 98.7105 52.9847 98.6918 52.9847H98.7292C98.4859 53.022 98.2426 53.1338 98.0555 53.2828C97.0824 54.0652 97.7186 55.7605 98.9725 55.7047C103.501 55.7233 108.199 53.3573 110.426 49.3706C111.399 47.7684 111.773 45.9055 111.81 44.0425L111.829 44.0797Z" fill="black"/>
</g>
<defs>
<clipPath id="clip0_3078_313147">
<rect width="64.4823" height="32.7016" fill="white" transform="translate(0 0.668945)"/>
</clipPath>
</defs>
</svg>
