<svg width="1269" height="65" viewBox="0 0 1269 65" fill="none" xmlns="http://www.w3.org/2000/svg">
<path d="M423.32 17.0319C406.4 4.12189 393.08 24.6619 382.94 34.9719C376.85 41.1719 368.59 46.3119 359.97 45.2119C351.35 44.1019 343.98 34.1319 348.11 26.4819C351.31 27.8919 351.3 32.9819 348.63 35.2419C345.96 37.4919 341.92 37.3119 338.7 35.9719C332.22 33.2719 328.13 26.8819 322.49 22.6919C308.22 12.0819 288.04 17.5819 271.63 24.4319C264.04 27.6019 255.82 31.0519 247.85 29.0319C239.87 27.0219 233.87 16.5319 239.25 10.3019C242.57 9.13189 244.52 14.1719 243.89 17.6319C241.42 31.3419 225.82 41.0819 212.41 37.3019C207.61 35.9419 203.09 32.9619 200.8 28.5219C198.51 24.0819 198.91 18.1419 202.46 14.6319C205.96 15.9419 206.4 21.1819 204.11 24.1319C201.82 27.0819 197.94 28.2519 194.29 29.0519C179.6 32.2819 164.23 32.3219 149.52 29.1819C138.43 26.8119 127.39 22.6219 116.1 23.7319C104.81 24.8419 93.0902 33.8319 94.2002 45.1219C98.6502 43.7419 97.4902 36.9419 94.5802 33.3019C87.3302 24.2219 75.3902 19.9119 63.7902 19.3319C52.1902 18.7519 40.7002 21.4419 29.3902 24.1119C20.1602 26.2919 7.13023 24.7319 0.990234 17.5019" stroke="#003D29" stroke-width="2" stroke-linecap="round" stroke-linejoin="round"/>
<path d="M54.6606 19.3918C54.9106 21.7918 55.0906 24.2118 55.1806 26.6218C55.2006 27.0418 55.1806 27.5318 54.8706 27.8118C54.6106 28.0418 54.2306 28.0618 53.8906 28.0718C52.8806 28.0918 51.8706 28.1118 50.8606 28.1218C50.2406 28.1318 49.5506 28.1218 49.1106 27.6818C48.7806 27.3518 48.6806 26.8518 48.6006 26.3918C48.3006 24.6318 48.0606 22.8618 47.8906 21.0818C50.4006 20.3918 52.0606 19.5918 54.6506 19.3918H54.6606Z" fill="#003D29"/>
<path d="M47.5804 27.7119C45.5504 28.6419 43.9204 30.4919 43.4404 32.6819C42.7504 35.8119 44.5704 39.1819 47.3804 40.7219C50.1904 42.2619 53.7304 42.1219 56.6404 40.7819C58.0204 40.1519 59.3204 39.2319 60.0504 37.9019C64.3904 30.0119 53.7804 24.8519 47.5904 27.7019L47.5804 27.7119Z" fill="#AA7622"/>
<path d="M50.0905 27.9819C50.7505 28.9419 50.8605 33.8519 50.0205 34.6619C50.2105 34.4819 50.2305 33.5919 50.4805 33.2719C50.8705 32.7719 51.3505 32.5519 51.9605 32.4819C53.2405 32.3219 54.5905 33.2219 54.7905 34.5219C54.6305 34.8419 54.1305 34.8119 53.8805 34.5619C53.6305 34.3019 53.5805 33.9219 53.5505 33.5719C53.3605 31.6219 53.3805 29.6619 53.6105 27.7119" stroke="#724107" stroke-width="1.5" stroke-linecap="round" stroke-linejoin="round"/>
<path d="M45.4902 36.7319C46.1002 37.5719 46.8602 38.2919 47.7402 38.8419" stroke="#F7F2EB" stroke-width="1.5" stroke-linecap="round" stroke-linejoin="round"/>
<path d="M75.46 21.6118C76.12 19.2818 76.85 16.9818 77.66 14.7018C77.8 14.3018 77.99 13.8618 78.39 13.7118C78.72 13.5918 79.07 13.7118 79.4 13.8418C80.34 14.2018 81.29 14.5618 82.23 14.9118C82.81 15.1318 83.44 15.4018 83.69 15.9718C83.88 16.4018 83.78 16.9018 83.69 17.3618C83.31 19.1118 82.88 20.8418 82.38 22.5518C79.8 22.2618 77.95 22.3918 75.47 21.6118H75.46Z" fill="#003D29"/>
<path d="M85.1201 16.5119C87.3501 16.4019 89.5501 15.2819 90.8101 13.4419C92.6101 10.7919 92.1701 6.98186 90.1401 4.51186C88.1101 2.04186 84.7601 0.851862 81.5601 1.00186C80.0501 1.07186 78.5001 1.45186 77.3301 2.41186C70.3701 8.13186 78.3201 16.8519 85.1201 16.5019V16.5119Z" fill="#85C5B9"/>
<path d="M82.8903 15.3319C82.6303 14.1919 84.3503 9.59187 85.4403 9.16187C85.2003 9.26187 84.8403 10.0819 84.4903 10.2819C83.9503 10.6019 83.4103 10.6219 82.8303 10.4719C81.5903 10.1419 80.6603 8.80187 80.9603 7.52187C81.2203 7.28187 81.6803 7.49187 81.8203 7.82187C81.9503 8.15187 81.8603 8.52187 81.7603 8.86187C81.2103 10.7419 80.4603 12.5619 79.5303 14.2719" stroke="#38846E" stroke-width="2" stroke-linecap="round" stroke-linejoin="round"/>
<path d="M85.7803 4.11182C87.3503 4.79182 88.6203 6.12182 89.2203 7.72182" stroke="#F7F2EB" stroke-width="1.5" stroke-linecap="round" stroke-linejoin="round"/>
<path d="M89.79 10.0918V11.4218" stroke="#F7F2EB" stroke-width="1.5" stroke-linecap="round" stroke-linejoin="round"/>
<path d="M127.16 24.0618C126.79 26.4518 126.34 28.8318 125.82 31.1818C125.73 31.5918 125.59 32.0618 125.22 32.2518C124.91 32.4118 124.54 32.3318 124.2 32.2518C123.22 32.0118 122.24 31.7718 121.26 31.5318C120.66 31.3818 120 31.1918 119.68 30.6618C119.44 30.2518 119.47 29.7518 119.52 29.2818C119.68 27.5018 119.91 25.7318 120.19 23.9718C122.79 23.9518 124.61 23.5918 127.16 24.0718V24.0618Z" fill="#003D29"/>
<path d="M118.2 30.2919C116 30.6719 113.95 32.0419 112.92 34.0319C111.45 36.8719 112.35 40.6019 114.67 42.8119C116.99 45.0219 120.45 45.7819 123.61 45.2419C125.1 44.9819 126.6 44.4219 127.64 43.3319C133.86 36.8119 124.91 29.1119 118.2 30.2819V30.2919Z" fill="#FF521E"/>
<path d="M120.551 31.1919C120.941 32.2919 119.791 37.0619 118.771 37.6319C119.001 37.5119 119.251 36.6519 119.571 36.4019C120.071 36.0219 120.601 35.9319 121.201 36.0119C122.471 36.1919 123.551 37.4019 123.421 38.7119C123.191 38.9819 122.701 38.8219 122.531 38.5119C122.361 38.2019 122.401 37.8219 122.461 37.4719C122.771 35.5419 123.301 33.6419 124.021 31.8319" stroke="#AA250B" stroke-width="2" stroke-linecap="round" stroke-linejoin="round"/>
<path d="M114.46 38.7517C114.68 39.3117 114.9 39.8617 115.13 40.4217" stroke="#F7F2EB" stroke-width="1.5" stroke-linecap="round" stroke-linejoin="round"/>
<path d="M167.62 30.3317C167.25 27.9417 166.8 25.5717 166.28 23.2117C166.19 22.8017 166.05 22.3317 165.68 22.1417C165.37 21.9817 165 22.0617 164.66 22.1417C163.68 22.3817 162.7 22.6217 161.72 22.8617C161.12 23.0117 160.46 23.2017 160.14 23.7317C159.9 24.1417 159.93 24.6417 159.98 25.1117C160.14 26.8917 160.37 28.6617 160.65 30.4217C163.25 30.4417 165.07 30.8017 167.62 30.3217V30.3317Z" fill="#003D29"/>
<path d="M158.65 24.0918C156.45 23.7118 154.4 22.3418 153.37 20.3518C151.9 17.5118 152.8 13.7718 155.12 11.5718C157.44 9.36176 160.9 8.60176 164.06 9.14176C165.55 9.40176 167.05 9.96176 168.09 11.0518C174.31 17.5718 165.36 25.2718 158.65 24.1018V24.0918Z" fill="#E595C1"/>
<path d="M161.01 23.1917C161.4 22.0917 160.25 17.3217 159.23 16.7517C159.46 16.8717 159.71 17.7317 160.03 17.9817C160.53 18.3617 161.06 18.4517 161.66 18.3717C162.93 18.1917 164.01 16.9817 163.88 15.6717C163.65 15.4017 163.16 15.5617 162.99 15.8717C162.82 16.1817 162.86 16.5617 162.92 16.9117C163.23 18.8417 163.76 20.7417 164.48 22.5517" stroke="#BC4A7E" stroke-width="2" stroke-linecap="round" stroke-linejoin="round"/>
<path d="M162.5 11.3118C164 11.8418 165.44 12.5718 166.75 13.4818" stroke="#F7F2EB" stroke-width="1.5" stroke-linecap="round" stroke-linejoin="round"/>
<path d="M167.791 15.0918C168.121 15.5318 168.461 15.9818 168.791 16.4218" stroke="#F7F2EB" stroke-width="1.5" stroke-linecap="round" stroke-linejoin="round"/>
<path d="M210.75 36.022C210.37 38.412 210.07 40.812 209.84 43.212C209.8 43.632 209.79 44.112 210.09 44.412C210.34 44.652 210.71 44.692 211.06 44.722C212.07 44.792 213.07 44.862 214.08 44.932C214.7 44.972 215.39 44.992 215.85 44.582C216.2 44.272 216.33 43.782 216.43 43.322C216.82 41.582 217.15 39.822 217.42 38.062C214.95 37.242 213.33 36.352 210.76 36.022H210.75Z" fill="#003D29"/>
<path d="M217.37 44.712C219.35 45.752 220.88 47.682 221.25 49.892C221.78 53.052 219.77 56.322 216.89 57.722C214.01 59.112 210.48 58.782 207.64 57.292C206.3 56.592 205.05 55.602 204.39 54.242C200.47 46.132 211.35 41.542 217.38 44.722L217.37 44.712Z" fill="#AA7622"/>
<path d="M214.86 44.8421C214.15 45.7721 213.78 50.6621 214.58 51.5121C214.4 51.3221 214.42 50.4321 214.19 50.1021C213.83 49.5821 213.36 49.3421 212.76 49.2321C211.49 49.0121 210.09 49.8321 209.82 51.1221C209.96 51.4521 210.47 51.4521 210.72 51.2021C210.98 50.9621 211.05 50.5821 211.11 50.2321C211.4 48.3021 211.49 46.3321 211.36 44.3821" stroke="#724107" stroke-width="1.5" stroke-linecap="round" stroke-linejoin="round"/>
<path d="M205.791 52.752C206.121 53.192 206.461 53.642 206.791 54.082" stroke="#F7F2EB" stroke-width="1.5" stroke-linecap="round" stroke-linejoin="round"/>
<path d="M209.13 55.752C209.57 56.082 210.02 56.422 210.46 56.752" stroke="#F7F2EB" stroke-width="1.5" stroke-linecap="round" stroke-linejoin="round"/>
<path d="M262.41 27.6319C262.04 25.2419 261.74 22.8419 261.53 20.4319C261.49 20.0119 261.48 19.5319 261.78 19.2319C262.03 18.9919 262.4 18.9519 262.75 18.9319C263.76 18.8619 264.76 18.7919 265.77 18.7319C266.39 18.6919 267.08 18.6719 267.54 19.0819C267.89 19.4019 268.01 19.8819 268.11 20.3419C268.5 22.0819 268.82 23.8419 269.08 25.6019C266.61 26.4119 264.99 27.3019 262.41 27.6219V27.6319Z" fill="#003D29"/>
<path d="M269.06 18.9619C271.04 17.9319 272.58 16.0019 272.95 13.7919C273.49 10.6319 271.5 7.35192 268.62 5.95192C265.74 4.55192 262.21 4.87192 259.37 6.35192C258.03 7.05192 256.77 8.03192 256.11 9.39192C252.16 17.4919 263.02 22.1119 269.06 18.9619Z" fill="#85C5B9"/>
<path d="M266.54 18.8219C265.83 17.8919 265.48 12.9919 266.28 12.1519C266.1 12.3419 266.12 13.2319 265.89 13.5619C265.53 14.0819 265.05 14.3219 264.46 14.4219C263.19 14.6419 261.8 13.8119 261.53 12.5219C261.67 12.1919 262.18 12.1919 262.44 12.4419C262.7 12.6819 262.77 13.0619 262.82 13.4119C263.11 15.3419 263.18 17.3119 263.05 19.2619" stroke="#38846E" stroke-width="2" stroke-linecap="round" stroke-linejoin="round"/>
<path d="M267.13 6.75195C267.87 7.21195 268.54 7.78195 269.1 8.44195" stroke="#F7F2EB" stroke-width="1.5" stroke-linecap="round" stroke-linejoin="round"/>
<path d="M270.78 10.6018C271.01 10.9918 271.24 11.3718 271.46 11.7618" stroke="#F7F2EB" stroke-width="1.5" stroke-linecap="round" stroke-linejoin="round"/>
<path d="M301.07 16.9019C301.11 19.3219 301.07 21.7319 300.94 24.1519C300.92 24.5719 300.86 25.0519 300.52 25.3119C300.24 25.5219 299.86 25.5019 299.52 25.4819C298.51 25.4119 297.51 25.3319 296.5 25.2619C295.88 25.2219 295.2 25.1419 294.8 24.6619C294.5 24.3019 294.44 23.8019 294.41 23.3319C294.27 21.5519 294.2 19.7719 294.18 17.9819C296.74 17.5219 298.47 16.8719 301.07 16.9119V16.9019Z" fill="#003D29"/>
<path d="M293.27 24.5518C291.16 25.3018 289.37 26.9918 288.69 29.1218C287.72 32.1718 289.23 35.7018 291.89 37.4918C294.54 39.2818 298.09 39.4518 301.11 38.3918C302.54 37.8918 303.92 37.0918 304.76 35.8318C309.8 28.3618 299.69 22.2718 293.27 24.5518Z" fill="#FF521E"/>
<path d="M295.741 25.0417C296.311 26.0617 295.981 30.9617 295.061 31.6917C295.261 31.5317 295.371 30.6417 295.651 30.3517C296.081 29.8917 296.581 29.7217 297.191 29.7017C298.481 29.6617 299.741 30.6817 299.831 31.9917C299.641 32.2917 299.141 32.2217 298.921 31.9417C298.701 31.6617 298.681 31.2817 298.681 30.9217C298.671 28.9617 298.871 27.0117 299.271 25.0917" stroke="#AA250B" stroke-width="2" stroke-linecap="round" stroke-linejoin="round"/>
<path d="M290.45 33.262C291 34.422 291.96 35.382 293.12 35.932" stroke="#F7F2EB" stroke-width="1.5" stroke-linecap="round" stroke-linejoin="round"/>
<path d="M295.63 37.0618C296.01 37.1918 296.4 37.3118 296.78 37.4418" stroke="#F7F2EB" stroke-width="1.5" stroke-linecap="round" stroke-linejoin="round"/>
<path d="M326.74 25.822C327.93 23.722 329.05 21.572 330.09 19.392C330.27 19.012 330.46 18.562 330.28 18.182C330.14 17.872 329.8 17.702 329.48 17.562C328.56 17.142 327.64 16.732 326.72 16.312C326.16 16.052 325.52 15.802 324.94 16.022C324.5 16.192 324.21 16.612 323.96 17.002C322.99 18.502 322.07 20.032 321.2 21.592C323.23 23.222 324.44 24.622 326.74 25.832V25.822Z" fill="#003D29"/>
<path d="M323.55 15.3719C322.06 13.7119 321.3 11.3619 321.72 9.17194C322.33 6.03194 325.34 3.65194 328.53 3.35194C331.72 3.05194 334.91 4.59194 337.05 6.97194C338.06 8.09194 338.89 9.46194 339.04 10.9719C339.89 19.9419 328.1 20.4519 323.55 15.3819V15.3719Z" fill="#E595C1"/>
<path d="M325.96 16.1219C326.95 15.5019 329 11.0419 328.54 9.96191C328.64 10.2019 328.31 11.0319 328.41 11.4219C328.57 12.0319 328.93 12.4219 329.45 12.7319C330.56 13.3819 332.16 13.0919 332.86 11.9819C332.84 11.6319 332.37 11.4519 332.04 11.5919C331.71 11.7319 331.51 12.0619 331.34 12.3719C330.39 14.0819 329.63 15.8919 329.07 17.7719" stroke="#BC4A7E" stroke-width="2" stroke-linecap="round" stroke-linejoin="round"/>
<path d="M334.4 7.48193C335.37 8.48193 336.14 9.69193 336.62 11.0119" stroke="#F7F2EB" stroke-width="1.5" stroke-linecap="round" stroke-linejoin="round"/>
<path d="M336.62 16.002C336.79 15.332 336.95 14.672 337.12 14.002" stroke="#F7F2EB" stroke-width="1.5" stroke-linecap="round" stroke-linejoin="round"/>
<path d="M353.78 42.3018C352.82 44.5218 351.93 46.7718 351.11 49.0418C350.97 49.4418 350.83 49.9018 351.05 50.2718C351.23 50.5718 351.58 50.7018 351.91 50.8118C352.87 51.1318 353.82 51.4518 354.78 51.7718C355.37 51.9718 356.03 52.1618 356.58 51.8718C357 51.6518 357.24 51.2118 357.46 50.7918C358.27 49.2018 359.03 47.5818 359.73 45.9418C357.55 44.5318 356.2 43.2618 353.78 42.3018Z" fill="#003D29"/>
<path d="M358.03 52.3617C359.69 53.8617 360.69 56.1117 360.49 58.3417C360.21 61.5317 357.46 64.2017 354.32 64.8317C351.18 65.4617 347.84 64.2617 345.47 62.1117C344.35 61.1017 343.38 59.8317 343.08 58.3417C341.3 49.5117 352.98 47.7817 358.03 52.3517V52.3617Z" fill="#AA7622"/>
<path d="M355.56 51.8617C354.64 52.5817 353.06 57.2317 353.63 58.2517C353.51 58.0217 353.75 57.1617 353.61 56.7817C353.39 56.1917 352.99 55.8317 352.44 55.5817C351.27 55.0517 349.71 55.5017 349.12 56.6817C349.17 57.0317 349.66 57.1617 349.98 56.9917C350.29 56.8217 350.46 56.4717 350.6 56.1517C351.37 54.3517 351.93 52.4717 352.29 50.5417" stroke="#724107" stroke-width="1.5" stroke-linecap="round" stroke-linejoin="round"/>
<path d="M345.11 56.5117C345.36 57.4917 345.79 58.4317 346.37 59.2517" stroke="#F7F2EB" stroke-width="1.5" stroke-linecap="round" stroke-linejoin="round"/>
<path d="M348.37 61.7717C348.7 61.9417 349.04 62.1117 349.37 62.2717" stroke="#F7F2EB" stroke-width="1.5" stroke-linecap="round" stroke-linejoin="round"/>
<path d="M385.87 31.9119C383.95 30.4519 382.07 28.9219 380.25 27.3319C379.93 27.0519 379.59 26.7119 379.6 26.2919C379.6 25.9419 379.86 25.6619 380.09 25.4019C380.77 24.6519 381.45 23.9119 382.13 23.1619C382.55 22.7019 383.03 22.2119 383.65 22.1919C384.12 22.1819 384.55 22.4419 384.94 22.7019C386.43 23.6919 387.88 24.7319 389.29 25.8219C388.07 28.1119 387.51 29.8819 385.88 31.9019L385.87 31.9119Z" fill="#003D29"/>
<path d="M384.67 21.0519C385.38 18.9319 385.16 16.4819 383.9 14.6319C382.1 11.9819 378.39 10.9919 375.34 11.9819C372.29 12.9619 369.97 15.6419 368.94 18.6719C368.45 20.1019 368.23 21.6819 368.7 23.1219C371.46 31.6919 382.5 27.5119 384.67 21.0519Z" fill="#85C5B9"/>
<path d="M382.761 22.6918C381.601 22.5118 377.961 19.2218 377.951 18.0518C377.951 18.3118 378.581 18.9418 378.641 19.3418C378.741 19.9618 378.561 20.4718 378.201 20.9618C377.441 22.0018 375.851 22.3618 374.771 21.6218C374.651 21.2918 375.011 20.9418 375.371 20.9318C375.731 20.9318 376.041 21.1518 376.321 21.3718C377.871 22.5718 379.281 23.9318 380.541 25.4318" stroke="#38846E" stroke-width="2" stroke-linecap="round" stroke-linejoin="round"/>
<path d="M373.47 15.4518C374.28 14.3218 375.8 13.9018 377.18 14.0518C378.56 14.2018 379.83 14.8318 381.07 15.4418" stroke="#F7F2EB" stroke-width="1.5" stroke-linecap="round" stroke-linejoin="round"/>
<path d="M1267.98 17.0319C1251.06 4.12189 1237.74 24.6619 1227.6 34.9719C1221.51 41.1719 1213.25 46.3119 1204.63 45.2119C1196.01 44.1019 1188.64 34.1319 1192.77 26.4819C1195.97 27.8919 1195.96 32.9819 1193.29 35.2419C1190.62 37.4919 1186.58 37.3119 1183.36 35.9719C1176.88 33.2719 1172.79 26.8819 1167.15 22.6919C1152.88 12.0819 1132.7 17.5819 1116.29 24.4319C1108.7 27.6019 1100.48 31.0519 1092.51 29.0319C1084.53 27.0219 1078.53 16.5319 1083.91 10.3019C1087.23 9.13189 1089.18 14.1719 1088.55 17.6319C1086.08 31.3419 1070.48 41.0819 1057.07 37.3019C1052.27 35.9419 1047.75 32.9619 1045.46 28.5219C1043.17 24.0819 1043.57 18.1419 1047.12 14.6319C1050.62 15.9419 1051.06 21.1819 1048.77 24.1319C1046.48 27.0819 1042.6 28.2519 1038.95 29.0519C1024.26 32.2819 1008.89 32.3219 994.18 29.1819C983.09 26.8119 972.05 22.6219 960.76 23.7319C949.47 24.8419 937.75 33.8319 938.86 45.1219C943.31 43.7419 942.15 36.9419 939.24 33.3019C931.99 24.2219 920.05 19.9119 908.45 19.3319C896.85 18.7519 885.36 21.4419 874.05 24.1119C864.82 26.2919 851.79 24.7319 845.65 17.5019" stroke="#003D29" stroke-width="2" stroke-linecap="round" stroke-linejoin="round"/>
<path d="M899.321 19.3918C899.571 21.7918 899.751 24.2118 899.841 26.6218C899.861 27.0418 899.841 27.5318 899.531 27.8118C899.271 28.0418 898.891 28.0618 898.551 28.0718C897.541 28.0918 896.531 28.1118 895.521 28.1218C894.901 28.1318 894.211 28.1218 893.771 27.6818C893.441 27.3518 893.341 26.8518 893.261 26.3918C892.961 24.6318 892.721 22.8618 892.551 21.0818C895.061 20.3918 896.721 19.5918 899.311 19.3918H899.321Z" fill="#003D29"/>
<path d="M892.241 27.7119C890.211 28.6419 888.581 30.4919 888.101 32.6819C887.411 35.8119 889.231 39.1819 892.041 40.7219C894.851 42.2619 898.391 42.1219 901.301 40.7819C902.681 40.1519 903.981 39.2319 904.711 37.9019C909.051 30.0119 898.441 24.8519 892.251 27.7019L892.241 27.7119Z" fill="#AA7622"/>
<path d="M894.751 27.9819C895.411 28.9419 895.521 33.8519 894.681 34.6619C894.871 34.4819 894.891 33.5919 895.141 33.2719C895.531 32.7719 896.011 32.5519 896.621 32.4819C897.901 32.3219 899.251 33.2219 899.451 34.5219C899.291 34.8419 898.791 34.8119 898.541 34.5619C898.291 34.3019 898.241 33.9219 898.211 33.5719C898.021 31.6219 898.041 29.6619 898.271 27.7119" stroke="#724107" stroke-width="1.5" stroke-linecap="round" stroke-linejoin="round"/>
<path d="M890.15 36.7319C890.76 37.5719 891.52 38.2919 892.4 38.8419" stroke="#F7F2EB" stroke-width="1.5" stroke-linecap="round" stroke-linejoin="round"/>
<path d="M920.12 21.6118C920.78 19.2818 921.51 16.9818 922.32 14.7018C922.46 14.3018 922.65 13.8618 923.05 13.7118C923.38 13.5918 923.73 13.7118 924.06 13.8418C925 14.2018 925.95 14.5618 926.89 14.9118C927.47 15.1318 928.1 15.4018 928.35 15.9718C928.54 16.4018 928.44 16.9018 928.35 17.3618C927.97 19.1118 927.54 20.8418 927.04 22.5518C924.46 22.2618 922.61 22.3918 920.13 21.6118H920.12Z" fill="#003D29"/>
<path d="M929.78 16.5119C932.01 16.4019 934.21 15.2819 935.47 13.4419C937.27 10.7919 936.83 6.98186 934.8 4.51186C932.77 2.04186 929.42 0.851862 926.22 1.00186C924.71 1.07186 923.16 1.45186 921.99 2.41186C915.03 8.13186 922.98 16.8519 929.78 16.5019V16.5119Z" fill="#85C5B9"/>
<path d="M927.55 15.3319C927.29 14.1919 929.01 9.59187 930.1 9.16187C929.86 9.26187 929.5 10.0819 929.15 10.2819C928.61 10.6019 928.07 10.6219 927.49 10.4719C926.25 10.1419 925.32 8.80187 925.62 7.52187C925.88 7.28187 926.34 7.49187 926.48 7.82187C926.61 8.15187 926.52 8.52187 926.42 8.86187C925.87 10.7419 925.12 12.5619 924.19 14.2719" stroke="#38846E" stroke-width="2" stroke-linecap="round" stroke-linejoin="round"/>
<path d="M930.44 4.11182C932.01 4.79182 933.28 6.12182 933.88 7.72182" stroke="#F7F2EB" stroke-width="1.5" stroke-linecap="round" stroke-linejoin="round"/>
<path d="M934.45 10.0918V11.4218" stroke="#F7F2EB" stroke-width="1.5" stroke-linecap="round" stroke-linejoin="round"/>
<path d="M971.821 24.0618C971.451 26.4518 971.001 28.8318 970.481 31.1818C970.391 31.5918 970.251 32.0618 969.881 32.2518C969.571 32.4118 969.201 32.3318 968.861 32.2518C967.881 32.0118 966.901 31.7718 965.921 31.5318C965.321 31.3818 964.661 31.1918 964.341 30.6618C964.101 30.2518 964.131 29.7518 964.181 29.2818C964.341 27.5018 964.571 25.7318 964.851 23.9718C967.451 23.9518 969.271 23.5918 971.821 24.0718V24.0618Z" fill="#003D29"/>
<path d="M962.86 30.2919C960.66 30.6719 958.61 32.0419 957.58 34.0319C956.11 36.8719 957.01 40.6019 959.33 42.8119C961.65 45.0219 965.11 45.7819 968.27 45.2419C969.76 44.9819 971.26 44.4219 972.3 43.3319C978.52 36.8119 969.57 29.1119 962.86 30.2819V30.2919Z" fill="#FF521E"/>
<path d="M965.211 31.1919C965.601 32.2919 964.451 37.0619 963.431 37.6319C963.661 37.5119 963.911 36.6519 964.231 36.4019C964.731 36.0219 965.261 35.9319 965.861 36.0119C967.131 36.1919 968.211 37.4019 968.081 38.7119C967.851 38.9819 967.361 38.8219 967.191 38.5119C967.021 38.2019 967.061 37.8219 967.121 37.4719C967.431 35.5419 967.961 33.6419 968.681 31.8319" stroke="#AA250B" stroke-width="2" stroke-linecap="round" stroke-linejoin="round"/>
<path d="M959.121 38.7517C959.341 39.3117 959.561 39.8617 959.791 40.4217" stroke="#F7F2EB" stroke-width="1.5" stroke-linecap="round" stroke-linejoin="round"/>
<path d="M1012.28 30.3317C1011.91 27.9417 1011.46 25.5717 1010.94 23.2117C1010.85 22.8017 1010.71 22.3317 1010.34 22.1417C1010.03 21.9817 1009.66 22.0617 1009.32 22.1417C1008.34 22.3817 1007.36 22.6217 1006.38 22.8617C1005.78 23.0117 1005.12 23.2017 1004.8 23.7317C1004.56 24.1417 1004.59 24.6417 1004.64 25.1117C1004.8 26.8917 1005.03 28.6617 1005.31 30.4217C1007.91 30.4417 1009.73 30.8017 1012.28 30.3217V30.3317Z" fill="#003D29"/>
<path d="M1003.31 24.0918C1001.11 23.7118 999.061 22.3418 998.031 20.3518C996.561 17.5118 997.461 13.7718 999.781 11.5718C1002.1 9.36176 1005.56 8.60176 1008.72 9.14176C1010.21 9.40176 1011.71 9.96176 1012.75 11.0518C1018.97 17.5718 1010.02 25.2718 1003.31 24.1018V24.0918Z" fill="#E595C1"/>
<path d="M1005.67 23.1917C1006.06 22.0917 1004.91 17.3217 1003.89 16.7517C1004.12 16.8717 1004.37 17.7317 1004.69 17.9817C1005.19 18.3617 1005.72 18.4517 1006.32 18.3717C1007.59 18.1917 1008.67 16.9817 1008.54 15.6717C1008.31 15.4017 1007.82 15.5617 1007.65 15.8717C1007.48 16.1817 1007.52 16.5617 1007.58 16.9117C1007.89 18.8417 1008.42 20.7417 1009.14 22.5517" stroke="#BC4A7E" stroke-width="2" stroke-linecap="round" stroke-linejoin="round"/>
<path d="M1007.16 11.3118C1008.66 11.8418 1010.1 12.5718 1011.41 13.4818" stroke="#F7F2EB" stroke-width="1.5" stroke-linecap="round" stroke-linejoin="round"/>
<path d="M1012.45 15.0918C1012.78 15.5318 1013.12 15.9818 1013.45 16.4218" stroke="#F7F2EB" stroke-width="1.5" stroke-linecap="round" stroke-linejoin="round"/>
<path d="M1055.41 36.022C1055.03 38.412 1054.73 40.812 1054.5 43.212C1054.46 43.632 1054.45 44.112 1054.75 44.412C1055 44.652 1055.37 44.692 1055.72 44.722C1056.73 44.792 1057.73 44.862 1058.74 44.932C1059.36 44.972 1060.05 44.992 1060.51 44.582C1060.86 44.272 1060.99 43.782 1061.09 43.322C1061.48 41.582 1061.81 39.822 1062.08 38.062C1059.61 37.242 1057.99 36.352 1055.42 36.022H1055.41Z" fill="#003D29"/>
<path d="M1062.03 44.712C1064.01 45.752 1065.54 47.682 1065.91 49.892C1066.44 53.052 1064.43 56.322 1061.55 57.722C1058.67 59.112 1055.14 58.782 1052.3 57.292C1050.96 56.592 1049.71 55.602 1049.05 54.242C1045.13 46.132 1056.01 41.542 1062.04 44.722L1062.03 44.712Z" fill="#AA7622"/>
<path d="M1059.52 44.8421C1058.81 45.7721 1058.44 50.6621 1059.24 51.5121C1059.06 51.3221 1059.08 50.4321 1058.85 50.1021C1058.49 49.5821 1058.02 49.3421 1057.42 49.2321C1056.15 49.0121 1054.75 49.8321 1054.48 51.1221C1054.62 51.4521 1055.13 51.4521 1055.38 51.2021C1055.64 50.9621 1055.71 50.5821 1055.77 50.2321C1056.06 48.3021 1056.15 46.3321 1056.02 44.3821" stroke="#724107" stroke-width="1.5" stroke-linecap="round" stroke-linejoin="round"/>
<path d="M1050.45 52.752C1050.78 53.192 1051.12 53.642 1051.45 54.082" stroke="#F7F2EB" stroke-width="1.5" stroke-linecap="round" stroke-linejoin="round"/>
<path d="M1053.79 55.752C1054.23 56.082 1054.68 56.422 1055.12 56.752" stroke="#F7F2EB" stroke-width="1.5" stroke-linecap="round" stroke-linejoin="round"/>
<path d="M1107.07 27.6319C1106.7 25.2419 1106.4 22.8419 1106.19 20.4319C1106.15 20.0119 1106.14 19.5319 1106.44 19.2319C1106.69 18.9919 1107.06 18.9519 1107.41 18.9319C1108.42 18.8619 1109.42 18.7919 1110.43 18.7319C1111.05 18.6919 1111.74 18.6719 1112.2 19.0819C1112.55 19.4019 1112.67 19.8819 1112.77 20.3419C1113.16 22.0819 1113.48 23.8419 1113.74 25.6019C1111.27 26.4119 1109.65 27.3019 1107.07 27.6219V27.6319Z" fill="#003D29"/>
<path d="M1113.72 18.9619C1115.7 17.9319 1117.24 16.0019 1117.61 13.7919C1118.15 10.6319 1116.16 7.35192 1113.28 5.95192C1110.4 4.55192 1106.87 4.87192 1104.03 6.35192C1102.69 7.05192 1101.43 8.03192 1100.77 9.39192C1096.82 17.4919 1107.68 22.1119 1113.72 18.9619Z" fill="#85C5B9"/>
<path d="M1111.2 18.8219C1110.49 17.8919 1110.14 12.9919 1110.94 12.1519C1110.76 12.3419 1110.78 13.2319 1110.55 13.5619C1110.19 14.0819 1109.71 14.3219 1109.12 14.4219C1107.85 14.6419 1106.46 13.8119 1106.19 12.5219C1106.33 12.1919 1106.84 12.1919 1107.1 12.4419C1107.36 12.6819 1107.43 13.0619 1107.48 13.4119C1107.77 15.3419 1107.84 17.3119 1107.71 19.2619" stroke="#38846E" stroke-width="2" stroke-linecap="round" stroke-linejoin="round"/>
<path d="M1111.79 6.75195C1112.53 7.21195 1113.2 7.78195 1113.76 8.44195" stroke="#F7F2EB" stroke-width="1.5" stroke-linecap="round" stroke-linejoin="round"/>
<path d="M1115.44 10.6018C1115.67 10.9918 1115.9 11.3718 1116.12 11.7618" stroke="#F7F2EB" stroke-width="1.5" stroke-linecap="round" stroke-linejoin="round"/>
<path d="M1145.73 16.9019C1145.77 19.3219 1145.73 21.7319 1145.6 24.1519C1145.58 24.5719 1145.52 25.0519 1145.18 25.3119C1144.9 25.5219 1144.52 25.5019 1144.18 25.4819C1143.17 25.4119 1142.17 25.3319 1141.16 25.2619C1140.54 25.2219 1139.86 25.1419 1139.46 24.6619C1139.16 24.3019 1139.1 23.8019 1139.07 23.3319C1138.93 21.5519 1138.86 19.7719 1138.84 17.9819C1141.4 17.5219 1143.13 16.8719 1145.73 16.9119V16.9019Z" fill="#003D29"/>
<path d="M1137.93 24.5518C1135.82 25.3018 1134.03 26.9918 1133.35 29.1218C1132.38 32.1718 1133.89 35.7018 1136.55 37.4918C1139.2 39.2818 1142.75 39.4518 1145.77 38.3918C1147.2 37.8918 1148.58 37.0918 1149.42 35.8318C1154.46 28.3618 1144.35 22.2718 1137.93 24.5518Z" fill="#FF521E"/>
<path d="M1140.4 25.0417C1140.97 26.0617 1140.64 30.9617 1139.72 31.6917C1139.92 31.5317 1140.03 30.6417 1140.31 30.3517C1140.74 29.8917 1141.24 29.7217 1141.85 29.7017C1143.14 29.6617 1144.4 30.6817 1144.49 31.9917C1144.3 32.2917 1143.8 32.2217 1143.58 31.9417C1143.36 31.6617 1143.34 31.2817 1143.34 30.9217C1143.33 28.9617 1143.53 27.0117 1143.93 25.0917" stroke="#AA250B" stroke-width="2" stroke-linecap="round" stroke-linejoin="round"/>
<path d="M1135.11 33.262C1135.66 34.422 1136.62 35.382 1137.78 35.932" stroke="#F7F2EB" stroke-width="1.5" stroke-linecap="round" stroke-linejoin="round"/>
<path d="M1140.29 37.0618C1140.67 37.1918 1141.06 37.3118 1141.44 37.4418" stroke="#F7F2EB" stroke-width="1.5" stroke-linecap="round" stroke-linejoin="round"/>
<path d="M1171.4 25.822C1172.59 23.722 1173.71 21.572 1174.75 19.392C1174.93 19.012 1175.12 18.562 1174.94 18.182C1174.8 17.872 1174.46 17.702 1174.14 17.562C1173.22 17.142 1172.3 16.732 1171.38 16.312C1170.82 16.052 1170.18 15.802 1169.6 16.022C1169.16 16.192 1168.87 16.612 1168.62 17.002C1167.65 18.502 1166.73 20.032 1165.86 21.592C1167.89 23.222 1169.1 24.622 1171.4 25.832V25.822Z" fill="#003D29"/>
<path d="M1168.21 15.3719C1166.72 13.7119 1165.96 11.3619 1166.38 9.17194C1166.99 6.03194 1170 3.65194 1173.19 3.35194C1176.38 3.05194 1179.57 4.59194 1181.71 6.97194C1182.72 8.09194 1183.55 9.46194 1183.7 10.9719C1184.55 19.9419 1172.76 20.4519 1168.21 15.3819V15.3719Z" fill="#E595C1"/>
<path d="M1170.62 16.1219C1171.61 15.5019 1173.66 11.0419 1173.2 9.96191C1173.3 10.2019 1172.97 11.0319 1173.07 11.4219C1173.23 12.0319 1173.59 12.4219 1174.11 12.7319C1175.22 13.3819 1176.82 13.0919 1177.52 11.9819C1177.5 11.6319 1177.03 11.4519 1176.7 11.5919C1176.37 11.7319 1176.17 12.0619 1176 12.3719C1175.05 14.0819 1174.29 15.8919 1173.73 17.7719" stroke="#BC4A7E" stroke-width="2" stroke-linecap="round" stroke-linejoin="round"/>
<path d="M1179.06 7.48193C1180.03 8.48193 1180.8 9.69193 1181.28 11.0119" stroke="#F7F2EB" stroke-width="1.5" stroke-linecap="round" stroke-linejoin="round"/>
<path d="M1181.28 16.002C1181.45 15.332 1181.61 14.672 1181.78 14.002" stroke="#F7F2EB" stroke-width="1.5" stroke-linecap="round" stroke-linejoin="round"/>
<path d="M1198.44 42.3018C1197.48 44.5218 1196.59 46.7718 1195.77 49.0418C1195.63 49.4418 1195.49 49.9018 1195.71 50.2718C1195.89 50.5718 1196.24 50.7018 1196.57 50.8118C1197.53 51.1318 1198.48 51.4518 1199.44 51.7718C1200.03 51.9718 1200.69 52.1618 1201.24 51.8718C1201.66 51.6518 1201.9 51.2118 1202.12 50.7918C1202.93 49.2018 1203.69 47.5818 1204.39 45.9418C1202.21 44.5318 1200.86 43.2618 1198.44 42.3018Z" fill="#003D29"/>
<path d="M1202.69 52.3617C1204.35 53.8617 1205.35 56.1117 1205.15 58.3417C1204.87 61.5317 1202.12 64.2017 1198.98 64.8317C1195.84 65.4617 1192.5 64.2617 1190.13 62.1117C1189.01 61.1017 1188.04 59.8317 1187.74 58.3417C1185.96 49.5117 1197.64 47.7817 1202.69 52.3517V52.3617Z" fill="#AA7622"/>
<path d="M1200.22 51.8617C1199.3 52.5817 1197.72 57.2317 1198.29 58.2517C1198.17 58.0217 1198.41 57.1617 1198.27 56.7817C1198.05 56.1917 1197.65 55.8317 1197.1 55.5817C1195.93 55.0517 1194.37 55.5017 1193.78 56.6817C1193.83 57.0317 1194.32 57.1617 1194.64 56.9917C1194.95 56.8217 1195.12 56.4717 1195.26 56.1517C1196.03 54.3517 1196.59 52.4717 1196.95 50.5417" stroke="#724107" stroke-width="1.5" stroke-linecap="round" stroke-linejoin="round"/>
<path d="M1189.77 56.5117C1190.02 57.4917 1190.45 58.4317 1191.03 59.2517" stroke="#F7F2EB" stroke-width="1.5" stroke-linecap="round" stroke-linejoin="round"/>
<path d="M1193.03 61.7717C1193.36 61.9417 1193.7 62.1117 1194.03 62.2717" stroke="#F7F2EB" stroke-width="1.5" stroke-linecap="round" stroke-linejoin="round"/>
<path d="M1230.53 31.9119C1228.61 30.4519 1226.73 28.9219 1224.91 27.3319C1224.59 27.0519 1224.25 26.7119 1224.26 26.2919C1224.26 25.9419 1224.52 25.6619 1224.75 25.4019C1225.43 24.6519 1226.11 23.9119 1226.79 23.1619C1227.21 22.7019 1227.69 22.2119 1228.31 22.1919C1228.78 22.1819 1229.21 22.4419 1229.6 22.7019C1231.09 23.6919 1232.54 24.7319 1233.95 25.8219C1232.73 28.1119 1232.17 29.8819 1230.54 31.9019L1230.53 31.9119Z" fill="#003D29"/>
<path d="M1229.33 21.0519C1230.04 18.9319 1229.82 16.4819 1228.56 14.6319C1226.76 11.9819 1223.05 10.9919 1220 11.9819C1216.95 12.9619 1214.63 15.6419 1213.6 18.6719C1213.11 20.1019 1212.89 21.6819 1213.36 23.1219C1216.12 31.6919 1227.16 27.5119 1229.33 21.0519Z" fill="#85C5B9"/>
<path d="M1227.42 22.6918C1226.26 22.5118 1222.62 19.2218 1222.61 18.0518C1222.61 18.3118 1223.24 18.9418 1223.3 19.3418C1223.4 19.9618 1223.22 20.4718 1222.86 20.9618C1222.1 22.0018 1220.51 22.3618 1219.43 21.6218C1219.31 21.2918 1219.67 20.9418 1220.03 20.9318C1220.39 20.9318 1220.7 21.1518 1220.98 21.3718C1222.53 22.5718 1223.94 23.9318 1225.2 25.4318" stroke="#38846E" stroke-width="2" stroke-linecap="round" stroke-linejoin="round"/>
<path d="M1218.13 15.4518C1218.94 14.3218 1220.46 13.9018 1221.84 14.0518C1223.22 14.2018 1224.49 14.8318 1225.73 15.4418" stroke="#F7F2EB" stroke-width="1.5" stroke-linecap="round" stroke-linejoin="round"/>
<path d="M845.65 17.0319C828.73 4.12189 815.41 24.6619 805.27 34.9719C799.18 41.1719 790.92 46.3119 782.3 45.2119C773.68 44.1019 766.31 34.1319 770.44 26.4819C773.64 27.8919 773.63 32.9819 770.96 35.2419C768.29 37.4919 764.25 37.3119 761.03 35.9719C754.55 33.2719 750.46 26.8819 744.82 22.6919C730.55 12.0819 710.37 17.5819 693.96 24.4319C686.37 27.6019 678.15 31.0519 670.18 29.0319C662.2 27.0219 656.2 16.5319 661.58 10.3019C664.9 9.13189 666.85 14.1719 666.22 17.6319C663.75 31.3419 648.15 41.0819 634.74 37.3019C629.94 35.9419 625.42 32.9619 623.13 28.5219C620.84 24.0819 621.24 18.1419 624.79 14.6319C628.29 15.9419 628.73 21.1819 626.44 24.1319C624.15 27.0819 620.27 28.2519 616.62 29.0519C601.93 32.2819 586.56 32.3219 571.85 29.1819C560.76 26.8119 549.72 22.6219 538.43 23.7319C527.14 24.8419 515.42 33.8319 516.53 45.1219C520.98 43.7419 519.82 36.9419 516.91 33.3019C509.66 24.2219 497.72 19.9119 486.12 19.3319C474.52 18.7519 463.03 21.4419 451.72 24.1119C442.49 26.2919 429.46 24.7319 423.32 17.5019" stroke="#003D29" stroke-width="2" stroke-linecap="round" stroke-linejoin="round"/>
<path d="M476.991 19.3918C477.241 21.7918 477.421 24.2118 477.511 26.6218C477.531 27.0418 477.511 27.5318 477.201 27.8118C476.941 28.0418 476.561 28.0618 476.221 28.0718C475.211 28.0918 474.201 28.1118 473.191 28.1218C472.571 28.1318 471.881 28.1218 471.441 27.6818C471.111 27.3518 471.011 26.8518 470.931 26.3918C470.631 24.6318 470.391 22.8618 470.221 21.0818C472.731 20.3918 474.391 19.5918 476.981 19.3918H476.991Z" fill="#003D29"/>
<path d="M469.911 27.7119C467.881 28.6419 466.251 30.4919 465.771 32.6819C465.081 35.8119 466.9 39.1819 469.71 40.7219C472.52 42.2619 476.061 42.1219 478.971 40.7819C480.351 40.1519 481.651 39.2319 482.381 37.9019C486.721 30.0119 476.11 24.8519 469.92 27.7019L469.911 27.7119Z" fill="#AA7622"/>
<path d="M472.421 27.9819C473.081 28.9419 473.191 33.8519 472.351 34.6619C472.541 34.4819 472.561 33.5919 472.811 33.2719C473.201 32.7719 473.681 32.5519 474.291 32.4819C475.571 32.3219 476.921 33.2219 477.121 34.5219C476.961 34.8419 476.461 34.8119 476.211 34.5619C475.961 34.3019 475.911 33.9219 475.881 33.5719C475.691 31.6219 475.711 29.6619 475.941 27.7119" stroke="#724107" stroke-width="1.5" stroke-linecap="round" stroke-linejoin="round"/>
<path d="M467.82 36.7319C468.43 37.5719 469.19 38.2919 470.07 38.8419" stroke="#F7F2EB" stroke-width="1.5" stroke-linecap="round" stroke-linejoin="round"/>
<path d="M497.79 21.6118C498.45 19.2818 499.18 16.9818 499.99 14.7018C500.13 14.3018 500.32 13.8618 500.72 13.7118C501.05 13.5918 501.4 13.7118 501.73 13.8418C502.67 14.2018 503.62 14.5618 504.56 14.9118C505.14 15.1318 505.77 15.4018 506.02 15.9718C506.21 16.4018 506.11 16.9018 506.02 17.3618C505.64 19.1118 505.21 20.8418 504.71 22.5518C502.13 22.2618 500.28 22.3918 497.8 21.6118H497.79Z" fill="#003D29"/>
<path d="M507.45 16.5119C509.68 16.4019 511.88 15.2819 513.14 13.4419C514.94 10.7919 514.5 6.98186 512.47 4.51186C510.44 2.04186 507.09 0.851862 503.89 1.00186C502.38 1.07186 500.83 1.45186 499.66 2.41186C492.7 8.13186 500.65 16.8519 507.45 16.5019V16.5119Z" fill="#85C5B9"/>
<path d="M505.22 15.3319C504.96 14.1919 506.68 9.59187 507.77 9.16187C507.53 9.26187 507.17 10.0819 506.82 10.2819C506.28 10.6019 505.74 10.6219 505.16 10.4719C503.92 10.1419 502.99 8.80187 503.29 7.52187C503.55 7.28187 504.01 7.49187 504.15 7.82187C504.28 8.15187 504.19 8.52187 504.09 8.86187C503.54 10.7419 502.79 12.5619 501.86 14.2719" stroke="#38846E" stroke-width="2" stroke-linecap="round" stroke-linejoin="round"/>
<path d="M508.11 4.11182C509.68 4.79182 510.95 6.12182 511.55 7.72182" stroke="#F7F2EB" stroke-width="1.5" stroke-linecap="round" stroke-linejoin="round"/>
<path d="M512.12 10.0918V11.4218" stroke="#F7F2EB" stroke-width="1.5" stroke-linecap="round" stroke-linejoin="round"/>
<path d="M549.491 24.0618C549.121 26.4518 548.671 28.8318 548.151 31.1818C548.061 31.5918 547.921 32.0618 547.551 32.2518C547.241 32.4118 546.871 32.3318 546.531 32.2518C545.551 32.0118 544.571 31.7718 543.591 31.5318C542.991 31.3818 542.331 31.1918 542.011 30.6618C541.771 30.2518 541.801 29.7518 541.851 29.2818C542.011 27.5018 542.241 25.7318 542.521 23.9718C545.121 23.9518 546.941 23.5918 549.491 24.0718V24.0618Z" fill="#003D29"/>
<path d="M540.53 30.2919C538.33 30.6719 536.28 32.0419 535.25 34.0319C533.78 36.8719 534.68 40.6019 537 42.8119C539.32 45.0219 542.78 45.7819 545.94 45.2419C547.43 44.9819 548.93 44.4219 549.97 43.3319C556.19 36.8119 547.24 29.1119 540.53 30.2819V30.2919Z" fill="#FF521E"/>
<path d="M542.881 31.1919C543.271 32.2919 542.121 37.0619 541.101 37.6319C541.331 37.5119 541.581 36.6519 541.901 36.4019C542.401 36.0219 542.931 35.9319 543.531 36.0119C544.801 36.1919 545.881 37.4019 545.751 38.7119C545.521 38.9819 545.031 38.8219 544.861 38.5119C544.691 38.2019 544.731 37.8219 544.791 37.4719C545.101 35.5419 545.631 33.6419 546.351 31.8319" stroke="#AA250B" stroke-width="2" stroke-linecap="round" stroke-linejoin="round"/>
<path d="M536.791 38.7517C537.011 39.3117 537.231 39.8617 537.461 40.4217" stroke="#F7F2EB" stroke-width="1.5" stroke-linecap="round" stroke-linejoin="round"/>
<path d="M589.951 30.3317C589.581 27.9417 589.13 25.5717 588.61 23.2117C588.52 22.8017 588.381 22.3317 588.011 22.1417C587.701 21.9817 587.331 22.0617 586.991 22.1417C586.011 22.3817 585.031 22.6217 584.051 22.8617C583.451 23.0117 582.791 23.2017 582.471 23.7317C582.231 24.1417 582.261 24.6417 582.311 25.1117C582.471 26.8917 582.701 28.6617 582.981 30.4217C585.581 30.4417 587.401 30.8017 589.951 30.3217V30.3317Z" fill="#003D29"/>
<path d="M580.981 24.0918C578.781 23.7118 576.731 22.3418 575.701 20.3518C574.231 17.5118 575.131 13.7718 577.451 11.5718C579.771 9.36176 583.231 8.60176 586.391 9.14176C587.881 9.40176 589.381 9.96176 590.421 11.0518C596.641 17.5718 587.691 25.2718 580.981 24.1018V24.0918Z" fill="#E595C1"/>
<path d="M583.341 23.1917C583.731 22.0917 582.581 17.3217 581.561 16.7517C581.791 16.8717 582.041 17.7317 582.361 17.9817C582.861 18.3617 583.391 18.4517 583.991 18.3717C585.261 18.1917 586.341 16.9817 586.211 15.6717C585.981 15.4017 585.491 15.5617 585.321 15.8717C585.151 16.1817 585.191 16.5617 585.251 16.9117C585.561 18.8417 586.091 20.7417 586.811 22.5517" stroke="#BC4A7E" stroke-width="2" stroke-linecap="round" stroke-linejoin="round"/>
<path d="M584.831 11.3118C586.331 11.8418 587.771 12.5718 589.081 13.4818" stroke="#F7F2EB" stroke-width="1.5" stroke-linecap="round" stroke-linejoin="round"/>
<path d="M590.121 15.0918C590.451 15.5318 590.791 15.9818 591.121 16.4218" stroke="#F7F2EB" stroke-width="1.5" stroke-linecap="round" stroke-linejoin="round"/>
<path d="M633.08 36.022C632.7 38.412 632.4 40.812 632.17 43.212C632.13 43.632 632.12 44.112 632.42 44.412C632.67 44.652 633.04 44.692 633.39 44.722C634.4 44.792 635.4 44.862 636.41 44.932C637.03 44.972 637.72 44.992 638.18 44.582C638.53 44.272 638.66 43.782 638.76 43.322C639.15 41.582 639.48 39.822 639.75 38.062C637.28 37.242 635.66 36.352 633.09 36.022H633.08Z" fill="#003D29"/>
<path d="M639.7 44.712C641.68 45.752 643.21 47.682 643.58 49.892C644.11 53.052 642.1 56.322 639.22 57.722C636.34 59.112 632.81 58.782 629.97 57.292C628.63 56.592 627.38 55.602 626.72 54.242C622.8 46.132 633.68 41.542 639.71 44.722L639.7 44.712Z" fill="#AA7622"/>
<path d="M637.19 44.8421C636.48 45.7721 636.11 50.6621 636.91 51.5121C636.73 51.3221 636.75 50.4321 636.52 50.1021C636.16 49.5821 635.69 49.3421 635.09 49.2321C633.82 49.0121 632.42 49.8321 632.15 51.1221C632.29 51.4521 632.8 51.4521 633.05 51.2021C633.31 50.9621 633.38 50.5821 633.44 50.2321C633.73 48.3021 633.82 46.3321 633.69 44.3821" stroke="#724107" stroke-width="1.5" stroke-linecap="round" stroke-linejoin="round"/>
<path d="M628.121 52.752C628.451 53.192 628.791 53.642 629.121 54.082" stroke="#F7F2EB" stroke-width="1.5" stroke-linecap="round" stroke-linejoin="round"/>
<path d="M631.46 55.752C631.9 56.082 632.35 56.422 632.79 56.752" stroke="#F7F2EB" stroke-width="1.5" stroke-linecap="round" stroke-linejoin="round"/>
<path d="M684.74 27.6319C684.37 25.2419 684.07 22.8419 683.86 20.4319C683.82 20.0119 683.81 19.5319 684.11 19.2319C684.36 18.9919 684.73 18.9519 685.08 18.9319C686.09 18.8619 687.09 18.7919 688.1 18.7319C688.72 18.6919 689.41 18.6719 689.87 19.0819C690.22 19.4019 690.34 19.8819 690.44 20.3419C690.83 22.0819 691.15 23.8419 691.41 25.6019C688.94 26.4119 687.32 27.3019 684.74 27.6219V27.6319Z" fill="#003D29"/>
<path d="M691.39 18.9619C693.37 17.9319 694.91 16.0019 695.28 13.7919C695.82 10.6319 693.83 7.35192 690.95 5.95192C688.07 4.55192 684.54 4.87192 681.7 6.35192C680.36 7.05192 679.1 8.03192 678.44 9.39192C674.49 17.4919 685.35 22.1119 691.39 18.9619Z" fill="#85C5B9"/>
<path d="M688.87 18.8219C688.16 17.8919 687.81 12.9919 688.61 12.1519C688.43 12.3419 688.45 13.2319 688.22 13.5619C687.86 14.0819 687.38 14.3219 686.79 14.4219C685.52 14.6419 684.13 13.8119 683.86 12.5219C684 12.1919 684.51 12.1919 684.77 12.4419C685.03 12.6819 685.1 13.0619 685.15 13.4119C685.44 15.3419 685.51 17.3119 685.38 19.2619" stroke="#38846E" stroke-width="2" stroke-linecap="round" stroke-linejoin="round"/>
<path d="M689.46 6.75195C690.2 7.21195 690.87 7.78195 691.43 8.44195" stroke="#F7F2EB" stroke-width="1.5" stroke-linecap="round" stroke-linejoin="round"/>
<path d="M693.11 10.6018C693.34 10.9918 693.57 11.3718 693.79 11.7618" stroke="#F7F2EB" stroke-width="1.5" stroke-linecap="round" stroke-linejoin="round"/>
<path d="M723.4 16.9019C723.44 19.3219 723.4 21.7319 723.27 24.1519C723.25 24.5719 723.19 25.0519 722.85 25.3119C722.57 25.5219 722.19 25.5019 721.85 25.4819C720.84 25.4119 719.84 25.3319 718.83 25.2619C718.21 25.2219 717.53 25.1419 717.13 24.6619C716.83 24.3019 716.77 23.8019 716.74 23.3319C716.6 21.5519 716.53 19.7719 716.51 17.9819C719.07 17.5219 720.8 16.8719 723.4 16.9119V16.9019Z" fill="#003D29"/>
<path d="M715.6 24.5518C713.49 25.3018 711.7 26.9918 711.02 29.1218C710.05 32.1718 711.56 35.7018 714.22 37.4918C716.87 39.2818 720.42 39.4518 723.44 38.3918C724.87 37.8918 726.25 37.0918 727.09 35.8318C732.13 28.3618 722.02 22.2718 715.6 24.5518Z" fill="#FF521E"/>
<path d="M718.071 25.0417C718.641 26.0617 718.311 30.9617 717.391 31.6917C717.591 31.5317 717.701 30.6417 717.981 30.3517C718.411 29.8917 718.911 29.7217 719.521 29.7017C720.811 29.6617 722.071 30.6817 722.161 31.9917C721.971 32.2917 721.471 32.2217 721.251 31.9417C721.031 31.6617 721.011 31.2817 721.011 30.9217C721.001 28.9617 721.201 27.0117 721.601 25.0917" stroke="#AA250B" stroke-width="2" stroke-linecap="round" stroke-linejoin="round"/>
<path d="M712.78 33.262C713.33 34.422 714.29 35.382 715.45 35.932" stroke="#F7F2EB" stroke-width="1.5" stroke-linecap="round" stroke-linejoin="round"/>
<path d="M717.96 37.0618C718.34 37.1918 718.73 37.3118 719.11 37.4418" stroke="#F7F2EB" stroke-width="1.5" stroke-linecap="round" stroke-linejoin="round"/>
<path d="M749.07 25.822C750.26 23.722 751.38 21.572 752.42 19.392C752.6 19.012 752.79 18.562 752.61 18.182C752.47 17.872 752.13 17.702 751.81 17.562C750.89 17.142 749.97 16.732 749.05 16.312C748.49 16.052 747.85 15.802 747.27 16.022C746.83 16.192 746.54 16.612 746.29 17.002C745.32 18.502 744.4 20.032 743.53 21.592C745.56 23.222 746.77 24.622 749.07 25.832V25.822Z" fill="#003D29"/>
<path d="M745.88 15.3719C744.39 13.7119 743.63 11.3619 744.05 9.17194C744.66 6.03194 747.67 3.65194 750.86 3.35194C754.05 3.05194 757.24 4.59194 759.38 6.97194C760.39 8.09194 761.22 9.46194 761.37 10.9719C762.22 19.9419 750.43 20.4519 745.88 15.3819V15.3719Z" fill="#E595C1"/>
<path d="M748.29 16.1219C749.28 15.5019 751.33 11.0419 750.87 9.96191C750.97 10.2019 750.64 11.0319 750.74 11.4219C750.9 12.0319 751.26 12.4219 751.78 12.7319C752.89 13.3819 754.49 13.0919 755.19 11.9819C755.17 11.6319 754.7 11.4519 754.37 11.5919C754.04 11.7319 753.84 12.0619 753.67 12.3719C752.72 14.0819 751.96 15.8919 751.4 17.7719" stroke="#BC4A7E" stroke-width="2" stroke-linecap="round" stroke-linejoin="round"/>
<path d="M756.73 7.48193C757.7 8.48193 758.47 9.69193 758.95 11.0119" stroke="#F7F2EB" stroke-width="1.5" stroke-linecap="round" stroke-linejoin="round"/>
<path d="M758.95 16.002C759.12 15.332 759.28 14.672 759.45 14.002" stroke="#F7F2EB" stroke-width="1.5" stroke-linecap="round" stroke-linejoin="round"/>
<path d="M776.11 42.3018C775.15 44.5218 774.26 46.7718 773.44 49.0418C773.3 49.4418 773.16 49.9018 773.38 50.2718C773.56 50.5718 773.91 50.7018 774.24 50.8118C775.2 51.1318 776.15 51.4518 777.11 51.7718C777.7 51.9718 778.36 52.1618 778.91 51.8718C779.33 51.6518 779.57 51.2118 779.79 50.7918C780.6 49.2018 781.36 47.5818 782.06 45.9418C779.88 44.5318 778.53 43.2618 776.11 42.3018Z" fill="#003D29"/>
<path d="M780.36 52.3617C782.02 53.8617 783.02 56.1117 782.82 58.3417C782.54 61.5317 779.79 64.2017 776.65 64.8317C773.51 65.4617 770.17 64.2617 767.8 62.1117C766.68 61.1017 765.71 59.8317 765.41 58.3417C763.63 49.5117 775.31 47.7817 780.36 52.3517V52.3617Z" fill="#AA7622"/>
<path d="M777.89 51.8617C776.97 52.5817 775.39 57.2317 775.96 58.2517C775.84 58.0217 776.08 57.1617 775.94 56.7817C775.72 56.1917 775.32 55.8317 774.77 55.5817C773.6 55.0517 772.04 55.5017 771.45 56.6817C771.5 57.0317 771.99 57.1617 772.31 56.9917C772.62 56.8217 772.79 56.4717 772.93 56.1517C773.7 54.3517 774.26 52.4717 774.62 50.5417" stroke="#724107" stroke-width="1.5" stroke-linecap="round" stroke-linejoin="round"/>
<path d="M767.44 56.5117C767.69 57.4917 768.12 58.4317 768.7 59.2517" stroke="#F7F2EB" stroke-width="1.5" stroke-linecap="round" stroke-linejoin="round"/>
<path d="M770.7 61.7717C771.03 61.9417 771.37 62.1117 771.7 62.2717" stroke="#F7F2EB" stroke-width="1.5" stroke-linecap="round" stroke-linejoin="round"/>
<path d="M808.2 31.9119C806.28 30.4519 804.4 28.9219 802.58 27.3319C802.26 27.0519 801.92 26.7119 801.93 26.2919C801.93 25.9419 802.19 25.6619 802.42 25.4019C803.1 24.6519 803.78 23.9119 804.46 23.1619C804.88 22.7019 805.36 22.2119 805.98 22.1919C806.45 22.1819 806.88 22.4419 807.27 22.7019C808.76 23.6919 810.21 24.7319 811.62 25.8219C810.4 28.1119 809.84 29.8819 808.21 31.9019L808.2 31.9119Z" fill="#003D29"/>
<path d="M807 21.0519C807.71 18.9319 807.491 16.4819 806.231 14.6319C804.431 11.9819 800.721 10.9919 797.671 11.9819C794.621 12.9619 792.301 15.6419 791.271 18.6719C790.781 20.1019 790.56 21.6819 791.03 23.1219C793.79 31.6919 804.83 27.5119 807 21.0519Z" fill="#85C5B9"/>
<path d="M805.091 22.6918C803.931 22.5118 800.291 19.2218 800.281 18.0518C800.281 18.3118 800.911 18.9418 800.971 19.3418C801.071 19.9618 800.891 20.4718 800.531 20.9618C799.771 22.0018 798.181 22.3618 797.101 21.6218C796.981 21.2918 797.341 20.9418 797.701 20.9318C798.061 20.9318 798.371 21.1518 798.651 21.3718C800.201 22.5718 801.611 23.9318 802.871 25.4318" stroke="#38846E" stroke-width="2" stroke-linecap="round" stroke-linejoin="round"/>
<path d="M795.8 15.4518C796.61 14.3218 798.13 13.9018 799.51 14.0518C800.89 14.2018 802.16 14.8318 803.4 15.4418" stroke="#F7F2EB" stroke-width="1.5" stroke-linecap="round" stroke-linejoin="round"/>
</svg>
