<svg width="292" height="239" viewBox="0 0 292 239" fill="none" xmlns="http://www.w3.org/2000/svg">
<g clip-path="url(#clip0_3078_312420)">
<path d="M138.514 200.493H112.301V234.772H138.514V200.493Z" fill="white"/>
<path d="M138.501 235.934H112.288C111.647 235.934 111.126 235.413 111.126 234.772V200.493C111.126 199.852 111.647 199.331 112.288 199.331H138.501C139.142 199.331 139.663 199.852 139.663 200.493V234.772C139.663 235.413 139.142 235.934 138.501 235.934ZM113.45 233.611H137.34V201.655H113.45V233.611Z" fill="black"/>
<path d="M164.142 235.934H86.5026C85.8616 235.934 85.3408 235.413 85.3408 234.772C85.3408 234.131 85.8616 233.61 86.5026 233.61H164.142C164.783 233.61 165.304 234.131 165.304 234.772C165.304 235.413 164.783 235.934 164.142 235.934Z" fill="black"/>
<path d="M216.809 71.4415H33.9951V203.404H216.809V71.4415Z" fill="white"/>
<path d="M216.809 204.566H33.9948C33.3538 204.566 32.833 204.045 32.833 203.404V71.4415C32.833 70.8005 33.3538 70.2797 33.9948 70.2797H216.809C217.45 70.2797 217.97 70.8005 217.97 71.4415V203.404C217.97 204.045 217.45 204.566 216.809 204.566ZM35.1566 202.242H215.647V72.6033H35.1566V202.242Z" fill="black"/>
<path d="M216.727 186.699H33.9131V203.404H216.727V186.699Z" fill="white"/>
<path d="M216.729 204.566H33.9147C33.2737 204.566 32.7529 204.045 32.7529 203.404V186.698C32.7529 186.057 33.2737 185.537 33.9147 185.537H216.729C217.37 185.537 217.89 186.057 217.89 186.698V203.404C217.89 204.045 217.37 204.566 216.729 204.566ZM35.0765 202.242H215.567V187.86H35.0765V202.242Z" fill="black"/>
<g opacity="0.13">
<path d="M138.513 204.646H112.3V210.068H138.513V204.646Z" fill="black"/>
</g>
<path d="M147.783 98.7765H121.73C121.089 98.7765 120.568 98.2557 120.568 97.6147C120.568 96.9737 121.089 96.4529 121.73 96.4529H147.783C148.424 96.4529 148.945 96.9737 148.945 97.6147C148.945 98.2557 148.424 98.7765 147.783 98.7765Z" fill="black"/>
<path d="M98.3457 148.853H52.3551C51.7142 148.853 51.1934 148.333 51.1934 147.692C51.1934 147.051 51.7142 146.53 52.3551 146.53H98.3457C98.9867 146.53 99.5075 147.051 99.5075 147.692C99.5075 148.333 98.9867 148.853 98.3457 148.853Z" fill="black"/>
<path d="M98.3457 166.347H52.3551C51.7142 166.347 51.1934 165.826 51.1934 165.185C51.1934 164.544 51.7142 164.023 52.3551 164.023H98.3457C98.9867 164.023 99.5075 164.544 99.5075 165.185C99.5075 165.826 98.9867 166.347 98.3457 166.347Z" fill="black"/>
<path d="M105.024 90.2969H52.3564V129.798H105.024V90.2969Z" fill="white"/>
<path d="M105.025 130.959H52.3571C51.7161 130.959 51.1953 130.438 51.1953 129.797V90.2969C51.1953 89.6559 51.7161 89.1351 52.3571 89.1351H105.025C105.666 89.1351 106.186 89.6559 106.186 90.2969V129.797C106.186 130.438 105.666 130.959 105.025 130.959ZM53.5189 128.636H103.863V91.4586H53.5189V128.636Z" fill="black"/>
<path d="M208.999 214.998C208.999 213.753 210.009 212.736 211.261 212.736C212.514 212.736 213.524 213.745 213.524 214.998C213.524 216.251 212.514 217.26 211.261 217.26C210.009 217.26 208.999 216.251 208.999 214.998Z" fill="white"/>
<path d="M211.261 217.632C209.804 217.632 208.627 216.448 208.627 214.998C208.627 213.548 209.811 212.363 211.261 212.363C212.711 212.363 213.896 213.548 213.896 214.998C213.896 216.448 212.711 217.632 211.261 217.632ZM211.261 213.115C210.221 213.115 209.379 213.958 209.379 214.998C209.379 216.038 210.221 216.881 211.261 216.881C212.302 216.881 213.144 216.038 213.144 214.998C213.144 213.958 212.302 213.115 211.261 213.115Z" fill="black"/>
</g>
<path d="M177.396 183.767C174.187 187.557 168.275 187.455 164.027 186.164C151.926 182.448 142.691 170.33 141.041 155.992C139.722 144.361 143.057 131.305 150.702 118.234C153.72 113.093 158.022 106.781 164.66 103.443C170.215 100.669 178.933 100.209 186.739 107.305C187.05 107.568 187.127 108.022 186.946 108.379C186.78 108.748 186.363 108.953 185.977 108.893C178.143 107.65 169.827 111.849 166.192 118.895C162.534 125.996 163.255 135.323 168.345 146.602C169.375 148.883 170.513 151.181 171.617 153.403C174.898 159.994 178.292 166.825 179.277 174.264C179.79 178.073 179.321 180.978 177.84 183.099C177.675 183.323 177.521 183.533 177.342 183.745L177.396 183.767ZM157.48 111.664C155.397 114.124 153.71 116.775 152.306 119.179C144.867 131.892 141.604 144.547 142.891 155.786C144.44 169.383 153.151 180.887 164.563 184.384C168.759 185.68 174.037 185.439 176.361 182.065C177.558 180.335 177.931 177.859 177.483 174.518C176.536 167.378 173.208 160.7 169.99 154.235C168.871 152.001 167.732 149.676 166.687 147.383C161.355 135.559 160.643 125.706 164.571 118.057C168.093 111.231 175.604 106.835 183.229 106.833C176.755 102.322 169.975 102.845 165.494 105.096C162.3 106.689 159.657 109.064 157.466 111.652L157.48 111.664Z" fill="black"/>
<path d="M229.516 106.623C211.569 93.6105 201.11 96.6998 189.352 109.954C176.897 124.003 170.609 136.015 209.79 175.046C221.04 186.248 234.142 196.639 245.526 207.882C260.71 190.754 275.324 174.042 289.414 158.148C270.922 139.357 250.888 122.1 229.528 106.609L229.516 106.623ZM211.251 123.231C210.538 126.196 208.328 128.719 205.638 130.204C204.682 130.73 203.637 131.133 202.576 131.181C201.582 131.237 200.588 130.978 199.687 130.579C196.859 129.302 194.897 126.402 194.703 123.275C194.51 120.149 196.09 116.85 198.709 114.989C202.284 112.432 206.221 113.459 208.629 115.231C210.995 116.968 211.941 120.294 211.228 123.259L211.251 123.231Z" fill="white"/>
<path d="M290.11 158.761L290.098 158.775C283.173 166.58 276.263 174.424 268.947 182.748C261.569 191.117 253.939 199.782 246.222 208.495C246.054 208.693 245.813 208.804 245.564 208.812C245.315 208.82 245.057 208.723 244.885 208.553C239.316 203.059 233.242 197.673 227.34 192.457C221.224 187.035 214.884 181.447 209.15 175.717C169.969 136.686 175.606 124.123 188.686 109.365C199.855 96.7775 210.67 91.8049 230.087 105.892C251.35 121.325 271.552 138.7 290.086 157.527C290.43 157.867 290.435 158.405 290.124 158.773L290.11 158.761ZM245.468 206.546C252.971 198.088 260.371 189.665 267.557 181.522C274.67 173.438 281.411 165.793 288.143 158.188C269.832 139.671 249.929 122.574 228.986 107.364C210.62 94.0441 200.796 98.448 190.047 110.567C184.144 117.223 179.394 123.52 181.125 132.973C182.997 143.178 192.319 156.341 210.434 174.401C216.152 180.093 222.452 185.671 228.552 191.055C234.213 196.067 240.058 201.236 245.48 206.531L245.468 206.546ZM209.767 127.995C208.761 129.183 207.493 130.221 206.073 131.009C204.827 131.678 203.7 132.035 202.627 132.097C201.554 132.16 200.443 131.923 199.323 131.412C196.181 129.989 194.011 126.817 193.799 123.311C193.578 119.845 195.319 116.269 198.199 114.216C202.183 111.375 206.622 112.584 209.198 114.474C211.802 116.388 212.995 119.997 212.152 123.458C211.762 125.095 210.931 126.649 209.781 128.007L209.767 127.995ZM197.742 117.107C196.305 118.804 195.492 121.054 195.63 123.185C195.811 126.01 197.549 128.574 200.076 129.719C200.937 130.108 201.754 130.29 202.525 130.239C203.323 130.186 204.193 129.903 205.201 129.373C207.817 127.946 209.737 125.565 210.352 123.003C211.01 120.306 210.072 117.399 208.097 115.946C205.913 114.339 202.447 113.443 199.257 115.719C198.699 116.121 198.199 116.596 197.756 117.119L197.742 117.107Z" fill="black"/>
<path d="M247.268 177.209C247.16 177.336 247.024 177.44 246.858 177.493C246.384 177.65 245.85 177.392 245.705 176.905L231.985 135.131C231.828 134.657 232.086 134.123 232.573 133.978C233.047 133.82 233.581 134.078 233.727 134.566L247.446 176.34C247.55 176.647 247.474 176.995 247.282 177.221L247.268 177.209Z" fill="black"/>
<path d="M229.922 157.494C229.06 158.512 227.928 159.132 226.625 159.266C224.827 159.468 222.767 158.719 221.134 157.263C219.928 156.193 216.107 152.448 217.453 149.338C218.424 147.102 220.036 146.403 221.217 146.213C224.098 145.764 227.435 147.788 228.784 149.319C229.845 150.533 232.673 153.729 230.196 157.143C230.1 157.256 230.004 157.369 229.908 157.482L229.922 157.494ZM219.804 148.999C219.553 149.296 219.346 149.655 219.158 150.078C218.517 151.551 220.317 154.071 222.362 155.899C223.611 157.005 225.132 157.589 226.421 157.443C227.333 157.341 228.11 156.882 228.7 156.07C230.103 154.127 228.91 152.267 227.387 150.539C226.43 149.462 223.654 147.694 221.499 148.03C220.81 148.127 220.245 148.45 219.79 148.987L219.804 148.999Z" fill="black"/>
<path d="M261.133 162.701C260.271 163.72 259.139 164.339 257.836 164.474C256.038 164.675 253.978 163.926 252.345 162.471C251.139 161.401 247.318 157.655 248.664 154.546C249.635 152.309 251.247 151.61 252.428 151.42C255.309 150.971 258.645 152.995 259.995 154.526C261.056 155.74 263.884 158.937 261.407 162.35C261.311 162.463 261.215 162.576 261.119 162.69L261.133 162.701ZM251.015 154.206C250.764 154.503 250.557 154.862 250.369 155.285C249.728 156.758 251.528 159.278 253.573 161.107C254.822 162.213 256.342 162.796 257.632 162.65C258.544 162.548 259.321 162.089 259.911 161.278C261.314 159.334 260.121 157.474 258.598 155.747C257.64 154.669 254.864 152.901 252.71 153.237C252.021 153.334 251.456 153.657 251.001 154.194L251.015 154.206Z" fill="black"/>
<path d="M182.697 102.789C180.96 103.722 180.055 105.966 180.657 107.836C180.993 108.873 181.721 109.732 182.46 110.552C185.733 114.198 189.509 117.396 193.621 120.052C194.968 120.926 196.39 121.742 197.954 122.046C199.529 122.336 201.304 122.018 202.418 120.874C202.746 120.544 203.013 120.114 203.054 119.664C203.088 119.28 202.963 118.883 202.829 118.526C201.914 116.222 200.169 114.355 198.442 112.553C193.99 107.86 189.056 102.906 182.685 102.803L182.697 102.789Z" fill="#EDA51E"/>
<path d="M203.271 121.329C203.271 121.329 203.164 121.456 203.104 121.527C201.881 122.799 199.837 123.349 197.807 122.966C196.004 122.629 194.441 121.693 193.121 120.843C188.927 118.141 185.107 114.882 181.776 111.187C180.993 110.306 180.192 109.36 179.789 108.144C179.045 105.84 180.122 103.134 182.25 101.998C182.388 101.921 182.543 101.882 182.702 101.895C189.707 102.024 194.921 107.507 199.113 111.932C200.784 113.687 202.673 115.699 203.683 118.205C203.864 118.651 204.026 119.176 203.984 119.771C203.937 120.314 203.693 120.86 203.274 121.355L203.271 121.329ZM182.222 104.354C181.491 105.216 181.175 106.478 181.542 107.565C181.824 108.436 182.494 109.222 183.146 109.943C186.375 113.528 190.067 116.679 194.123 119.288C195.289 120.032 196.661 120.878 198.129 121.151C199.264 121.359 200.805 121.231 201.762 120.245C201.991 120.002 202.131 119.78 202.142 119.595C202.165 119.396 202.062 119.116 201.965 118.887C201.087 116.712 199.415 114.931 197.772 113.2C192.989 108.154 188.552 103.96 182.92 103.73C182.657 103.897 182.425 104.113 182.222 104.354Z" fill="black"/>
<path d="M283.95 159.955C283.95 159.955 283.95 159.955 283.938 159.969C283.831 160.096 283.62 160.087 283.504 159.966L275.864 152.33C275.736 152.222 275.745 152.011 275.867 151.896C275.975 151.768 276.186 151.777 276.301 151.899L283.942 159.535C284.069 159.643 284.058 159.828 283.962 159.941L283.95 159.955Z" fill="black"/>
<path d="M280.609 162.467C280.501 162.594 280.304 162.598 280.177 162.49L276.73 159.45C276.602 159.342 276.585 159.133 276.707 159.018C276.815 158.89 277.012 158.887 277.139 158.995L280.586 162.035C280.713 162.143 280.716 162.34 280.609 162.467Z" fill="black"/>
<path d="M245.65 201.311C245.542 201.439 245.359 201.454 245.22 201.36C241.813 198.645 238.46 195.781 235.295 192.809C235.168 192.702 235.15 192.493 235.272 192.377C235.38 192.25 235.577 192.247 235.704 192.355C238.881 195.312 242.209 198.178 245.601 200.882C245.728 200.989 245.758 201.184 245.65 201.311Z" fill="black"/>
<g opacity="0.13">
<path d="M201.04 115.19C199.817 115.029 198.897 116.459 199.408 117.547C199.46 117.688 199.484 117.83 199.505 117.921C199.518 118.077 199.533 118.26 199.53 118.379C199.486 118.487 199.429 118.584 199.373 118.707C199.361 118.721 199.349 118.735 199.337 118.75C199.189 118.867 199.053 118.97 198.877 119.064C198.725 119.129 198.57 119.168 198.403 119.221C198.247 119.234 198.076 119.236 197.919 119.248C197.813 119.231 197.72 119.226 197.614 119.208C197.173 119.126 196.693 119.206 196.321 119.473C195.019 120.265 195.448 122.425 196.953 122.655C200.537 123.383 202.801 120.881 202.77 119.083C202.933 117.715 202.866 115.328 201.055 115.202L201.04 115.19Z" fill="black"/>
</g>
<g opacity="0.13">
<path d="M285.338 156.54C284.338 157.635 283.366 158.755 282.264 159.74C271.234 169.726 261.804 181.263 252.255 192.625C250.217 195.002 248.319 197.474 246.194 199.754C245.639 200.352 245.084 200.95 244.472 201.5C244.102 201.794 243.689 202.052 243.461 202.465C242.093 204.366 244.532 206.82 246.474 205.502C249.53 203.04 251.925 199.896 254.409 196.877C257.963 192.651 261.39 188.317 264.932 184.106C271.491 176.16 278.813 168.861 286.17 161.664C287.79 159.952 289.639 158.944 288.77 157.018C288.225 155.683 286.232 155.427 285.324 156.528L285.338 156.54Z" fill="black"/>
</g>
<path d="M198.03 211.201C199.029 211.161 198.253 218.287 198.253 218.287C198.253 218.287 204.722 220.143 204.889 221.306C205.064 222.542 198.077 223.856 198.077 223.856C198.077 223.856 197.972 231.289 197.1 231.399C195.794 231.572 192.699 225.601 192.699 225.601C192.699 225.601 186.25 227.804 185.584 227.136C185.241 226.798 189.888 221.047 189.888 221.047C189.888 221.047 185.67 215.737 186.32 214.994C186.926 214.305 193.147 216.737 193.147 216.737C193.147 216.737 196.732 211.259 198.041 211.205L198.03 211.201Z" fill="#EDA51E"/>
<path d="M196.687 231.879C195.328 231.376 193.542 228.384 192.426 226.273C188.213 227.688 185.774 228.108 185.192 227.53C184.825 227.16 184.505 226.854 189.185 221.044C184.982 215.694 185.654 214.923 185.903 214.629C186.109 214.389 186.734 213.683 192.929 216.059C194.168 214.198 196.67 210.698 198.013 210.644C198.239 210.634 198.452 210.725 198.609 210.9C199.338 211.685 199.1 215.427 198.846 217.886C201.854 218.777 205.263 220.039 205.433 221.226C205.601 222.354 203.308 223.391 198.625 224.304C198.488 231.761 197.611 231.882 197.179 231.944C197.032 231.96 196.862 231.944 196.697 231.883L196.687 231.879ZM192.875 225.092C192.999 225.138 193.107 225.225 193.166 225.352C194.548 228.007 196.196 230.421 196.896 230.809C197.233 229.962 197.48 226.668 197.517 223.848C197.519 223.59 197.696 223.363 197.959 223.32C201.004 222.749 203.813 221.868 204.285 221.352C203.791 220.759 200.761 219.579 198.082 218.81C197.827 218.739 197.662 218.49 197.692 218.22C197.97 215.665 198.082 212.673 197.85 211.814C197.096 212.237 195.246 214.48 193.578 217.025C193.439 217.243 193.161 217.328 192.924 217.24C190.55 216.314 187.695 215.421 186.799 215.406C187.035 216.254 188.703 218.71 190.284 220.701C190.445 220.901 190.446 221.183 190.28 221.379C188.639 223.407 186.895 225.713 186.292 226.708C187.411 226.63 190.163 225.869 192.497 225.069C192.617 225.032 192.745 225.032 192.858 225.074L192.875 225.092Z" fill="black"/>
<path d="M98.1556 6.81504C99.6414 5.69367 106.05 17.2423 106.05 17.2423C106.05 17.2423 117.923 13.1435 119.414 14.7232C121.005 16.3914 111.731 25.8211 111.731 25.8211C111.731 25.8211 119.508 37.104 118.305 38.208C116.498 39.8551 105.391 34.1682 105.391 34.1682C105.391 34.1682 97.9074 44.351 96.1641 44.0647C95.2633 43.9196 96.2286 30.3245 96.2286 30.3245C96.2286 30.3245 84.1137 26.8401 84.3227 25.0215C84.5063 23.3246 96.6007 20.3553 96.6007 20.3553C96.6007 20.3553 96.225 8.28403 98.1556 6.81504Z" fill="white"/>
<path d="M118.153 39.3025C115.574 39.9848 109.623 37.3423 105.668 35.3602C100.734 41.9937 97.4879 45.2289 96.0059 44.9884C95.1409 44.8339 94.3033 44.7105 95.2581 31.0031C83.1195 27.4292 83.3322 25.5521 83.3955 24.922C83.4551 24.3504 83.6387 22.6535 95.6473 19.6495C95.5421 15.5565 95.6177 7.58247 97.602 6.09926C97.9044 5.86592 98.3033 5.77959 98.7089 5.86395C100.697 6.27733 104.569 12.728 106.507 16.1442C111.223 14.5519 118.524 12.4479 120.111 14.0982C121.543 15.5978 119.125 19.5724 112.951 25.9396C120.71 37.3036 119.476 38.435 118.952 38.9185C118.753 39.1055 118.498 39.2303 118.176 39.3156L118.153 39.3025ZM105.146 33.3134C105.361 33.2565 105.595 33.2713 105.799 33.3899C110.917 36.0033 116.147 37.8781 117.479 37.6218C117.188 36.0886 113.992 30.7434 110.957 26.3713C110.709 26.0151 110.734 25.5294 111.049 25.197C115.22 20.9694 118.612 16.5456 118.658 15.345C117.61 14.9323 112.036 16.1768 106.328 18.1467C105.907 18.2962 105.438 18.1139 105.221 17.7303C102.844 13.4526 99.7273 8.69952 98.4973 7.8174C97.7464 9.10853 97.2903 14.5574 97.4863 20.3705C97.5057 20.8062 97.2233 21.1876 96.8113 21.2966C92.0586 22.4579 86.6304 24.1813 85.3716 25.1468C86.5225 26.1648 91.7989 28.1424 96.469 29.4945C96.8842 29.6147 97.1638 30.0199 97.1427 30.4471C96.7962 35.3687 96.5788 40.8503 96.7549 42.8929C98.3388 41.7072 101.846 37.5021 104.652 33.6931C104.78 33.5251 104.958 33.4013 105.155 33.3492L105.146 33.3134Z" fill="black"/>
<path d="M42.1962 31.9307C43.2668 32.0371 41.5392 39.3491 41.5392 39.3491C41.5392 39.3491 48.2358 42.2863 48.2688 43.5259C48.305 44.8446 40.6515 45.1259 40.6515 45.1259C40.6515 45.1259 39.6065 52.8578 38.6538 52.8468C37.228 52.8244 34.6654 46.1185 34.6654 46.1185C34.6654 46.1185 27.4784 47.4126 26.8407 46.5998C26.5099 46.1869 32.2233 40.9165 32.2233 40.9165C32.2233 40.9165 28.3729 34.7276 29.163 34.0465C29.8967 33.412 36.2623 36.9258 36.2623 36.9258C36.2623 36.9258 40.7998 31.7697 42.2027 31.9188L42.1962 31.9307Z" fill="white"/>
<path d="M26.574 47.2577C26.4193 47.1731 26.3437 47.0853 26.2972 47.0289C25.8973 46.5163 25.5892 46.1467 31.3351 40.8168C27.5107 34.5802 28.3388 33.8581 28.7019 33.562C29.0216 33.2885 29.7553 32.6539 36.0929 36.106C37.6823 34.3315 40.7817 31.1255 42.2572 31.2833C42.5235 31.3053 42.755 31.4474 42.9225 31.6783C43.6033 32.6383 42.8914 36.4548 42.3121 38.983C46.6834 40.9418 48.9095 42.469 48.9427 43.5387C48.9551 44.0248 48.9933 45.4528 41.2401 45.8033C40.1452 53.5697 39.1688 53.5457 38.6469 53.5385C37.1118 53.5181 35.3089 49.5783 34.2428 46.892C28.7439 47.8419 27.1333 47.5637 26.5978 47.2707L26.574 47.2577ZM34.9731 45.5288C35.104 45.6005 35.2208 45.7262 35.2758 45.88C36.3721 48.7374 37.7782 51.4241 38.4832 52.0573C38.9435 51.103 39.58 47.8484 39.9506 45.0513C39.9933 44.719 40.2631 44.4801 40.5977 44.4622C43.7223 44.3471 46.7131 43.9115 47.4758 43.4783C46.8413 42.7446 43.8716 41.1352 41.2315 39.969C40.9328 39.8365 40.7687 39.5148 40.847 39.202C41.4501 36.6868 41.9249 33.6993 41.8288 32.688C40.9275 33.0917 38.7532 35.0874 36.7192 37.3919C36.5099 37.633 36.1677 37.6932 35.8821 37.537C35.8226 37.5044 35.7988 37.4914 35.7512 37.4653C33.4663 36.2152 30.7689 34.9558 29.7159 34.7044C29.9809 35.7462 31.3881 38.4026 32.7342 40.5772C32.906 40.8568 32.8503 41.2129 32.6237 41.4291C30.7572 43.1448 28.6781 45.1926 27.815 46.2048C29.1 46.2585 31.9965 45.9104 34.4958 45.4687C34.6485 45.4439 34.8054 45.468 34.9363 45.5396L34.9731 45.5288Z" fill="black"/>
<path d="M130.261 25.9999C130.261 24.3798 131.575 23.0561 133.205 23.0561C134.835 23.0561 136.148 24.37 136.148 25.9999C136.148 27.6299 134.835 28.9438 133.205 28.9438C131.575 28.9438 130.261 27.6299 130.261 25.9999Z" fill="white"/>
<path d="M133.195 29.4277C131.298 29.4277 129.767 27.8866 129.767 25.9998C129.767 24.1129 131.308 22.5718 133.195 22.5718C135.081 22.5718 136.622 24.1129 136.622 25.9998C136.622 27.8866 135.081 29.4277 133.195 29.4277ZM133.195 23.5498C131.841 23.5498 130.745 24.6464 130.745 25.9998C130.745 27.3531 131.841 28.4497 133.195 28.4497C134.548 28.4497 135.644 27.3531 135.644 25.9998C135.644 24.6464 134.548 23.5498 133.195 23.5498Z" fill="black"/>
<path d="M15.668 102.461C15.668 100.752 17.0538 99.3558 18.773 99.3558C20.4923 99.3558 21.8781 100.742 21.8781 102.461C21.8781 104.18 20.4923 105.566 18.773 105.566C17.0538 105.566 15.668 104.18 15.668 102.461Z" fill="white"/>
<path d="M18.7631 106.076C16.7625 106.076 15.1475 104.451 15.1475 102.461C15.1475 100.471 16.7729 98.8451 18.7631 98.8451C20.7533 98.8451 22.3787 100.471 22.3787 102.461C22.3787 104.451 20.7533 106.076 18.7631 106.076ZM18.7631 99.8766C17.3356 99.8766 16.179 101.033 16.179 102.461C16.179 103.888 17.3356 105.045 18.7631 105.045C20.1906 105.045 21.3472 103.888 21.3472 102.461C21.3472 101.033 20.1906 99.8766 18.7631 99.8766Z" fill="black"/>
<path d="M6.94998 112.967C7.43955 112.424 10.7714 116.474 10.7714 116.474C10.7714 116.474 15.05 114.038 15.7436 114.545C16.4797 115.086 13.595 119.413 13.595 119.413C13.595 119.413 17.4306 123.268 17.0423 123.781C16.4652 124.552 11.7586 123.119 11.7586 123.119C11.7586 123.119 9.61422 127.62 8.924 127.627C8.57163 127.634 7.93833 122.261 7.93833 122.261C7.93833 122.261 3.00358 121.754 2.94702 121.034C2.89657 120.364 7.34938 118.353 7.34938 118.353C7.34938 118.353 6.3167 113.676 6.95724 112.964L6.94998 112.967Z" fill="#EDA51E"/>
<path d="M17.0835 124.242C16.1249 124.696 13.6469 124.101 11.9718 123.605C10.5581 126.533 9.53077 128.024 8.93036 128.033C8.54932 128.036 8.22561 128.047 7.57894 122.628C2.63043 122.091 2.57081 121.346 2.54444 121.065C2.52418 120.834 2.47411 120.147 6.88412 118.12C6.54435 116.521 5.99209 113.422 6.65098 112.692C6.76143 112.568 6.91735 112.503 7.08972 112.51C7.87281 112.531 9.70921 114.568 10.8657 115.958C12.8699 114.84 15.2734 113.702 15.9812 114.22C16.6573 114.709 16.0275 116.438 14.1108 119.356C17.9422 123.24 17.5574 123.76 17.3686 124.018C17.3021 124.103 17.2069 124.184 17.0907 124.239L17.0835 124.242ZM11.5835 122.767C11.6706 122.725 11.7715 122.713 11.8678 122.748C13.9641 123.382 16.0695 123.753 16.6302 123.586C16.3592 122.976 14.7625 121.163 13.3056 119.702C13.1718 119.569 13.1439 119.36 13.2551 119.201C14.5136 117.316 15.489 115.395 15.4603 114.885C14.897 114.84 12.7304 115.822 10.9586 116.83C10.7912 116.927 10.5764 116.887 10.4503 116.733C9.25556 115.281 7.74746 113.692 7.17915 113.375C7.0152 113.986 7.24337 116.101 7.72187 118.274C7.76467 118.459 7.66722 118.647 7.5002 118.726C5.80178 119.495 3.87482 120.532 3.40856 120.993C3.97342 121.304 6.11097 121.687 7.9615 121.877C8.14801 121.896 8.29592 122.039 8.3135 122.226C8.53555 124.122 8.85048 126.213 9.06297 127.037C9.59382 126.412 10.6032 124.582 11.3782 122.953C11.4195 122.871 11.4856 122.804 11.5655 122.766L11.5835 122.767Z" fill="black"/>
<path d="M212.634 53.7303C213.785 52.6291 220.359 62.5624 220.359 62.5624C220.359 62.5624 230.121 58.1348 231.543 59.4355C233.067 60.8326 226.01 69.8631 226.01 69.8631C226.01 69.8631 233.715 79.4689 232.772 80.5448C231.381 82.1332 221.361 77.7689 221.361 77.7689C221.361 77.7689 215.91 87.3664 214.389 87.2184C213.609 87.135 213.171 74.9076 213.171 74.9076C213.171 74.9076 202.501 72.5631 202.492 70.9325C202.492 69.4156 212.557 65.9615 212.557 65.9615C212.557 65.9615 211.112 55.1835 212.64 53.7451L212.634 53.7303Z" fill="#EDA51E"/>
<path d="M232.731 81.4429C230.581 82.2236 225.264 80.2528 221.694 78.7314C218.098 84.9883 215.607 88.093 214.31 87.9638C213.57 87.8992 212.874 87.8185 212.404 75.5027C211.456 75.28 209.52 74.8157 207.597 74.2471C202.705 72.8053 201.694 71.8556 201.698 70.9037C201.693 70.1553 202.116 69.2519 207.215 67.1339C208.994 66.3878 210.791 65.7354 211.69 65.4092C211.237 61.7728 210.556 54.618 212.089 53.1448C212.326 52.9253 212.65 52.8077 212.998 52.8481C214.718 53.0404 218.678 58.6212 220.639 61.5435C224.514 59.8198 230.574 57.4533 232.072 58.8264C233.704 60.3347 230.307 65.5355 227.01 69.8165C234.702 79.4772 233.773 80.5478 233.374 81.0095C233.22 81.1821 233.006 81.3266 232.741 81.4228L232.731 81.4429ZM221.089 77.0174C221.266 76.9533 221.484 76.9574 221.665 77.0418C226.278 79.0511 230.919 80.4004 232.036 80.0783C231.688 78.754 228.428 74.1362 225.398 70.3351C225.177 70.0485 225.167 69.6522 225.397 69.3685C228.652 65.2026 231.177 60.9519 230.987 59.9705C230.125 59.6166 225.44 61.0841 220.689 63.2424C220.346 63.4002 219.922 63.2875 219.72 62.9608C217.308 59.3019 214.201 55.2451 213.046 54.4975C212.534 55.7503 212.644 60.645 213.336 65.8117C213.386 66.1772 213.162 66.5252 212.809 66.6535C208.79 68.029 204.232 69.984 203.368 70.8644C204.302 71.6923 209.119 73.1608 213.343 74.0948C213.687 74.17 213.948 74.4753 213.957 74.8221C214.126 79.3285 214.451 84.3117 214.79 86.0724C216.019 84.9096 218.654 80.9187 220.695 77.3104C220.785 77.1445 220.94 77.0214 221.102 76.9625L221.089 77.0174Z" fill="black"/>
<path d="M196.604 42.1879C196.604 40.4539 198.01 39.037 199.754 39.037C201.499 39.037 202.905 40.4433 202.905 42.1879C202.905 43.9325 201.499 45.3388 199.754 45.3388C198.01 45.3388 196.604 43.9325 196.604 42.1879Z" fill="white"/>
<path d="M199.753 45.8567C197.723 45.8567 196.084 44.2072 196.084 42.1877C196.084 40.1682 197.733 38.5187 199.753 38.5187C201.772 38.5187 203.422 40.1682 203.422 42.1877C203.422 44.2072 201.772 45.8567 199.753 45.8567ZM199.753 39.5655C198.304 39.5655 197.131 40.7392 197.131 42.1877C197.131 43.6363 198.304 44.8099 199.753 44.8099C201.202 44.8099 202.375 43.6363 202.375 42.1877C202.375 40.7392 201.202 39.5655 199.753 39.5655Z" fill="black"/>
<defs>
<clipPath id="clip0_3078_312420">
<rect width="223.77" height="165.654" fill="white" transform="translate(32.752 70.2795)"/>
</clipPath>
</defs>
</svg>
