<svg xmlns="http://www.w3.org/2000/svg" width="94" height="94" viewBox="0 0 94 94" fill="none">
  <g clip-path="url(#clip0_829_880)">
    <path opacity="0.1" fill-rule="evenodd" clip-rule="evenodd" d="M5.36749 77.6624C-0.678537 75.2711 -1.22353 66.8893 4.46144 63.7282L6.80832 62.4214L6.82194 71.2513C6.82194 71.6892 7.05697 72.0963 7.43506 72.3152L42.3317 92.2911L5.36749 77.6624Z" fill="black"/>
    <path fill-rule="evenodd" clip-rule="evenodd" d="M8.80095 25.6343L52.4618 0.540479C53.2452 0.0888932 54.2637 -0.126636 55.1459 0.0786299C56.3824 0.366003 57.5439 0.756009 57.5405 1.84392L57.6086 42.5619L53.7664 44.8404C55.0233 45.4528 93.3466 64.1696 93.4113 64.2175L93.5033 65.7878C93.5033 66.4652 93.1456 67.0912 92.5632 67.4299C86.0403 71.2205 47.8259 93.3893 47.8259 93.3893C46.5691 94.118 45.0192 94.118 43.7623 93.3893L7.44187 72.3255C7.06378 72.1066 6.82876 71.6995 6.82876 71.2616L6.76404 29.1683C6.76744 27.7109 7.54747 26.3664 8.80777 25.6446L8.80095 25.6343Z" fill="#C6C6C6"/>
    <path fill-rule="evenodd" clip-rule="evenodd" d="M8.0448 71.1144L57.6427 42.7193L57.7449 2.09022C57.7449 0.916777 56.4846 0.177818 55.4695 0.762827L9.73428 27.054C8.73967 27.6253 8.12314 28.6893 8.11974 29.8388L8.04821 71.1144H8.0448Z" fill="#666666"/>
    <path fill-rule="evenodd" clip-rule="evenodd" d="M55.7045 3.12341L10.2997 29.2743L10.2043 67.5223L55.7045 41.3132V3.12341Z" fill="white"/>
    <path fill-rule="evenodd" clip-rule="evenodd" d="M8.07544 71.1144L57.6461 42.4285L92.7028 62.7601C93.7145 63.3485 93.7145 64.8162 92.7028 65.4012L47.0664 91.8634C46.0718 92.4382 44.8489 92.4382 43.8543 91.8634L8.07544 71.1144Z" fill="#F4F4F4"/>
    <path fill-rule="evenodd" clip-rule="evenodd" d="M21.7922 71.9971C20.8044 72.5651 20.3105 72.849 19.3261 73.4203C18.3281 72.8524 17.8274 72.5719 16.8293 72.004C17.8171 71.4361 18.311 71.1521 19.2989 70.5808C20.2969 71.1487 20.7976 71.4292 21.7956 71.9971H21.7922Z" fill="#C6C6C6"/>
    <path fill-rule="evenodd" clip-rule="evenodd" d="M25.437 69.8966C24.4492 70.4645 23.9553 70.7484 22.9675 71.3197C21.9694 70.7553 21.4687 70.4713 20.4707 69.9034C21.4585 69.3355 21.9524 69.0481 22.9402 68.4802C23.9382 69.0447 24.4389 69.3287 25.437 69.8966Z" fill="#C6C6C6"/>
    <path fill-rule="evenodd" clip-rule="evenodd" d="M29.0815 67.796C28.0937 68.3639 27.5998 68.6478 26.612 69.2192C25.614 68.6547 25.1167 68.3707 24.1187 67.8028C25.1065 67.2349 25.6004 66.9475 26.5882 66.3796C27.5862 66.9441 28.0869 67.2281 29.0849 67.796H29.0815Z" fill="#C6C6C6"/>
    <path fill-rule="evenodd" clip-rule="evenodd" d="M32.7229 65.6988C31.735 66.2667 31.2411 66.5507 30.2533 67.122C29.2553 66.5575 28.7546 66.2736 27.7566 65.7057C28.7444 65.1377 29.2383 64.8538 30.2261 64.2825C31.2241 64.847 31.7248 65.1309 32.7229 65.6988Z" fill="#C6C6C6"/>
    <path fill-rule="evenodd" clip-rule="evenodd" d="M36.3674 63.5982C35.3796 64.1661 34.8857 64.4535 33.8979 65.0214C32.8999 64.4569 32.3991 64.173 31.4011 63.6051C32.3889 63.0372 32.8828 62.7532 33.8672 62.1819C34.8652 62.7464 35.366 63.0303 36.364 63.5982H36.3674Z" fill="#C6C6C6"/>
    <path fill-rule="evenodd" clip-rule="evenodd" d="M40.012 61.5012C39.0242 62.0691 38.5303 62.353 37.5425 62.9244C36.5445 62.3564 36.0438 62.0759 35.0458 61.508C36.0336 60.9401 36.5275 60.6562 37.5153 60.0848C38.5133 60.6527 39.014 60.9333 40.012 61.5012Z" fill="#C6C6C6"/>
    <path fill-rule="evenodd" clip-rule="evenodd" d="M43.6533 59.4006C42.6655 59.9685 42.1716 60.2524 41.1838 60.8238C40.1858 60.2559 39.6885 59.9753 38.6904 59.4074C39.6782 58.8395 40.1721 58.5556 41.1599 57.9843C42.158 58.5522 42.6587 58.8327 43.6567 59.4006H43.6533Z" fill="#C6C6C6"/>
    <path fill-rule="evenodd" clip-rule="evenodd" d="M47.2979 57.3C46.3101 57.8679 45.8162 58.1519 44.8284 58.7232C43.8304 58.1587 43.3331 57.8747 42.3351 57.3068C43.3229 56.7389 43.8168 56.455 44.8046 55.8837C45.8026 56.4481 46.3033 56.7321 47.3013 57.3H47.2979Z" fill="#C6C6C6"/>
    <path fill-rule="evenodd" clip-rule="evenodd" d="M50.9392 55.203C49.9514 55.7709 49.4575 56.0548 48.4697 56.6261C47.4716 56.0617 46.9743 55.7777 45.9763 55.2098C46.9641 54.6419 47.458 54.3579 48.4458 53.7866C49.4438 54.3511 49.9446 54.6351 50.9426 55.203H50.9392Z" fill="#C6C6C6"/>
    <path fill-rule="evenodd" clip-rule="evenodd" d="M54.5838 53.1024C53.596 53.6703 53.1021 53.9542 52.1177 54.5256C51.1197 53.9611 50.619 53.6771 49.621 53.1092C50.6088 52.5413 51.1027 52.2574 52.0905 51.686C53.0885 52.2505 53.5892 52.5345 54.5838 53.1024Z" fill="#C6C6C6"/>
    <path fill-rule="evenodd" clip-rule="evenodd" d="M58.2252 51.0052C57.2374 51.5731 56.7435 51.8571 55.7591 52.4284C54.7611 51.8605 54.2603 51.58 53.2623 51.012C54.2501 50.4441 54.744 50.1602 55.7318 49.5889C56.7299 50.1533 57.2272 50.4373 58.2252 51.0052Z" fill="#C6C6C6"/>
    <path fill-rule="evenodd" clip-rule="evenodd" d="M61.8698 48.9046C60.882 49.4725 60.3881 49.7565 59.4003 50.3278C58.4023 49.7599 57.9016 49.4794 56.9036 48.9115C57.8914 48.3436 58.3853 48.0596 59.3731 47.4883C60.3711 48.0562 60.8684 48.3367 61.8664 48.9046H61.8698Z" fill="#C6C6C6"/>
    <path fill-rule="evenodd" clip-rule="evenodd" d="M25.2972 73.9813C24.3094 74.5492 23.8155 74.8331 22.8277 75.4045C21.8297 74.8366 21.329 74.556 20.3309 73.9881C21.3187 73.4202 21.8126 73.1363 22.8004 72.5649C23.7985 73.1328 24.2992 73.4134 25.2972 73.9813Z" fill="#C6C6C6"/>
    <path fill-rule="evenodd" clip-rule="evenodd" d="M28.9384 71.8842C27.9506 72.4521 27.4567 72.7361 26.4689 73.3074C25.4709 72.7395 24.9736 72.459 23.9722 71.8911C24.96 71.3232 25.4539 71.0392 26.4417 70.4679C27.4397 71.0324 27.9404 71.3163 28.9384 71.8842Z" fill="#C6C6C6"/>
    <path fill-rule="evenodd" clip-rule="evenodd" d="M32.5831 69.7836C31.5953 70.3515 31.1014 70.6355 30.1136 71.2068C29.1156 70.6423 28.6148 70.3584 27.6168 69.7905C28.6046 69.2226 29.0985 68.9386 30.0863 68.3673C31.0843 68.9318 31.5851 69.2157 32.5831 69.7836Z" fill="#C6C6C6"/>
    <path fill-rule="evenodd" clip-rule="evenodd" d="M36.2277 67.6865C35.2399 68.2544 34.746 68.5383 33.7582 69.1097C32.7602 68.5418 32.2595 68.2612 31.2615 67.6933C32.2493 67.1254 32.7432 66.8415 33.731 66.2701C34.729 66.8346 35.2297 67.1186 36.2277 67.6865Z" fill="#C6C6C6"/>
    <path fill-rule="evenodd" clip-rule="evenodd" d="M39.8691 65.5859C38.8813 66.1538 38.3874 66.4377 37.3996 67.0091C36.4016 66.4412 35.9009 66.1606 34.9028 65.5927C35.8906 65.0248 36.3845 64.7409 37.3723 64.1696C38.3704 64.734 38.8711 65.018 39.8691 65.5859Z" fill="#C6C6C6"/>
    <path fill-rule="evenodd" clip-rule="evenodd" d="M43.5136 63.4854C42.5258 64.0533 42.0319 64.3373 41.0441 64.9086C40.0461 64.3407 39.5454 64.0602 38.5474 63.4923C39.5352 62.9244 40.0291 62.6404 41.0169 62.0691C42.0149 62.637 42.5156 62.9175 43.5136 63.4854Z" fill="#C6C6C6"/>
    <path fill-rule="evenodd" clip-rule="evenodd" d="M47.1549 61.3883C46.1671 61.9562 45.6732 62.2401 44.6888 62.8114C43.6907 62.247 43.19 61.963 42.192 61.3951C43.1798 60.8238 43.6737 60.5398 44.6615 59.9719C45.6595 60.5364 46.1603 60.8204 47.1549 61.3883Z" fill="#C6C6C6"/>
    <path fill-rule="evenodd" clip-rule="evenodd" d="M50.7995 59.2877C49.8117 59.8556 49.3178 60.1395 48.33 60.7109C47.332 60.1464 46.8313 59.8624 45.8333 59.2945C46.8211 58.7266 47.315 58.4427 48.3028 57.8713C49.3008 58.4358 49.8015 58.7198 50.7995 59.2877Z" fill="#C6C6C6"/>
    <path fill-rule="evenodd" clip-rule="evenodd" d="M54.4442 57.1905C53.4564 57.7584 52.9625 58.0424 51.9747 58.6137C50.9766 58.0492 50.4759 57.7653 49.4779 57.1974C50.4657 56.6294 50.9596 56.3455 51.9474 55.7742C52.9454 56.3421 53.4461 56.6226 54.4442 57.1905Z" fill="#C6C6C6"/>
    <path fill-rule="evenodd" clip-rule="evenodd" d="M58.0854 55.09C57.0976 55.6579 56.6037 55.9453 55.6159 56.5132C54.6179 55.9487 54.1172 55.6648 53.1191 55.0969C54.1069 54.529 54.6008 54.245 55.5886 53.6737C56.5867 54.2382 57.0874 54.5221 58.0854 55.09Z" fill="#C6C6C6"/>
    <path fill-rule="evenodd" clip-rule="evenodd" d="M61.7301 52.9895C60.7423 53.5574 60.2484 53.8413 59.2605 54.4126C58.2625 53.8482 57.7618 53.5642 56.7638 52.9963C57.7516 52.4284 58.2455 52.1444 59.2299 51.5731C60.2279 52.141 60.7286 52.4216 61.7266 52.9895H61.7301Z" fill="#C6C6C6"/>
    <path fill-rule="evenodd" clip-rule="evenodd" d="M65.3714 50.8923C63.716 51.8468 62.8883 52.3223 61.2328 53.2768C60.2348 52.7123 59.7341 52.4284 58.7361 51.8605C60.3915 50.906 61.2192 50.4304 62.8746 49.476C63.8727 50.0404 64.3734 50.3244 65.3714 50.8923Z" fill="#C6C6C6"/>
    <path fill-rule="evenodd" clip-rule="evenodd" d="M30.4304 75.0282C28.792 75.9724 27.9711 76.4445 26.3327 77.3887C25.3347 76.8242 24.834 76.5403 23.8359 75.9724C25.4743 75.0282 26.2952 74.556 27.9336 73.6118C28.9316 74.1797 29.4323 74.4603 30.4304 75.0282Z" fill="#C6C6C6"/>
    <path fill-rule="evenodd" clip-rule="evenodd" d="M32.4434 73.8719C31.4556 74.4398 30.9617 74.7238 29.9773 75.2951C28.9793 74.7306 28.4786 74.4467 27.4806 73.8787C28.4684 73.3108 28.9623 73.0269 29.9501 72.4556C30.9481 73.02 31.4488 73.304 32.4468 73.8719H32.4434Z" fill="#C6C6C6"/>
    <path fill-rule="evenodd" clip-rule="evenodd" d="M36.0847 71.7713C35.0969 72.3392 34.603 72.6232 33.6152 73.1945C32.6171 72.63 32.1164 72.3461 31.1184 71.7782C32.1062 71.2103 32.6001 70.9263 33.5879 70.355C34.5859 70.9195 35.0866 71.2034 36.0847 71.7713Z" fill="#C6C6C6"/>
    <path fill-rule="evenodd" clip-rule="evenodd" d="M39.7293 69.6707C38.7415 70.2386 38.2476 70.526 37.2598 71.0939C36.2618 70.5294 35.7645 70.2455 34.7665 69.6776C35.7543 69.1097 36.2482 68.8257 37.236 68.2544C38.234 68.8189 38.7347 69.1028 39.7327 69.6707H39.7293Z" fill="#C6C6C6"/>
    <path fill-rule="evenodd" clip-rule="evenodd" d="M43.3707 67.5736C42.3829 68.1415 41.889 68.4254 40.9012 68.9967C39.9032 68.4323 39.4024 68.1483 38.4044 67.5804C39.3922 67.0125 39.8861 66.7286 40.8739 66.1572C41.8719 66.7217 42.3727 67.0057 43.3707 67.5736Z" fill="#C6C6C6"/>
    <path fill-rule="evenodd" clip-rule="evenodd" d="M47.0153 65.4731C46.0275 66.041 45.5336 66.3284 44.5458 66.8963C43.5478 66.3318 43.0471 66.0478 42.0491 65.4799C43.0369 64.912 43.5308 64.6281 44.5186 64.0568C45.5166 64.6247 46.0173 64.9052 47.0153 65.4731Z" fill="#C6C6C6"/>
    <path fill-rule="evenodd" clip-rule="evenodd" d="M50.6599 63.3725C49.6721 63.9404 49.1782 64.2244 48.1904 64.7957C47.1923 64.2312 46.6916 63.9473 45.6936 63.3794C46.6814 62.8114 47.1753 62.5275 48.1631 61.9562C49.1611 62.5207 49.6618 62.8046 50.6599 63.3725Z" fill="#C6C6C6"/>
    <path fill-rule="evenodd" clip-rule="evenodd" d="M54.3011 61.2753C53.3133 61.8432 52.8194 62.1272 51.8316 62.6985C50.8336 62.134 50.3329 61.8501 49.3348 61.2822C50.3226 60.7143 50.8165 60.4303 51.8043 59.859C52.8024 60.4235 53.3031 60.7074 54.3011 61.2753Z" fill="#C6C6C6"/>
    <path fill-rule="evenodd" clip-rule="evenodd" d="M57.9458 59.1748C56.958 59.7427 56.4641 60.0266 55.4763 60.5979C54.4782 60.0335 53.9809 59.7495 52.9829 59.1816C53.9707 58.6137 54.4646 58.3297 55.4524 57.7584C56.4504 58.3229 56.9511 58.6069 57.9492 59.1748H57.9458Z" fill="#C6C6C6"/>
    <path fill-rule="evenodd" clip-rule="evenodd" d="M61.587 57.0777C60.5992 57.6456 60.1053 57.933 59.1175 58.5009C58.1195 57.933 57.6222 57.6525 56.6241 57.0846C57.6119 56.5167 58.1058 56.2327 59.0936 55.6614C60.0917 56.2293 60.5924 56.5098 61.5904 57.0777H61.587Z" fill="#C6C6C6"/>
    <path fill-rule="evenodd" clip-rule="evenodd" d="M65.2316 54.9771C64.2438 55.545 63.7499 55.829 62.7656 56.4003C61.7675 55.8324 61.2668 55.5519 60.2688 54.984C61.2566 54.4161 61.7505 54.1287 62.7349 53.5608C63.7329 54.1253 64.2336 54.4092 65.2316 54.9771Z" fill="#C6C6C6"/>
    <path fill-rule="evenodd" clip-rule="evenodd" d="M68.873 52.88C67.8852 53.4479 67.3913 53.7318 66.4035 54.3031C65.4055 53.7387 64.9048 53.4547 63.9067 52.8868C64.8945 52.3189 65.3884 52.0349 66.3762 51.4636C67.3743 52.0281 67.875 52.3121 68.873 52.88Z" fill="#C6C6C6"/>
    <path fill-rule="evenodd" clip-rule="evenodd" d="M32.3004 77.9566C31.3126 78.5245 30.8187 78.8085 29.8309 79.3798C28.8329 78.8153 28.3355 78.5314 27.3375 77.9635C28.3253 77.3956 28.8192 77.1116 29.8036 76.5403C30.8016 77.1048 31.3024 77.3887 32.3004 77.9566Z" fill="#C6C6C6"/>
    <path fill-rule="evenodd" clip-rule="evenodd" d="M35.945 75.8562C34.9572 76.4241 34.4633 76.708 33.4755 77.2793C32.4775 76.7149 31.9768 76.4309 30.9788 75.863C31.9666 75.2951 32.4605 75.0111 33.4483 74.4398C34.4463 75.0043 34.9436 75.2883 35.945 75.8562Z" fill="#C6C6C6"/>
    <path fill-rule="evenodd" clip-rule="evenodd" d="M39.5863 73.759C38.5985 74.3269 38.1046 74.6108 37.1202 75.1822C36.1221 74.6177 35.6214 74.3337 34.6234 73.7658C35.6112 73.1979 36.1051 72.914 37.0929 72.3427C38.0909 72.9106 38.5917 73.1911 39.5897 73.759H39.5863Z" fill="#C6C6C6"/>
    <path fill-rule="evenodd" clip-rule="evenodd" d="M43.2309 71.6584C42.2431 72.2263 41.7492 72.5137 40.7614 73.0816C39.7634 72.5137 39.2627 72.2331 38.2681 71.6652C39.2559 71.0973 39.7498 70.8134 40.7376 70.2421C41.7356 70.81 42.2363 71.0905 43.2343 71.6584H43.2309Z" fill="#C6C6C6"/>
    <path fill-rule="evenodd" clip-rule="evenodd" d="M46.8756 69.5578C45.8878 70.1257 45.3939 70.4097 44.4061 70.981C43.408 70.4165 42.9107 70.1326 41.9127 69.5647C42.9005 68.9968 43.3944 68.7128 44.3822 68.1415C45.3802 68.7094 45.881 68.9899 46.879 69.5578H46.8756Z" fill="#C6C6C6"/>
    <path fill-rule="evenodd" clip-rule="evenodd" d="M50.5168 67.4606C49.529 68.0286 49.0351 68.3125 48.0473 68.8838C47.0493 68.3159 46.552 68.0354 45.554 67.4675C46.5418 66.8996 47.0357 66.6156 48.0235 66.0443C49.0215 66.6088 49.5222 66.8927 50.5202 67.4606H50.5168Z" fill="#C6C6C6"/>
    <path fill-rule="evenodd" clip-rule="evenodd" d="M54.1614 65.3602C53.1736 65.9281 52.6797 66.212 51.6919 66.7834C50.6939 66.2189 50.1932 65.9349 49.1952 65.367C50.183 64.7991 50.6769 64.5152 51.6647 63.9438C52.6627 64.5083 53.1634 64.7923 54.1614 65.3602Z" fill="#C6C6C6"/>
    <path fill-rule="evenodd" clip-rule="evenodd" d="M57.8061 63.263C56.8183 63.8309 56.3244 64.1149 55.3366 64.6862C54.3386 64.1217 53.8379 63.8378 52.8398 63.2699C53.8276 62.702 54.3215 62.418 55.3093 61.8467C56.3074 62.4112 56.8047 62.6951 57.8061 63.263Z" fill="#C6C6C6"/>
    <path fill-rule="evenodd" clip-rule="evenodd" d="M61.4473 61.1624C60.4595 61.7303 59.9656 62.0143 58.9778 62.5856C57.9798 62.0177 57.4791 61.7372 56.4811 61.1693C57.4689 60.6014 57.9628 60.3174 58.9506 59.7461C59.9486 60.3106 60.4493 60.5945 61.4473 61.1624Z" fill="#C6C6C6"/>
    <path fill-rule="evenodd" clip-rule="evenodd" d="M65.092 59.0618C64.1042 59.6297 63.6103 59.9137 62.6225 60.485C61.6245 59.9205 61.1238 59.6366 60.1257 59.0687C61.1135 58.5008 61.6074 58.2168 62.5952 57.6455C63.5933 58.2134 64.094 58.4939 65.092 59.0618Z" fill="#C6C6C6"/>
    <path fill-rule="evenodd" clip-rule="evenodd" d="M70.3069 56.0582C68.689 56.9887 67.8817 57.454 66.2637 58.388C65.2657 57.8235 64.765 57.5395 63.7704 56.9716C65.3849 56.0377 66.1956 55.5724 67.8136 54.6418C68.8116 55.2063 69.3123 55.4903 70.3103 56.0582H70.3069Z" fill="#C6C6C6"/>
    <path fill-rule="evenodd" clip-rule="evenodd" d="M72.3779 54.8642C71.3901 55.4321 70.8962 55.7161 69.9084 56.284C68.9104 55.7195 68.413 55.4355 67.4116 54.8676C68.3994 54.2997 68.8933 54.0158 69.8811 53.4445C70.8791 54.0089 71.3799 54.2929 72.3779 54.8608V54.8642Z" fill="#C6C6C6"/>
    <path fill-rule="evenodd" clip-rule="evenodd" d="M36.2891 80.218C35.3013 80.7859 34.8074 81.0698 33.823 81.6412C32.825 81.0767 32.3243 80.7927 31.3263 80.2248C32.3141 79.6569 32.808 79.373 33.7958 78.8016C34.7938 79.3661 35.2945 79.6501 36.2926 80.218H36.2891Z" fill="#C6C6C6"/>
    <path fill-rule="evenodd" clip-rule="evenodd" d="M39.9304 78.1175C38.9426 78.6854 38.4487 78.9694 37.4609 79.5407C36.4628 78.9762 35.9621 78.6923 34.9641 78.1244C35.9519 77.5564 36.4458 77.2725 37.4336 76.7012C38.4316 77.2657 38.9289 77.5496 39.927 78.1175H39.9304Z" fill="#C6C6C6"/>
    <path fill-rule="evenodd" clip-rule="evenodd" d="M43.575 76.0203C42.5872 76.5882 42.0933 76.8722 41.1055 77.4435C40.1075 76.879 39.6068 76.5951 38.6088 76.0272C39.5966 75.4593 40.0905 75.1753 41.0783 74.604C42.0763 75.1719 42.577 75.4524 43.575 76.0203Z" fill="#C6C6C6"/>
    <path fill-rule="evenodd" clip-rule="evenodd" d="M65.4327 63.4238C58.5385 67.3957 51.6443 71.371 44.7468 75.3429C43.7487 74.775 43.248 74.4945 42.25 73.9266C49.1442 69.9547 56.0418 65.9793 62.9359 62.0074C63.934 62.5753 64.4347 62.8559 65.4327 63.4238Z" fill="#C6C6C6"/>
    <path fill-rule="evenodd" clip-rule="evenodd" d="M69.0773 61.3232C68.0895 61.8911 67.5956 62.1751 66.6078 62.7464C65.6098 62.1785 65.1125 61.8979 64.1111 61.33C65.0989 60.7621 65.5928 60.4782 66.5806 59.9069C67.5786 60.4713 68.0793 60.7553 69.0773 61.3232Z" fill="#C6C6C6"/>
    <path fill-rule="evenodd" clip-rule="evenodd" d="M72.722 59.2262C71.7342 59.7941 71.2403 60.0814 70.2525 60.6493C69.2545 60.0849 68.7538 59.8009 67.7557 59.233C68.7435 58.6651 69.2374 58.3777 70.2252 57.8098C71.2233 58.3743 71.7206 58.6582 72.7186 59.2262H72.722Z" fill="#C6C6C6"/>
    <path fill-rule="evenodd" clip-rule="evenodd" d="M76.3632 57.1256C75.3754 57.6935 74.8815 57.9774 73.8971 58.5487C72.8991 57.9843 72.3984 57.7003 71.4004 57.1324C72.3882 56.5645 72.8821 56.2805 73.8699 55.7126C74.8679 56.2771 75.3652 56.5611 76.3632 57.129V57.1256Z" fill="#C6C6C6"/>
    <path fill-rule="evenodd" clip-rule="evenodd" d="M48.531 76.3624L65.5416 66.5096L75.263 72.5171L58.2592 82.3733L48.5344 76.3624H48.531Z" fill="#C6C6C6"/>
    <path fill-rule="evenodd" clip-rule="evenodd" d="M8.0448 71.1145L8.11633 29.8389C8.11633 28.6894 8.73626 27.6254 9.73088 27.0541L55.4695 0.766298C55.4695 0.766298 55.4933 0.752614 55.5036 0.745772C55.7352 0.619191 55.9804 0.564453 56.2189 0.564453C56.2597 0.564453 56.3006 0.564453 56.3415 0.567874C55.8748 1.28973 55.0778 2.49738 54.0151 4.09845L10.2997 29.2744L10.2043 67.5223L12.1323 66.4105C11.1274 67.9021 10.252 69.1987 9.53672 70.2592L8.0448 71.1145Z" fill="#999999"/>
    <path fill-rule="evenodd" clip-rule="evenodd" d="M10.2793 29.0622L54.0117 4.09839L12.2515 66.1572L10.2793 67.4094V29.0622Z" fill="#F4F4F4"/>
    <path d="M35.3047 29.3223C30.0217 32.3842 25.4028 41.6417 25.4028 42.4149C25.4028 43.188 30.1579 47.0094 35.3456 43.9988C40.6286 40.937 45.2474 31.6794 45.2474 30.9063C45.2474 30.1331 40.4924 26.3117 35.3047 29.3223Z" fill="white"/>
    <path d="M35.3081 30.6326C38.0297 29.0554 40.2437 30.3212 40.254 33.4618C40.2642 36.6058 38.0638 40.4306 35.3388 42.0112C32.6172 43.5883 30.4032 42.3225 30.393 39.1819C30.3828 36.0413 32.5832 32.2131 35.3081 30.6326Z" fill="#FFCA00"/>
    <path d="M35.3047 29.3223C40.4924 26.3152 45.244 30.1366 45.2474 30.9063C45.2474 30.9713 45.2168 31.0945 45.1521 31.2689C43.5171 30.0237 39.9474 28.5594 36.1426 30.766C31.299 33.5748 27.014 41.587 26.3361 43.496C25.74 43.0444 25.4028 42.6202 25.4028 42.4149C25.4028 41.6417 30.0217 32.3876 35.3047 29.3223Z" fill="#000526"/>
    <path d="M35.3456 41.6964C39.5046 39.2845 43.2514 33.0376 44.6582 30.1091C45.0362 30.4478 45.2474 30.7455 45.2474 30.9062C45.2474 31.6794 40.6286 40.9335 35.3456 43.9988C30.1579 47.006 25.4062 43.1846 25.4028 42.4148C25.4028 42.2506 25.6106 41.6998 25.9921 40.9096C27.4193 42.1856 31.2445 44.0741 35.3456 41.6964Z" fill="#03BCFC"/>
    <path d="M21.4584 40.0988C21.4584 40.0988 21.4584 40.0886 21.4584 40.0851C21.4584 40.0817 21.4584 40.0749 21.4584 40.0715C21.4584 40.0646 21.4584 40.0612 21.4584 40.0544C21.4584 40.0475 21.4584 40.0407 21.4618 40.0338C21.4618 40.0304 21.4618 40.0236 21.4618 40.0201C21.4618 40.0133 21.4618 40.0065 21.4687 39.9996C21.4687 39.9928 21.4721 39.9859 21.4755 39.9757C21.4755 39.9722 21.4755 39.9654 21.4789 39.962C21.4789 39.962 21.4789 39.962 21.4789 39.9586C21.4789 39.9586 21.4789 39.9551 21.4789 39.9517C21.4857 39.9312 21.4891 39.9141 21.4959 39.8901C21.4959 39.8901 21.4959 39.8867 21.4959 39.8833C21.4959 39.873 21.5027 39.8628 21.5061 39.8525C21.5095 39.8388 21.5163 39.8251 21.5197 39.808C21.5197 39.808 21.5197 39.8012 21.5232 39.7978C21.5266 39.7841 21.5334 39.7704 21.5368 39.7601C21.5402 39.7465 21.547 39.7328 21.5504 39.7191C21.5504 39.7122 21.5538 39.7054 21.5572 39.6986C21.5572 39.6917 21.5606 39.6883 21.564 39.6815C21.5742 39.6541 21.5845 39.6267 21.5947 39.5993C21.5947 39.5993 21.5947 39.5925 21.5981 39.5891C21.6015 39.5788 21.6049 39.5686 21.6083 39.5617C21.6185 39.5343 21.6287 39.5104 21.639 39.4796C21.6458 39.4659 21.6492 39.4557 21.656 39.442C21.6594 39.4317 21.6628 39.4214 21.6696 39.4112C21.6764 39.3975 21.6832 39.3804 21.6901 39.3633C21.6969 39.3462 21.7037 39.3325 21.7105 39.3154C21.7241 39.2846 21.7377 39.2572 21.748 39.2264C21.7548 39.2128 21.7582 39.1991 21.765 39.1854C21.765 39.1854 21.765 39.1786 21.7684 39.1751C21.7752 39.1614 21.782 39.1478 21.7888 39.1307C21.8059 39.0964 21.8195 39.0588 21.8365 39.0212C21.8467 39.0007 21.857 38.9767 21.8672 38.9562C21.8842 38.922 21.8978 38.8878 21.9149 38.8501C21.9183 38.8399 21.9217 38.833 21.9285 38.8228C21.9421 38.7954 21.9557 38.768 21.9694 38.7407C21.9728 38.7304 21.9796 38.7235 21.983 38.7133C22.0068 38.662 22.0307 38.6106 22.0579 38.5593C22.0647 38.5456 22.0716 38.532 22.0784 38.5183C22.0988 38.4772 22.1192 38.4362 22.1397 38.3917C22.1465 38.378 22.1533 38.3609 22.1635 38.3472C22.1669 38.337 22.1737 38.3267 22.1771 38.3164C22.1908 38.2891 22.2044 38.2617 22.218 38.2343C22.2316 38.2104 22.2419 38.1864 22.2555 38.1625C22.2759 38.1214 22.2964 38.0804 22.3168 38.0393C22.327 38.0154 22.3406 37.9948 22.3509 37.9709C22.3781 37.9162 22.4088 37.858 22.4394 37.8033C22.4428 37.793 22.4496 37.7862 22.4531 37.7759C22.4871 37.7143 22.5212 37.6493 22.5552 37.5843C22.5552 37.5843 22.5552 37.5775 22.5586 37.5741C22.5655 37.5638 22.5689 37.5535 22.5757 37.5433C22.6029 37.4885 22.6336 37.4372 22.6608 37.3825C22.671 37.3619 22.6813 37.3414 22.6949 37.3209C22.7221 37.2696 22.7494 37.2217 22.7766 37.1704C22.7869 37.1533 22.7971 37.1362 22.8039 37.119C22.8414 37.054 22.8788 36.9856 22.9163 36.9172C22.9231 36.9035 22.9299 36.8898 22.9367 36.8796C22.9674 36.8248 22.998 36.7667 23.0321 36.7085C23.0457 36.688 23.056 36.664 23.0696 36.6435C23.1002 36.5888 23.1309 36.534 23.1615 36.4793C23.1718 36.4622 23.182 36.4451 23.1922 36.428C23.2297 36.363 23.2671 36.2946 23.308 36.2296C23.308 36.2261 23.3114 36.2227 23.3148 36.2193C23.3659 36.1303 23.417 36.0448 23.4715 35.9559C23.4817 35.9388 23.4919 35.9217 23.5022 35.9046C23.5464 35.8327 23.5873 35.7609 23.6316 35.6856C23.652 35.6548 23.6691 35.6206 23.6895 35.5898C23.727 35.5317 23.761 35.4701 23.7985 35.4119C23.8189 35.3777 23.8428 35.3401 23.8632 35.3059C23.8973 35.2477 23.9348 35.193 23.9688 35.1348C23.9927 35.0972 24.0131 35.063 24.0369 35.0253C24.0744 34.9672 24.1085 34.909 24.1459 34.8509C24.1698 34.8132 24.1902 34.779 24.2141 34.7414C24.2549 34.6798 24.2958 34.6148 24.3367 34.5498C24.3571 34.519 24.3776 34.4882 24.398 34.4574C24.4593 34.3651 24.5206 34.2693 24.5819 34.1769C24.6432 34.0811 24.708 33.9853 24.7727 33.8895C24.7761 33.8827 24.7795 33.8758 24.7863 33.869C24.7999 33.8485 24.8136 33.8279 24.8272 33.8074C24.8783 33.7322 24.9294 33.6603 24.9771 33.585C25.0009 33.5508 25.0247 33.5166 25.0486 33.479C25.0963 33.4106 25.144 33.3421 25.1916 33.2737C25.2155 33.2395 25.2393 33.2019 25.2666 33.1677C25.3211 33.0924 25.3756 33.0137 25.4301 32.9385C25.4471 32.9145 25.4641 32.8871 25.4846 32.8632C25.5561 32.764 25.631 32.6613 25.7026 32.5621C25.706 32.5587 25.7094 32.5519 25.7128 32.5485C25.723 32.5382 25.7298 32.5245 25.74 32.5142C25.8184 32.4048 25.9001 32.2987 25.9819 32.1892C26.0023 32.1619 26.0228 32.1345 26.0432 32.1071C26.1318 31.9874 26.2237 31.8711 26.3157 31.7513C26.3225 31.7445 26.3259 31.7376 26.3327 31.7308C26.3498 31.7103 26.3668 31.6898 26.3804 31.6692C26.4383 31.5974 26.4962 31.5255 26.5541 31.4503C26.5814 31.4161 26.6086 31.3819 26.6359 31.3476C26.6938 31.2758 26.7483 31.2074 26.8062 31.139C26.8232 31.1184 26.8403 31.0945 26.8573 31.074C26.8641 31.0637 26.8743 31.0534 26.8845 31.0432C26.9322 30.9884 26.9765 30.9303 27.0242 30.8755C27.0514 30.8413 27.0821 30.8071 27.1093 30.7729C27.1638 30.7079 27.2183 30.6429 27.2762 30.5813C27.2933 30.5608 27.3137 30.5368 27.3307 30.5163C27.3307 30.5163 27.3342 30.5129 27.3376 30.5095C27.4057 30.4308 27.4738 30.3555 27.5419 30.2768C27.5487 30.27 27.5556 30.2632 27.5624 30.2563C27.6373 30.1708 27.7122 30.0887 27.7906 30.0066C27.7906 30.0066 27.7906 30.0032 27.794 29.9997C27.8246 29.9655 27.8553 29.9313 27.8894 29.9005C27.9302 29.856 27.9745 29.8116 28.0154 29.7671C28.0495 29.7295 28.0835 29.6952 28.1176 29.661C28.1585 29.6166 28.1993 29.5755 28.2402 29.531L28.247 29.5242C28.3015 29.4695 28.356 29.4113 28.4139 29.3566C28.431 29.3395 28.448 29.3224 28.4616 29.3052C28.5365 29.2334 28.6081 29.1616 28.683 29.0897C28.683 29.0897 28.683 29.0897 28.6864 29.0863C28.7035 29.0692 28.7171 29.0555 28.7341 29.0418C28.792 28.9871 28.8499 28.9289 28.9112 28.8742C28.9385 28.8502 28.9657 28.8229 28.993 28.7989C29.0339 28.7613 29.0747 28.7237 29.1156 28.686C29.1224 28.6792 29.1326 28.6723 29.1394 28.6655C29.1633 28.6416 29.1905 28.621 29.2178 28.5971C29.2655 28.5526 29.3132 28.5115 29.3643 28.4705C29.3915 28.4465 29.4222 28.4226 29.4494 28.3952C29.4733 28.3747 29.5005 28.3508 29.5244 28.3302C29.5448 28.3131 29.5686 28.2926 29.5891 28.2755C29.6163 28.255 29.6402 28.231 29.6674 28.2105C29.7185 28.1694 29.7696 28.125 29.8207 28.0839C29.8445 28.0668 29.865 28.0463 29.8888 28.0292C29.8956 28.0223 29.9058 28.0155 29.9127 28.0121C29.9774 27.9607 30.0387 27.9129 30.1034 27.8615C30.117 27.8513 30.1307 27.841 30.1443 27.8307C30.1886 27.7965 30.2294 27.7657 30.2737 27.7315C30.2907 27.7179 30.3078 27.7076 30.3248 27.6939C30.3452 27.6768 30.3657 27.6631 30.3895 27.6494C30.4474 27.6084 30.5087 27.5639 30.5667 27.5228C30.5803 27.5126 30.5973 27.5023 30.6109 27.4921C30.6177 27.4886 30.6212 27.4852 30.628 27.4818C30.6927 27.4373 30.7574 27.3928 30.8255 27.3484C30.8426 27.3381 30.8596 27.3278 30.8732 27.3176C30.8971 27.3005 30.9209 27.2868 30.9447 27.2697C30.989 27.2423 31.0299 27.2149 31.0742 27.1876C31.081 27.1842 31.0878 27.1773 31.098 27.1739C31.1525 27.1397 31.2104 27.1055 31.2649 27.0713C31.2888 27.0576 31.3126 27.0439 31.3399 27.0268C31.408 26.9857 31.4761 26.9481 31.5442 26.9105C31.551 26.9071 31.5613 26.9002 31.5681 26.8968C31.5817 26.8899 31.5953 26.8831 31.609 26.8763C31.6328 26.8626 31.6566 26.8523 31.6805 26.8386C31.7077 26.8249 31.735 26.8113 31.7622 26.7976C31.7861 26.7839 31.8099 26.7736 31.8338 26.7599C31.844 26.7531 31.8576 26.7497 31.8678 26.7428C31.8814 26.736 31.8985 26.7292 31.9121 26.7223C31.9359 26.7086 31.9598 26.6984 31.987 26.6881C32.0143 26.6744 32.0381 26.6642 32.0654 26.6505C32.0892 26.6402 32.1131 26.6265 32.1403 26.6163C32.1505 26.6128 32.1608 26.606 32.171 26.6026C32.1846 26.5957 32.1982 26.5889 32.2153 26.582C32.2425 26.5684 32.2732 26.5581 32.3004 26.5444C32.3243 26.5341 32.3481 26.5239 32.3719 26.5136C32.3992 26.4999 32.4299 26.4897 32.4571 26.4794C32.4707 26.476 32.4809 26.4691 32.4946 26.4657C32.5048 26.4623 32.5184 26.4555 32.5286 26.452C32.5559 26.4418 32.5865 26.4281 32.6138 26.4178C32.6376 26.4076 32.6615 26.4007 32.6853 26.3905C32.7126 26.3802 32.7432 26.3699 32.7705 26.3597C32.7841 26.3528 32.8011 26.3494 32.8148 26.3426C32.8216 26.3426 32.8318 26.3357 32.8386 26.3357C32.8795 26.322 32.9169 26.3084 32.9578 26.2947C32.9748 26.2878 32.9919 26.2844 33.0089 26.2776C33.0634 26.2605 33.1213 26.2434 33.1758 26.2263C33.1826 26.2263 33.186 26.2263 33.1928 26.2228C33.2439 26.2091 33.2916 26.192 33.3427 26.1784C33.3597 26.1715 33.3802 26.1681 33.3972 26.1647C33.4347 26.1544 33.4722 26.1441 33.513 26.1339C33.5232 26.1339 33.5335 26.127 33.5437 26.127C33.5539 26.127 33.5607 26.1236 33.5709 26.1202C33.6254 26.1065 33.6765 26.0962 33.731 26.0826C33.7412 26.0826 33.7515 26.0791 33.7583 26.0757C33.8196 26.062 33.8809 26.0484 33.9422 26.0381C33.949 26.0381 33.9524 26.0381 33.9592 26.0347C33.9695 26.0347 33.9797 26.0347 33.9865 26.0278C34.041 26.0176 34.0921 26.0073 34.1466 26.0005C34.1602 26.0005 34.1738 25.997 34.1875 25.9936C34.2488 25.9834 34.3135 25.9731 34.3748 25.9662C34.3782 25.9662 34.385 25.9662 34.3884 25.9662C34.3952 25.9662 34.402 25.9662 34.4089 25.9662C34.4872 25.956 34.5655 25.9457 34.6439 25.9389H34.6507C34.729 25.932 34.804 25.9252 34.8823 25.9184C34.8891 25.9184 34.8925 25.9184 34.8994 25.9184C34.8994 25.9184 34.9028 25.9184 34.9062 25.9184C34.9981 25.9115 35.0867 25.9081 35.1787 25.9047C35.1821 25.9047 35.1889 25.9047 35.1923 25.9047C35.2843 25.9047 35.3762 25.9012 35.4682 25.9012C35.4682 25.9012 35.4716 25.9012 35.475 25.9012C35.5261 25.9012 35.5806 25.9012 35.6317 25.9012C35.6487 25.9012 35.6623 25.9012 35.6794 25.9012C35.7168 25.9012 35.7543 25.9012 35.7918 25.9047C35.8088 25.9047 35.8293 25.9047 35.8463 25.9047C35.8837 25.9047 35.9178 25.9081 35.9519 25.9115C35.9689 25.9115 35.9859 25.9115 35.9996 25.9115C36.0472 25.9115 36.0915 25.9183 36.1392 25.9218C36.1426 25.9218 36.146 25.9218 36.1494 25.9218C36.2142 25.9286 36.2755 25.9355 36.3402 25.9423C36.3538 25.9423 36.3674 25.9423 36.3811 25.9457C36.4424 25.9526 36.5037 25.9628 36.565 25.9697C36.5752 25.9697 36.5854 25.9697 36.5956 25.9731C36.6536 25.9799 36.7081 25.9902 36.7626 26.0005C36.7728 26.0005 36.7796 26.0005 36.7898 26.0039C36.8511 26.0141 36.909 26.0244 36.9669 26.0381C36.9737 26.0381 36.9806 26.0381 36.984 26.0381C36.9874 26.0381 36.9942 26.0381 36.9976 26.0381C37.093 26.0586 37.1849 26.0791 37.2769 26.0997C37.2769 26.0997 37.2837 26.0997 37.2871 26.0997C37.3825 26.1236 37.4745 26.1476 37.5664 26.1715C37.5732 26.1715 37.58 26.1749 37.5903 26.1784C37.6788 26.2023 37.7674 26.2297 37.8525 26.257C37.8594 26.257 37.8628 26.2605 37.8696 26.2639C37.9581 26.2913 38.0467 26.322 38.1319 26.3528C38.1319 26.3528 38.1353 26.3528 38.1387 26.3528C38.1455 26.3528 38.1489 26.3563 38.1557 26.3597C38.217 26.3802 38.2783 26.4041 38.3396 26.4281C38.343 26.4281 38.3464 26.4281 38.3498 26.4315C38.4112 26.4555 38.4725 26.4794 38.5304 26.5034C38.5338 26.5034 38.5372 26.5034 38.5406 26.5068C38.5985 26.5307 38.6564 26.5547 38.7143 26.582C38.7211 26.582 38.7279 26.5889 38.7382 26.5923C38.7927 26.6163 38.8472 26.6402 38.9017 26.6676C38.9119 26.671 38.9187 26.6744 38.9289 26.6813C38.9834 26.7052 39.0345 26.7326 39.0856 26.7565C39.0958 26.7599 39.1026 26.7668 39.1128 26.7702C39.1639 26.7942 39.215 26.8215 39.2661 26.8489C39.2729 26.8523 39.2797 26.8557 39.29 26.8626C39.3411 26.8899 39.3922 26.9173 39.4398 26.9447C39.4466 26.9447 39.4501 26.9515 39.4535 26.9515C39.5046 26.9789 39.5556 27.0097 39.6033 27.0371L43.5477 29.3395C43.4966 29.3121 43.4489 29.2813 43.3944 29.2539C43.391 29.2539 43.3842 29.2471 43.3808 29.2471C43.3331 29.2197 43.282 29.1923 43.231 29.165C43.2241 29.1616 43.2173 29.1581 43.2071 29.1547C43.156 29.1273 43.1049 29.1034 43.0538 29.076C43.0436 29.0726 43.0368 29.0658 43.0266 29.0623C42.9755 29.0384 42.9244 29.011 42.8699 28.9871C42.8597 28.9837 42.8529 28.9802 42.8426 28.9734C42.7881 28.9495 42.7336 28.9221 42.6791 28.8981C42.6723 28.8981 42.6655 28.8913 42.6587 28.8879C42.6008 28.8639 42.5429 28.8366 42.485 28.8126C42.4816 28.8126 42.4782 28.8126 42.4748 28.8092C42.4135 28.7852 42.3556 28.7613 42.2942 28.7373C42.2908 28.7373 42.2874 28.7373 42.284 28.7339C42.2227 28.71 42.1614 28.6894 42.1001 28.6655C42.0933 28.6655 42.0865 28.6621 42.0797 28.6587C41.9945 28.6279 41.9059 28.6005 41.8174 28.5697C41.8106 28.5697 41.8072 28.5663 41.8003 28.5629C41.7152 28.5355 41.6266 28.5115 41.5381 28.4842C41.5313 28.4842 41.5244 28.4808 41.5142 28.4773C41.4223 28.4534 41.3303 28.4294 41.2349 28.4055C41.2349 28.4055 41.2281 28.4055 41.2247 28.4055C41.1327 28.385 41.0374 28.3644 40.942 28.3439C40.9318 28.3439 40.9215 28.3405 40.9113 28.3371C40.8534 28.3268 40.7921 28.3131 40.7342 28.3029C40.7274 28.3029 40.7172 28.3029 40.7104 28.2994C40.6559 28.2892 40.5979 28.2823 40.5434 28.2721C40.5332 28.2721 40.523 28.2721 40.5128 28.2686C40.4515 28.2584 40.3902 28.2515 40.3289 28.2447C40.3152 28.2447 40.3016 28.2447 40.2914 28.2413C40.2267 28.2344 40.1654 28.2276 40.1006 28.2208C40.0972 28.2208 40.0904 28.2208 40.087 28.2208C40.0393 28.2173 39.995 28.2139 39.9474 28.2105C39.9303 28.2105 39.9167 28.2105 39.8997 28.2105C39.8656 28.2105 39.8281 28.2071 39.7907 28.2036C39.7736 28.2036 39.7532 28.2036 39.7362 28.2036C39.6987 28.2036 39.6612 28.2036 39.6238 28.2002C39.6101 28.2002 39.5931 28.2002 39.5795 28.2002C39.5284 28.2002 39.4739 28.2002 39.4228 28.2002H39.416C39.324 28.2002 39.2321 28.2002 39.1401 28.2036C39.1367 28.2036 39.1299 28.2036 39.1265 28.2036C39.0379 28.2036 38.9459 28.2105 38.854 28.2173C38.8472 28.2173 38.8369 28.2173 38.8301 28.2173C38.7552 28.2242 38.6768 28.2276 38.5985 28.2379H38.5917C38.5133 28.2447 38.435 28.255 38.3567 28.2652C38.3464 28.2652 38.3328 28.2652 38.3226 28.2686C38.2613 28.2789 38.1966 28.2858 38.1353 28.296C38.1216 28.296 38.108 28.2994 38.0944 28.3029C38.0399 28.3131 37.9888 28.32 37.9343 28.3302C37.9207 28.3302 37.9036 28.3371 37.89 28.3405C37.8287 28.3508 37.7674 28.3644 37.7061 28.3781C37.6959 28.3781 37.6856 28.3815 37.6788 28.385C37.6243 28.3952 37.5732 28.4089 37.5187 28.4226C37.5017 28.426 37.4813 28.4329 37.4642 28.4363C37.4268 28.4465 37.3893 28.4568 37.3484 28.4671C37.3314 28.4705 37.311 28.4773 37.2939 28.4808C37.2428 28.4944 37.1951 28.5081 37.144 28.5252C37.1372 28.5252 37.1304 28.5287 37.1236 28.5321C37.0691 28.5492 37.0112 28.5663 36.9567 28.5834C36.9397 28.5902 36.9226 28.5937 36.9056 28.6005C36.8647 28.6142 36.8273 28.6279 36.7864 28.6416C36.7626 28.6484 36.7421 28.6587 36.7183 28.6655C36.691 28.6758 36.6604 28.686 36.6331 28.6963C36.6093 28.7066 36.5854 28.7134 36.5616 28.7237C36.5343 28.7339 36.5037 28.7442 36.4764 28.7579C36.4526 28.7681 36.4287 28.7784 36.4049 28.7852C36.3777 28.7955 36.347 28.8092 36.3197 28.8194C36.2959 28.8297 36.2721 28.84 36.2482 28.8502C36.221 28.8639 36.1903 28.8742 36.1631 28.8879C36.1392 28.8981 36.1154 28.9084 36.0881 28.9221C36.0643 28.9323 36.0404 28.946 36.0132 28.9563C35.9859 28.97 35.9621 28.9802 35.9348 28.9939C35.911 29.0042 35.8837 29.0179 35.8599 29.0316C35.8327 29.0452 35.8088 29.0589 35.7816 29.0692C35.7577 29.0829 35.7339 29.0931 35.71 29.1068C35.6828 29.1205 35.6555 29.1342 35.6317 29.1479C35.6078 29.1616 35.584 29.1718 35.5602 29.1855C35.5363 29.1958 35.5159 29.2095 35.492 29.2231C35.4239 29.2608 35.3558 29.2984 35.2877 29.3395C35.2059 29.3874 35.1276 29.4352 35.0458 29.4831C35.039 29.4866 35.0322 29.4934 35.022 29.4968C34.9539 29.5379 34.8891 29.5824 34.821 29.6234C34.804 29.6337 34.787 29.6439 34.7699 29.6542C34.6984 29.7021 34.6269 29.75 34.5553 29.7979C34.5417 29.8081 34.5247 29.8184 34.511 29.8287C34.4531 29.8697 34.3918 29.9108 34.3339 29.9553C34.3135 29.9689 34.293 29.986 34.2692 30.0031C34.2079 30.0476 34.15 30.0921 34.0887 30.1366C34.0751 30.1468 34.0614 30.1571 34.0478 30.1674C33.9763 30.2221 33.9047 30.2768 33.8332 30.335C33.8094 30.3521 33.7889 30.3726 33.7651 30.3897C33.714 30.4308 33.6629 30.4718 33.6118 30.5163C33.5846 30.5368 33.5607 30.5608 33.5335 30.5813C33.4858 30.6224 33.4381 30.66 33.3904 30.7011C33.3632 30.725 33.3325 30.749 33.3052 30.7763C33.2576 30.8174 33.2099 30.8618 33.1588 30.9029C33.1315 30.9268 33.1077 30.9474 33.0804 30.9713C33.0328 31.0158 32.9851 31.0603 32.9374 31.1047C32.9101 31.1287 32.8829 31.1561 32.8556 31.18C32.7977 31.2347 32.7398 31.2895 32.6819 31.3442C32.6649 31.3613 32.6478 31.375 32.6308 31.3921C32.5559 31.464 32.4809 31.5392 32.406 31.6111C32.389 31.6282 32.3719 31.6453 32.3549 31.6624C32.297 31.7205 32.2391 31.7787 32.1812 31.8369C32.1403 31.8813 32.0994 31.9224 32.0552 31.9669C32.0211 32.0011 31.987 32.0387 31.953 32.0729C31.9121 32.1174 31.8678 32.1619 31.827 32.2063C31.7929 32.2406 31.7588 32.2782 31.7282 32.3124C31.6532 32.3945 31.5749 32.48 31.5 32.5621C31.4965 32.569 31.4897 32.5724 31.4863 32.5792C31.4148 32.6579 31.3467 32.7366 31.2751 32.8153C31.2547 32.8392 31.2343 32.8632 31.2138 32.8871C31.1593 32.9521 31.1014 33.0171 31.0469 33.0821C31.0197 33.1164 30.989 33.1506 30.9618 33.1814C30.9141 33.2361 30.8664 33.2943 30.8221 33.349C30.7949 33.3798 30.771 33.4106 30.7438 33.4414C30.6859 33.5098 30.628 33.5816 30.5701 33.6535C30.5428 33.6877 30.5156 33.7219 30.4883 33.7561C30.4304 33.8279 30.3725 33.9032 30.3146 33.9751C30.2942 34.0024 30.2703 34.0298 30.2499 34.0572C30.1579 34.1735 30.0659 34.2932 29.9774 34.413C29.9569 34.4403 29.9365 34.4677 29.9161 34.4916C29.8343 34.6011 29.7526 34.7072 29.6742 34.8166C29.664 34.8337 29.6504 34.8474 29.6402 34.8645C29.5652 34.9638 29.4937 35.0664 29.4222 35.1656C29.4051 35.1895 29.3881 35.2135 29.3677 35.2409C29.3132 35.3161 29.2587 35.3948 29.2042 35.4701C29.1803 35.5043 29.1565 35.5419 29.1292 35.5761C29.0815 35.6446 29.0339 35.713 28.9862 35.7814C28.9623 35.8156 28.9385 35.8498 28.9146 35.8875C28.8635 35.9627 28.8125 36.0346 28.7648 36.1098C28.7477 36.1372 28.7273 36.1646 28.7103 36.1919C28.6455 36.2877 28.5808 36.3835 28.5195 36.4793C28.5195 36.4793 28.5195 36.4827 28.5161 36.4861C28.4548 36.5785 28.3935 36.6743 28.3322 36.7667C28.3117 36.7975 28.2913 36.8283 28.2709 36.859C28.23 36.924 28.1891 36.9856 28.1482 37.0506C28.1244 37.0883 28.104 37.1225 28.0801 37.1601C28.0426 37.2183 28.0052 37.2764 27.9711 37.3346C27.9473 37.3722 27.9234 37.4098 27.903 37.4441C27.8689 37.5022 27.8315 37.5569 27.7974 37.6151C27.777 37.6493 27.7531 37.687 27.7327 37.7212C27.6952 37.7793 27.6612 37.8409 27.6237 37.8991C27.6032 37.9298 27.5862 37.9641 27.5658 37.9948C27.5215 38.0667 27.4772 38.142 27.4363 38.2138C27.4261 38.2309 27.4159 38.248 27.4057 38.2651C27.3546 38.3541 27.3001 38.443 27.249 38.5285C27.2081 38.6004 27.1673 38.6688 27.1264 38.7407C27.1162 38.7578 27.1059 38.7749 27.0957 38.7954C27.0651 38.8501 27.0344 38.9049 27.0038 38.9562C26.9901 38.9767 26.9799 39.0007 26.9663 39.0212C26.9356 39.0759 26.905 39.1341 26.8709 39.1888C26.8641 39.2025 26.8539 39.2162 26.8471 39.2299C26.8096 39.2983 26.7721 39.3633 26.7347 39.4317C26.7244 39.4488 26.7142 39.4659 26.7074 39.483C26.6802 39.5343 26.6529 39.5857 26.6257 39.6336C26.6154 39.6541 26.6052 39.6746 26.595 39.6917C26.5644 39.7465 26.5371 39.8012 26.5099 39.8525C26.503 39.8628 26.4996 39.873 26.4928 39.8833C26.4554 39.9517 26.4213 40.0167 26.3872 40.0851C26.3838 40.092 26.3804 40.0988 26.377 40.1057C26.3464 40.1638 26.3157 40.222 26.2884 40.2767C26.2782 40.2973 26.2646 40.3212 26.2544 40.3417C26.2339 40.3828 26.2135 40.4238 26.1931 40.4649C26.1794 40.4888 26.1692 40.5128 26.1556 40.5402C26.1352 40.5778 26.1181 40.6154 26.1011 40.653C26.0943 40.6702 26.0875 40.6838 26.0773 40.7009C26.0568 40.742 26.0364 40.7865 26.016 40.8275C26.0091 40.8412 26.0023 40.8549 25.9955 40.8686C25.9717 40.9199 25.9444 40.9712 25.9206 41.0225C25.9172 41.0328 25.9138 41.0396 25.907 41.0499C25.8899 41.0875 25.8729 41.1252 25.8559 41.1628C25.8388 41.197 25.8218 41.2312 25.8082 41.2688C25.798 41.2894 25.7877 41.3133 25.7775 41.3338C25.7605 41.3715 25.7435 41.4057 25.7298 41.4433C25.723 41.4604 25.7128 41.4775 25.706 41.4946C25.6992 41.5083 25.6958 41.522 25.689 41.5357C25.6753 41.5665 25.6617 41.5973 25.6515 41.6246C25.6447 41.6417 25.6379 41.6554 25.631 41.6725C25.6208 41.6999 25.6072 41.7273 25.597 41.7512C25.5902 41.7649 25.5868 41.7752 25.58 41.7889C25.5697 41.8162 25.5595 41.8436 25.5493 41.871C25.5459 41.8812 25.5425 41.8915 25.5391 41.8983C25.5255 41.9325 25.5152 41.9633 25.5016 41.9907C25.5016 41.9975 25.4982 42.001 25.4948 42.0078C25.488 42.0283 25.4812 42.0489 25.4744 42.0694C25.471 42.0831 25.4641 42.0968 25.4607 42.107C25.4539 42.1241 25.4505 42.1412 25.4437 42.1583C25.4403 42.1686 25.4369 42.1789 25.4335 42.1891C25.4267 42.2131 25.4199 42.237 25.4131 42.261C25.4131 42.261 25.4131 42.261 25.4131 42.2644C25.4062 42.2883 25.4028 42.3089 25.396 42.326C25.3926 42.3465 25.3892 42.3636 25.3858 42.3773C25.3858 42.3944 25.3858 42.4081 25.3858 42.4183C25.3858 42.4252 25.3858 42.4354 25.3858 42.4423C25.3858 42.4423 25.3858 42.4423 25.3858 42.4457C25.3858 42.4525 25.3858 42.4628 25.3892 42.4731C25.3892 42.4731 25.3892 42.4731 25.3892 42.4765C25.3892 42.4868 25.3926 42.4936 25.396 42.5039C25.396 42.5039 25.396 42.5039 25.396 42.5073C25.396 42.5175 25.4028 42.5278 25.4062 42.5381C25.4131 42.5518 25.4165 42.562 25.4233 42.5757C25.4233 42.5757 25.4233 42.5791 25.4267 42.5826C25.4335 42.5962 25.4403 42.6099 25.4505 42.6236C25.4505 42.627 25.4573 42.6339 25.4573 42.6373C25.4675 42.651 25.4744 42.6681 25.4846 42.6818C25.4846 42.6818 25.4846 42.6852 25.488 42.6886C25.5016 42.7057 25.5152 42.7262 25.5289 42.7468C25.5323 42.7502 25.5357 42.757 25.5391 42.7604C25.5527 42.7776 25.5663 42.7981 25.5834 42.8152C25.5834 42.8152 25.5834 42.8186 25.5868 42.822C25.6038 42.8426 25.6208 42.8631 25.6413 42.887C25.6447 42.8939 25.6515 42.8973 25.6549 42.9041C25.6719 42.9247 25.6924 42.9452 25.7094 42.9657C25.7094 42.9657 25.7128 42.9691 25.7162 42.9726C25.7366 42.9965 25.7605 43.017 25.7809 43.041C25.7877 43.0478 25.7911 43.0512 25.798 43.0581C25.8184 43.0786 25.8422 43.1026 25.8661 43.1231C25.8661 43.1231 25.8695 43.1265 25.8729 43.1299C25.8967 43.1539 25.924 43.1778 25.9512 43.2018C25.958 43.2086 25.9649 43.212 25.9717 43.2189C25.9989 43.2428 26.0262 43.2668 26.0534 43.2907C26.0534 43.2907 26.0534 43.2907 26.0568 43.2941C26.0875 43.3181 26.1181 43.3455 26.1488 43.3694C26.1556 43.3762 26.1624 43.3831 26.1726 43.3865C26.2033 43.4105 26.2339 43.4344 26.2646 43.4618C26.2646 43.4618 26.2646 43.4618 26.268 43.4618C26.3021 43.4857 26.3361 43.5131 26.3702 43.5405C26.377 43.5473 26.3872 43.5541 26.3974 43.561C26.4315 43.5849 26.4656 43.6123 26.503 43.6363C26.5405 43.6636 26.578 43.6876 26.6154 43.7149C26.6257 43.7218 26.6359 43.7286 26.6427 43.7355C26.6802 43.7628 26.721 43.7868 26.7619 43.8142C26.8028 43.8415 26.8437 43.8655 26.8845 43.8928C26.8948 43.8997 26.905 43.9065 26.9152 43.9134C26.9561 43.9407 27.0003 43.9647 27.0446 43.992L23.1002 41.6896C23.056 41.6657 23.0151 41.6383 22.9708 41.611C22.9606 41.6041 22.9504 41.5973 22.9401 41.5904C22.8993 41.5631 22.8584 41.5391 22.8175 41.5117C22.7766 41.4878 22.7392 41.4604 22.7017 41.4365C22.6915 41.4296 22.6813 41.4228 22.6745 41.416C22.637 41.3886 22.5995 41.3646 22.562 41.3373C22.562 41.3373 22.5621 41.3373 22.5586 41.3373C22.5246 41.3133 22.4871 41.286 22.4531 41.262C22.4428 41.2552 22.436 41.2483 22.4258 41.2415C22.3917 41.2141 22.3577 41.1902 22.3236 41.1662C22.3236 41.1662 22.3202 41.1662 22.3168 41.1628C22.2861 41.1388 22.2555 41.1149 22.2248 41.091C22.218 41.0841 22.2078 41.0773 22.201 41.0704C22.1703 41.0465 22.1397 41.0191 22.109 40.9952C22.109 40.9952 22.1056 40.9952 22.1022 40.9917C22.075 40.9678 22.0477 40.9438 22.0205 40.9199C22.0137 40.9131 22.0068 40.9062 22 40.9028C21.9728 40.8788 21.9455 40.8549 21.9217 40.8309C21.9217 40.8309 21.9183 40.8275 21.9149 40.8241C21.891 40.8002 21.8672 40.7796 21.8467 40.7591C21.8399 40.7523 21.8365 40.7488 21.8297 40.742C21.8059 40.718 21.7854 40.6975 21.765 40.6736C21.765 40.6736 21.7616 40.6702 21.7582 40.6667C21.7377 40.6462 21.7207 40.6257 21.7037 40.6052C21.7003 40.5983 21.6935 40.5949 21.6901 40.588C21.673 40.5675 21.6526 40.5436 21.6356 40.523C21.6356 40.523 21.6356 40.5196 21.6322 40.5162C21.6185 40.4957 21.6015 40.4786 21.5879 40.4615C21.5845 40.458 21.5811 40.4512 21.5777 40.4478C21.564 40.4273 21.5504 40.4101 21.5368 40.3896C21.5368 40.3896 21.5368 40.3862 21.5334 40.3828C21.5232 40.3691 21.5129 40.352 21.5061 40.3383C21.5061 40.3349 21.4993 40.328 21.4993 40.3246C21.4925 40.3109 21.4823 40.2973 21.4755 40.2836C21.4755 40.2836 21.4755 40.2801 21.4755 40.2767C21.4687 40.263 21.4618 40.2494 21.4584 40.2391C21.4584 40.2323 21.4516 40.2254 21.4516 40.2186C21.4516 40.2151 21.4516 40.2117 21.4482 40.2083C21.4482 40.2083 21.4482 40.2083 21.4482 40.2049C21.4482 40.198 21.4448 40.1912 21.4414 40.1878C21.4414 40.1878 21.4414 40.1844 21.4414 40.1809C21.4414 40.1809 21.4414 40.1809 21.4414 40.1775C21.4414 40.1775 21.4414 40.1741 21.4414 40.1707C21.4414 40.1638 21.4414 40.1604 21.4414 40.1536C21.4414 40.1536 21.4414 40.1536 21.4414 40.1501C21.4414 40.1501 21.4414 40.1433 21.4414 40.1399C21.4414 40.133 21.4414 40.1296 21.4414 40.1262C21.4414 40.1262 21.4414 40.1159 21.4414 40.1125L21.4584 40.0988Z" fill="#00ACE8"/>
    <path d="M35.3183 33.6501C36.5991 32.9077 37.638 33.503 37.6414 34.9809C37.6448 36.4588 36.6127 38.2583 35.332 38.9972C34.0512 39.7362 33.0123 39.1444 33.0089 37.6664C33.0055 36.1885 34.0376 34.389 35.3183 33.6501Z" fill="#000526"/>
    <path d="M33.9661 33.8245C34.5111 33.5098 34.9505 33.7629 34.9539 34.389C34.9539 35.0151 34.5179 35.7814 33.9729 36.0961C33.4279 36.4109 32.9885 36.1577 32.9851 35.5316C32.9851 34.9056 33.4211 34.1393 33.9661 33.8245Z" fill="white"/>
    <path d="M40.7887 20.9748L44.607 18.7614C45.0464 18.5082 45.4041 18.7135 45.4041 19.2198L45.4177 24.4302C45.4177 24.9365 45.0635 25.5557 44.6275 25.8089C44.1881 26.062 43.8304 25.8602 43.8304 25.3504L43.8168 21.0569L40.7955 22.8085C40.3561 23.0617 39.9984 22.8599 39.9984 22.3535C39.9984 21.8472 40.3527 21.228 40.7921 20.9748H40.7887Z" fill="#000526"/>
    <path d="M40.8533 43.0272L43.8747 41.2756L43.861 36.9821C43.861 36.4758 44.2153 35.8566 44.6547 35.6034C45.0941 35.3503 45.4517 35.5555 45.4517 36.0619L45.4654 41.2722C45.4654 41.7785 45.1111 42.3977 44.6751 42.6509L40.8567 44.8644C40.4173 45.1175 40.0597 44.9157 40.0597 44.4059C40.0597 43.8996 40.4139 43.2838 40.8533 43.0272Z" fill="#000526"/>
    <path d="M26.8947 29.0315L30.7097 26.818C31.1491 26.5649 31.5067 26.7667 31.5067 27.2765C31.5067 27.7828 31.1525 28.3986 30.7131 28.6552L27.6918 30.4068L27.7054 34.7003C27.7054 35.2066 27.3512 35.8258 26.9152 36.079C26.4758 36.3321 26.1181 36.1303 26.1181 35.6205L26.1045 30.4102C26.1045 29.9039 26.4587 29.2846 26.8981 29.0315H26.8947Z" fill="#000526"/>
    <path d="M26.9425 45.8737C27.3819 45.6205 27.7395 45.8258 27.7395 46.3321L27.7531 50.6256L30.7745 48.874C31.2139 48.6208 31.5715 48.8227 31.5715 49.329C31.5715 49.8353 31.2173 50.4545 30.7779 50.7077L26.9629 52.9212C26.5235 53.1743 26.1658 52.9725 26.1658 52.4627L26.1522 47.2524C26.1522 46.7461 26.5065 46.1268 26.9459 45.8737H26.9425Z" fill="#000526"/>
    <path opacity="0.1" d="M57.646 42.4285L57.7142 14.656L54.9858 13.3389C50.7655 10.9578 45.1691 11.5428 39.215 14.9913C33.2337 18.4603 27.6134 24.4027 23.3829 31.7273C14.6528 46.8486 14.6528 63.2186 23.3829 68.2168C23.6009 68.3434 23.8291 68.4529 24.0539 68.5623C24.0539 68.5658 24.0539 68.5692 24.0539 68.5692L29.3268 71.1418V71.135C33.5913 73.174 39.0174 72.2845 44.4504 69.1371C50.183 65.8118 55.9157 59.9719 60.2824 52.4113C61.5325 50.2492 62.6089 48.0425 63.5149 45.8257L57.646 42.4217V42.4285ZM39.215 60.3551C36.2141 62.0964 33.2133 62.9244 30.553 62.6507C26.469 58.3161 26.4621 49.3015 30.5292 40.2287L49.1543 50.8958C46.1977 55.0729 42.7064 58.3298 39.215 60.3551ZM53.1396 43.9201L34.5076 33.2497C37.3825 29.1786 40.8296 25.8806 44.4504 23.7801C47.5466 21.984 50.5134 21.2142 53.1056 21.4879C55.1084 23.5988 56.1916 26.8625 56.1916 30.9473C56.1916 35.0321 55.1186 39.5069 53.1362 43.9167L53.1396 43.9201Z" fill="black"/>
    <path d="M68.672 20.2118C64.4449 17.7897 58.8212 18.3679 52.8399 21.8334C46.8586 25.299 41.2383 31.2449 37.0078 38.5695C28.2777 53.6908 28.2777 70.0608 37.0078 75.059C41.3712 77.5598 47.1072 76.749 52.8399 73.4237C58.5725 70.0984 64.3052 64.2586 68.672 56.6979C72.8991 49.3733 75.2289 41.5424 75.2289 34.6489C75.2289 27.7554 72.8991 22.6271 68.672 20.205V20.2118ZM40.833 68.4357C34.8619 65.018 34.2794 54.5871 39.0754 44.1596L62.7792 57.7345C59.8226 61.9117 56.3313 65.1686 52.8399 67.1939C48.4936 69.7152 44.1438 70.3276 40.833 68.4323V68.4357ZM66.6078 51.1113L42.8971 37.5329C45.772 33.4618 49.2191 30.1638 52.8399 28.0633C57.377 25.4325 61.6381 24.9945 64.8468 26.8317C68.0554 28.6688 69.8199 32.5586 69.8199 37.7861C69.8199 41.9598 68.6924 46.5851 66.6078 51.1078V51.1113Z" fill="#C10000"/>
    <path d="M73.3487 22.4698L68.2598 20.01L48.1359 27.9162C48.1359 27.9162 37.4131 42.6406 37.1645 42.6406C36.9158 42.6406 33.2098 58.7335 33.2098 59.4143C33.2098 60.0951 37.6822 75.4216 37.6822 75.4216L42.955 77.9943L35.8701 61.9904L40.5809 48.3162L47.1685 36.7358L57.5983 29.2367L72.6402 24.8269L73.3453 22.4766L73.3487 22.4698Z" fill="#C10000"/>
    <path d="M59.7171 64.002L54.5601 70.6184L55.8476 74.2585L68.018 66.7321L75.9409 50.1876L76.8469 34.3103L72.848 31.9565L70.8349 44.6488L65.7052 56.8519L59.7171 64.002Z" fill="#C10000"/>
    <path d="M73.9073 22.7674C69.6802 20.3452 64.0565 20.9234 58.0752 24.389C52.0939 27.858 46.4737 33.8004 42.2432 41.125C33.513 56.2463 33.513 72.6163 42.2432 77.6145C46.6065 80.1154 52.3426 79.3046 58.0752 75.9792C63.8079 72.6539 69.5405 66.8141 73.9073 59.2535C78.1344 51.9289 80.4643 44.098 80.4643 37.2044C80.4643 30.3109 78.1344 25.1827 73.9073 22.7605V22.7674ZM46.0683 70.9947C40.0972 67.577 39.5148 57.1461 44.3107 46.7185L68.0146 60.2935C65.058 64.4706 61.5666 67.7275 58.0752 69.7528C53.7289 72.2742 49.3792 72.8866 46.0683 70.9913V70.9947ZM71.8431 53.6702L48.1325 40.0919C51.0073 36.0207 54.4544 32.7228 58.0752 30.6222C62.6123 27.9914 66.8735 27.5535 70.0821 29.3906C73.2908 31.2278 75.0552 35.1176 75.0552 40.345C75.0552 44.5188 73.9277 49.1441 71.8431 53.6668V53.6702Z" fill="#E40D0D"/>
  </g>
  <defs>
    <clipPath id="clip0_829_880">
      <rect width="92.9998" height="93.9299" fill="white" transform="translate(0.5)"/>
    </clipPath>
  </defs>
</svg>