<svg width="18" height="18" viewBox="0 0 18 18" fill="none" xmlns="http://www.w3.org/2000/svg">
<path fill-rule="evenodd" clip-rule="evenodd" d="M1.5 9C1.5 4.86 4.86 1.5 9 1.5C13.14 1.5 16.5 4.86 16.5 9C16.5 13.14 13.14 16.5 9 16.5C4.86 16.5 1.5 13.14 1.5 9ZM3 9C3 12.3075 5.6925 15 9 15C12.3075 15 15 12.3075 15 9C15 5.6925 12.3075 3 9 3C5.6925 3 3 5.6925 3 9ZM9.75 12V13.5H8.25V12H9.75ZM6.135 6.6225C6.5475 5.2575 7.9125 4.305 9.4575 4.53C10.7625 4.725 11.79 5.8275 11.97 7.1325C12.1411 8.34266 11.4718 8.92657 10.8258 9.49015C10.7072 9.5937 10.5893 9.69657 10.4775 9.8025C10.3875 9.885 10.305 9.9675 10.23 10.0575C10.2262 10.0612 10.2225 10.0669 10.2188 10.0725C10.215 10.0781 10.2113 10.0837 10.2075 10.0875C10.1325 10.1775 10.0575 10.275 9.9975 10.38C9.99 10.3913 9.98437 10.4025 9.97875 10.4138C9.97312 10.425 9.9675 10.4363 9.96 10.4475C9.8325 10.6725 9.75 10.935 9.75 11.25H8.25C8.25 10.875 8.31 10.5675 8.4 10.3125C8.40329 10.3026 8.40513 10.2942 8.4068 10.2866C8.40894 10.2768 8.41079 10.2684 8.415 10.26C8.41875 10.2487 8.42438 10.2394 8.43 10.23C8.43563 10.2206 8.44125 10.2112 8.445 10.2C8.4975 10.065 8.565 9.9375 8.6325 9.825C8.63625 9.8175 8.64 9.81187 8.64375 9.80625C8.6475 9.80062 8.65125 9.795 8.655 9.7875C8.655 9.78375 8.65688 9.78187 8.65875 9.78C8.66062 9.77812 8.6625 9.77625 8.6625 9.7725C8.91794 9.38781 9.26051 9.12434 9.58088 8.87796C10.0413 8.5239 10.4558 8.20511 10.5 7.6125C10.56 6.885 10.035 6.1875 9.3225 6.0375C8.55 5.8725 7.8375 6.33 7.5975 6.9975C7.4925 7.2825 7.245 7.5 6.9375 7.5H6.7875C6.33 7.5 6 7.0575 6.135 6.6225Z" fill="#666666"/>
</svg>
