<svg width="255" height="46" viewBox="0 0 255 46" fill="none" xmlns="http://www.w3.org/2000/svg">
<path fill-rule="evenodd" clip-rule="evenodd" d="M13.4133 6.10352e-05L0.0419922 13.3713V32.2815L13.4133 45.6528H32.3229L45.6947 32.2815V13.3713L32.3229 6.10352e-05H13.4133Z" fill="#D8D9D9"/>
<path fill-rule="evenodd" clip-rule="evenodd" d="M13.5388 0.301514L0.34375 13.4962V32.1565L13.5388 45.3512H32.1992L45.3938 32.1565V13.4962L32.1992 0.301514H13.5388Z" fill="white"/>
<path fill-rule="evenodd" clip-rule="evenodd" d="M14.4095 43.2501L2.44531 31.286V14.3667L14.4095 2.40259H31.3292L43.2929 14.3667V31.286L31.3292 43.2501H14.4095Z" fill="#ED1E45"/>
<path fill-rule="evenodd" clip-rule="evenodd" d="M11.7103 23.9772L11.3906 22.5052C11.1915 21.7043 10.9996 20.8538 10.8152 19.954C10.6303 19.0547 10.4453 18.1876 10.2609 17.3536H10.1758C10.0051 18.2042 9.83078 19.075 9.65368 19.9664C9.47566 20.8579 9.28752 21.7043 9.0888 22.5052L8.74748 23.9772H11.7103ZM12.3496 26.7984H8.10797L7.25559 30.6007H4.05859L8.40651 14.6061H12.179L16.5274 30.6007H13.202L12.3496 26.7984Z" fill="white"/>
<path fill-rule="evenodd" clip-rule="evenodd" d="M23.3693 27.8041C25.0883 27.8041 25.948 27.0764 25.948 25.621C25.948 24.9176 25.735 24.4066 25.3086 24.0878C24.8822 23.7685 24.2354 23.6094 23.3693 23.6094H21.6001V27.8041H23.3693ZM23.0707 21.0578C23.838 21.0578 24.3955 20.8825 24.7437 20.5306C25.092 20.1792 25.2663 19.7008 25.2663 19.0954C25.2663 18.4905 25.0883 18.0572 24.7332 17.7954C24.378 17.5337 23.8306 17.4026 23.0919 17.4026H21.6001V21.0578H23.0707ZM18.4668 14.6063H23.2195C23.9445 14.6063 24.6156 14.6674 25.2339 14.7903C25.8521 14.9131 26.3917 15.1297 26.854 15.4402C27.3154 15.7512 27.6778 16.1601 27.941 16.6666C28.2036 17.174 28.3352 17.812 28.3352 18.5802C28.3352 18.9404 28.2887 19.3001 28.1967 19.6598C28.1038 20.0195 27.9653 20.3549 27.7809 20.6654C27.596 20.9763 27.3545 21.2542 27.0564 21.4994C26.7578 21.745 26.4096 21.9249 26.0117 22.0394V22.1374C27.0062 22.3499 27.756 22.7593 28.2607 23.3637C28.7648 23.9691 29.0169 24.8114 29.0169 25.8905C29.0169 26.7084 28.8784 27.4117 28.6015 28.0005C28.3246 28.5893 27.941 29.076 27.4506 29.4601C26.9602 29.8447 26.388 30.1308 25.7348 30.3185C25.0811 30.5071 24.3778 30.6009 23.6248 30.6009H18.4668V14.6063Z" fill="white"/>
<path fill-rule="evenodd" clip-rule="evenodd" d="M36.0499 22.3091C37.7552 22.3091 38.6075 21.459 38.6075 19.7579C38.6075 18.9239 38.3909 18.3351 37.9576 17.9915C37.5238 17.6479 36.8881 17.4763 36.0499 17.4763H34.3024V22.3091H36.0499ZM31.1689 14.6064H36.2418C36.9948 14.6064 37.7019 14.6919 38.3624 14.864C39.0234 15.0356 39.5989 15.3217 40.0888 15.7223C40.5792 16.1235 40.966 16.6548 41.2508 17.3172C41.5346 17.9791 41.6767 18.7928 41.6767 19.7579C41.6767 20.6899 41.5309 21.4995 41.2397 22.1863C40.9485 22.8735 40.5543 23.4375 40.0571 23.8791C39.5593 24.3207 38.9839 24.6482 38.3307 24.8602C37.6766 25.0732 36.9806 25.1795 36.2418 25.1795H34.3025V30.6006H31.1689V14.6064Z" fill="white"/>
<path fill-rule="evenodd" clip-rule="evenodd" d="M88.9232 34.5C89.9425 34.5 90.8967 34.2648 91.7856 33.7945C92.6745 33.3241 93.4627 32.7677 94.1502 32.1253H94.2569L94.5058 34.087H96.9237V9.58331H93.9724V16.019L94.1146 18.8754C93.3561 18.2789 92.6094 17.8086 91.8745 17.4644C91.1396 17.1203 90.2744 16.9482 89.2788 16.9482C88.2832 16.9482 87.335 17.1547 86.4342 17.5677C85.5334 17.9806 84.7393 18.5657 84.0518 19.3228C83.3644 20.08 82.8132 21.0035 82.3984 22.0933C81.9835 23.1831 81.7761 24.4048 81.7761 25.7585C81.7761 28.5576 82.4221 30.7143 83.714 32.2286C85.0059 33.7428 86.7423 34.5 88.9232 34.5ZM66.6385 27.2039L64.3984 34.087H61.376L69.2698 11.5106H72.6122L80.506 34.087H77.3414L75.1368 27.2039H66.6385ZM67.3861 24.8981H74.391L73.2887 21.4566C72.862 20.1947 72.459 18.9385 72.0798 17.6881C71.7005 16.4377 71.3212 15.1586 70.9419 13.8508H70.7997C70.4441 15.1586 70.0767 16.4377 69.6974 17.6881C69.3181 18.9385 68.9151 20.1947 68.4884 21.4566L67.3861 24.8981ZM86.0435 30.439C86.8732 31.5632 88.0466 32.1253 89.5637 32.1253C90.3697 32.1253 91.1283 31.9361 91.8394 31.5575C92.5506 31.1789 93.2617 30.5996 93.9729 29.8195V21.078C93.238 20.4356 92.5328 19.9825 91.8572 19.7186C91.1816 19.4548 90.4882 19.3228 89.7771 19.3228C89.0896 19.3228 88.4436 19.4777 87.8392 19.7875C87.2347 20.0972 86.7073 20.5331 86.2569 21.0952C85.8065 21.6574 85.4509 22.3285 85.1901 23.1085C84.9294 23.8886 84.799 24.7605 84.799 25.7241C84.799 27.7431 85.2138 29.3148 86.0435 30.439ZM109.892 34.5C110.888 34.5 111.836 34.2992 112.737 33.8977C113.638 33.4962 114.432 32.9054 115.119 32.1253C115.807 31.3452 116.352 30.3931 116.755 29.2689C117.158 28.1446 117.359 26.8713 117.359 25.4488C117.359 24.1639 117.211 22.9995 116.915 21.9556C116.619 20.9117 116.18 20.0169 115.599 19.2712C115.019 18.5256 114.301 17.952 113.448 17.5505C112.595 17.1489 111.611 16.9482 110.497 16.9482C109.525 16.9482 108.577 17.1719 107.652 17.6193C106.728 18.0667 105.874 18.6231 105.092 19.2884L105.163 16.2599V9.58331H102.247V34.087H104.594L104.843 32.3662H104.95C105.708 33.0316 106.52 33.5536 107.385 33.9321C108.251 34.3107 109.086 34.5 109.892 34.5ZM107.421 31.7296C108.168 31.9934 108.826 32.1253 109.395 32.1253C110.106 32.1253 110.764 31.9705 111.368 31.6607C111.973 31.351 112.494 30.9151 112.933 30.3529C113.371 29.7908 113.715 29.0968 113.964 28.2708C114.213 27.4449 114.337 26.5156 114.337 25.4832C114.337 24.5654 114.254 23.728 114.089 22.9709C113.923 22.2137 113.656 21.5656 113.288 21.0264C112.921 20.4872 112.447 20.0685 111.866 19.7702C111.285 19.472 110.592 19.3228 109.786 19.3228C108.387 19.3228 106.847 20.08 105.164 21.5943V30.3702C105.922 31.0126 106.675 31.4657 107.421 31.7296ZM124.496 34.5C124.899 34.5 125.231 34.477 125.492 34.4311C125.753 34.3853 125.978 34.3164 126.168 34.2247L125.776 32.0909C125.61 32.1368 125.486 32.1597 125.403 32.1597H125.136C124.923 32.1597 124.733 32.068 124.567 31.8844C124.402 31.7009 124.319 31.3797 124.319 30.9208V9.58331H121.403V30.7143C121.403 31.9532 121.64 32.8939 122.114 33.5364C122.588 34.1788 123.382 34.5 124.496 34.5ZM139.723 33.9149C138.763 34.305 137.749 34.5 136.683 34.5C135.616 34.5 134.602 34.305 133.642 33.9149C132.682 33.5249 131.835 32.957 131.1 32.2114C130.365 31.4657 129.778 30.548 129.34 29.4581C128.901 28.3683 128.682 27.1351 128.682 25.7585C128.682 24.3589 128.901 23.1143 129.34 22.0244C129.778 20.9346 130.365 20.0112 131.1 19.254C131.835 18.4969 132.682 17.9233 133.642 17.5332C134.602 17.1432 135.616 16.9482 136.683 16.9482C137.749 16.9482 138.763 17.1432 139.723 17.5332C140.683 17.9233 141.53 18.4969 142.265 19.254C143 20.0112 143.587 20.9346 144.025 22.0244C144.464 23.1143 144.683 24.3589 144.683 25.7585C144.683 27.1351 144.464 28.3683 144.025 29.4581C143.587 30.548 143 31.4657 142.265 32.2114C141.53 32.957 140.683 33.5249 139.723 33.9149ZM136.681 32.1597C135.946 32.1597 135.271 32.0049 134.654 31.6951C134.038 31.3854 133.511 30.9495 133.072 30.3874C132.633 29.8252 132.296 29.1541 132.059 28.3741C131.822 27.594 131.703 26.7221 131.703 25.7585C131.703 24.7949 131.822 23.9173 132.059 23.1257C132.296 22.3342 132.633 21.6516 133.072 21.078C133.511 20.5044 134.038 20.0628 134.654 19.753C135.271 19.4433 135.946 19.2884 136.681 19.2884C137.416 19.2884 138.092 19.4433 138.708 19.753C139.324 20.0628 139.852 20.5044 140.29 21.078C140.729 21.6516 141.067 22.3342 141.304 23.1257C141.541 23.9173 141.659 24.7949 141.659 25.7585C141.659 26.7221 141.541 27.594 141.304 28.3741C141.067 29.1541 140.729 29.8252 140.29 30.3874C139.852 30.9495 139.324 31.3854 138.708 31.6951C138.092 32.0049 137.416 32.1597 136.681 32.1597ZM158.54 33.9321C157.592 34.3107 156.596 34.5 155.553 34.5C154.416 34.5 153.349 34.305 152.353 33.9149C151.358 33.5249 150.498 32.957 149.775 32.2114C149.052 31.4657 148.483 30.548 148.069 29.4581C147.654 28.3683 147.446 27.1351 147.446 25.7585C147.446 24.3589 147.671 23.1143 148.122 22.0244C148.572 20.9346 149.177 20.0112 149.935 19.254C150.694 18.4969 151.577 17.9233 152.584 17.5332C153.592 17.1432 154.653 16.9482 155.767 16.9482C156.905 16.9482 157.877 17.1432 158.683 17.5332C159.488 17.9233 160.2 18.3822 160.816 18.9099L159.323 20.7683C158.825 20.3324 158.297 19.9767 157.74 19.7014C157.183 19.4261 156.561 19.2884 155.873 19.2884C155.091 19.2884 154.368 19.4433 153.704 19.753C153.041 20.0628 152.472 20.5044 151.998 21.078C151.524 21.6516 151.15 22.3342 150.878 23.1257C150.605 23.9173 150.469 24.7949 150.469 25.7585C150.469 26.7221 150.599 27.594 150.86 28.3741C151.121 29.1541 151.482 29.8252 151.944 30.3874C152.407 30.9495 152.97 31.3854 153.633 31.6951C154.297 32.0049 155.02 32.1597 155.802 32.1597C156.608 32.1597 157.349 31.9934 158.025 31.6607C158.7 31.328 159.311 30.9323 159.856 30.4734L161.136 32.3662C160.354 33.0316 159.488 33.5536 158.54 33.9321ZM167.313 29.6818L170.548 26.0338L175.597 34.087H178.798L172.219 24.0721L178.015 17.3612H174.78L167.419 26.1715H167.313V9.58331H164.432V34.087H167.313V29.6818ZM186.574 26.4812V34.087H181.347V11.6482H189.312C190.592 11.6482 191.789 11.7687 192.904 12.0096C194.018 12.2505 194.99 12.652 195.819 13.2141C196.649 13.7762 197.307 14.5219 197.793 15.4511C198.279 16.3803 198.522 17.5218 198.522 18.8754C198.522 20.1832 198.279 21.3189 197.793 22.2826C197.307 23.2462 196.649 24.0377 195.819 24.6572C194.99 25.2767 194.03 25.7355 192.939 26.0338C191.849 26.3321 190.687 26.4812 189.454 26.4812H186.574ZM189.135 22.4546H186.575V15.6748H188.993C190.415 15.6748 191.506 15.9157 192.264 16.3975C193.023 16.8794 193.402 17.7053 193.402 18.8754C193.402 21.2616 191.98 22.4546 189.135 22.4546ZM207.971 34.3795C207.532 34.4598 207.017 34.5 206.424 34.5C205.523 34.5 204.765 34.3623 204.149 34.087C203.532 33.8117 203.04 33.4274 202.673 32.9341C202.305 32.4408 202.039 31.8443 201.873 31.1445C201.707 30.4447 201.624 29.6589 201.624 28.787V9.96187H206.851V28.9935C206.851 29.5212 206.952 29.8883 207.153 30.0948C207.355 30.3013 207.562 30.4046 207.775 30.4046H208.078C208.161 30.4046 208.273 30.3816 208.415 30.3357L209.055 34.087C208.771 34.2017 208.41 34.2992 207.971 34.3795ZM216.605 34.5C217.814 34.5 218.851 34.2533 219.716 33.76C220.581 33.2668 221.393 32.5842 222.152 31.7123H222.258L222.649 34.087H226.916V17.017H221.689V28.3052C221.168 28.9706 220.682 29.4524 220.231 29.7507C219.781 30.0489 219.224 30.1981 218.56 30.1981C217.802 30.1981 217.245 29.9686 216.889 29.5098C216.533 29.0509 216.356 28.202 216.356 26.963V17.017H211.129V27.6169C211.129 29.7736 211.561 31.46 212.427 32.676C213.292 33.892 214.684 34.5 216.605 34.5ZM239.334 34.0698C238.434 34.3566 237.391 34.5 236.205 34.5C235.044 34.5 233.853 34.282 232.632 33.8461C231.411 33.4102 230.35 32.8366 229.449 32.1253L231.796 28.9591C232.602 29.5556 233.372 30.003 234.107 30.3013C234.842 30.5996 235.589 30.7487 236.347 30.7487C237.13 30.7487 237.699 30.6225 238.054 30.3701C238.41 30.1178 238.588 29.7621 238.588 29.3033C238.588 29.0279 238.487 28.7813 238.285 28.5633C238.084 28.3454 237.811 28.1446 237.468 27.9611C237.124 27.7775 236.739 27.6112 236.312 27.462C235.885 27.3129 235.447 27.1466 234.996 26.963C234.451 26.7565 233.906 26.5156 233.361 26.2403C232.815 25.965 232.318 25.6266 231.867 25.2251C231.417 24.8235 231.049 24.3532 230.765 23.814C230.48 23.2749 230.338 22.6496 230.338 21.9384C230.338 21.1583 230.498 20.4356 230.818 19.7702C231.138 19.1049 231.595 18.5428 232.187 18.0839C232.78 17.625 233.491 17.2636 234.321 16.9998C235.15 16.7359 236.075 16.604 237.094 16.604C238.445 16.604 239.631 16.8277 240.65 17.2751C241.669 17.7225 242.558 18.2215 243.317 18.7722L240.97 21.8007C240.33 21.3419 239.702 20.9862 239.085 20.7339C238.469 20.4815 237.853 20.3553 237.236 20.3553C235.909 20.3553 235.245 20.8027 235.245 21.6975C235.245 21.9728 235.34 22.208 235.53 22.403C235.719 22.598 235.974 22.7758 236.294 22.9364C236.614 23.097 236.982 23.2519 237.396 23.401C237.811 23.5502 238.244 23.705 238.694 23.8656C239.263 24.0721 239.826 24.3073 240.383 24.5712C240.94 24.835 241.45 25.162 241.912 25.552C242.374 25.942 242.748 26.4181 243.032 26.9802C243.317 27.5423 243.459 28.2134 243.459 28.9935C243.459 29.7736 243.305 30.4963 242.997 31.1617C242.689 31.827 242.226 32.4064 241.61 32.8997C240.994 33.3929 240.235 33.783 239.334 34.0698Z" fill="black"/>
</svg>
