<svg width="175" height="104" viewBox="0 0 175 104" fill="none" xmlns="http://www.w3.org/2000/svg">
<path opacity="0.2" d="M130.693 43.784C129.48 43.0797 128.102 42.7086 126.699 42.7086C125.297 42.7086 123.919 43.0797 122.706 43.784L77.3429 70.167C76.7487 70.5221 76.2568 71.0253 75.9152 71.6274C75.5736 72.2295 75.394 72.91 75.394 73.6022C75.394 74.2945 75.5736 74.9749 75.9152 75.577C76.2568 76.1791 76.7487 76.6824 77.3429 77.0375L113.894 98.2503L109.944 103.403H121.125C125.087 103.399 128.977 102.356 132.41 100.38L171.676 77.7933C172.568 77.282 173.309 76.5442 173.825 75.6544C174.34 74.7647 174.612 73.7546 174.612 72.7262C174.612 71.6979 174.34 70.6878 173.825 69.798C173.309 68.9083 172.568 68.1705 171.676 67.6592L130.693 43.784Z" fill="#333333"/>
<path d="M158.968 77.1237L117.229 101.325C114.82 102.718 112.086 103.452 109.303 103.452C106.519 103.452 103.785 102.718 101.376 101.325L11.5948 49.0231L5.82356 45.5879C4.31174 44.6161 3.04111 43.3127 2.10806 41.7767C1.175 40.2407 0.604048 38.5123 0.4385 36.7227C0.272952 34.9332 0.517163 33.1294 1.1526 31.4483C1.78805 29.7672 2.79803 28.2528 4.10592 27.0202L4.44945 26.7969L47.0468 8.14338C49.4624 6.75877 52.1981 6.03027 54.9823 6.03027C57.7665 6.03027 60.5023 6.75877 62.9178 8.14338L121.953 36.931L159.518 57.8003C165.031 60.7202 167.127 71.6101 158.968 77.1237Z" fill="#666666"/>
<path d="M156.977 72.1251L117.231 95.1414C114.82 96.5213 112.091 97.2473 109.313 97.2473C106.535 97.2473 103.805 96.5213 101.395 95.1414L7.30243 40.7095C-0.478469 36.5356 0.277292 28.978 5.58479 25.9378L47.1688 2.13135C49.5626 0.747253 52.279 0.0184937 55.0441 0.0184937C57.8093 0.0184937 60.5257 0.747253 62.9195 2.13135L158.987 57.2331C164.26 60.3077 164.329 68.3119 156.977 72.1251Z" fill="#D8D9DD"/>
<path d="M156.151 71.1118L117.04 93.7674C114.665 95.1311 111.973 95.8486 109.234 95.8486C106.494 95.8486 103.803 95.1311 101.427 93.7674L8.67462 40.0913C1.01396 35.9689 1.80407 28.5316 6.95698 25.5257L47.9226 2.11429C50.2651 0.744428 52.9269 0.0153141 55.6405 0.00023862C58.3541 -0.0148368 61.0238 0.684657 63.3814 2.02841L158.126 56.4088C163.331 59.4318 163.399 67.333 156.151 71.1118Z" fill="#333333"/>
<path d="M85.8822 18.8609L65.7344 7.24963L11.9895 38.3045L85.8822 80.9706L99.0393 88.5626L152.939 57.4562L85.8822 18.8609Z" fill="#22BBF7"/>
<g style="mix-blend-mode:multiply" opacity="0.2">
<path d="M92.7887 53.2311C91.3963 52.1272 89.8662 51.2092 88.237 50.5C87.0668 49.9712 85.8616 49.5235 84.6299 49.1603L83.2215 48.7824C80.685 48.1316 78.09 47.7346 75.4749 47.5972H74.0321C72.1615 47.5573 70.2904 47.6491 68.4326 47.872C66.0959 48.1342 63.7931 48.6408 61.5621 49.3836L60.5487 49.7958C55.7908 51.6509 52.6991 54.4678 52.2525 57.3362C51.8059 60.2047 53.9701 62.4891 55.6878 63.9491C59.9475 67.3844 66.9555 69.4799 74.4444 69.6345C79.0729 69.7669 83.6842 69.0149 88.0309 67.4188C89.7804 66.7601 91.4284 65.858 92.9261 64.7392C94.6533 63.6128 95.8828 61.8669 96.3614 59.8612C96.7393 57.0786 94.6266 54.7426 92.7887 53.2311Z" fill="#333333"/>
</g>
<path d="M54.243 88.2191L48.9526 91.8777C47.8547 92.6673 46.4981 93.011 45.1567 92.8396C44.3665 92.685 43.439 91.8949 43.9028 91.1219C43.9028 91.1219 46.0327 89.4043 46.3075 89.0608C46.3075 89.0608 47.0976 89.7135 47.4239 89.9368C47.6908 90.0833 47.9937 90.1513 48.2976 90.1331C48.6015 90.1149 48.8941 90.0111 49.1416 89.8337C52.3707 88.1161 54.1227 86.3984 53.762 84.6808C55.7373 87.3088 54.5521 87.9958 54.243 88.2191Z" fill="#333333"/>
<path d="M38.0491 93.0457L38.2724 92.8739C40.5125 91.3036 42.6052 89.5329 44.5246 87.5836L48.269 83.7532L53.1471 86.2953L46.9293 90.5207L46.6029 93.2861L38.719 96.4122L38.0491 93.0457Z" fill="#D3997C"/>
<path d="M46.4614 94.4549L39.9344 96.7393C38.5918 97.2601 37.1031 97.2601 35.7606 96.7393C34.9704 96.3615 34.2319 95.2793 34.9361 94.5408C34.9361 94.5408 37.6328 93.3041 37.9935 93.0808C37.9935 93.0808 38.629 93.9568 38.921 94.2831C39.1484 94.4921 39.428 94.6359 39.7303 94.6994C40.0326 94.7629 40.3464 94.7437 40.6386 94.6438C44.4518 93.7335 46.7363 92.3765 46.8221 90.5215C48.2306 93.8709 46.805 94.2659 46.4614 94.4549Z" fill="#333333"/>
<path d="M81.4519 46.3603C83.9813 46.724 86.5594 46.5365 89.0095 45.8107C88.8458 44.9042 88.7767 43.9832 88.8034 43.0625V41.5166L88.6488 36.9992L85.454 27.9301L82.8775 40.4173L82.3966 44.9519L81.4519 46.3603Z" fill="#C7D1E9"/>
<path d="M69.9915 59.0543C69.1627 59.9845 68.4157 60.9845 67.7585 62.043L71.1079 59.81L78.7514 54.3479L79.6961 49.195L80.0912 46.9793C78.5797 47.0995 77.3945 47.1854 77.3086 47.151C77.3006 47.1849 77.3006 47.2202 77.3086 47.2541C77.5834 49.4183 74.7837 53.0254 71.8293 56.8385C71.2797 57.5599 70.6442 58.3844 69.9915 59.0543Z" fill="#FCBAC0"/>
<path d="M71.486 17.1609C71.7246 16.1609 72.1188 15.2045 72.654 14.3268C72.5825 13.1726 72.6868 12.0143 72.9631 10.8915C73.1784 9.79079 73.6231 8.74778 74.2683 7.83036C74.9135 6.91295 75.7446 6.14169 76.7076 5.5668L77.721 11.3381C78.1462 11.3901 78.5622 11.4999 78.9577 11.6644C80.401 8.67468 81.6909 5.61331 82.8224 2.49223C85.8111 1.23836 89.7445 4.39881 91.1014 7.97149C91.4815 8.99727 91.6396 10.0921 91.5652 11.1835C92.6774 12.122 93.5232 13.3366 94.0176 14.7054C94.5121 16.0741 94.6378 17.5489 94.3821 18.9815C94.218 20.3379 93.716 21.6313 92.9221 22.7432C94.3649 26.8655 93.1282 30.9019 90.1052 31.8123C88.9689 32.1524 87.7477 32.0669 86.6699 31.5718C85.4714 31.0351 84.3957 30.2581 83.5094 29.2891C82.6231 28.3201 81.9449 27.1795 81.517 25.938C81.3539 25.5071 81.2219 25.0651 81.1219 24.6154C79.5932 27.1575 77.1198 28.3598 74.8354 27.3636C73.7396 26.8527 72.8365 26.0039 72.2589 24.9417C71.0223 22.5404 70.7459 19.7585 71.486 17.1609Z" fill="#333333"/>
<path d="M74.3009 20.6285L71.4376 25.07C71.4376 25.07 72.0456 34.3133 71.5342 36.0926C71.0884 37.5792 65.0073 44.7289 65.3314 45.2258C65.7521 45.7285 66.3002 46.1089 66.9183 46.3273C67.5364 46.5457 68.2019 46.594 68.845 46.4672C71.4218 43.9712 76.6965 38.3432 77.4266 36.6089C78.1566 34.8746 76.7069 21.7529 76.7069 21.7529C76.4005 21.4152 76.03 21.1418 75.6169 20.9488C75.2039 20.7557 74.7565 20.6469 74.3009 20.6285Z" fill="#C6C6C6"/>
<path d="M71.111 59.81L78.7544 54.3479L79.6991 49.195L80.0942 46.9793C78.5827 47.0995 77.3975 47.1854 77.3116 47.151C77.3036 47.1849 77.3036 47.2202 77.3116 47.2541C77.5864 49.4183 74.7867 53.0254 71.8324 56.8385C71.2655 57.5427 70.63 58.2985 69.9773 59.0371C69.1486 59.9674 68.4015 60.9673 67.7444 62.0258L71.111 59.81Z" fill="#FCBAC0"/>
<path d="M48.9187 82.4311C49.0561 83.8395 53.3502 83.788 53.5907 82.4311C53.5907 82.4311 63.2094 70.2358 61.4231 63.5371L68.3795 61.5274L72.0553 59.0884L80.4545 53.0938L81.4851 47.4428L81.9317 45.0037L82.3439 42.9254C79.5098 42.7708 77.191 42.6849 75.4734 42.6334C73.7557 42.5819 72.5534 44.4369 72.3129 44.935V45.1583L72.0553 45.3473C68.0704 48.5936 54.9991 56.0997 54.8789 59.6895L48.9187 82.4311Z" fill="#CE0707"/>
<path d="M44.164 86.7424C42.9616 88.2882 46.7404 92.5823 48.9218 90.9678L68.0563 72.3314L85.7995 59.1571C90.7807 55.2924 90.1967 49.9678 88.5821 44.1965C88.5821 44.1965 84.2021 44.5744 81.076 44.7977C79.3584 44.9351 78.1045 45.021 78.0186 44.9866V45.1069C78.345 47.4772 75.236 51.4621 71.9897 55.6531C71.3714 56.4261 70.6671 57.2677 69.9457 58.075C68.9495 59.2258 63.4015 64.0009 63.4015 64.0009L44.164 86.7424Z" fill="#E40D0D"/>
<path d="M70.321 44.9869C72.8293 46.6622 75.6616 47.7917 78.6344 48.3019C79.8721 48.4407 81.1162 48.5152 82.3617 48.5252C84.2372 48.5885 86.1079 48.2971 87.8753 47.6664C88.2716 47.4968 88.6009 47.2012 88.812 46.8255C89.0232 46.4497 89.1045 46.0147 89.0433 45.5881C88.9149 44.7344 88.8346 43.8743 88.8028 43.0116V41.4657L88.6482 36.9483L88.5967 34.3375L88.7856 33.7707L90.9327 27.1578C90.9327 23.7225 88.9918 22.3656 86.1405 20.6308C85.9172 20.5106 85.6939 20.356 85.4534 20.2357L85.2645 20.1155L82.877 18.7757L80.8845 17.6249C80.644 17.5219 79.0123 18.415 78.8062 18.3292C78.2582 18.098 77.6797 17.9476 77.0885 17.8826C76.3033 17.8756 75.5245 18.0257 74.7981 18.3241C74.0716 18.6225 73.4122 19.063 72.8585 19.6199C72.3048 20.1768 71.868 20.8388 71.5738 21.567C71.2797 22.2951 71.134 23.0747 71.1455 23.86L72.2104 37.0342C72.3848 39.814 71.727 42.5826 70.321 44.9869Z" fill="white"/>
<path d="M79.5605 47.3908C81.3699 47.4855 83.1843 47.3819 84.9711 47.0816C86.4088 46.8304 87.7849 46.3057 89.0247 45.5358C88.9074 44.6985 88.8329 43.8557 88.8014 43.0108V41.465L88.6468 36.9476L88.5953 34.3368L88.7843 33.7699C87.6968 31.9203 86.832 29.9485 86.2078 27.8956L84.0779 34.0963C83.6485 35.333 83.1848 36.5525 82.6695 37.7377C81.8563 39.6045 81.179 41.5275 80.6427 43.4918L79.5605 47.3908Z" fill="#E6E6E6"/>
<path d="M83.3772 19.1362V19.0503V11.2694H78.0525V18.7412L77.5544 18.8786C76.5067 19.308 77.125 21.5066 77.5544 21.8329C77.9838 22.1593 80.4744 21.6268 82.4153 21.0428C82.7955 20.9172 83.1103 20.6459 83.2906 20.2884C83.4709 19.931 83.5021 19.5166 83.3772 19.1362Z" fill="#D3997C"/>
<path d="M78.3389 16.2851L78.5106 19.5314C78.5106 20.1326 79.8332 20.4074 80.8123 19.8921C81.4781 19.5966 82.0585 19.1379 82.4999 18.5584C82.9413 17.979 83.2293 17.2975 83.3372 16.5771L83.5433 14.0178L78.3389 16.2851Z" fill="#BA8368"/>
<path d="M74.7671 15.7697C75.9179 19.8233 78.5802 19.9779 80.9506 18.5179C81.7632 18.0949 82.4678 17.4908 83.0098 16.7522C83.5519 16.0136 83.9169 15.1603 84.0767 14.2582C84.2141 13.0558 84.987 11.8535 84.9698 10.8229C85.0239 10.0624 84.9212 9.29894 84.6681 8.5798C84.4149 7.86066 84.0167 7.20121 83.4981 6.64235C82.9795 6.0835 82.3516 5.63716 81.6534 5.33102C80.9551 5.02489 80.2014 4.86548 79.439 4.8627C72.5685 4.98294 74.372 14.3612 74.7671 15.7697Z" fill="#D3997C"/>
<path d="M77.2567 52.4707C77.543 52.636 77.5437 53.049 77.2579 53.2152L64.832 60.4388C64.6988 60.5162 64.5343 60.5165 64.4008 60.4394L54.9474 54.9831C54.661 54.8178 54.6604 54.4048 54.9462 54.2386L67.3721 47.0151C67.5053 46.9376 67.6698 46.9373 67.8033 47.0144L77.2567 52.4707Z" fill="#E2E6ED"/>
<path d="M67.1174 57.3381L66.7889 57.5236L63.6609 55.7252L63.9894 55.5396L67.1174 57.3381Z" fill="#A5AAB4"/>
<path d="M65.8599 58.0661L65.5314 58.2516L60.8893 55.5825L61.2178 55.3826L65.8599 58.0661Z" fill="#A5AAB4"/>
<path d="M66.49 57.7093L66.1615 57.8805L62.1051 55.5397L62.4193 55.3684L66.49 57.7093Z" fill="#A5AAB4"/>
<path d="M62.6021 54.0124L59.9168 55.5683L57.5173 54.1837L60.2025 52.6279L62.6021 54.0124Z" fill="#A5AAB4"/>
<path d="M64.603 58.7939L64.2888 58.9795L60.2181 56.6386L60.5466 56.453L64.603 58.7939Z" fill="#A5AAB4"/>
<path d="M65.2307 58.4372L64.9165 58.6227L61.7885 56.81L62.1027 56.6244L65.2307 58.4372Z" fill="#A5AAB4"/>
<path d="M67.7471 56.9671L67.4186 57.1669L62.7765 54.4835L63.1051 54.2979L67.7471 56.9671Z" fill="#A5AAB4"/>
<path d="M71.5007 54.4262L71.1722 54.6117L68.0442 52.8133L68.3727 52.6134L71.5007 54.4262Z" fill="#A5AAB4"/>
<path d="M70.2449 55.1542L69.9164 55.3397L65.2743 52.6563L65.6029 52.4707L70.2449 55.1542Z" fill="#A5AAB4"/>
<path d="M70.873 54.7975L70.5445 54.9688L66.4881 52.6279L66.8024 52.4423L70.873 54.7975Z" fill="#A5AAB4"/>
<path d="M68.9885 55.8823L68.6743 56.0679L64.6036 53.727L64.9321 53.5414L68.9885 55.8823Z" fill="#A5AAB4"/>
<path d="M69.6157 55.5112L69.2872 55.6967L66.1592 53.8983L66.4877 53.7127L69.6157 55.5112Z" fill="#A5AAB4"/>
<path d="M72.1296 54.0551L71.8011 54.2407L67.1591 51.5715L67.4876 51.3859L72.1296 54.0551Z" fill="#A5AAB4"/>
<path d="M65.274 45.0974C65.274 45.0974 64.7272 47.7722 65.5934 48.9015C66.4596 50.0307 66.7049 50.8735 67.6763 51.4239C68.6476 51.9743 69.2059 51.4591 69.1728 50.6469C69.0823 49.4281 68.691 48.2396 68.0282 47.1706C67.6212 46.6112 67.633 47.268 67.6767 46.603C67.7604 46.2836 66.2241 44.0009 65.274 45.0974Z" fill="#C79575"/>
<path d="M68.0021 48.422C69.1277 49.0242 70.3474 49.4308 71.6092 49.6243C72.8005 49.5472 73.9663 49.244 75.0444 48.7312C76.0922 48.3189 77.8614 47.6834 79.7851 47.0135L78.5656 43.5782C77.4242 44.3309 76.1957 44.9423 74.907 45.3989C74.6856 45.4909 74.4554 45.5599 74.22 45.6051C72.6226 45.8455 69.7026 43.5095 69.3591 45.0726C69.2903 44.9695 66.1127 46.67 68.0021 48.422Z" fill="#D3997C"/>
<path d="M74.8699 45.0553C75.3802 45.4172 75.7642 45.9301 75.9675 46.5217C76.1709 47.1134 76.1835 47.754 76.0035 48.3532C76.0035 48.3532 87.0651 45.8969 89.7446 42.5304C91.05 40.8986 91.4622 32.5509 90.9985 26.9686C90.9985 26.9686 89.6759 24.0658 87.9754 24.1345C87.2417 24.1631 86.545 24.464 86.021 24.9784C85.4971 25.4929 85.1835 26.184 85.1413 26.917C84.9696 30.3523 85.2616 37.8756 84.8837 39.1638C84.5917 40.0398 74.8699 45.0553 74.8699 45.0553Z" fill="#F4F4F4"/>
<path d="M83.3911 2.28624C81.6734 0.98084 79.784 1.59919 77.6542 2.16601C74.3735 3.042 73.7036 4.33023 73.841 7.02692C73.8897 8.34181 74.039 9.65105 74.2876 10.9431C74.3607 10.0911 74.5043 9.24652 74.717 8.41821C74.717 8.41821 75.1636 8.86479 76.8984 8.98503C77.9369 8.98796 78.9729 8.88436 79.9902 8.67585C80.5426 8.62628 81.0951 8.77061 81.5527 9.08404C82.0103 9.39748 82.3445 9.86046 82.4979 10.3935C82.7997 11.2554 82.962 12.1599 82.9789 13.073C83.1631 12.6693 83.3754 12.279 83.6144 11.905C83.9751 11.3897 85.0915 11.0462 85.229 11.3897C85.5897 12.2829 84.2499 15.9758 84.2499 15.9758C89.3169 13.2791 86.3111 4.39894 83.3911 2.28624Z" fill="#333333"/>
<path d="M82.8773 11.8876C82.3277 12.8666 82.3792 13.9316 83.0147 14.2923C83.6503 14.653 84.595 14.1549 85.1618 13.193C85.7286 12.2311 85.6427 11.149 85.0072 10.7883C84.3717 10.4276 83.4442 10.9257 82.8773 11.8876Z" fill="#D3997C"/>
</svg>
