<?xml version="1.0" encoding="UTF-8"?>
<!--Generator: Apple Native CoreSVG 341-->
<!DOCTYPE svg
PUBLIC "-//W3C//DTD SVG 1.1//EN"
       "http://www.w3.org/Graphics/SVG/1.1/DTD/svg11.dtd">
<svg version="1.1" xmlns="http://www.w3.org/2000/svg" xmlns:xlink="http://www.w3.org/1999/xlink" viewBox="0 0 12.9102 20.6934">
 <g>
  <rect height="20.6934" opacity="0" width="12.9102" x="0" y="0"/>
  <path d="M0 18.1348C0 19.6582 1.06445 20.6738 2.65625 20.6738L9.89258 20.6738C11.4844 20.6738 12.5488 19.6582 12.5488 18.1348L12.5488 2.53906C12.5488 1.01562 11.4844 0 9.89258 0L2.65625 0C1.06445 0 0 1.01562 0 2.53906ZM1.57227 17.8809L1.57227 2.79297C1.57227 2.01172 2.03125 1.57227 2.86133 1.57227L9.69727 1.57227C10.5176 1.57227 10.9766 2.01172 10.9766 2.79297L10.9766 17.8809C10.9766 18.6621 10.5176 19.1016 9.69727 19.1016L2.86133 19.1016C2.03125 19.1016 1.57227 18.6621 1.57227 17.8809Z" fill="black" fill-opacity="0.85"/>
  <path d="M3.33008 17.7734L4.24805 17.7734C4.46289 17.7734 4.62891 17.627 4.62891 17.4219L4.62891 16.4746C4.62891 16.2695 4.46289 16.123 4.24805 16.123L3.33008 16.123C3.11523 16.123 2.96875 16.2695 2.96875 16.4746L2.96875 17.4219C2.96875 17.627 3.11523 17.7734 3.33008 17.7734ZM5.80078 17.7734L6.72852 17.7734C6.94336 17.7734 7.10938 17.627 7.10938 17.4219L7.10938 16.4746C7.10938 16.2695 6.94336 16.123 6.72852 16.123L5.80078 16.123C5.5957 16.123 5.44922 16.2695 5.44922 16.4746L5.44922 17.4219C5.44922 17.627 5.5957 17.7734 5.80078 17.7734ZM8.28125 17.7734L9.19922 17.7734C9.42383 17.7734 9.58008 17.627 9.58008 17.4219L9.58008 16.4746C9.58008 16.2695 9.42383 16.123 9.19922 16.123L8.28125 16.123C8.07617 16.123 7.92969 16.2695 7.92969 16.4746L7.92969 17.4219C7.92969 17.627 8.07617 17.7734 8.28125 17.7734ZM3.33008 9.92188L4.24805 9.92188C4.46289 9.92188 4.62891 9.77539 4.62891 9.56055L4.62891 8.62305C4.62891 8.4082 4.46289 8.26172 4.24805 8.26172L3.33008 8.26172C3.11523 8.26172 2.96875 8.4082 2.96875 8.62305L2.96875 9.56055C2.96875 9.77539 3.11523 9.92188 3.33008 9.92188ZM5.80078 9.92188L6.72852 9.92188C6.94336 9.92188 7.10938 9.77539 7.10938 9.56055L7.10938 8.62305C7.10938 8.4082 6.94336 8.26172 6.72852 8.26172L5.80078 8.26172C5.5957 8.26172 5.44922 8.4082 5.44922 8.62305L5.44922 9.56055C5.44922 9.77539 5.5957 9.92188 5.80078 9.92188ZM3.33008 7.26562L4.24805 7.26562C4.46289 7.26562 4.62891 7.11914 4.62891 6.91406L4.62891 5.9668C4.62891 5.75195 4.46289 5.60547 4.24805 5.60547L3.33008 5.60547C3.11523 5.60547 2.96875 5.75195 2.96875 5.9668L2.96875 6.91406C2.96875 7.11914 3.11523 7.26562 3.33008 7.26562ZM5.80078 7.26562L6.72852 7.26562C6.94336 7.26562 7.10938 7.11914 7.10938 6.91406L7.10938 5.9668C7.10938 5.75195 6.94336 5.60547 6.72852 5.60547L5.80078 5.60547C5.5957 5.60547 5.44922 5.75195 5.44922 5.9668L5.44922 6.91406C5.44922 7.11914 5.5957 7.26562 5.80078 7.26562ZM8.28125 7.26562L9.19922 7.26562C9.42383 7.26562 9.58008 7.11914 9.58008 6.91406L9.58008 5.9668C9.58008 5.75195 9.42383 5.60547 9.19922 5.60547L8.28125 5.60547C8.07617 5.60547 7.92969 5.75195 7.92969 5.9668L7.92969 6.91406C7.92969 7.11914 8.07617 7.26562 8.28125 7.26562ZM3.33008 4.61914L4.24805 4.61914C4.46289 4.61914 4.62891 4.47266 4.62891 4.25781L4.62891 3.32031C4.62891 3.10547 4.46289 2.95898 4.24805 2.95898L3.33008 2.95898C3.11523 2.95898 2.96875 3.10547 2.96875 3.32031L2.96875 4.25781C2.96875 4.47266 3.11523 4.61914 3.33008 4.61914ZM5.80078 4.61914L6.72852 4.61914C6.94336 4.61914 7.10938 4.47266 7.10938 4.25781L7.10938 3.32031C7.10938 3.10547 6.94336 2.95898 6.72852 2.95898L5.80078 2.95898C5.5957 2.95898 5.44922 3.10547 5.44922 3.32031L5.44922 4.25781C5.44922 4.47266 5.5957 4.61914 5.80078 4.61914ZM8.28125 4.61914L9.19922 4.61914C9.42383 4.61914 9.58008 4.47266 9.58008 4.25781L9.58008 3.32031C9.58008 3.10547 9.42383 2.95898 9.19922 2.95898L8.28125 2.95898C8.07617 2.95898 7.92969 3.10547 7.92969 3.32031L7.92969 4.25781C7.92969 4.47266 8.07617 4.61914 8.28125 4.61914Z" fill="black" fill-opacity="0.85"/>
 </g>
</svg>
