<svg width="144" height="26" viewBox="0 0 144 26" fill="none" xmlns="http://www.w3.org/2000/svg">
<path fill-rule="evenodd" clip-rule="evenodd" d="M7.55368 0.000305176L0.000366211 7.55798V18.2463L7.55368 25.804H18.2356L25.7891 18.2463V7.55798L18.2356 0.000305176H7.55368Z" fill="#D8D9D9"/>
<path fill-rule="evenodd" clip-rule="evenodd" d="M7.62395 0.170471L0.170166 7.62831V18.1755L7.62395 25.6333H18.165L25.6185 18.1755V7.62831L18.165 0.170471H7.62395Z" fill="white"/>
<path fill-rule="evenodd" clip-rule="evenodd" d="M8.11561 24.4455L1.35718 17.6832V8.12013L8.11561 1.35779H17.6734L24.4316 8.12013V17.6832L17.6734 24.4455H8.11561Z" fill="#ED1E45"/>
<path fill-rule="evenodd" clip-rule="evenodd" d="M6.59136 13.5523L6.41077 12.7203C6.29825 12.2677 6.1899 11.7869 6.0857 11.2784C5.98124 10.7701 5.87678 10.28 5.77258 9.8086H5.7245C5.6281 10.2893 5.52962 10.7815 5.42958 11.2854C5.32901 11.7893 5.22273 12.2677 5.11048 12.7203L4.91767 13.5523H6.59136ZM6.95251 15.147H4.55644L4.07494 17.2961H2.26898L4.72508 8.25568H6.85611L9.31247 17.2961H7.43401L6.95251 15.147Z" fill="white"/>
<path fill-rule="evenodd" clip-rule="evenodd" d="M13.1776 15.7152C14.1487 15.7152 14.6344 15.3039 14.6344 14.4812C14.6344 14.0837 14.514 13.7948 14.2732 13.6146C14.0323 13.4342 13.6669 13.3442 13.1776 13.3442H12.1783V15.7152H13.1776ZM13.009 11.9023C13.4424 11.9023 13.7574 11.8033 13.9541 11.6044C14.1508 11.4057 14.2493 11.1353 14.2493 10.7932C14.2493 10.4513 14.1487 10.2063 13.9481 10.0584C13.7475 9.91046 13.4383 9.83636 13.021 9.83636H12.1783V11.9023H13.009ZM10.4083 8.25568H13.093C13.5026 8.25568 13.8817 8.29026 14.2309 8.35968C14.5802 8.4291 14.885 8.55156 15.1461 8.72706C15.4067 8.90282 15.6115 9.13396 15.7601 9.42022C15.9085 9.707 15.9828 10.0676 15.9828 10.5018C15.9828 10.7054 15.9566 10.9087 15.9046 11.112C15.8521 11.3154 15.7739 11.5049 15.6697 11.6804C15.5652 11.8562 15.4288 12.0132 15.2604 12.1518C15.0918 12.2906 14.8951 12.3923 14.6703 12.457V12.5124C15.2321 12.6325 15.6557 12.8639 15.9407 13.2056C16.2255 13.5477 16.3679 14.0238 16.3679 14.6337C16.3679 15.096 16.2897 15.4936 16.1333 15.8264C15.9768 16.1592 15.7601 16.4342 15.4831 16.6513C15.2061 16.8687 14.8829 17.0304 14.5139 17.1365C14.1446 17.2431 13.7473 17.2961 13.322 17.2961H10.4083V8.25568Z" fill="white"/>
<path fill-rule="evenodd" clip-rule="evenodd" d="M20.341 12.6094C21.3042 12.6094 21.7857 12.1289 21.7857 11.1674C21.7857 10.696 21.6634 10.3632 21.4186 10.169C21.1735 9.97481 20.8144 9.87783 20.341 9.87783H19.3538V12.6094H20.341ZM17.5838 8.25568H20.4494C20.8748 8.25568 21.2742 8.30404 21.6473 8.40128C22.0207 8.49826 22.3458 8.65998 22.6225 8.88644C22.8995 9.11316 23.1181 9.41346 23.2789 9.78786C23.4393 10.162 23.5195 10.6219 23.5195 11.1674C23.5195 11.6942 23.4372 12.1518 23.2727 12.54C23.1082 12.9284 22.8855 13.2472 22.6046 13.4968C22.3235 13.7464 21.9984 13.9315 21.6294 14.0513C21.2599 14.1717 20.8667 14.2318 20.4494 14.2318H19.3539V17.2959H17.5838V8.25568Z" fill="white"/>
<path fill-rule="evenodd" clip-rule="evenodd" d="M50.2077 19.5C50.7835 19.5 51.3225 19.367 51.8246 19.1012C52.3268 18.8353 52.772 18.5209 53.1604 18.1578H53.2206L53.3612 19.2665H54.7271V5.41663H53.0599V9.05417L53.1403 10.6687C52.7118 10.3315 52.29 10.0657 51.8749 9.87116C51.4597 9.67664 50.971 9.57938 50.4086 9.57938C49.8462 9.57938 49.3105 9.69609 48.8017 9.92952C48.2928 10.1629 47.8442 10.4936 47.4559 10.9216C47.0676 11.3495 46.7562 11.8715 46.5219 12.4875C46.2876 13.1035 46.1704 13.794 46.1704 14.5591C46.1704 16.1412 46.5353 17.3602 47.2651 18.2161C47.9949 19.072 48.9758 19.5 50.2077 19.5ZM37.6193 15.376L36.3539 19.2665H34.6465L39.1057 6.50588H40.9938L45.4529 19.2665H43.6652L42.4199 15.376H37.6193ZM38.0412 14.0729H41.9982L41.3755 12.1277C41.1345 11.4144 40.9068 10.7044 40.6926 9.99768C40.4783 9.29092 40.2641 8.56795 40.0498 7.82877H39.9695C39.7686 8.56795 39.5611 9.29092 39.3468 9.99768C39.1326 10.7044 38.9049 11.4144 38.6639 12.1277L38.0412 14.0729ZM48.5807 17.2047C49.0493 17.8401 49.7122 18.1578 50.5692 18.1578C51.0245 18.1578 51.453 18.0508 51.8547 17.8369C52.2564 17.6229 52.6581 17.2955 53.0599 16.8545V11.9137C52.6448 11.5506 52.2464 11.2945 51.8647 11.1453C51.4831 10.9962 51.0914 10.9216 50.6897 10.9216C50.3014 10.9216 49.9365 11.0092 49.595 11.1843C49.2535 11.3593 48.9556 11.6057 48.7012 11.9234C48.4467 12.2411 48.2459 12.6205 48.0986 13.0614C47.9513 13.5023 47.8776 13.9951 47.8776 14.5397C47.8776 15.6809 48.112 16.5692 48.5807 17.2047ZM62.0528 19.5C62.6152 19.5 63.1508 19.3865 63.6597 19.1595C64.1685 18.9326 64.6171 18.5987 65.0054 18.1578C65.3938 17.7168 65.7018 17.1787 65.9294 16.5432C66.1571 15.9078 66.2709 15.1881 66.2709 14.3841C66.2709 13.6578 66.1872 12.9997 66.0198 12.4097C65.8524 11.8196 65.6047 11.3139 65.2766 10.8924C64.9485 10.4709 64.5435 10.1467 64.0614 9.91979C63.5793 9.69285 63.0236 9.57938 62.3942 9.57938C61.8452 9.57938 61.3096 9.70582 60.7874 9.95869C60.2651 10.2116 59.783 10.526 59.3411 10.9021L59.3813 9.19034V5.41663H57.7343V19.2665H59.0599L59.2005 18.2939H59.2608C59.6893 18.67 60.1479 18.965 60.6367 19.179C61.1255 19.393 61.5975 19.5 62.0528 19.5ZM60.6568 17.9341C61.0786 18.0833 61.4502 18.1578 61.7715 18.1578C62.1733 18.1578 62.5449 18.0703 62.8863 17.8952C63.2278 17.7202 63.5224 17.4738 63.7701 17.1561C64.0179 16.8383 64.212 16.446 64.3526 15.9792C64.4932 15.5123 64.5635 14.9871 64.5635 14.4036C64.5635 13.8849 64.5167 13.4115 64.4229 12.9836C64.3292 12.5556 64.1785 12.1893 63.971 11.8845C63.7634 11.5798 63.4956 11.3431 63.1675 11.1745C62.8395 11.0059 62.4478 10.9216 61.9925 10.9216C61.2024 10.9216 60.332 11.3496 59.3813 12.2055V17.1658C59.8098 17.5289 60.235 17.785 60.6568 17.9341ZM70.3025 19.5C70.5301 19.5 70.7176 19.487 70.8649 19.4611C71.0122 19.4351 71.1394 19.3962 71.2466 19.3443L71.0256 18.1383C70.9319 18.1642 70.8616 18.1772 70.8147 18.1772H70.6641C70.5435 18.1772 70.4364 18.1253 70.3427 18.0216C70.2489 17.9179 70.2021 17.7363 70.2021 17.4769V5.41663H68.555V17.3602C68.555 18.0605 68.6889 18.5922 68.9567 18.9553C69.2245 19.3184 69.6731 19.5 70.3025 19.5ZM78.9036 19.1692C78.3613 19.3896 77.7888 19.4999 77.1862 19.4999C76.5836 19.4999 76.0112 19.3896 75.4688 19.1692C74.9265 18.9487 74.4478 18.6278 74.0327 18.2063C73.6176 17.7848 73.2861 17.2661 73.0384 16.6501C72.7907 16.0341 72.6668 15.3371 72.6668 14.559C72.6668 13.768 72.7907 13.0645 73.0384 12.4485C73.2861 11.8325 73.6176 11.3105 74.0327 10.8826C74.4478 10.4546 74.9265 10.1304 75.4688 9.90997C76.0112 9.68951 76.5836 9.57928 77.1862 9.57928C77.7888 9.57928 78.3613 9.68951 78.9036 9.90997C79.4459 10.1304 79.9246 10.4546 80.3397 10.8826C80.7549 11.3105 81.0863 11.8325 81.334 12.4485C81.5817 13.0645 81.7056 13.768 81.7056 14.559C81.7056 15.3371 81.5817 16.0341 81.334 16.6501C81.0863 17.2661 80.7549 17.7848 80.3397 18.2063C79.9246 18.6278 79.4459 18.9487 78.9036 19.1692ZM77.1861 18.1773C76.771 18.1773 76.3894 18.0897 76.0412 17.9147C75.6931 17.7396 75.3951 17.4932 75.1474 17.1755C74.8997 16.8578 74.7088 16.4785 74.5749 16.0375C74.441 15.5966 74.3741 15.1038 74.3741 14.5592C74.3741 14.0145 74.441 13.5185 74.5749 13.0711C74.7088 12.6237 74.8997 12.2379 75.1474 11.9137C75.3951 11.5895 75.6931 11.3398 76.0412 11.1648C76.3894 10.9897 76.771 10.9022 77.1861 10.9022C77.6013 10.9022 77.9829 10.9897 78.3311 11.1648C78.6792 11.3398 78.9772 11.5895 79.2249 11.9137C79.4726 12.2379 79.6634 12.6237 79.7973 13.0711C79.9313 13.5185 79.9982 14.0145 79.9982 14.5592C79.9982 15.1038 79.9313 15.5966 79.7973 16.0375C79.6634 16.4785 79.4726 16.8578 79.2249 17.1755C78.9772 17.4932 78.6792 17.7396 78.3311 17.9147C77.9829 18.0897 77.6013 18.1773 77.1861 18.1773ZM89.5334 19.1789C88.9978 19.3929 88.4354 19.4999 87.8462 19.4999C87.2034 19.4999 86.6009 19.3896 86.0384 19.1692C85.476 18.9487 84.9906 18.6278 84.5822 18.2063C84.1738 17.7848 83.8524 17.2661 83.6181 16.6501C83.3837 16.0341 83.2666 15.3371 83.2666 14.559C83.2666 13.768 83.3938 13.0645 83.6482 12.4485C83.9026 11.8325 84.2441 11.3105 84.6726 10.8826C85.1011 10.4546 85.5999 10.1304 86.169 9.90997C86.7381 9.68951 87.3374 9.57928 87.9667 9.57928C88.6095 9.57928 89.1585 9.68951 89.6138 9.90997C90.0691 10.1304 90.4708 10.3898 90.819 10.6881L89.9753 11.7385C89.6941 11.4921 89.3962 11.2911 89.0815 11.1355C88.7668 10.9798 88.4153 10.902 88.027 10.902C87.5851 10.902 87.1767 10.9896 86.8017 11.1646C86.4268 11.3397 86.1054 11.5893 85.8376 11.9135C85.5698 12.2377 85.3589 12.6235 85.2049 13.0709C85.0509 13.5183 84.9739 14.0144 84.9739 14.559C84.9739 15.1037 85.0475 15.5965 85.1948 16.0374C85.3421 16.4783 85.5463 16.8576 85.8075 17.1753C86.0686 17.4931 86.3866 17.7394 86.7616 17.9145C87.1365 18.0896 87.5449 18.1771 87.9868 18.1771C88.4421 18.1771 88.8606 18.0831 89.2422 17.8951C89.6238 17.707 89.9686 17.4833 90.2766 17.224L90.9997 18.2938C90.5578 18.6699 90.0691 18.9649 89.5334 19.1789ZM94.4891 16.7767L96.317 14.7147L99.1692 19.2665H100.977L97.261 13.606L100.535 9.8128H98.7072L94.5494 14.7925H94.4891V5.41663H92.8621V19.2665H94.4891V16.7767ZM105.37 14.9676V19.2665H102.417V6.58376H106.917C107.64 6.58376 108.316 6.65184 108.945 6.788C109.575 6.92417 110.124 7.15111 110.592 7.46883C111.061 7.78655 111.433 8.20801 111.707 8.73322C111.982 9.25842 112.119 9.90358 112.119 10.6687C112.119 11.4079 111.982 12.0498 111.707 12.5945C111.433 13.1391 111.061 13.5865 110.592 13.9367C110.124 14.2868 109.581 14.5462 108.965 14.7147C108.349 14.8833 107.693 14.9676 106.997 14.9676H105.37ZM106.816 12.6917H105.37V8.85961H106.736C107.539 8.85961 108.155 8.99577 108.584 9.2681C109.012 9.54043 109.226 10.0073 109.226 10.6687C109.226 12.0173 108.423 12.6917 106.816 12.6917ZM117.457 19.4317C117.209 19.4771 116.918 19.4998 116.583 19.4998C116.074 19.4998 115.646 19.422 115.298 19.2664C114.95 19.1108 114.672 18.8935 114.464 18.6147C114.257 18.3359 114.106 17.9987 114.012 17.6032C113.918 17.2077 113.872 16.7635 113.872 16.2707V5.63044H116.824V16.3875C116.824 16.6857 116.881 16.8932 116.995 17.0099C117.109 17.1266 117.226 17.185 117.346 17.185H117.517C117.564 17.185 117.628 17.172 117.708 17.1461L118.07 19.2664C117.909 19.3312 117.705 19.3863 117.457 19.4317ZM122.333 19.4999C123.016 19.4999 123.602 19.3605 124.091 19.0817C124.58 18.8029 125.038 18.4171 125.467 17.9243H125.527L125.748 19.2665H128.158V9.61823H125.206V15.9985C124.911 16.3746 124.636 16.6469 124.382 16.8155C124.128 16.9841 123.813 17.0684 123.438 17.0684C123.009 17.0684 122.695 16.9387 122.494 16.6793C122.293 16.42 122.193 15.9402 122.193 15.2399V9.61823H119.24V15.6095C119.24 16.8285 119.484 17.7816 119.973 18.4689C120.462 19.1562 121.249 19.4999 122.333 19.4999ZM135.174 19.2569C134.665 19.419 134.076 19.5 133.406 19.5C132.75 19.5 132.077 19.3768 131.388 19.1305C130.698 18.8841 130.099 18.5599 129.59 18.1578L130.915 16.3683C131.371 16.7054 131.806 16.9583 132.221 17.1269C132.636 17.2955 133.058 17.3798 133.487 17.3798C133.928 17.3798 134.25 17.3084 134.451 17.1658C134.652 17.0231 134.752 16.8221 134.752 16.5628C134.752 16.4072 134.695 16.2678 134.581 16.1446C134.467 16.0214 134.313 15.9079 134.119 15.8041C133.925 15.7004 133.707 15.6064 133.466 15.5221C133.225 15.4378 132.978 15.3438 132.723 15.24C132.415 15.1233 132.107 14.9872 131.799 14.8315C131.491 14.6759 131.21 14.4846 130.956 14.2577C130.701 14.0308 130.494 13.7649 130.333 13.4602C130.172 13.1554 130.092 12.802 130.092 12.4C130.092 11.9591 130.182 11.5506 130.363 11.1745C130.544 10.7985 130.802 10.4807 131.136 10.2214C131.471 9.96202 131.873 9.75777 132.342 9.60864C132.81 9.45951 133.333 9.38494 133.908 9.38494C134.672 9.38494 135.341 9.51138 135.917 9.76426C136.493 10.0171 136.995 10.2992 137.423 10.6104L136.098 12.3222C135.736 12.0629 135.381 11.8618 135.033 11.7192C134.685 11.5765 134.337 11.5052 133.989 11.5052C133.239 11.5052 132.864 11.7581 132.864 12.2639C132.864 12.4195 132.917 12.5524 133.025 12.6626C133.132 12.7729 133.276 12.8734 133.456 12.9641C133.637 13.0549 133.845 13.1424 134.079 13.2267C134.313 13.311 134.558 13.3986 134.812 13.4893C135.134 13.6061 135.452 13.739 135.766 13.8881C136.081 14.0372 136.369 14.222 136.63 14.4425C136.891 14.663 137.102 14.932 137.263 15.2498C137.423 15.5675 137.504 15.9468 137.504 16.3877C137.504 16.8286 137.417 17.2371 137.243 17.6132C137.069 17.9893 136.807 18.3167 136.459 18.5955C136.111 18.8743 135.683 19.0948 135.174 19.2569Z" fill="black"/>
</svg>
