<svg width="183" height="33" viewBox="0 0 183 33" fill="none" xmlns="http://www.w3.org/2000/svg">
<path fill-rule="evenodd" clip-rule="evenodd" d="M9.59936 0L0.000366211 9.59244V23.1584L9.59936 32.7509H23.1743L32.7736 23.1584V9.59244L23.1743 0H9.59936Z" fill="#D8D9D9"/>
<path fill-rule="evenodd" clip-rule="evenodd" d="M9.68889 0.216309L0.21637 9.68203V23.0688L9.68889 32.5345H23.0848L32.557 23.0688V9.68203L23.0848 0.216309H9.68889Z" fill="white"/>
<path fill-rule="evenodd" clip-rule="evenodd" d="M10.3134 31.0271L1.72455 22.4441V10.3064L10.3134 1.72339H22.4597L31.0482 10.3064V22.4441L22.4597 31.0271H10.3134Z" fill="#ED1E45"/>
<path fill-rule="evenodd" clip-rule="evenodd" d="M8.37662 17.2011L8.14712 16.1451C8.00413 15.5705 7.86642 14.9604 7.734 14.3149C7.60125 13.6697 7.4685 13.0477 7.33608 12.4494H7.27499C7.15248 13.0596 7.02732 13.6843 6.90018 14.3238C6.77239 14.9633 6.63732 15.5705 6.49467 16.1451L6.24964 17.2011H8.37662ZM8.83577 19.2246H5.79077L5.17886 21.9523H2.88379L6.00508 10.4779H8.71326L11.8349 21.9523H9.44768L8.83577 19.2246Z" fill="white"/>
<path fill-rule="evenodd" clip-rule="evenodd" d="M16.7463 19.9455C17.9804 19.9455 18.5976 19.4234 18.5976 18.3793C18.5976 17.8747 18.4447 17.5081 18.1386 17.2794C17.8325 17.0504 17.3682 16.9362 16.7463 16.9362H15.4763V19.9455H16.7463ZM16.532 15.1062C17.0828 15.1062 17.4831 14.9805 17.7331 14.728C17.983 14.4759 18.1082 14.1327 18.1082 13.6984C18.1082 13.2645 17.9804 12.9536 17.7255 12.7658C17.4705 12.5781 17.0776 12.484 16.5472 12.484H15.4763V15.1062H16.532ZM13.2271 10.4779H16.639C17.1594 10.4779 17.6412 10.5218 18.0851 10.6099C18.5289 10.698 18.9162 10.8534 19.2481 11.0762C19.5793 11.2993 19.8395 11.5926 20.0284 11.956C20.217 12.32 20.3114 12.7777 20.3114 13.3288C20.3114 13.5872 20.2781 13.8452 20.212 14.1033C20.1453 14.3613 20.0459 14.6019 19.9135 14.8247C19.7808 15.0477 19.6074 15.2471 19.3934 15.423C19.1791 15.5992 18.9291 15.7282 18.6435 15.8104V15.8807C19.3574 16.0331 19.8957 16.3268 20.2579 16.7604C20.6199 17.1947 20.8008 17.799 20.8008 18.5731C20.8008 19.1599 20.7014 19.6644 20.5026 20.0868C20.3038 20.5092 20.0284 20.8584 19.6764 21.1339C19.3244 21.4098 18.9136 21.6151 18.4447 21.7497C17.9754 21.885 17.4705 21.9523 16.9299 21.9523H13.2271V10.4779Z" fill="white"/>
<path fill-rule="evenodd" clip-rule="evenodd" d="M25.8502 16.0044C27.0743 16.0044 27.6862 15.3945 27.6862 14.1742C27.6862 13.5759 27.5307 13.1535 27.2196 12.907C26.9082 12.6605 26.4518 12.5374 25.8502 12.5374H24.5956V16.0044H25.8502ZM22.3461 10.4779H25.9878C26.5284 10.4779 27.0359 10.5393 27.5101 10.6627C27.9847 10.7858 28.3978 10.9911 28.7495 11.2785C29.1015 11.5662 29.3792 11.9474 29.5836 12.4226C29.7874 12.8975 29.8894 13.4812 29.8894 14.1736C29.8894 14.8422 29.7847 15.423 29.5757 15.9156C29.3667 16.4087 29.0837 16.8132 28.7267 17.13C28.3694 17.4468 27.9563 17.6818 27.4874 17.8339C27.0178 17.9867 26.5181 18.063 25.9878 18.063H24.5956V21.952H22.3461V10.4779Z" fill="white"/>
<path fill-rule="evenodd" clip-rule="evenodd" d="M63.8057 24.7501C64.5375 24.7501 65.2224 24.5814 65.8606 24.244C66.4987 23.9066 67.0645 23.5074 67.5581 23.0466H67.6346L67.8133 24.4539H69.5491V6.87512H67.4304V11.492L67.5325 13.5412C66.988 13.1133 66.4519 12.7758 65.9244 12.529C65.3968 12.2821 64.7757 12.1586 64.061 12.1586C63.3462 12.1586 62.6655 12.3068 62.0189 12.603C61.3722 12.8993 60.8021 13.319 60.3086 13.8622C59.8151 14.4053 59.4195 15.0678 59.1216 15.8497C58.8238 16.6315 58.6749 17.5079 58.6749 18.4791C58.6749 20.4871 59.1387 22.0343 60.0661 23.1206C60.9936 24.207 62.2401 24.7501 63.8057 24.7501ZM47.808 19.5165L46.1998 24.4544H44.0301L49.6969 8.25823H52.0964L57.7632 24.4544H55.4914L53.9087 19.5165H47.808ZM48.3442 17.8622H53.3728L52.5815 15.3933C52.2752 14.488 51.9859 13.5869 51.7136 12.6898C51.4414 11.7928 51.1691 10.8752 50.8968 9.93699H50.7947C50.5394 10.8752 50.2757 11.7928 50.0034 12.6898C49.7311 13.5869 49.4418 14.488 49.1355 15.3933L48.3442 17.8622ZM61.7378 21.8374C62.3335 22.6439 63.1758 23.0472 64.2649 23.0472C64.8435 23.0472 65.3881 22.9114 65.8986 22.6398C66.4091 22.3682 66.9197 21.9526 67.4302 21.393V15.1219C66.9026 14.6611 66.3964 14.336 65.9114 14.1467C65.4264 13.9574 64.9286 13.8628 64.4181 13.8628C63.9246 13.8628 63.4609 13.9739 63.0269 14.1961C62.593 14.4183 62.2143 14.731 61.891 15.1343C61.5677 15.5375 61.3124 16.019 61.1252 16.5786C60.938 17.1382 60.8444 17.7637 60.8444 18.455C60.8444 19.9034 61.1422 21.0309 61.7378 21.8374ZM78.8588 24.7501C79.5735 24.7501 80.2542 24.6061 80.9008 24.3181C81.5475 24.03 82.1176 23.6062 82.6111 23.0466C83.1046 22.4869 83.496 21.8039 83.7853 20.9974C84.0746 20.1908 84.2193 19.2773 84.2193 18.2569C84.2193 17.3351 84.1129 16.4998 83.9002 15.7509C83.6875 15.002 83.3726 14.3601 82.9557 13.8251C82.5388 13.2902 82.024 12.8787 81.4114 12.5907C80.7987 12.3026 80.0925 12.1586 79.2927 12.1586C78.595 12.1586 77.9143 12.3191 77.2506 12.6401C76.5869 12.961 75.9743 13.3602 75.4127 13.8375L75.4638 11.6648V6.87512H73.3706V24.4539H75.0554L75.234 23.2194H75.3106C75.8552 23.6967 76.438 24.0712 77.0592 24.3428C77.6803 24.6143 78.2802 24.7501 78.8588 24.7501ZM77.0846 22.7632C77.6206 22.9525 78.0929 23.0472 78.5013 23.0472C79.0118 23.0472 79.484 22.9361 79.918 22.7139C80.3519 22.4916 80.7263 22.1789 81.0411 21.7757C81.356 21.3724 81.6027 20.8745 81.7814 20.282C81.9601 19.6894 82.0494 19.0228 82.0494 18.2821C82.0494 17.6238 81.9899 17.023 81.8707 16.4798C81.7516 15.9367 81.5602 15.4717 81.2964 15.0849C81.0326 14.6981 80.6923 14.3977 80.2754 14.1837C79.8584 13.9698 79.3607 13.8628 78.7821 13.8628C77.778 13.8628 76.6719 14.4059 75.4637 15.4923V21.788C76.0082 22.2489 76.5485 22.5739 77.0846 22.7632ZM89.3428 24.7501C89.6321 24.7501 89.8703 24.7337 90.0575 24.7007C90.2447 24.6678 90.4064 24.6184 90.5425 24.5526L90.2617 23.0219C90.1426 23.0548 90.0533 23.0713 89.9937 23.0713H89.8022C89.6491 23.0713 89.513 23.0054 89.3938 22.8737C89.2747 22.7421 89.2151 22.5116 89.2151 22.1824V6.87512H87.122V22.0343C87.122 22.9231 87.2922 23.598 87.6325 24.0588C87.9729 24.5197 88.543 24.7501 89.3428 24.7501ZM100.273 24.3298C99.5843 24.6096 98.8568 24.7495 98.091 24.7495C97.3252 24.7495 96.5977 24.6096 95.9085 24.3298C95.2193 24.05 94.6109 23.6426 94.0834 23.1077C93.5558 22.5728 93.1346 21.9144 92.8198 21.1326C92.505 20.3507 92.3476 19.4661 92.3476 18.4785C92.3476 17.4745 92.505 16.5815 92.8198 15.7997C93.1346 15.0179 93.5558 14.3554 94.0834 13.8122C94.6109 13.2691 95.2193 12.8576 95.9085 12.5778C96.5977 12.2979 97.3252 12.158 98.091 12.158C98.8568 12.158 99.5843 12.2979 100.273 12.5778C100.963 12.8576 101.571 13.2691 102.099 13.8122C102.626 14.3554 103.047 15.0179 103.362 15.7997C103.677 16.5815 103.834 17.4745 103.834 18.4785C103.834 19.4661 103.677 20.3507 103.362 21.1326C103.047 21.9144 102.626 22.5728 102.099 23.1077C101.571 23.6426 100.963 24.05 100.273 24.3298ZM98.0907 23.0706C97.5632 23.0706 97.0782 22.9595 96.6358 22.7373C96.1933 22.5151 95.8147 22.2023 95.4998 21.7991C95.185 21.3958 94.9425 20.9144 94.7723 20.3548C94.6022 19.7951 94.5171 19.1697 94.5171 18.4784C94.5171 17.7871 94.6022 17.1575 94.7723 16.5897C94.9425 16.0218 95.185 15.5321 95.4998 15.1206C95.8147 14.7092 96.1933 14.3923 96.6358 14.1701C97.0782 13.9479 97.5632 13.8368 98.0907 13.8368C98.6183 13.8368 99.1033 13.9479 99.5457 14.1701C99.9882 14.3923 100.367 14.7092 100.682 15.1206C100.996 15.5321 101.239 16.0218 101.409 16.5897C101.579 17.1575 101.664 17.7871 101.664 18.4784C101.664 19.1697 101.579 19.7951 101.409 20.3548C101.239 20.9144 100.996 21.3958 100.682 21.7991C100.367 22.2023 99.9882 22.5151 99.5457 22.7373C99.1033 22.9595 98.6183 23.0706 98.0907 23.0706ZM113.782 24.3422C113.102 24.6138 112.387 24.7495 111.638 24.7495C110.821 24.7495 110.055 24.6096 109.341 24.3298C108.626 24.05 108.009 23.6426 107.49 23.1077C106.971 22.5728 106.563 21.9144 106.265 21.1326C105.967 20.3507 105.818 19.4661 105.818 18.4785C105.818 17.4745 105.98 16.5815 106.303 15.7997C106.626 15.0179 107.06 14.3554 107.605 13.8122C108.149 13.2691 108.783 12.8576 109.507 12.5778C110.23 12.2979 110.991 12.158 111.791 12.158C112.608 12.158 113.306 12.2979 113.884 12.5778C114.463 12.8576 114.973 13.1868 115.416 13.5653L114.344 14.8985C113.986 14.5858 113.608 14.3307 113.208 14.1332C112.808 13.9357 112.361 13.8369 111.868 13.8369C111.306 13.8369 110.787 13.948 110.311 14.1702C109.834 14.3924 109.426 14.7093 109.085 15.1207C108.745 15.5322 108.477 16.0219 108.281 16.5898C108.086 17.1576 107.988 17.7872 107.988 18.4785C107.988 19.1698 108.081 19.7952 108.269 20.3549C108.456 20.9145 108.715 21.3959 109.047 21.7992C109.379 22.2024 109.783 22.5152 110.26 22.7374C110.736 22.9596 111.255 23.0707 111.817 23.0707C112.395 23.0707 112.927 22.9513 113.412 22.7127C113.897 22.474 114.335 22.1901 114.727 21.8609L115.646 23.2188C115.084 23.6961 114.463 24.0706 113.782 24.3422ZM120.08 21.2936L122.403 18.6766L126.027 24.4539H128.325L123.602 17.2693L127.763 12.4549H125.44L120.156 18.7753H120.08V6.87512H118.012V24.4539H120.08V21.2936ZM133.908 18.9974V24.4537H130.156V8.3563H135.873C136.792 8.3563 137.652 8.44271 138.452 8.61554C139.251 8.78836 139.949 9.0764 140.545 9.47966C141.14 9.88292 141.613 10.4179 141.961 11.0845C142.31 11.7511 142.485 12.5699 142.485 13.541C142.485 14.4792 142.31 15.294 141.961 15.9853C141.613 16.6766 141.14 17.2444 140.545 17.6888C139.949 18.1332 139.26 18.4624 138.477 18.6764C137.694 18.8904 136.86 18.9974 135.975 18.9974H133.908ZM135.746 16.1089H133.908V11.2451H135.644C136.665 11.2451 137.447 11.4179 137.992 11.7636C138.537 12.1092 138.809 12.7018 138.809 13.5412C138.809 15.253 137.788 16.1089 135.746 16.1089ZM149.268 24.6633C148.954 24.7209 148.583 24.7497 148.158 24.7497C147.511 24.7497 146.967 24.6509 146.524 24.4534C146.082 24.2559 145.729 23.9802 145.465 23.6263C145.201 23.2724 145.01 22.8445 144.891 22.3425C144.772 21.8405 144.712 21.2767 144.712 20.6513V7.14626H148.464V20.7994C148.464 21.178 148.537 21.4413 148.681 21.5895C148.826 21.7376 148.975 21.8117 149.128 21.8117H149.345C149.405 21.8117 149.485 21.7952 149.588 21.7623L150.047 24.4534C149.843 24.5357 149.583 24.6057 149.268 24.6633ZM155.466 24.7506C156.333 24.7506 157.078 24.5737 157.699 24.2198C158.32 23.8659 158.903 23.3763 159.448 22.7508H159.524L159.805 24.4544H162.868V12.2085H159.116V20.3066C158.741 20.7839 158.393 21.1296 158.069 21.3435C157.746 21.5575 157.346 21.6645 156.869 21.6645C156.325 21.6645 155.925 21.4999 155.67 21.1707C155.414 20.8415 155.287 20.2325 155.287 19.3437V12.2085H151.535V19.8128C151.535 21.36 151.845 22.5698 152.466 23.4421C153.087 24.3145 154.087 24.7506 155.466 24.7506ZM171.783 24.4412C171.137 24.6469 170.388 24.7498 169.537 24.7498C168.703 24.7498 167.848 24.5935 166.972 24.2807C166.095 23.968 165.334 23.5565 164.687 23.0463L166.372 20.7749C166.95 21.2028 167.503 21.5238 168.031 21.7377C168.558 21.9517 169.095 22.0587 169.639 22.0587C170.201 22.0587 170.609 21.9682 170.864 21.7871C171.12 21.6061 171.247 21.3509 171.247 21.0217C171.247 20.8242 171.175 20.6473 171.03 20.4909C170.886 20.3346 170.69 20.1905 170.443 20.0589C170.196 19.9272 169.92 19.8079 169.614 19.7009C169.307 19.5939 168.992 19.4746 168.669 19.3429C168.278 19.1947 167.886 19.0219 167.495 18.8244C167.103 18.6269 166.746 18.3841 166.423 18.0961C166.099 17.808 165.836 17.4706 165.631 17.0838C165.427 16.697 165.325 16.2485 165.325 15.7382C165.325 15.1786 165.44 14.6602 165.67 14.1828C165.899 13.7055 166.227 13.3022 166.653 12.9731C167.078 12.6439 167.588 12.3846 168.184 12.1953C168.78 12.0061 169.443 11.9114 170.175 11.9114C171.145 11.9114 171.996 12.0719 172.728 12.3929C173.46 12.7138 174.098 13.0718 174.642 13.4668L172.957 15.6395C172.498 15.3103 172.047 15.0552 171.605 14.8741C171.162 14.6931 170.72 14.6025 170.277 14.6025C169.324 14.6025 168.848 14.9235 168.848 15.5654C168.848 15.7629 168.916 15.9316 169.052 16.0716C169.188 16.2115 169.371 16.339 169.601 16.4542C169.831 16.5695 170.094 16.6806 170.392 16.7875C170.69 16.8945 171 17.0056 171.324 17.1208C171.732 17.269 172.136 17.4377 172.536 17.627C172.936 17.8163 173.302 18.0508 173.634 18.3306C173.966 18.6104 174.234 18.952 174.438 19.3552C174.642 19.7585 174.744 20.2399 174.744 20.7995C174.744 21.3592 174.634 21.8776 174.412 22.355C174.191 22.8323 173.859 23.2479 173.417 23.6018C172.975 23.9556 172.43 24.2355 171.783 24.4412Z" fill="black"/>
</svg>
