<svg width="110" height="22" viewBox="0 0 110 22" fill="none" xmlns="http://www.w3.org/2000/svg">
<path d="M11 -6.10352e-05L14.2328 6.55035L21.4616 7.60075L16.2308 12.6995L17.4656 19.8991L11 16.4999L4.53436 19.8991L5.76919 12.6995L0.538379 7.60075L7.76718 6.55035L11 -6.10352e-05Z" fill="#EDA51E"/>
<path d="M33 -6.10352e-05L36.2328 6.55035L43.4616 7.60075L38.2308 12.6995L39.4656 19.8991L33 16.4999L26.5344 19.8991L27.7692 12.6995L22.5384 7.60075L29.7672 6.55035L33 -6.10352e-05Z" fill="#EDA51E"/>
<path d="M55 -6.10352e-05L58.2328 6.55035L65.4616 7.60075L60.2308 12.6995L61.4656 19.8991L55 16.4999L48.5344 19.8991L49.7692 12.6995L44.5384 7.60075L51.7672 6.55035L55 -6.10352e-05Z" fill="#EDA51E"/>
<path d="M77 -6.10352e-05L80.2328 6.55035L87.4616 7.60075L82.2308 12.6995L83.4656 19.8991L77 16.4999L70.5344 19.8991L71.7692 12.6995L66.5384 7.60075L73.7672 6.55035L77 -6.10352e-05Z" fill="#EDA51E"/>
<path d="M99 -6.10352e-05L102.233 6.55035L109.462 7.60075L104.231 12.6995L105.466 19.8991L99 16.4999L92.5344 19.8991L93.7692 12.6995L88.5384 7.60075L95.7672 6.55035L99 -6.10352e-05Z" fill="#EDA51E"/>
<path fill-rule="evenodd" clip-rule="evenodd" d="M99 16.4999L105.466 19.8991L104.231 12.6995L109.462 7.60075L102.233 6.55035L99 -6.10352e-05V16.4999Z" fill="#CDCDCD"/>
</svg>
